STARTFONT 2.1
COMMENT Converted from Johnston100 W03 Regular.ttf at 37px with ttf2bdf.py (Pillow, 1-bit, no AA)
FONT -Misc-Johnston100-Medium-R-Normal--37-370-75-75-P-390-ISO10646-1
SIZE 37 75 75
FONTBOUNDINGBOX 39 43 -2 -10
STARTPROPERTIES 9
FOUNDRY "Misc"
FAMILY_NAME "Johnston100"
WEIGHT_NAME "Medium"
SLANT "R"
PIXEL_SIZE 37
RESOLUTION_X 75
RESOLUTION_Y 75
FONT_ASCENT 33
FONT_DESCENT 10
ENDPROPERTIES
CHARS 200
STARTCHAR space
ENCODING 32
SWIDTH 259 0
DWIDTH 10 0
BBX 10 43 0 -10
BITMAP
0000
0000
0000
0000
0000
0000
0000
0000
0000
0000
0000
0000
0000
0000
0000
0000
0000
0000
0000
0000
0000
0000
0000
0000
0000
0000
0000
0000
0000
0000
0000
0000
0000
0000
0000
0000
0000
0000
0000
0000
0000
0000
0000
ENDCHAR
STARTCHAR !
ENCODING 33
SWIDTH 285 0
DWIDTH 11 0
BBX 11 25 0 0
BITMAP
1E00
1E00
1E00
1E00
1E00
1E00
1E00
1E00
1E00
1E00
0E00
0E00
0E00
0E00
0E00
0E00
0E00
0E00
0C00
0000
0400
0E00
1F00
0E00
0400
ENDCHAR
STARTCHAR "
ENCODING 34
SWIDTH 389 0
DWIDTH 15 0
BBX 15 25 0 0
BITMAP
1C78
1C78
1C78
1C78
1C78
1C70
1C30
1830
1830
0000
0000
0000
0000
0000
0000
0000
0000
0000
0000
0000
0000
0000
0000
0000
0000
ENDCHAR
STARTCHAR U+0023
ENCODING 35
SWIDTH 726 0
DWIDTH 28 0
BBX 28 25 0 0
BITMAP
00060200
001C0E00
001C0E00
001C0E00
001C1C00
00381C00
00381C00
0FFFFFE0
0FFFFFE0
0FFFFFC0
00707000
00707000
00E07000
00E07000
00E0E000
3FFFFF80
3FFFFF00
7FFFFF00
0381C000
0381C000
0381C000
03838000
07038000
07038000
04060000
ENDCHAR
STARTCHAR $
ENCODING 36
SWIDTH 493 0
DWIDTH 19 0
BBX 19 30 0 -3
BITMAP
01E000
01E000
01E000
07F800
0FFE00
1FFE00
3E0C00
3C0000
3C0000
3E0000
1F0000
1FC000
0FF000
07FC00
01FE00
007F00
001F00
000F80
000780
000780
000780
380780
780F80
3E1F00
1FFE00
0FFC00
07F000
01E000
01E000
01E000
ENDCHAR
STARTCHAR %
ENCODING 37
SWIDTH 726 0
DWIDTH 28 0
BBX 28 25 0 0
BITMAP
07C01C00
0FE03800
1FF07800
3C707000
3838F000
3838E000
3839C000
3C71C000
1FF38000
1FE38000
07870000
00070000
000E0000
000E0000
001C3E00
001C7F00
0038FF80
0039E380
0071C1C0
0071C1C0
00E1C1C0
00E1E380
01C0FF80
01C07F00
03803E00
ENDCHAR
STARTCHAR &
ENCODING 38
SWIDTH 649 0
DWIDTH 25 0
BBX 25 25 0 0
BITMAP
00FC0000
03FE0000
07FF0000
078F8000
0F078000
0F038000
0F078000
07878000
078F8000
03DF0000
01FE0000
03FC0000
07F81E00
0FFC1E00
1F3E3C00
3E1F3C00
3C0FF800
3C07F800
3803F000
3C01F000
3C03F000
1E0FF800
1FFF3C00
0FFE3E00
03F81F00
ENDCHAR
STARTCHAR '
ENCODING 39
SWIDTH 234 0
DWIDTH 9 0
BBX 9 25 0 0
BITMAP
1C00
1C00
1C00
1C00
1C00
1C00
1C00
1800
1800
0000
0000
0000
0000
0000
0000
0000
0000
0000
0000
0000
0000
0000
0000
0000
0000
ENDCHAR
STARTCHAR (
ENCODING 40
SWIDTH 259 0
DWIDTH 10 0
BBX 10 30 0 -3
BITMAP
0700
0700
0F00
0E00
0E00
1E00
1C00
1C00
1C00
1C00
3C00
3C00
3C00
3C00
3C00
3C00
3C00
3C00
3C00
3C00
3C00
1C00
1C00
1C00
1E00
0E00
0E00
0F00
0700
0700
ENDCHAR
STARTCHAR )
ENCODING 41
SWIDTH 259 0
DWIDTH 10 0
BBX 10 30 0 -3
BITMAP
7000
3800
3800
3C00
1C00
1C00
1E00
0E00
0E00
0E00
0E00
0E00
0F00
0F00
0F00
0F00
0F00
0F00
0E00
0E00
0E00
0E00
0E00
1E00
1C00
1C00
3C00
3800
3800
7000
ENDCHAR
STARTCHAR *
ENCODING 42
SWIDTH 389 0
DWIDTH 15 0
BBX 15 25 0 0
BITMAP
0380
0380
2390
3BB8
7D7C
1FF0
0780
0FF0
7D7C
3BB8
2390
0380
0380
0000
0000
0000
0000
0000
0000
0000
0000
0000
0000
0000
0000
ENDCHAR
STARTCHAR +
ENCODING 43
SWIDTH 519 0
DWIDTH 20 0
BBX 20 20 0 0
BITMAP
00E000
00E000
00E000
00E000
00E000
00E000
1FFF80
1FFF80
1FFF80
00E000
00E000
00E000
00E000
00E000
00E000
000000
000000
000000
000000
000000
ENDCHAR
STARTCHAR ,
ENCODING 44
SWIDTH 234 0
DWIDTH 9 0
BBX 9 9 0 -4
BITMAP
0800
1C00
3E00
1E00
1E00
0C00
0C00
1800
2000
ENDCHAR
STARTCHAR -
ENCODING 45
SWIDTH 363 0
DWIDTH 14 0
BBX 14 12 0 0
BITMAP
7FF8
7FF8
7FF8
0000
0000
0000
0000
0000
0000
0000
0000
0000
ENDCHAR
STARTCHAR .
ENCODING 46
SWIDTH 234 0
DWIDTH 9 0
BBX 9 5 0 0
BITMAP
0800
1C00
3E00
1C00
0800
ENDCHAR
STARTCHAR /
ENCODING 47
SWIDTH 311 0
DWIDTH 12 0
BBX 12 30 0 -3
BITMAP
00F0
00F0
00E0
00E0
01E0
01C0
01C0
03C0
0380
0380
0380
0780
0700
0700
0F00
0E00
0E00
0E00
1E00
1C00
1C00
3C00
3800
3800
3800
7800
7000
7000
F000
E000
ENDCHAR
STARTCHAR 0
ENCODING 48
SWIDTH 571 0
DWIDTH 22 0
BBX 22 25 0 0
BITMAP
00FC00
01FE00
03FF00
078780
0F03C0
0F03C0
1E01C0
1E01E0
1E01E0
1C01E0
1C01E0
1C01E0
1C01E0
1C01E0
1C01E0
1E01E0
1E01E0
1E01E0
1E01C0
0F03C0
0F03C0
078780
07FF00
01FE00
00FC00
ENDCHAR
STARTCHAR 1
ENCODING 49
SWIDTH 285 0
DWIDTH 11 0
BBX 11 25 0 0
BITMAP
0100
0300
0F00
0F00
0F00
0F00
0F00
0F00
0F00
0F00
0F00
0F00
0F00
0F00
0F00
0F00
0F00
0F00
0F00
0F00
0F00
0F00
0F00
0F00
0F00
ENDCHAR
STARTCHAR 2
ENCODING 50
SWIDTH 467 0
DWIDTH 18 0
BBX 18 25 0 0
BITMAP
03F000
0FFC00
1FFE00
1E1F00
180F00
100700
200780
000780
000F00
000F00
000F00
001E00
003E00
003C00
007C00
00F800
00F000
01F000
03E000
03C000
07C000
0F8000
0FFF80
1FFF80
1FFF80
ENDCHAR
STARTCHAR 3
ENCODING 51
SWIDTH 493 0
DWIDTH 19 0
BBX 19 25 0 0
BITMAP
3FFF80
3FFF80
3FFF00
001E00
003E00
003C00
007800
00F800
00F000
01F800
01FE00
021F00
000F80
000780
000380
0003C0
0003C0
0003C0
000380
100780
380F80
7C1F00
3FFE00
1FFC00
07F000
ENDCHAR
STARTCHAR 4
ENCODING 52
SWIDTH 545 0
DWIDTH 21 0
BBX 21 25 0 0
BITMAP
000000
000100
000300
000700
000F00
001F00
001F00
003F00
007F00
00F700
01E700
03C700
038700
070700
0F0700
1E0700
3FFFF0
7FFFF0
FFFFF0
000700
000700
000700
000700
000700
000700
ENDCHAR
STARTCHAR 5
ENCODING 53
SWIDTH 493 0
DWIDTH 19 0
BBX 19 25 0 0
BITMAP
000000
000000
000000
000000
000000
000000
000000
000000
000000
000000
000000
000000
000000
000000
000000
000000
000000
000000
000000
000000
000000
000000
000000
000000
000000
ENDCHAR
STARTCHAR 6
ENCODING 54
SWIDTH 519 0
DWIDTH 20 0
BBX 20 25 0 0
BITMAP
007C00
00F800
01F000
03E000
03C000
078000
0F0000
0F0000
1E0000
1FF800
1FFE00
3FFF00
3E0F80
380780
3803C0
3803C0
3803C0
3803C0
3C03C0
3C0380
1E0780
1F0F00
0FFF00
07FE00
01F800
ENDCHAR
STARTCHAR 7
ENCODING 55
SWIDTH 467 0
DWIDTH 18 0
BBX 18 25 0 0
BITMAP
3FFF80
3FFF80
3FFF00
000F00
001F00
001E00
001E00
003C00
003C00
007800
007800
00F000
00F000
01F000
01E000
01E000
03C000
03C000
078000
078000
0F0000
0F0000
1F0000
1E0000
1E0000
ENDCHAR
STARTCHAR 8
ENCODING 56
SWIDTH 493 0
DWIDTH 19 0
BBX 19 25 0 0
BITMAP
01F800
07FE00
0FFF00
0F0F00
1E0700
1E0780
1E0780
1E0700
0F0F00
0FFE00
07FC00
03FC00
07FE00
0FBF00
1F0F80
3E07C0
3C03C0
3C03C0
3C03C0
3C03C0
3C0780
1F0F80
0FFF00
07FE00
01F800
ENDCHAR
STARTCHAR 9
ENCODING 57
SWIDTH 519 0
DWIDTH 20 0
BBX 20 25 0 0
BITMAP
01F800
07FE00
0FFF00
1F0F80
1E0780
3C03C0
3C03C0
3803C0
3C03C0
3C03C0
3C03C0
1F07C0
1FFFC0
0FFF80
03FF80
000780
000F00
000F00
001E00
003E00
007C00
00F800
01F800
03E000
07C000
ENDCHAR
STARTCHAR :
ENCODING 58
SWIDTH 285 0
DWIDTH 11 0
BBX 11 19 0 0
BITMAP
0400
0E00
1F00
0E00
0400
0000
0000
0000
0000
0000
0000
0000
0000
0000
0400
0E00
1F00
0E00
0400
ENDCHAR
STARTCHAR ;
ENCODING 59
SWIDTH 285 0
DWIDTH 11 0
BBX 11 22 0 -4
BITMAP
0400
0E00
1F00
0E00
0400
0000
0000
0000
0000
0000
0000
0000
0000
0400
0E00
1F00
0F00
0F00
0600
0600
0C00
1000
ENDCHAR
STARTCHAR U+003C
ENCODING 60
SWIDTH 519 0
DWIDTH 20 0
BBX 20 22 0 0
BITMAP
000080
000380
000F80
003F80
00FF00
03FC00
0FE000
1F8000
1E0000
1F8000
0FE000
03FC00
00FF00
003F80
000F80
000380
000080
000000
000000
000000
000000
000000
ENDCHAR
STARTCHAR =
ENCODING 61
SWIDTH 519 0
DWIDTH 20 0
BBX 20 18 0 0
BITMAP
1FFF80
1FFF80
1FFF80
000000
000000
000000
000000
000000
1FFF80
1FFF80
1FFF80
000000
000000
000000
000000
000000
000000
000000
ENDCHAR
STARTCHAR U+003E
ENCODING 62
SWIDTH 519 0
DWIDTH 20 0
BBX 20 22 0 0
BITMAP
100000
1C0000
1F0000
1FC000
0FF000
03FC00
00FF00
001F80
000780
001F80
00FF00
03FC00
0FF000
1FC000
1F0000
1C0000
100000
000000
000000
000000
000000
000000
ENDCHAR
STARTCHAR ?
ENCODING 63
SWIDTH 441 0
DWIDTH 17 0
BBX 17 25 0 0
BITMAP
07E000
1FF800
7FFC00
783C00
301E00
001E00
001E00
001E00
007C00
00F800
01F000
03E000
078000
070000
070000
078000
07C000
038000
010000
000000
010000
038000
07C000
038000
010000
ENDCHAR
STARTCHAR @
ENCODING 64
SWIDTH 934 0
DWIDTH 36 0
BBX 36 32 0 -7
BITMAP
0003FE0000
001FFFC000
003FFFF000
00FE01F800
01F0007C00
03C0001E00
0780000F00
0701FC8700
0F03FF8780
0E0FFF8380
1C0F078380
1C1E038380
1C1C0783C0
383C0781C0
38380701C0
3838070380
3838070380
3838070380
3838070380
3838070780
3C3C070700
1C1E0F0F00
1C1FFFFE00
1E0FFBFC00
0E03E1F000
0F00000000
0780000000
03E0018000
01FC078000
00FFFF8000
003FFE0000
0007F80000
ENDCHAR
STARTCHAR A
ENCODING 65
SWIDTH 649 0
DWIDTH 25 0
BBX 25 25 0 0
BITMAP
003C0000
003E0000
003E0000
007E0000
007F0000
00FF0000
00F78000
00F78000
01E38000
01E3C000
03C3C000
03C1E000
03C1E000
0781E000
0780F000
0780F000
0FFFF800
0FFFF800
1FFFFC00
1E003C00
1C003C00
3C001E00
3C001E00
78001F00
78000F00
ENDCHAR
STARTCHAR B
ENCODING 66
SWIDTH 571 0
DWIDTH 22 0
BBX 22 25 0 0
BITMAP
0FFC00
0FFF00
0FFF80
0E0F80
0E07C0
0E03C0
0E03C0
0E03C0
0E0380
0E0F80
0FFF00
0FFF80
0FFFC0
0E03E0
0E00F0
0E00F0
0E0070
0E0078
0E0070
0E00F0
0E00F0
0E03E0
0FFFE0
0FFFC0
0FFF00
ENDCHAR
STARTCHAR C
ENCODING 67
SWIDTH 649 0
DWIDTH 25 0
BBX 25 25 0 0
BITMAP
000FE000
007FFC00
01FFFE00
03F01E00
07C00200
0F800000
0F000000
1E000000
1E000000
3C000000
3C000000
3C000000
3C000000
3C000000
3C000000
3C000000
1E000000
1E000000
0F000000
0F800000
07C00200
03F01E00
01FFFE00
007FFC00
000FE000
ENDCHAR
STARTCHAR D
ENCODING 68
SWIDTH 701 0
DWIDTH 27 0
BBX 27 25 0 0
BITMAP
0FFE0000
0FFFC000
0FFFF000
0E03F800
0E007C00
0E003E00
0E001E00
0E000F00
0E000F00
0E000780
0E000780
0E000780
0E000780
0E000780
0E000780
0E000700
0E000F00
0E000F00
0E001E00
0E003E00
0E007C00
0E03F800
0FFFF000
0FFFC000
0FFE0000
ENDCHAR
STARTCHAR E
ENCODING 69
SWIDTH 545 0
DWIDTH 21 0
BBX 21 25 0 0
BITMAP
0FFFE0
0FFFE0
0FFFE0
0E0000
0E0000
0E0000
0E0000
0E0000
0E0000
0E0000
0FFF00
0FFF00
0FFF00
0E0000
0E0000
0E0000
0E0000
0E0000
0E0000
0E0000
0E0000
0E0000
0FFFF0
0FFFF0
0FFFF0
ENDCHAR
STARTCHAR F
ENCODING 70
SWIDTH 519 0
DWIDTH 20 0
BBX 20 25 0 0
BITMAP
0FFFE0
0FFFE0
0FFFE0
0E0000
0E0000
0E0000
0E0000
0E0000
0E0000
0E0000
0FFF00
0FFF00
0FFF00
0E0000
0E0000
0E0000
0E0000
0E0000
0E0000
0E0000
0E0000
0E0000
0E0000
0E0000
0E0000
ENDCHAR
STARTCHAR G
ENCODING 71
SWIDTH 701 0
DWIDTH 27 0
BBX 27 25 0 0
BITMAP
000FF000
007FFE00
01FFFF00
03F01F00
07C00700
0F800100
0F000000
1E000000
1E000000
3C000000
3C000000
3C01FF00
3C01FF00
3C01FF00
3C000700
3C000700
1E000700
1E000700
0F000700
0F800700
07C00700
03F01F00
01FFFF00
007FFE00
001FF000
ENDCHAR
STARTCHAR H
ENCODING 72
SWIDTH 701 0
DWIDTH 27 0
BBX 27 25 0 0
BITMAP
0E000F00
0E000F00
0E000F00
0E000F00
0E000F00
0E000F00
0E000F00
0E000F00
0E000F00
0E000F00
0FFFFF00
0FFFFF00
0FFFFF00
0E000F00
0E000F00
0E000F00
0E000F00
0E000F00
0E000F00
0E000F00
0E000F00
0E000F00
0E000F00
0E000F00
0E000F00
ENDCHAR
STARTCHAR I
ENCODING 73
SWIDTH 285 0
DWIDTH 11 0
BBX 11 25 0 0
BITMAP
0E00
0E00
0E00
0E00
0E00
0E00
0E00
0E00
0E00
0E00
0E00
0E00
0E00
0E00
0E00
0E00
0E00
0E00
0E00
0E00
0E00
0E00
0E00
0E00
0E00
ENDCHAR
STARTCHAR J
ENCODING 74
SWIDTH 467 0
DWIDTH 18 0
BBX 18 25 0 0
BITMAP
001E00
001E00
001E00
001E00
001E00
001E00
001E00
001E00
001E00
001E00
001E00
001E00
001E00
001E00
001E00
001E00
001E00
001C00
001C00
103C00
783C00
7C7C00
3FF800
1FF000
07C000
ENDCHAR
STARTCHAR K
ENCODING 75
SWIDTH 597 0
DWIDTH 23 0
BBX 24 25 0 0
BITMAP
0E007C
0E00F8
0E01F0
0E03E0
0E07C0
0E1F00
0E3E00
0E7C00
0EF800
0FF000
0FE000
0FE000
0FF000
0EF800
0E7C00
0E3E00
0E1E00
0E1F00
0E0F80
0E07C0
0E03E0
0E01F0
0E00F8
0E007C
0E003E
ENDCHAR
STARTCHAR L
ENCODING 76
SWIDTH 519 0
DWIDTH 20 0
BBX 20 25 0 0
BITMAP
0E0000
0E0000
0E0000
0E0000
0E0000
0E0000
0E0000
0E0000
0E0000
0E0000
0E0000
0E0000
0E0000
0E0000
0E0000
0E0000
0E0000
0E0000
0E0000
0E0000
0E0000
0E0000
0FFFE0
0FFFE0
0FFFE0
ENDCHAR
STARTCHAR M
ENCODING 77
SWIDTH 830 0
DWIDTH 32 0
BBX 32 25 0 0
BITMAP
0F0000F8
0F8001F8
0F8001F8
0FC003F8
0FE007F8
0FF00FF8
0EF81F78
0E781E78
0E3C3C78
0E3E7C78
0E1FF878
0E0FF078
0E07E078
0E03C078
0E018078
0E018078
0E000078
0E000078
0E000078
0E000078
0E000078
0E000078
0E000078
0E000078
0E000078
ENDCHAR
STARTCHAR N
ENCODING 78
SWIDTH 752 0
DWIDTH 29 0
BBX 29 25 0 0
BITMAP
0E000780
0F000780
0F800780
0FC00780
0FC00780
0FE00780
0FF00780
0EF80780
0E7C0780
0E3C0780
0E1E0780
0E1F0780
0E0F8780
0E078780
0E03C780
0E03E780
0E01F780
0E00FF80
0E007F80
0E003F80
0E003F80
0E001F80
0E000F80
0E000780
0E000780
ENDCHAR
STARTCHAR O
ENCODING 79
SWIDTH 778 0
DWIDTH 30 0
BBX 30 25 0 0
BITMAP
001FE000
007FF800
01FFFE00
03F03F00
07C00F80
0F8003C0
0F0001E0
1E0001E0
1E0000F0
3C0000F0
3C0000F0
3C0000F0
3C0000F0
3C0000F0
3C0000F0
3C0000F0
1E0000F0
1E0001E0
0F0001E0
0F8003C0
07C00F80
03F03F00
01FFFE00
007FFC00
001FE000
ENDCHAR
STARTCHAR P
ENCODING 80
SWIDTH 571 0
DWIDTH 22 0
BBX 22 25 0 0
BITMAP
0FFE00
0FFF80
0FFFC0
0E03E0
0E01F0
0E00F0
0E00F0
0E00F0
0E00F0
0E00F0
0E01E0
0E03E0
0FFFC0
0FFF80
0FFE00
0E0000
0E0000
0E0000
0E0000
0E0000
0E0000
0E0000
0E0000
0E0000
0E0000
ENDCHAR
STARTCHAR Q
ENCODING 81
SWIDTH 778 0
DWIDTH 30 0
BBX 30 25 0 0
BITMAP
001FE000
007FF800
01FFFE00
03F03F00
07C00F80
0F8003C0
0F0003E0
1E0001E0
1E0000F0
3C0000F0
3C0000F0
3C0000F0
3C0000F0
3C0000F0
3C0000F0
3C0000F0
1E0010F0
1E0019E0
0F003DE0
0F803FC0
07C01F80
03F03FE0
01FFFFF0
007FF9E0
001FE040
ENDCHAR
STARTCHAR R
ENCODING 82
SWIDTH 571 0
DWIDTH 22 0
BBX 23 25 0 0
BITMAP
0FFC00
0FFF00
0FFF80
0E07C0
0E03C0
0E01E0
0E01E0
0E01E0
0E03C0
0E07C0
0FFF80
0FFF00
0FFC00
0E3C00
0E1E00
0E1F00
0E0F80
0E0780
0E07C0
0E03E0
0E01E0
0E01F0
0E00F8
0E0078
0E007C
ENDCHAR
STARTCHAR S
ENCODING 83
SWIDTH 493 0
DWIDTH 19 0
BBX 19 25 0 0
BITMAP
03F000
0FFC00
1FFE00
1E1E00
3C0800
3C0000
3C0000
3E0000
1F8000
1FC000
0FF000
03FC00
00FE00
003F00
001F80
000F80
000780
000780
100780
380780
7C0F00
3E1F00
1FFE00
0FFC00
03F000
ENDCHAR
STARTCHAR T
ENCODING 84
SWIDTH 545 0
DWIDTH 21 0
BBX 21 25 0 0
BITMAP
7FFFF0
7FFFF0
7FFFF0
007800
007800
007800
007800
007800
007800
007800
007800
007800
007800
007800
007800
007800
007800
007800
007800
007800
007800
007800
007800
007800
007800
ENDCHAR
STARTCHAR U
ENCODING 85
SWIDTH 752 0
DWIDTH 29 0
BBX 29 25 0 0
BITMAP
1E000380
1E000380
1E000380
1E000380
1E000380
1E000380
1E000380
1E000380
1E000380
1E000380
1E000380
1E000380
1E000380
1E000380
1E000380
1E000380
1E000780
0F000780
0F000700
07800F00
07C01E00
03F07E00
01FFFC00
00FFF000
001FC000
ENDCHAR
STARTCHAR V
ENCODING 86
SWIDTH 623 0
DWIDTH 24 0
BBX 24 25 0 0
BITMAP
78001E
78003C
3C003C
3C003C
3C0078
1E0078
1E0078
0F00F0
0F00F0
0F00F0
0781E0
0781E0
0381C0
03C3C0
03C3C0
01C380
01E780
01E780
00FF00
00FF00
007E00
007E00
007E00
003C00
003C00
ENDCHAR
STARTCHAR W
ENCODING 87
SWIDTH 934 0
DWIDTH 36 0
BBX 36 25 0 0
BITMAP
78000001E0
3C00F001C0
3C00F803C0
3C00F803C0
1E01F803C0
1E01FC0380
1E01FC0780
0E03DC0780
0F039C0700
0F039E0F00
0F079E0F00
07878E0F00
07870F0E00
078F0F1E00
038F071E00
03CE079C00
03CE07BC00
01DE03BC00
01FC03FC00
01FC03F800
01FC01F800
00FC01F800
00F801F000
00F801F000
007800F000
ENDCHAR
STARTCHAR X
ENCODING 88
SWIDTH 649 0
DWIDTH 25 0
BBX 25 25 0 0
BITMAP
7C001E00
3E003C00
1E007C00
0F00F800
0F80F000
07C1E000
03C3E000
01E7C000
01F78000
00FF0000
007F0000
003E0000
003E0000
007F0000
00FF8000
01F78000
01E3C000
03C3E000
07C1F000
0F80F800
0F007800
1E003C00
3E003E00
7C001F00
78000F00
ENDCHAR
STARTCHAR Y
ENCODING 89
SWIDTH 571 0
DWIDTH 22 0
BBX 22 25 0 0
BITMAP
780078
3C0078
3C00F0
1E01E0
0F01E0
0F03C0
078380
03C780
03CF00
01EF00
01FE00
00FC00
007C00
007800
007800
007800
007800
007800
007800
007800
007800
007800
007800
007800
007800
ENDCHAR
STARTCHAR Z
ENCODING 90
SWIDTH 597 0
DWIDTH 23 0
BBX 23 25 0 0
BITMAP
3FFFFC
3FFFF8
3FFFF8
0001F0
0001E0
0003E0
0007C0
000780
000F80
001F00
001E00
003E00
007C00
007800
00F800
01F000
01E000
03E000
07C000
078000
0F8000
1F0000
1FFFFC
3FFFFC
7FFFFC
ENDCHAR
STARTCHAR [
ENCODING 91
SWIDTH 337 0
DWIDTH 13 0
BBX 13 34 0 -5
BITMAP
1FE0
1FE0
1FE0
1C00
1C00
1C00
1C00
1C00
1C00
1C00
1C00
1C00
1C00
1C00
1C00
1C00
1C00
1C00
1C00
1C00
1C00
1C00
1C00
1C00
1C00
1C00
1C00
1C00
1C00
1C00
1C00
1FE0
1FE0
1FE0
ENDCHAR
STARTCHAR \
ENCODING 92
SWIDTH 311 0
DWIDTH 12 0
BBX 12 30 0 -3
BITMAP
E000
F000
7000
7000
7800
3800
3800
3800
3C00
1C00
1C00
1E00
0E00
0E00
0E00
0700
0700
0700
0780
0380
0380
03C0
01C0
01C0
01C0
01E0
00E0
00E0
00F0
0070
ENDCHAR
STARTCHAR ]
ENCODING 93
SWIDTH 337 0
DWIDTH 13 0
BBX 13 34 0 -5
BITMAP
7FC0
7FC0
7FC0
03C0
03C0
03C0
03C0
03C0
03C0
03C0
03C0
03C0
03C0
03C0
03C0
03C0
03C0
03C0
03C0
03C0
03C0
03C0
03C0
03C0
03C0
03C0
03C0
03C0
03C0
03C0
03C0
7FC0
7FC0
7FC0
ENDCHAR
STARTCHAR ^
ENCODING 94
SWIDTH 545 0
DWIDTH 21 0
BBX 21 25 0 0
BITMAP
007800
00FC00
01FC00
03DE00
038F00
078700
0F0780
0E03C0
1E01C0
3C01E0
000000
000000
000000
000000
000000
000000
000000
000000
000000
000000
000000
000000
000000
000000
000000
ENDCHAR
STARTCHAR _
ENCODING 95
SWIDTH 493 0
DWIDTH 19 0
BBX 20 5 -1 -5
BITMAP
000000
000000
000000
FFFFE0
FFFFE0
ENDCHAR
STARTCHAR `
ENCODING 96
SWIDTH 441 0
DWIDTH 17 0
BBX 17 25 0 0
BITMAP
FFFF80
FFFF80
FFFF80
E00380
E00380
E00380
E00380
E00380
E00380
E00380
E00380
E00380
E00380
E00380
E00380
E00380
E00380
E00380
E00380
E00380
E00380
E00380
FFFF80
FFFF80
FFFF80
ENDCHAR
STARTCHAR a
ENCODING 97
SWIDTH 493 0
DWIDTH 19 0
BBX 19 18 0 0
BITMAP
07F000
0FFC00
1FFE00
1C1F00
100F00
000700
007F00
03FF00
0FFF00
1F8700
3E0700
3C0700
380700
3C0F00
3C3F00
3FFF00
1FF700
07C700
ENDCHAR
STARTCHAR b
ENCODING 98
SWIDTH 571 0
DWIDTH 22 0
BBX 22 25 0 0
BITMAP
1C0000
1C0000
1C0000
1C0000
1C0000
1C0000
1C0000
1CFE00
1FFF80
1FFFC0
1F07E0
1C01E0
1C00F0
1C00F0
1C0070
1C0070
1C0070
1C0070
1C00F0
1C00F0
1C01E0
1F03E0
1FFFC0
1FFF80
1CFE00
ENDCHAR
STARTCHAR c
ENCODING 99
SWIDTH 493 0
DWIDTH 19 0
BBX 19 18 0 0
BITMAP
00FE00
03FF80
07FF80
0F8380
1E0080
3C0000
3C0000
3C0000
380000
380000
3C0000
3C0000
3C0000
1E0080
0F8380
07FF80
03FF80
00FE00
ENDCHAR
STARTCHAR d
ENCODING 100
SWIDTH 571 0
DWIDTH 22 0
BBX 22 25 0 0
BITMAP
0000E0
0000E0
0000E0
0000E0
0000E0
0000E0
0000E0
00FCE0
03FFE0
0FFFE0
0F83E0
1E00E0
3C00E0
3C00E0
3C00E0
3800E0
3800E0
3C00E0
3C00E0
3C00E0
1E00E0
1F83E0
0FFFE0
03FFE0
00FCE0
ENDCHAR
STARTCHAR e
ENCODING 101
SWIDTH 519 0
DWIDTH 20 0
BBX 20 18 0 0
BITMAP
00FC00
03FF00
0FFF80
0F0780
1E03C0
3C01C0
3C01C0
3FFFE0
3FFFE0
3FFFE0
3C0000
3C0000
3C0000
1E0040
0F81C0
0FFFC0
03FFC0
00FF00
ENDCHAR
STARTCHAR f
ENCODING 102
SWIDTH 363 0
DWIDTH 14 0
BBX 14 25 0 0
BITMAP
01FC
03FC
07FC
0F00
0E00
0E00
0E00
7FFC
7FFC
7FFC
0E00
0E00
0E00
0E00
0E00
0E00
0E00
0E00
0E00
0E00
0E00
0E00
0E00
0E00
0E00
ENDCHAR
STARTCHAR g
ENCODING 103
SWIDTH 493 0
DWIDTH 19 0
BBX 19 25 0 -7
BITMAP
03FFC0
0FFFC0
1FFFC0
3E1F00
3C0F00
380700
380700
3C0F00
1E1F00
1FFE00
0FFC00
0FF000
1C0000
1F0000
1FE000
0FFC00
1FFF00
381F80
7803C0
7001C0
7001C0
7C07C0
3FFF80
1FFF00
07FC00
ENDCHAR
STARTCHAR h
ENCODING 104
SWIDTH 571 0
DWIDTH 22 0
BBX 22 25 0 0
BITMAP
1C0000
1C0000
1C0000
1C0000
1C0000
1C0000
1C0000
1CFE00
1FFF80
1FFFC0
1F03C0
1C01E0
1C01E0
1C00E0
1C00E0
1C00F0
1C00F0
1C00F0
1C00F0
1C00F0
1C00F0
1C00F0
1C00F0
1C00F0
1C00F0
ENDCHAR
STARTCHAR i
ENCODING 105
SWIDTH 234 0
DWIDTH 9 0
BBX 9 25 0 0
BITMAP
0800
1C00
3E00
1C00
0800
0000
1E00
1E00
1E00
1E00
1E00
1E00
1E00
1E00
1E00
1E00
1E00
1E00
1E00
1E00
1E00
1E00
1E00
1E00
0000
ENDCHAR
STARTCHAR j
ENCODING 106
SWIDTH 234 0
DWIDTH 9 0
BBX 10 31 -1 -7
BITMAP
0400
0E00
1F00
0E00
0400
0000
0F00
0F00
0F00
0F00
0F00
0F00
0F00
0F00
0F00
0F00
0F00
0F00
0F00
0F00
0F00
0F00
0F00
0F00
0F00
0E00
0E00
1E00
FE00
FC00
F800
ENDCHAR
STARTCHAR k
ENCODING 107
SWIDTH 519 0
DWIDTH 20 0
BBX 20 25 0 0
BITMAP
1C0000
1C0000
1C0000
1C0000
1C0000
1C0000
1C0000
1C07C0
1C0F80
1C1F00
1C3E00
1C7C00
1CF800
1DF000
1FC000
1FC000
1DE000
1CF000
1CF800
1C7C00
1C3E00
1C1F00
1C0F80
1C07C0
1C03E0
ENDCHAR
STARTCHAR l
ENCODING 108
SWIDTH 311 0
DWIDTH 12 0
BBX 12 25 0 0
BITMAP
1C00
1C00
1C00
1C00
1C00
1C00
1C00
1C00
1C00
1C00
1C00
1C00
1C00
1C00
1C00
1C00
1C00
1C00
1C00
1C00
1C00
1E00
1FE0
0FE0
03E0
ENDCHAR
STARTCHAR m
ENCODING 109
SWIDTH 882 0
DWIDTH 34 0
BBX 34 18 0 0
BITMAP
1CFE07E000
1FFFBFF800
1FFFFFFC00
1F07F83E00
1C01E01E00
1C01E00E00
1C01E00F00
1C01E00F00
1C00E00F00
1C00E00F00
1C00E00F00
1C00E00F00
1C00E00F00
1C00E00F00
1C00E00F00
1C00E00F00
1C00E00F00
1C00E00F00
ENDCHAR
STARTCHAR n
ENCODING 110
SWIDTH 571 0
DWIDTH 22 0
BBX 22 18 0 0
BITMAP
1CFE00
1FFF80
1FFFC0
1F03C0
1C01E0
1C01E0
1C00E0
1C00E0
1C00F0
1C00F0
1C00F0
1C00F0
1C00F0
1C00F0
1C00F0
1C00F0
1C00F0
1C00F0
ENDCHAR
STARTCHAR o
ENCODING 111
SWIDTH 597 0
DWIDTH 23 0
BBX 23 18 0 0
BITMAP
00FE00
03FF80
07FFC0
0F83E0
1E01F0
3C00F0
3C0070
3C0078
380078
380078
3C0078
3C0070
3C00F0
1E01F0
0F83E0
07FFC0
03FF80
00FC00
ENDCHAR
STARTCHAR p
ENCODING 112
SWIDTH 571 0
DWIDTH 22 0
BBX 22 25 0 -7
BITMAP
1CFE00
1FFF80
1FFFC0
1F07E0
1C01E0
1C00F0
1C00F0
1C0070
1C0070
1C0070
1C0070
1C00F0
1C00F0
1C01E0
1F07E0
1FFFC0
1FFF00
1CFC00
1C0000
1C0000
1C0000
1C0000
1C0000
1C0000
1C0000
ENDCHAR
STARTCHAR q
ENCODING 113
SWIDTH 571 0
DWIDTH 22 0
BBX 22 25 0 -7
BITMAP
00FCE0
03FFE0
0FFFE0
0F83E0
1E00E0
3C00E0
3C00E0
3C00E0
3800E0
3800E0
3C00E0
3C00E0
3C00E0
1E00E0
0F83E0
0FFFE0
03FFE0
00FCE0
0000E0
0000E0
0000E0
0000E0
0000E0
0000E0
0000E0
ENDCHAR
STARTCHAR r
ENCODING 114
SWIDTH 389 0
DWIDTH 15 0
BBX 15 18 0 0
BITMAP
1C7C
1DFC
1FFC
1F80
1E00
1C00
1C00
1C00
1C00
1C00
1C00
1C00
1C00
1C00
1C00
1C00
1C00
1C00
ENDCHAR
STARTCHAR s
ENCODING 115
SWIDTH 467 0
DWIDTH 18 0
BBX 18 18 0 0
BITMAP
03F800
0FFE00
1FFE00
3C0E00
3C0200
3C0000
3C0000
3FC000
1FF800
0FFE00
01FF00
001F00
000F00
200F00
380F00
3FFE00
3FFC00
0FF000
ENDCHAR
STARTCHAR t
ENCODING 116
SWIDTH 389 0
DWIDTH 15 0
BBX 15 22 0 0
BITMAP
0E00
0E00
0E00
0E00
7FFC
7FFC
7FFC
0E00
0E00
0E00
0E00
0E00
0E00
0E00
0E00
0E00
0E00
0E00
0F00
07FC
07FC
01FC
ENDCHAR
STARTCHAR u
ENCODING 117
SWIDTH 571 0
DWIDTH 22 0
BBX 22 18 0 0
BITMAP
1C00E0
1C00E0
1C00E0
1C00E0
1C00E0
1C00E0
1C00E0
1C00E0
1C00E0
1C00E0
1C00E0
1C00E0
1E00E0
1E00E0
0F83E0
0FFFE0
07FFE0
01FCE0
ENDCHAR
STARTCHAR v
ENCODING 118
SWIDTH 519 0
DWIDTH 20 0
BBX 20 18 0 0
BITMAP
7801E0
7801E0
3C01C0
3C03C0
1C03C0
1E0780
1E0780
0F0700
0F0F00
070E00
079E00
039E00
03DC00
03FC00
01F800
01F800
00F000
00F000
ENDCHAR
STARTCHAR w
ENCODING 119
SWIDTH 830 0
DWIDTH 32 0
BBX 32 18 0 0
BITMAP
7803C01E
7803C01C
3C07C03C
3C07E03C
3C07E038
1E0FF078
1E0E7078
0E0E7070
0F1E78F0
0F1C38F0
073C3CE0
07B83DE0
07B81DE0
03F81FC0
03F00FC0
03F00FC0
01E00F80
01E00780
ENDCHAR
STARTCHAR x
ENCODING 120
SWIDTH 493 0
DWIDTH 19 0
BBX 19 18 0 0
BITMAP
3C0780
3C0F80
1E0F00
0F1E00
07BC00
07BC00
03F800
01F000
01F000
03F000
03F800
07BC00
0F1E00
0F1E00
1E0F00
3C0780
7803C0
7803E0
ENDCHAR
STARTCHAR y
ENCODING 121
SWIDTH 519 0
DWIDTH 20 0
BBX 20 25 0 -7
BITMAP
7801E0
7801E0
3801C0
3C03C0
3C03C0
1E0780
1E0780
0E0700
0F0F00
070F00
078E00
079E00
039C00
03FC00
01F800
01F800
00F800
00F000
00F000
00E000
00E000
01E000
0FC000
0F8000
0F0000
ENDCHAR
STARTCHAR z
ENCODING 122
SWIDTH 467 0
DWIDTH 18 0
BBX 18 18 0 0
BITMAP
3FFF00
3FFF00
3FFE00
003E00
003C00
007800
00F800
00F000
01E000
03E000
03C000
078000
0F8000
0F0000
1E0000
3FFF00
3FFF00
7FFF00
ENDCHAR
STARTCHAR {
ENCODING 123
SWIDTH 337 0
DWIDTH 13 0
BBX 13 33 0 -4
BITMAP
00F0
03F0
0380
0780
0700
0700
0700
0700
0700
0700
0700
0700
0700
0F00
1E00
3E00
3800
3E00
1E00
0F00
0700
0700
0700
0700
0700
0700
0700
0700
0700
0780
0380
03F0
00F0
ENDCHAR
STARTCHAR |
ENCODING 124
SWIDTH 234 0
DWIDTH 9 0
BBX 9 37 0 -9
BITMAP
1C00
1C00
1C00
1C00
1C00
1C00
1C00
1C00
1C00
1C00
1C00
1C00
1C00
1C00
1C00
1C00
1C00
1C00
1C00
1C00
1C00
1C00
1C00
1C00
1C00
1C00
1C00
1C00
1C00
1C00
1C00
1C00
1C00
1C00
1C00
1C00
1C00
ENDCHAR
STARTCHAR }
ENCODING 125
SWIDTH 337 0
DWIDTH 13 0
BBX 13 33 0 -4
BITMAP
7C00
7E00
0F00
0700
0700
0700
0700
0700
0700
0700
0700
0700
0780
0780
03E0
01F0
00F0
01F0
03E0
0780
0780
0700
0700
0700
0700
0700
0700
0700
0700
0700
0F00
7E00
7C00
ENDCHAR
STARTCHAR ~
ENCODING 126
SWIDTH 519 0
DWIDTH 20 0
BBX 20 16 0 0
BITMAP
078180
0FC1C0
1FF380
3CFF80
383F00
181E00
000000
000000
000000
000000
000000
000000
000000
000000
000000
000000
ENDCHAR
STARTCHAR U+00A0
ENCODING 160
SWIDTH 259 0
DWIDTH 10 0
BBX 10 43 0 -10
BITMAP
0000
0000
0000
0000
0000
0000
0000
0000
0000
0000
0000
0000
0000
0000
0000
0000
0000
0000
0000
0000
0000
0000
0000
0000
0000
0000
0000
0000
0000
0000
0000
0000
0000
0000
0000
0000
0000
0000
0000
0000
0000
0000
0000
ENDCHAR
STARTCHAR U+00A1
ENCODING 161
SWIDTH 285 0
DWIDTH 11 0
BBX 11 26 0 -7
BITMAP
0400
0E00
1E00
0C00
0000
0000
0C00
0E00
0E00
0E00
0E00
0E00
0E00
0E00
0E00
1E00
1E00
1E00
1E00
1E00
1E00
1E00
1E00
1E00
1E00
0000
ENDCHAR
STARTCHAR U+00A2
ENCODING 162
SWIDTH 493 0
DWIDTH 19 0
BBX 19 22 0 -2
BITMAP
007800
007800
00FE00
03FF80
07FF80
0F8380
1E0080
3C0000
3C0000
3C0000
380000
380000
3C0000
3C0000
3C0000
1E0080
0F8380
07FF80
03FF80
00FE00
007800
007800
ENDCHAR
STARTCHAR U+00A3
ENCODING 163
SWIDTH 519 0
DWIDTH 20 0
BBX 20 25 0 0
BITMAP
003F00
00FF80
01FFC0
01E380
03C100
038000
038000
078000
078000
078000
078000
078000
1FFC00
1FFC00
3FFC00
070000
070000
0F0000
0F0000
0F0000
0E0000
1E0000
1FFFC0
3FFFC0
7FFF80
ENDCHAR
STARTCHAR U+00A4
ENCODING 164
SWIDTH 571 0
DWIDTH 22 0
BBX 22 19 0 0
BITMAP
080040
1C00E0
3EFFF0
1FFFF0
0FFFC0
0787C0
0F03C0
0F01E0
0E01E0
0E01E0
0E01E0
0F03C0
0787C0
0FFFC0
1FFFE0
1EFFF0
3E00F0
1C0060
080040
ENDCHAR
STARTCHAR U+00A5
ENCODING 165
SWIDTH 597 0
DWIDTH 23 0
BBX 23 25 0 0
BITMAP
7C003C
3C0078
3E0078
1E00F0
0F01E0
0F01E0
0783C0
03C380
03C780
1FE7F0
1FEFF0
1FFFF0
007C00
007C00
1FFFF0
1FFFF0
1FFFF0
003800
003800
003800
003800
003800
003800
003800
003800
ENDCHAR
STARTCHAR U+00A6
ENCODING 166
SWIDTH 234 0
DWIDTH 9 0
BBX 9 37 0 -9
BITMAP
1C00
1C00
1C00
1C00
1C00
1C00
1C00
1C00
1C00
1C00
1C00
1C00
1C00
1C00
1C00
0000
0000
0000
0000
0000
0000
0000
1C00
1C00
1C00
1C00
1C00
1C00
1C00
1C00
1C00
1C00
1C00
1C00
1C00
1C00
1C00
ENDCHAR
STARTCHAR U+00A7
ENCODING 167
SWIDTH 467 0
DWIDTH 18 0
BBX 18 32 0 -7
BITMAP
03F000
0FFC00
1FFE00
3E1E00
3C0F00
380400
380000
3C0000
3E0000
1FC000
0FF000
1FFC00
3FFE00
7C3F00
780F00
780780
780780
7C0780
3F0F00
3FFE00
0FFC00
03FC00
007E00
001F00
000F00
000700
100700
780F00
3E1F00
1FFE00
0FFC00
03F000
ENDCHAR
STARTCHAR U+00A8
ENCODING 168
SWIDTH 441 0
DWIDTH 17 0
BBX 17 25 0 0
BITMAP
FFFF80
FFFF80
FFFF80
E00380
E00380
E00380
E00380
E00380
E00380
E00380
E00380
E00380
E00380
E00380
E00380
E00380
E00380
E00380
E00380
E00380
E00380
E00380
FFFF80
FFFF80
FFFF80
ENDCHAR
STARTCHAR U+00A9
ENCODING 169
SWIDTH 778 0
DWIDTH 30 0
BBX 30 25 0 0
BITMAP
001FE000
007FF800
01E03E00
03800F00
07000380
0E0FE180
0C3FF0C0
187830E0
18F01060
30E00060
31C00020
31C00030
31C00030
31C00030
31E00020
30E00060
18F01060
187830E0
0C3FF0C0
0E0FE1C0
07000380
03800F00
01F03E00
007FF800
001FC000
ENDCHAR
STARTCHAR U+00AA
ENCODING 170
SWIDTH 311 0
DWIDTH 12 0
BBX 12 25 0 0
BITMAP
3F00
3F80
61C0
01C0
0FC0
3FC0
79C0
71C0
71C0
7FC0
3FC0
0000
0000
0000
0000
0000
0000
0000
0000
0000
0000
0000
0000
0000
0000
ENDCHAR
STARTCHAR U+00AB
ENCODING 171
SWIDTH 545 0
DWIDTH 21 0
BBX 21 18 0 0
BITMAP
01E1E0
01C1C0
03C3C0
078780
0F0F00
0E0E00
1E1E00
3C3C00
3C3C00
1C1C00
0E0E00
0F0F00
078780
038380
01C1C0
01E1E0
000000
000000
ENDCHAR
STARTCHAR U+00AC
ENCODING 172
SWIDTH 519 0
DWIDTH 20 0
BBX 20 18 0 0
BITMAP
1FFF80
1FFF80
1FFF80
000380
000380
000380
000380
000380
000380
000380
000380
000000
000000
000000
000000
000000
000000
000000
ENDCHAR
STARTCHAR U+00AD
ENCODING 173
SWIDTH 363 0
DWIDTH 14 0
BBX 14 12 0 0
BITMAP
7FF8
7FF8
7FF8
0000
0000
0000
0000
0000
0000
0000
0000
0000
ENDCHAR
STARTCHAR U+00AE
ENCODING 174
SWIDTH 778 0
DWIDTH 30 0
BBX 30 25 0 0
BITMAP
001FE000
007FF800
01E03E00
03800700
07000380
0E3F81C0
0C3FE0C0
1838F0E0
18387060
30387060
30387020
3038E030
303FE030
303F8030
3039C020
3039E060
1838E060
183870E0
0C3878C0
0E383980
07000380
03800F00
01F03E00
007FF800
001FC000
ENDCHAR
STARTCHAR U+00AF
ENCODING 175
SWIDTH 441 0
DWIDTH 17 0
BBX 17 25 0 0
BITMAP
FFFF80
FFFF80
FFFF80
E00380
E00380
E00380
E00380
E00380
E00380
E00380
E00380
E00380
E00380
E00380
E00380
E00380
E00380
E00380
E00380
E00380
E00380
E00380
FFFF80
FFFF80
FFFF80
ENDCHAR
STARTCHAR U+00B0
ENCODING 176
SWIDTH 389 0
DWIDTH 15 0
BBX 15 25 0 0
BITMAP
07C0
0FE0
1FF0
3C70
3838
3838
3838
3C70
1FF0
1FE0
0780
0000
0000
0000
0000
0000
0000
0000
0000
0000
0000
0000
0000
0000
0000
ENDCHAR
STARTCHAR U+00B1
ENCODING 177
SWIDTH 519 0
DWIDTH 20 0
BBX 20 22 0 0
BITMAP
00E000
00E000
00E000
00E000
00E000
00E000
1FFF80
1FFF80
1FFF80
00E000
00E000
00E000
00E000
00E000
00E000
000000
000000
000000
000000
1FFF80
1FFF80
1FFF80
ENDCHAR
STARTCHAR U+00B2
ENCODING 178
SWIDTH 311 0
DWIDTH 12 0
BBX 12 25 0 0
BITMAP
0F00
3FC0
3FC0
31E0
20E0
00E0
01C0
01C0
0380
0780
0700
0E00
0E00
1FE0
3FE0
3FE0
0000
0000
0000
0000
0000
0000
0000
0000
0000
ENDCHAR
STARTCHAR U+00B3
ENCODING 179
SWIDTH 311 0
DWIDTH 12 0
BBX 12 25 0 0
BITMAP
7FE0
7FC0
7FC0
0380
0380
0700
07C0
09C0
00E0
00E0
00E0
20E0
71E0
7FC0
3FC0
0F00
0000
0000
0000
0000
0000
0000
0000
0000
0000
ENDCHAR
STARTCHAR U+00B4
ENCODING 180
SWIDTH 441 0
DWIDTH 17 0
BBX 17 25 0 0
BITMAP
FFFF80
FFFF80
FFFF80
E00380
E00380
E00380
E00380
E00380
E00380
E00380
E00380
E00380
E00380
E00380
E00380
E00380
E00380
E00380
E00380
E00380
E00380
E00380
FFFF80
FFFF80
FFFF80
ENDCHAR
STARTCHAR U+00B5
ENCODING 181
SWIDTH 571 0
DWIDTH 22 0
BBX 22 25 0 -7
BITMAP
1C01E0
1C01E0
1C01E0
1C01E0
1C01E0
1C01E0
1C01E0
1C01E0
1C01E0
1C01E0
1E01E0
1E01E0
1E01E0
1E01E0
1F83E0
1FFFE0
1FFFE0
1DF9E0
1C0000
1C0000
1C0000
1C0000
1C0000
1C0000
1C0000
ENDCHAR
STARTCHAR U+00B6
ENCODING 182
SWIDTH 519 0
DWIDTH 20 0
BBX 20 32 0 -7
BITMAP
03FFE0
0FFFE0
1FF180
3FF180
3FF180
3FF180
3FF180
3FF180
3FF180
3FF180
1FF180
0FF180
03F180
007180
007180
007180
007180
007180
007180
007180
007180
007180
007180
007180
007180
007180
007180
007180
007180
007180
007180
007180
ENDCHAR
STARTCHAR U+00B7
ENCODING 183
SWIDTH 234 0
DWIDTH 9 0
BBX 9 15 0 0
BITMAP
0800
1C00
3E00
1C00
0800
0000
0000
0000
0000
0000
0000
0000
0000
0000
0000
ENDCHAR
STARTCHAR U+00B8
ENCODING 184
SWIDTH 441 0
DWIDTH 17 0
BBX 17 25 0 0
BITMAP
FFFF80
FFFF80
FFFF80
E00380
E00380
E00380
E00380
E00380
E00380
E00380
E00380
E00380
E00380
E00380
E00380
E00380
E00380
E00380
E00380
E00380
E00380
E00380
FFFF80
FFFF80
FFFF80
ENDCHAR
STARTCHAR U+00B9
ENCODING 185
SWIDTH 234 0
DWIDTH 9 0
BBX 9 25 0 0
BITMAP
0400
0C00
1C00
1C00
1C00
1C00
1C00
1C00
1C00
1C00
1C00
1C00
1C00
1C00
1C00
1C00
0000
0000
0000
0000
0000
0000
0000
0000
0000
ENDCHAR
STARTCHAR U+00BA
ENCODING 186
SWIDTH 363 0
DWIDTH 14 0
BBX 14 25 0 0
BITMAP
07C0
1FE0
3870
7038
7038
7038
7038
7038
3870
1FE0
07C0
0000
0000
0000
0000
0000
0000
0000
0000
0000
0000
0000
0000
0000
0000
ENDCHAR
STARTCHAR U+00BB
ENCODING 187
SWIDTH 545 0
DWIDTH 21 0
BBX 21 18 0 0
BITMAP
3C3C00
1C1C00
0E1E00
0F0F00
078780
038380
01C3C0
01E1E0
00E1E0
01C1C0
03C380
078780
0F0F00
0E1E00
1C1C00
3C3C00
000000
000000
ENDCHAR
STARTCHAR U+00BC
ENCODING 188
SWIDTH 778 0
DWIDTH 30 0
BBX 30 26 0 -1
BITMAP
04001C00
0C003800
1C003800
1C007000
1C007000
1C00E000
1C00E000
1C01C000
1C01C000
1C038000
1C038000
1C070020
1C070060
1C0E00E0
1C0E01E0
1C1C03E0
001C03E0
00380760
00380E60
00701C60
00703860
00E07FF8
00E0FFF8
01C000E0
01C000E0
000000E0
ENDCHAR
STARTCHAR U+00BD
ENCODING 189
SWIDTH 804 0
DWIDTH 31 0
BBX 31 26 0 -1
BITMAP
04001C00
0C003800
1C003800
1C007000
1C007000
1C00E000
1C00E000
1C01C000
1C01C000
1C038000
1C0381E0
1C0707F8
1C0707F8
1C0E063C
1C0E081C
1C1C001C
001C0038
00380038
00380070
007000F0
007000E0
00E001C0
00E001C0
01C003FC
01C007FC
000007FC
ENDCHAR
STARTCHAR U+00BE
ENCODING 190
SWIDTH 830 0
DWIDTH 32 0
BBX 32 26 0 -1
BITMAP
7FE00700
7FC00E00
7FC00E00
03801C00
03801C00
07003800
07C03800
09C07000
00E07000
00E0E000
00E0E000
20E1C008
71E1C018
7FC38038
3FC38078
0F0700F8
000700F8
000E01D8
000E0398
001C0718
001C0E18
00381FFE
00383FFE
00700038
00700038
00000038
ENDCHAR
STARTCHAR U+00BF
ENCODING 191
SWIDTH 441 0
DWIDTH 17 0
BBX 17 26 0 -7
BITMAP
004000
00E000
01F000
00E000
004000
000000
000000
004000
00E000
01F000
00F000
007000
00F000
01F000
07E000
0F8000
1F0000
3E0000
3C0000
3C0000
3C0200
3C0700
1E1F00
1FFE00
0FFC00
03F000
ENDCHAR
STARTCHAR U+00C0
ENCODING 192
SWIDTH 649 0
DWIDTH 25 0
BBX 25 32 0 0
BITMAP
01F00000
00F00000
00780000
003C0000
001E0000
00000000
00000000
003C0000
003E0000
003E0000
007E0000
007F0000
00FF0000
00F78000
00F78000
01E38000
01E3C000
03C3C000
03C1E000
03C1E000
0781E000
0780F000
0780F000
0FFFF800
0FFFF800
1FFFFC00
1E003C00
1C003C00
3C001E00
3C001E00
78001F00
78000F00
ENDCHAR
STARTCHAR U+00C1
ENCODING 193
SWIDTH 649 0
DWIDTH 25 0
BBX 25 32 0 0
BITMAP
00078000
00070000
000E0000
001C0000
003C0000
00000000
00000000
003C0000
003E0000
003E0000
007E0000
007F0000
00FF0000
00F78000
00F78000
01E38000
01E3C000
03C3C000
03C1E000
03C1E000
0781E000
0780F000
0780F000
0FFFF800
0FFFF800
1FFFFC00
1E003C00
1C003C00
3C001E00
3C001E00
78001F00
78000F00
ENDCHAR
STARTCHAR U+00C2
ENCODING 194
SWIDTH 649 0
DWIDTH 25 0
BBX 25 32 0 0
BITMAP
003E0000
007F0000
00770000
00E38000
01C1C000
00000000
00000000
003C0000
003E0000
003E0000
007E0000
007F0000
00FF0000
00F78000
00F78000
01E38000
01E3C000
03C3C000
03C1E000
03C1E000
0781E000
0780F000
0780F000
0FFFF800
0FFFF800
1FFFFC00
1E003C00
1C003C00
3C001E00
3C001E00
78001F00
78000F00
ENDCHAR
STARTCHAR U+00C3
ENCODING 195
SWIDTH 649 0
DWIDTH 25 0
BBX 25 32 0 0
BITMAP
00E00000
01F9C000
03FFC000
031F8000
010F0000
00000000
00000000
003C0000
003E0000
003E0000
007E0000
007F0000
00FF0000
00F78000
00F78000
01E38000
01E3C000
03C3C000
03C1E000
03C1E000
0781E000
0780F000
0780F000
0FFFF800
0FFFF800
1FFFFC00
1E003C00
1C003C00
3C001E00
3C001E00
78001F00
78000F00
ENDCHAR
STARTCHAR U+00C4
ENCODING 196
SWIDTH 649 0
DWIDTH 25 0
BBX 25 32 0 0
BITMAP
00408000
00E1C000
01F3E000
00E1C000
00408000
00000000
00000000
003C0000
003E0000
003E0000
007E0000
007F0000
00FF0000
00F78000
00F78000
01E38000
01E3C000
03C3C000
03C1E000
03C1E000
0781E000
0780F000
0780F000
0FFFF800
0FFFF800
1FFFFC00
1E003C00
1C003C00
3C001E00
3C001E00
78001F00
78000F00
ENDCHAR
STARTCHAR U+00C5
ENCODING 197
SWIDTH 649 0
DWIDTH 25 0
BBX 25 34 0 0
BITMAP
001C0000
003E0000
00630000
00630000
00630000
003E0000
001C0000
00000000
00000000
003C0000
003E0000
003E0000
007E0000
007F0000
00FF0000
00F78000
00F78000
01E38000
01E3C000
03C3C000
03C1E000
03C1E000
0781E000
0780F000
0780F000
0FFFF800
0FFFF800
1FFFFC00
1E003C00
1C003C00
3C001E00
3C001E00
78001F00
78000F00
ENDCHAR
STARTCHAR U+00C6
ENCODING 198
SWIDTH 882 0
DWIDTH 34 0
BBX 34 25 0 0
BITMAP
0003FFFF00
0003FFFF00
0007FFFF00
0007F80000
000F780000
000F780000
001E780000
003C780000
003C780000
0078780000
00787FF800
00F07FF800
00F07FF800
01E0780000
03FFF80000
03FFF80000
07FFF80000
0780780000
0F00780000
0F00780000
1E00780000
3E00780000
3C007FFF80
7C007FFF80
78007FFF80
ENDCHAR
STARTCHAR U+00C7
ENCODING 199
SWIDTH 649 0
DWIDTH 25 0
BBX 25 32 0 -7
BITMAP
000FE000
007FFC00
01FFFE00
03F01E00
07C00200
0F800000
0F000000
1E000000
1E000000
3C000000
3C000000
3C000000
3C000000
3C000000
3C000000
3C000000
1E000000
1E000000
0F000000
0F800000
07C00200
03F01E00
01FFFE00
007FFC00
001FE000
00060000
000F8000
000FC000
0001C000
0001C000
003F8000
003F0000
ENDCHAR
STARTCHAR U+00C8
ENCODING 200
SWIDTH 545 0
DWIDTH 21 0
BBX 21 32 0 0
BITMAP
03E000
01E000
00F000
007800
003C00
000000
000000
0FFFE0
0FFFE0
0FFFE0
0E0000
0E0000
0E0000
0E0000
0E0000
0E0000
0E0000
0FFF00
0FFF00
0FFF00
0E0000
0E0000
0E0000
0E0000
0E0000
0E0000
0E0000
0E0000
0E0000
0FFFF0
0FFFF0
0FFFF0
ENDCHAR
STARTCHAR U+00C9
ENCODING 201
SWIDTH 545 0
DWIDTH 21 0
BBX 21 32 0 0
BITMAP
001E00
001C00
003800
007000
00F000
000000
000000
0FFFE0
0FFFE0
0FFFE0
0E0000
0E0000
0E0000
0E0000
0E0000
0E0000
0E0000
0FFF00
0FFF00
0FFF00
0E0000
0E0000
0E0000
0E0000
0E0000
0E0000
0E0000
0E0000
0E0000
0FFFF0
0FFFF0
0FFFF0
ENDCHAR
STARTCHAR U+00CA
ENCODING 202
SWIDTH 545 0
DWIDTH 21 0
BBX 21 32 0 0
BITMAP
007C00
00FE00
00EE00
01C700
038380
000000
000000
0FFFE0
0FFFE0
0FFFE0
0E0000
0E0000
0E0000
0E0000
0E0000
0E0000
0E0000
0FFF00
0FFF00
0FFF00
0E0000
0E0000
0E0000
0E0000
0E0000
0E0000
0E0000
0E0000
0E0000
0FFFF0
0FFFF0
0FFFF0
ENDCHAR
STARTCHAR U+00CB
ENCODING 203
SWIDTH 545 0
DWIDTH 21 0
BBX 21 32 0 0
BITMAP
010200
038700
07CF80
038700
010200
000000
000000
0FFFE0
0FFFE0
0FFFE0
0E0000
0E0000
0E0000
0E0000
0E0000
0E0000
0E0000
0FFF00
0FFF00
0FFF00
0E0000
0E0000
0E0000
0E0000
0E0000
0E0000
0E0000
0E0000
0E0000
0FFFF0
0FFFF0
0FFFF0
ENDCHAR
STARTCHAR U+00CC
ENCODING 204
SWIDTH 285 0
DWIDTH 11 0
BBX 11 32 0 0
BITMAP
F800
7800
3C00
1E00
0F00
0000
0000
0E00
0E00
0E00
0E00
0E00
0E00
0E00
0E00
0E00
0E00
0E00
0E00
0E00
0E00
0E00
0E00
0E00
0E00
0E00
0E00
0E00
0E00
0E00
0E00
0E00
ENDCHAR
STARTCHAR U+00CD
ENCODING 205
SWIDTH 285 0
DWIDTH 11 0
BBX 11 32 0 0
BITMAP
03C0
0380
0700
0E00
1E00
0000
0000
0E00
0E00
0E00
0E00
0E00
0E00
0E00
0E00
0E00
0E00
0E00
0E00
0E00
0E00
0E00
0E00
0E00
0E00
0E00
0E00
0E00
0E00
0E00
0E00
0E00
ENDCHAR
STARTCHAR U+00CE
ENCODING 206
SWIDTH 285 0
DWIDTH 11 0
BBX 11 32 0 0
BITMAP
1F00
3F80
3B80
71C0
E0E0
0000
0000
0E00
0E00
0E00
0E00
0E00
0E00
0E00
0E00
0E00
0E00
0E00
0E00
0E00
0E00
0E00
0E00
0E00
0E00
0E00
0E00
0E00
0E00
0E00
0E00
0E00
ENDCHAR
STARTCHAR U+00CF
ENCODING 207
SWIDTH 285 0
DWIDTH 11 0
BBX 13 32 -1 0
BITMAP
2040
70E0
F9F0
70E0
2040
0000
0000
0E00
0E00
0E00
0E00
0E00
0E00
0E00
0E00
0E00
0E00
0E00
0E00
0E00
0E00
0E00
0E00
0E00
0E00
0E00
0E00
0E00
0E00
0E00
0E00
0E00
ENDCHAR
STARTCHAR U+00D0
ENCODING 208
SWIDTH 701 0
DWIDTH 27 0
BBX 27 25 0 0
BITMAP
0FFE0000
0FFFC000
0FFFF000
0E03F800
0E007C00
0E003E00
0E001E00
0E000F00
0E000F00
0E000780
0E000780
7FFC0780
7FFC0780
7FFC0780
0E000780
0E000700
0E000F00
0E000F00
0E001E00
0E003E00
0E007C00
0E03F800
0FFFF000
0FFFC000
0FFE0000
ENDCHAR
STARTCHAR U+00D1
ENCODING 209
SWIDTH 752 0
DWIDTH 29 0
BBX 29 32 0 0
BITMAP
00380000
007E7000
00FFF000
00C7E000
0043C000
00000000
00000000
0E000780
0F000780
0F800780
0FC00780
0FC00780
0FE00780
0FF00780
0EF80780
0E7C0780
0E3C0780
0E1E0780
0E1F0780
0E0F8780
0E078780
0E03C780
0E03E780
0E01F780
0E00FF80
0E007F80
0E003F80
0E003F80
0E001F80
0E000F80
0E000780
0E000780
ENDCHAR
STARTCHAR U+00D2
ENCODING 210
SWIDTH 778 0
DWIDTH 30 0
BBX 30 32 0 0
BITMAP
003E0000
001E0000
000F0000
00078000
0003C000
00000000
00000000
001FE000
007FF800
01FFFE00
03F03F00
07C00F80
0F8003C0
0F0001E0
1E0001E0
1E0000F0
3C0000F0
3C0000F0
3C0000F0
3C0000F0
3C0000F0
3C0000F0
3C0000F0
1E0000F0
1E0001E0
0F0001E0
0F8003C0
07C00F80
03F03F00
01FFFE00
007FFC00
001FE000
ENDCHAR
STARTCHAR U+00D3
ENCODING 211
SWIDTH 778 0
DWIDTH 30 0
BBX 30 32 0 0
BITMAP
0001E000
0001C000
00038000
00070000
000F0000
00000000
00000000
001FE000
007FF800
01FFFE00
03F03F00
07C00F80
0F8003C0
0F0001E0
1E0001E0
1E0000F0
3C0000F0
3C0000F0
3C0000F0
3C0000F0
3C0000F0
3C0000F0
3C0000F0
1E0000F0
1E0001E0
0F0001E0
0F8003C0
07C00F80
03F03F00
01FFFE00
007FFC00
001FE000
ENDCHAR
STARTCHAR U+00D4
ENCODING 212
SWIDTH 778 0
DWIDTH 30 0
BBX 30 32 0 0
BITMAP
0007C000
000FE000
000EE000
001C7000
00383800
00000000
00000000
001FE000
007FF800
01FFFE00
03F03F00
07C00F80
0F8003C0
0F0001E0
1E0001E0
1E0000F0
3C0000F0
3C0000F0
3C0000F0
3C0000F0
3C0000F0
3C0000F0
3C0000F0
1E0000F0
1E0001E0
0F0001E0
0F8003C0
07C00F80
03F03F00
01FFFE00
007FFC00
001FE000
ENDCHAR
STARTCHAR U+00D5
ENCODING 213
SWIDTH 778 0
DWIDTH 30 0
BBX 30 32 0 0
BITMAP
001C0000
003F3800
007FF800
0063F000
0021E000
00000000
00000000
001FE000
007FF800
01FFFE00
03F03F00
07C00F80
0F8003C0
0F0001E0
1E0001E0
1E0000F0
3C0000F0
3C0000F0
3C0000F0
3C0000F0
3C0000F0
3C0000F0
3C0000F0
1E0000F0
1E0001E0
0F0001E0
0F8003C0
07C00F80
03F03F00
01FFFE00
007FFC00
001FE000
ENDCHAR
STARTCHAR U+00D6
ENCODING 214
SWIDTH 778 0
DWIDTH 30 0
BBX 30 32 0 0
BITMAP
00102000
00387000
007CF800
00387000
00102000
00000000
00000000
001FE000
007FF800
01FFFE00
03F03F00
07C00F80
0F8003C0
0F0001E0
1E0001E0
1E0000F0
3C0000F0
3C0000F0
3C0000F0
3C0000F0
3C0000F0
3C0000F0
3C0000F0
1E0000F0
1E0001E0
0F0001E0
0F8003C0
07C00F80
03F03F00
01FFFE00
007FFC00
001FE000
ENDCHAR
STARTCHAR U+00D7
ENCODING 215
SWIDTH 519 0
DWIDTH 20 0
BBX 20 19 0 0
BITMAP
040200
0E0780
1F0F00
0F9E00
03FC00
01F800
00F000
01F800
07FC00
0F9E00
1F0F80
0E0700
040200
000000
000000
000000
000000
000000
000000
ENDCHAR
STARTCHAR U+00D8
ENCODING 216
SWIDTH 778 0
DWIDTH 30 0
BBX 30 25 0 0
BITMAP
001FE040
007FF8E0
01FFFEE0
03F03FC0
07C00F80
0F800FC0
0F001FE0
1E003DE0
1E0078F0
3C00F0F0
3C01E0F0
3C03C0F0
3C0780F0
3C0700F0
3C0E00F0
3C1C00F0
1E3800F0
1E7001E0
0FE001E0
0FC003C0
07C00F80
0FF03F00
0FFFFE00
1C7FFC00
081FE000
ENDCHAR
STARTCHAR U+00D9
ENCODING 217
SWIDTH 752 0
DWIDTH 29 0
BBX 29 32 0 0
BITMAP
007C0000
003C0000
001E0000
000F0000
00078000
00000000
00000000
1E000380
1E000380
1E000380
1E000380
1E000380
1E000380
1E000380
1E000380
1E000380
1E000380
1E000380
1E000380
1E000380
1E000380
1E000380
1E000380
1E000780
0F000780
0F000700
07800F00
07C01E00
03F07E00
01FFFC00
00FFF000
001FC000
ENDCHAR
STARTCHAR U+00DA
ENCODING 218
SWIDTH 752 0
DWIDTH 29 0
BBX 29 32 0 0
BITMAP
0001E000
0001C000
00038000
00070000
000F0000
00000000
00000000
1E000380
1E000380
1E000380
1E000380
1E000380
1E000380
1E000380
1E000380
1E000380
1E000380
1E000380
1E000380
1E000380
1E000380
1E000380
1E000380
1E000780
0F000780
0F000700
07800F00
07C01E00
03F07E00
01FFFC00
00FFF000
001FC000
ENDCHAR
STARTCHAR U+00DB
ENCODING 219
SWIDTH 752 0
DWIDTH 29 0
BBX 29 32 0 0
BITMAP
000F8000
001FC000
001DC000
0038E000
00707000
00000000
00000000
1E000380
1E000380
1E000380
1E000380
1E000380
1E000380
1E000380
1E000380
1E000380
1E000380
1E000380
1E000380
1E000380
1E000380
1E000380
1E000380
1E000780
0F000780
0F000700
07800F00
07C01E00
03F07E00
01FFFC00
00FFF000
001FC000
ENDCHAR
STARTCHAR U+00DC
ENCODING 220
SWIDTH 752 0
DWIDTH 29 0
BBX 29 32 0 0
BITMAP
00102000
00387000
007CF800
00387000
00102000
00000000
00000000
1E000380
1E000380
1E000380
1E000380
1E000380
1E000380
1E000380
1E000380
1E000380
1E000380
1E000380
1E000380
1E000380
1E000380
1E000380
1E000380
1E000780
0F000780
0F000700
07800F00
07C01E00
03F07E00
01FFFC00
00FFF000
001FC000
ENDCHAR
STARTCHAR U+00DD
ENCODING 221
SWIDTH 571 0
DWIDTH 22 0
BBX 22 32 0 0
BITMAP
001E00
001C00
003800
007000
00F000
000000
000000
780078
3C0078
3C00F0
1E01E0
0F01E0
0F03C0
078380
03C780
03CF00
01EF00
01FE00
00FC00
007C00
007800
007800
007800
007800
007800
007800
007800
007800
007800
007800
007800
007800
ENDCHAR
STARTCHAR U+00DE
ENCODING 222
SWIDTH 571 0
DWIDTH 22 0
BBX 22 25 0 0
BITMAP
0E0000
0E0000
0E0000
0E0000
0E0000
0FFE00
0FFF80
0FFFC0
0E03E0
0E01F0
0E00F0
0E00F0
0E00F0
0E00F0
0E00F0
0E01E0
0E03E0
0FFFC0
0FFF80
0FFE00
0E0000
0E0000
0E0000
0E0000
0E0000
ENDCHAR
STARTCHAR U+00DF
ENCODING 223
SWIDTH 519 0
DWIDTH 20 0
BBX 20 25 0 0
BITMAP
00FC00
03FE00
07FF00
0F0780
0E0380
1E0380
1E03C0
1C0380
1C0380
1C0F80
1C7E00
1C7C00
1C7F00
1C07C0
1C03C0
1C01E0
1C01E0
1C01E0
1C01E0
1C01E0
1C03C0
1C07C0
1C7F80
1C7F00
1C7C00
ENDCHAR
STARTCHAR U+00E0
ENCODING 224
SWIDTH 493 0
DWIDTH 19 0
BBX 19 26 0 0
BITMAP
0F8000
078000
03C000
01E000
00F000
000000
000000
000000
07F000
0FFC00
1FFE00
1C1F00
100F00
000700
007F00
03FF00
0FFF00
1F8700
3E0700
3C0700
380700
3C0F00
3C3F00
3FFF00
1FF700
07C700
ENDCHAR
STARTCHAR U+00E1
ENCODING 225
SWIDTH 493 0
DWIDTH 19 0
BBX 19 26 0 0
BITMAP
003C00
003800
007000
00E000
01E000
000000
000000
000000
07F000
0FFC00
1FFE00
1C1F00
100F00
000700
007F00
03FF00
0FFF00
1F8700
3E0700
3C0700
380700
3C0F00
3C3F00
3FFF00
1FF700
07C700
ENDCHAR
STARTCHAR U+00E2
ENCODING 226
SWIDTH 493 0
DWIDTH 19 0
BBX 19 26 0 0
BITMAP
01F000
03F800
03B800
071C00
0E0E00
000000
000000
000000
07F000
0FFC00
1FFE00
1C1F00
100F00
000700
007F00
03FF00
0FFF00
1F8700
3E0700
3C0700
380700
3C0F00
3C3F00
3FFF00
1FF700
07C700
ENDCHAR
STARTCHAR U+00E3
ENCODING 227
SWIDTH 493 0
DWIDTH 19 0
BBX 19 26 0 0
BITMAP
038000
07E700
0FFF00
0C7E00
043C00
000000
000000
000000
07F000
0FFC00
1FFE00
1C1F00
100F00
000700
007F00
03FF00
0FFF00
1F8700
3E0700
3C0700
380700
3C0F00
3C3F00
3FFF00
1FF700
07C700
ENDCHAR
STARTCHAR U+00E4
ENCODING 228
SWIDTH 493 0
DWIDTH 19 0
BBX 19 26 0 0
BITMAP
020400
070E00
0F9F00
070E00
020400
000000
000000
000000
07F000
0FFC00
1FFE00
1C1F00
100F00
000700
007F00
03FF00
0FFF00
1F8700
3E0700
3C0700
380700
3C0F00
3C3F00
3FFF00
1FF700
07C700
ENDCHAR
STARTCHAR U+00E5
ENCODING 229
SWIDTH 493 0
DWIDTH 19 0
BBX 19 28 0 0
BITMAP
00E000
01F000
031800
031800
031800
01F000
00E000
000000
000000
000000
07F000
0FFC00
1FFE00
1C1F00
100F00
000700
007F00
03FF00
0FFF00
1F8700
3E0700
3C0700
380700
3C0F00
3C3F00
3FFF00
1FF700
07C700
ENDCHAR
STARTCHAR U+00E6
ENCODING 230
SWIDTH 804 0
DWIDTH 31 0
BBX 31 18 0 0
BITMAP
07F03F00
0FFCFFC0
1FFFFFE0
1C1FE1F0
100F80F0
000F8070
00070078
007FFFF8
07FFFFF8
0FFFFFF8
1F070000
3C078000
3C078000
3C03C018
3C0FE078
3FFFFFF8
1FFCFFE0
07F03F80
ENDCHAR
STARTCHAR U+00E7
ENCODING 231
SWIDTH 493 0
DWIDTH 19 0
BBX 19 25 0 -7
BITMAP
00FE00
03FF80
07FF80
0F8380
1E0080
3C0000
3C0000
3C0000
380000
380000
3C0000
3C0000
3C0000
1E0080
0F8380
07FF80
03FF80
00FE00
003000
003C00
007E00
000E00
000E00
01FC00
01F800
ENDCHAR
STARTCHAR U+00E8
ENCODING 232
SWIDTH 519 0
DWIDTH 20 0
BBX 20 26 0 0
BITMAP
07C000
03C000
01E000
00F000
007800
000000
000000
000000
00FC00
03FF00
0FFF80
0F0780
1E03C0
3C01C0
3C01C0
3FFFE0
3FFFE0
3FFFE0
3C0000
3C0000
3C0000
1E0040
0F81C0
0FFFC0
03FFC0
00FF00
ENDCHAR
STARTCHAR U+00E9
ENCODING 233
SWIDTH 519 0
DWIDTH 20 0
BBX 20 26 0 0
BITMAP
003C00
003800
007000
00E000
01E000
000000
000000
000000
00FC00
03FF00
0FFF80
0F0780
1E03C0
3C01C0
3C01C0
3FFFE0
3FFFE0
3FFFE0
3C0000
3C0000
3C0000
1E0040
0F81C0
0FFFC0
03FFC0
00FF00
ENDCHAR
STARTCHAR U+00EA
ENCODING 234
SWIDTH 519 0
DWIDTH 20 0
BBX 20 26 0 0
BITMAP
00F800
01FC00
01DC00
038E00
070700
000000
000000
000000
00FC00
03FF00
0FFF80
0F0780
1E03C0
3C01C0
3C01C0
3FFFE0
3FFFE0
3FFFE0
3C0000
3C0000
3C0000
1E0040
0F81C0
0FFFC0
03FFC0
00FF00
ENDCHAR
STARTCHAR U+00EB
ENCODING 235
SWIDTH 519 0
DWIDTH 20 0
BBX 20 26 0 0
BITMAP
020400
070E00
0F9F00
070E00
020400
000000
000000
000000
00FC00
03FF00
0FFF80
0F0780
1E03C0
3C01C0
3C01C0
3FFFE0
3FFFE0
3FFFE0
3C0000
3C0000
3C0000
1E0040
0F81C0
0FFFC0
03FFC0
00FF00
ENDCHAR
STARTCHAR U+00EC
ENCODING 236
SWIDTH 234 0
DWIDTH 9 0
BBX 10 26 -1 0
BITMAP
0000
0000
0000
0000
0000
0000
0000
0000
0000
0000
0000
0000
0000
0000
0000
0000
0000
0000
0000
0000
0000
0000
0000
0000
0000
0000
ENDCHAR
STARTCHAR U+00ED
ENCODING 237
SWIDTH 234 0
DWIDTH 9 0
BBX 10 26 0 0
BITMAP
0780
0700
0E00
1C00
3C00
0000
0000
0000
1E00
1E00
1E00
1E00
1E00
1E00
1E00
1E00
1E00
1E00
1E00
1E00
1E00
1E00
1E00
1E00
1E00
1E00
ENDCHAR
STARTCHAR U+00EE
ENCODING 238
SWIDTH 234 0
DWIDTH 9 0
BBX 12 26 -1 0
BITMAP
0000
0000
0000
0000
0000
0000
0000
0000
0000
0000
0000
0000
0000
0000
0000
0000
0000
0000
0000
0000
0000
0000
0000
0000
0000
0000
ENDCHAR
STARTCHAR U+00EF
ENCODING 239
SWIDTH 234 0
DWIDTH 9 0
BBX 13 26 -2 0
BITMAP
2040
70E0
F9F0
70E0
2040
0000
0000
0000
0F00
0F00
0F00
0F00
0F00
0F00
0F00
0F00
0F00
0F00
0F00
0F00
0F00
0F00
0F00
0F00
0F00
0F00
ENDCHAR
STARTCHAR U+00F0
ENCODING 240
SWIDTH 545 0
DWIDTH 21 0
BBX 21 25 0 0
BITMAP
018600
07FF00
03FE00
01F800
07FC00
0F9E00
061F00
000F00
01F780
07FFC0
0FFFC0
1F0FC0
1E03E0
3C01E0
3C01E0
3801E0
3801E0
3801E0
3C01C0
3C03C0
1E03C0
1F0F80
0FFF00
07FE00
01F800
ENDCHAR
STARTCHAR U+00F1
ENCODING 241
SWIDTH 571 0
DWIDTH 22 0
BBX 22 26 0 0
BITMAP
01C000
03F380
07FF80
063F00
021E00
000000
000000
000000
1CFE00
1FFF80
1FFFC0
1F03C0
1C01E0
1C01E0
1C00E0
1C00E0
1C00F0
1C00F0
1C00F0
1C00F0
1C00F0
1C00F0
1C00F0
1C00F0
1C00F0
1C00F0
ENDCHAR
STARTCHAR U+00F2
ENCODING 242
SWIDTH 597 0
DWIDTH 23 0
BBX 23 26 0 0
BITMAP
03E000
01E000
00F000
007800
003C00
000000
000000
000000
00FE00
03FF80
07FFC0
0F83E0
1E01F0
3C00F0
3C0070
3C0078
380078
380078
3C0078
3C0070
3C00F0
1E01F0
0F83E0
07FFC0
03FF80
00FC00
ENDCHAR
STARTCHAR U+00F3
ENCODING 243
SWIDTH 597 0
DWIDTH 23 0
BBX 23 26 0 0
BITMAP
001E00
001C00
003800
007000
00F000
000000
000000
000000
00FE00
03FF80
07FFC0
0F83E0
1E01F0
3C00F0
3C0070
3C0078
380078
380078
3C0078
3C0070
3C00F0
1E01F0
0F83E0
07FFC0
03FF80
00FC00
ENDCHAR
STARTCHAR U+00F4
ENCODING 244
SWIDTH 597 0
DWIDTH 23 0
BBX 23 26 0 0
BITMAP
007C00
00FE00
00EE00
01C700
038380
000000
000000
000000
00FE00
03FF80
07FFC0
0F83E0
1E01F0
3C00F0
3C0070
3C0078
380078
380078
3C0078
3C0070
3C00F0
1E01F0
0F83E0
07FFC0
03FF80
00FC00
ENDCHAR
STARTCHAR U+00F5
ENCODING 245
SWIDTH 597 0
DWIDTH 23 0
BBX 23 26 0 0
BITMAP
01C000
03F380
07FF80
063F00
021E00
000000
000000
000000
00FE00
03FF80
07FFC0
0F83E0
1E01F0
3C00F0
3C0070
3C0078
380078
380078
3C0078
3C0070
3C00F0
1E01F0
0F83E0
07FFC0
03FF80
00FC00
ENDCHAR
STARTCHAR U+00F6
ENCODING 246
SWIDTH 597 0
DWIDTH 23 0
BBX 23 26 0 0
BITMAP
008100
01C380
03E7C0
01C380
008100
000000
000000
000000
00FE00
03FF80
07FFC0
0F83E0
1E01F0
3C00F0
3C0070
3C0078
380078
380078
3C0078
3C0070
3C00F0
1E01F0
0F83E0
07FFC0
03FF80
00FC00
ENDCHAR
STARTCHAR U+00F7
ENCODING 247
SWIDTH 519 0
DWIDTH 20 0
BBX 20 22 0 0
BITMAP
002000
007000
00F800
007000
002000
000000
000000
000000
1FFF80
1FFF80
1FFF80
000000
000000
000000
002000
007000
00F800
007000
002000
000000
000000
000000
ENDCHAR
STARTCHAR U+00F8
ENCODING 248
SWIDTH 597 0
DWIDTH 23 0
BBX 23 20 0 -1
BITMAP
000020
00FE70
03FFE0
07FFC0
0F83E0
1E07F0
3C07F0
3C0E70
3C1C78
383878
383078
3C7078
3CE070
3DC0F0
1F81F0
0F83E0
07FFC0
0FFF80
1CFC00
080000
ENDCHAR
STARTCHAR U+00F9
ENCODING 249
SWIDTH 571 0
DWIDTH 22 0
BBX 22 26 0 0
BITMAP
03E000
01E000
00F000
007800
003C00
000000
000000
000000
1C00E0
1C00E0
1C00E0
1C00E0
1C00E0
1C00E0
1C00E0
1C00E0
1C00E0
1C00E0
1C00E0
1C00E0
1E00E0
1E00E0
0F83E0
0FFFE0
07FFE0
01FCE0
ENDCHAR
STARTCHAR U+00FA
ENCODING 250
SWIDTH 571 0
DWIDTH 22 0
BBX 22 26 0 0
BITMAP
001E00
001C00
003800
007000
00F000
000000
000000
000000
1C00E0
1C00E0
1C00E0
1C00E0
1C00E0
1C00E0
1C00E0
1C00E0
1C00E0
1C00E0
1C00E0
1C00E0
1E00E0
1E00E0
0F83E0
0FFFE0
07FFE0
01FCE0
ENDCHAR
STARTCHAR U+00FB
ENCODING 251
SWIDTH 571 0
DWIDTH 22 0
BBX 22 26 0 0
BITMAP
007C00
00FE00
00EE00
01C700
038380
000000
000000
000000
1C00E0
1C00E0
1C00E0
1C00E0
1C00E0
1C00E0
1C00E0
1C00E0
1C00E0
1C00E0
1C00E0
1C00E0
1E00E0
1E00E0
0F83E0
0FFFE0
07FFE0
01FCE0
ENDCHAR
STARTCHAR U+00FC
ENCODING 252
SWIDTH 571 0
DWIDTH 22 0
BBX 22 26 0 0
BITMAP
010200
038700
07CF80
038700
010200
000000
000000
000000
1C00E0
1C00E0
1C00E0
1C00E0
1C00E0
1C00E0
1C00E0
1C00E0
1C00E0
1C00E0
1C00E0
1C00E0
1E00E0
1E00E0
0F83E0
0FFFE0
07FFE0
01FCE0
ENDCHAR
STARTCHAR U+00FD
ENCODING 253
SWIDTH 519 0
DWIDTH 20 0
BBX 20 33 0 -7
BITMAP
003C00
003800
007000
00E000
01E000
000000
000000
000000
7801E0
7801E0
3801C0
3C03C0
3C03C0
1E0780
1E0780
0E0700
0F0F00
070F00
078E00
079E00
039C00
03FC00
01F800
01F800
00F800
00F000
00F000
00E000
00E000
01E000
0FC000
0F8000
0F0000
ENDCHAR
STARTCHAR U+00FE
ENCODING 254
SWIDTH 571 0
DWIDTH 22 0
BBX 22 32 0 -7
BITMAP
1C0000
1C0000
1C0000
1C0000
1C0000
1C0000
1C0000
1CFE00
1FFF80
1FFFC0
1F07E0
1C01E0
1C00F0
1C00F0
1C0070
1C0070
1C0070
1C0070
1C00F0
1C00F0
1C01E0
1F07E0
1FFFC0
1FFF00
1CFC00
1C0000
1C0000
1C0000
1C0000
1C0000
1C0000
1C0000
ENDCHAR
STARTCHAR U+00FF
ENCODING 255
SWIDTH 519 0
DWIDTH 20 0
BBX 20 33 0 -7
BITMAP
020400
070E00
0F9F00
070E00
020400
000000
000000
000000
7801E0
7801E0
3801C0
3C03C0
3C03C0
1E0780
1E0780
0E0700
0F0F00
070F00
078E00
079E00
039C00
03FC00
01F800
01F800
00F800
00F000
00F000
00E000
00E000
01E000
0FC000
0F8000
0F0000
ENDCHAR
STARTCHAR U+2013
ENCODING 8211
SWIDTH 493 0
DWIDTH 19 0
BBX 20 12 -1 0
BITMAP
FFFFE0
FFFFE0
FFFFE0
000000
000000
000000
000000
000000
000000
000000
000000
000000
ENDCHAR
STARTCHAR U+2014
ENCODING 8212
SWIDTH 960 0
DWIDTH 37 0
BBX 39 12 -1 0
BITMAP
FFFFFFFFF8
FFFFFFFFF8
FFFFFFFFF8
0000000000
0000000000
0000000000
0000000000
0000000000
0000000000
0000000000
0000000000
0000000000
ENDCHAR
STARTCHAR U+2018
ENCODING 8216
SWIDTH 234 0
DWIDTH 9 0
BBX 9 25 0 0
BITMAP
0400
0C00
1800
1C00
1C00
1E00
1E00
1C00
0800
0000
0000
0000
0000
0000
0000
0000
0000
0000
0000
0000
0000
0000
0000
0000
0000
ENDCHAR
STARTCHAR U+2019
ENCODING 8217
SWIDTH 234 0
DWIDTH 9 0
BBX 9 25 0 0
BITMAP
0800
1C00
3E00
1E00
1E00
0C00
0C00
1800
1000
0000
0000
0000
0000
0000
0000
0000
0000
0000
0000
0000
0000
0000
0000
0000
0000
ENDCHAR
STARTCHAR U+201C
ENCODING 8220
SWIDTH 389 0
DWIDTH 15 0
BBX 15 25 0 0
BITMAP
0410
0C30
1860
1C60
1CF0
1EF8
1E70
1C60
0800
0000
0000
0000
0000
0000
0000
0000
0000
0000
0000
0000
0000
0000
0000
0000
0000
ENDCHAR
STARTCHAR U+201D
ENCODING 8221
SWIDTH 389 0
DWIDTH 15 0
BBX 15 25 0 0
BITMAP
0820
1C70
3EF8
1E78
1E78
0C30
0C30
1860
1040
0000
0000
0000
0000
0000
0000
0000
0000
0000
0000
0000
0000
0000
0000
0000
0000
ENDCHAR
STARTCHAR U+2022
ENCODING 8226
SWIDTH 415 0
DWIDTH 16 0
BBX 16 16 0 0
BITMAP
0100
0380
07C0
0FF0
1FF8
0FF0
07C0
0380
0100
0000
0000
0000
0000
0000
0000
0000
ENDCHAR
STARTCHAR U+2026
ENCODING 8230
SWIDTH 882 0
DWIDTH 34 0
BBX 34 5 0 0
BITMAP
0800800400
1C01C00E00
3E03E01F00
1C01C00E00
0800800400
ENDCHAR
STARTCHAR U+20AC
ENCODING 8364
SWIDTH 597 0
DWIDTH 23 0
BBX 23 25 0 0
BITMAP
001FC0
007FF0
01FFF8
03F038
07C008
078000
0F0000
0F0000
7FFF80
7FFF80
7FFF80
1E0000
1E0000
1E0000
7FFF00
7FFF00
7FFF00
0F0000
0F0000
0F8000
07C008
03F038
01FFF8
007FF0
001FC0
ENDCHAR
ENDFONT
