STARTFONT 2.1
COMMENT Converted from Johnston100 W03 Regular.ttf at 15px with ttf2bdf.py (Pillow, 1-bit, no AA)
FONT -Misc-Johnston100-Medium-R-Normal--15-150-75-75-P-170-ISO10646-1
SIZE 15 75 75
FONTBOUNDINGBOX 17 18 -1 -4
STARTPROPERTIES 9
FOUNDRY "Misc"
FAMILY_NAME "Johnston100"
WEIGHT_NAME "Medium"
SLANT "R"
PIXEL_SIZE 15
RESOLUTION_X 75
RESOLUTION_Y 75
FONT_ASCENT 14
FONT_DESCENT 4
ENDPROPERTIES
CHARS 200
STARTCHAR space
ENCODING 32
SWIDTH 256 0
DWIDTH 4 0
BBX 4 18 0 -4
BITMAP
00
00
00
00
00
00
00
00
00
00
00
00
00
00
00
00
00
00
ENDCHAR
STARTCHAR !
ENCODING 33
SWIDTH 256 0
DWIDTH 4 0
BBX 4 10 0 0
BITMAP
60
60
60
60
60
20
20
20
20
20
ENDCHAR
STARTCHAR "
ENCODING 34
SWIDTH 384 0
DWIDTH 6 0
BBX 6 10 0 0
BITMAP
48
48
48
48
00
00
00
00
00
00
ENDCHAR
STARTCHAR U+0023
ENCODING 35
SWIDTH 704 0
DWIDTH 11 0
BBX 11 10 0 0
BITMAP
0480
0C80
0880
3FE0
1900
1100
7FC0
1200
2200
2200
ENDCHAR
STARTCHAR $
ENCODING 36
SWIDTH 512 0
DWIDTH 8 0
BBX 8 13 0 -2
BITMAP
10
3C
6C
40
70
38
0E
06
06
46
7C
10
00
ENDCHAR
STARTCHAR %
ENCODING 37
SWIDTH 704 0
DWIDTH 11 0
BBX 11 10 0 0
BITMAP
7180
4900
4B00
7200
0400
0400
09C0
0A40
1240
11C0
ENDCHAR
STARTCHAR &
ENCODING 38
SWIDTH 640 0
DWIDTH 10 0
BBX 11 10 0 0
BITMAP
1C00
2600
2600
3600
1C00
7C80
6780
4300
6780
3CC0
ENDCHAR
STARTCHAR '
ENCODING 39
SWIDTH 192 0
DWIDTH 3 0
BBX 3 10 0 0
BITMAP
40
40
40
40
00
00
00
00
00
00
ENDCHAR
STARTCHAR (
ENCODING 40
SWIDTH 256 0
DWIDTH 4 0
BBX 4 12 0 -1
BITMAP
20
20
60
40
40
40
40
40
40
60
20
20
ENDCHAR
STARTCHAR )
ENCODING 41
SWIDTH 256 0
DWIDTH 4 0
BBX 4 12 0 -1
BITMAP
40
40
60
20
20
20
20
20
20
60
40
40
ENDCHAR
STARTCHAR *
ENCODING 42
SWIDTH 384 0
DWIDTH 6 0
BBX 6 10 0 0
BITMAP
30
68
30
68
30
00
00
00
00
00
ENDCHAR
STARTCHAR +
ENCODING 43
SWIDTH 512 0
DWIDTH 8 0
BBX 8 8 0 0
BITMAP
18
18
7E
18
18
00
00
00
ENDCHAR
STARTCHAR ,
ENCODING 44
SWIDTH 256 0
DWIDTH 4 0
BBX 4 5 0 -2
BITMAP
40
60
40
00
00
ENDCHAR
STARTCHAR -
ENCODING 45
SWIDTH 384 0
DWIDTH 6 0
BBX 6 5 0 0
BITMAP
78
00
00
00
00
ENDCHAR
STARTCHAR .
ENCODING 46
SWIDTH 256 0
DWIDTH 4 0
BBX 4 2 0 0
BITMAP
60
40
ENDCHAR
STARTCHAR /
ENCODING 47
SWIDTH 320 0
DWIDTH 5 0
BBX 5 12 0 -1
BITMAP
18
10
10
30
30
20
20
60
40
40
C0
80
ENDCHAR
STARTCHAR 0
ENCODING 48
SWIDTH 576 0
DWIDTH 9 0
BBX 9 10 0 0
BITMAP
3C00
6600
4200
4200
4200
4200
4200
4200
6600
3C00
ENDCHAR
STARTCHAR 1
ENCODING 49
SWIDTH 256 0
DWIDTH 4 0
BBX 4 10 0 0
BITMAP
20
60
60
60
60
60
60
60
60
60
ENDCHAR
STARTCHAR 2
ENCODING 50
SWIDTH 448 0
DWIDTH 7 0
BBX 7 10 0 0
BITMAP
3C
44
46
06
0C
0C
18
38
30
7E
ENDCHAR
STARTCHAR 3
ENCODING 51
SWIDTH 512 0
DWIDTH 8 0
BBX 8 10 0 0
BITMAP
7E
0C
08
18
1C
06
02
02
46
7C
ENDCHAR
STARTCHAR 4
ENCODING 52
SWIDTH 576 0
DWIDTH 9 0
BBX 9 10 0 0
BITMAP
0200
0600
0E00
1E00
3600
6600
FF00
0600
0600
0600
ENDCHAR
STARTCHAR 5
ENCODING 53
SWIDTH 512 0
DWIDTH 8 0
BBX 8 10 0 0
BITMAP
3E
20
20
20
3C
06
02
02
46
7C
ENDCHAR
STARTCHAR 6
ENCODING 54
SWIDTH 512 0
DWIDTH 8 0
BBX 8 10 0 0
BITMAP
18
10
20
60
7C
46
42
42
66
3C
ENDCHAR
STARTCHAR 7
ENCODING 55
SWIDTH 448 0
DWIDTH 7 0
BBX 8 10 0 0
BITMAP
7E
06
04
0C
08
18
18
30
30
20
ENDCHAR
STARTCHAR 8
ENCODING 56
SWIDTH 512 0
DWIDTH 8 0
BBX 8 10 0 0
BITMAP
3C
26
66
7C
3C
3E
66
42
66
3C
ENDCHAR
STARTCHAR 9
ENCODING 57
SWIDTH 512 0
DWIDTH 8 0
BBX 8 10 0 0
BITMAP
3C
66
42
42
62
3E
06
04
08
18
ENDCHAR
STARTCHAR :
ENCODING 58
SWIDTH 256 0
DWIDTH 4 0
BBX 4 8 0 0
BITMAP
60
40
00
00
00
00
60
40
ENDCHAR
STARTCHAR ;
ENCODING 59
SWIDTH 256 0
DWIDTH 4 0
BBX 4 9 0 -2
BITMAP
60
40
00
00
00
20
30
20
00
ENDCHAR
STARTCHAR U+003C
ENCODING 60
SWIDTH 512 0
DWIDTH 8 0
BBX 8 10 0 0
BITMAP
02
0E
38
60
38
0E
02
00
00
00
ENDCHAR
STARTCHAR =
ENCODING 61
SWIDTH 512 0
DWIDTH 8 0
BBX 8 8 0 0
BITMAP
7E
00
00
00
7E
00
00
00
ENDCHAR
STARTCHAR U+003E
ENCODING 62
SWIDTH 512 0
DWIDTH 8 0
BBX 8 10 0 0
BITMAP
40
70
1C
06
1C
70
40
00
00
00
ENDCHAR
STARTCHAR ?
ENCODING 63
SWIDTH 448 0
DWIDTH 7 0
BBX 7 10 0 0
BITMAP
78
4C
0C
0C
38
20
30
10
30
10
ENDCHAR
STARTCHAR @
ENCODING 64
SWIDTH 896 0
DWIDTH 14 0
BBX 14 13 0 -3
BITMAP
07C0
1830
3018
23C8
444C
4C4C
484C
48C8
4CC8
67F0
2000
1840
0F80
ENDCHAR
STARTCHAR A
ENCODING 65
SWIDTH 640 0
DWIDTH 10 0
BBX 10 10 0 0
BITMAP
0C00
0C00
1E00
1200
1300
3300
3F00
6180
4080
C0C0
ENDCHAR
STARTCHAR B
ENCODING 66
SWIDTH 576 0
DWIDTH 9 0
BBX 9 10 0 0
BITMAP
7C00
6600
6200
6600
7E00
6300
6100
6100
6300
7E00
ENDCHAR
STARTCHAR C
ENCODING 67
SWIDTH 640 0
DWIDTH 10 0
BBX 10 10 0 0
BITMAP
0F00
3080
2000
6000
4000
4000
6000
2000
3080
0F00
ENDCHAR
STARTCHAR D
ENCODING 68
SWIDTH 704 0
DWIDTH 11 0
BBX 11 10 0 0
BITMAP
7E00
6180
6080
60C0
60C0
60C0
60C0
6080
6180
7E00
ENDCHAR
STARTCHAR E
ENCODING 69
SWIDTH 576 0
DWIDTH 9 0
BBX 9 10 0 0
BITMAP
7F00
6000
6000
6000
7E00
6000
6000
6000
6000
7F00
ENDCHAR
STARTCHAR F
ENCODING 70
SWIDTH 512 0
DWIDTH 8 0
BBX 8 10 0 0
BITMAP
7F
60
60
60
7C
60
60
60
60
60
ENDCHAR
STARTCHAR G
ENCODING 71
SWIDTH 704 0
DWIDTH 11 0
BBX 11 10 0 0
BITMAP
0FC0
30C0
2000
6000
43C0
40C0
60C0
20C0
30C0
0FC0
ENDCHAR
STARTCHAR H
ENCODING 72
SWIDTH 704 0
DWIDTH 11 0
BBX 11 10 0 0
BITMAP
60C0
60C0
60C0
60C0
7FC0
60C0
60C0
60C0
60C0
60C0
ENDCHAR
STARTCHAR I
ENCODING 73
SWIDTH 256 0
DWIDTH 4 0
BBX 4 10 0 0
BITMAP
60
60
60
60
60
60
60
60
60
60
ENDCHAR
STARTCHAR J
ENCODING 74
SWIDTH 448 0
DWIDTH 7 0
BBX 7 10 0 0
BITMAP
0C
0C
0C
0C
0C
0C
0C
0C
4C
78
ENDCHAR
STARTCHAR K
ENCODING 75
SWIDTH 576 0
DWIDTH 9 0
BBX 10 10 0 0
BITMAP
6180
6600
6C00
7800
7000
7800
6C00
6600
6300
6180
ENDCHAR
STARTCHAR L
ENCODING 76
SWIDTH 512 0
DWIDTH 8 0
BBX 8 10 0 0
BITMAP
60
60
60
60
60
60
60
60
60
7F
ENDCHAR
STARTCHAR M
ENCODING 77
SWIDTH 832 0
DWIDTH 13 0
BBX 13 10 0 0
BITMAP
6030
7070
78F0
6DB0
6730
6230
6030
6030
6030
6030
ENDCHAR
STARTCHAR N
ENCODING 78
SWIDTH 768 0
DWIDTH 12 0
BBX 12 10 0 0
BITMAP
6040
7040
7840
6C40
6440
6640
6340
61C0
60C0
60C0
ENDCHAR
STARTCHAR O
ENCODING 79
SWIDTH 768 0
DWIDTH 12 0
BBX 12 10 0 0
BITMAP
0F00
30C0
2060
6020
4020
4020
6020
2060
30C0
0F00
ENDCHAR
STARTCHAR P
ENCODING 80
SWIDTH 576 0
DWIDTH 9 0
BBX 9 10 0 0
BITMAP
7E00
6300
6100
6100
6300
7E00
6000
6000
6000
6000
ENDCHAR
STARTCHAR Q
ENCODING 81
SWIDTH 768 0
DWIDTH 12 0
BBX 12 10 0 0
BITMAP
0F00
30C0
2060
6020
4020
4020
6020
21E0
30C0
0FA0
ENDCHAR
STARTCHAR R
ENCODING 82
SWIDTH 576 0
DWIDTH 9 0
BBX 10 10 0 0
BITMAP
7C00
6200
6300
6200
7C00
6C00
6600
6600
6300
6180
ENDCHAR
STARTCHAR S
ENCODING 83
SWIDTH 512 0
DWIDTH 8 0
BBX 8 10 0 0
BITMAP
38
64
60
70
3C
0E
06
46
46
38
ENDCHAR
STARTCHAR T
ENCODING 84
SWIDTH 576 0
DWIDTH 9 0
BBX 9 10 0 0
BITMAP
FF00
0800
0800
0800
0800
0800
0800
0800
0800
0800
ENDCHAR
STARTCHAR U
ENCODING 85
SWIDTH 768 0
DWIDTH 12 0
BBX 12 10 0 0
BITMAP
6040
6040
6040
6040
6040
6040
6040
20C0
3180
0F00
ENDCHAR
STARTCHAR V
ENCODING 86
SWIDTH 640 0
DWIDTH 10 0
BBX 10 10 0 0
BITMAP
C080
6180
6100
2300
3300
3200
1600
1E00
0C00
0C00
ENDCHAR
STARTCHAR W
ENCODING 87
SWIDTH 960 0
DWIDTH 15 0
BBX 15 10 0 0
BITMAP
430C
638C
6388
2288
26D8
34D8
1450
1C70
1C70
1820
ENDCHAR
STARTCHAR X
ENCODING 88
SWIDTH 640 0
DWIDTH 10 0
BBX 11 10 0 0
BITMAP
6180
2100
3300
1E00
0C00
0E00
1A00
3300
6180
40C0
ENDCHAR
STARTCHAR Y
ENCODING 89
SWIDTH 576 0
DWIDTH 9 0
BBX 9 10 0 0
BITMAP
4100
6300
3200
1400
1C00
0800
0800
0800
0800
0800
ENDCHAR
STARTCHAR Z
ENCODING 90
SWIDTH 576 0
DWIDTH 9 0
BBX 10 10 0 0
BITMAP
7F80
0300
0600
0600
0C00
1800
1800
3000
6000
7F80
ENDCHAR
STARTCHAR [
ENCODING 91
SWIDTH 320 0
DWIDTH 5 0
BBX 5 14 0 -2
BITMAP
70
60
60
60
60
60
60
60
60
60
60
60
60
70
ENDCHAR
STARTCHAR \
ENCODING 92
SWIDTH 320 0
DWIDTH 5 0
BBX 5 12 0 -1
BITMAP
80
C0
40
40
60
20
20
30
10
10
10
18
ENDCHAR
STARTCHAR ]
ENCODING 93
SWIDTH 320 0
DWIDTH 5 0
BBX 5 14 0 -2
BITMAP
70
30
30
30
30
30
30
30
30
30
30
30
30
70
ENDCHAR
STARTCHAR ^
ENCODING 94
SWIDTH 576 0
DWIDTH 9 0
BBX 9 10 0 0
BITMAP
1800
1400
2600
6300
0000
0000
0000
0000
0000
0000
ENDCHAR
STARTCHAR _
ENCODING 95
SWIDTH 512 0
DWIDTH 8 0
BBX 9 2 -1 -2
BITMAP
0000
FF00
ENDCHAR
STARTCHAR `
ENCODING 96
SWIDTH 448 0
DWIDTH 7 0
BBX 7 10 0 0
BITMAP
FE
82
82
82
82
82
82
82
82
FE
ENDCHAR
STARTCHAR a
ENCODING 97
SWIDTH 512 0
DWIDTH 8 0
BBX 8 7 0 0
BITMAP
7C
44
06
3E
66
46
7E
ENDCHAR
STARTCHAR b
ENCODING 98
SWIDTH 576 0
DWIDTH 9 0
BBX 9 10 0 0
BITMAP
6000
6000
6000
7E00
6300
6100
6100
6100
6300
7E00
ENDCHAR
STARTCHAR c
ENCODING 99
SWIDTH 512 0
DWIDTH 8 0
BBX 8 7 0 0
BITMAP
1E
62
40
40
40
62
1E
ENDCHAR
STARTCHAR d
ENCODING 100
SWIDTH 576 0
DWIDTH 9 0
BBX 9 10 0 0
BITMAP
0300
0300
0300
3F00
6300
4300
4300
4300
6300
3F00
ENDCHAR
STARTCHAR e
ENCODING 101
SWIDTH 512 0
DWIDTH 8 0
BBX 8 7 0 0
BITMAP
3C
66
42
7F
40
62
3E
ENDCHAR
STARTCHAR f
ENCODING 102
SWIDTH 384 0
DWIDTH 6 0
BBX 6 10 0 0
BITMAP
3C
20
60
FC
60
60
60
60
60
60
ENDCHAR
STARTCHAR g
ENCODING 103
SWIDTH 512 0
DWIDTH 8 0
BBX 8 10 0 -3
BITMAP
3E
44
46
44
38
60
3C
C6
C2
7C
ENDCHAR
STARTCHAR h
ENCODING 104
SWIDTH 576 0
DWIDTH 9 0
BBX 9 10 0 0
BITMAP
6000
6000
6000
7E00
6300
6300
6300
6300
6300
6300
ENDCHAR
STARTCHAR i
ENCODING 105
SWIDTH 256 0
DWIDTH 4 0
BBX 4 10 0 0
BITMAP
00
60
00
60
60
60
60
60
60
60
ENDCHAR
STARTCHAR j
ENCODING 106
SWIDTH 256 0
DWIDTH 4 0
BBX 5 12 -1 -3
BITMAP
40
40
60
60
60
60
60
60
60
60
60
C0
ENDCHAR
STARTCHAR k
ENCODING 107
SWIDTH 512 0
DWIDTH 8 0
BBX 8 10 0 0
BITMAP
60
60
60
66
6C
78
70
68
64
66
ENDCHAR
STARTCHAR l
ENCODING 108
SWIDTH 320 0
DWIDTH 5 0
BBX 5 10 0 0
BITMAP
60
60
60
60
60
60
60
60
60
38
ENDCHAR
STARTCHAR m
ENCODING 109
SWIDTH 896 0
DWIDTH 14 0
BBX 14 7 0 0
BITMAP
7EF0
6318
6318
6318
6318
6318
6318
ENDCHAR
STARTCHAR n
ENCODING 110
SWIDTH 576 0
DWIDTH 9 0
BBX 9 7 0 0
BITMAP
7E00
6300
6300
6300
6300
6300
6300
ENDCHAR
STARTCHAR o
ENCODING 111
SWIDTH 576 0
DWIDTH 9 0
BBX 9 7 0 0
BITMAP
1E00
6300
4100
4100
4100
6300
1E00
ENDCHAR
STARTCHAR p
ENCODING 112
SWIDTH 576 0
DWIDTH 9 0
BBX 9 10 0 -3
BITMAP
7E00
6300
6100
6100
6100
6300
7E00
6000
6000
6000
ENDCHAR
STARTCHAR q
ENCODING 113
SWIDTH 576 0
DWIDTH 9 0
BBX 9 10 0 -3
BITMAP
3F00
6300
4300
4300
4300
6300
3F00
0300
0300
0300
ENDCHAR
STARTCHAR r
ENCODING 114
SWIDTH 384 0
DWIDTH 6 0
BBX 6 7 0 0
BITMAP
7C
60
60
60
60
60
60
ENDCHAR
STARTCHAR s
ENCODING 115
SWIDTH 448 0
DWIDTH 7 0
BBX 7 7 0 0
BITMAP
3C
44
40
78
0C
44
7C
ENDCHAR
STARTCHAR t
ENCODING 116
SWIDTH 384 0
DWIDTH 6 0
BBX 6 9 0 0
BITMAP
60
60
FC
60
60
60
60
20
3C
ENDCHAR
STARTCHAR u
ENCODING 117
SWIDTH 576 0
DWIDTH 9 0
BBX 9 7 0 0
BITMAP
6300
6300
6300
6300
6300
6300
3F00
ENDCHAR
STARTCHAR v
ENCODING 118
SWIDTH 512 0
DWIDTH 8 0
BBX 8 7 0 0
BITMAP
C3
42
66
24
3C
18
18
ENDCHAR
STARTCHAR w
ENCODING 119
SWIDTH 832 0
DWIDTH 13 0
BBX 13 7 0 0
BITMAP
4210
4730
6530
2DA0
39E0
38E0
18C0
ENDCHAR
STARTCHAR x
ENCODING 120
SWIDTH 512 0
DWIDTH 8 0
BBX 8 7 0 0
BITMAP
46
2C
38
18
3C
64
C2
ENDCHAR
STARTCHAR y
ENCODING 121
SWIDTH 512 0
DWIDTH 8 0
BBX 8 10 0 -3
BITMAP
C3
42
66
24
34
1C
18
18
10
70
ENDCHAR
STARTCHAR z
ENCODING 122
SWIDTH 448 0
DWIDTH 7 0
BBX 7 7 0 0
BITMAP
7C
0C
18
18
30
60
7E
ENDCHAR
STARTCHAR {
ENCODING 123
SWIDTH 320 0
DWIDTH 5 0
BBX 5 13 0 -1
BITMAP
18
20
20
20
20
20
40
20
20
20
20
20
18
ENDCHAR
STARTCHAR |
ENCODING 124
SWIDTH 192 0
DWIDTH 3 0
BBX 3 15 0 -4
BITMAP
40
40
40
40
40
40
40
40
40
40
40
40
40
40
40
ENDCHAR
STARTCHAR }
ENCODING 125
SWIDTH 320 0
DWIDTH 5 0
BBX 5 13 0 -1
BITMAP
60
20
20
20
20
30
18
30
20
20
20
20
60
ENDCHAR
STARTCHAR ~
ENCODING 126
SWIDTH 512 0
DWIDTH 8 0
BBX 8 6 0 0
BITMAP
72
4E
00
00
00
00
ENDCHAR
STARTCHAR U+00A0
ENCODING 160
SWIDTH 256 0
DWIDTH 4 0
BBX 4 18 0 -4
BITMAP
00
00
00
00
00
00
00
00
00
00
00
00
00
00
00
00
00
00
ENDCHAR
STARTCHAR U+00A1
ENCODING 161
SWIDTH 256 0
DWIDTH 4 0
BBX 4 11 0 -3
BITMAP
60
00
20
20
20
60
60
60
60
60
00
ENDCHAR
STARTCHAR U+00A2
ENCODING 162
SWIDTH 512 0
DWIDTH 8 0
BBX 8 9 0 -1
BITMAP
08
1E
62
40
40
40
62
1E
08
ENDCHAR
STARTCHAR U+00A3
ENCODING 163
SWIDTH 512 0
DWIDTH 8 0
BBX 8 10 0 0
BITMAP
1E
12
30
30
30
7C
20
20
60
7E
ENDCHAR
STARTCHAR U+00A4
ENCODING 164
SWIDTH 576 0
DWIDTH 9 0
BBX 9 8 0 0
BITMAP
4100
7F00
2200
2300
2300
2200
7F00
4100
ENDCHAR
STARTCHAR U+00A5
ENCODING 165
SWIDTH 576 0
DWIDTH 9 0
BBX 9 10 0 0
BITMAP
4180
2300
3200
7700
0C00
0800
7F00
0800
0800
0800
ENDCHAR
STARTCHAR U+00A6
ENCODING 166
SWIDTH 192 0
DWIDTH 3 0
BBX 3 15 0 -4
BITMAP
40
40
40
40
40
40
00
00
00
40
40
40
40
40
40
ENDCHAR
STARTCHAR U+00A7
ENCODING 167
SWIDTH 448 0
DWIDTH 7 0
BBX 7 13 0 -3
BITMAP
3C
44
40
60
3C
4E
C6
64
3C
0C
06
44
78
ENDCHAR
STARTCHAR U+00A8
ENCODING 168
SWIDTH 448 0
DWIDTH 7 0
BBX 7 10 0 0
BITMAP
FE
82
82
82
82
82
82
82
82
FE
ENDCHAR
STARTCHAR U+00A9
ENCODING 169
SWIDTH 768 0
DWIDTH 12 0
BBX 12 10 0 0
BITMAP
0F00
30C0
2F60
5920
5020
5820
4F20
2060
30C0
0F00
ENDCHAR
STARTCHAR U+00AA
ENCODING 170
SWIDTH 320 0
DWIDTH 5 0
BBX 5 10 0 0
BITMAP
70
10
70
D0
70
00
00
00
00
00
ENDCHAR
STARTCHAR U+00AB
ENCODING 171
SWIDTH 512 0
DWIDTH 8 0
BBX 8 7 0 0
BITMAP
12
24
6C
6C
24
12
00
ENDCHAR
STARTCHAR U+00AC
ENCODING 172
SWIDTH 512 0
DWIDTH 8 0
BBX 8 7 0 0
BITMAP
7E
02
02
02
00
00
00
ENDCHAR
STARTCHAR U+00AD
ENCODING 173
SWIDTH 384 0
DWIDTH 6 0
BBX 6 5 0 0
BITMAP
78
00
00
00
00
ENDCHAR
STARTCHAR U+00AE
ENCODING 174
SWIDTH 768 0
DWIDTH 12 0
BBX 12 10 0 0
BITMAP
0F00
30C0
2E20
4920
4920
4E20
4B20
2960
30C0
0F00
ENDCHAR
STARTCHAR U+00AF
ENCODING 175
SWIDTH 448 0
DWIDTH 7 0
BBX 7 10 0 0
BITMAP
FE
82
82
82
82
82
82
82
82
FE
ENDCHAR
STARTCHAR U+00B0
ENCODING 176
SWIDTH 384 0
DWIDTH 6 0
BBX 6 10 0 0
BITMAP
70
48
48
70
00
00
00
00
00
00
ENDCHAR
STARTCHAR U+00B1
ENCODING 177
SWIDTH 512 0
DWIDTH 8 0
BBX 8 9 0 0
BITMAP
18
18
7E
18
18
00
00
7E
00
ENDCHAR
STARTCHAR U+00B2
ENCODING 178
SWIDTH 320 0
DWIDTH 5 0
BBX 5 10 0 0
BITMAP
70
50
10
30
20
70
00
00
00
00
ENDCHAR
STARTCHAR U+00B3
ENCODING 179
SWIDTH 320 0
DWIDTH 5 0
BBX 5 10 0 0
BITMAP
70
30
30
18
90
70
00
00
00
00
ENDCHAR
STARTCHAR U+00B4
ENCODING 180
SWIDTH 448 0
DWIDTH 7 0
BBX 7 10 0 0
BITMAP
FE
82
82
82
82
82
82
82
82
FE
ENDCHAR
STARTCHAR U+00B5
ENCODING 181
SWIDTH 576 0
DWIDTH 9 0
BBX 9 10 0 -3
BITMAP
6300
6300
6300
6300
6300
6300
7F00
6000
6000
6000
ENDCHAR
STARTCHAR U+00B6
ENCODING 182
SWIDTH 512 0
DWIDTH 8 0
BBX 8 13 0 -3
BITMAP
3F
7A
7A
7A
3A
0A
0A
0A
0A
0A
0A
0A
0A
ENDCHAR
STARTCHAR U+00B7
ENCODING 183
SWIDTH 256 0
DWIDTH 4 0
BBX 4 6 0 0
BITMAP
40
40
00
00
00
00
ENDCHAR
STARTCHAR U+00B8
ENCODING 184
SWIDTH 448 0
DWIDTH 7 0
BBX 7 10 0 0
BITMAP
FE
82
82
82
82
82
82
82
82
FE
ENDCHAR
STARTCHAR U+00B9
ENCODING 185
SWIDTH 256 0
DWIDTH 4 0
BBX 4 10 0 0
BITMAP
40
40
40
40
40
40
00
00
00
00
ENDCHAR
STARTCHAR U+00BA
ENCODING 186
SWIDTH 384 0
DWIDTH 6 0
BBX 6 10 0 0
BITMAP
78
48
48
78
00
00
00
00
00
00
ENDCHAR
STARTCHAR U+00BB
ENCODING 187
SWIDTH 512 0
DWIDTH 8 0
BBX 8 7 0 0
BITMAP
6C
26
12
12
26
6C
00
ENDCHAR
STARTCHAR U+00BC
ENCODING 188
SWIDTH 768 0
DWIDTH 12 0
BBX 12 10 0 0
BITMAP
4080
4100
4100
4200
4200
4420
0460
08A0
19F0
1020
ENDCHAR
STARTCHAR U+00BD
ENCODING 189
SWIDTH 832 0
DWIDTH 13 0
BBX 13 10 0 0
BITMAP
4080
4100
4100
4200
4270
4490
0410
0830
1820
1070
ENDCHAR
STARTCHAR U+00BE
ENCODING 190
SWIDTH 832 0
DWIDTH 13 0
BBX 13 10 0 0
BITMAP
7040
3080
3080
1900
9100
7210
0230
0450
0CF8
0810
ENDCHAR
STARTCHAR U+00BF
ENCODING 191
SWIDTH 448 0
DWIDTH 7 0
BBX 7 10 0 -3
BITMAP
10
10
00
10
18
38
60
40
64
3C
ENDCHAR
STARTCHAR U+00C0
ENCODING 192
SWIDTH 640 0
DWIDTH 10 0
BBX 10 13 0 0
BITMAP
0800
0400
0000
0C00
0C00
1E00
1200
1300
3300
3F00
6180
4080
C0C0
ENDCHAR
STARTCHAR U+00C1
ENCODING 193
SWIDTH 640 0
DWIDTH 10 0
BBX 10 13 0 0
BITMAP
0600
0400
0000
0C00
0C00
1E00
1200
1300
3300
3F00
6180
4080
C0C0
ENDCHAR
STARTCHAR U+00C2
ENCODING 194
SWIDTH 640 0
DWIDTH 10 0
BBX 10 13 0 0
BITMAP
0E00
0A00
0000
0C00
0C00
1E00
1200
1300
3300
3F00
6180
4080
C0C0
ENDCHAR
STARTCHAR U+00C3
ENCODING 195
SWIDTH 640 0
DWIDTH 10 0
BBX 10 13 0 0
BITMAP
1800
1600
0000
0C00
0C00
1E00
1200
1300
3300
3F00
6180
4080
C0C0
ENDCHAR
STARTCHAR U+00C4
ENCODING 196
SWIDTH 640 0
DWIDTH 10 0
BBX 10 13 0 0
BITMAP
1200
1200
0000
0C00
0C00
1E00
1200
1300
3300
3F00
6180
4080
C0C0
ENDCHAR
STARTCHAR U+00C5
ENCODING 197
SWIDTH 640 0
DWIDTH 10 0
BBX 10 14 0 0
BITMAP
0C00
1200
0C00
0000
0C00
0C00
1E00
1200
1300
3300
3F00
6180
4080
C0C0
ENDCHAR
STARTCHAR U+00C6
ENCODING 198
SWIDTH 896 0
DWIDTH 14 0
BBX 14 10 0 0
BITMAP
03F8
0700
0500
0D00
19F0
1900
3F00
2100
6100
C1F8
ENDCHAR
STARTCHAR U+00C7
ENCODING 199
SWIDTH 640 0
DWIDTH 10 0
BBX 10 13 0 -3
BITMAP
0F00
3080
2000
6000
4000
4000
6000
2000
3080
0F00
0400
0600
0E00
ENDCHAR
STARTCHAR U+00C8
ENCODING 200
SWIDTH 576 0
DWIDTH 9 0
BBX 9 13 0 0
BITMAP
1000
0800
0000
7F00
6000
6000
6000
7E00
6000
6000
6000
6000
7F00
ENDCHAR
STARTCHAR U+00C9
ENCODING 201
SWIDTH 576 0
DWIDTH 9 0
BBX 9 13 0 0
BITMAP
0C00
0800
0000
7F00
6000
6000
6000
7E00
6000
6000
6000
6000
7F00
ENDCHAR
STARTCHAR U+00CA
ENCODING 202
SWIDTH 576 0
DWIDTH 9 0
BBX 9 13 0 0
BITMAP
1C00
1400
0000
7F00
6000
6000
6000
7E00
6000
6000
6000
6000
7F00
ENDCHAR
STARTCHAR U+00CB
ENCODING 203
SWIDTH 576 0
DWIDTH 9 0
BBX 9 13 0 0
BITMAP
2400
2400
0000
7F00
6000
6000
6000
7E00
6000
6000
6000
6000
7F00
ENDCHAR
STARTCHAR U+00CC
ENCODING 204
SWIDTH 256 0
DWIDTH 4 0
BBX 4 13 0 0
BITMAP
40
20
00
60
60
60
60
60
60
60
60
60
60
ENDCHAR
STARTCHAR U+00CD
ENCODING 205
SWIDTH 256 0
DWIDTH 4 0
BBX 5 13 0 0
BITMAP
30
20
00
60
60
60
60
60
60
60
60
60
60
ENDCHAR
STARTCHAR U+00CE
ENCODING 206
SWIDTH 256 0
DWIDTH 4 0
BBX 5 13 0 0
BITMAP
70
50
00
60
60
60
60
60
60
60
60
60
60
ENDCHAR
STARTCHAR U+00CF
ENCODING 207
SWIDTH 256 0
DWIDTH 4 0
BBX 6 13 -1 0
BITMAP
90
90
00
60
60
60
60
60
60
60
60
60
60
ENDCHAR
STARTCHAR U+00D0
ENCODING 208
SWIDTH 704 0
DWIDTH 11 0
BBX 11 10 0 0
BITMAP
7E00
6180
6080
60C0
60C0
F8C0
60C0
6080
6180
7E00
ENDCHAR
STARTCHAR U+00D1
ENCODING 209
SWIDTH 768 0
DWIDTH 12 0
BBX 12 13 0 0
BITMAP
0C00
0B00
0000
6040
7040
7840
6C40
6440
6640
6340
61C0
60C0
60C0
ENDCHAR
STARTCHAR U+00D2
ENCODING 210
SWIDTH 768 0
DWIDTH 12 0
BBX 12 13 0 0
BITMAP
0400
0200
0000
0F00
30C0
2060
6020
4020
4020
6020
2060
30C0
0F00
ENDCHAR
STARTCHAR U+00D3
ENCODING 211
SWIDTH 768 0
DWIDTH 12 0
BBX 12 13 0 0
BITMAP
0300
0200
0000
0F00
30C0
2060
6020
4020
4020
6020
2060
30C0
0F00
ENDCHAR
STARTCHAR U+00D4
ENCODING 212
SWIDTH 768 0
DWIDTH 12 0
BBX 12 13 0 0
BITMAP
0700
0500
0000
0F00
30C0
2060
6020
4020
4020
6020
2060
30C0
0F00
ENDCHAR
STARTCHAR U+00D5
ENCODING 213
SWIDTH 768 0
DWIDTH 12 0
BBX 12 13 0 0
BITMAP
0C00
0B00
0000
0F00
30C0
2060
6020
4020
4020
6020
2060
30C0
0F00
ENDCHAR
STARTCHAR U+00D6
ENCODING 214
SWIDTH 768 0
DWIDTH 12 0
BBX 12 13 0 0
BITMAP
0900
0900
0000
0F00
30C0
2060
6020
4020
4020
6020
2060
30C0
0F00
ENDCHAR
STARTCHAR U+00D7
ENCODING 215
SWIDTH 512 0
DWIDTH 8 0
BBX 8 8 0 0
BITMAP
26
3C
18
3C
24
00
00
00
ENDCHAR
STARTCHAR U+00D8
ENCODING 216
SWIDTH 768 0
DWIDTH 12 0
BBX 12 10 0 0
BITMAP
0FA0
30C0
20E0
6120
4220
4420
6820
3060
30C0
4F00
ENDCHAR
STARTCHAR U+00D9
ENCODING 217
SWIDTH 768 0
DWIDTH 12 0
BBX 12 13 0 0
BITMAP
0800
0400
0000
6040
6040
6040
6040
6040
6040
6040
20C0
3180
0F00
ENDCHAR
STARTCHAR U+00DA
ENCODING 218
SWIDTH 768 0
DWIDTH 12 0
BBX 12 13 0 0
BITMAP
0600
0400
0000
6040
6040
6040
6040
6040
6040
6040
20C0
3180
0F00
ENDCHAR
STARTCHAR U+00DB
ENCODING 219
SWIDTH 768 0
DWIDTH 12 0
BBX 12 13 0 0
BITMAP
0E00
0A00
0000
6040
6040
6040
6040
6040
6040
6040
20C0
3180
0F00
ENDCHAR
STARTCHAR U+00DC
ENCODING 220
SWIDTH 768 0
DWIDTH 12 0
BBX 12 13 0 0
BITMAP
0900
0900
0000
6040
6040
6040
6040
6040
6040
6040
20C0
3180
0F00
ENDCHAR
STARTCHAR U+00DD
ENCODING 221
SWIDTH 576 0
DWIDTH 9 0
BBX 9 13 0 0
BITMAP
0C00
0800
0000
4100
6300
3200
1400
1C00
0800
0800
0800
0800
0800
ENDCHAR
STARTCHAR U+00DE
ENCODING 222
SWIDTH 576 0
DWIDTH 9 0
BBX 9 10 0 0
BITMAP
6000
6000
7E00
6300
6100
6100
6300
7E00
6000
6000
ENDCHAR
STARTCHAR U+00DF
ENCODING 223
SWIDTH 512 0
DWIDTH 8 0
BBX 8 10 0 0
BITMAP
1C
26
62
66
6C
62
63
63
62
6C
ENDCHAR
STARTCHAR U+00E0
ENCODING 224
SWIDTH 512 0
DWIDTH 8 0
BBX 8 10 0 0
BITMAP
20
10
00
7C
44
06
3E
66
46
7E
ENDCHAR
STARTCHAR U+00E1
ENCODING 225
SWIDTH 512 0
DWIDTH 8 0
BBX 8 10 0 0
BITMAP
18
10
00
7C
44
06
3E
66
46
7E
ENDCHAR
STARTCHAR U+00E2
ENCODING 226
SWIDTH 512 0
DWIDTH 8 0
BBX 8 10 0 0
BITMAP
38
28
00
7C
44
06
3E
66
46
7E
ENDCHAR
STARTCHAR U+00E3
ENCODING 227
SWIDTH 512 0
DWIDTH 8 0
BBX 8 10 0 0
BITMAP
30
2C
00
7C
44
06
3E
66
46
7E
ENDCHAR
STARTCHAR U+00E4
ENCODING 228
SWIDTH 512 0
DWIDTH 8 0
BBX 8 10 0 0
BITMAP
24
24
00
7C
44
06
3E
66
46
7E
ENDCHAR
STARTCHAR U+00E5
ENCODING 229
SWIDTH 512 0
DWIDTH 8 0
BBX 8 11 0 0
BITMAP
18
24
18
00
7C
44
06
3E
66
46
7E
ENDCHAR
STARTCHAR U+00E6
ENCODING 230
SWIDTH 768 0
DWIDTH 12 0
BBX 12 7 0 0
BITMAP
79C0
4620
0630
3FF0
6600
4610
7DE0
ENDCHAR
STARTCHAR U+00E7
ENCODING 231
SWIDTH 512 0
DWIDTH 8 0
BBX 8 10 0 -3
BITMAP
1E
62
40
40
40
62
1E
08
0C
1C
ENDCHAR
STARTCHAR U+00E8
ENCODING 232
SWIDTH 512 0
DWIDTH 8 0
BBX 8 10 0 0
BITMAP
10
08
00
3C
66
42
7F
40
62
3E
ENDCHAR
STARTCHAR U+00E9
ENCODING 233
SWIDTH 512 0
DWIDTH 8 0
BBX 8 10 0 0
BITMAP
0C
08
00
3C
66
42
7F
40
62
3E
ENDCHAR
STARTCHAR U+00EA
ENCODING 234
SWIDTH 512 0
DWIDTH 8 0
BBX 8 10 0 0
BITMAP
1C
14
00
3C
66
42
7F
40
62
3E
ENDCHAR
STARTCHAR U+00EB
ENCODING 235
SWIDTH 512 0
DWIDTH 8 0
BBX 8 10 0 0
BITMAP
24
24
00
3C
66
42
7F
40
62
3E
ENDCHAR
STARTCHAR U+00EC
ENCODING 236
SWIDTH 256 0
DWIDTH 4 0
BBX 5 10 -1 0
BITMAP
00
00
00
00
00
00
00
00
00
00
ENDCHAR
STARTCHAR U+00ED
ENCODING 237
SWIDTH 256 0
DWIDTH 4 0
BBX 4 10 0 0
BITMAP
60
40
00
60
60
60
60
60
60
60
ENDCHAR
STARTCHAR U+00EE
ENCODING 238
SWIDTH 256 0
DWIDTH 4 0
BBX 6 10 -1 0
BITMAP
00
00
00
00
00
00
00
00
00
00
ENDCHAR
STARTCHAR U+00EF
ENCODING 239
SWIDTH 256 0
DWIDTH 4 0
BBX 6 10 -1 0
BITMAP
90
90
00
60
60
60
60
60
60
60
ENDCHAR
STARTCHAR U+00F0
ENCODING 240
SWIDTH 512 0
DWIDTH 8 0
BBX 8 10 0 0
BITMAP
34
18
24
3E
66
43
43
42
66
3C
ENDCHAR
STARTCHAR U+00F1
ENCODING 241
SWIDTH 576 0
DWIDTH 9 0
BBX 9 10 0 0
BITMAP
3000
2C00
0000
7E00
6300
6300
6300
6300
6300
6300
ENDCHAR
STARTCHAR U+00F2
ENCODING 242
SWIDTH 576 0
DWIDTH 9 0
BBX 9 10 0 0
BITMAP
1000
0800
0000
1E00
6300
4100
4100
4100
6300
1E00
ENDCHAR
STARTCHAR U+00F3
ENCODING 243
SWIDTH 576 0
DWIDTH 9 0
BBX 9 10 0 0
BITMAP
0C00
0800
0000
1E00
6300
4100
4100
4100
6300
1E00
ENDCHAR
STARTCHAR U+00F4
ENCODING 244
SWIDTH 576 0
DWIDTH 9 0
BBX 9 10 0 0
BITMAP
1C00
1400
0000
1E00
6300
4100
4100
4100
6300
1E00
ENDCHAR
STARTCHAR U+00F5
ENCODING 245
SWIDTH 576 0
DWIDTH 9 0
BBX 9 10 0 0
BITMAP
3000
2C00
0000
1E00
6300
4100
4100
4100
6300
1E00
ENDCHAR
STARTCHAR U+00F6
ENCODING 246
SWIDTH 576 0
DWIDTH 9 0
BBX 9 10 0 0
BITMAP
1200
1200
0000
1E00
6300
4100
4100
4100
6300
1E00
ENDCHAR
STARTCHAR U+00F7
ENCODING 247
SWIDTH 512 0
DWIDTH 8 0
BBX 8 9 0 0
BITMAP
10
10
00
7E
00
00
10
10
00
ENDCHAR
STARTCHAR U+00F8
ENCODING 248
SWIDTH 576 0
DWIDTH 9 0
BBX 9 7 0 0
BITMAP
1F00
6300
4500
4900
5100
7300
7E00
ENDCHAR
STARTCHAR U+00F9
ENCODING 249
SWIDTH 576 0
DWIDTH 9 0
BBX 9 10 0 0
BITMAP
1000
0800
0000
6300
6300
6300
6300
6300
6300
3F00
ENDCHAR
STARTCHAR U+00FA
ENCODING 250
SWIDTH 576 0
DWIDTH 9 0
BBX 9 10 0 0
BITMAP
0C00
0800
0000
6300
6300
6300
6300
6300
6300
3F00
ENDCHAR
STARTCHAR U+00FB
ENCODING 251
SWIDTH 576 0
DWIDTH 9 0
BBX 9 10 0 0
BITMAP
1C00
1400
0000
6300
6300
6300
6300
6300
6300
3F00
ENDCHAR
STARTCHAR U+00FC
ENCODING 252
SWIDTH 576 0
DWIDTH 9 0
BBX 9 10 0 0
BITMAP
2400
2400
0000
6300
6300
6300
6300
6300
6300
3F00
ENDCHAR
STARTCHAR U+00FD
ENCODING 253
SWIDTH 512 0
DWIDTH 8 0
BBX 8 13 0 -3
BITMAP
0C
08
00
C3
42
66
24
34
1C
18
18
10
70
ENDCHAR
STARTCHAR U+00FE
ENCODING 254
SWIDTH 576 0
DWIDTH 9 0
BBX 9 13 0 -3
BITMAP
6000
6000
6000
7E00
6300
6100
6100
6100
6300
7E00
6000
6000
6000
ENDCHAR
STARTCHAR U+00FF
ENCODING 255
SWIDTH 512 0
DWIDTH 8 0
BBX 8 13 0 -3
BITMAP
24
24
00
C3
42
66
24
34
1C
18
18
10
70
ENDCHAR
STARTCHAR U+2013
ENCODING 8211
SWIDTH 512 0
DWIDTH 8 0
BBX 9 5 -1 0
BITMAP
FF00
0000
0000
0000
0000
ENDCHAR
STARTCHAR U+2014
ENCODING 8212
SWIDTH 960 0
DWIDTH 15 0
BBX 17 5 -1 0
BITMAP
FFFE00
000000
000000
000000
000000
ENDCHAR
STARTCHAR U+2018
ENCODING 8216
SWIDTH 256 0
DWIDTH 4 0
BBX 4 10 0 0
BITMAP
40
40
60
00
00
00
00
00
00
00
ENDCHAR
STARTCHAR U+2019
ENCODING 8217
SWIDTH 256 0
DWIDTH 4 0
BBX 4 10 0 0
BITMAP
40
60
20
40
00
00
00
00
00
00
ENDCHAR
STARTCHAR U+201C
ENCODING 8220
SWIDTH 384 0
DWIDTH 6 0
BBX 6 10 0 0
BITMAP
48
58
78
00
00
00
00
00
00
00
ENDCHAR
STARTCHAR U+201D
ENCODING 8221
SWIDTH 384 0
DWIDTH 6 0
BBX 6 10 0 0
BITMAP
50
78
28
50
00
00
00
00
00
00
ENDCHAR
STARTCHAR U+2022
ENCODING 8226
SWIDTH 384 0
DWIDTH 6 0
BBX 6 7 0 0
BITMAP
10
38
38
10
00
00
00
ENDCHAR
STARTCHAR U+2026
ENCODING 8230
SWIDTH 896 0
DWIDTH 14 0
BBX 14 2 0 0
BITMAP
6318
4210
ENDCHAR
STARTCHAR U+20AC
ENCODING 8364
SWIDTH 576 0
DWIDTH 9 0
BBX 9 10 0 0
BITMAP
0F00
3080
2000
FE00
6000
6000
FC00
2000
3080
0F00
ENDCHAR
ENDFONT
