STARTFONT 2.1
COMMENT Converted from Johnston100 W03 Regular.ttf at 50px with ttf2bdf.py (Pillow, 1-bit, no AA)
FONT -Misc-Johnston100-Medium-R-Normal--50-500-75-75-P-520-ISO10646-1
SIZE 50 75 75
FONTBOUNDINGBOX 52 58 -2 -13
STARTPROPERTIES 9
FOUNDRY "Misc"
FAMILY_NAME "Johnston100"
WEIGHT_NAME "Medium"
SLANT "R"
PIXEL_SIZE 50
RESOLUTION_X 75
RESOLUTION_Y 75
FONT_ASCENT 45
FONT_DESCENT 13
ENDPROPERTIES
CHARS 200
STARTCHAR space
ENCODING 32
SWIDTH 250 0
DWIDTH 13 0
BBX 13 58 0 -13
BITMAP
0000
0000
0000
0000
0000
0000
0000
0000
0000
0000
0000
0000
0000
0000
0000
0000
0000
0000
0000
0000
0000
0000
0000
0000
0000
0000
0000
0000
0000
0000
0000
0000
0000
0000
0000
0000
0000
0000
0000
0000
0000
0000
0000
0000
0000
0000
0000
0000
0000
0000
0000
0000
0000
0000
0000
0000
0000
0000
ENDCHAR
STARTCHAR !
ENCODING 33
SWIDTH 269 0
DWIDTH 14 0
BBX 14 34 0 0
BITMAP
07C0
07C0
07C0
07C0
07C0
07C0
07C0
07C0
07C0
07C0
07C0
07C0
07C0
07C0
07C0
07C0
0780
0780
0780
0780
0780
0780
0380
0380
0380
0380
0000
0000
0300
0780
0FC0
07C0
0380
0100
ENDCHAR
STARTCHAR "
ENCODING 34
SWIDTH 403 0
DWIDTH 21 0
BBX 21 34 0 0
BITMAP
1F0F80
1F0F80
1F0F80
1F0F80
1F0F80
1F0F80
0F0780
0F0780
0F0780
0F0780
0E0700
0E0700
060300
000000
000000
000000
000000
000000
000000
000000
000000
000000
000000
000000
000000
000000
000000
000000
000000
000000
000000
000000
000000
000000
ENDCHAR
STARTCHAR U+0023
ENCODING 35
SWIDTH 730 0
DWIDTH 38 0
BBX 38 34 0 0
BITMAP
0000100300
0000F01E00
0001E01E00
0001E01E00
0001E01E00
0001E03C00
0003C03C00
0003C03C00
0003C07800
0007807800
03FFFFFFF0
07FFFFFFF0
07FFFFFFF0
07FFFFFFE0
000F00F000
000F01E000
001E01E000
001E01E000
001E01E000
001E03C000
003C03C000
3FFFFFFF80
3FFFFFFF80
3FFFFFFF80
3FFFFFFF00
0078078000
00780F0000
00F00F0000
00F00F0000
00F01E0000
01E01E0000
01E01E0000
01E03C0000
0300300000
ENDCHAR
STARTCHAR $
ENCODING 36
SWIDTH 499 0
DWIDTH 26 0
BBX 26 41 0 -4
BITMAP
003C0000
003C0000
003C0000
007E0000
01FFC000
07FFE000
0FFFF000
0FFFF800
1F81E000
1F00C000
1F000000
1F000000
1F800000
1F800000
0FE00000
0FF80000
07FE0000
03FF8000
00FFC000
003FF000
000FF800
0003FC00
0001FC00
00007E00
00007E00
00003E00
00003E00
0C003E00
1C003E00
7E007E00
3F00FE00
3FC1FC00
1FFFFC00
0FFFF800
07FFF000
03FFC000
00FF0000
003C0000
003C0000
003C0000
00000000
ENDCHAR
STARTCHAR %
ENCODING 37
SWIDTH 710 0
DWIDTH 37 0
BBX 37 34 0 0
BITMAP
01F0007800
07FC007800
0FFE00F000
0FFF00F000
1F0F81E000
1E0781E000
1C0783C000
3C0783C000
1C07878000
1E07878000
1F0F0F0000
0FFF0F0000
0FFE1E0000
07FC3E0000
01F83C0000
00007C0000
0000780000
0000F80000
0000F00000
0001F07C00
0001E1FF00
0003C3FF80
0003C7FFC0
000787C7C0
00078F83E0
000F0F01E0
000F0F01E0
001E0F01E0
001E0F83E0
003C07C7C0
003C07FFC0
007803FF80
007801FF00
00F0007C00
ENDCHAR
STARTCHAR &
ENCODING 38
SWIDTH 653 0
DWIDTH 34 0
BBX 34 34 0 0
BITMAP
001FC00000
007FF00000
00FFF80000
01FFFC0000
01F07E0000
03E03E0000
03E03E0000
03E03E0000
03E03E0000
03E03E0000
03F07E0000
01F8FC0000
01FDFC0000
00FFF80000
007FE00000
007FC00000
01FF803E00
03FFC03E00
07F7E07C00
0FE3F07C00
1F81F8F800
1F00FCF800
1F007FF000
3E007FF000
3E003FE000
3F001FC000
1F000FE000
1F803FF000
1FC0FFF000
0FFFFFF800
0FFFFCFC00
07FFF87E00
01FFE03F00
007F003F80
ENDCHAR
STARTCHAR '
ENCODING 39
SWIDTH 230 0
DWIDTH 12 0
BBX 12 34 0 0
BITMAP
1F00
1F00
1F00
1F00
1F00
1F00
0F00
0F00
0F00
0F00
0E00
0E00
0600
0000
0000
0000
0000
0000
0000
0000
0000
0000
0000
0000
0000
0000
0000
0000
0000
0000
0000
0000
0000
0000
ENDCHAR
STARTCHAR (
ENCODING 40
SWIDTH 250 0
DWIDTH 13 0
BBX 13 41 0 -4
BITMAP
01F0
01E0
03E0
03C0
03C0
07C0
0780
0780
0F80
0F00
0F00
0F00
1F00
1F00
1F00
1F00
1F00
1F00
1E00
1E00
1E00
1E00
1E00
1F00
1F00
1F00
1F00
1F00
1F00
0F00
0F00
0F80
0F80
0780
0780
07C0
07C0
03C0
03E0
01E0
01F0
ENDCHAR
STARTCHAR )
ENCODING 41
SWIDTH 250 0
DWIDTH 13 0
BBX 13 41 0 -4
BITMAP
3C00
3C00
3E00
1E00
1F00
0F00
0F00
0F80
0F80
0780
0780
07C0
07C0
07C0
07C0
03C0
03C0
03C0
03C0
03C0
03C0
03C0
03C0
03C0
03C0
03C0
07C0
07C0
07C0
0780
0780
0780
0F80
0F80
0F00
0F00
1F00
1E00
3E00
3C00
3C00
ENDCHAR
STARTCHAR *
ENCODING 42
SWIDTH 384 0
DWIDTH 20 0
BBX 20 34 0 0
BITMAP
00F000
00F000
00F000
10F080
1C7180
3E73C0
3F67C0
1FFF80
03FE00
00F800
03FC00
1FEF80
3E67C0
1C71C0
187080
00F000
00F000
00F000
000000
000000
000000
000000
000000
000000
000000
000000
000000
000000
000000
000000
000000
000000
000000
000000
ENDCHAR
STARTCHAR +
ENCODING 43
SWIDTH 518 0
DWIDTH 27 0
BBX 27 27 0 0
BITMAP
001F0000
001F0000
001F0000
001F0000
001F0000
001F0000
001F0000
001F0000
1FFFFE00
1FFFFE00
1FFFFE00
1FFFFE00
001F0000
001F0000
001F0000
001F0000
001F0000
001F0000
001F0000
00000000
00000000
00000000
00000000
00000000
00000000
00000000
00000000
ENDCHAR
STARTCHAR ,
ENCODING 44
SWIDTH 230 0
DWIDTH 12 0
BBX 12 13 0 -6
BITMAP
0000
0600
0F00
1F80
1F80
0F80
0780
0780
0700
0600
0C00
0800
0000
ENDCHAR
STARTCHAR -
ENCODING 45
SWIDTH 365 0
DWIDTH 19 0
BBX 19 16 0 0
BITMAP
3FFF80
3FFF80
3FFF80
3FFF80
3FFF80
000000
000000
000000
000000
000000
000000
000000
000000
000000
000000
000000
ENDCHAR
STARTCHAR .
ENCODING 46
SWIDTH 230 0
DWIDTH 12 0
BBX 12 7 0 0
BITMAP
0200
0700
1F80
1FC0
0F80
0700
0200
ENDCHAR
STARTCHAR /
ENCODING 47
SWIDTH 307 0
DWIDTH 16 0
BBX 17 41 0 -4
BITMAP
000F00
001F00
001E00
001E00
003E00
003E00
003C00
003C00
007C00
007800
007800
00F800
00F800
00F000
00F000
01F000
01E000
01E000
03E000
03E000
03C000
03C000
07C000
078000
078000
0F8000
0F8000
0F0000
0F0000
1F0000
1E0000
1E0000
3E0000
3E0000
3C0000
3C0000
7C0000
780000
780000
F80000
F80000
ENDCHAR
STARTCHAR 0
ENCODING 48
SWIDTH 557 0
DWIDTH 29 0
BBX 29 34 0 0
BITMAP
001FC000
007FF000
00FFF800
01FFFC00
03FFFE00
03F0FE00
07E03F00
07C01F00
0FC01F00
0F801F80
0F800F80
0F800F80
0F800F80
1F000F80
1F000F80
1F000FC0
1F0007C0
1F0007C0
1F0007C0
1F000F80
1F000F80
1F800F80
0F800F80
0F800F80
0F800F80
0FC01F00
07C01F00
07E03F00
03F07E00
03FFFC00
01FFFC00
00FFF800
007FF000
001FC000
ENDCHAR
STARTCHAR 1
ENCODING 49
SWIDTH 288 0
DWIDTH 15 0
BBX 15 34 0 0
BITMAP
0040
00C0
03C0
07C0
07C0
07C0
07C0
07C0
07C0
07C0
07C0
07C0
07C0
07C0
07C0
07C0
07C0
07C0
07C0
07C0
07C0
07C0
07C0
07C0
07C0
07C0
07C0
07C0
07C0
07C0
07C0
07C0
07C0
07C0
ENDCHAR
STARTCHAR 2
ENCODING 50
SWIDTH 480 0
DWIDTH 25 0
BBX 25 34 0 0
BITMAP
007F0000
01FFC000
03FFE000
07FFF000
0FFFF800
0FC1FC00
0F00FC00
0C007C00
08007C00
08007C00
00007C00
00007C00
00007C00
0000FC00
0000F800
0001F800
0001F000
0003F000
0007E000
0007C000
000FC000
001F8000
001F0000
003F0000
007E0000
007C0000
00FC0000
01F80000
01F00000
03FFFE00
07FFFE00
07FFFE00
0FFFFE00
1FFFFE00
ENDCHAR
STARTCHAR 3
ENCODING 51
SWIDTH 499 0
DWIDTH 26 0
BBX 26 34 0 0
BITMAP
1FFFFE00
1FFFFE00
1FFFFC00
1FFFF800
1FFFF800
0001F000
0003F000
0003E000
0007C000
000FC000
000F8000
001F0000
001F0000
003FE000
007FF000
007FF800
0081FC00
0000FE00
00007E00
00003F00
00001F00
00001F00
00001F00
00001F00
00001F00
00003F00
08003E00
1C007E00
1F01FC00
3FFFFC00
3FFFF800
0FFFF000
07FFC000
00FF0000
ENDCHAR
STARTCHAR 4
ENCODING 52
SWIDTH 557 0
DWIDTH 29 0
BBX 29 34 0 0
BITMAP
00000200
00000200
00000600
00000E00
00001E00
00003E00
00007E00
0000FE00
0001FE00
0001FE00
0003FE00
0007FE00
000FBE00
001F3E00
003E3E00
007C3E00
00F83E00
00F83E00
01F03E00
03E03E00
07C03E00
0FFFFFE0
1FFFFFE0
3FFFFFE0
7FFFFFE0
00003E00
00003E00
00003E00
00003E00
00003E00
00003E00
00003E00
00003E00
00003E00
ENDCHAR
STARTCHAR 5
ENCODING 53
SWIDTH 499 0
DWIDTH 26 0
BBX 26 34 0 0
BITMAP
03FFFE00
03FFFE00
03FFFC00
03FFFC00
07FFF800
07C00000
07C00000
07C00000
07C00000
07C00000
07C00000
07FE0000
07FFC000
0FFFE000
0FFFF000
0C07F800
0001F800
0000FC00
00007C00
00003E00
00003E00
00003E00
00003E00
00003E00
00003E00
10007C00
38007C00
7C00FC00
FF03F800
7FFFF000
3FFFF000
1FFFC000
07FF8000
01FE0000
ENDCHAR
STARTCHAR 6
ENCODING 54
SWIDTH 518 0
DWIDTH 27 0
BBX 27 34 0 0
BITMAP
0003F800
0007F000
000FE000
001FC000
003F8000
007F0000
00FE0000
00FC0000
01F80000
01F00000
03F00000
03E00000
07E7E000
07DFF800
0FFFFC00
0FFFFE00
0FFFFF00
0FF07F00
1F801F80
1F001F80
1F000F80
1F000F80
1F000F80
1F000F80
1F800F80
0F800F80
0FC01F80
0FC03F00
07F07F00
07FFFE00
03FFFC00
01FFF800
00FFF000
001FC000
ENDCHAR
STARTCHAR 7
ENCODING 55
SWIDTH 480 0
DWIDTH 25 0
BBX 25 34 0 0
BITMAP
1FFFFF00
1FFFFE00
1FFFFE00
1FFFFE00
1FFFFC00
00007C00
0000F800
0000F800
0001F000
0001F000
0003E000
0003E000
0007E000
0007C000
000FC000
000F8000
000F8000
001F0000
001F0000
003E0000
003E0000
007E0000
007C0000
00FC0000
00F80000
01F80000
01F00000
03F00000
03E00000
03E00000
07E00000
07C00000
0FC00000
0F800000
ENDCHAR
STARTCHAR 8
ENCODING 56
SWIDTH 499 0
DWIDTH 26 0
BBX 26 34 0 0
BITMAP
003F8000
00FFE000
01FFF000
03FFF800
07E0FC00
07C07C00
0F803C00
0F803C00
0F803C00
0F807C00
07C07C00
07E0FC00
03F9F800
03FFF000
01FFE000
007FC000
01FFF000
03FFF800
07E1FC00
0FC0FE00
1F803F00
1F003F00
1F001F00
1F001F00
1F001F00
1F001F00
1F001F00
1F803F00
1FE0FE00
0FFFFE00
07FFFC00
03FFF800
01FFE000
003F8000
ENDCHAR
STARTCHAR 9
ENCODING 57
SWIDTH 518 0
DWIDTH 27 0
BBX 27 34 0 0
BITMAP
007F0000
01FFC000
07FFF000
0FFFF800
1FFFF800
1FC1FC00
3F00FC00
3E007E00
3E003E00
3C003E00
7C003E00
7C003E00
3E003E00
3E003E00
3F003E00
3FC0FE00
1FFFFE00
0FFFFE00
07FFFE00
03FFFC00
00FEFC00
0000FC00
0001F800
0001F800
0003F000
0007F000
0007E000
000FC000
001FC000
003F8000
007F0000
00FE0000
01FC0000
03F80000
ENDCHAR
STARTCHAR :
ENCODING 58
SWIDTH 269 0
DWIDTH 14 0
BBX 14 26 0 0
BITMAP
0100
0380
0FC0
0FE0
07C0
0380
0100
0000
0000
0000
0000
0000
0000
0000
0000
0000
0000
0000
0000
0100
0380
0FC0
0FE0
07C0
0380
0100
ENDCHAR
STARTCHAR ;
ENCODING 59
SWIDTH 269 0
DWIDTH 14 0
BBX 14 31 0 -6
BITMAP
0100
0380
0FC0
0FE0
07C0
0380
0100
0000
0000
0000
0000
0000
0000
0000
0000
0000
0000
0000
0000
0180
03C0
07E0
07E0
03E0
01E0
01E0
01C0
0180
0300
0200
0000
ENDCHAR
STARTCHAR U+003C
ENCODING 60
SWIDTH 518 0
DWIDTH 27 0
BBX 27 30 0 0
BITMAP
00000200
00000E00
00003E00
0000FE00
0003FE00
000FFC00
003FF000
00FFC000
03FF0000
0FFC0000
1FF00000
1FC00000
1FE00000
1FF80000
0FFE0000
01FF8000
007FF000
001FFC00
0007FE00
0001FE00
00007E00
00000E00
00000200
00000000
00000000
00000000
00000000
00000000
00000000
00000000
ENDCHAR
STARTCHAR =
ENCODING 61
SWIDTH 518 0
DWIDTH 27 0
BBX 27 24 0 0
BITMAP
1FFFFE00
1FFFFE00
1FFFFE00
1FFFFE00
00000000
00000000
00000000
00000000
00000000
00000000
1FFFFE00
1FFFFE00
1FFFFE00
1FFFFE00
00000000
00000000
00000000
00000000
00000000
00000000
00000000
00000000
00000000
00000000
ENDCHAR
STARTCHAR U+003E
ENCODING 62
SWIDTH 518 0
DWIDTH 27 0
BBX 27 30 0 0
BITMAP
18000000
1E000000
1F800000
1FE00000
1FF80000
07FE0000
01FF8000
007FE000
001FF800
0007FC00
0003FE00
0000FE00
0000FE00
0003FE00
000FFC00
003FF000
01FFC000
07FF0000
1FFC0000
1FF00000
1F800000
1E000000
18000000
00000000
00000000
00000000
00000000
00000000
00000000
00000000
ENDCHAR
STARTCHAR ?
ENCODING 63
SWIDTH 442 0
DWIDTH 23 0
BBX 23 34 0 0
BITMAP
01FC00
07FF00
1FFF80
3FFFC0
7FFFE0
7F07E0
3C03F0
1001F0
0001F0
0001F0
0001F0
0003F0
0007E0
001FC0
003F80
00FF00
01FC00
01F800
03F000
03E000
03E000
03F000
01F800
00F800
007000
002000
000000
002000
007000
01F800
01FC00
00F800
007000
002000
ENDCHAR
STARTCHAR @
ENCODING 64
SWIDTH 922 0
DWIDTH 48 0
BBX 48 43 0 -9
BITMAP
00000FFE0000
00007FFFC000
0003FFFFF000
0007FFFFFC00
001FF803FE00
003F80007F00
007E00001F80
00FC00000FC0
01F8000007E0
01F007F843E0
03E01FFFC1F0
07C03FFFC0F0
07C07FFFC0F0
0780FC0FC0F8
0F81F8078078
0F01F0078078
0F03E0078078
1F03E0078078
1E03C0078078
1E03C0078078
1E07C0078078
1E07C00F8078
1E07C00F8078
1E07C00F8078
1E07C00F00F8
1E07C00F00F0
1E03C00F01F0
1F03E00F01E0
1F03E01F87E0
0F01F83FFFC0
0F81FFFFFF80
0F80FFF3FF00
07C03FE0FC00
07E00F800000
03E000000000
01F800000000
00FC00008000
007F00038000
003FE00F8000
001FFFFF8000
0007FFFF8000
0001FFFF0000
00003FF00000
ENDCHAR
STARTCHAR A
ENCODING 65
SWIDTH 653 0
DWIDTH 34 0
BBX 34 34 0 0
BITMAP
0003E00000
0003E00000
0007F00000
0007F00000
0007F80000
000FF80000
000FF80000
001F7C0000
001F7C0000
001F3E0000
003E3E0000
003E3E0000
007E1F0000
007C1F0000
007C0F8000
00F80F8000
00F80FC000
00F807C000
01F007C000
01F003E000
03F003E000
03FFFFF000
03FFFFF000
07FFFFF000
07FFFFF800
0FFFFFF800
0F8000FC00
0F80007C00
1F80007C00
1F00007E00
3F00003E00
3E00003F00
3E00001F00
7E00001F80
ENDCHAR
STARTCHAR B
ENCODING 66
SWIDTH 576 0
DWIDTH 30 0
BBX 30 34 0 0
BITMAP
07FFC000
07FFF000
07FFFC00
07FFFE00
07C0FE00
07C03F00
07C01F00
07C01F00
07C01F00
07C01F00
07C01F00
07C03E00
07C0FE00
07FFFC00
07FFF800
07FFFE00
07FFFF80
07FFFFC0
07C01FC0
07C007E0
07C003E0
07C003F0
07C003F0
07C001F0
07C003F0
07C003F0
07C003E0
07C007E0
07C01FE0
07FFFFC0
07FFFF80
07FFFF00
07FFFE00
07FFF000
ENDCHAR
STARTCHAR C
ENCODING 67
SWIDTH 653 0
DWIDTH 34 0
BBX 34 34 0 0
BITMAP
0000FF8000
0007FFF000
001FFFFC00
003FFFFE00
007FFFFE00
01FF807E00
01FC000E00
03F8000200
07E0000000
07E0000000
0FC0000000
0F80000000
1F80000000
1F00000000
1F00000000
1F00000000
1F00000000
1F00000000
1F00000000
1F00000000
1F80000000
1F80000000
0F80000000
0FC0000000
07E0000000
07F0000000
03F8000200
01FC000E00
00FF807E00
007FFFFE00
003FFFFE00
001FFFFC00
0007FFF000
0000FF8000
ENDCHAR
STARTCHAR D
ENCODING 68
SWIDTH 691 0
DWIDTH 36 0
BBX 36 34 0 0
BITMAP
07FFF00000
07FFFE0000
07FFFF8000
07FFFFE000
07FFFFF000
07C01FF800
07C003FC00
07C000FE00
07C0007E00
07C0003F00
07C0003F00
07C0001F80
07C0001F80
07C0000F80
07C0000F80
07C0000F80
07C0000FC0
07C0000F80
07C0000F80
07C0000F80
07C0000F80
07C0001F80
07C0001F80
07C0003F00
07C0003F00
07C0007E00
07C000FE00
07C003FC00
07C01FF800
07FFFFF000
07FFFFE000
07FFFF8000
07FFFE0000
07FFE00000
ENDCHAR
STARTCHAR E
ENCODING 69
SWIDTH 557 0
DWIDTH 29 0
BBX 29 34 0 0
BITMAP
07FFFFC0
07FFFFC0
07FFFFC0
07FFFFC0
07FFFFC0
07C00000
07C00000
07C00000
07C00000
07C00000
07C00000
07C00000
07C00000
07FFFC00
07FFFC00
07FFFC00
07FFFC00
07FFFC00
07C00000
07C00000
07C00000
07C00000
07C00000
07C00000
07C00000
07C00000
07C00000
07C00000
07C00000
07FFFFE0
07FFFFE0
07FFFFE0
07FFFFE0
07FFFFE0
ENDCHAR
STARTCHAR F
ENCODING 70
SWIDTH 499 0
DWIDTH 26 0
BBX 26 34 0 0
BITMAP
07FFFF80
07FFFF80
07FFFF80
07FFFF80
07FFFF80
07C00000
07C00000
07C00000
07C00000
07C00000
07C00000
07C00000
07C00000
07FFF800
07FFF800
07FFF800
07FFF800
07FFF800
07C00000
07C00000
07C00000
07C00000
07C00000
07C00000
07C00000
07C00000
07C00000
07C00000
07C00000
07C00000
07C00000
07C00000
07C00000
07C00000
ENDCHAR
STARTCHAR G
ENCODING 71
SWIDTH 710 0
DWIDTH 37 0
BBX 37 34 0 0
BITMAP
0000FFC000
0007FFF800
001FFFFE00
003FFFFF80
007FFFFF80
00FF807F80
01FE000F80
03F8000380
07F0000180
07E0000000
0FC0000000
0F80000000
1F80000000
1F80000000
1F0007FF80
1F0007FF80
1F0007FF80
1F0007FF80
1F0007FF80
1F00000F80
1F80000F80
1F80000F80
0F80000F80
0FC0000F80
07E0000F80
07F0000F80
03F8000F80
03FC000F80
01FF803F80
00FFFFFF80
003FFFFF80
001FFFFF00
0007FFFC00
0000FFC000
ENDCHAR
STARTCHAR H
ENCODING 72
SWIDTH 710 0
DWIDTH 37 0
BBX 37 34 0 0
BITMAP
07C0001F00
07C0001F00
07C0001F00
07C0001F00
07C0001F00
07C0001F00
07C0001F00
07C0001F00
07C0001F00
07C0001F00
07C0001F00
07C0001F00
07C0001F00
07FFFFFF00
07FFFFFF00
07FFFFFF00
07FFFFFF00
07FFFFFF00
07C0001F00
07C0001F00
07C0001F00
07C0001F00
07C0001F00
07C0001F00
07C0001F00
07C0001F00
07C0001F00
07C0001F00
07C0001F00
07C0001F00
07C0001F00
07C0001F00
07C0001F00
07C0001F00
ENDCHAR
STARTCHAR I
ENCODING 73
SWIDTH 288 0
DWIDTH 15 0
BBX 15 34 0 0
BITMAP
07C0
07C0
07C0
07C0
07C0
07C0
07C0
07C0
07C0
07C0
07C0
07C0
07C0
07C0
07C0
07C0
07C0
07C0
07C0
07C0
07C0
07C0
07C0
07C0
07C0
07C0
07C0
07C0
07C0
07C0
07C0
07C0
07C0
07C0
ENDCHAR
STARTCHAR J
ENCODING 74
SWIDTH 461 0
DWIDTH 24 0
BBX 24 34 0 0
BITMAP
0003F0
0003F0
0003F0
0003F0
0003F0
0003F0
0003F0
0003F0
0003F0
0003F0
0003F0
0003F0
0003F0
0003F0
0003F0
0003F0
0003F0
0003F0
0003F0
0003F0
0003F0
0003F0
0003F0
0003F0
0003F0
0C03E0
1C03E0
7E07E0
7F0FE0
3FFFC0
1FFF80
0FFF80
07FE00
01F800
ENDCHAR
STARTCHAR K
ENCODING 75
SWIDTH 614 0
DWIDTH 32 0
BBX 32 34 0 0
BITMAP
07C001FC
07C003F8
07C007F0
07C00FE0
07C01F80
07C03F00
07C07E00
07C1FC00
07C3F800
07C7F000
07CFE000
07DFC000
07FF8000
07FF0000
07FE0000
07FE0000
07FF0000
07FF8000
07DF8000
07DFC000
07CFE000
07C7F000
07C3F800
07C1FC00
07C0FE00
07C07F00
07C03F80
07C01F80
07C00FC0
07C007E0
07C007F0
07C003F8
07C001FC
07C000FE
ENDCHAR
STARTCHAR L
ENCODING 76
SWIDTH 518 0
DWIDTH 27 0
BBX 27 34 0 0
BITMAP
07C00000
07C00000
07C00000
07C00000
07C00000
07C00000
07C00000
07C00000
07C00000
07C00000
07C00000
07C00000
07C00000
07C00000
07C00000
07C00000
07C00000
07C00000
07C00000
07C00000
07C00000
07C00000
07C00000
07C00000
07C00000
07C00000
07C00000
07C00000
07C00000
07FFFFC0
07FFFFC0
07FFFFC0
07FFFFC0
07FFFFC0
ENDCHAR
STARTCHAR M
ENCODING 77
SWIDTH 826 0
DWIDTH 43 0
BBX 43 34 0 0
BITMAP
07C000007E00
07E00000FE00
07F00001FE00
07F80001FE00
07FC0003FE00
07FC0007FE00
07FE000FFE00
07FF001FFE00
07FF803FFE00
07DFC03F7E00
07CFC07E7E00
07C7E0FC7E00
07C3F1FC7E00
07C1FBF87E00
07C1FFF07E00
07C0FFE07E00
07C07FC07E00
07C03F807E00
07C01F807E00
07C01F007E00
07C00E007E00
07C004007E00
07C000007E00
07C000007E00
07C000007E00
07C000007E00
07C000007E00
07C000007E00
07C000007E00
07C000007E00
07C000007E00
07C000007E00
07C000007E00
07C000007E00
ENDCHAR
STARTCHAR N
ENCODING 78
SWIDTH 749 0
DWIDTH 39 0
BBX 39 34 0 0
BITMAP
07C00007C0
07E00007C0
07E00007C0
07F00007C0
07F80007C0
07FC0007C0
07FC0007C0
07FE0007C0
07FF0007C0
07DF8007C0
07DF8007C0
07CFC007C0
07C7E007C0
07C3F007C0
07C3F807C0
07C1F807C0
07C0FC07C0
07C07E07C0
07C07F07C0
07C03F07C0
07C01F87C0
07C00FC7C0
07C007E7C0
07C007E7C0
07C003F7C0
07C001FFC0
07C000FFC0
07C000FFC0
07C0007FC0
07C0003FC0
07C0001FC0
07C0000FC0
07C0000FC0
07C00007C0
ENDCHAR
STARTCHAR O
ENCODING 79
SWIDTH 787 0
DWIDTH 41 0
BBX 41 34 0 0
BITMAP
0000FF800000
0007FFF00000
001FFFFC0000
003FFFFE0000
007FFFFF8000
01FF80FFC000
01FC001FC000
03F8000FE000
07F00003F000
07E00001F000
0FC00001F800
0F800000F800
1F800000FC00
1F8000007C00
1F0000007C00
1F0000007C00
1F0000007C00
1F0000007C00
1F0000007C00
1F0000007C00
1F8000007C00
1F800000FC00
0F800000F800
0FC00001F800
07E00001F000
07E00003F000
03F8000FE000
01FC001FC000
01FF80FFC000
00FFFFFF8000
003FFFFE0000
001FFFFC0000
0007FFF00000
0000FF800000
ENDCHAR
STARTCHAR P
ENCODING 80
SWIDTH 576 0
DWIDTH 30 0
BBX 30 34 0 0
BITMAP
07FFF000
07FFFC00
07FFFF00
07FFFF80
07FFFFC0
07C03FC0
07C00FC0
07C007E0
07C003E0
07C003E0
07C003E0
07C003E0
07C003E0
07C007E0
07C00FC0
07C03FC0
07FFFF80
07FFFF80
07FFFE00
07FFFC00
07FFF000
07C00000
07C00000
07C00000
07C00000
07C00000
07C00000
07C00000
07C00000
07C00000
07C00000
07C00000
07C00000
07C00000
ENDCHAR
STARTCHAR Q
ENCODING 81
SWIDTH 787 0
DWIDTH 41 0
BBX 41 35 0 -1
BITMAP
0000FF800000
0007FFF00000
001FFFFC0000
003FFFFE0000
007FFFFF8000
01FF80FFC000
01FC001FC000
03F8000FE000
07F00003F000
07E00001F000
0FC00001F800
0F800000F800
1F800000FC00
1F8000007C00
1F0000007C00
1F0000007C00
1F0000007C00
1F0000007C00
1F0000007C00
1F0000007C00
1F8000007C00
1F800020FC00
0F800030F800
0FC00079F800
07E000FFF000
07E000FFF000
03F8003FE000
01FC001FE000
01FF80FFE000
00FFFFFFF000
003FFFFFF800
001FFFFDF800
0007FFF0F000
0000FF807000
000000002000
ENDCHAR
STARTCHAR R
ENCODING 82
SWIDTH 576 0
DWIDTH 30 0
BBX 31 34 0 0
BITMAP
07FFC000
07FFF800
07FFFC00
07FFFE00
07FFFF00
07C07F00
07C01F80
07C00F80
07C00F80
07C00F80
07C00F80
07C00F80
07C01F80
07C07F00
07FFFF00
07FFFE00
07FFFC00
07FFF800
07FFE000
07C7F000
07C3F000
07C1F800
07C1FC00
07C0FC00
07C07E00
07C03F00
07C03F80
07C01F80
07C00FC0
07C00FE0
07C007F0
07C003F0
07C001F8
07C001FC
ENDCHAR
STARTCHAR S
ENCODING 83
SWIDTH 499 0
DWIDTH 26 0
BBX 26 34 0 0
BITMAP
007E0000
01FF8000
07FFE000
0FFFF000
0FFFF000
1FC3F000
1F80E000
1F004000
1F000000
1F800000
1F800000
0FE00000
0FF80000
07FE0000
03FF8000
01FFC000
007FF000
001FF800
0007FC00
0001FC00
0000FE00
00007E00
00003E00
00003E00
0C003E00
1C003E00
3E007E00
3F00FE00
3FC1FC00
1FFFF800
0FFFF800
07FFE000
03FFC000
00FF0000
ENDCHAR
STARTCHAR T
ENCODING 84
SWIDTH 557 0
DWIDTH 29 0
BBX 29 34 0 0
BITMAP
7FFFFFF0
7FFFFFF0
7FFFFFF0
7FFFFFF0
7FFFFFF0
000F8000
000F8000
000F8000
000F8000
000F8000
000F8000
000F8000
000F8000
000F8000
000F8000
000F8000
000F8000
000F8000
000F8000
000F8000
000F8000
000F8000
000F8000
000F8000
000F8000
000F8000
000F8000
000F8000
000F8000
000F8000
000F8000
000F8000
000F8000
000F8000
ENDCHAR
STARTCHAR U
ENCODING 85
SWIDTH 749 0
DWIDTH 39 0
BBX 39 34 0 0
BITMAP
0F800007C0
0F800007C0
0F800007C0
0F800007C0
0F800007C0
0F800007C0
0F800007C0
0F800007C0
0F800007C0
0F800007C0
0F800007C0
0F800007C0
0F800007C0
0F800007C0
0F800007C0
0F800007C0
0F800007C0
0F800007C0
0F800007C0
0F800007C0
0FC00007C0
07C00007C0
07C00007C0
07C0000FC0
07E0000F80
03F0001F80
03F8003F00
01FC007F00
01FF01FE00
00FFFFFC00
007FFFF800
001FFFF000
000FFFC000
0001FE0000
ENDCHAR
STARTCHAR V
ENCODING 86
SWIDTH 614 0
DWIDTH 32 0
BBX 32 34 0 0
BITMAP
7E00003E
3E00007E
3E00007C
3F0000FC
1F0000F8
1F8000F8
1F8001F8
0F8001F0
0FC001F0
07C003F0
07C003E0
07E003E0
03E007E0
03E007C0
01F007C0
01F00F80
01F00F80
00F80F80
00F81F00
00FC1F00
007C1F00
007C3E00
003E3E00
003E7C00
003E7C00
001F7C00
001FF800
001FF800
000FF800
000FF000
0007F000
0007F000
0007E000
0003E000
ENDCHAR
STARTCHAR W
ENCODING 87
SWIDTH 941 0
DWIDTH 49 0
BBX 49 34 0 0
BITMAP
3E000000003E00
3F0003E0003E00
1F0003F0007C00
1F0007F0007C00
1F0007F0007C00
1F8007F800FC00
0F800FF800F800
0F800FF800F800
0FC00F7800F800
07C01F7C01F000
07C01F7C01F000
07C01F7C01F000
07E01E3E03F000
03E03E3E03E000
03E03E3E03E000
03F03C1F03E000
01F07C1F07C000
01F07C1F07C000
01F0780F87C000
00F8780F87C000
00F8F80F8F8000
00F8F80F8F8000
00FCF007CF8000
007DF007DF0000
007DF007DF0000
007DE003FF0000
003FE003FE0000
003FE003FE0000
003FE001FE0000
001FC001FE0000
001FC001FC0000
001FC000FC0000
001F8000FC0000
000F8000F80000
ENDCHAR
STARTCHAR X
ENCODING 88
SWIDTH 653 0
DWIDTH 34 0
BBX 34 34 0 0
BITMAP
3F00007E00
3F0000FE00
1F8000FC00
0FC001F800
07E003F000
07F003F000
03F007E000
01F80FC000
00FC1F8000
007E1F8000
007E3F0000
003F7E0000
001FFC0000
000FFC0000
000FF80000
0007F00000
0007F00000
0007F80000
000FFC0000
001FFC0000
003F7E0000
003F3F0000
007E1F8000
00FC1F8000
01F80FC000
01F807E000
03F003F000
07E003F000
0FE001F800
0FC000FC00
1F80007E00
3F00007F00
3F00003F00
7E00001F80
ENDCHAR
STARTCHAR Y
ENCODING 89
SWIDTH 576 0
DWIDTH 30 0
BBX 30 34 0 0
BITMAP
7E0001F8
3F0001F0
3F0003F0
1F8007E0
0FC007C0
0FC00FC0
07E00F80
03F01F80
03F03F00
01F83E00
00F87E00
00FCFC00
007EF800
003FF800
003FF000
001FE000
001FE000
000FC000
0007C000
0007C000
0007C000
0007C000
0007C000
0007C000
0007C000
0007C000
0007C000
0007C000
0007C000
0007C000
0007C000
0007C000
0007C000
0007C000
ENDCHAR
STARTCHAR Z
ENCODING 90
SWIDTH 595 0
DWIDTH 31 0
BBX 31 34 0 0
BITMAP
3FFFFFFC
3FFFFFF8
3FFFFFF0
3FFFFFF0
3FFFFFE0
000007C0
00000FC0
00001F80
00001F00
00003F00
00007E00
00007C00
0000FC00
0001F800
0001F000
0003E000
0007E000
000FC000
000F8000
001F8000
003F0000
003E0000
007E0000
00FC0000
00F80000
01F80000
03F00000
03E00000
07E00000
0FFFFFFC
0FFFFFFC
1FFFFFFC
3FFFFFFC
3FFFFFFC
ENDCHAR
STARTCHAR [
ENCODING 91
SWIDTH 326 0
DWIDTH 17 0
BBX 17 46 0 -7
BITMAP
0FFE00
0FFE00
0FFE00
0FFE00
0F8000
0F8000
0F8000
0F8000
0F8000
0F8000
0F8000
0F8000
0F8000
0F8000
0F8000
0F8000
0F8000
0F8000
0F8000
0F8000
0F8000
0F8000
0F8000
0F8000
0F8000
0F8000
0F8000
0F8000
0F8000
0F8000
0F8000
0F8000
0F8000
0F8000
0F8000
0F8000
0F8000
0F8000
0F8000
0F8000
0F8000
0F8000
0FFE00
0FFE00
0FFE00
0FFE00
ENDCHAR
STARTCHAR \
ENCODING 92
SWIDTH 307 0
DWIDTH 16 0
BBX 17 41 0 -4
BITMAP
F80000
F80000
780000
780000
7C0000
3C0000
3C0000
3E0000
3E0000
1E0000
1E0000
1F0000
0F0000
0F0000
0F8000
0F8000
078000
078000
07C000
03C000
03C000
03E000
03E000
01E000
01E000
01F000
00F000
00F000
00F800
00F800
007800
007800
007C00
003C00
003C00
003E00
003E00
001E00
001E00
001F00
000F00
ENDCHAR
STARTCHAR ]
ENCODING 93
SWIDTH 326 0
DWIDTH 17 0
BBX 17 46 0 -7
BITMAP
3FF800
3FF800
3FF800
3FF800
00F800
00F800
00F800
00F800
00F800
00F800
00F800
00F800
00F800
00F800
00F800
00F800
00F800
00F800
00F800
00F800
00F800
00F800
00F800
00F800
00F800
00F800
00F800
00F800
00F800
00F800
00F800
00F800
00F800
00F800
00F800
00F800
00F800
00F800
00F800
00F800
00F800
00F800
3FF800
3FF800
3FF800
3FF800
ENDCHAR
STARTCHAR ^
ENCODING 94
SWIDTH 557 0
DWIDTH 29 0
BBX 29 34 0 0
BITMAP
000F8000
001FC000
003FE000
003FE000
007DF000
00F8F800
00F8F800
01F07C00
03E03E00
03E03E00
07C01F00
0F800F80
0F800F80
1F0007C0
00000000
00000000
00000000
00000000
00000000
00000000
00000000
00000000
00000000
00000000
00000000
00000000
00000000
00000000
00000000
00000000
00000000
00000000
00000000
00000000
ENDCHAR
STARTCHAR _
ENCODING 95
SWIDTH 480 0
DWIDTH 25 0
BBX 27 7 -1 -7
BITMAP
00000000
00000000
00000000
00000000
FFFFFF80
FFFFFF80
FFFFFF80
ENDCHAR
STARTCHAR `
ENCODING 96
SWIDTH 442 0
DWIDTH 23 0
BBX 23 34 0 0
BITMAP
FFFFFE
FFFFFE
FFFFFE
FFFFFE
F0003E
F0003E
F0003E
F0003E
F0003E
F0003E
F0003E
F0003E
F0003E
F0003E
F0003E
F0003E
F0003E
F0003E
F0003E
F0003E
F0003E
F0003E
F0003E
F0003E
F0003E
F0003E
F0003E
F0003E
F0003E
F0003E
FFFFFE
FFFFFE
FFFFFE
FFFFFE
ENDCHAR
STARTCHAR a
ENCODING 97
SWIDTH 499 0
DWIDTH 26 0
BBX 26 25 0 0
BITMAP
007F0000
01FFC000
07FFF000
07FFF000
07FFF800
0F81F800
0C00FC00
08007C00
00007C00
000FFC00
007FFC00
01FFFC00
07FFFC00
0FF07C00
0FC07C00
1F007C00
1F007C00
1E007C00
3F00FC00
1F83FC00
1FFFFC00
1FFFFC00
0FFFFC00
07FF7C00
01FC7C00
ENDCHAR
STARTCHAR b
ENCODING 98
SWIDTH 576 0
DWIDTH 30 0
BBX 30 34 0 0
BITMAP
0F800000
0F800000
0F800000
0F800000
0F800000
0F800000
0F800000
0F800000
0F800000
0F8FE000
0FBFF800
0FFFFE00
0FFFFF00
0FFFFF80
0FF03FC0
0FC00FC0
0F8007E0
0F8003E0
0F8003E0
0F8001F0
0F8001F0
0F8001F0
0F8001F0
0F8001F0
0F8003E0
0F8003E0
0F8007E0
0FC00FC0
0FF03FC0
0FFFFF80
0FFFFF00
0FFFFE00
0F3FFC00
0F0FE000
ENDCHAR
STARTCHAR c
ENCODING 99
SWIDTH 480 0
DWIDTH 25 0
BBX 25 25 0 0
BITMAP
000FE000
007FFC00
01FFFE00
03FFFE00
07FFFE00
07F81E00
0FC00200
1F800000
1F000000
1F000000
1F000000
3E000000
3E000000
3E000000
1F000000
1F000000
1F000000
1F800000
0FE00200
07F81E00
07FFFE00
03FFFE00
00FFFE00
007FFC00
000FE000
ENDCHAR
STARTCHAR d
ENCODING 100
SWIDTH 576 0
DWIDTH 30 0
BBX 30 34 0 0
BITMAP
000007C0
000007C0
000007C0
000007C0
000007C0
000007C0
000007C0
000007C0
000007C0
001FC7C0
007FF7C0
01FFFFC0
03FFFFC0
07FFFFC0
0FF83FC0
0FC00FC0
1F8007C0
1F0007C0
1F0007C0
1E0007C0
3E0007C0
3E0007C0
3E0007C0
3E0007C0
1F0007C0
1F0007C0
1F8007C0
0FC00FC0
0FF03FC0
07FFFFC0
03FFFFC0
01FFFFC0
007FFBC0
001FC3C0
ENDCHAR
STARTCHAR e
ENCODING 101
SWIDTH 538 0
DWIDTH 28 0
BBX 28 25 0 0
BITMAP
001FC000
007FF000
01FFF800
03FFFC00
07FFFE00
0FF07F00
0FC01F00
1F801F00
1F000F80
1F000F80
1FFFFF80
3FFFFF80
3FFFFF80
3FFFFF80
1FFFFF80
1E000000
1F000000
1F800180
0FC00380
0FF01F80
07FFFF80
03FFFF80
01FFFF00
007FFC00
001FE000
ENDCHAR
STARTCHAR f
ENCODING 102
SWIDTH 384 0
DWIDTH 20 0
BBX 20 34 0 0
BITMAP
003FE0
00FFE0
01FFE0
03FFE0
03FFE0
07E000
07C000
07C000
07C000
7FFFE0
7FFFE0
7FFFE0
7FFFE0
7FFFE0
07C000
07C000
07C000
07C000
07C000
07C000
07C000
07C000
07C000
07C000
07C000
07C000
07C000
07C000
07C000
07C000
07C000
07C000
07C000
07C000
ENDCHAR
STARTCHAR g
ENCODING 103
SWIDTH 499 0
DWIDTH 26 0
BBX 26 34 0 -9
BITMAP
007FFF80
03FFFF80
07FFFF80
0FFFFF80
1FFFFF80
1F81F800
1F007800
1E007C00
3E007C00
1E007C00
1F007C00
1F81FC00
0FFFF800
0FFFF800
07FFF000
03FFC000
07FF0000
0F800000
0FC00000
0FF80000
07FF8000
03FFF000
0FFFFC00
1F07FE00
3E007F00
7C001F00
7C000F00
7C000F00
7F003F00
7FFFFF00
3FFFFE00
1FFFFC00
0FFFF800
01FFC000
ENDCHAR
STARTCHAR h
ENCODING 104
SWIDTH 576 0
DWIDTH 30 0
BBX 30 34 0 0
BITMAP
0F800000
0F800000
0F800000
0F800000
0F800000
0F800000
0F800000
0F800000
0F800000
0F8FF000
0FBFFC00
0FFFFE00
0FFFFF00
0FFFFF80
0FF03F80
0FC00FC0
0F800FC0
0F8007C0
0F8007C0
0F8007C0
0F8003C0
0F8003C0
0F8003C0
0F8003C0
0F8003C0
0F8003C0
0F8003C0
0F8003C0
0F8003C0
0F8003C0
0F8003C0
0F8003C0
0F8003C0
0F8003C0
ENDCHAR
STARTCHAR i
ENCODING 105
SWIDTH 250 0
DWIDTH 13 0
BBX 13 33 0 0
BITMAP
0200
0700
0F80
1FC0
0F80
0700
0200
0000
0F80
0F80
0F80
0F80
0F80
0F80
0F80
0F80
0F80
0F80
0F80
0F80
0F80
0F80
0F80
0F80
0F80
0F80
0F80
0F80
0F80
0F80
0F80
0F80
0F80
ENDCHAR
STARTCHAR j
ENCODING 106
SWIDTH 250 0
DWIDTH 13 0
BBX 14 43 -1 -9
BITMAP
0100
0380
07C0
0FE0
07C0
0380
0100
0000
0000
07C0
07C0
07C0
07C0
07C0
07C0
07C0
07C0
07C0
07C0
07C0
07C0
07C0
07C0
07C0
07C0
07C0
07C0
07C0
07C0
07C0
07C0
07C0
07C0
07C0
07C0
07C0
07C0
0F80
FF80
FF80
FF00
FE00
FC00
ENDCHAR
STARTCHAR k
ENCODING 107
SWIDTH 518 0
DWIDTH 27 0
BBX 27 34 0 0
BITMAP
0F800000
0F800000
0F800000
0F800000
0F800000
0F800000
0F800000
0F800000
0F800000
0F803F80
0F807F00
0F80FE00
0F81FC00
0F83F800
0F87F000
0F8FC000
0F9F8000
0FFF0000
0FFE0000
0FFC0000
0FFC0000
0FFE0000
0FFF0000
0FBF0000
0F9F8000
0F8FC000
0F87E000
0F83F000
0F81F800
0F80FC00
0F80FE00
0F807F00
0F803F80
0F801FC0
ENDCHAR
STARTCHAR l
ENCODING 108
SWIDTH 307 0
DWIDTH 16 0
BBX 16 34 0 0
BITMAP
0F00
0F00
0F00
0F00
0F00
0F00
0F00
0F00
0F00
0F00
0F00
0F00
0F00
0F00
0F00
0F00
0F00
0F00
0F00
0F00
0F00
0F00
0F00
0F00
0F00
0F00
0F80
0F80
0FC0
0FFE
07FE
07FE
03FE
00FE
ENDCHAR
STARTCHAR m
ENCODING 109
SWIDTH 883 0
DWIDTH 46 0
BBX 46 25 0 0
BITMAP
0F8FE007F000
0FBFF83FFC00
0FFFFEFFFF00
0FFFFFFFFF80
0FFFFFFFFF80
0FF03FF81FC0
0FC01FC00FC0
0F800F8007C0
0F800FC007E0
0F8007C003E0
0F8007C003E0
0F8007C003E0
0F8007C003E0
0F8007C003E0
0F8007C003E0
0F8007C003E0
0F8007C003E0
0F8007C003E0
0F8007C003E0
0F8007C003E0
0F8007C003E0
0F8007C003E0
0F8007C003E0
0F8007C003E0
0F8007C003E0
ENDCHAR
STARTCHAR n
ENCODING 110
SWIDTH 576 0
DWIDTH 30 0
BBX 30 25 0 0
BITMAP
0F8FF000
0FBFFC00
0FFFFE00
0FFFFF00
0FFFFF80
0FF03F80
0FC00FC0
0F800FC0
0F8007C0
0F8007C0
0F8007C0
0F8003C0
0F8003C0
0F8003C0
0F8003C0
0F8003C0
0F8003C0
0F8003C0
0F8003C0
0F8003C0
0F8003C0
0F8003C0
0F8003C0
0F8003C0
0F8003C0
ENDCHAR
STARTCHAR o
ENCODING 111
SWIDTH 595 0
DWIDTH 31 0
BBX 31 25 0 0
BITMAP
000FE000
007FFC00
01FFFE00
03FFFF00
07FFFF80
0FF03FC0
0FC00FE0
1F8007E0
1F0003E0
1F0001F0
1F0001F0
3E0001F0
3E0001F0
3E0001F0
1F0001F0
1F0001F0
1F0003E0
1F8007E0
0FC00FE0
0FF03FC0
07FFFF80
03FFFF00
01FFFE00
007FF800
001FE000
ENDCHAR
STARTCHAR p
ENCODING 112
SWIDTH 576 0
DWIDTH 30 0
BBX 30 34 0 -9
BITMAP
0F0FE000
0F3FFC00
0FFFFE00
0FFFFF00
0FFFFF80
0FF03FC0
0FC00FC0
0F8007E0
0F8003E0
0F8003E0
0F8001F0
0F8001F0
0F8001F0
0F8001F0
0F8001F0
0F8003E0
0F8003E0
0F8007E0
0FC00FC0
0FF03FC0
0FFFFF80
0FFFFF00
0FFFFE00
0FBFF800
0F8FE000
0F800000
0F800000
0F800000
0F800000
0F800000
0F800000
0F800000
0F800000
0F800000
ENDCHAR
STARTCHAR q
ENCODING 113
SWIDTH 576 0
DWIDTH 30 0
BBX 30 34 0 -9
BITMAP
001FC3C0
007FFBC0
01FFFFC0
03FFFFC0
07FFFFC0
0FF03FC0
0FC00FC0
1F8007C0
1F0007C0
1F0007C0
1E0007C0
3E0007C0
3E0007C0
3E0007C0
1F0007C0
1F0007C0
1F0007C0
1F8007C0
0FC00FC0
0FF03FC0
07FFFFC0
03FFFFC0
01FFFFC0
007FF7C0
001FC7C0
000007C0
000007C0
000007C0
000007C0
000007C0
000007C0
000007C0
000007C0
000007C0
ENDCHAR
STARTCHAR r
ENCODING 114
SWIDTH 384 0
DWIDTH 20 0
BBX 20 25 0 0
BITMAP
0F8FE0
0FBFE0
0FFFE0
0FFFE0
0FFFE0
0FF000
0FC000
0F8000
0F8000
0F8000
0F8000
0F8000
0F8000
0F8000
0F8000
0F8000
0F8000
0F8000
0F8000
0F8000
0F8000
0F8000
0F8000
0F8000
0F8000
ENDCHAR
STARTCHAR s
ENCODING 115
SWIDTH 461 0
DWIDTH 24 0
BBX 24 25 0 0
BITMAP
00FF00
03FFC0
07FFF0
0FFFF0
1FFFF0
1F80F0
1F0030
1F0000
1F0000
1FC000
1FFE00
0FFFC0
07FFE0
01FFF0
001FF8
0001F8
00007C
10007C
18007C
1F01FC
1FFFF8
1FFFF8
0FFFF0
07FFC0
00FF00
ENDCHAR
STARTCHAR t
ENCODING 116
SWIDTH 403 0
DWIDTH 21 0
BBX 21 31 0 0
BITMAP
07C000
07C000
07C000
07C000
07C000
07C000
7FFFE0
7FFFE0
7FFFE0
7FFFE0
7FFFE0
07C000
07C000
07C000
07C000
07C000
07C000
07C000
07C000
07C000
07C000
07C000
07C000
07C000
07C000
07E000
03FFE0
03FFE0
01FFE0
00FFE0
003FE0
ENDCHAR
STARTCHAR u
ENCODING 117
SWIDTH 576 0
DWIDTH 30 0
BBX 30 25 0 0
BITMAP
0F0007C0
0F0007C0
0F0007C0
0F0007C0
0F0007C0
0F0007C0
0F0007C0
0F0007C0
0F0007C0
0F0007C0
0F0007C0
0F0007C0
0F0007C0
0F0007C0
0F8007C0
0F8007C0
0F8007C0
0FC007C0
0FC00FC0
07F03FC0
07FFFFC0
03FFFFC0
01FFFFC0
00FFF7C0
003FC7C0
ENDCHAR
STARTCHAR v
ENCODING 118
SWIDTH 518 0
DWIDTH 27 0
BBX 27 25 0 0
BITMAP
7C0007C0
7E000FC0
3E000F80
3E000F80
1F001F00
1F001F00
1F803F00
0F803E00
0F803E00
07C07C00
07C07C00
03E07800
03E0F800
03E0F800
01F1F000
01F1F000
00F9E000
00FBE000
007BE000
007FC000
007FC000
003F8000
003F8000
001F0000
001F0000
ENDCHAR
STARTCHAR w
ENCODING 119
SWIDTH 826 0
DWIDTH 43 0
BBX 43 25 0 0
BITMAP
7E001F0007C0
3E001F000F80
3E003F800F80
3F003F800F80
1F003F801F00
1F007FC01F00
1F807FC01F00
0F807BC03E00
0F80FBE03E00
0FC0F1E03E00
07C0F1F07C00
07C1F1F07C00
07E1E0F07C00
03E3E0F8F800
03E3E0F8F800
03E3C078F800
01F7C07DF000
01F7803DF000
01F7803FF000
00FF803FE000
00FF001FE000
00FF001FE000
007F001FC000
007E000FC000
007E000FC000
ENDCHAR
STARTCHAR x
ENCODING 120
SWIDTH 499 0
DWIDTH 26 0
BBX 26 25 0 0
BITMAP
3E003E00
1F007E00
1F80FC00
0FC0F800
07C1F800
03E3F000
03F3E000
01FFC000
00FFC000
007F8000
007F0000
003E0000
007F0000
007F8000
00FFC000
01FFC000
03F3E000
03E3F000
07C1F800
0FC0F800
1F807C00
1F007E00
3F003F00
7E001F00
7C000F80
ENDCHAR
STARTCHAR y
ENCODING 121
SWIDTH 518 0
DWIDTH 27 0
BBX 27 34 0 -9
BITMAP
7C0007C0
7E000FC0
3E000F80
3E000F80
1F001F00
1F001F00
0F801F00
0F803E00
0F803E00
07C07C00
07C07C00
03E07C00
03E0F800
01F0F800
01F1F000
00F1F000
00F9F000
00FBE000
007FE000
007FC000
003FC000
003F8000
001F8000
001F8000
001F0000
001F0000
001E0000
003E0000
007E0000
07FC0000
07FC0000
07F80000
07F00000
07C00000
ENDCHAR
STARTCHAR z
ENCODING 122
SWIDTH 461 0
DWIDTH 24 0
BBX 24 25 0 0
BITMAP
1FFFFC
1FFFFC
1FFFF8
1FFFF0
1FFFF0
0003E0
0007C0
0007C0
000F80
001F00
001F00
003E00
007E00
007C00
00F800
01F800
01F000
03E000
07E000
07C000
0FFFFC
1FFFFC
1FFFFC
3FFFFC
7FFFFC
ENDCHAR
STARTCHAR {
ENCODING 123
SWIDTH 346 0
DWIDTH 18 0
BBX 18 44 0 -5
BITMAP
001F00
007F00
00FF00
01F800
01F000
01E000
01E000
01E000
01E000
01E000
01E000
01E000
01E000
01E000
01E000
01E000
01E000
03E000
07E000
1FC000
3F8000
3F0000
3F0000
3F8000
1FC000
07E000
03E000
01E000
01E000
01E000
01E000
01E000
01E000
01E000
01E000
01E000
01E000
01E000
01E000
01F000
01F800
00FF00
007F00
001F00
ENDCHAR
STARTCHAR |
ENCODING 124
SWIDTH 230 0
DWIDTH 12 0
BBX 12 50 0 -13
BITMAP
0F00
0F00
0F00
0F00
0F00
0F00
0F00
0F00
0F00
0F00
0F00
0F00
0F00
0F00
0F00
0F00
0F00
0F00
0F00
0F00
0F00
0F00
0F00
0F00
0F00
0F00
0F00
0F00
0F00
0F00
0F00
0F00
0F00
0F00
0F00
0F00
0F00
0F00
0F00
0F00
0F00
0F00
0F00
0F00
0F00
0F00
0F00
0F00
0F00
0F00
ENDCHAR
STARTCHAR }
ENCODING 125
SWIDTH 346 0
DWIDTH 18 0
BBX 18 44 0 -5
BITMAP
3E0000
3F8000
3FC000
07E000
03E000
01E000
01E000
01E000
01E000
01E000
01E000
01E000
01E000
01E000
01E000
01E000
01F000
01F000
00F800
00FE00
007F00
003F00
003F00
007F00
00FE00
00F800
01F000
01E000
01E000
01E000
01E000
01E000
01E000
01E000
01E000
01E000
01E000
01E000
01E000
03E000
07E000
3FC000
3F8000
3E0000
ENDCHAR
STARTCHAR ~
ENCODING 126
SWIDTH 518 0
DWIDTH 27 0
BBX 27 21 0 0
BITMAP
01E00400
03F80F00
07FC0F00
0FFE0F00
0FFF1E00
1F1FFE00
1E0FFE00
1E07FC00
1E03F800
0400F000
00000000
00000000
00000000
00000000
00000000
00000000
00000000
00000000
00000000
00000000
00000000
ENDCHAR
STARTCHAR U+00A0
ENCODING 160
SWIDTH 250 0
DWIDTH 13 0
BBX 13 58 0 -13
BITMAP
0000
0000
0000
0000
0000
0000
0000
0000
0000
0000
0000
0000
0000
0000
0000
0000
0000
0000
0000
0000
0000
0000
0000
0000
0000
0000
0000
0000
0000
0000
0000
0000
0000
0000
0000
0000
0000
0000
0000
0000
0000
0000
0000
0000
0000
0000
0000
0000
0000
0000
0000
0000
0000
0000
0000
0000
0000
0000
ENDCHAR
STARTCHAR U+00A1
ENCODING 161
SWIDTH 269 0
DWIDTH 14 0
BBX 14 34 0 -9
BITMAP
0000
0300
0780
0FC0
07C0
0380
0100
0000
0380
0380
0380
0780
0780
0780
0780
0780
0780
0780
0780
07C0
07C0
07C0
07C0
07C0
07C0
07C0
0FC0
0FC0
0FC0
0FC0
0FC0
0FC0
0FC0
0FC0
ENDCHAR
STARTCHAR U+00A2
ENCODING 162
SWIDTH 480 0
DWIDTH 25 0
BBX 25 31 0 -3
BITMAP
00078000
00078000
00078000
001FE000
007FFC00
01FFFE00
03FFFE00
07FFFE00
07F81E00
0FC00200
1F800000
1F000000
1F000000
1F000000
3E000000
3E000000
3E000000
1F000000
1F000000
1F000000
1F800000
0FE00200
07F81E00
07FFFE00
03FFFE00
01FFFE00
007FFC00
000FF000
00078000
00078000
00078000
ENDCHAR
STARTCHAR U+00A3
ENCODING 163
SWIDTH 518 0
DWIDTH 27 0
BBX 27 34 0 0
BITMAP
0003F000
000FFC00
001FFE00
003FFF00
007FFF00
007E1E00
00FC0E00
00F80400
00F80000
01F00000
01F00000
01F00000
01F00000
01F00000
01F00000
01F00000
0FFFF000
0FFFE000
0FFFE000
1FFFE000
1FFFE000
03E00000
03E00000
03E00000
03E00000
03E00000
07C00000
07C00000
07C00000
0FFFFF80
0FFFFF00
1FFFFF00
1FFFFE00
3FFFFE00
ENDCHAR
STARTCHAR U+00A4
ENCODING 164
SWIDTH 576 0
DWIDTH 30 0
BBX 30 26 0 0
BITMAP
02000180
070001C0
0F8003E0
3FCFE7F0
1FFFFFE0
0FFFFFC0
07FFFF80
03FFFF00
03F83F00
07E01F80
07C00F80
07C00F80
07C00F80
07C00F80
07C00F80
07C00F80
07E01F80
03F83F00
03FFFF00
07FFFF80
0FFFFFC0
1FFFFFE0
3FCFE7F0
0F8003E0
070001C0
02000180
ENDCHAR
STARTCHAR U+00A5
ENCODING 165
SWIDTH 595 0
DWIDTH 31 0
BBX 31 34 0 0
BITMAP
3E0000FC
3F0001F8
1F8001F0
1F8003F0
0FC007E0
07E007C0
07E00FC0
03F01F80
01F81F80
01F83F00
00FC7E00
007E7E00
0FFEFFE0
0FFFFFE0
0FFFFFE0
0FFFFFE0
000FE000
0007E000
0007C000
0007C000
0FFFFFE0
0FFFFFE0
0FFFFFE0
0FFFFFE0
0007C000
0007C000
0007C000
0007C000
0007C000
0007C000
0007C000
0007C000
0007C000
0007C000
ENDCHAR
STARTCHAR U+00A6
ENCODING 166
SWIDTH 230 0
DWIDTH 12 0
BBX 12 50 0 -13
BITMAP
0F00
0F00
0F00
0F00
0F00
0F00
0F00
0F00
0F00
0F00
0F00
0F00
0F00
0F00
0F00
0F00
0F00
0F00
0F00
0F00
0000
0000
0000
0000
0000
0000
0000
0000
0000
0000
0F00
0F00
0F00
0F00
0F00
0F00
0F00
0F00
0F00
0F00
0F00
0F00
0F00
0F00
0F00
0F00
0F00
0F00
0F00
0F00
ENDCHAR
STARTCHAR U+00A7
ENCODING 167
SWIDTH 480 0
DWIDTH 25 0
BBX 25 43 0 -9
BITMAP
00FE0000
03FFC000
07FFE000
0FFFF000
1F83F800
1F00F800
3E007000
3E004000
3E000000
3F000000
1F000000
1FC00000
0FF00000
07FE0000
03FF8000
07FFE000
1FFFF000
3F8FF800
3E01FC00
7C00FC00
7C007C00
7C007C00
7E007C00
3F007C00
3FC0FC00
1FF1F800
0FFFF800
07FFE000
01FFE000
003FF000
0007F800
0001F800
0000FC00
00007C00
00007C00
0C007C00
1E007C00
3F00F800
3F83F800
1FFFF000
0FFFE000
03FFC000
00FE0000
ENDCHAR
STARTCHAR U+00A8
ENCODING 168
SWIDTH 442 0
DWIDTH 23 0
BBX 23 34 0 0
BITMAP
FFFFFE
FFFFFE
FFFFFE
FFFFFE
F0003E
F0003E
F0003E
F0003E
F0003E
F0003E
F0003E
F0003E
F0003E
F0003E
F0003E
F0003E
F0003E
F0003E
F0003E
F0003E
F0003E
F0003E
F0003E
F0003E
F0003E
F0003E
F0003E
F0003E
F0003E
F0003E
FFFFFE
FFFFFE
FFFFFE
FFFFFE
ENDCHAR
STARTCHAR U+00A9
ENCODING 169
SWIDTH 768 0
DWIDTH 40 0
BBX 40 34 0 0
BITMAP
0000FF0000
0007FFE000
001FFFF800
003F00FE00
00FC001F00
01F0000F80
03C00003C0
03807F81C0
0701FFE0E0
0707FFE0F0
0E0FC0E070
0E1F002030
1C1E000038
1C3E000038
1C3C000018
183C000018
183C000018
187C000018
183C000018
183C000018
1C3E000018
1C1E000038
0C1F002030
0E0FC0E030
0607FFE070
0701FFE0E0
03007F80C0
03800001C0
01C0000380
00F0000F00
0078001E00
001F00F800
0007FFE000
0000FF0000
ENDCHAR
STARTCHAR U+00AA
ENCODING 170
SWIDTH 307 0
DWIDTH 16 0
BBX 16 34 0 0
BITMAP
1FE0
3FF0
3FF8
2078
0038
03FC
0FFC
3FFC
3E3C
783C
783C
783C
3FFC
3FFC
0FFC
0000
0000
0000
0000
0000
0000
0000
0000
0000
0000
0000
0000
0000
0000
0000
0000
0000
0000
0000
ENDCHAR
STARTCHAR U+00AB
ENCODING 171
SWIDTH 538 0
DWIDTH 28 0
BBX 28 24 0 0
BITMAP
003E07C0
007C0F80
007C0F80
00F81F00
01F03E00
03E07C00
07C0F800
07C0F800
0F81F000
1F03E000
3E07C000
1F03E000
0F81F000
0780F000
07C0F800
03E07C00
01F03E00
00F81F00
00780F00
007C0F80
003E07C0
00000000
00000000
00000000
ENDCHAR
STARTCHAR U+00AC
ENCODING 172
SWIDTH 518 0
DWIDTH 27 0
BBX 27 24 0 0
BITMAP
1FFFFE00
1FFFFE00
1FFFFE00
1FFFFE00
00001E00
00001E00
00001E00
00001E00
00001E00
00001E00
00001E00
00001E00
00001E00
00001E00
00000000
00000000
00000000
00000000
00000000
00000000
00000000
00000000
00000000
00000000
ENDCHAR
STARTCHAR U+00AD
ENCODING 173
SWIDTH 365 0
DWIDTH 19 0
BBX 19 16 0 0
BITMAP
3FFF80
3FFF80
3FFF80
3FFF80
3FFF80
000000
000000
000000
000000
000000
000000
000000
000000
000000
000000
000000
ENDCHAR
STARTCHAR U+00AE
ENCODING 174
SWIDTH 768 0
DWIDTH 40 0
BBX 40 34 0 0
BITMAP
0000FF0000
0007FFE000
001FFFF800
003F00FE00
00FC001F00
01F0000F80
03C00003C0
0387FE01C0
0707FF80E0
0707FFC0F0
0E07C3E070
0E07C1E030
1C07C1E038
1C07C1E038
1C07C1E018
1807C3C018
1807FFC018
1807FF8018
1807FE0018
1807CF0018
1C07CF8018
1C07C78038
0C07C3C030
0E07C3E030
0607C1F070
0707C0F0E0
0307C0F8C0
03800001C0
01C0000380
00F0000F00
0038001E00
001F00F800
0007FFE000
0000FF0000
ENDCHAR
STARTCHAR U+00AF
ENCODING 175
SWIDTH 442 0
DWIDTH 23 0
BBX 23 34 0 0
BITMAP
FFFFFE
FFFFFE
FFFFFE
FFFFFE
F0003E
F0003E
F0003E
F0003E
F0003E
F0003E
F0003E
F0003E
F0003E
F0003E
F0003E
F0003E
F0003E
F0003E
F0003E
F0003E
F0003E
F0003E
F0003E
F0003E
F0003E
F0003E
F0003E
F0003E
F0003E
F0003E
FFFFFE
FFFFFE
FFFFFE
FFFFFE
ENDCHAR
STARTCHAR U+00B0
ENCODING 176
SWIDTH 384 0
DWIDTH 20 0
BBX 20 34 0 0
BITMAP
01F000
07FC00
0FFE00
0FFF00
1F0F80
1E0780
1C0780
3C0780
1C0780
1E0780
1F0F00
0FFF00
0FFE00
07FC00
01F800
000000
000000
000000
000000
000000
000000
000000
000000
000000
000000
000000
000000
000000
000000
000000
000000
000000
000000
000000
ENDCHAR
STARTCHAR U+00B1
ENCODING 177
SWIDTH 518 0
DWIDTH 27 0
BBX 27 30 0 0
BITMAP
001F0000
001F0000
001F0000
001F0000
001F0000
001F0000
001F0000
001F0000
1FFFFE00
1FFFFE00
1FFFFE00
1FFFFE00
001F0000
001F0000
001F0000
001F0000
001F0000
001F0000
001F0000
00000000
00000000
00000000
00000000
00000000
00000000
00000000
1FFFFE00
1FFFFE00
1FFFFE00
1FFFFE00
ENDCHAR
STARTCHAR U+00B2
ENCODING 178
SWIDTH 326 0
DWIDTH 17 0
BBX 17 34 0 0
BITMAP
07E000
0FF000
1FF800
3FFC00
387C00
303C00
203C00
003C00
003C00
007800
007800
00F000
01F000
01E000
03C000
03C000
078000
0FFE00
0FFE00
1FFE00
3FFE00
000000
000000
000000
000000
000000
000000
000000
000000
000000
000000
000000
000000
000000
ENDCHAR
STARTCHAR U+00B3
ENCODING 179
SWIDTH 326 0
DWIDTH 17 0
BBX 17 34 0 0
BITMAP
3FFE00
3FFC00
3FFC00
007800
00F800
00F000
01E000
01E000
03F000
03F800
047C00
001E00
001E00
001E00
001E00
001E00
101E00
383E00
7FFC00
3FF800
1FF000
07E000
000000
000000
000000
000000
000000
000000
000000
000000
000000
000000
000000
000000
ENDCHAR
STARTCHAR U+00B4
ENCODING 180
SWIDTH 442 0
DWIDTH 23 0
BBX 23 34 0 0
BITMAP
FFFFFE
FFFFFE
FFFFFE
FFFFFE
F0003E
F0003E
F0003E
F0003E
F0003E
F0003E
F0003E
F0003E
F0003E
F0003E
F0003E
F0003E
F0003E
F0003E
F0003E
F0003E
F0003E
F0003E
F0003E
F0003E
F0003E
F0003E
F0003E
F0003E
F0003E
F0003E
FFFFFE
FFFFFE
FFFFFE
FFFFFE
ENDCHAR
STARTCHAR U+00B5
ENCODING 181
SWIDTH 557 0
DWIDTH 29 0
BBX 29 34 0 -9
BITMAP
0F800F80
0F800F80
0F800F80
0F800F80
0F800F80
0F800F80
0F800F80
0F800F80
0F800F80
0F800F80
0F800F80
0F800F80
0F800F80
0F800F80
0F800F80
0F800F80
0F800F80
0FC00F80
0FE01F80
0FF07F80
0FFFFF80
0FFFFF80
0FFFFF80
0FBFEF80
0F9F8F80
0F800000
0F800000
0F800000
0F800000
0F800000
0F800000
0F800000
0F800000
0F800000
ENDCHAR
STARTCHAR U+00B6
ENCODING 182
SWIDTH 538 0
DWIDTH 28 0
BBX 28 43 0 -9
BITMAP
007FFFC0
01FFFFC0
07FFFFC0
0FFF0E00
1FFF0E00
1FFF0E00
1FFF0E00
3FFF0E00
3FFF0E00
3FFF0E00
3FFF0E00
1FFF0E00
1FFF0E00
1FFF0E00
0FFF0E00
07FF0E00
03FF0E00
00FF0E00
000F0E00
000F0E00
000F0E00
000F0E00
000F0E00
000F0E00
000F0E00
000F0E00
000F0E00
000F0E00
000F0E00
000F0E00
000F0E00
000F0E00
000F0E00
000F0E00
000F0E00
000F0E00
000F0E00
000F0E00
000F0E00
000F0E00
000F0E00
000F0E00
000F0E00
ENDCHAR
STARTCHAR U+00B7
ENCODING 183
SWIDTH 230 0
DWIDTH 12 0
BBX 12 20 0 0
BITMAP
0200
0700
0F80
1FC0
0F80
0700
0200
0000
0000
0000
0000
0000
0000
0000
0000
0000
0000
0000
0000
0000
ENDCHAR
STARTCHAR U+00B8
ENCODING 184
SWIDTH 442 0
DWIDTH 23 0
BBX 23 34 0 0
BITMAP
FFFFFE
FFFFFE
FFFFFE
FFFFFE
F0003E
F0003E
F0003E
F0003E
F0003E
F0003E
F0003E
F0003E
F0003E
F0003E
F0003E
F0003E
F0003E
F0003E
F0003E
F0003E
F0003E
F0003E
F0003E
F0003E
F0003E
F0003E
F0003E
F0003E
F0003E
F0003E
FFFFFE
FFFFFE
FFFFFE
FFFFFE
ENDCHAR
STARTCHAR U+00B9
ENCODING 185
SWIDTH 230 0
DWIDTH 12 0
BBX 12 34 0 0
BITMAP
0100
0300
0F00
0F00
0F00
0F00
0F00
0F00
0F00
0F00
0F00
0F00
0F00
0F00
0F00
0F00
0F00
0F00
0F00
0F00
0F00
0000
0000
0000
0000
0000
0000
0000
0000
0000
0000
0000
0000
0000
ENDCHAR
STARTCHAR U+00BA
ENCODING 186
SWIDTH 365 0
DWIDTH 19 0
BBX 19 34 0 0
BITMAP
01F800
07FE00
0FFF00
1E0F80
3C0780
3C0380
3803C0
7803C0
3803C0
3C0380
3C0780
1F0F00
1FFF00
07FE00
01F800
000000
000000
000000
000000
000000
000000
000000
000000
000000
000000
000000
000000
000000
000000
000000
000000
000000
000000
000000
ENDCHAR
STARTCHAR U+00BB
ENCODING 187
SWIDTH 538 0
DWIDTH 28 0
BBX 28 24 0 0
BITMAP
1F07C000
1F03E000
0F81F000
07C0F000
03E0F800
01E07C00
01F03E00
00F81F00
007C1F00
003E0F80
003E07C0
003E0780
007C0F80
00F81F00
01F03E00
01F07C00
03E0F800
07C0F800
0F81F000
1F03E000
1F07C000
00000000
00000000
00000000
ENDCHAR
STARTCHAR U+00BC
ENCODING 188
SWIDTH 768 0
DWIDTH 40 0
BBX 40 34 0 0
BITMAP
0100007C00
0300007800
0F0000F000
0F0000F000
0F0001E000
0F0001E000
0F0003C000
0F0003C000
0F00078000
0F00078000
0F000F0000
0F000F0000
0F001E0000
0F001E0008
0F003C0018
0F003C0038
0F00780078
0F00780078
0F00F000F8
0F00F001F8
0F01E003F8
0001E007F8
0003C00F78
0003C01E78
0007803C78
0007807878
000F00F078
000F01FFFE
001E03FFFE
001E07FFFE
003C000078
003C000078
0078000078
0078000078
ENDCHAR
STARTCHAR U+00BD
ENCODING 189
SWIDTH 806 0
DWIDTH 42 0
BBX 42 34 0 0
BITMAP
0100007C0000
030000780000
0F0000F00000
0F0000F00000
0F0001E00000
0F0001E00000
0F0003C00000
0F0003C00000
0F0007800000
0F0007800000
0F000F000000
0F000F000000
0F001E000000
0F001E03F000
0F003C07F800
0F003C0FFC00
0F00781FFE00
0F00781C3E00
0F00F0181E00
0F00F0101E00
0F01E0001E00
0001E0001E00
0003C0003C00
0003C0003C00
000780007800
00078000F800
000F0000F000
000F0001E000
001E0001E000
001E0003C000
003C0007FF00
003C0007FF00
0078000FFF00
0078001FFF00
ENDCHAR
STARTCHAR U+00BE
ENCODING 190
SWIDTH 845 0
DWIDTH 44 0
BBX 44 34 0 0
BITMAP
3FFE0007C000
3FFC00078000
3FFC000F0000
0078000F0000
00F8001E0000
00F0001E0000
01E0003C0000
01E0003C0000
03F000780000
03F800780000
047C00F00000
001E00F00000
001E01E00000
001E01E00100
001E03C00300
001E03C00700
101E07800F00
383E07800F00
7FFC0F001F00
3FF80F003F00
1FF01E007F00
07E01E00FF00
00003C01EF00
00003C03CF00
000078078F00
0000780F0F00
0000F01E0F00
0000F03FFFC0
0001E07FFFC0
0001E0FFFFC0
0003C0000F00
0003C0000F00
000780000F00
000780000F00
ENDCHAR
STARTCHAR U+00BF
ENCODING 191
SWIDTH 442 0
DWIDTH 23 0
BBX 23 34 0 -9
BITMAP
000800
001C00
003E00
007F00
003E00
001C00
000800
000000
000000
000800
001C00
003E00
003F00
001F80
000F80
001F80
003F00
00FF00
01FE00
03F800
07F000
0FC000
1F8000
1F0000
1F0000
1F0000
1F0000
1F8020
1FC0F8
0FFFFC
0FFFF8
07FFF0
01FFC0
007F00
ENDCHAR
STARTCHAR U+00C0
ENCODING 192
SWIDTH 653 0
DWIDTH 34 0
BBX 34 44 0 0
BITMAP
003F000000
001F800000
000F800000
0007C00000
0003E00000
0001E00000
0000F00000
0000000000
0000000000
0000000000
0003E00000
0003E00000
0007F00000
0007F00000
0007F80000
000FF80000
000FF80000
001F7C0000
001F7C0000
001F3E0000
003E3E0000
003E3E0000
007E1F0000
007C1F0000
007C0F8000
00F80F8000
00F80FC000
00F807C000
01F007C000
01F003E000
03F003E000
03FFFFF000
03FFFFF000
07FFFFF000
07FFFFF800
0FFFFFF800
0F8000FC00
0F80007C00
1F80007C00
1F00007E00
3F00003E00
3E00003F00
3E00001F00
7E00001F80
ENDCHAR
STARTCHAR U+00C1
ENCODING 193
SWIDTH 653 0
DWIDTH 34 0
BBX 34 44 0 0
BITMAP
00007E0000
00007C0000
0000F80000
0001F00000
0001E00000
0003C00000
0007800000
0000000000
0000000000
0000000000
0003E00000
0003E00000
0007F00000
0007F00000
0007F80000
000FF80000
000FF80000
001F7C0000
001F7C0000
001F3E0000
003E3E0000
003E3E0000
007E1F0000
007C1F0000
007C0F8000
00F80F8000
00F80FC000
00F807C000
01F007C000
01F003E000
03F003E000
03FFFFF000
03FFFFF000
07FFFFF000
07FFFFF800
0FFFFFF800
0F8000FC00
0F80007C00
1F80007C00
1F00007E00
3F00003E00
3E00003F00
3E00001F00
7E00001F80
ENDCHAR
STARTCHAR U+00C2
ENCODING 194
SWIDTH 653 0
DWIDTH 34 0
BBX 34 44 0 0
BITMAP
0003F00000
0003F80000
0007FC0000
000F3C0000
000E1E0000
001E0F0000
003C070000
0000000000
0000000000
0000000000
0003E00000
0003E00000
0007F00000
0007F00000
0007F80000
000FF80000
000FF80000
001F7C0000
001F7C0000
001F3E0000
003E3E0000
003E3E0000
007E1F0000
007C1F0000
007C0F8000
00F80F8000
00F80FC000
00F807C000
01F007C000
01F003E000
03F003E000
03FFFFF000
03FFFFF000
07FFFFF000
07FFFFF800
0FFFFFF800
0F8000FC00
0F80007C00
1F80007C00
1F00007E00
3F00003E00
3E00003F00
3E00001F00
7E00001F80
ENDCHAR
STARTCHAR U+00C3
ENCODING 195
SWIDTH 653 0
DWIDTH 34 0
BBX 34 44 0 0
BITMAP
001E000000
003F860000
007FE70000
00FFFF0000
00F3FF0000
0060FE0000
00007C0000
0000000000
0000000000
0000000000
0003E00000
0003E00000
0007F00000
0007F00000
0007F80000
000FF80000
000FF80000
001F7C0000
001F7C0000
001F3E0000
003E3E0000
003E3E0000
007E1F0000
007C1F0000
007C0F8000
00F80F8000
00F80FC000
00F807C000
01F007C000
01F003E000
03F003E000
03FFFFF000
03FFFFF000
07FFFFF000
07FFFFF800
0FFFFFF800
0F8000FC00
0F80007C00
1F80007C00
1F00007E00
3F00003E00
3E00003F00
3E00001F00
7E00001F80
ENDCHAR
STARTCHAR U+00C4
ENCODING 196
SWIDTH 653 0
DWIDTH 34 0
BBX 34 44 0 0
BITMAP
0008060000
001C070000
003E0F0000
007F1F8000
003E0F8000
001C070000
0008020000
0000000000
0000000000
0000000000
0003E00000
0003E00000
0007F00000
0007F00000
0007F80000
000FF80000
000FF80000
001F7C0000
001F7C0000
001F3E0000
003E3E0000
003E3E0000
007E1F0000
007C1F0000
007C0F8000
00F80F8000
00F80FC000
00F807C000
01F007C000
01F003E000
03F003E000
03FFFFF000
03FFFFF000
07FFFFF000
07FFFFF800
0FFFFFF800
0F8000FC00
0F80007C00
1F80007C00
1F00007E00
3F00003E00
3E00003F00
3E00001F00
7E00001F80
ENDCHAR
STARTCHAR U+00C5
ENCODING 197
SWIDTH 653 0
DWIDTH 34 0
BBX 34 46 0 0
BITMAP
0001E00000
0007F00000
0007380000
000E180000
000C180000
000E180000
0007380000
0007F00000
0001E00000
0000000000
0000000000
0000000000
0003E00000
0003E00000
0007F00000
0007F00000
0007F80000
000FF80000
000FF80000
001F7C0000
001F7C0000
001F3E0000
003E3E0000
003E3E0000
007E1F0000
007C1F0000
007C0F8000
00F80F8000
00F80FC000
00F807C000
01F007C000
01F003E000
03F003E000
03FFFFF000
03FFFFF000
07FFFFF000
07FFFFF800
0FFFFFF800
0F8000FC00
0F80007C00
1F80007C00
1F00007E00
3F00003E00
3E00003F00
3E00001F00
7E00001F80
ENDCHAR
STARTCHAR U+00C6
ENCODING 198
SWIDTH 883 0
DWIDTH 46 0
BBX 46 34 0 0
BITMAP
00000FFFFFE0
00001FFFFFE0
00003FFFFFE0
00003FFFFFE0
00007FFFFFE0
00007DF00000
0000FDF00000
0000F9F00000
0001F1F00000
0003F1F00000
0003E1F00000
0007E1F00000
0007C1F00000
000FC1FFFF00
000F81FFFF00
001F81FFFF00
003F01FFFF00
003E01FFFF00
007E01F00000
007FFFF00000
00FFFFF00000
00FFFFF00000
01FFFFF00000
03FFFFF00000
03F001F00000
07E001F00000
07E001F00000
0FC001F00000
0F8001F00000
1F8001FFFFF0
3F0001FFFFF0
3F0001FFFFF0
7E0001FFFFF0
7E0001FFFFF0
ENDCHAR
STARTCHAR U+00C7
ENCODING 199
SWIDTH 653 0
DWIDTH 34 0
BBX 34 44 0 -10
BITMAP
0000FF8000
0007FFF000
001FFFFC00
003FFFFE00
007FFFFE00
01FF807E00
01FC000E00
03F8000200
07E0000000
07E0000000
0FC0000000
0F80000000
1F80000000
1F00000000
1F00000000
1F00000000
1F00000000
1F00000000
1F00000000
1F00000000
1F80000000
1F80000000
0F80000000
0FC0000000
07E0000000
07F0000000
03F8000200
01FC000E00
00FF807E00
007FFFFE00
003FFFFE00
001FFFFC00
0007FFF000
0000FF8000
0000700000
00007C0000
0000FF0000
00001F0000
00000F8000
00000F0000
00001F0000
0003FE0000
0003FC0000
0003F80000
ENDCHAR
STARTCHAR U+00C8
ENCODING 200
SWIDTH 557 0
DWIDTH 29 0
BBX 29 44 0 0
BITMAP
00FC0000
007E0000
003E0000
001F0000
000F8000
00078000
0003C000
00000000
00000000
00000000
07FFFFC0
07FFFFC0
07FFFFC0
07FFFFC0
07FFFFC0
07C00000
07C00000
07C00000
07C00000
07C00000
07C00000
07C00000
07C00000
07FFFC00
07FFFC00
07FFFC00
07FFFC00
07FFFC00
07C00000
07C00000
07C00000
07C00000
07C00000
07C00000
07C00000
07C00000
07C00000
07C00000
07C00000
07FFFFE0
07FFFFE0
07FFFFE0
07FFFFE0
07FFFFE0
ENDCHAR
STARTCHAR U+00C9
ENCODING 201
SWIDTH 557 0
DWIDTH 29 0
BBX 29 44 0 0
BITMAP
0001F800
0001F000
0003E000
0007C000
00078000
000F0000
001E0000
00000000
00000000
00000000
07FFFFC0
07FFFFC0
07FFFFC0
07FFFFC0
07FFFFC0
07C00000
07C00000
07C00000
07C00000
07C00000
07C00000
07C00000
07C00000
07FFFC00
07FFFC00
07FFFC00
07FFFC00
07FFFC00
07C00000
07C00000
07C00000
07C00000
07C00000
07C00000
07C00000
07C00000
07C00000
07C00000
07C00000
07FFFFE0
07FFFFE0
07FFFFE0
07FFFFE0
07FFFFE0
ENDCHAR
STARTCHAR U+00CA
ENCODING 202
SWIDTH 557 0
DWIDTH 29 0
BBX 29 44 0 0
BITMAP
000FC000
000FE000
001FF000
003CF000
00387800
00783C00
00F01C00
00000000
00000000
00000000
07FFFFC0
07FFFFC0
07FFFFC0
07FFFFC0
07FFFFC0
07C00000
07C00000
07C00000
07C00000
07C00000
07C00000
07C00000
07C00000
07FFFC00
07FFFC00
07FFFC00
07FFFC00
07FFFC00
07C00000
07C00000
07C00000
07C00000
07C00000
07C00000
07C00000
07C00000
07C00000
07C00000
07C00000
07FFFFE0
07FFFFE0
07FFFFE0
07FFFFE0
07FFFFE0
ENDCHAR
STARTCHAR U+00CB
ENCODING 203
SWIDTH 557 0
DWIDTH 29 0
BBX 29 44 0 0
BITMAP
00201800
00701C00
00F83C00
01FC7E00
00F83E00
00701C00
00200800
00000000
00000000
00000000
07FFFFC0
07FFFFC0
07FFFFC0
07FFFFC0
07FFFFC0
07C00000
07C00000
07C00000
07C00000
07C00000
07C00000
07C00000
07C00000
07FFFC00
07FFFC00
07FFFC00
07FFFC00
07FFFC00
07C00000
07C00000
07C00000
07C00000
07C00000
07C00000
07C00000
07C00000
07C00000
07C00000
07C00000
07FFFFE0
07FFFFE0
07FFFFE0
07FFFFE0
07FFFFE0
ENDCHAR
STARTCHAR U+00CC
ENCODING 204
SWIDTH 288 0
DWIDTH 15 0
BBX 15 44 0 0
BITMAP
7E00
3F00
1F00
0F80
07C0
03C0
01E0
0000
0000
0000
07C0
07C0
07C0
07C0
07C0
07C0
07C0
07C0
07C0
07C0
07C0
07C0
07C0
07C0
07C0
07C0
07C0
07C0
07C0
07C0
07C0
07C0
07C0
07C0
07C0
07C0
07C0
07C0
07C0
07C0
07C0
07C0
07C0
07C0
ENDCHAR
STARTCHAR U+00CD
ENCODING 205
SWIDTH 288 0
DWIDTH 15 0
BBX 15 44 0 0
BITMAP
00FC
00F8
01F0
03E0
03C0
0780
0F00
0000
0000
0000
07C0
07C0
07C0
07C0
07C0
07C0
07C0
07C0
07C0
07C0
07C0
07C0
07C0
07C0
07C0
07C0
07C0
07C0
07C0
07C0
07C0
07C0
07C0
07C0
07C0
07C0
07C0
07C0
07C0
07C0
07C0
07C0
07C0
07C0
ENDCHAR
STARTCHAR U+00CE
ENCODING 206
SWIDTH 288 0
DWIDTH 15 0
BBX 15 44 0 0
BITMAP
0000
0000
0000
0000
0000
0000
0000
0000
0000
0000
0000
0000
0000
0000
0000
0000
0000
0000
0000
0000
0000
0000
0000
0000
0000
0000
0000
0000
0000
0000
0000
0000
0000
0000
0000
0000
0000
0000
0000
0000
0000
0000
0000
0000
ENDCHAR
STARTCHAR U+00CF
ENCODING 207
SWIDTH 288 0
DWIDTH 15 0
BBX 17 44 -1 0
BITMAP
000000
000000
000000
000000
000000
000000
000000
000000
000000
000000
000000
000000
000000
000000
000000
000000
000000
000000
000000
000000
000000
000000
000000
000000
000000
000000
000000
000000
000000
000000
000000
000000
000000
000000
000000
000000
000000
000000
000000
000000
000000
000000
000000
000000
ENDCHAR
STARTCHAR U+00D0
ENCODING 208
SWIDTH 691 0
DWIDTH 36 0
BBX 36 34 0 0
BITMAP
07FFF00000
07FFFE0000
07FFFF8000
07FFFFE000
07FFFFF000
07C01FF800
07C003FC00
07C000FE00
07C0007E00
07C0003F00
07C0003F00
07C0001F80
07C0001F80
07C0000F80
07C0000F80
7FFFC00F80
7FFFC00FC0
7FFFC00F80
7FFFC00F80
07C0000F80
07C0000F80
07C0001F80
07C0001F80
07C0003F00
07C0003F00
07C0007E00
07C000FE00
07C003FC00
07C01FF800
07FFFFF000
07FFFFE000
07FFFF8000
07FFFE0000
07FFE00000
ENDCHAR
STARTCHAR U+00D1
ENCODING 209
SWIDTH 749 0
DWIDTH 39 0
BBX 39 44 0 0
BITMAP
0007800000
000FE18000
001FF9C000
003FFFC000
003CFFC000
00183F8000
00001F0000
0000000000
0000000000
0000000000
07C00007C0
07E00007C0
07E00007C0
07F00007C0
07F80007C0
07FC0007C0
07FC0007C0
07FE0007C0
07FF0007C0
07DF8007C0
07DF8007C0
07CFC007C0
07C7E007C0
07C3F007C0
07C3F807C0
07C1F807C0
07C0FC07C0
07C07E07C0
07C07F07C0
07C03F07C0
07C01F87C0
07C00FC7C0
07C007E7C0
07C007E7C0
07C003F7C0
07C001FFC0
07C000FFC0
07C000FFC0
07C0007FC0
07C0003FC0
07C0001FC0
07C0000FC0
07C0000FC0
07C00007C0
ENDCHAR
STARTCHAR U+00D2
ENCODING 210
SWIDTH 787 0
DWIDTH 41 0
BBX 41 44 0 0
BITMAP
0003F0000000
0001F8000000
0000F8000000
00007C000000
00003E000000
00001E000000
00000F000000
000000000000
000000000000
000000000000
0000FF800000
0007FFF00000
001FFFFC0000
003FFFFE0000
007FFFFF8000
01FF80FFC000
01FC001FC000
03F8000FE000
07F00003F000
07E00001F000
0FC00001F800
0F800000F800
1F800000FC00
1F8000007C00
1F0000007C00
1F0000007C00
1F0000007C00
1F0000007C00
1F0000007C00
1F0000007C00
1F8000007C00
1F800000FC00
0F800000F800
0FC00001F800
07E00001F000
07E00003F000
03F8000FE000
01FC001FC000
01FF80FFC000
00FFFFFF8000
003FFFFE0000
001FFFFC0000
0007FFF00000
0000FF800000
ENDCHAR
STARTCHAR U+00D3
ENCODING 211
SWIDTH 787 0
DWIDTH 41 0
BBX 41 44 0 0
BITMAP
000007E00000
000007C00000
00000F800000
00001F000000
00001E000000
00003C000000
000078000000
000000000000
000000000000
000000000000
0000FF800000
0007FFF00000
001FFFFC0000
003FFFFE0000
007FFFFF8000
01FF80FFC000
01FC001FC000
03F8000FE000
07F00003F000
07E00001F000
0FC00001F800
0F800000F800
1F800000FC00
1F8000007C00
1F0000007C00
1F0000007C00
1F0000007C00
1F0000007C00
1F0000007C00
1F0000007C00
1F8000007C00
1F800000FC00
0F800000F800
0FC00001F800
07E00001F000
07E00003F000
03F8000FE000
01FC001FC000
01FF80FFC000
00FFFFFF8000
003FFFFE0000
001FFFFC0000
0007FFF00000
0000FF800000
ENDCHAR
STARTCHAR U+00D4
ENCODING 212
SWIDTH 787 0
DWIDTH 41 0
BBX 41 44 0 0
BITMAP
00007E000000
00007F000000
0000FF800000
0001E7800000
0001C3C00000
0003C1E00000
000780E00000
000000000000
000000000000
000000000000
0000FF800000
0007FFF00000
001FFFFC0000
003FFFFE0000
007FFFFF8000
01FF80FFC000
01FC001FC000
03F8000FE000
07F00003F000
07E00001F000
0FC00001F800
0F800000F800
1F800000FC00
1F8000007C00
1F0000007C00
1F0000007C00
1F0000007C00
1F0000007C00
1F0000007C00
1F0000007C00
1F8000007C00
1F800000FC00
0F800000F800
0FC00001F800
07E00001F000
07E00003F000
03F8000FE000
01FC001FC000
01FF80FFC000
00FFFFFF8000
003FFFFE0000
001FFFFC0000
0007FFF00000
0000FF800000
ENDCHAR
STARTCHAR U+00D5
ENCODING 213
SWIDTH 787 0
DWIDTH 41 0
BBX 41 44 0 0
BITMAP
0001E0000000
0003F8600000
0007FE700000
000FFFF00000
000F3FF00000
00060FE00000
000007C00000
000000000000
000000000000
000000000000
0000FF800000
0007FFF00000
001FFFFC0000
003FFFFE0000
007FFFFF8000
01FF80FFC000
01FC001FC000
03F8000FE000
07F00003F000
07E00001F000
0FC00001F800
0F800000F800
1F800000FC00
1F8000007C00
1F0000007C00
1F0000007C00
1F0000007C00
1F0000007C00
1F0000007C00
1F0000007C00
1F8000007C00
1F800000FC00
0F800000F800
0FC00001F800
07E00001F000
07E00003F000
03F8000FE000
01FC001FC000
01FF80FFC000
00FFFFFF8000
003FFFFE0000
001FFFFC0000
0007FFF00000
0000FF800000
ENDCHAR
STARTCHAR U+00D6
ENCODING 214
SWIDTH 787 0
DWIDTH 41 0
BBX 41 44 0 0
BITMAP
000100C00000
000380E00000
0007C1E00000
000FE3F00000
0007C1F00000
000380E00000
000100400000
000000000000
000000000000
000000000000
0000FF800000
0007FFF00000
001FFFFC0000
003FFFFE0000
007FFFFF8000
01FF80FFC000
01FC001FC000
03F8000FE000
07F00003F000
07E00001F000
0FC00001F800
0F800000F800
1F800000FC00
1F8000007C00
1F0000007C00
1F0000007C00
1F0000007C00
1F0000007C00
1F0000007C00
1F0000007C00
1F8000007C00
1F800000FC00
0F800000F800
0FC00001F800
07E00001F000
07E00003F000
03F8000FE000
01FC001FC000
01FF80FFC000
00FFFFFF8000
003FFFFE0000
001FFFFC0000
0007FFF00000
0000FF800000
ENDCHAR
STARTCHAR U+00D7
ENCODING 215
SWIDTH 518 0
DWIDTH 27 0
BBX 27 26 0 0
BITMAP
01001000
03803800
07C07E00
07E0FC00
03F1F800
01F3F000
00FFE000
007FC000
003F8000
003F0000
007F8000
00FFC000
01FFE000
03F3F000
07E1F800
0FC0FC00
0F807C00
07003800
03001000
00000000
00000000
00000000
00000000
00000000
00000000
00000000
ENDCHAR
STARTCHAR U+00D8
ENCODING 216
SWIDTH 787 0
DWIDTH 41 0
BBX 41 34 0 0
BITMAP
0000FF803000
0007FFF03800
001FFFFC7800
003FFFFEF000
007FFFFFE000
01FF80FFC000
01FC001FC000
03F8000FE000
07E0001FF000
07E0003FF000
0FC0007DF800
0F8000F8F800
1F8001F0FC00
1F0003E07C00
1F0007807C00
1F000F007C00
1F001E007C00
1F003C007C00
1F0078007C00
1F00F0007C00
1F83E0007C00
1F87C000FC00
0F8F8000F800
0FDF0001F800
07FE0001F000
07FC0003F000
03F8000FE000
01FC001FC000
01FF80FFC000
03FFFFFF8000
07BFFFFE0000
0F1FFFFC0000
0607FFF00000
0200FF800000
ENDCHAR
STARTCHAR U+00D9
ENCODING 217
SWIDTH 749 0
DWIDTH 39 0
BBX 39 44 0 0
BITMAP
0007E00000
0003F00000
0001F00000
0000F80000
00007C0000
00003C0000
00001E0000
0000000000
0000000000
0000000000
0F800007C0
0F800007C0
0F800007C0
0F800007C0
0F800007C0
0F800007C0
0F800007C0
0F800007C0
0F800007C0
0F800007C0
0F800007C0
0F800007C0
0F800007C0
0F800007C0
0F800007C0
0F800007C0
0F800007C0
0F800007C0
0F800007C0
0F800007C0
0FC00007C0
07C00007C0
07C00007C0
07C0000FC0
07E0000F80
03F0001F80
03F8003F00
01FC007F00
01FF01FE00
00FFFFFC00
007FFFF800
001FFFF000
000FFFC000
0001FE0000
ENDCHAR
STARTCHAR U+00DA
ENCODING 218
SWIDTH 749 0
DWIDTH 39 0
BBX 39 44 0 0
BITMAP
00000FC000
00000F8000
00001F0000
00003E0000
00003C0000
0000780000
0000F00000
0000000000
0000000000
0000000000
0F800007C0
0F800007C0
0F800007C0
0F800007C0
0F800007C0
0F800007C0
0F800007C0
0F800007C0
0F800007C0
0F800007C0
0F800007C0
0F800007C0
0F800007C0
0F800007C0
0F800007C0
0F800007C0
0F800007C0
0F800007C0
0F800007C0
0F800007C0
0FC00007C0
07C00007C0
07C00007C0
07C0000FC0
07E0000F80
03F0001F80
03F8003F00
01FC007F00
01FF01FE00
00FFFFFC00
007FFFF800
001FFFF000
000FFFC000
0001FE0000
ENDCHAR
STARTCHAR U+00DB
ENCODING 219
SWIDTH 749 0
DWIDTH 39 0
BBX 39 44 0 0
BITMAP
0000FC0000
0000FE0000
0001FF0000
0003CF0000
0003878000
000783C000
000F01C000
0000000000
0000000000
0000000000
0F800007C0
0F800007C0
0F800007C0
0F800007C0
0F800007C0
0F800007C0
0F800007C0
0F800007C0
0F800007C0
0F800007C0
0F800007C0
0F800007C0
0F800007C0
0F800007C0
0F800007C0
0F800007C0
0F800007C0
0F800007C0
0F800007C0
0F800007C0
0FC00007C0
07C00007C0
07C00007C0
07C0000FC0
07E0000F80
03F0001F80
03F8003F00
01FC007F00
01FF01FE00
00FFFFFC00
007FFFF800
001FFFF000
000FFFC000
0001FE0000
ENDCHAR
STARTCHAR U+00DC
ENCODING 220
SWIDTH 749 0
DWIDTH 39 0
BBX 39 44 0 0
BITMAP
0002018000
000701C000
000F83C000
001FC7E000
000F83E000
000701C000
0002008000
0000000000
0000000000
0000000000
0F800007C0
0F800007C0
0F800007C0
0F800007C0
0F800007C0
0F800007C0
0F800007C0
0F800007C0
0F800007C0
0F800007C0
0F800007C0
0F800007C0
0F800007C0
0F800007C0
0F800007C0
0F800007C0
0F800007C0
0F800007C0
0F800007C0
0F800007C0
0FC00007C0
07C00007C0
07C00007C0
07C0000FC0
07E0000F80
03F0001F80
03F8003F00
01FC007F00
01FF01FE00
00FFFFFC00
007FFFF800
001FFFF000
000FFFC000
0001FE0000
ENDCHAR
STARTCHAR U+00DD
ENCODING 221
SWIDTH 576 0
DWIDTH 30 0
BBX 30 44 0 0
BITMAP
0000FC00
0000F800
0001F000
0003E000
0003C000
00078000
000F0000
00000000
00000000
00000000
7E0001F8
3F0001F0
3F0003F0
1F8007E0
0FC007C0
0FC00FC0
07E00F80
03F01F80
03F03F00
01F83E00
00F87E00
00FCFC00
007EF800
003FF800
003FF000
001FE000
001FE000
000FC000
0007C000
0007C000
0007C000
0007C000
0007C000
0007C000
0007C000
0007C000
0007C000
0007C000
0007C000
0007C000
0007C000
0007C000
0007C000
0007C000
ENDCHAR
STARTCHAR U+00DE
ENCODING 222
SWIDTH 576 0
DWIDTH 30 0
BBX 30 34 0 0
BITMAP
07C00000
07C00000
07C00000
07C00000
07C00000
07C00000
07C00000
07FFF000
07FFFC00
07FFFF00
07FFFF80
07FFFFC0
07C03FC0
07C00FC0
07C007E0
07C003E0
07C003E0
07C003E0
07C003E0
07C003E0
07C007E0
07C00FC0
07C03FC0
07FFFF80
07FFFF80
07FFFE00
07FFFC00
07FFF000
07C00000
07C00000
07C00000
07C00000
07C00000
07C00000
ENDCHAR
STARTCHAR U+00DF
ENCODING 223
SWIDTH 538 0
DWIDTH 28 0
BBX 28 34 0 0
BITMAP
001FC000
007FF000
01FFF800
03FFFC00
03FFFE00
07F07E00
07C03E00
0FC01F00
0F801F00
0F801F00
0F801E00
0F803E00
0F807E00
0F8FFC00
0F8FF000
0F8FF000
0F8FFC00
0F8FFE00
0F807F00
0F801F80
0F800F80
0F800F80
0F8007C0
0F8007C0
0F8007C0
0F8007C0
0F800F80
0F801F80
0F803F80
0F8FFF00
0F8FFE00
0F8FFC00
0F8FF800
0F8FC000
ENDCHAR
STARTCHAR U+00E0
ENCODING 224
SWIDTH 499 0
DWIDTH 26 0
BBX 26 36 0 0
BITMAP
03F00000
01F80000
00F80000
007C0000
003E0000
001E0000
000F0000
00000000
00000000
00000000
00000000
007F0000
01FFC000
07FFF000
07FFF000
07FFF800
0F81F800
0C00FC00
08007C00
00007C00
000FFC00
007FFC00
01FFFC00
07FFFC00
0FF07C00
0FC07C00
1F007C00
1F007C00
1E007C00
3F00FC00
1F83FC00
1FFFFC00
1FFFFC00
0FFFFC00
07FF7C00
01FC7C00
ENDCHAR
STARTCHAR U+00E1
ENCODING 225
SWIDTH 499 0
DWIDTH 26 0
BBX 26 36 0 0
BITMAP
0007E000
0007C000
000F8000
001F0000
001E0000
003C0000
00780000
00000000
00000000
00000000
00000000
007F0000
01FFC000
07FFF000
07FFF000
07FFF800
0F81F800
0C00FC00
08007C00
00007C00
000FFC00
007FFC00
01FFFC00
07FFFC00
0FF07C00
0FC07C00
1F007C00
1F007C00
1E007C00
3F00FC00
1F83FC00
1FFFFC00
1FFFFC00
0FFFFC00
07FF7C00
01FC7C00
ENDCHAR
STARTCHAR U+00E2
ENCODING 226
SWIDTH 499 0
DWIDTH 26 0
BBX 26 36 0 0
BITMAP
003F0000
003F8000
007FC000
00F3C000
00E1E000
01E0F000
03C07000
00000000
00000000
00000000
00000000
007F0000
01FFC000
07FFF000
07FFF000
07FFF800
0F81F800
0C00FC00
08007C00
00007C00
000FFC00
007FFC00
01FFFC00
07FFFC00
0FF07C00
0FC07C00
1F007C00
1F007C00
1E007C00
3F00FC00
1F83FC00
1FFFFC00
1FFFFC00
0FFFFC00
07FF7C00
01FC7C00
ENDCHAR
STARTCHAR U+00E3
ENCODING 227
SWIDTH 499 0
DWIDTH 26 0
BBX 26 36 0 0
BITMAP
01E00000
03F86000
07FE7000
0FFFF000
0F3FF000
060FE000
0007C000
00000000
00000000
00000000
00000000
007F0000
01FFC000
07FFF000
07FFF000
07FFF800
0F81F800
0C00FC00
08007C00
00007C00
000FFC00
007FFC00
01FFFC00
07FFFC00
0FF07C00
0FC07C00
1F007C00
1F007C00
1E007C00
3F00FC00
1F83FC00
1FFFFC00
1FFFFC00
0FFFFC00
07FF7C00
01FC7C00
ENDCHAR
STARTCHAR U+00E4
ENCODING 228
SWIDTH 499 0
DWIDTH 26 0
BBX 26 36 0 0
BITMAP
00806000
01C07000
03E0F000
07F1F800
03E0F800
01C07000
00802000
00000000
00000000
00000000
00000000
007F0000
01FFC000
07FFF000
07FFF000
07FFF800
0F81F800
0C00FC00
08007C00
00007C00
000FFC00
007FFC00
01FFFC00
07FFFC00
0FF07C00
0FC07C00
1F007C00
1F007C00
1E007C00
3F00FC00
1F83FC00
1FFFFC00
1FFFFC00
0FFFFC00
07FF7C00
01FC7C00
ENDCHAR
STARTCHAR U+00E5
ENCODING 229
SWIDTH 499 0
DWIDTH 26 0
BBX 26 38 0 0
BITMAP
001E0000
007F0000
00738000
00E18000
00C18000
00E18000
00738000
007F0000
001E0000
00000000
00000000
00000000
00000000
007F0000
01FFC000
07FFF000
07FFF000
07FFF800
0F81F800
0C00FC00
08007C00
00007C00
000FFC00
007FFC00
01FFFC00
07FFFC00
0FF07C00
0FC07C00
1F007C00
1F007C00
1E007C00
3F00FC00
1F83FC00
1FFFFC00
1FFFFC00
0FFFFC00
07FF7C00
01FC7C00
ENDCHAR
STARTCHAR U+00E6
ENCODING 230
SWIDTH 787 0
DWIDTH 41 0
BBX 41 25 0 0
BITMAP
007F007F0000
01FFC1FFC000
07FFF7FFF000
07FFFFFFF000
07FFFFFFF800
0F81FF81FC00
0C00FF007C00
08007E003E00
00007C003E00
0007FFFFFE00
007FFFFFFE00
01FFFFFFFE00
07FFFFFFFE00
0FF07C000000
1F807C000000
1F007E000000
1E003E000000
1E003F000600
3F003F800E00
1F81FFC07E00
1FFFFFFFFE00
1FFFF7FFFE00
0FFFE3FFF800
07FF81FFF000
01FE007F8000
ENDCHAR
STARTCHAR U+00E7
ENCODING 231
SWIDTH 480 0
DWIDTH 25 0
BBX 25 35 0 -10
BITMAP
000FE000
007FFC00
01FFFE00
03FFFE00
07FFFE00
07F81E00
0FC00200
1F800000
1F000000
1F000000
1F000000
3E000000
3E000000
3E000000
1F000000
1F000000
1F000000
1F800000
0FE00200
07F81E00
07FFFE00
03FFFE00
00FFFE00
007FFC00
000FE000
00070000
0007E000
000FF000
0000F800
0000F800
0000F800
0000F000
003FF000
003FE000
003F8000
ENDCHAR
STARTCHAR U+00E8
ENCODING 232
SWIDTH 538 0
DWIDTH 28 0
BBX 28 36 0 0
BITMAP
01F80000
00FC0000
007C0000
003E0000
001F0000
000F0000
00078000
00000000
00000000
00000000
00000000
001FC000
007FF000
01FFF800
03FFFC00
07FFFE00
0FF07F00
0FC01F00
1F801F00
1F000F80
1F000F80
1FFFFF80
3FFFFF80
3FFFFF80
3FFFFF80
1FFFFF80
1E000000
1F000000
1F800180
0FC00380
0FF01F80
07FFFF80
03FFFF80
01FFFF00
007FFC00
001FE000
ENDCHAR
STARTCHAR U+00E9
ENCODING 233
SWIDTH 538 0
DWIDTH 28 0
BBX 28 36 0 0
BITMAP
0003F000
0003E000
0007C000
000F8000
000F0000
001E0000
003C0000
00000000
00000000
00000000
00000000
001FC000
007FF000
01FFF800
03FFFC00
07FFFE00
0FF07F00
0FC01F00
1F801F00
1F000F80
1F000F80
1FFFFF80
3FFFFF80
3FFFFF80
3FFFFF80
1FFFFF80
1E000000
1F000000
1F800180
0FC00380
0FF01F80
07FFFF80
03FFFF80
01FFFF00
007FFC00
001FE000
ENDCHAR
STARTCHAR U+00EA
ENCODING 234
SWIDTH 538 0
DWIDTH 28 0
BBX 28 36 0 0
BITMAP
001F8000
001FC000
003FE000
0079E000
0070F000
00F07800
01E03800
00000000
00000000
00000000
00000000
001FC000
007FF000
01FFF800
03FFFC00
07FFFE00
0FF07F00
0FC01F00
1F801F00
1F000F80
1F000F80
1FFFFF80
3FFFFF80
3FFFFF80
3FFFFF80
1FFFFF80
1E000000
1F000000
1F800180
0FC00380
0FF01F80
07FFFF80
03FFFF80
01FFFF00
007FFC00
001FE000
ENDCHAR
STARTCHAR U+00EB
ENCODING 235
SWIDTH 538 0
DWIDTH 28 0
BBX 28 36 0 0
BITMAP
00403000
00E03800
01F07800
03F8FC00
01F07C00
00E03800
00401000
00000000
00000000
00000000
00000000
001FC000
007FF000
01FFF800
03FFFC00
07FFFE00
0FF07F00
0FC01F00
1F801F00
1F000F80
1F000F80
1FFFFF80
3FFFFF80
3FFFFF80
3FFFFF80
1FFFFF80
1E000000
1F000000
1F800180
0FC00380
0FF01F80
07FFFF80
03FFFF80
01FFFF00
007FFC00
001FE000
ENDCHAR
STARTCHAR U+00EC
ENCODING 236
SWIDTH 250 0
DWIDTH 13 0
BBX 14 36 -1 0
BITMAP
FC00
7E00
3E00
1F00
0F80
0780
03C0
0000
0000
0000
0000
0F80
0F80
0F80
0F80
0F80
0F80
0F80
0F80
0F80
0F80
0F80
0F80
0F80
0F80
0F80
0F80
0F80
0F80
0F80
0F80
0F80
0F80
0F80
0F80
0F80
ENDCHAR
STARTCHAR U+00ED
ENCODING 237
SWIDTH 250 0
DWIDTH 13 0
BBX 14 36 0 0
BITMAP
01F8
01F0
03E0
07C0
0780
0F00
1E00
0000
0000
0000
0000
0F80
0F80
0F80
0F80
0F80
0F80
0F80
0F80
0F80
0F80
0F80
0F80
0F80
0F80
0F80
0F80
0F80
0F80
0F80
0F80
0F80
0F80
0F80
0F80
0F80
ENDCHAR
STARTCHAR U+00EE
ENCODING 238
SWIDTH 250 0
DWIDTH 13 0
BBX 15 36 -1 0
BITMAP
0000
0000
0000
0000
0000
0000
0000
0000
0000
0000
0000
0000
0000
0000
0000
0000
0000
0000
0000
0000
0000
0000
0000
0000
0000
0000
0000
0000
0000
0000
0000
0000
0000
0000
0000
0000
ENDCHAR
STARTCHAR U+00EF
ENCODING 239
SWIDTH 250 0
DWIDTH 13 0
BBX 17 36 -2 0
BITMAP
000000
000000
000000
000000
000000
000000
000000
000000
000000
000000
000000
000000
000000
000000
000000
000000
000000
000000
000000
000000
000000
000000
000000
000000
000000
000000
000000
000000
000000
000000
000000
000000
000000
000000
000000
000000
ENDCHAR
STARTCHAR U+00F0
ENCODING 240
SWIDTH 538 0
DWIDTH 28 0
BBX 28 34 0 0
BITMAP
00303000
00F8F800
01FFFC00
007FF000
003FC000
007FC000
01FFE000
07FBF000
03E1F800
0180FC00
00007C00
003F7E00
00FFFE00
01FFFF00
03FFFF00
07FFFF80
0FE07F80
0F801F80
1F000F80
1F000F80
1E000F80
3E000780
3E000780
3E000F80
1F000F80
1F000F80
1F801F80
1F803F00
0FE0FF00
0FFFFE00
07FFFC00
03FFF800
00FFE000
003F8000
ENDCHAR
STARTCHAR U+00F1
ENCODING 241
SWIDTH 576 0
DWIDTH 30 0
BBX 30 36 0 0
BITMAP
003C0000
007F0C00
00FFCE00
01FFFE00
01E7FE00
00C1FC00
0000F800
00000000
00000000
00000000
00000000
0F8FF000
0FBFFC00
0FFFFE00
0FFFFF00
0FFFFF80
0FF03F80
0FC00FC0
0F800FC0
0F8007C0
0F8007C0
0F8007C0
0F8003C0
0F8003C0
0F8003C0
0F8003C0
0F8003C0
0F8003C0
0F8003C0
0F8003C0
0F8003C0
0F8003C0
0F8003C0
0F8003C0
0F8003C0
0F8003C0
ENDCHAR
STARTCHAR U+00F2
ENCODING 242
SWIDTH 595 0
DWIDTH 31 0
BBX 31 36 0 0
BITMAP
007E0000
003F0000
001F0000
000F8000
0007C000
0003C000
0001E000
00000000
00000000
00000000
00000000
000FE000
007FFC00
01FFFE00
03FFFF00
07FFFF80
0FF03FC0
0FC00FE0
1F8007E0
1F0003E0
1F0001F0
1F0001F0
3E0001F0
3E0001F0
3E0001F0
1F0001F0
1F0001F0
1F0003E0
1F8007E0
0FC00FE0
0FF03FC0
07FFFF80
03FFFF00
01FFFE00
007FF800
001FE000
ENDCHAR
STARTCHAR U+00F3
ENCODING 243
SWIDTH 595 0
DWIDTH 31 0
BBX 31 36 0 0
BITMAP
0000FC00
0000F800
0001F000
0003E000
0003C000
00078000
000F0000
00000000
00000000
00000000
00000000
000FE000
007FFC00
01FFFE00
03FFFF00
07FFFF80
0FF03FC0
0FC00FE0
1F8007E0
1F0003E0
1F0001F0
1F0001F0
3E0001F0
3E0001F0
3E0001F0
1F0001F0
1F0001F0
1F0003E0
1F8007E0
0FC00FE0
0FF03FC0
07FFFF80
03FFFF00
01FFFE00
007FF800
001FE000
ENDCHAR
STARTCHAR U+00F4
ENCODING 244
SWIDTH 595 0
DWIDTH 31 0
BBX 31 36 0 0
BITMAP
000FC000
000FE000
001FF000
003CF000
00387800
00783C00
00F01C00
00000000
00000000
00000000
00000000
000FE000
007FFC00
01FFFE00
03FFFF00
07FFFF80
0FF03FC0
0FC00FE0
1F8007E0
1F0003E0
1F0001F0
1F0001F0
3E0001F0
3E0001F0
3E0001F0
1F0001F0
1F0001F0
1F0003E0
1F8007E0
0FC00FE0
0FF03FC0
07FFFF80
03FFFF00
01FFFE00
007FF800
001FE000
ENDCHAR
STARTCHAR U+00F5
ENCODING 245
SWIDTH 595 0
DWIDTH 31 0
BBX 31 36 0 0
BITMAP
003C0000
007F0C00
00FFCE00
01FFFE00
01E7FE00
00C1FC00
0000F800
00000000
00000000
00000000
00000000
000FE000
007FFC00
01FFFE00
03FFFF00
07FFFF80
0FF03FC0
0FC00FE0
1F8007E0
1F0003E0
1F0001F0
1F0001F0
3E0001F0
3E0001F0
3E0001F0
1F0001F0
1F0001F0
1F0003E0
1F8007E0
0FC00FE0
0FF03FC0
07FFFF80
03FFFF00
01FFFE00
007FF800
001FE000
ENDCHAR
STARTCHAR U+00F6
ENCODING 246
SWIDTH 595 0
DWIDTH 31 0
BBX 31 36 0 0
BITMAP
00201800
00701C00
00F83C00
01FC7E00
00F83E00
00701C00
00200800
00000000
00000000
00000000
00000000
000FE000
007FFC00
01FFFE00
03FFFF00
07FFFF80
0FF03FC0
0FC00FE0
1F8007E0
1F0003E0
1F0001F0
1F0001F0
3E0001F0
3E0001F0
3E0001F0
1F0001F0
1F0001F0
1F0003E0
1F8007E0
0FC00FE0
0FF03FC0
07FFFF80
03FFFF00
01FFFE00
007FF800
001FE000
ENDCHAR
STARTCHAR U+00F7
ENCODING 247
SWIDTH 518 0
DWIDTH 27 0
BBX 27 29 0 0
BITMAP
00020000
00070000
000F8000
001FC000
000F8000
00070000
00020000
00000000
00000000
00000000
1FFFFE00
1FFFFE00
1FFFFE00
1FFFFE00
00000000
00000000
00000000
00000000
00020000
00070000
000F8000
001FC000
000F8000
00070000
00020000
00000000
00000000
00000000
00000000
ENDCHAR
STARTCHAR U+00F8
ENCODING 248
SWIDTH 595 0
DWIDTH 31 0
BBX 31 27 0 -1
BITMAP
00000080
000FE1C0
007FFFC0
01FFFF80
03FFFF00
07FFFF80
0FF03FC0
0FC01FE0
1F803FE0
1F007BE0
1F00F1F0
1E01E1F0
3E03C1F0
3E0781F0
3E0F01F0
1F0E01F0
1F1E01F0
1F3C03E0
1FF807E0
0FF00FE0
07F03FC0
07FFFF80
03FFFF00
07FFFE00
0F7FF800
0E1FE000
02000000
ENDCHAR
STARTCHAR U+00F9
ENCODING 249
SWIDTH 576 0
DWIDTH 30 0
BBX 30 36 0 0
BITMAP
00FC0000
007E0000
003E0000
001F0000
000F8000
00078000
0003C000
00000000
00000000
00000000
00000000
0F0007C0
0F0007C0
0F0007C0
0F0007C0
0F0007C0
0F0007C0
0F0007C0
0F0007C0
0F0007C0
0F0007C0
0F0007C0
0F0007C0
0F0007C0
0F0007C0
0F8007C0
0F8007C0
0F8007C0
0FC007C0
0FC00FC0
07F03FC0
07FFFFC0
03FFFFC0
01FFFFC0
00FFF7C0
003FC7C0
ENDCHAR
STARTCHAR U+00FA
ENCODING 250
SWIDTH 576 0
DWIDTH 30 0
BBX 30 36 0 0
BITMAP
0001F800
0001F000
0003E000
0007C000
00078000
000F0000
001E0000
00000000
00000000
00000000
00000000
0F0007C0
0F0007C0
0F0007C0
0F0007C0
0F0007C0
0F0007C0
0F0007C0
0F0007C0
0F0007C0
0F0007C0
0F0007C0
0F0007C0
0F0007C0
0F0007C0
0F8007C0
0F8007C0
0F8007C0
0FC007C0
0FC00FC0
07F03FC0
07FFFFC0
03FFFFC0
01FFFFC0
00FFF7C0
003FC7C0
ENDCHAR
STARTCHAR U+00FB
ENCODING 251
SWIDTH 576 0
DWIDTH 30 0
BBX 30 36 0 0
BITMAP
000FC000
000FE000
001FF000
003CF000
00387800
00783C00
00F01C00
00000000
00000000
00000000
00000000
0F0007C0
0F0007C0
0F0007C0
0F0007C0
0F0007C0
0F0007C0
0F0007C0
0F0007C0
0F0007C0
0F0007C0
0F0007C0
0F0007C0
0F0007C0
0F0007C0
0F8007C0
0F8007C0
0F8007C0
0FC007C0
0FC00FC0
07F03FC0
07FFFFC0
03FFFFC0
01FFFFC0
00FFF7C0
003FC7C0
ENDCHAR
STARTCHAR U+00FC
ENCODING 252
SWIDTH 576 0
DWIDTH 30 0
BBX 30 36 0 0
BITMAP
00201800
00701C00
00F83C00
01FC7E00
00F83E00
00701C00
00200800
00000000
00000000
00000000
00000000
0F0007C0
0F0007C0
0F0007C0
0F0007C0
0F0007C0
0F0007C0
0F0007C0
0F0007C0
0F0007C0
0F0007C0
0F0007C0
0F0007C0
0F0007C0
0F0007C0
0F8007C0
0F8007C0
0F8007C0
0FC007C0
0FC00FC0
07F03FC0
07FFFFC0
03FFFFC0
01FFFFC0
00FFF7C0
003FC7C0
ENDCHAR
STARTCHAR U+00FD
ENCODING 253
SWIDTH 518 0
DWIDTH 27 0
BBX 27 45 0 -9
BITMAP
0003F000
0003E000
0007C000
000F8000
000F0000
001E0000
003C0000
00000000
00000000
00000000
00000000
7C0007C0
7E000FC0
3E000F80
3E000F80
1F001F00
1F001F00
0F801F00
0F803E00
0F803E00
07C07C00
07C07C00
03E07C00
03E0F800
01F0F800
01F1F000
00F1F000
00F9F000
00FBE000
007FE000
007FC000
003FC000
003F8000
001F8000
001F8000
001F0000
001F0000
001E0000
003E0000
007E0000
07FC0000
07FC0000
07F80000
07F00000
07C00000
ENDCHAR
STARTCHAR U+00FE
ENCODING 254
SWIDTH 576 0
DWIDTH 30 0
BBX 30 43 0 -9
BITMAP
0F800000
0F800000
0F800000
0F800000
0F800000
0F800000
0F800000
0F800000
0F800000
0F8FE000
0FBFFC00
0FFFFE00
0FFFFF00
0FFFFF80
0FF03FC0
0FC00FC0
0F8007E0
0F8003E0
0F8003E0
0F8001F0
0F8001F0
0F8001F0
0F8001F0
0F8001F0
0F8003E0
0F8003E0
0F8007E0
0FC00FC0
0FF03FC0
0FFFFF80
0FFFFF00
0FFFFE00
0FBFF800
0F8FE000
0F800000
0F800000
0F800000
0F800000
0F800000
0F800000
0F800000
0F800000
0F800000
ENDCHAR
STARTCHAR U+00FF
ENCODING 255
SWIDTH 518 0
DWIDTH 27 0
BBX 27 45 0 -9
BITMAP
00806000
01C07000
03E0F000
07F1F800
03E0F800
01C07000
00802000
00000000
00000000
00000000
00000000
7C0007C0
7E000FC0
3E000F80
3E000F80
1F001F00
1F001F00
0F801F00
0F803E00
0F803E00
07C07C00
07C07C00
03E07C00
03E0F800
01F0F800
01F1F000
00F1F000
00F9F000
00FBE000
007FE000
007FC000
003FC000
003F8000
001F8000
001F8000
001F0000
001F0000
001E0000
003E0000
007E0000
07FC0000
07FC0000
07F80000
07F00000
07C00000
ENDCHAR
STARTCHAR U+2013
ENCODING 8211
SWIDTH 480 0
DWIDTH 25 0
BBX 27 16 -1 0
BITMAP
FFFFFF80
FFFFFF80
FFFFFF80
FFFFFF80
00000000
00000000
00000000
00000000
00000000
00000000
00000000
00000000
00000000
00000000
00000000
00000000
ENDCHAR
STARTCHAR U+2014
ENCODING 8212
SWIDTH 960 0
DWIDTH 50 0
BBX 52 16 -1 0
BITMAP
FFFFFFFFFFFFC0
FFFFFFFFFFFFC0
FFFFFFFFFFFFC0
FFFFFFFFFFFFC0
00000000000000
00000000000000
00000000000000
00000000000000
00000000000000
00000000000000
00000000000000
00000000000000
00000000000000
00000000000000
00000000000000
00000000000000
ENDCHAR
STARTCHAR U+2018
ENCODING 8216
SWIDTH 230 0
DWIDTH 12 0
BBX 12 34 0 0
BITMAP
0080
0300
0700
0E00
0E00
1F00
1F80
1FC0
0F80
0F00
0600
0000
0000
0000
0000
0000
0000
0000
0000
0000
0000
0000
0000
0000
0000
0000
0000
0000
0000
0000
0000
0000
0000
0000
ENDCHAR
STARTCHAR U+2019
ENCODING 8217
SWIDTH 230 0
DWIDTH 12 0
BBX 12 34 0 0
BITMAP
0200
0700
0F00
1F80
1F80
0F80
0780
0700
0700
0600
0C00
1000
0000
0000
0000
0000
0000
0000
0000
0000
0000
0000
0000
0000
0000
0000
0000
0000
0000
0000
0000
0000
0000
0000
ENDCHAR
STARTCHAR U+201C
ENCODING 8220
SWIDTH 384 0
DWIDTH 20 0
BBX 20 34 0 0
BITMAP
008080
030300
070600
0E0E00
0E0E00
1F1F00
1F9F00
1FDF80
0F8F80
0F0F00
060600
000000
000000
000000
000000
000000
000000
000000
000000
000000
000000
000000
000000
000000
000000
000000
000000
000000
000000
000000
000000
000000
000000
000000
ENDCHAR
STARTCHAR U+201D
ENCODING 8221
SWIDTH 384 0
DWIDTH 20 0
BBX 20 34 0 0
BITMAP
020200
070700
0F0F00
1F9F80
1F9F80
0F8F80
078780
070700
070700
060600
0C0C00
101000
000000
000000
000000
000000
000000
000000
000000
000000
000000
000000
000000
000000
000000
000000
000000
000000
000000
000000
000000
000000
000000
000000
ENDCHAR
STARTCHAR U+2022
ENCODING 8226
SWIDTH 403 0
DWIDTH 21 0
BBX 21 22 0 0
BITMAP
002000
007000
00F800
01FC00
03FE00
07FF00
0FFF80
07FF00
03FE00
01FC00
00F800
007000
002000
000000
000000
000000
000000
000000
000000
000000
000000
000000
ENDCHAR
STARTCHAR U+2026
ENCODING 8230
SWIDTH 883 0
DWIDTH 46 0
BBX 46 7 0 0
BITMAP
020001000100
070003800380
0F8007C007C0
1FC00FE00FE0
0F8007C007C0
070003800380
020001000100
ENDCHAR
STARTCHAR U+20AC
ENCODING 8364
SWIDTH 595 0
DWIDTH 31 0
BBX 31 34 0 0
BITMAP
0001FF00
0007FFE0
001FFFF8
003FFFF8
00FFFFF8
00FF00F8
01FC0018
03F80000
03F00000
07E00000
07C00000
3FFFFE00
3FFFFE00
7FFFFE00
7FFFFE00
0F800000
0F800000
0F800000
3FFFFC00
3FFFF800
7FFFF800
7FFFF800
07C00000
07E00000
07E00000
03F00000
03F80000
01FC0018
00FF00F8
007FFFF8
003FFFF8
001FFFF8
0007FFE0
0000FF00
ENDCHAR
ENDFONT
