STARTFONT 2.1
COMMENT Converted from Johnston100 W03 Regular.ttf at 42px with ttf2bdf.py (Pillow, 1-bit, no AA)
FONT -Misc-Johnston100-Medium-R-Normal--42-420-75-75-P-440-ISO10646-1
SIZE 42 75 75
FONTBOUNDINGBOX 44 49 -2 -11
STARTPROPERTIES 9
FOUNDRY "Misc"
FAMILY_NAME "Johnston100"
WEIGHT_NAME "Medium"
SLANT "R"
PIXEL_SIZE 42
RESOLUTION_X 75
RESOLUTION_Y 75
FONT_ASCENT 38
FONT_DESCENT 11
ENDPROPERTIES
CHARS 200
STARTCHAR space
ENCODING 32
SWIDTH 251 0
DWIDTH 11 0
BBX 11 49 0 -11
BITMAP
0000
0000
0000
0000
0000
0000
0000
0000
0000
0000
0000
0000
0000
0000
0000
0000
0000
0000
0000
0000
0000
0000
0000
0000
0000
0000
0000
0000
0000
0000
0000
0000
0000
0000
0000
0000
0000
0000
0000
0000
0000
0000
0000
0000
0000
0000
0000
0000
0000
ENDCHAR
STARTCHAR !
ENCODING 33
SWIDTH 274 0
DWIDTH 12 0
BBX 12 29 0 0
BITMAP
0F00
0F00
0F00
0F00
0F00
0F00
0F00
0F00
0F00
0F00
0F00
0F00
0F00
0F00
0F00
0F00
0F00
0700
0700
0600
0600
0600
0000
0000
0600
0F00
0F80
0700
0200
ENDCHAR
STARTCHAR "
ENCODING 34
SWIDTH 389 0
DWIDTH 17 0
BBX 17 29 0 0
BITMAP
1E3C00
1E3C00
1E3C00
1E3C00
1E3C00
1E1C00
1E1C00
1C1C00
0C1C00
0C1C00
0C1800
000000
000000
000000
000000
000000
000000
000000
000000
000000
000000
000000
000000
000000
000000
000000
000000
000000
000000
ENDCHAR
STARTCHAR U+0023
ENCODING 35
SWIDTH 731 0
DWIDTH 32 0
BBX 32 29 0 0
BITMAP
00018060
000701C0
000701C0
000F03C0
000F0380
000E0380
000E0780
001E0780
07FFFFFC
0FFFFFFC
0FFFFFFC
00380E00
00380E00
00381E00
00781E00
00701C00
00701C00
00703C00
3FFFFFF0
3FFFFFF0
7FFFFFE0
01E07800
01C07000
01C07000
01C0F000
03C0E000
0380E000
0381E000
06018000
ENDCHAR
STARTCHAR $
ENCODING 36
SWIDTH 480 0
DWIDTH 21 0
BBX 21 34 0 -3
BITMAP
00F000
00F000
00F000
03FC00
07FF00
0FFF80
1F9F80
1E0700
1E0000
1E0000
1E0000
1F0000
1FC000
0FF000
07FC00
03FE00
00FF80
003FC0
000FC0
0003E0
0003E0
0001E0
0001F0
1801E0
3801E0
7C03E0
3F07E0
1FFFC0
0FFF80
07FF00
03FC00
00F000
00F000
00F000
ENDCHAR
STARTCHAR %
ENCODING 37
SWIDTH 709 0
DWIDTH 31 0
BBX 31 29 0 0
BITMAP
03E00700
0FF00700
1FF80E00
1E3C0E00
3C1C1C00
381C1C00
381C3800
3C1C3800
1E3C7000
1FF87000
0FF0E000
03E0E000
0001C000
0001C000
00038000
00038000
00070000
000707C0
000E1FE0
000E3FF0
001C3878
001C7838
00387038
00387038
00707838
00707C78
00E03FF0
00E01FE0
01C007C0
ENDCHAR
STARTCHAR &
ENCODING 38
SWIDTH 663 0
DWIDTH 29 0
BBX 29 29 0 0
BITMAP
007E0000
00FF8000
03FFC000
03FFE000
07C3E000
0781F000
0781F000
0781F000
0781E000
07C1E000
03E7C000
01FF8000
01FF0000
00FE0000
03FE03C0
07FF03C0
0F9F8780
1F0FC780
3E07CF00
3C03FF00
3C01FE00
3C00FC00
3E007C00
3E00FE00
1F83FF00
1FFFEF80
0FFFCFC0
07FF07E0
01FC03F0
ENDCHAR
STARTCHAR '
ENCODING 39
SWIDTH 229 0
DWIDTH 10 0
BBX 10 29 0 0
BITMAP
1E00
1E00
1E00
1E00
1E00
1E00
1E00
1C00
0C00
0C00
0C00
0000
0000
0000
0000
0000
0000
0000
0000
0000
0000
0000
0000
0000
0000
0000
0000
0000
0000
ENDCHAR
STARTCHAR (
ENCODING 40
SWIDTH 251 0
DWIDTH 11 0
BBX 11 34 0 -3
BITMAP
03C0
0380
0780
0700
0F00
0F00
0E00
0E00
1E00
1E00
1E00
1E00
1C00
1C00
3C00
3C00
3C00
3C00
3C00
3C00
1C00
1C00
1E00
1E00
1E00
1E00
1E00
0E00
0F00
0F00
0700
0780
0380
03C0
ENDCHAR
STARTCHAR )
ENCODING 41
SWIDTH 251 0
DWIDTH 11 0
BBX 11 34 0 -3
BITMAP
7800
3C00
3C00
1C00
1E00
1E00
0E00
0F00
0F00
0F00
0F00
0700
0700
0780
0780
0780
0780
0780
0780
0780
0700
0700
0700
0F00
0F00
0F00
0F00
0E00
1E00
1E00
1C00
3C00
3C00
7800
ENDCHAR
STARTCHAR *
ENCODING 42
SWIDTH 389 0
DWIDTH 17 0
BBX 17 29 0 0
BITMAP
01C000
01C000
11C400
39CE00
3DDE00
1EFC00
07F800
01E000
07E000
1FFC00
3DDE00
39CE00
11C400
01C000
01C000
000000
000000
000000
000000
000000
000000
000000
000000
000000
000000
000000
000000
000000
000000
ENDCHAR
STARTCHAR +
ENCODING 43
SWIDTH 526 0
DWIDTH 23 0
BBX 23 22 0 0
BITMAP
007800
007800
007800
007800
007800
007800
1FFFF0
1FFFF0
1FFFF0
1FFFF0
007800
007800
007800
007800
007800
007800
000000
000000
000000
000000
000000
000000
ENDCHAR
STARTCHAR ,
ENCODING 44
SWIDTH 229 0
DWIDTH 10 0
BBX 10 11 0 -5
BITMAP
0000
0C00
1E00
3F00
1F00
0E00
0E00
0C00
0C00
1000
0000
ENDCHAR
STARTCHAR -
ENCODING 45
SWIDTH 366 0
DWIDTH 16 0
BBX 16 13 0 0
BITMAP
7FFE
7FFE
7FFE
7FFE
0000
0000
0000
0000
0000
0000
0000
0000
0000
ENDCHAR
STARTCHAR .
ENCODING 46
SWIDTH 229 0
DWIDTH 10 0
BBX 10 6 0 0
BITMAP
0400
0E00
1F00
1F00
0E00
0400
ENDCHAR
STARTCHAR /
ENCODING 47
SWIDTH 320 0
DWIDTH 14 0
BBX 14 34 0 -3
BITMAP
0038
0078
0078
0078
0070
00F0
00F0
00E0
01E0
01E0
01E0
03C0
03C0
03C0
0380
0780
0780
0700
0F00
0F00
0F00
0E00
1E00
1E00
1C00
3C00
3C00
3C00
3800
7800
7800
7000
F000
F000
ENDCHAR
STARTCHAR 0
ENCODING 48
SWIDTH 571 0
DWIDTH 25 0
BBX 25 29 0 0
BITMAP
007E0000
00FF8000
03FFC000
03FFE000
07C3E000
0781F000
0F80F000
0F00F800
0F007800
1F007800
1E007800
1E007800
1E007C00
1E007C00
1E007C00
1E007C00
1E007C00
1E007800
1E007800
1F007800
1F007800
0F00F800
0F80F000
0F81F000
07C3E000
03FFE000
03FFC000
00FF8000
007E0000
ENDCHAR
STARTCHAR 1
ENCODING 49
SWIDTH 274 0
DWIDTH 12 0
BBX 12 29 0 0
BITMAP
0100
0300
0700
0F00
0F00
0F00
0F00
0F00
0F00
0F00
0F00
0F00
0F00
0F00
0F00
0F00
0F00
0F00
0F00
0F00
0F00
0F00
0F00
0F00
0F00
0F00
0F00
0F00
0F00
ENDCHAR
STARTCHAR 2
ENCODING 50
SWIDTH 480 0
DWIDTH 21 0
BBX 21 29 0 0
BITMAP
01FC00
07FF00
0FFF80
1FFFC0
1F0FC0
1C03C0
1803E0
1001E0
0001E0
0003E0
0003C0
0003C0
0007C0
000F80
000F80
001F00
001E00
003E00
007C00
007C00
00F800
01F000
01F000
03E000
07C000
07FFE0
0FFFE0
1FFFE0
1FFFE0
ENDCHAR
STARTCHAR 3
ENCODING 51
SWIDTH 503 0
DWIDTH 22 0
BBX 22 29 0 0
BITMAP
3FFFF0
3FFFE0
3FFFC0
3FFFC0
000F80
000F00
001F00
001E00
003E00
007C00
007800
00FF00
01FF80
020FC0
0003E0
0001E0
0001F0
0000F0
0000F0
0000F0
0000F0
0001F0
1001F0
3803E0
3E0FE0
3FFFC0
1FFF80
0FFF00
03F800
ENDCHAR
STARTCHAR 4
ENCODING 52
SWIDTH 549 0
DWIDTH 24 0
BBX 24 29 0 0
BITMAP
000000
000020
000060
0000E0
0001E0
0001E0
0003E0
0007E0
000FE0
001FE0
003FE0
007DE0
00F9E0
00F1E0
01E1E0
03C1E0
0781E0
0F81E0
1FFFFE
3FFFFE
7FFFFE
0001E0
0001E0
0001E0
0001E0
0001E0
0001E0
0001E0
0001E0
ENDCHAR
STARTCHAR 5
ENCODING 53
SWIDTH 503 0
DWIDTH 22 0
BBX 22 29 0 0
BITMAP
07FFE0
07FFE0
07FFC0
0FFFC0
0F0000
0F0000
0F0000
0F0000
0F0000
0F0000
0FF800
0FFE00
0FFF00
181F80
0007C0
0003C0
0003E0
0001E0
0001E0
0001E0
0001E0
0003E0
2003E0
7007C0
FC0FC0
7FFF80
3FFF00
1FFE00
03F800
ENDCHAR
STARTCHAR 6
ENCODING 54
SWIDTH 503 0
DWIDTH 22 0
BBX 22 29 0 0
BITMAP
000F80
001F00
003E00
007C00
00FC00
01F800
01F000
03E000
07C000
07C000
078000
0FBF00
0FFFC0
0FFFE0
1FFFF0
1F81F0
1E00F8
1E0078
1E0078
1E0078
1E0078
1F0078
1F0078
0F80F8
0FC3F0
07FFE0
03FFE0
01FF80
007E00
ENDCHAR
STARTCHAR 7
ENCODING 55
SWIDTH 480 0
DWIDTH 21 0
BBX 21 29 0 0
BITMAP
3FFFF0
3FFFE0
3FFFE0
3FFFE0
0003C0
0007C0
000780
000F80
000F00
001F00
001E00
001E00
003E00
003C00
007C00
007800
00F800
00F000
01F000
01F000
01E000
03E000
03C000
07C000
078000
0F8000
0F8000
1F0000
1F0000
ENDCHAR
STARTCHAR 8
ENCODING 56
SWIDTH 503 0
DWIDTH 22 0
BBX 22 29 0 0
BITMAP
00FC00
03FF00
07FF80
07FFC0
0F87C0
0F03E0
0F01E0
0F01E0
0F01E0
0F03C0
0FC7C0
07FF80
03FF00
01FE00
03FF80
0FCFC0
0F87E0
1F01F0
1E00F0
3C00F0
3C00F0
3C00F0
3E00F0
1E01F0
1F83E0
0FFFE0
07FFC0
03FF80
00FC00
ENDCHAR
STARTCHAR 9
ENCODING 57
SWIDTH 503 0
DWIDTH 22 0
BBX 22 29 0 0
BITMAP
01FC00
07FE00
0FFF80
1FFF80
3F0FC0
3E03E0
7C03E0
7801E0
7801E0
7801E0
7801F0
7C01E0
3C01E0
3F07E0
1FFFE0
1FFFE0
0FFFE0
03F3C0
0007C0
000780
000F80
001F00
001F00
003E00
007E00
00FC00
01F800
03F000
07E000
ENDCHAR
STARTCHAR :
ENCODING 58
SWIDTH 274 0
DWIDTH 12 0
BBX 12 22 0 0
BITMAP
0200
0700
0F80
0F80
0700
0200
0000
0000
0000
0000
0000
0000
0000
0000
0000
0000
0200
0700
0F80
0F80
0700
0200
ENDCHAR
STARTCHAR ;
ENCODING 59
SWIDTH 274 0
DWIDTH 12 0
BBX 12 26 0 -5
BITMAP
0200
0700
0F80
0F80
0700
0200
0000
0000
0000
0000
0000
0000
0000
0000
0000
0000
0600
0F00
1F80
0F80
0700
0700
0600
0600
0800
0000
ENDCHAR
STARTCHAR U+003C
ENCODING 60
SWIDTH 526 0
DWIDTH 23 0
BBX 23 25 0 0
BITMAP
000030
0000F0
0003F0
000FF0
003FC0
00FF00
03FC00
0FF000
1FC000
1F0000
1FC000
0FF000
03FC00
00FF00
003FC0
000FF0
0003F0
0000F0
000030
000000
000000
000000
000000
000000
000000
ENDCHAR
STARTCHAR =
ENCODING 61
SWIDTH 526 0
DWIDTH 23 0
BBX 23 20 0 0
BITMAP
1FFFF0
1FFFF0
1FFFF0
1FFFF0
000000
000000
000000
000000
1FFFF0
1FFFF0
1FFFF0
1FFFF0
000000
000000
000000
000000
000000
000000
000000
000000
ENDCHAR
STARTCHAR U+003E
ENCODING 62
SWIDTH 526 0
DWIDTH 23 0
BBX 23 25 0 0
BITMAP
100000
1C0000
1F0000
1FE000
0FF800
03FE00
00FF80
003FE0
0007F0
0001F0
0007F0
001FE0
00FF80
03FE00
0FF800
1FE000
1F0000
1C0000
100000
000000
000000
000000
000000
000000
000000
ENDCHAR
STARTCHAR ?
ENCODING 63
SWIDTH 434 0
DWIDTH 19 0
BBX 19 29 0 0
BITMAP
03F000
0FFC00
3FFE00
7FFF00
7C1F00
380F80
100F80
000780
000F80
000F80
001F00
007E00
00FC00
01F800
03F000
07C000
078000
07C000
07C000
03E000
01C000
008000
000000
008000
01C000
03E000
03E000
01C000
008000
ENDCHAR
STARTCHAR @
ENCODING 64
SWIDTH 914 0
DWIDTH 40 0
BBX 40 37 0 -8
BITMAP
00007FC000
0007FFF800
001FFFFE00
003F807F00
007C000FC0
00F80003E0
01E00001E0
03C00000F0
07803F0878
0780FFF078
0F03FFF038
0F03E1F03C
1E0780703C
1E0F00F03C
1C0F00F01C
1C0F00F01C
1C1E00F01C
3C1E00F01C
3C1E00E03C
3C1E00E03C
3C1E00E038
3C1E00E038
1C1E01E078
1C0F01E070
1C0F01F1F0
1E07C3FFE0
1E07FFFFC0
0F03FF3F00
0F00FC0000
0780000000
03C0000000
03E0000000
01F8001000
007F00F000
003FFFF000
000FFFF000
0001FF8000
ENDCHAR
STARTCHAR A
ENCODING 65
SWIDTH 640 0
DWIDTH 28 0
BBX 28 29 0 0
BITMAP
000F0000
000F0000
001F8000
001F8000
003FC000
003FC000
003FC000
0079E000
0079E000
00F9F000
00F0F000
00F0F000
01F0F800
01E07800
03E07C00
03C03C00
03C03C00
07C03E00
07FFFE00
07FFFF00
0FFFFF00
0FFFFF00
1F000F80
1E000780
1E0007C0
3E0007C0
3C0003C0
7C0003E0
7C0001E0
ENDCHAR
STARTCHAR B
ENCODING 66
SWIDTH 571 0
DWIDTH 25 0
BBX 25 29 0 0
BITMAP
0FFE0000
0FFF8000
0FFFC000
0FFFE000
0F03F000
0F01F000
0F00F000
0F00F000
0F00F000
0F00F000
0F01F000
0F03E000
0FFFC000
0FFFE000
0FFFF000
0FFFF800
0F00FC00
0F003E00
0F001E00
0F001E00
0F001E00
0F001E00
0F001E00
0F003E00
0F00FC00
0FFFFC00
0FFFF800
0FFFF000
0FFF8000
ENDCHAR
STARTCHAR C
ENCODING 67
SWIDTH 663 0
DWIDTH 29 0
BBX 29 29 0 0
BITMAP
0007F800
001FFF00
007FFF80
00FFFFC0
03FC07C0
03F000C0
07C00040
0F800000
0F000000
1F000000
1E000000
1E000000
1E000000
3E000000
3E000000
3E000000
1E000000
1E000000
1F000000
1F000000
0F800000
0F800000
07C00040
03F000C0
01FC07C0
00FFFFC0
007FFF80
001FFE00
0003F800
ENDCHAR
STARTCHAR D
ENCODING 68
SWIDTH 709 0
DWIDTH 31 0
BBX 31 29 0 0
BITMAP
0FFF8000
0FFFF000
0FFFFC00
0FFFFE00
0F00FF00
0F001F80
0F000FC0
0F0007E0
0F0003E0
0F0001E0
0F0001F0
0F0001F0
0F0000F0
0F0000F0
0F0000F0
0F0000F0
0F0000F0
0F0001F0
0F0001F0
0F0001E0
0F0003E0
0F0007C0
0F000FC0
0F001F80
0F00FF00
0FFFFE00
0FFFFC00
0FFFF000
0FFF8000
ENDCHAR
STARTCHAR E
ENCODING 69
SWIDTH 549 0
DWIDTH 24 0
BBX 24 29 0 0
BITMAP
0FFFFC
0FFFFC
0FFFFC
0FFFFC
0F0000
0F0000
0F0000
0F0000
0F0000
0F0000
0F0000
0FFFE0
0FFFE0
0FFFE0
0FFFE0
0F0000
0F0000
0F0000
0F0000
0F0000
0F0000
0F0000
0F0000
0F0000
0F0000
0FFFFC
0FFFFC
0FFFFC
0FFFFC
ENDCHAR
STARTCHAR F
ENCODING 70
SWIDTH 503 0
DWIDTH 22 0
BBX 22 29 0 0
BITMAP
0FFFF8
0FFFF8
0FFFF8
0FFFF8
0F0000
0F0000
0F0000
0F0000
0F0000
0F0000
0F0000
0FFFC0
0FFFC0
0FFFC0
0FFFC0
0F0000
0F0000
0F0000
0F0000
0F0000
0F0000
0F0000
0F0000
0F0000
0F0000
0F0000
0F0000
0F0000
0F0000
ENDCHAR
STARTCHAR G
ENCODING 71
SWIDTH 709 0
DWIDTH 31 0
BBX 31 29 0 0
BITMAP
0007FE00
001FFFC0
007FFFE0
00FFFFE0
01FC03E0
03F000E0
07E00020
0F800000
0F800000
1F000000
1E000000
1E000000
1E007FF0
3E007FF0
3E007FF0
3E007FF0
3E0001F0
1E0001F0
1F0001F0
1F0001F0
0F8001F0
0F8001F0
07C001F0
07F001F0
03FC03F0
01FFFFF0
007FFFE0
003FFF80
0007F800
ENDCHAR
STARTCHAR H
ENCODING 72
SWIDTH 709 0
DWIDTH 31 0
BBX 31 29 0 0
BITMAP
0F0003E0
0F0003E0
0F0003E0
0F0003E0
0F0003E0
0F0003E0
0F0003E0
0F0003E0
0F0003E0
0F0003E0
0F0003E0
0FFFFFE0
0FFFFFE0
0FFFFFE0
0FFFFFE0
0F0003E0
0F0003E0
0F0003E0
0F0003E0
0F0003E0
0F0003E0
0F0003E0
0F0003E0
0F0003E0
0F0003E0
0F0003E0
0F0003E0
0F0003E0
0F0003E0
ENDCHAR
STARTCHAR I
ENCODING 73
SWIDTH 274 0
DWIDTH 12 0
BBX 12 29 0 0
BITMAP
0F00
0F00
0F00
0F00
0F00
0F00
0F00
0F00
0F00
0F00
0F00
0F00
0F00
0F00
0F00
0F00
0F00
0F00
0F00
0F00
0F00
0F00
0F00
0F00
0F00
0F00
0F00
0F00
0F00
ENDCHAR
STARTCHAR J
ENCODING 74
SWIDTH 457 0
DWIDTH 20 0
BBX 20 29 0 0
BITMAP
000F00
000F00
000F00
000F00
000F00
000F00
000F00
000F00
000F00
000F00
000F00
000F00
000F00
000F00
000F00
000F00
000F00
000F00
000F00
000F00
000F00
000F00
080F00
381F00
7C3F00
3FFE00
3FFC00
1FF800
07E000
ENDCHAR
STARTCHAR K
ENCODING 75
SWIDTH 594 0
DWIDTH 26 0
BBX 27 29 0 0
BITMAP
0F001F80
0F003F00
0F007E00
0F00FC00
0F01F800
0F03F000
0F07E000
0F0FC000
0F1F0000
0F3E0000
0FFC0000
0FF80000
0FF00000
0FF80000
0FFC0000
0FFC0000
0F7E0000
0F3F0000
0F1F8000
0F0FC000
0F07E000
0F03F000
0F01F800
0F00F800
0F007C00
0F007E00
0F003F00
0F001F80
0F000FC0
ENDCHAR
STARTCHAR L
ENCODING 76
SWIDTH 526 0
DWIDTH 23 0
BBX 23 29 0 0
BITMAP
0F0000
0F0000
0F0000
0F0000
0F0000
0F0000
0F0000
0F0000
0F0000
0F0000
0F0000
0F0000
0F0000
0F0000
0F0000
0F0000
0F0000
0F0000
0F0000
0F0000
0F0000
0F0000
0F0000
0F0000
0F0000
0FFFFC
0FFFFC
0FFFFC
0FFFFC
ENDCHAR
STARTCHAR M
ENCODING 77
SWIDTH 823 0
DWIDTH 36 0
BBX 36 29 0 0
BITMAP
0F80000F00
0FC0001F00
0FC0003F00
0FE0007F00
0FF000FF00
0FF800FF00
0FFC01FF00
0F7C03EF00
0F3E07EF00
0F1F0FCF00
0F1F8F8F00
0F0FDF0F00
0F07FE0F00
0F03FE0F00
0F01FC0F00
0F01F80F00
0F00F00F00
0F00600F00
0F00000F00
0F00000F00
0F00000F00
0F00000F00
0F00000F00
0F00000F00
0F00000F00
0F00000F00
0F00000F00
0F00000F00
0F00000F00
ENDCHAR
STARTCHAR N
ENCODING 78
SWIDTH 754 0
DWIDTH 33 0
BBX 33 29 0 0
BITMAP
0F0000F800
0F8000F800
0FC000F800
0FE000F800
0FE000F800
0FF000F800
0FF800F800
0FFC00F800
0F7C00F800
0F3E00F800
0F1F00F800
0F1F80F800
0F0F80F800
0F07C0F800
0F03E0F800
0F03F0F800
0F01F0F800
0F00F8F800
0F007CF800
0F003EF800
0F003EF800
0F001FF800
0F000FF800
0F0007F800
0F0007F800
0F0003F800
0F0001F800
0F0000F800
0F0000F800
ENDCHAR
STARTCHAR O
ENCODING 79
SWIDTH 800 0
DWIDTH 35 0
BBX 35 29 0 0
BITMAP
0007F80000
001FFF0000
007FFFC000
00FFFFE000
03FC07F000
03F001F800
07C000FC00
0F80007C00
0F00003E00
1F00001E00
1E00001F00
1E00001F00
1E00000F00
3E00000F00
3E00000F00
3E00000F00
1E00000F00
1E00001F00
1E00001F00
1F00001E00
0F00003E00
0F80007C00
07C000FC00
03F001F800
03FC07F000
00FFFFE000
007FFFC000
001FFF0000
0007F80000
ENDCHAR
STARTCHAR P
ENCODING 80
SWIDTH 571 0
DWIDTH 25 0
BBX 25 29 0 0
BITMAP
0FFF8000
0FFFE000
0FFFF000
0FFFF800
0F01FC00
0F007C00
0F003E00
0F003E00
0F003E00
0F003E00
0F003E00
0F003C00
0F007C00
0F00FC00
0FFFF800
0FFFF000
0FFFE000
0FFF0000
0F000000
0F000000
0F000000
0F000000
0F000000
0F000000
0F000000
0F000000
0F000000
0F000000
0F000000
ENDCHAR
STARTCHAR Q
ENCODING 81
SWIDTH 800 0
DWIDTH 35 0
BBX 35 30 0 -1
BITMAP
0007F80000
001FFF0000
007FFFC000
00FFFFE000
03FC07F000
03F001F800
07C000FC00
0F80007C00
0F00003E00
1F00001E00
1E00001F00
1E00001F00
1E00000F00
3E00000F00
3E00000F00
3E00000F00
1E00000F00
1E00001F00
1E00021F00
1F00071E00
0F000FBE00
0F800FFC00
07C007FC00
03F003F800
03FC07F800
00FFFFFC00
007FFFFE00
001FFF3E00
0007F81C00
0000000800
ENDCHAR
STARTCHAR R
ENCODING 82
SWIDTH 571 0
DWIDTH 25 0
BBX 26 29 0 0
BITMAP
0FFE0000
0FFFC000
0FFFE000
0FFFF000
0F03F000
0F00F800
0F007800
0F007800
0F007800
0F007800
0F00F800
0F01F000
0FFFF000
0FFFE000
0FFFC000
0FFF0000
0F1F0000
0F0F8000
0F07C000
0F07E000
0F03E000
0F01F000
0F01F800
0F00F800
0F007C00
0F007E00
0F003F00
0F001F00
0F000F80
ENDCHAR
STARTCHAR S
ENCODING 83
SWIDTH 480 0
DWIDTH 21 0
BBX 21 29 0 0
BITMAP
01F800
07FE00
0FFF80
1FFF80
1F0F00
1E0200
1E0000
1E0000
1E0000
1F8000
1FC000
0FF000
07FC00
01FF00
00FF80
001FC0
000FE0
0003E0
0003E0
0001F0
0001F0
0801E0
3801E0
7C03E0
3F07C0
1FFFC0
0FFF80
07FE00
01F800
ENDCHAR
STARTCHAR T
ENCODING 84
SWIDTH 549 0
DWIDTH 24 0
BBX 24 29 0 0
BITMAP
7FFFFE
7FFFFE
7FFFFE
7FFFFE
003C00
003C00
003C00
003C00
003C00
003C00
003C00
003C00
003C00
003C00
003C00
003C00
003C00
003C00
003C00
003C00
003C00
003C00
003C00
003C00
003C00
003C00
003C00
003C00
003C00
ENDCHAR
STARTCHAR U
ENCODING 85
SWIDTH 731 0
DWIDTH 32 0
BBX 32 29 0 0
BITMAP
0F000078
0F000078
0F000078
0F000078
0F000078
0F000078
0F000078
0F000078
0F000078
0F000078
0F000078
0F000078
0F000078
0F000078
0F000078
0F000078
0F000078
0F0000F8
0F0000F8
0F8000F0
0F8000F0
078001F0
07C003E0
03E007E0
03F81FC0
01FFFF80
00FFFF00
003FFC00
000FF000
ENDCHAR
STARTCHAR V
ENCODING 86
SWIDTH 617 0
DWIDTH 27 0
BBX 27 29 0 0
BITMAP
7C0007C0
7C0007C0
3C000780
3E000F80
1E000F80
1E000F00
1F001F00
0F001E00
0F801E00
0F803E00
07803C00
07C03C00
03C07C00
03C07800
03E07800
01E0F800
01E0F000
01F0F000
00F1E000
00F1E000
0079E000
007BC000
007BC000
003FC000
003F8000
003F8000
001F8000
001F0000
000F0000
ENDCHAR
STARTCHAR W
ENCODING 87
SWIDTH 937 0
DWIDTH 41 0
BBX 41 29 0 0
BITMAP
3C0000001E00
3C003E001E00
3E003E001E00
1E003F003E00
1E007F003C00
1F007F003C00
1F007F807C00
0F0077807800
0F00F7807800
0F80F7807800
0780F3C0F800
0781E3C0F000
07C1E3C0F000
07C1E3E0F000
03C1C1E1E000
03C3C1E1E000
03E3C1F1E000
01E3C0F3E000
01E780F3C000
01F780F3C000
01F7807BC000
00FF007F8000
00FF007F8000
00FF007F8000
007E003F8000
007E003F0000
007E003F0000
003E001F0000
003C001E0000
ENDCHAR
STARTCHAR X
ENCODING 88
SWIDTH 640 0
DWIDTH 28 0
BBX 29 29 0 0
BITMAP
7E0007C0
3E000F80
1F000F80
0F801F00
0FC03E00
07C07E00
03E07C00
01F0F800
01F9F000
00F9F000
007FE000
003FC000
003FC000
001F8000
001F8000
003FC000
007FE000
007FE000
00F9F000
01F0F800
01F0FC00
03E07C00
07C03E00
0F801F00
0F800F80
1F000F80
3E0007C0
7E0003E0
7C0001F0
ENDCHAR
STARTCHAR Y
ENCODING 89
SWIDTH 571 0
DWIDTH 25 0
BBX 25 29 0 0
BITMAP
7C000F00
3E001F00
3E003E00
1F003C00
0F007C00
0F80F800
07C0F000
03C1F000
03E1E000
01F3E000
01F7C000
00FF8000
007F8000
007F0000
003E0000
001E0000
001E0000
001E0000
001E0000
001E0000
001E0000
001E0000
001E0000
001E0000
001E0000
001E0000
001E0000
001E0000
001E0000
ENDCHAR
STARTCHAR Z
ENCODING 90
SWIDTH 594 0
DWIDTH 26 0
BBX 26 29 0 0
BITMAP
3FFFFF80
3FFFFF00
3FFFFF00
3FFFFE00
00007C00
00007C00
0000F800
0001F000
0001F000
0003E000
0007C000
0007C000
000F8000
001F0000
001F0000
003E0000
007C0000
007C0000
00F80000
01F00000
01F00000
03E00000
07C00000
07C00000
0F800000
1FFFFF80
1FFFFF80
3FFFFF80
7FFFFF80
ENDCHAR
STARTCHAR [
ENCODING 91
SWIDTH 320 0
DWIDTH 14 0
BBX 14 38 0 -5
BITMAP
1FF8
1FF8
1FF8
1E00
1E00
1E00
1E00
1E00
1E00
1E00
1E00
1E00
1E00
1E00
1E00
1E00
1E00
1E00
1E00
1E00
1E00
1E00
1E00
1E00
1E00
1E00
1E00
1E00
1E00
1E00
1E00
1E00
1E00
1E00
1E00
1FF8
1FF8
1FF8
ENDCHAR
STARTCHAR \
ENCODING 92
SWIDTH 320 0
DWIDTH 14 0
BBX 14 34 0 -3
BITMAP
F000
F000
7000
7800
7800
3800
3C00
3C00
3C00
1C00
1E00
1E00
0E00
0F00
0F00
0700
0780
0780
0780
0380
03C0
03C0
01C0
01E0
01E0
01E0
00E0
00F0
00F0
0070
0078
0078
0078
0038
ENDCHAR
STARTCHAR ]
ENCODING 93
SWIDTH 320 0
DWIDTH 14 0
BBX 14 38 0 -5
BITMAP
3FE0
3FE0
3FE0
01E0
01E0
01E0
01E0
01E0
01E0
01E0
01E0
01E0
01E0
01E0
01E0
01E0
01E0
01E0
01E0
01E0
01E0
01E0
01E0
01E0
01E0
01E0
01E0
01E0
01E0
01E0
01E0
01E0
01E0
01E0
01E0
3FE0
3FE0
3FE0
ENDCHAR
STARTCHAR ^
ENCODING 94
SWIDTH 549 0
DWIDTH 24 0
BBX 24 29 0 0
BITMAP
003C00
007E00
00FF00
00FF00
01E780
03E3C0
03C3C0
0781E0
0F80F0
0F00F0
1E0078
3E003C
000000
000000
000000
000000
000000
000000
000000
000000
000000
000000
000000
000000
000000
000000
000000
000000
000000
ENDCHAR
STARTCHAR _
ENCODING 95
SWIDTH 480 0
DWIDTH 21 0
BBX 23 5 -1 -5
BITMAP
000000
000000
000000
FFFFF8
FFFFF8
ENDCHAR
STARTCHAR `
ENCODING 96
SWIDTH 434 0
DWIDTH 19 0
BBX 20 29 0 0
BITMAP
FFFFE0
FFFFE0
FFFFE0
FFFFE0
F001E0
F001E0
F001E0
F001E0
F001E0
F001E0
F001E0
F001E0
F001E0
F001E0
F001E0
F001E0
F001E0
F001E0
F001E0
F001E0
F001E0
F001E0
F001E0
F001E0
F001E0
FFFFE0
FFFFE0
FFFFE0
FFFFE0
ENDCHAR
STARTCHAR a
ENCODING 97
SWIDTH 503 0
DWIDTH 22 0
BBX 22 21 0 0
BITMAP
00FC00
07FF00
0FFF80
0FFFC0
0E07C0
1803C0
1001E0
003FE0
01FFE0
07FFE0
0FC1E0
1F01E0
1E01E0
3C01E0
3C01E0
3C03E0
3E0FE0
1FFFE0
1FFFE0
0FFDE0
03E1E0
ENDCHAR
STARTCHAR b
ENCODING 98
SWIDTH 571 0
DWIDTH 25 0
BBX 25 29 0 0
BITMAP
1E000000
1E000000
1E000000
1E000000
1E000000
1E000000
1E000000
1E000000
1E3F0000
1EFFC000
1FFFF000
1FFFF800
1FC1F800
1F007C00
1E003E00
1E003E00
1E001E00
1E001E00
1E001E00
1E001E00
1E001E00
1E001E00
1E003E00
1F007C00
1FC1FC00
1FFFF800
1FFFF000
1EFFE000
1E3F0000
ENDCHAR
STARTCHAR c
ENCODING 99
SWIDTH 480 0
DWIDTH 21 0
BBX 21 21 0 0
BITMAP
003F80
01FFE0
03FFE0
07FFE0
0FC0E0
1F0020
1E0000
3E0000
3C0000
3C0000
3C0000
3C0000
3C0000
3E0000
1F0000
1F8020
0FC0E0
07FFE0
03FFE0
01FFC0
003F00
ENDCHAR
STARTCHAR d
ENCODING 100
SWIDTH 571 0
DWIDTH 25 0
BBX 25 29 0 0
BITMAP
00003C00
00003C00
00003C00
00003C00
00003C00
00003C00
00003C00
00003C00
007F3C00
01FFFC00
03FFFC00
07FFFC00
0FC0FC00
1F003C00
1F003C00
3E003C00
3C003C00
3C003C00
3C003C00
3C003C00
3C003C00
3E003C00
1E003C00
1F007C00
0FC1FC00
0FFFFC00
07FFFC00
01FFBC00
007E3C00
ENDCHAR
STARTCHAR e
ENCODING 101
SWIDTH 526 0
DWIDTH 23 0
BBX 23 21 0 0
BITMAP
007E00
01FF80
07FFC0
0FFFE0
0F81F0
1F00F0
1E0078
3C0078
3FFFF8
3FFFF8
3FFFF8
3FFFF8
3C0000
3E0000
1E0000
1F0018
0FC078
0FFFF8
03FFF8
01FFF0
007F80
ENDCHAR
STARTCHAR f
ENCODING 102
SWIDTH 366 0
DWIDTH 16 0
BBX 16 29 0 0
BITMAP
007F
01FF
03FF
07FF
07C0
0F00
0F00
0F00
7FFF
7FFF
7FFF
7FFF
0F00
0F00
0F00
0F00
0F00
0F00
0F00
0F00
0F00
0F00
0F00
0F00
0F00
0F00
0F00
0F00
0F00
ENDCHAR
STARTCHAR g
ENCODING 103
SWIDTH 503 0
DWIDTH 22 0
BBX 22 29 0 -8
BITMAP
01FFF8
07FFF8
0FFFF8
1FFFF8
1F07C0
3C03C0
3C03C0
3C01C0
3C03C0
3E03C0
1F07C0
1FFF80
0FFF80
07FF00
0FF800
1E0000
1F8000
0FF800
07FF00
0FFFC0
3E1FE0
7801F0
7800F0
780078
7C01F0
7FFFF0
3FFFE0
1FFFC0
03FE00
ENDCHAR
STARTCHAR h
ENCODING 104
SWIDTH 571 0
DWIDTH 25 0
BBX 25 29 0 0
BITMAP
1E000000
1E000000
1E000000
1E000000
1E000000
1E000000
1E000000
1E000000
1E3F8000
1EFFE000
1FFFF000
1FFFF800
1FC1F800
1F007C00
1E007C00
1E003C00
1E003C00
1E003C00
1E003C00
1E003C00
1E003C00
1E003C00
1E003C00
1E003C00
1E003C00
1E003C00
1E003C00
1E003C00
1E003C00
ENDCHAR
STARTCHAR i
ENCODING 105
SWIDTH 251 0
DWIDTH 11 0
BBX 11 28 0 0
BITMAP
0C00
1E00
1F00
0E00
0400
0000
1E00
1E00
1E00
1E00
1E00
1E00
1E00
1E00
1E00
1E00
1E00
1E00
1E00
1E00
1E00
1E00
1E00
1E00
1E00
1E00
1E00
0000
ENDCHAR
STARTCHAR j
ENCODING 106
SWIDTH 251 0
DWIDTH 11 0
BBX 12 36 -1 -8
BITMAP
0200
0700
0F80
0F80
0700
0200
0000
0F00
0F00
0F00
0F00
0F00
0F00
0F00
0F00
0F00
0F00
0F00
0F00
0F00
0F00
0F00
0F00
0F00
0F00
0F00
0F00
0F00
0F00
0F00
0F00
1F00
FF00
FE00
FC00
F800
ENDCHAR
STARTCHAR k
ENCODING 107
SWIDTH 503 0
DWIDTH 22 0
BBX 23 29 0 0
BITMAP
1E0000
1E0000
1E0000
1E0000
1E0000
1E0000
1E0000
1E0000
1E01F8
1E03F0
1E07E0
1E0FC0
1E1F80
1E3E00
1E7C00
1EF800
1FF000
1FE000
1FF000
1EF800
1E7C00
1E3E00
1E3F00
1E1F80
1E0FC0
1E07E0
1E03F0
1E01F8
1E00FC
ENDCHAR
STARTCHAR l
ENCODING 108
SWIDTH 320 0
DWIDTH 14 0
BBX 14 29 0 0
BITMAP
1E00
1E00
1E00
1E00
1E00
1E00
1E00
1E00
1E00
1E00
1E00
1E00
1E00
1E00
1E00
1E00
1E00
1E00
1E00
1E00
1E00
1E00
1E00
1E00
1F00
0FF8
0FF8
07F8
03F8
ENDCHAR
STARTCHAR m
ENCODING 109
SWIDTH 891 0
DWIDTH 39 0
BBX 39 21 0 0
BITMAP
1E3F00FE00
1EFFC7FF80
1FFFEFFFC0
1FFFFFFFC0
1FC1FF07E0
1F00FC01E0
1E007801F0
1E007C00F0
1E003C00F0
1E003C00F0
1E003C00F0
1E003C00F0
1E003C00F0
1E003C00F0
1E003C00F0
1E003C00F0
1E003C00F0
1E003C00F0
1E003C00F0
1E003C00F0
1E003C00F0
ENDCHAR
STARTCHAR n
ENCODING 110
SWIDTH 571 0
DWIDTH 25 0
BBX 25 21 0 0
BITMAP
1E3F8000
1EFFE000
1FFFF000
1FFFF800
1FC1F800
1F007C00
1E007C00
1E003C00
1E003C00
1E003C00
1E003C00
1E003C00
1E003C00
1E003C00
1E003C00
1E003C00
1E003C00
1E003C00
1E003C00
1E003C00
1E003C00
ENDCHAR
STARTCHAR o
ENCODING 111
SWIDTH 594 0
DWIDTH 26 0
BBX 26 21 0 0
BITMAP
007F0000
01FFE000
03FFF000
07FFF800
0FC1FC00
1F007C00
1E003E00
3E001E00
3C001E00
3C001F00
3C000F00
3C001F00
3C001E00
3E001E00
1E003E00
1F007C00
0FC1FC00
07FFF800
03FFF000
01FFC000
007F0000
ENDCHAR
STARTCHAR p
ENCODING 112
SWIDTH 571 0
DWIDTH 25 0
BBX 25 29 0 -8
BITMAP
1E3F0000
1EFFE000
1FFFF000
1FFFF800
1FC1FC00
1F007C00
1E003E00
1E003E00
1E001E00
1E001E00
1E001E00
1E001E00
1E001E00
1E003E00
1E003E00
1E007C00
1F81FC00
1FFFF800
1FFFF000
1FFFC000
1E7F0000
1E000000
1E000000
1E000000
1E000000
1E000000
1E000000
1E000000
1E000000
ENDCHAR
STARTCHAR q
ENCODING 113
SWIDTH 571 0
DWIDTH 25 0
BBX 25 29 0 -8
BITMAP
007E3C00
01FFBC00
03FFFC00
0FFFFC00
0FC1FC00
1F007C00
1E003C00
3E003C00
3C003C00
3C003C00
3C003C00
3C003C00
3C003C00
3E003C00
1E003C00
1F003C00
0FC0FC00
0FFFFC00
07FFFC00
01FFFC00
007F3C00
00003C00
00003C00
00003C00
00003C00
00003C00
00003C00
00003C00
00003C00
ENDCHAR
STARTCHAR r
ENCODING 114
SWIDTH 389 0
DWIDTH 17 0
BBX 17 21 0 0
BITMAP
1E3F00
1EFF00
1FFF00
1FFF00
1FC000
1F0000
1E0000
1E0000
1E0000
1E0000
1E0000
1E0000
1E0000
1E0000
1E0000
1E0000
1E0000
1E0000
1E0000
1E0000
1E0000
ENDCHAR
STARTCHAR s
ENCODING 115
SWIDTH 457 0
DWIDTH 20 0
BBX 20 21 0 0
BITMAP
01F800
07FE00
0FFF80
1FFF80
3E0780
3C0080
3C0000
3E0000
1FC000
1FFC00
0FFF00
03FF80
003FC0
0007C0
2003C0
3803C0
3E07C0
3FFFC0
3FFF80
1FFF00
03FC00
ENDCHAR
STARTCHAR t
ENCODING 116
SWIDTH 389 0
DWIDTH 17 0
BBX 17 26 0 0
BITMAP
0F0000
0F0000
0F0000
0F0000
0F0000
7FFF00
7FFF00
7FFF00
7FFF00
0F0000
0F0000
0F0000
0F0000
0F0000
0F0000
0F0000
0F0000
0F0000
0F0000
0F0000
0F8000
0FC000
07FF00
07FF00
03FF00
00FF00
ENDCHAR
STARTCHAR u
ENCODING 117
SWIDTH 571 0
DWIDTH 25 0
BBX 25 21 0 0
BITMAP
1E003C00
1E003C00
1E003C00
1E003C00
1E003C00
1E003C00
1E003C00
1E003C00
1E003C00
1E003C00
1E003C00
1E003C00
1E003C00
1E003C00
1F003C00
0F807C00
0FC1FC00
07FFFC00
07FFFC00
03FFBC00
007E3C00
ENDCHAR
STARTCHAR v
ENCODING 118
SWIDTH 526 0
DWIDTH 23 0
BBX 23 21 0 0
BITMAP
78007C
7C0078
3C0078
3E00F8
1E00F0
1E01F0
1F01E0
0F01E0
0F03E0
0783C0
0783C0
07C780
03C780
03CF00
01EF00
01EF00
00FE00
00FE00
00FC00
007C00
007800
ENDCHAR
STARTCHAR w
ENCODING 119
SWIDTH 823 0
DWIDTH 36 0
BBX 36 21 0 0
BITMAP
7C00F001E0
3C00F003E0
3C01F803C0
3E01F803C0
1E01FC07C0
1E03FC0780
1F03FC0780
0F039E0F80
0F079E0F00
0F878E0F00
078F0F0F00
078F0F1E00
078F079E00
03DE079E00
03DE07BC00
03DC03FC00
01FC03FC00
01FC03F800
01F801F800
00F801F800
00F800F000
ENDCHAR
STARTCHAR x
ENCODING 120
SWIDTH 503 0
DWIDTH 22 0
BBX 22 21 0 0
BITMAP
3C01F0
3E03E0
1F03C0
0F8780
078F80
07DF00
03FE00
01FE00
00FC00
00F800
00FC00
01FC00
03FE00
03DF00
07CF80
0F8780
1F07C0
1E03E0
3E01F0
7C00F0
7800F8
ENDCHAR
STARTCHAR y
ENCODING 121
SWIDTH 526 0
DWIDTH 23 0
BBX 23 29 0 -8
BITMAP
78003C
7C007C
3C0078
3C00F8
1E00F0
1E00F0
1F01E0
0F01E0
0F03E0
0783C0
0783C0
03C780
03C780
03C780
01EF00
01EF00
00FE00
00FE00
007E00
007C00
007C00
007800
007800
00F800
01F000
0FF000
0FE000
0FC000
0F8000
ENDCHAR
STARTCHAR z
ENCODING 122
SWIDTH 457 0
DWIDTH 20 0
BBX 20 21 0 0
BITMAP
3FFFE0
3FFFC0
3FFF80
3FFF80
000F00
001F00
003E00
003C00
007C00
00F800
00F000
01F000
03E000
03C000
07C000
0F8000
0F0000
1FFFC0
3FFFC0
3FFFC0
7FFFC0
ENDCHAR
STARTCHAR {
ENCODING 123
SWIDTH 343 0
DWIDTH 15 0
BBX 15 38 0 -5
BITMAP
0078
01F8
03F8
03E0
03C0
0380
0380
0380
0380
0380
0380
0380
0380
0380
0780
0F80
1F00
3E00
3C00
3E00
1F00
0F80
0780
0380
0380
0380
0380
0380
0380
0380
0380
0380
03C0
03C0
03E0
03F8
01F8
0078
ENDCHAR
STARTCHAR |
ENCODING 124
SWIDTH 229 0
DWIDTH 10 0
BBX 10 42 0 -11
BITMAP
1E00
1E00
1E00
1E00
1E00
1E00
1E00
1E00
1E00
1E00
1E00
1E00
1E00
1E00
1E00
1E00
1E00
1E00
1E00
1E00
1E00
1E00
1E00
1E00
1E00
1E00
1E00
1E00
1E00
1E00
1E00
1E00
1E00
1E00
1E00
1E00
1E00
1E00
1E00
1E00
1E00
1E00
ENDCHAR
STARTCHAR }
ENCODING 125
SWIDTH 343 0
DWIDTH 15 0
BBX 15 38 0 -5
BITMAP
3C00
3F00
3F80
0780
0780
0380
0380
0380
0380
0380
0380
0380
0380
03C0
03C0
03E0
01F0
00F8
0078
00F8
01F0
03E0
03C0
03C0
0380
0380
0380
0380
0380
0380
0380
0380
0380
0780
0780
3F80
3F00
3C00
ENDCHAR
STARTCHAR ~
ENCODING 126
SWIDTH 526 0
DWIDTH 23 0
BBX 23 18 0 0
BITMAP
03C060
07E070
0FF070
1FFCF0
1C7FE0
1C3FE0
3C0FC0
080780
000000
000000
000000
000000
000000
000000
000000
000000
000000
000000
ENDCHAR
STARTCHAR U+00A0
ENCODING 160
SWIDTH 251 0
DWIDTH 11 0
BBX 11 49 0 -11
BITMAP
0000
0000
0000
0000
0000
0000
0000
0000
0000
0000
0000
0000
0000
0000
0000
0000
0000
0000
0000
0000
0000
0000
0000
0000
0000
0000
0000
0000
0000
0000
0000
0000
0000
0000
0000
0000
0000
0000
0000
0000
0000
0000
0000
0000
0000
0000
0000
0000
0000
ENDCHAR
STARTCHAR U+00A1
ENCODING 161
SWIDTH 274 0
DWIDTH 12 0
BBX 12 29 0 -8
BITMAP
0000
0600
0F00
0F00
0600
0000
0000
0600
0600
0600
0700
0F00
0F00
0F00
0F00
0F00
0F00
0F00
0F00
0F00
0F00
0F00
0F00
0F00
0F00
0F00
0F00
0F00
0F00
ENDCHAR
STARTCHAR U+00A2
ENCODING 162
SWIDTH 480 0
DWIDTH 21 0
BBX 21 27 0 -3
BITMAP
001E00
001E00
001E00
007F80
01FFE0
03FFE0
07FFE0
0FC0E0
1F0020
1E0000
3E0000
3C0000
3C0000
3C0000
3C0000
3C0000
3E0000
1F0000
1F8020
0FC0E0
07FFE0
03FFE0
01FFC0
003F00
001E00
001E00
001E00
ENDCHAR
STARTCHAR U+00A3
ENCODING 163
SWIDTH 526 0
DWIDTH 23 0
BBX 23 29 0 0
BITMAP
001FC0
003FE0
007FF0
00FFF0
01F0E0
01E020
01E000
03E000
03C000
03C000
03C000
03C000
03C000
03C000
1FFF00
1FFF00
1FFF00
1FFF00
07C000
078000
078000
078000
078000
0F0000
0F0000
0FFFF8
1FFFF0
3FFFF0
3FFFE0
ENDCHAR
STARTCHAR U+00A4
ENCODING 164
SWIDTH 571 0
DWIDTH 25 0
BBX 25 22 0 0
BITMAP
04000800
0E001C00
1E003E00
1F3F7E00
1FFFFC00
0FFFF800
07FFF000
07C1F000
0780F800
0F807800
0F007800
0F007800
0F007800
0F807800
0780F800
07C1F000
07FFF800
0FFFFC00
1FFFFE00
1F3F7E00
0E003C00
04000800
ENDCHAR
STARTCHAR U+00A5
ENCODING 165
SWIDTH 594 0
DWIDTH 26 0
BBX 26 29 0 0
BITMAP
7C000F80
3E001F00
1F001E00
1F003E00
0F807C00
07C07C00
07C0F800
03E0F000
03E1F000
01F3E000
1FFBFE00
1FFFFE00
1FFFFE00
003F0000
001F0000
001E0000
001E0000
1FFFFE00
1FFFFE00
1FFFFE00
001E0000
001E0000
001E0000
001E0000
001E0000
001E0000
001E0000
001E0000
001E0000
ENDCHAR
STARTCHAR U+00A6
ENCODING 166
SWIDTH 229 0
DWIDTH 10 0
BBX 10 42 0 -11
BITMAP
1E00
1E00
1E00
1E00
1E00
1E00
1E00
1E00
1E00
1E00
1E00
1E00
1E00
1E00
1E00
1E00
1E00
0000
0000
0000
0000
0000
0000
0000
0000
1E00
1E00
1E00
1E00
1E00
1E00
1E00
1E00
1E00
1E00
1E00
1E00
1E00
1E00
1E00
1E00
1E00
ENDCHAR
STARTCHAR U+00A7
ENCODING 167
SWIDTH 480 0
DWIDTH 21 0
BBX 21 37 0 -8
BITMAP
01F800
07FF00
1FFF80
1F0F80
3E0380
3C0300
3C0000
3C0000
3E0000
1F0000
1FC000
0FF800
07FE00
1FFF80
3FBFC0
3C0FC0
7803E0
7803E0
7801E0
7C01E0
7E03E0
3FC7C0
1FFF80
0FFF00
03FF00
00FF80
001FC0
0007C0
0003C0
0003C0
0803C0
3C03C0
3C03C0
3F0F80
1FFF00
07FE00
01F800
ENDCHAR
STARTCHAR U+00A8
ENCODING 168
SWIDTH 434 0
DWIDTH 19 0
BBX 20 29 0 0
BITMAP
FFFFE0
FFFFE0
FFFFE0
FFFFE0
F001E0
F001E0
F001E0
F001E0
F001E0
F001E0
F001E0
F001E0
F001E0
F001E0
F001E0
F001E0
F001E0
F001E0
F001E0
F001E0
F001E0
F001E0
F001E0
F001E0
F001E0
FFFFE0
FFFFE0
FFFFE0
FFFFE0
ENDCHAR
STARTCHAR U+00A9
ENCODING 169
SWIDTH 777 0
DWIDTH 34 0
BBX 34 29 0 0
BITMAP
0007F80000
003FFE0000
00780F8000
01E001C000
038000E000
0700007000
0603F03800
0E0FFC1C00
0C1FFE0C00
183E0E0E00
1878020600
1870000600
18F0000600
38F0000600
30F0000600
38F0000600
38F0000600
18F0000600
1878000600
187C020C00
0C3E0E0C00
0E1FFE1C00
060FFC3800
0703F07000
038000E000
01E001C000
00780F8000
003FFE0000
0007F80000
ENDCHAR
STARTCHAR U+00AA
ENCODING 170
SWIDTH 297 0
DWIDTH 13 0
BBX 13 29 0 0
BITMAP
3F80
3FC0
3FE0
00E0
00E0
07E0
1FE0
3CE0
70E0
70E0
78E0
3FE0
1EE0
0000
0000
0000
0000
0000
0000
0000
0000
0000
0000
0000
0000
0000
0000
0000
0000
ENDCHAR
STARTCHAR U+00AB
ENCODING 171
SWIDTH 549 0
DWIDTH 24 0
BBX 24 21 0 0
BITMAP
00F87C
00F078
01E0F0
03C1E0
07C3E0
0783C0
0F0780
1E0F00
3C1E00
3C1E00
1E0F00
0F0780
0783C0
0783C0
03C1E0
01E0F0
00F078
00F87C
000000
000000
000000
ENDCHAR
STARTCHAR U+00AC
ENCODING 172
SWIDTH 526 0
DWIDTH 23 0
BBX 23 20 0 0
BITMAP
1FFFF0
1FFFF0
1FFFF0
1FFFF0
0000F0
0000F0
0000F0
0000F0
0000F0
0000F0
0000F0
0000F0
0000F0
000000
000000
000000
000000
000000
000000
000000
ENDCHAR
STARTCHAR U+00AD
ENCODING 173
SWIDTH 366 0
DWIDTH 16 0
BBX 16 13 0 0
BITMAP
7FFE
7FFE
7FFE
7FFE
0000
0000
0000
0000
0000
0000
0000
0000
0000
ENDCHAR
STARTCHAR U+00AE
ENCODING 174
SWIDTH 777 0
DWIDTH 34 0
BBX 34 29 0 0
BITMAP
0007F80000
003FFE0000
00780F8000
01E001C000
038000E000
0700003000
061FF03800
0E1FF81C00
0C1FFC0C00
181E3C0E00
181E1E0600
181E1E0600
181E1C0600
301E3C0600
301FF80600
381FF00600
381E700600
181E780600
181E3C0600
181E3C0C00
0C1E1E0C00
0E1E0F1C00
061E0F3800
0700007000
038000E000
01E001C000
00780F8000
003FFE0000
0007F80000
ENDCHAR
STARTCHAR U+00AF
ENCODING 175
SWIDTH 434 0
DWIDTH 19 0
BBX 20 29 0 0
BITMAP
FFFFE0
FFFFE0
FFFFE0
FFFFE0
F001E0
F001E0
F001E0
F001E0
F001E0
F001E0
F001E0
F001E0
F001E0
F001E0
F001E0
F001E0
F001E0
F001E0
F001E0
F001E0
F001E0
F001E0
F001E0
F001E0
F001E0
FFFFE0
FFFFE0
FFFFE0
FFFFE0
ENDCHAR
STARTCHAR U+00B0
ENCODING 176
SWIDTH 366 0
DWIDTH 16 0
BBX 16 29 0 0
BITMAP
03E0
0FF0
1FF8
1E3C
3C1C
381C
381C
3C1C
1E3C
1FF8
0FF0
03E0
0000
0000
0000
0000
0000
0000
0000
0000
0000
0000
0000
0000
0000
0000
0000
0000
0000
ENDCHAR
STARTCHAR U+00B1
ENCODING 177
SWIDTH 526 0
DWIDTH 23 0
BBX 23 24 0 0
BITMAP
007800
007800
007800
007800
007800
007800
1FFFF0
1FFFF0
1FFFF0
1FFFF0
007800
007800
007800
007800
007800
007800
000000
000000
000000
000000
1FFFF0
1FFFF0
1FFFF0
1FFFF0
ENDCHAR
STARTCHAR U+00B2
ENCODING 178
SWIDTH 320 0
DWIDTH 14 0
BBX 14 29 0 0
BITMAP
1F80
3FE0
3FE0
30F0
2070
0070
00F0
00F0
01E0
01E0
03C0
03C0
0780
0F00
0F00
1FF0
1FF0
3FF0
0000
0000
0000
0000
0000
0000
0000
0000
0000
0000
0000
ENDCHAR
STARTCHAR U+00B3
ENCODING 179
SWIDTH 320 0
DWIDTH 14 0
BBX 14 29 0 0
BITMAP
7FF0
7FF0
7FE0
01E0
01C0
0380
0380
07E0
0FF0
00F0
0078
0038
0038
2078
78F0
7FF0
3FE0
0F80
0000
0000
0000
0000
0000
0000
0000
0000
0000
0000
0000
ENDCHAR
STARTCHAR U+00B4
ENCODING 180
SWIDTH 434 0
DWIDTH 19 0
BBX 20 29 0 0
BITMAP
FFFFE0
FFFFE0
FFFFE0
FFFFE0
F001E0
F001E0
F001E0
F001E0
F001E0
F001E0
F001E0
F001E0
F001E0
F001E0
F001E0
F001E0
F001E0
F001E0
F001E0
F001E0
F001E0
F001E0
F001E0
F001E0
F001E0
FFFFE0
FFFFE0
FFFFE0
FFFFE0
ENDCHAR
STARTCHAR U+00B5
ENCODING 181
SWIDTH 549 0
DWIDTH 24 0
BBX 24 29 0 -8
BITMAP
1E0078
1E0078
1E0078
1E0078
1E0078
1E0078
1E0078
1E0078
1E0078
1E0078
1E0078
1E0078
1E0078
1F0078
1F0078
1F80F8
1FC1F8
1FFFF8
1FFFF8
1EFF78
1E7E78
1E0000
1E0000
1E0000
1E0000
1E0000
1E0000
1E0000
1E0000
ENDCHAR
STARTCHAR U+00B6
ENCODING 182
SWIDTH 526 0
DWIDTH 23 0
BBX 23 37 0 -8
BITMAP
01FFFC
07FFFC
0FFFFC
1FFC70
1FFC70
3FFC70
3FFC70
3FFC70
3FFC70
3FFC70
3FFC70
1FFC70
1FFC70
0FFC70
07FC70
01FC70
003C70
003C70
003C70
003C70
003C70
003C70
003C70
003C70
003C70
003C70
003C70
003C70
003C70
003C70
003C70
003C70
003C70
003C70
003C70
003C70
003C70
ENDCHAR
STARTCHAR U+00B7
ENCODING 183
SWIDTH 229 0
DWIDTH 10 0
BBX 10 17 0 0
BITMAP
0400
0E00
1F00
1F00
0E00
0400
0000
0000
0000
0000
0000
0000
0000
0000
0000
0000
0000
ENDCHAR
STARTCHAR U+00B8
ENCODING 184
SWIDTH 434 0
DWIDTH 19 0
BBX 20 29 0 0
BITMAP
FFFFE0
FFFFE0
FFFFE0
FFFFE0
F001E0
F001E0
F001E0
F001E0
F001E0
F001E0
F001E0
F001E0
F001E0
F001E0
F001E0
F001E0
F001E0
F001E0
F001E0
F001E0
F001E0
F001E0
F001E0
F001E0
F001E0
FFFFE0
FFFFE0
FFFFE0
FFFFE0
ENDCHAR
STARTCHAR U+00B9
ENCODING 185
SWIDTH 229 0
DWIDTH 10 0
BBX 10 29 0 0
BITMAP
0200
0600
1E00
1E00
1E00
1E00
1E00
1E00
1E00
1E00
1E00
1E00
1E00
1E00
1E00
1E00
1E00
1E00
0000
0000
0000
0000
0000
0000
0000
0000
0000
0000
0000
ENDCHAR
STARTCHAR U+00BA
ENCODING 186
SWIDTH 366 0
DWIDTH 16 0
BBX 16 29 0 0
BITMAP
07E0
0FF0
1FF8
3C3C
381C
780E
700E
700E
780E
381C
3C3C
1FF8
0FF0
07E0
0000
0000
0000
0000
0000
0000
0000
0000
0000
0000
0000
0000
0000
0000
0000
ENDCHAR
STARTCHAR U+00BB
ENCODING 187
SWIDTH 549 0
DWIDTH 24 0
BBX 24 21 0 0
BITMAP
3C1E00
1E0F00
0F0780
0787C0
0783C0
03C1E0
01E0F0
00F078
00F078
00783C
00F078
01E0F0
03C1E0
07C3C0
0783C0
0F0780
1E0F00
3C1E00
000000
000000
000000
ENDCHAR
STARTCHAR U+00BC
ENCODING 188
SWIDTH 777 0
DWIDTH 34 0
BBX 34 29 0 0
BITMAP
0200070000
06000F0000
1E000E0000
1E001E0000
1E001C0000
1E003C0000
1E00380000
1E00780000
1E00700000
1E00F00000
1E00E00000
1E01E00000
1E01C00200
1E03C00600
1E03800E00
1E07801E00
1E07003E00
1E0F007E00
000E00FE00
001E01EE00
001C01CE00
003C038E00
0038070E00
00780FFF80
00701FFF80
00F03FFF80
00E0000E00
01E0000E00
01C0000E00
ENDCHAR
STARTCHAR U+00BD
ENCODING 189
SWIDTH 800 0
DWIDTH 35 0
BBX 35 29 0 0
BITMAP
0200070000
06000F0000
1E000E0000
1E001E0000
1E001C0000
1E003C0000
1E00380000
1E00780000
1E00700000
1E00F00000
1E00E00000
1E01E0FC00
1E01C1FF00
1E03C1FF00
1E03818780
1E07810380
1E07000380
1E0F000780
000E000780
001E000F00
001C000F00
003C001E00
0038001E00
0078003C00
0070007800
00F0007800
00E000FF80
01E000FF80
01C001FF80
ENDCHAR
STARTCHAR U+00BE
ENCODING 190
SWIDTH 846 0
DWIDTH 37 0
BBX 37 29 0 0
BITMAP
7FF000E000
7FF001E000
7FE001C000
01E003C000
01C0038000
0380078000
0380070000
07E00F0000
0FF00E0000
00F01E0000
00781C0000
00383C0000
0038380040
20787800C0
78F07001C0
7FF0F003C0
3FE0E007C0
0F81E00FC0
0001C01FC0
0003C03DC0
00038039C0
00078071C0
000700E1C0
000F01FFF0
000E03FFF0
001E07FFF0
001C0001C0
003C0001C0
00380001C0
ENDCHAR
STARTCHAR U+00BF
ENCODING 191
SWIDTH 434 0
DWIDTH 19 0
BBX 19 28 0 -8
BITMAP
002000
007000
00F800
00F800
007000
002000
000000
002000
007000
00F800
007C00
003C00
003C00
007C00
01F800
07F000
0FE000
1F8000
1F0000
3E0000
3E0000
3E0000
3E0100
1F0780
1FFFC0
0FFFC0
07FF00
01FC00
ENDCHAR
STARTCHAR U+00C0
ENCODING 192
SWIDTH 640 0
DWIDTH 28 0
BBX 28 37 0 0
BITMAP
007C0000
003E0000
001E0000
000F0000
00078000
00038000
00000000
00000000
000F0000
000F0000
001F8000
001F8000
003FC000
003FC000
003FC000
0079E000
0079E000
00F9F000
00F0F000
00F0F000
01F0F800
01E07800
03E07C00
03C03C00
03C03C00
07C03E00
07FFFE00
07FFFF00
0FFFFF00
0FFFFF00
1F000F80
1E000780
1E0007C0
3E0007C0
3C0003C0
7C0003E0
7C0001E0
ENDCHAR
STARTCHAR U+00C1
ENCODING 193
SWIDTH 640 0
DWIDTH 28 0
BBX 28 37 0 0
BITMAP
0001E000
0003C000
00078000
00078000
000F0000
001E0000
00000000
00000000
000F0000
000F0000
001F8000
001F8000
003FC000
003FC000
003FC000
0079E000
0079E000
00F9F000
00F0F000
00F0F000
01F0F800
01E07800
03E07C00
03C03C00
03C03C00
07C03E00
07FFFE00
07FFFF00
0FFFFF00
0FFFFF00
1F000F80
1E000780
1E0007C0
3E0007C0
3C0003C0
7C0003E0
7C0001E0
ENDCHAR
STARTCHAR U+00C2
ENCODING 194
SWIDTH 640 0
DWIDTH 28 0
BBX 28 37 0 0
BITMAP
000F8000
001FC000
001DC000
0038E000
00787000
00703000
00000000
00000000
000F0000
000F0000
001F8000
001F8000
003FC000
003FC000
003FC000
0079E000
0079E000
00F9F000
00F0F000
00F0F000
01F0F800
01E07800
03E07C00
03C03C00
03C03C00
07C03E00
07FFFE00
07FFFF00
0FFFFF00
0FFFFF00
1F000F80
1E000780
1E0007C0
3E0007C0
3C0003C0
7C0003E0
7C0001E0
ENDCHAR
STARTCHAR U+00C3
ENCODING 195
SWIDTH 640 0
DWIDTH 28 0
BBX 28 37 0 0
BITMAP
00782000
00FE3000
00FFF800
01FFF000
00C7F000
0001C000
00000000
00000000
000F0000
000F0000
001F8000
001F8000
003FC000
003FC000
003FC000
0079E000
0079E000
00F9F000
00F0F000
00F0F000
01F0F800
01E07800
03E07C00
03C03C00
03C03C00
07C03E00
07FFFE00
07FFFF00
0FFFFF00
0FFFFF00
1F000F80
1E000780
1E0007C0
3E0007C0
3C0003C0
7C0003E0
7C0001E0
ENDCHAR
STARTCHAR U+00C4
ENCODING 196
SWIDTH 640 0
DWIDTH 28 0
BBX 28 37 0 0
BITMAP
00404000
00E0E000
01F1F000
01F1F000
00E0E000
00404000
00000000
00000000
000F0000
000F0000
001F8000
001F8000
003FC000
003FC000
003FC000
0079E000
0079E000
00F9F000
00F0F000
00F0F000
01F0F800
01E07800
03E07C00
03C03C00
03C03C00
07C03E00
07FFFE00
07FFFF00
0FFFFF00
0FFFFF00
1F000F80
1E000780
1E0007C0
3E0007C0
3C0003C0
7C0003E0
7C0001E0
ENDCHAR
STARTCHAR U+00C5
ENCODING 197
SWIDTH 640 0
DWIDTH 28 0
BBX 28 39 0 0
BITMAP
000F0000
001F8000
00318000
0030C000
0030C000
00318000
001F8000
000F0000
00000000
00000000
000F0000
000F0000
001F8000
001F8000
003FC000
003FC000
003FC000
0079E000
0079E000
00F9F000
00F0F000
00F0F000
01F0F800
01E07800
03E07C00
03C03C00
03C03C00
07C03E00
07FFFE00
07FFFF00
0FFFFF00
0FFFFF00
1F000F80
1E000780
1E0007C0
3E0007C0
3C0003C0
7C0003E0
7C0001E0
ENDCHAR
STARTCHAR U+00C6
ENCODING 198
SWIDTH 891 0
DWIDTH 39 0
BBX 39 29 0 0
BITMAP
0000FFFFF0
0000FFFFF0
0001FFFFF0
0001FFFFF0
0003FF0000
0003DF0000
0007DF0000
000F9F0000
000F1F0000
001F1F0000
001E1F0000
003E1FFF80
003C1FFF80
007C1FFF80
00781FFF80
00F81F0000
01FFFF0000
01FFFF0000
03FFFF0000
03FFFF0000
07C01F0000
07801F0000
0F801F0000
1F001F0000
1F001F0000
3E001FFFF8
3E001FFFF8
7C001FFFF8
7C001FFFF8
ENDCHAR
STARTCHAR U+00C7
ENCODING 199
SWIDTH 663 0
DWIDTH 29 0
BBX 29 38 0 -9
BITMAP
0007F800
001FFF00
007FFF80
00FFFFC0
03FC07C0
03F000C0
07C00040
0F800000
0F000000
1F000000
1E000000
1E000000
1E000000
3E000000
3E000000
3E000000
1E000000
1E000000
1F000000
1F000000
0F800000
0F800000
07C00040
03F000C0
01FC07C0
00FFFFC0
007FFF80
001FFE00
0007F800
00038000
0003E000
0007F000
0000F800
00007800
0000F000
000FF000
000FE000
000F8000
ENDCHAR
STARTCHAR U+00C8
ENCODING 200
SWIDTH 549 0
DWIDTH 24 0
BBX 24 37 0 0
BITMAP
01F000
00F800
007800
003C00
001E00
000E00
000000
000000
0FFFFC
0FFFFC
0FFFFC
0FFFFC
0F0000
0F0000
0F0000
0F0000
0F0000
0F0000
0F0000
0FFFE0
0FFFE0
0FFFE0
0FFFE0
0F0000
0F0000
0F0000
0F0000
0F0000
0F0000
0F0000
0F0000
0F0000
0F0000
0FFFFC
0FFFFC
0FFFFC
0FFFFC
ENDCHAR
STARTCHAR U+00C9
ENCODING 201
SWIDTH 549 0
DWIDTH 24 0
BBX 24 37 0 0
BITMAP
0003C0
000780
000F00
000F00
001E00
003C00
000000
000000
0FFFFC
0FFFFC
0FFFFC
0FFFFC
0F0000
0F0000
0F0000
0F0000
0F0000
0F0000
0F0000
0FFFE0
0FFFE0
0FFFE0
0FFFE0
0F0000
0F0000
0F0000
0F0000
0F0000
0F0000
0F0000
0F0000
0F0000
0F0000
0FFFFC
0FFFFC
0FFFFC
0FFFFC
ENDCHAR
STARTCHAR U+00CA
ENCODING 202
SWIDTH 549 0
DWIDTH 24 0
BBX 24 37 0 0
BITMAP
003E00
007F00
007700
00E380
01E1C0
01C0C0
000000
000000
0FFFFC
0FFFFC
0FFFFC
0FFFFC
0F0000
0F0000
0F0000
0F0000
0F0000
0F0000
0F0000
0FFFE0
0FFFE0
0FFFE0
0FFFE0
0F0000
0F0000
0F0000
0F0000
0F0000
0F0000
0F0000
0F0000
0F0000
0F0000
0FFFFC
0FFFFC
0FFFFC
0FFFFC
ENDCHAR
STARTCHAR U+00CB
ENCODING 203
SWIDTH 549 0
DWIDTH 24 0
BBX 24 37 0 0
BITMAP
008080
01C1C0
03E3E0
03E3E0
01C1C0
008080
000000
000000
0FFFFC
0FFFFC
0FFFFC
0FFFFC
0F0000
0F0000
0F0000
0F0000
0F0000
0F0000
0F0000
0FFFE0
0FFFE0
0FFFE0
0FFFE0
0F0000
0F0000
0F0000
0F0000
0F0000
0F0000
0F0000
0F0000
0F0000
0F0000
0FFFFC
0FFFFC
0FFFFC
0FFFFC
ENDCHAR
STARTCHAR U+00CC
ENCODING 204
SWIDTH 274 0
DWIDTH 12 0
BBX 12 37 0 0
BITMAP
7C00
3E00
1E00
0F00
0780
0380
0000
0000
0F00
0F00
0F00
0F00
0F00
0F00
0F00
0F00
0F00
0F00
0F00
0F00
0F00
0F00
0F00
0F00
0F00
0F00
0F00
0F00
0F00
0F00
0F00
0F00
0F00
0F00
0F00
0F00
0F00
ENDCHAR
STARTCHAR U+00CD
ENCODING 205
SWIDTH 274 0
DWIDTH 12 0
BBX 12 37 0 0
BITMAP
01E0
03C0
0780
0780
0F00
1E00
0000
0000
0F00
0F00
0F00
0F00
0F00
0F00
0F00
0F00
0F00
0F00
0F00
0F00
0F00
0F00
0F00
0F00
0F00
0F00
0F00
0F00
0F00
0F00
0F00
0F00
0F00
0F00
0F00
0F00
0F00
ENDCHAR
STARTCHAR U+00CE
ENCODING 206
SWIDTH 274 0
DWIDTH 12 0
BBX 13 37 0 0
BITMAP
0F80
1FC0
1DC0
38E0
7870
7030
0000
0000
0F00
0F00
0F00
0F00
0F00
0F00
0F00
0F00
0F00
0F00
0F00
0F00
0F00
0F00
0F00
0F00
0F00
0F00
0F00
0F00
0F00
0F00
0F00
0F00
0F00
0F00
0F00
0F00
0F00
ENDCHAR
STARTCHAR U+00CF
ENCODING 207
SWIDTH 274 0
DWIDTH 12 0
BBX 15 37 -1 0
BITMAP
2020
7070
F8F8
F8F8
7070
2020
0000
0000
0780
0780
0780
0780
0780
0780
0780
0780
0780
0780
0780
0780
0780
0780
0780
0780
0780
0780
0780
0780
0780
0780
0780
0780
0780
0780
0780
0780
0780
ENDCHAR
STARTCHAR U+00D0
ENCODING 208
SWIDTH 709 0
DWIDTH 31 0
BBX 31 29 0 0
BITMAP
0FFF8000
0FFFF000
0FFFFC00
0FFFFE00
0F00FF00
0F001F80
0F000FC0
0F0007E0
0F0003E0
0F0001E0
0F0001F0
0F0001F0
0F0000F0
7FFE00F0
7FFE00F0
7FFE00F0
0F0000F0
0F0001F0
0F0001F0
0F0001E0
0F0003E0
0F0007C0
0F000FC0
0F001F80
0F00FF00
0FFFFE00
0FFFFC00
0FFFF000
0FFF8000
ENDCHAR
STARTCHAR U+00D1
ENCODING 209
SWIDTH 754 0
DWIDTH 33 0
BBX 33 37 0 0
BITMAP
001E080000
003F8C0000
003FFE0000
007FFC0000
0031FC0000
0000700000
0000000000
0000000000
0F0000F800
0F8000F800
0FC000F800
0FE000F800
0FE000F800
0FF000F800
0FF800F800
0FFC00F800
0F7C00F800
0F3E00F800
0F1F00F800
0F1F80F800
0F0F80F800
0F07C0F800
0F03E0F800
0F03F0F800
0F01F0F800
0F00F8F800
0F007CF800
0F003EF800
0F003EF800
0F001FF800
0F000FF800
0F0007F800
0F0007F800
0F0003F800
0F0001F800
0F0000F800
0F0000F800
ENDCHAR
STARTCHAR U+00D2
ENCODING 210
SWIDTH 800 0
DWIDTH 35 0
BBX 35 37 0 0
BITMAP
000F800000
0007C00000
0003C00000
0001E00000
0000F00000
0000700000
0000000000
0000000000
0007F80000
001FFF0000
007FFFC000
00FFFFE000
03FC07F000
03F001F800
07C000FC00
0F80007C00
0F00003E00
1F00001E00
1E00001F00
1E00001F00
1E00000F00
3E00000F00
3E00000F00
3E00000F00
1E00000F00
1E00001F00
1E00001F00
1F00001E00
0F00003E00
0F80007C00
07C000FC00
03F001F800
03FC07F000
00FFFFE000
007FFFC000
001FFF0000
0007F80000
ENDCHAR
STARTCHAR U+00D3
ENCODING 211
SWIDTH 800 0
DWIDTH 35 0
BBX 35 37 0 0
BITMAP
00003C0000
0000780000
0000F00000
0000F00000
0001E00000
0003C00000
0000000000
0000000000
0007F80000
001FFF0000
007FFFC000
00FFFFE000
03FC07F000
03F001F800
07C000FC00
0F80007C00
0F00003E00
1F00001E00
1E00001F00
1E00001F00
1E00000F00
3E00000F00
3E00000F00
3E00000F00
1E00000F00
1E00001F00
1E00001F00
1F00001E00
0F00003E00
0F80007C00
07C000FC00
03F001F800
03FC07F000
00FFFFE000
007FFFC000
001FFF0000
0007F80000
ENDCHAR
STARTCHAR U+00D4
ENCODING 212
SWIDTH 800 0
DWIDTH 35 0
BBX 35 37 0 0
BITMAP
0001F00000
0003F80000
0003B80000
00071C0000
000F0E0000
000E060000
0000000000
0000000000
0007F80000
001FFF0000
007FFFC000
00FFFFE000
03FC07F000
03F001F800
07C000FC00
0F80007C00
0F00003E00
1F00001E00
1E00001F00
1E00001F00
1E00000F00
3E00000F00
3E00000F00
3E00000F00
1E00000F00
1E00001F00
1E00001F00
1F00001E00
0F00003E00
0F80007C00
07C000FC00
03F001F800
03FC07F000
00FFFFE000
007FFFC000
001FFF0000
0007F80000
ENDCHAR
STARTCHAR U+00D5
ENCODING 213
SWIDTH 800 0
DWIDTH 35 0
BBX 35 37 0 0
BITMAP
000F040000
001FC60000
001FFF0000
003FFE0000
0018FE0000
0000380000
0000000000
0000000000
0007F80000
001FFF0000
007FFFC000
00FFFFE000
03FC07F000
03F001F800
07C000FC00
0F80007C00
0F00003E00
1F00001E00
1E00001F00
1E00001F00
1E00000F00
3E00000F00
3E00000F00
3E00000F00
1E00000F00
1E00001F00
1E00001F00
1F00001E00
0F00003E00
0F80007C00
07C000FC00
03F001F800
03FC07F000
00FFFFE000
007FFFC000
001FFF0000
0007F80000
ENDCHAR
STARTCHAR U+00D6
ENCODING 214
SWIDTH 800 0
DWIDTH 35 0
BBX 35 37 0 0
BITMAP
0004040000
000E0E0000
001F1F0000
001F1F0000
000E0E0000
0004040000
0000000000
0000000000
0007F80000
001FFF0000
007FFFC000
00FFFFE000
03FC07F000
03F001F800
07C000FC00
0F80007C00
0F00003E00
1F00001E00
1E00001F00
1E00001F00
1E00000F00
3E00000F00
3E00000F00
3E00000F00
1E00000F00
1E00001F00
1E00001F00
1F00001E00
0F00003E00
0F80007C00
07C000FC00
03F001F800
03FC07F000
00FFFFE000
007FFFC000
001FFF0000
0007F80000
ENDCHAR
STARTCHAR U+00D7
ENCODING 215
SWIDTH 526 0
DWIDTH 23 0
BBX 23 22 0 0
BITMAP
020080
0601C0
0F03E0
0F87C0
07CF80
03FF00
01FE00
00FC00
00FC00
01FE00
03FF00
07CF80
0F87C0
1F03E0
0E01C0
040080
000000
000000
000000
000000
000000
000000
ENDCHAR
STARTCHAR U+00D8
ENCODING 216
SWIDTH 800 0
DWIDTH 35 0
BBX 35 29 0 0
BITMAP
0007F80400
001FFF0E00
007FFFDE00
00FFFFFC00
03FC07F800
03F001F800
07C001FC00
0F8003FC00
0F0007BE00
1F000F1E00
1E001E1F00
1E003C1F00
1E00780F00
3E00F00F00
3E01E00F00
3E03C00F00
1E07800F00
1E0F001F00
1E1E001F00
1F3C001E00
0F78003E00
0FF0007C00
07E000FC00
03F001F800
07FC07F000
07FFFFE000
0E7FFFC000
0C1FFF0000
0407F80000
ENDCHAR
STARTCHAR U+00D9
ENCODING 217
SWIDTH 731 0
DWIDTH 32 0
BBX 32 37 0 0
BITMAP
001F0000
000F8000
00078000
0003C000
0001E000
0000E000
00000000
00000000
0F000078
0F000078
0F000078
0F000078
0F000078
0F000078
0F000078
0F000078
0F000078
0F000078
0F000078
0F000078
0F000078
0F000078
0F000078
0F000078
0F000078
0F0000F8
0F0000F8
0F8000F0
0F8000F0
078001F0
07C003E0
03E007E0
03F81FC0
01FFFF80
00FFFF00
003FFC00
000FF000
ENDCHAR
STARTCHAR U+00DA
ENCODING 218
SWIDTH 731 0
DWIDTH 32 0
BBX 32 37 0 0
BITMAP
00007800
0000F000
0001E000
0001E000
0003C000
00078000
00000000
00000000
0F000078
0F000078
0F000078
0F000078
0F000078
0F000078
0F000078
0F000078
0F000078
0F000078
0F000078
0F000078
0F000078
0F000078
0F000078
0F000078
0F000078
0F0000F8
0F0000F8
0F8000F0
0F8000F0
078001F0
07C003E0
03E007E0
03F81FC0
01FFFF80
00FFFF00
003FFC00
000FF000
ENDCHAR
STARTCHAR U+00DB
ENCODING 219
SWIDTH 731 0
DWIDTH 32 0
BBX 32 37 0 0
BITMAP
0003E000
0007F000
00077000
000E3800
001E1C00
001C0C00
00000000
00000000
0F000078
0F000078
0F000078
0F000078
0F000078
0F000078
0F000078
0F000078
0F000078
0F000078
0F000078
0F000078
0F000078
0F000078
0F000078
0F000078
0F000078
0F0000F8
0F0000F8
0F8000F0
0F8000F0
078001F0
07C003E0
03E007E0
03F81FC0
01FFFF80
00FFFF00
003FFC00
000FF000
ENDCHAR
STARTCHAR U+00DC
ENCODING 220
SWIDTH 731 0
DWIDTH 32 0
BBX 32 37 0 0
BITMAP
00101000
00383800
007C7C00
007C7C00
00383800
00101000
00000000
00000000
0F000078
0F000078
0F000078
0F000078
0F000078
0F000078
0F000078
0F000078
0F000078
0F000078
0F000078
0F000078
0F000078
0F000078
0F000078
0F000078
0F000078
0F0000F8
0F0000F8
0F8000F0
0F8000F0
078001F0
07C003E0
03E007E0
03F81FC0
01FFFF80
00FFFF00
003FFC00
000FF000
ENDCHAR
STARTCHAR U+00DD
ENCODING 221
SWIDTH 571 0
DWIDTH 25 0
BBX 25 37 0 0
BITMAP
0003C000
00078000
000F0000
000F0000
001E0000
003C0000
00000000
00000000
7C000F00
3E001F00
3E003E00
1F003C00
0F007C00
0F80F800
07C0F000
03C1F000
03E1E000
01F3E000
01F7C000
00FF8000
007F8000
007F0000
003E0000
001E0000
001E0000
001E0000
001E0000
001E0000
001E0000
001E0000
001E0000
001E0000
001E0000
001E0000
001E0000
001E0000
001E0000
ENDCHAR
STARTCHAR U+00DE
ENCODING 222
SWIDTH 571 0
DWIDTH 25 0
BBX 25 29 0 0
BITMAP
0F000000
0F000000
0F000000
0F000000
0F000000
0F000000
0FFF8000
0FFFE000
0FFFF000
0FFFF800
0F00FC00
0F007C00
0F003E00
0F003E00
0F003E00
0F003E00
0F003E00
0F007C00
0F00FC00
0FFFF800
0FFFF000
0FFFE000
0FFF8000
0F000000
0F000000
0F000000
0F000000
0F000000
0F000000
ENDCHAR
STARTCHAR U+00DF
ENCODING 223
SWIDTH 526 0
DWIDTH 23 0
BBX 23 29 0 0
BITMAP
007E00
01FF80
03FFC0
07FFE0
0FC3E0
0F80F0
0F00F0
0F00F0
1E00F0
1E01E0
1E03E0
1E3FC0
1E3F00
1E3FC0
1E3FE0
1E03F0
1E00F8
1E0078
1E0078
1E0078
1E0078
1E0078
1E0078
1E00F8
1E01F8
1E3FF0
1E3FE0
1E3FC0
1E3F00
ENDCHAR
STARTCHAR U+00E0
ENCODING 224
SWIDTH 503 0
DWIDTH 22 0
BBX 22 30 0 0
BITMAP
07C000
03E000
01E000
00F000
007800
003800
000000
000000
000000
00FC00
07FF00
0FFF80
0FFFC0
0E07C0
1803C0
1001E0
003FE0
01FFE0
07FFE0
0FC1E0
1F01E0
1E01E0
3C01E0
3C01E0
3C03E0
3E0FE0
1FFFE0
1FFFE0
0FFDE0
03E1E0
ENDCHAR
STARTCHAR U+00E1
ENCODING 225
SWIDTH 503 0
DWIDTH 22 0
BBX 22 30 0 0
BITMAP
000F00
001E00
003C00
003C00
007800
00F000
000000
000000
000000
00FC00
07FF00
0FFF80
0FFFC0
0E07C0
1803C0
1001E0
003FE0
01FFE0
07FFE0
0FC1E0
1F01E0
1E01E0
3C01E0
3C01E0
3C03E0
3E0FE0
1FFFE0
1FFFE0
0FFDE0
03E1E0
ENDCHAR
STARTCHAR U+00E2
ENCODING 226
SWIDTH 503 0
DWIDTH 22 0
BBX 22 30 0 0
BITMAP
00F800
01FC00
01DC00
038E00
078700
070300
000000
000000
000000
00FC00
07FF00
0FFF80
0FFFC0
0E07C0
1803C0
1001E0
003FE0
01FFE0
07FFE0
0FC1E0
1F01E0
1E01E0
3C01E0
3C01E0
3C03E0
3E0FE0
1FFFE0
1FFFE0
0FFDE0
03E1E0
ENDCHAR
STARTCHAR U+00E3
ENCODING 227
SWIDTH 503 0
DWIDTH 22 0
BBX 22 30 0 0
BITMAP
03C100
07F180
07FFC0
0FFF80
063F80
000E00
000000
000000
000000
00FC00
07FF00
0FFF80
0FFFC0
0E07C0
1803C0
1001E0
003FE0
01FFE0
07FFE0
0FC1E0
1F01E0
1E01E0
3C01E0
3C01E0
3C03E0
3E0FE0
1FFFE0
1FFFE0
0FFDE0
03E1E0
ENDCHAR
STARTCHAR U+00E4
ENCODING 228
SWIDTH 503 0
DWIDTH 22 0
BBX 22 30 0 0
BITMAP
020200
070700
0F8F80
0F8F80
070700
020200
000000
000000
000000
00FC00
07FF00
0FFF80
0FFFC0
0E07C0
1803C0
1001E0
003FE0
01FFE0
07FFE0
0FC1E0
1F01E0
1E01E0
3C01E0
3C01E0
3C03E0
3E0FE0
1FFFE0
1FFFE0
0FFDE0
03E1E0
ENDCHAR
STARTCHAR U+00E5
ENCODING 229
SWIDTH 503 0
DWIDTH 22 0
BBX 22 32 0 0
BITMAP
007800
00FC00
018C00
018600
018600
018C00
00FC00
007800
000000
000000
000000
00FC00
07FF00
0FFF80
0FFFC0
0E07C0
1803C0
1001E0
003FE0
01FFE0
07FFE0
0FC1E0
1F01E0
1E01E0
3C01E0
3C01E0
3C03E0
3E0FE0
1FFFE0
1FFFE0
0FFDE0
03E1E0
ENDCHAR
STARTCHAR U+00E6
ENCODING 230
SWIDTH 800 0
DWIDTH 35 0
BBX 35 21 0 0
BITMAP
00FC07E000
07FF1FF800
0FFFBFFC00
0FFFFFFE00
0E07F83F00
1803F00F00
1003E00F00
0003E00780
001FFFFF80
01FFFFFF80
07FFFFFF80
1FC3C00000
1F03E00000
3C01E00000
3C01F00000
3C01F80100
3E07FC0F00
3FFFFFFF00
1FFFBFFF00
0FFE1FFE00
03F807F800
ENDCHAR
STARTCHAR U+00E7
ENCODING 231
SWIDTH 480 0
DWIDTH 21 0
BBX 21 30 0 -9
BITMAP
003F80
01FFE0
03FFE0
07FFE0
0FC0E0
1F0020
1E0000
3E0000
3C0000
3C0000
3C0000
3C0000
3C0000
3E0000
1F0000
1F8020
0FC0E0
07FFE0
03FFE0
01FFC0
003F00
001C00
001F00
003F80
000780
000380
000780
00FF80
00FF00
00FC00
ENDCHAR
STARTCHAR U+00E8
ENCODING 232
SWIDTH 526 0
DWIDTH 23 0
BBX 23 30 0 0
BITMAP
03E000
01F000
00F000
007800
003C00
001C00
000000
000000
000000
007E00
01FF80
07FFC0
0FFFE0
0F81F0
1F00F0
1E0078
3C0078
3FFFF8
3FFFF8
3FFFF8
3FFFF8
3C0000
3E0000
1E0000
1F0018
0FC078
0FFFF8
03FFF8
01FFF0
007F80
ENDCHAR
STARTCHAR U+00E9
ENCODING 233
SWIDTH 526 0
DWIDTH 23 0
BBX 23 30 0 0
BITMAP
000780
000F00
001E00
001E00
003C00
007800
000000
000000
000000
007E00
01FF80
07FFC0
0FFFE0
0F81F0
1F00F0
1E0078
3C0078
3FFFF8
3FFFF8
3FFFF8
3FFFF8
3C0000
3E0000
1E0000
1F0018
0FC078
0FFFF8
03FFF8
01FFF0
007F80
ENDCHAR
STARTCHAR U+00EA
ENCODING 234
SWIDTH 526 0
DWIDTH 23 0
BBX 23 30 0 0
BITMAP
007C00
00FE00
00EE00
01C700
03C380
038180
000000
000000
000000
007E00
01FF80
07FFC0
0FFFE0
0F81F0
1F00F0
1E0078
3C0078
3FFFF8
3FFFF8
3FFFF8
3FFFF8
3C0000
3E0000
1E0000
1F0018
0FC078
0FFFF8
03FFF8
01FFF0
007F80
ENDCHAR
STARTCHAR U+00EB
ENCODING 235
SWIDTH 526 0
DWIDTH 23 0
BBX 23 30 0 0
BITMAP
010100
038380
07C7C0
07C7C0
038380
010100
000000
000000
000000
007E00
01FF80
07FFC0
0FFFE0
0F81F0
1F00F0
1E0078
3C0078
3FFFF8
3FFFF8
3FFFF8
3FFFF8
3C0000
3E0000
1E0000
1F0018
0FC078
0FFFF8
03FFF8
01FFF0
007F80
ENDCHAR
STARTCHAR U+00EC
ENCODING 236
SWIDTH 251 0
DWIDTH 11 0
BBX 12 30 -1 0
BITMAP
F800
7C00
3C00
1E00
0F00
0700
0000
0000
0000
1E00
1E00
1E00
1E00
1E00
1E00
1E00
1E00
1E00
1E00
1E00
1E00
1E00
1E00
1E00
1E00
1E00
1E00
1E00
1E00
1E00
ENDCHAR
STARTCHAR U+00ED
ENCODING 237
SWIDTH 251 0
DWIDTH 11 0
BBX 12 30 0 0
BITMAP
0000
0000
0000
0000
0000
0000
0000
0000
0000
0000
0000
0000
0000
0000
0000
0000
0000
0000
0000
0000
0000
0000
0000
0000
0000
0000
0000
0000
0000
0000
ENDCHAR
STARTCHAR U+00EE
ENCODING 238
SWIDTH 251 0
DWIDTH 11 0
BBX 13 30 -1 0
BITMAP
0F80
1FC0
1DC0
38E0
7870
7030
0000
0000
0000
0F00
0F00
0F00
0F00
0F00
0F00
0F00
0F00
0F00
0F00
0F00
0F00
0F00
0F00
0F00
0F00
0F00
0F00
0F00
0F00
0F00
ENDCHAR
STARTCHAR U+00EF
ENCODING 239
SWIDTH 251 0
DWIDTH 11 0
BBX 15 30 -2 0
BITMAP
2020
7070
F8F8
F8F8
7070
2020
0000
0000
0000
0F00
0F00
0F00
0F00
0F00
0F00
0F00
0F00
0F00
0F00
0F00
0F00
0F00
0F00
0F00
0F00
0F00
0F00
0F00
0F00
0F00
ENDCHAR
STARTCHAR U+00F0
ENCODING 240
SWIDTH 526 0
DWIDTH 23 0
BBX 23 29 0 0
BITMAP
00C080
03E3C0
03F780
00FF00
007E00
01FF00
03CF80
0787C0
0203E0
00FFE0
03FFF0
07FFF0
0FFFF0
0F83F8
1F00F8
1E0078
3C0078
3C0078
3C0078
3C0078
3C0078
3E0078
3E00F8
1F01F0
1F83F0
0FFFE0
07FFC0
03FF80
00FC00
ENDCHAR
STARTCHAR U+00F1
ENCODING 241
SWIDTH 571 0
DWIDTH 25 0
BBX 25 30 0 0
BITMAP
00F04000
01FC6000
01FFF000
03FFE000
018FE000
00038000
00000000
00000000
00000000
1E3F8000
1EFFE000
1FFFF000
1FFFF800
1FC1F800
1F007C00
1E007C00
1E003C00
1E003C00
1E003C00
1E003C00
1E003C00
1E003C00
1E003C00
1E003C00
1E003C00
1E003C00
1E003C00
1E003C00
1E003C00
1E003C00
ENDCHAR
STARTCHAR U+00F2
ENCODING 242
SWIDTH 594 0
DWIDTH 26 0
BBX 26 30 0 0
BITMAP
01F00000
00F80000
00780000
003C0000
001E0000
000E0000
00000000
00000000
00000000
007F0000
01FFE000
03FFF000
07FFF800
0FC1FC00
1F007C00
1E003E00
3E001E00
3C001E00
3C001F00
3C000F00
3C001F00
3C001E00
3E001E00
1E003E00
1F007C00
0FC1FC00
07FFF800
03FFF000
01FFC000
007F0000
ENDCHAR
STARTCHAR U+00F3
ENCODING 243
SWIDTH 594 0
DWIDTH 26 0
BBX 26 30 0 0
BITMAP
0003C000
00078000
000F0000
000F0000
001E0000
003C0000
00000000
00000000
00000000
007F0000
01FFE000
03FFF000
07FFF800
0FC1FC00
1F007C00
1E003E00
3E001E00
3C001E00
3C001F00
3C000F00
3C001F00
3C001E00
3E001E00
1E003E00
1F007C00
0FC1FC00
07FFF800
03FFF000
01FFC000
007F0000
ENDCHAR
STARTCHAR U+00F4
ENCODING 244
SWIDTH 594 0
DWIDTH 26 0
BBX 26 30 0 0
BITMAP
003E0000
007F0000
00770000
00E38000
01E1C000
01C0C000
00000000
00000000
00000000
007F0000
01FFE000
03FFF000
07FFF800
0FC1FC00
1F007C00
1E003E00
3E001E00
3C001E00
3C001F00
3C000F00
3C001F00
3C001E00
3E001E00
1E003E00
1F007C00
0FC1FC00
07FFF800
03FFF000
01FFC000
007F0000
ENDCHAR
STARTCHAR U+00F5
ENCODING 245
SWIDTH 594 0
DWIDTH 26 0
BBX 26 30 0 0
BITMAP
00F04000
01FC6000
01FFF000
03FFE000
018FE000
00038000
00000000
00000000
00000000
007F0000
01FFE000
03FFF000
07FFF800
0FC1FC00
1F007C00
1E003E00
3E001E00
3C001E00
3C001F00
3C000F00
3C001F00
3C001E00
3E001E00
1E003E00
1F007C00
0FC1FC00
07FFF800
03FFF000
01FFC000
007F0000
ENDCHAR
STARTCHAR U+00F6
ENCODING 246
SWIDTH 594 0
DWIDTH 26 0
BBX 26 30 0 0
BITMAP
00808000
01C1C000
03E3E000
03E3E000
01C1C000
00808000
00000000
00000000
00000000
007F0000
01FFE000
03FFF000
07FFF800
0FC1FC00
1F007C00
1E003E00
3E001E00
3C001E00
3C001F00
3C000F00
3C001F00
3C001E00
3E001E00
1E003E00
1F007C00
0FC1FC00
07FFF800
03FFF000
01FFC000
007F0000
ENDCHAR
STARTCHAR U+00F7
ENCODING 247
SWIDTH 526 0
DWIDTH 23 0
BBX 23 24 0 0
BITMAP
001000
003800
007C00
007C00
003800
001000
000000
000000
1FFFF0
1FFFF0
1FFFF0
1FFFF0
000000
000000
001000
003800
007C00
007C00
003800
001000
000000
000000
000000
000000
ENDCHAR
STARTCHAR U+00F8
ENCODING 248
SWIDTH 594 0
DWIDTH 26 0
BBX 26 23 0 -1
BITMAP
00000800
007F1C00
01FFFC00
03FFF800
07FFF800
0FC1FC00
1F01FC00
1E01FE00
3E039E00
3C071E00
3C0E1F00
3C1C0F00
3C3C1F00
3C381E00
3E701E00
1FE03E00
1FC07C00
0FC1FC00
07FFF800
07FFF000
0FFFC000
1C7F0000
04000000
ENDCHAR
STARTCHAR U+00F9
ENCODING 249
SWIDTH 571 0
DWIDTH 25 0
BBX 25 30 0 0
BITMAP
01F00000
00F80000
00780000
003C0000
001E0000
000E0000
00000000
00000000
00000000
1E003C00
1E003C00
1E003C00
1E003C00
1E003C00
1E003C00
1E003C00
1E003C00
1E003C00
1E003C00
1E003C00
1E003C00
1E003C00
1E003C00
1F003C00
0F807C00
0FC1FC00
07FFFC00
07FFFC00
03FFBC00
007E3C00
ENDCHAR
STARTCHAR U+00FA
ENCODING 250
SWIDTH 571 0
DWIDTH 25 0
BBX 25 30 0 0
BITMAP
0003C000
00078000
000F0000
000F0000
001E0000
003C0000
00000000
00000000
00000000
1E003C00
1E003C00
1E003C00
1E003C00
1E003C00
1E003C00
1E003C00
1E003C00
1E003C00
1E003C00
1E003C00
1E003C00
1E003C00
1E003C00
1F003C00
0F807C00
0FC1FC00
07FFFC00
07FFFC00
03FFBC00
007E3C00
ENDCHAR
STARTCHAR U+00FB
ENCODING 251
SWIDTH 571 0
DWIDTH 25 0
BBX 25 30 0 0
BITMAP
003E0000
007F0000
00770000
00E38000
01E1C000
01C0C000
00000000
00000000
00000000
1E003C00
1E003C00
1E003C00
1E003C00
1E003C00
1E003C00
1E003C00
1E003C00
1E003C00
1E003C00
1E003C00
1E003C00
1E003C00
1E003C00
1F003C00
0F807C00
0FC1FC00
07FFFC00
07FFFC00
03FFBC00
007E3C00
ENDCHAR
STARTCHAR U+00FC
ENCODING 252
SWIDTH 571 0
DWIDTH 25 0
BBX 25 30 0 0
BITMAP
00808000
01C1C000
03E3E000
03E3E000
01C1C000
00808000
00000000
00000000
00000000
1E003C00
1E003C00
1E003C00
1E003C00
1E003C00
1E003C00
1E003C00
1E003C00
1E003C00
1E003C00
1E003C00
1E003C00
1E003C00
1E003C00
1F003C00
0F807C00
0FC1FC00
07FFFC00
07FFFC00
03FFBC00
007E3C00
ENDCHAR
STARTCHAR U+00FD
ENCODING 253
SWIDTH 526 0
DWIDTH 23 0
BBX 23 38 0 -8
BITMAP
000F00
001E00
003C00
003C00
007800
00F000
000000
000000
000000
78003C
7C007C
3C0078
3C00F8
1E00F0
1E00F0
1F01E0
0F01E0
0F03E0
0783C0
0783C0
03C780
03C780
03C780
01EF00
01EF00
00FE00
00FE00
007E00
007C00
007C00
007800
007800
00F800
01F000
0FF000
0FE000
0FC000
0F8000
ENDCHAR
STARTCHAR U+00FE
ENCODING 254
SWIDTH 571 0
DWIDTH 25 0
BBX 25 37 0 -8
BITMAP
1E000000
1E000000
1E000000
1E000000
1E000000
1E000000
1E000000
1E000000
1E3F0000
1EFFE000
1FFFF000
1FFFF800
1FC1FC00
1F007C00
1E003E00
1E003E00
1E001E00
1E001E00
1E001E00
1E001E00
1E001E00
1E003E00
1E003E00
1E007C00
1F81FC00
1FFFF800
1FFFF000
1FFFC000
1E7F0000
1E000000
1E000000
1E000000
1E000000
1E000000
1E000000
1E000000
1E000000
ENDCHAR
STARTCHAR U+00FF
ENCODING 255
SWIDTH 526 0
DWIDTH 23 0
BBX 23 38 0 -8
BITMAP
010100
038380
07C7C0
07C7C0
038380
010100
000000
000000
000000
78003C
7C007C
3C0078
3C00F8
1E00F0
1E00F0
1F01E0
0F01E0
0F03E0
0783C0
0783C0
03C780
03C780
03C780
01EF00
01EF00
00FE00
00FE00
007E00
007C00
007C00
007800
007800
00F800
01F000
0FF000
0FE000
0FC000
0F8000
ENDCHAR
STARTCHAR U+2013
ENCODING 8211
SWIDTH 480 0
DWIDTH 21 0
BBX 23 13 -1 0
BITMAP
FFFFF8
FFFFF8
FFFFF8
FFFFF8
000000
000000
000000
000000
000000
000000
000000
000000
000000
ENDCHAR
STARTCHAR U+2014
ENCODING 8212
SWIDTH 960 0
DWIDTH 42 0
BBX 44 13 -1 0
BITMAP
FFFFFFFFFFC0
FFFFFFFFFFC0
FFFFFFFFFFC0
FFFFFFFFFFC0
000000000000
000000000000
000000000000
000000000000
000000000000
000000000000
000000000000
000000000000
000000000000
ENDCHAR
STARTCHAR U+2018
ENCODING 8216
SWIDTH 229 0
DWIDTH 10 0
BBX 10 29 0 0
BITMAP
0200
0600
0C00
1C00
1E00
1E00
1F00
1E00
0C00
0000
0000
0000
0000
0000
0000
0000
0000
0000
0000
0000
0000
0000
0000
0000
0000
0000
0000
0000
0000
ENDCHAR
STARTCHAR U+2019
ENCODING 8217
SWIDTH 229 0
DWIDTH 10 0
BBX 10 29 0 0
BITMAP
0400
0E00
1E00
1F00
1F00
0E00
0E00
0C00
0800
1000
0000
0000
0000
0000
0000
0000
0000
0000
0000
0000
0000
0000
0000
0000
0000
0000
0000
0000
0000
ENDCHAR
STARTCHAR U+201C
ENCODING 8220
SWIDTH 389 0
DWIDTH 17 0
BBX 17 29 0 0
BITMAP
020400
060800
0C1800
1C3800
1E3800
1E7C00
1F7E00
1E3C00
0C1800
000000
000000
000000
000000
000000
000000
000000
000000
000000
000000
000000
000000
000000
000000
000000
000000
000000
000000
000000
000000
ENDCHAR
STARTCHAR U+201D
ENCODING 8221
SWIDTH 389 0
DWIDTH 17 0
BBX 17 29 0 0
BITMAP
040800
0E1C00
1E3C00
1F3E00
1F3E00
0E1C00
0E1C00
0C1800
081000
102000
000000
000000
000000
000000
000000
000000
000000
000000
000000
000000
000000
000000
000000
000000
000000
000000
000000
000000
000000
ENDCHAR
STARTCHAR U+2022
ENCODING 8226
SWIDTH 411 0
DWIDTH 18 0
BBX 18 19 0 0
BITMAP
008000
01C000
03E000
07F000
07F800
0FFC00
07F800
07F000
03E000
01C000
008000
000000
000000
000000
000000
000000
000000
000000
000000
ENDCHAR
STARTCHAR U+2026
ENCODING 8230
SWIDTH 869 0
DWIDTH 38 0
BBX 38 6 0 0
BITMAP
0400100040
0E003800E0
1F007C01F0
1F007C01F0
0E003800E0
0400100040
ENDCHAR
STARTCHAR U+20AC
ENCODING 8364
SWIDTH 594 0
DWIDTH 26 0
BBX 26 29 0 0
BITMAP
0007F000
003FFE00
007FFF00
01FFFF00
03F80F00
03E00100
07C00000
0F800000
0F800000
7FFFF000
7FFFE000
7FFFE000
1F000000
1E000000
1E000000
1F000000
7FFFC000
7FFFC000
7FFFC000
0F800000
0F800000
07C00000
07C00000
03F00100
01FC0F00
00FFFF00
007FFF00
003FFE00
0007F000
ENDCHAR
ENDFONT
