STARTFONT 2.1
COMMENT Converted from Johnston100 W03 Regular.ttf at 20px with ttf2bdf.py (Pillow, 1-bit, no AA)
FONT -Misc-Johnston100-Medium-R-Normal--20-200-75-75-P-220-ISO10646-1
SIZE 20 75 75
FONTBOUNDINGBOX 22 23 -1 -5
STARTPROPERTIES 9
FOUNDRY "Misc"
FAMILY_NAME "Johnston100"
WEIGHT_NAME "Medium"
SLANT "R"
PIXEL_SIZE 20
RESOLUTION_X 75
RESOLUTION_Y 75
FONT_ASCENT 18
FONT_DESCENT 5
ENDPROPERTIES
CHARS 200
STARTCHAR space
ENCODING 32
SWIDTH 240 0
DWIDTH 5 0
BBX 5 23 0 -5
BITMAP
00
00
00
00
00
00
00
00
00
00
00
00
00
00
00
00
00
00
00
00
00
00
00
ENDCHAR
STARTCHAR !
ENCODING 33
SWIDTH 288 0
DWIDTH 6 0
BBX 6 13 0 0
BITMAP
30
30
30
30
30
30
30
30
30
30
00
30
20
ENDCHAR
STARTCHAR "
ENCODING 34
SWIDTH 384 0
DWIDTH 8 0
BBX 8 13 0 0
BITMAP
66
66
66
26
24
00
00
00
00
00
00
00
00
ENDCHAR
STARTCHAR U+0023
ENCODING 35
SWIDTH 720 0
DWIDTH 15 0
BBX 15 13 0 0
BITMAP
0118
0310
0230
0630
3FFC
3FFC
0460
0C60
7FF8
7FF8
18C0
1880
1180
ENDCHAR
STARTCHAR $
ENCODING 36
SWIDTH 480 0
DWIDTH 10 0
BBX 10 17 0 -2
BITMAP
0C00
1C00
3F00
7300
6000
7000
3800
1E00
0700
0180
0180
4180
6380
7F00
1E00
0C00
0000
ENDCHAR
STARTCHAR %
ENCODING 37
SWIDTH 720 0
DWIDTH 15 0
BBX 15 13 0 0
BITMAP
3C30
7C60
6640
66C0
7C80
3D80
0100
0378
02FC
06CC
04CC
0CFC
1878
ENDCHAR
STARTCHAR &
ENCODING 38
SWIDTH 672 0
DWIDTH 14 0
BBX 14 13 0 0
BITMAP
0F00
1F80
3980
3180
1980
1F00
1E30
3330
61E0
61E0
71E0
3FF0
1E38
ENDCHAR
STARTCHAR '
ENCODING 39
SWIDTH 240 0
DWIDTH 5 0
BBX 5 13 0 0
BITMAP
60
60
60
20
20
00
00
00
00
00
00
00
00
ENDCHAR
STARTCHAR (
ENCODING 40
SWIDTH 240 0
DWIDTH 5 0
BBX 5 16 0 -1
BITMAP
10
30
30
20
60
60
60
60
60
60
60
60
20
30
30
10
ENDCHAR
STARTCHAR )
ENCODING 41
SWIDTH 240 0
DWIDTH 5 0
BBX 5 16 0 -1
BITMAP
60
60
20
30
30
30
30
30
30
30
30
30
30
20
60
60
ENDCHAR
STARTCHAR *
ENCODING 42
SWIDTH 384 0
DWIDTH 8 0
BBX 8 13 0 0
BITMAP
18
5A
34
38
5E
18
00
00
00
00
00
00
00
ENDCHAR
STARTCHAR +
ENCODING 43
SWIDTH 528 0
DWIDTH 11 0
BBX 11 11 0 0
BITMAP
0400
0400
0400
7F80
7F80
0400
0400
0400
0000
0000
0000
ENDCHAR
STARTCHAR ,
ENCODING 44
SWIDTH 240 0
DWIDTH 5 0
BBX 5 6 0 -3
BITMAP
20
60
30
20
00
00
ENDCHAR
STARTCHAR -
ENCODING 45
SWIDTH 384 0
DWIDTH 8 0
BBX 8 6 0 0
BITMAP
7E
7E
00
00
00
00
ENDCHAR
STARTCHAR .
ENCODING 46
SWIDTH 240 0
DWIDTH 5 0
BBX 5 3 0 0
BITMAP
20
60
20
ENDCHAR
STARTCHAR /
ENCODING 47
SWIDTH 288 0
DWIDTH 6 0
BBX 7 16 0 -1
BITMAP
04
0C
0C
08
18
18
18
30
30
30
20
60
60
40
C0
C0
ENDCHAR
STARTCHAR 0
ENCODING 48
SWIDTH 576 0
DWIDTH 12 0
BBX 12 13 0 0
BITMAP
1E00
3F00
3180
6180
60C0
60C0
60C0
60C0
60C0
6180
3180
3F00
1E00
ENDCHAR
STARTCHAR 1
ENCODING 49
SWIDTH 288 0
DWIDTH 6 0
BBX 6 13 0 0
BITMAP
10
30
30
30
30
30
30
30
30
30
30
30
30
ENDCHAR
STARTCHAR 2
ENCODING 50
SWIDTH 480 0
DWIDTH 10 0
BBX 10 13 0 0
BITMAP
1E00
3F00
2380
4180
0180
0300
0300
0600
0E00
0C00
1800
3F80
3F80
ENDCHAR
STARTCHAR 3
ENCODING 51
SWIDTH 480 0
DWIDTH 10 0
BBX 10 13 0 0
BITMAP
7F80
7F00
0300
0600
0C00
1F00
0380
0180
00C0
0180
6180
7F00
1E00
ENDCHAR
STARTCHAR 4
ENCODING 52
SWIDTH 576 0
DWIDTH 12 0
BBX 12 13 0 0
BITMAP
0080
0180
0180
0380
0780
0D80
1980
3180
7FE0
FFE0
0180
0180
0180
ENDCHAR
STARTCHAR 5
ENCODING 53
SWIDTH 480 0
DWIDTH 10 0
BBX 10 13 0 0
BITMAP
1F80
1F80
1000
3000
3E00
3F80
2380
0180
00C0
0180
4180
7F00
3E00
ENDCHAR
STARTCHAR 6
ENCODING 54
SWIDTH 528 0
DWIDTH 11 0
BBX 11 13 0 0
BITMAP
0700
0E00
1C00
3800
3000
7F00
7F80
7180
60C0
60C0
7180
3F80
1E00
ENDCHAR
STARTCHAR 7
ENCODING 55
SWIDTH 480 0
DWIDTH 10 0
BBX 10 13 0 0
BITMAP
7F80
7F00
0300
0600
0600
0C00
0C00
1C00
1800
3800
3000
3000
6000
ENDCHAR
STARTCHAR 8
ENCODING 56
SWIDTH 528 0
DWIDTH 11 0
BBX 11 13 0 0
BITMAP
1E00
3F00
3180
3180
3180
1F00
1F00
3180
60C0
60C0
71C0
3F80
1F00
ENDCHAR
STARTCHAR 9
ENCODING 57
SWIDTH 528 0
DWIDTH 11 0
BBX 11 13 0 0
BITMAP
1F00
3F80
7180
60C0
60C0
70C0
3FC0
1F80
0180
0300
0700
0E00
1C00
ENDCHAR
STARTCHAR :
ENCODING 58
SWIDTH 288 0
DWIDTH 6 0
BBX 6 11 0 0
BITMAP
20
60
20
00
00
00
00
00
20
60
20
ENDCHAR
STARTCHAR ;
ENCODING 59
SWIDTH 288 0
DWIDTH 6 0
BBX 6 13 0 -3
BITMAP
20
60
20
00
00
00
00
10
30
18
10
00
00
ENDCHAR
STARTCHAR U+003C
ENCODING 60
SWIDTH 528 0
DWIDTH 11 0
BBX 11 12 0 0
BITMAP
0080
0380
0F00
3C00
7000
3C00
0F00
0380
0080
0000
0000
0000
ENDCHAR
STARTCHAR =
ENCODING 61
SWIDTH 528 0
DWIDTH 11 0
BBX 11 10 0 0
BITMAP
7F80
7F80
0000
0000
7F80
7F80
0000
0000
0000
0000
ENDCHAR
STARTCHAR U+003E
ENCODING 62
SWIDTH 528 0
DWIDTH 11 0
BBX 11 12 0 0
BITMAP
FFE0
FFE0
9FE0
87E0
E1E0
F8E0
FE60
F8E0
E1E0
87E0
9FE0
FFE0
ENDCHAR
STARTCHAR ?
ENCODING 63
SWIDTH 432 0
DWIDTH 9 0
BBX 9 13 0 0
BITMAP
3C00
7E00
4300
0300
0700
0E00
1800
1800
1800
0000
0800
1800
1000
ENDCHAR
STARTCHAR @
ENCODING 64
SWIDTH 912 0
DWIDTH 19 0
BBX 19 17 0 -4
BITMAP
01F800
07FE00
0E0700
180180
30FCC0
33F8C0
6308C0
6608C0
6618C0
6618C0
631980
63FF80
31EF00
380000
1C0800
0FF800
03F000
ENDCHAR
STARTCHAR A
ENCODING 65
SWIDTH 624 0
DWIDTH 13 0
BBX 14 13 0 0
BITMAP
0200
0700
0700
0D80
0D80
0D80
18C0
18C0
3FE0
3FE0
7070
6030
6030
ENDCHAR
STARTCHAR B
ENCODING 66
SWIDTH 576 0
DWIDTH 12 0
BBX 12 13 0 0
BITMAP
3F00
3F80
31C0
30C0
31C0
3F80
3FC0
30E0
3060
3060
30E0
3FC0
3F80
ENDCHAR
STARTCHAR C
ENCODING 67
SWIDTH 672 0
DWIDTH 14 0
BBX 14 13 0 0
BITMAP
07E0
1FF8
3C18
3000
7000
6000
6000
6000
7000
3000
3C18
1FF8
07E0
ENDCHAR
STARTCHAR D
ENCODING 68
SWIDTH 720 0
DWIDTH 15 0
BBX 15 13 0 0
BITMAP
3F80
3FE0
3070
3038
3018
3018
3018
3018
3018
3038
3070
3FE0
3F80
ENDCHAR
STARTCHAR E
ENCODING 69
SWIDTH 576 0
DWIDTH 12 0
BBX 12 13 0 0
BITMAP
3FC0
3FC0
3000
3000
3000
3F80
3F80
3000
3000
3000
3000
3FE0
3FE0
ENDCHAR
STARTCHAR F
ENCODING 70
SWIDTH 528 0
DWIDTH 11 0
BBX 11 13 0 0
BITMAP
3FC0
3FC0
3000
3000
3000
3F80
3F80
3000
3000
3000
3000
3000
3000
ENDCHAR
STARTCHAR G
ENCODING 71
SWIDTH 720 0
DWIDTH 15 0
BBX 15 13 0 0
BITMAP
07E0
1FF0
3C38
3018
7000
6000
60F8
60F8
7018
3018
3C38
1FF0
07E0
ENDCHAR
STARTCHAR H
ENCODING 72
SWIDTH 720 0
DWIDTH 15 0
BBX 15 13 0 0
BITMAP
3018
3018
3018
3018
3018
3FF8
3FF8
3018
3018
3018
3018
3018
3018
ENDCHAR
STARTCHAR I
ENCODING 73
SWIDTH 288 0
DWIDTH 6 0
BBX 6 13 0 0
BITMAP
30
30
30
30
30
30
30
30
30
30
30
30
30
ENDCHAR
STARTCHAR J
ENCODING 74
SWIDTH 480 0
DWIDTH 10 0
BBX 10 13 0 0
BITMAP
0300
0300
0300
0300
0300
0300
0300
0300
0300
0300
6700
7E00
3C00
ENDCHAR
STARTCHAR K
ENCODING 75
SWIDTH 624 0
DWIDTH 13 0
BBX 13 13 0 0
BITMAP
30E0
31C0
3380
3700
3E00
3C00
3C00
3E00
3700
3380
31C0
30E0
3070
ENDCHAR
STARTCHAR L
ENCODING 76
SWIDTH 528 0
DWIDTH 11 0
BBX 11 13 0 0
BITMAP
3000
3000
3000
3000
3000
3000
3000
3000
3000
3000
3000
3FC0
3FC0
ENDCHAR
STARTCHAR M
ENCODING 77
SWIDTH 816 0
DWIDTH 17 0
BBX 17 13 0 0
BITMAP
300600
380E00
3C1E00
3E3E00
377600
33E600
31C600
308600
300600
300600
300600
300600
300600
ENDCHAR
STARTCHAR N
ENCODING 78
SWIDTH 768 0
DWIDTH 16 0
BBX 16 13 0 0
BITMAP
300C
380C
3C0C
3E0C
3F0C
378C
33CC
31EC
30FC
307C
303C
301C
301C
ENDCHAR
STARTCHAR O
ENCODING 79
SWIDTH 768 0
DWIDTH 16 0
BBX 16 13 0 0
BITMAP
07E0
1FF8
3C3C
300C
700E
6006
6006
6006
700E
300C
3C3C
1FF8
07E0
ENDCHAR
STARTCHAR P
ENCODING 80
SWIDTH 576 0
DWIDTH 12 0
BBX 12 13 0 0
BITMAP
3F80
3FC0
30E0
3060
3060
30E0
3FC0
3F80
3000
3000
3000
3000
3000
ENDCHAR
STARTCHAR Q
ENCODING 81
SWIDTH 768 0
DWIDTH 16 0
BBX 16 13 0 0
BITMAP
07E0
1FF8
3C3C
300E
700E
6006
6006
6006
7036
303C
3C1C
1FFE
07E6
ENDCHAR
STARTCHAR R
ENCODING 82
SWIDTH 576 0
DWIDTH 12 0
BBX 13 13 0 0
BITMAP
3F00
3F80
30C0
30C0
30C0
3F80
3F00
3300
3380
3180
31C0
30C0
30C0
ENDCHAR
STARTCHAR S
ENCODING 83
SWIDTH 480 0
DWIDTH 10 0
BBX 10 13 0 0
BITMAP
1E00
3F00
6300
6000
7000
3C00
0F00
0380
0180
0180
6180
7F00
1E00
ENDCHAR
STARTCHAR T
ENCODING 84
SWIDTH 576 0
DWIDTH 12 0
BBX 12 13 0 0
BITMAP
FFE0
FFE0
0600
0600
0600
0600
0600
0600
0600
0600
0600
0600
0600
ENDCHAR
STARTCHAR U
ENCODING 85
SWIDTH 720 0
DWIDTH 15 0
BBX 15 13 0 0
BITMAP
300C
300C
300C
300C
300C
300C
300C
300C
300C
381C
1C38
0FF0
07E0
ENDCHAR
STARTCHAR V
ENCODING 86
SWIDTH 624 0
DWIDTH 13 0
BBX 13 13 0 0
BITMAP
6030
6030
7060
3060
3060
18C0
18C0
18C0
0D80
0D80
0700
0700
0700
ENDCHAR
STARTCHAR W
ENCODING 87
SWIDTH 960 0
DWIDTH 20 0
BBX 20 13 0 0
BITMAP
606060
70F0E0
30F0C0
30F0C0
399980
199980
199980
190980
0F0F00
0F0F00
0F0F00
060600
060600
ENDCHAR
STARTCHAR X
ENCODING 88
SWIDTH 672 0
DWIDTH 14 0
BBX 14 13 0 0
BITMAP
6030
7070
38E0
18C0
0D80
0F80
0700
0F80
0D80
18C0
38E0
7070
6030
ENDCHAR
STARTCHAR Y
ENCODING 89
SWIDTH 576 0
DWIDTH 12 0
BBX 12 13 0 0
BITMAP
6060
70E0
30C0
1980
1980
0F00
0F00
0600
0600
0600
0600
0600
0600
ENDCHAR
STARTCHAR Z
ENCODING 90
SWIDTH 624 0
DWIDTH 13 0
BBX 13 13 0 0
BITMAP
7FF0
7FF0
0070
00E0
01C0
0380
0700
0E00
1C00
3800
7000
7FF0
7FF0
ENDCHAR
STARTCHAR [
ENCODING 91
SWIDTH 336 0
DWIDTH 7 0
BBX 7 18 0 -2
BITMAP
3C
20
20
20
20
20
20
20
20
20
20
20
20
20
20
20
20
3C
ENDCHAR
STARTCHAR \
ENCODING 92
SWIDTH 288 0
DWIDTH 6 0
BBX 7 16 0 -1
BITMAP
C0
C0
60
60
60
20
30
30
10
18
18
18
08
0C
0C
04
ENDCHAR
STARTCHAR ]
ENCODING 93
SWIDTH 336 0
DWIDTH 7 0
BBX 7 18 0 -2
BITMAP
78
18
18
18
18
18
18
18
18
18
18
18
18
18
18
18
18
78
ENDCHAR
STARTCHAR ^
ENCODING 94
SWIDTH 576 0
DWIDTH 12 0
BBX 12 13 0 0
BITMAP
0600
0F00
1980
30C0
6060
0000
0000
0000
0000
0000
0000
0000
0000
ENDCHAR
STARTCHAR _
ENCODING 95
SWIDTH 480 0
DWIDTH 10 0
BBX 12 3 -1 -3
BITMAP
0000
0000
FFC0
ENDCHAR
STARTCHAR `
ENCODING 96
SWIDTH 432 0
DWIDTH 9 0
BBX 10 13 0 0
BITMAP
FF80
FF80
C180
C180
C180
C180
C180
C180
C180
C180
C180
FF80
FF80
ENDCHAR
STARTCHAR a
ENCODING 97
SWIDTH 480 0
DWIDTH 10 0
BBX 10 10 0 0
BITMAP
1E00
3F00
2180
0F80
3F80
7380
6180
7380
7F80
3D80
ENDCHAR
STARTCHAR b
ENCODING 98
SWIDTH 576 0
DWIDTH 12 0
BBX 12 13 0 0
BITMAP
3000
3000
3000
3F00
3FC0
30C0
3060
3060
3060
3060
30E0
3FC0
2F00
ENDCHAR
STARTCHAR c
ENCODING 99
SWIDTH 480 0
DWIDTH 10 0
BBX 10 10 0 0
BITMAP
0F00
3F80
3080
6000
6000
6000
6000
3080
3F80
0F00
ENDCHAR
STARTCHAR d
ENCODING 100
SWIDTH 576 0
DWIDTH 12 0
BBX 12 13 0 0
BITMAP
0060
0060
0060
0F60
3FE0
30E0
6060
6060
6060
6060
30E0
3FE0
0F60
ENDCHAR
STARTCHAR e
ENCODING 101
SWIDTH 528 0
DWIDTH 11 0
BBX 11 10 0 0
BITMAP
1F00
3F80
71C0
60C0
7FC0
7FC0
6000
70C0
3FC0
1F80
ENDCHAR
STARTCHAR f
ENCODING 102
SWIDTH 384 0
DWIDTH 8 0
BBX 8 13 0 0
BITMAP
1E
3E
30
FE
FE
30
30
30
30
30
30
30
30
ENDCHAR
STARTCHAR g
ENCODING 103
SWIDTH 480 0
DWIDTH 10 0
BBX 10 14 0 -4
BITMAP
1FC0
3FC0
7300
6180
7380
3F00
3E00
3000
3E00
7F80
C0C0
C0C0
7F80
3F00
ENDCHAR
STARTCHAR h
ENCODING 104
SWIDTH 576 0
DWIDTH 12 0
BBX 12 13 0 0
BITMAP
3000
3000
3000
3000
3F80
3FC0
30C0
30C0
30C0
30C0
30C0
30C0
30C0
ENDCHAR
STARTCHAR i
ENCODING 105
SWIDTH 240 0
DWIDTH 5 0
BBX 5 14 0 0
BITMAP
30
78
30
00
30
30
30
30
30
30
30
30
30
30
ENDCHAR
STARTCHAR j
ENCODING 106
SWIDTH 240 0
DWIDTH 5 0
BBX 6 17 -1 -4
BITMAP
18
3C
18
00
18
18
18
18
18
18
18
18
18
18
98
F0
60
ENDCHAR
STARTCHAR k
ENCODING 107
SWIDTH 528 0
DWIDTH 11 0
BBX 11 13 0 0
BITMAP
3000
3000
30C0
3180
3300
3600
3C00
3800
3C00
3600
3300
3180
30C0
ENDCHAR
STARTCHAR l
ENCODING 108
SWIDTH 288 0
DWIDTH 6 0
BBX 7 13 0 0
BITMAP
60
60
60
60
60
60
60
60
60
60
70
3C
1C
ENDCHAR
STARTCHAR m
ENCODING 109
SWIDTH 912 0
DWIDTH 19 0
BBX 19 10 0 0
BITMAP
2F1E00
3FFF00
30E380
30C180
30C180
30C180
30C180
30C180
30C180
30C180
ENDCHAR
STARTCHAR n
ENCODING 110
SWIDTH 576 0
DWIDTH 12 0
BBX 12 10 0 0
BITMAP
2F80
3FC0
30C0
30C0
30C0
30C0
30C0
30C0
30C0
30C0
ENDCHAR
STARTCHAR o
ENCODING 111
SWIDTH 576 0
DWIDTH 12 0
BBX 12 10 0 0
BITMAP
0F00
3FC0
30C0
6060
6060
6060
6060
30C0
3FC0
0F00
ENDCHAR
STARTCHAR p
ENCODING 112
SWIDTH 576 0
DWIDTH 12 0
BBX 12 14 0 -4
BITMAP
2F00
3FC0
30C0
3060
3060
3060
3060
30C0
3FC0
3F00
3000
3000
3000
3000
ENDCHAR
STARTCHAR q
ENCODING 113
SWIDTH 576 0
DWIDTH 12 0
BBX 12 14 0 -4
BITMAP
0F40
3FC0
30C0
6040
6040
6040
6040
30C0
3FC0
0FC0
00C0
00C0
00C0
00C0
ENDCHAR
STARTCHAR r
ENCODING 114
SWIDTH 384 0
DWIDTH 8 0
BBX 8 10 0 0
BITMAP
1F
3F
30
30
30
30
30
30
30
30
ENDCHAR
STARTCHAR s
ENCODING 115
SWIDTH 480 0
DWIDTH 10 0
BBX 10 10 0 0
BITMAP
1F00
3F80
6180
6000
3E00
1F00
0180
6180
7F00
3E00
ENDCHAR
STARTCHAR t
ENCODING 116
SWIDTH 384 0
DWIDTH 8 0
BBX 8 12 0 0
BITMAP
30
30
FE
FE
30
30
30
30
30
30
3E
1E
ENDCHAR
STARTCHAR u
ENCODING 117
SWIDTH 576 0
DWIDTH 12 0
BBX 12 10 0 0
BITMAP
30C0
30C0
30C0
30C0
30C0
30C0
30C0
39C0
1FC0
0F40
ENDCHAR
STARTCHAR v
ENCODING 118
SWIDTH 528 0
DWIDTH 11 0
BBX 11 10 0 0
BITMAP
60C0
60C0
6180
3180
3180
1B00
1B00
1E00
0E00
0E00
ENDCHAR
STARTCHAR w
ENCODING 119
SWIDTH 816 0
DWIDTH 17 0
BBX 17 10 0 0
BITMAP
608300
61C300
61C300
736700
336600
336600
1E3E00
1E3C00
0C1800
0C1800
ENDCHAR
STARTCHAR x
ENCODING 120
SWIDTH 480 0
DWIDTH 10 0
BBX 11 10 0 0
BITMAP
4080
6180
3300
1E00
0C00
0C00
1E00
3300
6180
4080
ENDCHAR
STARTCHAR y
ENCODING 121
SWIDTH 528 0
DWIDTH 11 0
BBX 11 14 0 -4
BITMAP
60C0
60C0
61C0
3180
3180
1B00
1B00
1B00
0E00
0E00
0C00
0C00
3C00
3800
ENDCHAR
STARTCHAR z
ENCODING 122
SWIDTH 432 0
DWIDTH 9 0
BBX 10 10 0 0
BITMAP
7F80
7F80
0300
0600
0C00
1800
3000
6000
7F80
7F80
ENDCHAR
STARTCHAR {
ENCODING 123
SWIDTH 336 0
DWIDTH 7 0
BBX 7 18 0 -2
BITMAP
0C
18
18
18
18
18
10
30
70
70
30
10
18
18
18
18
18
0C
ENDCHAR
STARTCHAR |
ENCODING 124
SWIDTH 240 0
DWIDTH 5 0
BBX 5 20 0 -5
BITMAP
60
60
60
60
60
60
60
60
60
60
60
60
60
60
60
60
60
60
60
60
ENDCHAR
STARTCHAR }
ENCODING 125
SWIDTH 336 0
DWIDTH 7 0
BBX 7 18 0 -2
BITMAP
70
30
10
10
10
10
18
18
0C
0C
18
18
10
10
10
10
30
70
ENDCHAR
STARTCHAR ~
ENCODING 126
SWIDTH 528 0
DWIDTH 11 0
BBX 11 8 0 0
BITMAP
38C0
3C80
6780
6300
0000
0000
0000
0000
ENDCHAR
STARTCHAR U+00A0
ENCODING 160
SWIDTH 240 0
DWIDTH 5 0
BBX 5 23 0 -5
BITMAP
00
00
00
00
00
00
00
00
00
00
00
00
00
00
00
00
00
00
00
00
00
00
00
ENDCHAR
STARTCHAR U+00A1
ENCODING 161
SWIDTH 288 0
DWIDTH 6 0
BBX 6 14 0 -4
BITMAP
20
30
00
00
30
30
30
30
30
30
30
30
30
30
ENDCHAR
STARTCHAR U+00A2
ENCODING 162
SWIDTH 480 0
DWIDTH 10 0
BBX 10 12 0 -1
BITMAP
0600
0F00
3F80
3080
6000
6000
6000
6000
3080
3F80
0F00
0600
ENDCHAR
STARTCHAR U+00A3
ENCODING 163
SWIDTH 528 0
DWIDTH 11 0
BBX 11 13 0 0
BITMAP
0780
0FC0
1C80
1800
1800
1800
3F00
7F00
1800
3000
3000
3FC0
7F80
ENDCHAR
STARTCHAR U+00A4
ENCODING 164
SWIDTH 576 0
DWIDTH 12 0
BBX 12 10 0 0
BITMAP
2040
7FE0
3FC0
38C0
30C0
30C0
38C0
3FC0
7FE0
2040
ENDCHAR
STARTCHAR U+00A5
ENCODING 165
SWIDTH 576 0
DWIDTH 12 0
BBX 12 13 0 0
BITMAP
6070
3060
30C0
1980
3DE0
3FE0
0700
3FE0
3FE0
0600
0600
0600
0600
ENDCHAR
STARTCHAR U+00A6
ENCODING 166
SWIDTH 240 0
DWIDTH 5 0
BBX 5 20 0 -5
BITMAP
60
60
60
60
60
60
60
60
00
00
00
00
60
60
60
60
60
60
60
60
ENDCHAR
STARTCHAR U+00A7
ENCODING 167
SWIDTH 480 0
DWIDTH 10 0
BBX 10 17 0 -4
BITMAP
1E00
7F00
6300
6100
6000
3C00
3F00
6380
4180
6180
3F00
0F00
0380
0180
6380
7F00
3E00
ENDCHAR
STARTCHAR U+00A8
ENCODING 168
SWIDTH 432 0
DWIDTH 9 0
BBX 10 13 0 0
BITMAP
FF80
FF80
C180
C180
C180
C180
C180
C180
C180
C180
C180
FF80
FF80
ENDCHAR
STARTCHAR U+00A9
ENCODING 169
SWIDTH 768 0
DWIDTH 16 0
BBX 16 13 0 0
BITMAP
07E0
0C10
1008
23C4
6C22
4C02
4C02
4C02
63E2
2004
1008
0C10
07E0
ENDCHAR
STARTCHAR U+00AA
ENCODING 170
SWIDTH 288 0
DWIDTH 6 0
BBX 6 13 0 0
BITMAP
78
08
78
48
78
00
00
00
00
00
00
00
00
ENDCHAR
STARTCHAR U+00AB
ENCODING 171
SWIDTH 528 0
DWIDTH 11 0
BBX 11 9 0 0
BITMAP
0CC0
1980
3300
6600
6600
3300
1980
0CC0
0000
ENDCHAR
STARTCHAR U+00AC
ENCODING 172
SWIDTH 528 0
DWIDTH 11 0
BBX 11 10 0 0
BITMAP
7F80
7F80
0080
0080
0080
0080
0000
0000
0000
0000
ENDCHAR
STARTCHAR U+00AD
ENCODING 173
SWIDTH 384 0
DWIDTH 8 0
BBX 8 6 0 0
BITMAP
7E
7E
00
00
00
00
ENDCHAR
STARTCHAR U+00AE
ENCODING 174
SWIDTH 768 0
DWIDTH 16 0
BBX 16 13 0 0
BITMAP
07E0
0C10
100C
27C4
6662
4662
47C2
46C2
6662
2624
1008
0C10
07E0
ENDCHAR
STARTCHAR U+00AF
ENCODING 175
SWIDTH 432 0
DWIDTH 9 0
BBX 10 13 0 0
BITMAP
FF80
FF80
C180
C180
C180
C180
C180
C180
C180
C180
C180
FF80
FF80
ENDCHAR
STARTCHAR U+00B0
ENCODING 176
SWIDTH 384 0
DWIDTH 8 0
BBX 8 13 0 0
BITMAP
3C
7C
66
66
7C
3C
00
00
00
00
00
00
00
ENDCHAR
STARTCHAR U+00B1
ENCODING 177
SWIDTH 528 0
DWIDTH 11 0
BBX 11 12 0 0
BITMAP
0400
0400
0400
7F80
7F80
0400
0400
0400
0000
0000
7F80
7F80
ENDCHAR
STARTCHAR U+00B2
ENCODING 178
SWIDTH 336 0
DWIDTH 7 0
BBX 7 13 0 0
BITMAP
38
7C
4C
08
18
10
3C
7C
00
00
00
00
00
ENDCHAR
STARTCHAR U+00B3
ENCODING 179
SWIDTH 336 0
DWIDTH 7 0
BBX 7 13 0 0
BITMAP
7C
18
10
38
0C
04
4C
78
00
00
00
00
00
ENDCHAR
STARTCHAR U+00B4
ENCODING 180
SWIDTH 432 0
DWIDTH 9 0
BBX 10 13 0 0
BITMAP
FF80
FF80
C180
C180
C180
C180
C180
C180
C180
C180
C180
FF80
FF80
ENDCHAR
STARTCHAR U+00B5
ENCODING 181
SWIDTH 576 0
DWIDTH 12 0
BBX 12 14 0 -4
BITMAP
30C0
30C0
30C0
30C0
30C0
30C0
30C0
31C0
3FC0
3EC0
3000
3000
3000
3000
ENDCHAR
STARTCHAR U+00B6
ENCODING 182
SWIDTH 528 0
DWIDTH 11 0
BBX 11 17 0 -4
BITMAP
1FE0
3C80
7C80
7C80
7C80
3C80
1C80
0480
0480
0480
0480
0480
0480
0480
0480
0480
0480
ENDCHAR
STARTCHAR U+00B7
ENCODING 183
SWIDTH 240 0
DWIDTH 5 0
BBX 5 8 0 0
BITMAP
20
70
20
00
00
00
00
00
ENDCHAR
STARTCHAR U+00B8
ENCODING 184
SWIDTH 432 0
DWIDTH 9 0
BBX 10 13 0 0
BITMAP
FF80
FF80
C180
C180
C180
C180
C180
C180
C180
C180
C180
FF80
FF80
ENDCHAR
STARTCHAR U+00B9
ENCODING 185
SWIDTH 240 0
DWIDTH 5 0
BBX 5 13 0 0
BITMAP
20
20
20
20
20
20
20
20
00
00
00
00
00
ENDCHAR
STARTCHAR U+00BA
ENCODING 186
SWIDTH 384 0
DWIDTH 8 0
BBX 8 13 0 0
BITMAP
3C
66
42
66
3C
00
00
00
00
00
00
00
00
ENDCHAR
STARTCHAR U+00BB
ENCODING 187
SWIDTH 528 0
DWIDTH 11 0
BBX 11 9 0 0
BITMAP
6300
3300
1980
0CC0
0CC0
1980
3300
6300
0000
ENDCHAR
STARTCHAR U+00BC
ENCODING 188
SWIDTH 768 0
DWIDTH 16 0
BBX 16 13 0 0
BITMAP
2020
2060
2040
20C0
2180
2182
2306
220E
061E
0436
0C7F
0806
1806
ENDCHAR
STARTCHAR U+00BD
ENCODING 189
SWIDTH 816 0
DWIDTH 17 0
BBX 17 13 0 0
BITMAP
202000
206000
204000
20C000
218000
218E00
231F00
221300
060200
040600
0C0400
080F00
181F00
ENDCHAR
STARTCHAR U+00BE
ENCODING 190
SWIDTH 816 0
DWIDTH 17 0
BBX 17 13 0 0
BITMAP
7C0800
181800
101000
383000
0C6000
046100
4CC300
788700
018F00
011B00
033F80
020300
060300
ENDCHAR
STARTCHAR U+00BF
ENCODING 191
SWIDTH 432 0
DWIDTH 9 0
BBX 9 14 0 -4
BITMAP
0400
0C00
0400
0000
0400
0E00
0600
1C00
3800
6000
6000
7100
3F00
1E00
ENDCHAR
STARTCHAR U+00C0
ENCODING 192
SWIDTH 624 0
DWIDTH 13 0
BBX 14 17 0 0
BITMAP
0600
0600
0300
0000
0300
0700
0780
0D80
0D80
0CC0
18C0
1860
3FE0
3FF0
7030
6030
6018
ENDCHAR
STARTCHAR U+00C1
ENCODING 193
SWIDTH 624 0
DWIDTH 13 0
BBX 14 17 0 0
BITMAP
0180
0300
0600
0000
0300
0700
0780
0D80
0D80
0CC0
18C0
1860
3FE0
3FF0
7030
6030
6018
ENDCHAR
STARTCHAR U+00C2
ENCODING 194
SWIDTH 624 0
DWIDTH 13 0
BBX 14 17 0 0
BITMAP
0700
0D00
0880
0000
0300
0700
0780
0D80
0D80
0CC0
18C0
1860
3FE0
3FF0
7030
6030
6018
ENDCHAR
STARTCHAR U+00C3
ENCODING 195
SWIDTH 624 0
DWIDTH 13 0
BBX 14 17 0 0
BITMAP
0C80
1F80
0380
0000
0300
0700
0780
0D80
0D80
0CC0
18C0
1860
3FE0
3FF0
7030
6030
6018
ENDCHAR
STARTCHAR U+00C4
ENCODING 196
SWIDTH 624 0
DWIDTH 13 0
BBX 14 17 0 0
BITMAP
0480
0CC0
0480
0000
0300
0700
0780
0D80
0D80
0CC0
18C0
1860
3FE0
3FF0
7030
6030
6018
ENDCHAR
STARTCHAR U+00C5
ENCODING 197
SWIDTH 624 0
DWIDTH 13 0
BBX 14 18 0 0
BITMAP
0700
0500
0500
0700
0000
0300
0700
0780
0D80
0D80
0CC0
18C0
1860
3FE0
3FF0
7030
6030
6018
ENDCHAR
STARTCHAR U+00C6
ENCODING 198
SWIDTH 912 0
DWIDTH 19 0
BBX 19 13 0 0
BITMAP
00FF80
01FF80
03E000
036000
066000
067F00
0C7F00
1FE000
1FE000
386000
306000
607FC0
607FC0
ENDCHAR
STARTCHAR U+00C7
ENCODING 199
SWIDTH 672 0
DWIDTH 14 0
BBX 14 17 0 -4
BITMAP
03E0
0FF8
1C18
3000
7000
6000
6000
6000
7000
3000
1C18
0FF8
03E0
0100
0380
00C0
0380
ENDCHAR
STARTCHAR U+00C8
ENCODING 200
SWIDTH 576 0
DWIDTH 12 0
BBX 12 17 0 0
BITMAP
0C00
0C00
0600
0000
3FC0
3FC0
3000
3000
3000
3F80
3F80
3000
3000
3000
3000
3FE0
3FE0
ENDCHAR
STARTCHAR U+00C9
ENCODING 201
SWIDTH 576 0
DWIDTH 12 0
BBX 12 17 0 0
BITMAP
0300
0600
0C00
0000
3FC0
3FC0
3000
3000
3000
3F80
3F80
3000
3000
3000
3000
3FE0
3FE0
ENDCHAR
STARTCHAR U+00CA
ENCODING 202
SWIDTH 576 0
DWIDTH 12 0
BBX 12 17 0 0
BITMAP
0700
0D00
0880
0000
3FC0
3FC0
3000
3000
3000
3F80
3F80
3000
3000
3000
3000
3FE0
3FE0
ENDCHAR
STARTCHAR U+00CB
ENCODING 203
SWIDTH 576 0
DWIDTH 12 0
BBX 12 17 0 0
BITMAP
0900
1980
0900
0000
3FC0
3FC0
3000
3000
3000
3F80
3F80
3000
3000
3000
3000
3FE0
3FE0
ENDCHAR
STARTCHAR U+00CC
ENCODING 204
SWIDTH 288 0
DWIDTH 6 0
BBX 6 17 0 0
BITMAP
60
60
30
00
30
30
30
30
30
30
30
30
30
30
30
30
30
ENDCHAR
STARTCHAR U+00CD
ENCODING 205
SWIDTH 288 0
DWIDTH 6 0
BBX 6 17 0 0
BITMAP
18
30
60
00
30
30
30
30
30
30
30
30
30
30
30
30
30
ENDCHAR
STARTCHAR U+00CE
ENCODING 206
SWIDTH 288 0
DWIDTH 6 0
BBX 6 17 0 0
BITMAP
00
00
00
00
00
00
00
00
00
00
00
00
00
00
00
00
00
ENDCHAR
STARTCHAR U+00CF
ENCODING 207
SWIDTH 288 0
DWIDTH 6 0
BBX 8 17 -1 0
BITMAP
48
CC
48
00
30
30
30
30
30
30
30
30
30
30
30
30
30
ENDCHAR
STARTCHAR U+00D0
ENCODING 208
SWIDTH 720 0
DWIDTH 15 0
BBX 15 13 0 0
BITMAP
3F80
3FE0
3070
3038
3018
3018
7E18
7E18
3018
3038
3070
3FE0
3F80
ENDCHAR
STARTCHAR U+00D1
ENCODING 209
SWIDTH 768 0
DWIDTH 16 0
BBX 16 17 0 0
BITMAP
0640
0FC0
01C0
0000
300C
380C
3C0C
3E0C
360C
330C
318C
31CC
30EC
307C
303C
301C
301C
ENDCHAR
STARTCHAR U+00D2
ENCODING 210
SWIDTH 768 0
DWIDTH 16 0
BBX 16 17 0 0
BITMAP
0300
0300
0180
0000
07E0
0FF8
1C1C
300E
7006
6006
6006
6006
7006
300E
1C1C
0FF8
07E0
ENDCHAR
STARTCHAR U+00D3
ENCODING 211
SWIDTH 768 0
DWIDTH 16 0
BBX 16 17 0 0
BITMAP
0060
00C0
0180
0000
07E0
0FF8
1C1C
300E
7006
6006
6006
6006
7006
300E
1C1C
0FF8
07E0
ENDCHAR
STARTCHAR U+00D4
ENCODING 212
SWIDTH 768 0
DWIDTH 16 0
BBX 16 17 0 0
BITMAP
01C0
0340
0220
0000
07E0
0FF8
1C1C
300E
7006
6006
6006
6006
7006
300E
1C1C
0FF8
07E0
ENDCHAR
STARTCHAR U+00D5
ENCODING 213
SWIDTH 768 0
DWIDTH 16 0
BBX 16 17 0 0
BITMAP
0320
07E0
00E0
0000
07E0
0FF8
1C1C
300E
7006
6006
6006
6006
7006
300E
1C1C
0FF8
07E0
ENDCHAR
STARTCHAR U+00D6
ENCODING 214
SWIDTH 768 0
DWIDTH 16 0
BBX 16 17 0 0
BITMAP
0240
0660
0240
0000
07E0
0FF8
1C1C
300E
7006
6006
6006
6006
7006
300E
1C1C
0FF8
07E0
ENDCHAR
STARTCHAR U+00D7
ENCODING 215
SWIDTH 528 0
DWIDTH 11 0
BBX 11 10 0 0
BITMAP
2180
3B00
1E00
0E00
1F00
3380
2100
0000
0000
0000
ENDCHAR
STARTCHAR U+00D8
ENCODING 216
SWIDTH 768 0
DWIDTH 16 0
BBX 16 13 0 0
BITMAP
07E2
0FFC
1C1C
301E
7066
60C6
6186
6306
7606
3C0E
1C1C
3FF8
27E0
ENDCHAR
STARTCHAR U+00D9
ENCODING 217
SWIDTH 720 0
DWIDTH 15 0
BBX 15 17 0 0
BITMAP
0300
0300
0180
0000
300C
300C
300C
300C
300C
300C
300C
300C
301C
3818
1C38
0FF0
07C0
ENDCHAR
STARTCHAR U+00DA
ENCODING 218
SWIDTH 720 0
DWIDTH 15 0
BBX 15 17 0 0
BITMAP
00C0
0180
0300
0000
300C
300C
300C
300C
300C
300C
300C
300C
301C
3818
1C38
0FF0
07C0
ENDCHAR
STARTCHAR U+00DB
ENCODING 219
SWIDTH 720 0
DWIDTH 15 0
BBX 15 17 0 0
BITMAP
0380
0680
0440
0000
300C
300C
300C
300C
300C
300C
300C
300C
301C
3818
1C38
0FF0
07C0
ENDCHAR
STARTCHAR U+00DC
ENCODING 220
SWIDTH 720 0
DWIDTH 15 0
BBX 15 17 0 0
BITMAP
0240
0660
0240
0000
300C
300C
300C
300C
300C
300C
300C
300C
301C
3818
1C38
0FF0
07C0
ENDCHAR
STARTCHAR U+00DD
ENCODING 221
SWIDTH 576 0
DWIDTH 12 0
BBX 12 17 0 0
BITMAP
0300
0600
0C00
0000
6060
7060
30C0
1980
1D80
0F00
0700
0600
0600
0600
0600
0600
0600
ENDCHAR
STARTCHAR U+00DE
ENCODING 222
SWIDTH 576 0
DWIDTH 12 0
BBX 12 13 0 0
BITMAP
3000
3000
3000
3F80
3FC0
30E0
3060
3060
30E0
3FC0
3F80
3000
3000
ENDCHAR
STARTCHAR U+00DF
ENCODING 223
SWIDTH 528 0
DWIDTH 11 0
BBX 11 13 0 0
BITMAP
0F00
3F80
3180
3080
3180
3700
3780
31C0
30C0
30C0
30C0
37C0
3700
ENDCHAR
STARTCHAR U+00E0
ENCODING 224
SWIDTH 480 0
DWIDTH 10 0
BBX 10 14 0 0
BITMAP
1800
1800
0C00
0000
1E00
3F00
2180
0F80
3180
6180
6180
6380
7F80
3D80
ENDCHAR
STARTCHAR U+00E1
ENCODING 225
SWIDTH 480 0
DWIDTH 10 0
BBX 10 14 0 0
BITMAP
0600
0C00
1800
0000
1E00
3F00
2180
0F80
3180
6180
6180
6380
7F80
3D80
ENDCHAR
STARTCHAR U+00E2
ENCODING 226
SWIDTH 480 0
DWIDTH 10 0
BBX 10 14 0 0
BITMAP
0E00
1A00
1100
0000
1E00
3F00
2180
0F80
3180
6180
6180
6380
7F80
3D80
ENDCHAR
STARTCHAR U+00E3
ENCODING 227
SWIDTH 480 0
DWIDTH 10 0
BBX 10 14 0 0
BITMAP
1900
3F00
0700
0000
1E00
3F00
2180
0F80
3180
6180
6180
6380
7F80
3D80
ENDCHAR
STARTCHAR U+00E4
ENCODING 228
SWIDTH 480 0
DWIDTH 10 0
BBX 10 14 0 0
BITMAP
1200
3300
1200
0000
1E00
3F00
2180
0F80
3180
6180
6180
6380
7F80
3D80
ENDCHAR
STARTCHAR U+00E5
ENCODING 229
SWIDTH 480 0
DWIDTH 10 0
BBX 10 15 0 0
BITMAP
0E00
0A00
0A00
0E00
0000
1E00
3F00
2180
0F80
3180
6180
6180
6380
7F80
3D80
ENDCHAR
STARTCHAR U+00E6
ENCODING 230
SWIDTH 816 0
DWIDTH 17 0
BBX 17 10 0 0
BITMAP
1E3C00
3FFE00
23C600
018300
0FFF00
318000
618000
61C200
7FFE00
3E3C00
ENDCHAR
STARTCHAR U+00E7
ENCODING 231
SWIDTH 480 0
DWIDTH 10 0
BBX 10 14 0 -4
BITMAP
0F00
3F80
3080
6000
6000
6000
6000
3080
3F80
0F00
0600
0700
0100
0F00
ENDCHAR
STARTCHAR U+00E8
ENCODING 232
SWIDTH 528 0
DWIDTH 11 0
BBX 11 14 0 0
BITMAP
0C00
0C00
0600
0000
0F00
3F80
31C0
60C0
7FC0
7FC0
6000
30C0
3FC0
0F80
ENDCHAR
STARTCHAR U+00E9
ENCODING 233
SWIDTH 528 0
DWIDTH 11 0
BBX 11 14 0 0
BITMAP
0300
0600
0C00
0000
0F00
3F80
31C0
60C0
7FC0
7FC0
6000
30C0
3FC0
0F80
ENDCHAR
STARTCHAR U+00EA
ENCODING 234
SWIDTH 528 0
DWIDTH 11 0
BBX 11 14 0 0
BITMAP
0E00
1A00
1100
0000
0F00
3F80
31C0
60C0
7FC0
7FC0
6000
30C0
3FC0
0F80
ENDCHAR
STARTCHAR U+00EB
ENCODING 235
SWIDTH 528 0
DWIDTH 11 0
BBX 11 14 0 0
BITMAP
1200
3300
1200
0000
0F00
3F80
31C0
60C0
7FC0
7FC0
6000
30C0
3FC0
0F80
ENDCHAR
STARTCHAR U+00EC
ENCODING 236
SWIDTH 240 0
DWIDTH 5 0
BBX 6 14 -1 0
BITMAP
00
00
00
00
00
00
00
00
00
00
00
00
00
00
ENDCHAR
STARTCHAR U+00ED
ENCODING 237
SWIDTH 240 0
DWIDTH 5 0
BBX 6 14 0 0
BITMAP
18
30
60
00
30
30
30
30
30
30
30
30
30
30
ENDCHAR
STARTCHAR U+00EE
ENCODING 238
SWIDTH 240 0
DWIDTH 5 0
BBX 7 14 -1 0
BITMAP
70
D0
88
00
30
30
30
30
30
30
30
30
30
30
ENDCHAR
STARTCHAR U+00EF
ENCODING 239
SWIDTH 240 0
DWIDTH 5 0
BBX 7 14 -1 0
BITMAP
00
00
00
00
00
00
00
00
00
00
00
00
00
00
ENDCHAR
STARTCHAR U+00F0
ENCODING 240
SWIDTH 528 0
DWIDTH 11 0
BBX 11 13 0 0
BITMAP
1900
0E00
1F00
3380
1D80
3FC0
71C0
60C0
60C0
60C0
71C0
3F80
1F00
ENDCHAR
STARTCHAR U+00F1
ENCODING 241
SWIDTH 576 0
DWIDTH 12 0
BBX 12 14 0 0
BITMAP
0C80
1F80
0380
0000
2F80
3FC0
30C0
30C0
3060
3060
3060
3060
3060
3060
ENDCHAR
STARTCHAR U+00F2
ENCODING 242
SWIDTH 576 0
DWIDTH 12 0
BBX 12 14 0 0
BITMAP
0C00
0C00
0600
0000
0F00
3FC0
30E0
6060
6060
6060
6060
30E0
3FC0
0F00
ENDCHAR
STARTCHAR U+00F3
ENCODING 243
SWIDTH 576 0
DWIDTH 12 0
BBX 12 14 0 0
BITMAP
0300
0600
0C00
0000
0F00
3FC0
30E0
6060
6060
6060
6060
30E0
3FC0
0F00
ENDCHAR
STARTCHAR U+00F4
ENCODING 244
SWIDTH 576 0
DWIDTH 12 0
BBX 12 14 0 0
BITMAP
0700
0D00
0880
0000
0F00
3FC0
30E0
6060
6060
6060
6060
30E0
3FC0
0F00
ENDCHAR
STARTCHAR U+00F5
ENCODING 245
SWIDTH 576 0
DWIDTH 12 0
BBX 12 14 0 0
BITMAP
0C80
1F80
0380
0000
0F00
3FC0
30E0
6060
6060
6060
6060
30E0
3FC0
0F00
ENDCHAR
STARTCHAR U+00F6
ENCODING 246
SWIDTH 576 0
DWIDTH 12 0
BBX 12 14 0 0
BITMAP
0900
1980
0900
0000
0F00
3FC0
30E0
6060
6060
6060
6060
30E0
3FC0
0F00
ENDCHAR
STARTCHAR U+00F7
ENCODING 247
SWIDTH 528 0
DWIDTH 11 0
BBX 11 12 0 0
BITMAP
0400
0E00
0400
0000
7F80
7F80
0000
0000
0400
0E00
0400
0000
ENDCHAR
STARTCHAR U+00F8
ENCODING 248
SWIDTH 576 0
DWIDTH 12 0
BBX 12 10 0 0
BITMAP
0F40
3FC0
30E0
6160
6260
6460
6C60
38E0
3FC0
2F00
ENDCHAR
STARTCHAR U+00F9
ENCODING 249
SWIDTH 576 0
DWIDTH 12 0
BBX 12 14 0 0
BITMAP
0C00
0C00
0600
0000
6040
6040
6040
6040
6040
6040
3040
30C0
3FC0
1F40
ENDCHAR
STARTCHAR U+00FA
ENCODING 250
SWIDTH 576 0
DWIDTH 12 0
BBX 12 14 0 0
BITMAP
0300
0600
0C00
0000
6040
6040
6040
6040
6040
6040
3040
30C0
3FC0
1F40
ENDCHAR
STARTCHAR U+00FB
ENCODING 251
SWIDTH 576 0
DWIDTH 12 0
BBX 12 14 0 0
BITMAP
0700
0D00
0880
0000
6040
6040
6040
6040
6040
6040
3040
30C0
3FC0
1F40
ENDCHAR
STARTCHAR U+00FC
ENCODING 252
SWIDTH 576 0
DWIDTH 12 0
BBX 12 14 0 0
BITMAP
0900
1980
0900
0000
6040
6040
6040
6040
6040
6040
3040
30C0
3FC0
1F40
ENDCHAR
STARTCHAR U+00FD
ENCODING 253
SWIDTH 528 0
DWIDTH 11 0
BBX 11 18 0 -4
BITMAP
0300
0600
0C00
0000
60C0
60C0
61C0
3180
3180
1B00
1B00
1B00
0E00
0E00
0C00
0C00
3800
3000
ENDCHAR
STARTCHAR U+00FE
ENCODING 254
SWIDTH 576 0
DWIDTH 12 0
BBX 12 17 0 -4
BITMAP
3000
3000
3000
3F00
3FC0
30C0
3060
3060
3060
3060
30C0
3FC0
3F00
3000
3000
3000
3000
ENDCHAR
STARTCHAR U+00FF
ENCODING 255
SWIDTH 528 0
DWIDTH 11 0
BBX 11 18 0 -4
BITMAP
1200
3300
1200
0000
60C0
60C0
61C0
3180
3180
1B00
1B00
1B00
0E00
0E00
0C00
0C00
3800
3000
ENDCHAR
STARTCHAR U+2013
ENCODING 8211
SWIDTH 480 0
DWIDTH 10 0
BBX 12 6 -1 0
BITMAP
FFC0
FFC0
0000
0000
0000
0000
ENDCHAR
STARTCHAR U+2014
ENCODING 8212
SWIDTH 960 0
DWIDTH 20 0
BBX 22 6 -1 0
BITMAP
FFFFF0
FFFFF0
000000
000000
000000
000000
ENDCHAR
STARTCHAR U+2018
ENCODING 8216
SWIDTH 240 0
DWIDTH 5 0
BBX 5 13 0 0
BITMAP
20
20
60
30
20
00
00
00
00
00
00
00
00
ENDCHAR
STARTCHAR U+2019
ENCODING 8217
SWIDTH 240 0
DWIDTH 5 0
BBX 5 13 0 0
BITMAP
20
70
30
20
00
00
00
00
00
00
00
00
00
ENDCHAR
STARTCHAR U+201C
ENCODING 8220
SWIDTH 384 0
DWIDTH 8 0
BBX 8 13 0 0
BITMAP
24
24
6C
36
24
00
00
00
00
00
00
00
00
ENDCHAR
STARTCHAR U+201D
ENCODING 8221
SWIDTH 384 0
DWIDTH 8 0
BBX 8 13 0 0
BITMAP
24
7E
36
24
00
00
00
00
00
00
00
00
00
ENDCHAR
STARTCHAR U+2022
ENCODING 8226
SWIDTH 384 0
DWIDTH 8 0
BBX 8 9 0 0
BITMAP
08
1C
3E
1C
08
00
00
00
00
ENDCHAR
STARTCHAR U+2026
ENCODING 8230
SWIDTH 864 0
DWIDTH 18 0
BBX 18 3 0 0
BITMAP
204100
60C300
204100
ENDCHAR
STARTCHAR U+20AC
ENCODING 8364
SWIDTH 624 0
DWIDTH 13 0
BBX 13 13 0 0
BITMAP
07C0
0FE0
1C20
3000
7F80
FF80
7000
7F80
FF00
3000
1C20
0FE0
07C0
ENDCHAR
ENDFONT
