STARTFONT 2.1
COMMENT Converted from Johnston100 W03 Regular.ttf at 44px with ttf2bdf.py (Pillow, 1-bit, no AA)
FONT -Misc-Johnston100-Medium-R-Normal--44-440-75-75-P-460-ISO10646-1
SIZE 44 75 75
FONTBOUNDINGBOX 46 50 -2 -11
STARTPROPERTIES 9
FOUNDRY "Misc"
FAMILY_NAME "Johnston100"
WEIGHT_NAME "Medium"
SLANT "R"
PIXEL_SIZE 44
RESOLUTION_X 75
RESOLUTION_Y 75
FONT_ASCENT 39
FONT_DESCENT 11
ENDPROPERTIES
CHARS 200
STARTCHAR space
ENCODING 32
SWIDTH 240 0
DWIDTH 11 0
BBX 11 50 0 -11
BITMAP
0000
0000
0000
0000
0000
0000
0000
0000
0000
0000
0000
0000
0000
0000
0000
0000
0000
0000
0000
0000
0000
0000
0000
0000
0000
0000
0000
0000
0000
0000
0000
0000
0000
0000
0000
0000
0000
0000
0000
0000
0000
0000
0000
0000
0000
0000
0000
0000
0000
0000
ENDCHAR
STARTCHAR !
ENCODING 33
SWIDTH 284 0
DWIDTH 13 0
BBX 13 30 0 0
BITMAP
0F80
0F80
0F80
0F80
0F80
0F80
0F80
0F80
0F80
0F80
0F80
0F00
0F00
0F00
0F00
0700
0700
0700
0700
0700
0700
0700
0700
0000
0200
0700
0F80
0F80
0700
0200
ENDCHAR
STARTCHAR "
ENCODING 34
SWIDTH 393 0
DWIDTH 18 0
BBX 18 30 0 0
BITMAP
1E1E00
1E1E00
1E1E00
1E1E00
1E1E00
1E1E00
1E1E00
1E1E00
0E0C00
0C0C00
0C0C00
000000
000000
000000
000000
000000
000000
000000
000000
000000
000000
000000
000000
000000
000000
000000
000000
000000
000000
000000
ENDCHAR
STARTCHAR U+0023
ENCODING 35
SWIDTH 720 0
DWIDTH 33 0
BBX 33 30 0 0
BITMAP
0000C03000
000380F000
000780E000
000781E000
000701E000
000F01C000
000F03C000
000E03C000
07FFFFFF00
07FFFFFF00
0FFFFFFE00
0FFFFFFE00
001C070000
003C070000
00380F0000
00380E0000
00780E0000
00781E0000
3FFFFFF800
3FFFFFF800
3FFFFFF800
7FFFFFF000
00E03C0000
01E0380000
01E0780000
01C0780000
01C0700000
03C0700000
0380F00000
0200800000
ENDCHAR
STARTCHAR $
ENCODING 36
SWIDTH 480 0
DWIDTH 22 0
BBX 22 37 0 -4
BITMAP
007800
007800
007800
01FE00
07FF00
0FFF80
0FFFC0
1F0780
1E0300
1E0000
1E0000
1F0000
1F8000
1FE000
0FF800
07FC00
03FF00
00FF80
003FC0
000FE0
0003F0
0001F0
0001F0
0000F0
0000F0
1800F0
3C01F0
7E01F0
3F07E0
1FFFE0
0FFFC0
07FF00
01FC00
007800
007800
007800
000000
ENDCHAR
STARTCHAR %
ENCODING 37
SWIDTH 720 0
DWIDTH 33 0
BBX 33 30 0 0
BITMAP
03E003C000
0FF8038000
1FFC078000
1E3C070000
3C1E0F0000
3C0E0E0000
3C0E1E0000
3C1E1C0000
1E3C3C0000
1FFC380000
0FF8780000
03E0F00000
0000F00000
0001E00000
0001E00000
0003C00000
0003C00000
0007800000
000783E000
000F0FF000
000E1FF800
001E3E3C00
001C3C1C00
003C381E00
0038381E00
00783C1C00
00703E3C00
00F01FF800
00E00FF800
01E003E000
ENDCHAR
STARTCHAR &
ENCODING 38
SWIDTH 655 0
DWIDTH 30 0
BBX 30 30 0 0
BITMAP
003F0000
00FFC000
01FFE000
03FFF000
03E1F000
07C0F000
0780F800
0780F800
07C0F000
07C1F000
03E3F000
01F7E000
00FFC000
00FF0000
01FE0000
07FF01E0
0FFF83E0
1F8FC3C0
1F07E7C0
3E03F780
3E01FF80
3E00FF00
3E007E00
3E003E00
3F00FF00
1F83FF80
0FFFFFC0
0FFFE7E0
03FF83F0
00FE01F8
ENDCHAR
STARTCHAR '
ENCODING 39
SWIDTH 218 0
DWIDTH 10 0
BBX 10 30 0 0
BITMAP
1E00
1E00
1E00
1E00
1E00
1E00
1E00
1E00
0E00
0C00
0C00
0000
0000
0000
0000
0000
0000
0000
0000
0000
0000
0000
0000
0000
0000
0000
0000
0000
0000
0000
ENDCHAR
STARTCHAR (
ENCODING 40
SWIDTH 262 0
DWIDTH 12 0
BBX 12 36 0 -4
BITMAP
03C0
03C0
0780
0780
0780
0F00
0F00
0F00
0E00
1E00
1E00
1E00
1E00
1E00
1E00
1E00
1E00
1E00
1E00
1E00
1E00
1E00
1E00
1E00
1E00
1E00
1E00
0E00
0F00
0F00
0F00
0780
0780
0780
03C0
03C0
ENDCHAR
STARTCHAR )
ENCODING 41
SWIDTH 262 0
DWIDTH 12 0
BBX 12 36 0 -4
BITMAP
7800
3C00
3C00
1E00
1E00
1E00
0F00
0F00
0F00
0F00
0700
0780
0780
0780
0780
0780
0780
0780
0780
0780
0780
0780
0780
0780
0780
0700
0F00
0F00
0F00
0F00
1E00
1E00
1E00
3C00
3C00
7800
ENDCHAR
STARTCHAR *
ENCODING 42
SWIDTH 393 0
DWIDTH 18 0
BBX 18 30 0 0
BITMAP
01E000
01E000
11C200
38C600
3CCF00
1FDE00
07F800
01F000
07F000
1EDC00
3CCF00
38C600
11C200
01E000
01E000
000000
000000
000000
000000
000000
000000
000000
000000
000000
000000
000000
000000
000000
000000
000000
ENDCHAR
STARTCHAR +
ENCODING 43
SWIDTH 524 0
DWIDTH 24 0
BBX 24 24 0 0
BITMAP
003C00
003C00
003C00
003C00
003C00
003C00
003C00
1FFFF8
1FFFF8
1FFFF8
1FFFF8
003C00
003C00
003C00
003C00
003C00
003C00
003C00
000000
000000
000000
000000
000000
000000
ENDCHAR
STARTCHAR ,
ENCODING 44
SWIDTH 240 0
DWIDTH 11 0
BBX 11 11 0 -5
BITMAP
0400
0E00
1F00
3F00
1F00
0F00
0F00
0E00
0C00
1800
0000
ENDCHAR
STARTCHAR -
ENCODING 45
SWIDTH 371 0
DWIDTH 17 0
BBX 17 14 0 0
BITMAP
3FFE00
3FFE00
3FFE00
3FFE00
000000
000000
000000
000000
000000
000000
000000
000000
000000
000000
ENDCHAR
STARTCHAR .
ENCODING 46
SWIDTH 240 0
DWIDTH 11 0
BBX 11 6 0 0
BITMAP
0400
0E00
1F00
1F00
0E00
0400
ENDCHAR
STARTCHAR /
ENCODING 47
SWIDTH 305 0
DWIDTH 14 0
BBX 15 36 0 -4
BITMAP
003C
003C
003C
0078
0078
0078
00F0
00F0
00F0
00E0
01E0
01E0
01E0
03C0
03C0
03C0
0380
0780
0780
0780
0F00
0F00
0F00
0E00
1E00
1E00
1E00
3C00
3C00
3C00
3800
7800
7800
7800
F000
F000
ENDCHAR
STARTCHAR 0
ENCODING 48
SWIDTH 567 0
DWIDTH 26 0
BBX 26 30 0 0
BITMAP
003F0000
00FFC000
01FFE000
03FFF000
07E1F000
07C0F800
0F807800
0F007C00
0F007C00
1F003C00
1F003C00
1F003C00
1E003E00
1E003E00
1E003E00
1E003E00
1E003E00
1E003C00
1F003C00
1F003C00
1F003C00
0F007C00
0F007C00
0F807800
07C0F800
07E1F000
03FFF000
01FFE000
00FFC000
003F0000
ENDCHAR
STARTCHAR 1
ENCODING 49
SWIDTH 284 0
DWIDTH 13 0
BBX 13 30 0 0
BITMAP
0080
0180
0780
0780
0780
0780
0780
0780
0780
0780
0780
0780
0780
0780
0780
0780
0780
0780
0780
0780
0780
0780
0780
0780
0780
0780
0780
0780
0780
0780
ENDCHAR
STARTCHAR 2
ENCODING 50
SWIDTH 480 0
DWIDTH 22 0
BBX 22 30 0 0
BITMAP
00FC00
03FF00
07FF80
0FFFC0
1F87E0
1E03E0
1C01F0
1801F0
1001F0
0001F0
0001E0
0003E0
0003E0
0007C0
0007C0
000F80
001F80
001F00
003E00
007E00
007C00
00F800
01F800
01F000
03E000
03E000
07FFF0
0FFFF0
0FFFF0
1FFFF0
ENDCHAR
STARTCHAR 3
ENCODING 51
SWIDTH 502 0
DWIDTH 23 0
BBX 23 30 0 0
BITMAP
3FFFF8
3FFFF0
3FFFE0
3FFFE0
0007C0
000780
000F80
001F00
001E00
003E00
003C00
007F00
00FF80
00FFE0
0107E0
0001F0
0000F0
0000F8
0000F8
000078
000078
0000F8
0000F8
0800F0
1C01F0
3E07E0
3FFFE0
1FFFC0
07FF00
01FC00
ENDCHAR
STARTCHAR 4
ENCODING 52
SWIDTH 545 0
DWIDTH 25 0
BBX 25 30 0 0
BITMAP
00000000
00001000
00003000
00007000
0000F000
0000F000
0001F000
0003F000
0007F000
000FF000
001FF000
001EF000
003CF000
0078F000
00F0F000
01E0F000
03E0F000
03C0F000
0780F000
0FFFFF00
1FFFFF00
3FFFFF00
7FFFFF00
0000F000
0000F000
0000F000
0000F000
0000F000
0000F000
0000F000
ENDCHAR
STARTCHAR 5
ENCODING 53
SWIDTH 502 0
DWIDTH 23 0
BBX 23 30 0 0
BITMAP
07FFF0
07FFF0
07FFE0
07FFE0
078000
078000
0F8000
0F8000
0F0000
0F0000
0FF800
0FFF00
0FFF80
0FFFC0
080FE0
0003E0
0001E0
0001F0
0001F0
0000F0
0000F0
0000F0
0001F0
2001E0
7003E0
FC0FC0
7FFFC0
3FFF80
0FFE00
03F800
ENDCHAR
STARTCHAR 6
ENCODING 54
SWIDTH 502 0
DWIDTH 23 0
BBX 23 30 0 0
BITMAP
000FC0
001F80
003F00
007E00
00FC00
00F800
01F000
03E000
03C000
07C000
078000
0FFF80
0FFFE0
0FFFF0
0FFFF8
1FC1F8
1F007C
1E007C
1E003C
1E003C
1E003C
1F003C
1F003C
0F807C
0F80F8
07E1F8
07FFF0
03FFE0
01FFC0
007F00
ENDCHAR
STARTCHAR 7
ENCODING 55
SWIDTH 480 0
DWIDTH 22 0
BBX 22 30 0 0
BITMAP
1FFFF8
1FFFF0
1FFFF0
1FFFF0
0003E0
0003E0
0003C0
0007C0
000780
000F80
000F00
001F00
001F00
003E00
003E00
007C00
007C00
007800
00F800
00F000
01F000
01F000
03E000
03E000
07C000
07C000
078000
0F8000
0F8000
1F0000
ENDCHAR
STARTCHAR 8
ENCODING 56
SWIDTH 502 0
DWIDTH 23 0
BBX 23 30 0 0
BITMAP
007E00
01FF80
03FFC0
07FFE0
0FC3E0
0F01F0
0F00F0
0F00F0
0F01F0
0F81E0
0FC3E0
07EFC0
03FF80
01FF00
01FF80
07FFC0
0FC7E0
1F83F0
1F00F8
1E00F8
3E0078
3E0078
3E0078
3E00F8
1F00F8
1F83F0
0FFFF0
07FFE0
03FF80
00FE00
ENDCHAR
STARTCHAR 9
ENCODING 57
SWIDTH 502 0
DWIDTH 23 0
BBX 23 30 0 0
BITMAP
00FC00
03FF00
0FFF80
1FFFC0
1F87E0
3E03E0
3C01F0
7C01F0
7C00F0
7800F0
7C00F8
7C00F0
7C00F0
3E00F0
3F03F0
1FFFF0
0FFFF0
07FFE0
01FFE0
0003E0
0003C0
0007C0
000F80
000F00
001F00
003E00
007C00
00F800
03F000
07E000
ENDCHAR
STARTCHAR :
ENCODING 58
SWIDTH 284 0
DWIDTH 13 0
BBX 13 23 0 0
BITMAP
0200
0700
0F80
0F80
0700
0200
0000
0000
0000
0000
0000
0000
0000
0000
0000
0000
0000
0200
0700
0F80
0F80
0700
0200
ENDCHAR
STARTCHAR ;
ENCODING 59
SWIDTH 284 0
DWIDTH 13 0
BBX 13 27 0 -5
BITMAP
0200
0700
0F80
0F80
0700
0200
0000
0000
0000
0000
0000
0000
0000
0000
0000
0000
0200
0700
0F80
1F80
0F80
0780
0780
0700
0600
0C00
0000
ENDCHAR
STARTCHAR U+003C
ENCODING 60
SWIDTH 524 0
DWIDTH 24 0
BBX 24 26 0 0
BITMAP
000018
000078
0001F8
0007F8
000FF8
003FE0
00FF80
03FE00
0FF800
1FC000
1F0000
1FC000
0FF800
03FE00
00FF80
003FE0
000FF8
0007F8
0001F8
000078
000018
000000
000000
000000
000000
000000
ENDCHAR
STARTCHAR =
ENCODING 61
SWIDTH 524 0
DWIDTH 24 0
BBX 24 22 0 0
BITMAP
1FFFF8
1FFFF8
1FFFF8
1FFFF8
000000
000000
000000
000000
000000
1FFFF8
1FFFF8
1FFFF8
1FFFF8
000000
000000
000000
000000
000000
000000
000000
000000
000000
ENDCHAR
STARTCHAR U+003E
ENCODING 62
SWIDTH 524 0
DWIDTH 24 0
BBX 24 26 0 0
BITMAP
100000
1C0000
1F0000
1FC000
1FF000
07FC00
01FF00
007FC0
001FF0
0007F8
0001F8
0007F8
001FF0
007FC0
01FF00
07FC00
1FF000
1FC000
1F0000
1C0000
100000
000000
000000
000000
000000
000000
ENDCHAR
STARTCHAR ?
ENCODING 63
SWIDTH 436 0
DWIDTH 20 0
BBX 20 30 0 0
BITMAP
03F000
0FFE00
3FFF00
7FFF00
7E1F80
380780
1007C0
0007C0
0007C0
000780
000F80
003F00
007F00
01FC00
03F800
03E000
07C000
07C000
07C000
03E000
03F000
01E000
00C000
000000
00C000
01E000
03F000
03F000
01E000
00C000
ENDCHAR
STARTCHAR @
ENCODING 64
SWIDTH 916 0
DWIDTH 42 0
BBX 42 38 0 -8
BITMAP
00007FE00000
0003FFFC0000
000FFFFF0000
001FFFFFC000
007FC03FE000
00FE0007F000
01F80001F800
03F00000FC00
03E01F847C00
07C07FFC3E00
0781FFFC1E00
0F03F0FC1E00
0F03C03C0F00
1E0780380F00
1E0780380F00
1E0F00780F00
1C0F00780F00
1C0F00780F00
1C0F00780F00
1C0E00780F00
1C0E00780E00
1C0F00780E00
1C0F00701E00
1C0F00701C00
1E0F00703C00
1E0780F87800
1E07C1FFF000
0F03FFFFE000
0F01FF9F8000
07807E000000
07C000000000
03E000000000
01F000000000
00FC00080000
007F00780000
001FFFF80000
0007FFF80000
0000FFC00000
ENDCHAR
STARTCHAR A
ENCODING 65
SWIDTH 655 0
DWIDTH 30 0
BBX 30 30 0 0
BITMAP
00078000
000F8000
000FC000
001FC000
001FC000
001FE000
003FE000
003DF000
007DF000
0078F000
0078F800
00F87800
00F07C00
01F07C00
01F03C00
01E03E00
03E01E00
03E01F00
07C01F00
07FFFF00
07FFFF80
0FFFFF80
0FFFFFC0
1F0007C0
1F0003E0
1E0003E0
3E0003E0
3E0001F0
7C0001F0
7C0000F8
ENDCHAR
STARTCHAR B
ENCODING 66
SWIDTH 589 0
DWIDTH 27 0
BBX 27 30 0 0
BITMAP
0FFF0000
0FFFC000
0FFFE000
0FFFF000
0F81F800
0F80F800
0F80F800
0F807800
0F807800
0F80F800
0F80F800
0F81F000
0FFFE000
0FFFF000
0FFFF800
0FFFFC00
0F807E00
0F801F00
0F801F00
0F800F00
0F800F00
0F800F00
0F800F00
0F801F00
0F801F00
0F807E00
0FFFFE00
0FFFFC00
0FFFF000
0FFFC000
ENDCHAR
STARTCHAR C
ENCODING 67
SWIDTH 655 0
DWIDTH 30 0
BBX 30 30 0 0
BITMAP
0003FC00
001FFF80
007FFFE0
00FFFFF0
01FE03F0
03F00070
07E00030
07C00000
0F800000
0F000000
1F000000
1F000000
1E000000
1E000000
1E000000
1E000000
1E000000
1E000000
1F000000
1F000000
0F800000
0F800000
07C00000
07E00030
03F00070
01FE03F0
00FFFFF0
003FFFC0
001FFF80
0003FC00
ENDCHAR
STARTCHAR D
ENCODING 68
SWIDTH 698 0
DWIDTH 32 0
BBX 32 30 0 0
BITMAP
0FFFC000
0FFFF800
0FFFFE00
0FFFFF00
0F807F80
0F801FC0
0F8007E0
0F8003F0
0F8001F0
0F8000F8
0F8000F8
0F8000F8
0F800078
0F800078
0F800078
0F800078
0F800078
0F800078
0F8000F8
0F8000F8
0F8000F8
0F8001F0
0F8003F0
0F8007E0
0F801FC0
0F807F80
0FFFFF00
0FFFFE00
0FFFF800
0FFF8000
ENDCHAR
STARTCHAR E
ENCODING 69
SWIDTH 545 0
DWIDTH 25 0
BBX 25 30 0 0
BITMAP
0FFFFE00
0FFFFE00
0FFFFE00
0FFFFE00
0F800000
0F800000
0F800000
0F800000
0F800000
0F800000
0F800000
0F800000
0FFFF000
0FFFF000
0FFFF000
0FFFF000
0F800000
0F800000
0F800000
0F800000
0F800000
0F800000
0F800000
0F800000
0F800000
0F800000
0FFFFF00
0FFFFF00
0FFFFF00
0FFFFF00
ENDCHAR
STARTCHAR F
ENCODING 70
SWIDTH 502 0
DWIDTH 23 0
BBX 23 30 0 0
BITMAP
0FFFFC
0FFFFC
0FFFFC
0FFFFC
0F8000
0F8000
0F8000
0F8000
0F8000
0F8000
0F8000
0F8000
0FFFE0
0FFFE0
0FFFE0
0FFFE0
0F8000
0F8000
0F8000
0F8000
0F8000
0F8000
0F8000
0F8000
0F8000
0F8000
0F8000
0F8000
0F8000
0F8000
ENDCHAR
STARTCHAR G
ENCODING 71
SWIDTH 698 0
DWIDTH 32 0
BBX 32 30 0 0
BITMAP
0003FF00
001FFFE0
003FFFF8
00FFFFF8
01FE01F8
03F80078
07E00018
07C00000
0F800000
0F000000
1F000000
1F000000
1E000000
1E003FF8
1E003FF8
1E003FF8
1E003FF8
1E000078
1F000078
1F000078
0F800078
0F800078
0FC00078
07E00078
03F80078
01FE01F8
00FFFFF8
007FFFF8
001FFFF0
0003FF00
ENDCHAR
STARTCHAR H
ENCODING 72
SWIDTH 698 0
DWIDTH 32 0
BBX 32 30 0 0
BITMAP
0F8000F0
0F8000F0
0F8000F0
0F8000F0
0F8000F0
0F8000F0
0F8000F0
0F8000F0
0F8000F0
0F8000F0
0F8000F0
0F8000F0
0FFFFFF0
0FFFFFF0
0FFFFFF0
0FFFFFF0
0F8000F0
0F8000F0
0F8000F0
0F8000F0
0F8000F0
0F8000F0
0F8000F0
0F8000F0
0F8000F0
0F8000F0
0F8000F0
0F8000F0
0F8000F0
0F8000F0
ENDCHAR
STARTCHAR I
ENCODING 73
SWIDTH 284 0
DWIDTH 13 0
BBX 13 30 0 0
BITMAP
0F80
0F80
0F80
0F80
0F80
0F80
0F80
0F80
0F80
0F80
0F80
0F80
0F80
0F80
0F80
0F80
0F80
0F80
0F80
0F80
0F80
0F80
0F80
0F80
0F80
0F80
0F80
0F80
0F80
0F80
ENDCHAR
STARTCHAR J
ENCODING 74
SWIDTH 458 0
DWIDTH 21 0
BBX 21 30 0 0
BITMAP
000780
000780
000780
000780
000780
000780
000780
000780
000780
000780
000780
000780
000780
000780
000780
000780
000780
000780
000780
000780
000780
000780
000780
080F80
3C0F80
7E1F00
3FFF00
3FFE00
0FFC00
03F000
ENDCHAR
STARTCHAR K
ENCODING 75
SWIDTH 611 0
DWIDTH 28 0
BBX 28 30 0 0
BITMAP
0F800FC0
0F801F80
0F803F00
0F807E00
0F80FC00
0F81F800
0F83F000
0F87E000
0F8FC000
0FBF0000
0FFE0000
0FFC0000
0FF80000
0FF80000
0FFC0000
0FFE0000
0FFF0000
0FBF0000
0F9F8000
0F8FC000
0F87E000
0F83F000
0F81F800
0F80FC00
0F807E00
0F803E00
0F803F00
0F801F80
0F800FC0
0F8007E0
ENDCHAR
STARTCHAR L
ENCODING 76
SWIDTH 524 0
DWIDTH 24 0
BBX 24 30 0 0
BITMAP
0F8000
0F8000
0F8000
0F8000
0F8000
0F8000
0F8000
0F8000
0F8000
0F8000
0F8000
0F8000
0F8000
0F8000
0F8000
0F8000
0F8000
0F8000
0F8000
0F8000
0F8000
0F8000
0F8000
0F8000
0F8000
0F8000
0FFFFE
0FFFFE
0FFFFE
0FFFFE
ENDCHAR
STARTCHAR M
ENCODING 77
SWIDTH 829 0
DWIDTH 38 0
BBX 38 30 0 0
BITMAP
0F800007C0
0FC0000FC0
0FE0001FC0
0FF0001FC0
0FF0003FC0
0FF8007FC0
0FFC00FFC0
0FFE01FFC0
0FBF03F7C0
0F9F03E7C0
0F8F87C7C0
0F8FCFC7C0
0F87FF87C0
0F83FF07C0
0F81FE07C0
0F80FC07C0
0F807C07C0
0F807807C0
0F803007C0
0F800007C0
0F800007C0
0F800007C0
0F800007C0
0F800007C0
0F800007C0
0F800007C0
0F800007C0
0F800007C0
0F800007C0
0F800007C0
ENDCHAR
STARTCHAR N
ENCODING 78
SWIDTH 742 0
DWIDTH 34 0
BBX 34 30 0 0
BITMAP
0F80003C00
0F80003C00
0FC0003C00
0FE0003C00
0FF0003C00
0FF0003C00
0FF8003C00
0FFC003C00
0FFE003C00
0FBF003C00
0F9F003C00
0F8F803C00
0F8FC03C00
0F87E03C00
0F83E03C00
0F81F03C00
0F80F83C00
0F80FC3C00
0F807C3C00
0F803E3C00
0F801F3C00
0F801FBC00
0F800FFC00
0F8007FC00
0F8003FC00
0F8003FC00
0F8001FC00
0F8000FC00
0F80007C00
0F80003C00
ENDCHAR
STARTCHAR O
ENCODING 79
SWIDTH 785 0
DWIDTH 36 0
BBX 36 30 0 0
BITMAP
0003FC0000
001FFF8000
007FFFE000
00FFFFF000
01FC07F800
03F000FC00
07E0007E00
07C0003F00
0F80001F00
0F00000F80
1F00000F80
1F00000780
1E00000780
1E000007C0
1E000007C0
1E000007C0
1E000007C0
1E00000780
1F00000780
1F00000F80
0F00000F80
0F80001F00
07C0003F00
07E0007E00
03F000FC00
01FE03F800
00FFFFF000
007FFFE000
001FFF8000
0003FC0000
ENDCHAR
STARTCHAR P
ENCODING 80
SWIDTH 567 0
DWIDTH 26 0
BBX 26 30 0 0
BITMAP
0FFFC000
0FFFF000
0FFFF800
0FFFFC00
0F80FE00
0F803E00
0F801F00
0F801F00
0F801F00
0F801F00
0F801F00
0F801F00
0F803E00
0F80FE00
0FFFFC00
0FFFF800
0FFFF000
0FFF8000
0F800000
0F800000
0F800000
0F800000
0F800000
0F800000
0F800000
0F800000
0F800000
0F800000
0F800000
0F800000
ENDCHAR
STARTCHAR Q
ENCODING 81
SWIDTH 785 0
DWIDTH 36 0
BBX 36 31 0 -1
BITMAP
0003FC0000
001FFF8000
007FFFE000
00FFFFF000
01FC07F800
03F000FC00
07E0007E00
07C0003F00
0F80001F00
0F00000F80
1F00000F80
1F00000780
1E00000780
1E000007C0
1E000007C0
1E000007C0
1E000007C0
1E00000780
1F00000780
1F00010F80
0F00038F80
0F8007DF00
07C007FF00
07E003FE00
03F001FC00
01FE03FE00
00FFFFFF00
007FFFFF00
001FFF8F80
0003FC0700
0000000200
ENDCHAR
STARTCHAR R
ENCODING 82
SWIDTH 567 0
DWIDTH 26 0
BBX 27 30 0 0
BITMAP
0FFF0000
0FFFE000
0FFFF000
0FFFF800
0F81F800
0F807C00
0F807C00
0F803C00
0F803C00
0F807C00
0F807C00
0F81F800
0FFFF800
0FFFF000
0FFFE000
0FFF0000
0F8F8000
0F8FC000
0F87E000
0F83E000
0F83F000
0F81F800
0F80F800
0F80FC00
0F807E00
0F803E00
0F801F00
0F801F80
0F800F80
0F8007C0
ENDCHAR
STARTCHAR S
ENCODING 83
SWIDTH 480 0
DWIDTH 22 0
BBX 22 30 0 0
BITMAP
01FC00
07FF00
0FFF80
0FFFC0
1F0780
1E0300
1E0000
1E0000
1F0000
1F8000
1FC000
0FF000
07FC00
03FF00
00FF80
003FC0
000FE0
0003F0
0001F0
0001F0
0000F0
0000F0
0800F0
3C01F0
7E01F0
3F07E0
1FFFC0
0FFF80
07FF00
01FC00
ENDCHAR
STARTCHAR T
ENCODING 84
SWIDTH 545 0
DWIDTH 25 0
BBX 25 30 0 0
BITMAP
7FFFFF00
7FFFFF00
7FFFFF00
7FFFFF00
003E0000
003E0000
003E0000
003E0000
003E0000
003E0000
003E0000
003E0000
003E0000
003E0000
003E0000
003E0000
003E0000
003E0000
003E0000
003E0000
003E0000
003E0000
003E0000
003E0000
003E0000
003E0000
003E0000
003E0000
003E0000
003E0000
ENDCHAR
STARTCHAR U
ENCODING 85
SWIDTH 742 0
DWIDTH 34 0
BBX 34 30 0 0
BITMAP
0F00003C00
0F00003C00
0F00003C00
0F00003C00
0F00003C00
0F00003C00
0F00003C00
0F00003C00
0F00003C00
0F00003C00
0F00003C00
0F00003C00
0F00003C00
0F00003C00
0F00003C00
0F00003C00
0F00003C00
0F00003C00
0F00003C00
0F80007C00
0F80007C00
0780007800
07C000F800
03E001F000
03F003F000
01FC0FE000
00FFFFC000
007FFF8000
001FFE0000
0007F80000
ENDCHAR
STARTCHAR V
ENCODING 86
SWIDTH 611 0
DWIDTH 28 0
BBX 28 30 0 0
BITMAP
7C0003E0
7C0003E0
3E0003C0
3E0007C0
1E0007C0
1F000780
1F000F80
0F000F80
0F800F00
0F801F00
07C01F00
07C01E00
03C03E00
03E03C00
03E03C00
01E07C00
01F07800
00F0F800
00F0F800
00F8F000
0079F000
0079F000
007DE000
003FE000
003FC000
001FC000
001FC000
001F8000
000F8000
000F8000
ENDCHAR
STARTCHAR W
ENCODING 87
SWIDTH 938 0
DWIDTH 43 0
BBX 43 30 0 0
BITMAP
3C0000000780
3E001F000F80
3E001F000F80
1E001F800F00
1F003F800F00
1F003F801F00
1F003FC01F00
0F007FC01E00
0F807BC01E00
0F807BE03E00
078079E03C00
07C0F1E03C00
07C0F1E07C00
03C0F1F07C00
03C1E0F07800
03E1E0F07800
03E1E0F8F800
01E3E078F000
01F3C078F000
01F3C07CF000
00F3C03DF000
00F7803DE000
00FF803FE000
007F803FE000
007F001FC000
007F001FC000
007F001FC000
003F000FC000
003E000F8000
003E000F8000
ENDCHAR
STARTCHAR X
ENCODING 88
SWIDTH 655 0
DWIDTH 30 0
BBX 30 30 0 0
BITMAP
7E0003E0
3F0007E0
1F0007C0
0F800F80
07C01F80
07E03F00
03E03E00
01F07C00
00F8FC00
00FCF800
007FF000
003FE000
001FE000
001FC000
000FC000
001FC000
003FE000
003FF000
007DF800
00F8F800
01F87C00
01F03E00
03E03F00
07C01F00
0FC00F80
0F8007C0
1F0007E0
3F0003F0
7E0001F0
7C0000F8
ENDCHAR
STARTCHAR Y
ENCODING 89
SWIDTH 567 0
DWIDTH 26 0
BBX 26 30 0 0
BITMAP
7C000780
3E000F80
3E001F00
1F001F00
0F803E00
0F803C00
07C07C00
07C0F800
03E0F000
01F1F000
01F3E000
00FBE000
007FC000
007F8000
003F8000
001F0000
001F0000
001F0000
001F0000
001F0000
001F0000
001F0000
001F0000
001F0000
001F0000
001F0000
001F0000
001F0000
001F0000
001F0000
ENDCHAR
STARTCHAR Z
ENCODING 90
SWIDTH 611 0
DWIDTH 28 0
BBX 28 30 0 0
BITMAP
3FFFFFC0
3FFFFF80
3FFFFF80
3FFFFF00
00003E00
00003E00
00007C00
0000F800
0001F800
0001F000
0003E000
0007E000
0007C000
000F8000
001F8000
001F0000
003E0000
007E0000
007C0000
00F80000
01F80000
01F00000
03E00000
07E00000
07C00000
0F800000
1FFFFFC0
1FFFFFC0
3FFFFFC0
7FFFFFC0
ENDCHAR
STARTCHAR [
ENCODING 91
SWIDTH 327 0
DWIDTH 15 0
BBX 15 40 0 -5
BITMAP
0FF8
0FF8
0FF8
0F00
0F00
0F00
0F00
0F00
0F00
0F00
0F00
0F00
0F00
0F00
0F00
0F00
0F00
0F00
0F00
0F00
0F00
0F00
0F00
0F00
0F00
0F00
0F00
0F00
0F00
0F00
0F00
0F00
0F00
0F00
0F00
0F00
0F00
0FF8
0FF8
0FF8
ENDCHAR
STARTCHAR \
ENCODING 92
SWIDTH 305 0
DWIDTH 14 0
BBX 15 36 0 -4
BITMAP
F000
F000
7800
7800
7800
3800
3C00
3C00
3C00
1E00
1E00
1E00
0F00
0F00
0F00
0F00
0780
0780
0780
03C0
03C0
03C0
03C0
01E0
01E0
01E0
00F0
00F0
00F0
0070
0078
0078
0078
003C
003C
003C
ENDCHAR
STARTCHAR ]
ENCODING 93
SWIDTH 327 0
DWIDTH 15 0
BBX 15 40 0 -5
BITMAP
3FE0
3FE0
3FE0
01E0
01E0
01E0
01E0
01E0
01E0
01E0
01E0
01E0
01E0
01E0
01E0
01E0
01E0
01E0
01E0
01E0
01E0
01E0
01E0
01E0
01E0
01E0
01E0
01E0
01E0
01E0
01E0
01E0
01E0
01E0
01E0
01E0
01E0
3FE0
3FE0
3FE0
ENDCHAR
STARTCHAR ^
ENCODING 94
SWIDTH 545 0
DWIDTH 25 0
BBX 25 30 0 0
BITMAP
003E0000
003F0000
007F8000
00F78000
01F3C000
01E3E000
03C1E000
07C0F000
0780F800
0F007800
1F003C00
1E003E00
00000000
00000000
00000000
00000000
00000000
00000000
00000000
00000000
00000000
00000000
00000000
00000000
00000000
00000000
00000000
00000000
00000000
00000000
ENDCHAR
STARTCHAR _
ENCODING 95
SWIDTH 480 0
DWIDTH 22 0
BBX 24 5 -1 -5
BITMAP
000000
000000
000000
FFFFFC
FFFFFC
ENDCHAR
STARTCHAR `
ENCODING 96
SWIDTH 436 0
DWIDTH 20 0
BBX 21 30 0 0
BITMAP
FFFFF0
FFFFF0
FFFFF0
FFFFF0
F000F0
F000F0
F000F0
F000F0
F000F0
F000F0
F000F0
F000F0
F000F0
F000F0
F000F0
F000F0
F000F0
F000F0
F000F0
F000F0
F000F0
F000F0
F000F0
F000F0
F000F0
F000F0
FFFFF0
FFFFF0
FFFFF0
FFFFF0
ENDCHAR
STARTCHAR a
ENCODING 97
SWIDTH 502 0
DWIDTH 23 0
BBX 23 22 0 0
BITMAP
00FC00
07FF00
0FFFC0
0FFFC0
0F07E0
0C03E0
1001E0
0001E0
001FF0
01FFF0
07FFF0
0FE1F0
1F01F0
1E01F0
3E01F0
3C01F0
3E03F0
3F0FF0
1FFFF0
1FFFF0
0FFDF0
03F1F0
ENDCHAR
STARTCHAR b
ENCODING 98
SWIDTH 567 0
DWIDTH 26 0
BBX 26 30 0 0
BITMAP
0F000000
0F000000
0F000000
0F000000
0F000000
0F000000
0F000000
0F000000
0F1F8000
0F7FE000
0FFFF800
0FFFFC00
0FC0FC00
0F803E00
0F001E00
0F001F00
0F000F00
0F000F00
0F000F00
0F000F00
0F000F00
0F000F00
0F001F00
0F001F00
0F803E00
0FC0FE00
0FFFFC00
0FFFF800
0EFFE000
0E3F8000
ENDCHAR
STARTCHAR c
ENCODING 99
SWIDTH 480 0
DWIDTH 22 0
BBX 22 22 0 0
BITMAP
003FC0
00FFF0
03FFF0
07FFF0
0FE070
0F8010
1F0000
1E0000
3E0000
3C0000
3C0000
3C0000
3E0000
3E0000
1E0000
1F0000
0F8010
0FE070
07FFF0
03FFF0
00FFF0
003FC0
ENDCHAR
STARTCHAR d
ENCODING 100
SWIDTH 567 0
DWIDTH 26 0
BBX 26 30 0 0
BITMAP
00001E00
00001E00
00001E00
00001E00
00001E00
00001E00
00001E00
00001E00
003F1E00
01FFDE00
03FFFE00
07FFFE00
0FE0FE00
1F803E00
1F001E00
1E001E00
3E001E00
3E001E00
3C001E00
3C001E00
3E001E00
3E001E00
1E001E00
1F001E00
1F803E00
0FE0FE00
07FFFE00
03FFFE00
01FFDE00
003F1E00
ENDCHAR
STARTCHAR e
ENCODING 101
SWIDTH 524 0
DWIDTH 24 0
BBX 24 22 0 0
BITMAP
007F00
01FFC0
03FFE0
07FFF0
0FC1F8
1F80F8
1F0078
1E007C
3E003C
3FFFFC
3FFFFC
3FFFFC
3FFFFC
3E0000
1E0000
1E0000
1F000C
0FC07C
07FFFC
03FFFC
01FFF0
003F80
ENDCHAR
STARTCHAR f
ENCODING 102
SWIDTH 371 0
DWIDTH 17 0
BBX 17 30 0 0
BITMAP
007F00
01FF00
03FF00
07FF00
07C000
0F8000
0F8000
0F0000
7FFF00
7FFF00
7FFF00
7FFF00
0F0000
0F0000
0F0000
0F0000
0F0000
0F0000
0F0000
0F0000
0F0000
0F0000
0F0000
0F0000
0F0000
0F0000
0F0000
0F0000
0F0000
0F0000
ENDCHAR
STARTCHAR g
ENCODING 103
SWIDTH 502 0
DWIDTH 23 0
BBX 23 30 0 -8
BITMAP
01FFFC
07FFFC
0FFFFC
1FFFFC
1F07C0
3E01E0
3C01E0
3C01E0
3C01E0
1E01E0
1F07E0
0FFFC0
0FFF80
07FF00
0FFC00
0F0000
0F8000
0FF800
07FF00
0FFFC0
1F3FF0
3C03F8
780078
780078
78007C
7E00F8
7FFFF8
3FFFF0
0FFFE0
03FF00
ENDCHAR
STARTCHAR h
ENCODING 104
SWIDTH 567 0
DWIDTH 26 0
BBX 26 30 0 0
BITMAP
0F000000
0F000000
0F000000
0F000000
0F000000
0F000000
0F000000
0F000000
0F1F8000
0F7FE000
0FFFF800
0FFFF800
0FC0FC00
0F807E00
0F003E00
0F001E00
0F001E00
0F001E00
0F001E00
0F001E00
0F001E00
0F001E00
0F001E00
0F001E00
0F001E00
0F001E00
0F001E00
0F001E00
0F001E00
0F001E00
ENDCHAR
STARTCHAR i
ENCODING 105
SWIDTH 240 0
DWIDTH 11 0
BBX 11 29 0 0
BITMAP
0400
0E00
1F00
1F00
0E00
0400
0000
0F00
0F00
0F00
0F00
0F00
0F00
0F00
0F00
0F00
0F00
0F00
0F00
0F00
0F00
0F00
0F00
0F00
0F00
0F00
0F00
0F00
0F00
ENDCHAR
STARTCHAR j
ENCODING 106
SWIDTH 240 0
DWIDTH 11 0
BBX 12 37 -1 -8
BITMAP
0200
0700
0F80
0F80
0700
0200
0000
0780
0780
0780
0780
0780
0780
0780
0780
0780
0780
0780
0780
0780
0780
0780
0780
0780
0780
0780
0780
0780
0780
0780
0F80
0F80
0F00
FF00
FE00
FE00
F800
ENDCHAR
STARTCHAR k
ENCODING 107
SWIDTH 502 0
DWIDTH 23 0
BBX 24 30 0 0
BITMAP
0F0000
0F0000
0F0000
0F0000
0F0000
0F0000
0F0000
0F0000
0F00FC
0F01F8
0F03F0
0F07E0
0F0FC0
0F1F00
0F7E00
0FFC00
0FF800
0FF000
0FF000
0FF800
0FFC00
0F7E00
0F3F00
0F1F80
0F0FC0
0F07E0
0F03F0
0F01F8
0F00FC
0F007E
ENDCHAR
STARTCHAR l
ENCODING 108
SWIDTH 305 0
DWIDTH 14 0
BBX 14 30 0 0
BITMAP
1E00
1E00
1E00
1E00
1E00
1E00
1E00
1E00
1E00
1E00
1E00
1E00
1E00
1E00
1E00
1E00
1E00
1E00
1E00
1E00
1E00
1E00
1E00
1F00
1F00
0F80
0FF8
0FF8
07F8
01F8
ENDCHAR
STARTCHAR m
ENCODING 109
SWIDTH 895 0
DWIDTH 41 0
BBX 41 22 0 0
BITMAP
0F1F807F0000
0F7FE1FFC000
0FFFF7FFE000
0FFFFFFFF000
0FE0FF81F800
0F807E00F800
0F003C007800
0F003C007800
0F003E007C00
0F003E007C00
0F003E007C00
0F003E007C00
0F003E007C00
0F003E007C00
0F003E007C00
0F003E007C00
0F003E007C00
0F003E007C00
0F003E007C00
0F003E007C00
0F003E007C00
0F003E007C00
ENDCHAR
STARTCHAR n
ENCODING 110
SWIDTH 567 0
DWIDTH 26 0
BBX 26 22 0 0
BITMAP
0F1F8000
0F7FE000
0FFFF800
0FFFF800
0FC0FC00
0F807E00
0F003E00
0F001E00
0F001E00
0F001E00
0F001E00
0F001E00
0F001E00
0F001E00
0F001E00
0F001E00
0F001E00
0F001E00
0F001E00
0F001E00
0F001E00
0F001E00
ENDCHAR
STARTCHAR o
ENCODING 111
SWIDTH 589 0
DWIDTH 27 0
BBX 27 22 0 0
BITMAP
003F8000
00FFE000
03FFF800
07FFFC00
0FE0FE00
0F803E00
1F001F00
1E000F00
3E000F00
3E000F80
3C000F80
3C000F80
3E000F80
3E000F00
1E000F00
1F001F00
0F803E00
0FE0FE00
07FFFC00
03FFF800
00FFE000
003F8000
ENDCHAR
STARTCHAR p
ENCODING 112
SWIDTH 567 0
DWIDTH 26 0
BBX 26 30 0 -8
BITMAP
0E3F8000
0EFFE000
0FFFF800
0FFFFC00
0FC0FC00
0F807E00
0F001F00
0F001F00
0F000F00
0F000F00
0F000F00
0F000F00
0F000F00
0F000F00
0F001F00
0F003F00
0F807E00
0FC0FC00
0FFFFC00
0FFFF800
0FFFE000
0F3F8000
0F000000
0F000000
0F000000
0F000000
0F000000
0F000000
0F000000
0F000000
ENDCHAR
STARTCHAR q
ENCODING 113
SWIDTH 567 0
DWIDTH 26 0
BBX 26 30 0 -8
BITMAP
003F1E00
01FFDE00
03FFFE00
07FFFE00
0FE0FE00
1F803E00
1F001E00
1E001E00
3E001E00
3C001E00
3C001E00
3C001E00
3E001E00
3E001E00
1E001E00
1F001E00
1F803E00
0FE0FE00
07FFFE00
03FFFE00
01FFDE00
003F1E00
00001E00
00001E00
00001E00
00001E00
00001E00
00001E00
00001E00
00001E00
ENDCHAR
STARTCHAR r
ENCODING 114
SWIDTH 393 0
DWIDTH 18 0
BBX 18 22 0 0
BITMAP
0F3F80
0FFF80
0FFF80
0FFF80
0FC000
0F8000
0F0000
0F0000
0F0000
0F0000
0F0000
0F0000
0F0000
0F0000
0F0000
0F0000
0F0000
0F0000
0F0000
0F0000
0F0000
0F0000
ENDCHAR
STARTCHAR s
ENCODING 115
SWIDTH 458 0
DWIDTH 21 0
BBX 21 22 0 0
BITMAP
01FC00
07FF00
0FFF80
1FFF80
1F0380
3E0080
3E0000
3E0000
1FC000
1FFC00
0FFF00
03FFC0
007FC0
0007E0
0003E0
2001E0
3801E0
3E03E0
3FFFC0
3FFFC0
0FFF00
03FC00
ENDCHAR
STARTCHAR t
ENCODING 116
SWIDTH 393 0
DWIDTH 18 0
BBX 18 27 0 0
BITMAP
0F0000
0F0000
0F0000
0F0000
0F0000
7FFF80
7FFF80
7FFF80
7FFF80
0F0000
0F0000
0F0000
0F0000
0F0000
0F0000
0F0000
0F0000
0F0000
0F0000
0F0000
0F8000
0F8000
07C000
07FF80
03FF80
01FF80
007F80
ENDCHAR
STARTCHAR u
ENCODING 117
SWIDTH 567 0
DWIDTH 26 0
BBX 26 22 0 0
BITMAP
1E001E00
1E001E00
1E001E00
1E001E00
1E001E00
1E001E00
1E001E00
1E001E00
1E001E00
1E001E00
1E001E00
1E001E00
1E001E00
1F001E00
1F001E00
0F001E00
0F803E00
0FE0FE00
07FFFE00
03FFFE00
01FFDE00
007F1E00
ENDCHAR
STARTCHAR v
ENCODING 118
SWIDTH 524 0
DWIDTH 24 0
BBX 24 22 0 0
BITMAP
7C003E
7C003E
3C003C
3E007C
1E0078
1F00F8
1F00F0
0F00F0
0F81F0
0781E0
0783E0
03C3C0
03C3C0
03E780
01E780
01EF80
00FF00
00FF00
00FE00
007E00
007E00
003C00
ENDCHAR
STARTCHAR w
ENCODING 119
SWIDTH 829 0
DWIDTH 38 0
BBX 38 22 0 0
BITMAP
7C007800F8
3C007800F0
3E00FC01F0
3E00FC01F0
1E01FE01E0
1F01FE01E0
1F01FE03E0
0F03CF03C0
0F03CF03C0
0F83CF07C0
0787878780
0787878780
07CF07CF80
03CF03CF00
03CF03CF00
03FE01FF00
01FE01FE00
01FE01FE00
01FC00FE00
00FC00FC00
00F800FC00
00F8007C00
ENDCHAR
STARTCHAR x
ENCODING 120
SWIDTH 502 0
DWIDTH 23 0
BBX 23 22 0 0
BITMAP
3E00F8
3E01F0
1F03E0
0F83C0
07C7C0
07CF80
03FF00
01FE00
00FE00
00FC00
007C00
00FE00
01FE00
03FF00
03EF80
07C7C0
0F87C0
1F03E0
1F01F0
3E00F8
7C00F8
78007C
ENDCHAR
STARTCHAR y
ENCODING 121
SWIDTH 524 0
DWIDTH 24 0
BBX 24 30 0 -8
BITMAP
78003E
7C003E
3C003C
3E007C
1E0078
1E00F8
1F00F0
0F00F0
0F81F0
0781E0
07C1E0
03C3C0
03C3C0
03E7C0
01E780
01F780
00FF00
00FF00
007F00
007E00
007E00
003C00
003C00
007C00
007800
00F800
0FF000
0FF000
0FE000
0F8000
ENDCHAR
STARTCHAR z
ENCODING 122
SWIDTH 458 0
DWIDTH 21 0
BBX 21 22 0 0
BITMAP
3FFFF0
3FFFE0
3FFFC0
3FFFC0
000F80
000F00
001F00
003E00
003E00
007C00
00F800
00F800
01F000
03E000
03E000
07C000
0F8000
0F8000
1FFFE0
1FFFE0
3FFFE0
7FFFE0
ENDCHAR
STARTCHAR {
ENCODING 123
SWIDTH 349 0
DWIDTH 16 0
BBX 16 39 0 -5
BITMAP
007C
00FC
01FC
03E0
03C0
03C0
03C0
03C0
03C0
03C0
03C0
03C0
03C0
03C0
03C0
07C0
0780
1F80
3F00
3C00
3F00
1F80
0780
07C0
03C0
03C0
03C0
03C0
03C0
03C0
03C0
03C0
03C0
03C0
03C0
03E0
01FC
00FC
007C
ENDCHAR
STARTCHAR |
ENCODING 124
SWIDTH 218 0
DWIDTH 10 0
BBX 10 44 0 -11
BITMAP
1E00
1E00
1E00
1E00
1E00
1E00
1E00
1E00
1E00
1E00
1E00
1E00
1E00
1E00
1E00
1E00
1E00
1E00
1E00
1E00
1E00
1E00
1E00
1E00
1E00
1E00
1E00
1E00
1E00
1E00
1E00
1E00
1E00
1E00
1E00
1E00
1E00
1E00
1E00
1E00
1E00
1E00
1E00
1E00
ENDCHAR
STARTCHAR }
ENCODING 125
SWIDTH 349 0
DWIDTH 16 0
BBX 16 39 0 -5
BITMAP
3E00
3F00
3F80
0780
03C0
03C0
03C0
03C0
03C0
03C0
03C0
03C0
03C0
03C0
03C0
03C0
01E0
01F8
00FC
007C
00FC
01F8
01E0
03C0
03C0
03C0
03C0
03C0
03C0
03C0
03C0
03C0
03C0
03C0
03C0
0780
3F80
3F00
3C00
ENDCHAR
STARTCHAR ~
ENCODING 126
SWIDTH 524 0
DWIDTH 24 0
BBX 24 19 0 0
BITMAP
03C030
07F038
0FF838
1FFC78
1E7FF0
1C1FF0
3C0FE0
0C03C0
000000
000000
000000
000000
000000
000000
000000
000000
000000
000000
000000
ENDCHAR
STARTCHAR U+00A0
ENCODING 160
SWIDTH 240 0
DWIDTH 11 0
BBX 11 50 0 -11
BITMAP
0000
0000
0000
0000
0000
0000
0000
0000
0000
0000
0000
0000
0000
0000
0000
0000
0000
0000
0000
0000
0000
0000
0000
0000
0000
0000
0000
0000
0000
0000
0000
0000
0000
0000
0000
0000
0000
0000
0000
0000
0000
0000
0000
0000
0000
0000
0000
0000
0000
0000
ENDCHAR
STARTCHAR U+00A1
ENCODING 161
SWIDTH 284 0
DWIDTH 13 0
BBX 13 30 0 -8
BITMAP
0200
0700
0F80
0F80
0700
0200
0000
0700
0700
0700
0700
0700
0700
0700
0F00
0F00
0F00
0F00
0F00
0F80
0F80
0F80
0F80
0F80
0F80
0F80
0F80
0F80
0F80
0F80
ENDCHAR
STARTCHAR U+00A2
ENCODING 162
SWIDTH 480 0
DWIDTH 22 0
BBX 22 28 0 -3
BITMAP
001E00
001E00
001E00
003FC0
00FFF0
03FFF0
07FFF0
0FE070
0F8010
1F0000
1E0000
3E0000
3C0000
3C0000
3C0000
3E0000
3E0000
1E0000
1F0000
0F8010
0FE070
07FFF0
03FFF0
00FFF0
003FC0
001E00
001E00
001E00
ENDCHAR
STARTCHAR U+00A3
ENCODING 163
SWIDTH 524 0
DWIDTH 24 0
BBX 24 30 0 0
BITMAP
000FC0
003FF0
007FF8
00FFF8
00F870
01F020
01E000
01E000
03E000
03E000
03E000
03E000
03C000
03C000
1FFF80
1FFF80
1FFF80
1FFF00
03C000
03C000
07C000
07C000
078000
078000
0F8000
0F0000
0FFFFC
1FFFF8
3FFFF8
3FFFF0
ENDCHAR
STARTCHAR U+00A4
ENCODING 164
SWIDTH 589 0
DWIDTH 27 0
BBX 27 23 0 0
BITMAP
04000400
0E000E00
1F001F00
1FBFBF00
1FFFFE00
0FFFFC00
07FFF800
07E0F800
07C07C00
07803C00
0F803C00
0F803C00
0F803C00
0F803C00
07C07C00
07E0F800
07FFF800
0FFFFC00
1FFFFE00
1FBFBF00
1F001F00
0E000E00
04000400
ENDCHAR
STARTCHAR U+00A5
ENCODING 165
SWIDTH 589 0
DWIDTH 27 0
BBX 27 30 0 0
BITMAP
7E0007C0
3E000F80
1F000F80
1F801F00
0F803E00
07C03E00
07E07C00
03E0F800
01F0F800
01F9F000
1FFBFF00
1FFFFF00
1FFFFF00
003F8000
001F0000
000F0000
000F0000
1FFFFF00
1FFFFF00
1FFFFF00
000F0000
000F0000
000F0000
000F0000
000F0000
000F0000
000F0000
000F0000
000F0000
000F0000
ENDCHAR
STARTCHAR U+00A6
ENCODING 166
SWIDTH 218 0
DWIDTH 10 0
BBX 10 44 0 -11
BITMAP
1E00
1E00
1E00
1E00
1E00
1E00
1E00
1E00
1E00
1E00
1E00
1E00
1E00
1E00
1E00
1E00
1E00
0000
0000
0000
0000
0000
0000
0000
0000
0000
0000
1E00
1E00
1E00
1E00
1E00
1E00
1E00
1E00
1E00
1E00
1E00
1E00
1E00
1E00
1E00
1E00
1E00
ENDCHAR
STARTCHAR U+00A7
ENCODING 167
SWIDTH 480 0
DWIDTH 22 0
BBX 22 38 0 -8
BITMAP
01FC00
07FF00
0FFF80
1FFFC0
1F07C0
3E03C0
3C0100
3C0000
3E0000
3E0000
1F8000
0FE000
07FC00
07FF00
1FFFC0
3F9FC0
3E07E0
7C03E0
7801F0
7C01F0
7C01F0
3F01E0
3FC3E0
1FFFC0
07FF80
00FF80
003FC0
0007E0
0003E0
0001E0
0001E0
0801E0
3C03E0
3F07E0
1FFFC0
0FFF80
07FF00
01FC00
ENDCHAR
STARTCHAR U+00A8
ENCODING 168
SWIDTH 436 0
DWIDTH 20 0
BBX 21 30 0 0
BITMAP
FFFFF0
FFFFF0
FFFFF0
FFFFF0
F000F0
F000F0
F000F0
F000F0
F000F0
F000F0
F000F0
F000F0
F000F0
F000F0
F000F0
F000F0
F000F0
F000F0
F000F0
F000F0
F000F0
F000F0
F000F0
F000F0
F000F0
F000F0
FFFFF0
FFFFF0
FFFFF0
FFFFF0
ENDCHAR
STARTCHAR U+00A9
ENCODING 169
SWIDTH 764 0
DWIDTH 35 0
BBX 35 30 0 0
BITMAP
0003FC0000
001FFF0000
007C07C000
00F000F000
01C0007800
0380001800
0701F80C00
0E07FE0E00
0C1FFF0600
0C3F070700
183C010300
1878000300
1878000380
18F0000180
18F0000180
18F0000180
18F0000180
1878000380
1878000300
183C010300
1C3F070700
0C1FFF0600
0E07FE0E00
0701F81C00
0380001800
01C0007800
00F000E000
007C07C000
001FFF0000
0003FC0000
ENDCHAR
STARTCHAR U+00AA
ENCODING 170
SWIDTH 305 0
DWIDTH 14 0
BBX 14 30 0 0
BITMAP
3FC0
3FE0
3FF0
00F0
0070
07F0
1FF0
3C70
7870
7070
78F0
3FF0
1F70
0000
0000
0000
0000
0000
0000
0000
0000
0000
0000
0000
0000
0000
0000
0000
0000
0000
ENDCHAR
STARTCHAR U+00AB
ENCODING 171
SWIDTH 545 0
DWIDTH 25 0
BBX 25 21 0 0
BITMAP
00783C00
00F07800
01F0F800
03E1F000
03C1E000
0783C000
0F078000
1F0F8000
3E1F0000
3E1F0000
1E0F0000
0F078000
0783C000
03C1E000
03E1F000
01F0F800
00F07800
00783C00
00000000
00000000
00000000
ENDCHAR
STARTCHAR U+00AC
ENCODING 172
SWIDTH 524 0
DWIDTH 24 0
BBX 24 21 0 0
BITMAP
1FFFF8
1FFFF8
1FFFF8
1FFFF8
000078
000078
000078
000078
000078
000078
000078
000078
000078
000000
000000
000000
000000
000000
000000
000000
000000
ENDCHAR
STARTCHAR U+00AD
ENCODING 173
SWIDTH 371 0
DWIDTH 17 0
BBX 17 14 0 0
BITMAP
3FFE00
3FFE00
3FFE00
3FFE00
000000
000000
000000
000000
000000
000000
000000
000000
000000
000000
ENDCHAR
STARTCHAR U+00AE
ENCODING 174
SWIDTH 764 0
DWIDTH 35 0
BBX 35 30 0 0
BITMAP
0003FC0000
001FFF0000
007C07C000
00F000F000
01C0007800
0380001C00
070FF00C00
0E0FFC0E00
0C0FFE0600
0C0E1E0700
180E0F0300
180E0F0300
180E0F0380
180E1E0180
180FFE0180
180FFC0180
180FF80180
180E780380
180E3C0300
180E1E0300
0C0E1E0700
0C0E0F0600
060E078E00
070E079C00
0380001C00
01C0007800
00F000F000
007C07C000
001FFF0000
0003FC0000
ENDCHAR
STARTCHAR U+00AF
ENCODING 175
SWIDTH 436 0
DWIDTH 20 0
BBX 21 30 0 0
BITMAP
FFFFF0
FFFFF0
FFFFF0
FFFFF0
F000F0
F000F0
F000F0
F000F0
F000F0
F000F0
F000F0
F000F0
F000F0
F000F0
F000F0
F000F0
F000F0
F000F0
F000F0
F000F0
F000F0
F000F0
F000F0
F000F0
F000F0
F000F0
FFFFF0
FFFFF0
FFFFF0
FFFFF0
ENDCHAR
STARTCHAR U+00B0
ENCODING 176
SWIDTH 371 0
DWIDTH 17 0
BBX 17 30 0 0
BITMAP
03E000
0FF800
0FFC00
1E3C00
3C1E00
3C0E00
3C0E00
3C0E00
3C1E00
1E3C00
0FFC00
0FF800
03E000
000000
000000
000000
000000
000000
000000
000000
000000
000000
000000
000000
000000
000000
000000
000000
000000
000000
ENDCHAR
STARTCHAR U+00B1
ENCODING 177
SWIDTH 524 0
DWIDTH 24 0
BBX 24 26 0 0
BITMAP
003C00
003C00
003C00
003C00
003C00
003C00
003C00
1FFFF8
1FFFF8
1FFFF8
1FFFF8
003C00
003C00
003C00
003C00
003C00
003C00
003C00
000000
000000
000000
000000
1FFFF8
1FFFF8
1FFFF8
1FFFF8
ENDCHAR
STARTCHAR U+00B2
ENCODING 178
SWIDTH 327 0
DWIDTH 15 0
BBX 15 30 0 0
BITMAP
0F80
3FE0
3FF0
30F0
2078
0078
0078
0070
00F0
01E0
01E0
03C0
03C0
0780
0F80
0F00
1FF8
1FF8
3FF8
0000
0000
0000
0000
0000
0000
0000
0000
0000
0000
0000
ENDCHAR
STARTCHAR U+00B3
ENCODING 179
SWIDTH 327 0
DWIDTH 15 0
BBX 15 30 0 0
BITMAP
3FF8
3FF0
3FF0
00E0
01E0
03C0
03C0
07E0
07F0
00F8
0078
0038
0038
0038
2078
7878
3FF0
1FE0
0F80
0000
0000
0000
0000
0000
0000
0000
0000
0000
0000
0000
ENDCHAR
STARTCHAR U+00B4
ENCODING 180
SWIDTH 436 0
DWIDTH 20 0
BBX 21 30 0 0
BITMAP
FFFFF0
FFFFF0
FFFFF0
FFFFF0
F000F0
F000F0
F000F0
F000F0
F000F0
F000F0
F000F0
F000F0
F000F0
F000F0
F000F0
F000F0
F000F0
F000F0
F000F0
F000F0
F000F0
F000F0
F000F0
F000F0
F000F0
F000F0
FFFFF0
FFFFF0
FFFFF0
FFFFF0
ENDCHAR
STARTCHAR U+00B5
ENCODING 181
SWIDTH 567 0
DWIDTH 26 0
BBX 26 30 0 -8
BITMAP
0F003C00
0F003C00
0F003C00
0F003C00
0F003C00
0F003C00
0F003C00
0F003C00
0F003C00
0F003C00
0F003C00
0F003C00
0F003C00
0F003C00
0F003C00
0F803C00
0F807C00
0FC1FC00
0FFFFC00
0FFFFC00
0FFFBC00
0F7E3C00
0F000000
0F000000
0F000000
0F000000
0F000000
0F000000
0F000000
0F000000
ENDCHAR
STARTCHAR U+00B6
ENCODING 182
SWIDTH 524 0
DWIDTH 24 0
BBX 24 38 0 -8
BITMAP
00FFFE
07FFFE
0FFFFE
1FFC78
1FFC78
3FFC78
3FFC78
3FFC78
3FFC78
3FFC78
3FFC78
1FFC78
1FFC78
0FFC78
07FC78
01FC78
001C78
001C78
001C78
001C78
001C78
001C78
001C78
001C78
001C78
001C78
001C78
001C78
001C78
001C78
001C78
001C78
001C78
001C78
001C78
001C78
001C78
001C78
ENDCHAR
STARTCHAR U+00B7
ENCODING 183
SWIDTH 240 0
DWIDTH 11 0
BBX 11 18 0 0
BITMAP
0400
0E00
1F00
1F00
0E00
0400
0000
0000
0000
0000
0000
0000
0000
0000
0000
0000
0000
0000
ENDCHAR
STARTCHAR U+00B8
ENCODING 184
SWIDTH 436 0
DWIDTH 20 0
BBX 21 30 0 0
BITMAP
FFFFF0
FFFFF0
FFFFF0
FFFFF0
F000F0
F000F0
F000F0
F000F0
F000F0
F000F0
F000F0
F000F0
F000F0
F000F0
F000F0
F000F0
F000F0
F000F0
F000F0
F000F0
F000F0
F000F0
F000F0
F000F0
F000F0
F000F0
FFFFF0
FFFFF0
FFFFF0
FFFFF0
ENDCHAR
STARTCHAR U+00B9
ENCODING 185
SWIDTH 218 0
DWIDTH 10 0
BBX 10 30 0 0
BITMAP
0200
0600
1E00
1E00
1E00
1E00
1E00
1E00
1E00
1E00
1E00
1E00
1E00
1E00
1E00
1E00
1E00
1E00
1E00
0000
0000
0000
0000
0000
0000
0000
0000
0000
0000
0000
ENDCHAR
STARTCHAR U+00BA
ENCODING 186
SWIDTH 371 0
DWIDTH 17 0
BBX 17 30 0 0
BITMAP
03E000
0FF800
1FFC00
3C3E00
381E00
780E00
780F00
780F00
780E00
380E00
3E3E00
1FFC00
0FF800
03E000
000000
000000
000000
000000
000000
000000
000000
000000
000000
000000
000000
000000
000000
000000
000000
000000
ENDCHAR
STARTCHAR U+00BB
ENCODING 187
SWIDTH 545 0
DWIDTH 25 0
BBX 25 21 0 0
BITMAP
3E0F0000
1F078000
0F07C000
0783C000
03C1E000
03E0F000
01E07800
00F07C00
00783C00
00783E00
00F83C00
01F07800
01E0F000
03C1E000
0783E000
0F07C000
1F078000
3E0F0000
00000000
00000000
00000000
ENDCHAR
STARTCHAR U+00BC
ENCODING 188
SWIDTH 764 0
DWIDTH 35 0
BBX 35 31 0 -1
BITMAP
020003C000
0600038000
1E00078000
1E00070000
1E000F0000
1E000E0000
1E001E0000
1E001C0000
1E003C0000
1E00380000
1E00780000
1E00700000
1E00F00100
1E00E00300
1E01E00300
1E01C00700
1E03C00F00
1E03801F00
1E07803F00
0007007F00
000F00FF00
000E01EF00
001E01CF00
001C038F00
003C070F00
00380FFFC0
00781FFFC0
00703FFFC0
00F0000F00
00E0000F00
0000000F00
ENDCHAR
STARTCHAR U+00BD
ENCODING 189
SWIDTH 807 0
DWIDTH 37 0
BBX 37 31 0 -1
BITMAP
020003C000
0600038000
1E00078000
1E00070000
1E000F0000
1E000E0000
1E001E0000
1E001C0000
1E003C0000
1E00380000
1E00780000
1E00700000
1E00F03E00
1E00E0FF80
1E01E0FFC0
1E01C0C3C0
1E03C081E0
1E038001E0
1E078001E0
00070001C0
000F0003C0
000E000780
001E000780
001C000F00
003C000F00
0038001E00
0078003E00
0070003C00
00F0007FE0
00E0007FE0
000000FFE0
ENDCHAR
STARTCHAR U+00BE
ENCODING 190
SWIDTH 829 0
DWIDTH 38 0
BBX 38 31 0 -1
BITMAP
3FF8007800
3FF0007000
3FF000F000
00E000E000
01E001E000
03C001C000
03C003C000
07E0038000
07F0078000
00F8070000
00780F0000
00380E0000
00381E0010
00381C0030
20783C0030
7878380070
3FF07800F0
1FE07001F0
0F80F003F0
0000E007F0
0001E00FF0
0001C01EF0
0003C01CF0
00038038F0
00078070F0
000700FFFC
000F01FFFC
000E03FFFC
001E0000F0
001C0000F0
00000000F0
ENDCHAR
STARTCHAR U+00BF
ENCODING 191
SWIDTH 436 0
DWIDTH 20 0
BBX 20 29 0 -8
BITMAP
001000
003800
007C00
00FC00
007800
003000
000000
000000
001000
003800
007C00
007C00
003E00
003E00
00FC00
01FC00
07F000
0FE000
1F8000
1F0000
1E0000
3E0000
3E0000
1E0080
1F83C0
1FFFE0
0FFFC0
07FF80
00FE00
ENDCHAR
STARTCHAR U+00C0
ENCODING 192
SWIDTH 655 0
DWIDTH 30 0
BBX 30 38 0 0
BITMAP
007C0000
003C0000
001E0000
000F0000
00078000
00038000
00000000
00000000
00078000
000F8000
000FC000
001FC000
001FC000
001FE000
003FE000
003DF000
007DF000
0078F000
0078F800
00F87800
00F07C00
01F07C00
01F03C00
01E03E00
03E01E00
03E01F00
07C01F00
07FFFF00
07FFFF80
0FFFFF80
0FFFFFC0
1F0007C0
1F0003E0
1E0003E0
3E0003E0
3E0001F0
7C0001F0
7C0000F8
ENDCHAR
STARTCHAR U+00C1
ENCODING 193
SWIDTH 655 0
DWIDTH 30 0
BBX 30 38 0 0
BITMAP
0001F000
0001E000
0003C000
00078000
000F0000
000E0000
00000000
00000000
00078000
000F8000
000FC000
001FC000
001FC000
001FE000
003FE000
003DF000
007DF000
0078F000
0078F800
00F87800
00F07C00
01F07C00
01F03C00
01E03E00
03E01E00
03E01F00
07C01F00
07FFFF00
07FFFF80
0FFFFF80
0FFFFFC0
1F0007C0
1F0003E0
1E0003E0
3E0003E0
3E0001F0
7C0001F0
7C0000F8
ENDCHAR
STARTCHAR U+00C2
ENCODING 194
SWIDTH 655 0
DWIDTH 30 0
BBX 30 38 0 0
BITMAP
0007C000
000FE000
001FE000
003CF000
00387800
00703800
00000000
00000000
00078000
000F8000
000FC000
001FC000
001FC000
001FE000
003FE000
003DF000
007DF000
0078F000
0078F800
00F87800
00F07C00
01F07C00
01F03C00
01E03E00
03E01E00
03E01F00
07C01F00
07FFFF00
07FFFF80
0FFFFF80
0FFFFFC0
1F0007C0
1F0003E0
1E0003E0
3E0003E0
3E0001F0
7C0001F0
7C0000F8
ENDCHAR
STARTCHAR U+00C3
ENCODING 195
SWIDTH 655 0
DWIDTH 30 0
BBX 30 38 0 0
BITMAP
003C1000
00FE1800
00FFFC00
01FFF800
00C3F000
0001E000
00000000
00000000
00078000
000F8000
000FC000
001FC000
001FC000
001FE000
003FE000
003DF000
007DF000
0078F000
0078F800
00F87800
00F07C00
01F07C00
01F03C00
01E03E00
03E01E00
03E01F00
07C01F00
07FFFF00
07FFFF80
0FFFFF80
0FFFFFC0
1F0007C0
1F0003E0
1E0003E0
3E0003E0
3E0001F0
7C0001F0
7C0000F8
ENDCHAR
STARTCHAR U+00C4
ENCODING 196
SWIDTH 655 0
DWIDTH 30 0
BBX 30 38 0 0
BITMAP
00202000
00707000
00F8F800
00F8F800
00707000
00202000
00000000
00000000
00078000
000F8000
000FC000
001FC000
001FC000
001FE000
003FE000
003DF000
007DF000
0078F000
0078F800
00F87800
00F07C00
01F07C00
01F03C00
01E03E00
03E01E00
03E01F00
07C01F00
07FFFF00
07FFFF80
0FFFFF80
0FFFFFC0
1F0007C0
1F0003E0
1E0003E0
3E0003E0
3E0001F0
7C0001F0
7C0000F8
ENDCHAR
STARTCHAR U+00C5
ENCODING 197
SWIDTH 655 0
DWIDTH 30 0
BBX 30 40 0 0
BITMAP
00078000
001FC000
0018C000
00186000
00186000
0018C000
001FC000
00078000
00000000
00000000
00078000
000F8000
000FC000
001FC000
001FC000
001FE000
003FE000
003DF000
007DF000
0078F000
0078F800
00F87800
00F07C00
01F07C00
01F03C00
01E03E00
03E01E00
03E01F00
07C01F00
07FFFF00
07FFFF80
0FFFFF80
0FFFFFC0
1F0007C0
1F0003E0
1E0003E0
3E0003E0
3E0001F0
7C0001F0
7C0000F8
ENDCHAR
STARTCHAR U+00C6
ENCODING 198
SWIDTH 895 0
DWIDTH 41 0
BBX 41 30 0 0
BITMAP
00007FFFFC00
00007FFFFC00
0000FFFFFC00
0000FFFFFC00
0001FF800000
0003EF800000
0003EF800000
0007CF800000
0007CF800000
000F8F800000
000F0F800000
001F0F800000
003E0FFFE000
003E0FFFE000
007C0FFFE000
007C0FFFE000
00F80F800000
00FFFF800000
01FFFF800000
03FFFF800000
03FFFF800000
07C00F800000
07C00F800000
0F800F800000
0F800F800000
1F000F800000
3F000FFFFE00
3E000FFFFE00
7C000FFFFE00
7C000FFFFE00
ENDCHAR
STARTCHAR U+00C7
ENCODING 199
SWIDTH 655 0
DWIDTH 30 0
BBX 30 39 0 -9
BITMAP
0003FC00
001FFF80
007FFFE0
00FFFFF0
01FE03F0
03F00070
07E00030
07C00000
0F800000
0F000000
1F000000
1F000000
1E000000
1E000000
1E000000
1E000000
1E000000
1E000000
1F000000
1F000000
0F800000
0F800000
07C00000
07E00030
03F00070
01FE03F0
00FFFFF0
003FFFC0
001FFF80
0003FC00
0001C000
0001F000
0003F800
00007800
00003C00
00007800
000FF800
000FF000
000FC000
ENDCHAR
STARTCHAR U+00C8
ENCODING 200
SWIDTH 545 0
DWIDTH 25 0
BBX 25 38 0 0
BITMAP
00F80000
00780000
003C0000
001E0000
000F0000
00070000
00000000
00000000
0FFFFE00
0FFFFE00
0FFFFE00
0FFFFE00
0F800000
0F800000
0F800000
0F800000
0F800000
0F800000
0F800000
0F800000
0FFFF000
0FFFF000
0FFFF000
0FFFF000
0F800000
0F800000
0F800000
0F800000
0F800000
0F800000
0F800000
0F800000
0F800000
0F800000
0FFFFF00
0FFFFF00
0FFFFF00
0FFFFF00
ENDCHAR
STARTCHAR U+00C9
ENCODING 201
SWIDTH 545 0
DWIDTH 25 0
BBX 25 38 0 0
BITMAP
0003E000
0003C000
00078000
000F0000
001E0000
001C0000
00000000
00000000
0FFFFE00
0FFFFE00
0FFFFE00
0FFFFE00
0F800000
0F800000
0F800000
0F800000
0F800000
0F800000
0F800000
0F800000
0FFFF000
0FFFF000
0FFFF000
0FFFF000
0F800000
0F800000
0F800000
0F800000
0F800000
0F800000
0F800000
0F800000
0F800000
0F800000
0FFFFF00
0FFFFF00
0FFFFF00
0FFFFF00
ENDCHAR
STARTCHAR U+00CA
ENCODING 202
SWIDTH 545 0
DWIDTH 25 0
BBX 25 38 0 0
BITMAP
001F0000
003F8000
007F8000
00F3C000
00E1E000
01C0E000
00000000
00000000
0FFFFE00
0FFFFE00
0FFFFE00
0FFFFE00
0F800000
0F800000
0F800000
0F800000
0F800000
0F800000
0F800000
0F800000
0FFFF000
0FFFF000
0FFFF000
0FFFF000
0F800000
0F800000
0F800000
0F800000
0F800000
0F800000
0F800000
0F800000
0F800000
0F800000
0FFFFF00
0FFFFF00
0FFFFF00
0FFFFF00
ENDCHAR
STARTCHAR U+00CB
ENCODING 203
SWIDTH 545 0
DWIDTH 25 0
BBX 25 38 0 0
BITMAP
00404000
00E0E000
01F1F000
01F1F000
00E0E000
00404000
00000000
00000000
0FFFFE00
0FFFFE00
0FFFFE00
0FFFFE00
0F800000
0F800000
0F800000
0F800000
0F800000
0F800000
0F800000
0F800000
0FFFF000
0FFFF000
0FFFF000
0FFFF000
0F800000
0F800000
0F800000
0F800000
0F800000
0F800000
0F800000
0F800000
0F800000
0F800000
0FFFFF00
0FFFFF00
0FFFFF00
0FFFFF00
ENDCHAR
STARTCHAR U+00CC
ENCODING 204
SWIDTH 284 0
DWIDTH 13 0
BBX 13 38 0 0
BITMAP
7C00
3C00
1E00
0F00
0780
0380
0000
0000
0F80
0F80
0F80
0F80
0F80
0F80
0F80
0F80
0F80
0F80
0F80
0F80
0F80
0F80
0F80
0F80
0F80
0F80
0F80
0F80
0F80
0F80
0F80
0F80
0F80
0F80
0F80
0F80
0F80
0F80
ENDCHAR
STARTCHAR U+00CD
ENCODING 205
SWIDTH 284 0
DWIDTH 13 0
BBX 13 38 0 0
BITMAP
01F0
01E0
03C0
0780
0F00
0E00
0000
0000
0F80
0F80
0F80
0F80
0F80
0F80
0F80
0F80
0F80
0F80
0F80
0F80
0F80
0F80
0F80
0F80
0F80
0F80
0F80
0F80
0F80
0F80
0F80
0F80
0F80
0F80
0F80
0F80
0F80
0F80
ENDCHAR
STARTCHAR U+00CE
ENCODING 206
SWIDTH 284 0
DWIDTH 13 0
BBX 13 38 0 0
BITMAP
0000
0000
0000
0000
0000
0000
0000
0000
0000
0000
0000
0000
0000
0000
0000
0000
0000
0000
0000
0000
0000
0000
0000
0000
0000
0000
0000
0000
0000
0000
0000
0000
0000
0000
0000
0000
0000
0000
ENDCHAR
STARTCHAR U+00CF
ENCODING 207
SWIDTH 284 0
DWIDTH 13 0
BBX 15 38 -1 0
BITMAP
1010
3838
7C7C
7C7C
3838
1010
0000
0000
07C0
07C0
07C0
07C0
07C0
07C0
07C0
07C0
07C0
07C0
07C0
07C0
07C0
07C0
07C0
07C0
07C0
07C0
07C0
07C0
07C0
07C0
07C0
07C0
07C0
07C0
07C0
07C0
07C0
07C0
ENDCHAR
STARTCHAR U+00D0
ENCODING 208
SWIDTH 698 0
DWIDTH 32 0
BBX 32 30 0 0
BITMAP
0FFFC000
0FFFF800
0FFFFE00
0FFFFF00
0F807F80
0F801FC0
0F8007E0
0F8003F0
0F8001F0
0F8000F8
0F8000F8
0F8000F8
0F800078
7FFF0078
7FFF0078
7FFF0078
0F800078
0F800078
0F8000F8
0F8000F8
0F8000F8
0F8001F0
0F8003F0
0F8007E0
0F801FC0
0F807F80
0FFFFF00
0FFFFE00
0FFFF800
0FFF8000
ENDCHAR
STARTCHAR U+00D1
ENCODING 209
SWIDTH 742 0
DWIDTH 34 0
BBX 34 38 0 0
BITMAP
000F040000
003F860000
003FFF0000
007FFE0000
0030FC0000
0000780000
0000000000
0000000000
0F80003C00
0F80003C00
0FC0003C00
0FE0003C00
0FF0003C00
0FF0003C00
0FF8003C00
0FFC003C00
0FFE003C00
0FBF003C00
0F9F003C00
0F8F803C00
0F8FC03C00
0F87E03C00
0F83E03C00
0F81F03C00
0F80F83C00
0F80FC3C00
0F807C3C00
0F803E3C00
0F801F3C00
0F801FBC00
0F800FFC00
0F8007FC00
0F8003FC00
0F8003FC00
0F8001FC00
0F8000FC00
0F80007C00
0F80003C00
ENDCHAR
STARTCHAR U+00D2
ENCODING 210
SWIDTH 785 0
DWIDTH 36 0
BBX 36 38 0 0
BITMAP
0007C00000
0003C00000
0001E00000
0000F00000
0000780000
0000380000
0000000000
0000000000
0003FC0000
001FFF8000
007FFFE000
00FFFFF000
01FC07F800
03F000FC00
07E0007E00
07C0003F00
0F80001F00
0F00000F80
1F00000F80
1F00000780
1E00000780
1E000007C0
1E000007C0
1E000007C0
1E000007C0
1E00000780
1F00000780
1F00000F80
0F00000F80
0F80001F00
07C0003F00
07E0007E00
03F000FC00
01FE03F800
00FFFFF000
007FFFE000
001FFF8000
0003FC0000
ENDCHAR
STARTCHAR U+00D3
ENCODING 211
SWIDTH 785 0
DWIDTH 36 0
BBX 36 38 0 0
BITMAP
00003E0000
00003C0000
0000780000
0000F00000
0001E00000
0001C00000
0000000000
0000000000
0003FC0000
001FFF8000
007FFFE000
00FFFFF000
01FC07F800
03F000FC00
07E0007E00
07C0003F00
0F80001F00
0F00000F80
1F00000F80
1F00000780
1E00000780
1E000007C0
1E000007C0
1E000007C0
1E000007C0
1E00000780
1F00000780
1F00000F80
0F00000F80
0F80001F00
07C0003F00
07E0007E00
03F000FC00
01FE03F800
00FFFFF000
007FFFE000
001FFF8000
0003FC0000
ENDCHAR
STARTCHAR U+00D4
ENCODING 212
SWIDTH 785 0
DWIDTH 36 0
BBX 36 38 0 0
BITMAP
0000F80000
0001FC0000
0003FC0000
00079E0000
00070F0000
000E070000
0000000000
0000000000
0003FC0000
001FFF8000
007FFFE000
00FFFFF000
01FC07F800
03F000FC00
07E0007E00
07C0003F00
0F80001F00
0F00000F80
1F00000F80
1F00000780
1E00000780
1E000007C0
1E000007C0
1E000007C0
1E000007C0
1E00000780
1F00000780
1F00000F80
0F00000F80
0F80001F00
07C0003F00
07E0007E00
03F000FC00
01FE03F800
00FFFFF000
007FFFE000
001FFF8000
0003FC0000
ENDCHAR
STARTCHAR U+00D5
ENCODING 213
SWIDTH 785 0
DWIDTH 36 0
BBX 36 38 0 0
BITMAP
0007820000
001FC30000
001FFF8000
003FFF0000
00187E0000
00003C0000
0000000000
0000000000
0003FC0000
001FFF8000
007FFFE000
00FFFFF000
01FC07F800
03F000FC00
07E0007E00
07C0003F00
0F80001F00
0F00000F80
1F00000F80
1F00000780
1E00000780
1E000007C0
1E000007C0
1E000007C0
1E000007C0
1E00000780
1F00000780
1F00000F80
0F00000F80
0F80001F00
07C0003F00
07E0007E00
03F000FC00
01FE03F800
00FFFFF000
007FFFE000
001FFF8000
0003FC0000
ENDCHAR
STARTCHAR U+00D6
ENCODING 214
SWIDTH 785 0
DWIDTH 36 0
BBX 36 38 0 0
BITMAP
0002020000
0007070000
000F8F8000
000F8F8000
0007070000
0002020000
0000000000
0000000000
0003FC0000
001FFF8000
007FFFE000
00FFFFF000
01FC07F800
03F000FC00
07E0007E00
07C0003F00
0F80001F00
0F00000F80
1F00000F80
1F00000780
1E00000780
1E000007C0
1E000007C0
1E000007C0
1E000007C0
1E00000780
1F00000780
1F00000F80
0F00000F80
0F80001F00
07C0003F00
07E0007E00
03F000FC00
01FE03F800
00FFFFF000
007FFFE000
001FFF8000
0003FC0000
ENDCHAR
STARTCHAR U+00D7
ENCODING 215
SWIDTH 524 0
DWIDTH 24 0
BBX 24 23 0 0
BITMAP
020040
0700E0
0F81F0
07C3E0
07E7C0
03EF80
01FF00
00FE00
007C00
00FE00
01FF00
03EF80
07C7C0
0F83E0
0F81F0
0700E0
020040
000000
000000
000000
000000
000000
000000
ENDCHAR
STARTCHAR U+00D8
ENCODING 216
SWIDTH 785 0
DWIDTH 36 0
BBX 36 30 0 0
BITMAP
0003FC0200
001FFF8700
007FFFEF00
00FFFFFE00
01FC03FE00
03F000FC00
07E000FE00
07C001FF00
0F8003FF00
0F0007CF80
1F000F8F80
1F001F0780
1E003E0780
1E007C07C0
1E007807C0
1E00F007C0
1E01E007C0
1E03C00780
1F07800780
1F0F000F80
0F1E000F80
0FBC001F00
07F8003F00
07F0007E00
03F000FC00
03FE03F800
07FFFFF000
0F7FFFE000
0E1FFF8000
0403FC0000
ENDCHAR
STARTCHAR U+00D9
ENCODING 217
SWIDTH 742 0
DWIDTH 34 0
BBX 34 38 0 0
BITMAP
000F800000
0007800000
0003C00000
0001E00000
0000F00000
0000700000
0000000000
0000000000
0F00003C00
0F00003C00
0F00003C00
0F00003C00
0F00003C00
0F00003C00
0F00003C00
0F00003C00
0F00003C00
0F00003C00
0F00003C00
0F00003C00
0F00003C00
0F00003C00
0F00003C00
0F00003C00
0F00003C00
0F00003C00
0F00003C00
0F80007C00
0F80007C00
0780007800
07C000F800
03E001F000
03F003F000
01FC0FE000
00FFFFC000
007FFF8000
001FFE0000
0007F80000
ENDCHAR
STARTCHAR U+00DA
ENCODING 218
SWIDTH 742 0
DWIDTH 34 0
BBX 34 38 0 0
BITMAP
00007C0000
0000780000
0000F00000
0001E00000
0003C00000
0003800000
0000000000
0000000000
0F00003C00
0F00003C00
0F00003C00
0F00003C00
0F00003C00
0F00003C00
0F00003C00
0F00003C00
0F00003C00
0F00003C00
0F00003C00
0F00003C00
0F00003C00
0F00003C00
0F00003C00
0F00003C00
0F00003C00
0F00003C00
0F00003C00
0F80007C00
0F80007C00
0780007800
07C000F800
03E001F000
03F003F000
01FC0FE000
00FFFFC000
007FFF8000
001FFE0000
0007F80000
ENDCHAR
STARTCHAR U+00DB
ENCODING 219
SWIDTH 742 0
DWIDTH 34 0
BBX 34 38 0 0
BITMAP
0001F00000
0003F80000
0007F80000
000F3C0000
000E1E0000
001C0E0000
0000000000
0000000000
0F00003C00
0F00003C00
0F00003C00
0F00003C00
0F00003C00
0F00003C00
0F00003C00
0F00003C00
0F00003C00
0F00003C00
0F00003C00
0F00003C00
0F00003C00
0F00003C00
0F00003C00
0F00003C00
0F00003C00
0F00003C00
0F00003C00
0F80007C00
0F80007C00
0780007800
07C000F800
03E001F000
03F003F000
01FC0FE000
00FFFFC000
007FFF8000
001FFE0000
0007F80000
ENDCHAR
STARTCHAR U+00DC
ENCODING 220
SWIDTH 742 0
DWIDTH 34 0
BBX 34 38 0 0
BITMAP
0004040000
000E0E0000
001F1F0000
001F1F0000
000E0E0000
0004040000
0000000000
0000000000
0F00003C00
0F00003C00
0F00003C00
0F00003C00
0F00003C00
0F00003C00
0F00003C00
0F00003C00
0F00003C00
0F00003C00
0F00003C00
0F00003C00
0F00003C00
0F00003C00
0F00003C00
0F00003C00
0F00003C00
0F00003C00
0F00003C00
0F80007C00
0F80007C00
0780007800
07C000F800
03E001F000
03F003F000
01FC0FE000
00FFFFC000
007FFF8000
001FFE0000
0007F80000
ENDCHAR
STARTCHAR U+00DD
ENCODING 221
SWIDTH 567 0
DWIDTH 26 0
BBX 26 38 0 0
BITMAP
0003E000
0003C000
00078000
000F0000
001E0000
001C0000
00000000
00000000
7C000780
3E000F80
3E001F00
1F001F00
0F803E00
0F803C00
07C07C00
07C0F800
03E0F000
01F1F000
01F3E000
00FBE000
007FC000
007F8000
003F8000
001F0000
001F0000
001F0000
001F0000
001F0000
001F0000
001F0000
001F0000
001F0000
001F0000
001F0000
001F0000
001F0000
001F0000
001F0000
ENDCHAR
STARTCHAR U+00DE
ENCODING 222
SWIDTH 567 0
DWIDTH 26 0
BBX 26 30 0 0
BITMAP
0F800000
0F800000
0F800000
0F800000
0F800000
0F800000
0FFFC000
0FFFF000
0FFFF800
0FFFFC00
0F80FE00
0F803E00
0F801F00
0F801F00
0F801F00
0F801F00
0F801F00
0F801F00
0F803E00
0F80FE00
0FFFFC00
0FFFF800
0FFFF000
0FFF8000
0F800000
0F800000
0F800000
0F800000
0F800000
0F800000
ENDCHAR
STARTCHAR U+00DF
ENCODING 223
SWIDTH 524 0
DWIDTH 24 0
BBX 24 30 0 0
BITMAP
007F00
01FFC0
03FFE0
07FFF0
07C1F0
0F80F8
0F0078
0F0078
0F0078
0F0078
0F00F0
0F01F0
0F1FE0
0F1F80
0F1FC0
0F1FF0
0F01F8
0F007C
0F003C
0F003C
0F003C
0F003E
0F003C
0F003C
0F007C
0F00FC
0F3FF8
0F3FF0
0F3FE0
0F3F00
ENDCHAR
STARTCHAR U+00E0
ENCODING 224
SWIDTH 502 0
DWIDTH 23 0
BBX 23 31 0 0
BITMAP
03E000
01E000
00F000
007800
003C00
001C00
000000
000000
000000
00FC00
07FF00
0FFFC0
0FFFC0
0F07E0
0C03E0
1001E0
0001E0
001FF0
01FFF0
07FFF0
0FE1F0
1F01F0
1E01F0
3E01F0
3C01F0
3E03F0
3F0FF0
1FFFF0
1FFFF0
0FFDF0
03F1F0
ENDCHAR
STARTCHAR U+00E1
ENCODING 225
SWIDTH 502 0
DWIDTH 23 0
BBX 23 31 0 0
BITMAP
000F80
000F00
001E00
003C00
007800
007000
000000
000000
000000
00FC00
07FF00
0FFFC0
0FFFC0
0F07E0
0C03E0
1001E0
0001E0
001FF0
01FFF0
07FFF0
0FE1F0
1F01F0
1E01F0
3E01F0
3C01F0
3E03F0
3F0FF0
1FFFF0
1FFFF0
0FFDF0
03F1F0
ENDCHAR
STARTCHAR U+00E2
ENCODING 226
SWIDTH 502 0
DWIDTH 23 0
BBX 23 31 0 0
BITMAP
007C00
00FE00
01FE00
03CF00
038780
070380
000000
000000
000000
00FC00
07FF00
0FFFC0
0FFFC0
0F07E0
0C03E0
1001E0
0001E0
001FF0
01FFF0
07FFF0
0FE1F0
1F01F0
1E01F0
3E01F0
3C01F0
3E03F0
3F0FF0
1FFFF0
1FFFF0
0FFDF0
03F1F0
ENDCHAR
STARTCHAR U+00E3
ENCODING 227
SWIDTH 502 0
DWIDTH 23 0
BBX 23 31 0 0
BITMAP
01E080
07F0C0
07FFE0
0FFFC0
061F80
000F00
000000
000000
000000
00FC00
07FF00
0FFFC0
0FFFC0
0F07E0
0C03E0
1001E0
0001E0
001FF0
01FFF0
07FFF0
0FE1F0
1F01F0
1E01F0
3E01F0
3C01F0
3E03F0
3F0FF0
1FFFF0
1FFFF0
0FFDF0
03F1F0
ENDCHAR
STARTCHAR U+00E4
ENCODING 228
SWIDTH 502 0
DWIDTH 23 0
BBX 23 31 0 0
BITMAP
010100
038380
07C7C0
07C7C0
038380
010100
000000
000000
000000
00FC00
07FF00
0FFFC0
0FFFC0
0F07E0
0C03E0
1001E0
0001E0
001FF0
01FFF0
07FFF0
0FE1F0
1F01F0
1E01F0
3E01F0
3C01F0
3E03F0
3F0FF0
1FFFF0
1FFFF0
0FFDF0
03F1F0
ENDCHAR
STARTCHAR U+00E5
ENCODING 229
SWIDTH 502 0
DWIDTH 23 0
BBX 23 33 0 0
BITMAP
003C00
00FE00
00C600
00C300
00C300
00C600
00FE00
003C00
000000
000000
000000
00FC00
07FF00
0FFFC0
0FFFC0
0F07E0
0C03E0
1001E0
0001E0
001FF0
01FFF0
07FFF0
0FE1F0
1F01F0
1E01F0
3E01F0
3C01F0
3E03F0
3F0FF0
1FFFF0
1FFFF0
0FFDF0
03F1F0
ENDCHAR
STARTCHAR U+00E6
ENCODING 230
SWIDTH 785 0
DWIDTH 36 0
BBX 36 22 0 0
BITMAP
00FC03F000
07FF0FFC00
0FFFBFFF00
0FFFFFFF80
0F07FC1F80
0803F807C0
1001F003C0
0001E003C0
001FFFFFC0
00FFFFFFC0
07FFFFFFC0
0FE1E00000
1F01F00000
1E01F00000
3E00F00000
3C00F80040
3E01FC01C0
3F07FE07C0
1FFFFFFFC0
1FFF9FFF80
0FFE0FFE00
03F803F800
ENDCHAR
STARTCHAR U+00E7
ENCODING 231
SWIDTH 480 0
DWIDTH 22 0
BBX 22 31 0 -9
BITMAP
003FC0
00FFF0
03FFF0
07FFF0
0FE070
0F8010
1F0000
1E0000
3E0000
3C0000
3C0000
3C0000
3E0000
3E0000
1E0000
1F0000
0F8010
0FE070
07FFF0
03FFF0
00FFF0
003FC0
000E00
001F80
001FC0
0003C0
0003C0
0003C0
007FC0
007F80
007E00
ENDCHAR
STARTCHAR U+00E8
ENCODING 232
SWIDTH 524 0
DWIDTH 24 0
BBX 24 31 0 0
BITMAP
01F000
00F000
007800
003C00
001E00
000E00
000000
000000
000000
007F00
01FFC0
03FFE0
07FFF0
0FC1F8
1F80F8
1F0078
1E007C
3E003C
3FFFFC
3FFFFC
3FFFFC
3FFFFC
3E0000
1E0000
1E0000
1F000C
0FC07C
07FFFC
03FFFC
01FFF0
003F80
ENDCHAR
STARTCHAR U+00E9
ENCODING 233
SWIDTH 524 0
DWIDTH 24 0
BBX 24 31 0 0
BITMAP
000F80
000F00
001E00
003C00
007800
007000
000000
000000
000000
007F00
01FFC0
03FFE0
07FFF0
0FC1F8
1F80F8
1F0078
1E007C
3E003C
3FFFFC
3FFFFC
3FFFFC
3FFFFC
3E0000
1E0000
1E0000
1F000C
0FC07C
07FFFC
03FFFC
01FFF0
003F80
ENDCHAR
STARTCHAR U+00EA
ENCODING 234
SWIDTH 524 0
DWIDTH 24 0
BBX 24 31 0 0
BITMAP
003E00
007F00
00FF00
01E780
01C3C0
0381C0
000000
000000
000000
007F00
01FFC0
03FFE0
07FFF0
0FC1F8
1F80F8
1F0078
1E007C
3E003C
3FFFFC
3FFFFC
3FFFFC
3FFFFC
3E0000
1E0000
1E0000
1F000C
0FC07C
07FFFC
03FFFC
01FFF0
003F80
ENDCHAR
STARTCHAR U+00EB
ENCODING 235
SWIDTH 524 0
DWIDTH 24 0
BBX 24 31 0 0
BITMAP
008080
01C1C0
03E3E0
03E3E0
01C1C0
008080
000000
000000
000000
007F00
01FFC0
03FFE0
07FFF0
0FC1F8
1F80F8
1F0078
1E007C
3E003C
3FFFFC
3FFFFC
3FFFFC
3FFFFC
3E0000
1E0000
1E0000
1F000C
0FC07C
07FFFC
03FFFC
01FFF0
003F80
ENDCHAR
STARTCHAR U+00EC
ENCODING 236
SWIDTH 240 0
DWIDTH 11 0
BBX 12 31 -1 0
BITMAP
7C00
3C00
1E00
0F00
0780
0380
0000
0000
0000
0780
0780
0780
0780
0780
0780
0780
0780
0780
0780
0780
0780
0780
0780
0780
0780
0780
0780
0780
0780
0780
0780
ENDCHAR
STARTCHAR U+00ED
ENCODING 237
SWIDTH 240 0
DWIDTH 11 0
BBX 12 31 0 0
BITMAP
03E0
03C0
0780
0F00
1E00
1C00
0000
0000
0000
0F00
0F00
0F00
0F00
0F00
0F00
0F00
0F00
0F00
0F00
0F00
0F00
0F00
0F00
0F00
0F00
0F00
0F00
0F00
0F00
0F00
0F00
ENDCHAR
STARTCHAR U+00EE
ENCODING 238
SWIDTH 240 0
DWIDTH 11 0
BBX 14 31 -1 0
BITMAP
0F80
1FC0
3FC0
79E0
70F0
E070
0000
0000
0000
0780
0780
0780
0780
0780
0780
0780
0780
0780
0780
0780
0780
0780
0780
0780
0780
0780
0780
0780
0780
0780
0780
ENDCHAR
STARTCHAR U+00EF
ENCODING 239
SWIDTH 240 0
DWIDTH 11 0
BBX 15 31 -2 0
BITMAP
1010
3838
7C7C
7C7C
3838
1010
0000
0000
0000
03C0
03C0
03C0
03C0
03C0
03C0
03C0
03C0
03C0
03C0
03C0
03C0
03C0
03C0
03C0
03C0
03C0
03C0
03C0
03C0
03C0
03C0
ENDCHAR
STARTCHAR U+00F0
ENCODING 240
SWIDTH 545 0
DWIDTH 25 0
BBX 25 30 0 0
BITMAP
0060C000
01F3C000
03FFE000
007FC000
00FF0000
03FF0000
07FF8000
07C7C000
0303E000
0003F000
007DF000
01FFF800
07FFF800
0FFFF800
0FC1FC00
1F007C00
1E003C00
3E003C00
3C003C00
3C003C00
3C003C00
3E003C00
3E007C00
1E007C00
1F00F800
1FC3F800
0FFFF000
07FFE000
03FF8000
00FE0000
ENDCHAR
STARTCHAR U+00F1
ENCODING 241
SWIDTH 567 0
DWIDTH 26 0
BBX 26 31 0 0
BITMAP
00782000
01FC3000
01FFF800
03FFF000
0187E000
0003C000
00000000
00000000
00000000
0F1F8000
0F7FE000
0FFFF800
0FFFF800
0FC0FC00
0F807E00
0F003E00
0F001E00
0F001E00
0F001E00
0F001E00
0F001E00
0F001E00
0F001E00
0F001E00
0F001E00
0F001E00
0F001E00
0F001E00
0F001E00
0F001E00
0F001E00
ENDCHAR
STARTCHAR U+00F2
ENCODING 242
SWIDTH 589 0
DWIDTH 27 0
BBX 27 31 0 0
BITMAP
00F80000
00780000
003C0000
001E0000
000F0000
00070000
00000000
00000000
00000000
003F8000
00FFE000
03FFF800
07FFFC00
0FE0FE00
0F803E00
1F001F00
1E000F00
3E000F00
3E000F80
3C000F80
3C000F80
3E000F80
3E000F00
1E000F00
1F001F00
0F803E00
0FE0FE00
07FFFC00
03FFF800
00FFE000
003F8000
ENDCHAR
STARTCHAR U+00F3
ENCODING 243
SWIDTH 589 0
DWIDTH 27 0
BBX 27 31 0 0
BITMAP
0003E000
0003C000
00078000
000F0000
001E0000
001C0000
00000000
00000000
00000000
003F8000
00FFE000
03FFF800
07FFFC00
0FE0FE00
0F803E00
1F001F00
1E000F00
3E000F00
3E000F80
3C000F80
3C000F80
3E000F80
3E000F00
1E000F00
1F001F00
0F803E00
0FE0FE00
07FFFC00
03FFF800
00FFE000
003F8000
ENDCHAR
STARTCHAR U+00F4
ENCODING 244
SWIDTH 589 0
DWIDTH 27 0
BBX 27 31 0 0
BITMAP
001F0000
003F8000
007F8000
00F3C000
00E1E000
01C0E000
00000000
00000000
00000000
003F8000
00FFE000
03FFF800
07FFFC00
0FE0FE00
0F803E00
1F001F00
1E000F00
3E000F00
3E000F80
3C000F80
3C000F80
3E000F80
3E000F00
1E000F00
1F001F00
0F803E00
0FE0FE00
07FFFC00
03FFF800
00FFE000
003F8000
ENDCHAR
STARTCHAR U+00F5
ENCODING 245
SWIDTH 589 0
DWIDTH 27 0
BBX 27 31 0 0
BITMAP
00782000
01FC3000
01FFF800
03FFF000
0187E000
0003C000
00000000
00000000
00000000
003F8000
00FFE000
03FFF800
07FFFC00
0FE0FE00
0F803E00
1F001F00
1E000F00
3E000F00
3E000F80
3C000F80
3C000F80
3E000F80
3E000F00
1E000F00
1F001F00
0F803E00
0FE0FE00
07FFFC00
03FFF800
00FFE000
003F8000
ENDCHAR
STARTCHAR U+00F6
ENCODING 246
SWIDTH 589 0
DWIDTH 27 0
BBX 27 31 0 0
BITMAP
00404000
00E0E000
01F1F000
01F1F000
00E0E000
00404000
00000000
00000000
00000000
003F8000
00FFE000
03FFF800
07FFFC00
0FE0FE00
0F803E00
1F001F00
1E000F00
3E000F00
3E000F80
3C000F80
3C000F80
3E000F80
3E000F00
1E000F00
1F001F00
0F803E00
0FE0FE00
07FFFC00
03FFF800
00FFE000
003F8000
ENDCHAR
STARTCHAR U+00F7
ENCODING 247
SWIDTH 524 0
DWIDTH 24 0
BBX 24 26 0 0
BITMAP
000800
001C00
003E00
003E00
001C00
000800
000000
000000
000000
1FFFF8
1FFFF8
1FFFF8
1FFFF8
000000
000000
000000
000800
001C00
003E00
003E00
001C00
000800
000000
000000
000000
000000
ENDCHAR
STARTCHAR U+00F8
ENCODING 248
SWIDTH 589 0
DWIDTH 27 0
BBX 27 24 0 -1
BITMAP
00000400
003F8E00
00FFFE00
03FFFC00
07FFFC00
0FE0FE00
0F80FE00
1F01FF00
1E01CF00
3E038F00
3E070F80
3C0F0F80
3C1E0F80
3E1C0F80
3E380F00
1E700F00
1FE01F00
0FE03E00
0FE0FE00
07FFFC00
07FFF800
0EFFE000
0E3F8000
04000000
ENDCHAR
STARTCHAR U+00F9
ENCODING 249
SWIDTH 567 0
DWIDTH 26 0
BBX 26 31 0 0
BITMAP
00F80000
00780000
003C0000
001E0000
000F0000
00070000
00000000
00000000
00000000
1E001E00
1E001E00
1E001E00
1E001E00
1E001E00
1E001E00
1E001E00
1E001E00
1E001E00
1E001E00
1E001E00
1E001E00
1E001E00
1F001E00
1F001E00
0F001E00
0F803E00
0FE0FE00
07FFFE00
03FFFE00
01FFDE00
007F1E00
ENDCHAR
STARTCHAR U+00FA
ENCODING 250
SWIDTH 567 0
DWIDTH 26 0
BBX 26 31 0 0
BITMAP
0003E000
0003C000
00078000
000F0000
001E0000
001C0000
00000000
00000000
00000000
1E001E00
1E001E00
1E001E00
1E001E00
1E001E00
1E001E00
1E001E00
1E001E00
1E001E00
1E001E00
1E001E00
1E001E00
1E001E00
1F001E00
1F001E00
0F001E00
0F803E00
0FE0FE00
07FFFE00
03FFFE00
01FFDE00
007F1E00
ENDCHAR
STARTCHAR U+00FB
ENCODING 251
SWIDTH 567 0
DWIDTH 26 0
BBX 26 31 0 0
BITMAP
001F0000
003F8000
007F8000
00F3C000
00E1E000
01C0E000
00000000
00000000
00000000
1E001E00
1E001E00
1E001E00
1E001E00
1E001E00
1E001E00
1E001E00
1E001E00
1E001E00
1E001E00
1E001E00
1E001E00
1E001E00
1F001E00
1F001E00
0F001E00
0F803E00
0FE0FE00
07FFFE00
03FFFE00
01FFDE00
007F1E00
ENDCHAR
STARTCHAR U+00FC
ENCODING 252
SWIDTH 567 0
DWIDTH 26 0
BBX 26 31 0 0
BITMAP
00404000
00E0E000
01F1F000
01F1F000
00E0E000
00404000
00000000
00000000
00000000
1E001E00
1E001E00
1E001E00
1E001E00
1E001E00
1E001E00
1E001E00
1E001E00
1E001E00
1E001E00
1E001E00
1E001E00
1E001E00
1F001E00
1F001E00
0F001E00
0F803E00
0FE0FE00
07FFFE00
03FFFE00
01FFDE00
007F1E00
ENDCHAR
STARTCHAR U+00FD
ENCODING 253
SWIDTH 524 0
DWIDTH 24 0
BBX 24 39 0 -8
BITMAP
000F80
000F00
001E00
003C00
007800
007000
000000
000000
000000
78003E
7C003E
3C003C
3E007C
1E0078
1E00F8
1F00F0
0F00F0
0F81F0
0781E0
07C1E0
03C3C0
03C3C0
03E7C0
01E780
01F780
00FF00
00FF00
007F00
007E00
007E00
003C00
003C00
007C00
007800
00F800
0FF000
0FF000
0FE000
0F8000
ENDCHAR
STARTCHAR U+00FE
ENCODING 254
SWIDTH 567 0
DWIDTH 26 0
BBX 26 38 0 -8
BITMAP
0F000000
0F000000
0F000000
0F000000
0F000000
0F000000
0F000000
0F000000
0F1F8000
0F7FE000
0FFFF800
0FFFFC00
0FC0FC00
0F807E00
0F001F00
0F001F00
0F000F00
0F000F00
0F000F00
0F000F00
0F000F00
0F000F00
0F001F00
0F003F00
0F807E00
0FC0FC00
0FFFFC00
0FFFF800
0FFFE000
0F3F8000
0F000000
0F000000
0F000000
0F000000
0F000000
0F000000
0F000000
0F000000
ENDCHAR
STARTCHAR U+00FF
ENCODING 255
SWIDTH 524 0
DWIDTH 24 0
BBX 24 39 0 -8
BITMAP
008080
01C1C0
03E3E0
03E3E0
01C1C0
008080
000000
000000
000000
78003E
7C003E
3C003C
3E007C
1E0078
1E00F8
1F00F0
0F00F0
0F81F0
0781E0
07C1E0
03C3C0
03C3C0
03E7C0
01E780
01F780
00FF00
00FF00
007F00
007E00
007E00
003C00
003C00
007C00
007800
00F800
0FF000
0FF000
0FE000
0F8000
ENDCHAR
STARTCHAR U+2013
ENCODING 8211
SWIDTH 480 0
DWIDTH 22 0
BBX 24 14 -1 0
BITMAP
FFFFFC
FFFFFC
FFFFFC
FFFFFC
000000
000000
000000
000000
000000
000000
000000
000000
000000
000000
ENDCHAR
STARTCHAR U+2014
ENCODING 8212
SWIDTH 960 0
DWIDTH 44 0
BBX 46 14 -1 0
BITMAP
FFFFFFFFFFF0
FFFFFFFFFFF0
FFFFFFFFFFF0
FFFFFFFFFFF0
000000000000
000000000000
000000000000
000000000000
000000000000
000000000000
000000000000
000000000000
000000000000
000000000000
ENDCHAR
STARTCHAR U+2018
ENCODING 8216
SWIDTH 240 0
DWIDTH 11 0
BBX 11 30 0 0
BITMAP
0100
0600
0E00
0E00
1E00
1E00
1F00
1F00
0E00
0400
0000
0000
0000
0000
0000
0000
0000
0000
0000
0000
0000
0000
0000
0000
0000
0000
0000
0000
0000
0000
ENDCHAR
STARTCHAR U+2019
ENCODING 8217
SWIDTH 240 0
DWIDTH 11 0
BBX 11 30 0 0
BITMAP
0400
0E00
1F00
3F00
1F00
0F00
0F00
0E00
0C00
0800
1000
0000
0000
0000
0000
0000
0000
0000
0000
0000
0000
0000
0000
0000
0000
0000
0000
0000
0000
0000
ENDCHAR
STARTCHAR U+201C
ENCODING 8220
SWIDTH 393 0
DWIDTH 18 0
BBX 18 30 0 0
BITMAP
010200
060C00
0E1C00
0E1800
1E3C00
1E3C00
1F3E00
1F3E00
0E1C00
040800
000000
000000
000000
000000
000000
000000
000000
000000
000000
000000
000000
000000
000000
000000
000000
000000
000000
000000
000000
000000
ENDCHAR
STARTCHAR U+201D
ENCODING 8221
SWIDTH 393 0
DWIDTH 18 0
BBX 18 30 0 0
BITMAP
040800
0E1C00
1F3E00
3F7E00
1F3E00
0F1E00
0F1E00
0E1C00
0C1800
081000
102000
000000
000000
000000
000000
000000
000000
000000
000000
000000
000000
000000
000000
000000
000000
000000
000000
000000
000000
000000
ENDCHAR
STARTCHAR U+2022
ENCODING 8226
SWIDTH 415 0
DWIDTH 19 0
BBX 19 19 0 0
BITMAP
004000
00E000
01F000
03F800
07FC00
0FFE00
07FC00
03F800
01F000
00E000
004000
000000
000000
000000
000000
000000
000000
000000
000000
ENDCHAR
STARTCHAR U+2026
ENCODING 8230
SWIDTH 873 0
DWIDTH 40 0
BBX 40 6 0 0
BITMAP
0400080020
0E001C0070
1F003E00F8
1F003E00F8
0E001C0070
0400080020
ENDCHAR
STARTCHAR U+20AC
ENCODING 8364
SWIDTH 611 0
DWIDTH 28 0
BBX 28 30 0 0
BITMAP
0007F800
001FFF00
007FFF80
00FFFF80
01FC0780
03F00080
03E00000
07C00000
07800000
0F800000
7FFFF800
7FFFF000
7FFFF000
1F000000
1F000000
1F000000
1F000000
7FFFE000
7FFFE000
7FFFE000
0F800000
07800000
07C00000
03E00000
03F00080
01FC0780
00FFFF80
007FFF80
001FFF00
0007F800
ENDCHAR
ENDFONT
