STARTFONT 2.1
COMMENT Converted from Johnston100 W03 Regular.ttf at 22px with ttf2bdf.py (Pillow, 1-bit, no AA)
FONT -Misc-Johnston100-Medium-R-Normal--22-220-75-75-P-240-ISO10646-1
SIZE 22 75 75
FONTBOUNDINGBOX 24 26 -1 -6
STARTPROPERTIES 9
FOUNDRY "Misc"
FAMILY_NAME "Johnston100"
WEIGHT_NAME "Medium"
SLANT "R"
PIXEL_SIZE 22
RESOLUTION_X 75
RESOLUTION_Y 75
FONT_ASCENT 20
FONT_DESCENT 6
ENDPROPERTIES
CHARS 200
STARTCHAR space
ENCODING 32
SWIDTH 262 0
DWIDTH 6 0
BBX 6 26 0 -6
BITMAP
00
00
00
00
00
00
00
00
00
00
00
00
00
00
00
00
00
00
00
00
00
00
00
00
00
00
ENDCHAR
STARTCHAR !
ENCODING 33
SWIDTH 262 0
DWIDTH 6 0
BBX 6 15 0 0
BITMAP
30
30
30
30
30
30
30
30
30
30
30
00
10
38
10
ENDCHAR
STARTCHAR "
ENCODING 34
SWIDTH 393 0
DWIDTH 9 0
BBX 9 15 0 0
BITMAP
3700
3700
3700
2200
2200
2200
0000
0000
0000
0000
0000
0000
0000
0000
0000
ENDCHAR
STARTCHAR U+0023
ENCODING 35
SWIDTH 742 0
DWIDTH 17 0
BBX 17 15 0 0
BITMAP
018C00
010C00
031800
031800
3FFF00
3FFF00
063000
063000
043000
7FFE00
7FFC00
0C6000
084000
18C000
108000
ENDCHAR
STARTCHAR $
ENCODING 36
SWIDTH 480 0
DWIDTH 11 0
BBX 11 18 0 -2
BITMAP
0C00
0E00
3F80
3380
7000
7000
3800
1E00
0F80
03C0
01C0
00C0
60C0
71C0
3F80
1F00
0C00
0C00
ENDCHAR
STARTCHAR %
ENCODING 37
SWIDTH 698 0
DWIDTH 16 0
BBX 16 15 0 0
BITMAP
1C18
3E30
6630
6360
6660
3EC0
1CC0
0180
01BC
037E
0366
0662
0666
0C7E
0C3C
ENDCHAR
STARTCHAR &
ENCODING 38
SWIDTH 655 0
DWIDTH 15 0
BBX 15 15 0 0
BITMAP
0F80
1FC0
18C0
18C0
18C0
1DC0
0F00
1F1C
3B98
71D8
60F0
6070
70F0
3FF8
1F1C
ENDCHAR
STARTCHAR '
ENCODING 39
SWIDTH 218 0
DWIDTH 5 0
BBX 5 15 0 0
BITMAP
30
30
30
20
20
20
00
00
00
00
00
00
00
00
00
ENDCHAR
STARTCHAR (
ENCODING 40
SWIDTH 262 0
DWIDTH 6 0
BBX 6 18 0 -2
BITMAP
18
18
30
30
30
30
60
60
60
60
60
60
30
30
30
30
18
18
ENDCHAR
STARTCHAR )
ENCODING 41
SWIDTH 262 0
DWIDTH 6 0
BBX 6 18 0 -2
BITMAP
60
60
30
30
30
30
30
30
18
18
30
30
30
30
30
30
60
60
ENDCHAR
STARTCHAR *
ENCODING 42
SWIDTH 393 0
DWIDTH 9 0
BBX 9 15 0 0
BITMAP
0800
4A00
6B00
3E00
1C00
6B00
4A00
0800
0000
0000
0000
0000
0000
0000
0000
ENDCHAR
STARTCHAR +
ENCODING 43
SWIDTH 524 0
DWIDTH 12 0
BBX 12 11 0 0
BITMAP
0600
0600
0600
7FC0
7FC0
0600
0600
0600
0000
0000
0000
ENDCHAR
STARTCHAR ,
ENCODING 44
SWIDTH 218 0
DWIDTH 5 0
BBX 5 6 0 -3
BITMAP
20
70
30
30
20
00
ENDCHAR
STARTCHAR -
ENCODING 45
SWIDTH 349 0
DWIDTH 8 0
BBX 8 7 0 0
BITMAP
7F
7F
00
00
00
00
00
ENDCHAR
STARTCHAR .
ENCODING 46
SWIDTH 218 0
DWIDTH 5 0
BBX 5 3 0 0
BITMAP
20
70
20
ENDCHAR
STARTCHAR /
ENCODING 47
SWIDTH 305 0
DWIDTH 7 0
BBX 8 18 0 -2
BITMAP
06
06
0C
0C
0C
0C
18
18
18
30
30
30
20
60
60
60
C0
C0
ENDCHAR
STARTCHAR 0
ENCODING 48
SWIDTH 567 0
DWIDTH 13 0
BBX 13 15 0 0
BITMAP
0780
0FC0
1CE0
1860
3860
3070
3030
3030
3030
3070
3860
1860
1CE0
0FC0
0780
ENDCHAR
STARTCHAR 1
ENCODING 49
SWIDTH 262 0
DWIDTH 6 0
BBX 6 15 0 0
BITMAP
10
30
30
30
30
30
30
30
30
30
30
30
30
30
30
ENDCHAR
STARTCHAR 2
ENCODING 50
SWIDTH 480 0
DWIDTH 11 0
BBX 11 15 0 0
BITMAP
1F00
3F80
31C0
40C0
00C0
01C0
0180
0380
0300
0700
0E00
0C00
1C00
3FC0
3FC0
ENDCHAR
STARTCHAR 3
ENCODING 51
SWIDTH 480 0
DWIDTH 11 0
BBX 11 15 0 0
BITMAP
7FC0
7F80
0380
0300
0700
0E00
0F80
01C0
00C0
00E0
00E0
40C0
61C0
7F80
1F00
ENDCHAR
STARTCHAR 4
ENCODING 52
SWIDTH 567 0
DWIDTH 13 0
BBX 13 15 0 0
BITMAP
0040
00C0
01C0
01C0
03C0
07C0
0DC0
19C0
31C0
7FF0
FFF0
01C0
01C0
01C0
01C0
ENDCHAR
STARTCHAR 5
ENCODING 53
SWIDTH 480 0
DWIDTH 11 0
BBX 11 15 0 0
BITMAP
1FC0
1FC0
1800
1800
1800
1F00
3F80
21C0
00C0
00C0
00C0
40C0
61C0
7F80
1F00
ENDCHAR
STARTCHAR 6
ENCODING 54
SWIDTH 524 0
DWIDTH 12 0
BBX 12 15 0 0
BITMAP
0700
0E00
0C00
1C00
3800
3700
7FC0
71C0
60E0
60E0
60E0
70C0
31C0
3F80
0F00
ENDCHAR
STARTCHAR 7
ENCODING 55
SWIDTH 480 0
DWIDTH 11 0
BBX 11 15 0 0
BITMAP
7FC0
7F80
0180
0300
0300
0700
0600
0E00
0C00
1C00
1800
1800
3800
3000
7000
ENDCHAR
STARTCHAR 8
ENCODING 56
SWIDTH 524 0
DWIDTH 12 0
BBX 12 15 0 0
BITMAP
0F00
1F80
31C0
30C0
30C0
3980
1F00
1F80
39C0
70C0
60E0
60E0
30C0
3FC0
0F00
ENDCHAR
STARTCHAR 9
ENCODING 57
SWIDTH 524 0
DWIDTH 12 0
BBX 12 15 0 0
BITMAP
0F00
3F80
31C0
60E0
6060
6060
7060
3FE0
1FC0
01C0
0180
0380
0700
0E00
1C00
ENDCHAR
STARTCHAR :
ENCODING 58
SWIDTH 262 0
DWIDTH 6 0
BBX 6 11 0 0
BITMAP
20
70
20
00
00
00
00
00
20
70
20
ENDCHAR
STARTCHAR ;
ENCODING 59
SWIDTH 262 0
DWIDTH 6 0
BBX 6 14 0 -3
BITMAP
20
70
20
00
00
00
00
00
10
38
18
18
10
00
ENDCHAR
STARTCHAR U+003C
ENCODING 60
SWIDTH 524 0
DWIDTH 12 0
BBX 12 14 0 0
BITMAP
0040
01C0
0780
1E00
7800
7800
1E00
0780
01C0
0040
0000
0000
0000
0000
ENDCHAR
STARTCHAR =
ENCODING 61
SWIDTH 524 0
DWIDTH 12 0
BBX 12 10 0 0
BITMAP
7FC0
7FC0
0000
0000
7FC0
7FC0
0000
0000
0000
0000
ENDCHAR
STARTCHAR U+003E
ENCODING 62
SWIDTH 524 0
DWIDTH 12 0
BBX 12 14 0 0
BITMAP
6000
7800
1E00
0780
01C0
01C0
0780
1E00
7800
6000
0000
0000
0000
0000
ENDCHAR
STARTCHAR ?
ENCODING 63
SWIDTH 436 0
DWIDTH 10 0
BBX 10 15 0 0
BITMAP
3E00
7F00
6380
0180
0380
0700
0E00
1C00
1800
1C00
0800
0000
0800
1C00
0800
ENDCHAR
STARTCHAR @
ENCODING 64
SWIDTH 916 0
DWIDTH 21 0
BBX 21 19 0 -4
BITMAP
00FE00
03FF80
0F03C0
1C00E0
187A60
31FE30
318630
230630
630430
630C30
630C30
630C60
238FC0
31F380
38E000
1C0000
0E0600
07FE00
01F800
ENDCHAR
STARTCHAR A
ENCODING 65
SWIDTH 655 0
DWIDTH 15 0
BBX 15 15 0 0
BITMAP
0300
0380
0780
06C0
06C0
0CE0
0C60
1C60
1830
1FF0
3FF8
3018
7018
601C
600C
ENDCHAR
STARTCHAR B
ENCODING 66
SWIDTH 567 0
DWIDTH 13 0
BBX 13 15 0 0
BITMAP
3F80
3FC0
30C0
30E0
30E0
30C0
3F80
3FE0
3070
3030
3030
3030
3070
3FE0
3FC0
ENDCHAR
STARTCHAR C
ENCODING 67
SWIDTH 655 0
DWIDTH 15 0
BBX 15 15 0 0
BITMAP
03F0
0FFC
1E0C
3800
3000
3000
7000
7000
7000
3000
3000
3800
1E0C
0FFC
03F0
ENDCHAR
STARTCHAR D
ENCODING 68
SWIDTH 698 0
DWIDTH 16 0
BBX 16 15 0 0
BITMAP
3FC0
3FF0
3078
301C
300C
300E
300E
300E
300E
300C
300C
301C
3078
3FF0
3FC0
ENDCHAR
STARTCHAR E
ENCODING 69
SWIDTH 567 0
DWIDTH 13 0
BBX 13 15 0 0
BITMAP
3FE0
3FE0
3000
3000
3000
3000
3FC0
3FC0
3000
3000
3000
3000
3000
3FF0
3FF0
ENDCHAR
STARTCHAR F
ENCODING 70
SWIDTH 524 0
DWIDTH 12 0
BBX 12 15 0 0
BITMAP
3FE0
3FE0
3000
3000
3000
3000
3F80
3F80
3000
3000
3000
3000
3000
3000
3000
ENDCHAR
STARTCHAR G
ENCODING 71
SWIDTH 698 0
DWIDTH 16 0
BBX 16 15 0 0
BITMAP
03F0
0FF8
1E0C
3804
3000
3000
707E
707E
700E
300E
300E
380E
1E1E
0FFC
03F0
ENDCHAR
STARTCHAR H
ENCODING 72
SWIDTH 698 0
DWIDTH 16 0
BBX 16 15 0 0
BITMAP
300C
300C
300C
300C
300C
300C
3FFC
3FFC
300C
300C
300C
300C
300C
300C
300C
ENDCHAR
STARTCHAR I
ENCODING 73
SWIDTH 262 0
DWIDTH 6 0
BBX 6 15 0 0
BITMAP
30
30
30
30
30
30
30
30
30
30
30
30
30
30
30
ENDCHAR
STARTCHAR J
ENCODING 74
SWIDTH 480 0
DWIDTH 11 0
BBX 11 15 0 0
BITMAP
0380
0380
0380
0380
0380
0380
0380
0380
0380
0380
0380
6380
6300
7F00
3C00
ENDCHAR
STARTCHAR K
ENCODING 75
SWIDTH 611 0
DWIDTH 14 0
BBX 14 15 0 0
BITMAP
3038
3070
30E0
31C0
3380
3E00
3C00
3E00
3700
3380
31C0
30E0
3070
3070
3038
ENDCHAR
STARTCHAR L
ENCODING 76
SWIDTH 524 0
DWIDTH 12 0
BBX 12 15 0 0
BITMAP
3000
3000
3000
3000
3000
3000
3000
3000
3000
3000
3000
3000
3000
3FE0
3FE0
ENDCHAR
STARTCHAR M
ENCODING 77
SWIDTH 829 0
DWIDTH 19 0
BBX 19 15 0 0
BITMAP
380380
3C0780
3C0780
3E0F80
371D80
33B980
31F180
30E180
30E180
304180
300180
300180
300180
300180
300180
ENDCHAR
STARTCHAR N
ENCODING 78
SWIDTH 742 0
DWIDTH 17 0
BBX 17 15 0 0
BITMAP
380600
380600
3C0600
3E0600
370600
330600
338600
31C600
30E600
306600
303600
303E00
301E00
300E00
300600
ENDCHAR
STARTCHAR O
ENCODING 79
SWIDTH 785 0
DWIDTH 18 0
BBX 18 15 0 0
BITMAP
03F000
0FFC00
1E1E00
380700
300300
300380
700380
700180
700380
300380
300300
380700
1E1E00
0FFC00
03F000
ENDCHAR
STARTCHAR P
ENCODING 80
SWIDTH 567 0
DWIDTH 13 0
BBX 13 15 0 0
BITMAP
3FC0
3FE0
3070
3070
3030
3070
3060
3FE0
3F80
3000
3000
3000
3000
3000
3000
ENDCHAR
STARTCHAR Q
ENCODING 81
SWIDTH 785 0
DWIDTH 18 0
BBX 18 15 0 0
BITMAP
03F000
0FFC00
1E1E00
380700
300300
300380
700380
700180
700380
300380
301B00
381F00
1E1E00
0FFF00
03F200
ENDCHAR
STARTCHAR R
ENCODING 82
SWIDTH 567 0
DWIDTH 13 0
BBX 14 15 0 0
BITMAP
3F80
3FC0
30E0
3060
3060
30E0
3FC0
3F80
3380
3180
31C0
30E0
3070
3070
3038
ENDCHAR
STARTCHAR S
ENCODING 83
SWIDTH 480 0
DWIDTH 11 0
BBX 11 15 0 0
BITMAP
1F00
3F80
7100
7000
7000
3C00
1F00
0F80
03C0
00C0
00C0
20C0
71C0
3F80
1F00
ENDCHAR
STARTCHAR T
ENCODING 84
SWIDTH 567 0
DWIDTH 13 0
BBX 13 15 0 0
BITMAP
7FF0
7FF0
0600
0600
0600
0600
0600
0600
0600
0600
0600
0600
0600
0600
0600
ENDCHAR
STARTCHAR U
ENCODING 85
SWIDTH 742 0
DWIDTH 17 0
BBX 17 15 0 0
BITMAP
300600
300600
300600
300600
300600
300600
300600
300600
300600
300600
380E00
180C00
1C1C00
0FF800
03E000
ENDCHAR
STARTCHAR V
ENCODING 86
SWIDTH 611 0
DWIDTH 14 0
BBX 14 15 0 0
BITMAP
601C
6018
7038
3030
3030
1870
1860
1C60
0CE0
0CC0
0EC0
0780
0780
0380
0300
ENDCHAR
STARTCHAR W
ENCODING 87
SWIDTH 960 0
DWIDTH 22 0
BBX 22 15 0 0
BITMAP
603038
707030
307830
307870
30F860
38DC60
18CC60
18CCE0
1D8CC0
0D86C0
0D86C0
0F0780
0F0780
070380
070380
ENDCHAR
STARTCHAR X
ENCODING 88
SWIDTH 655 0
DWIDTH 15 0
BBX 15 15 0 0
BITMAP
701C
3038
3870
1C60
0EE0
07C0
0380
0380
07C0
0EE0
1C60
1870
3838
701C
600C
ENDCHAR
STARTCHAR Y
ENCODING 89
SWIDTH 567 0
DWIDTH 13 0
BBX 13 15 0 0
BITMAP
6038
7030
3060
18E0
1CC0
0D80
0F80
0700
0300
0300
0300
0300
0300
0300
0300
ENDCHAR
STARTCHAR Z
ENCODING 90
SWIDTH 611 0
DWIDTH 14 0
BBX 14 15 0 0
BITMAP
7FF8
7FF0
0070
00E0
00C0
01C0
0380
0300
0700
0E00
0C00
1C00
3800
3FF8
7FF8
ENDCHAR
STARTCHAR [
ENCODING 91
SWIDTH 305 0
DWIDTH 7 0
BBX 7 20 0 -3
BITMAP
3E
3E
30
30
30
30
30
30
30
30
30
30
30
30
30
30
30
30
3E
3E
ENDCHAR
STARTCHAR \
ENCODING 92
SWIDTH 305 0
DWIDTH 7 0
BBX 8 18 0 -2
BITMAP
C0
C0
60
60
60
30
30
30
30
18
18
18
0C
0C
0C
0C
06
06
ENDCHAR
STARTCHAR ]
ENCODING 93
SWIDTH 305 0
DWIDTH 7 0
BBX 7 20 0 -3
BITMAP
7C
7C
0C
0C
0C
0C
0C
0C
0C
0C
0C
0C
0C
0C
0C
0C
0C
0C
7C
7C
ENDCHAR
STARTCHAR ^
ENCODING 94
SWIDTH 567 0
DWIDTH 13 0
BBX 13 15 0 0
BITMAP
0700
0F00
0D80
18C0
30E0
7060
0000
0000
0000
0000
0000
0000
0000
0000
0000
ENDCHAR
STARTCHAR _
ENCODING 95
SWIDTH 480 0
DWIDTH 11 0
BBX 13 3 -1 -3
BITMAP
0000
0000
FFE0
ENDCHAR
STARTCHAR `
ENCODING 96
SWIDTH 436 0
DWIDTH 10 0
BBX 11 15 0 0
BITMAP
FFC0
FFC0
C0C0
C0C0
C0C0
C0C0
C0C0
C0C0
C0C0
C0C0
C0C0
C0C0
C0C0
FFC0
FFC0
ENDCHAR
STARTCHAR a
ENCODING 97
SWIDTH 480 0
DWIDTH 11 0
BBX 11 11 0 0
BITMAP
3F00
3F80
2180
00C0
0FC0
3FC0
78C0
60C0
61C0
7FC0
3EC0
ENDCHAR
STARTCHAR b
ENCODING 98
SWIDTH 567 0
DWIDTH 13 0
BBX 13 15 0 0
BITMAP
3000
3000
3000
3000
3780
3FE0
38E0
3070
3030
3030
3030
3030
38E0
3FE0
3780
ENDCHAR
STARTCHAR c
ENCODING 99
SWIDTH 480 0
DWIDTH 11 0
BBX 11 11 0 0
BITMAP
0F80
1FC0
3840
7000
6000
6000
6000
7000
3840
1FC0
0F80
ENDCHAR
STARTCHAR d
ENCODING 100
SWIDTH 567 0
DWIDTH 13 0
BBX 13 15 0 0
BITMAP
0060
0060
0060
0060
0F60
1FE0
3860
7060
6060
6060
6060
7060
38E0
1FE0
0FA0
ENDCHAR
STARTCHAR e
ENCODING 101
SWIDTH 524 0
DWIDTH 12 0
BBX 12 11 0 0
BITMAP
0F80
1FC0
30E0
7060
7FE0
7FE0
6000
7000
3860
1FE0
0F80
ENDCHAR
STARTCHAR f
ENCODING 102
SWIDTH 393 0
DWIDTH 9 0
BBX 9 15 0 0
BITMAP
0F00
1F00
3800
3000
FF00
FF00
3000
3000
3000
3000
3000
3000
3000
3000
3000
ENDCHAR
STARTCHAR g
ENCODING 103
SWIDTH 480 0
DWIDTH 11 0
BBX 11 15 0 -4
BITMAP
1FE0
3FE0
7180
60C0
71C0
3F80
3F00
3000
3E00
3F80
61C0
C060
E0E0
7FC0
3F80
ENDCHAR
STARTCHAR h
ENCODING 104
SWIDTH 567 0
DWIDTH 13 0
BBX 13 15 0 0
BITMAP
3000
3000
3000
3000
3780
3FE0
38E0
3060
3070
3070
3070
3070
3070
3070
3070
ENDCHAR
STARTCHAR i
ENCODING 105
SWIDTH 262 0
DWIDTH 6 0
BBX 6 15 0 0
BITMAP
30
30
00
30
30
30
30
30
30
30
30
30
30
30
00
ENDCHAR
STARTCHAR j
ENCODING 106
SWIDTH 262 0
DWIDTH 6 0
BBX 7 19 -1 -4
BITMAP
20
70
20
00
30
30
30
30
30
30
30
30
30
30
30
30
30
E0
E0
ENDCHAR
STARTCHAR k
ENCODING 107
SWIDTH 524 0
DWIDTH 12 0
BBX 12 15 0 0
BITMAP
3000
3000
3000
3000
30E0
31C0
3300
3E00
3C00
3C00
3E00
3700
3380
31C0
30E0
ENDCHAR
STARTCHAR l
ENCODING 108
SWIDTH 305 0
DWIDTH 7 0
BBX 7 15 0 0
BITMAP
30
30
30
30
30
30
30
30
30
30
30
30
30
3E
1E
ENDCHAR
STARTCHAR m
ENCODING 109
SWIDTH 873 0
DWIDTH 20 0
BBX 20 11 0 0
BITMAP
378F80
3FFFC0
38F0C0
3060E0
306060
306060
306060
306060
306060
306060
306060
ENDCHAR
STARTCHAR n
ENCODING 110
SWIDTH 567 0
DWIDTH 13 0
BBX 13 11 0 0
BITMAP
3780
3FE0
38E0
3060
3070
3070
3070
3070
3070
3070
3070
ENDCHAR
STARTCHAR o
ENCODING 111
SWIDTH 567 0
DWIDTH 13 0
BBX 13 11 0 0
BITMAP
0F80
1FE0
3870
7030
6030
6030
6030
7030
3870
1FE0
0F80
ENDCHAR
STARTCHAR p
ENCODING 112
SWIDTH 567 0
DWIDTH 13 0
BBX 13 15 0 -4
BITMAP
3780
3FE0
38E0
3070
3030
3030
3030
3070
38E0
3FE0
3780
3000
3000
3000
3000
ENDCHAR
STARTCHAR q
ENCODING 113
SWIDTH 567 0
DWIDTH 13 0
BBX 13 15 0 -4
BITMAP
0F20
1FE0
3860
7060
6060
6060
6060
7060
3860
1FE0
0F60
0060
0060
0060
0060
ENDCHAR
STARTCHAR r
ENCODING 114
SWIDTH 393 0
DWIDTH 9 0
BBX 9 11 0 0
BITMAP
3700
3F00
3800
3000
3000
3000
3000
3000
3000
3000
3000
ENDCHAR
STARTCHAR s
ENCODING 115
SWIDTH 480 0
DWIDTH 11 0
BBX 11 11 0 0
BITMAP
1E00
3F80
7080
6000
7C00
3F00
0780
01C0
6180
7F80
1F00
ENDCHAR
STARTCHAR t
ENCODING 116
SWIDTH 393 0
DWIDTH 9 0
BBX 9 13 0 0
BITMAP
3000
3000
FF00
FF00
3000
3000
3000
3000
3000
3000
3800
1F00
0F00
ENDCHAR
STARTCHAR u
ENCODING 117
SWIDTH 567 0
DWIDTH 13 0
BBX 13 11 0 0
BITMAP
3060
3060
3060
3060
3060
3060
3060
3060
38E0
1FE0
0F60
ENDCHAR
STARTCHAR v
ENCODING 118
SWIDTH 524 0
DWIDTH 12 0
BBX 12 11 0 0
BITMAP
6060
6060
70E0
30C0
31C0
1980
1980
0F00
0F00
0F00
0600
ENDCHAR
STARTCHAR w
ENCODING 119
SWIDTH 829 0
DWIDTH 19 0
BBX 19 11 0 0
BITMAP
60E0C0
60E0C0
70E1C0
31B180
31B180
39B380
1B1B00
1B1B00
1E0F00
0E0E00
0E0E00
ENDCHAR
STARTCHAR x
ENCODING 120
SWIDTH 480 0
DWIDTH 11 0
BBX 12 11 0 0
BITMAP
60C0
3180
1B80
1F00
0E00
0E00
1F00
1B80
3180
70C0
E0E0
ENDCHAR
STARTCHAR y
ENCODING 121
SWIDTH 524 0
DWIDTH 12 0
BBX 12 15 0 -4
BITMAP
6060
6060
70E0
30C0
30C0
1980
1980
0F80
0F00
0F00
0600
0600
0C00
3C00
3800
ENDCHAR
STARTCHAR z
ENCODING 122
SWIDTH 436 0
DWIDTH 10 0
BBX 10 11 0 0
BITMAP
7FC0
7F80
0300
0700
0600
0C00
1C00
1800
3800
7FC0
7FC0
ENDCHAR
STARTCHAR {
ENCODING 123
SWIDTH 349 0
DWIDTH 8 0
BBX 8 19 0 -2
BITMAP
0E
18
18
18
18
18
18
18
38
70
70
38
18
18
18
18
18
18
0E
ENDCHAR
STARTCHAR |
ENCODING 124
SWIDTH 218 0
DWIDTH 5 0
BBX 5 22 0 -6
BITMAP
30
30
30
30
30
30
30
30
30
30
30
30
30
30
30
30
30
30
30
30
30
30
ENDCHAR
STARTCHAR }
ENCODING 125
SWIDTH 349 0
DWIDTH 8 0
BBX 8 19 0 -2
BITMAP
70
18
18
18
18
18
18
18
1C
0E
0E
1C
18
18
18
18
18
18
70
ENDCHAR
STARTCHAR ~
ENCODING 126
SWIDTH 524 0
DWIDTH 12 0
BBX 12 9 0 0
BITMAP
1860
3E40
67C0
6380
0000
0000
0000
0000
0000
ENDCHAR
STARTCHAR U+00A0
ENCODING 160
SWIDTH 262 0
DWIDTH 6 0
BBX 6 26 0 -6
BITMAP
00
00
00
00
00
00
00
00
00
00
00
00
00
00
00
00
00
00
00
00
00
00
00
00
00
00
ENDCHAR
STARTCHAR U+00A1
ENCODING 161
SWIDTH 262 0
DWIDTH 6 0
BBX 6 15 0 -4
BITMAP
10
38
10
00
30
30
30
30
30
30
30
30
30
30
30
ENDCHAR
STARTCHAR U+00A2
ENCODING 162
SWIDTH 480 0
DWIDTH 11 0
BBX 11 13 0 -1
BITMAP
0300
0F80
1FC0
3840
7000
6000
6000
6000
7000
3840
1FC0
0F80
0300
ENDCHAR
STARTCHAR U+00A3
ENCODING 163
SWIDTH 524 0
DWIDTH 12 0
BBX 12 15 0 0
BITMAP
07C0
0FC0
0C40
1C00
1800
1800
1800
3F80
3F00
1800
1800
3800
3000
3FE0
7FC0
ENDCHAR
STARTCHAR U+00A4
ENCODING 164
SWIDTH 567 0
DWIDTH 13 0
BBX 13 11 0 0
BITMAP
2020
77F0
3FE0
18E0
3060
3060
3060
18E0
3FE0
77F0
2020
ENDCHAR
STARTCHAR U+00A5
ENCODING 165
SWIDTH 611 0
DWIDTH 14 0
BBX 14 15 0 0
BITMAP
6038
3030
3860
1860
0CC0
3DF0
3FF0
0700
0300
3FF0
3FF0
0300
0300
0300
0300
ENDCHAR
STARTCHAR U+00A6
ENCODING 166
SWIDTH 218 0
DWIDTH 5 0
BBX 5 22 0 -6
BITMAP
30
30
30
30
30
30
30
30
30
00
00
00
00
30
30
30
30
30
30
30
30
30
ENDCHAR
STARTCHAR U+00A7
ENCODING 167
SWIDTH 480 0
DWIDTH 11 0
BBX 11 19 0 -4
BITMAP
1E00
3F80
7180
6180
6000
3800
1F00
7F80
61C0
60C0
60C0
7F80
1F00
0380
01C0
61C0
7180
3F80
1E00
ENDCHAR
STARTCHAR U+00A8
ENCODING 168
SWIDTH 436 0
DWIDTH 10 0
BBX 11 15 0 0
BITMAP
FFC0
FFC0
C0C0
C0C0
C0C0
C0C0
C0C0
C0C0
C0C0
C0C0
C0C0
C0C0
C0C0
FFC0
FFC0
ENDCHAR
STARTCHAR U+00A9
ENCODING 169
SWIDTH 785 0
DWIDTH 18 0
BBX 18 15 0 0
BITMAP
03F000
0C1800
180600
31F200
261100
260100
4C0100
4C0100
4C0100
260100
271100
31F200
180600
0C1800
03F000
ENDCHAR
STARTCHAR U+00AA
ENCODING 170
SWIDTH 305 0
DWIDTH 7 0
BBX 7 15 0 0
BITMAP
78
4C
0C
3C
6C
4C
7C
00
00
00
00
00
00
00
00
ENDCHAR
STARTCHAR U+00AB
ENCODING 171
SWIDTH 524 0
DWIDTH 12 0
BBX 12 10 0 0
BITMAP
0C60
1CE0
18C0
3180
6300
3180
18C0
1CE0
0C60
0000
ENDCHAR
STARTCHAR U+00AC
ENCODING 172
SWIDTH 524 0
DWIDTH 12 0
BBX 12 11 0 0
BITMAP
7FC0
7FC0
00C0
00C0
00C0
00C0
00C0
0000
0000
0000
0000
ENDCHAR
STARTCHAR U+00AD
ENCODING 173
SWIDTH 349 0
DWIDTH 8 0
BBX 8 7 0 0
BITMAP
7F
7F
00
00
00
00
00
ENDCHAR
STARTCHAR U+00AE
ENCODING 174
SWIDTH 785 0
DWIDTH 18 0
BBX 18 15 0 0
BITMAP
03F000
0C1800
180600
33E200
233100
233100
433100
43E100
436100
236100
233100
331A00
180600
0C1800
03F000
ENDCHAR
STARTCHAR U+00AF
ENCODING 175
SWIDTH 436 0
DWIDTH 10 0
BBX 11 15 0 0
BITMAP
FFC0
FFC0
C0C0
C0C0
C0C0
C0C0
C0C0
C0C0
C0C0
C0C0
C0C0
C0C0
C0C0
FFC0
FFC0
ENDCHAR
STARTCHAR U+00B0
ENCODING 176
SWIDTH 393 0
DWIDTH 9 0
BBX 9 15 0 0
BITMAP
1C00
3E00
6600
6300
6600
3E00
1C00
0000
0000
0000
0000
0000
0000
0000
0000
ENDCHAR
STARTCHAR U+00B1
ENCODING 177
SWIDTH 524 0
DWIDTH 12 0
BBX 12 12 0 0
BITMAP
0600
0600
0600
7FC0
7FC0
0600
0600
0600
0000
0000
7FC0
7FC0
ENDCHAR
STARTCHAR U+00B2
ENCODING 178
SWIDTH 305 0
DWIDTH 7 0
BBX 7 15 0 0
BITMAP
38
7C
4C
0C
0C
18
10
3E
7E
00
00
00
00
00
00
ENDCHAR
STARTCHAR U+00B3
ENCODING 179
SWIDTH 305 0
DWIDTH 7 0
BBX 7 15 0 0
BITMAP
7C
7C
18
18
04
06
46
7C
38
00
00
00
00
00
00
ENDCHAR
STARTCHAR U+00B4
ENCODING 180
SWIDTH 436 0
DWIDTH 10 0
BBX 11 15 0 0
BITMAP
FFC0
FFC0
C0C0
C0C0
C0C0
C0C0
C0C0
C0C0
C0C0
C0C0
C0C0
C0C0
C0C0
FFC0
FFC0
ENDCHAR
STARTCHAR U+00B5
ENCODING 181
SWIDTH 567 0
DWIDTH 13 0
BBX 13 15 0 -4
BITMAP
3060
3060
3060
3060
3060
3060
3060
3060
38E0
3FE0
3F60
3000
3000
3000
3000
ENDCHAR
STARTCHAR U+00B6
ENCODING 182
SWIDTH 524 0
DWIDTH 12 0
BBX 12 19 0 -4
BITMAP
1FF0
3E40
7E40
7E40
7E40
7E40
3E40
1E40
0640
0640
0640
0640
0640
0640
0640
0640
0640
0640
0640
ENDCHAR
STARTCHAR U+00B7
ENCODING 183
SWIDTH 218 0
DWIDTH 5 0
BBX 5 9 0 0
BITMAP
20
70
20
00
00
00
00
00
00
ENDCHAR
STARTCHAR U+00B8
ENCODING 184
SWIDTH 436 0
DWIDTH 10 0
BBX 11 15 0 0
BITMAP
FFC0
FFC0
C0C0
C0C0
C0C0
C0C0
C0C0
C0C0
C0C0
C0C0
C0C0
C0C0
C0C0
FFC0
FFC0
ENDCHAR
STARTCHAR U+00B9
ENCODING 185
SWIDTH 218 0
DWIDTH 5 0
BBX 5 15 0 0
BITMAP
20
20
20
20
20
20
20
20
20
00
00
00
00
00
00
ENDCHAR
STARTCHAR U+00BA
ENCODING 186
SWIDTH 349 0
DWIDTH 8 0
BBX 8 15 0 0
BITMAP
3C
62
43
43
62
3C
00
00
00
00
00
00
00
00
00
ENDCHAR
STARTCHAR U+00BB
ENCODING 187
SWIDTH 524 0
DWIDTH 12 0
BBX 12 10 0 0
BITMAP
7300
3180
18C0
0CE0
0660
0C60
18C0
3180
7300
0000
ENDCHAR
STARTCHAR U+00BC
ENCODING 188
SWIDTH 785 0
DWIDTH 18 0
BBX 18 15 0 0
BITMAP
201800
201000
203000
206000
206000
20C000
20C000
218100
218300
030700
030D00
061900
063F80
0C0100
0C0100
ENDCHAR
STARTCHAR U+00BD
ENCODING 189
SWIDTH 785 0
DWIDTH 18 0
BBX 18 15 0 0
BITMAP
201800
201000
203000
206000
206000
20C000
20C700
218F80
218980
030180
030180
060300
060200
0C07C0
0C0FC0
ENDCHAR
STARTCHAR U+00BE
ENCODING 190
SWIDTH 829 0
DWIDTH 19 0
BBX 19 15 0 0
BITMAP
7C0600
7C0400
180C00
181800
041800
063000
463000
7C6080
386180
00C380
00C680
018C80
019FC0
030080
030080
ENDCHAR
STARTCHAR U+00BF
ENCODING 191
SWIDTH 436 0
DWIDTH 10 0
BBX 10 15 0 -4
BITMAP
0400
0E00
0400
0000
0400
0E00
0600
0E00
1C00
3800
7000
6000
7080
3F80
1F00
ENDCHAR
STARTCHAR U+00C0
ENCODING 192
SWIDTH 655 0
DWIDTH 15 0
BBX 15 19 0 0
BITMAP
0700
0300
0180
0000
0300
0380
0780
06C0
06C0
0CE0
0C60
1C60
1830
1FF0
3FF8
3018
7018
601C
600C
ENDCHAR
STARTCHAR U+00C1
ENCODING 193
SWIDTH 655 0
DWIDTH 15 0
BBX 15 19 0 0
BITMAP
01C0
0180
0300
0000
0300
0380
0780
06C0
06C0
0CE0
0C60
1C60
1830
1FF0
3FF8
3018
7018
601C
600C
ENDCHAR
STARTCHAR U+00C2
ENCODING 194
SWIDTH 655 0
DWIDTH 15 0
BBX 15 19 0 0
BITMAP
0380
0780
0CC0
0000
0300
0380
0780
06C0
06C0
0CE0
0C60
1C60
1830
1FF0
3FF8
3018
7018
601C
600C
ENDCHAR
STARTCHAR U+00C3
ENCODING 195
SWIDTH 655 0
DWIDTH 15 0
BBX 15 19 0 0
BITMAP
0E40
1FC0
0180
0000
0300
0380
0780
06C0
06C0
0CE0
0C60
1C60
1830
1FF0
3FF8
3018
7018
601C
600C
ENDCHAR
STARTCHAR U+00C4
ENCODING 196
SWIDTH 655 0
DWIDTH 15 0
BBX 15 19 0 0
BITMAP
0440
0EE0
0440
0000
0300
0380
0780
06C0
06C0
0CE0
0C60
1C60
1830
1FF0
3FF8
3018
7018
601C
600C
ENDCHAR
STARTCHAR U+00C5
ENCODING 197
SWIDTH 655 0
DWIDTH 15 0
BBX 15 20 0 0
BITMAP
0380
0480
0480
0380
0000
0300
0380
0780
06C0
06C0
0CE0
0C60
1C60
1830
1FF0
3FF8
3018
7018
601C
600C
ENDCHAR
STARTCHAR U+00C6
ENCODING 198
SWIDTH 873 0
DWIDTH 20 0
BBX 20 15 0 0
BITMAP
00FFE0
00FFE0
01F000
01B000
03B000
033000
073F80
0E3F80
0E3000
1FF000
1FF000
383000
303000
703FE0
603FE0
ENDCHAR
STARTCHAR U+00C7
ENCODING 199
SWIDTH 655 0
DWIDTH 15 0
BBX 15 19 0 -4
BITMAP
03F0
0FFC
1E0C
3800
3000
3000
7000
7000
7000
3000
3000
3800
1E0C
0FFC
03F0
0180
01C0
0060
03C0
ENDCHAR
STARTCHAR U+00C8
ENCODING 200
SWIDTH 567 0
DWIDTH 13 0
BBX 13 19 0 0
BITMAP
0E00
0600
0300
0000
3FE0
3FE0
3000
3000
3000
3000
3FC0
3FC0
3000
3000
3000
3000
3000
3FF0
3FF0
ENDCHAR
STARTCHAR U+00C9
ENCODING 201
SWIDTH 567 0
DWIDTH 13 0
BBX 13 19 0 0
BITMAP
0380
0300
0600
0000
3FE0
3FE0
3000
3000
3000
3000
3FC0
3FC0
3000
3000
3000
3000
3000
3FF0
3FF0
ENDCHAR
STARTCHAR U+00CA
ENCODING 202
SWIDTH 567 0
DWIDTH 13 0
BBX 13 19 0 0
BITMAP
0380
0780
0CC0
0000
3FE0
3FE0
3000
3000
3000
3000
3FC0
3FC0
3000
3000
3000
3000
3000
3FF0
3FF0
ENDCHAR
STARTCHAR U+00CB
ENCODING 203
SWIDTH 567 0
DWIDTH 13 0
BBX 13 19 0 0
BITMAP
0880
1DC0
0880
0000
3FE0
3FE0
3000
3000
3000
3000
3FC0
3FC0
3000
3000
3000
3000
3000
3FF0
3FF0
ENDCHAR
STARTCHAR U+00CC
ENCODING 204
SWIDTH 262 0
DWIDTH 6 0
BBX 6 19 0 0
BITMAP
70
30
18
00
30
30
30
30
30
30
30
30
30
30
30
30
30
30
30
ENDCHAR
STARTCHAR U+00CD
ENCODING 205
SWIDTH 262 0
DWIDTH 6 0
BBX 7 19 0 0
BITMAP
1C
18
30
00
30
30
30
30
30
30
30
30
30
30
30
30
30
30
30
ENDCHAR
STARTCHAR U+00CE
ENCODING 206
SWIDTH 262 0
DWIDTH 6 0
BBX 7 19 0 0
BITMAP
00
00
00
00
00
00
00
00
00
00
00
00
00
00
00
00
00
00
00
ENDCHAR
STARTCHAR U+00CF
ENCODING 207
SWIDTH 262 0
DWIDTH 6 0
BBX 8 19 -1 0
BITMAP
44
EE
44
00
30
30
30
30
30
30
30
30
30
30
30
30
30
30
30
ENDCHAR
STARTCHAR U+00D0
ENCODING 208
SWIDTH 698 0
DWIDTH 16 0
BBX 16 15 0 0
BITMAP
3FC0
3FF0
3078
301C
300C
300E
300E
7F0E
7F0E
300C
300C
301C
3078
3FF0
3FC0
ENDCHAR
STARTCHAR U+00D1
ENCODING 209
SWIDTH 742 0
DWIDTH 17 0
BBX 17 19 0 0
BITMAP
039000
07F000
006000
000000
380600
380600
3C0600
3E0600
370600
330600
338600
31C600
30E600
306600
303600
303E00
301E00
300E00
300600
ENDCHAR
STARTCHAR U+00D2
ENCODING 210
SWIDTH 785 0
DWIDTH 18 0
BBX 18 19 0 0
BITMAP
038000
018000
00C000
000000
03F000
0FFC00
1E1E00
380700
300300
300380
700380
700180
700380
300380
300300
380700
1E1E00
0FFC00
03F000
ENDCHAR
STARTCHAR U+00D3
ENCODING 211
SWIDTH 785 0
DWIDTH 18 0
BBX 18 19 0 0
BITMAP
007000
006000
00C000
000000
03F000
0FFC00
1E1E00
380700
300300
300380
700380
700180
700380
300380
300300
380700
1E1E00
0FFC00
03F000
ENDCHAR
STARTCHAR U+00D4
ENCODING 212
SWIDTH 785 0
DWIDTH 18 0
BBX 18 19 0 0
BITMAP
00E000
01E000
033000
000000
03F000
0FFC00
1E1E00
380700
300300
300380
700380
700180
700380
300380
300300
380700
1E1E00
0FFC00
03F000
ENDCHAR
STARTCHAR U+00D5
ENCODING 213
SWIDTH 785 0
DWIDTH 18 0
BBX 18 19 0 0
BITMAP
039000
07F000
006000
000000
03F000
0FFC00
1E1E00
380700
300300
300380
700380
700180
700380
300380
300300
380700
1E1E00
0FFC00
03F000
ENDCHAR
STARTCHAR U+00D6
ENCODING 214
SWIDTH 785 0
DWIDTH 18 0
BBX 18 19 0 0
BITMAP
022000
077000
022000
000000
03F000
0FFC00
1E1E00
380700
300300
300380
700380
700180
700380
300380
300300
380700
1E1E00
0FFC00
03F000
ENDCHAR
STARTCHAR U+00D7
ENCODING 215
SWIDTH 524 0
DWIDTH 12 0
BBX 12 12 0 0
BITMAP
10C0
3980
1F00
0F00
0F00
1F80
39C0
1080
0000
0000
0000
0000
ENDCHAR
STARTCHAR U+00D8
ENCODING 216
SWIDTH 785 0
DWIDTH 18 0
BBX 18 15 0 0
BITMAP
03F100
0FFF00
1E1E00
380F00
301B00
303380
706380
70C180
718380
330380
360300
3C0700
1E1E00
3FFC00
23F000
ENDCHAR
STARTCHAR U+00D9
ENCODING 217
SWIDTH 742 0
DWIDTH 17 0
BBX 17 19 0 0
BITMAP
038000
018000
00C000
000000
300600
300600
300600
300600
300600
300600
300600
300600
300600
300600
380E00
180C00
1C1C00
0FF800
03E000
ENDCHAR
STARTCHAR U+00DA
ENCODING 218
SWIDTH 742 0
DWIDTH 17 0
BBX 17 19 0 0
BITMAP
00E000
00C000
018000
000000
300600
300600
300600
300600
300600
300600
300600
300600
300600
300600
380E00
180C00
1C1C00
0FF800
03E000
ENDCHAR
STARTCHAR U+00DB
ENCODING 219
SWIDTH 742 0
DWIDTH 17 0
BBX 17 19 0 0
BITMAP
01C000
03C000
066000
000000
300600
300600
300600
300600
300600
300600
300600
300600
300600
300600
380E00
180C00
1C1C00
0FF800
03E000
ENDCHAR
STARTCHAR U+00DC
ENCODING 220
SWIDTH 742 0
DWIDTH 17 0
BBX 17 19 0 0
BITMAP
022000
077000
022000
000000
300600
300600
300600
300600
300600
300600
300600
300600
300600
300600
380E00
180C00
1C1C00
0FF800
03E000
ENDCHAR
STARTCHAR U+00DD
ENCODING 221
SWIDTH 567 0
DWIDTH 13 0
BBX 13 19 0 0
BITMAP
0380
0300
0600
0000
6038
7030
3060
18E0
1CC0
0D80
0F80
0700
0300
0300
0300
0300
0300
0300
0300
ENDCHAR
STARTCHAR U+00DE
ENCODING 222
SWIDTH 567 0
DWIDTH 13 0
BBX 13 15 0 0
BITMAP
3000
3000
3000
3FC0
3FE0
3070
3070
3030
3070
3060
3FE0
3F80
3000
3000
3000
ENDCHAR
STARTCHAR U+00DF
ENCODING 223
SWIDTH 524 0
DWIDTH 12 0
BBX 12 15 0 0
BITMAP
0F80
1FC0
38C0
30C0
30C0
30C0
3780
37C0
30E0
3060
3060
3060
30E0
37C0
3780
ENDCHAR
STARTCHAR U+00E0
ENCODING 224
SWIDTH 480 0
DWIDTH 11 0
BBX 11 16 0 0
BITMAP
1C00
0C00
0600
0000
0000
3F00
3F80
2180
00C0
0FC0
3FC0
78C0
60C0
61C0
7FC0
3EC0
ENDCHAR
STARTCHAR U+00E1
ENCODING 225
SWIDTH 480 0
DWIDTH 11 0
BBX 11 16 0 0
BITMAP
0700
0600
0C00
0000
0000
3F00
3F80
2180
00C0
0FC0
3FC0
78C0
60C0
61C0
7FC0
3EC0
ENDCHAR
STARTCHAR U+00E2
ENCODING 226
SWIDTH 480 0
DWIDTH 11 0
BBX 11 16 0 0
BITMAP
0E00
1E00
3300
0000
0000
3F00
3F80
2180
00C0
0FC0
3FC0
78C0
60C0
61C0
7FC0
3EC0
ENDCHAR
STARTCHAR U+00E3
ENCODING 227
SWIDTH 480 0
DWIDTH 11 0
BBX 11 16 0 0
BITMAP
1C80
3F80
0300
0000
0000
3F00
3F80
2180
00C0
0FC0
3FC0
78C0
60C0
61C0
7FC0
3EC0
ENDCHAR
STARTCHAR U+00E4
ENCODING 228
SWIDTH 480 0
DWIDTH 11 0
BBX 11 16 0 0
BITMAP
1100
3B80
1100
0000
0000
3F00
3F80
2180
00C0
0FC0
3FC0
78C0
60C0
61C0
7FC0
3EC0
ENDCHAR
STARTCHAR U+00E5
ENCODING 229
SWIDTH 480 0
DWIDTH 11 0
BBX 11 17 0 0
BITMAP
0E00
1200
1200
0E00
0000
0000
3F00
3F80
2180
00C0
0FC0
3FC0
78C0
60C0
61C0
7FC0
3EC0
ENDCHAR
STARTCHAR U+00E6
ENCODING 230
SWIDTH 785 0
DWIDTH 18 0
BBX 18 11 0 0
BITMAP
3F3E00
3FFF00
21E380
01C180
07FF80
3FFF80
70C000
60C000
60E080
3FFF80
1E3F00
ENDCHAR
STARTCHAR U+00E7
ENCODING 231
SWIDTH 480 0
DWIDTH 11 0
BBX 11 15 0 -4
BITMAP
0F80
1FC0
3840
7000
6000
6000
6000
7000
3840
1FC0
0F80
0200
0780
0180
0F00
ENDCHAR
STARTCHAR U+00E8
ENCODING 232
SWIDTH 524 0
DWIDTH 12 0
BBX 12 16 0 0
BITMAP
1C00
0C00
0600
0000
0000
0F80
1FC0
30E0
7060
7FE0
7FE0
6000
7000
3860
1FE0
0F80
ENDCHAR
STARTCHAR U+00E9
ENCODING 233
SWIDTH 524 0
DWIDTH 12 0
BBX 12 16 0 0
BITMAP
0380
0300
0600
0000
0000
0F80
1FC0
30E0
7060
7FE0
7FE0
6000
7000
3860
1FE0
0F80
ENDCHAR
STARTCHAR U+00EA
ENCODING 234
SWIDTH 524 0
DWIDTH 12 0
BBX 12 16 0 0
BITMAP
0700
0F00
1980
0000
0000
0F80
1FC0
30E0
7060
7FE0
7FE0
6000
7000
3860
1FE0
0F80
ENDCHAR
STARTCHAR U+00EB
ENCODING 235
SWIDTH 524 0
DWIDTH 12 0
BBX 12 16 0 0
BITMAP
1100
3B80
1100
0000
0000
0F80
1FC0
30E0
7060
7FE0
7FE0
6000
7000
3860
1FE0
0F80
ENDCHAR
STARTCHAR U+00EC
ENCODING 236
SWIDTH 262 0
DWIDTH 6 0
BBX 7 16 -1 0
BITMAP
E0
60
30
00
00
30
30
30
30
30
30
30
30
30
30
30
ENDCHAR
STARTCHAR U+00ED
ENCODING 237
SWIDTH 262 0
DWIDTH 6 0
BBX 6 16 0 0
BITMAP
00
00
00
00
00
00
00
00
00
00
00
00
00
00
00
00
ENDCHAR
STARTCHAR U+00EE
ENCODING 238
SWIDTH 262 0
DWIDTH 6 0
BBX 8 16 -1 0
BITMAP
38
78
CC
00
00
30
30
30
30
30
30
30
30
30
30
30
ENDCHAR
STARTCHAR U+00EF
ENCODING 239
SWIDTH 262 0
DWIDTH 6 0
BBX 8 16 -1 0
BITMAP
44
EE
44
00
00
18
18
18
18
18
18
18
18
18
18
18
ENDCHAR
STARTCHAR U+00F0
ENCODING 240
SWIDTH 524 0
DWIDTH 12 0
BBX 12 15 0 0
BITMAP
0C80
1F00
0F80
1180
01C0
0EC0
3FE0
30E0
6060
6060
6060
7060
30C0
3FC0
0F00
ENDCHAR
STARTCHAR U+00F1
ENCODING 241
SWIDTH 567 0
DWIDTH 13 0
BBX 13 16 0 0
BITMAP
0E40
1FC0
0180
0000
0000
3780
3FE0
38E0
3060
3070
3070
3070
3070
3070
3070
3070
ENDCHAR
STARTCHAR U+00F2
ENCODING 242
SWIDTH 567 0
DWIDTH 13 0
BBX 13 16 0 0
BITMAP
0E00
0600
0300
0000
0000
0F80
1FE0
3870
7030
6030
6030
6030
7030
3870
1FE0
0F80
ENDCHAR
STARTCHAR U+00F3
ENCODING 243
SWIDTH 567 0
DWIDTH 13 0
BBX 13 16 0 0
BITMAP
0380
0300
0600
0000
0000
0F80
1FE0
3870
7030
6030
6030
6030
7030
3870
1FE0
0F80
ENDCHAR
STARTCHAR U+00F4
ENCODING 244
SWIDTH 567 0
DWIDTH 13 0
BBX 13 16 0 0
BITMAP
0380
0780
0CC0
0000
0000
0F80
1FE0
3870
7030
6030
6030
6030
7030
3870
1FE0
0F80
ENDCHAR
STARTCHAR U+00F5
ENCODING 245
SWIDTH 567 0
DWIDTH 13 0
BBX 13 16 0 0
BITMAP
0E40
1FC0
0180
0000
0000
0F80
1FE0
3870
7030
6030
6030
6030
7030
3870
1FE0
0F80
ENDCHAR
STARTCHAR U+00F6
ENCODING 246
SWIDTH 567 0
DWIDTH 13 0
BBX 13 16 0 0
BITMAP
0880
1DC0
0880
0000
0000
0F80
1FE0
3870
7030
6030
6030
6030
7030
3870
1FE0
0F80
ENDCHAR
STARTCHAR U+00F7
ENCODING 247
SWIDTH 524 0
DWIDTH 12 0
BBX 12 13 0 0
BITMAP
0400
0E00
0400
0000
0000
7FC0
7FC0
0000
0400
0E00
0400
0000
0000
ENDCHAR
STARTCHAR U+00F8
ENCODING 248
SWIDTH 567 0
DWIDTH 13 0
BBX 13 13 0 -1
BITMAP
0020
0FA0
1FE0
38E0
70B0
6130
6330
6630
7C30
3870
1FE0
3F80
2000
ENDCHAR
STARTCHAR U+00F9
ENCODING 249
SWIDTH 567 0
DWIDTH 13 0
BBX 13 16 0 0
BITMAP
0E00
0600
0300
0000
0000
3060
3060
3060
3060
3060
3060
3060
3060
38E0
1FE0
0F60
ENDCHAR
STARTCHAR U+00FA
ENCODING 250
SWIDTH 567 0
DWIDTH 13 0
BBX 13 16 0 0
BITMAP
0380
0300
0600
0000
0000
3060
3060
3060
3060
3060
3060
3060
3060
38E0
1FE0
0F60
ENDCHAR
STARTCHAR U+00FB
ENCODING 251
SWIDTH 567 0
DWIDTH 13 0
BBX 13 16 0 0
BITMAP
0380
0780
0CC0
0000
0000
3060
3060
3060
3060
3060
3060
3060
3060
38E0
1FE0
0F60
ENDCHAR
STARTCHAR U+00FC
ENCODING 252
SWIDTH 567 0
DWIDTH 13 0
BBX 13 16 0 0
BITMAP
0880
1DC0
0880
0000
0000
3060
3060
3060
3060
3060
3060
3060
3060
38E0
1FE0
0F60
ENDCHAR
STARTCHAR U+00FD
ENCODING 253
SWIDTH 524 0
DWIDTH 12 0
BBX 12 20 0 -4
BITMAP
0380
0300
0600
0000
0000
6060
6060
70E0
30C0
30C0
1980
1980
0F80
0F00
0F00
0600
0600
0C00
3C00
3800
ENDCHAR
STARTCHAR U+00FE
ENCODING 254
SWIDTH 567 0
DWIDTH 13 0
BBX 13 19 0 -4
BITMAP
3000
3000
3000
3000
3780
3FE0
38E0
3070
3030
3030
3030
3070
38E0
3FE0
3780
3000
3000
3000
3000
ENDCHAR
STARTCHAR U+00FF
ENCODING 255
SWIDTH 524 0
DWIDTH 12 0
BBX 12 20 0 -4
BITMAP
1100
3B80
1100
0000
0000
6060
6060
70E0
30C0
30C0
1980
1980
0F80
0F00
0F00
0600
0600
0C00
3C00
3800
ENDCHAR
STARTCHAR U+2013
ENCODING 8211
SWIDTH 480 0
DWIDTH 11 0
BBX 13 7 -1 0
BITMAP
FFE0
FFE0
0000
0000
0000
0000
0000
ENDCHAR
STARTCHAR U+2014
ENCODING 8212
SWIDTH 960 0
DWIDTH 22 0
BBX 24 7 -1 0
BITMAP
FFFFFC
FFFFFC
000000
000000
000000
000000
000000
ENDCHAR
STARTCHAR U+2018
ENCODING 8216
SWIDTH 218 0
DWIDTH 5 0
BBX 5 15 0 0
BITMAP
10
20
20
30
20
00
00
00
00
00
00
00
00
00
00
ENDCHAR
STARTCHAR U+2019
ENCODING 8217
SWIDTH 218 0
DWIDTH 5 0
BBX 5 15 0 0
BITMAP
20
70
30
20
00
00
00
00
00
00
00
00
00
00
00
ENDCHAR
STARTCHAR U+201C
ENCODING 8220
SWIDTH 393 0
DWIDTH 9 0
BBX 9 15 0 0
BITMAP
1200
2600
2600
3700
2200
0000
0000
0000
0000
0000
0000
0000
0000
0000
0000
ENDCHAR
STARTCHAR U+201D
ENCODING 8221
SWIDTH 393 0
DWIDTH 9 0
BBX 9 15 0 0
BITMAP
2400
7E00
3600
2400
0000
0000
0000
0000
0000
0000
0000
0000
0000
0000
0000
ENDCHAR
STARTCHAR U+2022
ENCODING 8226
SWIDTH 393 0
DWIDTH 9 0
BBX 9 10 0 0
BITMAP
0800
1C00
3E00
3E00
1C00
0800
0000
0000
0000
0000
ENDCHAR
STARTCHAR U+2026
ENCODING 8230
SWIDTH 873 0
DWIDTH 20 0
BBX 20 3 0 0
BITMAP
204040
70E0E0
204040
ENDCHAR
STARTCHAR U+20AC
ENCODING 8364
SWIDTH 611 0
DWIDTH 14 0
BBX 14 15 0 0
BITMAP
03E0
0FF8
1E18
1800
3800
7FC0
7FC0
3000
7FC0
7F80
3800
1800
1E18
0FF8
03E0
ENDCHAR
ENDFONT
