STARTFONT 2.1
COMMENT Converted from Johnston100 W03 Regular.ttf at 29px with ttf2bdf.py (Pillow, 1-bit, no AA)
FONT -Misc-Johnston100-Medium-R-Normal--29-290-75-75-P-310-ISO10646-1
SIZE 29 75 75
FONTBOUNDINGBOX 31 34 -2 -8
STARTPROPERTIES 9
FOUNDRY "Misc"
FAMILY_NAME "Johnston100"
WEIGHT_NAME "Medium"
SLANT "R"
PIXEL_SIZE 29
RESOLUTION_X 75
RESOLUTION_Y 75
FONT_ASCENT 26
FONT_DESCENT 8
ENDPROPERTIES
CHARS 200
STARTCHAR space
ENCODING 32
SWIDTH 265 0
DWIDTH 8 0
BBX 8 34 0 -8
BITMAP
00
00
00
00
00
00
00
00
00
00
00
00
00
00
00
00
00
00
00
00
00
00
00
00
00
00
00
00
00
00
00
00
00
00
ENDCHAR
STARTCHAR !
ENCODING 33
SWIDTH 265 0
DWIDTH 8 0
BBX 8 20 0 0
BITMAP
1C
1C
1C
1C
1C
1C
1C
1C
1C
18
18
18
18
18
18
00
00
18
1C
08
ENDCHAR
STARTCHAR "
ENCODING 34
SWIDTH 397 0
DWIDTH 12 0
BBX 12 20 0 0
BITMAP
39C0
39C0
39C0
39C0
31C0
30C0
1080
0000
0000
0000
0000
0000
0000
0000
0000
0000
0000
0000
0000
0000
ENDCHAR
STARTCHAR U+0023
ENCODING 35
SWIDTH 728 0
DWIDTH 22 0
BBX 22 20 0 0
BITMAP
003040
0060C0
0061C0
00E1C0
00C180
00C180
1FFFF8
1FFFF8
018300
018700
038600
030600
7FFFE0
7FFFE0
060C00
060C00
061C00
0E1800
0C1800
081000
ENDCHAR
STARTCHAR $
ENCODING 36
SWIDTH 497 0
DWIDTH 15 0
BBX 15 24 0 -2
BITMAP
0300
0300
0FC0
1FE0
3FF0
3860
3800
3800
3C00
1F00
0FC0
07E0
01F0
0078
0038
0038
2038
7038
7878
3FF0
1FE0
0FC0
0300
0300
ENDCHAR
STARTCHAR %
ENCODING 37
SWIDTH 728 0
DWIDTH 22 0
BBX 22 20 0 0
BITMAP
0F0380
3F8300
31C700
70C600
70CE00
31CC00
3F9C00
0F1800
003800
003000
007000
006000
00E3C0
00C7E0
01CE70
018C30
038C30
030E70
0707E0
0603C0
ENDCHAR
STARTCHAR &
ENCODING 38
SWIDTH 662 0
DWIDTH 20 0
BBX 20 20 0 0
BITMAP
03E000
07F000
0FF800
1E3800
1C1C00
1C1800
0E3800
0F7000
07E000
07C000
0FE1C0
1CF180
387B80
303F00
701F00
780E00
3C3F00
3FFF80
1FF3C0
07C1E0
ENDCHAR
STARTCHAR '
ENCODING 39
SWIDTH 232 0
DWIDTH 7 0
BBX 7 20 0 0
BITMAP
38
38
38
38
30
30
10
00
00
00
00
00
00
00
00
00
00
00
00
00
ENDCHAR
STARTCHAR (
ENCODING 40
SWIDTH 265 0
DWIDTH 8 0
BBX 8 24 0 -3
BITMAP
0E
0C
1C
18
18
38
38
38
38
30
30
30
30
30
30
30
38
38
38
18
18
1C
0C
0E
ENDCHAR
STARTCHAR )
ENCODING 41
SWIDTH 265 0
DWIDTH 8 0
BBX 8 24 0 -3
BITMAP
70
70
30
38
38
18
1C
1C
1C
1C
1C
1C
1C
1C
1C
1C
1C
18
18
38
38
30
70
70
ENDCHAR
STARTCHAR *
ENCODING 42
SWIDTH 397 0
DWIDTH 12 0
BBX 12 20 0 0
BITMAP
0600
0600
2640
76E0
1F80
0700
1F80
76E0
2640
0600
0600
0000
0000
0000
0000
0000
0000
0000
0000
0000
ENDCHAR
STARTCHAR +
ENCODING 43
SWIDTH 530 0
DWIDTH 16 0
BBX 16 15 0 0
BITMAP
0180
0180
0180
0180
3FFC
3FFC
0180
0180
0180
0180
0000
0000
0000
0000
0000
ENDCHAR
STARTCHAR ,
ENCODING 44
SWIDTH 232 0
DWIDTH 7 0
BBX 7 8 0 -4
BITMAP
10
38
38
18
18
10
20
00
ENDCHAR
STARTCHAR -
ENCODING 45
SWIDTH 364 0
DWIDTH 11 0
BBX 11 9 0 0
BITMAP
7FC0
7FC0
7FC0
0000
0000
0000
0000
0000
0000
ENDCHAR
STARTCHAR .
ENCODING 46
SWIDTH 232 0
DWIDTH 7 0
BBX 7 4 0 0
BITMAP
10
38
38
10
ENDCHAR
STARTCHAR /
ENCODING 47
SWIDTH 298 0
DWIDTH 9 0
BBX 10 24 0 -3
BITMAP
0180
0380
0380
0300
0700
0700
0700
0600
0E00
0E00
0C00
0C00
1C00
1C00
1800
3800
3800
3000
3000
7000
7000
6000
E000
E000
ENDCHAR
STARTCHAR 0
ENCODING 48
SWIDTH 563 0
DWIDTH 17 0
BBX 17 20 0 0
BITMAP
03E000
07F800
0FF800
0E3C00
1C1C00
1C0E00
1C0E00
380E00
380E00
380E00
380E00
380E00
380E00
1C0E00
1C0E00
1C1C00
0E3C00
0FF800
07F800
03E000
ENDCHAR
STARTCHAR 1
ENCODING 49
SWIDTH 298 0
DWIDTH 9 0
BBX 9 20 0 0
BITMAP
0800
1800
3800
3800
3800
3800
3800
3800
3800
3800
3800
3800
3800
3800
3800
3800
3800
3800
3800
3800
ENDCHAR
STARTCHAR 2
ENCODING 50
SWIDTH 463 0
DWIDTH 14 0
BBX 14 20 0 0
BITMAP
07C0
1FE0
1FF0
3878
3038
2038
0038
0038
0070
0070
00E0
01E0
01C0
0380
0780
0700
0E00
1FF8
1FF8
3FF8
ENDCHAR
STARTCHAR 3
ENCODING 51
SWIDTH 497 0
DWIDTH 15 0
BBX 15 20 0 0
BITMAP
3FF8
3FF8
3FF0
0070
00E0
01C0
01C0
03C0
07F0
0078
0038
001C
001C
001C
001C
203C
7878
3FF0
1FE0
0FC0
ENDCHAR
STARTCHAR 4
ENCODING 52
SWIDTH 563 0
DWIDTH 17 0
BBX 17 20 0 0
BITMAP
000800
001800
001800
003800
007800
00F800
01F800
03B800
07B800
073800
0E3800
1C3800
383800
7FFE00
FFFE00
003800
003800
003800
003800
003800
ENDCHAR
STARTCHAR 5
ENCODING 53
SWIDTH 497 0
DWIDTH 15 0
BBX 15 20 0 0
BITMAP
0FFC
0FF8
0FF8
0E00
0C00
1C00
1C00
1FC0
1FF0
1078
0038
001C
001C
001C
001C
2038
7078
7FF0
1FE0
0FC0
ENDCHAR
STARTCHAR 6
ENCODING 54
SWIDTH 497 0
DWIDTH 15 0
BBX 15 20 0 0
BITMAP
01E0
03C0
0780
0700
0E00
1E00
1C00
3FE0
3FF0
3FF8
7C3C
701C
701C
701C
701C
381C
3C38
1FF8
1FF0
07C0
ENDCHAR
STARTCHAR 7
ENCODING 55
SWIDTH 463 0
DWIDTH 14 0
BBX 14 20 0 0
BITMAP
7FF8
7FF8
7FF0
0070
0070
00E0
00E0
01C0
01C0
0380
0380
0780
0700
0700
0E00
0E00
1C00
1C00
3800
3800
ENDCHAR
STARTCHAR 8
ENCODING 56
SWIDTH 497 0
DWIDTH 15 0
BBX 15 20 0 0
BITMAP
07C0
0FF0
1FF0
1C78
3838
1838
1C38
1E70
0FE0
0FE0
1EF0
3C38
381C
301C
701C
381C
3C3C
3FF8
1FF0
07C0
ENDCHAR
STARTCHAR 9
ENCODING 57
SWIDTH 497 0
DWIDTH 15 0
BBX 15 20 0 0
BITMAP
07C0
0FF0
1FF8
3C38
381C
301C
701C
701C
381C
3C3C
3FFC
1FF8
07B8
0078
0070
00F0
01E0
03C0
0780
0F00
ENDCHAR
STARTCHAR :
ENCODING 58
SWIDTH 265 0
DWIDTH 8 0
BBX 8 15 0 0
BITMAP
08
1C
1C
08
00
00
00
00
00
00
00
08
1C
1C
08
ENDCHAR
STARTCHAR ;
ENCODING 59
SWIDTH 265 0
DWIDTH 8 0
BBX 8 18 0 -4
BITMAP
08
1C
1C
08
00
00
00
00
00
00
08
1C
1C
0C
0C
08
10
00
ENDCHAR
STARTCHAR U+003C
ENCODING 60
SWIDTH 530 0
DWIDTH 16 0
BBX 16 18 0 0
BITMAP
000C
003C
01FC
07F0
1F80
3E00
3C00
1F00
07C0
01F0
00FC
003C
000C
0000
0000
0000
0000
0000
ENDCHAR
STARTCHAR =
ENCODING 61
SWIDTH 530 0
DWIDTH 16 0
BBX 16 14 0 0
BITMAP
3FFC
3FFC
0000
0000
0000
0000
3FFC
3FFC
0000
0000
0000
0000
0000
0000
ENDCHAR
STARTCHAR U+003E
ENCODING 62
SWIDTH 530 0
DWIDTH 16 0
BBX 16 18 0 0
BITMAP
3000
3C00
3F00
0FC0
03F8
007C
007C
01F8
07E0
1F80
3E00
3800
2000
0000
0000
0000
0000
0000
ENDCHAR
STARTCHAR ?
ENCODING 63
SWIDTH 430 0
DWIDTH 13 0
BBX 13 20 0 0
BITMAP
0F80
3FC0
7FE0
70E0
2070
0070
00E0
01E0
03C0
0780
0E00
0C00
0E00
0E00
0400
0000
0600
0F00
0E00
0400
ENDCHAR
STARTCHAR @
ENCODING 64
SWIDTH 927 0
DWIDTH 28 0
BBX 28 25 0 -5
BITMAP
001FE000
00FFF800
01E03E00
03800F00
07000700
0E000380
1C0FF1C0
183FF1C0
387860C0
386060C0
30E060C0
30C060C0
30C060C0
30C0E0C0
30C0E1C0
30C0E180
30E0E380
3871FF00
187F3C00
1C1E0000
0E000000
07002000
03C0E000
01FFE000
003F8000
ENDCHAR
STARTCHAR A
ENCODING 65
SWIDTH 662 0
DWIDTH 20 0
BBX 20 20 0 0
BITMAP
00E000
00E000
01F000
01F000
01B800
03B800
039C00
071C00
071C00
070E00
0E0E00
0E0700
1FFF00
1FFF00
1FFF80
380380
3803C0
3801C0
7001C0
7000E0
ENDCHAR
STARTCHAR B
ENCODING 66
SWIDTH 563 0
DWIDTH 17 0
BBX 17 20 0 0
BITMAP
1FE000
1FF800
1FF800
1C3C00
1C1C00
1C1C00
1C1C00
1C3800
1FF800
1FFC00
1FFE00
1C0F00
1C0700
1C0700
1C0700
1C0700
1C0F00
1FFE00
1FFC00
1FF000
ENDCHAR
STARTCHAR C
ENCODING 67
SWIDTH 662 0
DWIDTH 20 0
BBX 20 20 0 0
BITMAP
007E00
01FF80
07FFC0
0F81C0
1E0040
1C0000
3C0000
380000
380000
380000
380000
380000
380000
3C0000
1C0000
1E0040
0F81C0
07FFC0
01FF80
007E00
ENDCHAR
STARTCHAR D
ENCODING 68
SWIDTH 695 0
DWIDTH 21 0
BBX 21 20 0 0
BITMAP
1FF000
1FFE00
1FFF00
1C0F80
1C03C0
1C01C0
1C00E0
1C00E0
1C00E0
1C00E0
1C00E0
1C00E0
1C00E0
1C00E0
1C01C0
1C03C0
1C0F80
1FFF00
1FFE00
1FF000
ENDCHAR
STARTCHAR E
ENCODING 69
SWIDTH 563 0
DWIDTH 17 0
BBX 17 20 0 0
BITMAP
1FFE00
1FFE00
1FFE00
1C0000
1C0000
1C0000
1C0000
1C0000
1FF800
1FF800
1FF800
1C0000
1C0000
1C0000
1C0000
1C0000
1C0000
1FFF00
1FFF00
1FFF00
ENDCHAR
STARTCHAR F
ENCODING 70
SWIDTH 497 0
DWIDTH 15 0
BBX 15 20 0 0
BITMAP
1FFE
1FFE
1FFE
1C00
1C00
1C00
1C00
1C00
1FF0
1FF0
1FF0
1C00
1C00
1C00
1C00
1C00
1C00
1C00
1C00
1C00
ENDCHAR
STARTCHAR G
ENCODING 71
SWIDTH 695 0
DWIDTH 21 0
BBX 21 20 0 0
BITMAP
007F00
01FFC0
07FFE0
0F81E0
1E0020
1C0000
3C0000
380000
380FE0
380FE0
380FE0
3800E0
3800E0
3C00E0
1C00E0
1E00E0
0F81E0
07FFE0
03FFC0
007F00
ENDCHAR
STARTCHAR H
ENCODING 72
SWIDTH 695 0
DWIDTH 21 0
BBX 21 20 0 0
BITMAP
1C00C0
1C00C0
1C00C0
1C00C0
1C00C0
1C00C0
1C00C0
1C00C0
1FFFC0
1FFFC0
1FFFC0
1C00C0
1C00C0
1C00C0
1C00C0
1C00C0
1C00C0
1C00C0
1C00C0
1C00C0
ENDCHAR
STARTCHAR I
ENCODING 73
SWIDTH 265 0
DWIDTH 8 0
BBX 8 20 0 0
BITMAP
1C
1C
1C
1C
1C
1C
1C
1C
1C
1C
1C
1C
1C
1C
1C
1C
1C
1C
1C
1C
ENDCHAR
STARTCHAR J
ENCODING 74
SWIDTH 463 0
DWIDTH 14 0
BBX 14 20 0 0
BITMAP
00E0
00E0
00E0
00E0
00E0
00E0
00E0
00E0
00E0
00E0
00E0
00E0
00E0
00E0
00E0
20E0
71E0
7FC0
3FC0
1F00
ENDCHAR
STARTCHAR K
ENCODING 75
SWIDTH 596 0
DWIDTH 18 0
BBX 19 20 0 0
BITMAP
1C0780
1C0F00
1C1E00
1C3C00
1C7800
1CF000
1DE000
1FC000
1F8000
1F8000
1FC000
1DE000
1DF000
1CF000
1C7800
1C3C00
1C1E00
1C0F00
1C0780
1C03C0
ENDCHAR
STARTCHAR L
ENCODING 76
SWIDTH 530 0
DWIDTH 16 0
BBX 16 20 0 0
BITMAP
1C00
1C00
1C00
1C00
1C00
1C00
1C00
1C00
1C00
1C00
1C00
1C00
1C00
1C00
1C00
1C00
1C00
1FFE
1FFE
1FFE
ENDCHAR
STARTCHAR M
ENCODING 77
SWIDTH 828 0
DWIDTH 25 0
BBX 25 20 0 0
BITMAP
1C001C00
1E003C00
1F007C00
1F807C00
1F80FC00
1FC1FC00
1DE3DC00
1CF79C00
1C7F1C00
1C3E1C00
1C3E1C00
1C1C1C00
1C081C00
1C001C00
1C001C00
1C001C00
1C001C00
1C001C00
1C001C00
1C001C00
ENDCHAR
STARTCHAR N
ENCODING 78
SWIDTH 761 0
DWIDTH 23 0
BBX 23 20 0 0
BITMAP
1C0070
1E0070
1E0070
1F0070
1F8070
1FC070
1DC070
1CE070
1CF070
1C7870
1C3870
1C1C70
1C1E70
1C0F70
1C0770
1C03F0
1C03F0
1C01F0
1C00F0
1C0070
ENDCHAR
STARTCHAR O
ENCODING 79
SWIDTH 794 0
DWIDTH 24 0
BBX 24 20 0 0
BITMAP
007E00
03FF80
07FFE0
0F81F0
1E0078
1C0038
3C003C
38001C
38001C
38001C
38001C
38001C
38001C
3C003C
1C0038
1E0070
0F81F0
07FFE0
03FF80
007E00
ENDCHAR
STARTCHAR P
ENCODING 80
SWIDTH 563 0
DWIDTH 17 0
BBX 17 20 0 0
BITMAP
1FF000
1FFC00
1FFE00
1C1E00
1C0F00
1C0700
1C0700
1C0F00
1C1E00
1FFE00
1FFC00
1FF000
1C0000
1C0000
1C0000
1C0000
1C0000
1C0000
1C0000
1C0000
ENDCHAR
STARTCHAR Q
ENCODING 81
SWIDTH 794 0
DWIDTH 24 0
BBX 24 20 0 0
BITMAP
007E00
03FF80
07FFE0
0F81F0
1E0078
1C0038
3C003C
38001C
38001C
38001C
38001C
38001C
38001C
3C013C
1C03F8
1E01F0
0F81F0
07FFF8
03FFB8
007E10
ENDCHAR
STARTCHAR R
ENCODING 82
SWIDTH 563 0
DWIDTH 17 0
BBX 18 20 0 0
BITMAP
1FE000
1FF800
1FFC00
1C3C00
1C1C00
1C0E00
1C1C00
1C3C00
1FFC00
1FF800
1FE000
1CE000
1CF000
1C7800
1C3C00
1C1C00
1C1E00
1C0F00
1C0700
1C0780
ENDCHAR
STARTCHAR S
ENCODING 83
SWIDTH 497 0
DWIDTH 15 0
BBX 15 20 0 0
BITMAP
0F80
1FE0
3FF0
3870
3840
3800
3C00
3F00
1FC0
07E0
01F0
0078
0038
0038
2038
7038
7878
3FF0
1FE0
0FC0
ENDCHAR
STARTCHAR T
ENCODING 84
SWIDTH 563 0
DWIDTH 17 0
BBX 17 20 0 0
BITMAP
7FFF00
7FFF00
7FFF00
01C000
01C000
01C000
01C000
01C000
01C000
01C000
01C000
01C000
01C000
01C000
01C000
01C000
01C000
01C000
01C000
01C000
ENDCHAR
STARTCHAR U
ENCODING 85
SWIDTH 728 0
DWIDTH 22 0
BBX 22 20 0 0
BITMAP
180070
180070
180070
180070
180070
180070
180070
180070
180070
180070
180070
1C0070
1C0070
1C00F0
1C00E0
0E01E0
0F83C0
07FF80
03FF00
00FC00
ENDCHAR
STARTCHAR V
ENCODING 86
SWIDTH 629 0
DWIDTH 19 0
BBX 19 20 0 0
BITMAP
7001C0
7003C0
380380
380380
380700
1C0700
1C0700
1C0E00
0E0E00
0E0E00
071C00
071C00
071C00
03B800
03B800
03B000
01F000
01F000
00E000
00E000
ENDCHAR
STARTCHAR W
ENCODING 87
SWIDTH 927 0
DWIDTH 28 0
BBX 28 20 0 0
BITMAP
700700E0
780F00E0
380F80E0
380F81C0
381F81C0
1C1F81C0
1C1DC1C0
1C19C380
0E39C380
0E38E380
0E38E700
0E30E700
0770E700
07707700
07607E00
03E07E00
03E03E00
03E03C00
03C03C00
01C01C00
ENDCHAR
STARTCHAR X
ENCODING 88
SWIDTH 662 0
DWIDTH 20 0
BBX 20 20 0 0
BITMAP
7803C0
380380
1C0780
1E0F00
0F0E00
079C00
03BC00
03F800
01F000
00E000
01F000
03F800
03BC00
079E00
0F0E00
0E0F00
1C0780
3C03C0
7801C0
7001E0
ENDCHAR
STARTCHAR Y
ENCODING 89
SWIDTH 563 0
DWIDTH 17 0
BBX 17 20 0 0
BITMAP
700780
780700
380F00
1C0E00
1E1C00
0E3C00
0F3800
077800
03F000
03E000
01E000
01C000
01C000
01C000
01C000
01C000
01C000
01C000
01C000
01C000
ENDCHAR
STARTCHAR Z
ENCODING 90
SWIDTH 596 0
DWIDTH 18 0
BBX 18 20 0 0
BITMAP
7FFF80
7FFF00
7FFF00
000E00
001C00
003C00
003800
007000
00F000
00E000
01C000
03C000
038000
070000
0F0000
0E0000
1C0000
3FFF80
3FFF80
7FFF80
ENDCHAR
STARTCHAR [
ENCODING 91
SWIDTH 331 0
DWIDTH 10 0
BBX 10 26 0 -3
BITMAP
3F80
3F80
3800
3800
3800
3800
3800
3800
3800
3800
3800
3800
3800
3800
3800
3800
3800
3800
3800
3800
3800
3800
3800
3800
3F80
3F80
ENDCHAR
STARTCHAR \
ENCODING 92
SWIDTH 298 0
DWIDTH 9 0
BBX 10 24 0 -3
BITMAP
E000
E000
6000
7000
7000
3000
3000
3800
3800
1800
1C00
1C00
0C00
0C00
0E00
0E00
0600
0700
0700
0300
0300
0380
0380
0180
ENDCHAR
STARTCHAR ]
ENCODING 93
SWIDTH 331 0
DWIDTH 10 0
BBX 10 26 0 -3
BITMAP
7E00
7E00
0600
0600
0600
0600
0600
0600
0600
0600
0600
0600
0600
0600
0600
0600
0600
0600
0600
0600
0600
0600
0600
0600
7E00
7E00
ENDCHAR
STARTCHAR ^
ENCODING 94
SWIDTH 563 0
DWIDTH 17 0
BBX 17 20 0 0
BITMAP
01C000
03E000
076000
067000
0E3800
1C1C00
381C00
380E00
000000
000000
000000
000000
000000
000000
000000
000000
000000
000000
000000
000000
ENDCHAR
STARTCHAR _
ENCODING 95
SWIDTH 497 0
DWIDTH 15 0
BBX 16 3 -1 -3
BITMAP
0000
0000
FFFE
ENDCHAR
STARTCHAR `
ENCODING 96
SWIDTH 430 0
DWIDTH 13 0
BBX 14 20 0 0
BITMAP
FFF8
FFF8
FFF8
E018
E018
E018
E018
E018
E018
E018
E018
E018
E018
E018
E018
E018
E018
FFF8
FFF8
FFF8
ENDCHAR
STARTCHAR a
ENCODING 97
SWIDTH 497 0
DWIDTH 15 0
BBX 15 14 0 0
BITMAP
07C0
1FE0
1FF0
1878
2038
03F8
0FF8
1E38
3838
3038
7878
3FF8
3FF8
0FB8
ENDCHAR
STARTCHAR b
ENCODING 98
SWIDTH 563 0
DWIDTH 17 0
BBX 17 20 0 0
BITMAP
380000
380000
380000
380000
380000
380000
3BF000
3FF800
3FFC00
3C1E00
380F00
380700
380700
380700
380700
380F00
3C1E00
3FFE00
3FFC00
3BF000
ENDCHAR
STARTCHAR c
ENCODING 99
SWIDTH 497 0
DWIDTH 15 0
BBX 15 14 0 0
BITMAP
03F0
0FF8
1FF8
3E08
3800
3800
7000
7000
3800
3800
3E08
1FF8
0FF8
03F0
ENDCHAR
STARTCHAR d
ENCODING 100
SWIDTH 563 0
DWIDTH 17 0
BBX 17 20 0 0
BITMAP
000E00
000E00
000E00
000E00
000E00
000E00
03EE00
0FFE00
1FFE00
3E1E00
380E00
380E00
700E00
700E00
780E00
380E00
3E1E00
1FFE00
0FFE00
03E600
ENDCHAR
STARTCHAR e
ENCODING 101
SWIDTH 530 0
DWIDTH 16 0
BBX 16 14 0 0
BITMAP
03E0
0FF8
1FF8
3C1C
380C
3FFC
7FFE
7FFE
3000
3800
3C0C
1FFC
0FFC
03F8
ENDCHAR
STARTCHAR f
ENCODING 102
SWIDTH 364 0
DWIDTH 11 0
BBX 11 20 0 0
BITMAP
03E0
0FE0
1FE0
1C00
1C00
1C00
7FE0
7FE0
7FE0
1C00
1C00
1C00
1C00
1C00
1C00
1C00
1C00
1C00
1C00
1C00
ENDCHAR
STARTCHAR g
ENCODING 103
SWIDTH 497 0
DWIDTH 15 0
BBX 15 19 0 -5
BITMAP
0FFC
1FFC
3FFC
3870
7038
7038
3878
3FF0
1FE0
1FC0
3800
1F80
1FF0
39F8
601C
701C
7FFC
7FF8
1FE0
ENDCHAR
STARTCHAR h
ENCODING 104
SWIDTH 563 0
DWIDTH 17 0
BBX 17 20 0 0
BITMAP
380000
380000
380000
380000
380000
380000
3BF000
3FFC00
3FFC00
3C1E00
380E00
380E00
380600
380600
380600
380600
380600
380600
380600
380600
ENDCHAR
STARTCHAR i
ENCODING 105
SWIDTH 232 0
DWIDTH 7 0
BBX 7 19 0 0
BITMAP
10
38
38
10
00
38
38
38
38
38
38
38
38
38
38
38
38
38
38
ENDCHAR
STARTCHAR j
ENCODING 106
SWIDTH 232 0
DWIDTH 7 0
BBX 8 25 -1 -5
BITMAP
08
1C
1C
08
00
00
1C
1C
1C
1C
1C
1C
1C
1C
1C
1C
1C
1C
1C
1C
1C
1C
FC
F8
F0
ENDCHAR
STARTCHAR k
ENCODING 107
SWIDTH 497 0
DWIDTH 15 0
BBX 16 20 0 0
BITMAP
3800
3800
3800
3800
3800
3800
383C
3878
38F0
39E0
3BC0
3F80
3F00
3F80
3BC0
39E0
38F0
3878
383C
381E
ENDCHAR
STARTCHAR l
ENCODING 108
SWIDTH 298 0
DWIDTH 9 0
BBX 9 20 0 0
BITMAP
3800
3800
3800
3800
3800
3800
3800
3800
3800
3800
3800
3800
3800
3800
3800
3800
3800
3F80
1F80
0F80
ENDCHAR
STARTCHAR m
ENCODING 109
SWIDTH 894 0
DWIDTH 27 0
BBX 27 14 0 0
BITMAP
3BF0FC00
3FFBFE00
3FFFFF00
3C1F0700
380E0780
380E0380
380E0380
380E0380
380E0380
380E0380
380E0380
380E0380
380E0380
380E0380
ENDCHAR
STARTCHAR n
ENCODING 110
SWIDTH 563 0
DWIDTH 17 0
BBX 17 14 0 0
BITMAP
3BF000
3FFC00
3FFC00
3C1E00
380E00
380E00
380600
380600
380600
380600
380600
380600
380600
380600
ENDCHAR
STARTCHAR o
ENCODING 111
SWIDTH 596 0
DWIDTH 18 0
BBX 18 14 0 0
BITMAP
03F000
0FFC00
1FFE00
3E1E00
380F00
380700
700700
700700
380700
380F00
3E1E00
1FFE00
0FFC00
03F000
ENDCHAR
STARTCHAR p
ENCODING 112
SWIDTH 563 0
DWIDTH 17 0
BBX 17 19 0 -5
BITMAP
3BF000
3FFC00
3FFE00
3C1E00
380F00
380700
380700
380700
380700
380F00
3C1E00
3FFC00
3FF800
3BF000
380000
380000
380000
380000
380000
ENDCHAR
STARTCHAR q
ENCODING 113
SWIDTH 563 0
DWIDTH 17 0
BBX 17 19 0 -5
BITMAP
03E600
0FFE00
1FFE00
3E1E00
380E00
380E00
700E00
700E00
380E00
380E00
3E1E00
1FFE00
0FFE00
03EE00
000E00
000E00
000E00
000E00
000E00
ENDCHAR
STARTCHAR r
ENCODING 114
SWIDTH 397 0
DWIDTH 12 0
BBX 12 14 0 0
BITMAP
3BE0
3FE0
3FE0
3C00
3800
3800
3800
3800
3800
3800
3800
3800
3800
3800
ENDCHAR
STARTCHAR s
ENCODING 115
SWIDTH 463 0
DWIDTH 14 0
BBX 14 14 0 0
BITMAP
0FC0
1FE0
3FE0
3820
3000
3C00
3FC0
0FF0
00F0
2038
3078
3FF0
3FF0
0FC0
ENDCHAR
STARTCHAR t
ENCODING 116
SWIDTH 397 0
DWIDTH 12 0
BBX 12 17 0 0
BITMAP
1C00
1C00
1C00
7FE0
7FE0
7FE0
1C00
1C00
1C00
1C00
1C00
1C00
1C00
1C00
1FE0
0FE0
07E0
ENDCHAR
STARTCHAR u
ENCODING 117
SWIDTH 563 0
DWIDTH 17 0
BBX 17 14 0 0
BITMAP
380E00
380E00
380E00
380E00
380E00
380E00
380E00
380E00
380E00
3C0E00
1E1E00
1FFE00
0FFE00
07EE00
ENDCHAR
STARTCHAR v
ENCODING 118
SWIDTH 530 0
DWIDTH 16 0
BBX 16 14 0 0
BITMAP
700E
700E
381C
381C
3838
1C38
1C30
0E70
0E70
06E0
07E0
07C0
03C0
0380
ENDCHAR
STARTCHAR w
ENCODING 119
SWIDTH 828 0
DWIDTH 25 0
BBX 25 14 0 0
BITMAP
701C0700
701C0700
383E0E00
383E0E00
38360E00
1C771C00
1C631C00
1CE39C00
0EE3B800
0EC1B800
0FC1F800
0781F000
0780F000
0780F000
ENDCHAR
STARTCHAR x
ENCODING 120
SWIDTH 497 0
DWIDTH 15 0
BBX 15 14 0 0
BITMAP
7838
3838
1C70
0EE0
0FC0
07C0
0380
07C0
0FE0
0EE0
1C70
3838
703C
701C
ENDCHAR
STARTCHAR y
ENCODING 121
SWIDTH 530 0
DWIDTH 16 0
BBX 16 19 0 -5
BITMAP
700E
700E
381C
381C
1838
1C38
1C30
0E70
0E70
07E0
07E0
03C0
03C0
01C0
0380
0780
1F00
1E00
1C00
ENDCHAR
STARTCHAR z
ENCODING 122
SWIDTH 463 0
DWIDTH 14 0
BBX 14 14 0 0
BITMAP
3FF8
3FF0
3FE0
00E0
01C0
0380
0380
0700
0E00
0E00
1C00
3FF8
3FF8
7FF8
ENDCHAR
STARTCHAR {
ENCODING 123
SWIDTH 331 0
DWIDTH 10 0
BBX 10 26 0 -3
BITMAP
0380
0780
0E00
0E00
0E00
0E00
0E00
0E00
0E00
0C00
1C00
3C00
7800
7800
3C00
1C00
0C00
0E00
0E00
0E00
0E00
0E00
0E00
0E00
0780
0380
ENDCHAR
STARTCHAR |
ENCODING 124
SWIDTH 232 0
DWIDTH 7 0
BBX 7 29 0 -7
BITMAP
38
38
38
38
38
38
38
38
38
38
38
38
38
38
38
38
38
38
38
38
38
38
38
38
38
38
38
38
38
ENDCHAR
STARTCHAR }
ENCODING 125
SWIDTH 331 0
DWIDTH 10 0
BBX 10 26 0 -3
BITMAP
7800
7C00
1C00
0C00
0C00
0C00
0C00
0C00
0C00
0E00
0E00
0700
0380
0380
0700
0E00
0E00
0C00
0C00
0C00
0C00
0C00
0C00
1C00
7C00
7800
ENDCHAR
STARTCHAR ~
ENCODING 126
SWIDTH 530 0
DWIDTH 16 0
BBX 16 12 0 0
BITMAP
0E0C
1F0C
3F9C
33F8
30F8
3070
0000
0000
0000
0000
0000
0000
ENDCHAR
STARTCHAR U+00A0
ENCODING 160
SWIDTH 265 0
DWIDTH 8 0
BBX 8 34 0 -8
BITMAP
00
00
00
00
00
00
00
00
00
00
00
00
00
00
00
00
00
00
00
00
00
00
00
00
00
00
00
00
00
00
00
00
00
00
ENDCHAR
STARTCHAR U+00A1
ENCODING 161
SWIDTH 265 0
DWIDTH 8 0
BBX 8 20 0 -5
BITMAP
18
3C
18
00
18
18
18
18
18
18
1C
1C
1C
1C
1C
1C
1C
1C
1C
00
ENDCHAR
STARTCHAR U+00A2
ENCODING 162
SWIDTH 497 0
DWIDTH 15 0
BBX 15 18 0 -2
BITMAP
01C0
01C0
03F0
0FF8
1FF8
3E08
3800
3800
7000
7000
3800
3800
3E08
1FF8
0FF8
03F0
01C0
01C0
ENDCHAR
STARTCHAR U+00A3
ENCODING 163
SWIDTH 530 0
DWIDTH 16 0
BBX 16 20 0 0
BITMAP
01F0
03F8
07FC
071C
0F08
0E00
0E00
0E00
0E00
3FE0
3FE0
3FE0
0E00
0C00
1C00
1C00
1C00
3FFC
3FFC
7FF8
ENDCHAR
STARTCHAR U+00A4
ENCODING 164
SWIDTH 596 0
DWIDTH 18 0
BBX 18 15 0 0
BITMAP
100400
380700
3FEF00
1FFE00
1FFC00
1E1C00
1C1E00
1C0E00
1C0E00
1C0E00
1E1C00
1FFC00
3FFF00
3FEF00
100400
ENDCHAR
STARTCHAR U+00A5
ENCODING 165
SWIDTH 596 0
DWIDTH 18 0
BBX 18 20 0 0
BITMAP
700380
380700
3C0F00
1E0E00
0E1E00
0F3C00
07B800
3FFF00
3FFF00
01E000
00E000
00E000
3FFF00
3FFF00
00E000
00E000
00E000
00E000
00E000
00E000
ENDCHAR
STARTCHAR U+00A6
ENCODING 166
SWIDTH 232 0
DWIDTH 7 0
BBX 7 29 0 -7
BITMAP
38
38
38
38
38
38
38
38
38
38
38
00
00
00
00
00
00
00
38
38
38
38
38
38
38
38
38
38
38
ENDCHAR
STARTCHAR U+00A7
ENCODING 167
SWIDTH 463 0
DWIDTH 14 0
BBX 14 25 0 -5
BITMAP
0FC0
1FE0
3870
7020
7000
7800
3C00
1F00
1FE0
3FF0
70F8
7038
7038
7038
7E78
3FF0
0FE0
03F0
0078
0038
0038
3038
7870
3FE0
0FC0
ENDCHAR
STARTCHAR U+00A8
ENCODING 168
SWIDTH 430 0
DWIDTH 13 0
BBX 14 20 0 0
BITMAP
FFF8
FFF8
FFF8
E018
E018
E018
E018
E018
E018
E018
E018
E018
E018
E018
E018
E018
E018
FFF8
FFF8
FFF8
ENDCHAR
STARTCHAR U+00A9
ENCODING 169
SWIDTH 761 0
DWIDTH 23 0
BBX 23 20 0 0
BITMAP
007E00
038380
0600C0
0C0020
187E30
10FF18
31C108
238008
23000C
23000C
23000C
23000C
238008
31C108
10FF18
187E30
0C0020
0600C0
038380
00FE00
ENDCHAR
STARTCHAR U+00AA
ENCODING 170
SWIDTH 298 0
DWIDTH 9 0
BBX 9 20 0 0
BITMAP
7E00
7E00
0700
0300
1F00
7300
6300
6300
7F00
3F00
0000
0000
0000
0000
0000
0000
0000
0000
0000
0000
ENDCHAR
STARTCHAR U+00AB
ENCODING 171
SWIDTH 530 0
DWIDTH 16 0
BBX 16 14 0 0
BITMAP
038E
071C
0E38
1C70
1860
38E0
30C0
38E0
1C70
0E38
071C
038E
0000
0000
ENDCHAR
STARTCHAR U+00AC
ENCODING 172
SWIDTH 530 0
DWIDTH 16 0
BBX 16 14 0 0
BITMAP
3FFC
3FFC
001C
001C
001C
001C
001C
001C
0000
0000
0000
0000
0000
0000
ENDCHAR
STARTCHAR U+00AD
ENCODING 173
SWIDTH 364 0
DWIDTH 11 0
BBX 11 9 0 0
BITMAP
7FC0
7FC0
7FC0
0000
0000
0000
0000
0000
0000
ENDCHAR
STARTCHAR U+00AE
ENCODING 174
SWIDTH 761 0
DWIDTH 23 0
BBX 23 20 0 0
BITMAP
00FE00
038380
0600C0
0C0020
18FC30
10FE18
30C608
20C708
20C70C
20C60C
20FE0C
20FC0C
20CC08
30CE08
10C718
18C3B0
0C0020
0600C0
038380
00FE00
ENDCHAR
STARTCHAR U+00AF
ENCODING 175
SWIDTH 430 0
DWIDTH 13 0
BBX 14 20 0 0
BITMAP
FFF8
FFF8
FFF8
E018
E018
E018
E018
E018
E018
E018
E018
E018
E018
E018
E018
E018
E018
FFF8
FFF8
FFF8
ENDCHAR
STARTCHAR U+00B0
ENCODING 176
SWIDTH 364 0
DWIDTH 11 0
BBX 11 20 0 0
BITMAP
0F00
1F80
3180
31C0
70C0
30C0
3980
3F80
0F00
0000
0000
0000
0000
0000
0000
0000
0000
0000
0000
0000
ENDCHAR
STARTCHAR U+00B1
ENCODING 177
SWIDTH 530 0
DWIDTH 16 0
BBX 16 16 0 0
BITMAP
0180
0180
0180
0180
3FFC
3FFC
0180
0180
0180
0180
0000
0000
0000
3FFC
3FFC
0000
ENDCHAR
STARTCHAR U+00B2
ENCODING 178
SWIDTH 331 0
DWIDTH 10 0
BBX 10 20 0 0
BITMAP
3E00
7F00
6300
4300
0300
0700
0700
0E00
0E00
1C00
1800
3F80
7F80
0000
0000
0000
0000
0000
0000
0000
ENDCHAR
STARTCHAR U+00B3
ENCODING 179
SWIDTH 331 0
DWIDTH 10 0
BBX 10 20 0 0
BITMAP
7F00
7F00
0600
0E00
0C00
0F00
1300
0380
0180
0380
2300
7F00
3E00
0000
0000
0000
0000
0000
0000
0000
ENDCHAR
STARTCHAR U+00B4
ENCODING 180
SWIDTH 430 0
DWIDTH 13 0
BBX 14 20 0 0
BITMAP
FFF8
FFF8
FFF8
E018
E018
E018
E018
E018
E018
E018
E018
E018
E018
E018
E018
E018
E018
FFF8
FFF8
FFF8
ENDCHAR
STARTCHAR U+00B5
ENCODING 181
SWIDTH 563 0
DWIDTH 17 0
BBX 17 19 0 -5
BITMAP
380E00
380E00
380E00
380E00
380E00
380E00
380E00
380E00
380E00
3C0E00
3E1E00
3FFE00
3FFE00
3BEE00
380000
380000
380000
380000
380000
ENDCHAR
STARTCHAR U+00B6
ENCODING 182
SWIDTH 530 0
DWIDTH 16 0
BBX 16 25 0 -5
BITMAP
07FE
1FFE
3F9C
3F9C
7F9C
7F9C
7F9C
3F9C
3F9C
1F9C
0F9C
019C
019C
019C
019C
019C
019C
019C
019C
019C
019C
019C
019C
019C
019C
ENDCHAR
STARTCHAR U+00B7
ENCODING 183
SWIDTH 232 0
DWIDTH 7 0
BBX 7 12 0 0
BITMAP
10
38
38
10
00
00
00
00
00
00
00
00
ENDCHAR
STARTCHAR U+00B8
ENCODING 184
SWIDTH 430 0
DWIDTH 13 0
BBX 14 20 0 0
BITMAP
FFF8
FFF8
FFF8
E018
E018
E018
E018
E018
E018
E018
E018
E018
E018
E018
E018
E018
E018
FFF8
FFF8
FFF8
ENDCHAR
STARTCHAR U+00B9
ENCODING 185
SWIDTH 232 0
DWIDTH 7 0
BBX 7 20 0 0
BITMAP
08
18
38
38
38
38
38
38
38
38
38
38
38
00
00
00
00
00
00
00
ENDCHAR
STARTCHAR U+00BA
ENCODING 186
SWIDTH 364 0
DWIDTH 11 0
BBX 11 20 0 0
BITMAP
1F00
3F80
71C0
60C0
60C0
60C0
71C0
3F80
1F00
0000
0000
0000
0000
0000
0000
0000
0000
0000
0000
0000
ENDCHAR
STARTCHAR U+00BB
ENCODING 187
SWIDTH 530 0
DWIDTH 16 0
BBX 16 14 0 0
BITMAP
38E0
3860
1C70
0E38
071C
038E
038E
071C
0E38
1C70
1870
38E0
0000
0000
ENDCHAR
STARTCHAR U+00BC
ENCODING 188
SWIDTH 761 0
DWIDTH 23 0
BBX 23 21 0 -1
BITMAP
080380
180300
380700
380600
380E00
380C00
381C00
381800
383808
383018
387018
386038
38E078
00C0F8
01C1D8
018398
038318
0307FC
070FFC
060038
000038
ENDCHAR
STARTCHAR U+00BD
ENCODING 189
SWIDTH 794 0
DWIDTH 24 0
BBX 24 21 0 -1
BITMAP
080380
180300
380700
380600
380E00
380C00
381C00
381800
38387C
3830FE
3870C6
386086
38E006
00C00E
01C00E
01801C
03801C
030038
070030
06007F
0000FF
ENDCHAR
STARTCHAR U+00BE
ENCODING 190
SWIDTH 828 0
DWIDTH 25 0
BBX 25 21 0 -1
BITMAP
7F00E000
7F00C000
0601C000
0E018000
0C038000
0F030000
13070000
03860000
018E0100
038C0300
231C0300
7F180700
3E380F00
00301F00
00703B00
00607300
00E06300
00C0FF80
01C1FF80
01800700
00000700
ENDCHAR
STARTCHAR U+00BF
ENCODING 191
SWIDTH 430 0
DWIDTH 13 0
BBX 13 19 0 -5
BITMAP
0100
0380
0380
0100
0000
0100
0380
03C0
01C0
0780
0F00
1E00
3800
3800
3800
3820
3FF0
1FF0
0FC0
ENDCHAR
STARTCHAR U+00C0
ENCODING 192
SWIDTH 662 0
DWIDTH 20 0
BBX 20 25 0 0
BITMAP
03C000
01C000
00E000
007000
000000
00E000
00E000
01F000
01F000
01B800
03B800
039C00
071C00
071C00
070E00
0E0E00
0E0700
1FFF00
1FFF00
1FFF80
380380
3803C0
3801C0
7001C0
7000E0
ENDCHAR
STARTCHAR U+00C1
ENCODING 193
SWIDTH 662 0
DWIDTH 20 0
BBX 20 25 0 0
BITMAP
003C00
003800
007000
00E000
000000
00E000
00E000
01F000
01F000
01B800
03B800
039C00
071C00
071C00
070E00
0E0E00
0E0700
1FFF00
1FFF00
1FFF80
380380
3803C0
3801C0
7001C0
7000E0
ENDCHAR
STARTCHAR U+00C2
ENCODING 194
SWIDTH 662 0
DWIDTH 20 0
BBX 20 25 0 0
BITMAP
00F000
01F000
019800
030C00
000000
00E000
00E000
01F000
01F000
01B800
03B800
039C00
071C00
071C00
070E00
0E0E00
0E0700
1FFF00
1FFF00
1FFF80
380380
3803C0
3801C0
7001C0
7000E0
ENDCHAR
STARTCHAR U+00C3
ENCODING 195
SWIDTH 662 0
DWIDTH 20 0
BBX 20 25 0 0
BITMAP
038000
07EC00
06FC00
003800
000000
00E000
00E000
01F000
01F000
01B800
03B800
039C00
071C00
071C00
070E00
0E0E00
0E0700
1FFF00
1FFF00
1FFF80
380380
3803C0
3801C0
7001C0
7000E0
ENDCHAR
STARTCHAR U+00C4
ENCODING 196
SWIDTH 662 0
DWIDTH 20 0
BBX 20 25 0 0
BITMAP
020800
071C00
071C00
020800
000000
00E000
00E000
01F000
01F000
01B800
03B800
039C00
071C00
071C00
070E00
0E0E00
0E0700
1FFF00
1FFF00
1FFF80
380380
3803C0
3801C0
7001C0
7000E0
ENDCHAR
STARTCHAR U+00C5
ENCODING 197
SWIDTH 662 0
DWIDTH 20 0
BBX 20 26 0 0
BITMAP
00E000
01B000
011000
01B000
00E000
000000
00E000
00E000
01F000
01F000
01B800
03B800
039C00
071C00
071C00
070E00
0E0E00
0E0700
1FFF00
1FFF00
1FFF80
380380
3803C0
3801C0
7001C0
7000E0
ENDCHAR
STARTCHAR U+00C6
ENCODING 198
SWIDTH 894 0
DWIDTH 27 0
BBX 27 20 0 0
BITMAP
001FFF80
001FFF80
003FFF80
003F0000
00770000
00F70000
00E70000
01C70000
01C7FE00
0387FE00
0387FE00
07FF0000
07FF0000
0FFF0000
1E070000
1C070000
3C070000
3807FFC0
7807FFC0
7007FFC0
ENDCHAR
STARTCHAR U+00C7
ENCODING 199
SWIDTH 662 0
DWIDTH 20 0
BBX 20 26 0 -6
BITMAP
007E00
01FF80
07FFC0
0F81C0
1E0040
1C0000
3C0000
380000
380000
380000
380000
380000
380000
3C0000
1C0000
1E0040
0F81C0
07FFC0
01FF80
007E00
003000
007800
000C00
000C00
00FC00
00F000
ENDCHAR
STARTCHAR U+00C8
ENCODING 200
SWIDTH 563 0
DWIDTH 17 0
BBX 17 25 0 0
BITMAP
078000
038000
01C000
00E000
000000
1FFE00
1FFE00
1FFE00
1C0000
1C0000
1C0000
1C0000
1C0000
1FF800
1FF800
1FF800
1C0000
1C0000
1C0000
1C0000
1C0000
1C0000
1FFF00
1FFF00
1FFF00
ENDCHAR
STARTCHAR U+00C9
ENCODING 201
SWIDTH 563 0
DWIDTH 17 0
BBX 17 25 0 0
BITMAP
007800
007000
00E000
01C000
000000
1FFE00
1FFE00
1FFE00
1C0000
1C0000
1C0000
1C0000
1C0000
1FF800
1FF800
1FF800
1C0000
1C0000
1C0000
1C0000
1C0000
1C0000
1FFF00
1FFF00
1FFF00
ENDCHAR
STARTCHAR U+00CA
ENCODING 202
SWIDTH 563 0
DWIDTH 17 0
BBX 17 25 0 0
BITMAP
01E000
03E000
033000
061800
000000
1FFE00
1FFE00
1FFE00
1C0000
1C0000
1C0000
1C0000
1C0000
1FF800
1FF800
1FF800
1C0000
1C0000
1C0000
1C0000
1C0000
1C0000
1FFF00
1FFF00
1FFF00
ENDCHAR
STARTCHAR U+00CB
ENCODING 203
SWIDTH 563 0
DWIDTH 17 0
BBX 17 25 0 0
BITMAP
041000
0E3800
0E3800
041000
000000
1FFE00
1FFE00
1FFE00
1C0000
1C0000
1C0000
1C0000
1C0000
1FF800
1FF800
1FF800
1C0000
1C0000
1C0000
1C0000
1C0000
1C0000
1FFF00
1FFF00
1FFF00
ENDCHAR
STARTCHAR U+00CC
ENCODING 204
SWIDTH 265 0
DWIDTH 8 0
BBX 8 25 0 0
BITMAP
00
00
00
00
00
00
00
00
00
00
00
00
00
00
00
00
00
00
00
00
00
00
00
00
00
ENDCHAR
STARTCHAR U+00CD
ENCODING 205
SWIDTH 265 0
DWIDTH 8 0
BBX 9 25 0 0
BITMAP
0F00
0E00
1C00
3800
0000
1C00
1C00
1C00
1C00
1C00
1C00
1C00
1C00
1C00
1C00
1C00
1C00
1C00
1C00
1C00
1C00
1C00
1C00
1C00
1C00
ENDCHAR
STARTCHAR U+00CE
ENCODING 206
SWIDTH 265 0
DWIDTH 8 0
BBX 9 25 0 0
BITMAP
0000
0000
0000
0000
0000
0000
0000
0000
0000
0000
0000
0000
0000
0000
0000
0000
0000
0000
0000
0000
0000
0000
0000
0000
0000
ENDCHAR
STARTCHAR U+00CF
ENCODING 207
SWIDTH 265 0
DWIDTH 8 0
BBX 11 25 -1 0
BITMAP
2080
71C0
71C0
2080
0000
0E00
0E00
0E00
0E00
0E00
0E00
0E00
0E00
0E00
0E00
0E00
0E00
0E00
0E00
0E00
0E00
0E00
0E00
0E00
0E00
ENDCHAR
STARTCHAR U+00D0
ENCODING 208
SWIDTH 695 0
DWIDTH 21 0
BBX 21 20 0 0
BITMAP
1FF000
1FFE00
1FFF00
1C0F80
1C03C0
1C01C0
1C00E0
1C00E0
1C00E0
7FE0E0
7FE0E0
1C00E0
1C00E0
1C00E0
1C01C0
1C03C0
1C0F80
1FFF00
1FFE00
1FF000
ENDCHAR
STARTCHAR U+00D1
ENCODING 209
SWIDTH 761 0
DWIDTH 23 0
BBX 23 25 0 0
BITMAP
01C000
03F600
037E00
001C00
000000
1C0070
1E0070
1E0070
1F0070
1F8070
1FC070
1DC070
1CE070
1CF070
1C7870
1C3870
1C1C70
1C1E70
1C0F70
1C0770
1C03F0
1C03F0
1C01F0
1C00F0
1C0070
ENDCHAR
STARTCHAR U+00D2
ENCODING 210
SWIDTH 794 0
DWIDTH 24 0
BBX 24 25 0 0
BITMAP
00F000
007000
003800
001C00
000000
007E00
03FF80
07FFE0
0F81F0
1E0078
1C0038
3C003C
38001C
38001C
38001C
38001C
38001C
38001C
3C003C
1C0038
1E0070
0F81F0
07FFE0
03FF80
007E00
ENDCHAR
STARTCHAR U+00D3
ENCODING 211
SWIDTH 794 0
DWIDTH 24 0
BBX 24 25 0 0
BITMAP
000F00
000E00
001C00
003800
000000
007E00
03FF80
07FFE0
0F81F0
1E0078
1C0038
3C003C
38001C
38001C
38001C
38001C
38001C
38001C
3C003C
1C0038
1E0070
0F81F0
07FFE0
03FF80
007E00
ENDCHAR
STARTCHAR U+00D4
ENCODING 212
SWIDTH 794 0
DWIDTH 24 0
BBX 24 25 0 0
BITMAP
003C00
007C00
006600
00C300
000000
007E00
03FF80
07FFE0
0F81F0
1E0078
1C0038
3C003C
38001C
38001C
38001C
38001C
38001C
38001C
3C003C
1C0038
1E0070
0F81F0
07FFE0
03FF80
007E00
ENDCHAR
STARTCHAR U+00D5
ENCODING 213
SWIDTH 794 0
DWIDTH 24 0
BBX 24 25 0 0
BITMAP
00E000
01FB00
01BF00
000E00
000000
007E00
03FF80
07FFE0
0F81F0
1E0078
1C0038
3C003C
38001C
38001C
38001C
38001C
38001C
38001C
3C003C
1C0038
1E0070
0F81F0
07FFE0
03FF80
007E00
ENDCHAR
STARTCHAR U+00D6
ENCODING 214
SWIDTH 794 0
DWIDTH 24 0
BBX 24 25 0 0
BITMAP
004100
00E380
00E380
004100
000000
007E00
03FF80
07FFE0
0F81F0
1E0078
1C0038
3C003C
38001C
38001C
38001C
38001C
38001C
38001C
3C003C
1C0038
1E0070
0F81F0
07FFE0
03FF80
007E00
ENDCHAR
STARTCHAR U+00D7
ENCODING 215
SWIDTH 530 0
DWIDTH 16 0
BBX 16 15 0 0
BITMAP
0810
1C38
1E70
0FF0
07E0
03C0
07E0
0EE0
1C70
1C38
0810
0000
0000
0000
0000
ENDCHAR
STARTCHAR U+00D8
ENCODING 216
SWIDTH 794 0
DWIDTH 24 0
BBX 24 20 0 0
BITMAP
007E08
03FF98
07FFF8
0F81F0
1E00F0
1C01F8
3C03BC
38071C
380E1C
381C1C
38381C
38701C
38E01C
3DC03C
1F8038
1F0070
0F81F0
1FFFE0
3BFF80
107E00
ENDCHAR
STARTCHAR U+00D9
ENCODING 217
SWIDTH 728 0
DWIDTH 22 0
BBX 22 25 0 0
BITMAP
01E000
00E000
007000
003800
000000
180070
180070
180070
180070
180070
180070
180070
180070
180070
180070
180070
1C0070
1C0070
1C00F0
1C00E0
0E01E0
0F83C0
07FF80
03FF00
00FC00
ENDCHAR
STARTCHAR U+00DA
ENCODING 218
SWIDTH 728 0
DWIDTH 22 0
BBX 22 25 0 0
BITMAP
001E00
001C00
003800
007000
000000
180070
180070
180070
180070
180070
180070
180070
180070
180070
180070
180070
1C0070
1C0070
1C00F0
1C00E0
0E01E0
0F83C0
07FF80
03FF00
00FC00
ENDCHAR
STARTCHAR U+00DB
ENCODING 219
SWIDTH 728 0
DWIDTH 22 0
BBX 22 25 0 0
BITMAP
007800
00F800
00CC00
018600
000000
180070
180070
180070
180070
180070
180070
180070
180070
180070
180070
180070
1C0070
1C0070
1C00F0
1C00E0
0E01E0
0F83C0
07FF80
03FF00
00FC00
ENDCHAR
STARTCHAR U+00DC
ENCODING 220
SWIDTH 728 0
DWIDTH 22 0
BBX 22 25 0 0
BITMAP
008200
01C700
01C700
008200
000000
180070
180070
180070
180070
180070
180070
180070
180070
180070
180070
180070
1C0070
1C0070
1C00F0
1C00E0
0E01E0
0F83C0
07FF80
03FF00
00FC00
ENDCHAR
STARTCHAR U+00DD
ENCODING 221
SWIDTH 563 0
DWIDTH 17 0
BBX 17 25 0 0
BITMAP
007800
007000
00E000
01C000
000000
700780
780700
380F00
1C0E00
1E1C00
0E3C00
0F3800
077800
03F000
03E000
01E000
01C000
01C000
01C000
01C000
01C000
01C000
01C000
01C000
01C000
ENDCHAR
STARTCHAR U+00DE
ENCODING 222
SWIDTH 563 0
DWIDTH 17 0
BBX 17 20 0 0
BITMAP
1C0000
1C0000
1C0000
1C0000
1FF000
1FFC00
1FFE00
1C1E00
1C0F00
1C0700
1C0700
1C0F00
1C1E00
1FFE00
1FFC00
1FF000
1C0000
1C0000
1C0000
1C0000
ENDCHAR
STARTCHAR U+00DF
ENCODING 223
SWIDTH 530 0
DWIDTH 16 0
BBX 16 20 0 0
BITMAP
03E0
0FF0
1FF8
1C3C
1C1C
381C
381C
3838
39F0
39E0
39F8
383C
380E
380E
380E
380E
381C
39FC
39F8
39F0
ENDCHAR
STARTCHAR U+00E0
ENCODING 224
SWIDTH 497 0
DWIDTH 15 0
BBX 15 20 0 0
BITMAP
1E00
0E00
0700
0380
0000
0000
07C0
1FE0
1FF0
1878
2038
03F8
0FF8
1E38
3838
3038
7878
3FF8
3FF8
0FB8
ENDCHAR
STARTCHAR U+00E1
ENCODING 225
SWIDTH 497 0
DWIDTH 15 0
BBX 15 20 0 0
BITMAP
01E0
01C0
0380
0700
0000
0000
07C0
1FE0
1FF0
1878
2038
03F8
0FF8
1E38
3838
3038
7878
3FF8
3FF8
0FB8
ENDCHAR
STARTCHAR U+00E2
ENCODING 226
SWIDTH 497 0
DWIDTH 15 0
BBX 15 20 0 0
BITMAP
0780
0F80
0CC0
1860
0000
0000
07C0
1FE0
1FF0
1878
2038
03F8
0FF8
1E38
3838
3038
7878
3FF8
3FF8
0FB8
ENDCHAR
STARTCHAR U+00E3
ENCODING 227
SWIDTH 497 0
DWIDTH 15 0
BBX 15 20 0 0
BITMAP
0E00
1FB0
1BF0
00E0
0000
0000
07C0
1FE0
1FF0
1878
2038
03F8
0FF8
1E38
3838
3038
7878
3FF8
3FF8
0FB8
ENDCHAR
STARTCHAR U+00E4
ENCODING 228
SWIDTH 497 0
DWIDTH 15 0
BBX 15 20 0 0
BITMAP
0820
1C70
1C70
0820
0000
0000
07C0
1FE0
1FF0
1878
2038
03F8
0FF8
1E38
3838
3038
7878
3FF8
3FF8
0FB8
ENDCHAR
STARTCHAR U+00E5
ENCODING 229
SWIDTH 497 0
DWIDTH 15 0
BBX 15 21 0 0
BITMAP
0380
06C0
0440
06C0
0380
0000
0000
07C0
1FE0
1FF0
1878
2038
03F8
0FF8
1E38
3838
3038
7878
3FF8
3FF8
0FB8
ENDCHAR
STARTCHAR U+00E6
ENCODING 230
SWIDTH 794 0
DWIDTH 24 0
BBX 24 14 0 0
BITMAP
07C3E0
1FFFF8
1FFFFC
387C1C
20380C
01FFFE
0FFFFE
3C3800
383800
703C04
783E0C
3FFFFC
3FE7F8
0F83F0
ENDCHAR
STARTCHAR U+00E7
ENCODING 231
SWIDTH 497 0
DWIDTH 15 0
BBX 15 20 0 -6
BITMAP
03F0
0FF8
1FF8
3E08
3800
3800
7000
7000
3800
3800
3E08
1FF8
0FF8
03F0
00C0
01E0
0070
0070
03F0
03C0
ENDCHAR
STARTCHAR U+00E8
ENCODING 232
SWIDTH 530 0
DWIDTH 16 0
BBX 16 20 0 0
BITMAP
0F00
0700
0380
01C0
0000
0000
03E0
0FF8
1FF8
3C1C
380C
3FFC
7FFE
7FFE
3000
3800
3C0C
1FFC
0FFC
03F8
ENDCHAR
STARTCHAR U+00E9
ENCODING 233
SWIDTH 530 0
DWIDTH 16 0
BBX 16 20 0 0
BITMAP
00F0
00E0
01C0
0380
0000
0000
03E0
0FF8
1FF8
3C1C
380C
3FFC
7FFE
7FFE
3000
3800
3C0C
1FFC
0FFC
03F8
ENDCHAR
STARTCHAR U+00EA
ENCODING 234
SWIDTH 530 0
DWIDTH 16 0
BBX 16 20 0 0
BITMAP
03C0
07C0
0660
0C30
0000
0000
03E0
0FF8
1FF8
3C1C
380C
3FFC
7FFE
7FFE
3000
3800
3C0C
1FFC
0FFC
03F8
ENDCHAR
STARTCHAR U+00EB
ENCODING 235
SWIDTH 530 0
DWIDTH 16 0
BBX 16 20 0 0
BITMAP
0410
0E38
0E38
0410
0000
0000
03E0
0FF8
1FF8
3C1C
380C
3FFC
7FFE
7FFE
3000
3800
3C0C
1FFC
0FFC
03F8
ENDCHAR
STARTCHAR U+00EC
ENCODING 236
SWIDTH 232 0
DWIDTH 7 0
BBX 8 20 -1 0
BITMAP
F0
70
38
1C
00
00
38
38
38
38
38
38
38
38
38
38
38
38
38
38
ENDCHAR
STARTCHAR U+00ED
ENCODING 237
SWIDTH 232 0
DWIDTH 7 0
BBX 8 20 0 0
BITMAP
00
00
00
00
00
00
00
00
00
00
00
00
00
00
00
00
00
00
00
00
ENDCHAR
STARTCHAR U+00EE
ENCODING 238
SWIDTH 232 0
DWIDTH 7 0
BBX 9 20 -1 0
BITMAP
0000
0000
0000
0000
0000
0000
0000
0000
0000
0000
0000
0000
0000
0000
0000
0000
0000
0000
0000
0000
ENDCHAR
STARTCHAR U+00EF
ENCODING 239
SWIDTH 232 0
DWIDTH 7 0
BBX 11 20 -2 0
BITMAP
2080
71C0
71C0
2080
0000
0000
0E00
0E00
0E00
0E00
0E00
0E00
0E00
0E00
0E00
0E00
0E00
0E00
0E00
0E00
ENDCHAR
STARTCHAR U+00F0
ENCODING 240
SWIDTH 530 0
DWIDTH 16 0
BBX 16 20 0 0
BITMAP
0630
0FF8
03E0
0FE0
1EF0
0870
07B8
0FFC
1FFC
3C3C
380E
300E
700E
700E
700E
381C
3C3C
1FF8
0FF0
07C0
ENDCHAR
STARTCHAR U+00F1
ENCODING 241
SWIDTH 563 0
DWIDTH 17 0
BBX 17 20 0 0
BITMAP
070000
0FD800
0DF800
007000
000000
000000
3BF000
3FFC00
3FFC00
3C1E00
380E00
380E00
380600
380600
380600
380600
380600
380600
380600
380600
ENDCHAR
STARTCHAR U+00F2
ENCODING 242
SWIDTH 596 0
DWIDTH 18 0
BBX 18 20 0 0
BITMAP
078000
038000
01C000
00E000
000000
000000
03F000
0FFC00
1FFE00
3E1E00
380F00
380700
700700
700700
380700
380F00
3E1E00
1FFE00
0FFC00
03F000
ENDCHAR
STARTCHAR U+00F3
ENCODING 243
SWIDTH 596 0
DWIDTH 18 0
BBX 18 20 0 0
BITMAP
007800
007000
00E000
01C000
000000
000000
03F000
0FFC00
1FFE00
3E1E00
380F00
380700
700700
700700
380700
380F00
3E1E00
1FFE00
0FFC00
03F000
ENDCHAR
STARTCHAR U+00F4
ENCODING 244
SWIDTH 596 0
DWIDTH 18 0
BBX 18 20 0 0
BITMAP
01E000
03E000
033000
061800
000000
000000
03F000
0FFC00
1FFE00
3E1E00
380F00
380700
700700
700700
380700
380F00
3E1E00
1FFE00
0FFC00
03F000
ENDCHAR
STARTCHAR U+00F5
ENCODING 245
SWIDTH 596 0
DWIDTH 18 0
BBX 18 20 0 0
BITMAP
070000
0FD800
0DF800
007000
000000
000000
03F000
0FFC00
1FFE00
3E1E00
380F00
380700
700700
700700
380700
380F00
3E1E00
1FFE00
0FFC00
03F000
ENDCHAR
STARTCHAR U+00F6
ENCODING 246
SWIDTH 596 0
DWIDTH 18 0
BBX 18 20 0 0
BITMAP
020800
071C00
071C00
020800
000000
000000
03F000
0FFC00
1FFE00
3E1E00
380F00
380700
700700
700700
380700
380F00
3E1E00
1FFE00
0FFC00
03F000
ENDCHAR
STARTCHAR U+00F7
ENCODING 247
SWIDTH 530 0
DWIDTH 16 0
BBX 16 17 0 0
BITMAP
0100
0380
0380
0100
0000
0000
3FFC
3FFC
0000
0000
0100
0380
0380
0100
0000
0000
0000
ENDCHAR
STARTCHAR U+00F8
ENCODING 248
SWIDTH 596 0
DWIDTH 18 0
BBX 18 16 0 -1
BITMAP
000200
03F600
0FFC00
1FFE00
3E1E00
383F00
306700
70E700
71C700
3B8700
3F0700
3E1E00
1FFE00
1FFC00
1BF000
100000
ENDCHAR
STARTCHAR U+00F9
ENCODING 249
SWIDTH 563 0
DWIDTH 17 0
BBX 17 20 0 0
BITMAP
078000
038000
01C000
00E000
000000
000000
380E00
380E00
380E00
380E00
380E00
380E00
380E00
380E00
380E00
3C0E00
1E1E00
1FFE00
0FFE00
07EE00
ENDCHAR
STARTCHAR U+00FA
ENCODING 250
SWIDTH 563 0
DWIDTH 17 0
BBX 17 20 0 0
BITMAP
007800
007000
00E000
01C000
000000
000000
380E00
380E00
380E00
380E00
380E00
380E00
380E00
380E00
380E00
3C0E00
1E1E00
1FFE00
0FFE00
07EE00
ENDCHAR
STARTCHAR U+00FB
ENCODING 251
SWIDTH 563 0
DWIDTH 17 0
BBX 17 20 0 0
BITMAP
01E000
03E000
033000
061800
000000
000000
380E00
380E00
380E00
380E00
380E00
380E00
380E00
380E00
380E00
3C0E00
1E1E00
1FFE00
0FFE00
07EE00
ENDCHAR
STARTCHAR U+00FC
ENCODING 252
SWIDTH 563 0
DWIDTH 17 0
BBX 17 20 0 0
BITMAP
041000
0E3800
0E3800
041000
000000
000000
380E00
380E00
380E00
380E00
380E00
380E00
380E00
380E00
380E00
3C0E00
1E1E00
1FFE00
0FFE00
07EE00
ENDCHAR
STARTCHAR U+00FD
ENCODING 253
SWIDTH 530 0
DWIDTH 16 0
BBX 16 25 0 -5
BITMAP
00F0
00E0
01C0
0380
0000
0000
700E
700E
381C
381C
1838
1C38
1C30
0E70
0E70
07E0
07E0
03C0
03C0
01C0
0380
0780
1F00
1E00
1C00
ENDCHAR
STARTCHAR U+00FE
ENCODING 254
SWIDTH 563 0
DWIDTH 17 0
BBX 17 25 0 -5
BITMAP
380000
380000
380000
380000
380000
380000
3BF000
3FFC00
3FFE00
3C1E00
380F00
380700
380700
380700
380700
380F00
3C1E00
3FFC00
3FF800
3BF000
380000
380000
380000
380000
380000
ENDCHAR
STARTCHAR U+00FF
ENCODING 255
SWIDTH 530 0
DWIDTH 16 0
BBX 16 25 0 -5
BITMAP
0410
0E38
0E38
0410
0000
0000
700E
700E
381C
381C
1838
1C38
1C30
0E70
0E70
07E0
07E0
03C0
03C0
01C0
0380
0780
1F00
1E00
1C00
ENDCHAR
STARTCHAR U+2013
ENCODING 8211
SWIDTH 497 0
DWIDTH 15 0
BBX 16 9 -1 0
BITMAP
FFFE
FFFE
FFFE
0000
0000
0000
0000
0000
0000
ENDCHAR
STARTCHAR U+2014
ENCODING 8212
SWIDTH 960 0
DWIDTH 29 0
BBX 31 9 -1 0
BITMAP
FFFFFFF8
FFFFFFF8
FFFFFFF8
00000000
00000000
00000000
00000000
00000000
00000000
ENDCHAR
STARTCHAR U+2018
ENCODING 8216
SWIDTH 232 0
DWIDTH 7 0
BBX 7 20 0 0
BITMAP
08
10
30
38
3C
38
10
00
00
00
00
00
00
00
00
00
00
00
00
00
ENDCHAR
STARTCHAR U+2019
ENCODING 8217
SWIDTH 232 0
DWIDTH 7 0
BBX 7 20 0 0
BITMAP
10
38
38
18
18
10
20
00
00
00
00
00
00
00
00
00
00
00
00
00
ENDCHAR
STARTCHAR U+201C
ENCODING 8220
SWIDTH 397 0
DWIDTH 12 0
BBX 12 20 0 0
BITMAP
0880
1080
3180
3980
3DC0
3980
1000
0000
0000
0000
0000
0000
0000
0000
0000
0000
0000
0000
0000
0000
ENDCHAR
STARTCHAR U+201D
ENCODING 8221
SWIDTH 397 0
DWIDTH 12 0
BBX 12 20 0 0
BITMAP
1080
39C0
39C0
18C0
18C0
1080
2100
0000
0000
0000
0000
0000
0000
0000
0000
0000
0000
0000
0000
0000
ENDCHAR
STARTCHAR U+2022
ENCODING 8226
SWIDTH 397 0
DWIDTH 12 0
BBX 12 12 0 0
BITMAP
0200
0700
0F80
3FC0
0F80
0700
0200
0000
0000
0000
0000
0000
ENDCHAR
STARTCHAR U+2026
ENCODING 8230
SWIDTH 894 0
DWIDTH 27 0
BBX 27 4 0 0
BITMAP
10040200
380E0700
380E0700
10040200
ENDCHAR
STARTCHAR U+20AC
ENCODING 8364
SWIDTH 596 0
DWIDTH 18 0
BBX 18 20 0 0
BITMAP
00FE00
03FF80
07FF80
0F8180
1E0000
1C0000
7FF800
7FF800
380000
380000
380000
7FF800
7FF000
1C0000
1E0000
0E0000
0F8180
07FF80
03FF80
00FE00
ENDCHAR
ENDFONT
