STARTFONT 2.1
COMMENT Converted from Johnston100 W03 Regular.ttf at 26px with ttf2bdf.py (Pillow, 1-bit, no AA)
FONT -Misc-Johnston100-Medium-R-Normal--26-260-75-75-P-280-ISO10646-1
SIZE 26 75 75
FONTBOUNDINGBOX 28 30 -1 -7
STARTPROPERTIES 9
FOUNDRY "Misc"
FAMILY_NAME "Johnston100"
WEIGHT_NAME "Medium"
SLANT "R"
PIXEL_SIZE 26
RESOLUTION_X 75
RESOLUTION_Y 75
FONT_ASCENT 23
FONT_DESCENT 7
ENDPROPERTIES
CHARS 200
STARTCHAR space
ENCODING 32
SWIDTH 258 0
DWIDTH 7 0
BBX 7 30 0 -7
BITMAP
00
00
00
00
00
00
00
00
00
00
00
00
00
00
00
00
00
00
00
00
00
00
00
00
00
00
00
00
00
00
ENDCHAR
STARTCHAR !
ENCODING 33
SWIDTH 258 0
DWIDTH 7 0
BBX 7 17 0 0
BITMAP
38
38
38
38
38
38
38
18
18
18
18
18
18
00
18
38
10
ENDCHAR
STARTCHAR "
ENCODING 34
SWIDTH 406 0
DWIDTH 11 0
BBX 11 17 0 0
BITMAP
3380
3380
3380
3180
3180
3180
3100
0000
0000
0000
0000
0000
0000
0000
0000
0000
0000
ENDCHAR
STARTCHAR U+0023
ENCODING 35
SWIDTH 738 0
DWIDTH 20 0
BBX 20 17 0 0
BITMAP
004100
00C300
00C300
018700
018600
1FFFE0
1FFFE0
030C00
030C00
070C00
7FFF80
7FFF80
061800
0C3000
0C3000
0C3000
186000
ENDCHAR
STARTCHAR $
ENCODING 36
SWIDTH 480 0
DWIDTH 13 0
BBX 13 21 0 -2
BITMAP
0600
0600
1F80
3FE0
38C0
3000
3800
3C00
3F00
0FC0
07E0
01F0
0070
0070
0070
6070
78E0
3FE0
1F80
0600
0600
ENDCHAR
STARTCHAR %
ENCODING 37
SWIDTH 702 0
DWIDTH 19 0
BBX 19 17 0 0
BITMAP
1E0600
3F0E00
738C00
619800
739800
3F3000
1E3000
006000
006000
00C000
00CF00
019F80
0198C0
0338C0
0718C0
061F80
0E0F00
ENDCHAR
STARTCHAR &
ENCODING 38
SWIDTH 665 0
DWIDTH 18 0
BBX 18 17 0 0
BITMAP
07C000
0FE000
1C7000
1C7000
1C7000
1C7000
0FE000
07C000
1F8700
3FC700
38E600
707E00
703C00
703C00
387E00
1FEF00
0F8780
ENDCHAR
STARTCHAR '
ENCODING 39
SWIDTH 222 0
DWIDTH 6 0
BBX 6 17 0 0
BITMAP
30
30
30
30
30
30
30
00
00
00
00
00
00
00
00
00
00
ENDCHAR
STARTCHAR (
ENCODING 40
SWIDTH 258 0
DWIDTH 7 0
BBX 7 21 0 -2
BITMAP
0C
18
18
38
30
30
30
30
30
30
30
30
30
30
30
30
38
38
18
18
0C
ENDCHAR
STARTCHAR )
ENCODING 41
SWIDTH 258 0
DWIDTH 7 0
BBX 7 21 0 -2
BITMAP
60
70
30
30
38
18
18
18
18
18
18
18
18
18
18
18
38
30
30
70
60
ENDCHAR
STARTCHAR *
ENCODING 42
SWIDTH 406 0
DWIDTH 11 0
BBX 11 17 0 0
BITMAP
0C00
2C80
7580
1F00
1E00
7580
2C80
0C00
0000
0000
0000
0000
0000
0000
0000
0000
0000
ENDCHAR
STARTCHAR +
ENCODING 43
SWIDTH 517 0
DWIDTH 14 0
BBX 14 14 0 0
BITMAP
0300
0300
0300
0300
3FF0
3FF0
0300
0300
0300
0300
0000
0000
0000
0000
ENDCHAR
STARTCHAR ,
ENCODING 44
SWIDTH 222 0
DWIDTH 6 0
BBX 6 7 0 -3
BITMAP
30
78
38
10
20
00
00
ENDCHAR
STARTCHAR -
ENCODING 45
SWIDTH 369 0
DWIDTH 10 0
BBX 10 8 0 0
BITMAP
7F80
7F80
0000
0000
0000
0000
0000
0000
ENDCHAR
STARTCHAR .
ENCODING 46
SWIDTH 222 0
DWIDTH 6 0
BBX 6 3 0 0
BITMAP
30
38
10
ENDCHAR
STARTCHAR /
ENCODING 47
SWIDTH 295 0
DWIDTH 8 0
BBX 9 21 0 -2
BITMAP
0300
0300
0700
0600
0600
0E00
0E00
0C00
0C00
1C00
1800
1800
3800
3000
3000
3000
7000
6000
6000
E000
C000
ENDCHAR
STARTCHAR 0
ENCODING 48
SWIDTH 554 0
DWIDTH 15 0
BBX 15 17 0 0
BITMAP
03C0
0FF0
0E70
1C38
1818
3818
381C
381C
381C
381C
381C
3818
1818
1C38
0E70
0FF0
03C0
ENDCHAR
STARTCHAR 1
ENCODING 49
SWIDTH 295 0
DWIDTH 8 0
BBX 8 17 0 0
BITMAP
08
18
18
18
18
18
18
18
18
18
18
18
18
18
18
18
18
ENDCHAR
STARTCHAR 2
ENCODING 50
SWIDTH 480 0
DWIDTH 13 0
BBX 13 17 0 0
BITMAP
0F80
1FC0
38E0
2060
2070
0070
00E0
00E0
01C0
01C0
0380
0780
0700
0E00
1E00
1FF0
3FF0
ENDCHAR
STARTCHAR 3
ENCODING 51
SWIDTH 480 0
DWIDTH 13 0
BBX 13 17 0 0
BITMAP
7FF0
7FE0
00E0
01C0
0380
0380
0780
0FE0
00F0
0070
0030
0030
0030
2070
70E0
3FE0
1F80
ENDCHAR
STARTCHAR 4
ENCODING 52
SWIDTH 554 0
DWIDTH 15 0
BBX 15 17 0 0
BITMAP
0000
0020
0060
00E0
01E0
01E0
0360
0660
0E60
1C60
3860
7FFC
FFFC
0060
0060
0060
0060
ENDCHAR
STARTCHAR 5
ENCODING 53
SWIDTH 480 0
DWIDTH 13 0
BBX 13 17 0 0
BITMAP
0FF0
1FF0
1C00
1C00
1C00
1C00
1F80
1FE0
10F0
0070
0030
0030
0030
2070
70E0
3FE0
1F80
ENDCHAR
STARTCHAR 6
ENCODING 54
SWIDTH 517 0
DWIDTH 14 0
BBX 14 17 0 0
BITMAP
03C0
0780
0F00
0E00
1C00
3800
3FC0
3FE0
7870
7030
7038
7038
7038
3030
3870
1FE0
0F80
ENDCHAR
STARTCHAR 7
ENCODING 55
SWIDTH 480 0
DWIDTH 13 0
BBX 13 17 0 0
BITMAP
7FF0
7FE0
00E0
00C0
01C0
01C0
0380
0380
0700
0700
0E00
0E00
1C00
1C00
3800
3800
3000
ENDCHAR
STARTCHAR 8
ENCODING 56
SWIDTH 517 0
DWIDTH 14 0
BBX 14 17 0 0
BITMAP
0780
1FE0
1860
3870
3870
38E0
1FE0
0F80
0FE0
3CF0
3870
7038
7038
7030
3870
1FE0
0FC0
ENDCHAR
STARTCHAR 9
ENCODING 57
SWIDTH 517 0
DWIDTH 14 0
BBX 14 17 0 0
BITMAP
07C0
1FE0
3870
3070
7038
7038
7038
3038
3870
1FF0
0FF0
0060
00E0
01C0
0380
0780
0F00
ENDCHAR
STARTCHAR :
ENCODING 58
SWIDTH 295 0
DWIDTH 8 0
BBX 8 13 0 0
BITMAP
18
1C
08
00
00
00
00
00
00
00
18
1C
08
ENDCHAR
STARTCHAR ;
ENCODING 59
SWIDTH 295 0
DWIDTH 8 0
BBX 8 15 0 -3
BITMAP
18
1C
08
00
00
00
00
00
00
18
3C
1C
08
10
00
ENDCHAR
STARTCHAR U+003C
ENCODING 60
SWIDTH 517 0
DWIDTH 14 0
BBX 14 16 0 0
BITMAP
0010
0070
01F0
07E0
1F00
3C00
3C00
1F00
07E0
01F0
0070
0010
0000
0000
0000
0000
ENDCHAR
STARTCHAR =
ENCODING 61
SWIDTH 517 0
DWIDTH 14 0
BBX 14 13 0 0
BITMAP
3FF0
3FF0
0000
0000
0000
0000
3FF0
3FF0
0000
0000
0000
0000
0000
ENDCHAR
STARTCHAR U+003E
ENCODING 62
SWIDTH 517 0
DWIDTH 14 0
BBX 14 16 0 0
BITMAP
2000
3800
3E00
1F80
03E0
00F0
00F0
03E0
1F80
3E00
3800
2000
0000
0000
0000
0000
ENDCHAR
STARTCHAR ?
ENCODING 63
SWIDTH 443 0
DWIDTH 12 0
BBX 12 17 0 0
BITMAP
1F00
7F80
71C0
60C0
00C0
01C0
03C0
0F80
1E00
1C00
0E00
0400
0000
0400
0E00
0E00
0400
ENDCHAR
STARTCHAR @
ENCODING 64
SWIDTH 923 0
DWIDTH 25 0
BBX 25 22 0 -5
BITMAP
007F8000
01FFE000
03C0F800
07003C00
0C000C00
1C3FCE00
187FC600
30E18600
30C18700
31C18700
31818700
71818600
71818600
31C18600
31C38C00
30FFFC00
383CF000
1C000000
0E000000
07808000
03FF8000
00FE0000
ENDCHAR
STARTCHAR A
ENCODING 65
SWIDTH 665 0
DWIDTH 18 0
BBX 18 17 0 0
BITMAP
01C000
01C000
03E000
03E000
037000
077000
073800
0E3800
0E1800
0C1C00
1C1C00
1FFE00
3FFE00
380700
300700
700700
700380
ENDCHAR
STARTCHAR B
ENCODING 66
SWIDTH 591 0
DWIDTH 16 0
BBX 16 17 0 0
BITMAP
3FC0
3FE0
3870
3838
3838
3830
3870
3FE0
3FF8
383C
381C
380C
380C
381C
383C
3FF8
3FE0
ENDCHAR
STARTCHAR C
ENCODING 67
SWIDTH 665 0
DWIDTH 18 0
BBX 18 17 0 0
BITMAP
00FC00
07FE00
0F0300
1C0100
180000
380000
300000
300000
700000
300000
300000
380000
1C0000
1C0100
0F0300
07FE00
00F800
ENDCHAR
STARTCHAR D
ENCODING 68
SWIDTH 702 0
DWIDTH 19 0
BBX 19 17 0 0
BITMAP
3FE000
3FFC00
381E00
380F00
380700
380380
380380
380180
380180
380180
380380
380380
380700
380F00
381E00
3FF800
3FE000
ENDCHAR
STARTCHAR E
ENCODING 69
SWIDTH 554 0
DWIDTH 15 0
BBX 15 17 0 0
BITMAP
3FFC
3FFC
3800
3800
3800
3800
3800
3FF0
3FF0
3800
3800
3800
3800
3800
3800
3FFC
3FFC
ENDCHAR
STARTCHAR F
ENCODING 70
SWIDTH 517 0
DWIDTH 14 0
BBX 14 17 0 0
BITMAP
3FF8
3FF8
3800
3800
3800
3800
3800
3FE0
3FE0
3800
3800
3800
3800
3800
3800
3800
3800
ENDCHAR
STARTCHAR G
ENCODING 71
SWIDTH 702 0
DWIDTH 19 0
BBX 19 17 0 0
BITMAP
00FE00
07FF80
0F0380
1C0080
1C0000
380000
300000
301F80
701F80
300180
300180
380180
3C0180
1E0180
0F0780
07FF00
01FC00
ENDCHAR
STARTCHAR H
ENCODING 72
SWIDTH 702 0
DWIDTH 19 0
BBX 19 17 0 0
BITMAP
380380
380380
380380
380380
380380
380380
380380
3FFF80
3FFF80
380380
380380
380380
380380
380380
380380
380380
380380
ENDCHAR
STARTCHAR I
ENCODING 73
SWIDTH 295 0
DWIDTH 8 0
BBX 8 17 0 0
BITMAP
38
38
38
38
38
38
38
38
38
38
38
38
38
38
38
38
38
ENDCHAR
STARTCHAR J
ENCODING 74
SWIDTH 480 0
DWIDTH 13 0
BBX 13 17 0 0
BITMAP
00C0
00C0
00C0
00C0
00C0
00C0
00C0
00C0
00C0
00C0
00C0
00C0
00C0
21C0
71C0
7F80
1E00
ENDCHAR
STARTCHAR K
ENCODING 75
SWIDTH 591 0
DWIDTH 16 0
BBX 17 17 0 0
BITMAP
380E00
381C00
383800
38F000
39E000
3BC000
3F8000
3E0000
3F0000
3B8000
39C000
38E000
387000
383800
381C00
381E00
380F00
ENDCHAR
STARTCHAR L
ENCODING 76
SWIDTH 517 0
DWIDTH 14 0
BBX 14 17 0 0
BITMAP
3800
3800
3800
3800
3800
3800
3800
3800
3800
3800
3800
3800
3800
3800
3800
3FF8
3FF8
ENDCHAR
STARTCHAR M
ENCODING 77
SWIDTH 849 0
DWIDTH 23 0
BBX 23 17 0 0
BITMAP
3C0070
3C00F0
3E01F0
3F03F0
3B83F0
39C770
39EE70
38FC70
387870
383870
381070
380070
380070
380070
380070
380070
380070
ENDCHAR
STARTCHAR N
ENCODING 78
SWIDTH 738 0
DWIDTH 20 0
BBX 20 17 0 0
BITMAP
3801C0
3C01C0
3E01C0
3F01C0
3F81C0
3B81C0
39C1C0
38E1C0
38F1C0
3879C0
3839C0
381DC0
380FC0
3807C0
3807C0
3803C0
3801C0
ENDCHAR
STARTCHAR O
ENCODING 79
SWIDTH 775 0
DWIDTH 21 0
BBX 21 17 0 0
BITMAP
00FC00
07FF00
0F0780
1C01C0
1800E0
3800E0
300070
300070
700070
300070
300070
380060
1800E0
1C01C0
0F0780
07FF00
01FC00
ENDCHAR
STARTCHAR P
ENCODING 80
SWIDTH 554 0
DWIDTH 15 0
BBX 15 17 0 0
BITMAP
3FE0
3FF8
383C
381C
381C
381C
381C
3838
3FF8
3FE0
3800
3800
3800
3800
3800
3800
3800
ENDCHAR
STARTCHAR Q
ENCODING 81
SWIDTH 775 0
DWIDTH 21 0
BBX 21 17 0 0
BITMAP
00FC00
07FF00
0F0780
1C01C0
1800E0
380060
300070
300070
700070
300070
300070
3802E0
1807E0
1C07C0
0F07C0
07FFE0
01FC40
ENDCHAR
STARTCHAR R
ENCODING 82
SWIDTH 591 0
DWIDTH 16 0
BBX 16 17 0 0
BITMAP
3FC0
3FF0
3878
3838
3838
3838
3878
3FF0
3FC0
39C0
38E0
38F0
3870
3838
381C
381E
380E
ENDCHAR
STARTCHAR S
ENCODING 83
SWIDTH 480 0
DWIDTH 13 0
BBX 13 17 0 0
BITMAP
0F80
1FE0
3880
3000
3000
3C00
3E00
1F80
07E0
01E0
0070
0070
2070
7070
78E0
3FC0
0F80
ENDCHAR
STARTCHAR T
ENCODING 84
SWIDTH 554 0
DWIDTH 15 0
BBX 15 17 0 0
BITMAP
7FFC
7FFC
0380
0380
0380
0380
0380
0380
0380
0380
0380
0380
0380
0380
0380
0380
0380
ENDCHAR
STARTCHAR U
ENCODING 85
SWIDTH 738 0
DWIDTH 20 0
BBX 20 17 0 0
BITMAP
3801C0
3801C0
3801C0
3801C0
3801C0
3801C0
3801C0
3801C0
3801C0
3801C0
3801C0
1801C0
1C0380
1C0380
0F0F00
07FE00
01F800
ENDCHAR
STARTCHAR V
ENCODING 86
SWIDTH 628 0
DWIDTH 17 0
BBX 17 17 0 0
BITMAP
700700
700700
700E00
380E00
380C00
181C00
1C1C00
1C1800
0E3800
0E3800
063000
077000
076000
03E000
03E000
01C000
01C000
ENDCHAR
STARTCHAR W
ENCODING 87
SWIDTH 923 0
DWIDTH 25 0
BBX 25 17 0 0
BITMAP
701C0300
701E0700
301E0700
383E0600
383F0600
18370E00
1C370E00
1C730C00
0C639C00
0E639C00
0EE19800
0EC1F800
06C1F800
07C0F000
07C0F000
0380F000
03807000
ENDCHAR
STARTCHAR X
ENCODING 88
SWIDTH 665 0
DWIDTH 18 0
BBX 18 17 0 0
BITMAP
700700
380E00
1C1E00
1E1C00
0E3800
077000
03E000
01E000
01E000
03E000
077000
0E3800
0E1C00
1C0E00
380E00
700700
700380
ENDCHAR
STARTCHAR Y
ENCODING 89
SWIDTH 591 0
DWIDTH 16 0
BBX 16 17 0 0
BITMAP
700E
701C
381C
1C38
1C30
0E70
06E0
07C0
03C0
0180
0180
0180
0180
0180
0180
0180
0180
ENDCHAR
STARTCHAR Z
ENCODING 90
SWIDTH 591 0
DWIDTH 16 0
BBX 16 17 0 0
BITMAP
7FFE
7FFE
001C
0038
0078
0070
00E0
01C0
03C0
0380
0700
0F00
0E00
1C00
3C00
3FFF
7FFF
ENDCHAR
STARTCHAR [
ENCODING 91
SWIDTH 332 0
DWIDTH 9 0
BBX 9 24 0 -4
BITMAP
3F00
3F00
3000
3000
3000
3000
3000
3000
3000
3000
3000
3000
3000
3000
3000
3000
3000
3000
3000
3000
3000
3000
3F00
3F00
ENDCHAR
STARTCHAR \
ENCODING 92
SWIDTH 295 0
DWIDTH 8 0
BBX 9 21 0 -2
BITMAP
C000
E000
6000
6000
7000
3000
3000
3000
3800
1800
1800
1C00
0C00
0C00
0E00
0600
0600
0600
0700
0300
0300
ENDCHAR
STARTCHAR ]
ENCODING 93
SWIDTH 332 0
DWIDTH 9 0
BBX 9 24 0 -4
BITMAP
7E00
7E00
0E00
0E00
0E00
0E00
0E00
0E00
0E00
0E00
0E00
0E00
0E00
0E00
0E00
0E00
0E00
0E00
0E00
0E00
0E00
0E00
7E00
7E00
ENDCHAR
STARTCHAR ^
ENCODING 94
SWIDTH 554 0
DWIDTH 15 0
BBX 15 17 0 0
BITMAP
0380
07C0
0EE0
0C60
1C70
3838
3018
0000
0000
0000
0000
0000
0000
0000
0000
0000
0000
ENDCHAR
STARTCHAR _
ENCODING 95
SWIDTH 480 0
DWIDTH 13 0
BBX 15 3 -1 -3
BITMAP
0000
0000
FFF8
ENDCHAR
STARTCHAR `
ENCODING 96
SWIDTH 443 0
DWIDTH 12 0
BBX 12 17 0 0
BITMAP
FFF0
FFF0
C030
C030
C030
C030
C030
C030
C030
C030
C030
C030
C030
C030
C030
FFF0
FFF0
ENDCHAR
STARTCHAR a
ENCODING 97
SWIDTH 480 0
DWIDTH 13 0
BBX 13 13 0 0
BITMAP
0F80
1FC0
30E0
2060
0070
07F0
1FF0
3C70
7070
7070
70F0
3FF0
1F70
ENDCHAR
STARTCHAR b
ENCODING 98
SWIDTH 591 0
DWIDTH 16 0
BBX 16 17 0 0
BITMAP
3800
3800
3800
3800
3BE0
3FF0
3C38
381C
381C
380C
380C
380C
380C
381C
3C38
3FF0
33E0
ENDCHAR
STARTCHAR c
ENCODING 99
SWIDTH 480 0
DWIDTH 13 0
BBX 13 13 0 0
BITMAP
07F0
0FF0
1C10
3800
3000
7000
7000
7000
3000
3800
1C10
0FF0
07F0
ENDCHAR
STARTCHAR d
ENCODING 100
SWIDTH 591 0
DWIDTH 16 0
BBX 16 17 0 0
BITMAP
001C
001C
001C
001C
07DC
1FFC
1C3C
381C
301C
701C
701C
701C
701C
381C
3C3C
1FFC
07DC
ENDCHAR
STARTCHAR e
ENCODING 101
SWIDTH 517 0
DWIDTH 14 0
BBX 14 13 0 0
BITMAP
07C0
1FE0
3C70
3038
3038
7FF8
7FF8
7000
7000
3800
3C18
1FF8
07F8
ENDCHAR
STARTCHAR f
ENCODING 102
SWIDTH 369 0
DWIDTH 10 0
BBX 10 17 0 0
BITMAP
07C0
1FC0
1C00
1800
7FC0
7FC0
3800
3800
3800
3800
3800
3800
3800
3800
3800
3800
3800
ENDCHAR
STARTCHAR g
ENCODING 103
SWIDTH 480 0
DWIDTH 13 0
BBX 13 18 0 -5
BITMAP
0FF8
3FF8
38E0
7060
7060
7060
38E0
1FC0
1F80
3800
3E00
1FC0
33F0
6078
6038
7038
7FF0
1FC0
ENDCHAR
STARTCHAR h
ENCODING 104
SWIDTH 591 0
DWIDTH 16 0
BBX 16 17 0 0
BITMAP
3800
3800
3800
3800
3BE0
3FF0
3C38
3818
381C
381C
381C
381C
381C
381C
381C
381C
381C
ENDCHAR
STARTCHAR i
ENCODING 105
SWIDTH 258 0
DWIDTH 7 0
BBX 7 17 0 0
BITMAP
10
38
30
00
38
38
38
38
38
38
38
38
38
38
38
38
38
ENDCHAR
STARTCHAR j
ENCODING 106
SWIDTH 258 0
DWIDTH 7 0
BBX 8 22 -1 -5
BITMAP
10
38
38
10
38
38
38
38
38
38
38
38
38
38
38
38
38
38
38
30
F0
E0
ENDCHAR
STARTCHAR k
ENCODING 107
SWIDTH 517 0
DWIDTH 14 0
BBX 14 17 0 0
BITMAP
3800
3800
3800
3800
3878
38F0
39E0
3B80
3F00
3E00
3F00
3F80
3B80
39C0
38E0
3870
3838
ENDCHAR
STARTCHAR l
ENCODING 108
SWIDTH 295 0
DWIDTH 8 0
BBX 8 17 0 0
BITMAP
30
30
30
30
30
30
30
30
30
30
30
30
30
30
38
1F
0F
ENDCHAR
STARTCHAR m
ENCODING 109
SWIDTH 886 0
DWIDTH 24 0
BBX 24 13 0 0
BITMAP
3BE3E0
3FFFF8
3C3E3C
38381C
38180C
38180C
38180C
38180C
38180C
38180C
38180C
38180C
38180C
ENDCHAR
STARTCHAR n
ENCODING 110
SWIDTH 591 0
DWIDTH 16 0
BBX 16 13 0 0
BITMAP
3BE0
3FF0
3C38
3818
381C
381C
381C
381C
381C
381C
381C
381C
381C
ENDCHAR
STARTCHAR o
ENCODING 111
SWIDTH 591 0
DWIDTH 16 0
BBX 16 13 0 0
BITMAP
07E0
0FF0
1C38
381C
300C
700E
700E
700E
300C
381C
1C38
0FF0
07E0
ENDCHAR
STARTCHAR p
ENCODING 112
SWIDTH 591 0
DWIDTH 16 0
BBX 16 18 0 -5
BITMAP
33E0
3FF0
3C38
381C
381C
380C
380C
380C
381C
381C
3C38
3FF0
3BC0
3800
3800
3800
3800
3800
ENDCHAR
STARTCHAR q
ENCODING 113
SWIDTH 591 0
DWIDTH 16 0
BBX 16 18 0 -5
BITMAP
07DC
1FFC
1C3C
381C
301C
701C
701C
701C
701C
381C
3C3C
1FFC
07DC
001C
001C
001C
001C
001C
ENDCHAR
STARTCHAR r
ENCODING 114
SWIDTH 369 0
DWIDTH 10 0
BBX 10 13 0 0
BITMAP
3BC0
3FC0
3C00
3800
3800
3800
3800
3800
3800
3800
3800
3800
3800
ENDCHAR
STARTCHAR s
ENCODING 115
SWIDTH 443 0
DWIDTH 12 0
BBX 12 13 0 0
BITMAP
0FC0
3FC0
3040
7000
7800
3F80
1FC0
01E0
0060
4060
70E0
7FC0
1F80
ENDCHAR
STARTCHAR t
ENCODING 116
SWIDTH 406 0
DWIDTH 11 0
BBX 11 16 0 0
BITMAP
3800
3800
3800
7FC0
7FC0
3800
3800
3800
3800
3800
3800
3800
1800
1C00
1FC0
07C0
ENDCHAR
STARTCHAR u
ENCODING 117
SWIDTH 591 0
DWIDTH 16 0
BBX 16 13 0 0
BITMAP
301C
301C
301C
301C
301C
301C
301C
301C
381C
381C
1C3C
1FFC
07DC
ENDCHAR
STARTCHAR v
ENCODING 118
SWIDTH 517 0
DWIDTH 14 0
BBX 14 13 0 0
BITMAP
6018
7038
7038
3830
3870
1860
1CE0
0CE0
0EC0
0FC0
0780
0780
0300
ENDCHAR
STARTCHAR w
ENCODING 119
SWIDTH 812 0
DWIDTH 22 0
BBX 22 13 0 0
BITMAP
70301C
703818
707838
387C38
38EC30
38CC70
18CE70
1DC660
1D86E0
0D87E0
0F83C0
0F03C0
0701C0
ENDCHAR
STARTCHAR x
ENCODING 120
SWIDTH 480 0
DWIDTH 13 0
BBX 14 13 0 0
BITMAP
7070
38E0
1CE0
1DC0
0F80
0700
0700
0F80
1DC0
1CE0
38E0
7070
E038
ENDCHAR
STARTCHAR y
ENCODING 121
SWIDTH 517 0
DWIDTH 14 0
BBX 14 18 0 -5
BITMAP
6018
7038
7038
3030
3870
1860
1C60
1CE0
0CC0
0FC0
0780
0780
0380
0300
0300
0600
1E00
1C00
ENDCHAR
STARTCHAR z
ENCODING 122
SWIDTH 443 0
DWIDTH 12 0
BBX 12 13 0 0
BITMAP
7FE0
7FE0
01C0
03C0
0380
0700
0700
0E00
1E00
1C00
3800
7FE0
7FE0
ENDCHAR
STARTCHAR {
ENCODING 123
SWIDTH 332 0
DWIDTH 9 0
BBX 9 24 0 -4
BITMAP
0700
0F00
0C00
0C00
0C00
0C00
0C00
0C00
0C00
1C00
3800
7000
7000
3800
1C00
0C00
0C00
0C00
0C00
0C00
0C00
0C00
0F00
0700
ENDCHAR
STARTCHAR |
ENCODING 124
SWIDTH 222 0
DWIDTH 6 0
BBX 6 26 0 -7
BITMAP
30
30
30
30
30
30
30
30
30
30
30
30
30
30
30
30
30
30
30
30
30
30
30
30
30
30
ENDCHAR
STARTCHAR }
ENCODING 125
SWIDTH 332 0
DWIDTH 9 0
BBX 9 24 0 -4
BITMAP
7000
7800
1C00
1C00
0C00
0C00
0C00
0C00
0C00
0C00
0E00
0700
0700
0E00
0C00
0C00
0C00
0C00
0C00
0C00
0C00
1C00
7800
7000
ENDCHAR
STARTCHAR ~
ENCODING 126
SWIDTH 517 0
DWIDTH 14 0
BBX 14 11 0 0
BITMAP
1C10
3F30
33F0
20E0
0000
0000
0000
0000
0000
0000
0000
ENDCHAR
STARTCHAR U+00A0
ENCODING 160
SWIDTH 258 0
DWIDTH 7 0
BBX 7 30 0 -7
BITMAP
00
00
00
00
00
00
00
00
00
00
00
00
00
00
00
00
00
00
00
00
00
00
00
00
00
00
00
00
00
00
ENDCHAR
STARTCHAR U+00A1
ENCODING 161
SWIDTH 258 0
DWIDTH 7 0
BBX 7 18 0 -5
BITMAP
10
38
18
00
00
18
18
18
18
18
38
38
38
38
38
38
38
38
ENDCHAR
STARTCHAR U+00A2
ENCODING 162
SWIDTH 480 0
DWIDTH 13 0
BBX 13 17 0 -2
BITMAP
0180
0180
07F0
0FF0
1C10
3800
3000
7000
7000
7000
3000
3800
1C10
0FF0
07F0
0180
0180
ENDCHAR
STARTCHAR U+00A3
ENCODING 163
SWIDTH 517 0
DWIDTH 14 0
BBX 14 17 0 0
BITMAP
03E0
07F0
0610
0E00
0C00
0C00
0C00
0C00
3FC0
3FC0
1C00
1C00
1C00
1800
3800
3FF8
7FF0
ENDCHAR
STARTCHAR U+00A4
ENCODING 164
SWIDTH 591 0
DWIDTH 16 0
BBX 16 14 0 0
BITMAP
1008
381C
3FFC
1FF8
1C78
1838
1818
1818
1838
1C38
1FF8
3FFC
381C
1008
ENDCHAR
STARTCHAR U+00A5
ENCODING 165
SWIDTH 591 0
DWIDTH 16 0
BBX 16 17 0 0
BITMAP
700E
380E
381C
1C38
0C38
0E70
3F7C
3FFC
03C0
0180
3FFC
3FFC
0180
0180
0180
0180
0180
ENDCHAR
STARTCHAR U+00A6
ENCODING 166
SWIDTH 222 0
DWIDTH 6 0
BBX 6 26 0 -7
BITMAP
30
30
30
30
30
30
30
30
30
30
00
00
00
00
00
00
30
30
30
30
30
30
30
30
30
30
ENDCHAR
STARTCHAR U+00A7
ENCODING 167
SWIDTH 480 0
DWIDTH 13 0
BBX 13 22 0 -5
BITMAP
0F80
3FC0
78E0
7040
7000
7800
3E00
1F80
3FE0
70E0
6070
6070
7860
3FE0
1FC0
03E0
00E0
0060
2060
70E0
3FC0
1F80
ENDCHAR
STARTCHAR U+00A8
ENCODING 168
SWIDTH 443 0
DWIDTH 12 0
BBX 12 17 0 0
BITMAP
FFF0
FFF0
C030
C030
C030
C030
C030
C030
C030
C030
C030
C030
C030
C030
C030
FFF0
FFF0
ENDCHAR
STARTCHAR U+00A9
ENCODING 169
SWIDTH 775 0
DWIDTH 21 0
BBX 21 17 0 0
BITMAP
01FC00
070700
0C0180
18F8C0
11FC40
238460
270020
260020
660020
260020
270020
238460
31FC40
18F8C0
0C0180
070700
01F800
ENDCHAR
STARTCHAR U+00AA
ENCODING 170
SWIDTH 295 0
DWIDTH 8 0
BBX 8 17 0 0
BITMAP
7C
7E
06
3E
66
66
7E
00
00
00
00
00
00
00
00
00
00
ENDCHAR
STARTCHAR U+00AB
ENCODING 171
SWIDTH 554 0
DWIDTH 15 0
BBX 15 13 0 0
BITMAP
071C
0E38
0C30
1860
38E0
71C0
30C0
1860
1C70
0E38
071C
0000
0000
ENDCHAR
STARTCHAR U+00AC
ENCODING 172
SWIDTH 517 0
DWIDTH 14 0
BBX 14 13 0 0
BITMAP
3FF0
3FF0
0030
0030
0030
0030
0030
0000
0000
0000
0000
0000
0000
ENDCHAR
STARTCHAR U+00AD
ENCODING 173
SWIDTH 369 0
DWIDTH 10 0
BBX 10 8 0 0
BITMAP
7F80
7F80
0000
0000
0000
0000
0000
0000
ENDCHAR
STARTCHAR U+00AE
ENCODING 174
SWIDTH 775 0
DWIDTH 21 0
BBX 21 17 0 0
BITMAP
01FC00
070700
0C0180
1800C0
11F840
21FC60
218C20
218C20
61FC20
21F020
21B820
219860
118C40
198EC0
0C0180
070700
01F800
ENDCHAR
STARTCHAR U+00AF
ENCODING 175
SWIDTH 443 0
DWIDTH 12 0
BBX 12 17 0 0
BITMAP
FFF0
FFF0
C030
C030
C030
C030
C030
C030
C030
C030
C030
C030
C030
C030
C030
FFF0
FFF0
ENDCHAR
STARTCHAR U+00B0
ENCODING 176
SWIDTH 369 0
DWIDTH 10 0
BBX 10 17 0 0
BITMAP
1E00
3F00
7380
6180
7380
3F00
1E00
0000
0000
0000
0000
0000
0000
0000
0000
0000
0000
ENDCHAR
STARTCHAR U+00B1
ENCODING 177
SWIDTH 517 0
DWIDTH 14 0
BBX 14 15 0 0
BITMAP
0300
0300
0300
0300
3FF0
3FF0
0300
0300
0300
0300
0000
0000
0000
3FF0
3FF0
ENDCHAR
STARTCHAR U+00B2
ENCODING 178
SWIDTH 332 0
DWIDTH 9 0
BBX 9 17 0 0
BITMAP
3C00
7E00
4600
0600
0600
0C00
0C00
1800
3F00
7F00
0000
0000
0000
0000
0000
0000
0000
ENDCHAR
STARTCHAR U+00B3
ENCODING 179
SWIDTH 332 0
DWIDTH 9 0
BBX 9 17 0 0
BITMAP
7E00
7E00
0C00
0C00
1E00
0700
0300
4700
7E00
3C00
0000
0000
0000
0000
0000
0000
0000
ENDCHAR
STARTCHAR U+00B4
ENCODING 180
SWIDTH 443 0
DWIDTH 12 0
BBX 12 17 0 0
BITMAP
FFF0
FFF0
C030
C030
C030
C030
C030
C030
C030
C030
C030
C030
C030
C030
C030
FFF0
FFF0
ENDCHAR
STARTCHAR U+00B5
ENCODING 181
SWIDTH 554 0
DWIDTH 15 0
BBX 15 18 0 -5
BITMAP
3818
3818
3818
3818
3818
3818
3818
3818
3818
3818
3C38
3FF8
3FD8
3800
3800
3800
3800
3800
ENDCHAR
STARTCHAR U+00B6
ENCODING 182
SWIDTH 517 0
DWIDTH 14 0
BBX 14 22 0 -5
BITMAP
0FFC
3FFC
3F30
7F30
7F30
7F30
3F30
3F30
0F30
0330
0330
0330
0330
0330
0330
0330
0330
0330
0330
0330
0330
0330
ENDCHAR
STARTCHAR U+00B7
ENCODING 183
SWIDTH 222 0
DWIDTH 6 0
BBX 6 11 0 0
BITMAP
10
38
38
10
00
00
00
00
00
00
00
ENDCHAR
STARTCHAR U+00B8
ENCODING 184
SWIDTH 443 0
DWIDTH 12 0
BBX 12 17 0 0
BITMAP
FFF0
FFF0
C030
C030
C030
C030
C030
C030
C030
C030
C030
C030
C030
C030
C030
FFF0
FFF0
ENDCHAR
STARTCHAR U+00B9
ENCODING 185
SWIDTH 222 0
DWIDTH 6 0
BBX 6 17 0 0
BITMAP
10
30
30
30
30
30
30
30
30
30
00
00
00
00
00
00
00
ENDCHAR
STARTCHAR U+00BA
ENCODING 186
SWIDTH 369 0
DWIDTH 10 0
BBX 10 17 0 0
BITMAP
1E00
3F00
7380
6180
6180
6380
3F00
1E00
0000
0000
0000
0000
0000
0000
0000
0000
0000
ENDCHAR
STARTCHAR U+00BB
ENCODING 187
SWIDTH 554 0
DWIDTH 15 0
BBX 15 13 0 0
BITMAP
31C0
38C0
1C60
0C70
0638
0718
0638
0E70
1C60
38C0
31C0
0000
0000
ENDCHAR
STARTCHAR U+00BC
ENCODING 188
SWIDTH 775 0
DWIDTH 21 0
BBX 21 17 0 0
BITMAP
100600
300C00
300C00
301800
301800
303000
303000
306020
306060
30C0E0
01C1E0
0181E0
038360
030660
060FF0
061FF0
0C0060
ENDCHAR
STARTCHAR U+00BD
ENCODING 189
SWIDTH 812 0
DWIDTH 22 0
BBX 22 17 0 0
BITMAP
100600
300C00
300C00
301800
301800
303000
303000
3061E0
3063F0
30C230
01C030
018030
038060
030060
0600C0
0601F8
0C03F8
ENDCHAR
STARTCHAR U+00BE
ENCODING 190
SWIDTH 849 0
DWIDTH 23 0
BBX 23 17 0 0
BITMAP
7E0180
7E0300
0C0300
0C0600
1E0600
070C00
030C00
471808
7E1818
3C3038
007078
006078
00E0D8
00C198
0183FC
0187FC
030018
ENDCHAR
STARTCHAR U+00BF
ENCODING 191
SWIDTH 443 0
DWIDTH 12 0
BBX 12 18 0 -5
BITMAP
0200
0700
0700
0200
0000
0200
0700
0380
0380
0F00
1E00
3C00
3800
7000
7040
38E0
1FE0
0F80
ENDCHAR
STARTCHAR U+00C0
ENCODING 192
SWIDTH 665 0
DWIDTH 18 0
BBX 18 22 0 0
BITMAP
038000
01C000
00C000
006000
000000
01C000
01C000
03E000
03E000
037000
077000
073800
0E3800
0E1800
0C1C00
1C1C00
1FFE00
3FFE00
380700
300700
700700
700380
ENDCHAR
STARTCHAR U+00C1
ENCODING 193
SWIDTH 665 0
DWIDTH 18 0
BBX 18 22 0 0
BITMAP
007000
00E000
00C000
018000
000000
01C000
01C000
03E000
03E000
037000
077000
073800
0E3800
0E1800
0C1C00
1C1C00
1FFE00
3FFE00
380700
300700
700700
700380
ENDCHAR
STARTCHAR U+00C2
ENCODING 194
SWIDTH 665 0
DWIDTH 18 0
BBX 18 22 0 0
BITMAP
01C000
03E000
036000
063000
000000
01C000
01C000
03E000
03E000
037000
077000
073800
0E3800
0E1800
0C1C00
1C1C00
1FFE00
3FFE00
380700
300700
700700
700380
ENDCHAR
STARTCHAR U+00C3
ENCODING 195
SWIDTH 665 0
DWIDTH 18 0
BBX 18 21 0 0
BITMAP
070000
0FF000
00E000
000000
01C000
01C000
03E000
03E000
037000
077000
073800
0E3800
0E1800
0C1C00
1C1C00
1FFE00
3FFE00
380700
300700
700700
700380
ENDCHAR
STARTCHAR U+00C4
ENCODING 196
SWIDTH 665 0
DWIDTH 18 0
BBX 18 22 0 0
BITMAP
021000
073800
073800
021000
000000
01C000
01C000
03E000
03E000
037000
077000
073800
0E3800
0E1800
0C1C00
1C1C00
1FFE00
3FFE00
380700
300700
700700
700380
ENDCHAR
STARTCHAR U+00C5
ENCODING 197
SWIDTH 665 0
DWIDTH 18 0
BBX 18 23 0 0
BITMAP
01C000
012000
032000
012000
01C000
000000
01C000
01C000
03E000
03E000
037000
077000
073800
0E3800
0E1800
0C1C00
1C1C00
1FFE00
3FFE00
380700
300700
700700
700380
ENDCHAR
STARTCHAR U+00C6
ENCODING 198
SWIDTH 886 0
DWIDTH 24 0
BBX 24 17 0 0
BITMAP
003FFE
007FFE
007E00
00EE00
00EE00
01CE00
03CE00
038FF8
070FF8
070E00
0FFE00
0FFE00
1C0E00
380E00
380E00
700FFE
700FFE
ENDCHAR
STARTCHAR U+00C7
ENCODING 199
SWIDTH 665 0
DWIDTH 18 0
BBX 18 23 0 -6
BITMAP
00FC00
07FE00
0F0300
1C0100
180000
380000
300000
300000
700000
300000
300000
380000
1C0000
1C0100
0F0300
07FE00
00F800
004000
00F000
003800
003800
01F000
01E000
ENDCHAR
STARTCHAR U+00C8
ENCODING 200
SWIDTH 554 0
DWIDTH 15 0
BBX 15 22 0 0
BITMAP
0700
0380
0180
00C0
0000
3FFC
3FFC
3800
3800
3800
3800
3800
3FF0
3FF0
3800
3800
3800
3800
3800
3800
3FFC
3FFC
ENDCHAR
STARTCHAR U+00C9
ENCODING 201
SWIDTH 554 0
DWIDTH 15 0
BBX 15 22 0 0
BITMAP
00E0
01C0
0180
0300
0000
3FFC
3FFC
3800
3800
3800
3800
3800
3FF0
3FF0
3800
3800
3800
3800
3800
3800
3FFC
3FFC
ENDCHAR
STARTCHAR U+00CA
ENCODING 202
SWIDTH 554 0
DWIDTH 15 0
BBX 15 22 0 0
BITMAP
0380
07C0
06C0
0C60
0000
3FFC
3FFC
3800
3800
3800
3800
3800
3FF0
3FF0
3800
3800
3800
3800
3800
3800
3FFC
3FFC
ENDCHAR
STARTCHAR U+00CB
ENCODING 203
SWIDTH 554 0
DWIDTH 15 0
BBX 15 22 0 0
BITMAP
0420
0E70
0E70
0420
0000
3FFC
3FFC
3800
3800
3800
3800
3800
3FF0
3FF0
3800
3800
3800
3800
3800
3800
3FFC
3FFC
ENDCHAR
STARTCHAR U+00CC
ENCODING 204
SWIDTH 295 0
DWIDTH 8 0
BBX 8 22 0 0
BITMAP
70
38
18
0C
00
38
38
38
38
38
38
38
38
38
38
38
38
38
38
38
38
38
ENDCHAR
STARTCHAR U+00CD
ENCODING 205
SWIDTH 295 0
DWIDTH 8 0
BBX 8 22 0 0
BITMAP
0E
1C
18
30
00
38
38
38
38
38
38
38
38
38
38
38
38
38
38
38
38
38
ENDCHAR
STARTCHAR U+00CE
ENCODING 206
SWIDTH 295 0
DWIDTH 8 0
BBX 8 22 0 0
BITMAP
00
00
00
00
00
00
00
00
00
00
00
00
00
00
00
00
00
00
00
00
00
00
ENDCHAR
STARTCHAR U+00CF
ENCODING 207
SWIDTH 295 0
DWIDTH 8 0
BBX 10 22 -1 0
BITMAP
4200
E700
E700
4200
0000
3800
3800
3800
3800
3800
3800
3800
3800
3800
3800
3800
3800
3800
3800
3800
3800
3800
ENDCHAR
STARTCHAR U+00D0
ENCODING 208
SWIDTH 702 0
DWIDTH 19 0
BBX 19 17 0 0
BITMAP
3FE000
3FFC00
381E00
380F00
380700
380380
380380
380180
7FC180
7FC180
380380
380380
380700
380F00
381E00
3FF800
3FE000
ENDCHAR
STARTCHAR U+00D1
ENCODING 209
SWIDTH 738 0
DWIDTH 20 0
BBX 20 21 0 0
BITMAP
01C000
03FC00
003800
000000
3801C0
3C01C0
3E01C0
3F01C0
3F81C0
3B81C0
39C1C0
38E1C0
38F1C0
3879C0
3839C0
381DC0
380FC0
3807C0
3807C0
3803C0
3801C0
ENDCHAR
STARTCHAR U+00D2
ENCODING 210
SWIDTH 775 0
DWIDTH 21 0
BBX 21 22 0 0
BITMAP
01C000
00E000
006000
003000
000000
00FC00
07FF00
0F0780
1C01C0
1800E0
3800E0
300070
300070
700070
300070
300070
380060
1800E0
1C01C0
0F0780
07FF00
01FC00
ENDCHAR
STARTCHAR U+00D3
ENCODING 211
SWIDTH 775 0
DWIDTH 21 0
BBX 21 22 0 0
BITMAP
001C00
003800
003000
006000
000000
00FC00
07FF00
0F0780
1C01C0
1800E0
3800E0
300070
300070
700070
300070
300070
380060
1800E0
1C01C0
0F0780
07FF00
01FC00
ENDCHAR
STARTCHAR U+00D4
ENCODING 212
SWIDTH 775 0
DWIDTH 21 0
BBX 21 22 0 0
BITMAP
007000
00F800
00D800
018C00
000000
00FC00
07FF00
0F0780
1C01C0
1800E0
3800E0
300070
300070
700070
300070
300070
380060
1800E0
1C01C0
0F0780
07FF00
01FC00
ENDCHAR
STARTCHAR U+00D5
ENCODING 213
SWIDTH 775 0
DWIDTH 21 0
BBX 21 21 0 0
BITMAP
01C000
03FC00
003800
000000
00FC00
07FF00
0F0780
1C01C0
1800E0
3800E0
300070
300070
700070
300070
300070
380060
1800E0
1C01C0
0F0780
07FF00
01FC00
ENDCHAR
STARTCHAR U+00D6
ENCODING 214
SWIDTH 775 0
DWIDTH 21 0
BBX 21 22 0 0
BITMAP
008400
01CE00
01CE00
008400
000000
00FC00
07FF00
0F0780
1C01C0
1800E0
3800E0
300070
300070
700070
300070
300070
380060
1800E0
1C01C0
0F0780
07FF00
01FC00
ENDCHAR
STARTCHAR U+00D7
ENCODING 215
SWIDTH 517 0
DWIDTH 14 0
BBX 14 14 0 0
BITMAP
1020
3870
1CE0
0FC0
0780
0780
0FC0
1CE0
3870
1020
0000
0000
0000
0000
ENDCHAR
STARTCHAR U+00D8
ENCODING 216
SWIDTH 775 0
DWIDTH 21 0
BBX 21 17 0 0
BITMAP
00FC20
07FF60
0F07C0
1C03C0
1807E0
380E60
301C70
303870
707070
30E070
31C070
3B8060
1F00E0
1E01C0
1F0780
3FFF00
10FC00
ENDCHAR
STARTCHAR U+00D9
ENCODING 217
SWIDTH 738 0
DWIDTH 20 0
BBX 20 22 0 0
BITMAP
01C000
00E000
006000
003000
000000
3801C0
3801C0
3801C0
3801C0
3801C0
3801C0
3801C0
3801C0
3801C0
3801C0
3801C0
1801C0
1C0380
1C0380
0F0F00
07FE00
01F800
ENDCHAR
STARTCHAR U+00DA
ENCODING 218
SWIDTH 738 0
DWIDTH 20 0
BBX 20 22 0 0
BITMAP
003800
007000
006000
00C000
000000
3801C0
3801C0
3801C0
3801C0
3801C0
3801C0
3801C0
3801C0
3801C0
3801C0
3801C0
1801C0
1C0380
1C0380
0F0F00
07FE00
01F800
ENDCHAR
STARTCHAR U+00DB
ENCODING 219
SWIDTH 738 0
DWIDTH 20 0
BBX 20 22 0 0
BITMAP
007000
00F800
00D800
018C00
000000
3801C0
3801C0
3801C0
3801C0
3801C0
3801C0
3801C0
3801C0
3801C0
3801C0
3801C0
1801C0
1C0380
1C0380
0F0F00
07FE00
01F800
ENDCHAR
STARTCHAR U+00DC
ENCODING 220
SWIDTH 738 0
DWIDTH 20 0
BBX 20 22 0 0
BITMAP
010800
039C00
039C00
010800
000000
3801C0
3801C0
3801C0
3801C0
3801C0
3801C0
3801C0
3801C0
3801C0
3801C0
3801C0
1801C0
1C0380
1C0380
0F0F00
07FE00
01F800
ENDCHAR
STARTCHAR U+00DD
ENCODING 221
SWIDTH 591 0
DWIDTH 16 0
BBX 16 22 0 0
BITMAP
00E0
01C0
0180
0300
0000
700E
701C
381C
1C38
1C30
0E70
06E0
07C0
03C0
0180
0180
0180
0180
0180
0180
0180
0180
ENDCHAR
STARTCHAR U+00DE
ENCODING 222
SWIDTH 554 0
DWIDTH 15 0
BBX 15 17 0 0
BITMAP
3800
3800
3800
3FE0
3FF8
383C
381C
381C
381C
381C
3838
3FF8
3FE0
3800
3800
3800
3800
ENDCHAR
STARTCHAR U+00DF
ENCODING 223
SWIDTH 517 0
DWIDTH 14 0
BBX 14 17 0 0
BITMAP
07C0
0FE0
1C70
3830
3830
3830
3870
3BE0
3BE0
3870
3838
3818
3818
3838
3838
3BF0
3BC0
ENDCHAR
STARTCHAR U+00E0
ENCODING 224
SWIDTH 480 0
DWIDTH 13 0
BBX 13 19 0 0
BITMAP
1C00
0E00
0600
0300
0000
0000
0F80
1FC0
30E0
2060
0070
07F0
1FF0
3C70
7070
7070
70F0
3FF0
1F70
ENDCHAR
STARTCHAR U+00E1
ENCODING 225
SWIDTH 480 0
DWIDTH 13 0
BBX 13 19 0 0
BITMAP
01C0
0380
0300
0600
0000
0000
0F80
1FC0
30E0
2060
0070
07F0
1FF0
3C70
7070
7070
70F0
3FF0
1F70
ENDCHAR
STARTCHAR U+00E2
ENCODING 226
SWIDTH 480 0
DWIDTH 13 0
BBX 13 19 0 0
BITMAP
0700
0F80
0D80
18C0
0000
0000
0F80
1FC0
30E0
2060
0070
07F0
1FF0
3C70
7070
7070
70F0
3FF0
1F70
ENDCHAR
STARTCHAR U+00E3
ENCODING 227
SWIDTH 480 0
DWIDTH 13 0
BBX 13 18 0 0
BITMAP
0E00
1FE0
01C0
0000
0000
0F80
1FC0
30E0
2060
0070
07F0
1FF0
3C70
7070
7070
70F0
3FF0
1F70
ENDCHAR
STARTCHAR U+00E4
ENCODING 228
SWIDTH 480 0
DWIDTH 13 0
BBX 13 19 0 0
BITMAP
0840
1CE0
1CE0
0840
0000
0000
0F80
1FC0
30E0
2060
0070
07F0
1FF0
3C70
7070
7070
70F0
3FF0
1F70
ENDCHAR
STARTCHAR U+00E5
ENCODING 229
SWIDTH 480 0
DWIDTH 13 0
BBX 13 20 0 0
BITMAP
0700
0480
0C80
0480
0700
0000
0000
0F80
1FC0
30E0
2060
0070
07F0
1FF0
3C70
7070
7070
70F0
3FF0
1F70
ENDCHAR
STARTCHAR U+00E6
ENCODING 230
SWIDTH 812 0
DWIDTH 22 0
BBX 22 13 0 0
BITMAP
0F8F80
1FDFE0
30F8E0
207070
007030
03FFF0
1FFFF0
3C6000
707000
707010
70F830
3FDFE0
1F87C0
ENDCHAR
STARTCHAR U+00E7
ENCODING 231
SWIDTH 480 0
DWIDTH 13 0
BBX 13 19 0 -6
BITMAP
07F0
0FF0
1C10
3800
3000
7000
7000
7000
3000
3800
1C10
0FF0
07F0
0180
03C0
00E0
00E0
07C0
0780
ENDCHAR
STARTCHAR U+00E8
ENCODING 232
SWIDTH 517 0
DWIDTH 14 0
BBX 14 19 0 0
BITMAP
0E00
0700
0300
0180
0000
0000
07C0
1FE0
3C70
3038
3038
7FF8
7FF8
7000
7000
3800
3C18
1FF8
07F8
ENDCHAR
STARTCHAR U+00E9
ENCODING 233
SWIDTH 517 0
DWIDTH 14 0
BBX 14 19 0 0
BITMAP
01C0
0380
0300
0600
0000
0000
07C0
1FE0
3C70
3038
3038
7FF8
7FF8
7000
7000
3800
3C18
1FF8
07F8
ENDCHAR
STARTCHAR U+00EA
ENCODING 234
SWIDTH 517 0
DWIDTH 14 0
BBX 14 19 0 0
BITMAP
0380
07C0
06C0
0C60
0000
0000
07C0
1FE0
3C70
3038
3038
7FF8
7FF8
7000
7000
3800
3C18
1FF8
07F8
ENDCHAR
STARTCHAR U+00EB
ENCODING 235
SWIDTH 517 0
DWIDTH 14 0
BBX 14 19 0 0
BITMAP
0840
1CE0
1CE0
0840
0000
0000
07C0
1FE0
3C70
3038
3038
7FF8
7FF8
7000
7000
3800
3C18
1FF8
07F8
ENDCHAR
STARTCHAR U+00EC
ENCODING 236
SWIDTH 258 0
DWIDTH 7 0
BBX 8 19 -1 0
BITMAP
E0
70
30
18
00
00
38
38
38
38
38
38
38
38
38
38
38
38
38
ENDCHAR
STARTCHAR U+00ED
ENCODING 237
SWIDTH 258 0
DWIDTH 7 0
BBX 7 19 0 0
BITMAP
00
00
00
00
00
00
00
00
00
00
00
00
00
00
00
00
00
00
00
ENDCHAR
STARTCHAR U+00EE
ENCODING 238
SWIDTH 258 0
DWIDTH 7 0
BBX 9 19 -1 0
BITMAP
3800
7C00
6C00
C600
0000
0000
3800
3800
3800
3800
3800
3800
3800
3800
3800
3800
3800
3800
3800
ENDCHAR
STARTCHAR U+00EF
ENCODING 239
SWIDTH 258 0
DWIDTH 7 0
BBX 9 19 -1 0
BITMAP
0000
0000
0000
0000
0000
0000
0000
0000
0000
0000
0000
0000
0000
0000
0000
0000
0000
0000
0000
ENDCHAR
STARTCHAR U+00F0
ENCODING 240
SWIDTH 517 0
DWIDTH 14 0
BBX 14 17 0 0
BITMAP
0660
0FC0
0FC0
1DE0
08E0
0070
07F0
1FF8
3878
3038
7018
7018
7038
3038
3870
1FE0
0F80
ENDCHAR
STARTCHAR U+00F1
ENCODING 241
SWIDTH 591 0
DWIDTH 16 0
BBX 16 18 0 0
BITMAP
0700
0FF0
00E0
0000
0000
3BE0
3FF0
3C38
3818
381C
381C
381C
381C
381C
381C
381C
381C
381C
ENDCHAR
STARTCHAR U+00F2
ENCODING 242
SWIDTH 591 0
DWIDTH 16 0
BBX 16 19 0 0
BITMAP
0700
0380
0180
00C0
0000
0000
07E0
0FF0
1C38
381C
300C
700E
700E
700E
300C
381C
1C38
0FF0
07E0
ENDCHAR
STARTCHAR U+00F3
ENCODING 243
SWIDTH 591 0
DWIDTH 16 0
BBX 16 19 0 0
BITMAP
00E0
01C0
0180
0300
0000
0000
07E0
0FF0
1C38
381C
300C
700E
700E
700E
300C
381C
1C38
0FF0
07E0
ENDCHAR
STARTCHAR U+00F4
ENCODING 244
SWIDTH 591 0
DWIDTH 16 0
BBX 16 19 0 0
BITMAP
01C0
03E0
0360
0630
0000
0000
07E0
0FF0
1C38
381C
300C
700E
700E
700E
300C
381C
1C38
0FF0
07E0
ENDCHAR
STARTCHAR U+00F5
ENCODING 245
SWIDTH 591 0
DWIDTH 16 0
BBX 16 18 0 0
BITMAP
0700
0FF0
00E0
0000
0000
07E0
0FF0
1C38
381C
300C
700E
700E
700E
300C
381C
1C38
0FF0
07E0
ENDCHAR
STARTCHAR U+00F6
ENCODING 246
SWIDTH 591 0
DWIDTH 16 0
BBX 16 19 0 0
BITMAP
0420
0E70
0E70
0420
0000
0000
07E0
0FF0
1C38
381C
300C
700E
700E
700E
300C
381C
1C38
0FF0
07E0
ENDCHAR
STARTCHAR U+00F7
ENCODING 247
SWIDTH 517 0
DWIDTH 14 0
BBX 14 16 0 0
BITMAP
0100
0380
0380
0100
0000
0000
3FF0
3FF0
0000
0000
0100
0380
0380
0100
0000
0000
ENDCHAR
STARTCHAR U+00F8
ENCODING 248
SWIDTH 591 0
DWIDTH 16 0
BBX 16 15 0 -1
BITMAP
0008
07EC
0FF8
1C38
387C
30CC
70CE
718E
730E
320C
3E1C
1C38
1FF0
37E0
1000
ENDCHAR
STARTCHAR U+00F9
ENCODING 249
SWIDTH 591 0
DWIDTH 16 0
BBX 16 19 0 0
BITMAP
0700
0380
0180
00C0
0000
0000
301C
301C
301C
301C
301C
301C
301C
301C
381C
381C
1C3C
1FFC
07DC
ENDCHAR
STARTCHAR U+00FA
ENCODING 250
SWIDTH 591 0
DWIDTH 16 0
BBX 16 19 0 0
BITMAP
00E0
01C0
0180
0300
0000
0000
301C
301C
301C
301C
301C
301C
301C
301C
381C
381C
1C3C
1FFC
07DC
ENDCHAR
STARTCHAR U+00FB
ENCODING 251
SWIDTH 591 0
DWIDTH 16 0
BBX 16 19 0 0
BITMAP
0380
07C0
06C0
0C60
0000
0000
301C
301C
301C
301C
301C
301C
301C
301C
381C
381C
1C3C
1FFC
07DC
ENDCHAR
STARTCHAR U+00FC
ENCODING 252
SWIDTH 591 0
DWIDTH 16 0
BBX 16 19 0 0
BITMAP
0420
0E70
0E70
0420
0000
0000
301C
301C
301C
301C
301C
301C
301C
301C
381C
381C
1C3C
1FFC
07DC
ENDCHAR
STARTCHAR U+00FD
ENCODING 253
SWIDTH 517 0
DWIDTH 14 0
BBX 14 24 0 -5
BITMAP
01C0
0380
0300
0600
0000
0000
6018
7038
7038
3030
3870
1860
1C60
1CE0
0CC0
0FC0
0780
0780
0380
0300
0300
0600
1E00
1C00
ENDCHAR
STARTCHAR U+00FE
ENCODING 254
SWIDTH 591 0
DWIDTH 16 0
BBX 16 22 0 -5
BITMAP
3800
3800
3800
3800
3BE0
3FF0
3C38
381C
381C
380C
380C
380C
381C
381C
3C38
3FF0
3BC0
3800
3800
3800
3800
3800
ENDCHAR
STARTCHAR U+00FF
ENCODING 255
SWIDTH 517 0
DWIDTH 14 0
BBX 14 24 0 -5
BITMAP
0840
1CE0
1CE0
0840
0000
0000
6018
7038
7038
3030
3870
1860
1C60
1CE0
0CC0
0FC0
0780
0780
0380
0300
0300
0600
1E00
1C00
ENDCHAR
STARTCHAR U+2013
ENCODING 8211
SWIDTH 480 0
DWIDTH 13 0
BBX 15 8 -1 0
BITMAP
FFF8
FFF8
0000
0000
0000
0000
0000
0000
ENDCHAR
STARTCHAR U+2014
ENCODING 8212
SWIDTH 960 0
DWIDTH 26 0
BBX 28 8 -1 0
BITMAP
FFFFFFC0
FFFFFFC0
00000000
00000000
00000000
00000000
00000000
00000000
ENDCHAR
STARTCHAR U+2018
ENCODING 8216
SWIDTH 222 0
DWIDTH 6 0
BBX 6 17 0 0
BITMAP
10
10
30
38
38
10
00
00
00
00
00
00
00
00
00
00
00
ENDCHAR
STARTCHAR U+2019
ENCODING 8217
SWIDTH 222 0
DWIDTH 6 0
BBX 6 17 0 0
BITMAP
10
38
38
10
10
20
00
00
00
00
00
00
00
00
00
00
00
ENDCHAR
STARTCHAR U+201C
ENCODING 8220
SWIDTH 406 0
DWIDTH 11 0
BBX 11 17 0 0
BITMAP
1180
1100
3300
3B80
3B80
1100
0000
0000
0000
0000
0000
0000
0000
0000
0000
0000
0000
ENDCHAR
STARTCHAR U+201D
ENCODING 8221
SWIDTH 406 0
DWIDTH 11 0
BBX 11 17 0 0
BITMAP
1100
3B80
3B80
1100
1100
2200
0000
0000
0000
0000
0000
0000
0000
0000
0000
0000
0000
ENDCHAR
STARTCHAR U+2022
ENCODING 8226
SWIDTH 406 0
DWIDTH 11 0
BBX 11 12 0 0
BITMAP
0400
0E00
1F00
3F80
1F00
0E00
0400
0000
0000
0000
0000
0000
ENDCHAR
STARTCHAR U+2026
ENCODING 8230
SWIDTH 886 0
DWIDTH 24 0
BBX 24 3 0 0
BITMAP
301818
381C1C
100808
ENDCHAR
STARTCHAR U+20AC
ENCODING 8364
SWIDTH 591 0
DWIDTH 16 0
BBX 16 17 0 0
BITMAP
01F8
03FE
0F06
0E00
1C00
1800
7FF0
7FF0
3800
3800
7FE0
7FE0
1800
1C00
0F06
07FE
01F8
ENDCHAR
ENDFONT
