STARTFONT 2.1
COMMENT Converted from Johnston100 W03 Regular.ttf at 38px with ttf2bdf.py (Pillow, 1-bit, no AA)
FONT -Misc-Johnston100-Medium-R-Normal--38-380-75-75-P-400-ISO10646-1
SIZE 38 75 75
FONTBOUNDINGBOX 40 44 -2 -10
STARTPROPERTIES 9
FOUNDRY "Misc"
FAMILY_NAME "Johnston100"
WEIGHT_NAME "Medium"
SLANT "R"
PIXEL_SIZE 38
RESOLUTION_X 75
RESOLUTION_Y 75
FONT_ASCENT 34
FONT_DESCENT 10
ENDPROPERTIES
CHARS 200
STARTCHAR space
ENCODING 32
SWIDTH 253 0
DWIDTH 10 0
BBX 10 44 0 -10
BITMAP
0000
0000
0000
0000
0000
0000
0000
0000
0000
0000
0000
0000
0000
0000
0000
0000
0000
0000
0000
0000
0000
0000
0000
0000
0000
0000
0000
0000
0000
0000
0000
0000
0000
0000
0000
0000
0000
0000
0000
0000
0000
0000
0000
0000
ENDCHAR
STARTCHAR !
ENCODING 33
SWIDTH 278 0
DWIDTH 11 0
BBX 11 26 0 0
BITMAP
1F00
1F00
1F00
1F00
1F00
1F00
1E00
1E00
0E00
0E00
0E00
0E00
0E00
0E00
0E00
0E00
0E00
0E00
0E00
0000
0000
0400
0E00
1F00
0E00
0400
ENDCHAR
STARTCHAR "
ENCODING 34
SWIDTH 404 0
DWIDTH 16 0
BBX 16 26 0 0
BITMAP
1C78
1C78
1C78
1C78
1C78
1C38
1C38
1C38
1C30
1830
0000
0000
0000
0000
0000
0000
0000
0000
0000
0000
0000
0000
0000
0000
0000
0000
ENDCHAR
STARTCHAR U+0023
ENCODING 35
SWIDTH 733 0
DWIDTH 29 0
BBX 29 26 0 0
BITMAP
00020100
000E0700
001E0E00
001C0E00
001C0E00
001C1E00
00381C00
0FFFFFF0
0FFFFFE0
0FFFFFE0
00703800
00703800
00707800
00E07000
00E07000
00E07000
3FFFFF80
3FFFFF80
7FFFFF80
01C0E000
0381C000
0381C000
0381C000
07838000
07038000
04020000
ENDCHAR
STARTCHAR $
ENCODING 36
SWIDTH 480 0
DWIDTH 19 0
BBX 19 31 0 -3
BITMAP
01E000
01E000
01E000
07FC00
0FFE00
1FFF00
1E0E00
3C0000
3C0000
3E0000
1F0000
1F8000
0FE000
07F800
03FE00
00FF00
003F80
000F80
000780
0007C0
0003C0
1003C0
380780
7C0780
3E1F00
1FFF00
0FFC00
07F800
01E000
01E000
01E000
ENDCHAR
STARTCHAR %
ENCODING 37
SWIDTH 707 0
DWIDTH 28 0
BBX 28 26 0 0
BITMAP
07C01C00
0FE01C00
1FF03800
3C783800
38387000
3838F000
3838E000
3C79E000
1FF1C000
0FE3C000
07C38000
00078000
00070000
000F0000
000E0000
001E1E00
001C7F80
003CFFC0
0038E3C0
0079C1C0
0071C0C0
00E1E1C0
00E0E3C0
01C0FFC0
01C07F80
03801E00
ENDCHAR
STARTCHAR &
ENCODING 38
SWIDTH 657 0
DWIDTH 26 0
BBX 26 26 0 0
BITMAP
00FC0000
01FF0000
03FF8000
07878000
0703C000
0F03C000
0F03C000
07838000
07878000
03DF0000
03FE0000
01FC0000
03F80000
0FFC0F00
1FBE1E00
1E1F1E00
3C0FBC00
3C07FC00
3C03F800
3C01F000
3C01F000
3F07F800
1FFFFC00
1FFFBE00
07FE1F00
03F80F80
ENDCHAR
STARTCHAR '
ENCODING 39
SWIDTH 227 0
DWIDTH 9 0
BBX 9 26 0 0
BITMAP
1C00
1C00
1C00
1C00
1C00
1C00
1C00
1C00
1C00
1800
0000
0000
0000
0000
0000
0000
0000
0000
0000
0000
0000
0000
0000
0000
0000
0000
ENDCHAR
STARTCHAR (
ENCODING 40
SWIDTH 253 0
DWIDTH 10 0
BBX 10 31 0 -3
BITMAP
0780
0700
0700
0E00
0E00
0E00
1E00
1C00
1C00
1C00
3C00
3C00
3C00
3C00
3C00
3C00
3C00
3C00
3C00
3C00
3C00
1C00
1C00
1C00
1E00
1E00
0E00
0F00
0700
0700
0780
ENDCHAR
STARTCHAR )
ENCODING 41
SWIDTH 253 0
DWIDTH 10 0
BBX 10 31 0 -3
BITMAP
7800
3800
3800
3C00
1C00
1E00
1E00
0E00
0E00
0E00
0F00
0F00
0F00
0F00
0F00
0F00
0F00
0F00
0F00
0F00
0F00
0E00
0E00
0E00
1E00
1C00
1C00
1C00
3800
3800
7800
ENDCHAR
STARTCHAR *
ENCODING 42
SWIDTH 379 0
DWIDTH 15 0
BBX 15 26 0 0
BITMAP
0380
0380
2388
3998
7DBC
1FF8
07E0
07C0
1FF0
79BC
3198
2388
0380
0380
0000
0000
0000
0000
0000
0000
0000
0000
0000
0000
0000
0000
ENDCHAR
STARTCHAR +
ENCODING 43
SWIDTH 505 0
DWIDTH 20 0
BBX 20 20 0 0
BITMAP
007000
007000
007000
007000
007000
007000
1FFFC0
1FFFC0
1FFFC0
007000
007000
007000
007000
007000
007000
000000
000000
000000
000000
000000
ENDCHAR
STARTCHAR ,
ENCODING 44
SWIDTH 227 0
DWIDTH 9 0
BBX 9 10 0 -4
BITMAP
0800
1C00
3E00
1E00
1E00
0C00
0C00
1800
0000
0000
ENDCHAR
STARTCHAR -
ENCODING 45
SWIDTH 379 0
DWIDTH 15 0
BBX 15 12 0 0
BITMAP
7FF8
7FF8
7FF8
0000
0000
0000
0000
0000
0000
0000
0000
0000
ENDCHAR
STARTCHAR .
ENCODING 46
SWIDTH 227 0
DWIDTH 9 0
BBX 9 5 0 0
BITMAP
0800
1C00
3E00
1E00
0800
ENDCHAR
STARTCHAR /
ENCODING 47
SWIDTH 303 0
DWIDTH 12 0
BBX 13 31 0 -3
BITMAP
0070
00F0
00F0
00E0
00E0
01E0
01C0
01C0
03C0
03C0
0380
0380
0780
0700
0700
0F00
0F00
0E00
0E00
1E00
1C00
1C00
3C00
3800
3800
3800
7800
7000
7000
F000
E000
ENDCHAR
STARTCHAR 0
ENCODING 48
SWIDTH 556 0
DWIDTH 22 0
BBX 22 26 0 0
BITMAP
007C00
01FF00
03FF80
07FF80
0F87C0
0F03C0
0F01E0
1E01E0
1E01E0
1E00E0
1E00F0
1E00F0
1E00F0
1E00F0
1E00F0
1E00F0
1E00E0
1E01E0
1E01E0
0F01E0
0F03C0
0F87C0
07FF80
03FF80
01FF00
00FC00
ENDCHAR
STARTCHAR 1
ENCODING 49
SWIDTH 278 0
DWIDTH 11 0
BBX 11 26 0 0
BITMAP
0200
0600
1E00
1E00
1E00
1E00
1E00
1E00
1E00
1E00
1E00
1E00
1E00
1E00
1E00
1E00
1E00
1E00
1E00
1E00
1E00
1E00
1E00
1E00
1E00
1E00
ENDCHAR
STARTCHAR 2
ENCODING 50
SWIDTH 480 0
DWIDTH 19 0
BBX 19 26 0 0
BITMAP
01F000
07FC00
0FFE00
1FFF00
1E1F80
180F80
100780
100780
000780
000780
000F00
000F00
001E00
001E00
003C00
007800
007800
00F000
01E000
01E000
03C000
078000
07FFC0
0FFFC0
1FFFC0
1FFFC0
ENDCHAR
STARTCHAR 3
ENCODING 51
SWIDTH 505 0
DWIDTH 20 0
BBX 20 26 0 0
BITMAP
3FFFC0
3FFF80
3FFF00
3FFF00
001E00
001E00
003C00
007800
007800
00F000
01FE00
01FF00
021F80
000780
0003C0
0003C0
0003C0
0003C0
0003C0
0003C0
1003C0
380780
7C1F00
3FFF00
1FFC00
07F000
ENDCHAR
STARTCHAR 4
ENCODING 52
SWIDTH 556 0
DWIDTH 22 0
BBX 22 26 0 0
BITMAP
000040
0000C0
0001C0
0001C0
0003C0
0007C0
000FC0
001FC0
003FC0
007BC0
00F3C0
00E3C0
01E3C0
03C3C0
0783C0
0F03C0
1FFFF8
3FFFF8
7FFFF8
0003C0
0003C0
0003C0
0003C0
0003C0
0003C0
0003C0
ENDCHAR
STARTCHAR 5
ENCODING 53
SWIDTH 505 0
DWIDTH 20 0
BBX 20 26 0 0
BITMAP
000000
000000
000000
000000
000000
000000
000000
000000
000000
000000
000000
000000
000000
000000
000000
000000
000000
000000
000000
000000
000000
000000
000000
000000
000000
000000
ENDCHAR
STARTCHAR 6
ENCODING 54
SWIDTH 505 0
DWIDTH 20 0
BBX 20 26 0 0
BITMAP
003E00
007C00
00F800
01F000
03E000
07C000
078000
0F0000
0F0000
1EFC00
1FFE00
3FFF80
3FFF80
3E0FC0
3C03C0
3C03C0
3801C0
3C01C0
3C01C0
3C03C0
3E03C0
1F0F80
1FFF80
0FFF00
07FE00
01F800
ENDCHAR
STARTCHAR 7
ENCODING 55
SWIDTH 480 0
DWIDTH 19 0
BBX 19 26 0 0
BITMAP
3FFFC0
3FFF80
3FFF80
3FFF80
000F00
000F00
001E00
001E00
003C00
003C00
003800
007800
007800
00F000
00F000
01E000
01E000
03C000
03C000
07C000
078000
0F8000
0F0000
0F0000
1E0000
1E0000
ENDCHAR
STARTCHAR 8
ENCODING 56
SWIDTH 505 0
DWIDTH 20 0
BBX 20 26 0 0
BITMAP
01F800
03FE00
07FF00
0F0F00
1E0780
1E0780
1E0780
1E0780
0F0F00
0F9F00
07FE00
03FC00
07FE00
0FFF00
1F0F80
1E07C0
3C03C0
3C01C0
3C01C0
3C03C0
3E03C0
1F0FC0
1FFF80
0FFF00
07FE00
01F800
ENDCHAR
STARTCHAR 9
ENCODING 57
SWIDTH 505 0
DWIDTH 20 0
BBX 20 26 0 0
BITMAP
01F800
07FE00
0FFF00
1FFF80
1F0FC0
3E07C0
3C03C0
3C03C0
3C01E0
3C01E0
3C01E0
3E01C0
1F07C0
1FFFC0
0FFFC0
07FF80
01F780
000780
000F00
001F00
001E00
003C00
007C00
00F800
01F000
07E000
ENDCHAR
STARTCHAR :
ENCODING 58
SWIDTH 278 0
DWIDTH 11 0
BBX 11 19 0 0
BITMAP
0400
0E00
1F00
0F00
0400
0000
0000
0000
0000
0000
0000
0000
0000
0000
0400
0E00
1F00
0F00
0400
ENDCHAR
STARTCHAR ;
ENCODING 59
SWIDTH 278 0
DWIDTH 11 0
BBX 11 23 0 -4
BITMAP
0400
0E00
1F00
0F00
0400
0000
0000
0000
0000
0000
0000
0000
0000
0000
0400
0E00
1F00
0F00
0F00
0600
0600
0C00
0000
ENDCHAR
STARTCHAR U+003C
ENCODING 60
SWIDTH 505 0
DWIDTH 20 0
BBX 20 23 0 0
BITMAP
0000C0
0001C0
0007C0
001FC0
007F00
01FE00
07F800
1FE000
1F8000
1E0000
1F8000
0FF000
03FC00
00FF00
003FC0
000FC0
0003C0
0000C0
000000
000000
000000
000000
000000
ENDCHAR
STARTCHAR =
ENCODING 61
SWIDTH 505 0
DWIDTH 20 0
BBX 20 18 0 0
BITMAP
1FFFC0
1FFFC0
1FFFC0
000000
000000
000000
000000
000000
1FFFC0
1FFFC0
1FFFC0
000000
000000
000000
000000
000000
000000
000000
ENDCHAR
STARTCHAR U+003E
ENCODING 62
SWIDTH 505 0
DWIDTH 20 0
BBX 20 23 0 0
BITMAP
100000
1C0000
1F0000
1FC000
0FE000
03F800
00FE00
007F80
001FC0
0007C0
001FC0
007F80
03FE00
0FF800
1FC000
1F0000
1C0000
100000
000000
000000
000000
000000
000000
ENDCHAR
STARTCHAR ?
ENCODING 63
SWIDTH 429 0
DWIDTH 17 0
BBX 17 26 0 0
BITMAP
07E000
1FF800
3FFC00
7FFC00
7C3E00
301E00
201E00
001E00
001E00
003E00
007C00
01F800
03F000
07C000
078000
078000
07C000
038000
010000
000000
010000
038000
03C000
07C000
038000
010000
ENDCHAR
STARTCHAR @
ENCODING 64
SWIDTH 935 0
DWIDTH 37 0
BBX 37 33 0 -7
BITMAP
0001FF0000
000FFFE000
003FFFF000
00FE01FC00
01F8003E00
03E0001F00
03C0000F00
0780FC4780
0F03FFC380
0E07FFC3C0
1E0F83C1C0
1C1E0381C0
1C1E0381C0
1C1C0381C0
383C0381C0
383C0381C0
38380381C0
38380781C0
38380781C0
383C0783C0
3C3C070380
1C1E078F00
1C1F1FFF00
1E0FFFFE00
0E07F9F800
0F01F00000
0780000000
07C0000000
03E0008000
01FC038000
007FFF8000
003FFF8000
0007FE0000
ENDCHAR
STARTCHAR A
ENCODING 65
SWIDTH 657 0
DWIDTH 26 0
BBX 26 26 0 0
BITMAP
001C0000
003E0000
003E0000
003F0000
007F0000
007F8000
00F78000
00F78000
00E3C000
01E3C000
01E1E000
03C1E000
03C1E000
03C0F000
0780F000
07807800
0FFFF800
0FFFF800
0FFFFC00
1E003C00
1E001E00
1C001E00
3C001E00
3C000F00
78000F00
78000F80
ENDCHAR
STARTCHAR B
ENCODING 66
SWIDTH 581 0
DWIDTH 23 0
BBX 23 26 0 0
BITMAP
0FFC00
0FFF00
0FFF80
0E07C0
0E03C0
0E03C0
0E03C0
0E03C0
0E03C0
0E03C0
0E0780
0FFF00
0FFFC0
0FFFE0
0E01F0
0E00F0
0E0078
0E0078
0E0078
0E0078
0E0078
0E00F0
0E01F0
0FFFE0
0FFFC0
0FFF00
ENDCHAR
STARTCHAR C
ENCODING 67
SWIDTH 657 0
DWIDTH 26 0
BBX 26 26 0 0
BITMAP
000FF000
007FFC00
00FFFF00
03F80F00
07C00300
07800000
0F000000
1E000000
1E000000
1E000000
3C000000
3C000000
3C000000
3C000000
3C000000
3C000000
1E000000
1E000000
1F000000
0F000000
07800000
07E00300
03F80F00
00FFFF00
007FFC00
000FF000
ENDCHAR
STARTCHAR D
ENCODING 68
SWIDTH 707 0
DWIDTH 28 0
BBX 28 26 0 0
BITMAP
0FFF0000
0FFFC000
0FFFF000
0E01F800
0E007C00
0E003E00
0E001F00
0E000F00
0E000780
0E000780
0E000780
0E000780
0E000780
0E000780
0E000780
0E000780
0E000780
0E000780
0E000F00
0E001F00
0E003E00
0E007C00
0E01F800
0FFFF000
0FFFC000
0FFE0000
ENDCHAR
STARTCHAR E
ENCODING 69
SWIDTH 556 0
DWIDTH 22 0
BBX 22 26 0 0
BITMAP
0FFFF0
0FFFF0
0FFFF0
0E0000
0E0000
0E0000
0E0000
0E0000
0E0000
0E0000
0FFF80
0FFF80
0FFF80
0E0000
0E0000
0E0000
0E0000
0E0000
0E0000
0E0000
0E0000
0E0000
0E0000
0FFFF0
0FFFF0
0FFFF0
ENDCHAR
STARTCHAR F
ENCODING 70
SWIDTH 505 0
DWIDTH 20 0
BBX 20 26 0 0
BITMAP
0FFFE0
0FFFE0
0FFFE0
0E0000
0E0000
0E0000
0E0000
0E0000
0E0000
0E0000
0FFF00
0FFF00
0FFF00
0E0000
0E0000
0E0000
0E0000
0E0000
0E0000
0E0000
0E0000
0E0000
0E0000
0E0000
0E0000
0E0000
ENDCHAR
STARTCHAR G
ENCODING 71
SWIDTH 707 0
DWIDTH 28 0
BBX 28 26 0 0
BITMAP
000FF000
007FFE00
00FFFF80
03F80F80
07E00380
07800080
0F000000
1F000000
1E000000
1E000000
3C000000
3C00FF80
3C00FF80
3C00FF80
3C000780
3C000780
1E000780
1E000780
1F000780
0F000780
07800780
07E00780
03F80F80
00FFFF80
007FFF00
000FF000
ENDCHAR
STARTCHAR H
ENCODING 72
SWIDTH 707 0
DWIDTH 28 0
BBX 28 26 0 0
BITMAP
0E000F00
0E000F00
0E000F00
0E000F00
0E000F00
0E000F00
0E000F00
0E000F00
0E000F00
0E000F00
0FFFFF00
0FFFFF00
0FFFFF00
0E000F00
0E000F00
0E000F00
0E000F00
0E000F00
0E000F00
0E000F00
0E000F00
0E000F00
0E000F00
0E000F00
0E000F00
0E000F00
ENDCHAR
STARTCHAR I
ENCODING 73
SWIDTH 278 0
DWIDTH 11 0
BBX 11 26 0 0
BITMAP
0E00
0E00
0E00
0E00
0E00
0E00
0E00
0E00
0E00
0E00
0E00
0E00
0E00
0E00
0E00
0E00
0E00
0E00
0E00
0E00
0E00
0E00
0E00
0E00
0E00
0E00
ENDCHAR
STARTCHAR J
ENCODING 74
SWIDTH 455 0
DWIDTH 18 0
BBX 18 26 0 0
BITMAP
001E00
001E00
001E00
001E00
001E00
001E00
001E00
001E00
001E00
001E00
001E00
001E00
001E00
001E00
001E00
001E00
001E00
001E00
001E00
001E00
101E00
783C00
7C7C00
3FF800
1FF000
07E000
ENDCHAR
STARTCHAR K
ENCODING 75
SWIDTH 606 0
DWIDTH 24 0
BBX 24 26 0 0
BITMAP
0E007E
0E00F8
0E01F0
0E03E0
0E07C0
0E0F80
0E1F00
0E3E00
0E7C00
0EF800
0FF000
0FE000
0FF000
0FF800
0EFC00
0E7C00
0E3E00
0E1F00
0E0F80
0E07C0
0E03E0
0E01F0
0E00F8
0E00FC
0E007C
0E003E
ENDCHAR
STARTCHAR L
ENCODING 76
SWIDTH 531 0
DWIDTH 21 0
BBX 21 26 0 0
BITMAP
0E0000
0E0000
0E0000
0E0000
0E0000
0E0000
0E0000
0E0000
0E0000
0E0000
0E0000
0E0000
0E0000
0E0000
0E0000
0E0000
0E0000
0E0000
0E0000
0E0000
0E0000
0E0000
0E0000
0FFFF0
0FFFF0
0FFFF0
ENDCHAR
STARTCHAR M
ENCODING 77
SWIDTH 834 0
DWIDTH 33 0
BBX 33 26 0 0
BITMAP
0F00007800
0F8000F800
0FC001F800
0FC001F800
0FE003F800
0FF007F800
0EF80FF800
0E7C1F7800
0E3C3E7800
0E3E3C7800
0E1F7C7800
0E0FF87800
0E07F07800
0E03E07800
0E03C07800
0E01C07800
0E00807800
0E00007800
0E00007800
0E00007800
0E00007800
0E00007800
0E00007800
0E00007800
0E00007800
0E00007800
ENDCHAR
STARTCHAR N
ENCODING 78
SWIDTH 758 0
DWIDTH 30 0
BBX 30 26 0 0
BITMAP
0F0003C0
0F0003C0
0F8003C0
0FC003C0
0FE003C0
0FE003C0
0FF003C0
0EF803C0
0E7C03C0
0E3C03C0
0E3E03C0
0E1F03C0
0E0F83C0
0E0783C0
0E03C3C0
0E03E3C0
0E01F3C0
0E00FBC0
0E007BC0
0E007FC0
0E003FC0
0E001FC0
0E000FC0
0E000FC0
0E0007C0
0E0003C0
ENDCHAR
STARTCHAR O
ENCODING 79
SWIDTH 783 0
DWIDTH 31 0
BBX 31 26 0 0
BITMAP
000FE000
007FFC00
00FFFF00
03F01F80
07C007C0
078003E0
0F0001E0
1F0000F0
1E0000F0
1E000078
3C000078
3C000078
3C000078
3C000078
3C000078
3C000078
1E000078
1E0000F0
1F0000F0
0F0001E0
078003E0
07C007C0
03F81F80
00FFFF00
007FFC00
000FE000
ENDCHAR
STARTCHAR P
ENCODING 80
SWIDTH 556 0
DWIDTH 22 0
BBX 22 26 0 0
BITMAP
0FFF00
0FFFC0
0FFFE0
0E03F0
0E00F0
0E00F0
0E0078
0E0078
0E0078
0E00F0
0E00F0
0E03E0
0FFFE0
0FFF80
0FFE00
0E0000
0E0000
0E0000
0E0000
0E0000
0E0000
0E0000
0E0000
0E0000
0E0000
0E0000
ENDCHAR
STARTCHAR Q
ENCODING 81
SWIDTH 783 0
DWIDTH 31 0
BBX 31 27 0 -1
BITMAP
000FE000
007FFC00
00FFFF00
03F01F80
07C007C0
078003E0
0F0001E0
1F0000F0
1E0000F0
1E000078
3C000078
3C000078
3C000078
3C000078
3C000078
3C000078
1E000078
1E0008F0
1F001CF0
0F003FE0
07801FE0
07C00FC0
03F81FE0
00FFFFF0
007FFCF0
000FE060
00000020
ENDCHAR
STARTCHAR R
ENCODING 82
SWIDTH 581 0
DWIDTH 23 0
BBX 23 26 0 0
BITMAP
0FFC00
0FFF00
0FFF80
0E07C0
0E03E0
0E01E0
0E01E0
0E01E0
0E01E0
0E03E0
0E07C0
0FFFC0
0FFF80
0FFE00
0E3E00
0E1F00
0E1F00
0E0F80
0E07C0
0E03C0
0E03E0
0E01F0
0E00F0
0E00F8
0E007C
0E003E
ENDCHAR
STARTCHAR S
ENCODING 83
SWIDTH 480 0
DWIDTH 19 0
BBX 19 26 0 0
BITMAP
03F000
0FFC00
1FFE00
1E1E00
3C0C00
3C0000
3C0000
3E0000
1F0000
1FC000
0FF000
07FC00
01FE00
007F00
001F80
000F80
0007C0
0007C0
0003C0
1003C0
380780
7C0780
3E1F00
1FFE00
0FFC00
03F000
ENDCHAR
STARTCHAR T
ENCODING 84
SWIDTH 556 0
DWIDTH 22 0
BBX 22 26 0 0
BITMAP
7FFFF8
7FFFF8
7FFFF8
007800
007800
007800
007800
007800
007800
007800
007800
007800
007800
007800
007800
007800
007800
007800
007800
007800
007800
007800
007800
007800
007800
007800
ENDCHAR
STARTCHAR U
ENCODING 85
SWIDTH 733 0
DWIDTH 29 0
BBX 29 26 0 0
BITMAP
1E0003C0
1E0003C0
1E0003C0
1E0003C0
1E0003C0
1E0003C0
1E0003C0
1E0003C0
1E0003C0
1E0003C0
1E0003C0
1E0003C0
1E0003C0
1E0003C0
1E0003C0
1E0003C0
1E0003C0
0F0003C0
0F000380
0F000780
07800F80
07C01F00
03F07E00
01FFFC00
007FF800
001FC000
ENDCHAR
STARTCHAR V
ENCODING 86
SWIDTH 606 0
DWIDTH 24 0
BBX 24 26 0 0
BITMAP
78001E
7C001E
3C001E
3C003C
3E003C
1E003C
1E0078
0F0078
0F0078
0F00F0
0780F0
0780E0
0781E0
03C1E0
03C3C0
01E3C0
01E3C0
01E780
00F780
00F780
007F00
007F00
007E00
003E00
003E00
003C00
ENDCHAR
STARTCHAR W
ENCODING 87
SWIDTH 935 0
DWIDTH 37 0
BBX 37 26 0 0
BITMAP
3C000000F0
3C007801E0
3C00F801E0
3C00F801E0
1E00FC01E0
1E01FC03C0
1E01FC03C0
0F01DE03C0
0F03DE0380
0F03CE0780
0F038F0780
07838F0780
07878F0F00
0787878F00
03C7078F00
03CF078E00
03CF039E00
01CE03DE00
01EE03DE00
01FE01DC00
01FC01FC00
00FC01FC00
00FC01F800
00FC00F800
007800F800
007800F800
ENDCHAR
STARTCHAR X
ENCODING 88
SWIDTH 657 0
DWIDTH 26 0
BBX 26 26 0 0
BITMAP
7C001F00
3E003E00
1E003C00
0F007800
0F80F800
07C1F000
03E1E000
01E3E000
01F7C000
00FF8000
007F0000
003F0000
003E0000
007F0000
007F8000
00FF8000
01F7C000
01E3E000
03C1F000
07C0F000
0F807800
0F007C00
1E003E00
3E001F00
7C000F00
78000F80
ENDCHAR
STARTCHAR Y
ENCODING 89
SWIDTH 581 0
DWIDTH 23 0
BBX 23 26 0 0
BITMAP
78003C
3C0078
3C0078
1E00F0
1F01E0
0F01E0
0783C0
0783C0
03C780
01E700
01EF00
00FE00
00FE00
007C00
003800
003800
003800
003800
003800
003800
003800
003800
003800
003800
003800
003800
ENDCHAR
STARTCHAR Z
ENCODING 90
SWIDTH 606 0
DWIDTH 24 0
BBX 24 26 0 0
BITMAP
3FFFFE
3FFFFC
3FFFF8
0000F8
0001F0
0003E0
0003E0
0007C0
000F80
000F80
001F00
003E00
003E00
007C00
00F800
00F800
01F000
03E000
03E000
07C000
078000
0F8000
1F0000
1FFFFE
3FFFFE
7FFFFE
ENDCHAR
STARTCHAR [
ENCODING 91
SWIDTH 328 0
DWIDTH 13 0
BBX 13 35 0 -5
BITMAP
1FE0
1FE0
1FE0
1E00
1E00
1E00
1E00
1E00
1E00
1E00
1E00
1E00
1E00
1E00
1E00
1E00
1E00
1E00
1E00
1E00
1E00
1E00
1E00
1E00
1E00
1E00
1E00
1E00
1E00
1E00
1E00
1E00
1FE0
1FE0
1FE0
ENDCHAR
STARTCHAR \
ENCODING 92
SWIDTH 303 0
DWIDTH 12 0
BBX 13 31 0 -3
BITMAP
F000
F000
7000
7000
7800
3800
3800
3C00
3C00
1C00
1C00
1E00
0E00
0E00
0F00
0F00
0700
0700
0780
0380
0380
03C0
01C0
01C0
01C0
01E0
00E0
00E0
00F0
0070
0070
ENDCHAR
STARTCHAR ]
ENCODING 93
SWIDTH 328 0
DWIDTH 13 0
BBX 13 35 0 -5
BITMAP
3FC0
3FC0
3FC0
03C0
03C0
03C0
03C0
03C0
03C0
03C0
03C0
03C0
03C0
03C0
03C0
03C0
03C0
03C0
03C0
03C0
03C0
03C0
03C0
03C0
03C0
03C0
03C0
03C0
03C0
03C0
03C0
03C0
3FC0
3FC0
3FC0
ENDCHAR
STARTCHAR ^
ENCODING 94
SWIDTH 556 0
DWIDTH 22 0
BBX 22 26 0 0
BITMAP
007800
00FC00
01FE00
01CE00
03CF00
078780
0F0380
0F03C0
1E01E0
3C00F0
000000
000000
000000
000000
000000
000000
000000
000000
000000
000000
000000
000000
000000
000000
000000
000000
ENDCHAR
STARTCHAR _
ENCODING 95
SWIDTH 480 0
DWIDTH 19 0
BBX 21 5 -1 -5
BITMAP
000000
000000
000000
FFFFE0
FFFFE0
ENDCHAR
STARTCHAR `
ENCODING 96
SWIDTH 429 0
DWIDTH 17 0
BBX 18 26 0 0
BITMAP
FFFF80
FFFF80
FFFF80
E00380
E00380
E00380
E00380
E00380
E00380
E00380
E00380
E00380
E00380
E00380
E00380
E00380
E00380
E00380
E00380
E00380
E00380
E00380
E00380
FFFF80
FFFF80
FFFF80
ENDCHAR
STARTCHAR a
ENCODING 97
SWIDTH 505 0
DWIDTH 20 0
BBX 20 19 0 0
BITMAP
07F800
0FFC00
1FFE00
1C1F00
100F00
000780
000780
007F80
03FF80
0FFF80
1F8780
3E0780
3C0780
3C0780
3C0F80
3C1F80
1FFF80
1FF780
07C780
ENDCHAR
STARTCHAR b
ENCODING 98
SWIDTH 581 0
DWIDTH 23 0
BBX 23 26 0 0
BITMAP
1E0000
1E0000
1E0000
1E0000
1E0000
1E0000
1E0000
1EFE00
1FFF80
1FFFC0
1F03E0
1E01F0
1E00F0
1E0078
1E0078
1E0078
1E0078
1E0078
1E0078
1E0078
1E00F0
1E01F0
1F03E0
1FFFC0
1FFF80
1CFE00
ENDCHAR
STARTCHAR c
ENCODING 99
SWIDTH 480 0
DWIDTH 19 0
BBX 19 19 0 0
BITMAP
00FE00
03FF80
07FF80
0F8180
1F0080
1E0000
3C0000
3C0000
3C0000
3C0000
3C0000
3C0000
3C0000
1E0000
1F0080
0F8180
07FF80
03FF80
007F00
ENDCHAR
STARTCHAR d
ENCODING 100
SWIDTH 581 0
DWIDTH 23 0
BBX 23 26 0 0
BITMAP
0000F0
0000F0
0000F0
0000F0
0000F0
0000F0
0000F0
00FEF0
03FFF0
07FFF0
0F81F0
1F00F0
1E00F0
3C00F0
3C00F0
3C00F0
3C00F0
3C00F0
3C00F0
3C00F0
1E00F0
1F00F0
0F81F0
07FFF0
03FFF0
00FEF0
ENDCHAR
STARTCHAR e
ENCODING 101
SWIDTH 531 0
DWIDTH 21 0
BBX 21 19 0 0
BITMAP
00FC00
03FF00
07FF80
0F87C0
1E03C0
1E01E0
3C01E0
3C01E0
3FFFE0
3FFFE0
3FFFE0
3C0000
3C0000
1C0000
1E0060
0F81E0
07FFE0
03FFE0
00FF00
ENDCHAR
STARTCHAR f
ENCODING 102
SWIDTH 379 0
DWIDTH 15 0
BBX 15 26 0 0
BITMAP
00FC
03FC
07FC
0F80
0F00
0E00
0E00
7FFC
7FFC
7FFC
0E00
0E00
0E00
0E00
0E00
0E00
0E00
0E00
0E00
0E00
0E00
0E00
0E00
0E00
0E00
0E00
ENDCHAR
STARTCHAR g
ENCODING 103
SWIDTH 505 0
DWIDTH 20 0
BBX 20 26 0 -7
BITMAP
03FFE0
0FFFE0
1FFFE0
3E1F00
3C0700
380780
380780
380780
3C0700
1E1F00
0FFE00
07FC00
0FF000
1E0000
1F0000
0FF000
07FE00
1FFF80
3C1FC0
7803C0
7001E0
7001E0
7C03C0
3FFFC0
1FFF80
07FC00
ENDCHAR
STARTCHAR h
ENCODING 104
SWIDTH 581 0
DWIDTH 23 0
BBX 23 26 0 0
BITMAP
1E0000
1E0000
1E0000
1E0000
1E0000
1E0000
1E0000
1EFE00
1FFF80
1FFFC0
1F03E0
1E01E0
1E00F0
1E00F0
1E00F0
1E00F0
1E00F0
1E00F0
1E00F0
1E00F0
1E00F0
1E00F0
1E00F0
1E00F0
1E00F0
1E00F0
ENDCHAR
STARTCHAR i
ENCODING 105
SWIDTH 253 0
DWIDTH 10 0
BBX 10 25 0 0
BITMAP
0000
0C00
1E00
1E00
0C00
0000
1E00
1E00
1E00
1E00
1E00
1E00
1E00
1E00
1E00
1E00
1E00
1E00
1E00
1E00
1E00
1E00
1E00
1E00
1E00
ENDCHAR
STARTCHAR j
ENCODING 106
SWIDTH 253 0
DWIDTH 10 0
BBX 11 32 -1 -7
BITMAP
0400
0E00
1F00
0E00
0400
0000
0F00
0F00
0F00
0F00
0F00
0F00
0F00
0F00
0F00
0F00
0F00
0F00
0F00
0F00
0F00
0F00
0F00
0F00
0F00
0F00
0F00
0E00
1E00
FE00
FC00
F800
ENDCHAR
STARTCHAR k
ENCODING 107
SWIDTH 505 0
DWIDTH 20 0
BBX 20 26 0 0
BITMAP
1E0000
1E0000
1E0000
1E0000
1E0000
1E0000
1E0000
1E03E0
1E07C0
1E0F80
1E3F00
1E7C00
1EF800
1FF000
1FE000
1FC000
1FE000
1FF000
1EF800
1E7C00
1E3E00
1E1F00
1E0F80
1E07C0
1E03E0
1E01F0
ENDCHAR
STARTCHAR l
ENCODING 108
SWIDTH 303 0
DWIDTH 12 0
BBX 12 26 0 0
BITMAP
1C00
1C00
1C00
1C00
1C00
1C00
1C00
1C00
1C00
1C00
1C00
1C00
1C00
1C00
1C00
1C00
1C00
1C00
1C00
1C00
1C00
1E00
1E00
0FF0
0FF0
03F0
ENDCHAR
STARTCHAR m
ENCODING 109
SWIDTH 884 0
DWIDTH 35 0
BBX 35 19 0 0
BITMAP
1E7E07F000
1FFF9FFC00
1FFFFFFE00
1F83FC1E00
1E01F00F00
1E01E00F00
1E00E00700
1E00F00700
1E00F00700
1E00F00700
1E00F00700
1E00F00700
1E00F00700
1E00F00700
1E00F00700
1E00F00700
1E00F00700
1E00F00700
1E00F00700
ENDCHAR
STARTCHAR n
ENCODING 110
SWIDTH 581 0
DWIDTH 23 0
BBX 23 19 0 0
BITMAP
1EFE00
1FFF80
1FFFC0
1F03E0
1E01E0
1E00F0
1E00F0
1E00F0
1E00F0
1E00F0
1E00F0
1E00F0
1E00F0
1E00F0
1E00F0
1E00F0
1E00F0
1E00F0
1E00F0
ENDCHAR
STARTCHAR o
ENCODING 111
SWIDTH 581 0
DWIDTH 23 0
BBX 23 19 0 0
BITMAP
00FE00
03FF80
07FFC0
0F83E0
1F01F0
1E00F8
3C0078
3C0078
3C0038
3C0038
3C0038
3C0078
3C0078
1E00F0
1F00F0
0F83E0
07FFC0
03FF80
00FE00
ENDCHAR
STARTCHAR p
ENCODING 112
SWIDTH 581 0
DWIDTH 23 0
BBX 23 26 0 -7
BITMAP
1CFE00
1FFF80
1FFFC0
1F03E0
1E01F0
1E00F0
1E0078
1E0078
1E0078
1E0078
1E0078
1E0078
1E0078
1E00F0
1E01F0
1F03E0
1FFFC0
1FFF80
1EFE00
1E0000
1E0000
1E0000
1E0000
1E0000
1E0000
1E0000
ENDCHAR
STARTCHAR q
ENCODING 113
SWIDTH 581 0
DWIDTH 23 0
BBX 23 26 0 -7
BITMAP
00FEF0
03FFF0
07FFF0
0F81F0
1F00F0
1E00F0
3C00F0
3C00F0
3C00F0
3C00F0
3C00F0
3C00F0
3C00F0
1E00F0
1F00F0
0F81F0
07FFF0
03FFF0
00FEF0
0000F0
0000F0
0000F0
0000F0
0000F0
0000F0
0000F0
ENDCHAR
STARTCHAR r
ENCODING 114
SWIDTH 379 0
DWIDTH 15 0
BBX 15 19 0 0
BITMAP
1E7E
1FFE
1FFE
1F80
1E00
1E00
1E00
1E00
1E00
1E00
1E00
1E00
1E00
1E00
1E00
1E00
1E00
1E00
1E00
ENDCHAR
STARTCHAR s
ENCODING 115
SWIDTH 455 0
DWIDTH 18 0
BBX 18 19 0 0
BITMAP
03F800
0FFE00
1FFE00
3E0E00
3C0200
3C0000
3C0000
3F8000
1FF800
0FFE00
03FF00
001F00
000F00
000780
200700
3C0F00
3FFF00
3FFE00
0FF800
ENDCHAR
STARTCHAR t
ENCODING 116
SWIDTH 404 0
DWIDTH 16 0
BBX 16 23 0 0
BITMAP
0E00
0E00
0E00
0E00
7FFE
7FFE
7FFE
0E00
0E00
0E00
0E00
0E00
0E00
0E00
0E00
0E00
0E00
0E00
0F00
0F80
07FE
03FE
01FE
ENDCHAR
STARTCHAR u
ENCODING 117
SWIDTH 581 0
DWIDTH 23 0
BBX 23 19 0 0
BITMAP
1C00F0
1C00F0
1C00F0
1C00F0
1C00F0
1C00F0
1C00F0
1C00F0
1C00F0
1C00F0
1C00F0
1C00F0
1E00F0
1E00F0
1F01F0
0F83F0
07FFF0
03FEF0
00FCF0
ENDCHAR
STARTCHAR v
ENCODING 118
SWIDTH 531 0
DWIDTH 21 0
BBX 21 19 0 0
BITMAP
7800F0
7801E0
3C01E0
3C01E0
3C03C0
1E03C0
1E0780
0F0780
0F0700
070F00
078F00
078E00
03DE00
03DC00
01FC00
01F800
00F800
00F800
00F000
ENDCHAR
STARTCHAR w
ENCODING 119
SWIDTH 834 0
DWIDTH 33 0
BBX 33 19 0 0
BITMAP
7801C00F00
7803E01E00
3C03E01E00
3C07E01E00
3C07F03C00
1E07703C00
1E0F703C00
1E0E783800
0F0E387800
0F1E3C7800
0F1C3C7000
079C1CF000
07BC1EF000
07B81EE000
03F80FE000
03F00FE000
03F007C000
01F007C000
01E007C000
ENDCHAR
STARTCHAR x
ENCODING 120
SWIDTH 505 0
DWIDTH 20 0
BBX 20 19 0 0
BITMAP
3C03C0
3E0780
1E0F00
0F1F00
0F9E00
07FC00
03F800
01F800
01F000
01F000
03F800
03FC00
07BE00
0F1E00
1F0F00
1E0780
3C07C0
7803C0
7801E0
ENDCHAR
STARTCHAR y
ENCODING 121
SWIDTH 531 0
DWIDTH 21 0
BBX 21 26 0 -7
BITMAP
7800F0
7801E0
3C01E0
3C01E0
3C03C0
1E03C0
1E0380
0F0780
0F0780
070F00
078F00
078E00
03DE00
03DC00
01DC00
01FC00
01F800
00F800
00F000
007000
00F000
00E000
01E000
0FC000
0F8000
0F0000
ENDCHAR
STARTCHAR z
ENCODING 122
SWIDTH 455 0
DWIDTH 18 0
BBX 18 19 0 0
BITMAP
3FFF80
3FFF00
3FFF00
003E00
003C00
007C00
007800
00F800
01F000
01E000
03E000
07C000
07C000
0F8000
0F0000
1F0000
3FFF00
3FFF00
7FFF00
ENDCHAR
STARTCHAR {
ENCODING 123
SWIDTH 354 0
DWIDTH 14 0
BBX 14 33 0 -3
BITMAP
00F0
03F0
0380
0780
0780
0780
0780
0780
0780
0780
0780
0700
0700
0F00
1F00
3E00
3C00
3E00
1F00
0F00
0700
0780
0780
0780
0780
0780
0780
0780
0780
0780
0380
03F0
00F0
ENDCHAR
STARTCHAR |
ENCODING 124
SWIDTH 227 0
DWIDTH 9 0
BBX 9 38 0 -10
BITMAP
1C00
1C00
1C00
1C00
1C00
1C00
1C00
1C00
1C00
1C00
1C00
1C00
1C00
1C00
1C00
1C00
1C00
1C00
1C00
1C00
1C00
1C00
1C00
1C00
1C00
1C00
1C00
1C00
1C00
1C00
1C00
1C00
1C00
1C00
1C00
1C00
1C00
1C00
ENDCHAR
STARTCHAR }
ENCODING 125
SWIDTH 354 0
DWIDTH 14 0
BBX 14 33 0 -3
BITMAP
3C00
3E00
0F00
0700
0700
0700
0700
0700
0700
0700
0700
0780
0780
0380
03E0
01F0
00F0
01F0
03E0
03C0
0780
0780
0700
0700
0700
0700
0700
0700
0700
0700
0F00
3E00
3C00
ENDCHAR
STARTCHAR ~
ENCODING 126
SWIDTH 531 0
DWIDTH 21 0
BBX 21 16 0 0
BITMAP
078080
0FE1C0
1FF1C0
1CFF80
383F80
180E00
000000
000000
000000
000000
000000
000000
000000
000000
000000
000000
ENDCHAR
STARTCHAR U+00A0
ENCODING 160
SWIDTH 253 0
DWIDTH 10 0
BBX 10 44 0 -10
BITMAP
0000
0000
0000
0000
0000
0000
0000
0000
0000
0000
0000
0000
0000
0000
0000
0000
0000
0000
0000
0000
0000
0000
0000
0000
0000
0000
0000
0000
0000
0000
0000
0000
0000
0000
0000
0000
0000
0000
0000
0000
0000
0000
0000
0000
ENDCHAR
STARTCHAR U+00A1
ENCODING 161
SWIDTH 278 0
DWIDTH 11 0
BBX 11 26 0 -7
BITMAP
0400
0E00
1F00
0E00
0400
0000
0000
0E00
0E00
0E00
0E00
0E00
0E00
0E00
0E00
0E00
0E00
1E00
1E00
1E00
1E00
1E00
1E00
1E00
1E00
1E00
ENDCHAR
STARTCHAR U+00A2
ENCODING 162
SWIDTH 480 0
DWIDTH 19 0
BBX 19 23 0 -2
BITMAP
003800
003800
00FF00
03FF80
07FF80
0F8180
1F0080
1E0000
3C0000
3C0000
3C0000
3C0000
3C0000
3C0000
3C0000
1E0000
1F0080
0F8180
07FF80
03FF80
00FF00
003800
003800
ENDCHAR
STARTCHAR U+00A3
ENCODING 163
SWIDTH 505 0
DWIDTH 20 0
BBX 20 26 0 0
BITMAP
003F00
00FF80
01FFC0
01FFC0
03E1C0
03C080
03C000
038000
078000
078000
078000
078000
1FFE00
1FFE00
1FFC00
1FFC00
078000
070000
070000
0F0000
0F0000
0E0000
1FFFE0
1FFFC0
3FFFC0
3FFFC0
ENDCHAR
STARTCHAR U+00A4
ENCODING 164
SWIDTH 581 0
DWIDTH 23 0
BBX 23 19 0 0
BITMAP
080020
1E00F0
3FFFF8
1FFFF0
0FFFE0
0783C0
0F01E0
0F01E0
0E00E0
0E00E0
0F01E0
0F01E0
0783C0
0FFFE0
1FFFF0
1FFFF0
3E00F8
1C0070
080020
ENDCHAR
STARTCHAR U+00A5
ENCODING 165
SWIDTH 606 0
DWIDTH 24 0
BBX 24 26 0 0
BITMAP
7C003C
3C003C
1E0078
1E00F0
0F00F0
0F81E0
0781E0
03C3C0
03C380
1FE7F8
1FFFF8
1FFFF8
007E00
003C00
003C00
1FFFF8
1FFFF8
1FFFF8
003C00
003C00
003C00
003C00
003C00
003C00
003C00
003C00
ENDCHAR
STARTCHAR U+00A6
ENCODING 166
SWIDTH 227 0
DWIDTH 9 0
BBX 9 38 0 -10
BITMAP
1C00
1C00
1C00
1C00
1C00
1C00
1C00
1C00
1C00
1C00
1C00
1C00
1C00
1C00
1C00
0000
0000
0000
0000
0000
0000
0000
0000
1C00
1C00
1C00
1C00
1C00
1C00
1C00
1C00
1C00
1C00
1C00
1C00
1C00
1C00
1C00
ENDCHAR
STARTCHAR U+00A7
ENCODING 167
SWIDTH 480 0
DWIDTH 19 0
BBX 19 33 0 -7
BITMAP
03F000
0FFC00
1FFE00
3E1F00
3C0F00
3C0400
3C0000
3C0000
3E0000
1F8000
0FF000
0FFC00
1FFE00
3E3F00
780F80
780780
780780
780780
7E0780
3F8F00
1FFE00
07FC00
01FE00
003F00
000F00
000780
000780
100780
780F00
3E1F00
1FFE00
0FFC00
03F000
ENDCHAR
STARTCHAR U+00A8
ENCODING 168
SWIDTH 429 0
DWIDTH 17 0
BBX 18 26 0 0
BITMAP
FFFF80
FFFF80
FFFF80
E00380
E00380
E00380
E00380
E00380
E00380
E00380
E00380
E00380
E00380
E00380
E00380
E00380
E00380
E00380
E00380
E00380
E00380
E00380
E00380
FFFF80
FFFF80
FFFF80
ENDCHAR
STARTCHAR U+00A9
ENCODING 169
SWIDTH 783 0
DWIDTH 31 0
BBX 31 26 0 0
BITMAP
000FE000
007FF800
01F01E00
03C00700
07000380
0607E1C0
0C1FF8E0
1C783860
18700830
18E00030
30E00030
31E00030
31C00030
31C00030
31E00030
30E00030
18E00030
18700870
1C7C3860
0C1FF8E0
0E07E1C0
07000380
03C00700
01F01E00
007FFC00
001FE000
ENDCHAR
STARTCHAR U+00AA
ENCODING 170
SWIDTH 303 0
DWIDTH 12 0
BBX 12 26 0 0
BITMAP
3F00
3FC0
21C0
00C0
07C0
3FC0
78C0
70C0
70C0
71C0
3FC0
1EC0
0000
0000
0000
0000
0000
0000
0000
0000
0000
0000
0000
0000
0000
0000
ENDCHAR
STARTCHAR U+00AB
ENCODING 171
SWIDTH 556 0
DWIDTH 22 0
BBX 22 18 0 0
BITMAP
00E0E0
01E1E0
03C3C0
078780
070700
0E0E00
1E1E00
3C3C00
3C3C00
1E1E00
0E0E00
0F0F00
078780
03C3C0
01E1E0
00E0E0
000000
000000
ENDCHAR
STARTCHAR U+00AC
ENCODING 172
SWIDTH 505 0
DWIDTH 20 0
BBX 20 18 0 0
BITMAP
1FFFC0
1FFFC0
1FFFC0
0001C0
0001C0
0001C0
0001C0
0001C0
0001C0
0001C0
0001C0
000000
000000
000000
000000
000000
000000
000000
ENDCHAR
STARTCHAR U+00AD
ENCODING 173
SWIDTH 379 0
DWIDTH 15 0
BBX 15 12 0 0
BITMAP
7FF8
7FF8
7FF8
0000
0000
0000
0000
0000
0000
0000
0000
0000
ENDCHAR
STARTCHAR U+00AE
ENCODING 174
SWIDTH 783 0
DWIDTH 31 0
BBX 31 26 0 0
BITMAP
000FE000
007FF800
01F01E00
03C00700
07000380
0E3FC0C0
0C3FE0E0
18387060
18387030
18387830
30387030
30387030
303FE030
303FC030
3039C030
3038E030
1838F030
18387070
1C383860
0C383CE0
060001C0
07000380
03C00700
01F01E00
007FF800
000FE000
ENDCHAR
STARTCHAR U+00AF
ENCODING 175
SWIDTH 429 0
DWIDTH 17 0
BBX 18 26 0 0
BITMAP
FFFF80
FFFF80
FFFF80
E00380
E00380
E00380
E00380
E00380
E00380
E00380
E00380
E00380
E00380
E00380
E00380
E00380
E00380
E00380
E00380
E00380
E00380
E00380
E00380
FFFF80
FFFF80
FFFF80
ENDCHAR
STARTCHAR U+00B0
ENCODING 176
SWIDTH 379 0
DWIDTH 15 0
BBX 15 26 0 0
BITMAP
07C0
0FE0
1FF0
3C78
3838
3838
3838
3C78
1FF0
0FE0
07C0
0000
0000
0000
0000
0000
0000
0000
0000
0000
0000
0000
0000
0000
0000
0000
ENDCHAR
STARTCHAR U+00B1
ENCODING 177
SWIDTH 505 0
DWIDTH 20 0
BBX 20 22 0 0
BITMAP
007000
007000
007000
007000
007000
007000
1FFFC0
1FFFC0
1FFFC0
007000
007000
007000
007000
007000
007000
000000
000000
000000
000000
1FFFC0
1FFFC0
1FFFC0
ENDCHAR
STARTCHAR U+00B2
ENCODING 178
SWIDTH 328 0
DWIDTH 13 0
BBX 13 26 0 0
BITMAP
0F00
3FC0
3FE0
31E0
20E0
00E0
01E0
01C0
0380
0380
0700
0F00
0E00
1FE0
1FE0
3FE0
0000
0000
0000
0000
0000
0000
0000
0000
0000
0000
ENDCHAR
STARTCHAR U+00B3
ENCODING 179
SWIDTH 328 0
DWIDTH 13 0
BBX 13 26 0 0
BITMAP
7FE0
7FE0
7FC0
0380
0380
0700
07C0
09E0
00E0
0060
0070
20E0
71E0
7FE0
3FC0
0F00
0000
0000
0000
0000
0000
0000
0000
0000
0000
0000
ENDCHAR
STARTCHAR U+00B4
ENCODING 180
SWIDTH 429 0
DWIDTH 17 0
BBX 18 26 0 0
BITMAP
FFFF80
FFFF80
FFFF80
E00380
E00380
E00380
E00380
E00380
E00380
E00380
E00380
E00380
E00380
E00380
E00380
E00380
E00380
E00380
E00380
E00380
E00380
E00380
E00380
FFFF80
FFFF80
FFFF80
ENDCHAR
STARTCHAR U+00B5
ENCODING 181
SWIDTH 556 0
DWIDTH 22 0
BBX 22 26 0 -7
BITMAP
1E01E0
1E01E0
1E01E0
1E01E0
1E01E0
1E01E0
1E01E0
1E01E0
1E01E0
1E01E0
1E01E0
1E01E0
1E01E0
1E01E0
1F01E0
1F87E0
1FFFE0
1FFFE0
1EF9E0
1E0000
1E0000
1E0000
1E0000
1E0000
1E0000
1E0000
ENDCHAR
STARTCHAR U+00B6
ENCODING 182
SWIDTH 531 0
DWIDTH 21 0
BBX 21 33 0 -7
BITMAP
03FFF0
0FFFF0
1FF1C0
3FF1C0
3FF1C0
3FF1C0
3FF1C0
3FF1C0
3FF1C0
3FF1C0
1FF1C0
0FF1C0
03F1C0
0071C0
0071C0
0071C0
0071C0
0071C0
0071C0
0071C0
0071C0
0071C0
0071C0
0071C0
0071C0
0071C0
0071C0
0071C0
0071C0
0071C0
0071C0
0071C0
0071C0
ENDCHAR
STARTCHAR U+00B7
ENCODING 183
SWIDTH 227 0
DWIDTH 9 0
BBX 9 16 0 0
BITMAP
0800
1C00
3E00
3E00
1C00
0800
0000
0000
0000
0000
0000
0000
0000
0000
0000
0000
ENDCHAR
STARTCHAR U+00B8
ENCODING 184
SWIDTH 429 0
DWIDTH 17 0
BBX 18 26 0 0
BITMAP
FFFF80
FFFF80
FFFF80
E00380
E00380
E00380
E00380
E00380
E00380
E00380
E00380
E00380
E00380
E00380
E00380
E00380
E00380
E00380
E00380
E00380
E00380
E00380
E00380
FFFF80
FFFF80
FFFF80
ENDCHAR
STARTCHAR U+00B9
ENCODING 185
SWIDTH 227 0
DWIDTH 9 0
BBX 9 26 0 0
BITMAP
0400
0C00
1C00
1C00
1C00
1C00
1C00
1C00
1C00
1C00
1C00
1C00
1C00
1C00
1C00
1C00
0000
0000
0000
0000
0000
0000
0000
0000
0000
0000
ENDCHAR
STARTCHAR U+00BA
ENCODING 186
SWIDTH 379 0
DWIDTH 15 0
BBX 15 26 0 0
BITMAP
07C0
1FF0
3C78
3038
7018
7018
7018
3838
3C70
1FF0
07C0
0000
0000
0000
0000
0000
0000
0000
0000
0000
0000
0000
0000
0000
0000
0000
ENDCHAR
STARTCHAR U+00BB
ENCODING 187
SWIDTH 556 0
DWIDTH 22 0
BBX 22 18 0 0
BITMAP
3C3C00
1E1E00
0E0E00
0F0F00
078780
03C3C0
01C1E0
00E0E0
00E0F0
01E1E0
03C3C0
078780
070700
0E0F00
1E1E00
3C3C00
000000
000000
ENDCHAR
STARTCHAR U+00BC
ENCODING 188
SWIDTH 783 0
DWIDTH 31 0
BBX 31 26 0 0
BITMAP
04001C00
0C001C00
1C003800
1C003800
1C007000
1C007000
1C00E000
1C00E000
1C01C000
1C01C000
1C038010
1C038030
1C070070
1C0700F0
1C0E00F0
1C1E01F0
001C03F0
003C0770
00380E70
00781C70
00703870
00F07FF8
00E0FFF8
01E00070
01C00070
03C00070
ENDCHAR
STARTCHAR U+00BD
ENCODING 189
SWIDTH 808 0
DWIDTH 32 0
BBX 32 26 0 0
BITMAP
04001C00
0C001C00
1C003800
1C003800
1C007000
1C007000
1C00E000
1C00E000
1C01C000
1C01C000
1C0381E0
1C0387F8
1C0707FC
1C07063C
1C0E081C
1C1E001C
001C003C
003C0038
00380070
00780070
007000E0
00F001E0
00E001C0
01E003FC
01C003FC
03C007FC
ENDCHAR
STARTCHAR U+00BE
ENCODING 190
SWIDTH 834 0
DWIDTH 33 0
BBX 33 26 0 0
BITMAP
7FE0038000
7FE0038000
7FC0070000
0380070000
03800E0000
07000E0000
07C01C0000
09E01C0000
00E0380000
0060380000
0070700200
20E0700600
71E0E00E00
7FE0E01E00
3FC1C01E00
0F03C03E00
0003807E00
000780EE00
000701CE00
000F038E00
000E070E00
001E0FFF00
001C1FFF00
003C000E00
0038000E00
0078000E00
ENDCHAR
STARTCHAR U+00BF
ENCODING 191
SWIDTH 429 0
DWIDTH 17 0
BBX 17 26 0 -7
BITMAP
004000
00E000
01F000
01F000
00E000
004000
000000
004000
00E000
01F000
007800
007800
00F000
03F000
07E000
0F8000
1F0000
3C0000
3C0000
3C0000
3C0200
3E0F00
1FFF00
1FFF00
0FFE00
03F800
ENDCHAR
STARTCHAR U+00C0
ENCODING 192
SWIDTH 657 0
DWIDTH 26 0
BBX 26 33 0 0
BITMAP
00F00000
00780000
003C0000
001E0000
000E0000
00000000
00000000
001C0000
003E0000
003E0000
003F0000
007F0000
007F8000
00F78000
00F78000
00E3C000
01E3C000
01E1E000
03C1E000
03C1E000
03C0F000
0780F000
07807800
0FFFF800
0FFFF800
0FFFFC00
1E003C00
1E001E00
1C001E00
3C001E00
3C000F00
78000F00
78000F80
ENDCHAR
STARTCHAR U+00C1
ENCODING 193
SWIDTH 657 0
DWIDTH 26 0
BBX 26 33 0 0
BITMAP
00078000
000F0000
000E0000
001C0000
00380000
00000000
00000000
001C0000
003E0000
003E0000
003F0000
007F0000
007F8000
00F78000
00F78000
00E3C000
01E3C000
01E1E000
03C1E000
03C1E000
03C0F000
0780F000
07807800
0FFFF800
0FFFF800
0FFFFC00
1E003C00
1E001E00
1C001E00
3C001E00
3C000F00
78000F00
78000F80
ENDCHAR
STARTCHAR U+00C2
ENCODING 194
SWIDTH 657 0
DWIDTH 26 0
BBX 26 33 0 0
BITMAP
001F0000
003F0000
003B8000
0071C000
00E0E000
00000000
00000000
001C0000
003E0000
003E0000
003F0000
007F0000
007F8000
00F78000
00F78000
00E3C000
01E3C000
01E1E000
03C1E000
03C1E000
03C0F000
0780F000
07807800
0FFFF800
0FFFF800
0FFFFC00
1E003C00
1E001E00
1C001E00
3C001E00
3C000F00
78000F00
78000F80
ENDCHAR
STARTCHAR U+00C3
ENCODING 195
SWIDTH 657 0
DWIDTH 26 0
BBX 26 33 0 0
BITMAP
00F00000
01FCE000
01FFE000
019FC000
00078000
00000000
00000000
001C0000
003E0000
003E0000
003F0000
007F0000
007F8000
00F78000
00F78000
00E3C000
01E3C000
01E1E000
03C1E000
03C1E000
03C0F000
0780F000
07807800
0FFFF800
0FFFF800
0FFFFC00
1E003C00
1E001E00
1C001E00
3C001E00
3C000F00
78000F00
78000F80
ENDCHAR
STARTCHAR U+00C4
ENCODING 196
SWIDTH 657 0
DWIDTH 26 0
BBX 26 33 0 0
BITMAP
00808000
01C1C000
03E3E000
01C1C000
00808000
00000000
00000000
001C0000
003E0000
003E0000
003F0000
007F0000
007F8000
00F78000
00F78000
00E3C000
01E3C000
01E1E000
03C1E000
03C1E000
03C0F000
0780F000
07807800
0FFFF800
0FFFF800
0FFFFC00
1E003C00
1E001E00
1C001E00
3C001E00
3C000F00
78000F00
78000F80
ENDCHAR
STARTCHAR U+00C5
ENCODING 197
SWIDTH 657 0
DWIDTH 26 0
BBX 26 35 0 0
BITMAP
001C0000
007E0000
00630000
00630000
00630000
007E0000
001C0000
00000000
00000000
001C0000
003E0000
003E0000
003F0000
007F0000
007F8000
00F78000
00F78000
00E3C000
01E3C000
01E1E000
03C1E000
03C1E000
03C0F000
0780F000
07807800
0FFFF800
0FFFF800
0FFFFC00
1E003C00
1E001E00
1C001E00
3C001E00
3C000F00
78000F00
78000F80
ENDCHAR
STARTCHAR U+00C6
ENCODING 198
SWIDTH 884 0
DWIDTH 35 0
BBX 35 26 0 0
BITMAP
0001FFFF80
0003FFFF80
0003FFFF80
0007B80000
0007B80000
000F380000
001F380000
001E380000
003E380000
003C380000
007C3FFC00
00783FFC00
00F03FFC00
01F0380000
01E0380000
03FFF80000
03FFF80000
07FFF80000
0780380000
0F00380000
1F00380000
1E00380000
3E00380000
3C003FFFC0
7C003FFFC0
78003FFFC0
ENDCHAR
STARTCHAR U+00C7
ENCODING 199
SWIDTH 657 0
DWIDTH 26 0
BBX 26 33 0 -7
BITMAP
000FF000
007FFC00
00FFFF00
03F80F00
07C00300
07800000
0F000000
1E000000
1E000000
1E000000
3C000000
3C000000
3C000000
3C000000
3C000000
3C000000
1E000000
1E000000
1F000000
0F000000
07800000
07E00300
03F80F00
00FFFF00
007FFC00
000FF000
00060000
00078000
000FC000
0001E000
0001C000
003FC000
003F0000
ENDCHAR
STARTCHAR U+00C8
ENCODING 200
SWIDTH 556 0
DWIDTH 22 0
BBX 22 33 0 0
BITMAP
01E000
00F000
007800
003C00
001C00
000000
000000
0FFFF0
0FFFF0
0FFFF0
0E0000
0E0000
0E0000
0E0000
0E0000
0E0000
0E0000
0FFF80
0FFF80
0FFF80
0E0000
0E0000
0E0000
0E0000
0E0000
0E0000
0E0000
0E0000
0E0000
0E0000
0FFFF0
0FFFF0
0FFFF0
ENDCHAR
STARTCHAR U+00C9
ENCODING 201
SWIDTH 556 0
DWIDTH 22 0
BBX 22 33 0 0
BITMAP
000F00
001E00
001C00
003800
007000
000000
000000
0FFFF0
0FFFF0
0FFFF0
0E0000
0E0000
0E0000
0E0000
0E0000
0E0000
0E0000
0FFF80
0FFF80
0FFF80
0E0000
0E0000
0E0000
0E0000
0E0000
0E0000
0E0000
0E0000
0E0000
0E0000
0FFFF0
0FFFF0
0FFFF0
ENDCHAR
STARTCHAR U+00CA
ENCODING 202
SWIDTH 556 0
DWIDTH 22 0
BBX 22 33 0 0
BITMAP
007C00
00FC00
00EE00
01C700
038380
000000
000000
0FFFF0
0FFFF0
0FFFF0
0E0000
0E0000
0E0000
0E0000
0E0000
0E0000
0E0000
0FFF80
0FFF80
0FFF80
0E0000
0E0000
0E0000
0E0000
0E0000
0E0000
0E0000
0E0000
0E0000
0E0000
0FFFF0
0FFFF0
0FFFF0
ENDCHAR
STARTCHAR U+00CB
ENCODING 203
SWIDTH 556 0
DWIDTH 22 0
BBX 22 33 0 0
BITMAP
010100
038380
07C7C0
038380
010100
000000
000000
0FFFF0
0FFFF0
0FFFF0
0E0000
0E0000
0E0000
0E0000
0E0000
0E0000
0E0000
0FFF80
0FFF80
0FFF80
0E0000
0E0000
0E0000
0E0000
0E0000
0E0000
0E0000
0E0000
0E0000
0E0000
0FFFF0
0FFFF0
0FFFF0
ENDCHAR
STARTCHAR U+00CC
ENCODING 204
SWIDTH 278 0
DWIDTH 11 0
BBX 11 33 0 0
BITMAP
7800
3C00
1E00
0F00
0700
0000
0000
0E00
0E00
0E00
0E00
0E00
0E00
0E00
0E00
0E00
0E00
0E00
0E00
0E00
0E00
0E00
0E00
0E00
0E00
0E00
0E00
0E00
0E00
0E00
0E00
0E00
0E00
ENDCHAR
STARTCHAR U+00CD
ENCODING 205
SWIDTH 278 0
DWIDTH 11 0
BBX 11 33 0 0
BITMAP
03C0
0780
0700
0E00
1C00
0000
0000
0E00
0E00
0E00
0E00
0E00
0E00
0E00
0E00
0E00
0E00
0E00
0E00
0E00
0E00
0E00
0E00
0E00
0E00
0E00
0E00
0E00
0E00
0E00
0E00
0E00
0E00
ENDCHAR
STARTCHAR U+00CE
ENCODING 206
SWIDTH 278 0
DWIDTH 11 0
BBX 12 33 0 0
BITMAP
1F00
3F00
3B80
71C0
E0E0
0000
0000
0E00
0E00
0E00
0E00
0E00
0E00
0E00
0E00
0E00
0E00
0E00
0E00
0E00
0E00
0E00
0E00
0E00
0E00
0E00
0E00
0E00
0E00
0E00
0E00
0E00
0E00
ENDCHAR
STARTCHAR U+00CF
ENCODING 207
SWIDTH 278 0
DWIDTH 11 0
BBX 13 33 -1 0
BITMAP
2020
7070
F8F8
7070
2020
0000
0000
0700
0700
0700
0700
0700
0700
0700
0700
0700
0700
0700
0700
0700
0700
0700
0700
0700
0700
0700
0700
0700
0700
0700
0700
0700
0700
ENDCHAR
STARTCHAR U+00D0
ENCODING 208
SWIDTH 707 0
DWIDTH 28 0
BBX 28 26 0 0
BITMAP
0FFF0000
0FFFC000
0FFFF000
0E01F800
0E007C00
0E003E00
0E001F00
0E000F00
0E000780
0E000780
0E000780
0E000780
7FFC0780
7FFC0780
7FFC0780
0E000780
0E000780
0E000780
0E000F00
0E001F00
0E003E00
0E007C00
0E01F800
0FFFF000
0FFFC000
0FFE0000
ENDCHAR
STARTCHAR U+00D1
ENCODING 209
SWIDTH 758 0
DWIDTH 30 0
BBX 30 33 0 0
BITMAP
003C0000
007F3800
007FF800
0067F000
0001E000
00000000
00000000
0F0003C0
0F0003C0
0F8003C0
0FC003C0
0FE003C0
0FE003C0
0FF003C0
0EF803C0
0E7C03C0
0E3C03C0
0E3E03C0
0E1F03C0
0E0F83C0
0E0783C0
0E03C3C0
0E03E3C0
0E01F3C0
0E00FBC0
0E007BC0
0E007FC0
0E003FC0
0E001FC0
0E000FC0
0E000FC0
0E0007C0
0E0003C0
ENDCHAR
STARTCHAR U+00D2
ENCODING 210
SWIDTH 783 0
DWIDTH 31 0
BBX 31 33 0 0
BITMAP
001E0000
000F0000
00078000
0003C000
0001C000
00000000
00000000
000FE000
007FFC00
00FFFF00
03F01F80
07C007C0
078003E0
0F0001E0
1F0000F0
1E0000F0
1E000078
3C000078
3C000078
3C000078
3C000078
3C000078
3C000078
1E000078
1E0000F0
1F0000F0
0F0001E0
078003E0
07C007C0
03F81F80
00FFFF00
007FFC00
000FE000
ENDCHAR
STARTCHAR U+00D3
ENCODING 211
SWIDTH 783 0
DWIDTH 31 0
BBX 31 33 0 0
BITMAP
0000F000
0001E000
0001C000
00038000
00070000
00000000
00000000
000FE000
007FFC00
00FFFF00
03F01F80
07C007C0
078003E0
0F0001E0
1F0000F0
1E0000F0
1E000078
3C000078
3C000078
3C000078
3C000078
3C000078
3C000078
1E000078
1E0000F0
1F0000F0
0F0001E0
078003E0
07C007C0
03F81F80
00FFFF00
007FFC00
000FE000
ENDCHAR
STARTCHAR U+00D4
ENCODING 212
SWIDTH 783 0
DWIDTH 31 0
BBX 31 33 0 0
BITMAP
0007C000
000FC000
000EE000
001C7000
00383800
00000000
00000000
000FE000
007FFC00
00FFFF00
03F01F80
07C007C0
078003E0
0F0001E0
1F0000F0
1E0000F0
1E000078
3C000078
3C000078
3C000078
3C000078
3C000078
3C000078
1E000078
1E0000F0
1F0000F0
0F0001E0
078003E0
07C007C0
03F81F80
00FFFF00
007FFC00
000FE000
ENDCHAR
STARTCHAR U+00D5
ENCODING 213
SWIDTH 783 0
DWIDTH 31 0
BBX 31 33 0 0
BITMAP
003C0000
007F3800
007FF800
0067F000
0001E000
00000000
00000000
000FE000
007FFC00
00FFFF00
03F01F80
07C007C0
078003E0
0F0001E0
1F0000F0
1E0000F0
1E000078
3C000078
3C000078
3C000078
3C000078
3C000078
3C000078
1E000078
1E0000F0
1F0000F0
0F0001E0
078003E0
07C007C0
03F81F80
00FFFF00
007FFC00
000FE000
ENDCHAR
STARTCHAR U+00D6
ENCODING 214
SWIDTH 783 0
DWIDTH 31 0
BBX 31 33 0 0
BITMAP
00101000
00383800
007C7C00
00383800
00101000
00000000
00000000
000FE000
007FFC00
00FFFF00
03F01F80
07C007C0
078003E0
0F0001E0
1F0000F0
1E0000F0
1E000078
3C000078
3C000078
3C000078
3C000078
3C000078
3C000078
1E000078
1E0000F0
1F0000F0
0F0001E0
078003E0
07C007C0
03F81F80
00FFFF00
007FFC00
000FE000
ENDCHAR
STARTCHAR U+00D7
ENCODING 215
SWIDTH 505 0
DWIDTH 20 0
BBX 20 20 0 0
BITMAP
040100
0E0780
1F0F80
0F9F00
07FE00
03FC00
01F800
01F800
03FC00
07FE00
0F9F00
1F0F80
0E0700
040200
000000
000000
000000
000000
000000
000000
ENDCHAR
STARTCHAR U+00D8
ENCODING 216
SWIDTH 783 0
DWIDTH 31 0
BBX 31 26 0 0
BITMAP
000FE020
007FFC70
00FFFFF0
03F01FE0
07C007C0
078007E0
0F000FE0
1F001CF0
1E003CF0
1E007878
3C00F078
3C01E078
3C03C078
3C078078
3C0F0078
3C0E0078
1E1C0078
1E3800F0
1E7000F0
0FE001E0
07C003E0
07C007C0
0FF01F80
0EFFFF00
1C7FFC00
080FE000
ENDCHAR
STARTCHAR U+00D9
ENCODING 217
SWIDTH 733 0
DWIDTH 29 0
BBX 29 33 0 0
BITMAP
003C0000
001E0000
000F0000
00078000
00038000
00000000
00000000
1E0003C0
1E0003C0
1E0003C0
1E0003C0
1E0003C0
1E0003C0
1E0003C0
1E0003C0
1E0003C0
1E0003C0
1E0003C0
1E0003C0
1E0003C0
1E0003C0
1E0003C0
1E0003C0
1E0003C0
0F0003C0
0F000380
0F000780
07800F80
07C01F00
03F07E00
01FFFC00
007FF800
001FC000
ENDCHAR
STARTCHAR U+00DA
ENCODING 218
SWIDTH 733 0
DWIDTH 29 0
BBX 29 33 0 0
BITMAP
0001E000
0003C000
00038000
00070000
000E0000
00000000
00000000
1E0003C0
1E0003C0
1E0003C0
1E0003C0
1E0003C0
1E0003C0
1E0003C0
1E0003C0
1E0003C0
1E0003C0
1E0003C0
1E0003C0
1E0003C0
1E0003C0
1E0003C0
1E0003C0
1E0003C0
0F0003C0
0F000380
0F000780
07800F80
07C01F00
03F07E00
01FFFC00
007FF800
001FC000
ENDCHAR
STARTCHAR U+00DB
ENCODING 219
SWIDTH 733 0
DWIDTH 29 0
BBX 29 33 0 0
BITMAP
000F8000
001F8000
001DC000
0038E000
00707000
00000000
00000000
1E0003C0
1E0003C0
1E0003C0
1E0003C0
1E0003C0
1E0003C0
1E0003C0
1E0003C0
1E0003C0
1E0003C0
1E0003C0
1E0003C0
1E0003C0
1E0003C0
1E0003C0
1E0003C0
1E0003C0
0F0003C0
0F000380
0F000780
07800F80
07C01F00
03F07E00
01FFFC00
007FF800
001FC000
ENDCHAR
STARTCHAR U+00DC
ENCODING 220
SWIDTH 733 0
DWIDTH 29 0
BBX 29 33 0 0
BITMAP
00202000
00707000
00F8F800
00707000
00202000
00000000
00000000
1E0003C0
1E0003C0
1E0003C0
1E0003C0
1E0003C0
1E0003C0
1E0003C0
1E0003C0
1E0003C0
1E0003C0
1E0003C0
1E0003C0
1E0003C0
1E0003C0
1E0003C0
1E0003C0
1E0003C0
0F0003C0
0F000380
0F000780
07800F80
07C01F00
03F07E00
01FFFC00
007FF800
001FC000
ENDCHAR
STARTCHAR U+00DD
ENCODING 221
SWIDTH 581 0
DWIDTH 23 0
BBX 23 33 0 0
BITMAP
000F00
001E00
001C00
003800
007000
000000
000000
78003C
3C0078
3C0078
1E00F0
1F01E0
0F01E0
0783C0
0783C0
03C780
01E700
01EF00
00FE00
00FE00
007C00
003800
003800
003800
003800
003800
003800
003800
003800
003800
003800
003800
003800
ENDCHAR
STARTCHAR U+00DE
ENCODING 222
SWIDTH 556 0
DWIDTH 22 0
BBX 22 26 0 0
BITMAP
0E0000
0E0000
0E0000
0E0000
0E0000
0FFF00
0FFFC0
0FFFE0
0E03F0
0E00F0
0E00F0
0E0078
0E0078
0E0078
0E00F0
0E00F0
0E03E0
0FFFE0
0FFF80
0FFE00
0E0000
0E0000
0E0000
0E0000
0E0000
0E0000
ENDCHAR
STARTCHAR U+00DF
ENCODING 223
SWIDTH 531 0
DWIDTH 21 0
BBX 21 26 0 0
BITMAP
00FC00
03FF00
07FF80
0F8780
0F03C0
1E01C0
1E01C0
1E03C0
1E03C0
1E0780
1E7F00
1E7E00
1E7F80
1E07C0
1E03E0
1E01E0
1E00E0
1E00E0
1E00E0
1E00E0
1E01E0
1E01E0
1E07C0
1E7FC0
1E7F00
1E7C00
ENDCHAR
STARTCHAR U+00E0
ENCODING 224
SWIDTH 505 0
DWIDTH 20 0
BBX 20 27 0 0
BITMAP
078000
03C000
01E000
00F000
007000
000000
000000
000000
07F800
0FFC00
1FFE00
1C1F00
100F00
000780
000780
007F80
03FF80
0FFF80
1F8780
3E0780
3C0780
3C0780
3C0F80
3C1F80
1FFF80
1FF780
07C780
ENDCHAR
STARTCHAR U+00E1
ENCODING 225
SWIDTH 505 0
DWIDTH 20 0
BBX 20 27 0 0
BITMAP
003C00
007800
007000
00E000
01C000
000000
000000
000000
07F800
0FFC00
1FFE00
1C1F00
100F00
000780
000780
007F80
03FF80
0FFF80
1F8780
3E0780
3C0780
3C0780
3C0F80
3C1F80
1FFF80
1FF780
07C780
ENDCHAR
STARTCHAR U+00E2
ENCODING 226
SWIDTH 505 0
DWIDTH 20 0
BBX 20 27 0 0
BITMAP
01F000
03F000
03B800
071C00
0E0E00
000000
000000
000000
07F800
0FFC00
1FFE00
1C1F00
100F00
000780
000780
007F80
03FF80
0FFF80
1F8780
3E0780
3C0780
3C0780
3C0F80
3C1F80
1FFF80
1FF780
07C780
ENDCHAR
STARTCHAR U+00E3
ENCODING 227
SWIDTH 505 0
DWIDTH 20 0
BBX 20 27 0 0
BITMAP
078000
0FE700
0FFF00
0CFE00
003C00
000000
000000
000000
07F800
0FFC00
1FFE00
1C1F00
100F00
000780
000780
007F80
03FF80
0FFF80
1F8780
3E0780
3C0780
3C0780
3C0F80
3C1F80
1FFF80
1FF780
07C780
ENDCHAR
STARTCHAR U+00E4
ENCODING 228
SWIDTH 505 0
DWIDTH 20 0
BBX 20 27 0 0
BITMAP
040400
0E0E00
1F1F00
0E0E00
040400
000000
000000
000000
07F800
0FFC00
1FFE00
1C1F00
100F00
000780
000780
007F80
03FF80
0FFF80
1F8780
3E0780
3C0780
3C0780
3C0F80
3C1F80
1FFF80
1FF780
07C780
ENDCHAR
STARTCHAR U+00E5
ENCODING 229
SWIDTH 505 0
DWIDTH 20 0
BBX 20 29 0 0
BITMAP
00E000
03F000
031800
031800
031800
03F000
00E000
000000
000000
000000
07F800
0FFC00
1FFE00
1C1F00
100F00
000780
000780
007F80
03FF80
0FFF80
1F8780
3E0780
3C0780
3C0780
3C0F80
3C1F80
1FFF80
1FF780
07C780
ENDCHAR
STARTCHAR U+00E6
ENCODING 230
SWIDTH 783 0
DWIDTH 31 0
BBX 31 19 0 0
BITMAP
07F81F80
0FFC7FC0
1FFEFFF0
1C1FE0F0
100FC078
00078038
00078038
007FFFFC
03FFFFFC
0FFFFFFC
1F878000
3E078000
3C078000
3C03C000
3C07E008
3E1FF038
1FFEFFF8
1FFC7FF0
07F01FC0
ENDCHAR
STARTCHAR U+00E7
ENCODING 231
SWIDTH 480 0
DWIDTH 19 0
BBX 19 26 0 -7
BITMAP
00FE00
03FF80
07FF80
0F8180
1F0080
1E0000
3C0000
3C0000
3C0000
3C0000
3C0000
3C0000
3C0000
1E0000
1F0080
0F8180
07FF80
03FF80
007E00
003800
003E00
007F00
000F00
000F00
00FE00
00F800
ENDCHAR
STARTCHAR U+00E8
ENCODING 232
SWIDTH 531 0
DWIDTH 21 0
BBX 21 27 0 0
BITMAP
078000
03C000
01E000
00F000
007000
000000
000000
000000
00FC00
03FF00
07FF80
0F87C0
1E03C0
1E01E0
3C01E0
3C01E0
3FFFE0
3FFFE0
3FFFE0
3C0000
3C0000
1C0000
1E0060
0F81E0
07FFE0
03FFE0
00FF00
ENDCHAR
STARTCHAR U+00E9
ENCODING 233
SWIDTH 531 0
DWIDTH 21 0
BBX 21 27 0 0
BITMAP
001E00
003C00
003800
007000
00E000
000000
000000
000000
00FC00
03FF00
07FF80
0F87C0
1E03C0
1E01E0
3C01E0
3C01E0
3FFFE0
3FFFE0
3FFFE0
3C0000
3C0000
1C0000
1E0060
0F81E0
07FFE0
03FFE0
00FF00
ENDCHAR
STARTCHAR U+00EA
ENCODING 234
SWIDTH 531 0
DWIDTH 21 0
BBX 21 27 0 0
BITMAP
00F800
01F800
01DC00
038E00
070700
000000
000000
000000
00FC00
03FF00
07FF80
0F87C0
1E03C0
1E01E0
3C01E0
3C01E0
3FFFE0
3FFFE0
3FFFE0
3C0000
3C0000
1C0000
1E0060
0F81E0
07FFE0
03FFE0
00FF00
ENDCHAR
STARTCHAR U+00EB
ENCODING 235
SWIDTH 531 0
DWIDTH 21 0
BBX 21 27 0 0
BITMAP
020200
070700
0F8F80
070700
020200
000000
000000
000000
00FC00
03FF00
07FF80
0F87C0
1E03C0
1E01E0
3C01E0
3C01E0
3FFFE0
3FFFE0
3FFFE0
3C0000
3C0000
1C0000
1E0060
0F81E0
07FFE0
03FFE0
00FF00
ENDCHAR
STARTCHAR U+00EC
ENCODING 236
SWIDTH 253 0
DWIDTH 10 0
BBX 11 27 -1 0
BITMAP
F000
7800
3C00
1E00
0E00
0000
0000
0000
1E00
1E00
1E00
1E00
1E00
1E00
1E00
1E00
1E00
1E00
1E00
1E00
1E00
1E00
1E00
1E00
1E00
1E00
1E00
ENDCHAR
STARTCHAR U+00ED
ENCODING 237
SWIDTH 253 0
DWIDTH 10 0
BBX 11 27 0 0
BITMAP
0000
0000
0000
0000
0000
0000
0000
0000
0000
0000
0000
0000
0000
0000
0000
0000
0000
0000
0000
0000
0000
0000
0000
0000
0000
0000
0000
ENDCHAR
STARTCHAR U+00EE
ENCODING 238
SWIDTH 253 0
DWIDTH 10 0
BBX 12 27 -1 0
BITMAP
1F00
3F00
3B80
71C0
E0E0
0000
0000
0000
1E00
1E00
1E00
1E00
1E00
1E00
1E00
1E00
1E00
1E00
1E00
1E00
1E00
1E00
1E00
1E00
1E00
1E00
1E00
ENDCHAR
STARTCHAR U+00EF
ENCODING 239
SWIDTH 253 0
DWIDTH 10 0
BBX 14 27 -2 0
BITMAP
0000
0000
0000
0000
0000
0000
0000
0000
0000
0000
0000
0000
0000
0000
0000
0000
0000
0000
0000
0000
0000
0000
0000
0000
0000
0000
0000
ENDCHAR
STARTCHAR U+00F0
ENCODING 240
SWIDTH 531 0
DWIDTH 21 0
BBX 21 26 0 0
BITMAP
018200
07CF00
03FE00
01FC00
01FC00
07DE00
0F1F00
060F80
000780
01F7C0
07FFC0
0FFFE0
1F07E0
1E03E0
3C01E0
3C01E0
3C00E0
3C00E0
3C01E0
3C01E0
3C01E0
1E03C0
1F0780
0FFF80
07FE00
01F800
ENDCHAR
STARTCHAR U+00F1
ENCODING 241
SWIDTH 581 0
DWIDTH 23 0
BBX 23 27 0 0
BITMAP
01E000
03F9C0
03FFC0
033F80
000F00
000000
000000
000000
1EFE00
1FFF80
1FFFC0
1F03E0
1E01E0
1E00F0
1E00F0
1E00F0
1E00F0
1E00F0
1E00F0
1E00F0
1E00F0
1E00F0
1E00F0
1E00F0
1E00F0
1E00F0
1E00F0
ENDCHAR
STARTCHAR U+00F2
ENCODING 242
SWIDTH 581 0
DWIDTH 23 0
BBX 23 27 0 0
BITMAP
01E000
00F000
007800
003C00
001C00
000000
000000
000000
00FE00
03FF80
07FFC0
0F83E0
1F01F0
1E00F8
3C0078
3C0078
3C0038
3C0038
3C0038
3C0078
3C0078
1E00F0
1F00F0
0F83E0
07FFC0
03FF80
00FE00
ENDCHAR
STARTCHAR U+00F3
ENCODING 243
SWIDTH 581 0
DWIDTH 23 0
BBX 23 27 0 0
BITMAP
000F00
001E00
001C00
003800
007000
000000
000000
000000
00FE00
03FF80
07FFC0
0F83E0
1F01F0
1E00F8
3C0078
3C0078
3C0038
3C0038
3C0038
3C0078
3C0078
1E00F0
1F00F0
0F83E0
07FFC0
03FF80
00FE00
ENDCHAR
STARTCHAR U+00F4
ENCODING 244
SWIDTH 581 0
DWIDTH 23 0
BBX 23 27 0 0
BITMAP
007C00
00FC00
00EE00
01C700
038380
000000
000000
000000
00FE00
03FF80
07FFC0
0F83E0
1F01F0
1E00F8
3C0078
3C0078
3C0038
3C0038
3C0038
3C0078
3C0078
1E00F0
1F00F0
0F83E0
07FFC0
03FF80
00FE00
ENDCHAR
STARTCHAR U+00F5
ENCODING 245
SWIDTH 581 0
DWIDTH 23 0
BBX 23 27 0 0
BITMAP
01E000
03F9C0
03FFC0
033F80
000F00
000000
000000
000000
00FE00
03FF80
07FFC0
0F83E0
1F01F0
1E00F8
3C0078
3C0078
3C0038
3C0038
3C0038
3C0078
3C0078
1E00F0
1F00F0
0F83E0
07FFC0
03FF80
00FE00
ENDCHAR
STARTCHAR U+00F6
ENCODING 246
SWIDTH 581 0
DWIDTH 23 0
BBX 23 27 0 0
BITMAP
010100
038380
07C7C0
038380
010100
000000
000000
000000
00FE00
03FF80
07FFC0
0F83E0
1F01F0
1E00F8
3C0078
3C0078
3C0038
3C0038
3C0038
3C0078
3C0078
1E00F0
1F00F0
0F83E0
07FFC0
03FF80
00FE00
ENDCHAR
STARTCHAR U+00F7
ENCODING 247
SWIDTH 505 0
DWIDTH 20 0
BBX 20 23 0 0
BITMAP
002000
007000
00F800
00F800
007000
002000
000000
000000
000000
1FFFC0
1FFFC0
1FFFC0
000000
000000
002000
007000
00F800
00F800
007000
002000
000000
000000
000000
ENDCHAR
STARTCHAR U+00F8
ENCODING 248
SWIDTH 581 0
DWIDTH 23 0
BBX 23 21 0 -1
BITMAP
000020
00FE70
03FFE0
07FFE0
0F83E0
1F03F0
1E07F8
3C0E78
3C0E78
3C1C38
3C3838
3C7038
3C6078
3CE078
1FC0F0
1F80F0
0F83E0
07FFC0
0FFF80
1CFE00
080000
ENDCHAR
STARTCHAR U+00F9
ENCODING 249
SWIDTH 581 0
DWIDTH 23 0
BBX 23 27 0 0
BITMAP
03C000
01E000
00F000
007800
003800
000000
000000
000000
1C00F0
1C00F0
1C00F0
1C00F0
1C00F0
1C00F0
1C00F0
1C00F0
1C00F0
1C00F0
1C00F0
1C00F0
1E00F0
1E00F0
1F01F0
0F83F0
07FFF0
03FEF0
00FCF0
ENDCHAR
STARTCHAR U+00FA
ENCODING 250
SWIDTH 581 0
DWIDTH 23 0
BBX 23 27 0 0
BITMAP
000F00
001E00
001C00
003800
007000
000000
000000
000000
1C00F0
1C00F0
1C00F0
1C00F0
1C00F0
1C00F0
1C00F0
1C00F0
1C00F0
1C00F0
1C00F0
1C00F0
1E00F0
1E00F0
1F01F0
0F83F0
07FFF0
03FEF0
00FCF0
ENDCHAR
STARTCHAR U+00FB
ENCODING 251
SWIDTH 581 0
DWIDTH 23 0
BBX 23 27 0 0
BITMAP
007C00
00FC00
00EE00
01C700
038380
000000
000000
000000
1C00F0
1C00F0
1C00F0
1C00F0
1C00F0
1C00F0
1C00F0
1C00F0
1C00F0
1C00F0
1C00F0
1C00F0
1E00F0
1E00F0
1F01F0
0F83F0
07FFF0
03FEF0
00FCF0
ENDCHAR
STARTCHAR U+00FC
ENCODING 252
SWIDTH 581 0
DWIDTH 23 0
BBX 23 27 0 0
BITMAP
010100
038380
07C7C0
038380
010100
000000
000000
000000
1C00F0
1C00F0
1C00F0
1C00F0
1C00F0
1C00F0
1C00F0
1C00F0
1C00F0
1C00F0
1C00F0
1C00F0
1E00F0
1E00F0
1F01F0
0F83F0
07FFF0
03FEF0
00FCF0
ENDCHAR
STARTCHAR U+00FD
ENCODING 253
SWIDTH 531 0
DWIDTH 21 0
BBX 21 34 0 -7
BITMAP
001E00
003C00
003800
007000
00E000
000000
000000
000000
7800F0
7801E0
3C01E0
3C01E0
3C03C0
1E03C0
1E0380
0F0780
0F0780
070F00
078F00
078E00
03DE00
03DC00
01DC00
01FC00
01F800
00F800
00F000
007000
00F000
00E000
01E000
0FC000
0F8000
0F0000
ENDCHAR
STARTCHAR U+00FE
ENCODING 254
SWIDTH 581 0
DWIDTH 23 0
BBX 23 33 0 -7
BITMAP
1E0000
1E0000
1E0000
1E0000
1E0000
1E0000
1E0000
1EFE00
1FFF80
1FFFC0
1F03E0
1E01F0
1E00F0
1E0078
1E0078
1E0078
1E0078
1E0078
1E0078
1E0078
1E00F0
1E01F0
1F03E0
1FFFC0
1FFF80
1EFE00
1E0000
1E0000
1E0000
1E0000
1E0000
1E0000
1E0000
ENDCHAR
STARTCHAR U+00FF
ENCODING 255
SWIDTH 531 0
DWIDTH 21 0
BBX 21 34 0 -7
BITMAP
020200
070700
0F8F80
070700
020200
000000
000000
000000
7800F0
7801E0
3C01E0
3C01E0
3C03C0
1E03C0
1E0380
0F0780
0F0780
070F00
078F00
078E00
03DE00
03DC00
01DC00
01FC00
01F800
00F800
00F000
007000
00F000
00E000
01E000
0FC000
0F8000
0F0000
ENDCHAR
STARTCHAR U+2013
ENCODING 8211
SWIDTH 480 0
DWIDTH 19 0
BBX 21 12 -1 0
BITMAP
FFFFE0
FFFFE0
FFFFE0
000000
000000
000000
000000
000000
000000
000000
000000
000000
ENDCHAR
STARTCHAR U+2014
ENCODING 8212
SWIDTH 960 0
DWIDTH 38 0
BBX 40 12 -1 0
BITMAP
FFFFFFFFFC
FFFFFFFFFC
FFFFFFFFFC
0000000000
0000000000
0000000000
0000000000
0000000000
0000000000
0000000000
0000000000
0000000000
ENDCHAR
STARTCHAR U+2018
ENCODING 8216
SWIDTH 227 0
DWIDTH 9 0
BBX 9 26 0 0
BITMAP
0200
0C00
1C00
1C00
1C00
1E00
1E00
1C00
0800
0000
0000
0000
0000
0000
0000
0000
0000
0000
0000
0000
0000
0000
0000
0000
0000
0000
ENDCHAR
STARTCHAR U+2019
ENCODING 8217
SWIDTH 227 0
DWIDTH 9 0
BBX 9 26 0 0
BITMAP
0800
1C00
3E00
1E00
1E00
0C00
0C00
1800
0000
0000
0000
0000
0000
0000
0000
0000
0000
0000
0000
0000
0000
0000
0000
0000
0000
0000
ENDCHAR
STARTCHAR U+201C
ENCODING 8220
SWIDTH 379 0
DWIDTH 15 0
BBX 15 26 0 0
BITMAP
0208
0C30
1C70
1C70
1C70
1E78
1E78
1C70
0820
0000
0000
0000
0000
0000
0000
0000
0000
0000
0000
0000
0000
0000
0000
0000
0000
0000
ENDCHAR
STARTCHAR U+201D
ENCODING 8221
SWIDTH 379 0
DWIDTH 15 0
BBX 15 26 0 0
BITMAP
0820
1C70
3EF8
1E78
1E78
0C30
0C30
1860
0000
0000
0000
0000
0000
0000
0000
0000
0000
0000
0000
0000
0000
0000
0000
0000
0000
0000
ENDCHAR
STARTCHAR U+2022
ENCODING 8226
SWIDTH 404 0
DWIDTH 16 0
BBX 16 17 0 0
BITMAP
0080
01C0
03C0
07E0
0FF0
0FF0
07E0
03C0
01C0
0080
0000
0000
0000
0000
0000
0000
0000
ENDCHAR
STARTCHAR U+2026
ENCODING 8230
SWIDTH 884 0
DWIDTH 35 0
BBX 35 5 0 0
BITMAP
0800400400
1C00E00E00
3E01F01F00
1E00F00F00
0800400400
ENDCHAR
STARTCHAR U+20AC
ENCODING 8364
SWIDTH 606 0
DWIDTH 24 0
BBX 24 26 0 0
BITMAP
001FC0
007FF8
00FFFC
01F03C
03E00C
078000
0F8000
0F0000
0F0000
7FFFC0
7FFFC0
7FFF80
1E0000
1E0000
1E0000
7FFF00
7FFF00
7FFF00
0F0000
0F0000
078000
07C004
03F03C
01FFFC
007FF0
001FC0
ENDCHAR
ENDFONT
