STARTFONT 2.1
COMMENT Converted from Johnston100 W03 Regular.ttf at 12px with ttf2bdf.py (Pillow, 1-bit, no AA)
FONT -Misc-Johnston100-Medium-R-Normal--12-120-75-75-P-140-ISO10646-1
SIZE 12 75 75
FONTBOUNDINGBOX 14 14 -1 -3
STARTPROPERTIES 9
FOUNDRY "Misc"
FAMILY_NAME "Johnston100"
WEIGHT_NAME "Medium"
SLANT "R"
PIXEL_SIZE 12
RESOLUTION_X 75
RESOLUTION_Y 75
FONT_ASCENT 11
FONT_DESCENT 3
ENDPROPERTIES
CHARS 200
STARTCHAR space
ENCODING 32
SWIDTH 240 0
DWIDTH 3 0
BBX 3 14 0 -3
BITMAP
00
00
00
00
00
00
00
00
00
00
00
00
00
00
ENDCHAR
STARTCHAR !
ENCODING 33
SWIDTH 240 0
DWIDTH 3 0
BBX 3 8 0 0
BITMAP
40
40
40
40
40
40
00
40
ENDCHAR
STARTCHAR "
ENCODING 34
SWIDTH 400 0
DWIDTH 5 0
BBX 5 8 0 0
BITMAP
50
50
50
00
00
00
00
00
ENDCHAR
STARTCHAR U+0023
ENCODING 35
SWIDTH 720 0
DWIDTH 9 0
BBX 9 8 0 0
BITMAP
0A00
1200
7F80
1200
1400
FF00
2400
2800
ENDCHAR
STARTCHAR $
ENCODING 36
SWIDTH 480 0
DWIDTH 6 0
BBX 6 10 0 -1
BITMAP
20
78
40
60
30
08
0C
C8
78
20
ENDCHAR
STARTCHAR %
ENCODING 37
SWIDTH 720 0
DWIDTH 9 0
BBX 9 8 0 0
BITMAP
7200
5400
7400
0800
0800
1700
1500
2700
ENDCHAR
STARTCHAR &
ENCODING 38
SWIDTH 640 0
DWIDTH 8 0
BBX 9 8 0 0
BITMAP
3800
6C00
2800
3800
7A00
4E00
4600
7B00
ENDCHAR
STARTCHAR '
ENCODING 39
SWIDTH 240 0
DWIDTH 3 0
BBX 3 8 0 0
BITMAP
40
40
40
00
00
00
00
00
ENDCHAR
STARTCHAR (
ENCODING 40
SWIDTH 240 0
DWIDTH 3 0
BBX 3 10 0 -1
BITMAP
20
40
40
40
40
40
40
40
40
20
ENDCHAR
STARTCHAR )
ENCODING 41
SWIDTH 240 0
DWIDTH 3 0
BBX 3 10 0 -1
BITMAP
40
40
40
40
40
40
40
40
40
40
ENDCHAR
STARTCHAR *
ENCODING 42
SWIDTH 400 0
DWIDTH 5 0
BBX 5 8 0 0
BITMAP
20
70
70
20
00
00
00
00
ENDCHAR
STARTCHAR +
ENCODING 43
SWIDTH 480 0
DWIDTH 6 0
BBX 6 7 0 0
BITMAP
10
10
7C
10
10
00
00
ENDCHAR
STARTCHAR ,
ENCODING 44
SWIDTH 240 0
DWIDTH 3 0
BBX 3 4 0 -2
BITMAP
40
40
40
00
ENDCHAR
STARTCHAR -
ENCODING 45
SWIDTH 400 0
DWIDTH 5 0
BBX 5 4 0 0
BITMAP
F0
00
00
00
ENDCHAR
STARTCHAR .
ENCODING 46
SWIDTH 240 0
DWIDTH 3 0
BBX 3 2 0 0
BITMAP
40
40
ENDCHAR
STARTCHAR /
ENCODING 47
SWIDTH 320 0
DWIDTH 4 0
BBX 4 10 0 -1
BITMAP
10
20
20
20
20
40
40
40
80
80
ENDCHAR
STARTCHAR 0
ENCODING 48
SWIDTH 560 0
DWIDTH 7 0
BBX 7 8 0 0
BITMAP
38
48
44
44
44
44
48
38
ENDCHAR
STARTCHAR 1
ENCODING 49
SWIDTH 320 0
DWIDTH 4 0
BBX 4 8 0 0
BITMAP
20
20
20
20
20
20
20
20
ENDCHAR
STARTCHAR 2
ENCODING 50
SWIDTH 480 0
DWIDTH 6 0
BBX 6 8 0 0
BITMAP
78
48
08
08
10
30
20
7C
ENDCHAR
STARTCHAR 3
ENCODING 51
SWIDTH 480 0
DWIDTH 6 0
BBX 6 8 0 0
BITMAP
78
18
10
38
0C
04
48
78
ENDCHAR
STARTCHAR 4
ENCODING 52
SWIDTH 560 0
DWIDTH 7 0
BBX 7 8 0 0
BITMAP
00
08
18
28
48
FC
08
08
ENDCHAR
STARTCHAR 5
ENCODING 53
SWIDTH 480 0
DWIDTH 6 0
BBX 6 8 0 0
BITMAP
3C
20
60
78
0C
04
88
78
ENDCHAR
STARTCHAR 6
ENCODING 54
SWIDTH 480 0
DWIDTH 6 0
BBX 6 8 0 0
BITMAP
10
20
60
78
4C
44
4C
38
ENDCHAR
STARTCHAR 7
ENCODING 55
SWIDTH 480 0
DWIDTH 6 0
BBX 6 8 0 0
BITMAP
00
00
00
00
00
00
00
00
ENDCHAR
STARTCHAR 8
ENCODING 56
SWIDTH 480 0
DWIDTH 6 0
BBX 6 8 0 0
BITMAP
38
48
48
30
68
44
4C
38
ENDCHAR
STARTCHAR 9
ENCODING 57
SWIDTH 480 0
DWIDTH 6 0
BBX 6 8 0 0
BITMAP
38
4C
44
44
7C
08
18
30
ENDCHAR
STARTCHAR :
ENCODING 58
SWIDTH 240 0
DWIDTH 3 0
BBX 3 7 0 0
BITMAP
40
40
00
00
00
40
40
ENDCHAR
STARTCHAR ;
ENCODING 59
SWIDTH 240 0
DWIDTH 3 0
BBX 3 8 0 -2
BITMAP
40
40
00
00
40
40
40
00
ENDCHAR
STARTCHAR U+003C
ENCODING 60
SWIDTH 480 0
DWIDTH 6 0
BBX 6 8 0 0
BITMAP
0C
30
40
30
0C
00
00
00
ENDCHAR
STARTCHAR =
ENCODING 61
SWIDTH 480 0
DWIDTH 6 0
BBX 6 6 0 0
BITMAP
7C
00
7C
00
00
00
ENDCHAR
STARTCHAR U+003E
ENCODING 62
SWIDTH 480 0
DWIDTH 6 0
BBX 6 8 0 0
BITMAP
40
38
0C
38
40
00
00
00
ENDCHAR
STARTCHAR ?
ENCODING 63
SWIDTH 400 0
DWIDTH 5 0
BBX 5 8 0 0
BITMAP
70
98
18
30
60
20
20
20
ENDCHAR
STARTCHAR @
ENCODING 64
SWIDTH 960 0
DWIDTH 12 0
BBX 12 10 0 -2
BITMAP
0F80
30C0
6F20
4920
5120
5160
5BC0
4C00
2100
1E00
ENDCHAR
STARTCHAR A
ENCODING 65
SWIDTH 640 0
DWIDTH 8 0
BBX 8 8 0 0
BITMAP
18
18
3C
24
24
7E
42
C3
ENDCHAR
STARTCHAR B
ENCODING 66
SWIDTH 560 0
DWIDTH 7 0
BBX 7 8 0 0
BITMAP
78
4C
4C
7C
44
46
44
7C
ENDCHAR
STARTCHAR C
ENCODING 67
SWIDTH 640 0
DWIDTH 8 0
BBX 8 8 0 0
BITMAP
1E
21
40
40
40
40
21
1E
ENDCHAR
STARTCHAR D
ENCODING 68
SWIDTH 720 0
DWIDTH 9 0
BBX 9 8 0 0
BITMAP
7C00
4600
4300
4100
4100
4300
4600
7C00
ENDCHAR
STARTCHAR E
ENCODING 69
SWIDTH 560 0
DWIDTH 7 0
BBX 7 8 0 0
BITMAP
7C
40
40
78
40
40
40
7C
ENDCHAR
STARTCHAR F
ENCODING 70
SWIDTH 480 0
DWIDTH 6 0
BBX 7 8 0 0
BITMAP
7C
40
40
78
40
40
40
40
ENDCHAR
STARTCHAR G
ENCODING 71
SWIDTH 720 0
DWIDTH 9 0
BBX 9 8 0 0
BITMAP
1E00
2100
4000
4700
4100
4100
2100
1F00
ENDCHAR
STARTCHAR H
ENCODING 72
SWIDTH 720 0
DWIDTH 9 0
BBX 9 8 0 0
BITMAP
4300
4300
4300
7F00
4300
4300
4300
4300
ENDCHAR
STARTCHAR I
ENCODING 73
SWIDTH 320 0
DWIDTH 4 0
BBX 4 8 0 0
BITMAP
40
40
40
40
40
40
40
40
ENDCHAR
STARTCHAR J
ENCODING 74
SWIDTH 480 0
DWIDTH 6 0
BBX 6 8 0 0
BITMAP
18
18
18
18
18
18
D8
70
ENDCHAR
STARTCHAR K
ENCODING 75
SWIDTH 640 0
DWIDTH 8 0
BBX 8 8 0 0
BITMAP
46
4C
58
60
50
48
44
46
ENDCHAR
STARTCHAR L
ENCODING 76
SWIDTH 560 0
DWIDTH 7 0
BBX 7 8 0 0
BITMAP
40
40
40
40
40
40
40
7C
ENDCHAR
STARTCHAR M
ENCODING 77
SWIDTH 800 0
DWIDTH 10 0
BBX 10 8 0 0
BITMAP
6080
7180
5280
4E80
4480
4080
4080
4080
ENDCHAR
STARTCHAR N
ENCODING 78
SWIDTH 720 0
DWIDTH 9 0
BBX 9 8 0 0
BITMAP
6100
6100
5100
4900
4D00
4700
4300
4100
ENDCHAR
STARTCHAR O
ENCODING 79
SWIDTH 800 0
DWIDTH 10 0
BBX 10 8 0 0
BITMAP
1E00
2100
4080
4080
4080
4080
2100
1E00
ENDCHAR
STARTCHAR P
ENCODING 80
SWIDTH 560 0
DWIDTH 7 0
BBX 7 8 0 0
BITMAP
7C
44
44
44
7C
40
40
40
ENDCHAR
STARTCHAR Q
ENCODING 81
SWIDTH 800 0
DWIDTH 10 0
BBX 10 8 0 0
BITMAP
1E00
2100
4080
4080
4080
4280
2300
1E80
ENDCHAR
STARTCHAR R
ENCODING 82
SWIDTH 560 0
DWIDTH 7 0
BBX 8 8 0 0
BITMAP
78
44
44
78
58
4C
44
46
ENDCHAR
STARTCHAR S
ENCODING 83
SWIDTH 480 0
DWIDTH 6 0
BBX 6 8 0 0
BITMAP
70
48
40
30
18
0C
48
78
ENDCHAR
STARTCHAR T
ENCODING 84
SWIDTH 560 0
DWIDTH 7 0
BBX 7 8 0 0
BITMAP
FE
10
10
10
10
10
10
10
ENDCHAR
STARTCHAR U
ENCODING 85
SWIDTH 720 0
DWIDTH 9 0
BBX 9 8 0 0
BITMAP
4100
4100
4100
4100
4100
4100
2300
1E00
ENDCHAR
STARTCHAR V
ENCODING 86
SWIDTH 640 0
DWIDTH 8 0
BBX 8 8 0 0
BITMAP
C2
42
46
24
24
38
18
18
ENDCHAR
STARTCHAR W
ENCODING 87
SWIDTH 960 0
DWIDTH 12 0
BBX 12 8 0 0
BITMAP
4620
4620
4660
6B40
2940
2940
3980
1080
ENDCHAR
STARTCHAR X
ENCODING 88
SWIDTH 640 0
DWIDTH 8 0
BBX 9 8 0 0
BITMAP
4200
6400
3C00
1800
1800
2400
6600
C300
ENDCHAR
STARTCHAR Y
ENCODING 89
SWIDTH 560 0
DWIDTH 7 0
BBX 8 8 0 0
BITMAP
46
64
28
18
10
10
10
10
ENDCHAR
STARTCHAR Z
ENCODING 90
SWIDTH 640 0
DWIDTH 8 0
BBX 8 8 0 0
BITMAP
7E
04
0C
18
10
20
60
7E
ENDCHAR
STARTCHAR [
ENCODING 91
SWIDTH 320 0
DWIDTH 4 0
BBX 4 11 0 -2
BITMAP
70
40
40
40
40
40
40
40
40
40
70
ENDCHAR
STARTCHAR \
ENCODING 92
SWIDTH 320 0
DWIDTH 4 0
BBX 4 10 0 -1
BITMAP
80
80
40
40
40
20
20
20
20
10
ENDCHAR
STARTCHAR ]
ENCODING 93
SWIDTH 320 0
DWIDTH 4 0
BBX 4 11 0 -2
BITMAP
E0
20
20
20
20
20
20
20
20
20
E0
ENDCHAR
STARTCHAR ^
ENCODING 94
SWIDTH 560 0
DWIDTH 7 0
BBX 7 8 0 0
BITMAP
10
28
44
00
00
00
00
00
ENDCHAR
STARTCHAR _
ENCODING 95
SWIDTH 480 0
DWIDTH 6 0
BBX 8 2 -1 -2
BITMAP
00
FC
ENDCHAR
STARTCHAR `
ENCODING 96
SWIDTH 400 0
DWIDTH 5 0
BBX 6 8 0 0
BITMAP
F8
88
88
88
88
88
88
F8
ENDCHAR
STARTCHAR a
ENCODING 97
SWIDTH 480 0
DWIDTH 6 0
BBX 6 6 0 0
BITMAP
78
48
38
48
48
78
ENDCHAR
STARTCHAR b
ENCODING 98
SWIDTH 560 0
DWIDTH 7 0
BBX 7 8 0 0
BITMAP
40
40
78
44
46
46
44
78
ENDCHAR
STARTCHAR c
ENCODING 99
SWIDTH 480 0
DWIDTH 6 0
BBX 6 6 0 0
BITMAP
38
44
40
40
44
38
ENDCHAR
STARTCHAR d
ENCODING 100
SWIDTH 560 0
DWIDTH 7 0
BBX 7 8 0 0
BITMAP
04
04
3C
44
44
44
44
3C
ENDCHAR
STARTCHAR e
ENCODING 101
SWIDTH 560 0
DWIDTH 7 0
BBX 7 6 0 0
BITMAP
38
44
7C
40
44
38
ENDCHAR
STARTCHAR f
ENCODING 102
SWIDTH 400 0
DWIDTH 5 0
BBX 5 8 0 0
BITMAP
30
40
F0
40
40
40
40
40
ENDCHAR
STARTCHAR g
ENCODING 103
SWIDTH 480 0
DWIDTH 6 0
BBX 6 8 0 -2
BITMAP
7C
48
48
78
60
58
84
78
ENDCHAR
STARTCHAR h
ENCODING 104
SWIDTH 560 0
DWIDTH 7 0
BBX 7 8 0 0
BITMAP
40
40
78
44
44
44
44
44
ENDCHAR
STARTCHAR i
ENCODING 105
SWIDTH 240 0
DWIDTH 3 0
BBX 3 8 0 0
BITMAP
40
40
40
40
40
40
40
40
ENDCHAR
STARTCHAR j
ENCODING 106
SWIDTH 240 0
DWIDTH 3 0
BBX 4 10 -1 -2
BITMAP
40
40
40
40
40
40
40
40
40
C0
ENDCHAR
STARTCHAR k
ENCODING 107
SWIDTH 480 0
DWIDTH 6 0
BBX 7 8 0 0
BITMAP
40
40
4C
50
60
70
58
4C
ENDCHAR
STARTCHAR l
ENCODING 108
SWIDTH 320 0
DWIDTH 4 0
BBX 4 8 0 0
BITMAP
40
40
40
40
40
40
40
70
ENDCHAR
STARTCHAR m
ENCODING 109
SWIDTH 880 0
DWIDTH 11 0
BBX 11 6 0 0
BITMAP
7B80
4440
4440
4440
4440
4440
ENDCHAR
STARTCHAR n
ENCODING 110
SWIDTH 560 0
DWIDTH 7 0
BBX 7 6 0 0
BITMAP
78
44
44
44
44
44
ENDCHAR
STARTCHAR o
ENCODING 111
SWIDTH 560 0
DWIDTH 7 0
BBX 7 6 0 0
BITMAP
38
44
42
42
44
38
ENDCHAR
STARTCHAR p
ENCODING 112
SWIDTH 560 0
DWIDTH 7 0
BBX 7 8 0 -2
BITMAP
78
44
46
46
44
78
40
40
ENDCHAR
STARTCHAR q
ENCODING 113
SWIDTH 560 0
DWIDTH 7 0
BBX 7 8 0 -2
BITMAP
3C
44
44
44
44
3C
04
04
ENDCHAR
STARTCHAR r
ENCODING 114
SWIDTH 400 0
DWIDTH 5 0
BBX 5 6 0 0
BITMAP
58
60
40
40
40
40
ENDCHAR
STARTCHAR s
ENCODING 115
SWIDTH 480 0
DWIDTH 6 0
BBX 6 6 0 0
BITMAP
70
48
40
78
48
78
ENDCHAR
STARTCHAR t
ENCODING 116
SWIDTH 400 0
DWIDTH 5 0
BBX 5 7 0 0
BITMAP
40
F8
40
40
40
40
38
ENDCHAR
STARTCHAR u
ENCODING 117
SWIDTH 560 0
DWIDTH 7 0
BBX 7 6 0 0
BITMAP
44
44
44
44
44
3C
ENDCHAR
STARTCHAR v
ENCODING 118
SWIDTH 480 0
DWIDTH 6 0
BBX 7 6 0 0
BITMAP
C4
4C
48
28
30
10
ENDCHAR
STARTCHAR w
ENCODING 119
SWIDTH 800 0
DWIDTH 10 0
BBX 10 6 0 0
BITMAP
CC40
4CC0
4A80
7280
3380
3100
ENDCHAR
STARTCHAR x
ENCODING 120
SWIDTH 480 0
DWIDTH 6 0
BBX 7 6 0 0
BITMAP
48
78
30
30
48
CC
ENDCHAR
STARTCHAR y
ENCODING 121
SWIDTH 480 0
DWIDTH 6 0
BBX 7 8 0 -2
BITMAP
C4
4C
48
28
30
10
30
60
ENDCHAR
STARTCHAR z
ENCODING 122
SWIDTH 480 0
DWIDTH 6 0
BBX 6 6 0 0
BITMAP
78
18
30
20
60
78
ENDCHAR
STARTCHAR {
ENCODING 123
SWIDTH 320 0
DWIDTH 4 0
BBX 4 11 0 -2
BITMAP
30
20
20
20
60
40
60
20
20
20
30
ENDCHAR
STARTCHAR |
ENCODING 124
SWIDTH 240 0
DWIDTH 3 0
BBX 3 12 0 -3
BITMAP
40
40
40
40
40
40
40
40
40
40
40
40
ENDCHAR
STARTCHAR }
ENCODING 125
SWIDTH 320 0
DWIDTH 4 0
BBX 4 11 0 -2
BITMAP
C0
20
20
20
20
10
20
20
20
20
C0
ENDCHAR
STARTCHAR ~
ENCODING 126
SWIDTH 480 0
DWIDTH 6 0
BBX 6 5 0 0
BITMAP
64
58
00
00
00
ENDCHAR
STARTCHAR U+00A0
ENCODING 160
SWIDTH 240 0
DWIDTH 3 0
BBX 3 14 0 -3
BITMAP
00
00
00
00
00
00
00
00
00
00
00
00
00
00
ENDCHAR
STARTCHAR U+00A1
ENCODING 161
SWIDTH 240 0
DWIDTH 3 0
BBX 3 8 0 -2
BITMAP
40
00
40
40
40
40
40
40
ENDCHAR
STARTCHAR U+00A2
ENCODING 162
SWIDTH 480 0
DWIDTH 6 0
BBX 6 7 0 -1
BITMAP
38
44
40
40
44
38
10
ENDCHAR
STARTCHAR U+00A3
ENCODING 163
SWIDTH 480 0
DWIDTH 6 0
BBX 6 8 0 0
BITMAP
18
24
20
20
78
60
40
7C
ENDCHAR
STARTCHAR U+00A4
ENCODING 164
SWIDTH 560 0
DWIDTH 7 0
BBX 7 6 0 0
BITMAP
44
7C
44
44
7C
44
ENDCHAR
STARTCHAR U+00A5
ENCODING 165
SWIDTH 560 0
DWIDTH 7 0
BBX 8 8 0 0
BITMAP
42
44
24
6E
18
7E
10
10
ENDCHAR
STARTCHAR U+00A6
ENCODING 166
SWIDTH 240 0
DWIDTH 3 0
BBX 3 12 0 -3
BITMAP
40
40
40
40
40
00
00
40
40
40
40
40
ENDCHAR
STARTCHAR U+00A7
ENCODING 167
SWIDTH 480 0
DWIDTH 6 0
BBX 6 10 0 -2
BITMAP
70
48
40
70
C8
C8
70
08
C8
70
ENDCHAR
STARTCHAR U+00A8
ENCODING 168
SWIDTH 400 0
DWIDTH 5 0
BBX 6 8 0 0
BITMAP
F8
88
88
88
88
88
88
F8
ENDCHAR
STARTCHAR U+00A9
ENCODING 169
SWIDTH 800 0
DWIDTH 10 0
BBX 10 8 0 0
BITMAP
1E00
2100
5C80
6280
7080
5E80
2100
1E00
ENDCHAR
STARTCHAR U+00AA
ENCODING 170
SWIDTH 320 0
DWIDTH 4 0
BBX 4 8 0 0
BITMAP
60
60
A0
60
00
00
00
00
ENDCHAR
STARTCHAR U+00AB
ENCODING 171
SWIDTH 560 0
DWIDTH 7 0
BBX 7 6 0 0
BITMAP
24
6C
48
48
24
00
ENDCHAR
STARTCHAR U+00AC
ENCODING 172
SWIDTH 480 0
DWIDTH 6 0
BBX 6 6 0 0
BITMAP
7C
04
04
00
00
00
ENDCHAR
STARTCHAR U+00AD
ENCODING 173
SWIDTH 400 0
DWIDTH 5 0
BBX 5 4 0 0
BITMAP
F0
00
00
00
ENDCHAR
STARTCHAR U+00AE
ENCODING 174
SWIDTH 800 0
DWIDTH 10 0
BBX 10 8 0 0
BITMAP
1E00
2100
5C80
5480
5C80
5480
2100
1E00
ENDCHAR
STARTCHAR U+00AF
ENCODING 175
SWIDTH 400 0
DWIDTH 5 0
BBX 6 8 0 0
BITMAP
F8
88
88
88
88
88
88
F8
ENDCHAR
STARTCHAR U+00B0
ENCODING 176
SWIDTH 400 0
DWIDTH 5 0
BBX 5 8 0 0
BITMAP
70
50
70
00
00
00
00
00
ENDCHAR
STARTCHAR U+00B1
ENCODING 177
SWIDTH 480 0
DWIDTH 6 0
BBX 6 8 0 0
BITMAP
10
10
7C
10
10
00
7C
00
ENDCHAR
STARTCHAR U+00B2
ENCODING 178
SWIDTH 320 0
DWIDTH 4 0
BBX 4 8 0 0
BITMAP
60
A0
20
40
70
00
00
00
ENDCHAR
STARTCHAR U+00B3
ENCODING 179
SWIDTH 320 0
DWIDTH 4 0
BBX 4 8 0 0
BITMAP
E0
20
20
90
60
00
00
00
ENDCHAR
STARTCHAR U+00B4
ENCODING 180
SWIDTH 400 0
DWIDTH 5 0
BBX 6 8 0 0
BITMAP
F8
88
88
88
88
88
88
F8
ENDCHAR
STARTCHAR U+00B5
ENCODING 181
SWIDTH 560 0
DWIDTH 7 0
BBX 7 8 0 -2
BITMAP
44
44
44
44
44
7C
40
40
ENDCHAR
STARTCHAR U+00B6
ENCODING 182
SWIDTH 560 0
DWIDTH 7 0
BBX 7 10 0 -2
BITMAP
7C
74
74
74
14
14
14
14
14
14
ENDCHAR
STARTCHAR U+00B7
ENCODING 183
SWIDTH 240 0
DWIDTH 3 0
BBX 3 5 0 0
BITMAP
40
40
00
00
00
ENDCHAR
STARTCHAR U+00B8
ENCODING 184
SWIDTH 400 0
DWIDTH 5 0
BBX 6 8 0 0
BITMAP
F8
88
88
88
88
88
88
F8
ENDCHAR
STARTCHAR U+00B9
ENCODING 185
SWIDTH 240 0
DWIDTH 3 0
BBX 3 8 0 0
BITMAP
40
40
40
40
40
00
00
00
ENDCHAR
STARTCHAR U+00BA
ENCODING 186
SWIDTH 400 0
DWIDTH 5 0
BBX 5 8 0 0
BITMAP
70
90
90
70
00
00
00
00
ENDCHAR
STARTCHAR U+00BB
ENCODING 187
SWIDTH 560 0
DWIDTH 7 0
BBX 7 6 0 0
BITMAP
58
28
14
28
58
00
ENDCHAR
STARTCHAR U+00BC
ENCODING 188
SWIDTH 800 0
DWIDTH 10 0
BBX 10 8 0 0
BITMAP
4200
4200
4400
4800
4880
1380
13C0
2080
ENDCHAR
STARTCHAR U+00BD
ENCODING 189
SWIDTH 800 0
DWIDTH 10 0
BBX 10 8 0 0
BITMAP
4200
4200
4400
4980
4A80
1080
1100
21C0
ENDCHAR
STARTCHAR U+00BE
ENCODING 190
SWIDTH 800 0
DWIDTH 10 0
BBX 11 8 0 0
BITMAP
E100
2100
2200
9400
6440
09C0
09E0
1040
ENDCHAR
STARTCHAR U+00BF
ENCODING 191
SWIDTH 400 0
DWIDTH 5 0
BBX 6 8 0 -2
BITMAP
20
10
10
10
20
40
48
78
ENDCHAR
STARTCHAR U+00C0
ENCODING 192
SWIDTH 640 0
DWIDTH 8 0
BBX 8 11 0 0
BITMAP
30
10
00
18
18
3C
24
24
7E
42
C3
ENDCHAR
STARTCHAR U+00C1
ENCODING 193
SWIDTH 640 0
DWIDTH 8 0
BBX 8 11 0 0
BITMAP
08
10
00
18
18
3C
24
24
7E
42
C3
ENDCHAR
STARTCHAR U+00C2
ENCODING 194
SWIDTH 640 0
DWIDTH 8 0
BBX 8 11 0 0
BITMAP
18
28
00
18
18
3C
24
24
7E
42
C3
ENDCHAR
STARTCHAR U+00C3
ENCODING 195
SWIDTH 640 0
DWIDTH 8 0
BBX 8 11 0 0
BITMAP
30
18
00
18
18
3C
24
24
7E
42
C3
ENDCHAR
STARTCHAR U+00C4
ENCODING 196
SWIDTH 640 0
DWIDTH 8 0
BBX 8 11 0 0
BITMAP
28
28
00
18
18
3C
24
24
7E
42
C3
ENDCHAR
STARTCHAR U+00C5
ENCODING 197
SWIDTH 640 0
DWIDTH 8 0
BBX 8 11 0 0
BITMAP
18
18
00
18
18
3C
24
24
7E
42
C3
ENDCHAR
STARTCHAR U+00C6
ENCODING 198
SWIDTH 880 0
DWIDTH 11 0
BBX 11 8 0 0
BITMAP
0FC0
0A00
1A00
1380
3200
3E00
6200
C3E0
ENDCHAR
STARTCHAR U+00C7
ENCODING 199
SWIDTH 640 0
DWIDTH 8 0
BBX 8 11 0 -3
BITMAP
1E
21
40
40
40
40
21
1E
08
0C
1C
ENDCHAR
STARTCHAR U+00C8
ENCODING 200
SWIDTH 560 0
DWIDTH 7 0
BBX 7 11 0 0
BITMAP
30
10
00
7C
40
40
78
40
40
40
7C
ENDCHAR
STARTCHAR U+00C9
ENCODING 201
SWIDTH 560 0
DWIDTH 7 0
BBX 7 11 0 0
BITMAP
08
10
00
7C
40
40
78
40
40
40
7C
ENDCHAR
STARTCHAR U+00CA
ENCODING 202
SWIDTH 560 0
DWIDTH 7 0
BBX 7 11 0 0
BITMAP
18
28
00
7C
40
40
78
40
40
40
7C
ENDCHAR
STARTCHAR U+00CB
ENCODING 203
SWIDTH 560 0
DWIDTH 7 0
BBX 7 11 0 0
BITMAP
28
28
00
7C
40
40
78
40
40
40
7C
ENDCHAR
STARTCHAR U+00CC
ENCODING 204
SWIDTH 320 0
DWIDTH 4 0
BBX 4 11 0 0
BITMAP
C0
40
00
40
40
40
40
40
40
40
40
ENDCHAR
STARTCHAR U+00CD
ENCODING 205
SWIDTH 320 0
DWIDTH 4 0
BBX 4 11 0 0
BITMAP
20
40
00
40
40
40
40
40
40
40
40
ENDCHAR
STARTCHAR U+00CE
ENCODING 206
SWIDTH 320 0
DWIDTH 4 0
BBX 4 11 0 0
BITMAP
60
A0
00
40
40
40
40
40
40
40
40
ENDCHAR
STARTCHAR U+00CF
ENCODING 207
SWIDTH 320 0
DWIDTH 4 0
BBX 5 11 -1 0
BITMAP
A0
A0
00
40
40
40
40
40
40
40
40
ENDCHAR
STARTCHAR U+00D0
ENCODING 208
SWIDTH 720 0
DWIDTH 9 0
BBX 9 8 0 0
BITMAP
7C00
4600
4300
4100
F100
4300
4600
7C00
ENDCHAR
STARTCHAR U+00D1
ENCODING 209
SWIDTH 720 0
DWIDTH 9 0
BBX 9 11 0 0
BITMAP
1800
0C00
0000
6100
6100
5100
4900
4D00
4700
4300
4100
ENDCHAR
STARTCHAR U+00D2
ENCODING 210
SWIDTH 800 0
DWIDTH 10 0
BBX 10 11 0 0
BITMAP
1800
0800
0000
1E00
2100
4080
4080
4080
4080
2100
1E00
ENDCHAR
STARTCHAR U+00D3
ENCODING 211
SWIDTH 800 0
DWIDTH 10 0
BBX 10 11 0 0
BITMAP
0400
0800
0000
1E00
2100
4080
4080
4080
4080
2100
1E00
ENDCHAR
STARTCHAR U+00D4
ENCODING 212
SWIDTH 800 0
DWIDTH 10 0
BBX 10 11 0 0
BITMAP
0C00
1400
0000
1E00
2100
4080
4080
4080
4080
2100
1E00
ENDCHAR
STARTCHAR U+00D5
ENCODING 213
SWIDTH 800 0
DWIDTH 10 0
BBX 10 11 0 0
BITMAP
1800
0C00
0000
1E00
2100
4080
4080
4080
4080
2100
1E00
ENDCHAR
STARTCHAR U+00D6
ENCODING 214
SWIDTH 800 0
DWIDTH 10 0
BBX 10 11 0 0
BITMAP
1400
1400
0000
1E00
2100
4080
4080
4080
4080
2100
1E00
ENDCHAR
STARTCHAR U+00D7
ENCODING 215
SWIDTH 480 0
DWIDTH 6 0
BBX 6 6 0 0
BITMAP
48
38
30
38
48
00
ENDCHAR
STARTCHAR U+00D8
ENCODING 216
SWIDTH 800 0
DWIDTH 10 0
BBX 10 8 0 0
BITMAP
1E80
2100
4280
4480
4880
5080
2100
5E00
ENDCHAR
STARTCHAR U+00D9
ENCODING 217
SWIDTH 720 0
DWIDTH 9 0
BBX 9 11 0 0
BITMAP
1800
0800
0000
4100
4100
4100
4100
4100
4100
2300
1E00
ENDCHAR
STARTCHAR U+00DA
ENCODING 218
SWIDTH 720 0
DWIDTH 9 0
BBX 9 11 0 0
BITMAP
0400
0800
0000
4100
4100
4100
4100
4100
4100
2300
1E00
ENDCHAR
STARTCHAR U+00DB
ENCODING 219
SWIDTH 720 0
DWIDTH 9 0
BBX 9 11 0 0
BITMAP
0C00
1400
0000
4100
4100
4100
4100
4100
4100
2300
1E00
ENDCHAR
STARTCHAR U+00DC
ENCODING 220
SWIDTH 720 0
DWIDTH 9 0
BBX 9 11 0 0
BITMAP
1400
1400
0000
4100
4100
4100
4100
4100
4100
2300
1E00
ENDCHAR
STARTCHAR U+00DD
ENCODING 221
SWIDTH 560 0
DWIDTH 7 0
BBX 8 11 0 0
BITMAP
08
10
00
46
64
28
18
10
10
10
10
ENDCHAR
STARTCHAR U+00DE
ENCODING 222
SWIDTH 560 0
DWIDTH 7 0
BBX 7 8 0 0
BITMAP
40
40
7C
44
44
7C
40
40
ENDCHAR
STARTCHAR U+00DF
ENCODING 223
SWIDTH 560 0
DWIDTH 7 0
BBX 7 8 0 0
BITMAP
38
44
4C
58
44
44
44
58
ENDCHAR
STARTCHAR U+00E0
ENCODING 224
SWIDTH 480 0
DWIDTH 6 0
BBX 6 9 0 0
BITMAP
60
20
00
78
48
38
48
48
78
ENDCHAR
STARTCHAR U+00E1
ENCODING 225
SWIDTH 480 0
DWIDTH 6 0
BBX 6 9 0 0
BITMAP
10
20
00
78
48
38
48
48
78
ENDCHAR
STARTCHAR U+00E2
ENCODING 226
SWIDTH 480 0
DWIDTH 6 0
BBX 6 9 0 0
BITMAP
30
50
00
78
48
38
48
48
78
ENDCHAR
STARTCHAR U+00E3
ENCODING 227
SWIDTH 480 0
DWIDTH 6 0
BBX 6 9 0 0
BITMAP
60
30
00
78
48
38
48
48
78
ENDCHAR
STARTCHAR U+00E4
ENCODING 228
SWIDTH 480 0
DWIDTH 6 0
BBX 6 9 0 0
BITMAP
50
50
00
78
48
38
48
48
78
ENDCHAR
STARTCHAR U+00E5
ENCODING 229
SWIDTH 480 0
DWIDTH 6 0
BBX 6 9 0 0
BITMAP
30
30
00
78
48
38
48
48
78
ENDCHAR
STARTCHAR U+00E6
ENCODING 230
SWIDTH 800 0
DWIDTH 10 0
BBX 10 6 0 0
BITMAP
7F00
4C80
3F80
4800
4C80
7700
ENDCHAR
STARTCHAR U+00E7
ENCODING 231
SWIDTH 480 0
DWIDTH 6 0
BBX 6 9 0 -3
BITMAP
38
44
40
40
44
38
10
18
38
ENDCHAR
STARTCHAR U+00E8
ENCODING 232
SWIDTH 560 0
DWIDTH 7 0
BBX 7 9 0 0
BITMAP
30
10
00
38
44
7C
40
44
38
ENDCHAR
STARTCHAR U+00E9
ENCODING 233
SWIDTH 560 0
DWIDTH 7 0
BBX 7 9 0 0
BITMAP
10
20
00
38
44
7C
40
44
38
ENDCHAR
STARTCHAR U+00EA
ENCODING 234
SWIDTH 560 0
DWIDTH 7 0
BBX 7 9 0 0
BITMAP
30
50
00
38
44
7C
40
44
38
ENDCHAR
STARTCHAR U+00EB
ENCODING 235
SWIDTH 560 0
DWIDTH 7 0
BBX 7 9 0 0
BITMAP
28
28
00
38
44
7C
40
44
38
ENDCHAR
STARTCHAR U+00EC
ENCODING 236
SWIDTH 240 0
DWIDTH 3 0
BBX 4 9 -1 0
BITMAP
00
00
00
00
00
00
00
00
00
ENDCHAR
STARTCHAR U+00ED
ENCODING 237
SWIDTH 240 0
DWIDTH 3 0
BBX 4 9 0 0
BITMAP
20
40
00
40
40
40
40
40
40
ENDCHAR
STARTCHAR U+00EE
ENCODING 238
SWIDTH 240 0
DWIDTH 3 0
BBX 5 9 -1 0
BITMAP
00
00
00
00
00
00
00
00
00
ENDCHAR
STARTCHAR U+00EF
ENCODING 239
SWIDTH 240 0
DWIDTH 3 0
BBX 5 9 -1 0
BITMAP
A0
A0
00
40
40
40
40
40
40
ENDCHAR
STARTCHAR U+00F0
ENCODING 240
SWIDTH 560 0
DWIDTH 7 0
BBX 7 8 0 0
BITMAP
38
78
08
3C
4C
44
44
38
ENDCHAR
STARTCHAR U+00F1
ENCODING 241
SWIDTH 560 0
DWIDTH 7 0
BBX 7 9 0 0
BITMAP
30
18
00
78
44
44
44
44
44
ENDCHAR
STARTCHAR U+00F2
ENCODING 242
SWIDTH 560 0
DWIDTH 7 0
BBX 7 9 0 0
BITMAP
30
10
00
38
44
42
42
44
38
ENDCHAR
STARTCHAR U+00F3
ENCODING 243
SWIDTH 560 0
DWIDTH 7 0
BBX 7 9 0 0
BITMAP
08
10
00
38
44
42
42
44
38
ENDCHAR
STARTCHAR U+00F4
ENCODING 244
SWIDTH 560 0
DWIDTH 7 0
BBX 7 9 0 0
BITMAP
18
28
00
38
44
42
42
44
38
ENDCHAR
STARTCHAR U+00F5
ENCODING 245
SWIDTH 560 0
DWIDTH 7 0
BBX 7 9 0 0
BITMAP
30
18
00
38
44
42
42
44
38
ENDCHAR
STARTCHAR U+00F6
ENCODING 246
SWIDTH 560 0
DWIDTH 7 0
BBX 7 9 0 0
BITMAP
28
28
00
38
44
42
42
44
38
ENDCHAR
STARTCHAR U+00F7
ENCODING 247
SWIDTH 480 0
DWIDTH 6 0
BBX 6 7 0 0
BITMAP
10
10
7C
00
10
10
00
ENDCHAR
STARTCHAR U+00F8
ENCODING 248
SWIDTH 560 0
DWIDTH 7 0
BBX 7 6 0 0
BITMAP
3C
4C
52
52
64
78
ENDCHAR
STARTCHAR U+00F9
ENCODING 249
SWIDTH 560 0
DWIDTH 7 0
BBX 7 9 0 0
BITMAP
30
10
00
44
44
44
44
44
3C
ENDCHAR
STARTCHAR U+00FA
ENCODING 250
SWIDTH 560 0
DWIDTH 7 0
BBX 7 9 0 0
BITMAP
08
10
00
44
44
44
44
44
3C
ENDCHAR
STARTCHAR U+00FB
ENCODING 251
SWIDTH 560 0
DWIDTH 7 0
BBX 7 9 0 0
BITMAP
18
28
00
44
44
44
44
44
3C
ENDCHAR
STARTCHAR U+00FC
ENCODING 252
SWIDTH 560 0
DWIDTH 7 0
BBX 7 9 0 0
BITMAP
28
28
00
44
44
44
44
44
3C
ENDCHAR
STARTCHAR U+00FD
ENCODING 253
SWIDTH 480 0
DWIDTH 6 0
BBX 7 11 0 -2
BITMAP
10
20
00
C4
4C
48
28
30
10
30
60
ENDCHAR
STARTCHAR U+00FE
ENCODING 254
SWIDTH 560 0
DWIDTH 7 0
BBX 7 10 0 -2
BITMAP
40
40
78
44
46
46
44
78
40
40
ENDCHAR
STARTCHAR U+00FF
ENCODING 255
SWIDTH 480 0
DWIDTH 6 0
BBX 7 11 0 -2
BITMAP
28
28
00
C4
4C
48
28
30
10
30
60
ENDCHAR
STARTCHAR U+2013
ENCODING 8211
SWIDTH 480 0
DWIDTH 6 0
BBX 8 4 -1 0
BITMAP
FC
00
00
00
ENDCHAR
STARTCHAR U+2014
ENCODING 8212
SWIDTH 960 0
DWIDTH 12 0
BBX 14 4 -1 0
BITMAP
FFF0
0000
0000
0000
ENDCHAR
STARTCHAR U+2018
ENCODING 8216
SWIDTH 240 0
DWIDTH 3 0
BBX 3 8 0 0
BITMAP
40
40
40
00
00
00
00
00
ENDCHAR
STARTCHAR U+2019
ENCODING 8217
SWIDTH 240 0
DWIDTH 3 0
BBX 3 8 0 0
BITMAP
40
40
40
00
00
00
00
00
ENDCHAR
STARTCHAR U+201C
ENCODING 8220
SWIDTH 400 0
DWIDTH 5 0
BBX 5 8 0 0
BITMAP
50
50
50
00
00
00
00
00
ENDCHAR
STARTCHAR U+201D
ENCODING 8221
SWIDTH 400 0
DWIDTH 5 0
BBX 5 8 0 0
BITMAP
50
50
50
00
00
00
00
00
ENDCHAR
STARTCHAR U+2022
ENCODING 8226
SWIDTH 400 0
DWIDTH 5 0
BBX 5 5 0 0
BITMAP
20
70
20
00
00
ENDCHAR
STARTCHAR U+2026
ENCODING 8230
SWIDTH 880 0
DWIDTH 11 0
BBX 11 2 0 0
BITMAP
4440
4440
ENDCHAR
STARTCHAR U+20AC
ENCODING 8364
SWIDTH 640 0
DWIDTH 8 0
BBX 8 8 0 0
BITMAP
1C
22
60
FC
F8
60
22
1C
ENDCHAR
ENDFONT
