STARTFONT 2.1
COMMENT Converted from Johnston100 W03 Regular.ttf at 30px with ttf2bdf.py (Pillow, 1-bit, no AA)
FONT -Misc-Johnston100-Medium-R-Normal--30-300-75-75-P-320-ISO10646-1
SIZE 30 75 75
FONTBOUNDINGBOX 32 35 -2 -8
STARTPROPERTIES 9
FOUNDRY "Misc"
FAMILY_NAME "Johnston100"
WEIGHT_NAME "Medium"
SLANT "R"
PIXEL_SIZE 30
RESOLUTION_X 75
RESOLUTION_Y 75
FONT_ASCENT 27
FONT_DESCENT 8
ENDPROPERTIES
CHARS 200
STARTCHAR space
ENCODING 32
SWIDTH 256 0
DWIDTH 8 0
BBX 8 35 0 -8
BITMAP
00
00
00
00
00
00
00
00
00
00
00
00
00
00
00
00
00
00
00
00
00
00
00
00
00
00
00
00
00
00
00
00
00
00
00
ENDCHAR
STARTCHAR !
ENCODING 33
SWIDTH 288 0
DWIDTH 9 0
BBX 9 20 0 0
BITMAP
1C00
1C00
1C00
1C00
1C00
1C00
1C00
1C00
1C00
1C00
1C00
1C00
1800
1800
1800
0000
0800
1C00
1C00
0800
ENDCHAR
STARTCHAR "
ENCODING 34
SWIDTH 384 0
DWIDTH 12 0
BBX 12 20 0 0
BITMAP
39C0
39C0
39C0
39C0
38C0
38C0
10C0
10C0
0000
0000
0000
0000
0000
0000
0000
0000
0000
0000
0000
0000
ENDCHAR
STARTCHAR U+0023
ENCODING 35
SWIDTH 736 0
DWIDTH 23 0
BBX 23 20 0 0
BITMAP
001020
0070E0
0060C0
0060C0
00E1C0
00E1C0
1FFFFC
1FFFF8
01C380
018300
018300
038700
7FFFF0
7FFFE0
070E00
060C00
060C00
0E1C00
0E1C00
081000
ENDCHAR
STARTCHAR $
ENCODING 36
SWIDTH 480 0
DWIDTH 15 0
BBX 15 25 0 -3
BITMAP
0380
0380
0FC0
1FF0
3FF0
3820
3800
3800
3C00
1F00
0FC0
03F0
00F8
0078
003C
001C
201C
703C
7878
3FF8
1FF0
0FC0
0380
0380
0000
ENDCHAR
STARTCHAR %
ENCODING 37
SWIDTH 704 0
DWIDTH 22 0
BBX 22 20 0 0
BITMAP
0F0180
3F8380
39C300
30C700
30C600
39CE00
3F8C00
0F1C00
001800
003800
003000
007000
0063E0
00E7F0
00CE38
01CC38
018E38
038E38
0307F0
0703E0
ENDCHAR
STARTCHAR &
ENCODING 38
SWIDTH 672 0
DWIDTH 21 0
BBX 21 20 0 0
BITMAP
03E000
07F800
0FFC00
0E3C00
1C1C00
1E1C00
0E1C00
0F7800
07F000
07C000
0FE0E0
1CF1C0
387BC0
383F80
701F00
780F00
3C3F80
3FFFC0
1FF1E0
07C0F0
ENDCHAR
STARTCHAR '
ENCODING 39
SWIDTH 224 0
DWIDTH 7 0
BBX 7 20 0 0
BITMAP
38
38
38
38
38
38
10
10
00
00
00
00
00
00
00
00
00
00
00
00
ENDCHAR
STARTCHAR (
ENCODING 40
SWIDTH 256 0
DWIDTH 8 0
BBX 8 24 0 -2
BITMAP
0E
0C
1C
1C
18
38
38
38
38
38
30
30
30
38
38
38
38
38
38
18
1C
1C
0C
0E
ENDCHAR
STARTCHAR )
ENCODING 41
SWIDTH 256 0
DWIDTH 8 0
BBX 8 24 0 -2
BITMAP
70
70
38
38
18
18
1C
1C
1C
1C
1C
1C
1C
1C
1C
1C
1C
1C
18
18
38
38
30
70
ENDCHAR
STARTCHAR *
ENCODING 42
SWIDTH 384 0
DWIDTH 12 0
BBX 12 20 0 0
BITMAP
0600
0600
2640
76E0
1FC0
0700
1F80
76E0
2640
0600
0600
0000
0000
0000
0000
0000
0000
0000
0000
0000
ENDCHAR
STARTCHAR +
ENCODING 43
SWIDTH 512 0
DWIDTH 16 0
BBX 16 16 0 0
BITMAP
0180
0180
0180
0180
0180
3FFC
3FFC
3FFC
0180
0180
0180
0180
0000
0000
0000
0000
ENDCHAR
STARTCHAR ,
ENCODING 44
SWIDTH 224 0
DWIDTH 7 0
BBX 7 9 0 -4
BITMAP
10
38
38
18
18
10
20
00
00
ENDCHAR
STARTCHAR -
ENCODING 45
SWIDTH 352 0
DWIDTH 11 0
BBX 11 9 0 0
BITMAP
7FC0
7FC0
7FC0
0000
0000
0000
0000
0000
0000
ENDCHAR
STARTCHAR .
ENCODING 46
SWIDTH 224 0
DWIDTH 7 0
BBX 7 4 0 0
BITMAP
10
3C
38
10
ENDCHAR
STARTCHAR /
ENCODING 47
SWIDTH 320 0
DWIDTH 10 0
BBX 10 24 0 -2
BITMAP
01C0
0180
0380
0380
0300
0700
0700
0600
0600
0E00
0E00
0C00
1C00
1C00
1800
3800
3800
3800
3000
7000
7000
6000
E000
E000
ENDCHAR
STARTCHAR 0
ENCODING 48
SWIDTH 576 0
DWIDTH 18 0
BBX 18 20 0 0
BITMAP
01E000
07F800
0FFC00
0E1C00
1C0E00
1C0E00
1C0E00
380700
380700
380700
380700
380700
3C0700
1C0E00
1C0E00
1C0E00
0E1C00
0FFC00
07F800
01F000
ENDCHAR
STARTCHAR 1
ENCODING 49
SWIDTH 288 0
DWIDTH 9 0
BBX 9 20 0 0
BITMAP
0400
1C00
1C00
1C00
1C00
1C00
1C00
1C00
1C00
1C00
1C00
1C00
1C00
1C00
1C00
1C00
1C00
1C00
1C00
1C00
ENDCHAR
STARTCHAR 2
ENCODING 50
SWIDTH 480 0
DWIDTH 15 0
BBX 15 20 0 0
BITMAP
07C0
1FF0
1FF8
3878
3038
2038
0038
0038
0038
0070
00F0
00E0
01C0
03C0
0380
0700
0E00
1FFC
1FFC
3FFC
ENDCHAR
STARTCHAR 3
ENCODING 51
SWIDTH 480 0
DWIDTH 15 0
BBX 15 20 0 0
BITMAP
3FFC
3FF8
3FF8
0070
00E0
00E0
01C0
03C0
03F0
0478
003C
001C
001C
001C
001C
201C
787C
3FF8
1FF0
0FC0
ENDCHAR
STARTCHAR 4
ENCODING 52
SWIDTH 544 0
DWIDTH 17 0
BBX 17 20 0 0
BITMAP
000000
000800
001800
003800
007800
00F800
01F800
01F800
03B800
073800
0E3800
1C3800
3C3800
7FFF00
FFFF00
003800
003800
003800
003800
003800
ENDCHAR
STARTCHAR 5
ENCODING 53
SWIDTH 512 0
DWIDTH 16 0
BBX 16 20 0 0
BITMAP
0FFC
0FFC
0FFC
0E00
0E00
0E00
1C00
1FC0
1FF0
1078
003C
001C
001C
001C
001C
201C
787C
7FF8
1FF0
0FC0
ENDCHAR
STARTCHAR 6
ENCODING 54
SWIDTH 512 0
DWIDTH 16 0
BBX 16 20 0 0
BITMAP
01F0
03C0
0780
0700
0F00
1E00
1C00
3FE0
3FF8
3FF8
3C3C
701C
701E
700E
781C
381C
3C3C
1FF8
0FF0
07C0
ENDCHAR
STARTCHAR 7
ENCODING 55
SWIDTH 480 0
DWIDTH 15 0
BBX 15 20 0 0
BITMAP
7FFC
7FF8
7FF8
0070
0070
00F0
00E0
00E0
01C0
01C0
0380
0380
0700
0700
0F00
0E00
1E00
1C00
3C00
3800
ENDCHAR
STARTCHAR 8
ENCODING 56
SWIDTH 512 0
DWIDTH 16 0
BBX 16 20 0 0
BITMAP
03E0
0FF0
1FF8
1C38
1C18
1818
1C38
1E78
0FF0
07E0
1FF8
3C3C
381C
381C
381E
381C
3C3C
1FFC
1FF0
07E0
ENDCHAR
STARTCHAR 9
ENCODING 57
SWIDTH 512 0
DWIDTH 16 0
BBX 16 20 0 0
BITMAP
07E0
0FF0
1FF8
3C3C
381C
381E
700E
780E
380E
3C3C
1FFC
1FFC
07FC
0038
0078
00F0
01E0
01E0
03C0
0F80
ENDCHAR
STARTCHAR :
ENCODING 58
SWIDTH 288 0
DWIDTH 9 0
BBX 9 15 0 0
BITMAP
0800
1E00
1C00
0800
0000
0000
0000
0000
0000
0000
0000
0800
1E00
1C00
0800
ENDCHAR
STARTCHAR ;
ENCODING 59
SWIDTH 288 0
DWIDTH 9 0
BBX 9 19 0 -4
BITMAP
0800
1E00
1C00
0800
0000
0000
0000
0000
0000
0000
0000
0800
1C00
1C00
0C00
0C00
0800
1000
0000
ENDCHAR
STARTCHAR U+003C
ENCODING 60
SWIDTH 512 0
DWIDTH 16 0
BBX 16 18 0 0
BITMAP
0004
001C
007C
01F8
07E0
1F80
3E00
3E00
1F80
07E0
01F8
007C
001C
0004
0000
0000
0000
0000
ENDCHAR
STARTCHAR =
ENCODING 61
SWIDTH 512 0
DWIDTH 16 0
BBX 16 14 0 0
BITMAP
3FFC
3FFC
3FFC
0000
0000
0000
3FFC
3FFC
3FFC
0000
0000
0000
0000
0000
ENDCHAR
STARTCHAR U+003E
ENCODING 62
SWIDTH 512 0
DWIDTH 16 0
BBX 16 18 0 0
BITMAP
3000
3800
3E00
1F80
07E0
01F8
007C
007C
01F8
07E0
0F80
3E00
3800
3000
0000
0000
0000
0000
ENDCHAR
STARTCHAR ?
ENCODING 63
SWIDTH 448 0
DWIDTH 14 0
BBX 14 20 0 0
BITMAP
0F80
3FC0
7FE0
70F0
2070
0070
0070
00E0
03E0
0780
0F00
0E00
0E00
0F00
0600
0000
0200
0F00
0700
0200
ENDCHAR
STARTCHAR @
ENCODING 64
SWIDTH 928 0
DWIDTH 29 0
BBX 29 26 0 -6
BITMAP
001FE000
007FFC00
01F03E00
03800700
07000380
0E0001C0
0C0FD0C0
1C1FF0E0
183870E0
38707060
38E07060
30E07060
30E07060
30E07060
30E070E0
30E060C0
30E060C0
3870F180
383FFF80
1C1F3E00
1C000000
0E000000
07001000
03E07000
00FFF000
003FC000
ENDCHAR
STARTCHAR A
ENCODING 65
SWIDTH 640 0
DWIDTH 20 0
BBX 20 20 0 0
BITMAP
00E000
00F000
00F000
01F800
01F800
039C00
039C00
039C00
070E00
070E00
0E0700
0E0700
0FFF00
1FFF80
1FFF80
3C01C0
3801C0
3801E0
7000E0
7000E0
ENDCHAR
STARTCHAR B
ENCODING 66
SWIDTH 576 0
DWIDTH 18 0
BBX 18 20 0 0
BITMAP
1FE000
1FF800
1FFC00
1C3C00
1C1C00
1C1C00
1C1C00
1C3C00
1FF800
1FFC00
1FFE00
1C0F00
1C0700
1C0780
1C0780
1C0700
1C0F00
1FFF00
1FFE00
1FF800
ENDCHAR
STARTCHAR C
ENCODING 67
SWIDTH 640 0
DWIDTH 20 0
BBX 20 20 0 0
BITMAP
007F00
01FFC0
07FFE0
0FC0E0
1F0020
1C0000
3C0000
380000
380000
380000
380000
380000
380000
3C0000
1E0000
1F0020
0FC0E0
07FFE0
01FFC0
007F00
ENDCHAR
STARTCHAR D
ENCODING 68
SWIDTH 704 0
DWIDTH 22 0
BBX 22 20 0 0
BITMAP
1FF800
1FFE00
1FFF80
1C0FC0
1C03E0
1C01E0
1C00F0
1C0070
1C0070
1C0070
1C0070
1C0070
1C0070
1C00E0
1C01E0
1C03C0
1C0FC0
1FFF80
1FFE00
1FF000
ENDCHAR
STARTCHAR E
ENCODING 69
SWIDTH 544 0
DWIDTH 17 0
BBX 17 20 0 0
BITMAP
1FFF00
1FFF00
1FFF00
1C0000
1C0000
1C0000
1C0000
1C0000
1FF800
1FF800
1FF800
1C0000
1C0000
1C0000
1C0000
1C0000
1C0000
1FFF00
1FFF00
1FFF00
ENDCHAR
STARTCHAR F
ENCODING 70
SWIDTH 512 0
DWIDTH 16 0
BBX 16 20 0 0
BITMAP
1FFE
1FFE
1FFE
1C00
1C00
1C00
1C00
1C00
1FF8
1FF8
1FF8
1C00
1C00
1C00
1C00
1C00
1C00
1C00
1C00
1C00
ENDCHAR
STARTCHAR G
ENCODING 71
SWIDTH 704 0
DWIDTH 22 0
BBX 22 20 0 0
BITMAP
007F00
01FFC0
07FFF0
0FC0F0
1F0030
1E0000
3C0000
380000
380FF0
380FF0
380FF0
380070
380070
3C0070
1E0070
1F0070
0FC1F0
07FFF0
01FFE0
007F00
ENDCHAR
STARTCHAR H
ENCODING 72
SWIDTH 704 0
DWIDTH 22 0
BBX 22 20 0 0
BITMAP
1C00E0
1C00E0
1C00E0
1C00E0
1C00E0
1C00E0
1C00E0
1C00E0
1FFFE0
1FFFE0
1FFFE0
1C00E0
1C00E0
1C00E0
1C00E0
1C00E0
1C00E0
1C00E0
1C00E0
1C00E0
ENDCHAR
STARTCHAR I
ENCODING 73
SWIDTH 288 0
DWIDTH 9 0
BBX 9 20 0 0
BITMAP
1C00
1C00
1C00
1C00
1C00
1C00
1C00
1C00
1C00
1C00
1C00
1C00
1C00
1C00
1C00
1C00
1C00
1C00
1C00
1C00
ENDCHAR
STARTCHAR J
ENCODING 74
SWIDTH 448 0
DWIDTH 14 0
BBX 14 20 0 0
BITMAP
0070
0070
0070
0070
0070
0070
0070
0070
0070
0070
0070
0070
0070
0070
0070
20F0
70E0
7FE0
3FC0
1F00
ENDCHAR
STARTCHAR K
ENCODING 75
SWIDTH 608 0
DWIDTH 19 0
BBX 19 20 0 0
BITMAP
1C03C0
1C0780
1C1E00
1C3C00
1C7800
1CF000
1DE000
1FC000
1F8000
1F8000
1FC000
1DE000
1CF000
1C7800
1C3C00
1C1E00
1C0F00
1C0F00
1C0780
1C03C0
ENDCHAR
STARTCHAR L
ENCODING 76
SWIDTH 512 0
DWIDTH 16 0
BBX 16 20 0 0
BITMAP
1C00
1C00
1C00
1C00
1C00
1C00
1C00
1C00
1C00
1C00
1C00
1C00
1C00
1C00
1C00
1C00
1C00
1FFF
1FFF
1FFF
ENDCHAR
STARTCHAR M
ENCODING 77
SWIDTH 832 0
DWIDTH 26 0
BBX 26 20 0 0
BITMAP
1C000E00
1E001E00
1F003E00
1F807E00
1FC0FE00
1DE1EE00
1CE1CE00
1CF3CE00
1C7F8E00
1C3F0E00
1C1E0E00
1C0C0E00
1C080E00
1C000E00
1C000E00
1C000E00
1C000E00
1C000E00
1C000E00
1C000E00
ENDCHAR
STARTCHAR N
ENCODING 78
SWIDTH 736 0
DWIDTH 23 0
BBX 23 20 0 0
BITMAP
1C0070
1E0070
1F0070
1F0070
1F8070
1FC070
1DE070
1CF070
1C7070
1C7870
1C3C70
1C1E70
1C0F70
1C0770
1C07F0
1C03F0
1C01F0
1C00F0
1C0070
1C0070
ENDCHAR
STARTCHAR O
ENCODING 79
SWIDTH 800 0
DWIDTH 25 0
BBX 25 20 0 0
BITMAP
007F0000
01FFC000
07FFE000
0F81F000
1E007800
1C003C00
3C001C00
38001E00
38000E00
38000E00
38000E00
38000E00
38001E00
3C001C00
1C003C00
1F007800
0F81F000
07FFE000
01FFC000
007F0000
ENDCHAR
STARTCHAR P
ENCODING 80
SWIDTH 576 0
DWIDTH 18 0
BBX 18 20 0 0
BITMAP
1FF800
1FFC00
1FFE00
1C0F00
1C0700
1C0700
1C0700
1C0700
1C0F00
1FFE00
1FFC00
1FF000
1C0000
1C0000
1C0000
1C0000
1C0000
1C0000
1C0000
1C0000
ENDCHAR
STARTCHAR Q
ENCODING 81
SWIDTH 800 0
DWIDTH 25 0
BBX 25 20 0 0
BITMAP
007F0000
01FFC000
07FFE000
0F81F000
1E007800
1C003C00
3C001C00
38001E00
38000E00
38000E00
38000E00
38000E00
38001E00
3C009C00
1C03FC00
1F01F800
0F81F000
07FFFC00
01FFFC00
007F0800
ENDCHAR
STARTCHAR R
ENCODING 82
SWIDTH 576 0
DWIDTH 18 0
BBX 19 20 0 0
BITMAP
1FF000
1FF800
1FFC00
1C1E00
1C0E00
1C0E00
1C0E00
1C1E00
1FFC00
1FF800
1FF000
1CF000
1C7800
1C3800
1C3C00
1C1E00
1C0F00
1C0F00
1C0780
1C03C0
ENDCHAR
STARTCHAR S
ENCODING 83
SWIDTH 480 0
DWIDTH 15 0
BBX 15 20 0 0
BITMAP
07C0
1FE0
3FF0
3C70
3820
3800
3C00
1F00
1FC0
07F0
01F8
0078
003C
001C
201C
703C
7878
3FF8
1FF0
07C0
ENDCHAR
STARTCHAR T
ENCODING 84
SWIDTH 544 0
DWIDTH 17 0
BBX 17 20 0 0
BITMAP
7FFF80
7FFF80
7FFF80
01C000
01C000
01C000
01C000
01C000
01C000
01C000
01C000
01C000
01C000
01C000
01C000
01C000
01C000
01C000
01C000
01C000
ENDCHAR
STARTCHAR U
ENCODING 85
SWIDTH 736 0
DWIDTH 23 0
BBX 23 20 0 0
BITMAP
1C0038
1C0038
1C0038
1C0038
1C0038
1C0038
1C0038
1C0038
1C0038
1C0038
1C0038
1C0038
1C0070
1C0070
1E0070
0F00F0
0F83E0
07FFC0
03FF80
00FE00
ENDCHAR
STARTCHAR V
ENCODING 86
SWIDTH 608 0
DWIDTH 19 0
BBX 19 20 0 0
BITMAP
7001C0
7001C0
3801C0
380380
3C0380
1C0780
1C0700
0E0700
0E0E00
0E0E00
070E00
071C00
079C00
039C00
03B800
01F800
01F000
01F000
00F000
00E000
ENDCHAR
STARTCHAR W
ENCODING 87
SWIDTH 928 0
DWIDTH 29 0
BBX 29 20 0 0
BITMAP
70070070
38078070
380F80F0
380F80E0
3C0FC0E0
1C0FC0E0
1C1DC1C0
1C1DE1C0
0E1CE1C0
0E38E380
0E38E380
07387380
07307380
07707700
07F03F00
03E03F00
03E03E00
03E01E00
01E01E00
01C01E00
ENDCHAR
STARTCHAR X
ENCODING 88
SWIDTH 640 0
DWIDTH 20 0
BBX 21 20 0 0
BITMAP
7801E0
3C03C0
1C0380
1E0700
0F0F00
079E00
039C00
01F800
01F800
00F000
01F800
01F800
039C00
079E00
0F0F00
0E0780
1C0380
3C03C0
7801E0
7000F0
ENDCHAR
STARTCHAR Y
ENCODING 89
SWIDTH 576 0
DWIDTH 18 0
BBX 18 20 0 0
BITMAP
700380
780780
3C0700
1C0E00
1E1E00
0E1C00
073C00
07B800
03F000
03F000
01E000
00E000
00E000
00E000
00E000
00E000
00E000
00E000
00E000
00E000
ENDCHAR
STARTCHAR Z
ENCODING 90
SWIDTH 608 0
DWIDTH 19 0
BBX 19 20 0 0
BITMAP
7FFFC0
7FFF80
7FFF00
000F00
000E00
001C00
003C00
007800
007000
00E000
01E000
01C000
038000
078000
070000
0E0000
1E0000
3FFFC0
3FFFC0
7FFFC0
ENDCHAR
STARTCHAR [
ENCODING 91
SWIDTH 320 0
DWIDTH 10 0
BBX 10 27 0 -3
BITMAP
3F80
3F80
3800
3800
3800
3800
3800
3800
3800
3800
3800
3800
3800
3800
3800
3800
3800
3800
3800
3800
3800
3800
3800
3800
3800
3F80
3F80
ENDCHAR
STARTCHAR \
ENCODING 92
SWIDTH 320 0
DWIDTH 10 0
BBX 10 24 0 -2
BITMAP
E000
E000
6000
7000
7000
3000
3800
3800
1800
1800
1C00
1C00
0C00
0E00
0E00
0600
0600
0700
0700
0300
0380
0380
0180
01C0
ENDCHAR
STARTCHAR ]
ENCODING 93
SWIDTH 320 0
DWIDTH 10 0
BBX 10 27 0 -3
BITMAP
7F00
7F00
0700
0700
0700
0700
0700
0700
0700
0700
0700
0700
0700
0700
0700
0700
0700
0700
0700
0700
0700
0700
0700
0700
0700
7F00
7F00
ENDCHAR
STARTCHAR ^
ENCODING 94
SWIDTH 544 0
DWIDTH 17 0
BBX 17 20 0 0
BITMAP
01C000
03E000
077000
073800
0E3800
1C1C00
1C0E00
380E00
000000
000000
000000
000000
000000
000000
000000
000000
000000
000000
000000
000000
ENDCHAR
STARTCHAR _
ENCODING 95
SWIDTH 480 0
DWIDTH 15 0
BBX 17 4 -1 -4
BITMAP
000000
000000
FFFE00
FFFE00
ENDCHAR
STARTCHAR `
ENCODING 96
SWIDTH 448 0
DWIDTH 14 0
BBX 14 20 0 0
BITMAP
FFFC
FFFC
FFFC
E01C
E01C
E01C
E01C
E01C
E01C
E01C
E01C
E01C
E01C
E01C
E01C
E01C
E01C
FFFC
FFFC
FFFC
ENDCHAR
STARTCHAR a
ENCODING 97
SWIDTH 512 0
DWIDTH 16 0
BBX 16 15 0 0
BITMAP
07C0
1FF0
1FF0
1878
2038
01F8
0FF8
1E38
3838
3838
7038
3878
3FF8
3FF8
0FB8
ENDCHAR
STARTCHAR b
ENCODING 98
SWIDTH 576 0
DWIDTH 18 0
BBX 18 20 0 0
BITMAP
380000
380000
380000
380000
380000
39F000
3FFC00
3FFE00
3C1F00
380700
380700
380380
380380
380380
380700
380700
3C1F00
3FFE00
3FFC00
3BF000
ENDCHAR
STARTCHAR c
ENCODING 99
SWIDTH 480 0
DWIDTH 15 0
BBX 15 15 0 0
BITMAP
03F0
0FFC
1FFC
1E0C
3C00
3800
3000
7000
7000
3800
3C00
1E0C
1FFC
0FFC
03F0
ENDCHAR
STARTCHAR d
ENCODING 100
SWIDTH 576 0
DWIDTH 18 0
BBX 18 20 0 0
BITMAP
000700
000700
000700
000700
000700
03F700
0FFF00
1FFF00
3E0F00
3C0700
380700
700700
700700
700700
380700
3C0700
3E0F00
1FFF00
0FFF00
03F700
ENDCHAR
STARTCHAR e
ENCODING 101
SWIDTH 544 0
DWIDTH 17 0
BBX 17 15 0 0
BITMAP
03E000
0FF800
1FFC00
3C1C00
380E00
380E00
7FFE00
7FFE00
7FFE00
380000
380200
3E0E00
1FFE00
0FFC00
03F000
ENDCHAR
STARTCHAR f
ENCODING 102
SWIDTH 384 0
DWIDTH 12 0
BBX 12 20 0 0
BITMAP
03E0
0FE0
1FE0
1C00
1C00
7FE0
7FE0
7FE0
1C00
1C00
1C00
1C00
1C00
1C00
1C00
1C00
1C00
1C00
1C00
1C00
ENDCHAR
STARTCHAR g
ENCODING 103
SWIDTH 480 0
DWIDTH 15 0
BBX 15 21 0 -6
BITMAP
07FE
1FFE
3FFE
3878
3038
7038
3038
3878
3FF0
1FF0
1FC0
3800
1F00
0FF0
3FF8
703C
600E
701E
7FFC
3FF8
0FE0
ENDCHAR
STARTCHAR h
ENCODING 104
SWIDTH 576 0
DWIDTH 18 0
BBX 18 20 0 0
BITMAP
380000
380000
380000
380000
380000
39F000
3FFC00
3FFE00
3E1E00
380F00
380700
380700
380700
380700
380700
380700
380700
380700
380700
380700
ENDCHAR
STARTCHAR i
ENCODING 105
SWIDTH 256 0
DWIDTH 8 0
BBX 8 20 0 0
BITMAP
00
18
3C
18
00
38
38
38
38
38
38
38
38
38
38
38
38
38
38
38
ENDCHAR
STARTCHAR j
ENCODING 106
SWIDTH 256 0
DWIDTH 8 0
BBX 9 26 -1 -6
BITMAP
0800
1C00
1C00
0800
0000
1C00
1C00
1C00
1C00
1C00
1C00
1C00
1C00
1C00
1C00
1C00
1C00
1C00
1C00
1C00
1C00
1C00
1C00
FC00
F800
F000
ENDCHAR
STARTCHAR k
ENCODING 107
SWIDTH 512 0
DWIDTH 16 0
BBX 16 20 0 0
BITMAP
3800
3800
3800
3800
3800
381E
383C
3878
39E0
3BC0
3F80
3F00
3F80
3BC0
39E0
38F0
3878
3878
383C
381E
ENDCHAR
STARTCHAR l
ENCODING 108
SWIDTH 320 0
DWIDTH 10 0
BBX 10 20 0 0
BITMAP
3800
3800
3800
3800
3800
3800
3800
3800
3800
3800
3800
3800
3800
3800
3800
3800
3C00
1F80
1F80
0F80
ENDCHAR
STARTCHAR m
ENCODING 109
SWIDTH 896 0
DWIDTH 28 0
BBX 28 15 0 0
BITMAP
39F07C00
3FFDFF00
3FFFFF80
3E1F8780
380E0380
380E01C0
380601C0
380601C0
380601C0
380601C0
380601C0
380601C0
380601C0
380601C0
380601C0
ENDCHAR
STARTCHAR n
ENCODING 110
SWIDTH 576 0
DWIDTH 18 0
BBX 18 15 0 0
BITMAP
39F000
3FFC00
3FFE00
3E1E00
380F00
380700
380700
380700
380700
380700
380700
380700
380700
380700
380700
ENDCHAR
STARTCHAR o
ENCODING 111
SWIDTH 576 0
DWIDTH 18 0
BBX 18 15 0 0
BITMAP
03F000
0FFC00
1FFE00
1E1F00
3C0700
380780
700380
700380
700380
380780
3C0700
1E1F00
1FFE00
0FFC00
03F000
ENDCHAR
STARTCHAR p
ENCODING 112
SWIDTH 576 0
DWIDTH 18 0
BBX 18 21 0 -6
BITMAP
3BF000
3FFC00
3FFE00
3C1F00
380F00
380700
380380
380380
380380
380700
380F00
3E1F00
3FFE00
3FFC00
3BF000
380000
380000
380000
380000
380000
380000
ENDCHAR
STARTCHAR q
ENCODING 113
SWIDTH 576 0
DWIDTH 18 0
BBX 18 21 0 -6
BITMAP
03F700
0FFF00
1FFF00
3E0F00
3C0700
380700
700700
700700
700700
380700
3C0700
3E0F00
1FFF00
0FFF00
03F700
000700
000700
000700
000700
000700
000700
ENDCHAR
STARTCHAR r
ENCODING 114
SWIDTH 384 0
DWIDTH 12 0
BBX 12 15 0 0
BITMAP
3BE0
3FE0
3FE0
3E00
3800
3800
3800
3800
3800
3800
3800
3800
3800
3800
3800
ENDCHAR
STARTCHAR s
ENCODING 115
SWIDTH 448 0
DWIDTH 14 0
BBX 14 15 0 0
BITMAP
0FC0
1FF0
3FF0
3830
3800
3C00
3FC0
1FF0
03F8
0038
2038
3038
3FF8
3FF0
0FC0
ENDCHAR
STARTCHAR t
ENCODING 116
SWIDTH 384 0
DWIDTH 12 0
BBX 12 18 0 0
BITMAP
1C00
1C00
1C00
7FF0
7FF0
7FF0
1C00
1C00
1C00
1C00
1C00
1C00
1C00
1C00
1E00
1FF0
0FF0
07F0
ENDCHAR
STARTCHAR u
ENCODING 117
SWIDTH 576 0
DWIDTH 18 0
BBX 18 15 0 0
BITMAP
380700
380700
380700
380700
380700
380700
380700
380700
380700
380700
3C0700
1E1F00
1FFF00
0FFF00
03E700
ENDCHAR
STARTCHAR v
ENCODING 118
SWIDTH 512 0
DWIDTH 16 0
BBX 16 15 0 0
BITMAP
700F
700E
380E
381C
381C
1C38
1C38
0E38
0E70
0E70
0760
07E0
03E0
03C0
01C0
ENDCHAR
STARTCHAR w
ENCODING 119
SWIDTH 832 0
DWIDTH 26 0
BBX 26 15 0 0
BITMAP
701C0380
701E0380
381E0700
383F0700
383F0700
1C330E00
1C738E00
1C738E00
0E619C00
0EE1DC00
0EC1DC00
07C0F800
07C0F800
0780F800
03807000
ENDCHAR
STARTCHAR x
ENCODING 120
SWIDTH 480 0
DWIDTH 15 0
BBX 16 15 0 0
BITMAP
781C
3838
1C70
0EF0
0FE0
07C0
03C0
03C0
07C0
0EE0
1E70
1C78
3838
781C
700E
ENDCHAR
STARTCHAR y
ENCODING 121
SWIDTH 512 0
DWIDTH 16 0
BBX 16 21 0 -6
BITMAP
700F
700E
380E
381C
381C
1C1C
1C38
0E38
0E70
0E70
0770
07E0
03E0
03C0
01C0
01C0
0380
0380
1F00
1F00
1C00
ENDCHAR
STARTCHAR z
ENCODING 122
SWIDTH 448 0
DWIDTH 14 0
BBX 14 15 0 0
BITMAP
3FF8
3FF8
3FF0
00E0
00E0
01C0
0380
0380
0700
0E00
0E00
1C00
3FF8
3FF8
7FF8
ENDCHAR
STARTCHAR {
ENCODING 123
SWIDTH 352 0
DWIDTH 11 0
BBX 11 27 0 -4
BITMAP
03C0
07C0
0E00
0E00
0E00
0E00
0E00
0E00
0E00
0E00
0C00
3C00
7800
7800
3C00
1C00
0E00
0E00
0E00
0E00
0E00
0E00
0E00
0E00
0E00
07C0
03C0
ENDCHAR
STARTCHAR |
ENCODING 124
SWIDTH 224 0
DWIDTH 7 0
BBX 7 30 0 -8
BITMAP
38
38
38
38
38
38
38
38
38
38
38
38
38
38
38
38
38
38
38
38
38
38
38
38
38
38
38
38
38
38
ENDCHAR
STARTCHAR }
ENCODING 125
SWIDTH 352 0
DWIDTH 11 0
BBX 11 27 0 -4
BITMAP
7800
7C00
1C00
0E00
0E00
0E00
0E00
0E00
0E00
0E00
0E00
0700
0380
0380
0780
0E00
0E00
0E00
0E00
0E00
0E00
0E00
0E00
0E00
1C00
7C00
7800
ENDCHAR
STARTCHAR ~
ENCODING 126
SWIDTH 512 0
DWIDTH 16 0
BBX 16 13 0 0
BITMAP
0E0C
1F0C
3FCC
39FC
30F8
3070
0000
0000
0000
0000
0000
0000
0000
ENDCHAR
STARTCHAR U+00A0
ENCODING 160
SWIDTH 256 0
DWIDTH 8 0
BBX 8 35 0 -8
BITMAP
00
00
00
00
00
00
00
00
00
00
00
00
00
00
00
00
00
00
00
00
00
00
00
00
00
00
00
00
00
00
00
00
00
00
00
ENDCHAR
STARTCHAR U+00A1
ENCODING 161
SWIDTH 288 0
DWIDTH 9 0
BBX 9 21 0 -6
BITMAP
0800
1C00
1C00
0800
0000
0000
1800
1800
1800
1800
1C00
1C00
1C00
1C00
1C00
1C00
1C00
1C00
1C00
1C00
1C00
ENDCHAR
STARTCHAR U+00A2
ENCODING 162
SWIDTH 480 0
DWIDTH 15 0
BBX 15 19 0 -2
BITMAP
00C0
00C0
03F0
0FFC
1FFC
1E0C
3C00
3800
7000
7000
7000
3800
3C00
1E0C
1FFC
0FFC
03F0
00C0
00C0
ENDCHAR
STARTCHAR U+00A3
ENCODING 163
SWIDTH 512 0
DWIDTH 16 0
BBX 16 20 0 0
BITMAP
00F8
03FC
07FC
078C
0708
0E00
0E00
0E00
0E00
3FF0
3FE0
3FE0
0E00
0E00
0C00
1C00
1C00
3FFE
3FFC
7FFC
ENDCHAR
STARTCHAR U+00A4
ENCODING 164
SWIDTH 576 0
DWIDTH 18 0
BBX 18 16 0 0
BITMAP
100200
380700
3FFF00
1FFE00
0FFE00
1E1E00
1C0E00
1C0E00
1C0E00
1C0E00
1E1E00
0FFE00
1FFE00
3FFF00
380700
100200
ENDCHAR
STARTCHAR U+00A5
ENCODING 165
SWIDTH 608 0
DWIDTH 19 0
BBX 19 20 0 0
BITMAP
7803C0
380780
3C0700
1E0F00
0E1E00
0F1C00
07BC00
3FFF00
3FFF00
01F000
00E000
00E000
3FFF00
3FFF00
00E000
00E000
00E000
00E000
00E000
00E000
ENDCHAR
STARTCHAR U+00A6
ENCODING 166
SWIDTH 224 0
DWIDTH 7 0
BBX 7 30 0 -8
BITMAP
38
38
38
38
38
38
38
38
38
38
38
38
00
00
00
00
00
00
38
38
38
38
38
38
38
38
38
38
38
38
ENDCHAR
STARTCHAR U+00A7
ENCODING 167
SWIDTH 480 0
DWIDTH 15 0
BBX 15 26 0 -6
BITMAP
0FC0
1FF0
3878
3820
7000
7800
3C00
3F00
0FC0
3FF0
78F8
7038
7038
7038
7838
3F78
1FE0
07F0
01F8
0078
0038
3038
7038
3870
1FE0
0FC0
ENDCHAR
STARTCHAR U+00A8
ENCODING 168
SWIDTH 448 0
DWIDTH 14 0
BBX 14 20 0 0
BITMAP
FFFC
FFFC
FFFC
E01C
E01C
E01C
E01C
E01C
E01C
E01C
E01C
E01C
E01C
E01C
E01C
E01C
E01C
FFFC
FFFC
FFFC
ENDCHAR
STARTCHAR U+00A9
ENCODING 169
SWIDTH 768 0
DWIDTH 24 0
BBX 24 20 0 0
BITMAP
007E00
01FFC0
0781E0
0E0070
1C3E38
18FF18
31C10C
33800C
230004
230004
230004
238004
238004
31C10C
10FF08
183E18
0C0030
060060
0381C0
007E00
ENDCHAR
STARTCHAR U+00AA
ENCODING 170
SWIDTH 288 0
DWIDTH 9 0
BBX 9 20 0 0
BITMAP
3E00
7F00
0300
1F00
7F00
7300
6300
7F00
3F00
0000
0000
0000
0000
0000
0000
0000
0000
0000
0000
0000
ENDCHAR
STARTCHAR U+00AB
ENCODING 171
SWIDTH 544 0
DWIDTH 17 0
BBX 17 15 0 0
BITMAP
038E00
071C00
0E3800
0E3800
1C7000
38E000
71C000
38E000
1C7000
0E3800
0E3800
071C00
038E00
000000
000000
ENDCHAR
STARTCHAR U+00AC
ENCODING 172
SWIDTH 512 0
DWIDTH 16 0
BBX 16 15 0 0
BITMAP
3FFC
3FFC
3FFC
001C
001C
001C
001C
001C
001C
0000
0000
0000
0000
0000
0000
ENDCHAR
STARTCHAR U+00AD
ENCODING 173
SWIDTH 352 0
DWIDTH 11 0
BBX 11 9 0 0
BITMAP
7FC0
7FC0
7FC0
0000
0000
0000
0000
0000
0000
ENDCHAR
STARTCHAR U+00AE
ENCODING 174
SWIDTH 768 0
DWIDTH 24 0
BBX 24 20 0 0
BITMAP
007E00
01FFC0
0781E0
0E0070
1CFC38
18FE18
30E70C
30E30C
20E304
20E704
20FE04
20FC04
20EE04
30E70C
10E308
18E398
0C0030
060060
0181C0
007E00
ENDCHAR
STARTCHAR U+00AF
ENCODING 175
SWIDTH 448 0
DWIDTH 14 0
BBX 14 20 0 0
BITMAP
FFFC
FFFC
FFFC
E01C
E01C
E01C
E01C
E01C
E01C
E01C
E01C
E01C
E01C
E01C
E01C
E01C
E01C
FFFC
FFFC
FFFC
ENDCHAR
STARTCHAR U+00B0
ENCODING 176
SWIDTH 384 0
DWIDTH 12 0
BBX 12 20 0 0
BITMAP
0F00
3F80
39C0
30C0
30C0
39C0
3F80
0F00
0000
0000
0000
0000
0000
0000
0000
0000
0000
0000
0000
0000
ENDCHAR
STARTCHAR U+00B1
ENCODING 177
SWIDTH 512 0
DWIDTH 16 0
BBX 16 19 0 -1
BITMAP
0180
0180
0180
0180
0180
3FFC
3FFC
3FFC
0180
0180
0180
0180
0000
0000
0000
0000
3FFC
3FFC
3FFC
ENDCHAR
STARTCHAR U+00B2
ENCODING 178
SWIDTH 320 0
DWIDTH 10 0
BBX 10 20 0 0
BITMAP
3E00
7F00
6380
4380
0300
0700
0600
0E00
1C00
1C00
3F80
3F80
0000
0000
0000
0000
0000
0000
0000
0000
ENDCHAR
STARTCHAR U+00B3
ENCODING 179
SWIDTH 320 0
DWIDTH 10 0
BBX 10 20 0 0
BITMAP
7F80
7F00
0600
0E00
0E00
1F00
0380
0180
0180
2380
7F00
3E00
0000
0000
0000
0000
0000
0000
0000
0000
ENDCHAR
STARTCHAR U+00B4
ENCODING 180
SWIDTH 448 0
DWIDTH 14 0
BBX 14 20 0 0
BITMAP
FFFC
FFFC
FFFC
E01C
E01C
E01C
E01C
E01C
E01C
E01C
E01C
E01C
E01C
E01C
E01C
E01C
E01C
FFFC
FFFC
FFFC
ENDCHAR
STARTCHAR U+00B5
ENCODING 181
SWIDTH 544 0
DWIDTH 17 0
BBX 17 21 0 -6
BITMAP
380E00
380E00
380E00
380E00
380E00
380E00
380E00
380E00
380E00
380E00
3C0E00
3E1E00
3FFE00
3FFE00
3BEE00
380000
380000
380000
380000
380000
380000
ENDCHAR
STARTCHAR U+00B6
ENCODING 182
SWIDTH 544 0
DWIDTH 17 0
BBX 17 26 0 -6
BITMAP
07FF00
1FFF00
3FCC00
3FCC00
7FCC00
7FCC00
7FCC00
3FCC00
3FCC00
1FCC00
0FCC00
01CC00
01CC00
01CC00
01CC00
01CC00
01CC00
01CC00
01CC00
01CC00
01CC00
01CC00
01CC00
01CC00
01CC00
01CC00
ENDCHAR
STARTCHAR U+00B7
ENCODING 183
SWIDTH 224 0
DWIDTH 7 0
BBX 7 12 0 0
BITMAP
10
38
38
10
00
00
00
00
00
00
00
00
ENDCHAR
STARTCHAR U+00B8
ENCODING 184
SWIDTH 448 0
DWIDTH 14 0
BBX 14 20 0 0
BITMAP
FFFC
FFFC
FFFC
E01C
E01C
E01C
E01C
E01C
E01C
E01C
E01C
E01C
E01C
E01C
E01C
E01C
E01C
FFFC
FFFC
FFFC
ENDCHAR
STARTCHAR U+00B9
ENCODING 185
SWIDTH 224 0
DWIDTH 7 0
BBX 7 20 0 0
BITMAP
08
38
38
38
38
38
38
38
38
38
38
38
00
00
00
00
00
00
00
00
ENDCHAR
STARTCHAR U+00BA
ENCODING 186
SWIDTH 384 0
DWIDTH 12 0
BBX 12 20 0 0
BITMAP
1F00
3F80
71C0
60E0
60E0
60C0
71C0
3F80
1F00
0000
0000
0000
0000
0000
0000
0000
0000
0000
0000
0000
ENDCHAR
STARTCHAR U+00BB
ENCODING 187
SWIDTH 544 0
DWIDTH 17 0
BBX 17 15 0 0
BITMAP
38E000
387000
1C3800
0E3800
071C00
030E00
038700
038E00
071C00
0E3800
1C3800
187000
38E000
000000
000000
ENDCHAR
STARTCHAR U+00BC
ENCODING 188
SWIDTH 768 0
DWIDTH 24 0
BBX 24 20 0 0
BITMAP
0800C0
380180
380380
380300
380700
380600
380E00
380C00
381C00
381804
38380C
38301C
00703C
00606C
00E0CC
00C18C
01C3FE
0187FE
03800C
03000C
ENDCHAR
STARTCHAR U+00BD
ENCODING 189
SWIDTH 800 0
DWIDTH 25 0
BBX 25 20 0 0
BITMAP
0800C000
38018000
38038000
38030000
38070000
38060000
380E0000
380C0000
381C7C00
3818FE00
3838C700
38308700
00700600
00600E00
00E00C00
00C01C00
01C03800
01803800
03807F00
03007F00
ENDCHAR
STARTCHAR U+00BE
ENCODING 190
SWIDTH 832 0
DWIDTH 26 0
BBX 26 20 0 0
BITMAP
7F803000
7F006000
0600E000
0E00C000
0E01C000
1F018000
03838000
01830000
01870000
23860100
7F0E0300
3E0C0700
001C0F00
00181B00
00383300
00306300
0070FF80
0061FF80
00E00300
00C00300
ENDCHAR
STARTCHAR U+00BF
ENCODING 191
SWIDTH 448 0
DWIDTH 14 0
BBX 14 21 0 -6
BITMAP
0100
0380
0380
0100
0000
0100
0380
03C0
01C0
01C0
07C0
0F80
1E00
3C00
3800
3800
3810
3C78
3FF8
1FF0
07C0
ENDCHAR
STARTCHAR U+00C0
ENCODING 192
SWIDTH 640 0
DWIDTH 20 0
BBX 20 26 0 0
BITMAP
038000
01C000
00E000
007000
000000
000000
00E000
00F000
00F000
01F800
01F800
039C00
039C00
039C00
070E00
070E00
0E0700
0E0700
0FFF00
1FFF80
1FFF80
3C01C0
3801C0
3801E0
7000E0
7000E0
ENDCHAR
STARTCHAR U+00C1
ENCODING 193
SWIDTH 640 0
DWIDTH 20 0
BBX 20 26 0 0
BITMAP
003C00
003800
007000
00E000
000000
000000
00E000
00F000
00F000
01F800
01F800
039C00
039C00
039C00
070E00
070E00
0E0700
0E0700
0FFF00
1FFF80
1FFF80
3C01C0
3801C0
3801E0
7000E0
7000E0
ENDCHAR
STARTCHAR U+00C2
ENCODING 194
SWIDTH 640 0
DWIDTH 20 0
BBX 20 26 0 0
BITMAP
00F000
01F000
039800
030C00
000000
000000
00E000
00F000
00F000
01F800
01F800
039C00
039C00
039C00
070E00
070E00
0E0700
0E0700
0FFF00
1FFF80
1FFF80
3C01C0
3801C0
3801E0
7000E0
7000E0
ENDCHAR
STARTCHAR U+00C3
ENCODING 195
SWIDTH 640 0
DWIDTH 20 0
BBX 20 26 0 0
BITMAP
038800
07EC00
0EFC00
047800
000000
000000
00E000
00F000
00F000
01F800
01F800
039C00
039C00
039C00
070E00
070E00
0E0700
0E0700
0FFF00
1FFF80
1FFF80
3C01C0
3801C0
3801E0
7000E0
7000E0
ENDCHAR
STARTCHAR U+00C4
ENCODING 196
SWIDTH 640 0
DWIDTH 20 0
BBX 20 26 0 0
BITMAP
010C00
039E00
039E00
010C00
000000
000000
00E000
00F000
00F000
01F800
01F800
039C00
039C00
039C00
070E00
070E00
0E0700
0E0700
0FFF00
1FFF80
1FFF80
3C01C0
3801C0
3801E0
7000E0
7000E0
ENDCHAR
STARTCHAR U+00C5
ENCODING 197
SWIDTH 640 0
DWIDTH 20 0
BBX 20 27 0 0
BITMAP
007000
009800
008800
009800
007000
000000
000000
00E000
00F000
00F000
01F800
01F800
039C00
039C00
039C00
070E00
070E00
0E0700
0E0700
0FFF00
1FFF80
1FFF80
3C01C0
3801C0
3801E0
7000E0
7000E0
ENDCHAR
STARTCHAR U+00C6
ENCODING 198
SWIDTH 896 0
DWIDTH 28 0
BBX 28 20 0 0
BITMAP
000FFFC0
001FFFC0
003FFFC0
003B8000
007B8000
00738000
00E38000
00E38000
01C3FF00
03C3FF00
0383FF00
07FF8000
07FF8000
0FFF8000
1E038000
1C038000
3C038000
3803FFC0
7803FFC0
7003FFC0
ENDCHAR
STARTCHAR U+00C7
ENCODING 199
SWIDTH 640 0
DWIDTH 20 0
BBX 20 26 0 -6
BITMAP
007F00
01FFC0
07FFE0
0FC0E0
1F0020
1C0000
3C0000
380000
380000
380000
380000
380000
380000
3C0000
1E0000
1F0020
0FC0E0
07FFE0
01FFC0
007F00
003000
003C00
000E00
000E00
00FC00
00F800
ENDCHAR
STARTCHAR U+00C8
ENCODING 200
SWIDTH 544 0
DWIDTH 17 0
BBX 17 26 0 0
BITMAP
070000
038000
01C000
00E000
000000
000000
1FFF00
1FFF00
1FFF00
1C0000
1C0000
1C0000
1C0000
1C0000
1FF800
1FF800
1FF800
1C0000
1C0000
1C0000
1C0000
1C0000
1C0000
1FFF00
1FFF00
1FFF00
ENDCHAR
STARTCHAR U+00C9
ENCODING 201
SWIDTH 544 0
DWIDTH 17 0
BBX 17 26 0 0
BITMAP
007800
007000
00E000
01C000
000000
000000
1FFF00
1FFF00
1FFF00
1C0000
1C0000
1C0000
1C0000
1C0000
1FF800
1FF800
1FF800
1C0000
1C0000
1C0000
1C0000
1C0000
1C0000
1FFF00
1FFF00
1FFF00
ENDCHAR
STARTCHAR U+00CA
ENCODING 202
SWIDTH 544 0
DWIDTH 17 0
BBX 17 26 0 0
BITMAP
01E000
03E000
073000
061800
000000
000000
1FFF00
1FFF00
1FFF00
1C0000
1C0000
1C0000
1C0000
1C0000
1FF800
1FF800
1FF800
1C0000
1C0000
1C0000
1C0000
1C0000
1C0000
1FFF00
1FFF00
1FFF00
ENDCHAR
STARTCHAR U+00CB
ENCODING 203
SWIDTH 544 0
DWIDTH 17 0
BBX 17 26 0 0
BITMAP
021800
073C00
073C00
021800
000000
000000
1FFF00
1FFF00
1FFF00
1C0000
1C0000
1C0000
1C0000
1C0000
1FF800
1FF800
1FF800
1C0000
1C0000
1C0000
1C0000
1C0000
1C0000
1FFF00
1FFF00
1FFF00
ENDCHAR
STARTCHAR U+00CC
ENCODING 204
SWIDTH 288 0
DWIDTH 9 0
BBX 9 26 0 0
BITMAP
7000
3800
1C00
0E00
0000
0000
1C00
1C00
1C00
1C00
1C00
1C00
1C00
1C00
1C00
1C00
1C00
1C00
1C00
1C00
1C00
1C00
1C00
1C00
1C00
1C00
ENDCHAR
STARTCHAR U+00CD
ENCODING 205
SWIDTH 288 0
DWIDTH 9 0
BBX 9 26 0 0
BITMAP
0F00
0E00
1C00
3800
0000
0000
1C00
1C00
1C00
1C00
1C00
1C00
1C00
1C00
1C00
1C00
1C00
1C00
1C00
1C00
1C00
1C00
1C00
1C00
1C00
1C00
ENDCHAR
STARTCHAR U+00CE
ENCODING 206
SWIDTH 288 0
DWIDTH 9 0
BBX 9 26 0 0
BITMAP
0000
0000
0000
0000
0000
0000
0000
0000
0000
0000
0000
0000
0000
0000
0000
0000
0000
0000
0000
0000
0000
0000
0000
0000
0000
0000
ENDCHAR
STARTCHAR U+00CF
ENCODING 207
SWIDTH 288 0
DWIDTH 9 0
BBX 11 26 -1 0
BITMAP
2180
73C0
73C0
2180
0000
0000
0E00
0E00
0E00
0E00
0E00
0E00
0E00
0E00
0E00
0E00
0E00
0E00
0E00
0E00
0E00
0E00
0E00
0E00
0E00
0E00
ENDCHAR
STARTCHAR U+00D0
ENCODING 208
SWIDTH 704 0
DWIDTH 22 0
BBX 22 20 0 0
BITMAP
1FF800
1FFE00
1FFF80
1C0FC0
1C03E0
1C01E0
1C00F0
1C0070
1C0070
7FE070
7FE070
1C0070
1C0070
1C00E0
1C01E0
1C03C0
1C0FC0
1FFF80
1FFE00
1FF000
ENDCHAR
STARTCHAR U+00D1
ENCODING 209
SWIDTH 736 0
DWIDTH 23 0
BBX 23 26 0 0
BITMAP
00E200
01FB00
03BF00
011E00
000000
000000
1C0070
1E0070
1F0070
1F0070
1F8070
1FC070
1DE070
1CF070
1C7070
1C7870
1C3C70
1C1E70
1C0F70
1C0770
1C07F0
1C03F0
1C01F0
1C00F0
1C0070
1C0070
ENDCHAR
STARTCHAR U+00D2
ENCODING 210
SWIDTH 800 0
DWIDTH 25 0
BBX 25 26 0 0
BITMAP
00700000
00380000
001C0000
000E0000
00000000
00000000
007F0000
01FFC000
07FFE000
0F81F000
1E007800
1C003C00
3C001C00
38001E00
38000E00
38000E00
38000E00
38000E00
38001E00
3C001C00
1C003C00
1F007800
0F81F000
07FFE000
01FFC000
007F0000
ENDCHAR
STARTCHAR U+00D3
ENCODING 211
SWIDTH 800 0
DWIDTH 25 0
BBX 25 26 0 0
BITMAP
000F0000
000E0000
001C0000
00380000
00000000
00000000
007F0000
01FFC000
07FFE000
0F81F000
1E007800
1C003C00
3C001C00
38001E00
38000E00
38000E00
38000E00
38000E00
38001E00
3C001C00
1C003C00
1F007800
0F81F000
07FFE000
01FFC000
007F0000
ENDCHAR
STARTCHAR U+00D4
ENCODING 212
SWIDTH 800 0
DWIDTH 25 0
BBX 25 26 0 0
BITMAP
001E0000
003E0000
00730000
00618000
00000000
00000000
007F0000
01FFC000
07FFE000
0F81F000
1E007800
1C003C00
3C001C00
38001E00
38000E00
38000E00
38000E00
38000E00
38001E00
3C001C00
1C003C00
1F007800
0F81F000
07FFE000
01FFC000
007F0000
ENDCHAR
STARTCHAR U+00D5
ENCODING 213
SWIDTH 800 0
DWIDTH 25 0
BBX 25 26 0 0
BITMAP
00710000
00FD8000
01DF8000
008F0000
00000000
00000000
007F0000
01FFC000
07FFE000
0F81F000
1E007800
1C003C00
3C001C00
38001E00
38000E00
38000E00
38000E00
38000E00
38001E00
3C001C00
1C003C00
1F007800
0F81F000
07FFE000
01FFC000
007F0000
ENDCHAR
STARTCHAR U+00D6
ENCODING 214
SWIDTH 800 0
DWIDTH 25 0
BBX 25 26 0 0
BITMAP
00430000
00E78000
00E78000
00430000
00000000
00000000
007F0000
01FFC000
07FFE000
0F81F000
1E007800
1C003C00
3C001C00
38001E00
38000E00
38000E00
38000E00
38000E00
38001E00
3C001C00
1C003C00
1F007800
0F81F000
07FFE000
01FFC000
007F0000
ENDCHAR
STARTCHAR U+00D7
ENCODING 215
SWIDTH 512 0
DWIDTH 16 0
BBX 16 16 0 0
BITMAP
0810
1C38
1E78
0FF0
07E0
03C0
07E0
0FF0
1E78
1C38
0810
0000
0000
0000
0000
0000
ENDCHAR
STARTCHAR U+00D8
ENCODING 216
SWIDTH 800 0
DWIDTH 25 0
BBX 25 20 0 0
BITMAP
007F0400
01FFCC00
07FFF800
0F81F000
1E007800
1C00FC00
3C01DC00
38031E00
380E0E00
381C0E00
38380E00
38700E00
38E01E00
3DC01C00
1F803C00
1F007800
0F81F000
1FFFE000
39FFC000
107F0000
ENDCHAR
STARTCHAR U+00D9
ENCODING 217
SWIDTH 736 0
DWIDTH 23 0
BBX 23 26 0 0
BITMAP
00E000
007000
003800
001C00
000000
000000
1C0038
1C0038
1C0038
1C0038
1C0038
1C0038
1C0038
1C0038
1C0038
1C0038
1C0038
1C0038
1C0070
1C0070
1E0070
0F00F0
0F83E0
07FFC0
03FF80
00FE00
ENDCHAR
STARTCHAR U+00DA
ENCODING 218
SWIDTH 736 0
DWIDTH 23 0
BBX 23 26 0 0
BITMAP
000F00
000E00
001C00
003800
000000
000000
1C0038
1C0038
1C0038
1C0038
1C0038
1C0038
1C0038
1C0038
1C0038
1C0038
1C0038
1C0038
1C0070
1C0070
1E0070
0F00F0
0F83E0
07FFC0
03FF80
00FE00
ENDCHAR
STARTCHAR U+00DB
ENCODING 219
SWIDTH 736 0
DWIDTH 23 0
BBX 23 26 0 0
BITMAP
003C00
007C00
00E600
00C300
000000
000000
1C0038
1C0038
1C0038
1C0038
1C0038
1C0038
1C0038
1C0038
1C0038
1C0038
1C0038
1C0038
1C0070
1C0070
1E0070
0F00F0
0F83E0
07FFC0
03FF80
00FE00
ENDCHAR
STARTCHAR U+00DC
ENCODING 220
SWIDTH 736 0
DWIDTH 23 0
BBX 23 26 0 0
BITMAP
008600
01CF00
01CF00
008600
000000
000000
1C0038
1C0038
1C0038
1C0038
1C0038
1C0038
1C0038
1C0038
1C0038
1C0038
1C0038
1C0038
1C0070
1C0070
1E0070
0F00F0
0F83E0
07FFC0
03FF80
00FE00
ENDCHAR
STARTCHAR U+00DD
ENCODING 221
SWIDTH 576 0
DWIDTH 18 0
BBX 18 26 0 0
BITMAP
007800
007000
00E000
01C000
000000
000000
700380
780780
3C0700
1C0E00
1E1E00
0E1C00
073C00
07B800
03F000
03F000
01E000
00E000
00E000
00E000
00E000
00E000
00E000
00E000
00E000
00E000
ENDCHAR
STARTCHAR U+00DE
ENCODING 222
SWIDTH 576 0
DWIDTH 18 0
BBX 18 20 0 0
BITMAP
1C0000
1C0000
1C0000
1C0000
1FF800
1FFC00
1FFE00
1C0F00
1C0700
1C0700
1C0700
1C0700
1C0F00
1FFE00
1FFC00
1FF000
1C0000
1C0000
1C0000
1C0000
ENDCHAR
STARTCHAR U+00DF
ENCODING 223
SWIDTH 544 0
DWIDTH 17 0
BBX 17 20 0 0
BITMAP
03E000
0FF800
0FFC00
1E1C00
1C1C00
380C00
381C00
383C00
39F800
39F000
39FC00
381E00
380E00
380E00
380E00
380E00
381E00
39FC00
39FC00
39F000
ENDCHAR
STARTCHAR U+00E0
ENCODING 224
SWIDTH 512 0
DWIDTH 16 0
BBX 16 21 0 0
BITMAP
0E00
0700
0380
01C0
0000
0000
07C0
1FF0
1FF0
1878
2038
01F8
0FF8
1E38
3838
3838
7038
3878
3FF8
3FF8
0FB8
ENDCHAR
STARTCHAR U+00E1
ENCODING 225
SWIDTH 512 0
DWIDTH 16 0
BBX 16 21 0 0
BITMAP
00F0
00E0
01C0
0380
0000
0000
07C0
1FF0
1FF0
1878
2038
01F8
0FF8
1E38
3838
3838
7038
3878
3FF8
3FF8
0FB8
ENDCHAR
STARTCHAR U+00E2
ENCODING 226
SWIDTH 512 0
DWIDTH 16 0
BBX 16 21 0 0
BITMAP
03C0
07C0
0E60
0C30
0000
0000
07C0
1FF0
1FF0
1878
2038
01F8
0FF8
1E38
3838
3838
7038
3878
3FF8
3FF8
0FB8
ENDCHAR
STARTCHAR U+00E3
ENCODING 227
SWIDTH 512 0
DWIDTH 16 0
BBX 16 21 0 0
BITMAP
0E20
1FB0
3BF0
11E0
0000
0000
07C0
1FF0
1FF0
1878
2038
01F8
0FF8
1E38
3838
3838
7038
3878
3FF8
3FF8
0FB8
ENDCHAR
STARTCHAR U+00E4
ENCODING 228
SWIDTH 512 0
DWIDTH 16 0
BBX 16 21 0 0
BITMAP
0430
0E78
0E78
0430
0000
0000
07C0
1FF0
1FF0
1878
2038
01F8
0FF8
1E38
3838
3838
7038
3878
3FF8
3FF8
0FB8
ENDCHAR
STARTCHAR U+00E5
ENCODING 229
SWIDTH 512 0
DWIDTH 16 0
BBX 16 22 0 0
BITMAP
0380
04C0
0440
04C0
0380
0000
0000
07C0
1FF0
1FF0
1878
2038
01F8
0FF8
1E38
3838
3838
7038
3878
3FF8
3FF8
0FB8
ENDCHAR
STARTCHAR U+00E6
ENCODING 230
SWIDTH 800 0
DWIDTH 25 0
BBX 25 15 0 0
BITMAP
07C1F000
1FE7F800
1FFFFC00
187E1E00
203C0E00
00380E00
01FFFE00
0FFFFE00
3E380000
383C0000
301C0200
383E0E00
3FFFFE00
3FF7FC00
0FC1F000
ENDCHAR
STARTCHAR U+00E7
ENCODING 231
SWIDTH 480 0
DWIDTH 15 0
BBX 15 21 0 -6
BITMAP
03F0
0FFC
1FFC
1E0C
3C00
3800
3000
7000
7000
3800
3C00
1E0C
1FFC
07FC
03F0
00C0
01F0
0030
0030
03F0
03E0
ENDCHAR
STARTCHAR U+00E8
ENCODING 232
SWIDTH 544 0
DWIDTH 17 0
BBX 17 21 0 0
BITMAP
0E0000
070000
038000
01C000
000000
000000
03E000
0FF800
1FFC00
3C1C00
380E00
380E00
7FFE00
7FFE00
7FFE00
380000
380200
3E0E00
1FFE00
0FFC00
03F000
ENDCHAR
STARTCHAR U+00E9
ENCODING 233
SWIDTH 544 0
DWIDTH 17 0
BBX 17 21 0 0
BITMAP
00F000
00E000
01C000
038000
000000
000000
03E000
0FF800
1FFC00
3C1C00
380E00
380E00
7FFE00
7FFE00
7FFE00
380000
380200
3E0E00
1FFE00
0FFC00
03F000
ENDCHAR
STARTCHAR U+00EA
ENCODING 234
SWIDTH 544 0
DWIDTH 17 0
BBX 17 21 0 0
BITMAP
01E000
03E000
073000
061800
000000
000000
03E000
0FF800
1FFC00
3C1C00
380E00
380E00
7FFE00
7FFE00
7FFE00
380000
380200
3E0E00
1FFE00
0FFC00
03F000
ENDCHAR
STARTCHAR U+00EB
ENCODING 235
SWIDTH 544 0
DWIDTH 17 0
BBX 17 21 0 0
BITMAP
043000
0E7800
0E7800
043000
000000
000000
03E000
0FF800
1FFC00
3C1C00
380E00
380E00
7FFE00
7FFE00
7FFE00
380000
380200
3E0E00
1FFE00
0FFC00
03F000
ENDCHAR
STARTCHAR U+00EC
ENCODING 236
SWIDTH 256 0
DWIDTH 8 0
BBX 9 21 -1 0
BITMAP
E000
7000
3800
1C00
0000
0000
3800
3800
3800
3800
3800
3800
3800
3800
3800
3800
3800
3800
3800
3800
3800
ENDCHAR
STARTCHAR U+00ED
ENCODING 237
SWIDTH 256 0
DWIDTH 8 0
BBX 8 21 0 0
BITMAP
00
00
00
00
00
00
00
00
00
00
00
00
00
00
00
00
00
00
00
00
00
ENDCHAR
STARTCHAR U+00EE
ENCODING 238
SWIDTH 256 0
DWIDTH 8 0
BBX 10 21 -1 0
BITMAP
1E00
3E00
7300
6180
0000
0000
1C00
1C00
1C00
1C00
1C00
1C00
1C00
1C00
1C00
1C00
1C00
1C00
1C00
1C00
1C00
ENDCHAR
STARTCHAR U+00EF
ENCODING 239
SWIDTH 256 0
DWIDTH 8 0
BBX 11 21 -2 0
BITMAP
2180
73C0
73C0
2180
0000
0000
1C00
1C00
1C00
1C00
1C00
1C00
1C00
1C00
1C00
1C00
1C00
1C00
1C00
1C00
1C00
ENDCHAR
STARTCHAR U+00F0
ENCODING 240
SWIDTH 544 0
DWIDTH 17 0
BBX 17 20 0 0
BITMAP
021000
0FF800
03F000
07E000
1FF000
0C7800
03F800
0FFC00
1FFC00
3C1E00
380E00
380E00
700E00
700E00
380E00
381E00
3C3C00
1FFC00
0FF800
07E000
ENDCHAR
STARTCHAR U+00F1
ENCODING 241
SWIDTH 576 0
DWIDTH 18 0
BBX 18 21 0 0
BITMAP
038800
07EC00
0EFC00
047800
000000
000000
39F000
3FFC00
3FFE00
3E1E00
380F00
380700
380700
380700
380700
380700
380700
380700
380700
380700
380700
ENDCHAR
STARTCHAR U+00F2
ENCODING 242
SWIDTH 576 0
DWIDTH 18 0
BBX 18 21 0 0
BITMAP
070000
038000
01C000
00E000
000000
000000
03F000
0FFC00
1FFE00
1E1F00
3C0700
380780
700380
700380
700380
380780
3C0700
1E1F00
1FFE00
0FFC00
03F000
ENDCHAR
STARTCHAR U+00F3
ENCODING 243
SWIDTH 576 0
DWIDTH 18 0
BBX 18 21 0 0
BITMAP
007800
007000
00E000
01C000
000000
000000
03F000
0FFC00
1FFE00
1E1F00
3C0700
380780
700380
700380
700380
380780
3C0700
1E1F00
1FFE00
0FFC00
03F000
ENDCHAR
STARTCHAR U+00F4
ENCODING 244
SWIDTH 576 0
DWIDTH 18 0
BBX 18 21 0 0
BITMAP
01E000
03E000
073000
061800
000000
000000
03F000
0FFC00
1FFE00
1E1F00
3C0700
380780
700380
700380
700380
380780
3C0700
1E1F00
1FFE00
0FFC00
03F000
ENDCHAR
STARTCHAR U+00F5
ENCODING 245
SWIDTH 576 0
DWIDTH 18 0
BBX 18 21 0 0
BITMAP
038800
07EC00
0EFC00
047800
000000
000000
03F000
0FFC00
1FFE00
1E1F00
3C0700
380780
700380
700380
700380
380780
3C0700
1E1F00
1FFE00
0FFC00
03F000
ENDCHAR
STARTCHAR U+00F6
ENCODING 246
SWIDTH 576 0
DWIDTH 18 0
BBX 18 21 0 0
BITMAP
021800
073C00
073C00
021800
000000
000000
03F000
0FFC00
1FFE00
1E1F00
3C0700
380780
700380
700380
700380
380780
3C0700
1E1F00
1FFE00
0FFC00
03F000
ENDCHAR
STARTCHAR U+00F7
ENCODING 247
SWIDTH 512 0
DWIDTH 16 0
BBX 16 17 0 0
BITMAP
0080
01C0
01C0
0080
0000
0000
3FFC
3FFC
3FFC
0000
0080
01C0
01C0
0080
0000
0000
0000
ENDCHAR
STARTCHAR U+00F8
ENCODING 248
SWIDTH 576 0
DWIDTH 18 0
BBX 18 17 0 -1
BITMAP
000200
03F300
0FFE00
1FFE00
1E1F00
3C1F00
383780
706380
70C380
718380
3B8780
3F0700
1E1F00
1FFE00
1FFC00
1BF000
100000
ENDCHAR
STARTCHAR U+00F9
ENCODING 249
SWIDTH 576 0
DWIDTH 18 0
BBX 18 21 0 0
BITMAP
070000
038000
01C000
00E000
000000
000000
380700
380700
380700
380700
380700
380700
380700
380700
380700
380700
3C0700
1E1F00
1FFF00
0FFF00
03E700
ENDCHAR
STARTCHAR U+00FA
ENCODING 250
SWIDTH 576 0
DWIDTH 18 0
BBX 18 21 0 0
BITMAP
007800
007000
00E000
01C000
000000
000000
380700
380700
380700
380700
380700
380700
380700
380700
380700
380700
3C0700
1E1F00
1FFF00
0FFF00
03E700
ENDCHAR
STARTCHAR U+00FB
ENCODING 251
SWIDTH 576 0
DWIDTH 18 0
BBX 18 21 0 0
BITMAP
01E000
03E000
073000
061800
000000
000000
380700
380700
380700
380700
380700
380700
380700
380700
380700
380700
3C0700
1E1F00
1FFF00
0FFF00
03E700
ENDCHAR
STARTCHAR U+00FC
ENCODING 252
SWIDTH 576 0
DWIDTH 18 0
BBX 18 21 0 0
BITMAP
021800
073C00
073C00
021800
000000
000000
380700
380700
380700
380700
380700
380700
380700
380700
380700
380700
3C0700
1E1F00
1FFF00
0FFF00
03E700
ENDCHAR
STARTCHAR U+00FD
ENCODING 253
SWIDTH 512 0
DWIDTH 16 0
BBX 16 27 0 -6
BITMAP
00F0
00E0
01C0
0380
0000
0000
700F
700E
380E
381C
381C
1C1C
1C38
0E38
0E70
0E70
0770
07E0
03E0
03C0
01C0
01C0
0380
0380
1F00
1F00
1C00
ENDCHAR
STARTCHAR U+00FE
ENCODING 254
SWIDTH 576 0
DWIDTH 18 0
BBX 18 26 0 -6
BITMAP
380000
380000
380000
380000
380000
39F000
3FFC00
3FFE00
3C1F00
380F00
380700
380380
380380
380380
380700
380F00
3E1F00
3FFE00
3FFC00
3BF000
380000
380000
380000
380000
380000
380000
ENDCHAR
STARTCHAR U+00FF
ENCODING 255
SWIDTH 512 0
DWIDTH 16 0
BBX 16 27 0 -6
BITMAP
0430
0E78
0E78
0430
0000
0000
700F
700E
380E
381C
381C
1C1C
1C38
0E38
0E70
0E70
0770
07E0
03E0
03C0
01C0
01C0
0380
0380
1F00
1F00
1C00
ENDCHAR
STARTCHAR U+2013
ENCODING 8211
SWIDTH 480 0
DWIDTH 15 0
BBX 17 9 -1 0
BITMAP
FFFE00
FFFE00
FFFE00
000000
000000
000000
000000
000000
000000
ENDCHAR
STARTCHAR U+2014
ENCODING 8212
SWIDTH 960 0
DWIDTH 30 0
BBX 32 9 -1 0
BITMAP
FFFFFFFC
FFFFFFFC
FFFFFFFC
00000000
00000000
00000000
00000000
00000000
00000000
ENDCHAR
STARTCHAR U+2018
ENCODING 8216
SWIDTH 224 0
DWIDTH 7 0
BBX 7 20 0 0
BITMAP
08
18
30
38
3C
38
10
00
00
00
00
00
00
00
00
00
00
00
00
00
ENDCHAR
STARTCHAR U+2019
ENCODING 8217
SWIDTH 224 0
DWIDTH 7 0
BBX 7 20 0 0
BITMAP
10
38
38
18
18
10
20
00
00
00
00
00
00
00
00
00
00
00
00
00
ENDCHAR
STARTCHAR U+201C
ENCODING 8220
SWIDTH 384 0
DWIDTH 12 0
BBX 12 20 0 0
BITMAP
0840
1880
3180
39C0
3DC0
39C0
1080
0000
0000
0000
0000
0000
0000
0000
0000
0000
0000
0000
0000
0000
ENDCHAR
STARTCHAR U+201D
ENCODING 8221
SWIDTH 384 0
DWIDTH 12 0
BBX 12 20 0 0
BITMAP
1080
39C0
39C0
18C0
18C0
1080
2100
0000
0000
0000
0000
0000
0000
0000
0000
0000
0000
0000
0000
0000
ENDCHAR
STARTCHAR U+2022
ENCODING 8226
SWIDTH 416 0
DWIDTH 13 0
BBX 13 13 0 0
BITMAP
0200
0700
0F80
1FC0
1FC0
0F80
0700
0200
0000
0000
0000
0000
0000
ENDCHAR
STARTCHAR U+2026
ENCODING 8230
SWIDTH 864 0
DWIDTH 27 0
BBX 27 4 0 0
BITMAP
10040100
3C0F03C0
380E0380
10040100
ENDCHAR
STARTCHAR U+20AC
ENCODING 8364
SWIDTH 608 0
DWIDTH 19 0
BBX 19 20 0 0
BITMAP
00FE00
03FF80
07FF80
0F8180
1E0000
1C0000
7FFC00
7FFC00
380000
380000
380000
7FF800
7FF800
1C0000
1E0000
0F0000
0F8180
07FF80
01FF80
007E00
ENDCHAR
ENDFONT
