STARTFONT 2.1
COMMENT Converted from Johnston100 W03 Regular.ttf at 10px with ttf2bdf.py (Pillow, 1-bit, no AA)
FONT -Misc-Johnston100-Medium-R-Normal--10-100-75-75-P-120-ISO10646-1
SIZE 10 75 75
FONTBOUNDINGBOX 12 12 -1 -3
STARTPROPERTIES 9
FOUNDRY "Misc"
FAMILY_NAME "Johnston100"
WEIGHT_NAME "Medium"
SLANT "R"
PIXEL_SIZE 10
RESOLUTION_X 75
RESOLUTION_Y 75
FONT_ASCENT 9
FONT_DESCENT 3
ENDPROPERTIES
CHARS 200
STARTCHAR space
ENCODING 32
SWIDTH 288 0
DWIDTH 3 0
BBX 3 12 0 -3
BITMAP
00
00
00
00
00
00
00
00
00
00
00
00
ENDCHAR
STARTCHAR !
ENCODING 33
SWIDTH 288 0
DWIDTH 3 0
BBX 3 7 0 0
BITMAP
40
40
40
40
40
00
40
ENDCHAR
STARTCHAR "
ENCODING 34
SWIDTH 384 0
DWIDTH 4 0
BBX 4 7 0 0
BITMAP
60
60
60
00
00
00
00
ENDCHAR
STARTCHAR U+0023
ENCODING 35
SWIDTH 768 0
DWIDTH 8 0
BBX 8 7 0 0
BITMAP
14
14
7E
28
FE
48
48
ENDCHAR
STARTCHAR $
ENCODING 36
SWIDTH 480 0
DWIDTH 5 0
BBX 5 8 0 -1
BITMAP
20
50
40
30
18
98
70
20
ENDCHAR
STARTCHAR %
ENCODING 37
SWIDTH 672 0
DWIDTH 7 0
BBX 7 7 0 0
BITMAP
64
A8
68
10
1E
2A
2E
ENDCHAR
STARTCHAR &
ENCODING 38
SWIDTH 672 0
DWIDTH 7 0
BBX 7 7 0 0
BITMAP
30
48
70
74
54
48
74
ENDCHAR
STARTCHAR '
ENCODING 39
SWIDTH 192 0
DWIDTH 2 0
BBX 2 7 0 0
BITMAP
40
40
40
00
00
00
00
ENDCHAR
STARTCHAR (
ENCODING 40
SWIDTH 288 0
DWIDTH 3 0
BBX 3 8 0 -1
BITMAP
40
40
40
40
40
40
40
40
ENDCHAR
STARTCHAR )
ENCODING 41
SWIDTH 288 0
DWIDTH 3 0
BBX 3 8 0 -1
BITMAP
80
40
40
40
40
40
40
80
ENDCHAR
STARTCHAR *
ENCODING 42
SWIDTH 384 0
DWIDTH 4 0
BBX 4 7 0 0
BITMAP
40
B0
F0
40
00
00
00
ENDCHAR
STARTCHAR +
ENCODING 43
SWIDTH 480 0
DWIDTH 5 0
BBX 5 6 0 0
BITMAP
20
20
78
20
00
00
ENDCHAR
STARTCHAR ,
ENCODING 44
SWIDTH 192 0
DWIDTH 2 0
BBX 2 4 0 -2
BITMAP
40
00
00
00
ENDCHAR
STARTCHAR -
ENCODING 45
SWIDTH 384 0
DWIDTH 4 0
BBX 4 3 0 0
BITMAP
E0
00
00
ENDCHAR
STARTCHAR .
ENCODING 46
SWIDTH 192 0
DWIDTH 2 0
BBX 2 1 0 0
BITMAP
40
ENDCHAR
STARTCHAR /
ENCODING 47
SWIDTH 288 0
DWIDTH 3 0
BBX 4 8 0 -1
BITMAP
20
20
40
40
40
40
80
80
ENDCHAR
STARTCHAR 0
ENCODING 48
SWIDTH 576 0
DWIDTH 6 0
BBX 6 7 0 0
BITMAP
70
48
48
88
48
48
70
ENDCHAR
STARTCHAR 1
ENCODING 49
SWIDTH 288 0
DWIDTH 3 0
BBX 3 7 0 0
BITMAP
40
40
40
40
40
40
40
ENDCHAR
STARTCHAR 2
ENCODING 50
SWIDTH 480 0
DWIDTH 5 0
BBX 5 7 0 0
BITMAP
70
50
10
10
20
20
78
ENDCHAR
STARTCHAR 3
ENCODING 51
SWIDTH 480 0
DWIDTH 5 0
BBX 5 7 0 0
BITMAP
70
10
20
10
08
98
70
ENDCHAR
STARTCHAR 4
ENCODING 52
SWIDTH 576 0
DWIDTH 6 0
BBX 6 7 0 0
BITMAP
00
10
30
50
F8
10
10
ENDCHAR
STARTCHAR 5
ENCODING 53
SWIDTH 480 0
DWIDTH 5 0
BBX 5 7 0 0
BITMAP
78
40
70
18
08
98
70
ENDCHAR
STARTCHAR 6
ENCODING 54
SWIDTH 480 0
DWIDTH 5 0
BBX 5 7 0 0
BITMAP
30
60
40
70
88
48
70
ENDCHAR
STARTCHAR 7
ENCODING 55
SWIDTH 480 0
DWIDTH 5 0
BBX 5 7 0 0
BITMAP
00
00
00
00
00
00
00
ENDCHAR
STARTCHAR 8
ENCODING 56
SWIDTH 480 0
DWIDTH 5 0
BBX 5 7 0 0
BITMAP
70
50
50
70
48
48
70
ENDCHAR
STARTCHAR 9
ENCODING 57
SWIDTH 480 0
DWIDTH 5 0
BBX 5 7 0 0
BITMAP
70
48
48
78
10
10
20
ENDCHAR
STARTCHAR :
ENCODING 58
SWIDTH 288 0
DWIDTH 3 0
BBX 3 5 0 0
BITMAP
40
00
00
00
40
ENDCHAR
STARTCHAR ;
ENCODING 59
SWIDTH 288 0
DWIDTH 3 0
BBX 3 7 0 -2
BITMAP
40
00
00
00
40
00
00
ENDCHAR
STARTCHAR U+003C
ENCODING 60
SWIDTH 480 0
DWIDTH 5 0
BBX 5 7 0 0
BITMAP
18
20
40
38
00
00
00
ENDCHAR
STARTCHAR =
ENCODING 61
SWIDTH 480 0
DWIDTH 5 0
BBX 5 5 0 0
BITMAP
78
00
78
00
00
ENDCHAR
STARTCHAR U+003E
ENCODING 62
SWIDTH 480 0
DWIDTH 5 0
BBX 5 7 0 0
BITMAP
40
30
18
60
00
00
00
ENDCHAR
STARTCHAR ?
ENCODING 63
SWIDTH 480 0
DWIDTH 5 0
BBX 5 7 0 0
BITMAP
60
90
10
20
40
20
20
ENDCHAR
STARTCHAR @
ENCODING 64
SWIDTH 960 0
DWIDTH 10 0
BBX 10 9 0 -2
BITMAP
1E00
2100
4E80
5280
5280
5480
5F00
6200
1C00
ENDCHAR
STARTCHAR A
ENCODING 65
SWIDTH 672 0
DWIDTH 7 0
BBX 7 7 0 0
BITMAP
10
30
28
48
7C
44
84
ENDCHAR
STARTCHAR B
ENCODING 66
SWIDTH 576 0
DWIDTH 6 0
BBX 6 7 0 0
BITMAP
70
48
48
78
48
48
78
ENDCHAR
STARTCHAR C
ENCODING 67
SWIDTH 672 0
DWIDTH 7 0
BBX 7 7 0 0
BITMAP
3C
64
40
40
40
64
38
ENDCHAR
STARTCHAR D
ENCODING 68
SWIDTH 672 0
DWIDTH 7 0
BBX 7 7 0 0
BITMAP
78
44
46
42
46
44
78
ENDCHAR
STARTCHAR E
ENCODING 69
SWIDTH 576 0
DWIDTH 6 0
BBX 6 7 0 0
BITMAP
78
40
40
70
40
40
78
ENDCHAR
STARTCHAR F
ENCODING 70
SWIDTH 480 0
DWIDTH 5 0
BBX 6 7 0 0
BITMAP
78
40
40
70
40
40
40
ENDCHAR
STARTCHAR G
ENCODING 71
SWIDTH 672 0
DWIDTH 7 0
BBX 7 7 0 0
BITMAP
3C
62
40
4E
42
62
3E
ENDCHAR
STARTCHAR H
ENCODING 72
SWIDTH 672 0
DWIDTH 7 0
BBX 7 7 0 0
BITMAP
44
44
44
7C
44
44
44
ENDCHAR
STARTCHAR I
ENCODING 73
SWIDTH 288 0
DWIDTH 3 0
BBX 3 7 0 0
BITMAP
40
40
40
40
40
40
40
ENDCHAR
STARTCHAR J
ENCODING 74
SWIDTH 480 0
DWIDTH 5 0
BBX 5 7 0 0
BITMAP
10
10
10
10
10
90
60
ENDCHAR
STARTCHAR K
ENCODING 75
SWIDTH 576 0
DWIDTH 6 0
BBX 7 7 0 0
BITMAP
4C
50
60
60
50
48
4C
ENDCHAR
STARTCHAR L
ENCODING 76
SWIDTH 480 0
DWIDTH 5 0
BBX 6 7 0 0
BITMAP
40
40
40
40
40
40
78
ENDCHAR
STARTCHAR M
ENCODING 77
SWIDTH 864 0
DWIDTH 9 0
BBX 9 7 0 0
BITMAP
4300
6700
5500
5900
4100
4100
4100
ENDCHAR
STARTCHAR N
ENCODING 78
SWIDTH 768 0
DWIDTH 8 0
BBX 8 7 0 0
BITMAP
42
62
52
52
4A
46
42
ENDCHAR
STARTCHAR O
ENCODING 79
SWIDTH 768 0
DWIDTH 8 0
BBX 8 7 0 0
BITMAP
3C
62
43
41
43
62
3C
ENDCHAR
STARTCHAR P
ENCODING 80
SWIDTH 576 0
DWIDTH 6 0
BBX 6 7 0 0
BITMAP
78
48
48
78
40
40
40
ENDCHAR
STARTCHAR Q
ENCODING 81
SWIDTH 768 0
DWIDTH 8 0
BBX 8 7 0 0
BITMAP
3C
62
43
41
47
66
3E
ENDCHAR
STARTCHAR R
ENCODING 82
SWIDTH 576 0
DWIDTH 6 0
BBX 7 7 0 0
BITMAP
70
48
48
70
50
48
4C
ENDCHAR
STARTCHAR S
ENCODING 83
SWIDTH 480 0
DWIDTH 5 0
BBX 5 7 0 0
BITMAP
70
50
40
30
18
98
70
ENDCHAR
STARTCHAR T
ENCODING 84
SWIDTH 576 0
DWIDTH 6 0
BBX 6 7 0 0
BITMAP
FC
20
20
20
20
20
20
ENDCHAR
STARTCHAR U
ENCODING 85
SWIDTH 768 0
DWIDTH 8 0
BBX 8 7 0 0
BITMAP
42
42
42
42
42
64
3C
ENDCHAR
STARTCHAR V
ENCODING 86
SWIDTH 576 0
DWIDTH 6 0
BBX 7 7 0 0
BITMAP
84
44
48
68
28
30
10
ENDCHAR
STARTCHAR W
ENCODING 87
SWIDTH 960 0
DWIDTH 10 0
BBX 10 7 0 0
BITMAP
4C80
4C80
4C80
5500
3300
3300
3300
ENDCHAR
STARTCHAR X
ENCODING 88
SWIDTH 672 0
DWIDTH 7 0
BBX 7 7 0 0
BITMAP
44
68
38
10
28
4C
C4
ENDCHAR
STARTCHAR Y
ENCODING 89
SWIDTH 576 0
DWIDTH 6 0
BBX 6 7 0 0
BITMAP
CC
48
30
30
10
10
10
ENDCHAR
STARTCHAR Z
ENCODING 90
SWIDTH 576 0
DWIDTH 6 0
BBX 7 7 0 0
BITMAP
FC
08
10
10
20
40
7C
ENDCHAR
STARTCHAR [
ENCODING 91
SWIDTH 288 0
DWIDTH 3 0
BBX 3 9 0 -1
BITMAP
60
40
40
40
40
40
40
40
60
ENDCHAR
STARTCHAR \
ENCODING 92
SWIDTH 288 0
DWIDTH 3 0
BBX 4 8 0 -1
BITMAP
80
80
40
40
40
20
20
20
ENDCHAR
STARTCHAR ]
ENCODING 93
SWIDTH 288 0
DWIDTH 3 0
BBX 3 9 0 -1
BITMAP
E0
20
20
20
20
20
20
20
E0
ENDCHAR
STARTCHAR ^
ENCODING 94
SWIDTH 576 0
DWIDTH 6 0
BBX 6 7 0 0
BITMAP
30
50
48
00
00
00
00
ENDCHAR
STARTCHAR _
ENCODING 95
SWIDTH 480 0
DWIDTH 5 0
BBX 7 2 -1 -2
BITMAP
00
F8
ENDCHAR
STARTCHAR `
ENCODING 96
SWIDTH 480 0
DWIDTH 5 0
BBX 5 7 0 0
BITMAP
F8
88
88
88
88
88
F8
ENDCHAR
STARTCHAR a
ENCODING 97
SWIDTH 480 0
DWIDTH 5 0
BBX 5 5 0 0
BITMAP
70
10
70
50
70
ENDCHAR
STARTCHAR b
ENCODING 98
SWIDTH 576 0
DWIDTH 6 0
BBX 6 7 0 0
BITMAP
40
40
78
48
44
48
78
ENDCHAR
STARTCHAR c
ENCODING 99
SWIDTH 480 0
DWIDTH 5 0
BBX 5 5 0 0
BITMAP
78
40
80
40
38
ENDCHAR
STARTCHAR d
ENCODING 100
SWIDTH 576 0
DWIDTH 6 0
BBX 6 7 0 0
BITMAP
08
08
78
48
88
48
78
ENDCHAR
STARTCHAR e
ENCODING 101
SWIDTH 576 0
DWIDTH 6 0
BBX 6 5 0 0
BITMAP
70
48
F8
48
70
ENDCHAR
STARTCHAR f
ENCODING 102
SWIDTH 384 0
DWIDTH 4 0
BBX 4 7 0 0
BITMAP
70
40
F0
40
40
40
40
ENDCHAR
STARTCHAR g
ENCODING 103
SWIDTH 480 0
DWIDTH 5 0
BBX 5 7 0 -2
BITMAP
78
50
50
70
60
98
F8
ENDCHAR
STARTCHAR h
ENCODING 104
SWIDTH 576 0
DWIDTH 6 0
BBX 6 7 0 0
BITMAP
40
40
78
48
48
48
48
ENDCHAR
STARTCHAR i
ENCODING 105
SWIDTH 288 0
DWIDTH 3 0
BBX 3 7 0 0
BITMAP
00
40
40
40
40
40
40
ENDCHAR
STARTCHAR j
ENCODING 106
SWIDTH 288 0
DWIDTH 3 0
BBX 4 9 -1 -2
BITMAP
40
00
40
40
40
40
40
40
80
ENDCHAR
STARTCHAR k
ENCODING 107
SWIDTH 480 0
DWIDTH 5 0
BBX 6 7 0 0
BITMAP
40
40
58
60
60
50
58
ENDCHAR
STARTCHAR l
ENCODING 108
SWIDTH 288 0
DWIDTH 3 0
BBX 4 7 0 0
BITMAP
40
40
40
40
40
40
60
ENDCHAR
STARTCHAR m
ENCODING 109
SWIDTH 864 0
DWIDTH 9 0
BBX 9 5 0 0
BITMAP
7F00
4900
4880
4880
4880
ENDCHAR
STARTCHAR n
ENCODING 110
SWIDTH 576 0
DWIDTH 6 0
BBX 6 5 0 0
BITMAP
78
48
48
48
48
ENDCHAR
STARTCHAR o
ENCODING 111
SWIDTH 576 0
DWIDTH 6 0
BBX 6 5 0 0
BITMAP
78
48
84
48
78
ENDCHAR
STARTCHAR p
ENCODING 112
SWIDTH 576 0
DWIDTH 6 0
BBX 6 7 0 -2
BITMAP
78
48
44
48
78
40
40
ENDCHAR
STARTCHAR q
ENCODING 113
SWIDTH 576 0
DWIDTH 6 0
BBX 6 7 0 -2
BITMAP
78
48
88
48
78
08
08
ENDCHAR
STARTCHAR r
ENCODING 114
SWIDTH 384 0
DWIDTH 4 0
BBX 4 5 0 0
BITMAP
70
40
40
40
40
ENDCHAR
STARTCHAR s
ENCODING 115
SWIDTH 480 0
DWIDTH 5 0
BBX 5 5 0 0
BITMAP
70
40
70
50
70
ENDCHAR
STARTCHAR t
ENCODING 116
SWIDTH 384 0
DWIDTH 4 0
BBX 4 6 0 0
BITMAP
40
F0
40
40
40
70
ENDCHAR
STARTCHAR u
ENCODING 117
SWIDTH 576 0
DWIDTH 6 0
BBX 6 5 0 0
BITMAP
48
48
48
48
78
ENDCHAR
STARTCHAR v
ENCODING 118
SWIDTH 480 0
DWIDTH 5 0
BBX 6 5 0 0
BITMAP
88
48
50
30
20
ENDCHAR
STARTCHAR w
ENCODING 119
SWIDTH 864 0
DWIDTH 9 0
BBX 9 5 0 0
BITMAP
8900
5900
5500
6600
2600
ENDCHAR
STARTCHAR x
ENCODING 120
SWIDTH 480 0
DWIDTH 5 0
BBX 6 5 0 0
BITMAP
50
70
20
50
C8
ENDCHAR
STARTCHAR y
ENCODING 121
SWIDTH 480 0
DWIDTH 5 0
BBX 6 7 0 -2
BITMAP
88
48
50
30
20
20
60
ENDCHAR
STARTCHAR z
ENCODING 122
SWIDTH 480 0
DWIDTH 5 0
BBX 5 5 0 0
BITMAP
70
10
20
40
70
ENDCHAR
STARTCHAR {
ENCODING 123
SWIDTH 384 0
DWIDTH 4 0
BBX 4 9 0 -1
BITMAP
20
40
40
40
80
40
40
40
20
ENDCHAR
STARTCHAR |
ENCODING 124
SWIDTH 192 0
DWIDTH 2 0
BBX 2 10 0 -3
BITMAP
40
40
40
40
40
40
40
40
40
40
ENDCHAR
STARTCHAR }
ENCODING 125
SWIDTH 384 0
DWIDTH 4 0
BBX 4 9 0 -1
BITMAP
C0
40
40
40
20
40
40
40
C0
ENDCHAR
STARTCHAR ~
ENCODING 126
SWIDTH 480 0
DWIDTH 5 0
BBX 5 4 0 0
BITMAP
68
10
00
00
ENDCHAR
STARTCHAR U+00A0
ENCODING 160
SWIDTH 288 0
DWIDTH 3 0
BBX 3 12 0 -3
BITMAP
00
00
00
00
00
00
00
00
00
00
00
00
ENDCHAR
STARTCHAR U+00A1
ENCODING 161
SWIDTH 288 0
DWIDTH 3 0
BBX 3 7 0 -2
BITMAP
40
00
40
40
40
40
40
ENDCHAR
STARTCHAR U+00A2
ENCODING 162
SWIDTH 480 0
DWIDTH 5 0
BBX 5 7 0 -1
BITMAP
20
38
40
80
40
78
20
ENDCHAR
STARTCHAR U+00A3
ENCODING 163
SWIDTH 480 0
DWIDTH 5 0
BBX 5 7 0 0
BITMAP
30
28
40
70
40
40
78
ENDCHAR
STARTCHAR U+00A4
ENCODING 164
SWIDTH 576 0
DWIDTH 6 0
BBX 6 6 0 0
BITMAP
48
78
48
48
78
48
ENDCHAR
STARTCHAR U+00A5
ENCODING 165
SWIDTH 576 0
DWIDTH 6 0
BBX 6 7 0 0
BITMAP
4C
68
78
10
78
10
10
ENDCHAR
STARTCHAR U+00A6
ENCODING 166
SWIDTH 192 0
DWIDTH 2 0
BBX 2 10 0 -3
BITMAP
40
40
40
40
00
00
40
40
40
40
ENDCHAR
STARTCHAR U+00A7
ENCODING 167
SWIDTH 480 0
DWIDTH 5 0
BBX 5 9 0 -2
BITMAP
70
D0
40
70
90
70
10
90
70
ENDCHAR
STARTCHAR U+00A8
ENCODING 168
SWIDTH 480 0
DWIDTH 5 0
BBX 5 7 0 0
BITMAP
F8
88
88
88
88
88
F8
ENDCHAR
STARTCHAR U+00A9
ENCODING 169
SWIDTH 768 0
DWIDTH 8 0
BBX 8 7 0 0
BITMAP
3C
5A
62
62
5A
42
3C
ENDCHAR
STARTCHAR U+00AA
ENCODING 170
SWIDTH 288 0
DWIDTH 3 0
BBX 3 7 0 0
BITMAP
C0
60
A0
E0
00
00
00
ENDCHAR
STARTCHAR U+00AB
ENCODING 171
SWIDTH 576 0
DWIDTH 6 0
BBX 6 5 0 0
BITMAP
28
50
50
28
00
ENDCHAR
STARTCHAR U+00AC
ENCODING 172
SWIDTH 480 0
DWIDTH 5 0
BBX 5 5 0 0
BITMAP
78
08
08
00
00
ENDCHAR
STARTCHAR U+00AD
ENCODING 173
SWIDTH 384 0
DWIDTH 4 0
BBX 4 3 0 0
BITMAP
E0
00
00
ENDCHAR
STARTCHAR U+00AE
ENCODING 174
SWIDTH 768 0
DWIDTH 8 0
BBX 8 7 0 0
BITMAP
3C
5A
5A
5A
5A
42
3C
ENDCHAR
STARTCHAR U+00AF
ENCODING 175
SWIDTH 480 0
DWIDTH 5 0
BBX 5 7 0 0
BITMAP
F8
88
88
88
88
88
F8
ENDCHAR
STARTCHAR U+00B0
ENCODING 176
SWIDTH 384 0
DWIDTH 4 0
BBX 4 7 0 0
BITMAP
60
A0
60
00
00
00
00
ENDCHAR
STARTCHAR U+00B1
ENCODING 177
SWIDTH 480 0
DWIDTH 5 0
BBX 5 7 0 0
BITMAP
20
20
78
20
00
00
78
ENDCHAR
STARTCHAR U+00B2
ENCODING 178
SWIDTH 288 0
DWIDTH 3 0
BBX 3 7 0 0
BITMAP
60
A0
40
60
00
00
00
ENDCHAR
STARTCHAR U+00B3
ENCODING 179
SWIDTH 288 0
DWIDTH 3 0
BBX 4 7 0 0
BITMAP
E0
40
20
E0
00
00
00
ENDCHAR
STARTCHAR U+00B4
ENCODING 180
SWIDTH 480 0
DWIDTH 5 0
BBX 5 7 0 0
BITMAP
F8
88
88
88
88
88
F8
ENDCHAR
STARTCHAR U+00B5
ENCODING 181
SWIDTH 576 0
DWIDTH 6 0
BBX 6 7 0 -2
BITMAP
48
48
48
48
78
40
40
ENDCHAR
STARTCHAR U+00B6
ENCODING 182
SWIDTH 576 0
DWIDTH 6 0
BBX 6 9 0 -2
BITMAP
78
68
68
68
28
28
28
28
28
ENDCHAR
STARTCHAR U+00B7
ENCODING 183
SWIDTH 192 0
DWIDTH 2 0
BBX 2 4 0 0
BITMAP
40
40
00
00
ENDCHAR
STARTCHAR U+00B8
ENCODING 184
SWIDTH 480 0
DWIDTH 5 0
BBX 5 7 0 0
BITMAP
F8
88
88
88
88
88
F8
ENDCHAR
STARTCHAR U+00B9
ENCODING 185
SWIDTH 192 0
DWIDTH 2 0
BBX 2 7 0 0
BITMAP
40
40
40
40
00
00
00
ENDCHAR
STARTCHAR U+00BA
ENCODING 186
SWIDTH 384 0
DWIDTH 4 0
BBX 4 7 0 0
BITMAP
60
A0
B0
60
00
00
00
ENDCHAR
STARTCHAR U+00BB
ENCODING 187
SWIDTH 576 0
DWIDTH 6 0
BBX 6 5 0 0
BITMAP
50
28
28
50
00
ENDCHAR
STARTCHAR U+00BC
ENCODING 188
SWIDTH 768 0
DWIDTH 8 0
BBX 8 7 0 0
BITMAP
44
48
48
50
12
26
27
ENDCHAR
STARTCHAR U+00BD
ENCODING 189
SWIDTH 768 0
DWIDTH 8 0
BBX 9 7 0 0
BITMAP
0000
0000
0000
0000
0000
0000
0000
ENDCHAR
STARTCHAR U+00BE
ENCODING 190
SWIDTH 864 0
DWIDTH 9 0
BBX 9 7 0 0
BITMAP
E200
4400
2400
E800
0900
1300
1380
ENDCHAR
STARTCHAR U+00BF
ENCODING 191
SWIDTH 480 0
DWIDTH 5 0
BBX 5 7 0 -2
BITMAP
20
00
20
20
40
50
70
ENDCHAR
STARTCHAR U+00C0
ENCODING 192
SWIDTH 672 0
DWIDTH 7 0
BBX 7 10 0 0
BITMAP
20
20
00
10
30
28
48
7C
44
84
ENDCHAR
STARTCHAR U+00C1
ENCODING 193
SWIDTH 672 0
DWIDTH 7 0
BBX 7 10 0 0
BITMAP
10
10
00
10
30
28
48
7C
44
84
ENDCHAR
STARTCHAR U+00C2
ENCODING 194
SWIDTH 672 0
DWIDTH 7 0
BBX 7 10 0 0
BITMAP
30
30
00
10
30
28
48
7C
44
84
ENDCHAR
STARTCHAR U+00C3
ENCODING 195
SWIDTH 672 0
DWIDTH 7 0
BBX 7 10 0 0
BITMAP
28
10
00
10
30
28
48
7C
44
84
ENDCHAR
STARTCHAR U+00C4
ENCODING 196
SWIDTH 672 0
DWIDTH 7 0
BBX 7 10 0 0
BITMAP
50
50
00
10
30
28
48
7C
44
84
ENDCHAR
STARTCHAR U+00C5
ENCODING 197
SWIDTH 672 0
DWIDTH 7 0
BBX 7 10 0 0
BITMAP
18
18
00
10
30
28
48
7C
44
84
ENDCHAR
STARTCHAR U+00C6
ENCODING 198
SWIDTH 864 0
DWIDTH 9 0
BBX 9 7 0 0
BITMAP
0F80
1400
1400
2700
7C00
4400
C780
ENDCHAR
STARTCHAR U+00C7
ENCODING 199
SWIDTH 672 0
DWIDTH 7 0
BBX 7 9 0 -2
BITMAP
3C
64
40
40
40
64
38
18
18
ENDCHAR
STARTCHAR U+00C8
ENCODING 200
SWIDTH 576 0
DWIDTH 6 0
BBX 6 10 0 0
BITMAP
20
20
00
78
40
40
70
40
40
78
ENDCHAR
STARTCHAR U+00C9
ENCODING 201
SWIDTH 576 0
DWIDTH 6 0
BBX 6 10 0 0
BITMAP
10
10
00
78
40
40
70
40
40
78
ENDCHAR
STARTCHAR U+00CA
ENCODING 202
SWIDTH 576 0
DWIDTH 6 0
BBX 6 10 0 0
BITMAP
30
30
00
78
40
40
70
40
40
78
ENDCHAR
STARTCHAR U+00CB
ENCODING 203
SWIDTH 576 0
DWIDTH 6 0
BBX 6 10 0 0
BITMAP
50
50
00
78
40
40
70
40
40
78
ENDCHAR
STARTCHAR U+00CC
ENCODING 204
SWIDTH 288 0
DWIDTH 3 0
BBX 3 10 0 0
BITMAP
40
40
00
40
40
40
40
40
40
40
ENDCHAR
STARTCHAR U+00CD
ENCODING 205
SWIDTH 288 0
DWIDTH 3 0
BBX 3 10 0 0
BITMAP
40
40
00
40
40
40
40
40
40
40
ENDCHAR
STARTCHAR U+00CE
ENCODING 206
SWIDTH 288 0
DWIDTH 3 0
BBX 3 10 0 0
BITMAP
00
00
00
00
00
00
00
00
00
00
ENDCHAR
STARTCHAR U+00CF
ENCODING 207
SWIDTH 288 0
DWIDTH 3 0
BBX 5 10 -1 0
BITMAP
00
00
00
00
00
00
00
00
00
00
ENDCHAR
STARTCHAR U+00D0
ENCODING 208
SWIDTH 672 0
DWIDTH 7 0
BBX 7 7 0 0
BITMAP
78
44
46
F2
46
44
78
ENDCHAR
STARTCHAR U+00D1
ENCODING 209
SWIDTH 768 0
DWIDTH 8 0
BBX 8 10 0 0
BITMAP
14
08
00
42
62
52
52
4A
46
42
ENDCHAR
STARTCHAR U+00D2
ENCODING 210
SWIDTH 768 0
DWIDTH 8 0
BBX 8 10 0 0
BITMAP
10
10
00
3C
62
43
41
43
62
3C
ENDCHAR
STARTCHAR U+00D3
ENCODING 211
SWIDTH 768 0
DWIDTH 8 0
BBX 8 10 0 0
BITMAP
08
08
00
3C
62
43
41
43
62
3C
ENDCHAR
STARTCHAR U+00D4
ENCODING 212
SWIDTH 768 0
DWIDTH 8 0
BBX 8 10 0 0
BITMAP
18
18
00
3C
62
43
41
43
62
3C
ENDCHAR
STARTCHAR U+00D5
ENCODING 213
SWIDTH 768 0
DWIDTH 8 0
BBX 8 10 0 0
BITMAP
14
08
00
3C
62
43
41
43
62
3C
ENDCHAR
STARTCHAR U+00D6
ENCODING 214
SWIDTH 768 0
DWIDTH 8 0
BBX 8 10 0 0
BITMAP
28
28
00
3C
62
43
41
43
62
3C
ENDCHAR
STARTCHAR U+00D7
ENCODING 215
SWIDTH 480 0
DWIDTH 5 0
BBX 5 5 0 0
BITMAP
50
30
30
50
00
ENDCHAR
STARTCHAR U+00D8
ENCODING 216
SWIDTH 768 0
DWIDTH 8 0
BBX 8 7 0 0
BITMAP
3E
62
47
49
53
62
7C
ENDCHAR
STARTCHAR U+00D9
ENCODING 217
SWIDTH 768 0
DWIDTH 8 0
BBX 8 10 0 0
BITMAP
10
10
00
42
42
42
42
42
64
3C
ENDCHAR
STARTCHAR U+00DA
ENCODING 218
SWIDTH 768 0
DWIDTH 8 0
BBX 8 10 0 0
BITMAP
08
08
00
42
42
42
42
42
64
3C
ENDCHAR
STARTCHAR U+00DB
ENCODING 219
SWIDTH 768 0
DWIDTH 8 0
BBX 8 10 0 0
BITMAP
18
18
00
42
42
42
42
42
64
3C
ENDCHAR
STARTCHAR U+00DC
ENCODING 220
SWIDTH 768 0
DWIDTH 8 0
BBX 8 10 0 0
BITMAP
28
28
00
42
42
42
42
42
64
3C
ENDCHAR
STARTCHAR U+00DD
ENCODING 221
SWIDTH 576 0
DWIDTH 6 0
BBX 6 10 0 0
BITMAP
10
10
00
CC
48
30
30
10
10
10
ENDCHAR
STARTCHAR U+00DE
ENCODING 222
SWIDTH 576 0
DWIDTH 6 0
BBX 6 7 0 0
BITMAP
40
78
48
48
48
78
40
ENDCHAR
STARTCHAR U+00DF
ENCODING 223
SWIDTH 576 0
DWIDTH 6 0
BBX 6 7 0 0
BITMAP
70
48
48
70
48
48
78
ENDCHAR
STARTCHAR U+00E0
ENCODING 224
SWIDTH 480 0
DWIDTH 5 0
BBX 5 8 0 0
BITMAP
20
20
00
70
10
70
50
70
ENDCHAR
STARTCHAR U+00E1
ENCODING 225
SWIDTH 480 0
DWIDTH 5 0
BBX 5 8 0 0
BITMAP
20
20
00
70
10
70
50
70
ENDCHAR
STARTCHAR U+00E2
ENCODING 226
SWIDTH 480 0
DWIDTH 5 0
BBX 5 8 0 0
BITMAP
60
60
00
70
10
70
50
70
ENDCHAR
STARTCHAR U+00E3
ENCODING 227
SWIDTH 480 0
DWIDTH 5 0
BBX 5 8 0 0
BITMAP
50
20
00
70
10
70
50
70
ENDCHAR
STARTCHAR U+00E4
ENCODING 228
SWIDTH 480 0
DWIDTH 5 0
BBX 5 8 0 0
BITMAP
50
50
00
70
10
70
50
70
ENDCHAR
STARTCHAR U+00E5
ENCODING 229
SWIDTH 480 0
DWIDTH 5 0
BBX 5 8 0 0
BITMAP
30
30
00
70
10
70
50
70
ENDCHAR
STARTCHAR U+00E6
ENCODING 230
SWIDTH 768 0
DWIDTH 8 0
BBX 8 5 0 0
BITMAP
7E
19
7F
89
7E
ENDCHAR
STARTCHAR U+00E7
ENCODING 231
SWIDTH 480 0
DWIDTH 5 0
BBX 5 7 0 -2
BITMAP
78
40
80
40
38
10
30
ENDCHAR
STARTCHAR U+00E8
ENCODING 232
SWIDTH 576 0
DWIDTH 6 0
BBX 6 8 0 0
BITMAP
20
20
00
70
48
F8
48
70
ENDCHAR
STARTCHAR U+00E9
ENCODING 233
SWIDTH 576 0
DWIDTH 6 0
BBX 6 8 0 0
BITMAP
20
20
00
70
48
F8
48
70
ENDCHAR
STARTCHAR U+00EA
ENCODING 234
SWIDTH 576 0
DWIDTH 6 0
BBX 6 8 0 0
BITMAP
30
30
00
70
48
F8
48
70
ENDCHAR
STARTCHAR U+00EB
ENCODING 235
SWIDTH 576 0
DWIDTH 6 0
BBX 6 8 0 0
BITMAP
50
50
00
70
48
F8
48
70
ENDCHAR
STARTCHAR U+00EC
ENCODING 236
SWIDTH 288 0
DWIDTH 3 0
BBX 4 8 -1 0
BITMAP
80
80
00
40
40
40
40
40
ENDCHAR
STARTCHAR U+00ED
ENCODING 237
SWIDTH 288 0
DWIDTH 3 0
BBX 3 8 0 0
BITMAP
40
40
00
40
40
40
40
40
ENDCHAR
STARTCHAR U+00EE
ENCODING 238
SWIDTH 288 0
DWIDTH 3 0
BBX 4 8 -1 0
BITMAP
C0
C0
00
40
40
40
40
40
ENDCHAR
STARTCHAR U+00EF
ENCODING 239
SWIDTH 288 0
DWIDTH 3 0
BBX 4 8 -1 0
BITMAP
A0
A0
00
20
20
20
20
20
ENDCHAR
STARTCHAR U+00F0
ENCODING 240
SWIDTH 576 0
DWIDTH 6 0
BBX 6 7 0 0
BITMAP
70
70
78
48
88
48
70
ENDCHAR
STARTCHAR U+00F1
ENCODING 241
SWIDTH 576 0
DWIDTH 6 0
BBX 6 8 0 0
BITMAP
28
10
00
78
48
48
48
48
ENDCHAR
STARTCHAR U+00F2
ENCODING 242
SWIDTH 576 0
DWIDTH 6 0
BBX 6 8 0 0
BITMAP
20
20
00
78
48
84
48
78
ENDCHAR
STARTCHAR U+00F3
ENCODING 243
SWIDTH 576 0
DWIDTH 6 0
BBX 6 8 0 0
BITMAP
10
10
00
78
48
84
48
78
ENDCHAR
STARTCHAR U+00F4
ENCODING 244
SWIDTH 576 0
DWIDTH 6 0
BBX 6 8 0 0
BITMAP
30
30
00
78
48
84
48
78
ENDCHAR
STARTCHAR U+00F5
ENCODING 245
SWIDTH 576 0
DWIDTH 6 0
BBX 6 8 0 0
BITMAP
28
10
00
78
48
84
48
78
ENDCHAR
STARTCHAR U+00F6
ENCODING 246
SWIDTH 576 0
DWIDTH 6 0
BBX 6 8 0 0
BITMAP
50
50
00
78
48
84
48
78
ENDCHAR
STARTCHAR U+00F7
ENCODING 247
SWIDTH 480 0
DWIDTH 5 0
BBX 5 6 0 0
BITMAP
10
10
78
00
10
10
ENDCHAR
STARTCHAR U+00F8
ENCODING 248
SWIDTH 576 0
DWIDTH 6 0
BBX 6 5 0 0
BITMAP
78
48
B4
68
78
ENDCHAR
STARTCHAR U+00F9
ENCODING 249
SWIDTH 576 0
DWIDTH 6 0
BBX 6 8 0 0
BITMAP
20
20
00
48
48
48
48
78
ENDCHAR
STARTCHAR U+00FA
ENCODING 250
SWIDTH 576 0
DWIDTH 6 0
BBX 6 8 0 0
BITMAP
10
10
00
48
48
48
48
78
ENDCHAR
STARTCHAR U+00FB
ENCODING 251
SWIDTH 576 0
DWIDTH 6 0
BBX 6 8 0 0
BITMAP
30
30
00
48
48
48
48
78
ENDCHAR
STARTCHAR U+00FC
ENCODING 252
SWIDTH 576 0
DWIDTH 6 0
BBX 6 8 0 0
BITMAP
50
50
00
48
48
48
48
78
ENDCHAR
STARTCHAR U+00FD
ENCODING 253
SWIDTH 480 0
DWIDTH 5 0
BBX 6 10 0 -2
BITMAP
20
20
00
88
48
50
30
20
20
60
ENDCHAR
STARTCHAR U+00FE
ENCODING 254
SWIDTH 576 0
DWIDTH 6 0
BBX 6 9 0 -2
BITMAP
40
40
78
48
44
48
78
40
40
ENDCHAR
STARTCHAR U+00FF
ENCODING 255
SWIDTH 480 0
DWIDTH 5 0
BBX 6 10 0 -2
BITMAP
50
50
00
88
48
50
30
20
20
60
ENDCHAR
STARTCHAR U+2013
ENCODING 8211
SWIDTH 480 0
DWIDTH 5 0
BBX 7 3 -1 0
BITMAP
F8
00
00
ENDCHAR
STARTCHAR U+2014
ENCODING 8212
SWIDTH 960 0
DWIDTH 10 0
BBX 12 3 -1 0
BITMAP
FFC0
0000
0000
ENDCHAR
STARTCHAR U+2018
ENCODING 8216
SWIDTH 192 0
DWIDTH 2 0
BBX 2 7 0 0
BITMAP
40
40
00
00
00
00
00
ENDCHAR
STARTCHAR U+2019
ENCODING 8217
SWIDTH 192 0
DWIDTH 2 0
BBX 2 7 0 0
BITMAP
40
00
00
00
00
00
00
ENDCHAR
STARTCHAR U+201C
ENCODING 8220
SWIDTH 384 0
DWIDTH 4 0
BBX 4 7 0 0
BITMAP
40
60
00
00
00
00
00
ENDCHAR
STARTCHAR U+201D
ENCODING 8221
SWIDTH 384 0
DWIDTH 4 0
BBX 4 7 0 0
BITMAP
50
00
00
00
00
00
00
ENDCHAR
STARTCHAR U+2022
ENCODING 8226
SWIDTH 384 0
DWIDTH 4 0
BBX 4 5 0 0
BITMAP
20
60
20
00
00
ENDCHAR
STARTCHAR U+2026
ENCODING 8230
SWIDTH 864 0
DWIDTH 9 0
BBX 9 1 0 0
BITMAP
4880
ENDCHAR
STARTCHAR U+20AC
ENCODING 8364
SWIDTH 576 0
DWIDTH 6 0
BBX 6 7 0 0
BITMAP
3C
40
F8
40
F0
40
3C
ENDCHAR
ENDFONT
