STARTFONT 2.1
COMMENT Converted from Johnston100 W03 Regular.ttf at 45px with ttf2bdf.py (Pillow, 1-bit, no AA)
FONT -Misc-Johnston100-Medium-R-Normal--45-450-75-75-P-470-ISO10646-1
SIZE 45 75 75
FONTBOUNDINGBOX 47 52 -2 -12
STARTPROPERTIES 9
FOUNDRY "Misc"
FAMILY_NAME "Johnston100"
WEIGHT_NAME "Medium"
SLANT "R"
PIXEL_SIZE 45
RESOLUTION_X 75
RESOLUTION_Y 75
FONT_ASCENT 40
FONT_DESCENT 12
ENDPROPERTIES
CHARS 200
STARTCHAR space
ENCODING 32
SWIDTH 256 0
DWIDTH 12 0
BBX 12 52 0 -12
BITMAP
0000
0000
0000
0000
0000
0000
0000
0000
0000
0000
0000
0000
0000
0000
0000
0000
0000
0000
0000
0000
0000
0000
0000
0000
0000
0000
0000
0000
0000
0000
0000
0000
0000
0000
0000
0000
0000
0000
0000
0000
0000
0000
0000
0000
0000
0000
0000
0000
0000
0000
0000
0000
ENDCHAR
STARTCHAR !
ENCODING 33
SWIDTH 277 0
DWIDTH 13 0
BBX 13 31 0 0
BITMAP
0F80
0F80
0F80
0F80
0F80
0F80
0F80
0F80
0F80
0F80
0F80
0F80
0F80
0F80
0780
0700
0700
0700
0700
0700
0700
0700
0700
0000
0000
0200
0700
0F80
0F80
0700
0200
ENDCHAR
STARTCHAR "
ENCODING 34
SWIDTH 405 0
DWIDTH 19 0
BBX 19 31 0 0
BITMAP
1E1E00
1E1E00
1E1E00
1E1E00
1E1E00
1E1E00
1E1E00
0E0E00
0E0E00
0E0E00
0C0C00
000000
000000
000000
000000
000000
000000
000000
000000
000000
000000
000000
000000
000000
000000
000000
000000
000000
000000
000000
000000
ENDCHAR
STARTCHAR U+0023
ENCODING 35
SWIDTH 725 0
DWIDTH 34 0
BBX 34 31 0 0
BITMAP
0000401000
0003C07000
000380F000
000780F000
000780E000
000781E000
000701E000
000F01E000
000F01C000
07FFFFFF80
07FFFFFF00
07FFFFFF00
0FFFFFFF00
001C078000
003C078000
003C070000
00380F0000
00380F0000
00780E0000
3FFFFFFC00
3FFFFFFC00
3FFFFFF800
7FFFFFF800
00F03C0000
00E03C0000
01E0380000
01E0380000
01C0780000
03C0780000
03C0700000
0200C00000
ENDCHAR
STARTCHAR $
ENCODING 36
SWIDTH 491 0
DWIDTH 23 0
BBX 23 37 0 -4
BITMAP
007800
007800
007800
01FE00
07FF80
0FFFC0
0FFFE0
1F07C0
1F0100
1E0000
1E0000
1F0000
1F8000
0FE000
0FF800
07FE00
01FF00
00FFC0
003FE0
000FF0
0003F0
0001F8
0000F8
0000F8
0000F8
1800F8
3C00F8
7E01F0
3F87F0
1FFFE0
0FFFC0
07FF80
01FE00
007800
007800
007800
000000
ENDCHAR
STARTCHAR %
ENCODING 37
SWIDTH 725 0
DWIDTH 34 0
BBX 34 31 0 0
BITMAP
03E001C000
07F803C000
0FFC038000
1E3E078000
1C1E070000
3C0E0F0000
3C0E0E0000
3C0E1E0000
1C1E1C0000
1E3E3C0000
0FFC380000
07F8780000
03E0700000
0000F00000
0000E00000
0001E00000
0001C00000
0003C00000
000383E000
000787F800
00070FFC00
000F1E3E00
000E3C1E00
001E3C0E00
001C3C0E00
003C3C0E00
00383C1E00
00781E3E00
00F00FFC00
00F00FF800
01E003E000
ENDCHAR
STARTCHAR &
ENCODING 38
SWIDTH 661 0
DWIDTH 31 0
BBX 31 31 0 0
BITMAP
003F0000
00FFC000
01FFE000
03FFF000
03E1F800
07C0F800
07C0F800
07C07800
07C0F800
03C0F800
03E1F000
01F3F000
01FFE000
00FF8000
00FF0000
03FF01F0
07FF81F0
0FCFC1E0
1F87E3E0
1F03F3C0
3E01F7C0
3E00FF80
3E00FF00
3E007F00
3E003F00
1F00FF80
1F83FFC0
0FFFF7E0
07FFE3F0
03FF81F8
00FE00FC
ENDCHAR
STARTCHAR '
ENCODING 39
SWIDTH 213 0
DWIDTH 10 0
BBX 10 31 0 0
BITMAP
1E00
1E00
1E00
1E00
1E00
1E00
1E00
0E00
0E00
0E00
0C00
0000
0000
0000
0000
0000
0000
0000
0000
0000
0000
0000
0000
0000
0000
0000
0000
0000
0000
0000
0000
ENDCHAR
STARTCHAR (
ENCODING 40
SWIDTH 256 0
DWIDTH 12 0
BBX 12 37 0 -4
BITMAP
03C0
03C0
03C0
0780
0780
0F00
0F00
0F00
0F00
1E00
1E00
1E00
1E00
1E00
1E00
1E00
1E00
1E00
1E00
1E00
1E00
1E00
1E00
1E00
1E00
1E00
1E00
1E00
0F00
0F00
0F00
0F00
0780
0780
03C0
03C0
03C0
ENDCHAR
STARTCHAR )
ENCODING 41
SWIDTH 256 0
DWIDTH 12 0
BBX 12 37 0 -4
BITMAP
7800
3C00
3C00
1E00
1E00
1E00
0F00
0F00
0F00
0F00
0780
0780
0780
0780
0780
0780
0780
0780
0780
0780
0780
0780
0780
0780
0780
0780
0780
0F00
0F00
0F00
0F00
1E00
1E00
1E00
3C00
3C00
3800
ENDCHAR
STARTCHAR *
ENCODING 42
SWIDTH 384 0
DWIDTH 18 0
BBX 18 31 0 0
BITMAP
01E000
01E000
00E000
10E200
38C700
3ECF80
1FDE00
07FC00
01F000
07F800
1EDE00
3CCF80
38E700
10E200
01E000
01E000
000000
000000
000000
000000
000000
000000
000000
000000
000000
000000
000000
000000
000000
000000
000000
ENDCHAR
STARTCHAR +
ENCODING 43
SWIDTH 512 0
DWIDTH 24 0
BBX 24 24 0 0
BITMAP
003C00
003C00
003C00
003C00
003C00
003C00
003C00
1FFFF8
1FFFF8
1FFFF8
1FFFF8
003C00
003C00
003C00
003C00
003C00
003C00
003C00
000000
000000
000000
000000
000000
000000
ENDCHAR
STARTCHAR ,
ENCODING 44
SWIDTH 235 0
DWIDTH 11 0
BBX 11 12 0 -5
BITMAP
0400
0E00
1F00
3F00
1F00
0F00
0F00
0E00
0C00
0800
1000
0000
ENDCHAR
STARTCHAR -
ENCODING 45
SWIDTH 363 0
DWIDTH 17 0
BBX 17 14 0 0
BITMAP
3FFF00
3FFF00
3FFF00
3FFF00
000000
000000
000000
000000
000000
000000
000000
000000
000000
000000
ENDCHAR
STARTCHAR .
ENCODING 46
SWIDTH 235 0
DWIDTH 11 0
BBX 11 6 0 0
BITMAP
0400
0E00
1F80
1F00
0E00
0400
ENDCHAR
STARTCHAR /
ENCODING 47
SWIDTH 320 0
DWIDTH 15 0
BBX 15 37 0 -4
BITMAP
003C
003C
003C
003C
0078
0078
0078
00F0
00F0
00F0
00F0
01E0
01E0
01E0
03C0
03C0
03C0
03C0
0780
0780
0780
0F00
0F00
0F00
0F00
1E00
1E00
1E00
3C00
3C00
3C00
3C00
7800
7800
7800
F000
F000
ENDCHAR
STARTCHAR 0
ENCODING 48
SWIDTH 555 0
DWIDTH 26 0
BBX 26 31 0 0
BITMAP
003F0000
00FFC000
01FFE000
03FFF000
07E1F800
07C0F800
07807C00
0F807C00
0F003C00
0F003E00
1F003E00
1F003E00
1F003E00
1F001E00
1F001E00
1F001E00
1F001E00
1F001E00
1F003E00
1F003E00
1F003E00
0F003C00
0F003C00
0F807C00
0F807C00
07C0F800
07E1F800
03FFF000
01FFE000
00FFC000
003F0000
ENDCHAR
STARTCHAR 1
ENCODING 49
SWIDTH 277 0
DWIDTH 13 0
BBX 13 31 0 0
BITMAP
0080
0180
0380
0780
0780
0780
0780
0780
0780
0780
0780
0780
0780
0780
0780
0780
0780
0780
0780
0780
0780
0780
0780
0780
0780
0780
0780
0780
0780
0780
0780
ENDCHAR
STARTCHAR 2
ENCODING 50
SWIDTH 469 0
DWIDTH 22 0
BBX 22 31 0 0
BITMAP
00FC00
03FF80
07FFC0
0FFFE0
1F87E0
1E01F0
1C01F0
1801F0
1000F0
0000F0
0001F0
0001F0
0003E0
0003E0
0007E0
0007C0
000F80
001F80
001F00
003F00
007E00
007C00
00FC00
01F800
01F000
03F000
03E000
07FFF8
0FFFF8
0FFFF8
1FFFF8
ENDCHAR
STARTCHAR 3
ENCODING 51
SWIDTH 491 0
DWIDTH 23 0
BBX 23 31 0 0
BITMAP
3FFFF8
3FFFF0
3FFFF0
3FFFE0
0007C0
0007C0
000F80
000F80
001F00
003E00
003E00
007E00
00FF80
00FFC0
01FFE0
0007F0
0001F8
0000F8
0000F8
00007C
00007C
00007C
000078
000078
0800F8
1C01F0
3F07F0
3FFFE0
1FFFC0
07FF80
01FC00
ENDCHAR
STARTCHAR 4
ENCODING 52
SWIDTH 555 0
DWIDTH 26 0
BBX 26 31 0 0
BITMAP
00000800
00001800
00001800
00003800
00007800
0000F800
0001F800
0001F800
0003F800
0007F800
000FF800
001FF800
003EF800
003CF800
0078F800
00F0F800
01F0F800
03E0F800
07C0F800
0780F800
0FFFFF80
1FFFFF80
3FFFFF80
7FFFFF80
0000F800
0000F800
0000F800
0000F800
0000F800
0000F800
0000F800
ENDCHAR
STARTCHAR 5
ENCODING 53
SWIDTH 491 0
DWIDTH 23 0
BBX 23 31 0 0
BITMAP
07FFF8
07FFF0
07FFF0
07FFE0
078000
078000
078000
0F8000
0F8000
0F8000
0F8000
0FFC00
0FFF00
0FFF80
0FFFC0
080FE0
0003F0
0001F0
0000F0
0000F0
0000F0
0000F0
0000F0
0000F0
2001F0
7803E0
FE07E0
7FFFC0
3FFF80
0FFF00
03F800
ENDCHAR
STARTCHAR 6
ENCODING 54
SWIDTH 512 0
DWIDTH 24 0
BBX 24 31 0 0
BITMAP
000FE0
001F80
003F00
003E00
007C00
00F800
01F000
01E000
03E000
03C000
078000
07FF80
0FFFE0
0FFFF0
0FFFF8
1FC1FC
1F007C
1F003C
1E003E
1E003E
1F003E
1F003E
1F003E
1F003C
0F807C
0FC07C
07E1F8
07FFF0
03FFE0
00FFC0
007F00
ENDCHAR
STARTCHAR 7
ENCODING 55
SWIDTH 469 0
DWIDTH 22 0
BBX 22 31 0 0
BITMAP
1FFFF8
1FFFF8
1FFFF0
1FFFF0
0001F0
0003E0
0003E0
0007C0
0007C0
000780
000F80
000F80
001F00
001F00
003E00
003E00
007C00
007C00
007C00
00F800
00F800
01F000
01F000
03E000
03E000
07C000
07C000
07C000
0F8000
0F8000
1F0000
ENDCHAR
STARTCHAR 8
ENCODING 56
SWIDTH 512 0
DWIDTH 24 0
BBX 24 31 0 0
BITMAP
007E00
01FF80
03FFC0
07FFE0
07C3F0
0F81F0
0F00F0
0F00F0
0F00F0
0F81F0
0FC1E0
07E7E0
03FFC0
01FF80
00FF80
03FFC0
07FFE0
0FC3F0
1F81F8
1F00F8
1E007C
3E007C
3E007C
3E007C
1E0078
1F00F8
1FC3F8
0FFFF0
07FFE0
03FF80
00FE00
ENDCHAR
STARTCHAR 9
ENCODING 57
SWIDTH 512 0
DWIDTH 24 0
BBX 24 31 0 0
BITMAP
00FE00
03FF00
0FFFC0
1FFFE0
1F87E0
3E01F0
3C01F0
7C00F8
7C00F8
7C00F8
7C0078
7C0078
7C00F8
3E00F8
3F03F8
1FFFF8
0FFFF0
07FFF0
01FFF0
0001E0
0003E0
0003C0
0007C0
000F80
001F80
001F00
003E00
007C00
00FC00
03F800
07F000
ENDCHAR
STARTCHAR :
ENCODING 58
SWIDTH 277 0
DWIDTH 13 0
BBX 13 23 0 0
BITMAP
0200
0700
0FC0
0F80
0700
0200
0000
0000
0000
0000
0000
0000
0000
0000
0000
0000
0000
0200
0700
0FC0
0F80
0700
0200
ENDCHAR
STARTCHAR ;
ENCODING 59
SWIDTH 277 0
DWIDTH 13 0
BBX 13 27 0 -5
BITMAP
0200
0700
0FC0
0F80
0700
0200
0000
0000
0000
0000
0000
0000
0000
0000
0000
0000
0200
0700
0F80
1F80
0F80
0780
0780
0700
0600
0400
0800
ENDCHAR
STARTCHAR U+003C
ENCODING 60
SWIDTH 512 0
DWIDTH 24 0
BBX 24 27 0 0
BITMAP
000008
000038
0000F8
0003F8
000FF8
003FE0
00FF80
03FE00
0FF800
1FE000
1F0000
1FE000
0FF800
03FE00
00FF80
003FE0
000FF8
0003F8
0000F8
000038
000008
000000
000000
000000
000000
000000
000000
ENDCHAR
STARTCHAR =
ENCODING 61
SWIDTH 512 0
DWIDTH 24 0
BBX 24 22 0 0
BITMAP
1FFFF8
1FFFF8
1FFFF8
1FFFF8
000000
000000
000000
000000
000000
000000
1FFFF8
1FFFF8
1FFFF8
1FFFF8
000000
000000
000000
000000
000000
000000
000000
000000
ENDCHAR
STARTCHAR U+003E
ENCODING 62
SWIDTH 512 0
DWIDTH 24 0
BBX 24 27 0 0
BITMAP
180000
1C0000
1F0000
1FC000
1FF000
07FC00
01FF00
007FC0
001FF0
0007F8
0000F8
0007F8
001FF0
007FC0
01FF00
07FC00
1FF000
1FC000
1F0000
1C0000
180000
000000
000000
000000
000000
000000
000000
ENDCHAR
STARTCHAR ?
ENCODING 63
SWIDTH 448 0
DWIDTH 21 0
BBX 21 31 0 0
BITMAP
03F800
0FFE00
3FFF00
7FFF80
7E0F80
3807C0
1007C0
0003C0
0007C0
0007C0
000F80
001F80
007F00
00FE00
01F800
03F000
03C000
07C000
03C000
03E000
01F000
01E000
004000
000000
004000
00E000
01F000
03F000
01E000
00C000
004000
ENDCHAR
STARTCHAR @
ENCODING 64
SWIDTH 917 0
DWIDTH 43 0
BBX 43 39 0 -8
BITMAP
00003FF00000
0001FFFE0000
0007FFFF8000
001FFFFFE000
003FC01FF000
007E0003F800
00F80000FC00
01F000007C00
03E01FC23E00
07C07FFC1E00
0780FFFC0F00
0F81F07C0F00
0F03E03C0F00
0F07C03C0780
1E07803C0780
1E07803C0780
1E0F003C0780
1C0F003C0780
1C0F003C0780
1C0F00380780
1C0F00780700
1C0F00780700
1C0F00780F00
1C0F00780E00
1E0780781E00
1E0780FC3C00
1E03E1FFF800
0F03FFFFF000
0F00FF8FC000
0F803E000000
07C000000000
03E000000000
03F000000000
01FC000C0000
00FF803C0000
007FFFFC0000
001FFFFC0000
0007FFF00000
0000FF800000
ENDCHAR
STARTCHAR A
ENCODING 65
SWIDTH 640 0
DWIDTH 30 0
BBX 30 31 0 0
BITMAP
00078000
000F8000
000FC000
000FC000
001FE000
001FE000
003FF000
003FF000
003CF000
007CF800
00787800
00F87C00
00F87C00
00F03C00
01F03E00
01F01E00
01E01F00
03E01F00
03C00F00
07FFFF80
07FFFF80
07FFFFC0
0FFFFFC0
0F0003C0
1F0003E0
1F0003E0
1E0001F0
3E0001F0
3E0000F0
7C0000F8
7C0000F8
ENDCHAR
STARTCHAR B
ENCODING 66
SWIDTH 576 0
DWIDTH 27 0
BBX 27 31 0 0
BITMAP
0FFF0000
0FFFC000
0FFFF000
0FFFF000
0F81F800
0F80F800
0F807C00
0F807C00
0F807C00
0F807C00
0F807800
0F80F800
0F81F000
0FFFF000
0FFFF000
0FFFFC00
0FFFFE00
0F807F00
0F801F00
0F800F80
0F800F80
0F800F80
0F800F80
0F800F80
0F800F80
0F801F00
0F807F00
0FFFFE00
0FFFFC00
0FFFF800
0FFFC000
ENDCHAR
STARTCHAR C
ENCODING 67
SWIDTH 661 0
DWIDTH 31 0
BBX 31 31 0 0
BITMAP
0003FE00
000FFF80
003FFFE0
00FFFFF0
01FE01F0
03F80070
07E00010
07C00000
0F800000
0F800000
1F000000
1F000000
1F000000
1E000000
1E000000
1E000000
1E000000
1E000000
1F000000
1F000000
1F000000
0F800000
0F800000
07C00000
03E00010
03F80070
01FE01F0
00FFFFF0
003FFFE0
000FFF80
0001FC00
ENDCHAR
STARTCHAR D
ENCODING 68
SWIDTH 704 0
DWIDTH 33 0
BBX 33 31 0 0
BITMAP
0FFFC00000
0FFFF80000
0FFFFE0000
0FFFFF8000
0F807FC000
0F800FE000
0F8007E000
0F8003F000
0F8001F800
0F8000F800
0F8000F800
0F80007C00
0F80007C00
0F80007C00
0F80007C00
0F80007C00
0F80007C00
0F80007C00
0F80007C00
0F80007C00
0F8000F800
0F8000F800
0F8001F800
0F8003F000
0F8007E000
0F800FE000
0F807FC000
0FFFFF8000
0FFFFE0000
0FFFF80000
0FFFC00000
ENDCHAR
STARTCHAR E
ENCODING 69
SWIDTH 555 0
DWIDTH 26 0
BBX 26 31 0 0
BITMAP
0FFFFE00
0FFFFE00
0FFFFE00
0FFFFE00
0F800000
0F800000
0F800000
0F800000
0F800000
0F800000
0F800000
0F800000
0FFFF000
0FFFF000
0FFFF000
0FFFF000
0F800000
0F800000
0F800000
0F800000
0F800000
0F800000
0F800000
0F800000
0F800000
0F800000
0F800000
0FFFFF00
0FFFFF00
0FFFFF00
0FFFFF00
ENDCHAR
STARTCHAR F
ENCODING 70
SWIDTH 512 0
DWIDTH 24 0
BBX 24 31 0 0
BITMAP
0FFFFE
0FFFFE
0FFFFE
0FFFFE
0F8000
0F8000
0F8000
0F8000
0F8000
0F8000
0F8000
0F8000
0FFFE0
0FFFE0
0FFFE0
0FFFE0
0F8000
0F8000
0F8000
0F8000
0F8000
0F8000
0F8000
0F8000
0F8000
0F8000
0F8000
0F8000
0F8000
0F8000
0F8000
ENDCHAR
STARTCHAR G
ENCODING 71
SWIDTH 704 0
DWIDTH 33 0
BBX 33 31 0 0
BITMAP
0003FF0000
000FFFF000
003FFFF800
00FFFFF800
01FE01F800
03F8003800
03E0000800
07C0000000
0FC0000000
0F80000000
1F00000000
1F00000000
1F00000000
1E001FFC00
1E001FFC00
1E001FFC00
1E001FFC00
1E00007C00
1F00007C00
1F00007C00
1F00007C00
0F80007C00
0FC0007C00
07C0007C00
07E0007C00
03F8007C00
01FE01FC00
00FFFFFC00
003FFFFC00
001FFFF000
0003FF0000
ENDCHAR
STARTCHAR H
ENCODING 72
SWIDTH 704 0
DWIDTH 33 0
BBX 33 31 0 0
BITMAP
0F8000F800
0F8000F800
0F8000F800
0F8000F800
0F8000F800
0F8000F800
0F8000F800
0F8000F800
0F8000F800
0F8000F800
0F8000F800
0F8000F800
0FFFFFF800
0FFFFFF800
0FFFFFF800
0FFFFFF800
0F8000F800
0F8000F800
0F8000F800
0F8000F800
0F8000F800
0F8000F800
0F8000F800
0F8000F800
0F8000F800
0F8000F800
0F8000F800
0F8000F800
0F8000F800
0F8000F800
0F8000F800
ENDCHAR
STARTCHAR I
ENCODING 73
SWIDTH 277 0
DWIDTH 13 0
BBX 13 31 0 0
BITMAP
0F80
0F80
0F80
0F80
0F80
0F80
0F80
0F80
0F80
0F80
0F80
0F80
0F80
0F80
0F80
0F80
0F80
0F80
0F80
0F80
0F80
0F80
0F80
0F80
0F80
0F80
0F80
0F80
0F80
0F80
0F80
ENDCHAR
STARTCHAR J
ENCODING 74
SWIDTH 469 0
DWIDTH 22 0
BBX 22 31 0 0
BITMAP
0007C0
0007C0
0007C0
0007C0
0007C0
0007C0
0007C0
0007C0
0007C0
0007C0
0007C0
0007C0
0007C0
0007C0
0007C0
0007C0
0007C0
0007C0
0007C0
0007C0
0007C0
0007C0
0007C0
000780
080780
3C0F80
7E1F80
3FFF00
3FFE00
0FFC00
03F000
ENDCHAR
STARTCHAR K
ENCODING 75
SWIDTH 597 0
DWIDTH 28 0
BBX 29 31 0 0
BITMAP
0F8007E0
0F800FC0
0F801F80
0F807F00
0F80FE00
0F81F800
0F83F000
0F87E000
0F8FC000
0F9F8000
0FBF0000
0FFE0000
0FFC0000
0FF80000
0FFC0000
0FFC0000
0FFE0000
0FBF0000
0F9F8000
0F8FC000
0F87E000
0F83F000
0F83F800
0F81FC00
0F80FC00
0F807E00
0F803F00
0F801F80
0F800FC0
0F8007E0
0F8003F0
ENDCHAR
STARTCHAR L
ENCODING 76
SWIDTH 512 0
DWIDTH 24 0
BBX 24 31 0 0
BITMAP
0F8000
0F8000
0F8000
0F8000
0F8000
0F8000
0F8000
0F8000
0F8000
0F8000
0F8000
0F8000
0F8000
0F8000
0F8000
0F8000
0F8000
0F8000
0F8000
0F8000
0F8000
0F8000
0F8000
0F8000
0F8000
0F8000
0F8000
0FFFFE
0FFFFE
0FFFFE
0FFFFE
ENDCHAR
STARTCHAR M
ENCODING 77
SWIDTH 832 0
DWIDTH 39 0
BBX 39 31 0 0
BITMAP
0F800003E0
0FC00007E0
0FE0000FE0
0FF0001FE0
0FF8003FE0
0FF8003FE0
0FFC007FE0
0FFE00FFE0
0FBF01FBE0
0F9F83F3E0
0F8F83E3E0
0F8FC7C3E0
0F87EFC3E0
0F83FF83E0
0F81FF03E0
0F80FE03E0
0F80FC03E0
0F807C03E0
0F803803E0
0F801003E0
0F800003E0
0F800003E0
0F800003E0
0F800003E0
0F800003E0
0F800003E0
0F800003E0
0F800003E0
0F800003E0
0F800003E0
0F800003E0
ENDCHAR
STARTCHAR N
ENCODING 78
SWIDTH 747 0
DWIDTH 35 0
BBX 35 31 0 0
BITMAP
0F80003E00
0FC0003E00
0FC0003E00
0FE0003E00
0FF0003E00
0FF8003E00
0FF8003E00
0FFC003E00
0FFE003E00
0FBF003E00
0F9F003E00
0F8F803E00
0F8FC03E00
0F87E03E00
0F83E03E00
0F81F03E00
0F81F83E00
0F80FC3E00
0F807C3E00
0F803E3E00
0F801F3E00
0F801FBE00
0F800FBE00
0F8007FE00
0F8003FE00
0F8003FE00
0F8001FE00
0F8000FE00
0F80007E00
0F80007E00
0F80003E00
ENDCHAR
STARTCHAR O
ENCODING 79
SWIDTH 789 0
DWIDTH 37 0
BBX 37 31 0 0
BITMAP
0003FE0000
000FFF8000
003FFFE000
00FFFFF800
01FE03FC00
03F800FE00
07E0003E00
07C0001F00
0F80000F80
0F80000F80
1F000007C0
1F000007C0
1F000007C0
1E000003C0
1E000003C0
1E000003C0
1E000003C0
1E000003C0
1F000007C0
1F000007C0
1F000007C0
0F80000F80
0F80000F80
07C0001F00
07E0003F00
03F800FE00
01FE03FC00
00FFFFF800
003FFFE000
000FFF8000
0003FE0000
ENDCHAR
STARTCHAR P
ENCODING 80
SWIDTH 576 0
DWIDTH 27 0
BBX 27 31 0 0
BITMAP
0FFFC000
0FFFF000
0FFFFC00
0FFFFE00
0F80FE00
0F803F00
0F801F00
0F801F00
0F800F00
0F800F00
0F800F00
0F801F00
0F801F00
0F803F00
0F80FE00
0FFFFC00
0FFFF800
0FFFF000
0FFFC000
0F800000
0F800000
0F800000
0F800000
0F800000
0F800000
0F800000
0F800000
0F800000
0F800000
0F800000
0F800000
ENDCHAR
STARTCHAR Q
ENCODING 81
SWIDTH 789 0
DWIDTH 37 0
BBX 37 32 0 -1
BITMAP
0003FE0000
000FFF8000
003FFFE000
00FFFFF800
01FE03FC00
03F800FE00
07E0003E00
07C0001F00
0F80000F80
0F80000F80
1F000007C0
1F000007C0
1F000007C0
1E000003C0
1E000003C0
1E000003C0
1E000003C0
1E000003C0
1F000007C0
1F000007C0
1F000087C0
0F8001CF80
0F8003EF80
07C003FF00
07E001FE00
03F800FE00
01FE03FE00
00FFFFFF00
003FFFFF80
000FFFCFC0
0003FE0700
0000000200
ENDCHAR
STARTCHAR R
ENCODING 82
SWIDTH 576 0
DWIDTH 27 0
BBX 28 31 0 0
BITMAP
0FFF0000
0FFFE000
0FFFF000
0FFFF800
0F81FC00
0F807C00
0F803C00
0F803E00
0F803E00
0F803E00
0F803C00
0F807C00
0F81FC00
0FFFF800
0FFFF000
0FFFE000
0FFF8000
0F8FC000
0F87C000
0F87E000
0F83F000
0F81F000
0F81F800
0F80FC00
0F807E00
0F803E00
0F803F00
0F801F80
0F800F80
0F800FC0
0F8007E0
ENDCHAR
STARTCHAR S
ENCODING 83
SWIDTH 491 0
DWIDTH 23 0
BBX 23 31 0 0
BITMAP
00FC00
03FF80
07FFC0
0FFFE0
1F8780
1F0100
1E0000
1E0000
1F0000
1F8000
1FC000
0FF000
07FC00
03FF00
01FF80
007FC0
001FE0
0007F0
0003F0
0001F8
0000F8
0000F8
0800F8
3C00F8
7C00F0
3E01F0
3F87F0
1FFFE0
0FFFC0
07FF00
01FC00
ENDCHAR
STARTCHAR T
ENCODING 84
SWIDTH 555 0
DWIDTH 26 0
BBX 26 31 0 0
BITMAP
7FFFFF80
7FFFFF80
7FFFFF80
7FFFFF80
001E0000
001E0000
001E0000
001E0000
001E0000
001E0000
001E0000
001E0000
001E0000
001E0000
001E0000
001E0000
001E0000
001E0000
001E0000
001E0000
001E0000
001E0000
001E0000
001E0000
001E0000
001E0000
001E0000
001E0000
001E0000
001E0000
001E0000
ENDCHAR
STARTCHAR U
ENCODING 85
SWIDTH 747 0
DWIDTH 35 0
BBX 35 31 0 0
BITMAP
0F80003E00
0F80003E00
0F80003E00
0F80003E00
0F80003E00
0F80003E00
0F80003E00
0F80003E00
0F80003E00
0F80003E00
0F80003E00
0F80003E00
0F80003E00
0F80003E00
0F80003E00
0F80003E00
0F80003E00
0F80003E00
0F80003E00
0F80003E00
0F80003E00
0F80003C00
07C0007C00
07C000FC00
03E000F800
03F003F000
01FC0FF000
00FFFFE000
007FFFC000
001FFF0000
0007F80000
ENDCHAR
STARTCHAR V
ENCODING 86
SWIDTH 619 0
DWIDTH 29 0
BBX 29 31 0 0
BITMAP
7C0001F0
7C0001E0
3E0003E0
3E0003E0
1E0003C0
1F0007C0
1F0007C0
0F800780
0F800F80
0F800F80
07C01F00
07C01F00
03C01E00
03E03E00
03E03E00
01E03C00
01F07C00
01F07C00
00F07800
00F8F800
0078F800
007CF000
007DF000
003DE000
003FE000
003FE000
001FC000
001FC000
000FC000
000F8000
000F8000
ENDCHAR
STARTCHAR W
ENCODING 87
SWIDTH 939 0
DWIDTH 44 0
BBX 44 31 0 0
BITMAP
3E00000003C0
3E000F8007C0
3E001F8007C0
1E001F800780
1F001FC00780
1F003FC00F80
0F003FC00F80
0F803FC00F00
0F803FE01F00
0F807DE01F00
078079E01E00
07C079F01E00
07C0F8F03E00
03C0F0F03E00
03E0F0F83C00
03E0F0F83C00
03E1E0787C00
01E1E0787800
01F1E07C7800
01F3E03CF800
00F3C03CF800
00FBC03EF000
00FFC01EF000
00FF801FF000
007F801FE000
007F801FE000
007F800FE000
003F000FE000
003F000FC000
003F0007C000
001E0007C000
ENDCHAR
STARTCHAR X
ENCODING 88
SWIDTH 661 0
DWIDTH 31 0
BBX 31 31 0 0
BITMAP
7E0001F0
3F0003E0
1F8007E0
0F800FC0
07C00F80
07E01F00
03F03F00
01F03E00
00F87C00
00FCFC00
007FF800
003FF000
001FE000
001FE000
000FC000
000FC000
001FE000
003FF000
007FF800
007CF800
00F87C00
01F87E00
01F03F00
03E01F00
07E00F80
0FC00FC0
0F8007E0
1F0003E0
3F0001F0
7E0001F8
7C0000FC
ENDCHAR
STARTCHAR Y
ENCODING 89
SWIDTH 576 0
DWIDTH 27 0
BBX 27 31 0 0
BITMAP
7C0007C0
3E000F80
3E000F80
1F001F00
1F801F00
0F803E00
07C03C00
07C07C00
03E0F800
01F0F800
01F1F000
00F9E000
00FBE000
007FC000
003FC000
003F8000
001F0000
001F0000
001F0000
001F0000
001F0000
001F0000
001F0000
001F0000
001F0000
001F0000
001F0000
001F0000
001F0000
001F0000
001F0000
ENDCHAR
STARTCHAR Z
ENCODING 90
SWIDTH 597 0
DWIDTH 28 0
BBX 28 31 0 0
BITMAP
3FFFFFE0
3FFFFFC0
3FFFFF80
3FFFFF80
00001F00
00003E00
00007E00
00007C00
0000F800
0001F800
0001F000
0003E000
0007E000
0007C000
000F8000
001F8000
001F0000
003F0000
007E0000
007C0000
00FC0000
01F80000
01F00000
03F00000
07E00000
07C00000
0FC00000
1FFFFFE0
1FFFFFE0
3FFFFFE0
7FFFFFE0
ENDCHAR
STARTCHAR [
ENCODING 91
SWIDTH 320 0
DWIDTH 15 0
BBX 15 41 0 -6
BITMAP
0FF8
0FF8
0FF8
0F00
0F00
0F00
0F00
0F00
0F00
0F00
0F00
0F00
0F00
0F00
0F00
0F00
0F00
0F00
0F00
0F00
0F00
0F00
0F00
0F00
0F00
0F00
0F00
0F00
0F00
0F00
0F00
0F00
0F00
0F00
0F00
0F00
0F00
0F00
0FF8
0FF8
0FF8
ENDCHAR
STARTCHAR \
ENCODING 92
SWIDTH 320 0
DWIDTH 15 0
BBX 15 37 0 -4
BITMAP
F000
F000
7800
7800
7800
3C00
3C00
3C00
3C00
1E00
1E00
1E00
0F00
0F00
0F00
0F00
0780
0780
0780
03C0
03C0
03C0
03C0
01E0
01E0
01E0
00F0
00F0
00F0
00F0
0078
0078
0078
003C
003C
003C
003C
ENDCHAR
STARTCHAR ]
ENCODING 93
SWIDTH 320 0
DWIDTH 15 0
BBX 15 41 0 -6
BITMAP
3FF0
3FF0
3FF0
00F0
00F0
00F0
00F0
00F0
00F0
00F0
00F0
00F0
00F0
00F0
00F0
00F0
00F0
00F0
00F0
00F0
00F0
00F0
00F0
00F0
00F0
00F0
00F0
00F0
00F0
00F0
00F0
00F0
00F0
00F0
00F0
00F0
00F0
00F0
3FF0
3FF0
3FF0
ENDCHAR
STARTCHAR ^
ENCODING 94
SWIDTH 555 0
DWIDTH 26 0
BBX 26 31 0 0
BITMAP
003E0000
003F0000
007F8000
00FFC000
00F3C000
01E1E000
03E1F000
07C0F800
07807800
0F807C00
1F003E00
1E001E00
00000000
00000000
00000000
00000000
00000000
00000000
00000000
00000000
00000000
00000000
00000000
00000000
00000000
00000000
00000000
00000000
00000000
00000000
00000000
ENDCHAR
STARTCHAR _
ENCODING 95
SWIDTH 491 0
DWIDTH 23 0
BBX 24 5 -1 -5
BITMAP
000000
000000
000000
FFFFFE
FFFFFE
ENDCHAR
STARTCHAR `
ENCODING 96
SWIDTH 448 0
DWIDTH 21 0
BBX 21 31 0 0
BITMAP
FFFFF8
FFFFF8
FFFFF8
FFFFF8
F00078
F00078
F00078
F00078
F00078
F00078
F00078
F00078
F00078
F00078
F00078
F00078
F00078
F00078
F00078
F00078
F00078
F00078
F00078
F00078
F00078
F00078
F00078
FFFFF8
FFFFF8
FFFFF8
FFFFF8
ENDCHAR
STARTCHAR a
ENCODING 97
SWIDTH 491 0
DWIDTH 23 0
BBX 23 22 0 0
BITMAP
00FE00
07FF80
0FFFC0
0FFFE0
0F07E0
0C01F0
1001F0
0000F0
001FF0
01FFF0
07FFF0
0FE0F0
1F80F0
1E00F0
3E00F0
3E00F0
3E01F0
3F07F0
1FFFF0
1FFFF0
0FFCF0
03F0F0
ENDCHAR
STARTCHAR b
ENCODING 98
SWIDTH 576 0
DWIDTH 27 0
BBX 27 31 0 0
BITMAP
0F000000
0F000000
0F000000
0F000000
0F000000
0F000000
0F000000
0F000000
0F000000
0F1F8000
0F7FF000
0FFFF800
0FFFFC00
0FE0FE00
0F803F00
0F001F00
0F000F00
0F000F80
0F000F80
0F000780
0F000780
0F000F80
0F000F80
0F000F00
0F001F00
0F803F00
0FE0FE00
0FFFFC00
0FFFF800
0F7FF000
0F1F8000
ENDCHAR
STARTCHAR c
ENCODING 99
SWIDTH 491 0
DWIDTH 23 0
BBX 23 22 0 0
BITMAP
003FC0
00FFF8
03FFF8
07FFF8
0FE078
0F8018
1F0000
1E0000
3E0000
3E0000
3E0000
3E0000
3E0000
3E0000
1E0000
1F0000
0F8008
0FE078
07FFF8
03FFF8
00FFF8
003FE0
ENDCHAR
STARTCHAR d
ENCODING 100
SWIDTH 576 0
DWIDTH 27 0
BBX 27 31 0 0
BITMAP
00001E00
00001E00
00001E00
00001E00
00001E00
00001E00
00001E00
00001E00
00001E00
003F1E00
00FFDE00
03FFFE00
07FFFE00
0FE07E00
0F803E00
1F001E00
1E001E00
3E001E00
3E001E00
3E001E00
3E001E00
3E001E00
3E001E00
1E001E00
1F001E00
1F803E00
0FE07E00
07FFFE00
03FFFE00
01FFDE00
003F1E00
ENDCHAR
STARTCHAR e
ENCODING 101
SWIDTH 533 0
DWIDTH 25 0
BBX 25 22 0 0
BITMAP
003F0000
01FFC000
03FFE000
07FFF000
0FC1F800
0F807C00
1F007C00
1E003C00
3E003C00
3FFFFE00
3FFFFE00
3FFFFE00
3FFFFE00
3E000000
1E000000
1F000000
0F800400
0FE03C00
07FFFC00
03FFFC00
00FFFC00
003FE000
ENDCHAR
STARTCHAR f
ENCODING 102
SWIDTH 384 0
DWIDTH 18 0
BBX 18 31 0 0
BITMAP
007F80
01FF80
03FF80
03FF80
07C000
078000
0F8000
0F8000
0F8000
7FFF80
7FFF80
7FFF80
7FFF80
0F8000
0F8000
0F8000
0F8000
0F8000
0F8000
0F8000
0F8000
0F8000
0F8000
0F8000
0F8000
0F8000
0F8000
0F8000
0F8000
0F8000
0F8000
ENDCHAR
STARTCHAR g
ENCODING 103
SWIDTH 491 0
DWIDTH 23 0
BBX 23 30 0 -8
BITMAP
01FFFC
07FFFC
0FFFFC
1FFFFC
1F07E0
3E01E0
3C01F0
3C00F0
3C01F0
1E01F0
1F03E0
0FFFE0
07FFC0
07FF80
0FFC00
0F0000
0F8000
0FF800
07FF00
07FFE0
1F3FF0
3C03F8
78007C
78003C
78003C
7E00FC
7FFFF8
3FFFF8
0FFFE0
03FF00
ENDCHAR
STARTCHAR h
ENCODING 104
SWIDTH 576 0
DWIDTH 27 0
BBX 27 31 0 0
BITMAP
0F000000
0F000000
0F000000
0F000000
0F000000
0F000000
0F000000
0F000000
0F000000
0F1FC000
0F7FF000
0FFFF800
0FFFFC00
0FE0FE00
0F803E00
0F001E00
0F001F00
0F001F00
0F001F00
0F001F00
0F001F00
0F001F00
0F001F00
0F001F00
0F001F00
0F001F00
0F001F00
0F001F00
0F001F00
0F001F00
0F001F00
ENDCHAR
STARTCHAR i
ENCODING 105
SWIDTH 256 0
DWIDTH 12 0
BBX 12 30 0 0
BITMAP
0600
0F00
1F80
0F00
0600
0000
0000
0F00
0F00
0F00
0F00
0F00
0F00
0F00
0F00
0F00
0F00
0F00
0F00
0F00
0F00
0F00
0F00
0F00
0F00
0F00
0F00
0F00
0F00
0000
ENDCHAR
STARTCHAR j
ENCODING 106
SWIDTH 256 0
DWIDTH 12 0
BBX 13 38 -1 -8
BITMAP
0200
0700
0F80
0F80
0700
0200
0000
0000
0780
0780
0780
0780
0780
0780
0780
0780
0780
0780
0780
0780
0780
0780
0780
0780
0780
0780
0780
0780
0780
0780
0780
0780
0F80
0F80
FF00
FF00
FE00
F800
ENDCHAR
STARTCHAR k
ENCODING 107
SWIDTH 512 0
DWIDTH 24 0
BBX 24 31 0 0
BITMAP
0F0000
0F0000
0F0000
0F0000
0F0000
0F0000
0F0000
0F0000
0F0000
0F00FE
0F01F8
0F03F0
0F07E0
0F0FC0
0F1F80
0F3F00
0F7E00
0FF800
0FF000
0FF800
0FFC00
0F7E00
0F3F00
0F1F80
0F0F80
0F07C0
0F03E0
0F03F0
0F01F8
0F00FC
0F007E
ENDCHAR
STARTCHAR l
ENCODING 108
SWIDTH 299 0
DWIDTH 14 0
BBX 14 31 0 0
BITMAP
1F00
1F00
1F00
1F00
1F00
1F00
1F00
1F00
1F00
1F00
1F00
1F00
1F00
1F00
1F00
1F00
1F00
1F00
1F00
1F00
1F00
1F00
1F00
1F00
1F00
1F00
0F80
0FFC
0FFC
07FC
01FC
ENDCHAR
STARTCHAR m
ENCODING 109
SWIDTH 896 0
DWIDTH 42 0
BBX 42 22 0 0
BITMAP
0F1FC03F8000
0F7FF1FFE000
0FFFFFFFF000
0FFFFFFFF800
0FE0FFC1F800
0F807F007C00
0F003E007C00
0F003E003C00
0F001E003C00
0F001E003C00
0F001E003C00
0F001E003C00
0F001E003C00
0F001E003C00
0F001E003C00
0F001E003C00
0F001E003C00
0F001E003C00
0F001E003C00
0F001E003C00
0F001E003C00
0F001E003C00
ENDCHAR
STARTCHAR n
ENCODING 110
SWIDTH 576 0
DWIDTH 27 0
BBX 27 22 0 0
BITMAP
0F1FC000
0F7FF000
0FFFF800
0FFFFC00
0FE0FE00
0F803E00
0F001E00
0F001F00
0F001F00
0F001F00
0F001F00
0F001F00
0F001F00
0F001F00
0F001F00
0F001F00
0F001F00
0F001F00
0F001F00
0F001F00
0F001F00
0F001F00
ENDCHAR
STARTCHAR o
ENCODING 111
SWIDTH 576 0
DWIDTH 27 0
BBX 27 22 0 0
BITMAP
003F8000
00FFF000
03FFF800
07FFFC00
0FE0FE00
0F803F00
1F001F00
1E000F80
3E000F80
3E000780
3E000780
3E000780
3E000780
3E000F80
1E000F80
1F001F00
0F803F00
0FE0FE00
07FFFC00
03FFF800
00FFF000
003F8000
ENDCHAR
STARTCHAR p
ENCODING 112
SWIDTH 576 0
DWIDTH 27 0
BBX 27 30 0 -8
BITMAP
0F1F8000
0F7FF000
0FFFF800
0FFFFC00
0FE0FE00
0F803F00
0F001F00
0F000F00
0F000F80
0F000F80
0F000780
0F000780
0F000F80
0F000F80
0F000F00
0F001F00
0F803F00
0FE0FE00
0FFFFC00
0FFFF800
0F7FF000
0F1F8000
0F000000
0F000000
0F000000
0F000000
0F000000
0F000000
0F000000
0F000000
ENDCHAR
STARTCHAR q
ENCODING 113
SWIDTH 576 0
DWIDTH 27 0
BBX 27 30 0 -8
BITMAP
003F1E00
00FFFE00
03FFFE00
07FFFE00
0FE07E00
0F803E00
1F001E00
1E001E00
3E001E00
3E001E00
3E001E00
3E001E00
3E001E00
3E001E00
1E001E00
1F001E00
1F803E00
0FE07E00
07FFFE00
03FFFE00
01FFDE00
003F1E00
00001E00
00001E00
00001E00
00001E00
00001E00
00001E00
00001E00
00001E00
ENDCHAR
STARTCHAR r
ENCODING 114
SWIDTH 384 0
DWIDTH 18 0
BBX 18 22 0 0
BITMAP
0F3F80
0F7F80
0FFF80
0FFF80
0FC000
0F8000
0F0000
0F0000
0F0000
0F0000
0F0000
0F0000
0F0000
0F0000
0F0000
0F0000
0F0000
0F0000
0F0000
0F0000
0F0000
0F0000
ENDCHAR
STARTCHAR s
ENCODING 115
SWIDTH 469 0
DWIDTH 22 0
BBX 22 22 0 0
BITMAP
01FE00
07FFC0
0FFFC0
1FFFC0
1F03C0
3E0040
3E0000
3E0000
1FC000
1FFC00
0FFF80
03FFC0
007FE0
0007E0
0001F0
2001F0
3801F0
3E03E0
3FFFE0
3FFFC0
0FFF80
03FE00
ENDCHAR
STARTCHAR t
ENCODING 116
SWIDTH 405 0
DWIDTH 19 0
BBX 19 27 0 0
BITMAP
0F8000
0F8000
0F8000
0F8000
0F8000
7FFF80
7FFF80
7FFF80
7FFF80
0F8000
0F8000
0F8000
0F8000
0F8000
0F8000
0F8000
0F8000
0F8000
0F8000
0F8000
0F8000
078000
07C000
07FF80
03FF80
01FF80
007F80
ENDCHAR
STARTCHAR u
ENCODING 117
SWIDTH 576 0
DWIDTH 27 0
BBX 27 22 0 0
BITMAP
1F001E00
1F001E00
1F001E00
1F001E00
1F001E00
1F001E00
1F001E00
1F001E00
1F001E00
1F001E00
1F001E00
1F001E00
1F001E00
1F001E00
1F001E00
0F001E00
0F803E00
0FE0FE00
07FFFE00
03FFFE00
01FFDE00
007F1E00
ENDCHAR
STARTCHAR v
ENCODING 118
SWIDTH 512 0
DWIDTH 24 0
BBX 24 22 0 0
BITMAP
7C001E
7C003E
3C003E
3E007C
1E007C
1F0078
1F00F8
0F80F0
0F80F0
0781F0
07C1E0
03C3E0
03E3C0
01E3C0
01E780
01F780
00FF80
00FF00
007F00
007E00
003E00
003C00
ENDCHAR
STARTCHAR w
ENCODING 119
SWIDTH 832 0
DWIDTH 39 0
BBX 39 22 0 0
BITMAP
7C00780078
3C007C0078
3E00FC00F8
3E00FE00F0
1E00FE00F0
1F01FE01F0
1F01EF01E0
0F01EF01E0
0F83CF83E0
0F83C783C0
0787C783C0
07C783C7C0
07C783C780
03CF03E780
03EF01EF80
03EF01EF00
01FE01FF00
01FE00FF00
01FE00FE00
00FC007E00
00FC007E00
00F8007C00
ENDCHAR
STARTCHAR x
ENCODING 120
SWIDTH 491 0
DWIDTH 23 0
BBX 23 22 0 0
BITMAP
3E00F8
1F01F0
1F01F0
0F83E0
07C7C0
03CF80
03EF80
01FF00
00FE00
007C00
007C00
00FE00
01FF00
01EF80
03EF80
07C7C0
0F83E0
0F01F0
1F01F0
3E00F8
7C007C
7C003E
ENDCHAR
STARTCHAR y
ENCODING 121
SWIDTH 512 0
DWIDTH 24 0
BBX 24 30 0 -8
BITMAP
7C001E
7C003E
3C003E
3E003C
1E007C
1F0078
0F00F8
0F00F8
0F80F0
0781F0
07C1E0
03C3E0
03E3C0
01E3C0
01E7C0
01F780
00FF80
00FF00
007F00
007F00
003E00
003E00
003C00
003C00
007800
00F800
0FF000
0FF000
0FE000
0F8000
ENDCHAR
STARTCHAR z
ENCODING 122
SWIDTH 448 0
DWIDTH 21 0
BBX 21 22 0 0
BITMAP
3FFFF0
3FFFE0
3FFFE0
3FFFC0
000F80
000F80
001F00
003F00
003E00
007C00
00FC00
00F800
01F000
01F000
03E000
07C000
07C000
0F8000
1FFFE0
1FFFE0
3FFFE0
7FFFE0
ENDCHAR
STARTCHAR {
ENCODING 123
SWIDTH 341 0
DWIDTH 16 0
BBX 16 40 0 -5
BITMAP
003C
00FC
01FC
01E0
03C0
03C0
03C0
03C0
03C0
03C0
03C0
03C0
03C0
03C0
03C0
03C0
0780
1F80
3F00
3E00
3F00
1F80
0780
07C0
03C0
03C0
03C0
03C0
03C0
03C0
03C0
03C0
03C0
03C0
03C0
03C0
01E0
01FC
00FC
003C
ENDCHAR
STARTCHAR |
ENCODING 124
SWIDTH 213 0
DWIDTH 10 0
BBX 10 45 0 -11
BITMAP
1E00
1E00
1E00
1E00
1E00
1E00
1E00
1E00
1E00
1E00
1E00
1E00
1E00
1E00
1E00
1E00
1E00
1E00
1E00
1E00
1E00
1E00
1E00
1E00
1E00
1E00
1E00
1E00
1E00
1E00
1E00
1E00
1E00
1E00
1E00
1E00
1E00
1E00
1E00
1E00
1E00
1E00
1E00
1E00
1E00
ENDCHAR
STARTCHAR }
ENCODING 125
SWIDTH 341 0
DWIDTH 16 0
BBX 16 40 0 -5
BITMAP
3E00
3F00
3F80
07C0
03C0
03C0
03C0
03C0
03C0
03C0
03C0
03C0
03C0
03C0
03C0
03E0
01F0
01F8
00FC
003C
00FC
01F8
01F0
01E0
03C0
03C0
03C0
03C0
03C0
03C0
03C0
03C0
03C0
03C0
03C0
03C0
07C0
3F80
3F00
3E00
ENDCHAR
STARTCHAR ~
ENCODING 126
SWIDTH 512 0
DWIDTH 24 0
BBX 24 19 0 0
BITMAP
03C010
07F03C
0FF83C
0FFE78
1E3FF8
1C1FF0
3C0FE0
0C03C0
000000
000000
000000
000000
000000
000000
000000
000000
000000
000000
000000
ENDCHAR
STARTCHAR U+00A0
ENCODING 160
SWIDTH 256 0
DWIDTH 12 0
BBX 12 52 0 -12
BITMAP
0000
0000
0000
0000
0000
0000
0000
0000
0000
0000
0000
0000
0000
0000
0000
0000
0000
0000
0000
0000
0000
0000
0000
0000
0000
0000
0000
0000
0000
0000
0000
0000
0000
0000
0000
0000
0000
0000
0000
0000
0000
0000
0000
0000
0000
0000
0000
0000
0000
0000
0000
0000
ENDCHAR
STARTCHAR U+00A1
ENCODING 161
SWIDTH 277 0
DWIDTH 13 0
BBX 13 31 0 -8
BITMAP
0200
0700
0F80
0F80
0700
0200
0000
0700
0700
0700
0700
0700
0700
0700
0700
0F00
0F80
0F80
0F80
0F80
0F80
0F80
0F80
0F80
0F80
0F80
0F80
0F80
0F80
0F80
0000
ENDCHAR
STARTCHAR U+00A2
ENCODING 162
SWIDTH 491 0
DWIDTH 23 0
BBX 23 28 0 -3
BITMAP
001F00
001F00
001F00
003FC0
00FFF8
03FFF8
07FFF8
0FE078
0F8018
1F0000
1E0000
3E0000
3E0000
3E0000
3E0000
3E0000
3E0000
1E0000
1F0000
0F8008
0FE078
07FFF8
03FFF8
00FFF8
003FE0
001F00
001F00
001F00
ENDCHAR
STARTCHAR U+00A3
ENCODING 163
SWIDTH 512 0
DWIDTH 24 0
BBX 24 31 0 0
BITMAP
000FE0
003FF8
007FFC
007FF8
00F870
00F010
01F000
01E000
01E000
01E000
01E000
03E000
03E000
03E000
03E000
0FFFC0
1FFF80
1FFF80
1FFF80
03C000
03C000
03C000
07C000
07C000
078000
0F8000
0F8000
0FFFFC
1FFFFC
3FFFF8
3FFFF8
ENDCHAR
STARTCHAR U+00A4
ENCODING 164
SWIDTH 576 0
DWIDTH 27 0
BBX 27 23 0 0
BITMAP
04000400
0E000E00
1F001F00
1FBFBF80
0FFFFF00
0FFFFE00
07FFFC00
07E0FC00
07C07C00
07803E00
0F803E00
0F803E00
0F803E00
07803E00
07C07C00
07E0FC00
07FFFC00
0FFFFE00
1FFFFF00
1FBFBF80
1F001F00
0E000E00
04000400
ENDCHAR
STARTCHAR U+00A5
ENCODING 165
SWIDTH 597 0
DWIDTH 28 0
BBX 28 31 0 0
BITMAP
7E0007E0
3E0007C0
1F000F80
1F000F80
0F801F00
07C01E00
07C03E00
03E07C00
03E07C00
01F0F800
00F8F000
1FF9FF80
1FFDFF80
1FFFFF80
1FFFFF80
001FC000
001F8000
000F0000
1FFFFF80
1FFFFF80
1FFFFF80
1FFFFF80
000F0000
000F0000
000F0000
000F0000
000F0000
000F0000
000F0000
000F0000
000F0000
ENDCHAR
STARTCHAR U+00A6
ENCODING 166
SWIDTH 213 0
DWIDTH 10 0
BBX 10 45 0 -11
BITMAP
1E00
1E00
1E00
1E00
1E00
1E00
1E00
1E00
1E00
1E00
1E00
1E00
1E00
1E00
1E00
1E00
1E00
1E00
0000
0000
0000
0000
0000
0000
0000
0000
0000
1E00
1E00
1E00
1E00
1E00
1E00
1E00
1E00
1E00
1E00
1E00
1E00
1E00
1E00
1E00
1E00
1E00
1E00
ENDCHAR
STARTCHAR U+00A7
ENCODING 167
SWIDTH 469 0
DWIDTH 22 0
BBX 22 39 0 -8
BITMAP
01FC00
07FF00
0FFF80
1FFFC0
1F07C0
3E03E0
3E01C0
3E0180
3E0000
3E0000
1F8000
1FE000
0FFC00
03FF00
0FFFC0
3FFFE0
3E0FE0
7C03F0
7C01F0
7C00F0
7C00F0
7E01F0
3F81F0
1FF7E0
0FFFC0
03FF80
007FC0
001FE0
0003E0
0001F0
0001F0
0801F0
3C01F0
3E03F0
3F07E0
1FFFC0
0FFFC0
07FF00
01FC00
ENDCHAR
STARTCHAR U+00A8
ENCODING 168
SWIDTH 448 0
DWIDTH 21 0
BBX 21 31 0 0
BITMAP
FFFFF8
FFFFF8
FFFFF8
FFFFF8
F00078
F00078
F00078
F00078
F00078
F00078
F00078
F00078
F00078
F00078
F00078
F00078
F00078
F00078
F00078
F00078
F00078
F00078
F00078
F00078
F00078
F00078
F00078
FFFFF8
FFFFF8
FFFFF8
FFFFF8
ENDCHAR
STARTCHAR U+00A9
ENCODING 169
SWIDTH 768 0
DWIDTH 36 0
BBX 36 31 0 0
BITMAP
0003FC0000
001FFF8000
003E03E000
00F000F000
01C0003800
0380001C00
0701FC0E00
0607FF0600
0E0FFF8700
0C1F038300
1C3C008380
187C000180
1878000180
1878000180
18700001C0
18700001C0
18700001C0
1878000180
1878000180
187C000180
1C3E008380
0C1F038300
0E0FFF8700
0607FF0600
0701F80E00
0380001C00
01C0003800
00F000F000
003C03E000
001FFF8000
0003FC0000
ENDCHAR
STARTCHAR U+00AA
ENCODING 170
SWIDTH 299 0
DWIDTH 14 0
BBX 14 31 0 0
BITMAP
3FC0
3FE0
3FF0
00F0
0070
03F0
1FF0
3E70
3870
7070
7070
7870
3FF0
3FF0
1F70
0000
0000
0000
0000
0000
0000
0000
0000
0000
0000
0000
0000
0000
0000
0000
0000
ENDCHAR
STARTCHAR U+00AB
ENCODING 171
SWIDTH 533 0
DWIDTH 25 0
BBX 25 22 0 0
BITMAP
007C1F00
00F83E00
00F03C00
01E07800
03C0F000
07C1F000
0F83E000
0F03C000
1E078000
3E0F8000
1E078000
1F07C000
0F83E000
0781E000
03C0F000
01E07800
01F07C00
00F83E00
007C1F00
00000000
00000000
00000000
ENDCHAR
STARTCHAR U+00AC
ENCODING 172
SWIDTH 512 0
DWIDTH 24 0
BBX 24 22 0 0
BITMAP
1FFFF8
1FFFF8
1FFFF8
1FFFF8
000078
000078
000078
000078
000078
000078
000078
000078
000078
000000
000000
000000
000000
000000
000000
000000
000000
000000
ENDCHAR
STARTCHAR U+00AD
ENCODING 173
SWIDTH 363 0
DWIDTH 17 0
BBX 17 14 0 0
BITMAP
3FFF00
3FFF00
3FFF00
3FFF00
000000
000000
000000
000000
000000
000000
000000
000000
000000
000000
ENDCHAR
STARTCHAR U+00AE
ENCODING 174
SWIDTH 768 0
DWIDTH 36 0
BBX 36 31 0 0
BITMAP
0003FC0000
001FFF8000
003C03E000
00F000F000
01C0003800
0380001C00
0700000E00
060FF80600
0E0FFE0700
0C0FFE0300
1C0F0F0380
180F0F0180
180F070180
180F0F0180
180F0F01C0
180FFE01C0
180FFC01C0
180FF80180
180F3C0180
180F3C0180
1C0F1E0380
0C0F0F0300
0E0F0F8700
060F078600
070F03CE00
0380001C00
01C0003800
00F000F000
003C03E000
001FFF8000
0003FC0000
ENDCHAR
STARTCHAR U+00AF
ENCODING 175
SWIDTH 448 0
DWIDTH 21 0
BBX 21 31 0 0
BITMAP
FFFFF8
FFFFF8
FFFFF8
FFFFF8
F00078
F00078
F00078
F00078
F00078
F00078
F00078
F00078
F00078
F00078
F00078
F00078
F00078
F00078
F00078
F00078
F00078
F00078
F00078
F00078
F00078
F00078
F00078
FFFFF8
FFFFF8
FFFFF8
FFFFF8
ENDCHAR
STARTCHAR U+00B0
ENCODING 176
SWIDTH 384 0
DWIDTH 18 0
BBX 18 31 0 0
BITMAP
03E000
07F800
0FFC00
1E3E00
1C1E00
3C0E00
3C0E00
3C0E00
1C1E00
1E3E00
0FFC00
07F800
03E000
000000
000000
000000
000000
000000
000000
000000
000000
000000
000000
000000
000000
000000
000000
000000
000000
000000
000000
ENDCHAR
STARTCHAR U+00B1
ENCODING 177
SWIDTH 512 0
DWIDTH 24 0
BBX 24 26 0 0
BITMAP
003C00
003C00
003C00
003C00
003C00
003C00
003C00
1FFFF8
1FFFF8
1FFFF8
1FFFF8
003C00
003C00
003C00
003C00
003C00
003C00
003C00
000000
000000
000000
000000
1FFFF8
1FFFF8
1FFFF8
1FFFF8
ENDCHAR
STARTCHAR U+00B2
ENCODING 178
SWIDTH 320 0
DWIDTH 15 0
BBX 15 31 0 0
BITMAP
0FC0
3FE0
3FF0
38F8
2078
0078
0078
0078
00F0
00F0
01E0
03E0
03C0
0780
0780
0F00
1FF8
1FF8
3FF8
0000
0000
0000
0000
0000
0000
0000
0000
0000
0000
0000
0000
ENDCHAR
STARTCHAR U+00B3
ENCODING 179
SWIDTH 320 0
DWIDTH 15 0
BBX 15 31 0 0
BITMAP
3FF8
3FF8
3FF0
00F0
01E0
01C0
03C0
03E0
07F0
07F8
00F8
003C
003C
003C
003C
1038
7878
3FF0
1FE0
0FC0
0000
0000
0000
0000
0000
0000
0000
0000
0000
0000
0000
ENDCHAR
STARTCHAR U+00B4
ENCODING 180
SWIDTH 448 0
DWIDTH 21 0
BBX 21 31 0 0
BITMAP
FFFFF8
FFFFF8
FFFFF8
FFFFF8
F00078
F00078
F00078
F00078
F00078
F00078
F00078
F00078
F00078
F00078
F00078
F00078
F00078
F00078
F00078
F00078
F00078
F00078
F00078
F00078
F00078
F00078
F00078
FFFFF8
FFFFF8
FFFFF8
FFFFF8
ENDCHAR
STARTCHAR U+00B5
ENCODING 181
SWIDTH 555 0
DWIDTH 26 0
BBX 26 30 0 -8
BITMAP
0F003E00
0F003E00
0F003E00
0F003E00
0F003E00
0F003E00
0F003E00
0F003E00
0F003E00
0F003E00
0F003E00
0F003E00
0F003E00
0F003E00
0F003E00
0F803E00
0F807E00
0FE0FE00
0FFFFE00
0FFFFE00
0FFFBE00
0F3E3E00
0F000000
0F000000
0F000000
0F000000
0F000000
0F000000
0F000000
0F000000
ENDCHAR
STARTCHAR U+00B6
ENCODING 182
SWIDTH 533 0
DWIDTH 25 0
BBX 25 39 0 -8
BITMAP
00FFFF00
03FFFF00
0FFFFF00
1FFE3800
1FFE3800
3FFE3800
3FFE3800
3FFE3800
3FFE3800
3FFE3800
3FFE3800
1FFE3800
1FFE3800
0FFE3800
07FE3800
01FE3800
001E3800
001E3800
001E3800
001E3800
001E3800
001E3800
001E3800
001E3800
001E3800
001E3800
001E3800
001E3800
001E3800
001E3800
001E3800
001E3800
001E3800
001E3800
001E3800
001E3800
001E3800
001E3800
001E3800
ENDCHAR
STARTCHAR U+00B7
ENCODING 183
SWIDTH 235 0
DWIDTH 11 0
BBX 11 18 0 0
BITMAP
0400
0E00
1F00
3F80
1F00
0E00
0400
0000
0000
0000
0000
0000
0000
0000
0000
0000
0000
0000
ENDCHAR
STARTCHAR U+00B8
ENCODING 184
SWIDTH 448 0
DWIDTH 21 0
BBX 21 31 0 0
BITMAP
FFFFF8
FFFFF8
FFFFF8
FFFFF8
F00078
F00078
F00078
F00078
F00078
F00078
F00078
F00078
F00078
F00078
F00078
F00078
F00078
F00078
F00078
F00078
F00078
F00078
F00078
F00078
F00078
F00078
F00078
FFFFF8
FFFFF8
FFFFF8
FFFFF8
ENDCHAR
STARTCHAR U+00B9
ENCODING 185
SWIDTH 235 0
DWIDTH 11 0
BBX 11 31 0 0
BITMAP
0200
0600
0E00
0E00
0E00
0E00
0E00
0E00
0E00
0E00
0E00
0E00
0E00
0E00
0E00
0E00
0E00
0E00
0E00
0000
0000
0000
0000
0000
0000
0000
0000
0000
0000
0000
0000
ENDCHAR
STARTCHAR U+00BA
ENCODING 186
SWIDTH 363 0
DWIDTH 17 0
BBX 17 31 0 0
BITMAP
03E000
0FF800
1FFC00
3E1E00
380E00
780F00
780700
780700
780F00
3C0E00
3E1E00
1FFC00
0FF800
03E000
000000
000000
000000
000000
000000
000000
000000
000000
000000
000000
000000
000000
000000
000000
000000
000000
000000
ENDCHAR
STARTCHAR U+00BB
ENCODING 187
SWIDTH 533 0
DWIDTH 25 0
BBX 25 22 0 0
BITMAP
3E0F0000
1F078000
0F07C000
0783E000
03C1E000
03E0F000
01E07800
00F07C00
00783E00
007C1E00
00783E00
00F03C00
01F07800
03E0F000
03C1F000
0783E000
0F03C000
1F078000
3E0F0000
00000000
00000000
00000000
ENDCHAR
STARTCHAR U+00BC
ENCODING 188
SWIDTH 768 0
DWIDTH 36 0
BBX 36 31 0 0
BITMAP
020003C000
060003C000
0E00078000
0E00078000
0E000F0000
0E000F0000
0E001E0000
0E001E0000
0E003C0000
0E003C0000
0E00780000
0E00780000
0E00F00000
0E00F00080
0E01E00180
0E01E00380
0E03C00780
0E03C00F80
0E07801F80
0007803F80
000F007B80
000F007380
001E00E380
001E01C380
003C03C380
003C07FFE0
00780FFFE0
00781FFFE0
00F0000780
00F0000780
01E0000780
ENDCHAR
STARTCHAR U+00BD
ENCODING 189
SWIDTH 811 0
DWIDTH 38 0
BBX 38 31 0 0
BITMAP
020003C000
060003C000
0E00078000
0E00078000
0E000F0000
0E000F0000
0E001E0000
0E001E0000
0E003C0000
0E003C0000
0E00780000
0E00780000
0E00F01F80
0E00F07FC0
0E01E07FE0
0E01E071F0
0E03C040F0
0E03C000F0
0E078000F0
00078000F0
000F0001E0
000F0001E0
001E0003C0
001E0007C0
003C000780
003C000F00
0078000F00
0078001E00
00F0003FF0
00F0003FF0
01E0007FF0
ENDCHAR
STARTCHAR U+00BE
ENCODING 190
SWIDTH 832 0
DWIDTH 39 0
BBX 39 31 0 0
BITMAP
3FF8003C00
3FF8003C00
3FF0007800
00F0007800
01E000F000
01C000F000
03C001E000
03E001E000
07F003C000
07F803C000
00F8078000
003C078000
003C0F0000
003C0F0010
003C1E0030
10381E0070
78783C00F0
3FF03C01F0
1FE07803F0
0FC07807F0
0000F00F70
0000F00E70
0001E01C70
0001E03870
0003C07870
0003C0FFFC
000781FFFC
000783FFFC
000F0000F0
000F0000F0
001E0000F0
ENDCHAR
STARTCHAR U+00BF
ENCODING 191
SWIDTH 448 0
DWIDTH 21 0
BBX 21 30 0 -8
BITMAP
001000
003800
007C00
00FC00
007C00
003800
001000
000000
001000
003800
007C00
007E00
003E00
003E00
003E00
00FC00
03F800
07F000
0FC000
1F8000
1F0000
1E0000
3E0000
1E0000
1F0080
1F83C0
0FFFF0
0FFFE0
03FF80
00FE00
ENDCHAR
STARTCHAR U+00C0
ENCODING 192
SWIDTH 640 0
DWIDTH 30 0
BBX 30 39 0 0
BITMAP
003E0000
001E0000
000F0000
00078000
0003C000
0003C000
00000000
00000000
00078000
000F8000
000FC000
000FC000
001FE000
001FE000
003FF000
003FF000
003CF000
007CF800
00787800
00F87C00
00F87C00
00F03C00
01F03E00
01F01E00
01E01F00
03E01F00
03C00F00
07FFFF80
07FFFF80
07FFFFC0
0FFFFFC0
0F0003C0
1F0003E0
1F0003E0
1E0001F0
3E0001F0
3E0000F0
7C0000F8
7C0000F8
ENDCHAR
STARTCHAR U+00C1
ENCODING 193
SWIDTH 640 0
DWIDTH 30 0
BBX 30 39 0 0
BITMAP
0000F800
0001F000
0001E000
0003C000
00078000
000F0000
00000000
00000000
00078000
000F8000
000FC000
000FC000
001FE000
001FE000
003FF000
003FF000
003CF000
007CF800
00787800
00F87C00
00F87C00
00F03C00
01F03E00
01F01E00
01E01F00
03E01F00
03C00F00
07FFFF80
07FFFF80
07FFFFC0
0FFFFFC0
0F0003C0
1F0003E0
1F0003E0
1E0001F0
3E0001F0
3E0000F0
7C0000F8
7C0000F8
ENDCHAR
STARTCHAR U+00C2
ENCODING 194
SWIDTH 640 0
DWIDTH 30 0
BBX 30 39 0 0
BITMAP
000FC000
000FE000
001FE000
003CF000
00387800
00703800
00000000
00000000
00078000
000F8000
000FC000
000FC000
001FE000
001FE000
003FF000
003FF000
003CF000
007CF800
00787800
00F87C00
00F87C00
00F03C00
01F03E00
01F01E00
01E01F00
03E01F00
03C00F00
07FFFF80
07FFFF80
07FFFFC0
0FFFFFC0
0F0003C0
1F0003E0
1F0003E0
1E0001F0
3E0001F0
3E0000F0
7C0000F8
7C0000F8
ENDCHAR
STARTCHAR U+00C3
ENCODING 195
SWIDTH 640 0
DWIDTH 30 0
BBX 30 39 0 0
BITMAP
00781000
00FE1800
01FFF800
01FFF800
00C7F000
0001E000
00000000
00000000
00078000
000F8000
000FC000
000FC000
001FE000
001FE000
003FF000
003FF000
003CF000
007CF800
00787800
00F87C00
00F87C00
00F03C00
01F03E00
01F01E00
01E01F00
03E01F00
03C00F00
07FFFF80
07FFFF80
07FFFFC0
0FFFFFC0
0F0003C0
1F0003E0
1F0003E0
1E0001F0
3E0001F0
3E0000F0
7C0000F8
7C0000F8
ENDCHAR
STARTCHAR U+00C4
ENCODING 196
SWIDTH 640 0
DWIDTH 30 0
BBX 30 39 0 0
BITMAP
00201000
00703800
00F87C00
00F87C00
00703800
00201000
00000000
00000000
00078000
000F8000
000FC000
000FC000
001FE000
001FE000
003FF000
003FF000
003CF000
007CF800
00787800
00F87C00
00F87C00
00F03C00
01F03E00
01F01E00
01E01F00
03E01F00
03C00F00
07FFFF80
07FFFF80
07FFFFC0
0FFFFFC0
0F0003C0
1F0003E0
1F0003E0
1E0001F0
3E0001F0
3E0000F0
7C0000F8
7C0000F8
ENDCHAR
STARTCHAR U+00C5
ENCODING 197
SWIDTH 640 0
DWIDTH 30 0
BBX 30 41 0 0
BITMAP
0007C000
000FE000
000C6000
00183000
00183000
000C6000
000FE000
00078000
00000000
00000000
00078000
000F8000
000FC000
000FC000
001FE000
001FE000
003FF000
003FF000
003CF000
007CF800
00787800
00F87C00
00F87C00
00F03C00
01F03E00
01F01E00
01E01F00
03E01F00
03C00F00
07FFFF80
07FFFF80
07FFFFC0
0FFFFFC0
0F0003C0
1F0003E0
1F0003E0
1E0001F0
3E0001F0
3E0000F0
7C0000F8
7C0000F8
ENDCHAR
STARTCHAR U+00C6
ENCODING 198
SWIDTH 896 0
DWIDTH 42 0
BBX 42 31 0 0
BITMAP
00003FFFFE00
00007FFFFE00
0000FFFFFE00
0000FFFFFE00
0001F7800000
0001F7800000
0003E7800000
0003E7800000
0007C7800000
0007C7800000
000F87800000
001F87800000
001F07FFF000
003F07FFF000
003E07FFF000
007C07FFF000
007C07800000
00F807800000
01FFFF800000
01FFFF800000
03FFFF800000
03FFFF800000
07C007800000
07C007800000
0F8007800000
0F8007800000
1F0007800000
3F0007FFFF00
3E0007FFFF00
7E0007FFFF00
7C0007FFFF00
ENDCHAR
STARTCHAR U+00C7
ENCODING 199
SWIDTH 661 0
DWIDTH 31 0
BBX 31 40 0 -9
BITMAP
0003FE00
000FFF80
003FFFE0
00FFFFF0
01FE01F0
03F80070
07E00010
07C00000
0F800000
0F800000
1F000000
1F000000
1F000000
1E000000
1E000000
1E000000
1E000000
1E000000
1F000000
1F000000
1F000000
0F800000
0F800000
07C00000
03E00010
03F80070
01FE01F0
00FFFFF0
003FFFE0
000FFF80
0003FC00
0001C000
0001F000
0003F800
00003C00
00003C00
00003C00
000FF800
000FF000
000FE000
ENDCHAR
STARTCHAR U+00C8
ENCODING 200
SWIDTH 555 0
DWIDTH 26 0
BBX 26 39 0 0
BITMAP
00F80000
00780000
003C0000
001E0000
000F0000
000F0000
00000000
00000000
0FFFFE00
0FFFFE00
0FFFFE00
0FFFFE00
0F800000
0F800000
0F800000
0F800000
0F800000
0F800000
0F800000
0F800000
0FFFF000
0FFFF000
0FFFF000
0FFFF000
0F800000
0F800000
0F800000
0F800000
0F800000
0F800000
0F800000
0F800000
0F800000
0F800000
0F800000
0FFFFF00
0FFFFF00
0FFFFF00
0FFFFF00
ENDCHAR
STARTCHAR U+00C9
ENCODING 201
SWIDTH 555 0
DWIDTH 26 0
BBX 26 39 0 0
BITMAP
0003E000
0007C000
00078000
000F0000
001E0000
003C0000
00000000
00000000
0FFFFE00
0FFFFE00
0FFFFE00
0FFFFE00
0F800000
0F800000
0F800000
0F800000
0F800000
0F800000
0F800000
0F800000
0FFFF000
0FFFF000
0FFFF000
0FFFF000
0F800000
0F800000
0F800000
0F800000
0F800000
0F800000
0F800000
0F800000
0F800000
0F800000
0F800000
0FFFFF00
0FFFFF00
0FFFFF00
0FFFFF00
ENDCHAR
STARTCHAR U+00CA
ENCODING 202
SWIDTH 555 0
DWIDTH 26 0
BBX 26 39 0 0
BITMAP
001F8000
001FC000
003FC000
0079E000
0070F000
00E07000
00000000
00000000
0FFFFE00
0FFFFE00
0FFFFE00
0FFFFE00
0F800000
0F800000
0F800000
0F800000
0F800000
0F800000
0F800000
0F800000
0FFFF000
0FFFF000
0FFFF000
0FFFF000
0F800000
0F800000
0F800000
0F800000
0F800000
0F800000
0F800000
0F800000
0F800000
0F800000
0F800000
0FFFFF00
0FFFFF00
0FFFFF00
0FFFFF00
ENDCHAR
STARTCHAR U+00CB
ENCODING 203
SWIDTH 555 0
DWIDTH 26 0
BBX 26 39 0 0
BITMAP
00804000
01C0E000
03E1F000
03E1F000
01C0E000
00804000
00000000
00000000
0FFFFE00
0FFFFE00
0FFFFE00
0FFFFE00
0F800000
0F800000
0F800000
0F800000
0F800000
0F800000
0F800000
0F800000
0FFFF000
0FFFF000
0FFFF000
0FFFF000
0F800000
0F800000
0F800000
0F800000
0F800000
0F800000
0F800000
0F800000
0F800000
0F800000
0F800000
0FFFFF00
0FFFFF00
0FFFFF00
0FFFFF00
ENDCHAR
STARTCHAR U+00CC
ENCODING 204
SWIDTH 277 0
DWIDTH 13 0
BBX 13 39 0 0
BITMAP
7C00
3C00
1E00
0F00
0780
0780
0000
0000
0F80
0F80
0F80
0F80
0F80
0F80
0F80
0F80
0F80
0F80
0F80
0F80
0F80
0F80
0F80
0F80
0F80
0F80
0F80
0F80
0F80
0F80
0F80
0F80
0F80
0F80
0F80
0F80
0F80
0F80
0F80
ENDCHAR
STARTCHAR U+00CD
ENCODING 205
SWIDTH 277 0
DWIDTH 13 0
BBX 13 39 0 0
BITMAP
01F0
03E0
03C0
0780
0F00
1E00
0000
0000
0F80
0F80
0F80
0F80
0F80
0F80
0F80
0F80
0F80
0F80
0F80
0F80
0F80
0F80
0F80
0F80
0F80
0F80
0F80
0F80
0F80
0F80
0F80
0F80
0F80
0F80
0F80
0F80
0F80
0F80
0F80
ENDCHAR
STARTCHAR U+00CE
ENCODING 206
SWIDTH 277 0
DWIDTH 13 0
BBX 14 39 0 0
BITMAP
1F80
1FC0
3FC0
79E0
70F0
E070
0000
0000
0F80
0F80
0F80
0F80
0F80
0F80
0F80
0F80
0F80
0F80
0F80
0F80
0F80
0F80
0F80
0F80
0F80
0F80
0F80
0F80
0F80
0F80
0F80
0F80
0F80
0F80
0F80
0F80
0F80
0F80
0F80
ENDCHAR
STARTCHAR U+00CF
ENCODING 207
SWIDTH 277 0
DWIDTH 13 0
BBX 16 39 -1 0
BITMAP
2010
7038
F87C
F87C
7038
2010
0000
0000
07C0
07C0
07C0
07C0
07C0
07C0
07C0
07C0
07C0
07C0
07C0
07C0
07C0
07C0
07C0
07C0
07C0
07C0
07C0
07C0
07C0
07C0
07C0
07C0
07C0
07C0
07C0
07C0
07C0
07C0
07C0
ENDCHAR
STARTCHAR U+00D0
ENCODING 208
SWIDTH 704 0
DWIDTH 33 0
BBX 33 31 0 0
BITMAP
0FFFC00000
0FFFF80000
0FFFFE0000
0FFFFF8000
0F807FC000
0F800FE000
0F8007E000
0F8003F000
0F8001F800
0F8000F800
0F8000F800
0F80007C00
0F80007C00
0F80007C00
7FFF007C00
7FFF007C00
7FFF007C00
7FFF007C00
0F80007C00
0F80007C00
0F8000F800
0F8000F800
0F8001F800
0F8003F000
0F8007E000
0F800FE000
0F807FC000
0FFFFF8000
0FFFFE0000
0FFFF80000
0FFFC00000
ENDCHAR
STARTCHAR U+00D1
ENCODING 209
SWIDTH 747 0
DWIDTH 35 0
BBX 35 39 0 0
BITMAP
000F020000
001FC30000
003FFF0000
003FFF0000
0018FE0000
00003C0000
0000000000
0000000000
0F80003E00
0FC0003E00
0FC0003E00
0FE0003E00
0FF0003E00
0FF8003E00
0FF8003E00
0FFC003E00
0FFE003E00
0FBF003E00
0F9F003E00
0F8F803E00
0F8FC03E00
0F87E03E00
0F83E03E00
0F81F03E00
0F81F83E00
0F80FC3E00
0F807C3E00
0F803E3E00
0F801F3E00
0F801FBE00
0F800FBE00
0F8007FE00
0F8003FE00
0F8003FE00
0F8001FE00
0F8000FE00
0F80007E00
0F80007E00
0F80003E00
ENDCHAR
STARTCHAR U+00D2
ENCODING 210
SWIDTH 789 0
DWIDTH 37 0
BBX 37 39 0 0
BITMAP
0007C00000
0003C00000
0001E00000
0000F00000
0000780000
0000780000
0000000000
0000000000
0003FE0000
000FFF8000
003FFFE000
00FFFFF800
01FE03FC00
03F800FE00
07E0003E00
07C0001F00
0F80000F80
0F80000F80
1F000007C0
1F000007C0
1F000007C0
1E000003C0
1E000003C0
1E000003C0
1E000003C0
1E000003C0
1F000007C0
1F000007C0
1F000007C0
0F80000F80
0F80000F80
07C0001F00
07E0003F00
03F800FE00
01FE03FC00
00FFFFF800
003FFFE000
000FFF8000
0003FE0000
ENDCHAR
STARTCHAR U+00D3
ENCODING 211
SWIDTH 789 0
DWIDTH 37 0
BBX 37 39 0 0
BITMAP
00001F0000
00003E0000
00003C0000
0000780000
0000F00000
0001E00000
0000000000
0000000000
0003FE0000
000FFF8000
003FFFE000
00FFFFF800
01FE03FC00
03F800FE00
07E0003E00
07C0001F00
0F80000F80
0F80000F80
1F000007C0
1F000007C0
1F000007C0
1E000003C0
1E000003C0
1E000003C0
1E000003C0
1E000003C0
1F000007C0
1F000007C0
1F000007C0
0F80000F80
0F80000F80
07C0001F00
07E0003F00
03F800FE00
01FE03FC00
00FFFFF800
003FFFE000
000FFF8000
0003FE0000
ENDCHAR
STARTCHAR U+00D4
ENCODING 212
SWIDTH 789 0
DWIDTH 37 0
BBX 37 39 0 0
BITMAP
0001F80000
0001FC0000
0003FC0000
00079E0000
00070F0000
000E070000
0000000000
0000000000
0003FE0000
000FFF8000
003FFFE000
00FFFFF800
01FE03FC00
03F800FE00
07E0003E00
07C0001F00
0F80000F80
0F80000F80
1F000007C0
1F000007C0
1F000007C0
1E000003C0
1E000003C0
1E000003C0
1E000003C0
1E000003C0
1F000007C0
1F000007C0
1F000007C0
0F80000F80
0F80000F80
07C0001F00
07E0003F00
03F800FE00
01FE03FC00
00FFFFF800
003FFFE000
000FFF8000
0003FE0000
ENDCHAR
STARTCHAR U+00D5
ENCODING 213
SWIDTH 789 0
DWIDTH 37 0
BBX 37 39 0 0
BITMAP
0007810000
000FE18000
001FFF8000
001FFF8000
000C7F0000
00001E0000
0000000000
0000000000
0003FE0000
000FFF8000
003FFFE000
00FFFFF800
01FE03FC00
03F800FE00
07E0003E00
07C0001F00
0F80000F80
0F80000F80
1F000007C0
1F000007C0
1F000007C0
1E000003C0
1E000003C0
1E000003C0
1E000003C0
1E000003C0
1F000007C0
1F000007C0
1F000007C0
0F80000F80
0F80000F80
07C0001F00
07E0003F00
03F800FE00
01FE03FC00
00FFFFF800
003FFFE000
000FFF8000
0003FE0000
ENDCHAR
STARTCHAR U+00D6
ENCODING 214
SWIDTH 789 0
DWIDTH 37 0
BBX 37 39 0 0
BITMAP
0004020000
000E070000
001F0F8000
001F0F8000
000E070000
0004020000
0000000000
0000000000
0003FE0000
000FFF8000
003FFFE000
00FFFFF800
01FE03FC00
03F800FE00
07E0003E00
07C0001F00
0F80000F80
0F80000F80
1F000007C0
1F000007C0
1F000007C0
1E000003C0
1E000003C0
1E000003C0
1E000003C0
1E000003C0
1F000007C0
1F000007C0
1F000007C0
0F80000F80
0F80000F80
07C0001F00
07E0003F00
03F800FE00
01FE03FC00
00FFFFF800
003FFFE000
000FFF8000
0003FE0000
ENDCHAR
STARTCHAR U+00D7
ENCODING 215
SWIDTH 512 0
DWIDTH 24 0
BBX 24 24 0 0
BITMAP
020040
0700E0
0F81F0
07C3F0
03E7E0
03FFC0
01FF80
00FF00
007E00
00FF00
01FF80
03FFC0
07E7E0
0FC3F0
0F81F0
0700E0
020040
000000
000000
000000
000000
000000
000000
000000
ENDCHAR
STARTCHAR U+00D8
ENCODING 216
SWIDTH 789 0
DWIDTH 37 0
BBX 37 31 0 0
BITMAP
0003FE0100
000FFF8380
003FFFE780
00FFFFFF00
01FE03FE00
03F800FE00
07E0007E00
07C000FF00
0F8001EF80
0F8003CF80
1F000787C0
1F000F07C0
1F001E07C0
1E003C03C0
1E007803C0
1E00F803C0
1E01F003C0
1E03E003C0
1F07C007C0
1F0F8007C0
1F0F0007C0
0F9E000F80
0FBC000F80
07F8001F00
03F0003F00
03F800FE00
03FE03FC00
07FFFFF800
0F3FFFE000
0E0FFF8000
0403FE0000
ENDCHAR
STARTCHAR U+00D9
ENCODING 217
SWIDTH 747 0
DWIDTH 35 0
BBX 35 39 0 0
BITMAP
000F800000
0007800000
0003C00000
0001E00000
0000F00000
0000F00000
0000000000
0000000000
0F80003E00
0F80003E00
0F80003E00
0F80003E00
0F80003E00
0F80003E00
0F80003E00
0F80003E00
0F80003E00
0F80003E00
0F80003E00
0F80003E00
0F80003E00
0F80003E00
0F80003E00
0F80003E00
0F80003E00
0F80003E00
0F80003E00
0F80003E00
0F80003E00
0F80003C00
07C0007C00
07C000FC00
03E000F800
03F003F000
01FC0FF000
00FFFFE000
007FFFC000
001FFF0000
0007F80000
ENDCHAR
STARTCHAR U+00DA
ENCODING 218
SWIDTH 747 0
DWIDTH 35 0
BBX 35 39 0 0
BITMAP
00003E0000
00007C0000
0000780000
0000F00000
0001E00000
0003C00000
0000000000
0000000000
0F80003E00
0F80003E00
0F80003E00
0F80003E00
0F80003E00
0F80003E00
0F80003E00
0F80003E00
0F80003E00
0F80003E00
0F80003E00
0F80003E00
0F80003E00
0F80003E00
0F80003E00
0F80003E00
0F80003E00
0F80003E00
0F80003E00
0F80003E00
0F80003E00
0F80003C00
07C0007C00
07C000FC00
03E000F800
03F003F000
01FC0FF000
00FFFFE000
007FFFC000
001FFF0000
0007F80000
ENDCHAR
STARTCHAR U+00DB
ENCODING 219
SWIDTH 747 0
DWIDTH 35 0
BBX 35 39 0 0
BITMAP
0003F00000
0003F80000
0007F80000
000F3C0000
000E1E0000
001C0E0000
0000000000
0000000000
0F80003E00
0F80003E00
0F80003E00
0F80003E00
0F80003E00
0F80003E00
0F80003E00
0F80003E00
0F80003E00
0F80003E00
0F80003E00
0F80003E00
0F80003E00
0F80003E00
0F80003E00
0F80003E00
0F80003E00
0F80003E00
0F80003E00
0F80003E00
0F80003E00
0F80003C00
07C0007C00
07C000FC00
03E000F800
03F003F000
01FC0FF000
00FFFFE000
007FFFC000
001FFF0000
0007F80000
ENDCHAR
STARTCHAR U+00DC
ENCODING 220
SWIDTH 747 0
DWIDTH 35 0
BBX 35 39 0 0
BITMAP
0008040000
001C0E0000
003E1F0000
003E1F0000
001C0E0000
0008040000
0000000000
0000000000
0F80003E00
0F80003E00
0F80003E00
0F80003E00
0F80003E00
0F80003E00
0F80003E00
0F80003E00
0F80003E00
0F80003E00
0F80003E00
0F80003E00
0F80003E00
0F80003E00
0F80003E00
0F80003E00
0F80003E00
0F80003E00
0F80003E00
0F80003E00
0F80003E00
0F80003C00
07C0007C00
07C000FC00
03E000F800
03F003F000
01FC0FF000
00FFFFE000
007FFFC000
001FFF0000
0007F80000
ENDCHAR
STARTCHAR U+00DD
ENCODING 221
SWIDTH 576 0
DWIDTH 27 0
BBX 27 39 0 0
BITMAP
0003E000
0007C000
00078000
000F0000
001E0000
003C0000
00000000
00000000
7C0007C0
3E000F80
3E000F80
1F001F00
1F801F00
0F803E00
07C03C00
07C07C00
03E0F800
01F0F800
01F1F000
00F9E000
00FBE000
007FC000
003FC000
003F8000
001F0000
001F0000
001F0000
001F0000
001F0000
001F0000
001F0000
001F0000
001F0000
001F0000
001F0000
001F0000
001F0000
001F0000
001F0000
ENDCHAR
STARTCHAR U+00DE
ENCODING 222
SWIDTH 576 0
DWIDTH 27 0
BBX 27 31 0 0
BITMAP
0F800000
0F800000
0F800000
0F800000
0F800000
0F800000
0FFFC000
0FFFF000
0FFFFC00
0FFFFE00
0F80FE00
0F803F00
0F801F00
0F801F00
0F800F00
0F800F00
0F800F00
0F801F00
0F801F00
0F803F00
0F80FE00
0FFFFC00
0FFFF800
0FFFF000
0FFFC000
0F800000
0F800000
0F800000
0F800000
0F800000
0F800000
ENDCHAR
STARTCHAR U+00DF
ENCODING 223
SWIDTH 533 0
DWIDTH 25 0
BBX 25 31 0 0
BITMAP
003F0000
00FFC000
03FFE000
03FFF000
07E1F800
0F807800
0F807800
0F007800
0F007800
0F007800
0F00F800
0F01F000
0F1FE000
0F1FC000
0F1FE000
0F1FF000
0F01F800
0F007C00
0F003C00
0F003E00
0F001E00
0F001E00
0F001E00
0F003E00
0F003E00
0F007C00
0F00FC00
0F1FF800
0F1FF000
0F1FE000
0F1F8000
ENDCHAR
STARTCHAR U+00E0
ENCODING 224
SWIDTH 491 0
DWIDTH 23 0
BBX 23 31 0 0
BITMAP
03E000
01E000
00F000
007800
003C00
003C00
000000
000000
000000
00FE00
07FF80
0FFFC0
0FFFE0
0F07E0
0C01F0
1001F0
0000F0
001FF0
01FFF0
07FFF0
0FE0F0
1F80F0
1E00F0
3E00F0
3E00F0
3E01F0
3F07F0
1FFFF0
1FFFF0
0FFCF0
03F0F0
ENDCHAR
STARTCHAR U+00E1
ENCODING 225
SWIDTH 491 0
DWIDTH 23 0
BBX 23 31 0 0
BITMAP
000F80
001F00
001E00
003C00
007800
00F000
000000
000000
000000
00FE00
07FF80
0FFFC0
0FFFE0
0F07E0
0C01F0
1001F0
0000F0
001FF0
01FFF0
07FFF0
0FE0F0
1F80F0
1E00F0
3E00F0
3E00F0
3E01F0
3F07F0
1FFFF0
1FFFF0
0FFCF0
03F0F0
ENDCHAR
STARTCHAR U+00E2
ENCODING 226
SWIDTH 491 0
DWIDTH 23 0
BBX 23 31 0 0
BITMAP
00FC00
00FE00
01FE00
03CF00
038780
070380
000000
000000
000000
00FE00
07FF80
0FFFC0
0FFFE0
0F07E0
0C01F0
1001F0
0000F0
001FF0
01FFF0
07FFF0
0FE0F0
1F80F0
1E00F0
3E00F0
3E00F0
3E01F0
3F07F0
1FFFF0
1FFFF0
0FFCF0
03F0F0
ENDCHAR
STARTCHAR U+00E3
ENCODING 227
SWIDTH 491 0
DWIDTH 23 0
BBX 23 31 0 0
BITMAP
03C080
07F0C0
0FFFC0
0FFFC0
063F80
000F00
000000
000000
000000
00FE00
07FF80
0FFFC0
0FFFE0
0F07E0
0C01F0
1001F0
0000F0
001FF0
01FFF0
07FFF0
0FE0F0
1F80F0
1E00F0
3E00F0
3E00F0
3E01F0
3F07F0
1FFFF0
1FFFF0
0FFCF0
03F0F0
ENDCHAR
STARTCHAR U+00E4
ENCODING 228
SWIDTH 491 0
DWIDTH 23 0
BBX 23 31 0 0
BITMAP
020100
070380
0F87C0
0F87C0
070380
020100
000000
000000
000000
00FE00
07FF80
0FFFC0
0FFFE0
0F07E0
0C01F0
1001F0
0000F0
001FF0
01FFF0
07FFF0
0FE0F0
1F80F0
1E00F0
3E00F0
3E00F0
3E01F0
3F07F0
1FFFF0
1FFFF0
0FFCF0
03F0F0
ENDCHAR
STARTCHAR U+00E5
ENCODING 229
SWIDTH 491 0
DWIDTH 23 0
BBX 23 33 0 0
BITMAP
007C00
00FE00
00C600
018300
018300
00C600
00FE00
007800
000000
000000
000000
00FE00
07FF80
0FFFC0
0FFFE0
0F07E0
0C01F0
1001F0
0000F0
001FF0
01FFF0
07FFF0
0FE0F0
1F80F0
1E00F0
3E00F0
3E00F0
3E01F0
3F07F0
1FFFF0
1FFFF0
0FFCF0
03F0F0
ENDCHAR
STARTCHAR U+00E6
ENCODING 230
SWIDTH 789 0
DWIDTH 37 0
BBX 37 22 0 0
BITMAP
00FE03F800
07FF8FFE00
0FFFDFFF00
0FFFFFFF80
0F07FE0FC0
0C01F803C0
1001F003E0
0001F001E0
000FFFFFE0
00FFFFFFE0
07FFFFFFE0
0FE1F00000
1F01F00000
1E00F00000
3E00F80000
3E00F80020
3E00FC00E0
3F07FF03E0
1FFFFFFFE0
1FFF9FFFC0
0FFF07FF00
03F801FC00
ENDCHAR
STARTCHAR U+00E7
ENCODING 231
SWIDTH 491 0
DWIDTH 23 0
BBX 23 31 0 -9
BITMAP
003FC0
00FFF8
03FFF8
07FFF8
0FE078
0F8018
1F0000
1E0000
3E0000
3E0000
3E0000
3E0000
3E0000
3E0000
1E0000
1F0000
0F8008
0FE078
07FFF8
03FFF8
00FFF8
003FE0
000E00
000F80
001FC0
0003E0
0001E0
0003E0
007FC0
007F80
007E00
ENDCHAR
STARTCHAR U+00E8
ENCODING 232
SWIDTH 533 0
DWIDTH 25 0
BBX 25 31 0 0
BITMAP
01F00000
00F00000
00780000
003C0000
001E0000
001E0000
00000000
00000000
00000000
003F0000
01FFC000
03FFE000
07FFF000
0FC1F800
0F807C00
1F007C00
1E003C00
3E003C00
3FFFFE00
3FFFFE00
3FFFFE00
3FFFFE00
3E000000
1E000000
1F000000
0F800400
0FE03C00
07FFFC00
03FFFC00
00FFFC00
003FE000
ENDCHAR
STARTCHAR U+00E9
ENCODING 233
SWIDTH 533 0
DWIDTH 25 0
BBX 25 31 0 0
BITMAP
0007C000
000F8000
000F0000
001E0000
003C0000
00780000
00000000
00000000
00000000
003F0000
01FFC000
03FFE000
07FFF000
0FC1F800
0F807C00
1F007C00
1E003C00
3E003C00
3FFFFE00
3FFFFE00
3FFFFE00
3FFFFE00
3E000000
1E000000
1F000000
0F800400
0FE03C00
07FFFC00
03FFFC00
00FFFC00
003FE000
ENDCHAR
STARTCHAR U+00EA
ENCODING 234
SWIDTH 533 0
DWIDTH 25 0
BBX 25 31 0 0
BITMAP
007E0000
007F0000
00FF0000
01E78000
01C3C000
0381C000
00000000
00000000
00000000
003F0000
01FFC000
03FFE000
07FFF000
0FC1F800
0F807C00
1F007C00
1E003C00
3E003C00
3FFFFE00
3FFFFE00
3FFFFE00
3FFFFE00
3E000000
1E000000
1F000000
0F800400
0FE03C00
07FFFC00
03FFFC00
00FFFC00
003FE000
ENDCHAR
STARTCHAR U+00EB
ENCODING 235
SWIDTH 533 0
DWIDTH 25 0
BBX 25 31 0 0
BITMAP
01008000
0381C000
07C3E000
07C3E000
0381C000
01008000
00000000
00000000
00000000
003F0000
01FFC000
03FFE000
07FFF000
0FC1F800
0F807C00
1F007C00
1E003C00
3E003C00
3FFFFE00
3FFFFE00
3FFFFE00
3FFFFE00
3E000000
1E000000
1F000000
0F800400
0FE03C00
07FFFC00
03FFFC00
00FFFC00
003FE000
ENDCHAR
STARTCHAR U+00EC
ENCODING 236
SWIDTH 256 0
DWIDTH 12 0
BBX 13 31 -1 0
BITMAP
0000
0000
0000
0000
0000
0000
0000
0000
0000
0000
0000
0000
0000
0000
0000
0000
0000
0000
0000
0000
0000
0000
0000
0000
0000
0000
0000
0000
0000
0000
0000
ENDCHAR
STARTCHAR U+00ED
ENCODING 237
SWIDTH 256 0
DWIDTH 12 0
BBX 12 31 0 0
BITMAP
03E0
07C0
0780
0F00
1E00
3C00
0000
0000
0000
0F00
0F00
0F00
0F00
0F00
0F00
0F00
0F00
0F00
0F00
0F00
0F00
0F00
0F00
0F00
0F00
0F00
0F00
0F00
0F00
0F00
0F00
ENDCHAR
STARTCHAR U+00EE
ENCODING 238
SWIDTH 256 0
DWIDTH 12 0
BBX 14 31 -1 0
BITMAP
1F80
1FC0
3FC0
79E0
70F0
E070
0000
0000
0000
0F00
0F00
0F00
0F00
0F00
0F00
0F00
0F00
0F00
0F00
0F00
0F00
0F00
0F00
0F00
0F00
0F00
0F00
0F00
0F00
0F00
0F00
ENDCHAR
STARTCHAR U+00EF
ENCODING 239
SWIDTH 256 0
DWIDTH 12 0
BBX 16 31 -2 0
BITMAP
2010
7038
F87C
F87C
7038
2010
0000
0000
0000
0780
0780
0780
0780
0780
0780
0780
0780
0780
0780
0780
0780
0780
0780
0780
0780
0780
0780
0780
0780
0780
0780
ENDCHAR
STARTCHAR U+00F0
ENCODING 240
SWIDTH 533 0
DWIDTH 25 0
BBX 25 31 0 0
BITMAP
0060C000
01FBE000
01FFF000
007FC000
00FF0000
03FF8000
07FFC000
03C7E000
0303E000
0001F000
007FF000
01FFF800
03FFF800
07FFFC00
0FC1FC00
1F007C00
1F003E00
1E003E00
3E003E00
3E003E00
3E003E00
3E003E00
3E003E00
3E003C00
1F007C00
1F80FC00
0FC1F800
0FFFF000
07FFE000
01FFC000
007E0000
ENDCHAR
STARTCHAR U+00F1
ENCODING 241
SWIDTH 576 0
DWIDTH 27 0
BBX 27 31 0 0
BITMAP
00F02000
01FC3000
03FFF000
03FFF000
018FE000
0003C000
00000000
00000000
00000000
0F1FC000
0F7FF000
0FFFF800
0FFFFC00
0FE0FE00
0F803E00
0F001E00
0F001F00
0F001F00
0F001F00
0F001F00
0F001F00
0F001F00
0F001F00
0F001F00
0F001F00
0F001F00
0F001F00
0F001F00
0F001F00
0F001F00
0F001F00
ENDCHAR
STARTCHAR U+00F2
ENCODING 242
SWIDTH 576 0
DWIDTH 27 0
BBX 27 31 0 0
BITMAP
007C0000
003C0000
001E0000
000F0000
00078000
00078000
00000000
00000000
00000000
003F8000
00FFF000
03FFF800
07FFFC00
0FE0FE00
0F803F00
1F001F00
1E000F80
3E000F80
3E000780
3E000780
3E000780
3E000780
3E000F80
1E000F80
1F001F00
0F803F00
0FE0FE00
07FFFC00
03FFF800
00FFF000
003F8000
ENDCHAR
STARTCHAR U+00F3
ENCODING 243
SWIDTH 576 0
DWIDTH 27 0
BBX 27 31 0 0
BITMAP
0003E000
0007C000
00078000
000F0000
001E0000
003C0000
00000000
00000000
00000000
003F8000
00FFF000
03FFF800
07FFFC00
0FE0FE00
0F803F00
1F001F00
1E000F80
3E000F80
3E000780
3E000780
3E000780
3E000780
3E000F80
1E000F80
1F001F00
0F803F00
0FE0FE00
07FFFC00
03FFF800
00FFF000
003F8000
ENDCHAR
STARTCHAR U+00F4
ENCODING 244
SWIDTH 576 0
DWIDTH 27 0
BBX 27 31 0 0
BITMAP
001F8000
001FC000
003FC000
0079E000
0070F000
00E07000
00000000
00000000
00000000
003F8000
00FFF000
03FFF800
07FFFC00
0FE0FE00
0F803F00
1F001F00
1E000F80
3E000F80
3E000780
3E000780
3E000780
3E000780
3E000F80
1E000F80
1F001F00
0F803F00
0FE0FE00
07FFFC00
03FFF800
00FFF000
003F8000
ENDCHAR
STARTCHAR U+00F5
ENCODING 245
SWIDTH 576 0
DWIDTH 27 0
BBX 27 31 0 0
BITMAP
00F02000
01FC3000
03FFF000
03FFF000
018FE000
0003C000
00000000
00000000
00000000
003F8000
00FFF000
03FFF800
07FFFC00
0FE0FE00
0F803F00
1F001F00
1E000F80
3E000F80
3E000780
3E000780
3E000780
3E000780
3E000F80
1E000F80
1F001F00
0F803F00
0FE0FE00
07FFFC00
03FFF800
00FFF000
003F8000
ENDCHAR
STARTCHAR U+00F6
ENCODING 246
SWIDTH 576 0
DWIDTH 27 0
BBX 27 31 0 0
BITMAP
00402000
00E07000
01F0F800
01F0F800
00E07000
00402000
00000000
00000000
00000000
003F8000
00FFF000
03FFF800
07FFFC00
0FE0FE00
0F803F00
1F001F00
1E000F80
3E000F80
3E000780
3E000780
3E000780
3E000780
3E000F80
1E000F80
1F001F00
0F803F00
0FE0FE00
07FFFC00
03FFF800
00FFF000
003F8000
ENDCHAR
STARTCHAR U+00F7
ENCODING 247
SWIDTH 512 0
DWIDTH 24 0
BBX 24 26 0 0
BITMAP
000800
001C00
003E00
007F00
003E00
001C00
000800
000000
000000
1FFFF8
1FFFF8
1FFFF8
1FFFF8
000000
000000
000000
000800
001C00
003E00
007F00
003E00
001C00
000800
000000
000000
000000
ENDCHAR
STARTCHAR U+00F8
ENCODING 248
SWIDTH 576 0
DWIDTH 27 0
BBX 27 24 0 -1
BITMAP
00000600
003F8700
00FFFE00
03FFFC00
07FFFC00
0FE0FE00
0F807F00
1F00FF00
1E01CF80
3E03CF80
3E078780
3E0F0780
3E0E0780
3E1C0780
3E380F80
1E780F80
1FF01F00
0FE03F00
0FE0FE00
07FFFC00
07FFF800
0FFFF000
0E3F8000
04000000
ENDCHAR
STARTCHAR U+00F9
ENCODING 249
SWIDTH 576 0
DWIDTH 27 0
BBX 27 31 0 0
BITMAP
00F80000
00780000
003C0000
001E0000
000F0000
000F0000
00000000
00000000
00000000
1F001E00
1F001E00
1F001E00
1F001E00
1F001E00
1F001E00
1F001E00
1F001E00
1F001E00
1F001E00
1F001E00
1F001E00
1F001E00
1F001E00
1F001E00
0F001E00
0F803E00
0FE0FE00
07FFFE00
03FFFE00
01FFDE00
007F1E00
ENDCHAR
STARTCHAR U+00FA
ENCODING 250
SWIDTH 576 0
DWIDTH 27 0
BBX 27 31 0 0
BITMAP
0003E000
0007C000
00078000
000F0000
001E0000
003C0000
00000000
00000000
00000000
1F001E00
1F001E00
1F001E00
1F001E00
1F001E00
1F001E00
1F001E00
1F001E00
1F001E00
1F001E00
1F001E00
1F001E00
1F001E00
1F001E00
1F001E00
0F001E00
0F803E00
0FE0FE00
07FFFE00
03FFFE00
01FFDE00
007F1E00
ENDCHAR
STARTCHAR U+00FB
ENCODING 251
SWIDTH 576 0
DWIDTH 27 0
BBX 27 31 0 0
BITMAP
003F0000
003F8000
007F8000
00F3C000
00E1E000
01C0E000
00000000
00000000
00000000
1F001E00
1F001E00
1F001E00
1F001E00
1F001E00
1F001E00
1F001E00
1F001E00
1F001E00
1F001E00
1F001E00
1F001E00
1F001E00
1F001E00
1F001E00
0F001E00
0F803E00
0FE0FE00
07FFFE00
03FFFE00
01FFDE00
007F1E00
ENDCHAR
STARTCHAR U+00FC
ENCODING 252
SWIDTH 576 0
DWIDTH 27 0
BBX 27 31 0 0
BITMAP
00804000
01C0E000
03E1F000
03E1F000
01C0E000
00804000
00000000
00000000
00000000
1F001E00
1F001E00
1F001E00
1F001E00
1F001E00
1F001E00
1F001E00
1F001E00
1F001E00
1F001E00
1F001E00
1F001E00
1F001E00
1F001E00
1F001E00
0F001E00
0F803E00
0FE0FE00
07FFFE00
03FFFE00
01FFDE00
007F1E00
ENDCHAR
STARTCHAR U+00FD
ENCODING 253
SWIDTH 512 0
DWIDTH 24 0
BBX 24 39 0 -8
BITMAP
0007C0
000F80
000F00
001E00
003C00
007800
000000
000000
000000
7C001E
7C003E
3C003E
3E003C
1E007C
1F0078
0F00F8
0F00F8
0F80F0
0781F0
07C1E0
03C3E0
03E3C0
01E3C0
01E7C0
01F780
00FF80
00FF00
007F00
007F00
003E00
003E00
003C00
003C00
007800
00F800
0FF000
0FF000
0FE000
0F8000
ENDCHAR
STARTCHAR U+00FE
ENCODING 254
SWIDTH 576 0
DWIDTH 27 0
BBX 27 39 0 -8
BITMAP
0F000000
0F000000
0F000000
0F000000
0F000000
0F000000
0F000000
0F000000
0F000000
0F1F8000
0F7FF000
0FFFF800
0FFFFC00
0FE0FE00
0F803F00
0F001F00
0F000F00
0F000F80
0F000F80
0F000780
0F000780
0F000F80
0F000F80
0F000F00
0F001F00
0F803F00
0FE0FE00
0FFFFC00
0FFFF800
0F7FF000
0F1F8000
0F000000
0F000000
0F000000
0F000000
0F000000
0F000000
0F000000
0F000000
ENDCHAR
STARTCHAR U+00FF
ENCODING 255
SWIDTH 512 0
DWIDTH 24 0
BBX 24 39 0 -8
BITMAP
010080
0381C0
07C3E0
07C3E0
0381C0
010080
000000
000000
000000
7C001E
7C003E
3C003E
3E003C
1E007C
1F0078
0F00F8
0F00F8
0F80F0
0781F0
07C1E0
03C3E0
03E3C0
01E3C0
01E7C0
01F780
00FF80
00FF00
007F00
007F00
003E00
003E00
003C00
003C00
007800
00F800
0FF000
0FF000
0FE000
0F8000
ENDCHAR
STARTCHAR U+2013
ENCODING 8211
SWIDTH 491 0
DWIDTH 23 0
BBX 24 14 -1 0
BITMAP
FFFFFE
FFFFFE
FFFFFE
FFFFFE
000000
000000
000000
000000
000000
000000
000000
000000
000000
000000
ENDCHAR
STARTCHAR U+2014
ENCODING 8212
SWIDTH 960 0
DWIDTH 45 0
BBX 47 14 -1 0
BITMAP
FFFFFFFFFFF8
FFFFFFFFFFF8
FFFFFFFFFFF8
FFFFFFFFFFF8
000000000000
000000000000
000000000000
000000000000
000000000000
000000000000
000000000000
000000000000
000000000000
000000000000
ENDCHAR
STARTCHAR U+2018
ENCODING 8216
SWIDTH 235 0
DWIDTH 11 0
BBX 11 31 0 0
BITMAP
0100
0600
0E00
0E00
1E00
1E00
1F00
1F80
0F00
0600
0000
0000
0000
0000
0000
0000
0000
0000
0000
0000
0000
0000
0000
0000
0000
0000
0000
0000
0000
0000
0000
ENDCHAR
STARTCHAR U+2019
ENCODING 8217
SWIDTH 235 0
DWIDTH 11 0
BBX 11 31 0 0
BITMAP
0400
0E00
1F00
3F00
1F00
0F00
0F00
0600
0C00
0800
1000
0000
0000
0000
0000
0000
0000
0000
0000
0000
0000
0000
0000
0000
0000
0000
0000
0000
0000
0000
0000
ENDCHAR
STARTCHAR U+201C
ENCODING 8220
SWIDTH 384 0
DWIDTH 18 0
BBX 18 31 0 0
BITMAP
010200
060400
0E0C00
0E1C00
1E3C00
1E3C00
1F3E00
1FBF00
0F1E00
060C00
000000
000000
000000
000000
000000
000000
000000
000000
000000
000000
000000
000000
000000
000000
000000
000000
000000
000000
000000
000000
000000
ENDCHAR
STARTCHAR U+201D
ENCODING 8221
SWIDTH 384 0
DWIDTH 18 0
BBX 18 31 0 0
BITMAP
040800
0E1C00
1F3E00
3F7E00
1F3E00
0F1E00
0F1E00
060C00
0C1800
081000
102000
000000
000000
000000
000000
000000
000000
000000
000000
000000
000000
000000
000000
000000
000000
000000
000000
000000
000000
000000
000000
ENDCHAR
STARTCHAR U+2022
ENCODING 8226
SWIDTH 405 0
DWIDTH 19 0
BBX 19 19 0 0
BITMAP
004000
00E000
01F000
03F800
07FC00
0FFE00
07FC00
03F800
01F000
00E000
004000
000000
000000
000000
000000
000000
000000
000000
000000
ENDCHAR
STARTCHAR U+2026
ENCODING 8230
SWIDTH 875 0
DWIDTH 41 0
BBX 41 6 0 0
BITMAP
040008001000
0E001C003800
1F803F007E00
1F003E007C00
0E001C003800
040008001000
ENDCHAR
STARTCHAR U+20AC
ENCODING 8364
SWIDTH 597 0
DWIDTH 28 0
BBX 28 31 0 0
BITMAP
0003FC00
001FFF00
003FFFC0
00FFFFC0
01FC03C0
03F000C0
03E00000
07C00000
07C00000
0F800000
3FFFF800
7FFFF800
7FFFF800
7FFFF000
1F000000
1F000000
1F000000
3FFFF000
7FFFE000
7FFFE000
7FFFE000
0F800000
07C00000
07C00000
03E00000
03F000C0
01FE03C0
00FFFFC0
003FFFC0
001FFF00
0003FC00
ENDCHAR
ENDFONT
