STARTFONT 2.1
COMMENT Converted from Johnston100 W03 Regular.ttf at 18px with ttf2bdf.py (Pillow, 1-bit, no AA)
FONT -Misc-Johnston100-Medium-R-Normal--18-180-75-75-P-200-ISO10646-1
SIZE 18 75 75
FONTBOUNDINGBOX 20 21 -1 -5
STARTPROPERTIES 9
FOUNDRY "Misc"
FAMILY_NAME "Johnston100"
WEIGHT_NAME "Medium"
SLANT "R"
PIXEL_SIZE 18
RESOLUTION_X 75
RESOLUTION_Y 75
FONT_ASCENT 16
FONT_DESCENT 5
ENDPROPERTIES
CHARS 200
STARTCHAR space
ENCODING 32
SWIDTH 267 0
DWIDTH 5 0
BBX 5 21 0 -5
BITMAP
00
00
00
00
00
00
00
00
00
00
00
00
00
00
00
00
00
00
00
00
00
ENDCHAR
STARTCHAR !
ENCODING 33
SWIDTH 267 0
DWIDTH 5 0
BBX 5 12 0 0
BITMAP
30
30
30
30
20
20
20
20
20
00
20
20
ENDCHAR
STARTCHAR "
ENCODING 34
SWIDTH 373 0
DWIDTH 7 0
BBX 7 12 0 0
BITMAP
6C
6C
64
64
24
00
00
00
00
00
00
00
ENDCHAR
STARTCHAR U+0023
ENCODING 35
SWIDTH 747 0
DWIDTH 14 0
BBX 14 12 0 0
BITMAP
0220
0660
0460
3FF8
0CC0
08C0
0880
7FF0
1980
1180
1100
3100
ENDCHAR
STARTCHAR $
ENCODING 36
SWIDTH 480 0
DWIDTH 9 0
BBX 9 15 0 -2
BITMAP
0800
3C00
7E00
6000
6000
3800
1E00
0700
0300
4300
6300
7F00
3E00
0800
0000
ENDCHAR
STARTCHAR %
ENCODING 37
SWIDTH 693 0
DWIDTH 13 0
BBX 13 12 0 0
BITMAP
3840
6CC0
4480
6D80
3900
0300
0200
06E0
0590
0D98
0990
18E0
ENDCHAR
STARTCHAR &
ENCODING 38
SWIDTH 640 0
DWIDTH 12 0
BBX 13 12 0 0
BITMAP
1E00
3F00
3300
3100
1B00
1C00
3660
6360
61C0
61C0
7FE0
3E70
ENDCHAR
STARTCHAR '
ENCODING 39
SWIDTH 213 0
DWIDTH 4 0
BBX 4 12 0 0
BITMAP
60
60
60
60
20
00
00
00
00
00
00
00
ENDCHAR
STARTCHAR (
ENCODING 40
SWIDTH 267 0
DWIDTH 5 0
BBX 5 15 0 -2
BITMAP
30
30
20
60
60
60
60
60
60
60
60
60
20
30
30
ENDCHAR
STARTCHAR )
ENCODING 41
SWIDTH 267 0
DWIDTH 5 0
BBX 5 15 0 -2
BITMAP
40
60
60
20
20
30
30
30
30
30
20
20
60
60
40
ENDCHAR
STARTCHAR *
ENCODING 42
SWIDTH 373 0
DWIDTH 7 0
BBX 7 12 0 0
BITMAP
10
54
3C
38
54
10
00
00
00
00
00
00
ENDCHAR
STARTCHAR +
ENCODING 43
SWIDTH 533 0
DWIDTH 10 0
BBX 10 10 0 0
BITMAP
0C00
0C00
0C00
7F00
7F00
0C00
0C00
0C00
0000
0000
ENDCHAR
STARTCHAR ,
ENCODING 44
SWIDTH 213 0
DWIDTH 4 0
BBX 4 5 0 -2
BITMAP
60
60
20
40
00
ENDCHAR
STARTCHAR -
ENCODING 45
SWIDTH 373 0
DWIDTH 7 0
BBX 7 6 0 0
BITMAP
7C
7C
00
00
00
00
ENDCHAR
STARTCHAR .
ENCODING 46
SWIDTH 213 0
DWIDTH 4 0
BBX 4 2 0 0
BITMAP
60
20
ENDCHAR
STARTCHAR /
ENCODING 47
SWIDTH 320 0
DWIDTH 6 0
BBX 6 15 0 -2
BITMAP
0C
08
08
18
18
10
30
30
20
20
60
60
40
C0
C0
ENDCHAR
STARTCHAR 0
ENCODING 48
SWIDTH 587 0
DWIDTH 11 0
BBX 11 12 0 0
BITMAP
1E00
3F00
7300
6180
6180
6180
6180
6180
6180
7300
3F00
1E00
ENDCHAR
STARTCHAR 1
ENCODING 49
SWIDTH 267 0
DWIDTH 5 0
BBX 5 12 0 0
BITMAP
10
30
30
30
30
30
30
30
30
30
30
30
ENDCHAR
STARTCHAR 2
ENCODING 50
SWIDTH 480 0
DWIDTH 9 0
BBX 9 12 0 0
BITMAP
1E00
3F00
6300
4300
0300
0200
0600
0C00
1800
1800
3F00
7F00
ENDCHAR
STARTCHAR 3
ENCODING 51
SWIDTH 480 0
DWIDTH 9 0
BBX 9 12 0 0
BITMAP
7F00
7F00
0600
0C00
0C00
1F00
0300
0180
0180
4300
7F00
3C00
ENDCHAR
STARTCHAR 4
ENCODING 52
SWIDTH 533 0
DWIDTH 10 0
BBX 10 12 0 0
BITMAP
0100
0100
0300
0700
0F00
1B00
3300
6300
FFC0
0300
0300
0300
ENDCHAR
STARTCHAR 5
ENCODING 53
SWIDTH 480 0
DWIDTH 9 0
BBX 9 12 0 0
BITMAP
3F80
3F00
3000
3000
3E00
0300
0100
0180
0180
4300
7F00
3C00
ENDCHAR
STARTCHAR 6
ENCODING 54
SWIDTH 533 0
DWIDTH 10 0
BBX 10 12 0 0
BITMAP
0E00
1C00
1800
3000
7E00
7F00
6380
6180
6180
6300
3F00
1E00
ENDCHAR
STARTCHAR 7
ENCODING 55
SWIDTH 480 0
DWIDTH 9 0
BBX 9 12 0 0
BITMAP
0000
0000
0000
0000
0000
0000
0000
0000
0000
0000
0000
0000
ENDCHAR
STARTCHAR 8
ENCODING 56
SWIDTH 480 0
DWIDTH 9 0
BBX 9 12 0 0
BITMAP
1E00
3F00
3300
2300
3300
1E00
3300
6100
6180
6380
3F00
1E00
ENDCHAR
STARTCHAR 9
ENCODING 57
SWIDTH 533 0
DWIDTH 10 0
BBX 10 12 0 0
BITMAP
1E00
3F00
6300
6180
6180
7F80
1F00
0300
0700
0600
0C00
1800
ENDCHAR
STARTCHAR :
ENCODING 58
SWIDTH 267 0
DWIDTH 5 0
BBX 5 9 0 0
BITMAP
60
20
00
00
00
00
00
60
20
ENDCHAR
STARTCHAR ;
ENCODING 59
SWIDTH 267 0
DWIDTH 5 0
BBX 5 11 0 -2
BITMAP
60
20
00
00
00
00
00
30
30
10
20
ENDCHAR
STARTCHAR U+003C
ENCODING 60
SWIDTH 533 0
DWIDTH 10 0
BBX 10 11 0 0
BITMAP
0100
0700
3C00
6000
3800
0E00
0700
0100
0000
0000
0000
ENDCHAR
STARTCHAR =
ENCODING 61
SWIDTH 533 0
DWIDTH 10 0
BBX 10 9 0 0
BITMAP
7F00
7F00
0000
0000
7F00
7F00
0000
0000
0000
ENDCHAR
STARTCHAR U+003E
ENCODING 62
SWIDTH 533 0
DWIDTH 10 0
BBX 10 11 0 0
BITMAP
6000
7800
1E00
0300
0F00
1C00
7000
4000
0000
0000
0000
ENDCHAR
STARTCHAR ?
ENCODING 63
SWIDTH 427 0
DWIDTH 8 0
BBX 8 12 0 0
BITMAP
3C
7E
46
06
0E
1C
30
30
10
18
18
10
ENDCHAR
STARTCHAR @
ENCODING 64
SWIDTH 907 0
DWIDTH 17 0
BBX 17 15 0 -3
BITMAP
03F000
0C0C00
180600
31F300
233100
663100
663100
643100
643300
663200
663C00
23C000
100000
0C1000
07F000
ENDCHAR
STARTCHAR A
ENCODING 65
SWIDTH 640 0
DWIDTH 12 0
BBX 12 12 0 0
BITMAP
0600
0600
0F00
0F00
1980
1980
1080
3FC0
3FC0
6060
6060
4030
ENDCHAR
STARTCHAR B
ENCODING 66
SWIDTH 587 0
DWIDTH 11 0
BBX 11 12 0 0
BITMAP
3E00
3F00
3380
3180
3300
3F00
3F80
30C0
30C0
30C0
3F80
3F00
ENDCHAR
STARTCHAR C
ENCODING 67
SWIDTH 640 0
DWIDTH 12 0
BBX 12 12 0 0
BITMAP
07C0
1FE0
3820
3000
6000
6000
6000
6000
3000
3820
1FE0
07C0
ENDCHAR
STARTCHAR D
ENCODING 68
SWIDTH 693 0
DWIDTH 13 0
BBX 13 12 0 0
BITMAP
3F00
3FC0
30E0
3070
3030
3030
3030
3030
3070
30E0
3FC0
3F00
ENDCHAR
STARTCHAR E
ENCODING 69
SWIDTH 533 0
DWIDTH 10 0
BBX 10 12 0 0
BITMAP
3F80
3F80
3000
3000
3000
3F00
3F00
3000
3000
3000
3FC0
3FC0
ENDCHAR
STARTCHAR F
ENCODING 70
SWIDTH 533 0
DWIDTH 10 0
BBX 10 12 0 0
BITMAP
3F80
3F80
3000
3000
3000
3F00
3F00
3000
3000
3000
3000
3000
ENDCHAR
STARTCHAR G
ENCODING 71
SWIDTH 693 0
DWIDTH 13 0
BBX 13 12 0 0
BITMAP
07C0
1FF0
3830
3000
6000
61F0
61F0
6030
3030
3830
1FF0
07E0
ENDCHAR
STARTCHAR H
ENCODING 72
SWIDTH 693 0
DWIDTH 13 0
BBX 13 12 0 0
BITMAP
3020
3020
3020
3020
3020
3FE0
3FE0
3020
3020
3020
3020
3020
ENDCHAR
STARTCHAR I
ENCODING 73
SWIDTH 267 0
DWIDTH 5 0
BBX 5 12 0 0
BITMAP
30
30
30
30
30
30
30
30
30
30
30
30
ENDCHAR
STARTCHAR J
ENCODING 74
SWIDTH 480 0
DWIDTH 9 0
BBX 9 12 0 0
BITMAP
0600
0600
0600
0600
0600
0600
0600
0600
0600
4600
7C00
3800
ENDCHAR
STARTCHAR K
ENCODING 75
SWIDTH 587 0
DWIDTH 11 0
BBX 12 12 0 0
BITMAP
30C0
3180
3300
3600
3C00
3800
3C00
3600
3300
3180
30C0
30E0
ENDCHAR
STARTCHAR L
ENCODING 76
SWIDTH 533 0
DWIDTH 10 0
BBX 10 12 0 0
BITMAP
3000
3000
3000
3000
3000
3000
3000
3000
3000
3000
3F80
3F80
ENDCHAR
STARTCHAR M
ENCODING 77
SWIDTH 853 0
DWIDTH 16 0
BBX 16 12 0 0
BITMAP
300C
381C
3C3C
3C6C
36EC
33CC
318C
300C
300C
300C
300C
300C
ENDCHAR
STARTCHAR N
ENCODING 78
SWIDTH 747 0
DWIDTH 14 0
BBX 14 12 0 0
BITMAP
3030
3830
3830
3C30
3630
3730
33B0
31B0
30F0
3070
3070
3030
ENDCHAR
STARTCHAR O
ENCODING 79
SWIDTH 800 0
DWIDTH 15 0
BBX 15 12 0 0
BITMAP
07C0
1FF0
3838
3018
600C
600C
600C
600C
3018
3838
1FF0
07C0
ENDCHAR
STARTCHAR P
ENCODING 80
SWIDTH 587 0
DWIDTH 11 0
BBX 11 12 0 0
BITMAP
3F00
3F80
31C0
30C0
30C0
31C0
3F80
3F00
3000
3000
3000
3000
ENDCHAR
STARTCHAR Q
ENCODING 81
SWIDTH 800 0
DWIDTH 15 0
BBX 15 12 0 0
BITMAP
07C0
1FF0
3838
3018
600C
600C
600C
604C
3078
3838
1FF8
07C8
ENDCHAR
STARTCHAR R
ENCODING 82
SWIDTH 587 0
DWIDTH 11 0
BBX 11 12 0 0
BITMAP
3E00
3F00
3180
3180
3180
3F00
3E00
3600
3300
3180
31C0
30C0
ENDCHAR
STARTCHAR S
ENCODING 83
SWIDTH 480 0
DWIDTH 9 0
BBX 9 12 0 0
BITMAP
3C00
7E00
6200
6000
7800
3E00
0F00
0300
4300
6300
7F00
3C00
ENDCHAR
STARTCHAR T
ENCODING 84
SWIDTH 533 0
DWIDTH 10 0
BBX 10 12 0 0
BITMAP
FFC0
FFC0
0C00
0C00
0C00
0C00
0C00
0C00
0C00
0C00
0C00
0C00
ENDCHAR
STARTCHAR U
ENCODING 85
SWIDTH 747 0
DWIDTH 14 0
BBX 14 12 0 0
BITMAP
2010
2010
2010
2010
2010
2010
2010
3030
3030
3870
1FE0
0780
ENDCHAR
STARTCHAR V
ENCODING 86
SWIDTH 640 0
DWIDTH 12 0
BBX 12 12 0 0
BITMAP
6060
6060
60C0
30C0
30C0
3180
1980
1900
0B00
0F00
0E00
0600
ENDCHAR
STARTCHAR W
ENCODING 87
SWIDTH 960 0
DWIDTH 18 0
BBX 18 12 0 0
BITMAP
60C180
61C180
61E300
31E300
316300
332200
133600
1A3600
1E1400
0E1C00
0E1C00
0C1C00
ENDCHAR
STARTCHAR X
ENCODING 88
SWIDTH 640 0
DWIDTH 12 0
BBX 13 12 0 0
BITMAP
6060
30C0
39C0
1980
0F00
0600
0F00
0F80
1980
30C0
6060
6070
ENDCHAR
STARTCHAR Y
ENCODING 89
SWIDTH 587 0
DWIDTH 11 0
BBX 11 12 0 0
BITMAP
60C0
61C0
3180
1B00
1F00
0E00
0400
0400
0400
0400
0400
0400
ENDCHAR
STARTCHAR Z
ENCODING 90
SWIDTH 587 0
DWIDTH 11 0
BBX 11 12 0 0
BITMAP
7FC0
7FC0
0180
0100
0300
0600
0C00
0800
1800
3000
3FE0
7FE0
ENDCHAR
STARTCHAR [
ENCODING 91
SWIDTH 320 0
DWIDTH 6 0
BBX 6 16 0 -2
BITMAP
78
60
60
60
60
60
60
60
60
60
60
60
60
60
60
78
ENDCHAR
STARTCHAR \
ENCODING 92
SWIDTH 320 0
DWIDTH 6 0
BBX 6 15 0 -2
BITMAP
C0
C0
40
60
60
20
20
30
30
10
18
18
08
08
0C
ENDCHAR
STARTCHAR ]
ENCODING 93
SWIDTH 320 0
DWIDTH 6 0
BBX 6 16 0 -2
BITMAP
78
18
18
18
18
18
18
18
18
18
18
18
18
18
18
78
ENDCHAR
STARTCHAR ^
ENCODING 94
SWIDTH 533 0
DWIDTH 10 0
BBX 10 12 0 0
BITMAP
0C00
1E00
1300
3100
6180
0000
0000
0000
0000
0000
0000
0000
ENDCHAR
STARTCHAR _
ENCODING 95
SWIDTH 480 0
DWIDTH 9 0
BBX 11 2 -1 -2
BITMAP
0000
FF80
ENDCHAR
STARTCHAR `
ENCODING 96
SWIDTH 427 0
DWIDTH 8 0
BBX 9 12 0 0
BITMAP
FF00
FF00
C100
C100
C100
C100
C100
C100
C100
C100
FF00
FF00
ENDCHAR
STARTCHAR a
ENCODING 97
SWIDTH 480 0
DWIDTH 9 0
BBX 9 9 0 0
BITMAP
1E00
3F00
4300
1F00
3300
6300
6700
7F00
3B00
ENDCHAR
STARTCHAR b
ENCODING 98
SWIDTH 587 0
DWIDTH 11 0
BBX 11 12 0 0
BITMAP
6000
6000
6000
6F00
7F80
71C0
60C0
60C0
60C0
71C0
7F80
6F00
ENDCHAR
STARTCHAR c
ENCODING 99
SWIDTH 480 0
DWIDTH 9 0
BBX 9 9 0 0
BITMAP
1E00
3F00
7100
6000
6000
6000
7100
3F00
1E00
ENDCHAR
STARTCHAR d
ENCODING 100
SWIDTH 587 0
DWIDTH 11 0
BBX 11 12 0 0
BITMAP
0080
0080
0080
1E80
3F80
7180
6080
6080
6080
7180
3F80
1E80
ENDCHAR
STARTCHAR e
ENCODING 101
SWIDTH 533 0
DWIDTH 10 0
BBX 10 9 0 0
BITMAP
1E00
3F00
6180
7F80
7F80
6000
7080
3F80
1F00
ENDCHAR
STARTCHAR f
ENCODING 102
SWIDTH 373 0
DWIDTH 7 0
BBX 7 12 0 0
BITMAP
1E
3E
30
FE
FE
20
20
20
20
20
20
20
ENDCHAR
STARTCHAR g
ENCODING 103
SWIDTH 480 0
DWIDTH 9 0
BBX 9 12 0 -3
BITMAP
3F80
7F80
6300
6300
7F00
3E00
6000
3E00
4300
C180
7F80
3E00
ENDCHAR
STARTCHAR h
ENCODING 104
SWIDTH 587 0
DWIDTH 11 0
BBX 11 12 0 0
BITMAP
6000
6000
6000
6F00
7F80
7180
6080
6080
6080
6080
6080
6080
ENDCHAR
STARTCHAR i
ENCODING 105
SWIDTH 267 0
DWIDTH 5 0
BBX 5 12 0 0
BITMAP
20
70
20
60
60
60
60
60
60
60
60
60
ENDCHAR
STARTCHAR j
ENCODING 106
SWIDTH 267 0
DWIDTH 5 0
BBX 6 16 -1 -3
BITMAP
20
60
20
00
60
60
60
60
60
60
60
60
60
60
E0
C0
ENDCHAR
STARTCHAR k
ENCODING 107
SWIDTH 533 0
DWIDTH 10 0
BBX 10 12 0 0
BITMAP
6000
6000
6000
6380
6700
6C00
7800
7800
6C00
6600
6300
6180
ENDCHAR
STARTCHAR l
ENCODING 108
SWIDTH 320 0
DWIDTH 6 0
BBX 6 12 0 0
BITMAP
60
60
60
60
60
60
60
60
60
60
3C
3C
ENDCHAR
STARTCHAR m
ENCODING 109
SWIDTH 907 0
DWIDTH 17 0
BBX 17 9 0 0
BITMAP
6F7C00
7FFE00
718600
618200
608200
608200
608200
608200
608200
ENDCHAR
STARTCHAR n
ENCODING 110
SWIDTH 587 0
DWIDTH 11 0
BBX 11 9 0 0
BITMAP
6F00
7F80
7180
6080
6080
6080
6080
6080
6080
ENDCHAR
STARTCHAR o
ENCODING 111
SWIDTH 587 0
DWIDTH 11 0
BBX 11 9 0 0
BITMAP
1F00
3F80
71C0
60C0
60C0
60C0
71C0
3F80
1F00
ENDCHAR
STARTCHAR p
ENCODING 112
SWIDTH 587 0
DWIDTH 11 0
BBX 11 12 0 -3
BITMAP
6F00
7F80
71C0
60C0
60C0
60C0
71C0
7F80
6F00
6000
6000
6000
ENDCHAR
STARTCHAR q
ENCODING 113
SWIDTH 587 0
DWIDTH 11 0
BBX 11 12 0 -3
BITMAP
1E80
3F80
7180
6080
6080
6080
7180
3F80
1E80
0080
0080
0080
ENDCHAR
STARTCHAR r
ENCODING 114
SWIDTH 373 0
DWIDTH 7 0
BBX 7 9 0 0
BITMAP
6E
7E
70
60
60
60
60
60
60
ENDCHAR
STARTCHAR s
ENCODING 115
SWIDTH 480 0
DWIDTH 9 0
BBX 9 9 0 0
BITMAP
3C00
7E00
6200
6000
7C00
1F00
4300
7F00
3E00
ENDCHAR
STARTCHAR t
ENCODING 116
SWIDTH 373 0
DWIDTH 7 0
BBX 7 11 0 0
BITMAP
20
20
FE
FE
20
20
20
20
30
3E
1E
ENDCHAR
STARTCHAR u
ENCODING 117
SWIDTH 587 0
DWIDTH 11 0
BBX 11 9 0 0
BITMAP
6080
6080
6080
6080
6080
6080
3180
3F80
1E80
ENDCHAR
STARTCHAR v
ENCODING 118
SWIDTH 533 0
DWIDTH 10 0
BBX 10 9 0 0
BITMAP
C180
6180
6100
3300
3300
1600
1E00
1C00
0C00
ENDCHAR
STARTCHAR w
ENCODING 119
SWIDTH 800 0
DWIDTH 15 0
BBX 15 9 0 0
BITMAP
6186
6386
638C
22CC
364C
3678
1478
1C38
1830
ENDCHAR
STARTCHAR x
ENCODING 120
SWIDTH 480 0
DWIDTH 9 0
BBX 10 9 0 0
BITMAP
6300
3200
3600
1C00
1C00
1E00
3600
6300
C180
ENDCHAR
STARTCHAR y
ENCODING 121
SWIDTH 533 0
DWIDTH 10 0
BBX 10 12 0 -3
BITMAP
C180
6180
6100
3300
3300
1E00
1E00
0C00
0C00
0800
3800
3000
ENDCHAR
STARTCHAR z
ENCODING 122
SWIDTH 480 0
DWIDTH 9 0
BBX 9 9 0 0
BITMAP
7F00
7E00
0400
0C00
1800
1000
3000
7F00
7F00
ENDCHAR
STARTCHAR {
ENCODING 123
SWIDTH 373 0
DWIDTH 7 0
BBX 7 16 0 -2
BITMAP
1C
10
30
30
30
30
30
60
30
30
30
30
30
30
10
1C
ENDCHAR
STARTCHAR |
ENCODING 124
SWIDTH 213 0
DWIDTH 4 0
BBX 4 18 0 -5
BITMAP
60
60
60
60
60
60
60
60
60
60
60
60
60
60
60
60
60
60
ENDCHAR
STARTCHAR }
ENCODING 125
SWIDTH 373 0
DWIDTH 7 0
BBX 7 16 0 -2
BITMAP
60
30
30
30
30
10
18
0C
18
10
30
30
30
30
30
60
ENDCHAR
STARTCHAR ~
ENCODING 126
SWIDTH 533 0
DWIDTH 10 0
BBX 10 8 0 0
BITMAP
3180
3D80
6F00
4700
0000
0000
0000
0000
ENDCHAR
STARTCHAR U+00A0
ENCODING 160
SWIDTH 267 0
DWIDTH 5 0
BBX 5 21 0 -5
BITMAP
00
00
00
00
00
00
00
00
00
00
00
00
00
00
00
00
00
00
00
00
00
ENDCHAR
STARTCHAR U+00A1
ENCODING 161
SWIDTH 267 0
DWIDTH 5 0
BBX 5 12 0 -3
BITMAP
20
30
00
20
20
20
20
20
30
30
30
30
ENDCHAR
STARTCHAR U+00A2
ENCODING 162
SWIDTH 480 0
DWIDTH 9 0
BBX 9 11 0 -1
BITMAP
0400
1E00
3F00
7100
6000
6000
6000
7100
3F00
1E00
0400
ENDCHAR
STARTCHAR U+00A3
ENCODING 163
SWIDTH 533 0
DWIDTH 10 0
BBX 10 12 0 0
BITMAP
0F00
1F80
1900
1000
1000
7E00
7E00
3000
3000
3000
7F80
7F00
ENDCHAR
STARTCHAR U+00A4
ENCODING 164
SWIDTH 587 0
DWIDTH 11 0
BBX 11 9 0 0
BITMAP
2080
7FC0
3F80
3180
3180
3180
3F80
7FC0
2080
ENDCHAR
STARTCHAR U+00A5
ENCODING 165
SWIDTH 587 0
DWIDTH 11 0
BBX 11 12 0 0
BITMAP
60C0
70C0
3180
1B00
7FC0
0E00
0600
7FC0
0600
0600
0600
0600
ENDCHAR
STARTCHAR U+00A6
ENCODING 166
SWIDTH 213 0
DWIDTH 4 0
BBX 4 18 0 -5
BITMAP
60
60
60
60
60
60
60
00
00
00
00
60
60
60
60
60
60
60
ENDCHAR
STARTCHAR U+00A7
ENCODING 167
SWIDTH 480 0
DWIDTH 9 0
BBX 9 15 0 -3
BITMAP
3E00
6200
6000
6000
3800
7E00
4300
C300
7300
3E00
0E00
0300
0300
6200
3C00
ENDCHAR
STARTCHAR U+00A8
ENCODING 168
SWIDTH 427 0
DWIDTH 8 0
BBX 9 12 0 0
BITMAP
FF00
FF00
C100
C100
C100
C100
C100
C100
C100
C100
FF00
FF00
ENDCHAR
STARTCHAR U+00A9
ENCODING 169
SWIDTH 747 0
DWIDTH 14 0
BBX 14 12 0 0
BITMAP
07C0
1820
2790
2C48
4808
5808
4808
4C08
27C8
2010
1820
07C0
ENDCHAR
STARTCHAR U+00AA
ENCODING 170
SWIDTH 320 0
DWIDTH 6 0
BBX 6 12 0 0
BITMAP
70
08
78
C8
78
00
00
00
00
00
00
00
ENDCHAR
STARTCHAR U+00AB
ENCODING 171
SWIDTH 533 0
DWIDTH 10 0
BBX 10 9 0 0
BITMAP
1980
1100
3300
6600
6600
3300
1100
1980
0000
ENDCHAR
STARTCHAR U+00AC
ENCODING 172
SWIDTH 533 0
DWIDTH 10 0
BBX 10 9 0 0
BITMAP
7F00
7F00
0100
0100
0100
0100
0000
0000
0000
ENDCHAR
STARTCHAR U+00AD
ENCODING 173
SWIDTH 373 0
DWIDTH 7 0
BBX 7 6 0 0
BITMAP
7C
7C
00
00
00
00
ENDCHAR
STARTCHAR U+00AE
ENCODING 174
SWIDTH 747 0
DWIDTH 14 0
BBX 14 12 0 0
BITMAP
07C0
1820
2010
2788
44C8
44C8
4788
4588
24C8
2450
1820
07C0
ENDCHAR
STARTCHAR U+00AF
ENCODING 175
SWIDTH 427 0
DWIDTH 8 0
BBX 9 12 0 0
BITMAP
FF00
FF00
C100
C100
C100
C100
C100
C100
C100
C100
FF00
FF00
ENDCHAR
STARTCHAR U+00B0
ENCODING 176
SWIDTH 373 0
DWIDTH 7 0
BBX 7 12 0 0
BITMAP
38
6C
44
6C
38
00
00
00
00
00
00
00
ENDCHAR
STARTCHAR U+00B1
ENCODING 177
SWIDTH 533 0
DWIDTH 10 0
BBX 10 11 0 0
BITMAP
0C00
0C00
0C00
7F00
7F00
0C00
0C00
0C00
0000
7F00
7F00
ENDCHAR
STARTCHAR U+00B2
ENCODING 178
SWIDTH 320 0
DWIDTH 6 0
BBX 6 12 0 0
BITMAP
70
48
08
18
30
20
78
00
00
00
00
00
ENDCHAR
STARTCHAR U+00B3
ENCODING 179
SWIDTH 320 0
DWIDTH 6 0
BBX 6 12 0 0
BITMAP
78
10
30
08
08
48
70
00
00
00
00
00
ENDCHAR
STARTCHAR U+00B4
ENCODING 180
SWIDTH 427 0
DWIDTH 8 0
BBX 9 12 0 0
BITMAP
FF00
FF00
C100
C100
C100
C100
C100
C100
C100
C100
FF00
FF00
ENDCHAR
STARTCHAR U+00B5
ENCODING 181
SWIDTH 533 0
DWIDTH 10 0
BBX 10 12 0 -3
BITMAP
6180
6180
6180
6180
6180
6180
7180
7F80
6F80
6000
6000
6000
ENDCHAR
STARTCHAR U+00B6
ENCODING 182
SWIDTH 533 0
DWIDTH 10 0
BBX 10 15 0 -3
BITMAP
3F80
7D00
7D00
7D00
7D00
3D00
0D00
0D00
0D00
0D00
0D00
0D00
0D00
0D00
0D00
ENDCHAR
STARTCHAR U+00B7
ENCODING 183
SWIDTH 213 0
DWIDTH 4 0
BBX 4 7 0 0
BITMAP
20
70
20
00
00
00
00
ENDCHAR
STARTCHAR U+00B8
ENCODING 184
SWIDTH 427 0
DWIDTH 8 0
BBX 9 12 0 0
BITMAP
FF00
FF00
C100
C100
C100
C100
C100
C100
C100
C100
FF00
FF00
ENDCHAR
STARTCHAR U+00B9
ENCODING 185
SWIDTH 213 0
DWIDTH 4 0
BBX 4 12 0 0
BITMAP
20
60
60
60
60
60
60
00
00
00
00
00
ENDCHAR
STARTCHAR U+00BA
ENCODING 186
SWIDTH 373 0
DWIDTH 7 0
BBX 7 12 0 0
BITMAP
38
44
44
44
38
00
00
00
00
00
00
00
ENDCHAR
STARTCHAR U+00BB
ENCODING 187
SWIDTH 533 0
DWIDTH 10 0
BBX 10 9 0 0
BITMAP
6600
3200
1300
1980
1980
1100
3300
6600
0000
ENDCHAR
STARTCHAR U+00BC
ENCODING 188
SWIDTH 747 0
DWIDTH 14 0
BBX 14 12 0 0
BITMAP
2060
6040
60C0
6080
6180
6100
6308
0218
0628
0448
08FC
0808
ENDCHAR
STARTCHAR U+00BD
ENCODING 189
SWIDTH 800 0
DWIDTH 15 0
BBX 15 12 0 0
BITMAP
2060
6040
60C0
6080
6180
6138
6344
0204
060C
0418
0810
083C
ENDCHAR
STARTCHAR U+00BE
ENCODING 190
SWIDTH 853 0
DWIDTH 16 0
BBX 16 12 0 0
BITMAP
7830
1020
3060
0840
08C0
4880
7184
010C
0314
0224
047E
0404
ENDCHAR
STARTCHAR U+00BF
ENCODING 191
SWIDTH 427 0
DWIDTH 8 0
BBX 8 12 0 -3
BITMAP
08
1C
08
08
0C
0C
38
70
60
60
7F
3E
ENDCHAR
STARTCHAR U+00C0
ENCODING 192
SWIDTH 640 0
DWIDTH 12 0
BBX 12 16 0 0
BITMAP
0C00
0600
0200
0000
0600
0600
0F00
0F00
1980
1980
1080
3FC0
3FC0
6060
6060
4030
ENDCHAR
STARTCHAR U+00C1
ENCODING 193
SWIDTH 640 0
DWIDTH 12 0
BBX 12 16 0 0
BITMAP
0300
0200
0400
0000
0600
0600
0F00
0F00
1980
1980
1080
3FC0
3FC0
6060
6060
4030
ENDCHAR
STARTCHAR U+00C2
ENCODING 194
SWIDTH 640 0
DWIDTH 12 0
BBX 12 16 0 0
BITMAP
0600
0F00
1900
0000
0600
0600
0F00
0F00
1980
1980
1080
3FC0
3FC0
6060
6060
4030
ENDCHAR
STARTCHAR U+00C3
ENCODING 195
SWIDTH 640 0
DWIDTH 12 0
BBX 12 15 0 0
BITMAP
1D00
1700
0000
0600
0600
0F00
0F00
1980
1980
1080
3FC0
3FC0
6060
6060
4030
ENDCHAR
STARTCHAR U+00C4
ENCODING 196
SWIDTH 640 0
DWIDTH 12 0
BBX 12 15 0 0
BITMAP
0880
0980
0000
0600
0600
0F00
0F00
1980
1980
1080
3FC0
3FC0
6060
6060
4030
ENDCHAR
STARTCHAR U+00C5
ENCODING 197
SWIDTH 640 0
DWIDTH 12 0
BBX 12 16 0 0
BITMAP
0600
0A00
0600
0000
0600
0600
0F00
0F00
1980
1980
1080
3FC0
3FC0
6060
6060
4030
ENDCHAR
STARTCHAR U+00C6
ENCODING 198
SWIDTH 907 0
DWIDTH 17 0
BBX 17 12 0 0
BITMAP
01FF00
03FF00
03C000
06C000
06C000
0CFC00
1CFC00
1FC000
3FC000
30C000
60FF00
E0FF00
ENDCHAR
STARTCHAR U+00C7
ENCODING 199
SWIDTH 640 0
DWIDTH 12 0
BBX 12 16 0 -4
BITMAP
07C0
1FE0
3820
3000
6000
6000
6000
6000
3000
3820
1FE0
07C0
0200
0380
0180
0700
ENDCHAR
STARTCHAR U+00C8
ENCODING 200
SWIDTH 533 0
DWIDTH 10 0
BBX 10 16 0 0
BITMAP
1800
0C00
0400
0000
3F80
3F80
3000
3000
3000
3F00
3F00
3000
3000
3000
3FC0
3FC0
ENDCHAR
STARTCHAR U+00C9
ENCODING 201
SWIDTH 533 0
DWIDTH 10 0
BBX 10 16 0 0
BITMAP
0600
0400
0800
0000
3F80
3F80
3000
3000
3000
3F00
3F00
3000
3000
3000
3FC0
3FC0
ENDCHAR
STARTCHAR U+00CA
ENCODING 202
SWIDTH 533 0
DWIDTH 10 0
BBX 10 16 0 0
BITMAP
0600
0F00
1900
0000
3F80
3F80
3000
3000
3000
3F00
3F00
3000
3000
3000
3FC0
3FC0
ENDCHAR
STARTCHAR U+00CB
ENCODING 203
SWIDTH 533 0
DWIDTH 10 0
BBX 10 15 0 0
BITMAP
1100
1300
0000
3F80
3F80
3000
3000
3000
3F00
3F00
3000
3000
3000
3FC0
3FC0
ENDCHAR
STARTCHAR U+00CC
ENCODING 204
SWIDTH 267 0
DWIDTH 5 0
BBX 5 16 0 0
BITMAP
60
30
10
00
30
30
30
30
30
30
30
30
30
30
30
30
ENDCHAR
STARTCHAR U+00CD
ENCODING 205
SWIDTH 267 0
DWIDTH 5 0
BBX 6 16 0 0
BITMAP
18
10
20
00
30
30
30
30
30
30
30
30
30
30
30
30
ENDCHAR
STARTCHAR U+00CE
ENCODING 206
SWIDTH 267 0
DWIDTH 5 0
BBX 6 16 0 0
BITMAP
30
78
C8
00
30
30
30
30
30
30
30
30
30
30
30
30
ENDCHAR
STARTCHAR U+00CF
ENCODING 207
SWIDTH 267 0
DWIDTH 5 0
BBX 7 15 -1 0
BITMAP
44
4C
00
18
18
18
18
18
18
18
18
18
18
18
18
ENDCHAR
STARTCHAR U+00D0
ENCODING 208
SWIDTH 693 0
DWIDTH 13 0
BBX 13 12 0 0
BITMAP
3F00
3FC0
30E0
3070
3030
FE30
3030
3030
3070
30E0
3FC0
3F00
ENDCHAR
STARTCHAR U+00D1
ENCODING 209
SWIDTH 747 0
DWIDTH 14 0
BBX 14 15 0 0
BITMAP
0E80
0B80
0000
3030
3830
3830
3C30
3630
3730
33B0
31B0
30F0
3070
3070
3030
ENDCHAR
STARTCHAR U+00D2
ENCODING 210
SWIDTH 800 0
DWIDTH 15 0
BBX 15 16 0 0
BITMAP
0600
0300
0100
0000
07C0
1FF0
3838
3018
600C
600C
600C
600C
3018
3838
1FF0
07C0
ENDCHAR
STARTCHAR U+00D3
ENCODING 211
SWIDTH 800 0
DWIDTH 15 0
BBX 15 16 0 0
BITMAP
0180
0100
0200
0000
07C0
1FF0
3838
3018
600C
600C
600C
600C
3018
3838
1FF0
07C0
ENDCHAR
STARTCHAR U+00D4
ENCODING 212
SWIDTH 800 0
DWIDTH 15 0
BBX 15 16 0 0
BITMAP
0180
03C0
0640
0000
07C0
1FF0
3838
3018
600C
600C
600C
600C
3018
3838
1FF0
07C0
ENDCHAR
STARTCHAR U+00D5
ENCODING 213
SWIDTH 800 0
DWIDTH 15 0
BBX 15 15 0 0
BITMAP
0740
05C0
0000
07C0
1FF0
3838
3018
600C
600C
600C
600C
3018
3838
1FF0
07C0
ENDCHAR
STARTCHAR U+00D6
ENCODING 214
SWIDTH 800 0
DWIDTH 15 0
BBX 15 15 0 0
BITMAP
0440
04C0
0000
07C0
1FF0
3838
3018
600C
600C
600C
600C
3018
3838
1FF0
07C0
ENDCHAR
STARTCHAR U+00D7
ENCODING 215
SWIDTH 533 0
DWIDTH 10 0
BBX 10 9 0 0
BITMAP
2300
3600
1C00
1E00
3700
2300
0000
0000
0000
ENDCHAR
STARTCHAR U+00D8
ENCODING 216
SWIDTH 800 0
DWIDTH 15 0
BBX 15 12 0 0
BITMAP
07C8
1FF8
3838
3078
60CC
618C
630C
660C
3818
3838
3FF0
27C0
ENDCHAR
STARTCHAR U+00D9
ENCODING 217
SWIDTH 747 0
DWIDTH 14 0
BBX 14 16 0 0
BITMAP
0600
0300
0100
0000
2010
2010
2010
2010
2010
2010
2010
3030
3030
3870
1FE0
0780
ENDCHAR
STARTCHAR U+00DA
ENCODING 218
SWIDTH 747 0
DWIDTH 14 0
BBX 14 16 0 0
BITMAP
0180
0100
0200
0000
2010
2010
2010
2010
2010
2010
2010
3030
3030
3870
1FE0
0780
ENDCHAR
STARTCHAR U+00DB
ENCODING 219
SWIDTH 747 0
DWIDTH 14 0
BBX 14 16 0 0
BITMAP
0300
0780
0C80
0000
2010
2010
2010
2010
2010
2010
2010
3030
3030
3870
1FE0
0780
ENDCHAR
STARTCHAR U+00DC
ENCODING 220
SWIDTH 747 0
DWIDTH 14 0
BBX 14 15 0 0
BITMAP
0440
04C0
0000
2010
2010
2010
2010
2010
2010
2010
3030
3030
3870
1FE0
0780
ENDCHAR
STARTCHAR U+00DD
ENCODING 221
SWIDTH 587 0
DWIDTH 11 0
BBX 11 16 0 0
BITMAP
0600
0400
0800
0000
60C0
61C0
3180
1B00
1F00
0E00
0400
0400
0400
0400
0400
0400
ENDCHAR
STARTCHAR U+00DE
ENCODING 222
SWIDTH 587 0
DWIDTH 11 0
BBX 11 12 0 0
BITMAP
3000
3000
3F00
3F80
31C0
30C0
30C0
31C0
3F80
3F00
3000
3000
ENDCHAR
STARTCHAR U+00DF
ENCODING 223
SWIDTH 533 0
DWIDTH 10 0
BBX 10 12 0 0
BITMAP
1E00
3F00
3100
6180
6300
6E00
6F00
6180
6180
6180
6F80
6F00
ENDCHAR
STARTCHAR U+00E0
ENCODING 224
SWIDTH 480 0
DWIDTH 9 0
BBX 9 13 0 0
BITMAP
3000
1800
0800
0000
1E00
3F00
4300
1F00
3300
6300
6700
7F00
3B00
ENDCHAR
STARTCHAR U+00E1
ENCODING 225
SWIDTH 480 0
DWIDTH 9 0
BBX 9 13 0 0
BITMAP
0600
0400
0800
0000
1E00
3F00
4300
1F00
3300
6300
6700
7F00
3B00
ENDCHAR
STARTCHAR U+00E2
ENCODING 226
SWIDTH 480 0
DWIDTH 9 0
BBX 9 13 0 0
BITMAP
0C00
1E00
3200
0000
1E00
3F00
4300
1F00
3300
6300
6700
7F00
3B00
ENDCHAR
STARTCHAR U+00E3
ENCODING 227
SWIDTH 480 0
DWIDTH 9 0
BBX 9 12 0 0
BITMAP
3A00
2E00
0000
1E00
3F00
4300
1F00
3300
6300
6700
7F00
3B00
ENDCHAR
STARTCHAR U+00E4
ENCODING 228
SWIDTH 480 0
DWIDTH 9 0
BBX 9 12 0 0
BITMAP
2200
2600
0000
1E00
3F00
4300
1F00
3300
6300
6700
7F00
3B00
ENDCHAR
STARTCHAR U+00E5
ENCODING 229
SWIDTH 480 0
DWIDTH 9 0
BBX 9 13 0 0
BITMAP
0C00
1400
0C00
0000
1E00
3F00
4300
1F00
3300
6300
6700
7F00
3B00
ENDCHAR
STARTCHAR U+00E6
ENCODING 230
SWIDTH 800 0
DWIDTH 15 0
BBX 15 9 0 0
BITMAP
1EF0
3FF8
430C
1FFC
3300
6300
6384
7EFC
3C78
ENDCHAR
STARTCHAR U+00E7
ENCODING 231
SWIDTH 480 0
DWIDTH 9 0
BBX 9 13 0 -4
BITMAP
1E00
3F00
7100
6000
6000
6000
7100
3F00
1E00
0400
0E00
0200
0E00
ENDCHAR
STARTCHAR U+00E8
ENCODING 232
SWIDTH 533 0
DWIDTH 10 0
BBX 10 13 0 0
BITMAP
1800
0C00
0400
0000
1E00
3F00
6180
7F80
7F80
6000
7080
3F80
1F00
ENDCHAR
STARTCHAR U+00E9
ENCODING 233
SWIDTH 533 0
DWIDTH 10 0
BBX 10 13 0 0
BITMAP
0600
0400
0800
0000
1E00
3F00
6180
7F80
7F80
6000
7080
3F80
1F00
ENDCHAR
STARTCHAR U+00EA
ENCODING 234
SWIDTH 533 0
DWIDTH 10 0
BBX 10 13 0 0
BITMAP
0C00
1E00
3200
0000
1E00
3F00
6180
7F80
7F80
6000
7080
3F80
1F00
ENDCHAR
STARTCHAR U+00EB
ENCODING 235
SWIDTH 533 0
DWIDTH 10 0
BBX 10 12 0 0
BITMAP
2200
2600
0000
1E00
3F00
6180
7F80
7F80
6000
7080
3F80
1F00
ENDCHAR
STARTCHAR U+00EC
ENCODING 236
SWIDTH 267 0
DWIDTH 5 0
BBX 6 13 -1 0
BITMAP
C0
60
20
00
60
60
60
60
60
60
60
60
60
ENDCHAR
STARTCHAR U+00ED
ENCODING 237
SWIDTH 267 0
DWIDTH 5 0
BBX 5 13 0 0
BITMAP
30
20
40
00
60
60
60
60
60
60
60
60
60
ENDCHAR
STARTCHAR U+00EE
ENCODING 238
SWIDTH 267 0
DWIDTH 5 0
BBX 6 13 -1 0
BITMAP
30
78
C8
00
30
30
30
30
30
30
30
30
30
ENDCHAR
STARTCHAR U+00EF
ENCODING 239
SWIDTH 267 0
DWIDTH 5 0
BBX 7 12 -1 0
BITMAP
44
4C
00
30
30
30
30
30
30
30
30
30
ENDCHAR
STARTCHAR U+00F0
ENCODING 240
SWIDTH 533 0
DWIDTH 10 0
BBX 10 12 0 0
BITMAP
1B00
1E00
1E00
2300
1F00
3F80
6380
6180
6180
6180
3F00
1E00
ENDCHAR
STARTCHAR U+00F1
ENCODING 241
SWIDTH 587 0
DWIDTH 11 0
BBX 11 12 0 0
BITMAP
1D00
1700
0000
6F00
7F80
7180
6080
6080
6080
6080
6080
6080
ENDCHAR
STARTCHAR U+00F2
ENCODING 242
SWIDTH 587 0
DWIDTH 11 0
BBX 11 13 0 0
BITMAP
1800
0C00
0400
0000
1F00
3F80
71C0
60C0
60C0
60C0
71C0
3F80
1F00
ENDCHAR
STARTCHAR U+00F3
ENCODING 243
SWIDTH 587 0
DWIDTH 11 0
BBX 11 13 0 0
BITMAP
0300
0200
0400
0000
1F00
3F80
71C0
60C0
60C0
60C0
71C0
3F80
1F00
ENDCHAR
STARTCHAR U+00F4
ENCODING 244
SWIDTH 587 0
DWIDTH 11 0
BBX 11 13 0 0
BITMAP
0600
0F00
1900
0000
1F00
3F80
71C0
60C0
60C0
60C0
71C0
3F80
1F00
ENDCHAR
STARTCHAR U+00F5
ENCODING 245
SWIDTH 587 0
DWIDTH 11 0
BBX 11 12 0 0
BITMAP
1D00
1700
0000
1F00
3F80
71C0
60C0
60C0
60C0
71C0
3F80
1F00
ENDCHAR
STARTCHAR U+00F6
ENCODING 246
SWIDTH 587 0
DWIDTH 11 0
BBX 11 12 0 0
BITMAP
1100
1300
0000
1F00
3F80
71C0
60C0
60C0
60C0
71C0
3F80
1F00
ENDCHAR
STARTCHAR U+00F7
ENCODING 247
SWIDTH 533 0
DWIDTH 10 0
BBX 10 10 0 0
BITMAP
0400
0E00
0400
7F00
7F00
0000
0400
0E00
0400
0000
ENDCHAR
STARTCHAR U+00F8
ENCODING 248
SWIDTH 587 0
DWIDTH 11 0
BBX 11 9 0 0
BITMAP
1F80
3F80
71C0
62C0
64C0
68C0
71C0
3F80
3F00
ENDCHAR
STARTCHAR U+00F9
ENCODING 249
SWIDTH 587 0
DWIDTH 11 0
BBX 11 13 0 0
BITMAP
1800
0C00
0400
0000
6080
6080
6080
6080
6080
6080
3180
3F80
1E80
ENDCHAR
STARTCHAR U+00FA
ENCODING 250
SWIDTH 587 0
DWIDTH 11 0
BBX 11 13 0 0
BITMAP
0600
0400
0800
0000
6080
6080
6080
6080
6080
6080
3180
3F80
1E80
ENDCHAR
STARTCHAR U+00FB
ENCODING 251
SWIDTH 587 0
DWIDTH 11 0
BBX 11 13 0 0
BITMAP
0600
0F00
1900
0000
6080
6080
6080
6080
6080
6080
3180
3F80
1E80
ENDCHAR
STARTCHAR U+00FC
ENCODING 252
SWIDTH 587 0
DWIDTH 11 0
BBX 11 12 0 0
BITMAP
1100
1300
0000
6080
6080
6080
6080
6080
6080
3180
3F80
1E80
ENDCHAR
STARTCHAR U+00FD
ENCODING 253
SWIDTH 533 0
DWIDTH 10 0
BBX 10 16 0 -3
BITMAP
0600
0400
0800
0000
C180
6180
6100
3300
3300
1E00
1E00
0C00
0C00
0800
3800
3000
ENDCHAR
STARTCHAR U+00FE
ENCODING 254
SWIDTH 587 0
DWIDTH 11 0
BBX 11 15 0 -3
BITMAP
6000
6000
6000
6F00
7F80
71C0
60C0
60C0
60C0
71C0
7F80
6F00
6000
6000
6000
ENDCHAR
STARTCHAR U+00FF
ENCODING 255
SWIDTH 533 0
DWIDTH 10 0
BBX 10 15 0 -3
BITMAP
2200
2600
0000
C180
6180
6100
3300
3300
1E00
1E00
0C00
0C00
0800
3800
3000
ENDCHAR
STARTCHAR U+2013
ENCODING 8211
SWIDTH 480 0
DWIDTH 9 0
BBX 11 6 -1 0
BITMAP
FF80
FF80
0000
0000
0000
0000
ENDCHAR
STARTCHAR U+2014
ENCODING 8212
SWIDTH 960 0
DWIDTH 18 0
BBX 20 6 -1 0
BITMAP
FFFFC0
FFFFC0
000000
000000
000000
000000
ENDCHAR
STARTCHAR U+2018
ENCODING 8216
SWIDTH 213 0
DWIDTH 4 0
BBX 4 12 0 0
BITMAP
20
60
60
20
00
00
00
00
00
00
00
00
ENDCHAR
STARTCHAR U+2019
ENCODING 8217
SWIDTH 213 0
DWIDTH 4 0
BBX 4 12 0 0
BITMAP
20
60
20
40
00
00
00
00
00
00
00
00
ENDCHAR
STARTCHAR U+201C
ENCODING 8220
SWIDTH 373 0
DWIDTH 7 0
BBX 7 12 0 0
BITMAP
24
68
6C
2C
00
00
00
00
00
00
00
00
ENDCHAR
STARTCHAR U+201D
ENCODING 8221
SWIDTH 373 0
DWIDTH 7 0
BBX 7 12 0 0
BITMAP
24
6C
24
48
00
00
00
00
00
00
00
00
ENDCHAR
STARTCHAR U+2022
ENCODING 8226
SWIDTH 427 0
DWIDTH 8 0
BBX 8 8 0 0
BITMAP
10
38
3C
38
10
00
00
00
ENDCHAR
STARTCHAR U+2026
ENCODING 8230
SWIDTH 853 0
DWIDTH 16 0
BBX 16 2 0 0
BITMAP
6186
2082
ENDCHAR
STARTCHAR U+20AC
ENCODING 8364
SWIDTH 587 0
DWIDTH 11 0
BBX 11 12 0 0
BITMAP
0780
1FC0
3840
3000
7F00
6000
7F00
3000
3000
1840
0FC0
0780
ENDCHAR
ENDFONT
