STARTFONT 2.1
COMMENT Converted from Johnston100 W03 Regular.ttf at 13px with ttf2bdf.py (Pillow, 1-bit, no AA)
FONT -Misc-Johnston100-Medium-R-Normal--13-130-75-75-P-150-ISO10646-1
SIZE 13 75 75
FONTBOUNDINGBOX 15 16 -1 -4
STARTPROPERTIES 9
FOUNDRY "Misc"
FAMILY_NAME "Johnston100"
WEIGHT_NAME "Medium"
SLANT "R"
PIXEL_SIZE 13
RESOLUTION_X 75
RESOLUTION_Y 75
FONT_ASCENT 12
FONT_DESCENT 4
ENDPROPERTIES
CHARS 200
STARTCHAR space
ENCODING 32
SWIDTH 222 0
DWIDTH 3 0
BBX 3 16 0 -4
BITMAP
00
00
00
00
00
00
00
00
00
00
00
00
00
00
00
00
ENDCHAR
STARTCHAR !
ENCODING 33
SWIDTH 295 0
DWIDTH 4 0
BBX 4 9 0 0
BITMAP
60
60
60
60
40
40
40
00
40
ENDCHAR
STARTCHAR "
ENCODING 34
SWIDTH 369 0
DWIDTH 5 0
BBX 5 9 0 0
BITMAP
50
50
50
00
00
00
00
00
00
ENDCHAR
STARTCHAR U+0023
ENCODING 35
SWIDTH 738 0
DWIDTH 10 0
BBX 10 9 0 0
BITMAP
0900
0900
0900
7F80
1200
7F80
2400
2400
2400
ENDCHAR
STARTCHAR $
ENCODING 36
SWIDTH 517 0
DWIDTH 7 0
BBX 7 11 0 -1
BITMAP
10
78
48
40
70
18
0C
04
CC
78
10
ENDCHAR
STARTCHAR %
ENCODING 37
SWIDTH 738 0
DWIDTH 10 0
BBX 10 9 0 0
BITMAP
7200
5200
5400
7400
0800
0B00
1480
1480
2300
ENDCHAR
STARTCHAR &
ENCODING 38
SWIDTH 665 0
DWIDTH 9 0
BBX 9 9 0 0
BITMAP
3800
2400
2400
3C00
3100
6B00
4600
4600
3900
ENDCHAR
STARTCHAR '
ENCODING 39
SWIDTH 222 0
DWIDTH 3 0
BBX 3 9 0 0
BITMAP
40
40
40
00
00
00
00
00
00
ENDCHAR
STARTCHAR (
ENCODING 40
SWIDTH 222 0
DWIDTH 3 0
BBX 4 11 0 -1
BITMAP
20
40
40
40
40
40
40
40
40
40
20
ENDCHAR
STARTCHAR )
ENCODING 41
SWIDTH 222 0
DWIDTH 3 0
BBX 3 11 0 -1
BITMAP
40
40
40
60
60
60
60
60
40
40
40
ENDCHAR
STARTCHAR *
ENCODING 42
SWIDTH 369 0
DWIDTH 5 0
BBX 5 9 0 0
BITMAP
20
68
30
78
20
00
00
00
00
ENDCHAR
STARTCHAR +
ENCODING 43
SWIDTH 517 0
DWIDTH 7 0
BBX 7 7 0 0
BITMAP
10
10
7C
10
10
00
00
ENDCHAR
STARTCHAR ,
ENCODING 44
SWIDTH 222 0
DWIDTH 3 0
BBX 3 4 0 -2
BITMAP
40
40
40
00
ENDCHAR
STARTCHAR -
ENCODING 45
SWIDTH 369 0
DWIDTH 5 0
BBX 5 4 0 0
BITMAP
F8
00
00
00
ENDCHAR
STARTCHAR .
ENCODING 46
SWIDTH 222 0
DWIDTH 3 0
BBX 3 2 0 0
BITMAP
40
40
ENDCHAR
STARTCHAR /
ENCODING 47
SWIDTH 295 0
DWIDTH 4 0
BBX 5 11 0 -1
BITMAP
10
10
30
20
20
20
40
40
40
C0
80
ENDCHAR
STARTCHAR 0
ENCODING 48
SWIDTH 591 0
DWIDTH 8 0
BBX 8 9 0 0
BITMAP
38
6C
44
44
44
44
44
6C
38
ENDCHAR
STARTCHAR 1
ENCODING 49
SWIDTH 295 0
DWIDTH 4 0
BBX 4 9 0 0
BITMAP
40
40
40
40
40
40
40
40
40
ENDCHAR
STARTCHAR 2
ENCODING 50
SWIDTH 443 0
DWIDTH 6 0
BBX 6 9 0 0
BITMAP
78
4C
04
0C
08
18
30
20
7C
ENDCHAR
STARTCHAR 3
ENCODING 51
SWIDTH 517 0
DWIDTH 7 0
BBX 7 9 0 0
BITMAP
7C
08
18
38
0C
04
04
4C
78
ENDCHAR
STARTCHAR 4
ENCODING 52
SWIDTH 591 0
DWIDTH 8 0
BBX 8 9 0 0
BITMAP
04
0C
0C
1C
2C
6C
FE
0C
0C
ENDCHAR
STARTCHAR 5
ENCODING 53
SWIDTH 517 0
DWIDTH 7 0
BBX 7 9 0 0
BITMAP
3C
20
20
78
0C
04
04
4C
78
ENDCHAR
STARTCHAR 6
ENCODING 54
SWIDTH 517 0
DWIDTH 7 0
BBX 7 9 0 0
BITMAP
18
30
60
78
44
44
44
44
38
ENDCHAR
STARTCHAR 7
ENCODING 55
SWIDTH 443 0
DWIDTH 6 0
BBX 7 9 0 0
BITMAP
7C
0C
08
08
18
10
30
20
60
ENDCHAR
STARTCHAR 8
ENCODING 56
SWIDTH 517 0
DWIDTH 7 0
BBX 7 9 0 0
BITMAP
38
4C
44
78
38
4C
44
44
38
ENDCHAR
STARTCHAR 9
ENCODING 57
SWIDTH 517 0
DWIDTH 7 0
BBX 7 9 0 0
BITMAP
38
44
44
44
3C
0C
0C
18
30
ENDCHAR
STARTCHAR :
ENCODING 58
SWIDTH 295 0
DWIDTH 4 0
BBX 4 7 0 0
BITMAP
40
40
00
00
00
40
40
ENDCHAR
STARTCHAR ;
ENCODING 59
SWIDTH 295 0
DWIDTH 4 0
BBX 4 9 0 -2
BITMAP
40
40
00
00
00
40
40
40
00
ENDCHAR
STARTCHAR U+003C
ENCODING 60
SWIDTH 517 0
DWIDTH 7 0
BBX 7 8 0 0
BITMAP
04
18
30
40
38
0C
00
00
ENDCHAR
STARTCHAR =
ENCODING 61
SWIDTH 517 0
DWIDTH 7 0
BBX 7 6 0 0
BITMAP
7C
00
7C
00
00
00
ENDCHAR
STARTCHAR U+003E
ENCODING 62
SWIDTH 517 0
DWIDTH 7 0
BBX 7 8 0 0
BITMAP
40
30
18
04
38
60
00
00
ENDCHAR
STARTCHAR ?
ENCODING 63
SWIDTH 443 0
DWIDTH 6 0
BBX 6 9 0 0
BITMAP
70
88
08
18
20
20
20
20
20
ENDCHAR
STARTCHAR @
ENCODING 64
SWIDTH 960 0
DWIDTH 13 0
BBX 13 11 0 -2
BITMAP
0F80
1060
27A0
4890
4990
5910
5920
49E0
6E00
3080
0F00
ENDCHAR
STARTCHAR A
ENCODING 65
SWIDTH 665 0
DWIDTH 9 0
BBX 9 9 0 0
BITMAP
0800
1800
1400
3400
2600
2200
7E00
4300
C100
ENDCHAR
STARTCHAR B
ENCODING 66
SWIDTH 591 0
DWIDTH 8 0
BBX 8 9 0 0
BITMAP
78
64
64
64
7C
62
62
62
7C
ENDCHAR
STARTCHAR C
ENCODING 67
SWIDTH 665 0
DWIDTH 9 0
BBX 9 9 0 0
BITMAP
1E00
3100
6000
4000
4000
4000
6000
3100
1E00
ENDCHAR
STARTCHAR D
ENCODING 68
SWIDTH 665 0
DWIDTH 9 0
BBX 9 9 0 0
BITMAP
7C00
6300
6100
6180
6180
6180
6100
6300
7C00
ENDCHAR
STARTCHAR E
ENCODING 69
SWIDTH 591 0
DWIDTH 8 0
BBX 8 9 0 0
BITMAP
7E
60
60
60
7C
60
60
60
7E
ENDCHAR
STARTCHAR F
ENCODING 70
SWIDTH 517 0
DWIDTH 7 0
BBX 7 9 0 0
BITMAP
7E
60
60
60
7C
60
60
60
60
ENDCHAR
STARTCHAR G
ENCODING 71
SWIDTH 738 0
DWIDTH 10 0
BBX 10 9 0 0
BITMAP
1E00
3100
6000
4000
4780
4180
6180
3180
1F80
ENDCHAR
STARTCHAR H
ENCODING 72
SWIDTH 738 0
DWIDTH 10 0
BBX 10 9 0 0
BITMAP
6100
6100
6100
7F00
6100
6100
6100
6100
6100
ENDCHAR
STARTCHAR I
ENCODING 73
SWIDTH 295 0
DWIDTH 4 0
BBX 4 9 0 0
BITMAP
60
60
60
60
60
60
60
60
60
ENDCHAR
STARTCHAR J
ENCODING 74
SWIDTH 443 0
DWIDTH 6 0
BBX 6 9 0 0
BITMAP
08
08
08
08
08
08
08
C8
70
ENDCHAR
STARTCHAR K
ENCODING 75
SWIDTH 591 0
DWIDTH 8 0
BBX 9 9 0 0
BITMAP
6200
6400
7800
7000
7000
7800
6C00
6600
6300
ENDCHAR
STARTCHAR L
ENCODING 76
SWIDTH 517 0
DWIDTH 7 0
BBX 7 9 0 0
BITMAP
60
60
60
60
60
60
60
60
7E
ENDCHAR
STARTCHAR M
ENCODING 77
SWIDTH 812 0
DWIDTH 11 0
BBX 11 9 0 0
BITMAP
60C0
71C0
7940
6B40
6640
6440
6040
6040
6040
ENDCHAR
STARTCHAR N
ENCODING 78
SWIDTH 738 0
DWIDTH 10 0
BBX 10 9 0 0
BITMAP
6080
7080
7080
7880
6C80
6680
6280
6180
6180
ENDCHAR
STARTCHAR O
ENCODING 79
SWIDTH 812 0
DWIDTH 11 0
BBX 11 9 0 0
BITMAP
1E00
3180
6080
40C0
4040
40C0
6080
3180
1E00
ENDCHAR
STARTCHAR P
ENCODING 80
SWIDTH 591 0
DWIDTH 8 0
BBX 8 9 0 0
BITMAP
7C
66
62
66
7C
60
60
60
60
ENDCHAR
STARTCHAR Q
ENCODING 81
SWIDTH 812 0
DWIDTH 11 0
BBX 11 9 0 0
BITMAP
1E00
3180
6080
40C0
4040
40C0
6380
3180
1E80
ENDCHAR
STARTCHAR R
ENCODING 82
SWIDTH 591 0
DWIDTH 8 0
BBX 8 9 0 0
BITMAP
7C
64
66
64
7C
68
6C
66
62
ENDCHAR
STARTCHAR S
ENCODING 83
SWIDTH 517 0
DWIDTH 7 0
BBX 7 9 0 0
BITMAP
38
48
40
70
18
0C
04
4C
78
ENDCHAR
STARTCHAR T
ENCODING 84
SWIDTH 591 0
DWIDTH 8 0
BBX 8 9 0 0
BITMAP
FE
10
10
10
10
10
10
10
10
ENDCHAR
STARTCHAR U
ENCODING 85
SWIDTH 738 0
DWIDTH 10 0
BBX 10 9 0 0
BITMAP
4080
4080
4080
4080
4080
4080
6180
3100
1E00
ENDCHAR
STARTCHAR V
ENCODING 86
SWIDTH 591 0
DWIDTH 8 0
BBX 9 9 0 0
BITMAP
C100
4300
6200
2600
2400
3400
1C00
1800
1800
ENDCHAR
STARTCHAR W
ENCODING 87
SWIDTH 960 0
DWIDTH 13 0
BBX 13 9 0 0
BITMAP
4210
4710
6730
6520
2D20
29E0
38C0
18C0
18C0
ENDCHAR
STARTCHAR X
ENCODING 88
SWIDTH 665 0
DWIDTH 9 0
BBX 9 9 0 0
BITMAP
4300
6200
3400
1C00
1800
1C00
3600
6300
C100
ENDCHAR
STARTCHAR Y
ENCODING 89
SWIDTH 591 0
DWIDTH 8 0
BBX 8 9 0 0
BITMAP
C2
66
24
3C
18
18
18
18
18
ENDCHAR
STARTCHAR Z
ENCODING 90
SWIDTH 591 0
DWIDTH 8 0
BBX 8 9 0 0
BITMAP
7E
06
04
0C
18
10
30
60
7F
ENDCHAR
STARTCHAR [
ENCODING 91
SWIDTH 295 0
DWIDTH 4 0
BBX 4 12 0 -2
BITMAP
70
40
40
40
40
40
40
40
40
40
40
70
ENDCHAR
STARTCHAR \
ENCODING 92
SWIDTH 295 0
DWIDTH 4 0
BBX 5 11 0 -1
BITMAP
80
C0
40
40
40
20
20
20
30
10
10
ENDCHAR
STARTCHAR ]
ENCODING 93
SWIDTH 295 0
DWIDTH 4 0
BBX 4 12 0 -2
BITMAP
60
20
20
20
20
20
20
20
20
20
20
60
ENDCHAR
STARTCHAR ^
ENCODING 94
SWIDTH 591 0
DWIDTH 8 0
BBX 8 9 0 0
BITMAP
18
28
24
46
00
00
00
00
00
ENDCHAR
STARTCHAR _
ENCODING 95
SWIDTH 517 0
DWIDTH 7 0
BBX 8 2 -1 -2
BITMAP
00
FE
ENDCHAR
STARTCHAR `
ENCODING 96
SWIDTH 443 0
DWIDTH 6 0
BBX 6 9 0 0
BITMAP
FC
84
84
84
84
84
84
84
FC
ENDCHAR
STARTCHAR a
ENCODING 97
SWIDTH 517 0
DWIDTH 7 0
BBX 7 6 0 0
BITMAP
78
4C
3C
44
4C
74
ENDCHAR
STARTCHAR b
ENCODING 98
SWIDTH 591 0
DWIDTH 8 0
BBX 8 9 0 0
BITMAP
40
40
40
7C
46
42
42
46
7C
ENDCHAR
STARTCHAR c
ENCODING 99
SWIDTH 517 0
DWIDTH 7 0
BBX 7 6 0 0
BITMAP
38
64
40
40
64
38
ENDCHAR
STARTCHAR d
ENCODING 100
SWIDTH 591 0
DWIDTH 8 0
BBX 8 9 0 0
BITMAP
02
02
02
3E
62
42
42
62
3E
ENDCHAR
STARTCHAR e
ENCODING 101
SWIDTH 517 0
DWIDTH 7 0
BBX 7 6 0 0
BITMAP
3C
44
7E
40
64
3C
ENDCHAR
STARTCHAR f
ENCODING 102
SWIDTH 369 0
DWIDTH 5 0
BBX 5 9 0 0
BITMAP
38
60
40
F8
40
40
40
40
40
ENDCHAR
STARTCHAR g
ENCODING 103
SWIDTH 517 0
DWIDTH 7 0
BBX 7 8 0 -2
BITMAP
7C
4C
4C
38
60
7C
84
7C
ENDCHAR
STARTCHAR h
ENCODING 104
SWIDTH 591 0
DWIDTH 8 0
BBX 8 9 0 0
BITMAP
40
40
40
7C
46
42
42
42
42
ENDCHAR
STARTCHAR i
ENCODING 105
SWIDTH 222 0
DWIDTH 3 0
BBX 3 9 0 0
BITMAP
00
40
00
40
40
40
40
40
40
ENDCHAR
STARTCHAR j
ENCODING 106
SWIDTH 222 0
DWIDTH 3 0
BBX 4 11 -1 -2
BITMAP
40
40
00
40
40
40
40
40
40
40
C0
ENDCHAR
STARTCHAR k
ENCODING 107
SWIDTH 517 0
DWIDTH 7 0
BBX 7 9 0 0
BITMAP
40
40
40
4C
58
70
50
48
44
ENDCHAR
STARTCHAR l
ENCODING 108
SWIDTH 295 0
DWIDTH 4 0
BBX 4 9 0 0
BITMAP
40
40
40
40
40
40
40
40
30
ENDCHAR
STARTCHAR m
ENCODING 109
SWIDTH 886 0
DWIDTH 12 0
BBX 12 6 0 0
BITMAP
7FC0
4620
4620
4620
4620
4620
ENDCHAR
STARTCHAR n
ENCODING 110
SWIDTH 591 0
DWIDTH 8 0
BBX 8 6 0 0
BITMAP
7C
46
42
42
42
42
ENDCHAR
STARTCHAR o
ENCODING 111
SWIDTH 591 0
DWIDTH 8 0
BBX 8 6 0 0
BITMAP
3C
66
42
42
66
3C
ENDCHAR
STARTCHAR p
ENCODING 112
SWIDTH 591 0
DWIDTH 8 0
BBX 8 8 0 -2
BITMAP
7C
46
42
42
46
7C
40
40
ENDCHAR
STARTCHAR q
ENCODING 113
SWIDTH 591 0
DWIDTH 8 0
BBX 8 8 0 -2
BITMAP
3E
62
42
42
62
3E
02
02
ENDCHAR
STARTCHAR r
ENCODING 114
SWIDTH 369 0
DWIDTH 5 0
BBX 5 6 0 0
BITMAP
58
60
40
40
40
40
ENDCHAR
STARTCHAR s
ENCODING 115
SWIDTH 443 0
DWIDTH 6 0
BBX 6 6 0 0
BITMAP
70
48
40
78
4C
38
ENDCHAR
STARTCHAR t
ENCODING 116
SWIDTH 369 0
DWIDTH 5 0
BBX 5 7 0 0
BITMAP
40
F8
40
40
40
60
38
ENDCHAR
STARTCHAR u
ENCODING 117
SWIDTH 591 0
DWIDTH 8 0
BBX 8 6 0 0
BITMAP
42
42
42
42
62
3E
ENDCHAR
STARTCHAR v
ENCODING 118
SWIDTH 517 0
DWIDTH 7 0
BBX 7 6 0 0
BITMAP
C6
44
6C
28
38
10
ENDCHAR
STARTCHAR w
ENCODING 119
SWIDTH 812 0
DWIDTH 11 0
BBX 11 6 0 0
BITMAP
4460
4E40
6A40
2BC0
3180
3180
ENDCHAR
STARTCHAR x
ENCODING 120
SWIDTH 517 0
DWIDTH 7 0
BBX 7 6 0 0
BITMAP
4C
28
30
38
68
C4
ENDCHAR
STARTCHAR y
ENCODING 121
SWIDTH 517 0
DWIDTH 7 0
BBX 7 8 0 -2
BITMAP
C6
44
6C
28
38
10
10
60
ENDCHAR
STARTCHAR z
ENCODING 122
SWIDTH 443 0
DWIDTH 6 0
BBX 6 6 0 0
BITMAP
7C
18
10
30
60
7C
ENDCHAR
STARTCHAR {
ENCODING 123
SWIDTH 369 0
DWIDTH 5 0
BBX 5 12 0 -2
BITMAP
30
20
20
20
60
40
60
20
20
20
20
30
ENDCHAR
STARTCHAR |
ENCODING 124
SWIDTH 222 0
DWIDTH 3 0
BBX 3 13 0 -3
BITMAP
40
40
40
40
40
40
40
40
40
40
40
40
40
ENDCHAR
STARTCHAR }
ENCODING 125
SWIDTH 369 0
DWIDTH 5 0
BBX 5 12 0 -2
BITMAP
60
20
20
20
20
10
20
20
20
20
20
40
ENDCHAR
STARTCHAR ~
ENCODING 126
SWIDTH 517 0
DWIDTH 7 0
BBX 7 5 0 0
BITMAP
74
5C
00
00
00
ENDCHAR
STARTCHAR U+00A0
ENCODING 160
SWIDTH 222 0
DWIDTH 3 0
BBX 3 16 0 -4
BITMAP
00
00
00
00
00
00
00
00
00
00
00
00
00
00
00
00
ENDCHAR
STARTCHAR U+00A1
ENCODING 161
SWIDTH 295 0
DWIDTH 4 0
BBX 4 9 0 -2
BITMAP
60
40
40
40
40
60
60
60
00
ENDCHAR
STARTCHAR U+00A2
ENCODING 162
SWIDTH 517 0
DWIDTH 7 0
BBX 7 7 0 -1
BITMAP
38
64
40
40
64
38
18
ENDCHAR
STARTCHAR U+00A3
ENCODING 163
SWIDTH 517 0
DWIDTH 7 0
BBX 7 9 0 0
BITMAP
1C
24
20
20
78
20
60
60
7C
ENDCHAR
STARTCHAR U+00A4
ENCODING 164
SWIDTH 591 0
DWIDTH 8 0
BBX 8 7 0 0
BITMAP
42
7E
64
66
64
7E
42
ENDCHAR
STARTCHAR U+00A5
ENCODING 165
SWIDTH 591 0
DWIDTH 8 0
BBX 8 9 0 0
BITMAP
42
62
24
7E
18
7E
18
18
18
ENDCHAR
STARTCHAR U+00A6
ENCODING 166
SWIDTH 222 0
DWIDTH 3 0
BBX 3 13 0 -3
BITMAP
40
40
40
40
40
00
00
00
40
40
40
40
40
ENDCHAR
STARTCHAR U+00A7
ENCODING 167
SWIDTH 443 0
DWIDTH 6 0
BBX 6 11 0 -2
BITMAP
78
48
40
70
5C
C4
6C
38
0C
CC
78
ENDCHAR
STARTCHAR U+00A8
ENCODING 168
SWIDTH 443 0
DWIDTH 6 0
BBX 6 9 0 0
BITMAP
FC
84
84
84
84
84
84
84
FC
ENDCHAR
STARTCHAR U+00A9
ENCODING 169
SWIDTH 738 0
DWIDTH 10 0
BBX 10 9 0 0
BITMAP
1E00
2180
4E80
5240
7040
5040
4E80
2180
1E00
ENDCHAR
STARTCHAR U+00AA
ENCODING 170
SWIDTH 295 0
DWIDTH 4 0
BBX 4 9 0 0
BITMAP
60
70
90
70
00
00
00
00
00
ENDCHAR
STARTCHAR U+00AB
ENCODING 171
SWIDTH 517 0
DWIDTH 7 0
BBX 7 6 0 0
BITMAP
00
00
00
00
00
00
ENDCHAR
STARTCHAR U+00AC
ENCODING 172
SWIDTH 517 0
DWIDTH 7 0
BBX 7 6 0 0
BITMAP
7C
04
04
04
00
00
ENDCHAR
STARTCHAR U+00AD
ENCODING 173
SWIDTH 369 0
DWIDTH 5 0
BBX 5 4 0 0
BITMAP
F8
00
00
00
ENDCHAR
STARTCHAR U+00AE
ENCODING 174
SWIDTH 738 0
DWIDTH 10 0
BBX 10 9 0 0
BITMAP
1E00
2180
4E80
4A40
4E40
4E40
4A80
2180
1E00
ENDCHAR
STARTCHAR U+00AF
ENCODING 175
SWIDTH 443 0
DWIDTH 6 0
BBX 6 9 0 0
BITMAP
FC
84
84
84
84
84
84
84
FC
ENDCHAR
STARTCHAR U+00B0
ENCODING 176
SWIDTH 369 0
DWIDTH 5 0
BBX 5 9 0 0
BITMAP
70
50
50
70
00
00
00
00
00
ENDCHAR
STARTCHAR U+00B1
ENCODING 177
SWIDTH 517 0
DWIDTH 7 0
BBX 7 8 0 0
BITMAP
10
10
7C
10
10
00
00
7C
ENDCHAR
STARTCHAR U+00B2
ENCODING 178
SWIDTH 295 0
DWIDTH 4 0
BBX 4 9 0 0
BITMAP
60
50
30
20
60
70
00
00
00
ENDCHAR
STARTCHAR U+00B3
ENCODING 179
SWIDTH 295 0
DWIDTH 4 0
BBX 4 9 0 0
BITMAP
F0
20
20
10
90
60
00
00
00
ENDCHAR
STARTCHAR U+00B4
ENCODING 180
SWIDTH 443 0
DWIDTH 6 0
BBX 6 9 0 0
BITMAP
FC
84
84
84
84
84
84
84
FC
ENDCHAR
STARTCHAR U+00B5
ENCODING 181
SWIDTH 591 0
DWIDTH 8 0
BBX 8 8 0 -2
BITMAP
46
46
46
46
66
7E
40
40
ENDCHAR
STARTCHAR U+00B6
ENCODING 182
SWIDTH 517 0
DWIDTH 7 0
BBX 7 11 0 -2
BITMAP
3E
74
74
74
34
14
14
14
14
14
14
ENDCHAR
STARTCHAR U+00B7
ENCODING 183
SWIDTH 222 0
DWIDTH 3 0
BBX 3 5 0 0
BITMAP
40
40
00
00
00
ENDCHAR
STARTCHAR U+00B8
ENCODING 184
SWIDTH 443 0
DWIDTH 6 0
BBX 6 9 0 0
BITMAP
FC
84
84
84
84
84
84
84
FC
ENDCHAR
STARTCHAR U+00B9
ENCODING 185
SWIDTH 222 0
DWIDTH 3 0
BBX 3 9 0 0
BITMAP
40
40
40
40
40
40
00
00
00
ENDCHAR
STARTCHAR U+00BA
ENCODING 186
SWIDTH 369 0
DWIDTH 5 0
BBX 5 9 0 0
BITMAP
70
88
88
70
00
00
00
00
00
ENDCHAR
STARTCHAR U+00BB
ENCODING 187
SWIDTH 517 0
DWIDTH 7 0
BBX 7 6 0 0
BITMAP
48
24
16
24
48
00
ENDCHAR
STARTCHAR U+00BC
ENCODING 188
SWIDTH 738 0
DWIDTH 10 0
BBX 11 9 0 0
BITMAP
0000
0000
0000
0000
0000
0000
0000
0000
0000
ENDCHAR
STARTCHAR U+00BD
ENCODING 189
SWIDTH 812 0
DWIDTH 11 0
BBX 11 9 0 0
BITMAP
4200
4200
4400
44C0
4920
4860
1040
10C0
20E0
ENDCHAR
STARTCHAR U+00BE
ENCODING 190
SWIDTH 812 0
DWIDTH 11 0
BBX 11 9 0 0
BITMAP
F100
2100
2200
1200
9440
64C0
0940
09E0
1040
ENDCHAR
STARTCHAR U+00BF
ENCODING 191
SWIDTH 443 0
DWIDTH 6 0
BBX 6 8 0 -2
BITMAP
10
10
10
10
30
40
40
78
ENDCHAR
STARTCHAR U+00C0
ENCODING 192
SWIDTH 665 0
DWIDTH 9 0
BBX 9 12 0 0
BITMAP
1800
0800
0000
0800
1800
1400
3400
2600
2200
7E00
4300
C100
ENDCHAR
STARTCHAR U+00C1
ENCODING 193
SWIDTH 665 0
DWIDTH 9 0
BBX 9 12 0 0
BITMAP
0400
0800
0000
0800
1800
1400
3400
2600
2200
7E00
4300
C100
ENDCHAR
STARTCHAR U+00C2
ENCODING 194
SWIDTH 665 0
DWIDTH 9 0
BBX 9 12 0 0
BITMAP
0C00
1400
0000
0800
1800
1400
3400
2600
2200
7E00
4300
C100
ENDCHAR
STARTCHAR U+00C3
ENCODING 195
SWIDTH 665 0
DWIDTH 9 0
BBX 9 12 0 0
BITMAP
1800
0C00
0000
0800
1800
1400
3400
2600
2200
7E00
4300
C100
ENDCHAR
STARTCHAR U+00C4
ENCODING 196
SWIDTH 665 0
DWIDTH 9 0
BBX 9 12 0 0
BITMAP
1400
1400
0000
0800
1800
1400
3400
2600
2200
7E00
4300
C100
ENDCHAR
STARTCHAR U+00C5
ENCODING 197
SWIDTH 665 0
DWIDTH 9 0
BBX 9 12 0 0
BITMAP
1800
1800
0000
0800
1800
1400
3400
2600
2200
7E00
4300
C100
ENDCHAR
STARTCHAR U+00C6
ENCODING 198
SWIDTH 886 0
DWIDTH 12 0
BBX 12 9 0 0
BITMAP
07E0
0E00
0A00
1A00
13C0
3E00
2200
4200
C3E0
ENDCHAR
STARTCHAR U+00C7
ENCODING 199
SWIDTH 665 0
DWIDTH 9 0
BBX 9 12 0 -3
BITMAP
1E00
3100
6000
4000
4000
4000
6000
3100
1E00
0800
0C00
0C00
ENDCHAR
STARTCHAR U+00C8
ENCODING 200
SWIDTH 591 0
DWIDTH 8 0
BBX 8 12 0 0
BITMAP
30
10
00
7E
60
60
60
7C
60
60
60
7E
ENDCHAR
STARTCHAR U+00C9
ENCODING 201
SWIDTH 591 0
DWIDTH 8 0
BBX 8 12 0 0
BITMAP
08
10
00
7E
60
60
60
7C
60
60
60
7E
ENDCHAR
STARTCHAR U+00CA
ENCODING 202
SWIDTH 591 0
DWIDTH 8 0
BBX 8 12 0 0
BITMAP
18
28
00
7E
60
60
60
7C
60
60
60
7E
ENDCHAR
STARTCHAR U+00CB
ENCODING 203
SWIDTH 591 0
DWIDTH 8 0
BBX 8 12 0 0
BITMAP
28
28
00
7E
60
60
60
7C
60
60
60
7E
ENDCHAR
STARTCHAR U+00CC
ENCODING 204
SWIDTH 295 0
DWIDTH 4 0
BBX 4 12 0 0
BITMAP
00
00
00
00
00
00
00
00
00
00
00
00
ENDCHAR
STARTCHAR U+00CD
ENCODING 205
SWIDTH 295 0
DWIDTH 4 0
BBX 4 12 0 0
BITMAP
20
40
00
60
60
60
60
60
60
60
60
60
ENDCHAR
STARTCHAR U+00CE
ENCODING 206
SWIDTH 295 0
DWIDTH 4 0
BBX 4 12 0 0
BITMAP
00
00
00
00
00
00
00
00
00
00
00
00
ENDCHAR
STARTCHAR U+00CF
ENCODING 207
SWIDTH 295 0
DWIDTH 4 0
BBX 6 12 -1 0
BITMAP
00
00
00
00
00
00
00
00
00
00
00
00
ENDCHAR
STARTCHAR U+00D0
ENCODING 208
SWIDTH 665 0
DWIDTH 9 0
BBX 9 9 0 0
BITMAP
7C00
6300
6100
6180
F980
6180
6100
6300
7C00
ENDCHAR
STARTCHAR U+00D1
ENCODING 209
SWIDTH 738 0
DWIDTH 10 0
BBX 10 12 0 0
BITMAP
1800
0C00
0000
6080
7080
7080
7880
6C80
6680
6280
6180
6180
ENDCHAR
STARTCHAR U+00D2
ENCODING 210
SWIDTH 812 0
DWIDTH 11 0
BBX 11 12 0 0
BITMAP
0C00
0400
0000
1E00
3180
6080
40C0
4040
40C0
6080
3180
1E00
ENDCHAR
STARTCHAR U+00D3
ENCODING 211
SWIDTH 812 0
DWIDTH 11 0
BBX 11 12 0 0
BITMAP
0200
0400
0000
1E00
3180
6080
40C0
4040
40C0
6080
3180
1E00
ENDCHAR
STARTCHAR U+00D4
ENCODING 212
SWIDTH 812 0
DWIDTH 11 0
BBX 11 12 0 0
BITMAP
0600
0A00
0000
1E00
3180
6080
40C0
4040
40C0
6080
3180
1E00
ENDCHAR
STARTCHAR U+00D5
ENCODING 213
SWIDTH 812 0
DWIDTH 11 0
BBX 11 12 0 0
BITMAP
0C00
0600
0000
1E00
3180
6080
40C0
4040
40C0
6080
3180
1E00
ENDCHAR
STARTCHAR U+00D6
ENCODING 214
SWIDTH 812 0
DWIDTH 11 0
BBX 11 12 0 0
BITMAP
0A00
0A00
0000
1E00
3180
6080
40C0
4040
40C0
6080
3180
1E00
ENDCHAR
STARTCHAR U+00D7
ENCODING 215
SWIDTH 517 0
DWIDTH 7 0
BBX 7 7 0 0
BITMAP
44
28
10
28
44
00
00
ENDCHAR
STARTCHAR U+00D8
ENCODING 216
SWIDTH 812 0
DWIDTH 11 0
BBX 11 9 0 0
BITMAP
1E40
3180
6180
42C0
4440
48C0
7080
3180
5E00
ENDCHAR
STARTCHAR U+00D9
ENCODING 217
SWIDTH 738 0
DWIDTH 10 0
BBX 10 12 0 0
BITMAP
1800
0800
0000
4080
4080
4080
4080
4080
4080
6180
3100
1E00
ENDCHAR
STARTCHAR U+00DA
ENCODING 218
SWIDTH 738 0
DWIDTH 10 0
BBX 10 12 0 0
BITMAP
0400
0800
0000
4080
4080
4080
4080
4080
4080
6180
3100
1E00
ENDCHAR
STARTCHAR U+00DB
ENCODING 219
SWIDTH 738 0
DWIDTH 10 0
BBX 10 12 0 0
BITMAP
0C00
1400
0000
4080
4080
4080
4080
4080
4080
6180
3100
1E00
ENDCHAR
STARTCHAR U+00DC
ENCODING 220
SWIDTH 738 0
DWIDTH 10 0
BBX 10 12 0 0
BITMAP
0A00
0A00
0000
4080
4080
4080
4080
4080
4080
6180
3100
1E00
ENDCHAR
STARTCHAR U+00DD
ENCODING 221
SWIDTH 591 0
DWIDTH 8 0
BBX 8 12 0 0
BITMAP
08
10
00
C2
66
24
3C
18
18
18
18
18
ENDCHAR
STARTCHAR U+00DE
ENCODING 222
SWIDTH 591 0
DWIDTH 8 0
BBX 8 9 0 0
BITMAP
60
60
7C
66
62
66
7C
60
60
ENDCHAR
STARTCHAR U+00DF
ENCODING 223
SWIDTH 517 0
DWIDTH 7 0
BBX 7 9 0 0
BITMAP
38
64
44
44
58
44
46
46
5C
ENDCHAR
STARTCHAR U+00E0
ENCODING 224
SWIDTH 517 0
DWIDTH 7 0
BBX 7 9 0 0
BITMAP
30
10
00
78
4C
3C
44
4C
74
ENDCHAR
STARTCHAR U+00E1
ENCODING 225
SWIDTH 517 0
DWIDTH 7 0
BBX 7 9 0 0
BITMAP
10
20
00
78
4C
3C
44
4C
74
ENDCHAR
STARTCHAR U+00E2
ENCODING 226
SWIDTH 517 0
DWIDTH 7 0
BBX 7 9 0 0
BITMAP
18
28
00
78
4C
3C
44
4C
74
ENDCHAR
STARTCHAR U+00E3
ENCODING 227
SWIDTH 517 0
DWIDTH 7 0
BBX 7 9 0 0
BITMAP
30
18
00
78
4C
3C
44
4C
74
ENDCHAR
STARTCHAR U+00E4
ENCODING 228
SWIDTH 517 0
DWIDTH 7 0
BBX 7 9 0 0
BITMAP
28
28
00
78
4C
3C
44
4C
74
ENDCHAR
STARTCHAR U+00E5
ENCODING 229
SWIDTH 517 0
DWIDTH 7 0
BBX 7 9 0 0
BITMAP
30
30
00
78
4C
3C
44
4C
74
ENDCHAR
STARTCHAR U+00E6
ENCODING 230
SWIDTH 812 0
DWIDTH 11 0
BBX 11 6 0 0
BITMAP
7B80
4C40
3FC0
4C00
4440
7B80
ENDCHAR
STARTCHAR U+00E7
ENCODING 231
SWIDTH 517 0
DWIDTH 7 0
BBX 7 9 0 -3
BITMAP
38
64
40
40
64
38
10
18
18
ENDCHAR
STARTCHAR U+00E8
ENCODING 232
SWIDTH 517 0
DWIDTH 7 0
BBX 7 9 0 0
BITMAP
30
10
00
3C
44
7E
40
64
3C
ENDCHAR
STARTCHAR U+00E9
ENCODING 233
SWIDTH 517 0
DWIDTH 7 0
BBX 7 9 0 0
BITMAP
08
10
00
3C
44
7E
40
64
3C
ENDCHAR
STARTCHAR U+00EA
ENCODING 234
SWIDTH 517 0
DWIDTH 7 0
BBX 7 9 0 0
BITMAP
18
28
00
3C
44
7E
40
64
3C
ENDCHAR
STARTCHAR U+00EB
ENCODING 235
SWIDTH 517 0
DWIDTH 7 0
BBX 7 9 0 0
BITMAP
28
28
00
3C
44
7E
40
64
3C
ENDCHAR
STARTCHAR U+00EC
ENCODING 236
SWIDTH 222 0
DWIDTH 3 0
BBX 4 9 -1 0
BITMAP
C0
40
00
40
40
40
40
40
40
ENDCHAR
STARTCHAR U+00ED
ENCODING 237
SWIDTH 222 0
DWIDTH 3 0
BBX 4 9 0 0
BITMAP
20
40
00
40
40
40
40
40
40
ENDCHAR
STARTCHAR U+00EE
ENCODING 238
SWIDTH 222 0
DWIDTH 3 0
BBX 5 9 -1 0
BITMAP
60
A0
00
40
40
40
40
40
40
ENDCHAR
STARTCHAR U+00EF
ENCODING 239
SWIDTH 222 0
DWIDTH 3 0
BBX 5 9 -1 0
BITMAP
50
50
00
20
20
20
20
20
20
ENDCHAR
STARTCHAR U+00F0
ENCODING 240
SWIDTH 517 0
DWIDTH 7 0
BBX 7 9 0 0
BITMAP
28
18
2C
3C
44
46
46
44
38
ENDCHAR
STARTCHAR U+00F1
ENCODING 241
SWIDTH 591 0
DWIDTH 8 0
BBX 8 9 0 0
BITMAP
30
18
00
7C
46
42
42
42
42
ENDCHAR
STARTCHAR U+00F2
ENCODING 242
SWIDTH 591 0
DWIDTH 8 0
BBX 8 9 0 0
BITMAP
30
10
00
3C
66
42
42
66
3C
ENDCHAR
STARTCHAR U+00F3
ENCODING 243
SWIDTH 591 0
DWIDTH 8 0
BBX 8 9 0 0
BITMAP
08
10
00
3C
66
42
42
66
3C
ENDCHAR
STARTCHAR U+00F4
ENCODING 244
SWIDTH 591 0
DWIDTH 8 0
BBX 8 9 0 0
BITMAP
18
28
00
3C
66
42
42
66
3C
ENDCHAR
STARTCHAR U+00F5
ENCODING 245
SWIDTH 591 0
DWIDTH 8 0
BBX 8 9 0 0
BITMAP
30
18
00
3C
66
42
42
66
3C
ENDCHAR
STARTCHAR U+00F6
ENCODING 246
SWIDTH 591 0
DWIDTH 8 0
BBX 8 9 0 0
BITMAP
14
14
00
3C
66
42
42
66
3C
ENDCHAR
STARTCHAR U+00F7
ENCODING 247
SWIDTH 517 0
DWIDTH 7 0
BBX 7 7 0 0
BITMAP
10
10
7C
00
10
10
00
ENDCHAR
STARTCHAR U+00F8
ENCODING 248
SWIDTH 591 0
DWIDTH 8 0
BBX 8 6 0 0
BITMAP
3E
66
4A
52
66
7C
ENDCHAR
STARTCHAR U+00F9
ENCODING 249
SWIDTH 591 0
DWIDTH 8 0
BBX 8 9 0 0
BITMAP
30
10
00
42
42
42
42
62
3E
ENDCHAR
STARTCHAR U+00FA
ENCODING 250
SWIDTH 591 0
DWIDTH 8 0
BBX 8 9 0 0
BITMAP
08
10
00
42
42
42
42
62
3E
ENDCHAR
STARTCHAR U+00FB
ENCODING 251
SWIDTH 591 0
DWIDTH 8 0
BBX 8 9 0 0
BITMAP
18
28
00
42
42
42
42
62
3E
ENDCHAR
STARTCHAR U+00FC
ENCODING 252
SWIDTH 591 0
DWIDTH 8 0
BBX 8 9 0 0
BITMAP
28
28
00
42
42
42
42
62
3E
ENDCHAR
STARTCHAR U+00FD
ENCODING 253
SWIDTH 517 0
DWIDTH 7 0
BBX 7 11 0 -2
BITMAP
08
10
00
C6
44
6C
28
38
10
10
60
ENDCHAR
STARTCHAR U+00FE
ENCODING 254
SWIDTH 591 0
DWIDTH 8 0
BBX 8 11 0 -2
BITMAP
40
40
40
7C
46
42
42
46
7C
40
40
ENDCHAR
STARTCHAR U+00FF
ENCODING 255
SWIDTH 517 0
DWIDTH 7 0
BBX 7 11 0 -2
BITMAP
28
28
00
C6
44
6C
28
38
10
10
60
ENDCHAR
STARTCHAR U+2013
ENCODING 8211
SWIDTH 517 0
DWIDTH 7 0
BBX 8 4 -1 0
BITMAP
FE
00
00
00
ENDCHAR
STARTCHAR U+2014
ENCODING 8212
SWIDTH 960 0
DWIDTH 13 0
BBX 15 4 -1 0
BITMAP
FFF8
0000
0000
0000
ENDCHAR
STARTCHAR U+2018
ENCODING 8216
SWIDTH 222 0
DWIDTH 3 0
BBX 3 9 0 0
BITMAP
40
40
40
00
00
00
00
00
00
ENDCHAR
STARTCHAR U+2019
ENCODING 8217
SWIDTH 222 0
DWIDTH 3 0
BBX 3 9 0 0
BITMAP
40
40
40
00
00
00
00
00
00
ENDCHAR
STARTCHAR U+201C
ENCODING 8220
SWIDTH 369 0
DWIDTH 5 0
BBX 5 9 0 0
BITMAP
50
50
50
00
00
00
00
00
00
ENDCHAR
STARTCHAR U+201D
ENCODING 8221
SWIDTH 369 0
DWIDTH 5 0
BBX 5 9 0 0
BITMAP
50
50
50
00
00
00
00
00
00
ENDCHAR
STARTCHAR U+2022
ENCODING 8226
SWIDTH 443 0
DWIDTH 6 0
BBX 6 5 0 0
BITMAP
20
70
20
00
00
ENDCHAR
STARTCHAR U+2026
ENCODING 8230
SWIDTH 886 0
DWIDTH 12 0
BBX 12 2 0 0
BITMAP
4420
4420
ENDCHAR
STARTCHAR U+20AC
ENCODING 8364
SWIDTH 591 0
DWIDTH 8 0
BBX 8 9 0 0
BITMAP
1E
32
60
FC
40
FC
60
32
1E
ENDCHAR
ENDFONT
