STARTFONT 2.1
COMMENT Converted from Johnston100 W03 Regular.ttf at 39px with ttf2bdf.py (Pillow, 1-bit, no AA)
FONT -Misc-Johnston100-Medium-R-Normal--39-390-75-75-P-410-ISO10646-1
SIZE 39 75 75
FONTBOUNDINGBOX 41 45 -2 -10
STARTPROPERTIES 9
FOUNDRY "Misc"
FAMILY_NAME "Johnston100"
WEIGHT_NAME "Medium"
SLANT "R"
PIXEL_SIZE 39
RESOLUTION_X 75
RESOLUTION_Y 75
FONT_ASCENT 35
FONT_DESCENT 10
ENDPROPERTIES
CHARS 200
STARTCHAR space
ENCODING 32
SWIDTH 246 0
DWIDTH 10 0
BBX 10 45 0 -10
BITMAP
0000
0000
0000
0000
0000
0000
0000
0000
0000
0000
0000
0000
0000
0000
0000
0000
0000
0000
0000
0000
0000
0000
0000
0000
0000
0000
0000
0000
0000
0000
0000
0000
0000
0000
0000
0000
0000
0000
0000
0000
0000
0000
0000
0000
0000
ENDCHAR
STARTCHAR !
ENCODING 33
SWIDTH 271 0
DWIDTH 11 0
BBX 11 27 0 0
BITMAP
0F00
0F00
0F00
0F00
0F00
0F00
0F00
0F00
0F00
0F00
0F00
0E00
0E00
0E00
0E00
0E00
0E00
0E00
0E00
0E00
0000
0000
0400
0E00
1F00
0E00
0400
ENDCHAR
STARTCHAR "
ENCODING 34
SWIDTH 394 0
DWIDTH 16 0
BBX 16 27 0 0
BITMAP
1C38
1C38
1C38
1C38
1C38
1C38
1C38
1C38
1C38
0818
0000
0000
0000
0000
0000
0000
0000
0000
0000
0000
0000
0000
0000
0000
0000
0000
0000
ENDCHAR
STARTCHAR U+0023
ENCODING 35
SWIDTH 738 0
DWIDTH 30 0
BBX 30 27 0 0
BITMAP
00030180
000E0700
000E0700
000E0700
001C0F00
001C0E00
001C0E00
003C0E00
0FFFFFF0
0FFFFFF0
0FFFFFF0
00703C00
00703800
00703800
00E07800
00E07000
3FFFFFC0
3FFFFFC0
7FFFFF80
01C0E000
01C0E000
0381E000
0381C000
0381C000
0381C000
0703C000
04020000
ENDCHAR
STARTCHAR $
ENCODING 36
SWIDTH 492 0
DWIDTH 20 0
BBX 20 32 0 -3
BITMAP
00E000
00E000
00E000
07FC00
0FFE00
1FFF00
1E1E00
3E0400
3C0000
3E0000
1E0000
1F8000
0FE000
07F800
03FC00
00FF00
003F80
000F80
0007C0
0003C0
0003C0
1003C0
3803C0
7C07C0
3E0F80
3FFF80
1FFF00
0FFE00
03F800
00E000
00E000
00E000
ENDCHAR
STARTCHAR %
ENCODING 37
SWIDTH 714 0
DWIDTH 29 0
BBX 29 27 0 0
BITMAP
07C00E00
0FF01C00
1FF01C00
3C783800
38383800
38387000
38387000
3C78E000
1FF0E000
0FF1C000
07C1C000
00038000
00038000
00070000
00070000
000E0000
000E1F00
001C3F80
001C7FC0
0038F1E0
0038E0E0
0070E0E0
0070E0E0
00E0F1E0
00E07FC0
01C07F80
01C01F00
ENDCHAR
STARTCHAR &
ENCODING 38
SWIDTH 665 0
DWIDTH 27 0
BBX 27 27 0 0
BITMAP
007C0000
01FF0000
03FF8000
07C7C000
0783C000
0F03C000
0F03C000
0783C000
07C7C000
03CF8000
03FF0000
01FE0000
03FC0000
07FC0F00
0FFE0F00
1F1F1E00
3E0F9E00
3C07BC00
3C07FC00
3C03F800
3C01F000
3E01F800
3F07FC00
1FFFFE00
0FFF9F00
07FE0F80
01F807C0
ENDCHAR
STARTCHAR '
ENCODING 39
SWIDTH 222 0
DWIDTH 9 0
BBX 9 27 0 0
BITMAP
1C00
1C00
1C00
1C00
1C00
1C00
1C00
1C00
1C00
0800
0000
0000
0000
0000
0000
0000
0000
0000
0000
0000
0000
0000
0000
0000
0000
0000
0000
ENDCHAR
STARTCHAR (
ENCODING 40
SWIDTH 246 0
DWIDTH 10 0
BBX 10 32 0 -3
BITMAP
0380
0700
0700
0F00
0E00
0E00
1E00
1E00
1C00
1C00
1C00
3C00
3C00
3C00
3C00
3C00
3C00
3C00
3C00
3C00
3C00
1C00
1C00
1C00
1E00
1E00
0E00
0E00
0F00
0700
0780
0380
ENDCHAR
STARTCHAR )
ENCODING 41
SWIDTH 246 0
DWIDTH 10 0
BBX 10 32 0 -3
BITMAP
7800
3800
3C00
3C00
1C00
1E00
1E00
0E00
0E00
0F00
0F00
0F00
0F00
0F00
0F00
0F00
0F00
0F00
0F00
0F00
0F00
0F00
0F00
0E00
0E00
1E00
1E00
1C00
1C00
3C00
3800
7800
ENDCHAR
STARTCHAR *
ENCODING 42
SWIDTH 394 0
DWIDTH 16 0
BBX 16 27 0 0
BITMAP
03C0
0380
1188
399C
7DBC
1FF8
07E0
07C0
1FF8
7DBC
399C
1188
0380
03C0
0000
0000
0000
0000
0000
0000
0000
0000
0000
0000
0000
0000
0000
ENDCHAR
STARTCHAR +
ENCODING 43
SWIDTH 517 0
DWIDTH 21 0
BBX 21 21 0 0
BITMAP
007000
007000
007000
007000
007000
007000
1FFFC0
1FFFC0
1FFFC0
007000
007000
007000
007000
007000
007000
000000
000000
000000
000000
000000
000000
ENDCHAR
STARTCHAR ,
ENCODING 44
SWIDTH 246 0
DWIDTH 10 0
BBX 10 11 0 -5
BITMAP
0C00
1C00
3E00
1E00
0E00
0E00
0C00
1800
1000
0000
0000
ENDCHAR
STARTCHAR -
ENCODING 45
SWIDTH 369 0
DWIDTH 15 0
BBX 15 12 0 0
BITMAP
7FFC
7FFC
7FFC
7FFC
0000
0000
0000
0000
0000
0000
0000
0000
ENDCHAR
STARTCHAR .
ENCODING 46
SWIDTH 246 0
DWIDTH 10 0
BBX 10 5 0 0
BITMAP
0800
1C00
3E00
1E00
0C00
ENDCHAR
STARTCHAR /
ENCODING 47
SWIDTH 320 0
DWIDTH 13 0
BBX 13 32 0 -3
BITMAP
0070
0070
00F0
00F0
00E0
00E0
01E0
01C0
01C0
03C0
03C0
0380
0380
0780
0700
0700
0F00
0F00
0E00
0E00
1E00
1C00
1C00
3C00
3C00
3800
3800
7800
7000
7000
F000
F000
ENDCHAR
STARTCHAR 0
ENCODING 48
SWIDTH 566 0
DWIDTH 23 0
BBX 23 27 0 0
BITMAP
007C00
01FF00
03FF80
07FFC0
07C7C0
0F83E0
0F01E0
1F01E0
1E00F0
1E00F0
1E00F0
1E00F0
1E00F0
1E00F0
1E00F0
1E00F0
1E00F0
1E00F0
1E00F0
1E01E0
0F01E0
0F83E0
07C7C0
07FFC0
03FF80
01FF00
007C00
ENDCHAR
STARTCHAR 1
ENCODING 49
SWIDTH 271 0
DWIDTH 11 0
BBX 11 27 0 0
BITMAP
0200
0600
0E00
0E00
0E00
0E00
0E00
0E00
0E00
0E00
0E00
0E00
0E00
0E00
0E00
0E00
0E00
0E00
0E00
0E00
0E00
0E00
0E00
0E00
0E00
0E00
0E00
ENDCHAR
STARTCHAR 2
ENCODING 50
SWIDTH 468 0
DWIDTH 19 0
BBX 19 27 0 0
BITMAP
01F800
07FE00
0FFF00
1FFF00
1E0F80
1C0780
180780
100780
000780
000780
000780
000F00
000F00
001E00
003E00
003C00
007C00
00F800
00F000
01F000
01E000
03C000
07C000
07FFC0
0FFFC0
1FFFC0
1FFFC0
ENDCHAR
STARTCHAR 3
ENCODING 51
SWIDTH 492 0
DWIDTH 20 0
BBX 20 27 0 0
BITMAP
3FFFC0
3FFFC0
3FFF80
3FFF00
000F00
001E00
003C00
003C00
007800
00F800
00FC00
01FF00
021F80
000780
0003C0
0003C0
0001E0
0001E0
0001E0
0003E0
1003C0
3807C0
7E0FC0
3FFF80
1FFF00
0FFE00
03F000
ENDCHAR
STARTCHAR 4
ENCODING 52
SWIDTH 566 0
DWIDTH 23 0
BBX 23 27 0 0
BITMAP
000000
000040
0000C0
0001C0
0003C0
0007C0
0007C0
000FC0
001FC0
003FC0
007BC0
00F3C0
01E3C0
01E3C0
03C3C0
0783C0
0F03C0
1FFFFC
3FFFFC
7FFFFC
0003C0
0003C0
0003C0
0003C0
0003C0
0003C0
0003C0
ENDCHAR
STARTCHAR 5
ENCODING 53
SWIDTH 492 0
DWIDTH 20 0
BBX 20 27 0 0
BITMAP
0FFFC0
0FFF80
0FFF80
0FFF80
0F0000
0F0000
0F0000
0E0000
0E0000
1FF000
1FFC00
1FFE00
183F00
000F80
000780
000780
0003C0
0003C0
0003C0
000780
200780
700F80
FC1F00
7FFF00
3FFE00
1FFC00
07E000
ENDCHAR
STARTCHAR 6
ENCODING 54
SWIDTH 517 0
DWIDTH 21 0
BBX 21 27 0 0
BITMAP
003E00
007C00
00F800
01F000
03E000
03C000
07C000
0F8000
0F0000
1F0000
1EFC00
1FFF00
3FFF80
3FFFC0
3E07C0
3C03E0
3C01E0
3C01E0
3C01E0
3C01E0
3C01E0
3E03C0
1F07C0
1FFF80
0FFF00
07FE00
01F800
ENDCHAR
STARTCHAR 7
ENCODING 55
SWIDTH 468 0
DWIDTH 19 0
BBX 19 27 0 0
BITMAP
3FFFC0
3FFFC0
3FFF80
3FFF80
000780
000F00
000F00
001E00
001E00
003C00
003C00
007C00
007800
007800
00F000
00F000
01E000
01E000
03E000
03C000
07C000
078000
078000
0F0000
0F0000
1F0000
1E0000
ENDCHAR
STARTCHAR 8
ENCODING 56
SWIDTH 492 0
DWIDTH 20 0
BBX 20 27 0 0
BITMAP
00F800
03FE00
07FF00
0F8F80
0E0780
1E0380
1E03C0
1E0380
0F0780
0F8F80
07FF00
03FC00
03FE00
07FF00
0F9F80
1F07C0
1E03C0
3C01E0
3C01E0
3C01E0
3C01E0
3E03E0
1F07C0
1FFFC0
0FFF80
07FE00
01F800
ENDCHAR
STARTCHAR 9
ENCODING 57
SWIDTH 517 0
DWIDTH 21 0
BBX 21 27 0 0
BITMAP
00FC00
03FE00
0FFF80
0FFF80
1F07C0
1E03C0
3C03E0
3C01E0
3C01E0
3C01E0
3C01E0
3E01E0
1F07E0
1FFFE0
0FFFC0
07FFC0
01F3C0
000780
000F80
000F00
001F00
003E00
007E00
007C00
00F800
01F000
03E000
ENDCHAR
STARTCHAR :
ENCODING 58
SWIDTH 271 0
DWIDTH 11 0
BBX 11 20 0 0
BITMAP
0400
0E00
1F00
0F00
0600
0000
0000
0000
0000
0000
0000
0000
0000
0000
0000
0400
0E00
1F00
0F00
0600
ENDCHAR
STARTCHAR ;
ENCODING 59
SWIDTH 271 0
DWIDTH 11 0
BBX 11 24 0 -5
BITMAP
0400
0E00
1F00
0F00
0600
0000
0000
0000
0000
0000
0000
0000
0000
0000
0600
0E00
1F00
0F00
0700
0700
0600
0C00
0800
0000
ENDCHAR
STARTCHAR U+003C
ENCODING 60
SWIDTH 517 0
DWIDTH 21 0
BBX 21 23 0 0
BITMAP
000040
0001C0
0007C0
001FC0
007F80
01FE00
07F800
0FE000
1F8000
1E0000
1FC000
0FF000
03FC00
00FF80
003FC0
000FC0
0003C0
000040
000000
000000
000000
000000
000000
ENDCHAR
STARTCHAR =
ENCODING 61
SWIDTH 517 0
DWIDTH 21 0
BBX 21 19 0 0
BITMAP
1FFFC0
1FFFC0
1FFFC0
000000
000000
000000
000000
000000
1FFFC0
1FFFC0
1FFFC0
000000
000000
000000
000000
000000
000000
000000
000000
ENDCHAR
STARTCHAR U+003E
ENCODING 62
SWIDTH 517 0
DWIDTH 21 0
BBX 21 23 0 0
BITMAP
100000
1C0000
1F0000
1FC000
0FF000
03FC00
00FE00
003F80
000FC0
0003C0
001FC0
007F80
01FE00
0FF800
1FE000
1F8000
1C0000
100000
000000
000000
000000
000000
000000
ENDCHAR
STARTCHAR ?
ENCODING 63
SWIDTH 443 0
DWIDTH 18 0
BBX 18 27 0 0
BITMAP
07E000
1FF800
3FFC00
7FFE00
7C3E00
301F00
100F00
000F00
001F00
001E00
007E00
00FC00
03F800
07E000
078000
078000
078000
07C000
03C000
018000
000000
008000
01C000
03E000
07C000
038000
010000
ENDCHAR
STARTCHAR @
ENCODING 64
SWIDTH 935 0
DWIDTH 38 0
BBX 38 34 0 -7
BITMAP
0001FF0000
000FFFE000
003FFFF800
007F00FC00
00F8003F00
01E0000F00
03C0000780
07800003C0
0700FE61C0
0F03FFC1E0
0E07FFC0E0
1E0F83C0E0
1C0F01C0E0
1C1E01C0E0
3C1E01C0E0
3C1C03C0E0
383C03C0E0
383C03C0E0
383C0380E0
3C3C0381E0
3C3C0381C0
3C1C0383C0
1C1E07C780
1C1F0FFF00
1E0FFFFE00
0E07FCFC00
0F01F00000
0780000000
03C0000000
01F0004000
00FC03C000
007FFFC000
001FFFC000
0003FE0000
ENDCHAR
STARTCHAR A
ENCODING 65
SWIDTH 640 0
DWIDTH 26 0
BBX 26 27 0 0
BITMAP
001E0000
001E0000
003F0000
003F0000
003F0000
007F8000
007F8000
00F3C000
00F3C000
00F3C000
01E1E000
01E1E000
03C0F000
03C0F000
03C0F000
07807800
07807800
0FFFFC00
0FFFFC00
0FFFFC00
1FFFFE00
1E001E00
1E001F00
3C000F00
3C000F00
7C000780
78000780
ENDCHAR
STARTCHAR B
ENCODING 66
SWIDTH 591 0
DWIDTH 24 0
BBX 24 27 0 0
BITMAP
0FFC00
0FFF00
0FFF80
0F07C0
0F03C0
0F01E0
0F01E0
0F01E0
0F01E0
0F03C0
0F07C0
0FFF80
0FFF80
0FFFE0
0FFFF0
0F01F8
0F0078
0F0078
0F003C
0F003C
0F007C
0F0078
0F01F8
0FFFF0
0FFFF0
0FFFC0
0FFF00
ENDCHAR
STARTCHAR C
ENCODING 67
SWIDTH 665 0
DWIDTH 27 0
BBX 27 27 0 0
BITMAP
000FF000
003FFE00
00FFFF00
01FFFF00
03F80F00
07E00100
0F800000
0F000000
1F000000
1E000000
1E000000
3C000000
3C000000
3C000000
3C000000
3E000000
1E000000
1E000000
1F000000
0F000000
0F800000
07E00100
03F80F00
01FFFF00
00FFFF00
003FFE00
000FF000
ENDCHAR
STARTCHAR D
ENCODING 68
SWIDTH 689 0
DWIDTH 28 0
BBX 28 27 0 0
BITMAP
0FFF0000
0FFFE000
0FFFF800
0FFFFC00
0F01FE00
0F003F00
0F001F00
0F000F80
0F000780
0F0007C0
0F0003C0
0F0003C0
0F0003C0
0F0003C0
0F0003C0
0F0003C0
0F0003C0
0F0007C0
0F000780
0F000F80
0F001F00
0F003F00
0F01FE00
0FFFFC00
0FFFF000
0FFFE000
0FFF0000
ENDCHAR
STARTCHAR E
ENCODING 69
SWIDTH 566 0
DWIDTH 23 0
BBX 23 27 0 0
BITMAP
0FFFF0
0FFFF0
0FFFF0
0FFFF0
0F0000
0F0000
0F0000
0F0000
0F0000
0F0000
0FFF80
0FFF80
0FFF80
0FFF80
0F0000
0F0000
0F0000
0F0000
0F0000
0F0000
0F0000
0F0000
0F0000
0FFFF8
0FFFF8
0FFFF8
0FFFF8
ENDCHAR
STARTCHAR F
ENCODING 70
SWIDTH 517 0
DWIDTH 21 0
BBX 21 27 0 0
BITMAP
0FFFF0
0FFFF0
0FFFF0
0FFFF0
0F0000
0F0000
0F0000
0F0000
0F0000
0F0000
0F0000
0FFF80
0FFF80
0FFF80
0FFF80
0F0000
0F0000
0F0000
0F0000
0F0000
0F0000
0F0000
0F0000
0F0000
0F0000
0F0000
0F0000
ENDCHAR
STARTCHAR G
ENCODING 71
SWIDTH 714 0
DWIDTH 29 0
BBX 29 27 0 0
BITMAP
000FF000
003FFE00
00FFFF00
01FFFF80
03F80F80
07E00380
0F800080
0F000000
1F000000
1E000000
1E000000
3C00FFC0
3C00FFC0
3C00FFC0
3C00FFC0
3C0003C0
1E0003C0
1E0003C0
1F0003C0
0F0003C0
0F8003C0
07E003C0
03F80FC0
01FFFFC0
00FFFF80
007FFE00
000FF000
ENDCHAR
STARTCHAR H
ENCODING 72
SWIDTH 714 0
DWIDTH 29 0
BBX 29 27 0 0
BITMAP
0F000780
0F000780
0F000780
0F000780
0F000780
0F000780
0F000780
0F000780
0F000780
0F000780
0FFFFF80
0FFFFF80
0FFFFF80
0FFFFF80
0F000780
0F000780
0F000780
0F000780
0F000780
0F000780
0F000780
0F000780
0F000780
0F000780
0F000780
0F000780
0F000780
ENDCHAR
STARTCHAR I
ENCODING 73
SWIDTH 271 0
DWIDTH 11 0
BBX 11 27 0 0
BITMAP
0F00
0F00
0F00
0F00
0F00
0F00
0F00
0F00
0F00
0F00
0F00
0F00
0F00
0F00
0F00
0F00
0F00
0F00
0F00
0F00
0F00
0F00
0F00
0F00
0F00
0F00
0F00
ENDCHAR
STARTCHAR J
ENCODING 74
SWIDTH 468 0
DWIDTH 19 0
BBX 19 27 0 0
BITMAP
001E00
001E00
001E00
001E00
001E00
001E00
001E00
001E00
001E00
001E00
001E00
001E00
001E00
001E00
001E00
001E00
001E00
001E00
001E00
001E00
101E00
781E00
7C3E00
3FFC00
3FF800
1FF000
07E000
ENDCHAR
STARTCHAR K
ENCODING 75
SWIDTH 615 0
DWIDTH 25 0
BBX 25 27 0 0
BITMAP
0F003E00
0F007C00
0F00F800
0F01F000
0F03E000
0F0FC000
0F1F8000
0F3F0000
0F7E0000
0FFC0000
0FF80000
0FF00000
0FF00000
0FF80000
0FF80000
0F7C0000
0F3E0000
0F1F0000
0F0F8000
0F0FC000
0F07E000
0F03F000
0F01F000
0F00F800
0F007C00
0F003E00
0F001F00
ENDCHAR
STARTCHAR L
ENCODING 76
SWIDTH 517 0
DWIDTH 21 0
BBX 21 27 0 0
BITMAP
0F0000
0F0000
0F0000
0F0000
0F0000
0F0000
0F0000
0F0000
0F0000
0F0000
0F0000
0F0000
0F0000
0F0000
0F0000
0F0000
0F0000
0F0000
0F0000
0F0000
0F0000
0F0000
0F0000
0FFFF0
0FFFF0
0FFFF0
0FFFF0
ENDCHAR
STARTCHAR M
ENCODING 77
SWIDTH 837 0
DWIDTH 34 0
BBX 34 27 0 0
BITMAP
0F00003C00
0F80007C00
0FC000FC00
0FE001FC00
0FE003FC00
0FF003FC00
0FF807FC00
0F7C0FBC00
0F3E1F3C00
0F3E3E3C00
0F1F3E3C00
0F0FFC3C00
0F07F83C00
0F03F03C00
0F03E03C00
0F01E03C00
0F00C03C00
0F00003C00
0F00003C00
0F00003C00
0F00003C00
0F00003C00
0F00003C00
0F00003C00
0F00003C00
0F00003C00
0F00003C00
ENDCHAR
STARTCHAR N
ENCODING 78
SWIDTH 738 0
DWIDTH 30 0
BBX 30 27 0 0
BITMAP
0F0001E0
0F0001E0
0F8001E0
0FC001E0
0FE001E0
0FE001E0
0FF001E0
0FF801E0
0F7C01E0
0F3C01E0
0F3E01E0
0F1F01E0
0F0F81E0
0F0781E0
0F07C1E0
0F03E1E0
0F01F1E0
0F00F1E0
0F0079E0
0F007DE0
0F003FE0
0F001FE0
0F000FE0
0F000FE0
0F0007E0
0F0003E0
0F0001E0
ENDCHAR
STARTCHAR O
ENCODING 79
SWIDTH 788 0
DWIDTH 32 0
BBX 32 27 0 0
BITMAP
000FF000
003FFC00
00FFFF00
01FFFF80
03F81FC0
07E007E0
0F8001F0
0F0000F0
1F0000F8
1E000078
1E00007C
3C00003C
3C00003C
3C00003C
3C00003C
3C00003C
1E000078
1E000078
1F0000F8
0F0000F0
0F8001F0
07E007E0
03F81FC0
01FFFF80
00FFFF00
003FFC00
000FF000
ENDCHAR
STARTCHAR P
ENCODING 80
SWIDTH 566 0
DWIDTH 23 0
BBX 23 27 0 0
BITMAP
0FFF00
0FFFC0
0FFFE0
0FFFF0
0F03F0
0F00F8
0F0078
0F0078
0F0078
0F0078
0F0078
0F00F8
0F01F0
0FFFF0
0FFFE0
0FFFC0
0FFF00
0F0000
0F0000
0F0000
0F0000
0F0000
0F0000
0F0000
0F0000
0F0000
0F0000
ENDCHAR
STARTCHAR Q
ENCODING 81
SWIDTH 788 0
DWIDTH 32 0
BBX 32 28 0 -1
BITMAP
000FF000
003FFC00
00FFFF00
01FFFF80
03F81FC0
07E007E0
0F8001F0
0F0000F0
1F0000F8
1E000078
1E00007C
3C00003C
3C00003C
3C00003C
3C00003C
3C00003C
1E000078
1E000478
1F000EF8
0F001FF0
0F801FF0
07E00FE0
03F81FE0
01FFFFF0
00FFFFF8
003FFCF8
000FF070
00000020
ENDCHAR
STARTCHAR R
ENCODING 82
SWIDTH 566 0
DWIDTH 23 0
BBX 24 27 0 0
BITMAP
0FFC00
0FFF80
0FFFC0
0FFFE0
0F07E0
0F01E0
0F01F0
0F00F0
0F01F0
0F01E0
0F03E0
0FFFE0
0FFFC0
0FFF80
0FFE00
0F3E00
0F1F00
0F0F80
0F0F80
0F07C0
0F03E0
0F01F0
0F01F0
0F00F8
0F007C
0F007C
0F003E
ENDCHAR
STARTCHAR S
ENCODING 83
SWIDTH 492 0
DWIDTH 20 0
BBX 20 27 0 0
BITMAP
03F000
07FC00
0FFE00
1FFF00
1E1E00
3E0400
3C0000
3E0000
1E0000
1F8000
0FE000
07F800
03FE00
00FF00
003F80
000F80
0007C0
0003C0
0003C0
1003C0
3803C0
7C07C0
3E0F80
3FFF80
1FFF00
07FE00
03F000
ENDCHAR
STARTCHAR T
ENCODING 84
SWIDTH 566 0
DWIDTH 23 0
BBX 23 27 0 0
BITMAP
7FFFFC
7FFFFC
7FFFFC
7FFFFC
007800
007800
007800
007800
007800
007800
007800
007800
007800
007800
007800
007800
007800
007800
007800
007800
007800
007800
007800
007800
007800
007800
007800
ENDCHAR
STARTCHAR U
ENCODING 85
SWIDTH 738 0
DWIDTH 30 0
BBX 30 27 0 0
BITMAP
1E0001E0
1E0001E0
1E0001E0
1E0001E0
1E0001E0
1E0001E0
1E0001E0
1E0001E0
1E0001E0
1E0001E0
1E0001E0
1E0001E0
1E0001E0
1E0001E0
1E0001E0
1E0001E0
1F0001E0
0F0003E0
0F0003C0
0F8003C0
078007C0
07C00F80
03F03F00
01FFFF00
00FFFC00
007FF800
001FE000
ENDCHAR
STARTCHAR V
ENCODING 86
SWIDTH 615 0
DWIDTH 25 0
BBX 25 27 0 0
BITMAP
78000F00
7C000F00
3C001E00
3C001E00
3E003E00
1E003C00
1E003C00
0F007C00
0F007800
0F007800
0780F000
0780F000
07C0F000
03C1E000
03C1E000
01E1E000
01E3C000
01E3C000
00F3C000
00F78000
00F78000
007F8000
007F0000
003F0000
003E0000
003E0000
001E0000
ENDCHAR
STARTCHAR W
ENCODING 87
SWIDTH 935 0
DWIDTH 38 0
BBX 38 27 0 0
BITMAP
3C00000078
3C007800F0
3C007C00F0
3E00FC00F0
1E00FC01F0
1E00FE01E0
1E00FE01E0
0F01FE01E0
0F01EE03C0
0F01CF03C0
0F83CF03C0
0783C703C0
0783878780
0787878780
03C7878780
03C783C700
03C703CF00
03CF03CF00
01EF01EF00
01EE01FE00
01FE01FE00
00FE00FE00
00FC00FC00
00FC00FC00
007C00FC00
007C007C00
0078007800
ENDCHAR
STARTCHAR X
ENCODING 88
SWIDTH 640 0
DWIDTH 26 0
BBX 27 27 0 0
BITMAP
7C000F00
3E001F00
1F003E00
0F007C00
0F807800
07C0F800
03E1F000
01F3E000
01F3E000
00FFC000
007F8000
003F0000
003F0000
003F0000
007F8000
007F8000
00FFC000
01F3E000
03E1F000
03E0F000
07C0F800
0F807C00
0F003E00
1F001E00
3E001F00
7C000F80
780007C0
ENDCHAR
STARTCHAR Y
ENCODING 89
SWIDTH 566 0
DWIDTH 23 0
BBX 23 27 0 0
BITMAP
78003E
3C003C
3E0078
1E00F8
1F00F0
0F81E0
0783E0
07C3C0
03E780
01EF80
01FF00
00FF00
007E00
007C00
003C00
003C00
003C00
003C00
003C00
003C00
003C00
003C00
003C00
003C00
003C00
003C00
003C00
ENDCHAR
STARTCHAR Z
ENCODING 90
SWIDTH 591 0
DWIDTH 24 0
BBX 24 27 0 0
BITMAP
3FFFFE
3FFFFC
3FFFFC
3FFFF8
0000F0
0001F0
0001E0
0003C0
0007C0
000780
000F00
001F00
001E00
003C00
007C00
007800
00F000
01F000
01E000
03C000
07C000
078000
0F0000
1FFFFE
1FFFFE
3FFFFE
7FFFFE
ENDCHAR
STARTCHAR [
ENCODING 91
SWIDTH 320 0
DWIDTH 13 0
BBX 13 36 0 -5
BITMAP
1FF0
1FF0
1FF0
1E00
1E00
1E00
1E00
1E00
1E00
1E00
1E00
1E00
1E00
1E00
1E00
1E00
1E00
1E00
1E00
1E00
1E00
1E00
1E00
1E00
1E00
1E00
1E00
1E00
1E00
1E00
1E00
1E00
1E00
1FF0
1FF0
1FF0
ENDCHAR
STARTCHAR \
ENCODING 92
SWIDTH 320 0
DWIDTH 13 0
BBX 13 32 0 -3
BITMAP
F000
F000
7000
7000
7800
3800
3800
3C00
3C00
1C00
1C00
1E00
0E00
0E00
0F00
0F00
0700
0700
0780
0380
0380
03C0
03C0
01C0
01C0
01E0
00E0
00E0
00F0
00F0
0070
0070
ENDCHAR
STARTCHAR ]
ENCODING 93
SWIDTH 320 0
DWIDTH 13 0
BBX 13 36 0 -5
BITMAP
3FC0
3FC0
3FC0
01C0
01C0
01C0
01C0
01C0
01C0
01C0
01C0
01C0
01C0
01C0
01C0
01C0
01C0
01C0
01C0
01C0
01C0
01C0
01C0
01C0
01C0
01C0
01C0
01C0
01C0
01C0
01C0
01C0
01C0
3FC0
3FC0
3FC0
ENDCHAR
STARTCHAR ^
ENCODING 94
SWIDTH 566 0
DWIDTH 23 0
BBX 23 27 0 0
BITMAP
007800
00FC00
00FE00
01EE00
03CF00
038780
0783C0
0F03C0
0F01E0
1E00F0
3C00F0
000000
000000
000000
000000
000000
000000
000000
000000
000000
000000
000000
000000
000000
000000
000000
000000
ENDCHAR
STARTCHAR _
ENCODING 95
SWIDTH 492 0
DWIDTH 20 0
BBX 21 5 -1 -5
BITMAP
000000
000000
000000
FFFFF0
FFFFF0
ENDCHAR
STARTCHAR `
ENCODING 96
SWIDTH 443 0
DWIDTH 18 0
BBX 18 27 0 0
BITMAP
FFFFC0
FFFFC0
FFFFC0
E003C0
E003C0
E003C0
E003C0
E003C0
E003C0
E003C0
E003C0
E003C0
E003C0
E003C0
E003C0
E003C0
E003C0
E003C0
E003C0
E003C0
E003C0
E003C0
E003C0
E003C0
FFFFC0
FFFFC0
FFFFC0
ENDCHAR
STARTCHAR a
ENCODING 97
SWIDTH 492 0
DWIDTH 20 0
BBX 20 19 0 0
BITMAP
03F800
0FFE00
0FFF00
0FFF00
1C0F80
100780
007F80
03FF80
07FF80
1F8380
1E0380
3C0380
3C0380
3C0780
3E1F80
3FFF80
1FFF80
0FFB80
07E380
ENDCHAR
STARTCHAR b
ENCODING 98
SWIDTH 566 0
DWIDTH 23 0
BBX 23 27 0 0
BITMAP
1E0000
1E0000
1E0000
1E0000
1E0000
1E0000
1E0000
1E0000
1E7E00
1FFF80
1FFFE0
1FFFF0
1F83F0
1E00F8
1E0078
1E0078
1E003C
1E003C
1E003C
1E0078
1E0078
1E00F8
1F03F0
1FFFF0
1FFFE0
1FFFC0
1EFE00
ENDCHAR
STARTCHAR c
ENCODING 99
SWIDTH 492 0
DWIDTH 20 0
BBX 20 19 0 0
BITMAP
007E00
03FF80
07FFC0
0FFFC0
1FC1C0
1F0040
3E0000
3C0000
3C0000
3C0000
3C0000
3C0000
3E0000
1F0040
1FC1C0
0FFFC0
07FFC0
03FF80
007E00
ENDCHAR
STARTCHAR d
ENCODING 100
SWIDTH 566 0
DWIDTH 23 0
BBX 23 27 0 0
BITMAP
000070
000070
000070
000070
000070
000070
000070
000070
00FE70
03FFF0
07FFF0
0FFFF0
1F81F0
1F0070
3E0070
3C0070
3C0070
3C0070
3C0070
3C0070
3E0070
1F0070
1F81F0
0FFFF0
07FFF0
03FFF0
00FE70
ENDCHAR
STARTCHAR e
ENCODING 101
SWIDTH 517 0
DWIDTH 21 0
BBX 21 19 0 0
BITMAP
00FC00
03FF00
07FF80
0FFFC0
1F03E0
1E01E0
3C00E0
3FFFE0
3FFFF0
3FFFF0
3FFFF0
3C0000
3C0000
1E0020
1F81E0
0FFFE0
07FFE0
03FFC0
00FF00
ENDCHAR
STARTCHAR f
ENCODING 102
SWIDTH 369 0
DWIDTH 15 0
BBX 15 27 0 0
BITMAP
00FC
03FC
07FC
07FC
0F80
0F00
0F00
0E00
7FFC
7FFC
7FFC
7FFC
0E00
0E00
0E00
0E00
0E00
0E00
0E00
0E00
0E00
0E00
0E00
0E00
0E00
0E00
0E00
ENDCHAR
STARTCHAR g
ENCODING 103
SWIDTH 492 0
DWIDTH 20 0
BBX 20 26 0 -7
BITMAP
03FFE0
0FFFE0
1FFFE0
1FFFE0
3E0F00
3C0780
380380
3C0780
3E0F80
1FFF80
0FFF00
07FE00
0FF800
1E0000
1F8000
0FF800
07FF00
1FFF80
380FC0
7001E0
7001E0
7C03E0
7FFFE0
3FFFC0
1FFF80
07FC00
ENDCHAR
STARTCHAR h
ENCODING 104
SWIDTH 566 0
DWIDTH 23 0
BBX 23 27 0 0
BITMAP
1E0000
1E0000
1E0000
1E0000
1E0000
1E0000
1E0000
1E0000
1E7F00
1EFFC0
1FFFE0
1FFFE0
1F83F0
1F00F0
1E00F0
1E0078
1E0078
1E0078
1E0078
1E0078
1E0078
1E0078
1E0078
1E0078
1E0078
1E0078
1E0078
ENDCHAR
STARTCHAR i
ENCODING 105
SWIDTH 246 0
DWIDTH 10 0
BBX 10 26 0 0
BITMAP
0000
0C00
1E00
1E00
0C00
0000
0000
1E00
1E00
1E00
1E00
1E00
1E00
1E00
1E00
1E00
1E00
1E00
1E00
1E00
1E00
1E00
1E00
1E00
1E00
1E00
ENDCHAR
STARTCHAR j
ENCODING 106
SWIDTH 246 0
DWIDTH 10 0
BBX 11 33 -1 -7
BITMAP
0600
0F00
1F80
0F00
0600
0000
0000
0F00
0F00
0F00
0F00
0F00
0F00
0F00
0F00
0F00
0F00
0F00
0F00
0F00
0F00
0F00
0F00
0F00
0F00
0F00
0F00
0F00
1F00
FE00
FE00
FC00
F800
ENDCHAR
STARTCHAR k
ENCODING 107
SWIDTH 517 0
DWIDTH 21 0
BBX 21 27 0 0
BITMAP
1E0000
1E0000
1E0000
1E0000
1E0000
1E0000
1E0000
1E0000
1E03E0
1E07C0
1E0F80
1E1F00
1E3E00
1E7C00
1EF800
1FE000
1FC000
1FE000
1FF000
1EF800
1E7C00
1E3E00
1E1F00
1E0F80
1E07C0
1E03E0
1E01F0
ENDCHAR
STARTCHAR l
ENCODING 108
SWIDTH 320 0
DWIDTH 13 0
BBX 13 27 0 0
BITMAP
1E00
1E00
1E00
1E00
1E00
1E00
1E00
1E00
1E00
1E00
1E00
1E00
1E00
1E00
1E00
1E00
1E00
1E00
1E00
1E00
1E00
1E00
1F00
1FF0
0FF0
0FF0
03F0
ENDCHAR
STARTCHAR m
ENCODING 109
SWIDTH 886 0
DWIDTH 36 0
BBX 36 19 0 0
BITMAP
1E7E03F800
1FFF8FFC00
1FFFFFFF00
1FFFFFFF00
1F03FC1F80
1E01F00780
1E00F00780
1E00F00780
1E00F00380
1E00F00380
1E00F00380
1E00F00380
1E00F00380
1E00F00380
1E00F00380
1E00F00380
1E00F00380
1E00F00380
1E00F00380
ENDCHAR
STARTCHAR n
ENCODING 110
SWIDTH 566 0
DWIDTH 23 0
BBX 23 19 0 0
BITMAP
1E7F00
1EFFC0
1FFFE0
1FFFE0
1F83F0
1F00F0
1E00F0
1E0078
1E0078
1E0078
1E0078
1E0078
1E0078
1E0078
1E0078
1E0078
1E0078
1E0078
1E0078
ENDCHAR
STARTCHAR o
ENCODING 111
SWIDTH 591 0
DWIDTH 24 0
BBX 24 19 0 0
BITMAP
007E00
03FF80
07FFE0
0FFFF0
1F83F8
1F00F8
3E0078
3C003C
3C003C
3C003C
3C003C
3C003C
3E0078
1F00F8
1F81F0
0FFFF0
07FFE0
03FF80
00FE00
ENDCHAR
STARTCHAR p
ENCODING 112
SWIDTH 566 0
DWIDTH 23 0
BBX 23 26 0 -7
BITMAP
1EFE00
1FFF80
1FFFE0
1FFFF0
1F83F0
1E00F8
1E0078
1E0078
1E003C
1E003C
1E003C
1E0078
1E0078
1E00F8
1F03F0
1FFFF0
1FFFE0
1FFF80
1EFE00
1E0000
1E0000
1E0000
1E0000
1E0000
1E0000
1E0000
ENDCHAR
STARTCHAR q
ENCODING 113
SWIDTH 566 0
DWIDTH 23 0
BBX 23 26 0 -7
BITMAP
00FE70
03FFF0
07FFF0
0FFFF0
1F81F0
1F0070
3E0070
3C0070
3C0070
3C0070
3C0070
3C0070
3E0070
1F0070
1F81F0
0FFFF0
07FFF0
03FFF0
00FE70
000070
000070
000070
000070
000070
000070
000070
ENDCHAR
STARTCHAR r
ENCODING 114
SWIDTH 394 0
DWIDTH 16 0
BBX 16 19 0 0
BITMAP
1E7E
1EFE
1FFE
1FFE
1F80
1F00
1E00
1E00
1E00
1E00
1E00
1E00
1E00
1E00
1E00
1E00
1E00
1E00
1E00
ENDCHAR
STARTCHAR s
ENCODING 115
SWIDTH 468 0
DWIDTH 19 0
BBX 19 19 0 0
BITMAP
03F000
0FFC00
1FFE00
1FFE00
3E0E00
3C0200
3C0000
3E0000
1FE000
1FFC00
07FF00
00FF80
000F80
200780
3C0F80
3FFF80
3FFF00
1FFE00
03F800
ENDCHAR
STARTCHAR t
ENCODING 116
SWIDTH 394 0
DWIDTH 16 0
BBX 16 23 0 0
BITMAP
0E00
0E00
0E00
0E00
7FFE
7FFE
7FFE
7FFE
0E00
0E00
0E00
0E00
0E00
0E00
0E00
0E00
0F00
0F00
0F80
0FFE
07FE
03FE
01FE
ENDCHAR
STARTCHAR u
ENCODING 117
SWIDTH 566 0
DWIDTH 23 0
BBX 23 19 0 0
BITMAP
1E0070
1E0070
1E0070
1E0070
1E0070
1E0070
1E0070
1E0070
1E0070
1E0070
1E0070
1E0070
1E0070
1F0070
0F81F0
0FFFF0
07FFF0
03FFF0
00FE70
ENDCHAR
STARTCHAR v
ENCODING 118
SWIDTH 517 0
DWIDTH 21 0
BBX 21 19 0 0
BITMAP
7800F0
7800F0
3C01E0
3C01E0
1E01E0
1E03C0
1E03C0
0F0780
0F0780
078700
078F00
038F00
03DE00
03DE00
01FC00
01FC00
00F800
00F800
007800
ENDCHAR
STARTCHAR w
ENCODING 119
SWIDTH 837 0
DWIDTH 34 0
BBX 34 19 0 0
BITMAP
7801E00F00
3C01E00F00
3C03E00F00
3C03F01E00
1E07F01E00
1E07F81E00
1E07783C00
0F0F383C00
0F0F3C3C00
0F0E3C3800
079E1E7800
079C1E7800
07BC0E7000
03FC0FF000
03F80FF000
03F807E000
01F007E000
01F003E000
01F003C000
ENDCHAR
STARTCHAR x
ENCODING 120
SWIDTH 492 0
DWIDTH 20 0
BBX 20 19 0 0
BITMAP
3C03C0
3E0780
1E0F80
0F0F00
079E00
07FC00
03FC00
01F800
00F000
01F800
01F800
03FC00
079E00
0F1F00
0F0F00
1E0780
3C03C0
7C03E0
7801F0
ENDCHAR
STARTCHAR y
ENCODING 121
SWIDTH 517 0
DWIDTH 21 0
BBX 21 26 0 -7
BITMAP
7800F0
7800F0
3C01E0
3C01E0
1E01E0
1E03C0
0E03C0
0F0780
0F0780
078780
078F00
03CF00
03DE00
01DE00
01FC00
00FC00
00FC00
00F800
007800
007000
00F000
01F000
0FE000
0FC000
0F8000
0F0000
ENDCHAR
STARTCHAR z
ENCODING 122
SWIDTH 443 0
DWIDTH 18 0
BBX 18 19 0 0
BITMAP
3FFF80
3FFF80
3FFF00
3FFE00
001E00
003C00
007800
007800
00F000
01E000
01E000
03C000
078000
078000
0F0000
1FFF80
1FFF80
3FFF80
7FFF80
ENDCHAR
STARTCHAR {
ENCODING 123
SWIDTH 345 0
DWIDTH 14 0
BBX 14 35 0 -5
BITMAP
00F8
01F8
03F8
03C0
0780
0780
0780
0780
0780
0780
0780
0780
0780
0780
0F00
1F00
3E00
3C00
3E00
1F00
0F00
0780
0780
0780
0780
0780
0780
0780
0780
0780
0780
03C0
03F8
01F8
00F8
ENDCHAR
STARTCHAR |
ENCODING 124
SWIDTH 222 0
DWIDTH 9 0
BBX 9 39 0 -10
BITMAP
1C00
1C00
1C00
1C00
1C00
1C00
1C00
1C00
1C00
1C00
1C00
1C00
1C00
1C00
1C00
1C00
1C00
1C00
1C00
1C00
1C00
1C00
1C00
1C00
1C00
1C00
1C00
1C00
1C00
1C00
1C00
1C00
1C00
1C00
1C00
1C00
1C00
1C00
1C00
ENDCHAR
STARTCHAR }
ENCODING 125
SWIDTH 345 0
DWIDTH 14 0
BBX 14 35 0 -5
BITMAP
3C00
3F00
3F00
0F00
0780
0780
0780
0780
0780
0780
0780
0780
0780
0780
03C0
03E0
01F0
00F0
01F0
03E0
03C0
0780
0780
0780
0780
0780
0780
0780
0780
0780
0780
0F80
3F00
3E00
3C00
ENDCHAR
STARTCHAR ~
ENCODING 126
SWIDTH 517 0
DWIDTH 21 0
BBX 21 16 0 0
BITMAP
0780C0
0FC0E0
0FE0E0
1FF9C0
1CFFC0
3C3F80
381F80
180F00
000000
000000
000000
000000
000000
000000
000000
000000
ENDCHAR
STARTCHAR U+00A0
ENCODING 160
SWIDTH 246 0
DWIDTH 10 0
BBX 10 45 0 -10
BITMAP
0000
0000
0000
0000
0000
0000
0000
0000
0000
0000
0000
0000
0000
0000
0000
0000
0000
0000
0000
0000
0000
0000
0000
0000
0000
0000
0000
0000
0000
0000
0000
0000
0000
0000
0000
0000
0000
0000
0000
0000
0000
0000
0000
0000
0000
ENDCHAR
STARTCHAR U+00A1
ENCODING 161
SWIDTH 271 0
DWIDTH 11 0
BBX 11 27 0 -7
BITMAP
0400
0E00
1F00
0E00
0400
0000
0E00
0E00
0E00
0E00
0E00
0E00
0E00
0E00
0E00
0E00
0F00
0F00
0F00
0F00
0F00
0F00
0F00
0F00
0F00
0F00
0000
ENDCHAR
STARTCHAR U+00A2
ENCODING 162
SWIDTH 492 0
DWIDTH 20 0
BBX 20 24 0 -3
BITMAP
003C00
003C00
007E00
03FF80
07FFC0
0FFFC0
1FC1C0
1F0040
3E0000
3C0000
3C0000
3C0000
3C0000
3C0000
3E0000
1F0040
1FC1C0
0FFFC0
07FFC0
03FF80
007E00
003C00
003C00
003C00
ENDCHAR
STARTCHAR U+00A3
ENCODING 163
SWIDTH 517 0
DWIDTH 21 0
BBX 21 27 0 0
BITMAP
003F00
007F80
00FFC0
01FFE0
01E1C0
03C080
03C000
03C000
03C000
038000
038000
078000
078000
1FFE00
1FFE00
1FFE00
1FFE00
078000
078000
078000
0F0000
0F0000
0E0000
1FFFE0
1FFFE0
3FFFC0
3FFFC0
ENDCHAR
STARTCHAR U+00A4
ENCODING 164
SWIDTH 591 0
DWIDTH 24 0
BBX 24 20 0 0
BITMAP
080020
1E0070
3F7EF8
1FFFF8
0FFFF0
07FFE0
07C3E0
0F01E0
0F00F0
0F00F0
0F00F0
0F00F0
0F01E0
07C3E0
07FFE0
0FFFF0
1FFFF8
3F7EF8
1E0070
080020
ENDCHAR
STARTCHAR U+00A5
ENCODING 165
SWIDTH 591 0
DWIDTH 24 0
BBX 24 27 0 0
BITMAP
7C001E
3E003C
1E007C
1F0078
0F80F0
0781F0
07C1E0
03C3C0
01E7C0
1FF7F8
1FFFF8
1FFFF8
007E00
003E00
003C00
003C00
1FFFF8
1FFFF8
1FFFF8
003C00
003C00
003C00
003C00
003C00
003C00
003C00
003C00
ENDCHAR
STARTCHAR U+00A6
ENCODING 166
SWIDTH 222 0
DWIDTH 9 0
BBX 9 39 0 -10
BITMAP
1C00
1C00
1C00
1C00
1C00
1C00
1C00
1C00
1C00
1C00
1C00
1C00
1C00
1C00
1C00
0000
0000
0000
0000
0000
0000
0000
0000
0000
1C00
1C00
1C00
1C00
1C00
1C00
1C00
1C00
1C00
1C00
1C00
1C00
1C00
1C00
1C00
ENDCHAR
STARTCHAR U+00A7
ENCODING 167
SWIDTH 468 0
DWIDTH 19 0
BBX 19 34 0 -7
BITMAP
03F000
0FFC00
1FFE00
3E1F00
3C0700
3C0600
3C0000
3C0000
3E0000
1F8000
0FE000
07FC00
1FFE00
3F7F00
7C1F80
780780
780780
7803C0
7C0780
3F0780
3FFF00
0FFE00
07FE00
00FF00
001F80
000F80
000780
000780
180780
7C0780
3E1F00
1FFE00
0FFC00
03F000
ENDCHAR
STARTCHAR U+00A8
ENCODING 168
SWIDTH 443 0
DWIDTH 18 0
BBX 18 27 0 0
BITMAP
FFFFC0
FFFFC0
FFFFC0
E003C0
E003C0
E003C0
E003C0
E003C0
E003C0
E003C0
E003C0
E003C0
E003C0
E003C0
E003C0
E003C0
E003C0
E003C0
E003C0
E003C0
E003C0
E003C0
E003C0
E003C0
FFFFC0
FFFFC0
FFFFC0
ENDCHAR
STARTCHAR U+00A9
ENCODING 169
SWIDTH 763 0
DWIDTH 31 0
BBX 31 27 0 0
BITMAP
000FE000
007FFC00
00F01F00
01C00780
030001C0
0607F0E0
0E1FF860
0C3C1830
18700830
18F00038
10E00018
30E00018
31E00018
31E00018
30E00018
30E00018
18F00018
18780838
183C1830
0C1FF870
0C07F060
060000E0
030001C0
01C00780
00F01F00
007FFC00
000FF000
ENDCHAR
STARTCHAR U+00AA
ENCODING 170
SWIDTH 295 0
DWIDTH 12 0
BBX 12 27 0 0
BITMAP
3F80
3FC0
21C0
00E0
07E0
3FE0
38E0
70E0
70E0
71E0
3FE0
1EE0
0000
0000
0000
0000
0000
0000
0000
0000
0000
0000
0000
0000
0000
0000
0000
ENDCHAR
STARTCHAR U+00AB
ENCODING 171
SWIDTH 542 0
DWIDTH 22 0
BBX 22 19 0 0
BITMAP
00F0F0
01E1E0
03C3C0
078780
070700
0F0F00
1E1E00
3C3C00
3C3C00
1E1E00
0F0F00
070700
078780
03C3C0
01E1E0
00F0F0
000000
000000
000000
ENDCHAR
STARTCHAR U+00AC
ENCODING 172
SWIDTH 517 0
DWIDTH 21 0
BBX 21 19 0 0
BITMAP
1FFFC0
1FFFC0
1FFFC0
0001C0
0001C0
0001C0
0001C0
0001C0
0001C0
0001C0
0001C0
000000
000000
000000
000000
000000
000000
000000
000000
ENDCHAR
STARTCHAR U+00AD
ENCODING 173
SWIDTH 369 0
DWIDTH 15 0
BBX 15 12 0 0
BITMAP
7FFC
7FFC
7FFC
7FFC
0000
0000
0000
0000
0000
0000
0000
0000
ENDCHAR
STARTCHAR U+00AE
ENCODING 174
SWIDTH 763 0
DWIDTH 31 0
BBX 31 27 0 0
BITMAP
000FE000
007FFC00
00F01F00
01C00780
030001C0
060000E0
0C1FC060
0C1FF030
181C7830
181C3838
101C3818
301C3818
301C7818
301FF018
301FC018
301DE018
181CF018
181C7038
181C7830
0C1C3C70
0E1C1C60
060000E0
030001C0
01C00780
00F01E00
007FFC00
000FE000
ENDCHAR
STARTCHAR U+00AF
ENCODING 175
SWIDTH 443 0
DWIDTH 18 0
BBX 18 27 0 0
BITMAP
FFFFC0
FFFFC0
FFFFC0
E003C0
E003C0
E003C0
E003C0
E003C0
E003C0
E003C0
E003C0
E003C0
E003C0
E003C0
E003C0
E003C0
E003C0
E003C0
E003C0
E003C0
E003C0
E003C0
E003C0
E003C0
FFFFC0
FFFFC0
FFFFC0
ENDCHAR
STARTCHAR U+00B0
ENCODING 176
SWIDTH 369 0
DWIDTH 15 0
BBX 15 27 0 0
BITMAP
07C0
0FE0
1FF0
3C78
3838
3838
3838
3838
3C78
1FF0
0FE0
07C0
0000
0000
0000
0000
0000
0000
0000
0000
0000
0000
0000
0000
0000
0000
0000
ENDCHAR
STARTCHAR U+00B1
ENCODING 177
SWIDTH 517 0
DWIDTH 21 0
BBX 21 23 0 0
BITMAP
007000
007000
007000
007000
007000
007000
1FFFC0
1FFFC0
1FFFC0
007000
007000
007000
007000
007000
007000
000000
000000
000000
000000
1FFFC0
1FFFC0
1FFFC0
000000
ENDCHAR
STARTCHAR U+00B2
ENCODING 178
SWIDTH 320 0
DWIDTH 13 0
BBX 13 27 0 0
BITMAP
0F80
3FC0
3FE0
31E0
20E0
00E0
00E0
01E0
01C0
03C0
0780
0700
0F00
0E00
1FF0
1FF0
3FF0
0000
0000
0000
0000
0000
0000
0000
0000
0000
0000
ENDCHAR
STARTCHAR U+00B3
ENCODING 179
SWIDTH 320 0
DWIDTH 13 0
BBX 13 27 0 0
BITMAP
7FE0
7FE0
7FC0
01C0
0380
0780
0780
0FE0
00E0
00F0
0070
0070
2070
70E0
7FE0
3FC0
0F00
0000
0000
0000
0000
0000
0000
0000
0000
0000
0000
ENDCHAR
STARTCHAR U+00B4
ENCODING 180
SWIDTH 443 0
DWIDTH 18 0
BBX 18 27 0 0
BITMAP
FFFFC0
FFFFC0
FFFFC0
E003C0
E003C0
E003C0
E003C0
E003C0
E003C0
E003C0
E003C0
E003C0
E003C0
E003C0
E003C0
E003C0
E003C0
E003C0
E003C0
E003C0
E003C0
E003C0
E003C0
E003C0
FFFFC0
FFFFC0
FFFFC0
ENDCHAR
STARTCHAR U+00B5
ENCODING 181
SWIDTH 566 0
DWIDTH 23 0
BBX 23 26 0 -7
BITMAP
1E00F0
1E00F0
1E00F0
1E00F0
1E00F0
1E00F0
1E00F0
1E00F0
1E00F0
1E00F0
1E00F0
1E00F0
1E00F0
1F00F0
1F83F0
1FFFF0
1FFFF0
1FFFF0
1EFCF0
1E0000
1E0000
1E0000
1E0000
1E0000
1E0000
1E0000
ENDCHAR
STARTCHAR U+00B6
ENCODING 182
SWIDTH 517 0
DWIDTH 21 0
BBX 21 34 0 -7
BITMAP
01FFF0
07FFF0
1FF9C0
1FF9C0
3FF9C0
3FF9C0
3FF9C0
3FF9C0
3FF9C0
3FF9C0
1FF9C0
1FF9C0
0FF9C0
03F9C0
0039C0
0039C0
0039C0
0039C0
0039C0
0039C0
0039C0
0039C0
0039C0
0039C0
0039C0
0039C0
0039C0
0039C0
0039C0
0039C0
0039C0
0039C0
0039C0
0039C0
ENDCHAR
STARTCHAR U+00B7
ENCODING 183
SWIDTH 246 0
DWIDTH 10 0
BBX 10 16 0 0
BITMAP
0800
1C00
3E00
3E00
1C00
0800
0000
0000
0000
0000
0000
0000
0000
0000
0000
0000
ENDCHAR
STARTCHAR U+00B8
ENCODING 184
SWIDTH 443 0
DWIDTH 18 0
BBX 18 27 0 0
BITMAP
FFFFC0
FFFFC0
FFFFC0
E003C0
E003C0
E003C0
E003C0
E003C0
E003C0
E003C0
E003C0
E003C0
E003C0
E003C0
E003C0
E003C0
E003C0
E003C0
E003C0
E003C0
E003C0
E003C0
E003C0
E003C0
FFFFC0
FFFFC0
FFFFC0
ENDCHAR
STARTCHAR U+00B9
ENCODING 185
SWIDTH 222 0
DWIDTH 9 0
BBX 9 27 0 0
BITMAP
0400
0C00
1C00
1C00
1C00
1C00
1C00
1C00
1C00
1C00
1C00
1C00
1C00
1C00
1C00
1C00
1C00
0000
0000
0000
0000
0000
0000
0000
0000
0000
0000
ENDCHAR
STARTCHAR U+00BA
ENCODING 186
SWIDTH 369 0
DWIDTH 15 0
BBX 15 27 0 0
BITMAP
07C0
1FF0
3C78
3838
701C
701C
701C
701C
3838
3C78
1FF0
07C0
0000
0000
0000
0000
0000
0000
0000
0000
0000
0000
0000
0000
0000
0000
0000
ENDCHAR
STARTCHAR U+00BB
ENCODING 187
SWIDTH 542 0
DWIDTH 22 0
BBX 22 19 0 0
BITMAP
3C3C00
1E1E00
0F0F00
070780
078380
03C3C0
01E1E0
00F0F0
00F0F0
01E1E0
03C1C0
0783C0
070780
0F0F00
1E1E00
3C3C00
000000
000000
000000
ENDCHAR
STARTCHAR U+00BC
ENCODING 188
SWIDTH 763 0
DWIDTH 31 0
BBX 31 27 0 0
BITMAP
04000E00
0C000E00
1C001C00
1C001C00
1C003800
1C003800
1C007000
1C007000
1C00E000
1C00E000
1C01C000
1C01C010
1C038030
1C038070
1C0700F0
1C0701F0
1C0E03F0
000E0770
001C0670
001C0E70
00381C70
00383FFC
00707FFC
0070FFFC
00E00070
00E00070
01C00070
ENDCHAR
STARTCHAR U+00BD
ENCODING 189
SWIDTH 812 0
DWIDTH 33 0
BBX 33 27 0 0
BITMAP
04000E0000
0C000E0000
1C001C0000
1C001C0000
1C00380000
1C00380000
1C00700000
1C00700000
1C00E00000
1C00E00000
1C01C0F800
1C01C3FC00
1C0383FE00
1C03831E00
1C07040E00
1C07000E00
1C0E000E00
000E001E00
001C001C00
001C003C00
0038007800
0038007000
007000F000
007000E000
00E001FF00
00E001FF00
01C003FF00
ENDCHAR
STARTCHAR U+00BE
ENCODING 190
SWIDTH 837 0
DWIDTH 34 0
BBX 34 27 0 0
BITMAP
7FE0038000
7FE0038000
7FC0070000
01C0070000
03800E0000
07800E0000
07801C0000
0FE01C0000
00E0380000
00F0380000
0070700000
0070700200
2070E00600
70E0E00E00
7FE1C01E00
3FC1C03E00
0F03807E00
000380EE00
000700CE00
000701CE00
000E038E00
000E07FF80
001C0FFF80
001C1FFF80
0038000E00
0038000E00
0070000E00
ENDCHAR
STARTCHAR U+00BF
ENCODING 191
SWIDTH 443 0
DWIDTH 18 0
BBX 18 27 0 -7
BITMAP
004000
00E000
01F000
00F000
00E000
004000
000000
004000
00F000
01F000
007800
007800
007800
01F000
03F000
0FC000
1F8000
1E0000
3C0000
3C0000
3C0000
3C0200
1F0F00
1FFF80
0FFF00
07FE00
01F800
ENDCHAR
STARTCHAR U+00C0
ENCODING 192
SWIDTH 640 0
DWIDTH 26 0
BBX 26 35 0 0
BITMAP
00F00000
00780000
003C0000
001C0000
001E0000
000F0000
00000000
00000000
001E0000
001E0000
003F0000
003F0000
003F0000
007F8000
007F8000
00F3C000
00F3C000
00F3C000
01E1E000
01E1E000
03C0F000
03C0F000
03C0F000
07807800
07807800
0FFFFC00
0FFFFC00
0FFFFC00
1FFFFE00
1E001E00
1E001F00
3C000F00
3C000F00
7C000780
78000780
ENDCHAR
STARTCHAR U+00C1
ENCODING 193
SWIDTH 640 0
DWIDTH 26 0
BBX 26 35 0 0
BITMAP
0003C000
0007C000
00078000
000F0000
001E0000
001C0000
00000000
00000000
001E0000
001E0000
003F0000
003F0000
003F0000
007F8000
007F8000
00F3C000
00F3C000
00F3C000
01E1E000
01E1E000
03C0F000
03C0F000
03C0F000
07807800
07807800
0FFFFC00
0FFFFC00
0FFFFC00
1FFFFE00
1E001E00
1E001F00
3C000F00
3C000F00
7C000780
78000780
ENDCHAR
STARTCHAR U+00C2
ENCODING 194
SWIDTH 640 0
DWIDTH 26 0
BBX 26 35 0 0
BITMAP
001F0000
003F0000
003F8000
00738000
00E1C000
00C0E000
00000000
00000000
001E0000
001E0000
003F0000
003F0000
003F0000
007F8000
007F8000
00F3C000
00F3C000
00F3C000
01E1E000
01E1E000
03C0F000
03C0F000
03C0F000
07807800
07807800
0FFFFC00
0FFFFC00
0FFFFC00
1FFFFE00
1E001E00
1E001F00
3C000F00
3C000F00
7C000780
78000780
ENDCHAR
STARTCHAR U+00C3
ENCODING 195
SWIDTH 640 0
DWIDTH 26 0
BBX 26 34 0 0
BITMAP
00F00000
01FCE000
03FFC000
019FC000
00078000
00000000
00000000
001E0000
001E0000
003F0000
003F0000
003F0000
007F8000
007F8000
00F3C000
00F3C000
00F3C000
01E1E000
01E1E000
03C0F000
03C0F000
03C0F000
07807800
07807800
0FFFFC00
0FFFFC00
0FFFFC00
1FFFFE00
1E001E00
1E001F00
3C000F00
3C000F00
7C000780
78000780
ENDCHAR
STARTCHAR U+00C4
ENCODING 196
SWIDTH 640 0
DWIDTH 26 0
BBX 26 34 0 0
BITMAP
00404000
00E0E000
01F3F000
00E0E000
00404000
00000000
00000000
001E0000
001E0000
003F0000
003F0000
003F0000
007F8000
007F8000
00F3C000
00F3C000
00F3C000
01E1E000
01E1E000
03C0F000
03C0F000
03C0F000
07807800
07807800
0FFFFC00
0FFFFC00
0FFFFC00
1FFFFE00
1E001E00
1E001F00
3C000F00
3C000F00
7C000780
78000780
ENDCHAR
STARTCHAR U+00C5
ENCODING 197
SWIDTH 640 0
DWIDTH 26 0
BBX 26 36 0 0
BITMAP
001E0000
003F0000
00318000
00218000
00318000
003F0000
001E0000
00000000
00000000
001E0000
001E0000
003F0000
003F0000
003F0000
007F8000
007F8000
00F3C000
00F3C000
00F3C000
01E1E000
01E1E000
03C0F000
03C0F000
03C0F000
07807800
07807800
0FFFFC00
0FFFFC00
0FFFFC00
1FFFFE00
1E001E00
1E001F00
3C000F00
3C000F00
7C000780
78000780
ENDCHAR
STARTCHAR U+00C6
ENCODING 198
SWIDTH 886 0
DWIDTH 36 0
BBX 36 27 0 0
BITMAP
0001FFFFC0
0001FFFFC0
0003FFFFC0
0003FFFFC0
0007BC0000
000FBC0000
000F3C0000
001F3C0000
001E3C0000
003C3C0000
003C3FFE00
00783FFE00
00F83FFE00
00F03FFE00
01F03C0000
01FFFC0000
03FFFC0000
03FFFC0000
07FFFC0000
07803C0000
0F803C0000
1F003C0000
1E003C0000
3E003FFFC0
3C003FFFC0
7C003FFFC0
78003FFFC0
ENDCHAR
STARTCHAR U+00C7
ENCODING 199
SWIDTH 665 0
DWIDTH 27 0
BBX 27 35 0 -8
BITMAP
000FF000
003FFE00
00FFFF00
01FFFF00
03F80F00
07E00100
0F800000
0F000000
1F000000
1E000000
1E000000
3C000000
3C000000
3C000000
3C000000
3E000000
1E000000
1E000000
1F000000
0F000000
0F800000
07E00100
03F80F00
01FFFF00
00FFFF00
003FFE00
000FF000
00070000
0007C000
000FE000
0001E000
0000E000
0001E000
001FC000
001F0000
ENDCHAR
STARTCHAR U+00C8
ENCODING 200
SWIDTH 566 0
DWIDTH 23 0
BBX 23 35 0 0
BITMAP
01E000
00F000
007800
003800
003C00
001E00
000000
000000
0FFFF0
0FFFF0
0FFFF0
0FFFF0
0F0000
0F0000
0F0000
0F0000
0F0000
0F0000
0FFF80
0FFF80
0FFF80
0FFF80
0F0000
0F0000
0F0000
0F0000
0F0000
0F0000
0F0000
0F0000
0F0000
0FFFF8
0FFFF8
0FFFF8
0FFFF8
ENDCHAR
STARTCHAR U+00C9
ENCODING 201
SWIDTH 566 0
DWIDTH 23 0
BBX 23 35 0 0
BITMAP
000F00
001F00
001E00
003C00
007800
007000
000000
000000
0FFFF0
0FFFF0
0FFFF0
0FFFF0
0F0000
0F0000
0F0000
0F0000
0F0000
0F0000
0FFF80
0FFF80
0FFF80
0FFF80
0F0000
0F0000
0F0000
0F0000
0F0000
0F0000
0F0000
0F0000
0F0000
0FFFF8
0FFFF8
0FFFF8
0FFFF8
ENDCHAR
STARTCHAR U+00CA
ENCODING 202
SWIDTH 566 0
DWIDTH 23 0
BBX 23 35 0 0
BITMAP
003E00
007E00
007F00
00E700
01C380
0181C0
000000
000000
0FFFF0
0FFFF0
0FFFF0
0FFFF0
0F0000
0F0000
0F0000
0F0000
0F0000
0F0000
0FFF80
0FFF80
0FFF80
0FFF80
0F0000
0F0000
0F0000
0F0000
0F0000
0F0000
0F0000
0F0000
0F0000
0FFFF8
0FFFF8
0FFFF8
0FFFF8
ENDCHAR
STARTCHAR U+00CB
ENCODING 203
SWIDTH 566 0
DWIDTH 23 0
BBX 23 34 0 0
BITMAP
010100
038380
07CFC0
038380
010100
000000
000000
0FFFF0
0FFFF0
0FFFF0
0FFFF0
0F0000
0F0000
0F0000
0F0000
0F0000
0F0000
0FFF80
0FFF80
0FFF80
0FFF80
0F0000
0F0000
0F0000
0F0000
0F0000
0F0000
0F0000
0F0000
0F0000
0FFFF8
0FFFF8
0FFFF8
0FFFF8
ENDCHAR
STARTCHAR U+00CC
ENCODING 204
SWIDTH 271 0
DWIDTH 11 0
BBX 11 35 0 0
BITMAP
7800
3C00
1E00
0E00
0F00
0780
0000
0000
0F00
0F00
0F00
0F00
0F00
0F00
0F00
0F00
0F00
0F00
0F00
0F00
0F00
0F00
0F00
0F00
0F00
0F00
0F00
0F00
0F00
0F00
0F00
0F00
0F00
0F00
0F00
ENDCHAR
STARTCHAR U+00CD
ENCODING 205
SWIDTH 271 0
DWIDTH 11 0
BBX 12 35 0 0
BITMAP
0000
0000
0000
0000
0000
0000
0000
0000
0000
0000
0000
0000
0000
0000
0000
0000
0000
0000
0000
0000
0000
0000
0000
0000
0000
0000
0000
0000
0000
0000
0000
0000
0000
0000
0000
ENDCHAR
STARTCHAR U+00CE
ENCODING 206
SWIDTH 271 0
DWIDTH 11 0
BBX 12 35 0 0
BITMAP
0F80
1F80
1FC0
39C0
70E0
6070
0000
0000
0F00
0F00
0F00
0F00
0F00
0F00
0F00
0F00
0F00
0F00
0F00
0F00
0F00
0F00
0F00
0F00
0F00
0F00
0F00
0F00
0F00
0F00
0F00
0F00
0F00
0F00
0F00
ENDCHAR
STARTCHAR U+00CF
ENCODING 207
SWIDTH 271 0
DWIDTH 11 0
BBX 14 34 -1 0
BITMAP
2020
7070
F9F8
7070
2020
0000
0000
0780
0780
0780
0780
0780
0780
0780
0780
0780
0780
0780
0780
0780
0780
0780
0780
0780
0780
0780
0780
0780
0780
0780
0780
0780
0780
0780
ENDCHAR
STARTCHAR U+00D0
ENCODING 208
SWIDTH 689 0
DWIDTH 28 0
BBX 28 27 0 0
BITMAP
0FFF0000
0FFFE000
0FFFF800
0FFFFC00
0F01FE00
0F003F00
0F001F00
0F000F80
0F000780
0F0007C0
0F0003C0
0F0003C0
7FFC03C0
7FFC03C0
7FFC03C0
0F0003C0
0F0003C0
0F0007C0
0F000780
0F000F80
0F001F00
0F003F00
0F01FE00
0FFFFC00
0FFFF000
0FFFE000
0FFF0000
ENDCHAR
STARTCHAR U+00D1
ENCODING 209
SWIDTH 738 0
DWIDTH 30 0
BBX 30 34 0 0
BITMAP
003C0000
007F3800
00FFF000
0067F000
0001E000
00000000
00000000
0F0001E0
0F0001E0
0F8001E0
0FC001E0
0FE001E0
0FE001E0
0FF001E0
0FF801E0
0F7C01E0
0F3C01E0
0F3E01E0
0F1F01E0
0F0F81E0
0F0781E0
0F07C1E0
0F03E1E0
0F01F1E0
0F00F1E0
0F0079E0
0F007DE0
0F003FE0
0F001FE0
0F000FE0
0F000FE0
0F0007E0
0F0003E0
0F0001E0
ENDCHAR
STARTCHAR U+00D2
ENCODING 210
SWIDTH 788 0
DWIDTH 32 0
BBX 32 35 0 0
BITMAP
001E0000
000F0000
00078000
00038000
0003C000
0001E000
00000000
00000000
000FF000
003FFC00
00FFFF00
01FFFF80
03F81FC0
07E007E0
0F8001F0
0F0000F0
1F0000F8
1E000078
1E00007C
3C00003C
3C00003C
3C00003C
3C00003C
3C00003C
1E000078
1E000078
1F0000F8
0F0000F0
0F8001F0
07E007E0
03F81FC0
01FFFF80
00FFFF00
003FFC00
000FF000
ENDCHAR
STARTCHAR U+00D3
ENCODING 211
SWIDTH 788 0
DWIDTH 32 0
BBX 32 35 0 0
BITMAP
00007800
0000F800
0000F000
0001E000
0003C000
00038000
00000000
00000000
000FF000
003FFC00
00FFFF00
01FFFF80
03F81FC0
07E007E0
0F8001F0
0F0000F0
1F0000F8
1E000078
1E00007C
3C00003C
3C00003C
3C00003C
3C00003C
3C00003C
1E000078
1E000078
1F0000F8
0F0000F0
0F8001F0
07E007E0
03F81FC0
01FFFF80
00FFFF00
003FFC00
000FF000
ENDCHAR
STARTCHAR U+00D4
ENCODING 212
SWIDTH 788 0
DWIDTH 32 0
BBX 32 35 0 0
BITMAP
0003E000
0007E000
0007F000
000E7000
001C3800
00181C00
00000000
00000000
000FF000
003FFC00
00FFFF00
01FFFF80
03F81FC0
07E007E0
0F8001F0
0F0000F0
1F0000F8
1E000078
1E00007C
3C00003C
3C00003C
3C00003C
3C00003C
3C00003C
1E000078
1E000078
1F0000F8
0F0000F0
0F8001F0
07E007E0
03F81FC0
01FFFF80
00FFFF00
003FFC00
000FF000
ENDCHAR
STARTCHAR U+00D5
ENCODING 213
SWIDTH 788 0
DWIDTH 32 0
BBX 32 34 0 0
BITMAP
001E0000
003F9C00
007FF800
0033F800
0000F000
00000000
00000000
000FF000
003FFC00
00FFFF00
01FFFF80
03F81FC0
07E007E0
0F8001F0
0F0000F0
1F0000F8
1E000078
1E00007C
3C00003C
3C00003C
3C00003C
3C00003C
3C00003C
1E000078
1E000078
1F0000F8
0F0000F0
0F8001F0
07E007E0
03F81FC0
01FFFF80
00FFFF00
003FFC00
000FF000
ENDCHAR
STARTCHAR U+00D6
ENCODING 214
SWIDTH 788 0
DWIDTH 32 0
BBX 32 34 0 0
BITMAP
00080800
001C1C00
003E7E00
001C1C00
00080800
00000000
00000000
000FF000
003FFC00
00FFFF00
01FFFF80
03F81FC0
07E007E0
0F8001F0
0F0000F0
1F0000F8
1E000078
1E00007C
3C00003C
3C00003C
3C00003C
3C00003C
3C00003C
1E000078
1E000078
1F0000F8
0F0000F0
0F8001F0
07E007E0
03F81FC0
01FFFF80
00FFFF00
003FFC00
000FF000
ENDCHAR
STARTCHAR U+00D7
ENCODING 215
SWIDTH 517 0
DWIDTH 21 0
BBX 21 20 0 0
BITMAP
040100
0E0380
1F0780
0F8F00
03DE00
01FC00
00F800
00F800
03FC00
07DE00
0F8F80
1F07C0
0E0380
040100
000000
000000
000000
000000
000000
000000
ENDCHAR
STARTCHAR U+00D8
ENCODING 216
SWIDTH 788 0
DWIDTH 32 0
BBX 32 27 0 0
BITMAP
000FF010
003FFC38
00FFFF70
01FFFFF0
03F81FE0
07E007E0
0F8007F0
0F000FF0
1F001EF8
1E003C78
1E00787C
3C00F03C
3C01E03C
3C03C03C
3C07803C
3C0F003C
1E1E0078
1E3C0078
1F7800F8
0FF000F0
0FE001F0
07E007E0
07F81FC0
0FFFFF80
0EFFFF00
1C3FFC00
080FF000
ENDCHAR
STARTCHAR U+00D9
ENCODING 217
SWIDTH 738 0
DWIDTH 30 0
BBX 30 35 0 0
BITMAP
003C0000
001E0000
000F0000
00070000
00078000
0003C000
00000000
00000000
1E0001E0
1E0001E0
1E0001E0
1E0001E0
1E0001E0
1E0001E0
1E0001E0
1E0001E0
1E0001E0
1E0001E0
1E0001E0
1E0001E0
1E0001E0
1E0001E0
1E0001E0
1E0001E0
1F0001E0
0F0003E0
0F0003C0
0F8003C0
078007C0
07C00F80
03F03F00
01FFFF00
00FFFC00
007FF800
001FE000
ENDCHAR
STARTCHAR U+00DA
ENCODING 218
SWIDTH 738 0
DWIDTH 30 0
BBX 30 35 0 0
BITMAP
0000F000
0001F000
0001E000
0003C000
00078000
00070000
00000000
00000000
1E0001E0
1E0001E0
1E0001E0
1E0001E0
1E0001E0
1E0001E0
1E0001E0
1E0001E0
1E0001E0
1E0001E0
1E0001E0
1E0001E0
1E0001E0
1E0001E0
1E0001E0
1E0001E0
1F0001E0
0F0003E0
0F0003C0
0F8003C0
078007C0
07C00F80
03F03F00
01FFFF00
00FFFC00
007FF800
001FE000
ENDCHAR
STARTCHAR U+00DB
ENCODING 219
SWIDTH 738 0
DWIDTH 30 0
BBX 30 35 0 0
BITMAP
0007C000
000FC000
000FE000
001CE000
00387000
00303800
00000000
00000000
1E0001E0
1E0001E0
1E0001E0
1E0001E0
1E0001E0
1E0001E0
1E0001E0
1E0001E0
1E0001E0
1E0001E0
1E0001E0
1E0001E0
1E0001E0
1E0001E0
1E0001E0
1E0001E0
1F0001E0
0F0003E0
0F0003C0
0F8003C0
078007C0
07C00F80
03F03F00
01FFFF00
00FFFC00
007FF800
001FE000
ENDCHAR
STARTCHAR U+00DC
ENCODING 220
SWIDTH 738 0
DWIDTH 30 0
BBX 30 34 0 0
BITMAP
00101000
00383800
007CFC00
00383800
00101000
00000000
00000000
1E0001E0
1E0001E0
1E0001E0
1E0001E0
1E0001E0
1E0001E0
1E0001E0
1E0001E0
1E0001E0
1E0001E0
1E0001E0
1E0001E0
1E0001E0
1E0001E0
1E0001E0
1E0001E0
1F0001E0
0F0003E0
0F0003C0
0F8003C0
078007C0
07C00F80
03F03F00
01FFFF00
00FFFC00
007FF800
001FE000
ENDCHAR
STARTCHAR U+00DD
ENCODING 221
SWIDTH 566 0
DWIDTH 23 0
BBX 23 35 0 0
BITMAP
000F00
001F00
001E00
003C00
007800
007000
000000
000000
78003E
3C003C
3E0078
1E00F8
1F00F0
0F81E0
0783E0
07C3C0
03E780
01EF80
01FF00
00FF00
007E00
007C00
003C00
003C00
003C00
003C00
003C00
003C00
003C00
003C00
003C00
003C00
003C00
003C00
003C00
ENDCHAR
STARTCHAR U+00DE
ENCODING 222
SWIDTH 566 0
DWIDTH 23 0
BBX 23 27 0 0
BITMAP
0F0000
0F0000
0F0000
0F0000
0F0000
0FFF00
0FFFC0
0FFFE0
0FFFF0
0F03F0
0F00F8
0F0078
0F0078
0F0078
0F0078
0F0078
0F00F8
0F01F0
0FFFF0
0FFFE0
0FFFC0
0FFF00
0F0000
0F0000
0F0000
0F0000
0F0000
ENDCHAR
STARTCHAR U+00DF
ENCODING 223
SWIDTH 517 0
DWIDTH 21 0
BBX 21 27 0 0
BITMAP
00FC00
03FF00
07FF80
07FFC0
0F83C0
0F01C0
1E01C0
1E01C0
1E03C0
1E07C0
1E3F80
1E3E00
1E3F00
1E3FC0
1E07E0
1E01E0
1E00F0
1E00F0
1E00F0
1E00F0
1E00F0
1E01F0
1E03E0
1E7FE0
1E7FC0
1E7F80
1E7E00
ENDCHAR
STARTCHAR U+00E0
ENCODING 224
SWIDTH 492 0
DWIDTH 20 0
BBX 20 28 0 0
BITMAP
078000
03C000
01E000
00E000
00F000
007800
000000
000000
000000
03F800
0FFE00
0FFF00
0FFF00
1C0F80
100780
007F80
03FF80
07FF80
1F8380
1E0380
3C0380
3C0380
3C0780
3E1F80
3FFF80
1FFF80
0FFB80
07E380
ENDCHAR
STARTCHAR U+00E1
ENCODING 225
SWIDTH 492 0
DWIDTH 20 0
BBX 20 28 0 0
BITMAP
003C00
007C00
007800
00F000
01E000
01C000
000000
000000
000000
03F800
0FFE00
0FFF00
0FFF00
1C0F80
100780
007F80
03FF80
07FF80
1F8380
1E0380
3C0380
3C0380
3C0780
3E1F80
3FFF80
1FFF80
0FFB80
07E380
ENDCHAR
STARTCHAR U+00E2
ENCODING 226
SWIDTH 492 0
DWIDTH 20 0
BBX 20 28 0 0
BITMAP
00F800
01F800
01FC00
039C00
070E00
060700
000000
000000
000000
03F800
0FFE00
0FFF00
0FFF00
1C0F80
100780
007F80
03FF80
07FF80
1F8380
1E0380
3C0380
3C0380
3C0780
3E1F80
3FFF80
1FFF80
0FFB80
07E380
ENDCHAR
STARTCHAR U+00E3
ENCODING 227
SWIDTH 492 0
DWIDTH 20 0
BBX 20 27 0 0
BITMAP
078000
0FE700
1FFE00
0CFE00
003C00
000000
000000
000000
03F800
0FFE00
0FFF00
0FFF00
1C0F80
100780
007F80
03FF80
07FF80
1F8380
1E0380
3C0380
3C0380
3C0780
3E1F80
3FFF80
1FFF80
0FFB80
07E380
ENDCHAR
STARTCHAR U+00E4
ENCODING 228
SWIDTH 492 0
DWIDTH 20 0
BBX 20 27 0 0
BITMAP
020200
070700
0F9F80
070700
020200
000000
000000
000000
03F800
0FFE00
0FFF00
0FFF00
1C0F80
100780
007F80
03FF80
07FF80
1F8380
1E0380
3C0380
3C0380
3C0780
3E1F80
3FFF80
1FFF80
0FFB80
07E380
ENDCHAR
STARTCHAR U+00E5
ENCODING 229
SWIDTH 492 0
DWIDTH 20 0
BBX 20 29 0 0
BITMAP
00F000
01F800
018C00
010C00
018C00
01F800
00F000
000000
000000
000000
03F800
0FFE00
0FFF00
0FFF00
1C0F80
100780
007F80
03FF80
07FF80
1F8380
1E0380
3C0380
3C0380
3C0780
3E1F80
3FFF80
1FFF80
0FFB80
07E380
ENDCHAR
STARTCHAR U+00E6
ENCODING 230
SWIDTH 788 0
DWIDTH 32 0
BBX 32 19 0 0
BITMAP
03F81F80
0FFE7FE0
0FFFFFF0
1FFFFFF8
1C0FE07C
1007C03C
0007803C
003FFFFC
03FFFFFC
0FFFFFFE
1F878000
3E078000
3C03C000
3C03E004
3E07F03C
3FFFFFFC
1FFFFFFC
0FFC7FF8
07F01FC0
ENDCHAR
STARTCHAR U+00E7
ENCODING 231
SWIDTH 492 0
DWIDTH 20 0
BBX 20 27 0 -8
BITMAP
007E00
03FF80
07FFC0
0FFFC0
1FC1C0
1F0040
3E0000
3C0000
3C0000
3C0000
3C0000
3C0000
3E0000
1F0040
1FC1C0
0FFFC0
07FFC0
01FF80
007E00
003800
003E00
003F00
000F00
000700
000F00
00FE00
00F800
ENDCHAR
STARTCHAR U+00E8
ENCODING 232
SWIDTH 517 0
DWIDTH 21 0
BBX 21 28 0 0
BITMAP
03C000
01E000
00F000
007000
007800
003C00
000000
000000
000000
00FC00
03FF00
07FF80
0FFFC0
1F03E0
1E01E0
3C00E0
3FFFE0
3FFFF0
3FFFF0
3FFFF0
3C0000
3C0000
1E0020
1F81E0
0FFFE0
07FFE0
03FFC0
00FF00
ENDCHAR
STARTCHAR U+00E9
ENCODING 233
SWIDTH 517 0
DWIDTH 21 0
BBX 21 28 0 0
BITMAP
001E00
003E00
003C00
007800
00F000
00E000
000000
000000
000000
00FC00
03FF00
07FF80
0FFFC0
1F03E0
1E01E0
3C00E0
3FFFE0
3FFFF0
3FFFF0
3FFFF0
3C0000
3C0000
1E0020
1F81E0
0FFFE0
07FFE0
03FFC0
00FF00
ENDCHAR
STARTCHAR U+00EA
ENCODING 234
SWIDTH 517 0
DWIDTH 21 0
BBX 21 28 0 0
BITMAP
007C00
00FC00
00FE00
01CE00
038700
030380
000000
000000
000000
00FC00
03FF00
07FF80
0FFFC0
1F03E0
1E01E0
3C00E0
3FFFE0
3FFFF0
3FFFF0
3FFFF0
3C0000
3C0000
1E0020
1F81E0
0FFFE0
07FFE0
03FFC0
00FF00
ENDCHAR
STARTCHAR U+00EB
ENCODING 235
SWIDTH 517 0
DWIDTH 21 0
BBX 21 27 0 0
BITMAP
020200
070700
0F9F80
070700
020200
000000
000000
000000
00FC00
03FF00
07FF80
0FFFC0
1F03E0
1E01E0
3C00E0
3FFFE0
3FFFF0
3FFFF0
3FFFF0
3C0000
3C0000
1E0020
1F81E0
0FFFE0
07FFE0
03FFC0
00FF00
ENDCHAR
STARTCHAR U+00EC
ENCODING 236
SWIDTH 246 0
DWIDTH 10 0
BBX 11 28 -1 0
BITMAP
F000
7800
3C00
1C00
1E00
0F00
0000
0000
0000
1E00
1E00
1E00
1E00
1E00
1E00
1E00
1E00
1E00
1E00
1E00
1E00
1E00
1E00
1E00
1E00
1E00
1E00
1E00
ENDCHAR
STARTCHAR U+00ED
ENCODING 237
SWIDTH 246 0
DWIDTH 10 0
BBX 11 28 0 0
BITMAP
03C0
07C0
0780
0F00
1E00
1C00
0000
0000
0000
1E00
1E00
1E00
1E00
1E00
1E00
1E00
1E00
1E00
1E00
1E00
1E00
1E00
1E00
1E00
1E00
1E00
1E00
1E00
ENDCHAR
STARTCHAR U+00EE
ENCODING 238
SWIDTH 246 0
DWIDTH 10 0
BBX 12 28 -1 0
BITMAP
0F80
1F80
1FC0
39C0
70E0
6070
0000
0000
0000
0F00
0F00
0F00
0F00
0F00
0F00
0F00
0F00
0F00
0F00
0F00
0F00
0F00
0F00
0F00
0F00
0F00
0F00
0F00
ENDCHAR
STARTCHAR U+00EF
ENCODING 239
SWIDTH 246 0
DWIDTH 10 0
BBX 14 27 -2 0
BITMAP
2020
7070
F9F8
7070
2020
0000
0000
0000
0F00
0F00
0F00
0F00
0F00
0F00
0F00
0F00
0F00
0F00
0F00
0F00
0F00
0F00
0F00
0F00
0F00
0F00
0F00
ENDCHAR
STARTCHAR U+00F0
ENCODING 240
SWIDTH 542 0
DWIDTH 22 0
BBX 22 27 0 0
BITMAP
008300
03E780
03FF00
00FC00
01FE00
07DF00
0F1F00
060F80
0007C0
00F7C0
03FBE0
07FFE0
0FFFE0
1F07F0
1E01F0
3C00F0
3C00F0
3C00F0
3C00F0
3C00F0
3C01E0
3E01E0
1F07C0
1FFFC0
0FFF80
07FF00
01FC00
ENDCHAR
STARTCHAR U+00F1
ENCODING 241
SWIDTH 566 0
DWIDTH 23 0
BBX 23 27 0 0
BITMAP
01E000
03F9C0
07FF80
033F80
000F00
000000
000000
000000
1E7F00
1EFFC0
1FFFE0
1FFFE0
1F83F0
1F00F0
1E00F0
1E0078
1E0078
1E0078
1E0078
1E0078
1E0078
1E0078
1E0078
1E0078
1E0078
1E0078
1E0078
ENDCHAR
STARTCHAR U+00F2
ENCODING 242
SWIDTH 591 0
DWIDTH 24 0
BBX 24 28 0 0
BITMAP
01E000
00F000
007800
003800
003C00
001E00
000000
000000
000000
007E00
03FF80
07FFE0
0FFFF0
1F83F8
1F00F8
3E0078
3C003C
3C003C
3C003C
3C003C
3C003C
3E0078
1F00F8
1F81F0
0FFFF0
07FFE0
03FF80
00FE00
ENDCHAR
STARTCHAR U+00F3
ENCODING 243
SWIDTH 591 0
DWIDTH 24 0
BBX 24 28 0 0
BITMAP
000F00
001F00
001E00
003C00
007800
007000
000000
000000
000000
007E00
03FF80
07FFE0
0FFFF0
1F83F8
1F00F8
3E0078
3C003C
3C003C
3C003C
3C003C
3C003C
3E0078
1F00F8
1F81F0
0FFFF0
07FFE0
03FF80
00FE00
ENDCHAR
STARTCHAR U+00F4
ENCODING 244
SWIDTH 591 0
DWIDTH 24 0
BBX 24 28 0 0
BITMAP
003E00
007E00
007F00
00E700
01C380
0181C0
000000
000000
000000
007E00
03FF80
07FFE0
0FFFF0
1F83F8
1F00F8
3E0078
3C003C
3C003C
3C003C
3C003C
3C003C
3E0078
1F00F8
1F81F0
0FFFF0
07FFE0
03FF80
00FE00
ENDCHAR
STARTCHAR U+00F5
ENCODING 245
SWIDTH 591 0
DWIDTH 24 0
BBX 24 27 0 0
BITMAP
01E000
03F9C0
07FF80
033F80
000F00
000000
000000
000000
007E00
03FF80
07FFE0
0FFFF0
1F83F8
1F00F8
3E0078
3C003C
3C003C
3C003C
3C003C
3C003C
3E0078
1F00F8
1F81F0
0FFFF0
07FFE0
03FF80
00FE00
ENDCHAR
STARTCHAR U+00F6
ENCODING 246
SWIDTH 591 0
DWIDTH 24 0
BBX 24 27 0 0
BITMAP
008080
01C1C0
03E7E0
01C1C0
008080
000000
000000
000000
007E00
03FF80
07FFE0
0FFFF0
1F83F8
1F00F8
3E0078
3C003C
3C003C
3C003C
3C003C
3C003C
3E0078
1F00F8
1F81F0
0FFFF0
07FFE0
03FF80
00FE00
ENDCHAR
STARTCHAR U+00F7
ENCODING 247
SWIDTH 517 0
DWIDTH 21 0
BBX 21 23 0 0
BITMAP
002000
007000
00F800
00F800
007000
002000
000000
000000
1FFFC0
1FFFC0
1FFFC0
000000
000000
000000
002000
007000
00F800
00F800
007000
002000
000000
000000
000000
ENDCHAR
STARTCHAR U+00F8
ENCODING 248
SWIDTH 591 0
DWIDTH 24 0
BBX 24 21 0 -1
BITMAP
000010
007E38
03FFF0
07FFE0
0FFFF0
1F81F0
1E03F8
3E0778
3C0E3C
3C1C3C
3C383C
3C783C
3CF03C
3EE078
1FC0F8
1F81F0
0FFFF0
07FFE0
0FFF80
1CFE00
080000
ENDCHAR
STARTCHAR U+00F9
ENCODING 249
SWIDTH 566 0
DWIDTH 23 0
BBX 23 28 0 0
BITMAP
01E000
00F000
007800
003800
003C00
001E00
000000
000000
000000
1E0070
1E0070
1E0070
1E0070
1E0070
1E0070
1E0070
1E0070
1E0070
1E0070
1E0070
1E0070
1E0070
1F0070
0F81F0
0FFFF0
07FFF0
03FFF0
00FE70
ENDCHAR
STARTCHAR U+00FA
ENCODING 250
SWIDTH 566 0
DWIDTH 23 0
BBX 23 28 0 0
BITMAP
000F00
001F00
001E00
003C00
007800
007000
000000
000000
000000
1E0070
1E0070
1E0070
1E0070
1E0070
1E0070
1E0070
1E0070
1E0070
1E0070
1E0070
1E0070
1E0070
1F0070
0F81F0
0FFFF0
07FFF0
03FFF0
00FE70
ENDCHAR
STARTCHAR U+00FB
ENCODING 251
SWIDTH 566 0
DWIDTH 23 0
BBX 23 28 0 0
BITMAP
003E00
007E00
007F00
00E700
01C380
0181C0
000000
000000
000000
1E0070
1E0070
1E0070
1E0070
1E0070
1E0070
1E0070
1E0070
1E0070
1E0070
1E0070
1E0070
1E0070
1F0070
0F81F0
0FFFF0
07FFF0
03FFF0
00FE70
ENDCHAR
STARTCHAR U+00FC
ENCODING 252
SWIDTH 566 0
DWIDTH 23 0
BBX 23 27 0 0
BITMAP
010100
038380
07CFC0
038380
010100
000000
000000
000000
1E0070
1E0070
1E0070
1E0070
1E0070
1E0070
1E0070
1E0070
1E0070
1E0070
1E0070
1E0070
1E0070
1F0070
0F81F0
0FFFF0
07FFF0
03FFF0
00FE70
ENDCHAR
STARTCHAR U+00FD
ENCODING 253
SWIDTH 517 0
DWIDTH 21 0
BBX 21 35 0 -7
BITMAP
001E00
003E00
003C00
007800
00F000
00E000
000000
000000
000000
7800F0
7800F0
3C01E0
3C01E0
1E01E0
1E03C0
0E03C0
0F0780
0F0780
078780
078F00
03CF00
03DE00
01DE00
01FC00
00FC00
00FC00
00F800
007800
007000
00F000
01F000
0FE000
0FC000
0F8000
0F0000
ENDCHAR
STARTCHAR U+00FE
ENCODING 254
SWIDTH 566 0
DWIDTH 23 0
BBX 23 34 0 -7
BITMAP
1E0000
1E0000
1E0000
1E0000
1E0000
1E0000
1E0000
1E0000
1E7E00
1FFF80
1FFFE0
1FFFF0
1F83F0
1E00F8
1E0078
1E0078
1E003C
1E003C
1E003C
1E0078
1E0078
1E00F8
1F03F0
1FFFF0
1FFFE0
1FFF80
1EFE00
1E0000
1E0000
1E0000
1E0000
1E0000
1E0000
1E0000
ENDCHAR
STARTCHAR U+00FF
ENCODING 255
SWIDTH 517 0
DWIDTH 21 0
BBX 21 34 0 -7
BITMAP
020200
070700
0F9F80
070700
020200
000000
000000
000000
7800F0
7800F0
3C01E0
3C01E0
1E01E0
1E03C0
0E03C0
0F0780
0F0780
078780
078F00
03CF00
03DE00
01DE00
01FC00
00FC00
00FC00
00F800
007800
007000
00F000
01F000
0FE000
0FC000
0F8000
0F0000
ENDCHAR
STARTCHAR U+2013
ENCODING 8211
SWIDTH 492 0
DWIDTH 20 0
BBX 21 12 -1 0
BITMAP
FFFFF0
FFFFF0
FFFFF0
000000
000000
000000
000000
000000
000000
000000
000000
000000
ENDCHAR
STARTCHAR U+2014
ENCODING 8212
SWIDTH 960 0
DWIDTH 39 0
BBX 41 12 -1 0
BITMAP
FFFFFFFFFE00
FFFFFFFFFE00
FFFFFFFFFE00
000000000000
000000000000
000000000000
000000000000
000000000000
000000000000
000000000000
000000000000
000000000000
ENDCHAR
STARTCHAR U+2018
ENCODING 8216
SWIDTH 246 0
DWIDTH 10 0
BBX 10 27 0 0
BITMAP
0200
0400
0C00
1C00
1C00
1E00
1E00
1C00
0800
0000
0000
0000
0000
0000
0000
0000
0000
0000
0000
0000
0000
0000
0000
0000
0000
0000
0000
ENDCHAR
STARTCHAR U+2019
ENCODING 8217
SWIDTH 246 0
DWIDTH 10 0
BBX 10 27 0 0
BITMAP
0800
1C00
3E00
1E00
1E00
0E00
0C00
1800
1000
0000
0000
0000
0000
0000
0000
0000
0000
0000
0000
0000
0000
0000
0000
0000
0000
0000
0000
ENDCHAR
STARTCHAR U+201C
ENCODING 8220
SWIDTH 394 0
DWIDTH 16 0
BBX 16 27 0 0
BITMAP
0208
0410
0C30
1C70
1C70
1E78
1E7C
1C78
0830
0000
0000
0000
0000
0000
0000
0000
0000
0000
0000
0000
0000
0000
0000
0000
0000
0000
0000
ENDCHAR
STARTCHAR U+201D
ENCODING 8221
SWIDTH 394 0
DWIDTH 16 0
BBX 16 27 0 0
BITMAP
0820
1C70
3EF8
1E78
1E78
0E38
0C30
1860
1040
0000
0000
0000
0000
0000
0000
0000
0000
0000
0000
0000
0000
0000
0000
0000
0000
0000
0000
ENDCHAR
STARTCHAR U+2022
ENCODING 8226
SWIDTH 418 0
DWIDTH 17 0
BBX 17 17 0 0
BITMAP
008000
01C000
03E000
07F000
0FF800
0FF800
07F000
03E000
01C000
008000
000000
000000
000000
000000
000000
000000
000000
ENDCHAR
STARTCHAR U+2026
ENCODING 8230
SWIDTH 886 0
DWIDTH 36 0
BBX 36 5 0 0
BITMAP
0800400200
1C00E00700
3E01F00F80
1E00F00780
0C00600300
ENDCHAR
STARTCHAR U+20AC
ENCODING 8364
SWIDTH 615 0
DWIDTH 25 0
BBX 25 27 0 0
BITMAP
000FE000
007FF800
00FFFC00
01FFFC00
03F81C00
07E00400
07800000
0F800000
0F000000
7FFFC000
7FFFC000
7FFFC000
1E000000
1E000000
1E000000
7FFF8000
7FFF8000
7FFF0000
0F000000
0F800000
07800000
07C00400
03F01C00
01FFFC00
00FFFC00
007FF800
000FE000
ENDCHAR
ENDFONT
