STARTFONT 2.1
COMMENT Converted from Johnston100 W03 Regular.ttf at 27px with ttf2bdf.py (Pillow, 1-bit, no AA)
FONT -Misc-Johnston100-Medium-R-Normal--27-270-75-75-P-290-ISO10646-1
SIZE 27 75 75
FONTBOUNDINGBOX 29 31 -1 -7
STARTPROPERTIES 9
FOUNDRY "Misc"
FAMILY_NAME "Johnston100"
WEIGHT_NAME "Medium"
SLANT "R"
PIXEL_SIZE 27
RESOLUTION_X 75
RESOLUTION_Y 75
FONT_ASCENT 24
FONT_DESCENT 7
ENDPROPERTIES
CHARS 200
STARTCHAR space
ENCODING 32
SWIDTH 249 0
DWIDTH 7 0
BBX 7 31 0 -7
BITMAP
00
00
00
00
00
00
00
00
00
00
00
00
00
00
00
00
00
00
00
00
00
00
00
00
00
00
00
00
00
00
00
ENDCHAR
STARTCHAR !
ENCODING 33
SWIDTH 284 0
DWIDTH 8 0
BBX 8 18 0 0
BITMAP
38
38
38
38
38
38
18
18
18
18
18
18
18
18
00
18
38
10
ENDCHAR
STARTCHAR "
ENCODING 34
SWIDTH 391 0
DWIDTH 11 0
BBX 11 18 0 0
BITMAP
3180
3180
3180
3180
3180
3180
3180
0000
0000
0000
0000
0000
0000
0000
0000
0000
0000
0000
ENDCHAR
STARTCHAR U+0023
ENCODING 35
SWIDTH 747 0
DWIDTH 21 0
BBX 21 18 0 0
BITMAP
006080
00C180
00C300
00C300
01C300
1FFFF0
1FFFE0
038600
030E00
030C00
030C00
7FFFC0
7FFFC0
061800
0E1800
0C3800
0C3000
082000
ENDCHAR
STARTCHAR $
ENCODING 36
SWIDTH 498 0
DWIDTH 14 0
BBX 14 22 0 -2
BITMAP
0700
0700
0FC0
1FE0
38E0
3000
3800
3800
3E00
1F80
0FE0
03F0
00F0
0070
0038
2030
7070
78F0
3FE0
1F80
0700
0700
ENDCHAR
STARTCHAR %
ENCODING 37
SWIDTH 711 0
DWIDTH 20 0
BBX 20 18 0 0
BITMAP
1E0700
3F0600
318E00
618C00
619C00
339800
3F3800
1E3000
006000
006000
00C780
00CFC0
019CE0
019860
031860
031CC0
060FC0
060780
ENDCHAR
STARTCHAR &
ENCODING 38
SWIDTH 640 0
DWIDTH 18 0
BBX 19 18 0 0
BITMAP
03C000
0FF000
1C7000
1C3800
1C3800
1C7000
0EF000
07C000
0F8000
1FC380
38E700
307700
703E00
703C00
783E00
3FFF00
1FE780
0F83C0
ENDCHAR
STARTCHAR '
ENCODING 39
SWIDTH 213 0
DWIDTH 6 0
BBX 6 18 0 0
BITMAP
30
30
30
30
30
30
30
00
00
00
00
00
00
00
00
00
00
00
ENDCHAR
STARTCHAR (
ENCODING 40
SWIDTH 249 0
DWIDTH 7 0
BBX 7 22 0 -2
BITMAP
0C
1C
18
18
38
38
30
30
30
30
30
30
30
30
30
30
30
38
18
18
1C
0C
ENDCHAR
STARTCHAR )
ENCODING 41
SWIDTH 249 0
DWIDTH 7 0
BBX 7 22 0 -2
BITMAP
60
70
30
38
38
18
18
18
18
1C
1C
1C
1C
18
18
18
18
38
38
30
70
60
ENDCHAR
STARTCHAR *
ENCODING 42
SWIDTH 391 0
DWIDTH 11 0
BBX 11 18 0 0
BITMAP
0E00
2480
75C0
3F80
0E00
3F00
75C0
2480
0E00
0000
0000
0000
0000
0000
0000
0000
0000
0000
ENDCHAR
STARTCHAR +
ENCODING 43
SWIDTH 498 0
DWIDTH 14 0
BBX 14 14 0 0
BITMAP
0300
0300
0300
0300
3FF8
3FF8
0300
0300
0300
0300
0000
0000
0000
0000
ENDCHAR
STARTCHAR ,
ENCODING 44
SWIDTH 249 0
DWIDTH 7 0
BBX 7 7 0 -3
BITMAP
10
30
78
38
18
10
20
ENDCHAR
STARTCHAR -
ENCODING 45
SWIDTH 356 0
DWIDTH 10 0
BBX 10 9 0 0
BITMAP
7F80
7F80
0000
0000
0000
0000
0000
0000
0000
ENDCHAR
STARTCHAR .
ENCODING 46
SWIDTH 249 0
DWIDTH 7 0
BBX 7 4 0 0
BITMAP
10
38
38
10
ENDCHAR
STARTCHAR /
ENCODING 47
SWIDTH 320 0
DWIDTH 9 0
BBX 9 22 0 -2
BITMAP
0380
0300
0300
0700
0600
0600
0E00
0E00
0C00
0C00
1C00
1800
1800
3800
3800
3000
3000
7000
6000
6000
E000
E000
ENDCHAR
STARTCHAR 0
ENCODING 48
SWIDTH 569 0
DWIDTH 16 0
BBX 16 18 0 0
BITMAP
03E0
07F0
0FF8
1E38
1C1C
181C
381C
381C
380C
380C
381C
381C
181C
1C1C
1E38
0FF8
07F0
03C0
ENDCHAR
STARTCHAR 1
ENCODING 49
SWIDTH 284 0
DWIDTH 8 0
BBX 8 18 0 0
BITMAP
04
1C
1C
1C
1C
1C
1C
1C
1C
1C
1C
1C
1C
1C
1C
1C
1C
1C
ENDCHAR
STARTCHAR 2
ENCODING 50
SWIDTH 462 0
DWIDTH 13 0
BBX 13 18 0 0
BITMAP
0780
1FE0
3FF0
38F0
3070
2070
0070
0060
00E0
01C0
01C0
0380
0700
0600
0E00
1FF0
1FF0
3FF0
ENDCHAR
STARTCHAR 3
ENCODING 51
SWIDTH 498 0
DWIDTH 14 0
BBX 14 18 0 0
BITMAP
7FF0
7FF0
7FE0
00E0
01C0
0180
0380
07E0
07F0
00F0
0038
0038
0038
0038
2030
70F0
3FE0
1F80
ENDCHAR
STARTCHAR 4
ENCODING 52
SWIDTH 569 0
DWIDTH 16 0
BBX 16 18 0 0
BITMAP
0010
0030
0030
0070
00F0
01F0
03F0
0770
0E70
1C70
3870
7FFC
FFFC
0070
0070
0070
0070
0070
ENDCHAR
STARTCHAR 5
ENCODING 53
SWIDTH 498 0
DWIDTH 14 0
BBX 14 18 0 0
BITMAP
0FF8
0FF8
1FF0
1C00
1C00
1C00
1F80
1FE0
10F0
0070
0038
0038
0038
0038
2030
70F0
3FE0
0F80
ENDCHAR
STARTCHAR 6
ENCODING 54
SWIDTH 498 0
DWIDTH 14 0
BBX 14 18 0 0
BITMAP
01C0
0380
0700
0E00
1C00
1C00
3BC0
3FE0
3FF0
7878
7038
7038
7038
7038
3870
3FF0
1FE0
07C0
ENDCHAR
STARTCHAR 7
ENCODING 55
SWIDTH 462 0
DWIDTH 13 0
BBX 13 18 0 0
BITMAP
7FF0
7FF0
7FE0
00E0
00E0
01C0
01C0
0380
0380
0700
0700
0600
0E00
0C00
1C00
1C00
3800
3800
ENDCHAR
STARTCHAR 8
ENCODING 56
SWIDTH 498 0
DWIDTH 14 0
BBX 14 18 0 0
BITMAP
07C0
1FE0
1C70
3870
3830
3870
1EE0
0FC0
0FE0
1CF0
3878
3038
7038
7038
3878
3FF0
1FE0
07C0
ENDCHAR
STARTCHAR 9
ENCODING 57
SWIDTH 498 0
DWIDTH 14 0
BBX 14 18 0 0
BITMAP
07C0
1FE0
3FF0
3878
3038
7038
7018
7038
3878
3FF8
1FF0
0FF0
0070
00E0
01E0
03C0
0780
0F00
ENDCHAR
STARTCHAR :
ENCODING 58
SWIDTH 284 0
DWIDTH 8 0
BBX 8 14 0 0
BITMAP
08
1C
1C
08
00
00
00
00
00
00
08
1C
1C
08
ENDCHAR
STARTCHAR ;
ENCODING 59
SWIDTH 284 0
DWIDTH 8 0
BBX 8 17 0 -3
BITMAP
08
1C
1C
08
00
00
00
00
00
00
08
18
3C
1C
0C
08
10
ENDCHAR
STARTCHAR U+003C
ENCODING 60
SWIDTH 498 0
DWIDTH 14 0
BBX 14 16 0 0
BITMAP
0018
0078
01F8
07E0
1F80
3C00
3C00
1F00
0FC0
03E0
00F8
0038
0018
0000
0000
0000
ENDCHAR
STARTCHAR =
ENCODING 61
SWIDTH 498 0
DWIDTH 14 0
BBX 14 13 0 0
BITMAP
3FF8
3FF8
0000
0000
0000
0000
3FF8
3FF8
0000
0000
0000
0000
0000
ENDCHAR
STARTCHAR U+003E
ENCODING 62
SWIDTH 498 0
DWIDTH 14 0
BBX 14 16 0 0
BITMAP
2000
3800
3F00
0FC0
03F0
00F8
00F8
01F0
07C0
1F00
3E00
3800
2000
0000
0000
0000
ENDCHAR
STARTCHAR ?
ENCODING 63
SWIDTH 427 0
DWIDTH 12 0
BBX 12 18 0 0
BITMAP
1F00
3FC0
7FC0
71E0
20E0
00E0
01C0
03C0
0F80
1E00
1C00
0E00
0400
0000
0400
0E00
0E00
0400
ENDCHAR
STARTCHAR @
ENCODING 64
SWIDTH 924 0
DWIDTH 26 0
BBX 26 23 0 -5
BITMAP
003F8000
01FFF000
03C07800
07001C00
0E000E00
1C1F4600
187FC300
38F0C300
30E0C300
30C0C300
31C1C300
31C1C300
31C1C300
31C1C300
31C18700
30E3CE00
387FFC00
183E7800
1C000000
0E000000
0780C000
01FFC000
007FC000
ENDCHAR
STARTCHAR A
ENCODING 65
SWIDTH 640 0
DWIDTH 18 0
BBX 18 18 0 0
BITMAP
00C000
01E000
01E000
03F000
03F000
033000
073800
061800
0E1C00
0E1C00
0C0E00
1FFE00
1FFE00
380700
380700
300380
700380
700380
ENDCHAR
STARTCHAR B
ENCODING 66
SWIDTH 569 0
DWIDTH 16 0
BBX 16 18 0 0
BITMAP
1FC0
1FF0
1878
1838
1838
1838
1870
1FE0
1FF8
181C
180E
180E
180E
180E
180E
181C
1FF8
1FF0
ENDCHAR
STARTCHAR C
ENCODING 67
SWIDTH 640 0
DWIDTH 18 0
BBX 18 18 0 0
BITMAP
00FC00
03FF00
0F0380
0E0080
1C0000
380000
380000
300000
300000
300000
380000
380000
380000
1C0000
0E0080
0F8380
03FF00
00FC00
ENDCHAR
STARTCHAR D
ENCODING 68
SWIDTH 711 0
DWIDTH 20 0
BBX 20 18 0 0
BITMAP
1FF000
1FFC00
181E00
180700
180380
180380
1801C0
1801C0
1801C0
1801C0
1801C0
1801C0
180380
180380
180700
181E00
1FFC00
1FE000
ENDCHAR
STARTCHAR E
ENCODING 69
SWIDTH 569 0
DWIDTH 16 0
BBX 16 18 0 0
BITMAP
1FFC
1FFC
1800
1800
1800
1800
1800
1FF0
1FF0
1800
1800
1800
1800
1800
1800
1800
1FFC
1FFC
ENDCHAR
STARTCHAR F
ENCODING 70
SWIDTH 498 0
DWIDTH 14 0
BBX 14 18 0 0
BITMAP
1FFC
1FFC
1800
1800
1800
1800
1800
1FE0
1FE0
1800
1800
1800
1800
1800
1800
1800
1800
1800
ENDCHAR
STARTCHAR G
ENCODING 71
SWIDTH 711 0
DWIDTH 20 0
BBX 20 18 0 0
BITMAP
00FE00
03FFC0
0F83C0
0E00C0
1C0000
380000
380000
300000
301FC0
301FC0
3801C0
3801C0
3801C0
1C01C0
1E01C0
0F83C0
03FFC0
00FF00
ENDCHAR
STARTCHAR H
ENCODING 72
SWIDTH 711 0
DWIDTH 20 0
BBX 20 18 0 0
BITMAP
180380
180380
180380
180380
180380
180380
180380
1FFF80
1FFF80
180380
180380
180380
180380
180380
180380
180380
180380
180380
ENDCHAR
STARTCHAR I
ENCODING 73
SWIDTH 284 0
DWIDTH 8 0
BBX 8 18 0 0
BITMAP
18
18
18
18
18
18
18
18
18
18
18
18
18
18
18
18
18
18
ENDCHAR
STARTCHAR J
ENCODING 74
SWIDTH 462 0
DWIDTH 13 0
BBX 13 18 0 0
BITMAP
00E0
00E0
00E0
00E0
00E0
00E0
00E0
00E0
00E0
00E0
00E0
00E0
00E0
00C0
20C0
71C0
7F80
1F00
ENDCHAR
STARTCHAR K
ENCODING 75
SWIDTH 604 0
DWIDTH 17 0
BBX 17 18 0 0
BITMAP
180F00
181E00
183C00
187800
18E000
19C000
1B8000
1F0000
1F0000
1B8000
1BC000
19E000
18F000
187800
183C00
181E00
180E00
180700
ENDCHAR
STARTCHAR L
ENCODING 76
SWIDTH 533 0
DWIDTH 15 0
BBX 15 18 0 0
BITMAP
1800
1800
1800
1800
1800
1800
1800
1800
1800
1800
1800
1800
1800
1800
1800
1800
1FFC
1FFC
ENDCHAR
STARTCHAR M
ENCODING 77
SWIDTH 818 0
DWIDTH 23 0
BBX 23 18 0 0
BITMAP
1C0038
1E0078
1E00F8
1F01F8
1B83F8
1BC7B8
19E738
18FE38
187C38
183C38
181838
181038
180038
180038
180038
180038
180038
180038
ENDCHAR
STARTCHAR N
ENCODING 78
SWIDTH 747 0
DWIDTH 21 0
BBX 21 18 0 0
BITMAP
1800C0
1C00C0
1E00C0
1F00C0
1F80C0
1B80C0
19C0C0
18E0C0
18F0C0
1878C0
1838C0
181CC0
180EC0
180FC0
1807C0
1803C0
1801C0
1800C0
ENDCHAR
STARTCHAR O
ENCODING 79
SWIDTH 782 0
DWIDTH 22 0
BBX 22 18 0 0
BITMAP
00FC00
03FF00
0F83C0
0E01E0
1C00E0
380070
380070
300038
300038
300038
300030
380070
380070
1C00E0
1E01E0
0F03C0
03FF00
00FC00
ENDCHAR
STARTCHAR P
ENCODING 80
SWIDTH 569 0
DWIDTH 16 0
BBX 16 18 0 0
BITMAP
1FF0
1FF8
183C
181C
180E
180E
181C
183C
1FF8
1FE0
1800
1800
1800
1800
1800
1800
1800
1800
ENDCHAR
STARTCHAR Q
ENCODING 81
SWIDTH 782 0
DWIDTH 22 0
BBX 22 18 0 0
BITMAP
00FC00
03FF00
0F83C0
0E01E0
1C00E0
380070
380070
300038
300038
300038
300038
380070
380270
1C07E0
1E03E0
0F03E0
03FFF0
00FC20
ENDCHAR
STARTCHAR R
ENCODING 82
SWIDTH 569 0
DWIDTH 16 0
BBX 17 18 0 0
BITMAP
1FE000
1FF000
183800
181800
181C00
181800
183800
1FF000
1FE000
19E000
18E000
187000
187800
183800
181C00
181E00
180E00
180700
ENDCHAR
STARTCHAR S
ENCODING 83
SWIDTH 498 0
DWIDTH 14 0
BBX 14 18 0 0
BITMAP
0FC0
1FE0
38C0
3000
3800
3800
3E00
1F80
07E0
01F0
00F0
0070
0038
2030
7070
78F0
3FE0
0F80
ENDCHAR
STARTCHAR T
ENCODING 84
SWIDTH 569 0
DWIDTH 16 0
BBX 16 18 0 0
BITMAP
7FFE
7FFE
0380
0380
0380
0380
0380
0380
0380
0380
0380
0380
0380
0380
0380
0380
0380
0380
ENDCHAR
STARTCHAR U
ENCODING 85
SWIDTH 747 0
DWIDTH 21 0
BBX 21 18 0 0
BITMAP
3800E0
3800E0
3800E0
3800E0
3800E0
3800E0
3800E0
3800E0
3800E0
3800E0
3800E0
3800C0
1801C0
1C01C0
0E0380
0F0700
03FE00
01FC00
ENDCHAR
STARTCHAR V
ENCODING 86
SWIDTH 604 0
DWIDTH 17 0
BBX 17 18 0 0
BITMAP
700380
700700
300700
380600
380E00
1C0E00
1C0C00
1C1C00
0E1C00
0E3800
063800
073000
077000
037000
03E000
01E000
01E000
01C000
ENDCHAR
STARTCHAR W
ENCODING 87
SWIDTH 924 0
DWIDTH 26 0
BBX 26 18 0 0
BITMAP
700E0180
701E0380
381E0380
381F0300
381F0700
183B0700
1C3B8700
1C338600
0C738E00
0E71CE00
0E61CC00
0E61DC00
07E0DC00
07C0F800
07C0F800
03C07800
03C07800
03807000
ENDCHAR
STARTCHAR X
ENCODING 88
SWIDTH 640 0
DWIDTH 18 0
BBX 19 18 0 0
BITMAP
700780
380700
1C0E00
1E1C00
0E1C00
073800
03F000
01E000
01E000
01E000
03F000
073800
0F1C00
0E1E00
1C0E00
380700
780380
7003C0
ENDCHAR
STARTCHAR Y
ENCODING 89
SWIDTH 569 0
DWIDTH 16 0
BBX 16 18 0 0
BITMAP
7007
700E
381C
1C1C
1C38
0E30
0E70
0760
03E0
03C0
01C0
01C0
01C0
01C0
01C0
01C0
01C0
01C0
ENDCHAR
STARTCHAR Z
ENCODING 90
SWIDTH 604 0
DWIDTH 17 0
BBX 17 18 0 0
BITMAP
7FFF00
7FFE00
001E00
003C00
003800
007800
00F000
00E000
01E000
03C000
038000
078000
0F0000
0E0000
1E0000
3C0000
3FFF00
7FFF00
ENDCHAR
STARTCHAR [
ENCODING 91
SWIDTH 320 0
DWIDTH 9 0
BBX 9 25 0 -4
BITMAP
3F00
3F00
3800
3800
3800
3800
3800
3800
3800
3800
3800
3800
3800
3800
3800
3800
3800
3800
3800
3800
3800
3800
3800
3F00
3F00
ENDCHAR
STARTCHAR \
ENCODING 92
SWIDTH 320 0
DWIDTH 9 0
BBX 9 22 0 -2
BITMAP
E000
E000
6000
6000
7000
3000
3000
3800
3800
1800
1800
1C00
0C00
0C00
0E00
0E00
0600
0600
0700
0300
0300
0380
ENDCHAR
STARTCHAR ]
ENCODING 93
SWIDTH 320 0
DWIDTH 9 0
BBX 9 25 0 -4
BITMAP
7E00
7E00
0600
0600
0600
0600
0600
0600
0600
0600
0600
0600
0600
0600
0600
0600
0600
0600
0600
0600
0600
0600
0600
7E00
7E00
ENDCHAR
STARTCHAR ^
ENCODING 94
SWIDTH 569 0
DWIDTH 16 0
BBX 16 18 0 0
BITMAP
0380
07C0
06E0
0E70
1C30
3838
301C
0000
0000
0000
0000
0000
0000
0000
0000
0000
0000
0000
ENDCHAR
STARTCHAR _
ENCODING 95
SWIDTH 498 0
DWIDTH 14 0
BBX 15 3 -1 -3
BITMAP
0000
0000
FFFC
ENDCHAR
STARTCHAR `
ENCODING 96
SWIDTH 427 0
DWIDTH 12 0
BBX 13 18 0 0
BITMAP
FFF0
FFF0
C030
C030
C030
C030
C030
C030
C030
C030
C030
C030
C030
C030
C030
C030
FFF0
FFF0
ENDCHAR
STARTCHAR a
ENCODING 97
SWIDTH 498 0
DWIDTH 14 0
BBX 14 13 0 0
BITMAP
0F80
1FE0
30E0
2070
0070
03F0
1FF0
3C70
3070
7070
70F0
3FF0
1F70
ENDCHAR
STARTCHAR b
ENCODING 98
SWIDTH 569 0
DWIDTH 16 0
BBX 16 18 0 0
BITMAP
3800
3800
3800
3800
3800
3BE0
3FF8
3C3C
381C
380E
380E
380E
380E
380E
381C
3C3C
3FF8
3BE0
ENDCHAR
STARTCHAR c
ENCODING 99
SWIDTH 498 0
DWIDTH 14 0
BBX 14 13 0 0
BITMAP
03F0
0FF0
1C10
3800
3000
7000
7000
7000
3000
3800
1C10
0FF0
03F0
ENDCHAR
STARTCHAR d
ENCODING 100
SWIDTH 569 0
DWIDTH 16 0
BBX 16 18 0 0
BITMAP
000C
000C
000C
000C
000C
07CC
0FFC
1C3C
380C
300C
700C
700C
700C
300C
380C
1C3C
1FFC
07EC
ENDCHAR
STARTCHAR e
ENCODING 101
SWIDTH 533 0
DWIDTH 15 0
BBX 15 13 0 0
BITMAP
07C0
0FF0
1C38
3838
3018
7FFC
7FFC
7000
3000
3800
1C18
0FF8
07F8
ENDCHAR
STARTCHAR f
ENCODING 102
SWIDTH 391 0
DWIDTH 11 0
BBX 11 18 0 0
BITMAP
07C0
0FC0
1C00
1800
1800
7FC0
7FC0
1800
1800
1800
1800
1800
1800
1800
1800
1800
1800
1800
ENDCHAR
STARTCHAR g
ENCODING 103
SWIDTH 498 0
DWIDTH 14 0
BBX 14 18 0 -5
BITMAP
0FF8
3FF8
38E0
7070
7070
7070
38E0
1FE0
1F80
3800
3E00
1FE0
3BF0
6038
6018
7038
7FF0
1FE0
ENDCHAR
STARTCHAR h
ENCODING 104
SWIDTH 569 0
DWIDTH 16 0
BBX 16 18 0 0
BITMAP
3800
3800
3800
3800
3800
3BE0
3FF8
3C38
381C
381C
380C
380C
380C
380C
380C
380C
380C
380C
ENDCHAR
STARTCHAR i
ENCODING 105
SWIDTH 249 0
DWIDTH 7 0
BBX 7 18 0 0
BITMAP
10
38
38
10
00
38
38
38
38
38
38
38
38
38
38
38
38
38
ENDCHAR
STARTCHAR j
ENCODING 106
SWIDTH 249 0
DWIDTH 7 0
BBX 8 22 -1 -5
BITMAP
10
38
38
10
38
38
38
38
38
38
38
38
38
38
38
38
38
38
38
30
F0
E0
ENDCHAR
STARTCHAR k
ENCODING 107
SWIDTH 498 0
DWIDTH 14 0
BBX 15 18 0 0
BITMAP
3800
3800
3800
3800
3800
3838
3870
39E0
3BC0
3F80
3E00
3F00
3F80
3BC0
39E0
38F0
3878
383C
ENDCHAR
STARTCHAR l
ENCODING 108
SWIDTH 320 0
DWIDTH 9 0
BBX 9 18 0 0
BITMAP
3800
3800
3800
3800
3800
3800
3800
3800
3800
3800
3800
3800
3800
3800
3800
3800
1F00
0F00
ENDCHAR
STARTCHAR m
ENCODING 109
SWIDTH 889 0
DWIDTH 25 0
BBX 25 13 0 0
BITMAP
3BE1F000
3FF7FC00
3C3E1C00
381C0E00
381C0E00
381C0E00
381C0600
381C0600
381C0600
381C0600
381C0600
381C0600
381C0600
ENDCHAR
STARTCHAR n
ENCODING 110
SWIDTH 569 0
DWIDTH 16 0
BBX 16 13 0 0
BITMAP
3BE0
3FF8
3C38
381C
381C
380C
380C
380C
380C
380C
380C
380C
380C
ENDCHAR
STARTCHAR o
ENCODING 111
SWIDTH 569 0
DWIDTH 16 0
BBX 16 13 0 0
BITMAP
07E0
0FF8
1C3C
381C
300E
700E
7006
700E
300E
381C
1C3C
0FF8
07E0
ENDCHAR
STARTCHAR p
ENCODING 112
SWIDTH 569 0
DWIDTH 16 0
BBX 16 18 0 -5
BITMAP
3BE0
3FF8
3C3C
381C
380E
380E
380E
380E
380E
381C
3C3C
3FF8
3BE0
3800
3800
3800
3800
3800
ENDCHAR
STARTCHAR q
ENCODING 113
SWIDTH 569 0
DWIDTH 16 0
BBX 16 18 0 -5
BITMAP
07CC
0FFC
1C3C
380C
300C
700C
700C
700C
300C
380C
1C3C
0FFC
07CC
000C
000C
000C
000C
000C
ENDCHAR
STARTCHAR r
ENCODING 114
SWIDTH 391 0
DWIDTH 11 0
BBX 11 13 0 0
BITMAP
3BC0
3FC0
3C00
3800
3800
3800
3800
3800
3800
3800
3800
3800
3800
ENDCHAR
STARTCHAR s
ENCODING 115
SWIDTH 462 0
DWIDTH 13 0
BBX 13 13 0 0
BITMAP
0FE0
3FE0
3860
7000
3800
3F80
1FE0
01E0
0070
4070
7060
7FE0
1F80
ENDCHAR
STARTCHAR t
ENCODING 116
SWIDTH 391 0
DWIDTH 11 0
BBX 11 16 0 0
BITMAP
1800
1800
1800
7FC0
7FC0
1800
1800
1800
1800
1800
1800
1800
1800
1C00
0FC0
07C0
ENDCHAR
STARTCHAR u
ENCODING 117
SWIDTH 569 0
DWIDTH 16 0
BBX 16 13 0 0
BITMAP
381C
381C
381C
381C
381C
381C
381C
381C
381C
381C
1C3C
0FFC
07CC
ENDCHAR
STARTCHAR v
ENCODING 118
SWIDTH 533 0
DWIDTH 15 0
BBX 15 13 0 0
BITMAP
701C
701C
7038
3838
3870
1C70
1C60
0CE0
0EE0
07C0
07C0
0780
0380
ENDCHAR
STARTCHAR w
ENCODING 119
SWIDTH 818 0
DWIDTH 23 0
BBX 23 13 0 0
BITMAP
70380C
70381C
307C1C
387C18
386E38
18EE38
1CC630
1CC770
0DC370
0F83E0
0F83E0
0781E0
0701C0
ENDCHAR
STARTCHAR x
ENCODING 120
SWIDTH 498 0
DWIDTH 14 0
BBX 14 13 0 0
BITMAP
7070
3870
1CE0
0DC0
0F80
0780
0780
0FC0
0DC0
1CE0
3870
7038
6038
ENDCHAR
STARTCHAR y
ENCODING 121
SWIDTH 533 0
DWIDTH 15 0
BBX 15 18 0 -5
BITMAP
601C
701C
7038
3838
3830
1870
1C60
0C60
0EE0
0EC0
07C0
0780
0380
0380
0300
0700
1E00
1C00
ENDCHAR
STARTCHAR z
ENCODING 122
SWIDTH 462 0
DWIDTH 13 0
BBX 13 13 0 0
BITMAP
7FF0
7FE0
01E0
01C0
0380
0780
0700
0E00
1E00
1C00
3C00
3FF0
7FF0
ENDCHAR
STARTCHAR {
ENCODING 123
SWIDTH 356 0
DWIDTH 10 0
BBX 10 24 0 -3
BITMAP
0780
0F80
0E00
0C00
0C00
0C00
0C00
0C00
0C00
1C00
3C00
7800
7800
3800
1C00
0C00
0C00
0C00
0C00
0C00
0C00
0E00
0F80
0780
ENDCHAR
STARTCHAR |
ENCODING 124
SWIDTH 213 0
DWIDTH 6 0
BBX 6 27 0 -7
BITMAP
30
30
30
30
30
30
30
30
30
30
30
30
30
30
30
30
30
30
30
30
30
30
30
30
30
30
30
ENDCHAR
STARTCHAR }
ENCODING 125
SWIDTH 356 0
DWIDTH 10 0
BBX 10 24 0 -3
BITMAP
7000
7C00
1C00
0C00
0C00
0C00
0C00
0C00
0C00
0C00
0F00
0700
0700
0F00
0C00
0C00
0C00
0C00
0C00
0C00
0C00
1C00
7C00
7800
ENDCHAR
STARTCHAR ~
ENCODING 126
SWIDTH 533 0
DWIDTH 15 0
BBX 15 11 0 0
BITMAP
1E18
3F18
33F0
30E0
0000
0000
0000
0000
0000
0000
0000
ENDCHAR
STARTCHAR U+00A0
ENCODING 160
SWIDTH 249 0
DWIDTH 7 0
BBX 7 31 0 -7
BITMAP
00
00
00
00
00
00
00
00
00
00
00
00
00
00
00
00
00
00
00
00
00
00
00
00
00
00
00
00
00
00
00
ENDCHAR
STARTCHAR U+00A1
ENCODING 161
SWIDTH 284 0
DWIDTH 8 0
BBX 8 19 0 -5
BITMAP
18
3C
18
00
18
18
18
18
18
18
18
18
38
38
38
38
38
38
00
ENDCHAR
STARTCHAR U+00A2
ENCODING 162
SWIDTH 498 0
DWIDTH 14 0
BBX 14 17 0 -2
BITMAP
0180
0180
07F0
0FF0
1C10
3800
3000
7000
7000
7000
3000
3800
1C10
0FF0
03F0
0180
0180
ENDCHAR
STARTCHAR U+00A3
ENCODING 163
SWIDTH 498 0
DWIDTH 14 0
BBX 14 18 0 0
BITMAP
01E0
07F0
07F8
0F10
0E00
0E00
0E00
0C00
3FE0
3FC0
3FC0
1C00
1C00
1C00
1800
3FF8
3FF8
7FF8
ENDCHAR
STARTCHAR U+00A4
ENCODING 164
SWIDTH 569 0
DWIDTH 16 0
BBX 16 14 0 0
BITMAP
100C
380E
3FFC
1FFC
1C38
1C1C
181C
181C
1C18
1C38
1FFC
3FFC
380E
100C
ENDCHAR
STARTCHAR U+00A5
ENCODING 165
SWIDTH 604 0
DWIDTH 17 0
BBX 17 18 0 0
BITMAP
700700
380E00
381C00
1C1C00
0E3800
0E3000
3F7E00
3FFE00
01C000
01C000
3FFE00
3FFE00
01C000
01C000
01C000
01C000
01C000
01C000
ENDCHAR
STARTCHAR U+00A6
ENCODING 166
SWIDTH 213 0
DWIDTH 6 0
BBX 6 27 0 -7
BITMAP
30
30
30
30
30
30
30
30
30
30
30
00
00
00
00
00
30
30
30
30
30
30
30
30
30
30
30
ENDCHAR
STARTCHAR U+00A7
ENCODING 167
SWIDTH 462 0
DWIDTH 13 0
BBX 13 23 0 -5
BITMAP
0F80
3FE0
38E0
7040
7000
7800
3C00
1F80
3FE0
79F0
6070
6070
7070
7CF0
3FE0
0FE0
01E0
0070
0070
2070
78E0
3FE0
0F80
ENDCHAR
STARTCHAR U+00A8
ENCODING 168
SWIDTH 427 0
DWIDTH 12 0
BBX 13 18 0 0
BITMAP
FFF0
FFF0
C030
C030
C030
C030
C030
C030
C030
C030
C030
C030
C030
C030
C030
C030
FFF0
FFF0
ENDCHAR
STARTCHAR U+00A9
ENCODING 169
SWIDTH 782 0
DWIDTH 22 0
BBX 22 18 0 0
BITMAP
00FC00
030300
0C0180
180040
107C60
31FE20
238230
270010
270010
260010
270010
230030
338220
11FE60
187C40
0C0180
030300
00FC00
ENDCHAR
STARTCHAR U+00AA
ENCODING 170
SWIDTH 284 0
DWIDTH 8 0
BBX 8 18 0 0
BITMAP
7C
7E
06
1E
66
66
7E
3E
00
00
00
00
00
00
00
00
00
00
ENDCHAR
STARTCHAR U+00AB
ENCODING 171
SWIDTH 533 0
DWIDTH 15 0
BBX 15 13 0 0
BITMAP
071C
0E38
0C30
1C70
38E0
71C0
38E0
1860
0C30
0E38
071C
0000
0000
ENDCHAR
STARTCHAR U+00AC
ENCODING 172
SWIDTH 498 0
DWIDTH 14 0
BBX 14 13 0 0
BITMAP
3FF8
3FF8
0038
0038
0038
0038
0038
0038
0000
0000
0000
0000
0000
ENDCHAR
STARTCHAR U+00AD
ENCODING 173
SWIDTH 356 0
DWIDTH 10 0
BBX 10 9 0 0
BITMAP
7F80
7F80
0000
0000
0000
0000
0000
0000
0000
ENDCHAR
STARTCHAR U+00AE
ENCODING 174
SWIDTH 782 0
DWIDTH 22 0
BBX 22 18 0 0
BITMAP
00FC00
030300
0C0080
180040
11F860
31FC20
218C30
218E10
218C10
21FC10
21F810
219830
319C20
118E60
198640
0C0180
030300
00FC00
ENDCHAR
STARTCHAR U+00AF
ENCODING 175
SWIDTH 427 0
DWIDTH 12 0
BBX 13 18 0 0
BITMAP
FFF0
FFF0
C030
C030
C030
C030
C030
C030
C030
C030
C030
C030
C030
C030
C030
C030
FFF0
FFF0
ENDCHAR
STARTCHAR U+00B0
ENCODING 176
SWIDTH 391 0
DWIDTH 11 0
BBX 11 18 0 0
BITMAP
1E00
3F80
3180
6180
7180
3F80
1E00
0000
0000
0000
0000
0000
0000
0000
0000
0000
0000
0000
ENDCHAR
STARTCHAR U+00B1
ENCODING 177
SWIDTH 498 0
DWIDTH 14 0
BBX 14 15 0 0
BITMAP
0300
0300
0300
0300
3FF8
3FF8
0300
0300
0300
0300
0000
0000
0000
3FF8
3FF8
ENDCHAR
STARTCHAR U+00B2
ENCODING 178
SWIDTH 320 0
DWIDTH 9 0
BBX 9 18 0 0
BITMAP
3C00
7E00
4700
0300
0600
0600
0C00
1C00
1800
3F00
7F00
0000
0000
0000
0000
0000
0000
0000
ENDCHAR
STARTCHAR U+00B3
ENCODING 179
SWIDTH 320 0
DWIDTH 9 0
BBX 9 18 0 0
BITMAP
7F00
7E00
0600
0C00
1E00
0700
0300
0300
4700
7E00
3C00
0000
0000
0000
0000
0000
0000
0000
ENDCHAR
STARTCHAR U+00B4
ENCODING 180
SWIDTH 427 0
DWIDTH 12 0
BBX 13 18 0 0
BITMAP
FFF0
FFF0
C030
C030
C030
C030
C030
C030
C030
C030
C030
C030
C030
C030
C030
C030
FFF0
FFF0
ENDCHAR
STARTCHAR U+00B5
ENCODING 181
SWIDTH 569 0
DWIDTH 16 0
BBX 16 18 0 -5
BITMAP
381C
381C
381C
381C
381C
381C
381C
381C
381C
381C
3C3C
3FFC
3FDC
3800
3800
3800
3800
3800
ENDCHAR
STARTCHAR U+00B6
ENCODING 182
SWIDTH 533 0
DWIDTH 15 0
BBX 15 23 0 -5
BITMAP
0FFC
1FFC
3F98
7F98
7F98
7F98
7F98
3F98
1F98
0F98
0198
0198
0198
0198
0198
0198
0198
0198
0198
0198
0198
0198
0198
ENDCHAR
STARTCHAR U+00B7
ENCODING 183
SWIDTH 249 0
DWIDTH 7 0
BBX 7 11 0 0
BITMAP
10
38
38
10
00
00
00
00
00
00
00
ENDCHAR
STARTCHAR U+00B8
ENCODING 184
SWIDTH 427 0
DWIDTH 12 0
BBX 13 18 0 0
BITMAP
FFF0
FFF0
C030
C030
C030
C030
C030
C030
C030
C030
C030
C030
C030
C030
C030
C030
FFF0
FFF0
ENDCHAR
STARTCHAR U+00B9
ENCODING 185
SWIDTH 213 0
DWIDTH 6 0
BBX 6 18 0 0
BITMAP
10
30
30
30
30
30
30
30
30
30
30
00
00
00
00
00
00
00
ENDCHAR
STARTCHAR U+00BA
ENCODING 186
SWIDTH 356 0
DWIDTH 10 0
BBX 10 18 0 0
BITMAP
1E00
3F80
7180
61C0
60C0
7180
3F80
1E00
0000
0000
0000
0000
0000
0000
0000
0000
0000
0000
ENDCHAR
STARTCHAR U+00BB
ENCODING 187
SWIDTH 533 0
DWIDTH 15 0
BBX 15 13 0 0
BITMAP
31C0
38E0
1C70
0E30
0618
031C
0718
0E30
1C70
38E0
31C0
0000
0000
ENDCHAR
STARTCHAR U+00BC
ENCODING 188
SWIDTH 782 0
DWIDTH 22 0
BBX 22 18 0 0
BITMAP
100300
300700
300600
300E00
300C00
301C00
301800
303800
303010
306030
306070
00C0F0
00C1B0
018330
0187F8
030FF8
030030
060030
ENDCHAR
STARTCHAR U+00BD
ENCODING 189
SWIDTH 818 0
DWIDTH 23 0
BBX 23 18 0 0
BITMAP
100300
300700
300600
300E00
300C00
301C00
301800
3038F0
3031F8
30611C
30600C
00C018
00C018
018030
018070
030060
0300FC
0601FC
ENDCHAR
STARTCHAR U+00BE
ENCODING 190
SWIDTH 853 0
DWIDTH 24 0
BBX 24 18 0 0
BITMAP
7F00C0
7E01C0
060180
0C0380
1E0300
070700
030600
030E00
470C04
7E180C
3C181C
00303C
00306C
0060CC
0061FE
00C3FE
00C00C
01800C
ENDCHAR
STARTCHAR U+00BF
ENCODING 191
SWIDTH 427 0
DWIDTH 12 0
BBX 12 18 0 -5
BITMAP
0200
0700
0700
0200
0000
0200
0780
0380
0380
0F00
1E00
3800
3000
7000
3860
3FF0
1FE0
0F80
ENDCHAR
STARTCHAR U+00C0
ENCODING 192
SWIDTH 640 0
DWIDTH 18 0
BBX 18 23 0 0
BITMAP
038000
01C000
00C000
006000
000000
00C000
01E000
01E000
03F000
03F000
033000
073800
061800
0E1C00
0E1C00
0C0E00
1FFE00
1FFE00
380700
380700
300380
700380
700380
ENDCHAR
STARTCHAR U+00C1
ENCODING 193
SWIDTH 640 0
DWIDTH 18 0
BBX 18 23 0 0
BITMAP
003800
007000
00E000
00C000
000000
00C000
01E000
01E000
03F000
03F000
033000
073800
061800
0E1C00
0E1C00
0C0E00
1FFE00
1FFE00
380700
380700
300380
700380
700380
ENDCHAR
STARTCHAR U+00C2
ENCODING 194
SWIDTH 640 0
DWIDTH 18 0
BBX 18 23 0 0
BITMAP
01E000
01F000
033000
031800
000000
00C000
01E000
01E000
03F000
03F000
033000
073800
061800
0E1C00
0E1C00
0C0E00
1FFE00
1FFE00
380700
380700
300380
700380
700380
ENDCHAR
STARTCHAR U+00C3
ENCODING 195
SWIDTH 640 0
DWIDTH 18 0
BBX 18 23 0 0
BITMAP
030000
07D800
0FF800
047000
000000
00C000
01E000
01E000
03F000
03F000
033000
073800
061800
0E1C00
0E1C00
0C0E00
1FFE00
1FFE00
380700
380700
300380
700380
700380
ENDCHAR
STARTCHAR U+00C4
ENCODING 196
SWIDTH 640 0
DWIDTH 18 0
BBX 18 23 0 0
BITMAP
021000
063800
063800
021000
000000
00C000
01E000
01E000
03F000
03F000
033000
073800
061800
0E1C00
0E1C00
0C0E00
1FFE00
1FFE00
380700
380700
300380
700380
700380
ENDCHAR
STARTCHAR U+00C5
ENCODING 197
SWIDTH 640 0
DWIDTH 18 0
BBX 18 24 0 0
BITMAP
01C000
032000
022000
032000
01C000
000000
00C000
01E000
01E000
03F000
03F000
033000
073800
061800
0E1C00
0E1C00
0C0E00
1FFE00
1FFE00
380700
380700
300380
700380
700380
ENDCHAR
STARTCHAR U+00C6
ENCODING 198
SWIDTH 889 0
DWIDTH 25 0
BBX 25 18 0 0
BITMAP
003FFE00
003FFE00
007E0000
007E0000
00EE0000
00EE0000
01CE0000
03CFF800
038FF800
078E0000
070E0000
0FFE0000
1FFE0000
1C0E0000
3C0E0000
380E0000
700FFF00
700FFF00
ENDCHAR
STARTCHAR U+00C7
ENCODING 199
SWIDTH 640 0
DWIDTH 18 0
BBX 18 24 0 -6
BITMAP
00FC00
03FF00
0F0380
0E0080
1C0000
380000
380000
300000
300000
300000
380000
380000
380000
1C0000
0E0080
0F8380
03FF00
00FC00
006000
007000
001800
001800
01F800
01F000
ENDCHAR
STARTCHAR U+00C8
ENCODING 200
SWIDTH 569 0
DWIDTH 16 0
BBX 16 23 0 0
BITMAP
0700
0380
0180
00C0
0000
1FFC
1FFC
1800
1800
1800
1800
1800
1FF0
1FF0
1800
1800
1800
1800
1800
1800
1800
1FFC
1FFC
ENDCHAR
STARTCHAR U+00C9
ENCODING 201
SWIDTH 569 0
DWIDTH 16 0
BBX 16 23 0 0
BITMAP
0070
00E0
01C0
0180
0000
1FFC
1FFC
1800
1800
1800
1800
1800
1FF0
1FF0
1800
1800
1800
1800
1800
1800
1800
1FFC
1FFC
ENDCHAR
STARTCHAR U+00CA
ENCODING 202
SWIDTH 569 0
DWIDTH 16 0
BBX 16 23 0 0
BITMAP
03C0
03E0
0660
0630
0000
1FFC
1FFC
1800
1800
1800
1800
1800
1FF0
1FF0
1800
1800
1800
1800
1800
1800
1800
1FFC
1FFC
ENDCHAR
STARTCHAR U+00CB
ENCODING 203
SWIDTH 569 0
DWIDTH 16 0
BBX 16 23 0 0
BITMAP
0420
0C70
0C70
0420
0000
1FFC
1FFC
1800
1800
1800
1800
1800
1FF0
1FF0
1800
1800
1800
1800
1800
1800
1800
1FFC
1FFC
ENDCHAR
STARTCHAR U+00CC
ENCODING 204
SWIDTH 284 0
DWIDTH 8 0
BBX 8 23 0 0
BITMAP
70
38
18
0C
00
18
18
18
18
18
18
18
18
18
18
18
18
18
18
18
18
18
18
ENDCHAR
STARTCHAR U+00CD
ENCODING 205
SWIDTH 284 0
DWIDTH 8 0
BBX 8 23 0 0
BITMAP
0E
1C
38
30
00
18
18
18
18
18
18
18
18
18
18
18
18
18
18
18
18
18
18
ENDCHAR
STARTCHAR U+00CE
ENCODING 206
SWIDTH 284 0
DWIDTH 8 0
BBX 8 23 0 0
BITMAP
00
00
00
00
00
00
00
00
00
00
00
00
00
00
00
00
00
00
00
00
00
00
00
ENDCHAR
STARTCHAR U+00CF
ENCODING 207
SWIDTH 284 0
DWIDTH 8 0
BBX 10 23 -1 0
BITMAP
2100
6380
6380
2100
0000
0C00
0C00
0C00
0C00
0C00
0C00
0C00
0C00
0C00
0C00
0C00
0C00
0C00
0C00
0C00
0C00
0C00
0C00
ENDCHAR
STARTCHAR U+00D0
ENCODING 208
SWIDTH 711 0
DWIDTH 20 0
BBX 20 18 0 0
BITMAP
1FF000
1FFC00
181E00
180700
180380
180380
1801C0
1801C0
7FC1C0
7FC1C0
1801C0
1801C0
180380
180380
180700
181E00
1FFC00
1FE000
ENDCHAR
STARTCHAR U+00D1
ENCODING 209
SWIDTH 747 0
DWIDTH 21 0
BBX 21 23 0 0
BITMAP
018000
03EC00
07FC00
023800
000000
1800C0
1C00C0
1E00C0
1F00C0
1F80C0
1B80C0
19C0C0
18E0C0
18F0C0
1878C0
1838C0
181CC0
180EC0
180FC0
1807C0
1803C0
1801C0
1800C0
ENDCHAR
STARTCHAR U+00D2
ENCODING 210
SWIDTH 782 0
DWIDTH 22 0
BBX 22 23 0 0
BITMAP
00E000
007000
003000
001800
000000
00FC00
03FF00
0F83C0
0E01E0
1C00E0
380070
380070
300038
300038
300038
300030
380070
380070
1C00E0
1E01E0
0F03C0
03FF00
00FC00
ENDCHAR
STARTCHAR U+00D3
ENCODING 211
SWIDTH 782 0
DWIDTH 22 0
BBX 22 23 0 0
BITMAP
000E00
001C00
003800
003000
000000
00FC00
03FF00
0F83C0
0E01E0
1C00E0
380070
380070
300038
300038
300038
300030
380070
380070
1C00E0
1E01E0
0F03C0
03FF00
00FC00
ENDCHAR
STARTCHAR U+00D4
ENCODING 212
SWIDTH 782 0
DWIDTH 22 0
BBX 22 23 0 0
BITMAP
007800
007C00
00CC00
00C600
000000
00FC00
03FF00
0F83C0
0E01E0
1C00E0
380070
380070
300038
300038
300038
300030
380070
380070
1C00E0
1E01E0
0F03C0
03FF00
00FC00
ENDCHAR
STARTCHAR U+00D5
ENCODING 213
SWIDTH 782 0
DWIDTH 22 0
BBX 22 23 0 0
BITMAP
00C000
01F600
03FE00
011C00
000000
00FC00
03FF00
0F83C0
0E01E0
1C00E0
380070
380070
300038
300038
300038
300030
380070
380070
1C00E0
1E01E0
0F03C0
03FF00
00FC00
ENDCHAR
STARTCHAR U+00D6
ENCODING 214
SWIDTH 782 0
DWIDTH 22 0
BBX 22 23 0 0
BITMAP
008400
018E00
018E00
008400
000000
00FC00
03FF00
0F83C0
0E01E0
1C00E0
380070
380070
300038
300038
300038
300030
380070
380070
1C00E0
1E01E0
0F03C0
03FF00
00FC00
ENDCHAR
STARTCHAR U+00D7
ENCODING 215
SWIDTH 498 0
DWIDTH 14 0
BBX 14 14 0 0
BITMAP
1020
3870
1CF0
0FC0
0780
0780
0FC0
1CE0
3870
1020
0000
0000
0000
0000
ENDCHAR
STARTCHAR U+00D8
ENCODING 216
SWIDTH 782 0
DWIDTH 22 0
BBX 22 18 0 0
BITMAP
00FC20
03FF70
0F83E0
0E01E0
1C03E0
380770
380E70
301C38
303838
307038
30E030
39C070
3B8070
1F00E0
1E01E0
1F83C0
3BFF00
10FC00
ENDCHAR
STARTCHAR U+00D9
ENCODING 217
SWIDTH 747 0
DWIDTH 21 0
BBX 21 23 0 0
BITMAP
01C000
00E000
006000
003000
000000
3800E0
3800E0
3800E0
3800E0
3800E0
3800E0
3800E0
3800E0
3800E0
3800E0
3800E0
3800C0
1801C0
1C01C0
0E0380
0F0700
03FE00
01FC00
ENDCHAR
STARTCHAR U+00DA
ENCODING 218
SWIDTH 747 0
DWIDTH 21 0
BBX 21 23 0 0
BITMAP
001C00
003800
007000
006000
000000
3800E0
3800E0
3800E0
3800E0
3800E0
3800E0
3800E0
3800E0
3800E0
3800E0
3800E0
3800C0
1801C0
1C01C0
0E0380
0F0700
03FE00
01FC00
ENDCHAR
STARTCHAR U+00DB
ENCODING 219
SWIDTH 747 0
DWIDTH 21 0
BBX 21 23 0 0
BITMAP
00F000
00F800
019800
018C00
000000
3800E0
3800E0
3800E0
3800E0
3800E0
3800E0
3800E0
3800E0
3800E0
3800E0
3800E0
3800C0
1801C0
1C01C0
0E0380
0F0700
03FE00
01FC00
ENDCHAR
STARTCHAR U+00DC
ENCODING 220
SWIDTH 747 0
DWIDTH 21 0
BBX 21 23 0 0
BITMAP
008400
018E00
018E00
008400
000000
3800E0
3800E0
3800E0
3800E0
3800E0
3800E0
3800E0
3800E0
3800E0
3800E0
3800E0
3800C0
1801C0
1C01C0
0E0380
0F0700
03FE00
01FC00
ENDCHAR
STARTCHAR U+00DD
ENCODING 221
SWIDTH 569 0
DWIDTH 16 0
BBX 16 23 0 0
BITMAP
0070
00E0
01C0
0180
0000
7007
700E
381C
1C1C
1C38
0E30
0E70
0760
03E0
03C0
01C0
01C0
01C0
01C0
01C0
01C0
01C0
01C0
ENDCHAR
STARTCHAR U+00DE
ENCODING 222
SWIDTH 569 0
DWIDTH 16 0
BBX 16 18 0 0
BITMAP
1800
1800
1800
1800
1FF0
1FF8
183C
181C
180E
180E
181C
183C
1FF8
1FE0
1800
1800
1800
1800
ENDCHAR
STARTCHAR U+00DF
ENCODING 223
SWIDTH 533 0
DWIDTH 15 0
BBX 15 18 0 0
BITMAP
07C0
0FF0
1C70
1838
3838
3838
3870
39E0
39F0
3878
3818
381C
381C
381C
381C
3838
3BF0
3BE0
ENDCHAR
STARTCHAR U+00E0
ENCODING 224
SWIDTH 498 0
DWIDTH 14 0
BBX 14 19 0 0
BITMAP
0E00
0700
0300
0180
0000
0000
0F80
1FE0
30E0
2070
0070
03F0
1FF0
3C70
3070
7070
70F0
3FF0
1F70
ENDCHAR
STARTCHAR U+00E1
ENCODING 225
SWIDTH 498 0
DWIDTH 14 0
BBX 14 19 0 0
BITMAP
01C0
0380
0700
0600
0000
0000
0F80
1FE0
30E0
2070
0070
03F0
1FF0
3C70
3070
7070
70F0
3FF0
1F70
ENDCHAR
STARTCHAR U+00E2
ENCODING 226
SWIDTH 498 0
DWIDTH 14 0
BBX 14 19 0 0
BITMAP
0780
07C0
0CC0
0C60
0000
0000
0F80
1FE0
30E0
2070
0070
03F0
1FF0
3C70
3070
7070
70F0
3FF0
1F70
ENDCHAR
STARTCHAR U+00E3
ENCODING 227
SWIDTH 498 0
DWIDTH 14 0
BBX 14 19 0 0
BITMAP
0C00
1F60
3FE0
11C0
0000
0000
0F80
1FE0
30E0
2070
0070
03F0
1FF0
3C70
3070
7070
70F0
3FF0
1F70
ENDCHAR
STARTCHAR U+00E4
ENCODING 228
SWIDTH 498 0
DWIDTH 14 0
BBX 14 19 0 0
BITMAP
0840
18E0
18E0
0840
0000
0000
0F80
1FE0
30E0
2070
0070
03F0
1FF0
3C70
3070
7070
70F0
3FF0
1F70
ENDCHAR
STARTCHAR U+00E5
ENCODING 229
SWIDTH 498 0
DWIDTH 14 0
BBX 14 20 0 0
BITMAP
0700
0C80
0880
0C80
0700
0000
0000
0F80
1FE0
30E0
2070
0070
03F0
1FF0
3C70
3070
7070
70F0
3FF0
1F70
ENDCHAR
STARTCHAR U+00E6
ENCODING 230
SWIDTH 782 0
DWIDTH 22 0
BBX 22 13 0 0
BITMAP
0F87C0
1FFFE0
30F870
207838
007038
03FFF8
1FFFF8
3C7000
707000
703808
707C38
3FFFF0
1F87C0
ENDCHAR
STARTCHAR U+00E7
ENCODING 231
SWIDTH 498 0
DWIDTH 14 0
BBX 14 19 0 -6
BITMAP
03F0
0FF0
1C10
3800
3000
7000
7000
7000
3000
3800
1C10
0FF0
03F0
0180
01C0
0060
0060
07E0
07C0
ENDCHAR
STARTCHAR U+00E8
ENCODING 232
SWIDTH 533 0
DWIDTH 15 0
BBX 15 19 0 0
BITMAP
0E00
0700
0300
0180
0000
0000
07C0
0FF0
1C38
3838
3018
7FFC
7FFC
7000
3000
3800
1C18
0FF8
07F8
ENDCHAR
STARTCHAR U+00E9
ENCODING 233
SWIDTH 533 0
DWIDTH 15 0
BBX 15 19 0 0
BITMAP
00E0
01C0
0380
0300
0000
0000
07C0
0FF0
1C38
3838
3018
7FFC
7FFC
7000
3000
3800
1C18
0FF8
07F8
ENDCHAR
STARTCHAR U+00EA
ENCODING 234
SWIDTH 533 0
DWIDTH 15 0
BBX 15 19 0 0
BITMAP
0780
07C0
0CC0
0C60
0000
0000
07C0
0FF0
1C38
3838
3018
7FFC
7FFC
7000
3000
3800
1C18
0FF8
07F8
ENDCHAR
STARTCHAR U+00EB
ENCODING 235
SWIDTH 533 0
DWIDTH 15 0
BBX 15 19 0 0
BITMAP
0420
0C70
0C70
0420
0000
0000
07C0
0FF0
1C38
3838
3018
7FFC
7FFC
7000
3000
3800
1C18
0FF8
07F8
ENDCHAR
STARTCHAR U+00EC
ENCODING 236
SWIDTH 249 0
DWIDTH 7 0
BBX 8 19 -1 0
BITMAP
70
38
18
0C
00
00
1C
1C
1C
1C
1C
1C
1C
1C
1C
1C
1C
1C
1C
ENDCHAR
STARTCHAR U+00ED
ENCODING 237
SWIDTH 249 0
DWIDTH 7 0
BBX 8 19 0 0
BITMAP
0E
1C
38
30
00
00
38
38
38
38
38
38
38
38
38
38
38
38
38
ENDCHAR
STARTCHAR U+00EE
ENCODING 238
SWIDTH 249 0
DWIDTH 7 0
BBX 9 19 -1 0
BITMAP
3C00
3E00
6600
6300
0000
0000
1C00
1C00
1C00
1C00
1C00
1C00
1C00
1C00
1C00
1C00
1C00
1C00
1C00
ENDCHAR
STARTCHAR U+00EF
ENCODING 239
SWIDTH 249 0
DWIDTH 7 0
BBX 9 19 -1 0
BITMAP
0000
0000
0000
0000
0000
0000
0000
0000
0000
0000
0000
0000
0000
0000
0000
0000
0000
0000
0000
ENDCHAR
STARTCHAR U+00F0
ENCODING 240
SWIDTH 533 0
DWIDTH 15 0
BBX 15 18 0 0
BITMAP
0660
0FF0
07C0
1FC0
0CE0
0070
07F0
1FF8
3C38
381C
701C
701C
701C
7018
3838
3C70
1FF0
07C0
ENDCHAR
STARTCHAR U+00F1
ENCODING 241
SWIDTH 569 0
DWIDTH 16 0
BBX 16 19 0 0
BITMAP
0600
0FB0
1FF0
08E0
0000
0000
3BE0
3FF8
3C38
381C
381C
380C
380C
380C
380C
380C
380C
380C
380C
ENDCHAR
STARTCHAR U+00F2
ENCODING 242
SWIDTH 569 0
DWIDTH 16 0
BBX 16 19 0 0
BITMAP
0700
0380
0180
00C0
0000
0000
07E0
0FF8
1C3C
381C
300E
700E
7006
700E
300E
381C
1C3C
0FF8
07E0
ENDCHAR
STARTCHAR U+00F3
ENCODING 243
SWIDTH 569 0
DWIDTH 16 0
BBX 16 19 0 0
BITMAP
0070
00E0
01C0
0180
0000
0000
07E0
0FF8
1C3C
381C
300E
700E
7006
700E
300E
381C
1C3C
0FF8
07E0
ENDCHAR
STARTCHAR U+00F4
ENCODING 244
SWIDTH 569 0
DWIDTH 16 0
BBX 16 19 0 0
BITMAP
03C0
03E0
0660
0630
0000
0000
07E0
0FF8
1C3C
381C
300E
700E
7006
700E
300E
381C
1C3C
0FF8
07E0
ENDCHAR
STARTCHAR U+00F5
ENCODING 245
SWIDTH 569 0
DWIDTH 16 0
BBX 16 19 0 0
BITMAP
0600
0FB0
1FF0
08E0
0000
0000
07E0
0FF8
1C3C
381C
300E
700E
7006
700E
300E
381C
1C3C
0FF8
07E0
ENDCHAR
STARTCHAR U+00F6
ENCODING 246
SWIDTH 569 0
DWIDTH 16 0
BBX 16 19 0 0
BITMAP
0210
0638
0638
0210
0000
0000
07E0
0FF8
1C3C
381C
300E
700E
7006
700E
300E
381C
1C3C
0FF8
07E0
ENDCHAR
STARTCHAR U+00F7
ENCODING 247
SWIDTH 498 0
DWIDTH 14 0
BBX 14 16 0 0
BITMAP
0100
0380
0380
0100
0000
0000
3FF8
3FF8
0000
0000
0100
0380
0380
0100
0000
0000
ENDCHAR
STARTCHAR U+00F8
ENCODING 248
SWIDTH 569 0
DWIDTH 16 0
BBX 16 15 0 -1
BITMAP
0004
07EC
0FF8
1C3C
383C
306E
70CE
7186
730E
330E
3E1C
1C3C
1FF8
37E0
1000
ENDCHAR
STARTCHAR U+00F9
ENCODING 249
SWIDTH 569 0
DWIDTH 16 0
BBX 16 19 0 0
BITMAP
0700
0380
0180
00C0
0000
0000
381C
381C
381C
381C
381C
381C
381C
381C
381C
381C
1C3C
0FFC
07CC
ENDCHAR
STARTCHAR U+00FA
ENCODING 250
SWIDTH 569 0
DWIDTH 16 0
BBX 16 19 0 0
BITMAP
0070
00E0
01C0
0180
0000
0000
381C
381C
381C
381C
381C
381C
381C
381C
381C
381C
1C3C
0FFC
07CC
ENDCHAR
STARTCHAR U+00FB
ENCODING 251
SWIDTH 569 0
DWIDTH 16 0
BBX 16 19 0 0
BITMAP
03C0
03E0
0660
0630
0000
0000
381C
381C
381C
381C
381C
381C
381C
381C
381C
381C
1C3C
0FFC
07CC
ENDCHAR
STARTCHAR U+00FC
ENCODING 252
SWIDTH 569 0
DWIDTH 16 0
BBX 16 19 0 0
BITMAP
0420
0C70
0C70
0420
0000
0000
381C
381C
381C
381C
381C
381C
381C
381C
381C
381C
1C3C
0FFC
07CC
ENDCHAR
STARTCHAR U+00FD
ENCODING 253
SWIDTH 533 0
DWIDTH 15 0
BBX 15 24 0 -5
BITMAP
00E0
01C0
0380
0300
0000
0000
601C
701C
7038
3838
3830
1870
1C60
0C60
0EE0
0EC0
07C0
0780
0380
0380
0300
0700
1E00
1C00
ENDCHAR
STARTCHAR U+00FE
ENCODING 254
SWIDTH 569 0
DWIDTH 16 0
BBX 16 23 0 -5
BITMAP
3800
3800
3800
3800
3800
3BE0
3FF8
3C3C
381C
380E
380E
380E
380E
380E
381C
3C3C
3FF8
3BE0
3800
3800
3800
3800
3800
ENDCHAR
STARTCHAR U+00FF
ENCODING 255
SWIDTH 533 0
DWIDTH 15 0
BBX 15 24 0 -5
BITMAP
0420
0C70
0C70
0420
0000
0000
601C
701C
7038
3838
3830
1870
1C60
0C60
0EE0
0EC0
07C0
0780
0380
0380
0300
0700
1E00
1C00
ENDCHAR
STARTCHAR U+2013
ENCODING 8211
SWIDTH 498 0
DWIDTH 14 0
BBX 15 8 -1 0
BITMAP
FFFC
FFFC
0000
0000
0000
0000
0000
0000
ENDCHAR
STARTCHAR U+2014
ENCODING 8212
SWIDTH 960 0
DWIDTH 27 0
BBX 29 8 -1 0
BITMAP
FFFFFFE0
FFFFFFE0
00000000
00000000
00000000
00000000
00000000
00000000
ENDCHAR
STARTCHAR U+2018
ENCODING 8216
SWIDTH 249 0
DWIDTH 7 0
BBX 7 18 0 0
BITMAP
08
10
30
38
38
10
00
00
00
00
00
00
00
00
00
00
00
00
ENDCHAR
STARTCHAR U+2019
ENCODING 8217
SWIDTH 249 0
DWIDTH 7 0
BBX 7 18 0 0
BITMAP
10
38
38
18
10
20
00
00
00
00
00
00
00
00
00
00
00
00
ENDCHAR
STARTCHAR U+201C
ENCODING 8220
SWIDTH 391 0
DWIDTH 11 0
BBX 11 18 0 0
BITMAP
0880
1100
3300
3B80
3B80
1100
0000
0000
0000
0000
0000
0000
0000
0000
0000
0000
0000
0000
ENDCHAR
STARTCHAR U+201D
ENCODING 8221
SWIDTH 391 0
DWIDTH 11 0
BBX 11 18 0 0
BITMAP
1100
3B80
3B80
1980
1100
2200
0000
0000
0000
0000
0000
0000
0000
0000
0000
0000
0000
0000
ENDCHAR
STARTCHAR U+2022
ENCODING 8226
SWIDTH 391 0
DWIDTH 11 0
BBX 11 12 0 0
BITMAP
0400
0E00
1F00
3F80
1F00
0E00
0400
0000
0000
0000
0000
0000
ENDCHAR
STARTCHAR U+2026
ENCODING 8230
SWIDTH 889 0
DWIDTH 25 0
BBX 25 4 0 0
BITMAP
10080400
381C0E00
381C0E00
10080400
ENDCHAR
STARTCHAR U+20AC
ENCODING 8364
SWIDTH 604 0
DWIDTH 17 0
BBX 17 18 0 0
BITMAP
00FC00
03FE00
070200
0E0000
1C0000
1C0000
7FF800
7FF000
380000
380000
7FF000
7FE000
1C0000
1C0000
0E0000
070200
03FE00
00FC00
ENDCHAR
ENDFONT
