STARTFONT 2.1
COMMENT Converted from Johnston100 W03 Regular.ttf at 14px with ttf2bdf.py (Pillow, 1-bit, no AA)
FONT -Misc-Johnston100-Medium-R-Normal--14-140-75-75-P-160-ISO10646-1
SIZE 14 75 75
FONTBOUNDINGBOX 16 17 -1 -4
STARTPROPERTIES 9
FOUNDRY "Misc"
FAMILY_NAME "Johnston100"
WEIGHT_NAME "Medium"
SLANT "R"
PIXEL_SIZE 14
RESOLUTION_X 75
RESOLUTION_Y 75
FONT_ASCENT 13
FONT_DESCENT 4
ENDPROPERTIES
CHARS 200
STARTCHAR space
ENCODING 32
SWIDTH 274 0
DWIDTH 4 0
BBX 4 17 0 -4
BITMAP
00
00
00
00
00
00
00
00
00
00
00
00
00
00
00
00
00
ENDCHAR
STARTCHAR !
ENCODING 33
SWIDTH 274 0
DWIDTH 4 0
BBX 4 9 0 0
BITMAP
60
60
60
60
60
60
40
00
20
ENDCHAR
STARTCHAR "
ENCODING 34
SWIDTH 411 0
DWIDTH 6 0
BBX 6 9 0 0
BITMAP
58
58
48
48
00
00
00
00
00
ENDCHAR
STARTCHAR U+0023
ENCODING 35
SWIDTH 754 0
DWIDTH 11 0
BBX 11 9 0 0
BITMAP
0880
0980
0900
7FC0
1300
7F80
2200
2600
2400
ENDCHAR
STARTCHAR $
ENCODING 36
SWIDTH 480 0
DWIDTH 7 0
BBX 7 11 0 -1
BITMAP
10
38
40
40
70
1C
04
06
C4
78
10
ENDCHAR
STARTCHAR %
ENCODING 37
SWIDTH 686 0
DWIDTH 10 0
BBX 10 9 0 0
BITMAP
7100
4A00
4A00
7400
0400
0B80
0A40
1240
1380
ENDCHAR
STARTCHAR &
ENCODING 38
SWIDTH 686 0
DWIDTH 10 0
BBX 10 9 0 0
BITMAP
3C00
2400
2400
3C00
3980
6D00
4700
4700
3D80
ENDCHAR
STARTCHAR '
ENCODING 39
SWIDTH 206 0
DWIDTH 3 0
BBX 3 9 0 0
BITMAP
40
40
40
40
00
00
00
00
00
ENDCHAR
STARTCHAR (
ENCODING 40
SWIDTH 274 0
DWIDTH 4 0
BBX 4 11 0 -1
BITMAP
20
60
40
40
40
40
40
40
40
60
20
ENDCHAR
STARTCHAR )
ENCODING 41
SWIDTH 274 0
DWIDTH 4 0
BBX 4 11 0 -1
BITMAP
40
40
60
60
20
20
20
60
60
40
40
ENDCHAR
STARTCHAR *
ENCODING 42
SWIDTH 411 0
DWIDTH 6 0
BBX 6 9 0 0
BITMAP
20
68
30
68
20
00
00
00
00
ENDCHAR
STARTCHAR +
ENCODING 43
SWIDTH 549 0
DWIDTH 8 0
BBX 8 7 0 0
BITMAP
10
10
7E
10
10
00
00
ENDCHAR
STARTCHAR ,
ENCODING 44
SWIDTH 206 0
DWIDTH 3 0
BBX 3 4 0 -2
BITMAP
40
60
40
00
ENDCHAR
STARTCHAR -
ENCODING 45
SWIDTH 343 0
DWIDTH 5 0
BBX 5 4 0 0
BITMAP
F8
00
00
00
ENDCHAR
STARTCHAR .
ENCODING 46
SWIDTH 206 0
DWIDTH 3 0
BBX 3 2 0 0
BITMAP
40
40
ENDCHAR
STARTCHAR /
ENCODING 47
SWIDTH 343 0
DWIDTH 5 0
BBX 5 11 0 -1
BITMAP
10
10
10
20
20
20
60
40
40
C0
80
ENDCHAR
STARTCHAR 0
ENCODING 48
SWIDTH 549 0
DWIDTH 8 0
BBX 8 9 0 0
BITMAP
38
64
46
46
46
46
46
64
38
ENDCHAR
STARTCHAR 1
ENCODING 49
SWIDTH 274 0
DWIDTH 4 0
BBX 4 9 0 0
BITMAP
40
40
40
40
40
40
40
40
40
ENDCHAR
STARTCHAR 2
ENCODING 50
SWIDTH 480 0
DWIDTH 7 0
BBX 7 9 0 0
BITMAP
78
44
04
0C
0C
18
10
30
7C
ENDCHAR
STARTCHAR 3
ENCODING 51
SWIDTH 480 0
DWIDTH 7 0
BBX 7 9 0 0
BITMAP
7C
0C
18
18
04
06
06
44
78
ENDCHAR
STARTCHAR 4
ENCODING 52
SWIDTH 549 0
DWIDTH 8 0
BBX 8 9 0 0
BITMAP
00
04
0C
1C
34
64
FE
04
04
ENDCHAR
STARTCHAR 5
ENCODING 53
SWIDTH 480 0
DWIDTH 7 0
BBX 7 9 0 0
BITMAP
3E
20
20
38
04
06
06
44
78
ENDCHAR
STARTCHAR 6
ENCODING 54
SWIDTH 480 0
DWIDTH 7 0
BBX 7 9 0 0
BITMAP
18
30
20
7C
44
46
46
64
38
ENDCHAR
STARTCHAR 7
ENCODING 55
SWIDTH 480 0
DWIDTH 7 0
BBX 7 9 0 0
BITMAP
00
00
00
00
00
00
00
00
00
ENDCHAR
STARTCHAR 8
ENCODING 56
SWIDTH 480 0
DWIDTH 7 0
BBX 7 9 0 0
BITMAP
38
64
64
3C
3C
66
46
46
3C
ENDCHAR
STARTCHAR 9
ENCODING 57
SWIDTH 480 0
DWIDTH 7 0
BBX 7 9 0 0
BITMAP
3C
44
46
46
3E
04
0C
18
30
ENDCHAR
STARTCHAR :
ENCODING 58
SWIDTH 274 0
DWIDTH 4 0
BBX 4 7 0 0
BITMAP
40
40
00
00
00
40
40
ENDCHAR
STARTCHAR ;
ENCODING 59
SWIDTH 274 0
DWIDTH 4 0
BBX 4 9 0 -2
BITMAP
40
40
00
00
00
40
60
40
00
ENDCHAR
STARTCHAR U+003C
ENCODING 60
SWIDTH 549 0
DWIDTH 8 0
BBX 8 9 0 0
BITMAP
06
08
30
60
38
06
00
00
00
ENDCHAR
STARTCHAR =
ENCODING 61
SWIDTH 549 0
DWIDTH 8 0
BBX 8 6 0 0
BITMAP
7E
00
7E
00
00
00
ENDCHAR
STARTCHAR U+003E
ENCODING 62
SWIDTH 549 0
DWIDTH 8 0
BBX 8 9 0 0
BITMAP
40
30
1C
06
18
60
00
00
00
ENDCHAR
STARTCHAR ?
ENCODING 63
SWIDTH 411 0
DWIDTH 6 0
BBX 6 9 0 0
BITMAP
78
48
0C
18
30
20
20
30
20
ENDCHAR
STARTCHAR @
ENCODING 64
SWIDTH 960 0
DWIDTH 14 0
BBX 14 12 0 -3
BITMAP
0FC0
1860
2010
6790
4C88
4888
4898
4890
47E0
2000
3080
0F00
ENDCHAR
STARTCHAR A
ENCODING 65
SWIDTH 617 0
DWIDTH 9 0
BBX 10 9 0 0
BITMAP
0800
1C00
1400
1600
3200
2300
7F00
4180
C180
ENDCHAR
STARTCHAR B
ENCODING 66
SWIDTH 549 0
DWIDTH 8 0
BBX 8 9 0 0
BITMAP
7C
66
66
66
7C
63
63
63
7E
ENDCHAR
STARTCHAR C
ENCODING 67
SWIDTH 686 0
DWIDTH 10 0
BBX 10 9 0 0
BITMAP
1F00
3080
6000
4000
4000
4000
6000
3080
0F00
ENDCHAR
STARTCHAR D
ENCODING 68
SWIDTH 686 0
DWIDTH 10 0
BBX 10 9 0 0
BITMAP
7E00
6300
6180
6080
6080
6080
6180
6300
7E00
ENDCHAR
STARTCHAR E
ENCODING 69
SWIDTH 549 0
DWIDTH 8 0
BBX 8 9 0 0
BITMAP
7E
60
60
60
7C
60
60
60
7E
ENDCHAR
STARTCHAR F
ENCODING 70
SWIDTH 480 0
DWIDTH 7 0
BBX 8 9 0 0
BITMAP
7E
60
60
60
7C
60
60
60
60
ENDCHAR
STARTCHAR G
ENCODING 71
SWIDTH 686 0
DWIDTH 10 0
BBX 10 9 0 0
BITMAP
0F80
3080
6000
4000
4380
4080
6080
3080
1F80
ENDCHAR
STARTCHAR H
ENCODING 72
SWIDTH 686 0
DWIDTH 10 0
BBX 10 9 0 0
BITMAP
6180
6180
6180
7F80
6180
6180
6180
6180
6180
ENDCHAR
STARTCHAR I
ENCODING 73
SWIDTH 274 0
DWIDTH 4 0
BBX 4 9 0 0
BITMAP
60
60
60
60
60
60
60
60
60
ENDCHAR
STARTCHAR J
ENCODING 74
SWIDTH 480 0
DWIDTH 7 0
BBX 7 9 0 0
BITMAP
08
08
08
08
08
08
08
48
70
ENDCHAR
STARTCHAR K
ENCODING 75
SWIDTH 617 0
DWIDTH 9 0
BBX 9 9 0 0
BITMAP
6300
6600
6C00
7800
7000
6800
6400
6200
6300
ENDCHAR
STARTCHAR L
ENCODING 76
SWIDTH 549 0
DWIDTH 8 0
BBX 8 9 0 0
BITMAP
60
60
60
60
60
60
60
60
7E
ENDCHAR
STARTCHAR M
ENCODING 77
SWIDTH 823 0
DWIDTH 12 0
BBX 12 9 0 0
BITMAP
6060
70E0
79E0
6F60
6660
6060
6060
6060
6060
ENDCHAR
STARTCHAR N
ENCODING 78
SWIDTH 754 0
DWIDTH 11 0
BBX 11 9 0 0
BITMAP
60C0
70C0
78C0
6CC0
64C0
66C0
63C0
61C0
60C0
ENDCHAR
STARTCHAR O
ENCODING 79
SWIDTH 823 0
DWIDTH 12 0
BBX 12 9 0 0
BITMAP
1F00
3080
6040
4060
4060
4060
6040
3080
1F00
ENDCHAR
STARTCHAR P
ENCODING 80
SWIDTH 549 0
DWIDTH 8 0
BBX 8 9 0 0
BITMAP
7E
62
63
62
7C
60
60
60
60
ENDCHAR
STARTCHAR Q
ENCODING 81
SWIDTH 823 0
DWIDTH 12 0
BBX 12 9 0 0
BITMAP
1F00
3080
6040
4060
4060
4060
6140
31C0
1F40
ENDCHAR
STARTCHAR R
ENCODING 82
SWIDTH 549 0
DWIDTH 8 0
BBX 9 9 0 0
BITMAP
7C00
6600
6200
6600
7C00
6C00
6400
6200
6300
ENDCHAR
STARTCHAR S
ENCODING 83
SWIDTH 480 0
DWIDTH 7 0
BBX 7 9 0 0
BITMAP
38
48
60
70
1C
04
06
44
78
ENDCHAR
STARTCHAR T
ENCODING 84
SWIDTH 549 0
DWIDTH 8 0
BBX 8 9 0 0
BITMAP
FF
18
18
18
18
18
18
18
18
ENDCHAR
STARTCHAR U
ENCODING 85
SWIDTH 754 0
DWIDTH 11 0
BBX 11 9 0 0
BITMAP
60C0
60C0
60C0
60C0
60C0
60C0
6080
3180
1F00
ENDCHAR
STARTCHAR V
ENCODING 86
SWIDTH 617 0
DWIDTH 9 0
BBX 9 9 0 0
BITMAP
C180
4100
6300
2200
3200
3600
1400
1C00
0800
ENDCHAR
STARTCHAR W
ENCODING 87
SWIDTH 960 0
DWIDTH 14 0
BBX 14 9 0 0
BITMAP
4308
4318
6710
2590
24B0
34B0
1CE0
1860
1860
ENDCHAR
STARTCHAR X
ENCODING 88
SWIDTH 617 0
DWIDTH 9 0
BBX 10 9 0 0
BITMAP
4100
2300
3600
1C00
0C00
1600
3200
6100
4180
ENDCHAR
STARTCHAR Y
ENCODING 89
SWIDTH 549 0
DWIDTH 8 0
BBX 9 9 0 0
BITMAP
4300
6200
2600
3400
1800
0800
0800
0800
0800
ENDCHAR
STARTCHAR Z
ENCODING 90
SWIDTH 617 0
DWIDTH 9 0
BBX 9 9 0 0
BITMAP
7F00
0200
0600
0C00
1800
1800
3000
6000
7F00
ENDCHAR
STARTCHAR [
ENCODING 91
SWIDTH 343 0
DWIDTH 5 0
BBX 5 13 0 -2
BITMAP
70
40
40
40
40
40
40
40
40
40
40
40
70
ENDCHAR
STARTCHAR \
ENCODING 92
SWIDTH 343 0
DWIDTH 5 0
BBX 5 11 0 -1
BITMAP
80
C0
40
40
60
20
20
20
10
10
10
ENDCHAR
STARTCHAR ]
ENCODING 93
SWIDTH 343 0
DWIDTH 5 0
BBX 5 13 0 -2
BITMAP
70
30
30
30
30
30
30
30
30
30
30
30
70
ENDCHAR
STARTCHAR ^
ENCODING 94
SWIDTH 549 0
DWIDTH 8 0
BBX 8 9 0 0
BITMAP
18
3C
24
42
00
00
00
00
00
ENDCHAR
STARTCHAR _
ENCODING 95
SWIDTH 480 0
DWIDTH 7 0
BBX 9 2 -1 -2
BITMAP
0000
FE00
ENDCHAR
STARTCHAR `
ENCODING 96
SWIDTH 411 0
DWIDTH 6 0
BBX 7 9 0 0
BITMAP
FC
84
84
84
84
84
84
84
FC
ENDCHAR
STARTCHAR a
ENCODING 97
SWIDTH 480 0
DWIDTH 7 0
BBX 7 7 0 0
BITMAP
78
4C
04
3C
64
4C
74
ENDCHAR
STARTCHAR b
ENCODING 98
SWIDTH 549 0
DWIDTH 8 0
BBX 8 9 0 0
BITMAP
40
40
7C
42
43
43
43
62
5C
ENDCHAR
STARTCHAR c
ENCODING 99
SWIDTH 480 0
DWIDTH 7 0
BBX 7 7 0 0
BITMAP
3C
64
40
40
40
64
3C
ENDCHAR
STARTCHAR d
ENCODING 100
SWIDTH 549 0
DWIDTH 8 0
BBX 8 9 0 0
BITMAP
02
02
3E
62
42
42
42
66
3A
ENDCHAR
STARTCHAR e
ENCODING 101
SWIDTH 549 0
DWIDTH 8 0
BBX 8 7 0 0
BITMAP
3C
66
42
7E
40
62
3C
ENDCHAR
STARTCHAR f
ENCODING 102
SWIDTH 343 0
DWIDTH 5 0
BBX 6 9 0 0
BITMAP
38
60
F8
60
60
60
60
60
60
ENDCHAR
STARTCHAR g
ENCODING 103
SWIDTH 480 0
DWIDTH 7 0
BBX 7 10 0 -3
BITMAP
3E
44
44
44
38
60
7C
C6
C6
7C
ENDCHAR
STARTCHAR h
ENCODING 104
SWIDTH 549 0
DWIDTH 8 0
BBX 8 9 0 0
BITMAP
40
40
5C
62
42
42
42
42
42
ENDCHAR
STARTCHAR i
ENCODING 105
SWIDTH 274 0
DWIDTH 4 0
BBX 4 10 0 0
BITMAP
40
00
40
40
40
40
40
40
40
00
ENDCHAR
STARTCHAR j
ENCODING 106
SWIDTH 274 0
DWIDTH 4 0
BBX 5 12 -1 -3
BITMAP
40
40
40
40
40
40
40
40
40
40
40
C0
ENDCHAR
STARTCHAR k
ENCODING 107
SWIDTH 480 0
DWIDTH 7 0
BBX 8 9 0 0
BITMAP
40
40
46
4C
50
70
58
4C
46
ENDCHAR
STARTCHAR l
ENCODING 108
SWIDTH 343 0
DWIDTH 5 0
BBX 5 9 0 0
BITMAP
40
40
40
40
40
40
40
40
30
ENDCHAR
STARTCHAR m
ENCODING 109
SWIDTH 891 0
DWIDTH 13 0
BBX 13 7 0 0
BITMAP
5DE0
6730
4210
4210
4210
4210
4210
ENDCHAR
STARTCHAR n
ENCODING 110
SWIDTH 549 0
DWIDTH 8 0
BBX 8 7 0 0
BITMAP
5C
62
42
42
42
42
42
ENDCHAR
STARTCHAR o
ENCODING 111
SWIDTH 617 0
DWIDTH 9 0
BBX 9 7 0 0
BITMAP
3C00
6200
4300
4100
4300
6200
3C00
ENDCHAR
STARTCHAR p
ENCODING 112
SWIDTH 549 0
DWIDTH 8 0
BBX 8 10 0 -3
BITMAP
5C
62
43
43
43
62
5C
40
40
40
ENDCHAR
STARTCHAR q
ENCODING 113
SWIDTH 549 0
DWIDTH 8 0
BBX 8 10 0 -3
BITMAP
3E
62
42
42
42
66
3A
02
02
02
ENDCHAR
STARTCHAR r
ENCODING 114
SWIDTH 411 0
DWIDTH 6 0
BBX 6 7 0 0
BITMAP
58
60
40
40
40
40
40
ENDCHAR
STARTCHAR s
ENCODING 115
SWIDTH 480 0
DWIDTH 7 0
BBX 7 7 0 0
BITMAP
38
44
40
78
0C
44
78
ENDCHAR
STARTCHAR t
ENCODING 116
SWIDTH 411 0
DWIDTH 6 0
BBX 6 9 0 0
BITMAP
60
60
F8
60
60
60
60
20
38
ENDCHAR
STARTCHAR u
ENCODING 117
SWIDTH 549 0
DWIDTH 8 0
BBX 8 7 0 0
BITMAP
42
42
42
42
42
66
3A
ENDCHAR
STARTCHAR v
ENCODING 118
SWIDTH 549 0
DWIDTH 8 0
BBX 8 7 0 0
BITMAP
C2
46
64
24
28
18
18
ENDCHAR
STARTCHAR w
ENCODING 119
SWIDTH 823 0
DWIDTH 12 0
BBX 12 7 0 0
BITMAP
4620
4620
6760
2960
2940
39C0
10C0
ENDCHAR
STARTCHAR x
ENCODING 120
SWIDTH 480 0
DWIDTH 7 0
BBX 8 7 0 0
BITMAP
44
2C
38
18
28
6C
C6
ENDCHAR
STARTCHAR y
ENCODING 121
SWIDTH 549 0
DWIDTH 8 0
BBX 8 10 0 -3
BITMAP
C2
46
64
24
2C
38
18
10
10
60
ENDCHAR
STARTCHAR z
ENCODING 122
SWIDTH 480 0
DWIDTH 7 0
BBX 7 7 0 0
BITMAP
7C
08
18
30
30
60
7C
ENDCHAR
STARTCHAR {
ENCODING 123
SWIDTH 343 0
DWIDTH 5 0
BBX 5 13 0 -2
BITMAP
38
20
20
20
20
60
40
60
20
20
20
20
38
ENDCHAR
STARTCHAR |
ENCODING 124
SWIDTH 206 0
DWIDTH 3 0
BBX 3 14 0 -4
BITMAP
40
40
40
40
40
40
40
40
40
40
40
40
40
40
ENDCHAR
STARTCHAR }
ENCODING 125
SWIDTH 343 0
DWIDTH 5 0
BBX 5 13 0 -2
BITMAP
60
20
20
20
20
30
10
30
20
20
20
20
60
ENDCHAR
STARTCHAR ~
ENCODING 126
SWIDTH 549 0
DWIDTH 8 0
BBX 8 6 0 0
BITMAP
72
4C
00
00
00
00
ENDCHAR
STARTCHAR U+00A0
ENCODING 160
SWIDTH 274 0
DWIDTH 4 0
BBX 4 17 0 -4
BITMAP
00
00
00
00
00
00
00
00
00
00
00
00
00
00
00
00
00
ENDCHAR
STARTCHAR U+00A1
ENCODING 161
SWIDTH 274 0
DWIDTH 4 0
BBX 4 10 0 -3
BITMAP
00
00
00
40
60
60
60
60
60
60
ENDCHAR
STARTCHAR U+00A2
ENCODING 162
SWIDTH 480 0
DWIDTH 7 0
BBX 7 9 0 -1
BITMAP
08
3C
64
40
40
40
64
3C
08
ENDCHAR
STARTCHAR U+00A3
ENCODING 163
SWIDTH 549 0
DWIDTH 8 0
BBX 8 9 0 0
BITMAP
1C
32
20
20
78
20
20
60
7E
ENDCHAR
STARTCHAR U+00A4
ENCODING 164
SWIDTH 549 0
DWIDTH 8 0
BBX 8 7 0 0
BITMAP
42
7E
26
62
26
7E
42
ENDCHAR
STARTCHAR U+00A5
ENCODING 165
SWIDTH 617 0
DWIDTH 9 0
BBX 9 9 0 0
BITMAP
4100
6200
2600
7700
1800
7F00
0800
0800
0800
ENDCHAR
STARTCHAR U+00A6
ENCODING 166
SWIDTH 206 0
DWIDTH 3 0
BBX 3 14 0 -4
BITMAP
40
40
40
40
40
40
00
00
40
40
40
40
40
40
ENDCHAR
STARTCHAR U+00A7
ENCODING 167
SWIDTH 480 0
DWIDTH 7 0
BBX 7 12 0 -3
BITMAP
38
44
40
70
7C
C4
C4
7C
1C
04
44
78
ENDCHAR
STARTCHAR U+00A8
ENCODING 168
SWIDTH 411 0
DWIDTH 6 0
BBX 7 9 0 0
BITMAP
FC
84
84
84
84
84
84
84
FC
ENDCHAR
STARTCHAR U+00A9
ENCODING 169
SWIDTH 754 0
DWIDTH 11 0
BBX 11 9 0 0
BITMAP
1F00
2080
4E40
5140
5040
5040
4F40
2080
1F00
ENDCHAR
STARTCHAR U+00AA
ENCODING 170
SWIDTH 274 0
DWIDTH 4 0
BBX 4 9 0 0
BITMAP
70
70
90
70
00
00
00
00
00
ENDCHAR
STARTCHAR U+00AB
ENCODING 171
SWIDTH 549 0
DWIDTH 8 0
BBX 8 7 0 0
BITMAP
12
24
48
48
24
12
00
ENDCHAR
STARTCHAR U+00AC
ENCODING 172
SWIDTH 549 0
DWIDTH 8 0
BBX 8 7 0 0
BITMAP
7E
06
06
06
00
00
00
ENDCHAR
STARTCHAR U+00AD
ENCODING 173
SWIDTH 343 0
DWIDTH 5 0
BBX 5 4 0 0
BITMAP
F8
00
00
00
ENDCHAR
STARTCHAR U+00AE
ENCODING 174
SWIDTH 754 0
DWIDTH 11 0
BBX 11 9 0 0
BITMAP
1F00
2080
4E40
4B40
4E40
4A40
4940
3080
1F00
ENDCHAR
STARTCHAR U+00AF
ENCODING 175
SWIDTH 411 0
DWIDTH 6 0
BBX 7 9 0 0
BITMAP
FC
84
84
84
84
84
84
84
FC
ENDCHAR
STARTCHAR U+00B0
ENCODING 176
SWIDTH 343 0
DWIDTH 5 0
BBX 5 9 0 0
BITMAP
70
48
70
00
00
00
00
00
00
ENDCHAR
STARTCHAR U+00B1
ENCODING 177
SWIDTH 549 0
DWIDTH 8 0
BBX 8 8 0 0
BITMAP
10
10
7E
10
10
00
00
7E
ENDCHAR
STARTCHAR U+00B2
ENCODING 178
SWIDTH 343 0
DWIDTH 5 0
BBX 5 9 0 0
BITMAP
70
50
30
20
70
00
00
00
00
ENDCHAR
STARTCHAR U+00B3
ENCODING 179
SWIDTH 343 0
DWIDTH 5 0
BBX 5 9 0 0
BITMAP
F0
20
10
90
70
00
00
00
00
ENDCHAR
STARTCHAR U+00B4
ENCODING 180
SWIDTH 411 0
DWIDTH 6 0
BBX 7 9 0 0
BITMAP
FC
84
84
84
84
84
84
84
FC
ENDCHAR
STARTCHAR U+00B5
ENCODING 181
SWIDTH 549 0
DWIDTH 8 0
BBX 8 10 0 -3
BITMAP
42
42
42
42
62
66
7A
40
40
40
ENDCHAR
STARTCHAR U+00B6
ENCODING 182
SWIDTH 549 0
DWIDTH 8 0
BBX 8 12 0 -3
BITMAP
3E
7A
7A
7A
3A
1A
1A
1A
1A
1A
1A
1A
ENDCHAR
STARTCHAR U+00B7
ENCODING 183
SWIDTH 206 0
DWIDTH 3 0
BBX 3 6 0 0
BITMAP
40
40
00
00
00
00
ENDCHAR
STARTCHAR U+00B8
ENCODING 184
SWIDTH 411 0
DWIDTH 6 0
BBX 7 9 0 0
BITMAP
FC
84
84
84
84
84
84
84
FC
ENDCHAR
STARTCHAR U+00B9
ENCODING 185
SWIDTH 206 0
DWIDTH 3 0
BBX 3 9 0 0
BITMAP
40
40
40
40
40
00
00
00
00
ENDCHAR
STARTCHAR U+00BA
ENCODING 186
SWIDTH 343 0
DWIDTH 5 0
BBX 5 9 0 0
BITMAP
70
C8
C8
70
00
00
00
00
00
ENDCHAR
STARTCHAR U+00BB
ENCODING 187
SWIDTH 549 0
DWIDTH 8 0
BBX 8 7 0 0
BITMAP
48
24
12
12
24
48
00
ENDCHAR
STARTCHAR U+00BC
ENCODING 188
SWIDTH 754 0
DWIDTH 11 0
BBX 11 9 0 0
BITMAP
0000
0000
0000
0000
0000
0000
0000
0000
0000
ENDCHAR
STARTCHAR U+00BD
ENCODING 189
SWIDTH 823 0
DWIDTH 12 0
BBX 12 9 0 0
BITMAP
4180
4100
4200
4200
44E0
0520
0860
0840
10E0
ENDCHAR
STARTCHAR U+00BE
ENCODING 190
SWIDTH 823 0
DWIDTH 12 0
BBX 12 9 0 0
BITMAP
0000
0000
0000
0000
0000
0000
0000
0000
0000
ENDCHAR
STARTCHAR U+00BF
ENCODING 191
SWIDTH 411 0
DWIDTH 6 0
BBX 7 9 0 -3
BITMAP
10
10
10
18
18
70
40
44
38
ENDCHAR
STARTCHAR U+00C0
ENCODING 192
SWIDTH 617 0
DWIDTH 9 0
BBX 10 12 0 0
BITMAP
1800
0800
0000
0800
1C00
1400
1600
3200
2300
7F00
4180
C180
ENDCHAR
STARTCHAR U+00C1
ENCODING 193
SWIDTH 617 0
DWIDTH 9 0
BBX 10 12 0 0
BITMAP
0400
0800
0000
0800
1C00
1400
1600
3200
2300
7F00
4180
C180
ENDCHAR
STARTCHAR U+00C2
ENCODING 194
SWIDTH 617 0
DWIDTH 9 0
BBX 10 12 0 0
BITMAP
1C00
1400
0000
0800
1C00
1400
1600
3200
2300
7F00
4180
C180
ENDCHAR
STARTCHAR U+00C3
ENCODING 195
SWIDTH 617 0
DWIDTH 9 0
BBX 10 12 0 0
BITMAP
3800
2C00
0000
0800
1C00
1400
1600
3200
2300
7F00
4180
C180
ENDCHAR
STARTCHAR U+00C4
ENCODING 196
SWIDTH 617 0
DWIDTH 9 0
BBX 10 12 0 0
BITMAP
2400
2400
0000
0800
1C00
1400
1600
3200
2300
7F00
4180
C180
ENDCHAR
STARTCHAR U+00C5
ENCODING 197
SWIDTH 617 0
DWIDTH 9 0
BBX 10 13 0 0
BITMAP
1800
1400
1800
0000
0800
1C00
1400
1600
3200
2300
7F00
4180
C180
ENDCHAR
STARTCHAR U+00C6
ENCODING 198
SWIDTH 891 0
DWIDTH 13 0
BBX 13 9 0 0
BITMAP
07F0
0700
0F00
1B00
13E0
3F00
2300
6300
C3F0
ENDCHAR
STARTCHAR U+00C7
ENCODING 199
SWIDTH 686 0
DWIDTH 10 0
BBX 10 12 0 -3
BITMAP
0F00
3080
6000
4000
4000
4000
6000
3080
1F00
0400
0600
0E00
ENDCHAR
STARTCHAR U+00C8
ENCODING 200
SWIDTH 549 0
DWIDTH 8 0
BBX 8 12 0 0
BITMAP
18
08
00
7E
60
60
60
7C
60
60
60
7E
ENDCHAR
STARTCHAR U+00C9
ENCODING 201
SWIDTH 549 0
DWIDTH 8 0
BBX 8 12 0 0
BITMAP
04
08
00
7E
60
60
60
7C
60
60
60
7E
ENDCHAR
STARTCHAR U+00CA
ENCODING 202
SWIDTH 549 0
DWIDTH 8 0
BBX 8 12 0 0
BITMAP
1C
14
00
7E
60
60
60
7C
60
60
60
7E
ENDCHAR
STARTCHAR U+00CB
ENCODING 203
SWIDTH 549 0
DWIDTH 8 0
BBX 8 12 0 0
BITMAP
24
24
00
7E
60
60
60
7C
60
60
60
7E
ENDCHAR
STARTCHAR U+00CC
ENCODING 204
SWIDTH 274 0
DWIDTH 4 0
BBX 4 12 0 0
BITMAP
60
20
00
60
60
60
60
60
60
60
60
60
ENDCHAR
STARTCHAR U+00CD
ENCODING 205
SWIDTH 274 0
DWIDTH 4 0
BBX 4 12 0 0
BITMAP
20
40
00
60
60
60
60
60
60
60
60
60
ENDCHAR
STARTCHAR U+00CE
ENCODING 206
SWIDTH 274 0
DWIDTH 4 0
BBX 5 12 0 0
BITMAP
70
50
00
60
60
60
60
60
60
60
60
60
ENDCHAR
STARTCHAR U+00CF
ENCODING 207
SWIDTH 274 0
DWIDTH 4 0
BBX 6 12 -1 0
BITMAP
90
90
00
60
60
60
60
60
60
60
60
60
ENDCHAR
STARTCHAR U+00D0
ENCODING 208
SWIDTH 686 0
DWIDTH 10 0
BBX 10 9 0 0
BITMAP
7E00
6300
6180
6080
F880
6080
6180
6300
7E00
ENDCHAR
STARTCHAR U+00D1
ENCODING 209
SWIDTH 754 0
DWIDTH 11 0
BBX 11 12 0 0
BITMAP
1C00
1600
0000
60C0
70C0
78C0
6CC0
64C0
66C0
63C0
61C0
60C0
ENDCHAR
STARTCHAR U+00D2
ENCODING 210
SWIDTH 823 0
DWIDTH 12 0
BBX 12 12 0 0
BITMAP
0C00
0400
0000
1F00
3080
6040
4060
4060
4060
6040
3080
1F00
ENDCHAR
STARTCHAR U+00D3
ENCODING 211
SWIDTH 823 0
DWIDTH 12 0
BBX 12 12 0 0
BITMAP
0200
0400
0000
1F00
3080
6040
4060
4060
4060
6040
3080
1F00
ENDCHAR
STARTCHAR U+00D4
ENCODING 212
SWIDTH 823 0
DWIDTH 12 0
BBX 12 12 0 0
BITMAP
0E00
0A00
0000
1F00
3080
6040
4060
4060
4060
6040
3080
1F00
ENDCHAR
STARTCHAR U+00D5
ENCODING 213
SWIDTH 823 0
DWIDTH 12 0
BBX 12 12 0 0
BITMAP
1C00
1600
0000
1F00
3080
6040
4060
4060
4060
6040
3080
1F00
ENDCHAR
STARTCHAR U+00D6
ENCODING 214
SWIDTH 823 0
DWIDTH 12 0
BBX 12 12 0 0
BITMAP
0900
0900
0000
1F00
3080
6040
4060
4060
4060
6040
3080
1F00
ENDCHAR
STARTCHAR U+00D7
ENCODING 215
SWIDTH 549 0
DWIDTH 8 0
BBX 8 7 0 0
BITMAP
24
3C
18
3C
44
00
00
ENDCHAR
STARTCHAR U+00D8
ENCODING 216
SWIDTH 823 0
DWIDTH 12 0
BBX 12 9 0 0
BITMAP
1F40
30C0
6140
4260
4460
4860
7040
3080
5F00
ENDCHAR
STARTCHAR U+00D9
ENCODING 217
SWIDTH 754 0
DWIDTH 11 0
BBX 11 12 0 0
BITMAP
0C00
0400
0000
60C0
60C0
60C0
60C0
60C0
60C0
6080
3180
1F00
ENDCHAR
STARTCHAR U+00DA
ENCODING 218
SWIDTH 754 0
DWIDTH 11 0
BBX 11 12 0 0
BITMAP
0200
0400
0000
60C0
60C0
60C0
60C0
60C0
60C0
6080
3180
1F00
ENDCHAR
STARTCHAR U+00DB
ENCODING 219
SWIDTH 754 0
DWIDTH 11 0
BBX 11 12 0 0
BITMAP
0E00
0A00
0000
60C0
60C0
60C0
60C0
60C0
60C0
6080
3180
1F00
ENDCHAR
STARTCHAR U+00DC
ENCODING 220
SWIDTH 754 0
DWIDTH 11 0
BBX 11 12 0 0
BITMAP
1200
1200
0000
60C0
60C0
60C0
60C0
60C0
60C0
6080
3180
1F00
ENDCHAR
STARTCHAR U+00DD
ENCODING 221
SWIDTH 549 0
DWIDTH 8 0
BBX 9 12 0 0
BITMAP
0400
0800
0000
4300
6200
2600
3400
1800
0800
0800
0800
0800
ENDCHAR
STARTCHAR U+00DE
ENCODING 222
SWIDTH 549 0
DWIDTH 8 0
BBX 8 9 0 0
BITMAP
60
60
7E
62
63
62
7C
60
60
ENDCHAR
STARTCHAR U+00DF
ENCODING 223
SWIDTH 549 0
DWIDTH 8 0
BBX 8 9 0 0
BITMAP
3C
64
46
44
58
46
42
46
5C
ENDCHAR
STARTCHAR U+00E0
ENCODING 224
SWIDTH 480 0
DWIDTH 7 0
BBX 7 10 0 0
BITMAP
30
10
00
78
4C
04
3C
64
4C
74
ENDCHAR
STARTCHAR U+00E1
ENCODING 225
SWIDTH 480 0
DWIDTH 7 0
BBX 7 10 0 0
BITMAP
08
10
00
78
4C
04
3C
64
4C
74
ENDCHAR
STARTCHAR U+00E2
ENCODING 226
SWIDTH 480 0
DWIDTH 7 0
BBX 7 10 0 0
BITMAP
38
28
00
78
4C
04
3C
64
4C
74
ENDCHAR
STARTCHAR U+00E3
ENCODING 227
SWIDTH 480 0
DWIDTH 7 0
BBX 7 10 0 0
BITMAP
70
58
00
78
4C
04
3C
64
4C
74
ENDCHAR
STARTCHAR U+00E4
ENCODING 228
SWIDTH 480 0
DWIDTH 7 0
BBX 7 10 0 0
BITMAP
48
48
00
78
4C
04
3C
64
4C
74
ENDCHAR
STARTCHAR U+00E5
ENCODING 229
SWIDTH 480 0
DWIDTH 7 0
BBX 7 11 0 0
BITMAP
30
28
30
00
78
4C
04
3C
64
4C
74
ENDCHAR
STARTCHAR U+00E6
ENCODING 230
SWIDTH 823 0
DWIDTH 12 0
BBX 12 7 0 0
BITMAP
79C0
4E40
0460
3FE0
4400
4620
7BC0
ENDCHAR
STARTCHAR U+00E7
ENCODING 231
SWIDTH 480 0
DWIDTH 7 0
BBX 7 10 0 -3
BITMAP
3C
64
40
40
40
64
3C
08
1C
18
ENDCHAR
STARTCHAR U+00E8
ENCODING 232
SWIDTH 549 0
DWIDTH 8 0
BBX 8 10 0 0
BITMAP
30
10
00
3C
66
42
7E
40
62
3C
ENDCHAR
STARTCHAR U+00E9
ENCODING 233
SWIDTH 549 0
DWIDTH 8 0
BBX 8 10 0 0
BITMAP
08
10
00
3C
66
42
7E
40
62
3C
ENDCHAR
STARTCHAR U+00EA
ENCODING 234
SWIDTH 549 0
DWIDTH 8 0
BBX 8 10 0 0
BITMAP
38
28
00
3C
66
42
7E
40
62
3C
ENDCHAR
STARTCHAR U+00EB
ENCODING 235
SWIDTH 549 0
DWIDTH 8 0
BBX 8 10 0 0
BITMAP
24
24
00
3C
66
42
7E
40
62
3C
ENDCHAR
STARTCHAR U+00EC
ENCODING 236
SWIDTH 274 0
DWIDTH 4 0
BBX 5 10 -1 0
BITMAP
C0
40
00
40
40
40
40
40
40
40
ENDCHAR
STARTCHAR U+00ED
ENCODING 237
SWIDTH 274 0
DWIDTH 4 0
BBX 4 10 0 0
BITMAP
20
40
00
40
40
40
40
40
40
40
ENDCHAR
STARTCHAR U+00EE
ENCODING 238
SWIDTH 274 0
DWIDTH 4 0
BBX 5 10 -1 0
BITMAP
70
50
00
20
20
20
20
20
20
20
ENDCHAR
STARTCHAR U+00EF
ENCODING 239
SWIDTH 274 0
DWIDTH 4 0
BBX 6 10 -1 0
BITMAP
90
90
00
40
40
40
40
40
40
40
ENDCHAR
STARTCHAR U+00F0
ENCODING 240
SWIDTH 549 0
DWIDTH 8 0
BBX 8 9 0 0
BITMAP
34
18
2C
3E
66
42
42
66
3C
ENDCHAR
STARTCHAR U+00F1
ENCODING 241
SWIDTH 549 0
DWIDTH 8 0
BBX 8 10 0 0
BITMAP
38
2C
00
5C
62
42
42
42
42
42
ENDCHAR
STARTCHAR U+00F2
ENCODING 242
SWIDTH 617 0
DWIDTH 9 0
BBX 9 10 0 0
BITMAP
1800
0800
0000
3C00
6200
4300
4100
4300
6200
3C00
ENDCHAR
STARTCHAR U+00F3
ENCODING 243
SWIDTH 617 0
DWIDTH 9 0
BBX 9 10 0 0
BITMAP
0400
0800
0000
3C00
6200
4300
4100
4300
6200
3C00
ENDCHAR
STARTCHAR U+00F4
ENCODING 244
SWIDTH 617 0
DWIDTH 9 0
BBX 9 10 0 0
BITMAP
1C00
1400
0000
3C00
6200
4300
4100
4300
6200
3C00
ENDCHAR
STARTCHAR U+00F5
ENCODING 245
SWIDTH 617 0
DWIDTH 9 0
BBX 9 10 0 0
BITMAP
3800
2C00
0000
3C00
6200
4300
4100
4300
6200
3C00
ENDCHAR
STARTCHAR U+00F6
ENCODING 246
SWIDTH 617 0
DWIDTH 9 0
BBX 9 10 0 0
BITMAP
2400
2400
0000
3C00
6200
4300
4100
4300
6200
3C00
ENDCHAR
STARTCHAR U+00F7
ENCODING 247
SWIDTH 549 0
DWIDTH 8 0
BBX 8 8 0 0
BITMAP
10
10
00
7E
10
10
00
00
ENDCHAR
STARTCHAR U+00F8
ENCODING 248
SWIDTH 617 0
DWIDTH 9 0
BBX 9 7 0 0
BITMAP
3E00
6600
4B00
4900
5300
6200
7C00
ENDCHAR
STARTCHAR U+00F9
ENCODING 249
SWIDTH 549 0
DWIDTH 8 0
BBX 8 10 0 0
BITMAP
18
08
00
42
42
42
42
42
66
3A
ENDCHAR
STARTCHAR U+00FA
ENCODING 250
SWIDTH 549 0
DWIDTH 8 0
BBX 8 10 0 0
BITMAP
04
08
00
42
42
42
42
42
66
3A
ENDCHAR
STARTCHAR U+00FB
ENCODING 251
SWIDTH 549 0
DWIDTH 8 0
BBX 8 10 0 0
BITMAP
1C
14
00
42
42
42
42
42
66
3A
ENDCHAR
STARTCHAR U+00FC
ENCODING 252
SWIDTH 549 0
DWIDTH 8 0
BBX 8 10 0 0
BITMAP
24
24
00
42
42
42
42
42
66
3A
ENDCHAR
STARTCHAR U+00FD
ENCODING 253
SWIDTH 549 0
DWIDTH 8 0
BBX 8 13 0 -3
BITMAP
08
10
00
C2
46
64
24
2C
38
18
10
10
60
ENDCHAR
STARTCHAR U+00FE
ENCODING 254
SWIDTH 549 0
DWIDTH 8 0
BBX 8 12 0 -3
BITMAP
40
40
5C
62
43
43
43
62
5C
40
40
40
ENDCHAR
STARTCHAR U+00FF
ENCODING 255
SWIDTH 549 0
DWIDTH 8 0
BBX 8 13 0 -3
BITMAP
24
24
00
C2
46
64
24
2C
38
18
10
10
60
ENDCHAR
STARTCHAR U+2013
ENCODING 8211
SWIDTH 480 0
DWIDTH 7 0
BBX 9 4 -1 0
BITMAP
FE00
0000
0000
0000
ENDCHAR
STARTCHAR U+2014
ENCODING 8212
SWIDTH 960 0
DWIDTH 14 0
BBX 16 4 -1 0
BITMAP
FFFC
0000
0000
0000
ENDCHAR
STARTCHAR U+2018
ENCODING 8216
SWIDTH 206 0
DWIDTH 3 0
BBX 3 9 0 0
BITMAP
40
40
40
00
00
00
00
00
00
ENDCHAR
STARTCHAR U+2019
ENCODING 8217
SWIDTH 206 0
DWIDTH 3 0
BBX 3 9 0 0
BITMAP
40
60
40
00
00
00
00
00
00
ENDCHAR
STARTCHAR U+201C
ENCODING 8220
SWIDTH 411 0
DWIDTH 6 0
BBX 6 9 0 0
BITMAP
50
50
58
00
00
00
00
00
00
ENDCHAR
STARTCHAR U+201D
ENCODING 8221
SWIDTH 411 0
DWIDTH 6 0
BBX 6 9 0 0
BITMAP
50
78
50
00
00
00
00
00
00
ENDCHAR
STARTCHAR U+2022
ENCODING 8226
SWIDTH 411 0
DWIDTH 6 0
BBX 6 7 0 0
BITMAP
20
30
30
20
00
00
00
ENDCHAR
STARTCHAR U+2026
ENCODING 8230
SWIDTH 891 0
DWIDTH 13 0
BBX 13 2 0 0
BITMAP
4220
4220
ENDCHAR
STARTCHAR U+20AC
ENCODING 8364
SWIDTH 617 0
DWIDTH 9 0
BBX 9 9 0 0
BITMAP
1E00
3100
6000
FC00
4000
FC00
6000
3100
1E00
ENDCHAR
ENDFONT
