STARTFONT 2.1
COMMENT Converted from Johnston100 W03 Regular.ttf at 32px with ttf2bdf.py (Pillow, 1-bit, no AA)
FONT -Misc-Johnston100-Medium-R-Normal--32-320-75-75-P-340-ISO10646-1
SIZE 32 75 75
FONTBOUNDINGBOX 34 37 -2 -8
STARTPROPERTIES 9
FOUNDRY "Misc"
FAMILY_NAME "Johnston100"
WEIGHT_NAME "Medium"
SLANT "R"
PIXEL_SIZE 32
RESOLUTION_X 75
RESOLUTION_Y 75
FONT_ASCENT 29
FONT_DESCENT 8
ENDPROPERTIES
CHARS 200
STARTCHAR space
ENCODING 32
SWIDTH 240 0
DWIDTH 8 0
BBX 8 37 0 -8
BITMAP
00
00
00
00
00
00
00
00
00
00
00
00
00
00
00
00
00
00
00
00
00
00
00
00
00
00
00
00
00
00
00
00
00
00
00
00
00
ENDCHAR
STARTCHAR !
ENCODING 33
SWIDTH 270 0
DWIDTH 9 0
BBX 9 22 0 0
BITMAP
1C00
1C00
1C00
1C00
1C00
1C00
1C00
1C00
1C00
1C00
1C00
1C00
1C00
1C00
0C00
0C00
0000
0000
0800
1C00
1C00
0800
ENDCHAR
STARTCHAR "
ENCODING 34
SWIDTH 390 0
DWIDTH 13 0
BBX 13 22 0 0
BITMAP
38E0
38E0
38E0
38E0
38E0
18E0
18C0
1840
0000
0000
0000
0000
0000
0000
0000
0000
0000
0000
0000
0000
0000
0000
ENDCHAR
STARTCHAR U+0023
ENCODING 35
SWIDTH 720 0
DWIDTH 24 0
BBX 24 22 0 0
BITMAP
001810
003070
003070
007060
0070E0
0060E0
0FFFFE
1FFFFE
1FFFFE
00C1C0
01C180
01C380
018380
3FFFF8
7FFFF8
7FFFF8
030700
070600
070E00
060E00
0E0C00
0C0800
ENDCHAR
STARTCHAR $
ENCODING 36
SWIDTH 480 0
DWIDTH 16 0
BBX 16 27 0 -3
BITMAP
0380
0380
07C0
1FF0
1FF8
3C30
3800
3800
3C00
3E00
1F80
0FE0
03F0
00F8
007C
001E
001E
001E
301E
701E
7C3C
3FF8
1FF0
07E0
0380
0380
0000
ENDCHAR
STARTCHAR %
ENCODING 37
SWIDTH 720 0
DWIDTH 24 0
BBX 24 22 0 0
BITMAP
0F00E0
1FC1C0
38C1C0
30E380
30E380
30E700
38C700
1FCE00
0F0E00
001C00
001C00
003800
003800
0071F0
0073F8
00E71C
00E70C
01C60C
01C70C
03871C
0383F8
0701F0
ENDCHAR
STARTCHAR &
ENCODING 38
SWIDTH 660 0
DWIDTH 22 0
BBX 22 22 0 0
BITMAP
01F000
07F800
0FFC00
0F1E00
0E0E00
0E0E00
0E1E00
0F1C00
07F800
03F000
07E000
0FF070
1E78E0
3C3CE0
383FC0
381FC0
380F80
380F80
3C1FC0
1FFDE0
0FF8F0
07E078
ENDCHAR
STARTCHAR '
ENCODING 39
SWIDTH 210 0
DWIDTH 7 0
BBX 7 22 0 0
BITMAP
38
38
38
38
38
18
18
18
00
00
00
00
00
00
00
00
00
00
00
00
00
00
ENDCHAR
STARTCHAR (
ENCODING 40
SWIDTH 240 0
DWIDTH 8 0
BBX 8 26 0 -2
BITMAP
06
0E
0E
1C
1C
1C
38
38
38
38
38
38
38
38
38
38
38
38
38
38
1C
1C
1C
0C
0E
06
ENDCHAR
STARTCHAR )
ENCODING 41
SWIDTH 240 0
DWIDTH 8 0
BBX 8 26 0 -2
BITMAP
70
30
38
38
18
1C
1C
1C
1C
0C
0E
0E
0E
0E
0E
0C
0C
1C
1C
1C
1C
18
38
38
30
70
ENDCHAR
STARTCHAR *
ENCODING 42
SWIDTH 390 0
DWIDTH 13 0
BBX 13 22 0 0
BITMAP
0700
0700
2320
7270
1EE0
0780
0F00
3AC0
7270
2720
0700
0700
0000
0000
0000
0000
0000
0000
0000
0000
0000
0000
ENDCHAR
STARTCHAR +
ENCODING 43
SWIDTH 510 0
DWIDTH 17 0
BBX 17 17 0 0
BITMAP
01C000
01C000
01C000
01C000
01C000
3FFE00
3FFE00
3FFE00
01C000
01C000
01C000
01C000
01C000
000000
000000
000000
000000
ENDCHAR
STARTCHAR ,
ENCODING 44
SWIDTH 240 0
DWIDTH 8 0
BBX 8 9 0 -4
BITMAP
18
3C
3C
1C
18
18
10
00
00
ENDCHAR
STARTCHAR -
ENCODING 45
SWIDTH 360 0
DWIDTH 12 0
BBX 12 10 0 0
BITMAP
7FE0
7FE0
7FE0
0000
0000
0000
0000
0000
0000
0000
ENDCHAR
STARTCHAR .
ENCODING 46
SWIDTH 240 0
DWIDTH 8 0
BBX 8 4 0 0
BITMAP
18
3C
3C
18
ENDCHAR
STARTCHAR /
ENCODING 47
SWIDTH 300 0
DWIDTH 10 0
BBX 11 26 0 -2
BITMAP
01C0
01C0
01C0
0380
0380
0380
0300
0700
0700
0700
0E00
0E00
0E00
0C00
1C00
1C00
1C00
3800
3800
3800
3000
7000
7000
7000
E000
E000
ENDCHAR
STARTCHAR 0
ENCODING 48
SWIDTH 570 0
DWIDTH 19 0
BBX 19 22 0 0
BITMAP
01F000
03FC00
07FC00
0F1E00
0E0F00
1C0700
1C0700
1C0700
1C0780
3C0780
3C0780
3C0780
3C0780
1C0780
1C0700
1C0700
1C0700
0E0F00
0F1E00
07FE00
03FC00
01F000
ENDCHAR
STARTCHAR 1
ENCODING 49
SWIDTH 270 0
DWIDTH 9 0
BBX 9 22 0 0
BITMAP
0400
0C00
1C00
1C00
1C00
1C00
1C00
1C00
1C00
1C00
1C00
1C00
1C00
1C00
1C00
1C00
1C00
1C00
1C00
1C00
1C00
1C00
ENDCHAR
STARTCHAR 2
ENCODING 50
SWIDTH 480 0
DWIDTH 16 0
BBX 16 22 0 0
BITMAP
07E0
0FF0
1FF8
3C3C
301C
201C
001C
001C
003C
0038
0078
0070
00F0
01E0
01E0
03C0
0780
0780
0F00
0FFE
1FFE
3FFE
ENDCHAR
STARTCHAR 3
ENCODING 51
SWIDTH 510 0
DWIDTH 17 0
BBX 17 22 0 0
BITMAP
3FFE00
3FFC00
3FFC00
007800
007000
00F000
00E000
01C000
03E000
03F800
043C00
001E00
000E00
000E00
000E00
000E00
000E00
201E00
783C00
3FF800
1FF000
07E000
ENDCHAR
STARTCHAR 4
ENCODING 52
SWIDTH 540 0
DWIDTH 18 0
BBX 18 22 0 0
BITMAP
000000
000400
000C00
001C00
003C00
007C00
007C00
00FC00
01DC00
039C00
071C00
071C00
0E1C00
1C1C00
3FFF80
7FFF80
FFFF80
001C00
001C00
001C00
001C00
001C00
ENDCHAR
STARTCHAR 5
ENCODING 53
SWIDTH 510 0
DWIDTH 17 0
BBX 17 22 0 0
BITMAP
0FFE00
0FFE00
0FFC00
0E0000
0E0000
0E0000
0E0000
0FE000
0FF800
1FFC00
187C00
001E00
000E00
000E00
000E00
000E00
000E00
201E00
783C00
3FF800
1FF000
07C000
ENDCHAR
STARTCHAR 6
ENCODING 54
SWIDTH 510 0
DWIDTH 17 0
BBX 17 22 0 0
BITMAP
00F000
01E000
03C000
078000
078000
0F0000
1E0000
1E0000
3DF000
3FF800
3FFC00
3C1E00
380E00
780E00
780F00
780E00
380E00
3C0E00
3E3E00
1FFC00
0FF800
03E000
ENDCHAR
STARTCHAR 7
ENCODING 55
SWIDTH 480 0
DWIDTH 16 0
BBX 16 22 0 0
BITMAP
3FFE
3FFC
3FFC
003C
0038
0078
0070
00F0
00E0
01E0
01C0
01C0
03C0
0380
0780
0700
0F00
0E00
1E00
1E00
1C00
3C00
ENDCHAR
STARTCHAR 8
ENCODING 56
SWIDTH 510 0
DWIDTH 17 0
BBX 17 22 0 0
BITMAP
03E000
0FF800
0FFC00
1E3C00
1C1C00
1C1C00
1C1C00
1E3C00
0F7800
07F000
07F000
0FFC00
1E3C00
3C1E00
380E00
380E00
380E00
380E00
3C1E00
1FFC00
0FF800
03E000
ENDCHAR
STARTCHAR 9
ENCODING 57
SWIDTH 510 0
DWIDTH 17 0
BBX 17 22 0 0
BITMAP
03E000
0FF800
1FFC00
1E3E00
381E00
380E00
380F00
380F00
380F00
380F00
3C1E00
1FFE00
0FFE00
07DE00
001C00
003C00
007800
00F800
00F000
01E000
03C000
078000
ENDCHAR
STARTCHAR :
ENCODING 58
SWIDTH 270 0
DWIDTH 9 0
BBX 9 16 0 0
BITMAP
0C00
1E00
1E00
0C00
0000
0000
0000
0000
0000
0000
0000
0000
0C00
1E00
1E00
0C00
ENDCHAR
STARTCHAR ;
ENCODING 59
SWIDTH 270 0
DWIDTH 9 0
BBX 9 20 0 -4
BITMAP
0C00
1E00
1E00
0C00
0000
0000
0000
0000
0000
0000
0000
0000
0C00
1E00
1E00
0E00
0C00
0C00
0800
0000
ENDCHAR
STARTCHAR U+003C
ENCODING 60
SWIDTH 510 0
DWIDTH 17 0
BBX 17 19 0 0
BITMAP
000200
000E00
003E00
00FC00
01F000
07C000
1F8000
3E0000
3E0000
1F8000
07E000
01F800
007E00
001E00
000600
000000
000000
000000
000000
ENDCHAR
STARTCHAR =
ENCODING 61
SWIDTH 510 0
DWIDTH 17 0
BBX 17 15 0 0
BITMAP
3FFE00
3FFE00
3FFE00
000000
000000
000000
3FFE00
3FFE00
3FFE00
000000
000000
000000
000000
000000
000000
ENDCHAR
STARTCHAR U+003E
ENCODING 62
SWIDTH 510 0
DWIDTH 17 0
BBX 17 19 0 0
BITMAP
300000
380000
3E0000
1F8000
07E000
01F000
007C00
003E00
003E00
00FC00
03F000
0FC000
3F0000
3C0000
300000
000000
000000
000000
000000
ENDCHAR
STARTCHAR ?
ENCODING 63
SWIDTH 450 0
DWIDTH 15 0
BBX 15 22 0 0
BITMAP
0F80
3FE0
7FF0
7870
2078
0038
0078
00F0
01F0
03E0
0F80
0F00
0E00
0F00
0700
0200
0000
0200
0780
0F00
0700
0200
ENDCHAR
STARTCHAR @
ENCODING 64
SWIDTH 930 0
DWIDTH 31 0
BBX 31 28 0 -6
BITMAP
000FF000
007FFE00
00FFFF80
01F00FC0
03C003E0
078000E0
0E07E4F0
1E1FFC70
1C3C3C38
18381838
38701838
38703838
38603838
30603838
30E03838
30603838
38703830
38703870
383878E0
383FFFC0
1C0F8F80
1E000000
0F000000
07800800
03E03800
01FFF800
00FFF000
001FC000
ENDCHAR
STARTCHAR A
ENCODING 65
SWIDTH 660 0
DWIDTH 22 0
BBX 22 22 0 0
BITMAP
007000
007800
00F800
00F800
01FC00
01DC00
01DE00
03CE00
038E00
038F00
078700
070780
0F0380
0E0380
0FFFC0
1FFFC0
1FFFE0
3C00E0
3800F0
3800F0
780070
700078
ENDCHAR
STARTCHAR B
ENCODING 66
SWIDTH 570 0
DWIDTH 19 0
BBX 19 22 0 0
BITMAP
1FF000
1FFC00
1FFE00
1C1E00
1C0E00
1C0E00
1C0E00
1C0E00
1C1E00
1FFC00
1FFE00
1FFF00
1C0780
1C0380
1C03C0
1C03C0
1C03C0
1C0380
1C0780
1FFF00
1FFE00
1FF800
ENDCHAR
STARTCHAR C
ENCODING 67
SWIDTH 660 0
DWIDTH 22 0
BBX 22 22 0 0
BITMAP
003F80
01FFE0
03FFF0
07C070
0F0010
1E0000
1C0000
3C0000
380000
380000
380000
380000
380000
3C0000
3C0000
1C0000
1E0000
0F0010
07C070
03FFF0
00FFE0
003F00
ENDCHAR
STARTCHAR D
ENCODING 68
SWIDTH 690 0
DWIDTH 23 0
BBX 23 22 0 0
BITMAP
1FF800
1FFF00
1FFFC0
1C07E0
1C01E0
1C00F0
1C0078
1C0078
1C0038
1C0038
1C0038
1C0038
1C0038
1C0038
1C0078
1C0078
1C00F0
1C01E0
1C07E0
1FFF80
1FFF00
1FF800
ENDCHAR
STARTCHAR E
ENCODING 69
SWIDTH 570 0
DWIDTH 19 0
BBX 19 22 0 0
BITMAP
1FFF80
1FFF80
1FFF80
1C0000
1C0000
1C0000
1C0000
1C0000
1C0000
1FFC00
1FFC00
1FFC00
1C0000
1C0000
1C0000
1C0000
1C0000
1C0000
1C0000
1FFF80
1FFF80
1FFF80
ENDCHAR
STARTCHAR F
ENCODING 70
SWIDTH 510 0
DWIDTH 17 0
BBX 17 22 0 0
BITMAP
1FFF00
1FFF00
1FFF00
1C0000
1C0000
1C0000
1C0000
1C0000
1C0000
1FFC00
1FFC00
1FFC00
1C0000
1C0000
1C0000
1C0000
1C0000
1C0000
1C0000
1C0000
1C0000
1C0000
ENDCHAR
STARTCHAR G
ENCODING 71
SWIDTH 720 0
DWIDTH 24 0
BBX 24 22 0 0
BITMAP
003FC0
01FFF8
03FFF8
07E078
0F0018
1E0000
1C0000
3C0000
3C0000
3807F8
3807F8
3807F8
380038
3C0038
3C0038
1E0038
1E0038
0F0038
07C078
03FFF8
01FFF0
003F80
ENDCHAR
STARTCHAR H
ENCODING 72
SWIDTH 690 0
DWIDTH 23 0
BBX 23 22 0 0
BITMAP
1C0070
1C0070
1C0070
1C0070
1C0070
1C0070
1C0070
1C0070
1FFFF0
1FFFF0
1FFFF0
1C0070
1C0070
1C0070
1C0070
1C0070
1C0070
1C0070
1C0070
1C0070
1C0070
1C0070
ENDCHAR
STARTCHAR I
ENCODING 73
SWIDTH 270 0
DWIDTH 9 0
BBX 9 22 0 0
BITMAP
1C00
1C00
1C00
1C00
1C00
1C00
1C00
1C00
1C00
1C00
1C00
1C00
1C00
1C00
1C00
1C00
1C00
1C00
1C00
1C00
1C00
1C00
ENDCHAR
STARTCHAR J
ENCODING 74
SWIDTH 450 0
DWIDTH 15 0
BBX 15 22 0 0
BITMAP
0078
0078
0078
0078
0078
0078
0078
0078
0078
0078
0078
0078
0078
0078
0078
0078
0070
3070
78F0
7FE0
3FC0
0F80
ENDCHAR
STARTCHAR K
ENCODING 75
SWIDTH 600 0
DWIDTH 20 0
BBX 20 22 0 0
BITMAP
1C01E0
1C07C0
1C0F80
1C1F00
1C3E00
1C7C00
1CF800
1DE000
1FC000
1F8000
1FC000
1FE000
1DF000
1CF800
1C7800
1C3C00
1C1E00
1C0F00
1C0780
1C07C0
1C03E0
1C01F0
ENDCHAR
STARTCHAR L
ENCODING 76
SWIDTH 510 0
DWIDTH 17 0
BBX 17 22 0 0
BITMAP
1C0000
1C0000
1C0000
1C0000
1C0000
1C0000
1C0000
1C0000
1C0000
1C0000
1C0000
1C0000
1C0000
1C0000
1C0000
1C0000
1C0000
1C0000
1C0000
1FFF80
1FFF80
1FFF80
ENDCHAR
STARTCHAR M
ENCODING 77
SWIDTH 840 0
DWIDTH 28 0
BBX 28 22 0 0
BITMAP
1E000780
1F000F80
1F001F80
1F801F80
1FC03F80
1DE07F80
1CF0F780
1CF1E780
1C7BE780
1C3FC780
1C1F8780
1C0F0780
1C0E0780
1C060780
1C000780
1C000780
1C000780
1C000780
1C000780
1C000780
1C000780
1C000780
ENDCHAR
STARTCHAR N
ENCODING 78
SWIDTH 750 0
DWIDTH 25 0
BBX 25 22 0 0
BITMAP
1C001C00
1E001C00
1F001C00
1F801C00
1F801C00
1FC01C00
1DE01C00
1CF01C00
1C701C00
1C781C00
1C3C1C00
1C1E1C00
1C0F1C00
1C0F1C00
1C079C00
1C03DC00
1C01FC00
1C01FC00
1C00FC00
1C007C00
1C003C00
1C003C00
ENDCHAR
STARTCHAR O
ENCODING 79
SWIDTH 780 0
DWIDTH 26 0
BBX 26 22 0 0
BITMAP
003F8000
01FFE000
03FFF000
07C0F800
0F003C00
1E001E00
1C000F00
3C000F00
38000700
38000700
38000700
38000700
38000700
3C000700
3C000F00
1C000E00
1E001E00
0F003C00
07C0F800
03FFF000
01FFE000
003F0000
ENDCHAR
STARTCHAR P
ENCODING 80
SWIDTH 570 0
DWIDTH 19 0
BBX 19 22 0 0
BITMAP
1FF800
1FFE00
1FFF00
1C0F80
1C0780
1C0380
1C0380
1C0380
1C0780
1C0F80
1FFF00
1FFE00
1FF800
1C0000
1C0000
1C0000
1C0000
1C0000
1C0000
1C0000
1C0000
1C0000
ENDCHAR
STARTCHAR Q
ENCODING 81
SWIDTH 780 0
DWIDTH 26 0
BBX 26 22 0 0
BITMAP
003F8000
01FFE000
03FFF000
07C0F800
0F003C00
1E001E00
1C000F00
3C000F00
38000700
38000700
38000700
38000700
38000700
3C000700
3C004F00
1C01EE00
1E00FE00
0F007C00
07C0FC00
03FFFE00
01FFEF00
003F8600
ENDCHAR
STARTCHAR R
ENCODING 82
SWIDTH 570 0
DWIDTH 19 0
BBX 20 22 0 0
BITMAP
1FF000
1FFC00
1FFE00
1C1F00
1C0F00
1C0700
1C0700
1C0F00
1C1F00
1FFE00
1FFC00
1FF000
1C7800
1C7800
1C3C00
1C1E00
1C1E00
1C0F00
1C0780
1C07C0
1C03C0
1C01E0
ENDCHAR
STARTCHAR S
ENCODING 83
SWIDTH 480 0
DWIDTH 16 0
BBX 16 22 0 0
BITMAP
07C0
0FF0
1FF8
3C78
3830
3800
3C00
3E00
1F80
0FE0
07F0
00F8
007C
001E
001E
001E
101E
701E
7C3C
3FF8
1FF0
07E0
ENDCHAR
STARTCHAR T
ENCODING 84
SWIDTH 570 0
DWIDTH 19 0
BBX 19 22 0 0
BITMAP
7FFFC0
7FFFC0
7FFFC0
00E000
00E000
00E000
00E000
00E000
00E000
00E000
00E000
00E000
00E000
00E000
00E000
00E000
00E000
00E000
00E000
00E000
00E000
00E000
ENDCHAR
STARTCHAR U
ENCODING 85
SWIDTH 750 0
DWIDTH 25 0
BBX 25 22 0 0
BITMAP
1C001C00
1C001C00
1C001C00
1C001C00
1C001C00
1C001C00
1C001C00
1C001C00
1C001C00
1C001C00
1C001C00
1C001C00
1C001C00
1C001C00
1C003C00
1E003C00
0E007800
0F007800
07C1F000
03FFE000
01FFC000
007F0000
ENDCHAR
STARTCHAR V
ENCODING 86
SWIDTH 630 0
DWIDTH 21 0
BBX 21 22 0 0
BITMAP
7000F0
7800E0
3800E0
3801E0
3C01C0
1C01C0
1E03C0
1E0380
0E0780
0F0700
070700
070F00
078E00
038E00
039E00
03DC00
01DC00
01FC00
00F800
00F800
00F000
007000
ENDCHAR
STARTCHAR W
ENCODING 87
SWIDTH 930 0
DWIDTH 31 0
BBX 31 22 0 0
BITMAP
7803C01C
3803C03C
3807C038
3C07C038
3C07E038
1C07E078
1C0EE070
1E0EF070
0E0E7070
0E1C70E0
0F1C70E0
071C38E0
071C39E0
073839C0
07B83DC0
03B81DC0
03F01F80
03F01F80
01F00F80
01F00F80
01E00F00
01E00700
ENDCHAR
STARTCHAR X
ENCODING 88
SWIDTH 660 0
DWIDTH 22 0
BBX 22 22 0 0
BITMAP
7800F0
3C01E0
1E01C0
1E03C0
0F0780
078F00
03CF00
03DE00
01FC00
00F800
007800
00F800
01FC00
03DE00
03CF00
078700
0F0780
0E03C0
1E01E0
3C00F0
7800F0
780078
ENDCHAR
STARTCHAR Y
ENCODING 89
SWIDTH 570 0
DWIDTH 19 0
BBX 19 22 0 0
BITMAP
7801C0
7803C0
3C0380
1C0780
1E0700
0F0E00
0F1E00
079C00
03BC00
03F800
01F000
00F000
00E000
00E000
00E000
00E000
00E000
00E000
00E000
00E000
00E000
00E000
ENDCHAR
STARTCHAR Z
ENCODING 90
SWIDTH 600 0
DWIDTH 20 0
BBX 20 22 0 0
BITMAP
3FFFE0
3FFFC0
3FFFC0
000780
000F00
000F00
001E00
003C00
003C00
007800
00F000
00F000
01E000
03C000
03C000
078000
0F0000
0F0000
1E0000
3FFFE0
3FFFE0
7FFFE0
ENDCHAR
STARTCHAR [
ENCODING 91
SWIDTH 330 0
DWIDTH 11 0
BBX 11 29 0 -4
BITMAP
1FC0
1FC0
1800
1800
1800
1800
1800
1800
1800
1800
1800
1800
1800
1800
1800
1800
1800
1800
1800
1800
1800
1800
1800
1800
1800
1800
1800
1FC0
1FC0
ENDCHAR
STARTCHAR \
ENCODING 92
SWIDTH 300 0
DWIDTH 10 0
BBX 11 26 0 -2
BITMAP
E000
E000
7000
7000
7000
3000
3800
3800
3800
1C00
1C00
1C00
0C00
0E00
0E00
0E00
0700
0700
0700
0300
0380
0380
0180
01C0
01C0
01C0
ENDCHAR
STARTCHAR ]
ENCODING 93
SWIDTH 330 0
DWIDTH 11 0
BBX 11 29 0 -4
BITMAP
7F00
7F00
0700
0700
0700
0700
0700
0700
0700
0700
0700
0700
0700
0700
0700
0700
0700
0700
0700
0700
0700
0700
0700
0700
0700
0700
0700
7F00
7F00
ENDCHAR
STARTCHAR ^
ENCODING 94
SWIDTH 540 0
DWIDTH 18 0
BBX 18 22 0 0
BITMAP
01E000
01F000
03F000
073800
071C00
0E1C00
1C0E00
1C0700
380780
000000
000000
000000
000000
000000
000000
000000
000000
000000
000000
000000
000000
000000
ENDCHAR
STARTCHAR _
ENCODING 95
SWIDTH 480 0
DWIDTH 16 0
BBX 18 4 -1 -4
BITMAP
000000
000000
FFFF00
FFFF00
ENDCHAR
STARTCHAR `
ENCODING 96
SWIDTH 450 0
DWIDTH 15 0
BBX 15 22 0 0
BITMAP
FFFE
FFFE
FFFE
E00E
E00E
E00E
E00E
E00E
E00E
E00E
E00E
E00E
E00E
E00E
E00E
E00E
E00E
E00E
E00E
FFFE
FFFE
FFFE
ENDCHAR
STARTCHAR a
ENCODING 97
SWIDTH 510 0
DWIDTH 17 0
BBX 17 16 0 0
BITMAP
07E000
1FF000
1FF800
183C00
201C00
001C00
01FC00
0FFC00
1E1C00
3C1C00
381C00
381C00
383C00
3FFC00
1FFC00
0FDC00
ENDCHAR
STARTCHAR b
ENCODING 98
SWIDTH 570 0
DWIDTH 19 0
BBX 19 22 0 0
BITMAP
1C0000
1C0000
1C0000
1C0000
1C0000
1C0000
1DF800
1FFE00
1FFF00
1E0F00
1C0780
1C0380
1C03C0
1C01C0
1C01C0
1C03C0
1C0380
1C0780
1E0F80
1FFF00
1FFE00
19F800
ENDCHAR
STARTCHAR c
ENCODING 99
SWIDTH 480 0
DWIDTH 16 0
BBX 16 16 0 0
BITMAP
01F0
07FC
0FFE
1F0E
3C02
3800
3800
3800
3800
3800
3800
3C00
1F06
0FFE
07FE
01F8
ENDCHAR
STARTCHAR d
ENCODING 100
SWIDTH 570 0
DWIDTH 19 0
BBX 19 22 0 0
BITMAP
000380
000380
000380
000380
000380
000380
01F380
07FF80
0FFF80
1E0F80
3C0380
380380
380380
380380
380380
380380
380380
3C0380
1F0F80
0FFF80
07FF80
01F380
ENDCHAR
STARTCHAR e
ENCODING 101
SWIDTH 540 0
DWIDTH 18 0
BBX 18 16 0 0
BITMAP
03F000
07FC00
0FFE00
1E1E00
3C0F00
380700
3FFF00
3FFF00
3FFF00
380000
380000
3C0100
1E0700
0FFF00
07FE00
01F800
ENDCHAR
STARTCHAR f
ENCODING 102
SWIDTH 360 0
DWIDTH 12 0
BBX 12 22 0 0
BITMAP
03F0
07F0
0FF0
1E00
1C00
1C00
7FF0
7FF0
7FF0
1C00
1C00
1C00
1C00
1C00
1C00
1C00
1C00
1C00
1C00
1C00
1C00
1C00
ENDCHAR
STARTCHAR g
ENCODING 103
SWIDTH 510 0
DWIDTH 17 0
BBX 17 22 0 -6
BITMAP
07FF00
1FFF00
3FFF00
3C3800
381C00
301C00
381C00
3C3C00
1FF800
0FF000
1FE000
1C0000
1F0000
0FF000
1FFC00
387E00
700E00
700700
780F00
7FFE00
3FFC00
0FF000
ENDCHAR
STARTCHAR h
ENCODING 104
SWIDTH 570 0
DWIDTH 19 0
BBX 19 22 0 0
BITMAP
1C0000
1C0000
1C0000
1C0000
1C0000
1C0000
1DF800
1FFE00
1FFF00
1E0F00
1C0780
1C0780
1C0380
1C0380
1C0380
1C0380
1C0380
1C0380
1C0380
1C0380
1C0380
1C0380
ENDCHAR
STARTCHAR i
ENCODING 105
SWIDTH 240 0
DWIDTH 8 0
BBX 8 21 0 0
BITMAP
08
1C
3C
18
00
1C
1C
1C
1C
1C
1C
1C
1C
1C
1C
1C
1C
1C
1C
1C
1C
ENDCHAR
STARTCHAR j
ENCODING 106
SWIDTH 240 0
DWIDTH 8 0
BBX 9 27 -1 -6
BITMAP
0C00
1E00
0E00
0400
0000
0E00
0E00
0E00
0E00
0E00
0E00
0E00
0E00
0E00
0E00
0E00
0E00
0E00
0E00
0E00
0E00
0E00
1E00
1C00
FC00
F800
F000
ENDCHAR
STARTCHAR k
ENCODING 107
SWIDTH 510 0
DWIDTH 17 0
BBX 17 22 0 0
BITMAP
1C0000
1C0000
1C0000
1C0000
1C0000
1C0000
1C0F00
1C3E00
1C7C00
1CF800
1DE000
1FC000
1F8000
1F8000
1FC000
1DE000
1DF000
1CF800
1C7C00
1C3E00
1C1E00
1C0F00
ENDCHAR
STARTCHAR l
ENCODING 108
SWIDTH 300 0
DWIDTH 10 0
BBX 10 22 0 0
BITMAP
3800
3800
3800
3800
3800
3800
3800
3800
3800
3800
3800
3800
3800
3800
3800
3800
3800
3C00
1C00
1FC0
1FC0
07C0
ENDCHAR
STARTCHAR m
ENCODING 109
SWIDTH 900 0
DWIDTH 30 0
BBX 30 16 0 0
BITMAP
1DF83F00
1FFCFF80
1FFFFFC0
1E0FC1E0
1C0700E0
1C0700E0
1C0700E0
1C0700E0
1C0700E0
1C0700E0
1C0700E0
1C0700E0
1C0700E0
1C0700E0
1C0700E0
1C0700E0
ENDCHAR
STARTCHAR n
ENCODING 110
SWIDTH 570 0
DWIDTH 19 0
BBX 19 16 0 0
BITMAP
1DF800
1FFE00
1FFF00
1E0F00
1C0780
1C0780
1C0380
1C0380
1C0380
1C0380
1C0380
1C0380
1C0380
1C0380
1C0380
1C0380
ENDCHAR
STARTCHAR o
ENCODING 111
SWIDTH 600 0
DWIDTH 20 0
BBX 20 16 0 0
BITMAP
01F800
07FE00
0FFF00
1F0F80
3C0780
3803C0
3801C0
3801C0
3801C0
3801C0
3803C0
3C0780
1E0F80
0FFF00
07FE00
01F800
ENDCHAR
STARTCHAR p
ENCODING 112
SWIDTH 570 0
DWIDTH 19 0
BBX 19 22 0 -6
BITMAP
19F800
1FFE00
1FFF00
1E0F80
1C0780
1C0380
1C03C0
1C01C0
1C01C0
1C03C0
1C0380
1C0780
1E0F00
1FFF00
1FFC00
1DF000
1C0000
1C0000
1C0000
1C0000
1C0000
1C0000
ENDCHAR
STARTCHAR q
ENCODING 113
SWIDTH 570 0
DWIDTH 19 0
BBX 19 22 0 -6
BITMAP
01F380
07FF80
0FFF80
1F0F80
3C0380
380380
380380
380380
380380
380380
380380
3C0380
1F0F80
0FFF80
07FF80
01F380
000380
000380
000380
000380
000380
000380
ENDCHAR
STARTCHAR r
ENCODING 114
SWIDTH 390 0
DWIDTH 13 0
BBX 13 16 0 0
BITMAP
1DF0
1FF0
1FF0
1E00
1C00
1C00
1C00
1C00
1C00
1C00
1C00
1C00
1C00
1C00
1C00
1C00
ENDCHAR
STARTCHAR s
ENCODING 115
SWIDTH 450 0
DWIDTH 15 0
BBX 15 16 0 0
BITMAP
07E0
1FF8
3FF8
3818
3800
3C00
3FC0
1FF0
07F8
007C
001C
201C
383C
3FF8
1FF0
07E0
ENDCHAR
STARTCHAR t
ENCODING 116
SWIDTH 390 0
DWIDTH 13 0
BBX 13 20 0 0
BITMAP
1C00
1C00
1C00
1C00
7FF0
7FF0
7FF0
1C00
1C00
1C00
1C00
1C00
1C00
1C00
1C00
1C00
1E00
0FF0
0FF0
03F0
ENDCHAR
STARTCHAR u
ENCODING 117
SWIDTH 570 0
DWIDTH 19 0
BBX 19 16 0 0
BITMAP
380380
380380
380380
380380
380380
380380
380380
380380
380380
380380
3C0380
1C0380
1E0F80
0FFF80
07FF80
03F380
ENDCHAR
STARTCHAR v
ENCODING 118
SWIDTH 510 0
DWIDTH 17 0
BBX 17 16 0 0
BITMAP
700780
700700
380F00
380E00
3C0E00
1C1E00
1C1C00
0E1C00
0E3800
073800
077000
077000
03F000
03E000
01E000
01C000
ENDCHAR
STARTCHAR w
ENCODING 119
SWIDTH 810 0
DWIDTH 27 0
BBX 27 16 0 0
BITMAP
700E01E0
780F01C0
381F01C0
381F03C0
3C1F8380
1C3B8380
1C39C780
1E39C700
0E71C700
0E70EF00
0F60EE00
07E0EE00
07E07E00
07C07C00
03C03C00
03C03C00
ENDCHAR
STARTCHAR x
ENCODING 120
SWIDTH 480 0
DWIDTH 16 0
BBX 17 16 0 0
BITMAP
781E00
3C1C00
1C3800
0E7800
0FF000
07E000
03E000
03C000
03E000
07F000
0F7000
1E7800
1C3C00
3C1C00
780E00
700F00
ENDCHAR
STARTCHAR y
ENCODING 121
SWIDTH 510 0
DWIDTH 17 0
BBX 17 22 0 -6
BITMAP
700780
700700
380700
380E00
3C0E00
1C1E00
1C1C00
0E1C00
0E3800
073800
077800
077000
03F000
03E000
01E000
01E000
01C000
01C000
038000
1F8000
1F0000
1E0000
ENDCHAR
STARTCHAR z
ENCODING 122
SWIDTH 450 0
DWIDTH 15 0
BBX 15 16 0 0
BITMAP
3FFC
3FFC
3FF8
0070
00F0
01E0
01C0
03C0
0380
0700
0F00
0E00
1E00
3FFC
3FFC
7FFC
ENDCHAR
STARTCHAR {
ENCODING 123
SWIDTH 360 0
DWIDTH 12 0
BBX 12 28 0 -3
BITMAP
03C0
07C0
0700
0E00
0E00
0E00
0E00
0E00
0E00
0E00
0E00
0E00
3C00
3800
3800
3C00
0E00
0E00
0E00
0E00
0E00
0E00
0E00
0E00
0E00
0700
07C0
03C0
ENDCHAR
STARTCHAR |
ENCODING 124
SWIDTH 210 0
DWIDTH 7 0
BBX 7 32 0 -8
BITMAP
38
38
38
38
38
38
38
38
38
38
38
38
38
38
38
38
38
38
38
38
38
38
38
38
38
38
38
38
38
38
38
38
ENDCHAR
STARTCHAR }
ENCODING 125
SWIDTH 360 0
DWIDTH 12 0
BBX 12 28 0 -3
BITMAP
7800
7C00
0E00
0E00
0E00
0E00
0E00
0E00
0E00
0E00
0E00
0700
0780
03C0
03C0
0780
0700
0E00
0E00
0E00
0E00
0E00
0E00
0E00
0E00
0E00
7C00
7800
ENDCHAR
STARTCHAR ~
ENCODING 126
SWIDTH 510 0
DWIDTH 17 0
BBX 17 14 0 0
BITMAP
0F0600
1F8600
1FCE00
39FE00
30FC00
303800
000000
000000
000000
000000
000000
000000
000000
000000
ENDCHAR
STARTCHAR U+00A0
ENCODING 160
SWIDTH 240 0
DWIDTH 8 0
BBX 8 37 0 -8
BITMAP
00
00
00
00
00
00
00
00
00
00
00
00
00
00
00
00
00
00
00
00
00
00
00
00
00
00
00
00
00
00
00
00
00
00
00
00
00
ENDCHAR
STARTCHAR U+00A1
ENCODING 161
SWIDTH 270 0
DWIDTH 9 0
BBX 9 22 0 -6
BITMAP
0800
1C00
1C00
0800
0000
0000
0C00
1C00
1C00
1C00
1C00
1C00
1C00
1C00
1C00
1C00
1C00
1C00
1C00
1C00
1C00
1C00
ENDCHAR
STARTCHAR U+00A2
ENCODING 162
SWIDTH 480 0
DWIDTH 16 0
BBX 16 19 0 -2
BITMAP
00E0
01F0
07FC
0FFE
1F0E
3C02
3800
3800
3800
3800
3800
3800
3C00
1F06
0FFE
07FE
01F8
00E0
00E0
ENDCHAR
STARTCHAR U+00A3
ENCODING 163
SWIDTH 510 0
DWIDTH 17 0
BBX 17 22 0 0
BITMAP
00F800
01FE00
03FE00
078E00
070400
070000
070000
070000
0F0000
0F0000
1FF000
3FF000
3FF000
0E0000
0E0000
0E0000
0E0000
1E0000
1C0000
3FFF00
3FFE00
7FFE00
ENDCHAR
STARTCHAR U+00A4
ENCODING 164
SWIDTH 570 0
DWIDTH 19 0
BBX 19 17 0 0
BITMAP
180100
380380
3DF7C0
1FFF80
0FFF00
0F0F00
1E0700
1C0700
1C0700
1C0700
1E0700
0F0F00
0FFF00
1FFF80
3DF7C0
380380
180100
ENDCHAR
STARTCHAR U+00A5
ENCODING 165
SWIDTH 600 0
DWIDTH 20 0
BBX 20 22 0 0
BITMAP
7801E0
3801C0
3C03C0
1C0380
0E0700
0F0700
070E00
078E00
3F9FC0
3FFFC0
3FFFC0
00F000
00F000
3FFFC0
3FFFC0
3FFFC0
00F000
00F000
00F000
00F000
00F000
00F000
ENDCHAR
STARTCHAR U+00A6
ENCODING 166
SWIDTH 210 0
DWIDTH 7 0
BBX 7 32 0 -8
BITMAP
38
38
38
38
38
38
38
38
38
38
38
38
38
00
00
00
00
00
00
38
38
38
38
38
38
38
38
38
38
38
38
38
ENDCHAR
STARTCHAR U+00A7
ENCODING 167
SWIDTH 480 0
DWIDTH 16 0
BBX 16 28 0 -6
BITMAP
07C0
1FF0
3FF8
3C78
383C
7810
3800
3C00
1F00
0FE0
1FF8
7CFC
703C
701C
701C
781C
3E3C
1FF8
07F0
00F8
003C
001C
101C
781C
3C3C
3FF8
1FF0
07C0
ENDCHAR
STARTCHAR U+00A8
ENCODING 168
SWIDTH 450 0
DWIDTH 15 0
BBX 15 22 0 0
BITMAP
FFFE
FFFE
FFFE
E00E
E00E
E00E
E00E
E00E
E00E
E00E
E00E
E00E
E00E
E00E
E00E
E00E
E00E
E00E
E00E
FFFE
FFFE
FFFE
ENDCHAR
STARTCHAR U+00A9
ENCODING 169
SWIDTH 780 0
DWIDTH 26 0
BBX 26 22 0 0
BITMAP
003F0000
01FFC000
03C0F000
07003800
0C3F1C00
187FCC00
19E0C600
31C00200
33800300
23800300
23800300
23800300
33800300
31C00300
30E0C200
187FC600
183F0C00
0C001C00
07003800
03C0F000
01FFC000
007F0000
ENDCHAR
STARTCHAR U+00AA
ENCODING 170
SWIDTH 300 0
DWIDTH 10 0
BBX 10 22 0 0
BITMAP
3E00
7F00
0380
0380
1F80
3F80
7380
6380
7F80
3F80
0000
0000
0000
0000
0000
0000
0000
0000
0000
0000
0000
0000
ENDCHAR
STARTCHAR U+00AB
ENCODING 171
SWIDTH 540 0
DWIDTH 18 0
BBX 18 15 0 0
BITMAP
03C780
038700
070E00
0E1C00
1C3800
387000
387000
387000
1C3800
0E1C00
070E00
078F00
038700
000000
000000
ENDCHAR
STARTCHAR U+00AC
ENCODING 172
SWIDTH 510 0
DWIDTH 17 0
BBX 17 15 0 0
BITMAP
3FFE00
3FFE00
3FFE00
000E00
000E00
000E00
000E00
000E00
000E00
000E00
000000
000000
000000
000000
000000
ENDCHAR
STARTCHAR U+00AD
ENCODING 173
SWIDTH 360 0
DWIDTH 12 0
BBX 12 10 0 0
BITMAP
7FE0
7FE0
7FE0
0000
0000
0000
0000
0000
0000
0000
ENDCHAR
STARTCHAR U+00AE
ENCODING 174
SWIDTH 780 0
DWIDTH 26 0
BBX 26 22 0 0
BITMAP
007F0000
01FFC000
03C0F000
07003800
0C001C00
187E0C00
187F8600
30638200
30618300
20638300
207F8300
207E0300
30670300
30670300
30638200
1861C600
1861CC00
0C001C00
07003800
03C0F000
01FFC000
007F0000
ENDCHAR
STARTCHAR U+00AF
ENCODING 175
SWIDTH 450 0
DWIDTH 15 0
BBX 15 22 0 0
BITMAP
FFFE
FFFE
FFFE
E00E
E00E
E00E
E00E
E00E
E00E
E00E
E00E
E00E
E00E
E00E
E00E
E00E
E00E
E00E
E00E
FFFE
FFFE
FFFE
ENDCHAR
STARTCHAR U+00B0
ENCODING 176
SWIDTH 390 0
DWIDTH 13 0
BBX 13 22 0 0
BITMAP
0F00
1FC0
38C0
30E0
30E0
30E0
38C0
1FC0
0F00
0000
0000
0000
0000
0000
0000
0000
0000
0000
0000
0000
0000
0000
ENDCHAR
STARTCHAR U+00B1
ENCODING 177
SWIDTH 510 0
DWIDTH 17 0
BBX 17 19 0 0
BITMAP
01C000
01C000
01C000
01C000
01C000
3FFE00
3FFE00
3FFE00
01C000
01C000
01C000
01C000
01C000
000000
000000
000000
3FFE00
3FFE00
3FFE00
ENDCHAR
STARTCHAR U+00B2
ENCODING 178
SWIDTH 330 0
DWIDTH 11 0
BBX 11 22 0 0
BITMAP
1E00
7F00
6380
4180
0180
0380
0380
0700
0F00
0E00
1E00
1C00
3FC0
3FC0
0000
0000
0000
0000
0000
0000
0000
0000
ENDCHAR
STARTCHAR U+00B3
ENCODING 179
SWIDTH 330 0
DWIDTH 11 0
BBX 11 22 0 0
BITMAP
7F80
7F80
0700
0700
0E00
0F00
1F80
0380
01C0
01C0
01C0
2380
7F00
3E00
0000
0000
0000
0000
0000
0000
0000
0000
ENDCHAR
STARTCHAR U+00B4
ENCODING 180
SWIDTH 450 0
DWIDTH 15 0
BBX 15 22 0 0
BITMAP
FFFE
FFFE
FFFE
E00E
E00E
E00E
E00E
E00E
E00E
E00E
E00E
E00E
E00E
E00E
E00E
E00E
E00E
E00E
E00E
FFFE
FFFE
FFFE
ENDCHAR
STARTCHAR U+00B5
ENCODING 181
SWIDTH 570 0
DWIDTH 19 0
BBX 19 22 0 -6
BITMAP
1C0700
1C0700
1C0700
1C0700
1C0700
1C0700
1C0700
1C0700
1C0700
1C0700
1C0700
1C0700
1E0F00
1FFF00
1FFF00
1DF700
1C0000
1C0000
1C0000
1C0000
1C0000
1C0000
ENDCHAR
STARTCHAR U+00B6
ENCODING 182
SWIDTH 540 0
DWIDTH 18 0
BBX 18 28 0 -6
BITMAP
07FF80
1FFF80
3FC600
3FC600
3FC600
3FC600
3FC600
3FC600
3FC600
3FC600
1FC600
07C600
00C600
00C600
00C600
00C600
00C600
00C600
00C600
00C600
00C600
00C600
00C600
00C600
00C600
00C600
00C600
00C600
ENDCHAR
STARTCHAR U+00B7
ENCODING 183
SWIDTH 240 0
DWIDTH 8 0
BBX 8 13 0 0
BITMAP
10
18
3C
18
10
00
00
00
00
00
00
00
00
ENDCHAR
STARTCHAR U+00B8
ENCODING 184
SWIDTH 450 0
DWIDTH 15 0
BBX 15 22 0 0
BITMAP
FFFE
FFFE
FFFE
E00E
E00E
E00E
E00E
E00E
E00E
E00E
E00E
E00E
E00E
E00E
E00E
E00E
E00E
E00E
E00E
FFFE
FFFE
FFFE
ENDCHAR
STARTCHAR U+00B9
ENCODING 185
SWIDTH 240 0
DWIDTH 8 0
BBX 8 22 0 0
BITMAP
08
18
38
38
38
38
38
38
38
38
38
38
38
38
00
00
00
00
00
00
00
00
ENDCHAR
STARTCHAR U+00BA
ENCODING 186
SWIDTH 360 0
DWIDTH 12 0
BBX 12 22 0 0
BITMAP
0F00
3FC0
38E0
7060
6060
6060
7060
38E0
3FC0
0F80
0000
0000
0000
0000
0000
0000
0000
0000
0000
0000
0000
0000
ENDCHAR
STARTCHAR U+00BB
ENCODING 187
SWIDTH 540 0
DWIDTH 18 0
BBX 18 15 0 0
BITMAP
387000
1C7800
1E3800
0E1C00
070E00
038700
01C780
038700
070E00
0F1C00
0E3800
1C7800
387000
000000
000000
ENDCHAR
STARTCHAR U+00BC
ENCODING 188
SWIDTH 780 0
DWIDTH 26 0
BBX 26 22 0 0
BITMAP
0800E000
1801C000
3801C000
38038000
38038000
38070000
38070000
380E0000
380E0100
381C0300
381C0700
38380F00
38380F00
38701F00
00703700
00E06700
00C0E700
01C1FF80
0183FF80
03800700
03000700
07000700
ENDCHAR
STARTCHAR U+00BD
ENCODING 189
SWIDTH 810 0
DWIDTH 27 0
BBX 27 22 0 0
BITMAP
0800E000
1801C000
3801C000
38038000
38038000
38070000
38070000
380E0000
380E1E00
381C7F00
381C6380
38384180
38380180
38700380
00700380
00E00700
00C00F00
01C00E00
01801E00
03801C00
03003FC0
07003FC0
ENDCHAR
STARTCHAR U+00BE
ENCODING 190
SWIDTH 840 0
DWIDTH 28 0
BBX 28 22 0 0
BITMAP
7F801C00
7F803800
07003800
07007000
0E007000
0F00E000
1F80E000
0381C000
01C1C040
01C380C0
01C381C0
238703C0
7F0703C0
3E0E07C0
000E0DC0
001C19C0
001839C0
00387FE0
0030FFE0
007001C0
006001C0
00E001C0
ENDCHAR
STARTCHAR U+00BF
ENCODING 191
SWIDTH 450 0
DWIDTH 15 0
BBX 15 22 0 -6
BITMAP
0100
0180
03C0
01C0
0080
0000
0080
01C0
01C0
01E0
01E0
07C0
0F80
1E00
3C00
3800
3800
3818
3C3C
1FF8
1FF0
07E0
ENDCHAR
STARTCHAR U+00C0
ENCODING 192
SWIDTH 660 0
DWIDTH 22 0
BBX 22 29 0 0
BITMAP
01C000
01E000
00E000
007000
003800
000000
000000
007000
007800
00F800
00F800
01FC00
01DC00
01DE00
03CE00
038E00
038F00
078700
070780
0F0380
0E0380
0FFFC0
1FFFC0
1FFFE0
3C00E0
3800F0
3800F0
780070
700078
ENDCHAR
STARTCHAR U+00C1
ENCODING 193
SWIDTH 660 0
DWIDTH 22 0
BBX 22 29 0 0
BITMAP
001E00
003C00
003800
007000
006000
000000
000000
007000
007800
00F800
00F800
01FC00
01DC00
01DE00
03CE00
038E00
038F00
078700
070780
0F0380
0E0380
0FFFC0
1FFFC0
1FFFE0
3C00E0
3800F0
3800F0
780070
700078
ENDCHAR
STARTCHAR U+00C2
ENCODING 194
SWIDTH 660 0
DWIDTH 22 0
BBX 22 29 0 0
BITMAP
00F000
00F800
01DC00
018C00
030600
000000
000000
007000
007800
00F800
00F800
01FC00
01DC00
01DE00
03CE00
038E00
038F00
078700
070780
0F0380
0E0380
0FFFC0
1FFFC0
1FFFE0
3C00E0
3800F0
3800F0
780070
700078
ENDCHAR
STARTCHAR U+00C3
ENCODING 195
SWIDTH 660 0
DWIDTH 22 0
BBX 22 28 0 0
BITMAP
01C200
03F700
037E00
001E00
000000
000000
007000
007800
00F800
00F800
01FC00
01DC00
01DE00
03CE00
038E00
038F00
078700
070780
0F0380
0E0380
0FFFC0
1FFFC0
1FFFE0
3C00E0
3800F0
3800F0
780070
700078
ENDCHAR
STARTCHAR U+00C4
ENCODING 196
SWIDTH 660 0
DWIDTH 22 0
BBX 22 28 0 0
BITMAP
010400
038E00
038F00
010400
000000
000000
007000
007800
00F800
00F800
01FC00
01DC00
01DE00
03CE00
038E00
038F00
078700
070780
0F0380
0E0380
0FFFC0
1FFFC0
1FFFE0
3C00E0
3800F0
3800F0
780070
700078
ENDCHAR
STARTCHAR U+00C5
ENCODING 197
SWIDTH 660 0
DWIDTH 22 0
BBX 22 30 0 0
BITMAP
007800
006C00
00C400
00C400
006C00
007800
000000
000000
007000
007800
00F800
00F800
01FC00
01DC00
01DE00
03CE00
038E00
038F00
078700
070780
0F0380
0E0380
0FFFC0
1FFFC0
1FFFE0
3C00E0
3800F0
3800F0
780070
700078
ENDCHAR
STARTCHAR U+00C6
ENCODING 198
SWIDTH 900 0
DWIDTH 30 0
BBX 30 22 0 0
BITMAP
000FFFF0
000FFFF0
001FFFF0
001DC000
003DC000
0039C000
0079C000
00F1C000
00F1C000
01E1FF80
01E1FF80
03C1FF80
03C1C000
07FFC000
07FFC000
0FFFC000
1E01C000
1E01C000
3C01C000
3C01FFF0
7801FFF0
7001FFF0
ENDCHAR
STARTCHAR U+00C7
ENCODING 199
SWIDTH 660 0
DWIDTH 22 0
BBX 22 29 0 -7
BITMAP
003F80
01FFE0
03FFF0
07C070
0F0010
1E0000
1C0000
3C0000
380000
380000
380000
380000
380000
3C0000
3C0000
1C0000
1E0000
0F0010
07C070
03FFF0
01FFE0
003F00
001800
001E00
003F00
000700
000600
007E00
007C00
ENDCHAR
STARTCHAR U+00C8
ENCODING 200
SWIDTH 570 0
DWIDTH 19 0
BBX 19 29 0 0
BITMAP
038000
03C000
01C000
00E000
007000
000000
000000
1FFF80
1FFF80
1FFF80
1C0000
1C0000
1C0000
1C0000
1C0000
1C0000
1FFC00
1FFC00
1FFC00
1C0000
1C0000
1C0000
1C0000
1C0000
1C0000
1C0000
1FFF80
1FFF80
1FFF80
ENDCHAR
STARTCHAR U+00C9
ENCODING 201
SWIDTH 570 0
DWIDTH 19 0
BBX 19 29 0 0
BITMAP
003C00
007800
007000
00E000
00C000
000000
000000
1FFF80
1FFF80
1FFF80
1C0000
1C0000
1C0000
1C0000
1C0000
1C0000
1FFC00
1FFC00
1FFC00
1C0000
1C0000
1C0000
1C0000
1C0000
1C0000
1C0000
1FFF80
1FFF80
1FFF80
ENDCHAR
STARTCHAR U+00CA
ENCODING 202
SWIDTH 570 0
DWIDTH 19 0
BBX 19 29 0 0
BITMAP
01E000
01F000
03B800
031800
060C00
000000
000000
1FFF80
1FFF80
1FFF80
1C0000
1C0000
1C0000
1C0000
1C0000
1C0000
1FFC00
1FFC00
1FFC00
1C0000
1C0000
1C0000
1C0000
1C0000
1C0000
1C0000
1FFF80
1FFF80
1FFF80
ENDCHAR
STARTCHAR U+00CB
ENCODING 203
SWIDTH 570 0
DWIDTH 19 0
BBX 19 28 0 0
BITMAP
020800
071C00
071E00
020800
000000
000000
1FFF80
1FFF80
1FFF80
1C0000
1C0000
1C0000
1C0000
1C0000
1C0000
1FFC00
1FFC00
1FFC00
1C0000
1C0000
1C0000
1C0000
1C0000
1C0000
1C0000
1FFF80
1FFF80
1FFF80
ENDCHAR
STARTCHAR U+00CC
ENCODING 204
SWIDTH 270 0
DWIDTH 9 0
BBX 9 29 0 0
BITMAP
7000
7800
3800
1C00
0E00
0000
0000
1C00
1C00
1C00
1C00
1C00
1C00
1C00
1C00
1C00
1C00
1C00
1C00
1C00
1C00
1C00
1C00
1C00
1C00
1C00
1C00
1C00
1C00
ENDCHAR
STARTCHAR U+00CD
ENCODING 205
SWIDTH 270 0
DWIDTH 9 0
BBX 10 29 0 0
BITMAP
0780
0F00
0E00
1C00
1800
0000
0000
1C00
1C00
1C00
1C00
1C00
1C00
1C00
1C00
1C00
1C00
1C00
1C00
1C00
1C00
1C00
1C00
1C00
1C00
1C00
1C00
1C00
1C00
ENDCHAR
STARTCHAR U+00CE
ENCODING 206
SWIDTH 270 0
DWIDTH 9 0
BBX 10 29 0 0
BITMAP
0000
0000
0000
0000
0000
0000
0000
0000
0000
0000
0000
0000
0000
0000
0000
0000
0000
0000
0000
0000
0000
0000
0000
0000
0000
0000
0000
0000
0000
ENDCHAR
STARTCHAR U+00CF
ENCODING 207
SWIDTH 270 0
DWIDTH 9 0
BBX 11 28 -1 0
BITMAP
0000
0000
0000
0000
0000
0000
0000
0000
0000
0000
0000
0000
0000
0000
0000
0000
0000
0000
0000
0000
0000
0000
0000
0000
0000
0000
0000
0000
ENDCHAR
STARTCHAR U+00D0
ENCODING 208
SWIDTH 690 0
DWIDTH 23 0
BBX 23 22 0 0
BITMAP
1FF800
1FFF00
1FFFC0
1C07E0
1C01E0
1C00F0
1C0078
1C0078
1C0038
1C0038
7FF038
7FF038
7FF038
1C0038
1C0078
1C0078
1C00F0
1C01E0
1C07E0
1FFF80
1FFF00
1FF800
ENDCHAR
STARTCHAR U+00D1
ENCODING 209
SWIDTH 750 0
DWIDTH 25 0
BBX 25 28 0 0
BITMAP
00E10000
01FB8000
01BF0000
000F0000
00000000
00000000
1C001C00
1E001C00
1F001C00
1F801C00
1F801C00
1FC01C00
1DE01C00
1CF01C00
1C701C00
1C781C00
1C3C1C00
1C1E1C00
1C0F1C00
1C0F1C00
1C079C00
1C03DC00
1C01FC00
1C01FC00
1C00FC00
1C007C00
1C003C00
1C003C00
ENDCHAR
STARTCHAR U+00D2
ENCODING 210
SWIDTH 780 0
DWIDTH 26 0
BBX 26 29 0 0
BITMAP
00380000
003C0000
001C0000
000E0000
00070000
00000000
00000000
003F8000
01FFE000
03FFF000
07C0F800
0F003C00
1E001E00
1C000F00
3C000F00
38000700
38000700
38000700
38000700
38000700
3C000700
3C000F00
1C000E00
1E001E00
0F003C00
07C0F800
03FFF000
01FFE000
003F0000
ENDCHAR
STARTCHAR U+00D3
ENCODING 211
SWIDTH 780 0
DWIDTH 26 0
BBX 26 29 0 0
BITMAP
0003C000
00078000
00070000
000E0000
000C0000
00000000
00000000
003F8000
01FFE000
03FFF000
07C0F800
0F003C00
1E001E00
1C000F00
3C000F00
38000700
38000700
38000700
38000700
38000700
3C000700
3C000F00
1C000E00
1E001E00
0F003C00
07C0F800
03FFF000
01FFE000
003F0000
ENDCHAR
STARTCHAR U+00D4
ENCODING 212
SWIDTH 780 0
DWIDTH 26 0
BBX 26 29 0 0
BITMAP
001E0000
001F0000
003B8000
00318000
0060C000
00000000
00000000
003F8000
01FFE000
03FFF000
07C0F800
0F003C00
1E001E00
1C000F00
3C000F00
38000700
38000700
38000700
38000700
38000700
3C000700
3C000F00
1C000E00
1E001E00
0F003C00
07C0F800
03FFF000
01FFE000
003F0000
ENDCHAR
STARTCHAR U+00D5
ENCODING 213
SWIDTH 780 0
DWIDTH 26 0
BBX 26 28 0 0
BITMAP
00708000
00FDC000
00DF8000
00078000
00000000
00000000
003F8000
01FFE000
03FFF000
07C0F800
0F003C00
1E001E00
1C000F00
3C000F00
38000700
38000700
38000700
38000700
38000700
3C000700
3C000F00
1C000E00
1E001E00
0F003C00
07C0F800
03FFF000
01FFE000
003F0000
ENDCHAR
STARTCHAR U+00D6
ENCODING 214
SWIDTH 780 0
DWIDTH 26 0
BBX 26 28 0 0
BITMAP
00410000
00E38000
00E3C000
00410000
00000000
00000000
003F8000
01FFE000
03FFF000
07C0F800
0F003C00
1E001E00
1C000F00
3C000F00
38000700
38000700
38000700
38000700
38000700
3C000700
3C000F00
1C000E00
1E001E00
0F003C00
07C0F800
03FFF000
01FFE000
003F0000
ENDCHAR
STARTCHAR U+00D7
ENCODING 215
SWIDTH 510 0
DWIDTH 17 0
BBX 17 17 0 0
BITMAP
080800
1C1C00
1E3C00
0F7800
07F000
03E000
03E000
07F000
0F7800
1E3C00
1C1C00
080800
000000
000000
000000
000000
000000
ENDCHAR
STARTCHAR U+00D8
ENCODING 216
SWIDTH 780 0
DWIDTH 26 0
BBX 26 22 0 0
BITMAP
003F8200
01FFE700
03FFFE00
07C0FC00
0F003C00
1E007E00
1C00EE00
3C01CF00
38038700
38070700
380E0700
381C0700
38380700
3C700700
3CE00F00
1DC00E00
1F801E00
0F003C00
0FC0F800
1FFFF000
39FFE000
103F0000
ENDCHAR
STARTCHAR U+00D9
ENCODING 217
SWIDTH 750 0
DWIDTH 25 0
BBX 25 29 0 0
BITMAP
00700000
00780000
00380000
001C0000
000E0000
00000000
00000000
1C001C00
1C001C00
1C001C00
1C001C00
1C001C00
1C001C00
1C001C00
1C001C00
1C001C00
1C001C00
1C001C00
1C001C00
1C001C00
1C001C00
1C003C00
1E003C00
0E007800
0F007800
07C1F000
03FFE000
01FFC000
007F0000
ENDCHAR
STARTCHAR U+00DA
ENCODING 218
SWIDTH 750 0
DWIDTH 25 0
BBX 25 29 0 0
BITMAP
00078000
000F0000
000E0000
001C0000
00180000
00000000
00000000
1C001C00
1C001C00
1C001C00
1C001C00
1C001C00
1C001C00
1C001C00
1C001C00
1C001C00
1C001C00
1C001C00
1C001C00
1C001C00
1C001C00
1C003C00
1E003C00
0E007800
0F007800
07C1F000
03FFE000
01FFC000
007F0000
ENDCHAR
STARTCHAR U+00DB
ENCODING 219
SWIDTH 750 0
DWIDTH 25 0
BBX 25 29 0 0
BITMAP
003C0000
003E0000
00770000
00630000
00C18000
00000000
00000000
1C001C00
1C001C00
1C001C00
1C001C00
1C001C00
1C001C00
1C001C00
1C001C00
1C001C00
1C001C00
1C001C00
1C001C00
1C001C00
1C001C00
1C003C00
1E003C00
0E007800
0F007800
07C1F000
03FFE000
01FFC000
007F0000
ENDCHAR
STARTCHAR U+00DC
ENCODING 220
SWIDTH 750 0
DWIDTH 25 0
BBX 25 28 0 0
BITMAP
00410000
00E38000
00E3C000
00410000
00000000
00000000
1C001C00
1C001C00
1C001C00
1C001C00
1C001C00
1C001C00
1C001C00
1C001C00
1C001C00
1C001C00
1C001C00
1C001C00
1C001C00
1C001C00
1C003C00
1E003C00
0E007800
0F007800
07C1F000
03FFE000
01FFC000
007F0000
ENDCHAR
STARTCHAR U+00DD
ENCODING 221
SWIDTH 570 0
DWIDTH 19 0
BBX 19 29 0 0
BITMAP
003C00
007800
007000
00E000
00C000
000000
000000
7801C0
7803C0
3C0380
1C0780
1E0700
0F0E00
0F1E00
079C00
03BC00
03F800
01F000
00F000
00E000
00E000
00E000
00E000
00E000
00E000
00E000
00E000
00E000
00E000
ENDCHAR
STARTCHAR U+00DE
ENCODING 222
SWIDTH 570 0
DWIDTH 19 0
BBX 19 22 0 0
BITMAP
1C0000
1C0000
1C0000
1C0000
1FF800
1FFE00
1FFF00
1C0F80
1C0780
1C0380
1C0380
1C0380
1C0380
1C0780
1C0F80
1FFF00
1FFE00
1FF800
1C0000
1C0000
1C0000
1C0000
ENDCHAR
STARTCHAR U+00DF
ENCODING 223
SWIDTH 540 0
DWIDTH 18 0
BBX 18 22 0 0
BITMAP
03F000
07F800
0FFC00
1E1E00
1C0E00
1C0E00
1C0E00
1C0E00
1C1C00
1CF800
1CF000
1CFC00
1C1E00
1C0700
1C0700
1C0700
1C0700
1C0700
1C0F00
1DFE00
1DFC00
1DF000
ENDCHAR
STARTCHAR U+00E0
ENCODING 224
SWIDTH 510 0
DWIDTH 17 0
BBX 17 23 0 0
BITMAP
070000
078000
038000
01C000
00E000
000000
000000
07E000
1FF000
1FF800
183C00
201C00
001C00
01FC00
0FFC00
1E1C00
3C1C00
381C00
381C00
383C00
3FFC00
1FFC00
0FDC00
ENDCHAR
STARTCHAR U+00E1
ENCODING 225
SWIDTH 510 0
DWIDTH 17 0
BBX 17 23 0 0
BITMAP
00F000
01E000
01C000
038000
030000
000000
000000
07E000
1FF000
1FF800
183C00
201C00
001C00
01FC00
0FFC00
1E1C00
3C1C00
381C00
381C00
383C00
3FFC00
1FFC00
0FDC00
ENDCHAR
STARTCHAR U+00E2
ENCODING 226
SWIDTH 510 0
DWIDTH 17 0
BBX 17 23 0 0
BITMAP
03C000
03E000
077000
063000
0C1800
000000
000000
07E000
1FF000
1FF800
183C00
201C00
001C00
01FC00
0FFC00
1E1C00
3C1C00
381C00
381C00
383C00
3FFC00
1FFC00
0FDC00
ENDCHAR
STARTCHAR U+00E3
ENCODING 227
SWIDTH 510 0
DWIDTH 17 0
BBX 17 22 0 0
BITMAP
0E1000
1FB800
1BF000
00F000
000000
000000
07E000
1FF000
1FF800
183C00
201C00
001C00
01FC00
0FFC00
1E1C00
3C1C00
381C00
381C00
383C00
3FFC00
1FFC00
0FDC00
ENDCHAR
STARTCHAR U+00E4
ENCODING 228
SWIDTH 510 0
DWIDTH 17 0
BBX 17 22 0 0
BITMAP
082000
1C7000
1C7800
082000
000000
000000
07E000
1FF000
1FF800
183C00
201C00
001C00
01FC00
0FFC00
1E1C00
3C1C00
381C00
381C00
383C00
3FFC00
1FFC00
0FDC00
ENDCHAR
STARTCHAR U+00E5
ENCODING 229
SWIDTH 510 0
DWIDTH 17 0
BBX 17 24 0 0
BITMAP
03C000
036000
062000
062000
036000
03C000
000000
000000
07E000
1FF000
1FF800
183C00
201C00
001C00
01FC00
0FFC00
1E1C00
3C1C00
381C00
381C00
383C00
3FFC00
1FFC00
0FDC00
ENDCHAR
STARTCHAR U+00E6
ENCODING 230
SWIDTH 810 0
DWIDTH 27 0
BBX 27 16 0 0
BITMAP
07E0F800
1FF3FE00
1FFFFF00
183F0F00
201E0780
001C0380
01FFFF80
0FFFFF80
1E1C0000
381C0000
381E0000
380E0080
383F8380
3FFFFF80
1FF3FF00
0FC0FC00
ENDCHAR
STARTCHAR U+00E7
ENCODING 231
SWIDTH 480 0
DWIDTH 16 0
BBX 16 23 0 -7
BITMAP
01F0
07FC
0FFE
1F0E
3C02
3800
3800
3800
3800
3800
3800
3C00
1F06
0FFE
07FE
01F8
0060
00F0
00F8
0038
0038
03F8
03E0
ENDCHAR
STARTCHAR U+00E8
ENCODING 232
SWIDTH 540 0
DWIDTH 18 0
BBX 18 23 0 0
BITMAP
070000
078000
038000
01C000
00E000
000000
000000
03F000
07FC00
0FFE00
1E1E00
3C0F00
380700
3FFF00
3FFF00
3FFF00
380000
380000
3C0100
1E0700
0FFF00
07FE00
01F800
ENDCHAR
STARTCHAR U+00E9
ENCODING 233
SWIDTH 540 0
DWIDTH 18 0
BBX 18 23 0 0
BITMAP
007800
00F000
00E000
01C000
018000
000000
000000
03F000
07FC00
0FFE00
1E1E00
3C0F00
380700
3FFF00
3FFF00
3FFF00
380000
380000
3C0100
1E0700
0FFF00
07FE00
01F800
ENDCHAR
STARTCHAR U+00EA
ENCODING 234
SWIDTH 540 0
DWIDTH 18 0
BBX 18 23 0 0
BITMAP
03C000
03E000
077000
063000
0C1800
000000
000000
03F000
07FC00
0FFE00
1E1E00
3C0F00
380700
3FFF00
3FFF00
3FFF00
380000
380000
3C0100
1E0700
0FFF00
07FE00
01F800
ENDCHAR
STARTCHAR U+00EB
ENCODING 235
SWIDTH 540 0
DWIDTH 18 0
BBX 18 22 0 0
BITMAP
041000
0E3800
0E3C00
041000
000000
000000
03F000
07FC00
0FFE00
1E1E00
3C0F00
380700
3FFF00
3FFF00
3FFF00
380000
380000
3C0100
1E0700
0FFF00
07FE00
01F800
ENDCHAR
STARTCHAR U+00EC
ENCODING 236
SWIDTH 240 0
DWIDTH 8 0
BBX 9 23 -1 0
BITMAP
0000
0000
0000
0000
0000
0000
0000
0000
0000
0000
0000
0000
0000
0000
0000
0000
0000
0000
0000
0000
0000
0000
0000
ENDCHAR
STARTCHAR U+00ED
ENCODING 237
SWIDTH 240 0
DWIDTH 8 0
BBX 9 23 0 0
BITMAP
0F00
1E00
1C00
3800
3000
0000
0000
1C00
1C00
1C00
1C00
1C00
1C00
1C00
1C00
1C00
1C00
1C00
1C00
1C00
1C00
1C00
1C00
ENDCHAR
STARTCHAR U+00EE
ENCODING 238
SWIDTH 240 0
DWIDTH 8 0
BBX 10 23 -1 0
BITMAP
0000
0000
0000
0000
0000
0000
0000
0000
0000
0000
0000
0000
0000
0000
0000
0000
0000
0000
0000
0000
0000
0000
0000
ENDCHAR
STARTCHAR U+00EF
ENCODING 239
SWIDTH 240 0
DWIDTH 8 0
BBX 12 22 -2 0
BITMAP
2080
71C0
71E0
2080
0000
0000
0700
0700
0700
0700
0700
0700
0700
0700
0700
0700
0700
0700
0700
0700
0700
0700
ENDCHAR
STARTCHAR U+00F0
ENCODING 240
SWIDTH 540 0
DWIDTH 18 0
BBX 18 22 0 0
BITMAP
030800
0FBC00
03F800
03F000
07F000
1E3800
0C1C00
03FE00
0FFE00
1FFE00
1E1F00
3C0700
380700
380700
380700
380700
380700
3C0F00
3E1E00
1FFC00
0FF800
03E000
ENDCHAR
STARTCHAR U+00F1
ENCODING 241
SWIDTH 570 0
DWIDTH 19 0
BBX 19 22 0 0
BITMAP
038400
07EE00
06FC00
003C00
000000
000000
1DF800
1FFE00
1FFF00
1E0F00
1C0780
1C0780
1C0380
1C0380
1C0380
1C0380
1C0380
1C0380
1C0380
1C0380
1C0380
1C0380
ENDCHAR
STARTCHAR U+00F2
ENCODING 242
SWIDTH 600 0
DWIDTH 20 0
BBX 20 23 0 0
BITMAP
038000
03C000
01C000
00E000
007000
000000
000000
01F800
07FE00
0FFF00
1F0F80
3C0780
3803C0
3801C0
3801C0
3801C0
3801C0
3803C0
3C0780
1E0F80
0FFF00
07FE00
01F800
ENDCHAR
STARTCHAR U+00F3
ENCODING 243
SWIDTH 600 0
DWIDTH 20 0
BBX 20 23 0 0
BITMAP
003C00
007800
007000
00E000
00C000
000000
000000
01F800
07FE00
0FFF00
1F0F80
3C0780
3803C0
3801C0
3801C0
3801C0
3801C0
3803C0
3C0780
1E0F80
0FFF00
07FE00
01F800
ENDCHAR
STARTCHAR U+00F4
ENCODING 244
SWIDTH 600 0
DWIDTH 20 0
BBX 20 23 0 0
BITMAP
01E000
01F000
03B800
031800
060C00
000000
000000
01F800
07FE00
0FFF00
1F0F80
3C0780
3803C0
3801C0
3801C0
3801C0
3801C0
3803C0
3C0780
1E0F80
0FFF00
07FE00
01F800
ENDCHAR
STARTCHAR U+00F5
ENCODING 245
SWIDTH 600 0
DWIDTH 20 0
BBX 20 22 0 0
BITMAP
038400
07EE00
06FC00
003C00
000000
000000
01F800
07FE00
0FFF00
1F0F80
3C0780
3803C0
3801C0
3801C0
3801C0
3801C0
3803C0
3C0780
1E0F80
0FFF00
07FE00
01F800
ENDCHAR
STARTCHAR U+00F6
ENCODING 246
SWIDTH 600 0
DWIDTH 20 0
BBX 20 22 0 0
BITMAP
020800
071C00
071E00
020800
000000
000000
01F800
07FE00
0FFF00
1F0F80
3C0780
3803C0
3801C0
3801C0
3801C0
3801C0
3803C0
3C0780
1E0F80
0FFF00
07FE00
01F800
ENDCHAR
STARTCHAR U+00F7
ENCODING 247
SWIDTH 510 0
DWIDTH 17 0
BBX 17 19 0 0
BITMAP
008000
00C000
01E000
00C000
008000
000000
000000
3FFE00
3FFE00
3FFE00
000000
000000
008000
00C000
01E000
00C000
008000
000000
000000
ENDCHAR
STARTCHAR U+00F8
ENCODING 248
SWIDTH 600 0
DWIDTH 20 0
BBX 20 18 0 -1
BITMAP
000100
01F980
07FF00
0FFF00
1F0F80
3C1F80
381BC0
3831C0
3861C0
38E1C0
39C1C0
3B83C0
3F0780
1E0F80
0FFF00
1FFE00
19F800
100000
ENDCHAR
STARTCHAR U+00F9
ENCODING 249
SWIDTH 570 0
DWIDTH 19 0
BBX 19 23 0 0
BITMAP
038000
03C000
01C000
00E000
007000
000000
000000
380380
380380
380380
380380
380380
380380
380380
380380
380380
380380
3C0380
1C0380
1E0F80
0FFF80
07FF80
03F380
ENDCHAR
STARTCHAR U+00FA
ENCODING 250
SWIDTH 570 0
DWIDTH 19 0
BBX 19 23 0 0
BITMAP
003C00
007800
007000
00E000
00C000
000000
000000
380380
380380
380380
380380
380380
380380
380380
380380
380380
380380
3C0380
1C0380
1E0F80
0FFF80
07FF80
03F380
ENDCHAR
STARTCHAR U+00FB
ENCODING 251
SWIDTH 570 0
DWIDTH 19 0
BBX 19 23 0 0
BITMAP
01E000
01F000
03B800
031800
060C00
000000
000000
380380
380380
380380
380380
380380
380380
380380
380380
380380
380380
3C0380
1C0380
1E0F80
0FFF80
07FF80
03F380
ENDCHAR
STARTCHAR U+00FC
ENCODING 252
SWIDTH 570 0
DWIDTH 19 0
BBX 19 22 0 0
BITMAP
020800
071C00
071E00
020800
000000
000000
380380
380380
380380
380380
380380
380380
380380
380380
380380
380380
3C0380
1C0380
1E0F80
0FFF80
07FF80
03F380
ENDCHAR
STARTCHAR U+00FD
ENCODING 253
SWIDTH 510 0
DWIDTH 17 0
BBX 17 29 0 -6
BITMAP
007800
00F000
00E000
01C000
018000
000000
000000
700780
700700
380700
380E00
3C0E00
1C1E00
1C1C00
0E1C00
0E3800
073800
077800
077000
03F000
03E000
01E000
01E000
01C000
01C000
038000
1F8000
1F0000
1E0000
ENDCHAR
STARTCHAR U+00FE
ENCODING 254
SWIDTH 570 0
DWIDTH 19 0
BBX 19 28 0 -6
BITMAP
1C0000
1C0000
1C0000
1C0000
1C0000
1C0000
1DF800
1FFE00
1FFF00
1E0F80
1C0780
1C0380
1C03C0
1C01C0
1C01C0
1C03C0
1C0380
1C0780
1E0F00
1FFF00
1FFC00
1DF000
1C0000
1C0000
1C0000
1C0000
1C0000
1C0000
ENDCHAR
STARTCHAR U+00FF
ENCODING 255
SWIDTH 510 0
DWIDTH 17 0
BBX 17 28 0 -6
BITMAP
041000
0E3800
0E3C00
041000
000000
000000
700780
700700
380700
380E00
3C0E00
1C1E00
1C1C00
0E1C00
0E3800
073800
077800
077000
03F000
03E000
01E000
01E000
01C000
01C000
038000
1F8000
1F0000
1E0000
ENDCHAR
STARTCHAR U+2013
ENCODING 8211
SWIDTH 480 0
DWIDTH 16 0
BBX 18 10 -1 0
BITMAP
FFFF00
FFFF00
FFFF00
000000
000000
000000
000000
000000
000000
000000
ENDCHAR
STARTCHAR U+2014
ENCODING 8212
SWIDTH 960 0
DWIDTH 32 0
BBX 34 10 -1 0
BITMAP
FFFFFFFF00
FFFFFFFF00
FFFFFFFF00
0000000000
0000000000
0000000000
0000000000
0000000000
0000000000
0000000000
ENDCHAR
STARTCHAR U+2018
ENCODING 8216
SWIDTH 240 0
DWIDTH 8 0
BBX 8 22 0 0
BITMAP
08
18
18
38
3C
3C
18
00
00
00
00
00
00
00
00
00
00
00
00
00
00
00
ENDCHAR
STARTCHAR U+2019
ENCODING 8217
SWIDTH 240 0
DWIDTH 8 0
BBX 8 22 0 0
BITMAP
10
38
3C
1C
1C
18
10
20
00
00
00
00
00
00
00
00
00
00
00
00
00
00
ENDCHAR
STARTCHAR U+201C
ENCODING 8220
SWIDTH 390 0
DWIDTH 13 0
BBX 13 22 0 0
BITMAP
0840
18C0
18C0
39C0
3DE0
3DE0
18C0
0000
0000
0000
0000
0000
0000
0000
0000
0000
0000
0000
0000
0000
0000
0000
ENDCHAR
STARTCHAR U+201D
ENCODING 8221
SWIDTH 390 0
DWIDTH 13 0
BBX 13 22 0 0
BITMAP
1080
39C0
3DE0
1CE0
1CE0
18C0
1080
2100
0000
0000
0000
0000
0000
0000
0000
0000
0000
0000
0000
0000
0000
0000
ENDCHAR
STARTCHAR U+2022
ENCODING 8226
SWIDTH 420 0
DWIDTH 14 0
BBX 14 14 0 0
BITMAP
0200
0700
0F80
1FC0
1FC0
0F80
0700
0200
0000
0000
0000
0000
0000
0000
ENDCHAR
STARTCHAR U+2026
ENCODING 8230
SWIDTH 870 0
DWIDTH 29 0
BBX 29 4 0 0
BITMAP
180300C0
3C0781E0
3C0781E0
180300C0
ENDCHAR
STARTCHAR U+20AC
ENCODING 8364
SWIDTH 600 0
DWIDTH 20 0
BBX 20 22 0 0
BITMAP
007E00
01FF80
03FFC0
07C0C0
0F0040
0E0000
1E0000
7FFE00
7FFE00
7FFE00
3C0000
3C0000
7FFC00
7FFC00
7FFC00
1E0000
1E0000
0F0040
07C1C0
03FFC0
01FF80
007E00
ENDCHAR
ENDFONT
