STARTFONT 2.1
COMMENT Converted from Johnston100 W03 Regular.ttf at 28px with ttf2bdf.py (Pillow, 1-bit, no AA)
FONT -Misc-Johnston100-Medium-R-Normal--28-280-75-75-P-300-ISO10646-1
SIZE 28 75 75
FONTBOUNDINGBOX 30 32 -2 -7
STARTPROPERTIES 9
FOUNDRY "Misc"
FAMILY_NAME "Johnston100"
WEIGHT_NAME "Medium"
SLANT "R"
PIXEL_SIZE 28
RESOLUTION_X 75
RESOLUTION_Y 75
FONT_ASCENT 25
FONT_DESCENT 7
ENDPROPERTIES
CHARS 200
STARTCHAR space
ENCODING 32
SWIDTH 240 0
DWIDTH 7 0
BBX 7 32 0 -7
BITMAP
00
00
00
00
00
00
00
00
00
00
00
00
00
00
00
00
00
00
00
00
00
00
00
00
00
00
00
00
00
00
00
00
ENDCHAR
STARTCHAR !
ENCODING 33
SWIDTH 274 0
DWIDTH 8 0
BBX 8 19 0 0
BITMAP
1C
1C
1C
1C
1C
18
18
18
18
18
18
18
18
18
00
00
18
1C
08
ENDCHAR
STARTCHAR "
ENCODING 34
SWIDTH 411 0
DWIDTH 12 0
BBX 12 19 0 0
BITMAP
39C0
39C0
39C0
39C0
3180
3180
1080
0000
0000
0000
0000
0000
0000
0000
0000
0000
0000
0000
0000
ENDCHAR
STARTCHAR U+0023
ENCODING 35
SWIDTH 720 0
DWIDTH 21 0
BBX 21 19 0 0
BITMAP
0020C0
006180
00C180
00C380
00C300
1FFFF0
1FFFF0
018600
038600
030600
030600
030E00
7FFFE0
7FFFC0
061C00
061800
0E1800
0C3800
083000
ENDCHAR
STARTCHAR $
ENCODING 36
SWIDTH 480 0
DWIDTH 14 0
BBX 14 23 0 -2
BITMAP
0700
0700
0FC0
1FE0
3CE0
3840
3800
3800
3E00
1F80
0FC0
03E0
00F0
0078
0038
2038
7038
7878
3FF0
1FE0
0FC0
0700
0700
ENDCHAR
STARTCHAR %
ENCODING 37
SWIDTH 720 0
DWIDTH 21 0
BBX 21 19 0 0
BITMAP
1E0300
3F8700
318600
71CE00
71CC00
319C00
3F9800
1F3800
003000
007000
006000
00E780
00CFE0
01CC60
019C60
039C60
030C60
070FE0
060780
ENDCHAR
STARTCHAR &
ENCODING 38
SWIDTH 651 0
DWIDTH 19 0
BBX 19 19 0 0
BITMAP
03E000
0FF000
0E3800
1C3800
1C3800
1E3800
0E7000
07E000
07C000
0FC180
3DE380
38F300
707F00
703E00
701E00
383F00
3FFF00
1FF380
0FC1C0
ENDCHAR
STARTCHAR '
ENCODING 39
SWIDTH 240 0
DWIDTH 7 0
BBX 7 19 0 0
BITMAP
38
38
38
38
30
30
10
00
00
00
00
00
00
00
00
00
00
00
00
ENDCHAR
STARTCHAR (
ENCODING 40
SWIDTH 240 0
DWIDTH 7 0
BBX 7 23 0 -2
BITMAP
0C
1C
1C
18
38
38
38
30
30
30
30
30
30
30
30
30
38
38
38
18
1C
1C
0C
ENDCHAR
STARTCHAR )
ENCODING 41
SWIDTH 240 0
DWIDTH 7 0
BBX 7 23 0 -2
BITMAP
60
70
30
38
38
18
18
1C
1C
1C
1C
1C
1C
1C
1C
18
18
18
38
38
30
70
60
ENDCHAR
STARTCHAR *
ENCODING 42
SWIDTH 377 0
DWIDTH 11 0
BBX 11 19 0 0
BITMAP
0600
2640
74C0
3D80
0F00
3F00
74C0
2640
0600
0600
0000
0000
0000
0000
0000
0000
0000
0000
0000
ENDCHAR
STARTCHAR +
ENCODING 43
SWIDTH 514 0
DWIDTH 15 0
BBX 15 15 0 0
BITMAP
0380
0380
0380
0380
3FF8
3FF8
0380
0380
0380
0380
0000
0000
0000
0000
0000
ENDCHAR
STARTCHAR ,
ENCODING 44
SWIDTH 240 0
DWIDTH 7 0
BBX 7 7 0 -3
BITMAP
10
38
38
38
18
10
20
ENDCHAR
STARTCHAR -
ENCODING 45
SWIDTH 377 0
DWIDTH 11 0
BBX 11 9 0 0
BITMAP
7FC0
7FC0
7FC0
0000
0000
0000
0000
0000
0000
ENDCHAR
STARTCHAR .
ENCODING 46
SWIDTH 240 0
DWIDTH 7 0
BBX 7 4 0 0
BITMAP
10
38
38
10
ENDCHAR
STARTCHAR /
ENCODING 47
SWIDTH 309 0
DWIDTH 9 0
BBX 10 23 0 -2
BITMAP
0380
0380
0300
0300
0700
0600
0600
0E00
0E00
0C00
0C00
1C00
1800
1800
3800
3800
3000
3000
7000
6000
6000
E000
E000
ENDCHAR
STARTCHAR 0
ENCODING 48
SWIDTH 549 0
DWIDTH 16 0
BBX 16 19 0 0
BITMAP
03E0
07F0
0FF8
1E3C
1C1C
1C1C
380E
380E
380E
380E
380E
380E
380C
1C1C
1C1C
1E3C
0FF8
07F0
03E0
ENDCHAR
STARTCHAR 1
ENCODING 49
SWIDTH 274 0
DWIDTH 8 0
BBX 8 19 0 0
BITMAP
04
0C
1C
1C
1C
1C
1C
1C
1C
1C
1C
1C
1C
1C
1C
1C
1C
1C
1C
ENDCHAR
STARTCHAR 2
ENCODING 50
SWIDTH 480 0
DWIDTH 14 0
BBX 14 19 0 0
BITMAP
07C0
1FE0
1FF0
3870
3070
2030
0030
0070
0070
00E0
01C0
01C0
0380
0700
0700
0E00
1FF8
1FF8
3FF8
ENDCHAR
STARTCHAR 3
ENCODING 51
SWIDTH 480 0
DWIDTH 14 0
BBX 14 19 0 0
BITMAP
7FF8
7FF0
7FF0
00E0
01C0
01C0
0380
07C0
07F0
0078
0038
0038
0018
0038
2038
7078
7FF0
3FE0
0F80
ENDCHAR
STARTCHAR 4
ENCODING 52
SWIDTH 549 0
DWIDTH 16 0
BBX 16 19 0 0
BITMAP
0000
0010
0030
0070
00F0
01F0
01B0
03B0
0730
0E30
1C30
3830
7FFE
FFFE
0030
0030
0030
0030
0030
ENDCHAR
STARTCHAR 5
ENCODING 53
SWIDTH 480 0
DWIDTH 14 0
BBX 14 19 0 0
BITMAP
0FF8
0FF8
0FF8
1C00
1C00
1C00
1FC0
1FE0
10F0
0038
0038
0018
0018
0038
2038
7078
7FF0
3FE0
0F80
ENDCHAR
STARTCHAR 6
ENCODING 54
SWIDTH 514 0
DWIDTH 15 0
BBX 15 19 0 0
BITMAP
01E0
03C0
0780
0F00
0E00
1C00
1C00
3BC0
3FF0
3FF8
7878
7038
701C
701C
3838
3C78
3FF0
1FE0
07C0
ENDCHAR
STARTCHAR 7
ENCODING 55
SWIDTH 480 0
DWIDTH 14 0
BBX 14 19 0 0
BITMAP
7FF8
7FF0
7FF0
0060
00E0
00E0
01C0
01C0
0380
0380
0700
0700
0700
0E00
0E00
1C00
1C00
3800
3800
ENDCHAR
STARTCHAR 8
ENCODING 56
SWIDTH 514 0
DWIDTH 15 0
BBX 15 19 0 0
BITMAP
07C0
0FE0
1C70
1838
3838
3830
1C70
0FE0
07C0
1FF0
3C78
3838
3018
701C
7838
3C78
3FF8
1FF0
07C0
ENDCHAR
STARTCHAR 9
ENCODING 57
SWIDTH 514 0
DWIDTH 15 0
BBX 15 19 0 0
BITMAP
07C0
0FF0
1FF0
3C78
3838
701C
701C
701C
381C
3C38
3FF8
1FF8
07B0
0070
00E0
01E0
03C0
0780
0F00
ENDCHAR
STARTCHAR :
ENCODING 58
SWIDTH 274 0
DWIDTH 8 0
BBX 8 15 0 0
BITMAP
08
1C
1C
08
00
00
00
00
00
00
00
08
1C
1C
08
ENDCHAR
STARTCHAR ;
ENCODING 59
SWIDTH 274 0
DWIDTH 8 0
BBX 8 17 0 -3
BITMAP
08
1C
1C
08
00
00
00
00
00
00
08
1C
1C
1C
0C
08
10
ENDCHAR
STARTCHAR U+003C
ENCODING 60
SWIDTH 514 0
DWIDTH 15 0
BBX 15 17 0 0
BITMAP
0018
0078
01F8
07E0
1F80
3C00
3C00
1F00
07C0
03F0
00F8
0038
0008
0000
0000
0000
0000
ENDCHAR
STARTCHAR =
ENCODING 61
SWIDTH 514 0
DWIDTH 15 0
BBX 15 14 0 0
BITMAP
3FF8
3FF8
0000
0000
0000
0000
3FF8
3FF8
0000
0000
0000
0000
0000
0000
ENDCHAR
STARTCHAR U+003E
ENCODING 62
SWIDTH 514 0
DWIDTH 15 0
BBX 15 17 0 0
BITMAP
3000
3C00
3F00
0FC0
03F0
0078
0078
01F0
07C0
1F80
3E00
3800
2000
0000
0000
0000
0000
ENDCHAR
STARTCHAR ?
ENCODING 63
SWIDTH 446 0
DWIDTH 13 0
BBX 13 19 0 0
BITMAP
1F00
3FC0
7FE0
70E0
20E0
00E0
00E0
01C0
07C0
0F00
1E00
1E00
0E00
0400
0000
0400
0F00
0E00
0400
ENDCHAR
STARTCHAR @
ENCODING 64
SWIDTH 926 0
DWIDTH 27 0
BBX 27 24 0 -5
BITMAP
003FC000
00FFF000
03E07C00
07800E00
0E000700
0C1F2300
1C3FE380
1870E180
38E0E180
30E0E180
30C0E180
31C0C180
31C0C180
31C0C180
30C0C180
30C0C300
38E1C700
387FFE00
1C3E7C00
0C000000
0F000000
07C06000
01FFE000
007FE000
ENDCHAR
STARTCHAR A
ENCODING 65
SWIDTH 651 0
DWIDTH 19 0
BBX 19 19 0 0
BITMAP
00E000
01E000
01F000
01F000
03B000
03B800
033800
071C00
071C00
0E1C00
0E0E00
0E0E00
1FFF00
1FFF00
3FFF00
380380
380380
7001C0
7001C0
ENDCHAR
STARTCHAR B
ENCODING 66
SWIDTH 583 0
DWIDTH 17 0
BBX 17 19 0 0
BITMAP
1FE000
1FF000
1C3800
1C3800
1C1C00
1C3800
1C3800
1FF000
1FF800
1FFC00
1C1E00
1C0E00
1C0700
1C0700
1C0E00
1C1E00
1FFE00
1FFC00
1FF000
ENDCHAR
STARTCHAR C
ENCODING 67
SWIDTH 651 0
DWIDTH 19 0
BBX 19 19 0 0
BITMAP
00FE00
03FF80
07FFC0
0F81C0
1E00C0
3C0000
380000
380000
380000
380000
380000
380000
380000
3C0000
1E00C0
0F81C0
07FFC0
03FF80
00FC00
ENDCHAR
STARTCHAR D
ENCODING 68
SWIDTH 686 0
DWIDTH 20 0
BBX 20 19 0 0
BITMAP
1FF000
1FFC00
1FFF00
1C1F80
1C0780
1C03C0
1C01C0
1C00E0
1C00E0
1C00E0
1C00E0
1C00E0
1C01C0
1C03C0
1C0780
1C1F80
1FFF00
1FFC00
1FF000
ENDCHAR
STARTCHAR E
ENCODING 69
SWIDTH 549 0
DWIDTH 16 0
BBX 16 19 0 0
BITMAP
1FFE
1FFE
1FFE
1C00
1C00
1C00
1C00
1FF0
1FF0
1FF0
1C00
1C00
1C00
1C00
1C00
1C00
1FFE
1FFE
1FFE
ENDCHAR
STARTCHAR F
ENCODING 70
SWIDTH 514 0
DWIDTH 15 0
BBX 15 19 0 0
BITMAP
1FFC
1FFC
1FFC
1C00
1C00
1C00
1C00
1C00
1FF0
1FF0
1FF0
1C00
1C00
1C00
1C00
1C00
1C00
1C00
1C00
ENDCHAR
STARTCHAR G
ENCODING 71
SWIDTH 720 0
DWIDTH 21 0
BBX 21 19 0 0
BITMAP
00FE00
03FF80
07FFC0
0F81C0
1E0040
3C0000
380000
380000
380FE0
380FE0
380FE0
3800E0
3800E0
3C00E0
1E00E0
0F83E0
07FFE0
03FFC0
00FE00
ENDCHAR
STARTCHAR H
ENCODING 72
SWIDTH 720 0
DWIDTH 21 0
BBX 21 19 0 0
BITMAP
1C01C0
1C01C0
1C01C0
1C01C0
1C01C0
1C01C0
1C01C0
1FFFC0
1FFFC0
1FFFC0
1C01C0
1C01C0
1C01C0
1C01C0
1C01C0
1C01C0
1C01C0
1C01C0
1C01C0
ENDCHAR
STARTCHAR I
ENCODING 73
SWIDTH 274 0
DWIDTH 8 0
BBX 8 19 0 0
BITMAP
1C
1C
1C
1C
1C
1C
1C
1C
1C
1C
1C
1C
1C
1C
1C
1C
1C
1C
1C
ENDCHAR
STARTCHAR J
ENCODING 74
SWIDTH 480 0
DWIDTH 14 0
BBX 14 19 0 0
BITMAP
00E0
00E0
00E0
00E0
00E0
00E0
00E0
00E0
00E0
00E0
00E0
00E0
00E0
00E0
20E0
71E0
7FC0
3F80
1F00
ENDCHAR
STARTCHAR K
ENCODING 75
SWIDTH 617 0
DWIDTH 18 0
BBX 18 19 0 0
BITMAP
1C0700
1C0E00
1C1C00
1C7800
1CF000
1DE000
1FC000
1F8000
1F0000
1F8000
1FC000
1DE000
1CF000
1C7800
1C3800
1C1C00
1C0E00
1C0F00
1C0780
ENDCHAR
STARTCHAR L
ENCODING 76
SWIDTH 514 0
DWIDTH 15 0
BBX 15 19 0 0
BITMAP
1C00
1C00
1C00
1C00
1C00
1C00
1C00
1C00
1C00
1C00
1C00
1C00
1C00
1C00
1C00
1C00
1FFE
1FFE
1FFE
ENDCHAR
STARTCHAR M
ENCODING 77
SWIDTH 823 0
DWIDTH 24 0
BBX 24 19 0 0
BITMAP
1C003C
1E007C
1F007C
1F00FC
1F81FC
1FC3DC
1DE79C
1CF71C
1C7E1C
1C3C1C
1C1C1C
1C181C
1C001C
1C001C
1C001C
1C001C
1C001C
1C001C
1C001C
ENDCHAR
STARTCHAR N
ENCODING 78
SWIDTH 754 0
DWIDTH 22 0
BBX 22 19 0 0
BITMAP
1C00E0
1C00E0
1E00E0
1F00E0
1F80E0
1FC0E0
1DC0E0
1CE0E0
1CF0E0
1C78E0
1C38E0
1C1CE0
1C1EE0
1C0FE0
1C07E0
1C03E0
1C01E0
1C01E0
1C00E0
ENDCHAR
STARTCHAR O
ENCODING 79
SWIDTH 789 0
DWIDTH 23 0
BBX 23 19 0 0
BITMAP
00FE00
03FF80
07FFC0
0F83E0
1E00F0
3C0078
380038
380038
380038
380018
380038
380038
380038
3C0070
1E00F0
0F83E0
07FFC0
03FF80
00FE00
ENDCHAR
STARTCHAR P
ENCODING 80
SWIDTH 583 0
DWIDTH 17 0
BBX 17 19 0 0
BITMAP
1FF000
1FF800
1FFC00
1C1E00
1C0E00
1C0E00
1C0E00
1C0E00
1C1E00
1FFC00
1FF800
1FE000
1C0000
1C0000
1C0000
1C0000
1C0000
1C0000
1C0000
ENDCHAR
STARTCHAR Q
ENCODING 81
SWIDTH 789 0
DWIDTH 23 0
BBX 23 19 0 0
BITMAP
00FE00
03FF80
07FFC0
0F83E0
1E00F0
3C0078
380038
380038
380038
380018
380038
380038
380138
3C07F0
1E03F0
0F83E0
07FFF0
03FFF8
00FE30
ENDCHAR
STARTCHAR R
ENCODING 82
SWIDTH 583 0
DWIDTH 17 0
BBX 17 19 0 0
BITMAP
1FE000
1FF000
1FF800
1C3C00
1C1C00
1C1C00
1C1C00
1C3C00
1FF800
1FF000
1FE000
1CE000
1CF000
1C7800
1C3800
1C1C00
1C1E00
1C0F00
1C0700
ENDCHAR
STARTCHAR S
ENCODING 83
SWIDTH 480 0
DWIDTH 14 0
BBX 14 19 0 0
BITMAP
0F80
1FE0
3FF0
3840
3800
3800
3C00
1F00
0FC0
07E0
01F0
0078
0038
2038
7038
7878
3FF0
1FE0
0F80
ENDCHAR
STARTCHAR T
ENCODING 84
SWIDTH 549 0
DWIDTH 16 0
BBX 16 19 0 0
BITMAP
7FFE
7FFE
7FFE
01C0
01C0
01C0
01C0
01C0
01C0
01C0
01C0
01C0
01C0
01C0
01C0
01C0
01C0
01C0
01C0
ENDCHAR
STARTCHAR U
ENCODING 85
SWIDTH 754 0
DWIDTH 22 0
BBX 22 19 0 0
BITMAP
3800E0
3800E0
3800E0
3800E0
3800E0
3800E0
3800E0
3800E0
3800E0
3800E0
3800E0
3800E0
1C00E0
1C00E0
1E01C0
0F07C0
07FF80
03FF00
00FC00
ENDCHAR
STARTCHAR V
ENCODING 86
SWIDTH 617 0
DWIDTH 18 0
BBX 18 19 0 0
BITMAP
700380
700380
380780
380700
380700
1C0E00
1C0E00
1C0E00
0E1C00
0E1C00
061C00
073800
073800
03B000
03F000
03F000
01E000
01E000
00E000
ENDCHAR
STARTCHAR W
ENCODING 87
SWIDTH 926 0
DWIDTH 27 0
BBX 27 19 0 0
BITMAP
700E01C0
700F01C0
380F01C0
381F0180
381F8380
1C1B8380
1C3B8380
1C398700
0C39C700
0E31C700
0E71C600
0E70EE00
0760EE00
07E0EE00
07E07C00
03C07C00
03C07C00
03C03800
03C03800
ENDCHAR
STARTCHAR X
ENCODING 88
SWIDTH 651 0
DWIDTH 19 0
BBX 19 19 0 0
BITMAP
700380
380780
1C0F00
1E0E00
0F1C00
073C00
03B800
03F000
01E000
01E000
03F000
03B800
073C00
0F1E00
0E0E00
1C0700
380780
7803C0
7001C0
ENDCHAR
STARTCHAR Y
ENCODING 89
SWIDTH 583 0
DWIDTH 17 0
BBX 17 19 0 0
BITMAP
700700
780E00
380E00
1C1C00
1E3C00
0E3800
077000
07F000
03E000
01C000
01C000
01C000
01C000
01C000
01C000
01C000
01C000
01C000
01C000
ENDCHAR
STARTCHAR Z
ENCODING 90
SWIDTH 617 0
DWIDTH 18 0
BBX 18 19 0 0
BITMAP
7FFF00
7FFF00
7FFE00
001C00
001C00
003800
007000
007000
00E000
01C000
01C000
038000
070000
0E0000
0E0000
1C0000
3FFF80
3FFF80
7FFF80
ENDCHAR
STARTCHAR [
ENCODING 91
SWIDTH 309 0
DWIDTH 9 0
BBX 9 25 0 -3
BITMAP
3F00
3F00
3800
3800
3800
3800
3800
3800
3800
3800
3800
3800
3800
3800
3800
3800
3800
3800
3800
3800
3800
3800
3800
3F00
3F00
ENDCHAR
STARTCHAR \
ENCODING 92
SWIDTH 309 0
DWIDTH 9 0
BBX 10 23 0 -2
BITMAP
E000
E000
6000
6000
7000
3000
3000
3800
3800
1800
1800
1C00
0C00
0C00
0E00
0E00
0600
0600
0700
0300
0300
0380
0380
ENDCHAR
STARTCHAR ]
ENCODING 93
SWIDTH 309 0
DWIDTH 9 0
BBX 9 25 0 -3
BITMAP
7E00
7E00
0600
0600
0600
0600
0600
0600
0600
0600
0600
0600
0600
0600
0600
0600
0600
0600
0600
0600
0600
0600
0600
7E00
7E00
ENDCHAR
STARTCHAR ^
ENCODING 94
SWIDTH 549 0
DWIDTH 16 0
BBX 16 19 0 0
BITMAP
03C0
03C0
07E0
0E70
0C30
1C38
381C
380C
0000
0000
0000
0000
0000
0000
0000
0000
0000
0000
0000
ENDCHAR
STARTCHAR _
ENCODING 95
SWIDTH 480 0
DWIDTH 14 0
BBX 16 3 -1 -3
BITMAP
0000
0000
FFFC
ENDCHAR
STARTCHAR `
ENCODING 96
SWIDTH 446 0
DWIDTH 13 0
BBX 13 19 0 0
BITMAP
FFF8
FFF8
C038
C038
C038
C038
C038
C038
C038
C038
C038
C038
C038
C038
C038
C038
C038
FFF8
FFF8
ENDCHAR
STARTCHAR a
ENCODING 97
SWIDTH 514 0
DWIDTH 15 0
BBX 15 14 0 0
BITMAP
07C0
1FE0
1FF0
3070
2030
03F0
0FF0
3C30
3830
7030
78F0
3FF0
3FF0
1F30
ENDCHAR
STARTCHAR b
ENCODING 98
SWIDTH 583 0
DWIDTH 17 0
BBX 17 19 0 0
BITMAP
380000
380000
380000
380000
380000
3BE000
3FF800
3FFC00
3C1E00
380E00
380E00
380700
380700
380600
380E00
3C1E00
3FFC00
3FF800
3BE000
ENDCHAR
STARTCHAR c
ENCODING 99
SWIDTH 480 0
DWIDTH 14 0
BBX 14 14 0 0
BITMAP
03E0
0FF8
1FF8
3C18
3800
7000
7000
7000
7000
3800
3C18
1FF8
0FF8
03F0
ENDCHAR
STARTCHAR d
ENCODING 100
SWIDTH 583 0
DWIDTH 17 0
BBX 17 19 0 0
BITMAP
000E00
000E00
000E00
000E00
000E00
03EE00
0FFE00
1FFE00
3C1E00
380E00
700E00
700E00
700E00
700E00
380E00
3C1E00
1FFE00
0FFE00
03EE00
ENDCHAR
STARTCHAR e
ENCODING 101
SWIDTH 514 0
DWIDTH 15 0
BBX 15 14 0 0
BITMAP
07E0
0FF0
1FF8
3C38
381C
7FFC
7FFC
7FFC
7000
3800
3C0C
1FFC
0FFC
03F0
ENDCHAR
STARTCHAR f
ENCODING 102
SWIDTH 377 0
DWIDTH 11 0
BBX 11 19 0 0
BITMAP
07C0
0FC0
1FC0
1C00
1800
7FC0
7FC0
7FC0
1800
1800
1800
1800
1800
1800
1800
1800
1800
1800
1800
ENDCHAR
STARTCHAR g
ENCODING 103
SWIDTH 480 0
DWIDTH 14 0
BBX 14 19 0 -5
BITMAP
0FFC
1FFC
3FFC
3870
7030
7030
3870
3FF0
1FE0
1F80
3800
1F80
1FE0
39F8
601C
701C
7FF8
7FF8
1FE0
ENDCHAR
STARTCHAR h
ENCODING 104
SWIDTH 583 0
DWIDTH 17 0
BBX 17 19 0 0
BITMAP
380000
380000
380000
380000
380000
3BF000
3FF800
3FFC00
3C3C00
381E00
380E00
380E00
380E00
380E00
380E00
380E00
380E00
380E00
380E00
ENDCHAR
STARTCHAR i
ENCODING 105
SWIDTH 240 0
DWIDTH 7 0
BBX 7 19 0 0
BITMAP
10
38
18
00
38
38
38
38
38
38
38
38
38
38
38
38
38
38
00
ENDCHAR
STARTCHAR j
ENCODING 106
SWIDTH 240 0
DWIDTH 7 0
BBX 8 24 -1 -5
BITMAP
08
1C
1C
08
00
1C
1C
1C
1C
1C
1C
1C
1C
1C
1C
1C
1C
1C
1C
1C
1C
FC
F8
F0
ENDCHAR
STARTCHAR k
ENCODING 107
SWIDTH 514 0
DWIDTH 15 0
BBX 15 19 0 0
BITMAP
3800
3800
3800
3800
3800
383C
3878
38F0
39C0
3B80
3F00
3F00
3F80
3BC0
39E0
38E0
3870
3838
381C
ENDCHAR
STARTCHAR l
ENCODING 108
SWIDTH 309 0
DWIDTH 9 0
BBX 9 19 0 0
BITMAP
3800
3800
3800
3800
3800
3800
3800
3800
3800
3800
3800
3800
3800
3800
3800
3800
3F80
1F80
0F80
ENDCHAR
STARTCHAR m
ENCODING 109
SWIDTH 891 0
DWIDTH 26 0
BBX 26 14 0 0
BITMAP
3BE1F800
3FFBFC00
3FFFFE00
3C3E0F00
381C0700
380C0700
380C0700
380C0700
380C0700
380C0700
380C0700
380C0700
380C0700
380C0700
ENDCHAR
STARTCHAR n
ENCODING 110
SWIDTH 583 0
DWIDTH 17 0
BBX 17 14 0 0
BITMAP
3BF000
3FF800
3FFC00
3C3C00
381E00
380E00
380E00
380E00
380E00
380E00
380E00
380E00
380E00
380E00
ENDCHAR
STARTCHAR o
ENCODING 111
SWIDTH 583 0
DWIDTH 17 0
BBX 17 14 0 0
BITMAP
03E000
0FF800
1FFC00
3C1E00
380E00
700700
700700
700700
700700
380E00
3C1E00
1FFC00
0FF800
03E000
ENDCHAR
STARTCHAR p
ENCODING 112
SWIDTH 583 0
DWIDTH 17 0
BBX 17 19 0 -5
BITMAP
3BE000
3FF800
3FFC00
3C3E00
380E00
380E00
380700
380600
380E00
380E00
3C3E00
3FFC00
3FF800
3BE000
380000
380000
380000
380000
380000
ENDCHAR
STARTCHAR q
ENCODING 113
SWIDTH 583 0
DWIDTH 17 0
BBX 17 19 0 -5
BITMAP
03EE00
0FFE00
1FFE00
3C1E00
380E00
700E00
700E00
700E00
700E00
380E00
3C1E00
1FFE00
0FFE00
03EE00
000E00
000E00
000E00
000E00
000E00
ENDCHAR
STARTCHAR r
ENCODING 114
SWIDTH 377 0
DWIDTH 11 0
BBX 11 14 0 0
BITMAP
3BE0
3FE0
3FE0
3C00
3800
3800
3800
3800
3800
3800
3800
3800
3800
3800
ENDCHAR
STARTCHAR s
ENCODING 115
SWIDTH 446 0
DWIDTH 13 0
BBX 13 14 0 0
BITMAP
0FC0
1FE0
3FE0
3820
3000
3C00
3FC0
0FE0
00F0
4070
7070
7FF0
3FE0
0FC0
ENDCHAR
STARTCHAR t
ENCODING 116
SWIDTH 411 0
DWIDTH 12 0
BBX 12 17 0 0
BITMAP
1800
1800
1800
7FE0
7FE0
7FE0
1800
1800
1800
1800
1800
1800
1800
1C00
1FE0
0FE0
07E0
ENDCHAR
STARTCHAR u
ENCODING 117
SWIDTH 583 0
DWIDTH 17 0
BBX 17 14 0 0
BITMAP
380E00
380E00
380E00
380E00
380E00
380E00
380E00
380E00
380E00
380E00
3C1E00
1FFE00
0FFE00
07EE00
ENDCHAR
STARTCHAR v
ENCODING 118
SWIDTH 514 0
DWIDTH 15 0
BBX 15 14 0 0
BITMAP
700E
701C
701C
3838
3838
1C30
1C70
0C70
0EE0
0EE0
07C0
07C0
0380
0380
ENDCHAR
STARTCHAR w
ENCODING 119
SWIDTH 823 0
DWIDTH 24 0
BBX 24 14 0 0
BITMAP
70180E
703C0E
303C0E
383E1C
387E1C
18661C
1CE738
1CE738
0CC338
0FC3B0
0FC1F0
0781F0
0781E0
0700E0
ENDCHAR
STARTCHAR x
ENCODING 120
SWIDTH 480 0
DWIDTH 14 0
BBX 15 14 0 0
BITMAP
7038
3870
1CF0
1EE0
0FC0
0780
0380
0780
0FC0
1CE0
1C70
3870
7038
F01C
ENDCHAR
STARTCHAR y
ENCODING 121
SWIDTH 514 0
DWIDTH 15 0
BBX 15 19 0 -5
BITMAP
700E
701C
301C
3838
3838
1C30
1C70
0C70
0EE0
06E0
07C0
03C0
03C0
0380
0380
0700
1F00
1E00
1C00
ENDCHAR
STARTCHAR z
ENCODING 122
SWIDTH 446 0
DWIDTH 13 0
BBX 13 14 0 0
BITMAP
7FF0
7FF0
7FE0
00C0
01C0
0380
0300
0700
0E00
0C00
1C00
3FF0
3FF0
7FF0
ENDCHAR
STARTCHAR {
ENCODING 123
SWIDTH 343 0
DWIDTH 10 0
BBX 10 25 0 -3
BITMAP
0780
0F80
0E00
0C00
0C00
0C00
0C00
0C00
0C00
1C00
3C00
7800
7800
3C00
1C00
0C00
0C00
0C00
0C00
0C00
0C00
0C00
0E00
0F80
0380
ENDCHAR
STARTCHAR |
ENCODING 124
SWIDTH 206 0
DWIDTH 6 0
BBX 6 28 0 -7
BITMAP
30
30
30
30
30
30
30
30
30
30
30
30
30
30
30
30
30
30
30
30
30
30
30
30
30
30
30
30
ENDCHAR
STARTCHAR }
ENCODING 125
SWIDTH 343 0
DWIDTH 10 0
BBX 10 25 0 -3
BITMAP
7800
7C00
1C00
0C00
0C00
0C00
0C00
0C00
0C00
0E00
0F00
0780
0780
0F00
0E00
0C00
0C00
0C00
0C00
0C00
0C00
0C00
1C00
7C00
7800
ENDCHAR
STARTCHAR ~
ENCODING 126
SWIDTH 514 0
DWIDTH 15 0
BBX 15 12 0 0
BITMAP
0E08
1F18
3F98
33F8
31F0
30E0
0000
0000
0000
0000
0000
0000
ENDCHAR
STARTCHAR U+00A0
ENCODING 160
SWIDTH 240 0
DWIDTH 7 0
BBX 7 32 0 -7
BITMAP
00
00
00
00
00
00
00
00
00
00
00
00
00
00
00
00
00
00
00
00
00
00
00
00
00
00
00
00
00
00
00
00
ENDCHAR
STARTCHAR U+00A1
ENCODING 161
SWIDTH 274 0
DWIDTH 8 0
BBX 8 19 0 -5
BITMAP
00
18
18
00
00
18
18
18
18
18
18
18
18
18
1C
1C
1C
1C
1C
ENDCHAR
STARTCHAR U+00A2
ENCODING 162
SWIDTH 480 0
DWIDTH 14 0
BBX 14 18 0 -2
BITMAP
01C0
01C0
03E0
0FF8
1FF8
3C18
3800
7000
7000
7000
7000
3800
3C18
1FF8
0FF8
03F0
01C0
01C0
ENDCHAR
STARTCHAR U+00A3
ENCODING 163
SWIDTH 514 0
DWIDTH 15 0
BBX 15 19 0 0
BITMAP
01F0
03F8
07F8
0718
0E00
0E00
0E00
0E00
0E00
3FE0
3FE0
3FE0
0C00
1C00
1C00
1800
3FFC
3FF8
7FF8
ENDCHAR
STARTCHAR U+00A4
ENCODING 164
SWIDTH 583 0
DWIDTH 17 0
BBX 17 15 0 0
BITMAP
100400
380E00
3FFE00
1FFC00
1FFC00
1E3C00
1C1C00
1C1C00
1C1C00
1C1C00
1E3C00
1FFC00
3FFE00
3BEE00
100400
ENDCHAR
STARTCHAR U+00A5
ENCODING 165
SWIDTH 583 0
DWIDTH 17 0
BBX 17 19 0 0
BITMAP
700700
380700
3C0E00
1C1E00
1E1C00
0F3800
077800
3FFE00
3FFE00
01E000
01C000
3FFE00
3FFE00
01C000
01C000
01C000
01C000
01C000
01C000
ENDCHAR
STARTCHAR U+00A6
ENCODING 166
SWIDTH 206 0
DWIDTH 6 0
BBX 6 28 0 -7
BITMAP
30
30
30
30
30
30
30
30
30
30
30
00
00
00
00
00
00
30
30
30
30
30
30
30
30
30
30
30
ENDCHAR
STARTCHAR U+00A7
ENCODING 167
SWIDTH 480 0
DWIDTH 14 0
BBX 14 24 0 -5
BITMAP
0F80
3FE0
38F0
7060
7000
7000
3C00
1F80
1FE0
7DF0
7070
6038
7038
7870
3FF0
1FC0
07E0
00F0
0070
0030
2070
78F0
3FE0
0F80
ENDCHAR
STARTCHAR U+00A8
ENCODING 168
SWIDTH 446 0
DWIDTH 13 0
BBX 13 19 0 0
BITMAP
FFF8
FFF8
C038
C038
C038
C038
C038
C038
C038
C038
C038
C038
C038
C038
C038
C038
C038
FFF8
FFF8
ENDCHAR
STARTCHAR U+00A9
ENCODING 169
SWIDTH 789 0
DWIDTH 23 0
BBX 23 19 0 0
BITMAP
00FC00
038380
0600C0
080060
187C30
31FE10
238210
230018
270018
270008
270018
230018
23C210
31FE10
187C20
080060
0600C0
030300
00FE00
ENDCHAR
STARTCHAR U+00AA
ENCODING 170
SWIDTH 309 0
DWIDTH 9 0
BBX 9 19 0 0
BITMAP
7C00
7E00
0700
1F00
7300
6300
6300
7F00
3B00
0000
0000
0000
0000
0000
0000
0000
0000
0000
0000
ENDCHAR
STARTCHAR U+00AB
ENCODING 171
SWIDTH 549 0
DWIDTH 16 0
BBX 16 14 0 0
BITMAP
030C
071C
0E38
1C70
38E0
30C0
30C0
38E0
1C70
0E38
0618
030C
0000
0000
ENDCHAR
STARTCHAR U+00AC
ENCODING 172
SWIDTH 514 0
DWIDTH 15 0
BBX 15 14 0 0
BITMAP
3FF8
3FF8
0018
0018
0018
0018
0018
0018
0000
0000
0000
0000
0000
0000
ENDCHAR
STARTCHAR U+00AD
ENCODING 173
SWIDTH 377 0
DWIDTH 11 0
BBX 11 9 0 0
BITMAP
7FC0
7FC0
7FC0
0000
0000
0000
0000
0000
0000
ENDCHAR
STARTCHAR U+00AE
ENCODING 174
SWIDTH 789 0
DWIDTH 23 0
BBX 23 19 0 0
BITMAP
00FC00
030380
0400C0
080060
10F830
30FE10
20CE10
20C618
20CE18
20FC08
20F818
20DC18
20CC10
30C610
18C730
080060
0600C0
030380
00FC00
ENDCHAR
STARTCHAR U+00AF
ENCODING 175
SWIDTH 446 0
DWIDTH 13 0
BBX 13 19 0 0
BITMAP
FFF8
FFF8
C038
C038
C038
C038
C038
C038
C038
C038
C038
C038
C038
C038
C038
C038
C038
FFF8
FFF8
ENDCHAR
STARTCHAR U+00B0
ENCODING 176
SWIDTH 377 0
DWIDTH 11 0
BBX 11 19 0 0
BITMAP
1E00
3F80
3180
71C0
71C0
3180
3F80
1F00
0000
0000
0000
0000
0000
0000
0000
0000
0000
0000
0000
ENDCHAR
STARTCHAR U+00B1
ENCODING 177
SWIDTH 514 0
DWIDTH 15 0
BBX 15 16 0 0
BITMAP
0380
0380
0380
0380
3FF8
3FF8
0380
0380
0380
0380
0000
0000
0000
3FF8
3FF8
0000
ENDCHAR
STARTCHAR U+00B2
ENCODING 178
SWIDTH 309 0
DWIDTH 9 0
BBX 9 19 0 0
BITMAP
3C00
7F00
4700
0300
0300
0700
0E00
0C00
1C00
1800
3F00
7F00
0000
0000
0000
0000
0000
0000
0000
ENDCHAR
STARTCHAR U+00B3
ENCODING 179
SWIDTH 309 0
DWIDTH 9 0
BBX 9 19 0 0
BITMAP
7F00
7F00
0600
0C00
0E00
1F00
0300
0380
0300
2300
7F00
3C00
0000
0000
0000
0000
0000
0000
0000
ENDCHAR
STARTCHAR U+00B4
ENCODING 180
SWIDTH 446 0
DWIDTH 13 0
BBX 13 19 0 0
BITMAP
FFF8
FFF8
C038
C038
C038
C038
C038
C038
C038
C038
C038
C038
C038
C038
C038
C038
C038
FFF8
FFF8
ENDCHAR
STARTCHAR U+00B5
ENCODING 181
SWIDTH 549 0
DWIDTH 16 0
BBX 16 19 0 -5
BITMAP
381C
381C
381C
381C
381C
381C
381C
381C
381C
381C
3C3C
3FFC
3FFC
3BDC
3800
3800
3800
3800
3800
ENDCHAR
STARTCHAR U+00B6
ENCODING 182
SWIDTH 514 0
DWIDTH 15 0
BBX 15 24 0 -5
BITMAP
0FFE
1FFE
3F98
3F98
7F98
7F98
3F98
3F98
1F98
0F98
0198
0198
0198
0198
0198
0198
0198
0198
0198
0198
0198
0198
0198
0198
ENDCHAR
STARTCHAR U+00B7
ENCODING 183
SWIDTH 240 0
DWIDTH 7 0
BBX 7 11 0 0
BITMAP
10
38
38
10
00
00
00
00
00
00
00
ENDCHAR
STARTCHAR U+00B8
ENCODING 184
SWIDTH 446 0
DWIDTH 13 0
BBX 13 19 0 0
BITMAP
FFF8
FFF8
C038
C038
C038
C038
C038
C038
C038
C038
C038
C038
C038
C038
C038
C038
C038
FFF8
FFF8
ENDCHAR
STARTCHAR U+00B9
ENCODING 185
SWIDTH 240 0
DWIDTH 7 0
BBX 7 19 0 0
BITMAP
10
30
30
30
30
30
30
30
30
30
30
30
00
00
00
00
00
00
00
ENDCHAR
STARTCHAR U+00BA
ENCODING 186
SWIDTH 377 0
DWIDTH 11 0
BBX 11 19 0 0
BITMAP
1F00
3F80
7180
60C0
60C0
60C0
7180
3F80
1E00
0000
0000
0000
0000
0000
0000
0000
0000
0000
0000
ENDCHAR
STARTCHAR U+00BB
ENCODING 187
SWIDTH 549 0
DWIDTH 16 0
BBX 16 14 0 0
BITMAP
30C0
38E0
1C70
0E38
0618
071C
030C
071C
0E38
1C70
38E0
30C0
0000
0000
ENDCHAR
STARTCHAR U+00BC
ENCODING 188
SWIDTH 754 0
DWIDTH 22 0
BBX 22 19 0 0
BITMAP
100300
300300
300600
300600
300C00
300C00
301800
301800
303010
303030
306070
3060F0
00C1F0
00C1B0
018330
0387FC
030FFC
070030
060030
ENDCHAR
STARTCHAR U+00BD
ENCODING 189
SWIDTH 789 0
DWIDTH 23 0
BBX 23 19 0 0
BITMAP
100300
300300
300600
300600
300C00
300C00
301800
3018F0
3031FC
30311C
30600C
30600C
00C01C
00C038
018030
038070
030060
0700FC
0601FC
ENDCHAR
STARTCHAR U+00BE
ENCODING 190
SWIDTH 823 0
DWIDTH 24 0
BBX 24 19 0 0
BITMAP
7F00C0
7F00C0
060180
0C0180
0E0300
1F0300
030600
038600
030C04
230C0C
7F181C
3C183C
00307C
00306C
0060CC
00E1FF
00C3FF
01C00C
01800C
ENDCHAR
STARTCHAR U+00BF
ENCODING 191
SWIDTH 446 0
DWIDTH 13 0
BBX 13 19 0 -5
BITMAP
0100
0380
0780
0300
0000
0100
0380
0380
0380
0780
1F00
3C00
3800
3000
3000
3860
3FF0
1FE0
0FC0
ENDCHAR
STARTCHAR U+00C0
ENCODING 192
SWIDTH 651 0
DWIDTH 19 0
BBX 19 24 0 0
BITMAP
038000
018000
01C000
00E000
000000
00E000
01E000
01F000
01F000
03B000
03B800
033800
071C00
071C00
0E1C00
0E0E00
0E0E00
1FFF00
1FFF00
3FFF00
380380
380380
7001C0
7001C0
ENDCHAR
STARTCHAR U+00C1
ENCODING 193
SWIDTH 651 0
DWIDTH 19 0
BBX 19 24 0 0
BITMAP
003800
007000
00E000
00C000
000000
00E000
01E000
01F000
01F000
03B000
03B800
033800
071C00
071C00
0E1C00
0E0E00
0E0E00
1FFF00
1FFF00
3FFF00
380380
380380
7001C0
7001C0
ENDCHAR
STARTCHAR U+00C2
ENCODING 194
SWIDTH 651 0
DWIDTH 19 0
BBX 19 24 0 0
BITMAP
01E000
01F000
033000
061800
000000
00E000
01E000
01F000
01F000
03B000
03B800
033800
071C00
071C00
0E1C00
0E0E00
0E0E00
1FFF00
1FFF00
3FFF00
380380
380380
7001C0
7001C0
ENDCHAR
STARTCHAR U+00C3
ENCODING 195
SWIDTH 651 0
DWIDTH 19 0
BBX 19 24 0 0
BITMAP
070000
0FD800
0DF800
007000
000000
00E000
01E000
01F000
01F000
03B000
03B800
033800
071C00
071C00
0E1C00
0E0E00
0E0E00
1FFF00
1FFF00
3FFF00
380380
380380
7001C0
7001C0
ENDCHAR
STARTCHAR U+00C4
ENCODING 196
SWIDTH 651 0
DWIDTH 19 0
BBX 19 24 0 0
BITMAP
020800
071C00
071C00
020800
000000
00E000
01E000
01F000
01F000
03B000
03B800
033800
071C00
071C00
0E1C00
0E0E00
0E0E00
1FFF00
1FFF00
3FFF00
380380
380380
7001C0
7001C0
ENDCHAR
STARTCHAR U+00C5
ENCODING 197
SWIDTH 651 0
DWIDTH 19 0
BBX 19 25 0 0
BITMAP
00E000
01B000
011000
01B000
00E000
000000
00E000
01E000
01F000
01F000
03B000
03B800
033800
071C00
071C00
0E1C00
0E0E00
0E0E00
1FFF00
1FFF00
3FFF00
380380
380380
7001C0
7001C0
ENDCHAR
STARTCHAR U+00C6
ENCODING 198
SWIDTH 891 0
DWIDTH 26 0
BBX 26 19 0 0
BITMAP
001FFF00
003FFF00
003FFF00
00770000
00770000
00E70000
01E70000
01C7FC00
03C7FC00
0387FC00
07070000
07FF0000
0FFF0000
1FFF0000
1C070000
3C070000
3807FF80
7807FF80
7007FF80
ENDCHAR
STARTCHAR U+00C7
ENCODING 199
SWIDTH 651 0
DWIDTH 19 0
BBX 19 25 0 -6
BITMAP
00FE00
03FF80
07FFC0
0F81C0
1E00C0
3C0000
380000
380000
380000
380000
380000
380000
380000
1C0000
1E00C0
0F81C0
07FFC0
03FF80
00FC00
006000
007800
001C00
001C00
00F800
00F000
ENDCHAR
STARTCHAR U+00C8
ENCODING 200
SWIDTH 549 0
DWIDTH 16 0
BBX 16 24 0 0
BITMAP
0700
0300
0380
01C0
0000
1FFE
1FFE
1FFE
1C00
1C00
1C00
1C00
1FF0
1FF0
1FF0
1C00
1C00
1C00
1C00
1C00
1C00
1FFE
1FFE
1FFE
ENDCHAR
STARTCHAR U+00C9
ENCODING 201
SWIDTH 549 0
DWIDTH 16 0
BBX 16 24 0 0
BITMAP
0070
00E0
01C0
0180
0000
1FFE
1FFE
1FFE
1C00
1C00
1C00
1C00
1FF0
1FF0
1FF0
1C00
1C00
1C00
1C00
1C00
1C00
1FFE
1FFE
1FFE
ENDCHAR
STARTCHAR U+00CA
ENCODING 202
SWIDTH 549 0
DWIDTH 16 0
BBX 16 24 0 0
BITMAP
03C0
03E0
0660
0C30
0000
1FFE
1FFE
1FFE
1C00
1C00
1C00
1C00
1FF0
1FF0
1FF0
1C00
1C00
1C00
1C00
1C00
1C00
1FFE
1FFE
1FFE
ENDCHAR
STARTCHAR U+00CB
ENCODING 203
SWIDTH 549 0
DWIDTH 16 0
BBX 16 24 0 0
BITMAP
0410
0E38
0E38
0410
0000
1FFE
1FFE
1FFE
1C00
1C00
1C00
1C00
1FF0
1FF0
1FF0
1C00
1C00
1C00
1C00
1C00
1C00
1FFE
1FFE
1FFE
ENDCHAR
STARTCHAR U+00CC
ENCODING 204
SWIDTH 274 0
DWIDTH 8 0
BBX 8 24 0 0
BITMAP
70
30
38
1C
00
1C
1C
1C
1C
1C
1C
1C
1C
1C
1C
1C
1C
1C
1C
1C
1C
1C
1C
1C
ENDCHAR
STARTCHAR U+00CD
ENCODING 205
SWIDTH 274 0
DWIDTH 8 0
BBX 8 24 0 0
BITMAP
00
00
00
00
00
00
00
00
00
00
00
00
00
00
00
00
00
00
00
00
00
00
00
00
ENDCHAR
STARTCHAR U+00CE
ENCODING 206
SWIDTH 274 0
DWIDTH 8 0
BBX 9 24 0 0
BITMAP
0000
0000
0000
0000
0000
0000
0000
0000
0000
0000
0000
0000
0000
0000
0000
0000
0000
0000
0000
0000
0000
0000
0000
0000
ENDCHAR
STARTCHAR U+00CF
ENCODING 207
SWIDTH 274 0
DWIDTH 8 0
BBX 10 24 -1 0
BITMAP
0000
0000
0000
0000
0000
0000
0000
0000
0000
0000
0000
0000
0000
0000
0000
0000
0000
0000
0000
0000
0000
0000
0000
0000
ENDCHAR
STARTCHAR U+00D0
ENCODING 208
SWIDTH 686 0
DWIDTH 20 0
BBX 20 19 0 0
BITMAP
1FF000
1FFC00
1FFF00
1C1F80
1C0780
1C03C0
1C01C0
1C00E0
7FC0E0
7FC0E0
1C00E0
1C00E0
1C01C0
1C03C0
1C0780
1C1F80
1FFF00
1FFC00
1FF000
ENDCHAR
STARTCHAR U+00D1
ENCODING 209
SWIDTH 754 0
DWIDTH 22 0
BBX 22 24 0 0
BITMAP
01C000
03F600
037E00
001C00
000000
1C00E0
1C00E0
1E00E0
1F00E0
1F80E0
1FC0E0
1DC0E0
1CE0E0
1CF0E0
1C78E0
1C38E0
1C1CE0
1C1EE0
1C0FE0
1C07E0
1C03E0
1C01E0
1C01E0
1C00E0
ENDCHAR
STARTCHAR U+00D2
ENCODING 210
SWIDTH 789 0
DWIDTH 23 0
BBX 23 24 0 0
BITMAP
00E000
006000
007000
003800
000000
00FE00
03FF80
07FFC0
0F83E0
1E00F0
3C0078
380038
380038
380038
380018
380038
380038
380038
3C0070
1E00F0
0F83E0
07FFC0
03FF80
00FE00
ENDCHAR
STARTCHAR U+00D3
ENCODING 211
SWIDTH 789 0
DWIDTH 23 0
BBX 23 24 0 0
BITMAP
000E00
001C00
003800
003000
000000
00FE00
03FF80
07FFC0
0F83E0
1E00F0
3C0078
380038
380038
380038
380018
380038
380038
380038
3C0070
1E00F0
0F83E0
07FFC0
03FF80
00FE00
ENDCHAR
STARTCHAR U+00D4
ENCODING 212
SWIDTH 789 0
DWIDTH 23 0
BBX 23 24 0 0
BITMAP
007800
007C00
00CC00
018600
000000
00FE00
03FF80
07FFC0
0F83E0
1E00F0
3C0078
380038
380038
380038
380018
380038
380038
380038
3C0070
1E00F0
0F83E0
07FFC0
03FF80
00FE00
ENDCHAR
STARTCHAR U+00D5
ENCODING 213
SWIDTH 789 0
DWIDTH 23 0
BBX 23 24 0 0
BITMAP
00E000
01FB00
01BF00
000E00
000000
00FE00
03FF80
07FFC0
0F83E0
1E00F0
3C0078
380038
380038
380038
380018
380038
380038
380038
3C0070
1E00F0
0F83E0
07FFC0
03FF80
00FE00
ENDCHAR
STARTCHAR U+00D6
ENCODING 214
SWIDTH 789 0
DWIDTH 23 0
BBX 23 24 0 0
BITMAP
008200
01C700
01C700
008200
000000
00FE00
03FF80
07FFC0
0F83E0
1E00F0
3C0078
380038
380038
380038
380018
380038
380038
380038
3C0070
1E00F0
0F83E0
07FFC0
03FF80
00FE00
ENDCHAR
STARTCHAR U+00D7
ENCODING 215
SWIDTH 514 0
DWIDTH 15 0
BBX 15 15 0 0
BITMAP
1010
1838
1C70
0EE0
07C0
0380
07C0
0EE0
1C70
3838
1010
0000
0000
0000
0000
ENDCHAR
STARTCHAR U+00D8
ENCODING 216
SWIDTH 789 0
DWIDTH 23 0
BBX 23 19 0 0
BITMAP
00FE10
03FFB8
07FFF0
0F83E0
1E00F0
3C03F0
380738
380E38
381C38
383838
387038
38E038
39C038
1F0070
1E00F0
0F83E0
1FFFC0
3BFF80
10FE00
ENDCHAR
STARTCHAR U+00D9
ENCODING 217
SWIDTH 754 0
DWIDTH 22 0
BBX 22 24 0 0
BITMAP
00E000
006000
007000
003800
000000
3800E0
3800E0
3800E0
3800E0
3800E0
3800E0
3800E0
3800E0
3800E0
3800E0
3800E0
3800E0
1C00E0
1C00E0
1E01C0
0F07C0
07FF80
03FF00
00FC00
ENDCHAR
STARTCHAR U+00DA
ENCODING 218
SWIDTH 754 0
DWIDTH 22 0
BBX 22 24 0 0
BITMAP
000E00
001C00
003800
003000
000000
3800E0
3800E0
3800E0
3800E0
3800E0
3800E0
3800E0
3800E0
3800E0
3800E0
3800E0
3800E0
1C00E0
1C00E0
1E01C0
0F07C0
07FF80
03FF00
00FC00
ENDCHAR
STARTCHAR U+00DB
ENCODING 219
SWIDTH 754 0
DWIDTH 22 0
BBX 22 24 0 0
BITMAP
007800
007C00
00CC00
018600
000000
3800E0
3800E0
3800E0
3800E0
3800E0
3800E0
3800E0
3800E0
3800E0
3800E0
3800E0
3800E0
1C00E0
1C00E0
1E01C0
0F07C0
07FF80
03FF00
00FC00
ENDCHAR
STARTCHAR U+00DC
ENCODING 220
SWIDTH 754 0
DWIDTH 22 0
BBX 22 24 0 0
BITMAP
010400
038E00
038E00
010400
000000
3800E0
3800E0
3800E0
3800E0
3800E0
3800E0
3800E0
3800E0
3800E0
3800E0
3800E0
3800E0
1C00E0
1C00E0
1E01C0
0F07C0
07FF80
03FF00
00FC00
ENDCHAR
STARTCHAR U+00DD
ENCODING 221
SWIDTH 583 0
DWIDTH 17 0
BBX 17 24 0 0
BITMAP
007000
00E000
01C000
018000
000000
700700
780E00
380E00
1C1C00
1E3C00
0E3800
077000
07F000
03E000
01C000
01C000
01C000
01C000
01C000
01C000
01C000
01C000
01C000
01C000
ENDCHAR
STARTCHAR U+00DE
ENCODING 222
SWIDTH 583 0
DWIDTH 17 0
BBX 17 19 0 0
BITMAP
1C0000
1C0000
1C0000
1C0000
1FF000
1FF800
1FFC00
1C1E00
1C0E00
1C0E00
1C0E00
1C0E00
1C1E00
1FFC00
1FF800
1FE000
1C0000
1C0000
1C0000
ENDCHAR
STARTCHAR U+00DF
ENCODING 223
SWIDTH 514 0
DWIDTH 15 0
BBX 15 19 0 0
BITMAP
07E0
0FF0
1FF8
1C38
3818
3818
3838
39F0
39E0
39F8
383C
381C
380C
380C
381C
383C
39FC
39F8
39E0
ENDCHAR
STARTCHAR U+00E0
ENCODING 224
SWIDTH 514 0
DWIDTH 15 0
BBX 15 20 0 0
BITMAP
0E00
0600
0700
0380
0000
0000
07C0
1FE0
1FF0
3070
2030
03F0
0FF0
3C30
3830
7030
78F0
3FF0
3FF0
1F30
ENDCHAR
STARTCHAR U+00E1
ENCODING 225
SWIDTH 514 0
DWIDTH 15 0
BBX 15 20 0 0
BITMAP
00E0
01C0
0380
0300
0000
0000
07C0
1FE0
1FF0
3070
2030
03F0
0FF0
3C30
3830
7030
78F0
3FF0
3FF0
1F30
ENDCHAR
STARTCHAR U+00E2
ENCODING 226
SWIDTH 514 0
DWIDTH 15 0
BBX 15 20 0 0
BITMAP
0780
07C0
0CC0
1860
0000
0000
07C0
1FE0
1FF0
3070
2030
03F0
0FF0
3C30
3830
7030
78F0
3FF0
3FF0
1F30
ENDCHAR
STARTCHAR U+00E3
ENCODING 227
SWIDTH 514 0
DWIDTH 15 0
BBX 15 20 0 0
BITMAP
0E00
1FB0
1BF0
00E0
0000
0000
07C0
1FE0
1FF0
3070
2030
03F0
0FF0
3C30
3830
7030
78F0
3FF0
3FF0
1F30
ENDCHAR
STARTCHAR U+00E4
ENCODING 228
SWIDTH 514 0
DWIDTH 15 0
BBX 15 20 0 0
BITMAP
0820
1C70
1C70
0820
0000
0000
07C0
1FE0
1FF0
3070
2030
03F0
0FF0
3C30
3830
7030
78F0
3FF0
3FF0
1F30
ENDCHAR
STARTCHAR U+00E5
ENCODING 229
SWIDTH 514 0
DWIDTH 15 0
BBX 15 21 0 0
BITMAP
0380
06C0
0440
06C0
0380
0000
0000
07C0
1FE0
1FF0
3070
2030
03F0
0FF0
3C30
3830
7030
78F0
3FF0
3FF0
1F30
ENDCHAR
STARTCHAR U+00E6
ENCODING 230
SWIDTH 789 0
DWIDTH 23 0
BBX 23 14 0 0
BITMAP
07C7E0
1FEFF0
1FFFF8
307C38
20781C
03FFFC
0FFFFC
3C3000
303800
703804
787C1C
3FFFFC
3FEFF8
1F83E0
ENDCHAR
STARTCHAR U+00E7
ENCODING 231
SWIDTH 480 0
DWIDTH 14 0
BBX 14 20 0 -6
BITMAP
03E0
0FF8
1FF8
3C18
3800
7000
7000
7000
7000
3800
3C18
1FF8
0FF8
03F0
0180
01E0
0070
0070
03E0
03C0
ENDCHAR
STARTCHAR U+00E8
ENCODING 232
SWIDTH 514 0
DWIDTH 15 0
BBX 15 20 0 0
BITMAP
0700
0300
0380
01C0
0000
0000
07E0
0FF0
1FF8
3C38
381C
7FFC
7FFC
7FFC
7000
3800
3C0C
1FFC
0FFC
03F0
ENDCHAR
STARTCHAR U+00E9
ENCODING 233
SWIDTH 514 0
DWIDTH 15 0
BBX 15 20 0 0
BITMAP
00E0
01C0
0380
0300
0000
0000
07E0
0FF0
1FF8
3C38
381C
7FFC
7FFC
7FFC
7000
3800
3C0C
1FFC
0FFC
03F0
ENDCHAR
STARTCHAR U+00EA
ENCODING 234
SWIDTH 514 0
DWIDTH 15 0
BBX 15 20 0 0
BITMAP
03C0
03E0
0660
0C30
0000
0000
07E0
0FF0
1FF8
3C38
381C
7FFC
7FFC
7FFC
7000
3800
3C0C
1FFC
0FFC
03F0
ENDCHAR
STARTCHAR U+00EB
ENCODING 235
SWIDTH 514 0
DWIDTH 15 0
BBX 15 20 0 0
BITMAP
0820
1C70
1C70
0820
0000
0000
07E0
0FF0
1FF8
3C38
381C
7FFC
7FFC
7FFC
7000
3800
3C0C
1FFC
0FFC
03F0
ENDCHAR
STARTCHAR U+00EC
ENCODING 236
SWIDTH 240 0
DWIDTH 7 0
BBX 8 20 -1 0
BITMAP
00
00
00
00
00
00
00
00
00
00
00
00
00
00
00
00
00
00
00
00
ENDCHAR
STARTCHAR U+00ED
ENCODING 237
SWIDTH 240 0
DWIDTH 7 0
BBX 8 20 0 0
BITMAP
0E
1C
38
30
00
00
38
38
38
38
38
38
38
38
38
38
38
38
38
38
ENDCHAR
STARTCHAR U+00EE
ENCODING 238
SWIDTH 240 0
DWIDTH 7 0
BBX 9 20 -1 0
BITMAP
0000
0000
0000
0000
0000
0000
0000
0000
0000
0000
0000
0000
0000
0000
0000
0000
0000
0000
0000
0000
ENDCHAR
STARTCHAR U+00EF
ENCODING 239
SWIDTH 240 0
DWIDTH 7 0
BBX 11 20 -2 0
BITMAP
4100
E380
E380
4100
0000
0000
1C00
1C00
1C00
1C00
1C00
1C00
1C00
1C00
1C00
1C00
1C00
1C00
1C00
1C00
ENDCHAR
STARTCHAR U+00F0
ENCODING 240
SWIDTH 549 0
DWIDTH 16 0
BBX 16 19 0 0
BITMAP
0620
0FF0
03E0
0FC0
1EE0
0870
07F8
0FF8
1FFC
3C3C
381C
701C
701C
701C
381C
3C38
3FF8
1FF0
07C0
ENDCHAR
STARTCHAR U+00F1
ENCODING 241
SWIDTH 583 0
DWIDTH 17 0
BBX 17 20 0 0
BITMAP
070000
0FD800
0DF800
007000
000000
000000
3BF000
3FF800
3FFC00
3C3C00
381E00
380E00
380E00
380E00
380E00
380E00
380E00
380E00
380E00
380E00
ENDCHAR
STARTCHAR U+00F2
ENCODING 242
SWIDTH 583 0
DWIDTH 17 0
BBX 17 20 0 0
BITMAP
038000
018000
01C000
00E000
000000
000000
03E000
0FF800
1FFC00
3C1E00
380E00
700700
700700
700700
700700
380E00
3C1E00
1FFC00
0FF800
03E000
ENDCHAR
STARTCHAR U+00F3
ENCODING 243
SWIDTH 583 0
DWIDTH 17 0
BBX 17 20 0 0
BITMAP
007000
00E000
01C000
018000
000000
000000
03E000
0FF800
1FFC00
3C1E00
380E00
700700
700700
700700
700700
380E00
3C1E00
1FFC00
0FF800
03E000
ENDCHAR
STARTCHAR U+00F4
ENCODING 244
SWIDTH 583 0
DWIDTH 17 0
BBX 17 20 0 0
BITMAP
03C000
03E000
066000
0C3000
000000
000000
03E000
0FF800
1FFC00
3C1E00
380E00
700700
700700
700700
700700
380E00
3C1E00
1FFC00
0FF800
03E000
ENDCHAR
STARTCHAR U+00F5
ENCODING 245
SWIDTH 583 0
DWIDTH 17 0
BBX 17 20 0 0
BITMAP
070000
0FD800
0DF800
007000
000000
000000
03E000
0FF800
1FFC00
3C1E00
380E00
700700
700700
700700
700700
380E00
3C1E00
1FFC00
0FF800
03E000
ENDCHAR
STARTCHAR U+00F6
ENCODING 246
SWIDTH 583 0
DWIDTH 17 0
BBX 17 20 0 0
BITMAP
041000
0E3800
0E3800
041000
000000
000000
03E000
0FF800
1FFC00
3C1E00
380E00
700700
700700
700700
700700
380E00
3C1E00
1FFC00
0FF800
03E000
ENDCHAR
STARTCHAR U+00F7
ENCODING 247
SWIDTH 514 0
DWIDTH 15 0
BBX 15 16 0 0
BITMAP
0100
0380
0380
0100
0000
3FF8
3FF8
0000
0000
0000
0100
0380
0380
0100
0000
0000
ENDCHAR
STARTCHAR U+00F8
ENCODING 248
SWIDTH 583 0
DWIDTH 17 0
BBX 17 16 0 -1
BITMAP
000400
03E600
0FFC00
1FFC00
3C1E00
383E00
706700
70C700
718700
730700
3E0E00
3C1E00
1FFC00
1FF800
33E000
100000
ENDCHAR
STARTCHAR U+00F9
ENCODING 249
SWIDTH 583 0
DWIDTH 17 0
BBX 17 20 0 0
BITMAP
070000
030000
038000
01C000
000000
000000
380E00
380E00
380E00
380E00
380E00
380E00
380E00
380E00
380E00
380E00
3C1E00
1FFE00
0FFE00
07EE00
ENDCHAR
STARTCHAR U+00FA
ENCODING 250
SWIDTH 583 0
DWIDTH 17 0
BBX 17 20 0 0
BITMAP
007000
00E000
01C000
018000
000000
000000
380E00
380E00
380E00
380E00
380E00
380E00
380E00
380E00
380E00
380E00
3C1E00
1FFE00
0FFE00
07EE00
ENDCHAR
STARTCHAR U+00FB
ENCODING 251
SWIDTH 583 0
DWIDTH 17 0
BBX 17 20 0 0
BITMAP
03C000
03E000
066000
0C3000
000000
000000
380E00
380E00
380E00
380E00
380E00
380E00
380E00
380E00
380E00
380E00
3C1E00
1FFE00
0FFE00
07EE00
ENDCHAR
STARTCHAR U+00FC
ENCODING 252
SWIDTH 583 0
DWIDTH 17 0
BBX 17 20 0 0
BITMAP
041000
0E3800
0E3800
041000
000000
000000
380E00
380E00
380E00
380E00
380E00
380E00
380E00
380E00
380E00
380E00
3C1E00
1FFE00
0FFE00
07EE00
ENDCHAR
STARTCHAR U+00FD
ENCODING 253
SWIDTH 514 0
DWIDTH 15 0
BBX 15 25 0 -5
BITMAP
00E0
01C0
0380
0300
0000
0000
700E
701C
301C
3838
3838
1C30
1C70
0C70
0EE0
06E0
07C0
03C0
03C0
0380
0380
0700
1F00
1E00
1C00
ENDCHAR
STARTCHAR U+00FE
ENCODING 254
SWIDTH 583 0
DWIDTH 17 0
BBX 17 24 0 -5
BITMAP
380000
380000
380000
380000
380000
3BE000
3FF800
3FFC00
3C3E00
380E00
380E00
380700
380600
380E00
380E00
3C3E00
3FFC00
3FF800
3BE000
380000
380000
380000
380000
380000
ENDCHAR
STARTCHAR U+00FF
ENCODING 255
SWIDTH 514 0
DWIDTH 15 0
BBX 15 25 0 -5
BITMAP
0820
1C70
1C70
0820
0000
0000
700E
701C
301C
3838
3838
1C30
1C70
0C70
0EE0
06E0
07C0
03C0
03C0
0380
0380
0700
1F00
1E00
1C00
ENDCHAR
STARTCHAR U+2013
ENCODING 8211
SWIDTH 480 0
DWIDTH 14 0
BBX 16 9 -1 0
BITMAP
FFFC
FFFC
0000
0000
0000
0000
0000
0000
0000
ENDCHAR
STARTCHAR U+2014
ENCODING 8212
SWIDTH 960 0
DWIDTH 28 0
BBX 30 9 -1 0
BITMAP
FFFFFFF0
FFFFFFF0
00000000
00000000
00000000
00000000
00000000
00000000
00000000
ENDCHAR
STARTCHAR U+2018
ENCODING 8216
SWIDTH 240 0
DWIDTH 7 0
BBX 7 19 0 0
BITMAP
08
10
30
38
38
10
00
00
00
00
00
00
00
00
00
00
00
00
00
ENDCHAR
STARTCHAR U+2019
ENCODING 8217
SWIDTH 240 0
DWIDTH 7 0
BBX 7 19 0 0
BITMAP
10
38
38
18
18
10
20
00
00
00
00
00
00
00
00
00
00
00
00
ENDCHAR
STARTCHAR U+201C
ENCODING 8220
SWIDTH 377 0
DWIDTH 11 0
BBX 11 19 0 0
BITMAP
0880
1180
3180
3B80
3BC0
1180
0000
0000
0000
0000
0000
0000
0000
0000
0000
0000
0000
0000
0000
ENDCHAR
STARTCHAR U+201D
ENCODING 8221
SWIDTH 377 0
DWIDTH 11 0
BBX 11 19 0 0
BITMAP
1100
3B80
3B80
1980
1980
1100
2200
0000
0000
0000
0000
0000
0000
0000
0000
0000
0000
0000
0000
ENDCHAR
STARTCHAR U+2022
ENCODING 8226
SWIDTH 411 0
DWIDTH 12 0
BBX 12 12 0 0
BITMAP
0400
0E00
1F00
3F80
1F00
0E00
0400
0000
0000
0000
0000
0000
ENDCHAR
STARTCHAR U+2026
ENCODING 8230
SWIDTH 891 0
DWIDTH 26 0
BBX 26 4 0 0
BITMAP
10080200
381C0700
381C0700
10080200
ENDCHAR
STARTCHAR U+20AC
ENCODING 8364
SWIDTH 617 0
DWIDTH 18 0
BBX 18 19 0 0
BITMAP
00FC00
03FF00
07FF00
0F0300
1E0000
1C0000
7FF800
7FF800
380000
380000
7FF000
7FF000
1C0000
1C0000
0E0000
0F8300
07FF00
03FF00
00FC00
ENDCHAR
ENDFONT
