STARTFONT 2.1
COMMENT Converted from Johnston100 W03 Regular.ttf at 43px with ttf2bdf.py (Pillow, 1-bit, no AA)
FONT -Misc-Johnston100-Medium-R-Normal--43-430-75-75-P-450-ISO10646-1
SIZE 43 75 75
FONTBOUNDINGBOX 45 49 -2 -11
STARTPROPERTIES 9
FOUNDRY "Misc"
FAMILY_NAME "Johnston100"
WEIGHT_NAME "Medium"
SLANT "R"
PIXEL_SIZE 43
RESOLUTION_X 75
RESOLUTION_Y 75
FONT_ASCENT 38
FONT_DESCENT 11
ENDPROPERTIES
CHARS 200
STARTCHAR space
ENCODING 32
SWIDTH 246 0
DWIDTH 11 0
BBX 11 49 0 -11
BITMAP
0000
0000
0000
0000
0000
0000
0000
0000
0000
0000
0000
0000
0000
0000
0000
0000
0000
0000
0000
0000
0000
0000
0000
0000
0000
0000
0000
0000
0000
0000
0000
0000
0000
0000
0000
0000
0000
0000
0000
0000
0000
0000
0000
0000
0000
0000
0000
0000
0000
ENDCHAR
STARTCHAR !
ENCODING 33
SWIDTH 268 0
DWIDTH 12 0
BBX 12 29 0 0
BITMAP
0F80
0F80
0F80
0F80
0F80
0F80
0F00
0F00
0F00
0F00
0F00
0F00
0F00
0F00
0F00
0F00
0700
0700
0700
0700
0700
0700
0000
0000
0600
0F00
0F80
0700
0200
ENDCHAR
STARTCHAR "
ENCODING 34
SWIDTH 402 0
DWIDTH 18 0
BBX 18 29 0 0
BITMAP
1E1E00
1E1E00
1E1E00
1E1E00
1E1E00
1E1E00
1E1C00
1E1C00
0C1C00
0C0C00
0C0C00
000000
000000
000000
000000
000000
000000
000000
000000
000000
000000
000000
000000
000000
000000
000000
000000
000000
000000
ENDCHAR
STARTCHAR U+0023
ENCODING 35
SWIDTH 737 0
DWIDTH 33 0
BBX 33 29 0 0
BITMAP
0000802000
000781E000
000781E000
000701C000
000F01C000
000F03C000
000E038000
000E038000
07FFFFFE00
0FFFFFFE00
0FFFFFFE00
003C0F0000
003C0F0000
00380E0000
00380E0000
00781E0000
00781E0000
00701C0000
3FFFFFF000
3FFFFFF000
7FFFFFF000
00E0380000
01E0780000
01C0700000
01C0700000
03C0F00000
03C0F00000
0380E00000
0200800000
ENDCHAR
STARTCHAR $
ENCODING 36
SWIDTH 491 0
DWIDTH 22 0
BBX 22 35 0 -3
BITMAP
00F000
00F000
00F000
03FC00
07FF00
0FFF80
1FFFC0
1F0700
1E0200
1E0000
1E0000
1F0000
1F8000
0FE000
0FF800
03FE00
01FF80
007FC0
001FC0
0007E0
0003F0
0001F0
0001F0
0001F0
1801F0
3C01F0
7E03E0
3F07E0
1FFFC0
0FFF80
07FF00
01FC00
00F000
00F000
00F000
ENDCHAR
STARTCHAR %
ENCODING 37
SWIDTH 714 0
DWIDTH 32 0
BBX 32 29 0 0
BITMAP
03E00380
0FF80780
1FFC0700
1E3C0F00
3C1E0E00
381E1E00
3C1E3C00
3C1C3800
1E3C7800
1FFC7000
0FF8F000
03E0E000
0001E000
0001C000
0003C000
00038000
00078000
000707C0
000F1FF0
000E1FF8
001E3C78
001C383C
003C781C
0038781C
0078383C
00703C78
00F01FF8
00E01FF0
01E007C0
ENDCHAR
STARTCHAR &
ENCODING 38
SWIDTH 647 0
DWIDTH 29 0
BBX 29 29 0 0
BITMAP
003F0000
00FFC000
01FFE000
03FFE000
07E3F000
07C1F000
0780F000
0780F000
07C1F000
07C1E000
03E3E000
01FFC000
00FF8000
00FE0000
03FE03E0
07FF03C0
0F8F83C0
1F07C780
1E07EF80
3E03FF00
3C01FF00
3C00FE00
3E007E00
3E00FF00
1F83FF80
1FFFFFC0
0FFFC7C0
07FF83E0
01FE01F0
ENDCHAR
STARTCHAR '
ENCODING 39
SWIDTH 223 0
DWIDTH 10 0
BBX 10 29 0 0
BITMAP
1E00
1E00
1E00
1E00
1E00
1E00
1E00
1E00
0C00
0C00
0C00
0000
0000
0000
0000
0000
0000
0000
0000
0000
0000
0000
0000
0000
0000
0000
0000
0000
0000
ENDCHAR
STARTCHAR (
ENCODING 40
SWIDTH 246 0
DWIDTH 11 0
BBX 11 35 0 -3
BITMAP
03C0
0380
0780
0780
0F00
0F00
0F00
0E00
1E00
1E00
1E00
1E00
1E00
1E00
1C00
1C00
3C00
3C00
3C00
1C00
1C00
1E00
1E00
1E00
1E00
1E00
1E00
0E00
0F00
0F00
0F00
0780
0780
0380
03C0
ENDCHAR
STARTCHAR )
ENCODING 41
SWIDTH 246 0
DWIDTH 11 0
BBX 11 35 0 -3
BITMAP
7800
3C00
3C00
1C00
1E00
1E00
0E00
0F00
0F00
0F00
0F00
0700
0780
0780
0780
0780
0780
0780
0780
0780
0780
0780
0780
0700
0F00
0F00
0F00
0F00
0E00
1E00
1E00
1C00
3C00
3C00
7800
ENDCHAR
STARTCHAR *
ENCODING 42
SWIDTH 380 0
DWIDTH 17 0
BBX 17 29 0 0
BITMAP
01E000
01C000
11C400
39C600
3CCF00
1FDE00
07F800
01F000
07F000
1EFC00
3CDF00
39C600
11C400
01C000
01E000
000000
000000
000000
000000
000000
000000
000000
000000
000000
000000
000000
000000
000000
000000
ENDCHAR
STARTCHAR +
ENCODING 43
SWIDTH 513 0
DWIDTH 23 0
BBX 23 22 0 0
BITMAP
003800
003800
003800
003800
003800
003800
1FFFF0
1FFFF0
1FFFF0
1FFFF0
003800
003800
003800
003800
003800
003800
000000
000000
000000
000000
000000
000000
ENDCHAR
STARTCHAR ,
ENCODING 44
SWIDTH 246 0
DWIDTH 11 0
BBX 11 11 0 -5
BITMAP
0400
0E00
1E00
3F00
1F00
0F00
0E00
0E00
0C00
1800
0000
ENDCHAR
STARTCHAR -
ENCODING 45
SWIDTH 357 0
DWIDTH 16 0
BBX 16 14 0 0
BITMAP
7FFE
7FFE
7FFE
7FFE
0000
0000
0000
0000
0000
0000
0000
0000
0000
0000
ENDCHAR
STARTCHAR .
ENCODING 46
SWIDTH 246 0
DWIDTH 11 0
BBX 11 6 0 0
BITMAP
0400
0E00
1F00
1F00
0E00
0400
ENDCHAR
STARTCHAR /
ENCODING 47
SWIDTH 313 0
DWIDTH 14 0
BBX 14 35 0 -3
BITMAP
003C
0038
0078
0078
0078
00F0
00F0
00F0
00E0
01E0
01E0
01E0
03C0
03C0
03C0
0380
0780
0780
0780
0F00
0F00
0F00
0E00
1E00
1E00
1E00
3C00
3C00
3C00
3800
7800
7800
7000
F000
F000
ENDCHAR
STARTCHAR 0
ENCODING 48
SWIDTH 558 0
DWIDTH 25 0
BBX 25 29 0 0
BITMAP
003E0000
00FF8000
01FFC000
03FFE000
07E3F000
0780F000
0F80F800
0F007800
0F007800
1F007C00
1E003C00
1E003C00
1E003C00
1E003C00
1E003C00
1E003C00
1E003C00
1E003C00
1F003C00
1F007C00
0F007800
0F007800
0F80F800
0780F000
07E3F000
03FFE000
01FFC000
00FF8000
003E0000
ENDCHAR
STARTCHAR 1
ENCODING 49
SWIDTH 290 0
DWIDTH 13 0
BBX 13 29 0 0
BITMAP
0080
0380
0780
0F80
0F80
0F80
0F80
0F80
0F80
0F80
0F80
0F80
0F80
0F80
0F80
0F80
0F80
0F80
0F80
0F80
0F80
0F80
0F80
0F80
0F80
0F80
0F80
0F80
0F80
ENDCHAR
STARTCHAR 2
ENCODING 50
SWIDTH 469 0
DWIDTH 21 0
BBX 21 29 0 0
BITMAP
01FC00
07FF00
0FFF80
1FFFC0
1F07E0
1C03E0
1801E0
1001E0
0001E0
0001E0
0003E0
0003E0
0007C0
0007C0
000F80
001F00
001F00
003E00
007E00
007C00
00F800
00F800
01F000
03E000
03E000
07FFF0
0FFFF0
0FFFF0
1FFFF0
ENDCHAR
STARTCHAR 3
ENCODING 51
SWIDTH 491 0
DWIDTH 22 0
BBX 22 29 0 0
BITMAP
3FFFF0
3FFFE0
3FFFE0
3FFFC0
000780
000F80
001F00
001F00
003E00
003C00
007C00
00FF00
00FFC0
0107E0
0003E0
0001F0
0000F0
0000F0
0000F8
0000F8
0000F8
0000F0
1001F0
1803F0
3E07E0
3FFFC0
1FFF80
0FFF00
01FC00
ENDCHAR
STARTCHAR 4
ENCODING 52
SWIDTH 558 0
DWIDTH 25 0
BBX 25 29 0 0
BITMAP
00001000
00003000
00003000
00007000
0000F000
0001F000
0003F000
0007F000
000FF000
001FF000
003EF000
003CF000
0078F000
00F0F000
01E0F000
03E0F000
07C0F000
0F80F000
1FFFFF00
3FFFFF00
7FFFFF00
0000F000
0000F000
0000F000
0000F000
0000F000
0000F000
0000F000
0000F000
ENDCHAR
STARTCHAR 5
ENCODING 53
SWIDTH 491 0
DWIDTH 22 0
BBX 22 29 0 0
BITMAP
07FFF0
07FFE0
07FFE0
07FFC0
0F8000
0F8000
0F0000
0F0000
0F0000
0F0000
0FF800
0FFE00
0FFF80
0FFFC0
081FC0
0007E0
0003E0
0001E0
0001E0
0001F0
0001E0
0001E0
2003E0
7003E0
FC0FC0
7FFF80
3FFF00
0FFE00
03F800
ENDCHAR
STARTCHAR 6
ENCODING 54
SWIDTH 513 0
DWIDTH 23 0
BBX 23 29 0 0
BITMAP
000FC0
001F80
003F00
007E00
00FC00
01F800
01F000
03E000
03E000
07C000
078000
0FBF00
0FFFC0
0FFFF0
1FFFF0
1F81F8
1E00F8
1E007C
1E007C
1E003C
1E003C
1F007C
1F0078
0F80F8
0FC1F8
07FFF0
03FFE0
01FFC0
007E00
ENDCHAR
STARTCHAR 7
ENCODING 55
SWIDTH 469 0
DWIDTH 21 0
BBX 21 29 0 0
BITMAP
3FFFF0
3FFFF0
3FFFE0
3FFFE0
0003E0
0003C0
0007C0
000780
000F80
000F00
001F00
001E00
003E00
003E00
007C00
007C00
007800
00F800
00F000
01F000
01E000
03E000
03E000
07C000
07C000
0F8000
0F8000
0F0000
1F0000
ENDCHAR
STARTCHAR 8
ENCODING 56
SWIDTH 513 0
DWIDTH 23 0
BBX 23 29 0 0
BITMAP
007E00
01FF00
07FFC0
07FFC0
0F83E0
0F01E0
0F01E0
0F01E0
0F01E0
0F83E0
07C7C0
07FF80
03FF00
01FF00
03FF80
07EFE0
0F83E0
1F01F0
1E00F0
3E00F8
3E00F8
3E00F8
3E00F8
1F01F0
1F83F0
0FFFE0
07FFC0
03FF80
00FE00
ENDCHAR
STARTCHAR 9
ENCODING 57
SWIDTH 513 0
DWIDTH 23 0
BBX 23 29 0 0
BITMAP
01FC00
07FF00
0FFF80
1FFFC0
3F07E0
3E03E0
3C01E0
7C01F0
7800F0
7800F0
7800F0
7C00F0
3E00F0
3F03F0
1FFFF0
1FFFE0
07FFE0
01FBE0
0007C0
0007C0
000F80
000F80
001F00
003F00
007E00
00FC00
01F800
03F000
07E000
ENDCHAR
STARTCHAR :
ENCODING 58
SWIDTH 268 0
DWIDTH 12 0
BBX 12 22 0 0
BITMAP
0200
0700
0F80
0F80
0700
0200
0000
0000
0000
0000
0000
0000
0000
0000
0000
0000
0200
0700
0F80
0F80
0700
0200
ENDCHAR
STARTCHAR ;
ENCODING 59
SWIDTH 268 0
DWIDTH 12 0
BBX 12 27 0 -5
BITMAP
0200
0700
0F80
0F80
0700
0200
0000
0000
0000
0000
0000
0000
0000
0000
0000
0000
0200
0700
0F00
1F80
0F80
0780
0700
0700
0600
0C00
0000
ENDCHAR
STARTCHAR U+003C
ENCODING 60
SWIDTH 513 0
DWIDTH 23 0
BBX 23 26 0 0
BITMAP
000010
000070
0001F0
0007F0
001FE0
007F80
00FE00
03F800
0FF000
1FC000
1F0000
1FC000
0FF000
03FC00
00FF00
003FE0
000FF0
0003F0
0000F0
000010
000000
000000
000000
000000
000000
000000
ENDCHAR
STARTCHAR =
ENCODING 61
SWIDTH 513 0
DWIDTH 23 0
BBX 23 20 0 0
BITMAP
1FFFF0
1FFFF0
1FFFF0
1FFFF0
000000
000000
000000
000000
1FFFF0
1FFFF0
1FFFF0
1FFFF0
000000
000000
000000
000000
000000
000000
000000
000000
ENDCHAR
STARTCHAR U+003E
ENCODING 62
SWIDTH 513 0
DWIDTH 23 0
BBX 23 26 0 0
BITMAP
100000
1C0000
1F0000
1FC000
0FF000
03FC00
00FF00
003F80
001FE0
0007F0
0001F0
0007F0
001FE0
007F80
01FE00
0FF800
1FE000
1F8000
1E0000
180000
000000
000000
000000
000000
000000
000000
ENDCHAR
STARTCHAR ?
ENCODING 63
SWIDTH 447 0
DWIDTH 20 0
BBX 20 29 0 0
BITMAP
03F000
0FFC00
3FFE00
7FFF00
7E1F80
380F80
100780
000780
000780
000F80
001F80
003F00
00FE00
01FC00
03F000
07E000
07C000
07C000
03E000
03E000
01C000
008000
000000
008000
01E000
03F000
03E000
01C000
008000
ENDCHAR
STARTCHAR @
ENCODING 64
SWIDTH 915 0
DWIDTH 41 0
BBX 41 37 0 -8
BITMAP
00007FE00000
0003FFFC0000
000FFFFF0000
003F803F8000
007E0007C000
00F80003E000
01E00000F000
03E000007800
07C03F887800
0780FFF83C00
0F01FFF83C00
0F03E0F81C00
0E07C0781E00
1E0780781E00
1E0F00781E00
1C0F00701E00
1C0F00701E00
1C0E00701E00
3C1E00F01E00
3C1E00F01E00
3C1E00F01C00
3C1E00F01C00
1C0E00F03C00
1C0F00F07800
1E0F81F0F000
1E07C3FFF000
0E03FFFFE000
0F01FF3F8000
0F807C000000
078000000000
03C000000000
01F000000000
00F800180000
007F00F80000
003FFFF80000
000FFFF80000
0001FFC00000
ENDCHAR
STARTCHAR A
ENCODING 65
SWIDTH 647 0
DWIDTH 29 0
BBX 29 29 0 0
BITMAP
000F0000
000F8000
001F8000
001FC000
001FC000
003FC000
003DE000
007DE000
0079F000
0078F000
00F8F000
00F0F800
01F07800
01E07C00
01E03C00
03E03E00
03C03E00
07C01E00
07FFFF00
07FFFF00
0FFFFF80
0FFFFF80
1F000780
1F0007C0
1E0003C0
3E0003E0
3C0003E0
7C0001F0
7C0001F0
ENDCHAR
STARTCHAR B
ENCODING 66
SWIDTH 580 0
DWIDTH 26 0
BBX 26 29 0 0
BITMAP
0FFF0000
0FFFC000
0FFFE000
0FFFF000
0F03F000
0F01F800
0F00F800
0F00F800
0F00F800
0F00F000
0F00F000
0F03F000
0FFFE000
0FFFE000
0FFFF800
0FFFFC00
0F007E00
0F003E00
0F001F00
0F001F00
0F001F00
0F001F00
0F001F00
0F003E00
0F007E00
0FFFFC00
0FFFF800
0FFFF000
0FFFC000
ENDCHAR
STARTCHAR C
ENCODING 67
SWIDTH 647 0
DWIDTH 29 0
BBX 29 29 0 0
BITMAP
0003FC00
001FFF00
007FFFC0
00FFFFE0
01FC03E0
03F000E0
07E00020
0F800000
0F800000
1F000000
1F000000
1E000000
1E000000
3E000000
3E000000
3E000000
1E000000
1E000000
1F000000
1F000000
0F800000
0FC00000
07E00020
03F000E0
01FC03E0
00FFFFE0
007FFFC0
001FFF00
0003F800
ENDCHAR
STARTCHAR D
ENCODING 68
SWIDTH 692 0
DWIDTH 31 0
BBX 31 29 0 0
BITMAP
0FFF8000
0FFFF000
0FFFFC00
0FFFFF00
0F007F80
0F001FC0
0F0007E0
0F0003E0
0F0001F0
0F0001F0
0F0000F0
0F0000F8
0F0000F8
0F0000F8
0F0000F8
0F0000F8
0F0000F8
0F0000F8
0F0000F0
0F0001F0
0F0001F0
0F0003E0
0F0007E0
0F001FC0
0F007F80
0FFFFF00
0FFFFC00
0FFFF000
0FFF8000
ENDCHAR
STARTCHAR E
ENCODING 69
SWIDTH 558 0
DWIDTH 25 0
BBX 25 29 0 0
BITMAP
0FFFFC00
0FFFFC00
0FFFFC00
0FFFFC00
0F000000
0F000000
0F000000
0F000000
0F000000
0F000000
0F000000
0FFFE000
0FFFE000
0FFFE000
0FFFE000
0F000000
0F000000
0F000000
0F000000
0F000000
0F000000
0F000000
0F000000
0F000000
0F000000
0FFFFE00
0FFFFE00
0FFFFE00
0FFFFE00
ENDCHAR
STARTCHAR F
ENCODING 70
SWIDTH 513 0
DWIDTH 23 0
BBX 23 29 0 0
BITMAP
0FFFFC
0FFFFC
0FFFFC
0FFFFC
0F0000
0F0000
0F0000
0F0000
0F0000
0F0000
0F0000
0FFFC0
0FFFC0
0FFFC0
0FFFC0
0F0000
0F0000
0F0000
0F0000
0F0000
0F0000
0F0000
0F0000
0F0000
0F0000
0F0000
0F0000
0F0000
0F0000
ENDCHAR
STARTCHAR G
ENCODING 71
SWIDTH 714 0
DWIDTH 32 0
BBX 32 29 0 0
BITMAP
0003FE00
001FFFC0
007FFFF0
00FFFFF0
01FC03F0
03F00070
07E00010
0FC00000
0F800000
1F000000
1F000000
1E000000
1E003FF0
3E003FF0
3E003FF0
3E003FF0
1E0000F0
1E0000F0
1F0000F0
1F0000F0
0F8000F0
0FC000F0
07E000F0
03F000F0
01FC03F0
00FFFFF0
007FFFF0
001FFF80
0007FC00
ENDCHAR
STARTCHAR H
ENCODING 72
SWIDTH 692 0
DWIDTH 31 0
BBX 31 29 0 0
BITMAP
0F0001E0
0F0001E0
0F0001E0
0F0001E0
0F0001E0
0F0001E0
0F0001E0
0F0001E0
0F0001E0
0F0001E0
0F0001E0
0FFFFFE0
0FFFFFE0
0FFFFFE0
0FFFFFE0
0F0001E0
0F0001E0
0F0001E0
0F0001E0
0F0001E0
0F0001E0
0F0001E0
0F0001E0
0F0001E0
0F0001E0
0F0001E0
0F0001E0
0F0001E0
0F0001E0
ENDCHAR
STARTCHAR I
ENCODING 73
SWIDTH 290 0
DWIDTH 13 0
BBX 13 29 0 0
BITMAP
0F00
0F00
0F00
0F00
0F00
0F00
0F00
0F00
0F00
0F00
0F00
0F00
0F00
0F00
0F00
0F00
0F00
0F00
0F00
0F00
0F00
0F00
0F00
0F00
0F00
0F00
0F00
0F00
0F00
ENDCHAR
STARTCHAR J
ENCODING 74
SWIDTH 469 0
DWIDTH 21 0
BBX 21 29 0 0
BITMAP
000F80
000F80
000F80
000F80
000F80
000F80
000F80
000F80
000F80
000F80
000F80
000F80
000F80
000F80
000F80
000F80
000F80
000F80
000F80
000F80
000F80
000F80
080F80
380F00
7E1F00
3FFE00
3FFE00
0FFC00
07F000
ENDCHAR
STARTCHAR K
ENCODING 75
SWIDTH 603 0
DWIDTH 27 0
BBX 27 29 0 0
BITMAP
0F000FC0
0F001F00
0F003E00
0F007C00
0F01F800
0F03F000
0F07E000
0F0FC000
0F1F8000
0F3F0000
0F7E0000
0FFC0000
0FF80000
0FF80000
0FFC0000
0F7E0000
0F3F0000
0F1F8000
0F0F8000
0F07C000
0F07E000
0F03F000
0F01F800
0F00FC00
0F007E00
0F003F00
0F001F80
0F000F80
0F0007C0
ENDCHAR
STARTCHAR L
ENCODING 76
SWIDTH 513 0
DWIDTH 23 0
BBX 23 29 0 0
BITMAP
0F0000
0F0000
0F0000
0F0000
0F0000
0F0000
0F0000
0F0000
0F0000
0F0000
0F0000
0F0000
0F0000
0F0000
0F0000
0F0000
0F0000
0F0000
0F0000
0F0000
0F0000
0F0000
0F0000
0F0000
0F0000
0FFFFC
0FFFFC
0FFFFC
0FFFFC
ENDCHAR
STARTCHAR M
ENCODING 77
SWIDTH 826 0
DWIDTH 37 0
BBX 37 29 0 0
BITMAP
0F80000F80
0FC0000F80
0FE0001F80
0FE0003F80
0FF0007F80
0FF800FF80
0FFC01FF80
0F7E01F780
0F3F03E780
0F1F07C780
0F0F8FC780
0F07DF8780
0F07FF0780
0F03FE0780
0F01FC0780
0F00F80780
0F00780780
0F00700780
0F00200780
0F00000780
0F00000780
0F00000780
0F00000780
0F00000780
0F00000780
0F00000780
0F00000780
0F00000780
0F00000780
ENDCHAR
STARTCHAR N
ENCODING 78
SWIDTH 737 0
DWIDTH 33 0
BBX 33 29 0 0
BITMAP
0F00007800
0F80007800
0FC0007800
0FE0007800
0FF0007800
0FF0007800
0FF8007800
0F7C007800
0F7E007800
0F3E007800
0F1F007800
0F0F807800
0F0FC07800
0F07E07800
0F03E07800
0F01F07800
0F00F87800
0F00FC7800
0F007C7800
0F003E7800
0F001F7800
0F000FF800
0F000FF800
0F0007F800
0F0003F800
0F0001F800
0F0001F800
0F0000F800
0F00007800
ENDCHAR
STARTCHAR O
ENCODING 79
SWIDTH 781 0
DWIDTH 35 0
BBX 35 29 0 0
BITMAP
0003FC0000
001FFF0000
007FFFC000
00FFFFF000
01FC07F800
03F001FC00
07C0007C00
0F80003E00
0F80001F00
1F00001F00
1F00000F00
1E00000F80
1E00000F80
3E00000F80
3E00000F80
3E00000F80
1E00000F80
1E00000F80
1F00000F00
1F00001F00
0F80001F00
0F80003E00
07C0007C00
03F001FC00
01FC07F800
00FFFFF000
007FFFC000
001FFF0000
0003FC0000
ENDCHAR
STARTCHAR P
ENCODING 80
SWIDTH 558 0
DWIDTH 25 0
BBX 25 29 0 0
BITMAP
0FFF8000
0FFFF000
0FFFF800
0FFFFC00
0F00FC00
0F007E00
0F003E00
0F001E00
0F001E00
0F001E00
0F001E00
0F003E00
0F007E00
0F00FC00
0FFFFC00
0FFFF800
0FFFE000
0FFF8000
0F000000
0F000000
0F000000
0F000000
0F000000
0F000000
0F000000
0F000000
0F000000
0F000000
0F000000
ENDCHAR
STARTCHAR Q
ENCODING 81
SWIDTH 781 0
DWIDTH 35 0
BBX 35 30 0 -1
BITMAP
0003FC0000
001FFF0000
007FFFC000
00FFFFF000
01FC07F800
03F001FC00
07C0007C00
0F80003E00
0F80001F00
1F00001F00
1F00000F00
1E00000F80
1E00000F80
3E00000F80
3E00000F80
3E00000F80
1E00000F80
1E00000F80
1F00010F00
1F00039F00
0F8007DF00
0F8007FE00
07C003FC00
03F001FC00
01FC07FC00
00FFFFFE00
007FFFFF00
001FFF1F00
0003FC0E00
0000000400
ENDCHAR
STARTCHAR R
ENCODING 82
SWIDTH 580 0
DWIDTH 26 0
BBX 26 29 0 0
BITMAP
0FFF0000
0FFFC000
0FFFE000
0FFFF000
0F01F800
0F00F800
0F007800
0F007C00
0F007C00
0F007800
0F00F800
0F01F800
0FFFF000
0FFFF000
0FFFC000
0FFF0000
0F1F8000
0F0FC000
0F07C000
0F03E000
0F03F000
0F01F000
0F00F800
0F00FC00
0F007E00
0F003E00
0F001F00
0F001F80
0F000FC0
ENDCHAR
STARTCHAR S
ENCODING 83
SWIDTH 491 0
DWIDTH 22 0
BBX 22 29 0 0
BITMAP
01FC00
07FF00
0FFF80
1FFFC0
1F0780
1E0200
1E0000
1E0000
1F0000
1F8000
1FE000
0FF800
07FE00
01FF00
007FC0
001FC0
0007E0
0003F0
0001F0
0001F0
0001F0
0801F0
3801F0
7C03E0
3F07E0
1FFFC0
0FFF80
07FF00
01FC00
ENDCHAR
STARTCHAR T
ENCODING 84
SWIDTH 558 0
DWIDTH 25 0
BBX 25 29 0 0
BITMAP
7FFFFF00
7FFFFF00
7FFFFF00
7FFFFF00
003E0000
003E0000
003E0000
003E0000
003E0000
003E0000
003E0000
003E0000
003E0000
003E0000
003E0000
003E0000
003E0000
003E0000
003E0000
003E0000
003E0000
003E0000
003E0000
003E0000
003E0000
003E0000
003E0000
003E0000
003E0000
ENDCHAR
STARTCHAR U
ENCODING 85
SWIDTH 737 0
DWIDTH 33 0
BBX 33 29 0 0
BITMAP
0F00007C00
0F00007C00
0F00007C00
0F00007C00
0F00007C00
0F00007C00
0F00007C00
0F00007C00
0F00007C00
0F00007C00
0F00007C00
0F00007C00
0F00007C00
0F00007C00
0F00007C00
0F00007C00
0F00007C00
0F00007800
0F00007800
0F80007800
0F8000F800
07C000F000
07E001F000
03F003E000
01FC0FE000
00FFFFC000
007FFF0000
003FFE0000
0007F00000
ENDCHAR
STARTCHAR V
ENCODING 86
SWIDTH 625 0
DWIDTH 28 0
BBX 28 29 0 0
BITMAP
7C0003E0
7C0003C0
3E0007C0
3E000780
1E000780
1F000F80
1F000F00
0F001F00
0F801F00
07801E00
07803E00
07C03E00
03C03C00
03E07C00
03E07800
01E07800
01F0F800
00F0F000
00F0F000
00F9F000
0079E000
007BE000
007FC000
003FC000
003FC000
001F8000
001F8000
001F8000
000F0000
ENDCHAR
STARTCHAR W
ENCODING 87
SWIDTH 938 0
DWIDTH 42 0
BBX 42 29 0 0
BITMAP
3C0000000F00
3E001F000F00
3E003F001F00
1E003F001F00
1E003F001E00
1F003F801E00
1F007F803E00
0F007F803C00
0F807FC03C00
0F80F3C07C00
0780F3C07800
0780F3E07800
07C1E1E07800
03C1E1E0F800
03C1E1F0F000
03E1E0F0F000
03E3C0F1F000
01E3C0F1E000
01E3C079E000
01F78079E000
00F7807BE000
00F7807FC000
00FF003FC000
007F003FC000
007F003F8000
007F001F8000
007E001F8000
003E001F8000
003E000F0000
ENDCHAR
STARTCHAR X
ENCODING 88
SWIDTH 647 0
DWIDTH 29 0
BBX 29 29 0 0
BITMAP
7E0003E0
3E0007C0
1F000F80
0F801F80
07C01F00
07E03E00
03E07C00
01F07C00
00F8F800
00FDF000
007FE000
003FE000
001FC000
000F8000
001FC000
003FC000
003FE000
007DF000
00F9F800
01F8F800
01F07C00
03E03E00
07C01F00
0FC01F80
0F800F80
1F0007C0
3E0003E0
7E0003F0
7C0001F0
ENDCHAR
STARTCHAR Y
ENCODING 89
SWIDTH 580 0
DWIDTH 26 0
BBX 26 29 0 0
BITMAP
7C000F80
3E001F00
3E001F00
1F003E00
0F807C00
0F807C00
07C0F800
03E0F000
03E1F000
01F3E000
00FBC000
00FFC000
007F8000
003F0000
003F0000
001E0000
001E0000
001E0000
001E0000
001E0000
001E0000
001E0000
001E0000
001E0000
001E0000
001E0000
001E0000
001E0000
001E0000
ENDCHAR
STARTCHAR Z
ENCODING 90
SWIDTH 603 0
DWIDTH 27 0
BBX 27 29 0 0
BITMAP
3FFFFFC0
3FFFFF80
3FFFFF00
3FFFFE00
00003E00
00007C00
0000F800
0000F800
0001F000
0003E000
0003E000
0007C000
000F8000
000F8000
001F0000
003E0000
003E0000
007C0000
00F80000
00F80000
01F00000
03E00000
07E00000
07C00000
0F800000
1FFFFFC0
1FFFFFC0
3FFFFFC0
7FFFFFC0
ENDCHAR
STARTCHAR [
ENCODING 91
SWIDTH 335 0
DWIDTH 15 0
BBX 15 39 0 -5
BITMAP
1FF8
1FF8
1FF8
1E00
1E00
1E00
1E00
1E00
1E00
1E00
1E00
1E00
1E00
1E00
1E00
1E00
1E00
1E00
1E00
1E00
1E00
1E00
1E00
1E00
1E00
1E00
1E00
1E00
1E00
1E00
1E00
1E00
1E00
1E00
1E00
1E00
1FF8
1FF8
1FF8
ENDCHAR
STARTCHAR \
ENCODING 92
SWIDTH 313 0
DWIDTH 14 0
BBX 14 35 0 -3
BITMAP
F000
F000
7800
7800
7800
3800
3C00
3C00
3C00
1E00
1E00
1E00
0E00
0F00
0F00
0F00
0780
0780
0780
0380
03C0
03C0
01C0
01E0
01E0
01E0
00E0
00F0
00F0
0070
0078
0078
0078
0038
003C
ENDCHAR
STARTCHAR ]
ENCODING 93
SWIDTH 335 0
DWIDTH 15 0
BBX 15 39 0 -5
BITMAP
3FE0
3FE0
3FE0
01E0
01E0
01E0
01E0
01E0
01E0
01E0
01E0
01E0
01E0
01E0
01E0
01E0
01E0
01E0
01E0
01E0
01E0
01E0
01E0
01E0
01E0
01E0
01E0
01E0
01E0
01E0
01E0
01E0
01E0
01E0
01E0
01E0
3FE0
3FE0
3FE0
ENDCHAR
STARTCHAR ^
ENCODING 94
SWIDTH 558 0
DWIDTH 25 0
BBX 25 29 0 0
BITMAP
003E0000
007E0000
007F0000
00F78000
01E7C000
01E3C000
03C1E000
0781F000
0780F000
0F007800
1E007C00
3E003C00
00000000
00000000
00000000
00000000
00000000
00000000
00000000
00000000
00000000
00000000
00000000
00000000
00000000
00000000
00000000
00000000
00000000
ENDCHAR
STARTCHAR _
ENCODING 95
SWIDTH 491 0
DWIDTH 22 0
BBX 23 5 -1 -5
BITMAP
000000
000000
000000
FFFFFC
FFFFFC
ENDCHAR
STARTCHAR `
ENCODING 96
SWIDTH 447 0
DWIDTH 20 0
BBX 20 29 0 0
BITMAP
FFFFF0
FFFFF0
FFFFF0
FFFFF0
F000F0
F000F0
F000F0
F000F0
F000F0
F000F0
F000F0
F000F0
F000F0
F000F0
F000F0
F000F0
F000F0
F000F0
F000F0
F000F0
F000F0
F000F0
F000F0
F000F0
F000F0
FFFFF0
FFFFF0
FFFFF0
FFFFF0
ENDCHAR
STARTCHAR a
ENCODING 97
SWIDTH 491 0
DWIDTH 22 0
BBX 22 21 0 0
BITMAP
00FC00
07FF00
0FFF80
0FFFC0
0F07C0
0803E0
1001E0
003FE0
01FFE0
07FFE0
0FE1E0
1F01E0
1E01E0
3C01E0
3C01E0
3E03E0
3E0FE0
1FFFE0
1FFFE0
0FFDE0
03F1E0
ENDCHAR
STARTCHAR b
ENCODING 98
SWIDTH 580 0
DWIDTH 26 0
BBX 26 29 0 0
BITMAP
1F000000
1F000000
1F000000
1F000000
1F000000
1F000000
1F000000
1F000000
1F3F8000
1F7FE000
1FFFF000
1FFFF800
1FC1FC00
1F007E00
1F003E00
1F001E00
1F001F00
1F000F00
1F000F00
1F000F00
1F001F00
1F001F00
1F003E00
1F007E00
1FC0FC00
1FFFFC00
1FFFF000
1EFFE000
1E3F8000
ENDCHAR
STARTCHAR c
ENCODING 99
SWIDTH 491 0
DWIDTH 22 0
BBX 22 21 0 0
BITMAP
003F80
01FFF0
03FFF0
07FFF0
0FE0F0
1F8010
1F0000
3E0000
3E0000
3C0000
3C0000
3C0000
3E0000
3E0000
1F0000
1F8010
0FE070
07FFF0
03FFF0
01FFE0
003F80
ENDCHAR
STARTCHAR d
ENCODING 100
SWIDTH 580 0
DWIDTH 26 0
BBX 26 29 0 0
BITMAP
00003C00
00003C00
00003C00
00003C00
00003C00
00003C00
00003C00
00003C00
007F3C00
01FFFC00
03FFFC00
07FFFC00
0FC0FC00
1F807C00
1F003C00
3E003C00
3E003C00
3C003C00
3C003C00
3C003C00
3E003C00
3E003C00
1F003C00
1F807C00
0FE0FC00
07FFFC00
03FFFC00
01FFDC00
007F1C00
ENDCHAR
STARTCHAR e
ENCODING 101
SWIDTH 536 0
DWIDTH 24 0
BBX 24 21 0 0
BITMAP
007F00
01FFC0
03FFE0
07FFF0
0FC1F0
1F00F8
1E0078
3E0078
3FFFFC
3FFFFC
3FFFFC
3FFFFC
3C0000
3E0000
1E0000
1F0008
0FC078
07FFF8
03FFF8
01FFF0
007F80
ENDCHAR
STARTCHAR f
ENCODING 102
SWIDTH 380 0
DWIDTH 17 0
BBX 17 29 0 0
BITMAP
007F00
01FF00
03FF00
07FF00
07C000
0F8000
0F0000
0F0000
7FFF00
7FFF00
7FFF00
7FFF00
0F0000
0F0000
0F0000
0F0000
0F0000
0F0000
0F0000
0F0000
0F0000
0F0000
0F0000
0F0000
0F0000
0F0000
0F0000
0F0000
0F0000
ENDCHAR
STARTCHAR g
ENCODING 103
SWIDTH 491 0
DWIDTH 22 0
BBX 22 29 0 -8
BITMAP
01FFF8
07FFF8
0FFFF8
1FFFF8
1F07C0
3E03C0
3C01E0
3C01E0
3C01E0
3E03E0
1F07C0
1FFFC0
0FFF80
07FF00
0FFC00
0E0000
0F8000
0FF800
07FF00
0FFFE0
3E1FF0
3C01F8
780078
780078
7E00F8
7FFFF8
3FFFF0
1FFFE0
03FF00
ENDCHAR
STARTCHAR h
ENCODING 104
SWIDTH 580 0
DWIDTH 26 0
BBX 26 29 0 0
BITMAP
1F000000
1F000000
1F000000
1F000000
1F000000
1F000000
1F000000
1F000000
1F3F8000
1FFFE000
1FFFF000
1FFFF800
1FC0FC00
1F807C00
1F003C00
1F003E00
1F003E00
1F001E00
1F001E00
1F001E00
1F001E00
1F001E00
1F001E00
1F001E00
1F001E00
1F001E00
1F001E00
1F001E00
1F001E00
ENDCHAR
STARTCHAR i
ENCODING 105
SWIDTH 246 0
DWIDTH 11 0
BBX 11 29 0 0
BITMAP
0400
0E00
1F00
1F00
0E00
0400
0000
1F00
1F00
1F00
1F00
1F00
1F00
1F00
1F00
1F00
1F00
1F00
1F00
1F00
1F00
1F00
1F00
1F00
1F00
1F00
1F00
1F00
0000
ENDCHAR
STARTCHAR j
ENCODING 106
SWIDTH 246 0
DWIDTH 11 0
BBX 12 36 -1 -8
BITMAP
0200
0700
0F80
0F80
0700
0200
0000
0F80
0F80
0F80
0F80
0F80
0F80
0F80
0F80
0F80
0F80
0F80
0F80
0F80
0F80
0F80
0F80
0F80
0F80
0F80
0F80
0F80
0F80
0F80
0F00
0F00
FF00
FE00
FE00
F800
ENDCHAR
STARTCHAR k
ENCODING 107
SWIDTH 513 0
DWIDTH 23 0
BBX 23 29 0 0
BITMAP
1F0000
1F0000
1F0000
1F0000
1F0000
1F0000
1F0000
1F0000
1F00FC
1F01F0
1F07E0
1F0FC0
1F1F80
1F3F00
1F7E00
1FF800
1FF000
1FF000
1FF800
1FFC00
1F7C00
1F3E00
1F1F00
1F0F80
1F07C0
1F03E0
1F01F0
1F00F8
1F00FC
ENDCHAR
STARTCHAR l
ENCODING 108
SWIDTH 313 0
DWIDTH 14 0
BBX 14 29 0 0
BITMAP
1E00
1E00
1E00
1E00
1E00
1E00
1E00
1E00
1E00
1E00
1E00
1E00
1E00
1E00
1E00
1E00
1E00
1E00
1E00
1E00
1E00
1E00
1E00
1F00
1F00
0FF8
0FF8
07F8
01F8
ENDCHAR
STARTCHAR m
ENCODING 109
SWIDTH 893 0
DWIDTH 40 0
BBX 40 21 0 0
BITMAP
1E3F80FE00
1EFFE3FF80
1FFFFFFFE0
1FFFFFFFE0
1FC1FF83F0
1F007E01F0
1F007C00F0
1F003C00F8
1F003C0078
1F003C0078
1F003C0078
1F003C0078
1F003C0078
1F003C0078
1F003C0078
1F003C0078
1F003C0078
1F003C0078
1F003C0078
1F003C0078
1F003C0078
ENDCHAR
STARTCHAR n
ENCODING 110
SWIDTH 580 0
DWIDTH 26 0
BBX 26 21 0 0
BITMAP
1E3F8000
1EFFE000
1FFFF000
1FFFF800
1FC0FC00
1F807C00
1F003C00
1F003E00
1F003E00
1F001E00
1F001E00
1F001E00
1F001E00
1F001E00
1F001E00
1F001E00
1F001E00
1F001E00
1F001E00
1F001E00
1F001E00
ENDCHAR
STARTCHAR o
ENCODING 111
SWIDTH 580 0
DWIDTH 26 0
BBX 26 21 0 0
BITMAP
003F8000
01FFE000
03FFF000
07FFF800
0FC0FC00
1F803E00
1F001E00
3E001F00
3E000F00
3C000F00
3C000F00
3C000F00
3E000F00
3E001F00
1F001E00
1F803E00
0FC0FC00
07FFF800
03FFF000
01FFE000
003F8000
ENDCHAR
STARTCHAR p
ENCODING 112
SWIDTH 580 0
DWIDTH 26 0
BBX 26 29 0 -8
BITMAP
1E3F8000
1EFFE000
1FFFF000
1FFFF800
1FC1FC00
1F007E00
1F003E00
1F001E00
1F001F00
1F000F00
1F000F00
1F000F00
1F001F00
1F001E00
1F003E00
1F007E00
1F81FC00
1FFFF800
1FFFF000
1FFFE000
1F7F0000
1F000000
1F000000
1F000000
1F000000
1F000000
1F000000
1F000000
1F000000
ENDCHAR
STARTCHAR q
ENCODING 113
SWIDTH 580 0
DWIDTH 26 0
BBX 26 29 0 -8
BITMAP
007F1C00
01FFDC00
03FFFC00
07FFFC00
0FE0FC00
1F803C00
1F003C00
3E003C00
3E003C00
3C003C00
3C003C00
3C003C00
3E003C00
3E003C00
1F003C00
1F803C00
0FE07C00
07FFFC00
03FFFC00
01FFFC00
007FBC00
00003C00
00003C00
00003C00
00003C00
00003C00
00003C00
00003C00
00003C00
ENDCHAR
STARTCHAR r
ENCODING 114
SWIDTH 380 0
DWIDTH 17 0
BBX 17 21 0 0
BITMAP
1F3F00
1FFF00
1FFF00
1FFF00
1FC000
1F0000
1F0000
1F0000
1F0000
1F0000
1F0000
1F0000
1F0000
1F0000
1F0000
1F0000
1F0000
1F0000
1F0000
1F0000
1F0000
ENDCHAR
STARTCHAR s
ENCODING 115
SWIDTH 469 0
DWIDTH 21 0
BBX 21 21 0 0
BITMAP
01FC00
07FF00
0FFF80
1FFF80
1F0380
3E0080
3E0000
3E0000
1FC000
1FFC00
0FFF80
03FFC0
003FC0
0003E0
2003E0
3803E0
3E07C0
3FFFC0
3FFF80
0FFF00
03FC00
ENDCHAR
STARTCHAR t
ENCODING 116
SWIDTH 402 0
DWIDTH 18 0
BBX 18 26 0 0
BITMAP
0F0000
0F0000
0F0000
0F0000
0F0000
7FFF80
7FFF80
7FFF80
7FFF80
0F0000
0F0000
0F0000
0F0000
0F0000
0F0000
0F0000
0F0000
0F0000
0F0000
0F0000
0F8000
07C000
07FF80
03FF80
03FF80
00FF80
ENDCHAR
STARTCHAR u
ENCODING 117
SWIDTH 580 0
DWIDTH 26 0
BBX 26 21 0 0
BITMAP
1E003C00
1E003C00
1E003C00
1E003C00
1E003C00
1E003C00
1E003C00
1E003C00
1E003C00
1E003C00
1E003C00
1E003C00
1E003C00
1F003C00
1F003C00
0F807C00
0FC0FC00
07FFFC00
03FFFC00
01FFBC00
007E3C00
ENDCHAR
STARTCHAR v
ENCODING 118
SWIDTH 513 0
DWIDTH 23 0
BBX 23 21 0 0
BITMAP
78003C
7C007C
3C007C
3E0078
1E00F8
1E00F0
1F01F0
0F01E0
0F81E0
0783E0
0783C0
03C7C0
03C780
03E780
01EF00
01FF00
00FF00
00FE00
007E00
007C00
003C00
ENDCHAR
STARTCHAR w
ENCODING 119
SWIDTH 826 0
DWIDTH 37 0
BBX 37 21 0 0
BITMAP
7C00F801F0
3C00F801E0
3C00F801E0
3E01FC03E0
1E01FC03C0
1E01FC03C0
1F03DE07C0
0F03DE0780
0F078F0780
0F878F0F80
07878F0F00
078F078F00
07CF079F00
03CF07DE00
03DE03DE00
03FE03DE00
01FC01FC00
01FC01FC00
01FC01FC00
00F800F800
00F800F800
ENDCHAR
STARTCHAR x
ENCODING 120
SWIDTH 491 0
DWIDTH 22 0
BBX 22 21 0 0
BITMAP
3C01F0
3E01E0
1F03E0
0F87C0
078F80
07CF00
03FF00
01FE00
00FC00
007800
00FC00
01FE00
03FE00
03CF00
07CF80
0F87C0
0F03E0
1E01E0
3E01F0
7C00F8
78007C
ENDCHAR
STARTCHAR y
ENCODING 121
SWIDTH 513 0
DWIDTH 23 0
BBX 23 29 0 -8
BITMAP
78003C
7C003C
3C007C
3E0078
1E00F8
1E00F0
1F00F0
0F01F0
0F81E0
0783E0
0783C0
03C3C0
03C780
01E780
01EF80
01FF00
00FF00
00FE00
007E00
007E00
003C00
003C00
007800
007800
00F000
0FF000
0FE000
0FC000
0F8000
ENDCHAR
STARTCHAR z
ENCODING 122
SWIDTH 447 0
DWIDTH 20 0
BBX 20 21 0 0
BITMAP
3FFFE0
3FFFE0
3FFFC0
3FFF80
000F80
001F00
001E00
003E00
007C00
007800
00F800
01F000
01E000
03E000
07C000
078000
0F8000
1FFFE0
1FFFE0
3FFFE0
7FFFE0
ENDCHAR
STARTCHAR {
ENCODING 123
SWIDTH 357 0
DWIDTH 16 0
BBX 16 39 0 -6
BITMAP
007C
01FC
01FC
03E0
03C0
03C0
03C0
03C0
03C0
03C0
03C0
03C0
03C0
03C0
03C0
0780
0F80
1F00
3F00
3C00
3F00
1F00
0F80
0780
03C0
03C0
03C0
03C0
03C0
03C0
03C0
03C0
03C0
03C0
03C0
03E0
01FC
01FC
007C
ENDCHAR
STARTCHAR |
ENCODING 124
SWIDTH 223 0
DWIDTH 10 0
BBX 10 43 0 -11
BITMAP
1E00
1E00
1E00
1E00
1E00
1E00
1E00
1E00
1E00
1E00
1E00
1E00
1E00
1E00
1E00
1E00
1E00
1E00
1E00
1E00
1E00
1E00
1E00
1E00
1E00
1E00
1E00
1E00
1E00
1E00
1E00
1E00
1E00
1E00
1E00
1E00
1E00
1E00
1E00
1E00
1E00
1E00
1E00
ENDCHAR
STARTCHAR }
ENCODING 125
SWIDTH 357 0
DWIDTH 16 0
BBX 16 39 0 -6
BITMAP
3C00
3F00
3F80
0780
0380
03C0
03C0
03C0
03C0
03C0
03C0
03C0
03C0
03C0
03C0
03C0
03E0
01F8
00F8
0078
00F8
01F0
03E0
03C0
03C0
03C0
03C0
03C0
03C0
03C0
03C0
03C0
03C0
03C0
0380
0780
3F80
3F00
3C00
ENDCHAR
STARTCHAR ~
ENCODING 126
SWIDTH 513 0
DWIDTH 23 0
BBX 23 18 0 0
BITMAP
03C030
07E078
0FF878
1FFC70
1E7FF0
1C1FE0
3C0FE0
0C0780
000000
000000
000000
000000
000000
000000
000000
000000
000000
000000
ENDCHAR
STARTCHAR U+00A0
ENCODING 160
SWIDTH 246 0
DWIDTH 11 0
BBX 11 49 0 -11
BITMAP
0000
0000
0000
0000
0000
0000
0000
0000
0000
0000
0000
0000
0000
0000
0000
0000
0000
0000
0000
0000
0000
0000
0000
0000
0000
0000
0000
0000
0000
0000
0000
0000
0000
0000
0000
0000
0000
0000
0000
0000
0000
0000
0000
0000
0000
0000
0000
0000
0000
ENDCHAR
STARTCHAR U+00A1
ENCODING 161
SWIDTH 268 0
DWIDTH 12 0
BBX 12 30 0 -8
BITMAP
0600
0F00
1F80
0F00
0600
0000
0000
0600
0700
0700
0700
0700
0F00
0F00
0F00
0F00
0F00
0F00
0F00
0F00
0F00
0F00
0F00
0F00
0F00
0F00
0F00
0F00
0F00
0000
ENDCHAR
STARTCHAR U+00A2
ENCODING 162
SWIDTH 491 0
DWIDTH 22 0
BBX 22 27 0 -3
BITMAP
001E00
001E00
001E00
003FC0
01FFF0
03FFF0
07FFF0
0FE0F0
1F8010
1F0000
3E0000
3E0000
3C0000
3C0000
3C0000
3E0000
3E0000
1F0000
1F8010
0FE070
07FFF0
03FFF0
01FFE0
003F80
001E00
001E00
001E00
ENDCHAR
STARTCHAR U+00A3
ENCODING 163
SWIDTH 513 0
DWIDTH 23 0
BBX 23 29 0 0
BITMAP
000FC0
003FF0
007FF8
00FFF0
01F870
01F020
01E000
01E000
03E000
03C000
03C000
03C000
03C000
03C000
1FFF80
1FFF80
1FFF00
1FFF00
07C000
07C000
078000
078000
078000
0F8000
0F0000
0FFFF8
1FFFF8
3FFFF0
3FFFF0
ENDCHAR
STARTCHAR U+00A4
ENCODING 164
SWIDTH 580 0
DWIDTH 26 0
BBX 26 23 0 0
BITMAP
04000800
0E001C00
1F003E00
1F3F3E00
1FFFFE00
0FFFFC00
07FFF800
07E1F800
07807800
0F807C00
0F803C00
0F003C00
0F803C00
0F807C00
07807800
07E1F800
07FFF800
0FFFFC00
1FFFFE00
1F3F3F00
1F003E00
0E001C00
04000800
ENDCHAR
STARTCHAR U+00A5
ENCODING 165
SWIDTH 603 0
DWIDTH 27 0
BBX 27 29 0 0
BITMAP
7C000F80
3E000F80
1F001F00
1F001E00
0F803E00
07C07C00
07C07800
03E0F800
01F1F000
01F1F000
1FFBFF00
1FFFFF00
1FFFFF00
003F8000
001F0000
001F0000
001F0000
1FFFFF00
1FFFFF00
1FFFFF00
001F0000
001F0000
001F0000
001F0000
001F0000
001F0000
001F0000
001F0000
001F0000
ENDCHAR
STARTCHAR U+00A6
ENCODING 166
SWIDTH 223 0
DWIDTH 10 0
BBX 10 43 0 -11
BITMAP
1E00
1E00
1E00
1E00
1E00
1E00
1E00
1E00
1E00
1E00
1E00
1E00
1E00
1E00
1E00
1E00
1E00
0000
0000
0000
0000
0000
0000
0000
0000
0000
1E00
1E00
1E00
1E00
1E00
1E00
1E00
1E00
1E00
1E00
1E00
1E00
1E00
1E00
1E00
1E00
1E00
ENDCHAR
STARTCHAR U+00A7
ENCODING 167
SWIDTH 469 0
DWIDTH 21 0
BBX 21 37 0 -8
BITMAP
01FC00
07FF00
0FFF80
1F0FC0
3E03C0
3C0100
3C0000
3C0000
3E0000
1F0000
1FC000
0FF800
07FE00
1FFF80
3FFFC0
3E0FE0
7C03E0
7801E0
7801E0
7C01E0
7E03E0
3FC7E0
1FFFC0
0FFF80
03FF00
00FF80
001FC0
0007E0
0003E0
0001E0
0801E0
3C03E0
3E03C0
3F0FC0
1FFF80
07FE00
01F800
ENDCHAR
STARTCHAR U+00A8
ENCODING 168
SWIDTH 447 0
DWIDTH 20 0
BBX 20 29 0 0
BITMAP
FFFFF0
FFFFF0
FFFFF0
FFFFF0
F000F0
F000F0
F000F0
F000F0
F000F0
F000F0
F000F0
F000F0
F000F0
F000F0
F000F0
F000F0
F000F0
F000F0
F000F0
F000F0
F000F0
F000F0
F000F0
F000F0
F000F0
FFFFF0
FFFFF0
FFFFF0
FFFFF0
ENDCHAR
STARTCHAR U+00A9
ENCODING 169
SWIDTH 781 0
DWIDTH 35 0
BBX 35 29 0 0
BITMAP
0007F80000
001FFF0000
007C07C000
00E001E000
03C0007000
0300003800
0703F81C00
0E0FFE0C00
0C1FFF0E00
1C3E070600
187C010700
1878000300
18F0000300
38F0000300
38F0000300
38F0000300
18F0000300
1870000300
1878000700
1C7C010600
0C3E070E00
0E1FFF0C00
060FFC1C00
0303F83800
03C0007000
01E001E000
007C07C000
001FFF0000
0007F80000
ENDCHAR
STARTCHAR U+00AA
ENCODING 170
SWIDTH 290 0
DWIDTH 13 0
BBX 13 29 0 0
BITMAP
3F80
3FE0
3FE0
00F0
0070
07F0
1FF0
3C70
7870
7070
78F0
3FF0
1F70
0000
0000
0000
0000
0000
0000
0000
0000
0000
0000
0000
0000
0000
0000
0000
0000
ENDCHAR
STARTCHAR U+00AB
ENCODING 171
SWIDTH 536 0
DWIDTH 24 0
BBX 24 21 0 0
BITMAP
00783C
00F078
01E0F0
03E1F0
03C1E0
0783C0
0F0780
1E0F00
3E1F00
3C1E00
1E0F00
0F0780
0783C0
07C3E0
03C1E0
01E0F0
00F078
00783C
000000
000000
000000
ENDCHAR
STARTCHAR U+00AC
ENCODING 172
SWIDTH 513 0
DWIDTH 23 0
BBX 23 21 0 0
BITMAP
1FFFF0
1FFFF0
1FFFF0
1FFFF0
0000F0
0000F0
0000F0
0000F0
0000F0
0000F0
0000F0
0000F0
0000F0
000000
000000
000000
000000
000000
000000
000000
000000
ENDCHAR
STARTCHAR U+00AD
ENCODING 173
SWIDTH 357 0
DWIDTH 16 0
BBX 16 14 0 0
BITMAP
7FFE
7FFE
7FFE
7FFE
0000
0000
0000
0000
0000
0000
0000
0000
0000
0000
ENDCHAR
STARTCHAR U+00AE
ENCODING 174
SWIDTH 781 0
DWIDTH 35 0
BBX 35 29 0 0
BITMAP
0007F80000
001FFF0000
007C07C000
00E001E000
03C0007000
0300003800
060FF01C00
0E0FFC0C00
0C0FFC0E00
1C0E1E0600
180E0E0700
180E0E0300
180E0E0300
380E1E0300
380FFC0300
380FF80300
180FF00300
180E780300
180E3C0700
1C0E1C0600
0C0E1E0E00
0E0E0F0C00
070E079C00
0300003800
03C0007000
00E001E000
007C07C000
001FFF0000
0007F80000
ENDCHAR
STARTCHAR U+00AF
ENCODING 175
SWIDTH 447 0
DWIDTH 20 0
BBX 20 29 0 0
BITMAP
FFFFF0
FFFFF0
FFFFF0
FFFFF0
F000F0
F000F0
F000F0
F000F0
F000F0
F000F0
F000F0
F000F0
F000F0
F000F0
F000F0
F000F0
F000F0
F000F0
F000F0
F000F0
F000F0
F000F0
F000F0
F000F0
F000F0
FFFFF0
FFFFF0
FFFFF0
FFFFF0
ENDCHAR
STARTCHAR U+00B0
ENCODING 176
SWIDTH 380 0
DWIDTH 17 0
BBX 17 29 0 0
BITMAP
03E000
0FF800
1FFC00
1E3C00
3C1E00
381E00
3C1E00
3C1C00
1E3C00
1FFC00
0FF800
03E000
000000
000000
000000
000000
000000
000000
000000
000000
000000
000000
000000
000000
000000
000000
000000
000000
000000
ENDCHAR
STARTCHAR U+00B1
ENCODING 177
SWIDTH 513 0
DWIDTH 23 0
BBX 23 25 0 -1
BITMAP
003800
003800
003800
003800
003800
003800
1FFFF0
1FFFF0
1FFFF0
1FFFF0
003800
003800
003800
003800
003800
003800
000000
000000
000000
000000
000000
1FFFF0
1FFFF0
1FFFF0
1FFFF0
ENDCHAR
STARTCHAR U+00B2
ENCODING 178
SWIDTH 313 0
DWIDTH 14 0
BBX 14 29 0 0
BITMAP
1F80
3FE0
3FF0
30F0
2070
0070
0070
00F0
00E0
01E0
03C0
03C0
0780
0780
0F00
1FF8
1FF8
3FF8
0000
0000
0000
0000
0000
0000
0000
0000
0000
0000
0000
ENDCHAR
STARTCHAR U+00B3
ENCODING 179
SWIDTH 313 0
DWIDTH 14 0
BBX 14 29 0 0
BITMAP
7FF8
7FF0
7FE0
01E0
01C0
03C0
0380
07E0
0FF0
00F8
0078
0038
0038
2078
78F0
3FF0
3FE0
0F80
0000
0000
0000
0000
0000
0000
0000
0000
0000
0000
0000
ENDCHAR
STARTCHAR U+00B4
ENCODING 180
SWIDTH 447 0
DWIDTH 20 0
BBX 20 29 0 0
BITMAP
FFFFF0
FFFFF0
FFFFF0
FFFFF0
F000F0
F000F0
F000F0
F000F0
F000F0
F000F0
F000F0
F000F0
F000F0
F000F0
F000F0
F000F0
F000F0
F000F0
F000F0
F000F0
F000F0
F000F0
F000F0
F000F0
F000F0
FFFFF0
FFFFF0
FFFFF0
FFFFF0
ENDCHAR
STARTCHAR U+00B5
ENCODING 181
SWIDTH 558 0
DWIDTH 25 0
BBX 25 29 0 -8
BITMAP
1F007C00
1F007C00
1F007C00
1F007C00
1F007C00
1F007C00
1F007C00
1F007C00
1F007C00
1F007C00
1F007C00
1F007C00
1F007C00
1F007C00
1F007C00
1F807C00
1FC1FC00
1FFFFC00
1FFFFC00
1FFFFC00
1F7E7C00
1F000000
1F000000
1F000000
1F000000
1F000000
1F000000
1F000000
1F000000
ENDCHAR
STARTCHAR U+00B6
ENCODING 182
SWIDTH 536 0
DWIDTH 24 0
BBX 24 37 0 -8
BITMAP
00FFFE
07FFFE
0FFFFE
1FFC70
1FFC70
3FFC70
3FFC70
3FFC70
3FFC70
3FFC70
3FFC70
1FFC70
1FFC70
0FFC70
07FC70
01FC70
001C70
001C70
001C70
001C70
001C70
001C70
001C70
001C70
001C70
001C70
001C70
001C70
001C70
001C70
001C70
001C70
001C70
001C70
001C70
001C70
001C70
ENDCHAR
STARTCHAR U+00B7
ENCODING 183
SWIDTH 246 0
DWIDTH 11 0
BBX 11 18 0 0
BITMAP
0400
0E00
1F00
1F00
0E00
0400
0000
0000
0000
0000
0000
0000
0000
0000
0000
0000
0000
0000
ENDCHAR
STARTCHAR U+00B8
ENCODING 184
SWIDTH 447 0
DWIDTH 20 0
BBX 20 29 0 0
BITMAP
FFFFF0
FFFFF0
FFFFF0
FFFFF0
F000F0
F000F0
F000F0
F000F0
F000F0
F000F0
F000F0
F000F0
F000F0
F000F0
F000F0
F000F0
F000F0
F000F0
F000F0
F000F0
F000F0
F000F0
F000F0
F000F0
F000F0
FFFFF0
FFFFF0
FFFFF0
FFFFF0
ENDCHAR
STARTCHAR U+00B9
ENCODING 185
SWIDTH 223 0
DWIDTH 10 0
BBX 10 29 0 0
BITMAP
0200
0600
1E00
1E00
1E00
1E00
1E00
1E00
1E00
1E00
1E00
1E00
1E00
1E00
1E00
1E00
1E00
1E00
0000
0000
0000
0000
0000
0000
0000
0000
0000
0000
0000
ENDCHAR
STARTCHAR U+00BA
ENCODING 186
SWIDTH 380 0
DWIDTH 17 0
BBX 17 29 0 0
BITMAP
03E000
0FF800
1FFC00
3C3C00
381E00
780E00
700E00
780E00
381E00
3C3C00
1FFC00
0FF800
07E000
000000
000000
000000
000000
000000
000000
000000
000000
000000
000000
000000
000000
000000
000000
000000
000000
ENDCHAR
STARTCHAR U+00BB
ENCODING 187
SWIDTH 536 0
DWIDTH 24 0
BBX 24 21 0 0
BITMAP
3E1F00
1E0F00
0F0780
0783C0
07C1E0
03C1F0
01E0F0
00F078
00783C
00783C
00F078
01E0F8
03E0F0
03C1E0
0783C0
0F0780
1E0F00
3E1F00
000000
000000
000000
ENDCHAR
STARTCHAR U+00BC
ENCODING 188
SWIDTH 781 0
DWIDTH 35 0
BBX 35 29 0 0
BITMAP
020003C000
0600038000
1E00078000
1E00070000
1E000F0000
1E001E0000
1E001C0000
1E003C0000
1E00380000
1E00780000
1E00700000
1E00F00000
1E00E00200
1E01E00600
1E01C00E00
1E03C01E00
1E03803E00
1E07807E00
0007007E00
000F00EE00
000E01CE00
001E038E00
001C070E00
003C0FFF80
00381FFF80
00783FFF80
0070000E00
00F0000E00
00E0000E00
ENDCHAR
STARTCHAR U+00BD
ENCODING 189
SWIDTH 804 0
DWIDTH 36 0
BBX 36 29 0 0
BITMAP
020003C000
0600038000
1E00078000
1E00070000
1E000F0000
1E001E0000
1E001C0000
1E003C0000
1E00380000
1E00780000
1E00700000
1E00F07E00
1E00E0FF80
1E01E0FFC0
1E01C0C3C0
1E03C081C0
1E038001C0
1E078001C0
00070003C0
000F000380
000E000780
001E000F00
001C000F00
003C001E00
0038001E00
0078003C00
0070007FE0
00F0007FE0
00E000FFE0
ENDCHAR
STARTCHAR U+00BE
ENCODING 190
SWIDTH 848 0
DWIDTH 38 0
BBX 38 29 0 0
BITMAP
7FF8007800
7FF0007000
7FE000F000
01E000E000
01C001E000
03C003C000
0380038000
07E0078000
0FF0070000
00F80F0000
00780E0000
00381E0000
00381C0040
20783C00C0
78F03801C0
3FF07803C0
3FE07007C0
0F80F00FC0
0000E00FC0
0001E01DC0
0001C039C0
0003C071C0
000380E1C0
000781FFF0
000703FFF0
000F07FFF0
000E0001C0
001E0001C0
001C0001C0
ENDCHAR
STARTCHAR U+00BF
ENCODING 191
SWIDTH 447 0
DWIDTH 20 0
BBX 20 29 0 -8
BITMAP
002000
007000
00FC00
00F800
007000
002000
000000
000000
002000
007800
00FC00
007C00
003C00
003C00
00FC00
01F800
07F000
0FC000
1F8000
1F0000
3E0000
3E0000
3E0000
1E0180
1F03C0
1FFFE0
0FFFC0
07FF80
01FC00
ENDCHAR
STARTCHAR U+00C0
ENCODING 192
SWIDTH 647 0
DWIDTH 29 0
BBX 29 37 0 0
BITMAP
007C0000
003C0000
001E0000
000F0000
00078000
00038000
00000000
00000000
000F0000
000F8000
001F8000
001FC000
001FC000
003FC000
003DE000
007DE000
0079F000
0078F000
00F8F000
00F0F800
01F07800
01E07C00
01E03C00
03E03E00
03C03E00
07C01E00
07FFFF00
07FFFF00
0FFFFF80
0FFFFF80
1F000780
1F0007C0
1E0003C0
3E0003E0
3C0003E0
7C0001F0
7C0001F0
ENDCHAR
STARTCHAR U+00C1
ENCODING 193
SWIDTH 647 0
DWIDTH 29 0
BBX 29 37 0 0
BITMAP
0001F000
0001E000
0003C000
00078000
00070000
000F0000
00000000
00000000
000F0000
000F8000
001F8000
001FC000
001FC000
003FC000
003DE000
007DE000
0079F000
0078F000
00F8F000
00F0F800
01F07800
01E07C00
01E03C00
03E03E00
03C03E00
07C01E00
07FFFF00
07FFFF00
0FFFFF80
0FFFFF80
1F000780
1F0007C0
1E0003C0
3E0003E0
3C0003E0
7C0001F0
7C0001F0
ENDCHAR
STARTCHAR U+00C2
ENCODING 194
SWIDTH 647 0
DWIDTH 29 0
BBX 29 37 0 0
BITMAP
000F8000
001FC000
003DC000
0038E000
0070F000
00E07000
00000000
00000000
000F0000
000F8000
001F8000
001FC000
001FC000
003FC000
003DE000
007DE000
0079F000
0078F000
00F8F000
00F0F800
01F07800
01E07C00
01E03C00
03E03E00
03C03E00
07C01E00
07FFFF00
07FFFF00
0FFFFF80
0FFFFF80
1F000780
1F0007C0
1E0003C0
3E0003E0
3C0003E0
7C0001F0
7C0001F0
ENDCHAR
STARTCHAR U+00C3
ENCODING 195
SWIDTH 647 0
DWIDTH 29 0
BBX 29 37 0 0
BITMAP
00782000
00FC3000
01FFF800
01FFF000
0087F000
0003C000
00000000
00000000
000F0000
000F8000
001F8000
001FC000
001FC000
003FC000
003DE000
007DE000
0079F000
0078F000
00F8F000
00F0F800
01F07800
01E07C00
01E03C00
03E03E00
03C03E00
07C01E00
07FFFF00
07FFFF00
0FFFFF80
0FFFFF80
1F000780
1F0007C0
1E0003C0
3E0003E0
3C0003E0
7C0001F0
7C0001F0
ENDCHAR
STARTCHAR U+00C4
ENCODING 196
SWIDTH 647 0
DWIDTH 29 0
BBX 29 37 0 0
BITMAP
00202000
00707000
00F8F800
00F8F800
00707000
00202000
00000000
00000000
000F0000
000F8000
001F8000
001FC000
001FC000
003FC000
003DE000
007DE000
0079F000
0078F000
00F8F000
00F0F800
01F07800
01E07C00
01E03C00
03E03E00
03C03E00
07C01E00
07FFFF00
07FFFF00
0FFFFF80
0FFFFF80
1F000780
1F0007C0
1E0003C0
3E0003E0
3C0003E0
7C0001F0
7C0001F0
ENDCHAR
STARTCHAR U+00C5
ENCODING 197
SWIDTH 647 0
DWIDTH 29 0
BBX 29 39 0 0
BITMAP
00078000
000FC000
0018C000
00186000
00186000
0018C000
000FC000
00078000
00000000
00000000
000F0000
000F8000
001F8000
001FC000
001FC000
003FC000
003DE000
007DE000
0079F000
0078F000
00F8F000
00F0F800
01F07800
01E07C00
01E03C00
03E03E00
03C03E00
07C01E00
07FFFF00
07FFFF00
0FFFFF80
0FFFFF80
1F000780
1F0007C0
1E0003C0
3E0003E0
3C0003E0
7C0001F0
7C0001F0
ENDCHAR
STARTCHAR U+00C6
ENCODING 198
SWIDTH 893 0
DWIDTH 40 0
BBX 40 29 0 0
BITMAP
00007FFFF8
0000FFFFF8
0000FFFFF8
0001FFFFF8
0001EF0000
0003EF0000
0007CF0000
00078F0000
000F8F0000
000F0F0000
001F0F0000
003E0FFFC0
003E0FFFC0
007C0FFFC0
00780FFFC0
00F80F0000
00FFFF0000
01FFFF0000
03FFFF0000
03FFFF0000
07C00F0000
07C00F0000
0F800F0000
0F000F0000
1F000F0000
3E000FFFFC
3E000FFFFC
7C000FFFFC
7C000FFFFC
ENDCHAR
STARTCHAR U+00C7
ENCODING 199
SWIDTH 647 0
DWIDTH 29 0
BBX 29 38 0 -9
BITMAP
0003FC00
001FFF00
007FFFC0
00FFFFE0
01FC03E0
03F000E0
07E00020
0F800000
0F800000
1F000000
1F000000
1E000000
1E000000
3E000000
3E000000
3E000000
1E000000
1E000000
1F000000
1F000000
0F800000
0FC00000
07E00020
03F000E0
01FC03E0
00FFFFE0
007FFFC0
001FFF00
0003F800
00018000
0003E000
0003F800
00007800
00007800
00007800
000FF000
000FF000
000FC000
ENDCHAR
STARTCHAR U+00C8
ENCODING 200
SWIDTH 558 0
DWIDTH 25 0
BBX 25 37 0 0
BITMAP
00F80000
00780000
003C0000
001E0000
000F0000
00070000
00000000
00000000
0FFFFC00
0FFFFC00
0FFFFC00
0FFFFC00
0F000000
0F000000
0F000000
0F000000
0F000000
0F000000
0F000000
0FFFE000
0FFFE000
0FFFE000
0FFFE000
0F000000
0F000000
0F000000
0F000000
0F000000
0F000000
0F000000
0F000000
0F000000
0F000000
0FFFFE00
0FFFFE00
0FFFFE00
0FFFFE00
ENDCHAR
STARTCHAR U+00C9
ENCODING 201
SWIDTH 558 0
DWIDTH 25 0
BBX 25 37 0 0
BITMAP
0007C000
00078000
000F0000
001E0000
001C0000
003C0000
00000000
00000000
0FFFFC00
0FFFFC00
0FFFFC00
0FFFFC00
0F000000
0F000000
0F000000
0F000000
0F000000
0F000000
0F000000
0FFFE000
0FFFE000
0FFFE000
0FFFE000
0F000000
0F000000
0F000000
0F000000
0F000000
0F000000
0F000000
0F000000
0F000000
0F000000
0FFFFE00
0FFFFE00
0FFFFE00
0FFFFE00
ENDCHAR
STARTCHAR U+00CA
ENCODING 202
SWIDTH 558 0
DWIDTH 25 0
BBX 25 37 0 0
BITMAP
001F0000
003F8000
007B8000
0071C000
00E1E000
01C0E000
00000000
00000000
0FFFFC00
0FFFFC00
0FFFFC00
0FFFFC00
0F000000
0F000000
0F000000
0F000000
0F000000
0F000000
0F000000
0FFFE000
0FFFE000
0FFFE000
0FFFE000
0F000000
0F000000
0F000000
0F000000
0F000000
0F000000
0F000000
0F000000
0F000000
0F000000
0FFFFE00
0FFFFE00
0FFFFE00
0FFFFE00
ENDCHAR
STARTCHAR U+00CB
ENCODING 203
SWIDTH 558 0
DWIDTH 25 0
BBX 25 37 0 0
BITMAP
00808000
01C1C000
03E3E000
03E3E000
01C1C000
00808000
00000000
00000000
0FFFFC00
0FFFFC00
0FFFFC00
0FFFFC00
0F000000
0F000000
0F000000
0F000000
0F000000
0F000000
0F000000
0FFFE000
0FFFE000
0FFFE000
0FFFE000
0F000000
0F000000
0F000000
0F000000
0F000000
0F000000
0F000000
0F000000
0F000000
0F000000
0FFFFE00
0FFFFE00
0FFFFE00
0FFFFE00
ENDCHAR
STARTCHAR U+00CC
ENCODING 204
SWIDTH 290 0
DWIDTH 13 0
BBX 13 37 0 0
BITMAP
7C00
3C00
1E00
0F00
0780
0380
0000
0000
0F00
0F00
0F00
0F00
0F00
0F00
0F00
0F00
0F00
0F00
0F00
0F00
0F00
0F00
0F00
0F00
0F00
0F00
0F00
0F00
0F00
0F00
0F00
0F00
0F00
0F00
0F00
0F00
0F00
ENDCHAR
STARTCHAR U+00CD
ENCODING 205
SWIDTH 290 0
DWIDTH 13 0
BBX 13 37 0 0
BITMAP
03E0
03C0
0780
0F00
0E00
1E00
0000
0000
0F00
0F00
0F00
0F00
0F00
0F00
0F00
0F00
0F00
0F00
0F00
0F00
0F00
0F00
0F00
0F00
0F00
0F00
0F00
0F00
0F00
0F00
0F00
0F00
0F00
0F00
0F00
0F00
0F00
ENDCHAR
STARTCHAR U+00CE
ENCODING 206
SWIDTH 290 0
DWIDTH 13 0
BBX 13 37 0 0
BITMAP
0F80
1FC0
3DC0
38E0
70F0
E070
0000
0000
0F00
0F00
0F00
0F00
0F00
0F00
0F00
0F00
0F00
0F00
0F00
0F00
0F00
0F00
0F00
0F00
0F00
0F00
0F00
0F00
0F00
0F00
0F00
0F00
0F00
0F00
0F00
0F00
0F00
ENDCHAR
STARTCHAR U+00CF
ENCODING 207
SWIDTH 290 0
DWIDTH 13 0
BBX 15 37 -1 0
BITMAP
1010
3838
7C7C
7C7C
3838
1010
0000
0000
0780
0780
0780
0780
0780
0780
0780
0780
0780
0780
0780
0780
0780
0780
0780
0780
0780
0780
0780
0780
0780
0780
0780
0780
0780
0780
0780
0780
0780
ENDCHAR
STARTCHAR U+00D0
ENCODING 208
SWIDTH 692 0
DWIDTH 31 0
BBX 31 29 0 0
BITMAP
0FFF8000
0FFFF000
0FFFFC00
0FFFFF00
0F007F80
0F001FC0
0F0007E0
0F0003E0
0F0001F0
0F0001F0
0F0000F0
0F0000F8
0F0000F8
7FFF00F8
7FFF00F8
7FFF00F8
0F0000F8
0F0000F8
0F0000F0
0F0001F0
0F0001F0
0F0003E0
0F0007E0
0F001FC0
0F007F80
0FFFFF00
0FFFFC00
0FFFF000
0FFF8000
ENDCHAR
STARTCHAR U+00D1
ENCODING 209
SWIDTH 737 0
DWIDTH 33 0
BBX 33 37 0 0
BITMAP
001E080000
003F0C0000
007FFE0000
007FFC0000
0021FC0000
0000F00000
0000000000
0000000000
0F00007800
0F80007800
0FC0007800
0FE0007800
0FF0007800
0FF0007800
0FF8007800
0F7C007800
0F7E007800
0F3E007800
0F1F007800
0F0F807800
0F0FC07800
0F07E07800
0F03E07800
0F01F07800
0F00F87800
0F00FC7800
0F007C7800
0F003E7800
0F001F7800
0F000FF800
0F000FF800
0F0007F800
0F0003F800
0F0001F800
0F0001F800
0F0000F800
0F00007800
ENDCHAR
STARTCHAR U+00D2
ENCODING 210
SWIDTH 781 0
DWIDTH 35 0
BBX 35 37 0 0
BITMAP
000F800000
0007800000
0003C00000
0001E00000
0000F00000
0000700000
0000000000
0000000000
0003FC0000
001FFF0000
007FFFC000
00FFFFF000
01FC07F800
03F001FC00
07C0007C00
0F80003E00
0F80001F00
1F00001F00
1F00000F00
1E00000F80
1E00000F80
3E00000F80
3E00000F80
3E00000F80
1E00000F80
1E00000F80
1F00000F00
1F00001F00
0F80001F00
0F80003E00
07C0007C00
03F001FC00
01FC07F800
00FFFFF000
007FFFC000
001FFF0000
0003FC0000
ENDCHAR
STARTCHAR U+00D3
ENCODING 211
SWIDTH 781 0
DWIDTH 35 0
BBX 35 37 0 0
BITMAP
00003E0000
00003C0000
0000780000
0000F00000
0000E00000
0001E00000
0000000000
0000000000
0003FC0000
001FFF0000
007FFFC000
00FFFFF000
01FC07F800
03F001FC00
07C0007C00
0F80003E00
0F80001F00
1F00001F00
1F00000F00
1E00000F80
1E00000F80
3E00000F80
3E00000F80
3E00000F80
1E00000F80
1E00000F80
1F00000F00
1F00001F00
0F80001F00
0F80003E00
07C0007C00
03F001FC00
01FC07F800
00FFFFF000
007FFFC000
001FFF0000
0003FC0000
ENDCHAR
STARTCHAR U+00D4
ENCODING 212
SWIDTH 781 0
DWIDTH 35 0
BBX 35 37 0 0
BITMAP
0001F00000
0003F80000
0007B80000
00071C0000
000E1E0000
001C0E0000
0000000000
0000000000
0003FC0000
001FFF0000
007FFFC000
00FFFFF000
01FC07F800
03F001FC00
07C0007C00
0F80003E00
0F80001F00
1F00001F00
1F00000F00
1E00000F80
1E00000F80
3E00000F80
3E00000F80
3E00000F80
1E00000F80
1E00000F80
1F00000F00
1F00001F00
0F80001F00
0F80003E00
07C0007C00
03F001FC00
01FC07F800
00FFFFF000
007FFFC000
001FFF0000
0003FC0000
ENDCHAR
STARTCHAR U+00D5
ENCODING 213
SWIDTH 781 0
DWIDTH 35 0
BBX 35 37 0 0
BITMAP
000F040000
001F860000
003FFF0000
003FFE0000
0010FE0000
0000780000
0000000000
0000000000
0003FC0000
001FFF0000
007FFFC000
00FFFFF000
01FC07F800
03F001FC00
07C0007C00
0F80003E00
0F80001F00
1F00001F00
1F00000F00
1E00000F80
1E00000F80
3E00000F80
3E00000F80
3E00000F80
1E00000F80
1E00000F80
1F00000F00
1F00001F00
0F80001F00
0F80003E00
07C0007C00
03F001FC00
01FC07F800
00FFFFF000
007FFFC000
001FFF0000
0003FC0000
ENDCHAR
STARTCHAR U+00D6
ENCODING 214
SWIDTH 781 0
DWIDTH 35 0
BBX 35 37 0 0
BITMAP
0004040000
000E0E0000
001F1F0000
001F1F0000
000E0E0000
0004040000
0000000000
0000000000
0003FC0000
001FFF0000
007FFFC000
00FFFFF000
01FC07F800
03F001FC00
07C0007C00
0F80003E00
0F80001F00
1F00001F00
1F00000F00
1E00000F80
1E00000F80
3E00000F80
3E00000F80
3E00000F80
1E00000F80
1E00000F80
1F00000F00
1F00001F00
0F80001F00
0F80003E00
07C0007C00
03F001FC00
01FC07F800
00FFFFF000
007FFFC000
001FFF0000
0003FC0000
ENDCHAR
STARTCHAR U+00D7
ENCODING 215
SWIDTH 513 0
DWIDTH 23 0
BBX 23 22 0 0
BITMAP
020040
0701C0
0F83E0
0FC7E0
07EFC0
03FF80
01FF00
00FE00
00FE00
01FF00
03FF80
07EFC0
0FC7E0
1F83E0
0F01C0
060080
000000
000000
000000
000000
000000
000000
ENDCHAR
STARTCHAR U+00D8
ENCODING 216
SWIDTH 781 0
DWIDTH 35 0
BBX 35 29 0 0
BITMAP
0003FC0200
001FFF8700
007FFFCF00
00FFFFFE00
01FC07FC00
03F001FC00
07E000FC00
0F8001FE00
0F8003DF00
1F00079F00
1F000F0F00
1E001E0F80
1E003C0F80
3E00780F80
3E00F00F80
3E01E00F80
1E03C00F80
1E07800F80
1F0F000F00
1F3E001F00
0FF8001F00
0FF0003E00
07E0007C00
03F001FC00
03FC07F800
07FFFFF000
0F7FFFC000
0E1FFF0000
0403FC0000
ENDCHAR
STARTCHAR U+00D9
ENCODING 217
SWIDTH 737 0
DWIDTH 33 0
BBX 33 37 0 0
BITMAP
001F000000
000F000000
0007800000
0003C00000
0001E00000
0000E00000
0000000000
0000000000
0F00007C00
0F00007C00
0F00007C00
0F00007C00
0F00007C00
0F00007C00
0F00007C00
0F00007C00
0F00007C00
0F00007C00
0F00007C00
0F00007C00
0F00007C00
0F00007C00
0F00007C00
0F00007C00
0F00007C00
0F00007800
0F00007800
0F80007800
0F8000F800
07C000F000
07E001F000
03F003E000
01FC0FE000
00FFFFC000
007FFF0000
003FFE0000
0007F00000
ENDCHAR
STARTCHAR U+00DA
ENCODING 218
SWIDTH 737 0
DWIDTH 33 0
BBX 33 37 0 0
BITMAP
00007C0000
0000780000
0000F00000
0001E00000
0001C00000
0003C00000
0000000000
0000000000
0F00007C00
0F00007C00
0F00007C00
0F00007C00
0F00007C00
0F00007C00
0F00007C00
0F00007C00
0F00007C00
0F00007C00
0F00007C00
0F00007C00
0F00007C00
0F00007C00
0F00007C00
0F00007C00
0F00007C00
0F00007800
0F00007800
0F80007800
0F8000F800
07C000F000
07E001F000
03F003E000
01FC0FE000
00FFFFC000
007FFF0000
003FFE0000
0007F00000
ENDCHAR
STARTCHAR U+00DB
ENCODING 219
SWIDTH 737 0
DWIDTH 33 0
BBX 33 37 0 0
BITMAP
0003E00000
0007F00000
000F700000
000E380000
001C3C0000
00381C0000
0000000000
0000000000
0F00007C00
0F00007C00
0F00007C00
0F00007C00
0F00007C00
0F00007C00
0F00007C00
0F00007C00
0F00007C00
0F00007C00
0F00007C00
0F00007C00
0F00007C00
0F00007C00
0F00007C00
0F00007C00
0F00007C00
0F00007800
0F00007800
0F80007800
0F8000F800
07C000F000
07E001F000
03F003E000
01FC0FE000
00FFFFC000
007FFF0000
003FFE0000
0007F00000
ENDCHAR
STARTCHAR U+00DC
ENCODING 220
SWIDTH 737 0
DWIDTH 33 0
BBX 33 37 0 0
BITMAP
0008080000
001C1C0000
003E3E0000
003E3E0000
001C1C0000
0008080000
0000000000
0000000000
0F00007C00
0F00007C00
0F00007C00
0F00007C00
0F00007C00
0F00007C00
0F00007C00
0F00007C00
0F00007C00
0F00007C00
0F00007C00
0F00007C00
0F00007C00
0F00007C00
0F00007C00
0F00007C00
0F00007C00
0F00007800
0F00007800
0F80007800
0F8000F800
07C000F000
07E001F000
03F003E000
01FC0FE000
00FFFFC000
007FFF0000
003FFE0000
0007F00000
ENDCHAR
STARTCHAR U+00DD
ENCODING 221
SWIDTH 580 0
DWIDTH 26 0
BBX 26 37 0 0
BITMAP
0007C000
00078000
000F0000
001E0000
001C0000
003C0000
00000000
00000000
7C000F80
3E001F00
3E001F00
1F003E00
0F807C00
0F807C00
07C0F800
03E0F000
03E1F000
01F3E000
00FBC000
00FFC000
007F8000
003F0000
003F0000
001E0000
001E0000
001E0000
001E0000
001E0000
001E0000
001E0000
001E0000
001E0000
001E0000
001E0000
001E0000
001E0000
001E0000
ENDCHAR
STARTCHAR U+00DE
ENCODING 222
SWIDTH 558 0
DWIDTH 25 0
BBX 25 29 0 0
BITMAP
0F000000
0F000000
0F000000
0F000000
0F000000
0F000000
0FFF8000
0FFFF000
0FFFF800
0FFFFC00
0F00FC00
0F003E00
0F003E00
0F001E00
0F001E00
0F001E00
0F003E00
0F003E00
0F00FC00
0FFFFC00
0FFFF800
0FFFE000
0FFF8000
0F000000
0F000000
0F000000
0F000000
0F000000
0F000000
ENDCHAR
STARTCHAR U+00DF
ENCODING 223
SWIDTH 536 0
DWIDTH 24 0
BBX 24 29 0 0
BITMAP
007F00
01FFC0
03FFE0
07FFE0
07C1F0
0F80F0
0F00F0
0F0070
1F00F0
1F00F0
1F03E0
1F1FE0
1F1F80
1F1FC0
1F1FF0
1F01F8
1F00F8
1F007C
1F003C
1F003C
1F003C
1F003C
1F007C
1F007C
1F01F8
1F3FF8
1F3FF0
1F3FC0
1F3F00
ENDCHAR
STARTCHAR U+00E0
ENCODING 224
SWIDTH 491 0
DWIDTH 22 0
BBX 22 30 0 0
BITMAP
07C000
03C000
01E000
00F000
007800
003800
000000
000000
000000
00FC00
07FF00
0FFF80
0FFFC0
0F07C0
0803E0
1001E0
003FE0
01FFE0
07FFE0
0FE1E0
1F01E0
1E01E0
3C01E0
3C01E0
3E03E0
3E0FE0
1FFFE0
1FFFE0
0FFDE0
03F1E0
ENDCHAR
STARTCHAR U+00E1
ENCODING 225
SWIDTH 491 0
DWIDTH 22 0
BBX 22 30 0 0
BITMAP
001F00
001E00
003C00
007800
007000
00F000
000000
000000
000000
00FC00
07FF00
0FFF80
0FFFC0
0F07C0
0803E0
1001E0
003FE0
01FFE0
07FFE0
0FE1E0
1F01E0
1E01E0
3C01E0
3C01E0
3E03E0
3E0FE0
1FFFE0
1FFFE0
0FFDE0
03F1E0
ENDCHAR
STARTCHAR U+00E2
ENCODING 226
SWIDTH 491 0
DWIDTH 22 0
BBX 22 30 0 0
BITMAP
00F800
01FC00
03DC00
038E00
070F00
0E0700
000000
000000
000000
00FC00
07FF00
0FFF80
0FFFC0
0F07C0
0803E0
1001E0
003FE0
01FFE0
07FFE0
0FE1E0
1F01E0
1E01E0
3C01E0
3C01E0
3E03E0
3E0FE0
1FFFE0
1FFFE0
0FFDE0
03F1E0
ENDCHAR
STARTCHAR U+00E3
ENCODING 227
SWIDTH 491 0
DWIDTH 22 0
BBX 22 30 0 0
BITMAP
03C100
07E180
0FFFC0
0FFF80
043F80
001E00
000000
000000
000000
00FC00
07FF00
0FFF80
0FFFC0
0F07C0
0803E0
1001E0
003FE0
01FFE0
07FFE0
0FE1E0
1F01E0
1E01E0
3C01E0
3C01E0
3E03E0
3E0FE0
1FFFE0
1FFFE0
0FFDE0
03F1E0
ENDCHAR
STARTCHAR U+00E4
ENCODING 228
SWIDTH 491 0
DWIDTH 22 0
BBX 22 30 0 0
BITMAP
020200
070700
0F8F80
0F8F80
070700
020200
000000
000000
000000
00FC00
07FF00
0FFF80
0FFFC0
0F07C0
0803E0
1001E0
003FE0
01FFE0
07FFE0
0FE1E0
1F01E0
1E01E0
3C01E0
3C01E0
3E03E0
3E0FE0
1FFFE0
1FFFE0
0FFDE0
03F1E0
ENDCHAR
STARTCHAR U+00E5
ENCODING 229
SWIDTH 491 0
DWIDTH 22 0
BBX 22 32 0 0
BITMAP
007800
00FC00
018C00
018600
018600
018C00
00FC00
007800
000000
000000
000000
00FC00
07FF00
0FFF80
0FFFC0
0F07C0
0803E0
1001E0
003FE0
01FFE0
07FFE0
0FE1E0
1F01E0
1E01E0
3C01E0
3C01E0
3E03E0
3E0FE0
1FFFE0
1FFFE0
0FFDE0
03F1E0
ENDCHAR
STARTCHAR U+00E6
ENCODING 230
SWIDTH 804 0
DWIDTH 36 0
BBX 36 21 0 0
BITMAP
00FC07F000
07FF1FFC00
0FFFBFFE00
0FFFFFFF00
0E07FC1F00
0803F00F80
1003E00780
0001E00780
001FFFFFC0
01FFFFFFC0
07FFFFFFC0
0FC1E00000
1F01E00000
3E01F00000
3C01F00000
3E00F80080
3E07FE0780
1FFFFFFF80
1FFFBFFF80
0FFF1FFF00
03F803F800
ENDCHAR
STARTCHAR U+00E7
ENCODING 231
SWIDTH 491 0
DWIDTH 22 0
BBX 22 30 0 -9
BITMAP
003F80
01FFF0
03FFF0
07FFF0
0FE0F0
1F8010
1F0000
3E0000
3E0000
3C0000
3C0000
3C0000
3E0000
3E0000
1F0000
1F8010
0FE070
07FFF0
03FFF0
01FFE0
003F80
000C00
001F00
001F80
0003C0
0003C0
0003C0
007F80
007F00
007E00
ENDCHAR
STARTCHAR U+00E8
ENCODING 232
SWIDTH 536 0
DWIDTH 24 0
BBX 24 30 0 0
BITMAP
03E000
01E000
00F000
007800
003C00
001C00
000000
000000
000000
007F00
01FFC0
03FFE0
07FFF0
0FC1F0
1F00F8
1E0078
3E0078
3FFFFC
3FFFFC
3FFFFC
3FFFFC
3C0000
3E0000
1E0000
1F0008
0FC078
07FFF8
03FFF8
01FFF0
007F80
ENDCHAR
STARTCHAR U+00E9
ENCODING 233
SWIDTH 536 0
DWIDTH 24 0
BBX 24 30 0 0
BITMAP
000F80
000F00
001E00
003C00
003800
007800
000000
000000
000000
007F00
01FFC0
03FFE0
07FFF0
0FC1F0
1F00F8
1E0078
3E0078
3FFFFC
3FFFFC
3FFFFC
3FFFFC
3C0000
3E0000
1E0000
1F0008
0FC078
07FFF8
03FFF8
01FFF0
007F80
ENDCHAR
STARTCHAR U+00EA
ENCODING 234
SWIDTH 536 0
DWIDTH 24 0
BBX 24 30 0 0
BITMAP
007C00
00FE00
01EE00
01C700
038780
070380
000000
000000
000000
007F00
01FFC0
03FFE0
07FFF0
0FC1F0
1F00F8
1E0078
3E0078
3FFFFC
3FFFFC
3FFFFC
3FFFFC
3C0000
3E0000
1E0000
1F0008
0FC078
07FFF8
03FFF8
01FFF0
007F80
ENDCHAR
STARTCHAR U+00EB
ENCODING 235
SWIDTH 536 0
DWIDTH 24 0
BBX 24 30 0 0
BITMAP
010100
038380
07C7C0
07C7C0
038380
010100
000000
000000
000000
007F00
01FFC0
03FFE0
07FFF0
0FC1F0
1F00F8
1E0078
3E0078
3FFFFC
3FFFFC
3FFFFC
3FFFFC
3C0000
3E0000
1E0000
1F0008
0FC078
07FFF8
03FFF8
01FFF0
007F80
ENDCHAR
STARTCHAR U+00EC
ENCODING 236
SWIDTH 246 0
DWIDTH 11 0
BBX 12 30 -1 0
BITMAP
F800
7800
3C00
1E00
0F00
0700
0000
0000
0000
1F00
1F00
1F00
1F00
1F00
1F00
1F00
1F00
1F00
1F00
1F00
1F00
1F00
1F00
1F00
1F00
1F00
1F00
1F00
1F00
1F00
ENDCHAR
STARTCHAR U+00ED
ENCODING 237
SWIDTH 246 0
DWIDTH 11 0
BBX 12 30 0 0
BITMAP
03E0
03C0
0780
0F00
0E00
1E00
0000
0000
0000
1F00
1F00
1F00
1F00
1F00
1F00
1F00
1F00
1F00
1F00
1F00
1F00
1F00
1F00
1F00
1F00
1F00
1F00
1F00
1F00
1F00
ENDCHAR
STARTCHAR U+00EE
ENCODING 238
SWIDTH 246 0
DWIDTH 11 0
BBX 13 30 -1 0
BITMAP
0F80
1FC0
3DC0
38E0
70F0
E070
0000
0000
0000
0F80
0F80
0F80
0F80
0F80
0F80
0F80
0F80
0F80
0F80
0F80
0F80
0F80
0F80
0F80
0F80
0F80
0F80
0F80
0F80
0F80
ENDCHAR
STARTCHAR U+00EF
ENCODING 239
SWIDTH 246 0
DWIDTH 11 0
BBX 15 30 -2 0
BITMAP
1010
3838
7C7C
7C7C
3838
1010
0000
0000
0000
07C0
07C0
07C0
07C0
07C0
07C0
07C0
07C0
07C0
07C0
07C0
07C0
07C0
07C0
07C0
07C0
07C0
07C0
07C0
07C0
07C0
ENDCHAR
STARTCHAR U+00F0
ENCODING 240
SWIDTH 536 0
DWIDTH 24 0
BBX 24 29 0 0
BITMAP
00C080
01F3E0
03FFC0
00FF00
00FF00
03FF80
07CFC0
0787C0
0203E0
007DF0
01FFF0
07FFF8
0FFFF8
0F83F8
1F00FC
1E007C
3E003C
3C003C
3C003C
3C003C
3C007C
3E0078
1E00F8
1F00F8
1F83F0
0FFFE0
07FFC0
03FF80
00FE00
ENDCHAR
STARTCHAR U+00F1
ENCODING 241
SWIDTH 580 0
DWIDTH 26 0
BBX 26 30 0 0
BITMAP
00F04000
01F86000
03FFF000
03FFE000
010FE000
00078000
00000000
00000000
00000000
1E3F8000
1EFFE000
1FFFF000
1FFFF800
1FC0FC00
1F807C00
1F003C00
1F003E00
1F003E00
1F001E00
1F001E00
1F001E00
1F001E00
1F001E00
1F001E00
1F001E00
1F001E00
1F001E00
1F001E00
1F001E00
1F001E00
ENDCHAR
STARTCHAR U+00F2
ENCODING 242
SWIDTH 580 0
DWIDTH 26 0
BBX 26 30 0 0
BITMAP
00F80000
00780000
003C0000
001E0000
000F0000
00070000
00000000
00000000
00000000
003F8000
01FFE000
03FFF000
07FFF800
0FC0FC00
1F803E00
1F001E00
3E001F00
3E000F00
3C000F00
3C000F00
3C000F00
3E000F00
3E001F00
1F001E00
1F803E00
0FC0FC00
07FFF800
03FFF000
01FFE000
003F8000
ENDCHAR
STARTCHAR U+00F3
ENCODING 243
SWIDTH 580 0
DWIDTH 26 0
BBX 26 30 0 0
BITMAP
0007C000
00078000
000F0000
001E0000
001C0000
003C0000
00000000
00000000
00000000
003F8000
01FFE000
03FFF000
07FFF800
0FC0FC00
1F803E00
1F001E00
3E001F00
3E000F00
3C000F00
3C000F00
3C000F00
3E000F00
3E001F00
1F001E00
1F803E00
0FC0FC00
07FFF800
03FFF000
01FFE000
003F8000
ENDCHAR
STARTCHAR U+00F4
ENCODING 244
SWIDTH 580 0
DWIDTH 26 0
BBX 26 30 0 0
BITMAP
001F0000
003F8000
007B8000
0071C000
00E1E000
01C0E000
00000000
00000000
00000000
003F8000
01FFE000
03FFF000
07FFF800
0FC0FC00
1F803E00
1F001E00
3E001F00
3E000F00
3C000F00
3C000F00
3C000F00
3E000F00
3E001F00
1F001E00
1F803E00
0FC0FC00
07FFF800
03FFF000
01FFE000
003F8000
ENDCHAR
STARTCHAR U+00F5
ENCODING 245
SWIDTH 580 0
DWIDTH 26 0
BBX 26 30 0 0
BITMAP
00F04000
01F86000
03FFF000
03FFE000
010FE000
00078000
00000000
00000000
00000000
003F8000
01FFE000
03FFF000
07FFF800
0FC0FC00
1F803E00
1F001E00
3E001F00
3E000F00
3C000F00
3C000F00
3C000F00
3E000F00
3E001F00
1F001E00
1F803E00
0FC0FC00
07FFF800
03FFF000
01FFE000
003F8000
ENDCHAR
STARTCHAR U+00F6
ENCODING 246
SWIDTH 580 0
DWIDTH 26 0
BBX 26 30 0 0
BITMAP
00404000
00E0E000
01F1F000
01F1F000
00E0E000
00404000
00000000
00000000
00000000
003F8000
01FFE000
03FFF000
07FFF800
0FC0FC00
1F803E00
1F001E00
3E001F00
3E000F00
3C000F00
3C000F00
3C000F00
3E000F00
3E001F00
1F001E00
1F803E00
0FC0FC00
07FFF800
03FFF000
01FFE000
003F8000
ENDCHAR
STARTCHAR U+00F7
ENCODING 247
SWIDTH 513 0
DWIDTH 23 0
BBX 23 26 0 0
BITMAP
001000
003800
007C00
007C00
003800
001000
000000
000000
000000
000000
1FFFF0
1FFFF0
1FFFF0
1FFFF0
000000
000000
001000
003800
007C00
007C00
003800
001000
000000
000000
000000
000000
ENDCHAR
STARTCHAR U+00F8
ENCODING 248
SWIDTH 580 0
DWIDTH 26 0
BBX 26 23 0 -1
BITMAP
00000400
003F8E00
01FFFC00
03FFF800
07FFF800
0FC0FC00
1F80FE00
1F01DE00
3E039F00
3E078F00
3C0F0F00
3C1E0F00
3C1C0F00
3E380F00
3E701F00
1FE01E00
1FC03E00
0FC0FC00
07FFF800
07FFF000
0FFFE000
1E7F8000
04000000
ENDCHAR
STARTCHAR U+00F9
ENCODING 249
SWIDTH 580 0
DWIDTH 26 0
BBX 26 30 0 0
BITMAP
00F80000
00780000
003C0000
001E0000
000F0000
00070000
00000000
00000000
00000000
1E003C00
1E003C00
1E003C00
1E003C00
1E003C00
1E003C00
1E003C00
1E003C00
1E003C00
1E003C00
1E003C00
1E003C00
1E003C00
1F003C00
1F003C00
0F807C00
0FC0FC00
07FFFC00
03FFFC00
01FFBC00
007E3C00
ENDCHAR
STARTCHAR U+00FA
ENCODING 250
SWIDTH 580 0
DWIDTH 26 0
BBX 26 30 0 0
BITMAP
0007C000
00078000
000F0000
001E0000
001C0000
003C0000
00000000
00000000
00000000
1E003C00
1E003C00
1E003C00
1E003C00
1E003C00
1E003C00
1E003C00
1E003C00
1E003C00
1E003C00
1E003C00
1E003C00
1E003C00
1F003C00
1F003C00
0F807C00
0FC0FC00
07FFFC00
03FFFC00
01FFBC00
007E3C00
ENDCHAR
STARTCHAR U+00FB
ENCODING 251
SWIDTH 580 0
DWIDTH 26 0
BBX 26 30 0 0
BITMAP
001F0000
003F8000
007B8000
0071C000
00E1E000
01C0E000
00000000
00000000
00000000
1E003C00
1E003C00
1E003C00
1E003C00
1E003C00
1E003C00
1E003C00
1E003C00
1E003C00
1E003C00
1E003C00
1E003C00
1E003C00
1F003C00
1F003C00
0F807C00
0FC0FC00
07FFFC00
03FFFC00
01FFBC00
007E3C00
ENDCHAR
STARTCHAR U+00FC
ENCODING 252
SWIDTH 580 0
DWIDTH 26 0
BBX 26 30 0 0
BITMAP
00808000
01C1C000
03E3E000
03E3E000
01C1C000
00808000
00000000
00000000
00000000
1E003C00
1E003C00
1E003C00
1E003C00
1E003C00
1E003C00
1E003C00
1E003C00
1E003C00
1E003C00
1E003C00
1E003C00
1E003C00
1F003C00
1F003C00
0F807C00
0FC0FC00
07FFFC00
03FFFC00
01FFBC00
007E3C00
ENDCHAR
STARTCHAR U+00FD
ENCODING 253
SWIDTH 513 0
DWIDTH 23 0
BBX 23 38 0 -8
BITMAP
000F80
000F00
001E00
003C00
003800
007800
000000
000000
000000
78003C
7C003C
3C007C
3E0078
1E00F8
1E00F0
1F00F0
0F01F0
0F81E0
0783E0
0783C0
03C3C0
03C780
01E780
01EF80
01FF00
00FF00
00FE00
007E00
007E00
003C00
003C00
007800
007800
00F000
0FF000
0FE000
0FC000
0F8000
ENDCHAR
STARTCHAR U+00FE
ENCODING 254
SWIDTH 580 0
DWIDTH 26 0
BBX 26 37 0 -8
BITMAP
1F000000
1F000000
1F000000
1F000000
1F000000
1F000000
1F000000
1F000000
1F3F8000
1FFFE000
1FFFF000
1FFFF800
1FC1FC00
1F007E00
1F003E00
1F001E00
1F001F00
1F000F00
1F000F00
1F000F00
1F001F00
1F001E00
1F003E00
1F007E00
1F81FC00
1FFFF800
1FFFF000
1FFFE000
1F7F0000
1F000000
1F000000
1F000000
1F000000
1F000000
1F000000
1F000000
1F000000
ENDCHAR
STARTCHAR U+00FF
ENCODING 255
SWIDTH 513 0
DWIDTH 23 0
BBX 23 38 0 -8
BITMAP
010100
038380
07C7C0
07C7C0
038380
010100
000000
000000
000000
78003C
7C003C
3C007C
3E0078
1E00F8
1E00F0
1F00F0
0F01F0
0F81E0
0783E0
0783C0
03C3C0
03C780
01E780
01EF80
01FF00
00FF00
00FE00
007E00
007E00
003C00
003C00
007800
007800
00F000
0FF000
0FE000
0FC000
0F8000
ENDCHAR
STARTCHAR U+2013
ENCODING 8211
SWIDTH 491 0
DWIDTH 22 0
BBX 23 14 -1 0
BITMAP
FFFFFC
FFFFFC
FFFFFC
FFFFFC
000000
000000
000000
000000
000000
000000
000000
000000
000000
000000
ENDCHAR
STARTCHAR U+2014
ENCODING 8212
SWIDTH 960 0
DWIDTH 43 0
BBX 45 14 -1 0
BITMAP
FFFFFFFFFFE0
FFFFFFFFFFE0
FFFFFFFFFFE0
FFFFFFFFFFE0
000000000000
000000000000
000000000000
000000000000
000000000000
000000000000
000000000000
000000000000
000000000000
000000000000
ENDCHAR
STARTCHAR U+2018
ENCODING 8216
SWIDTH 246 0
DWIDTH 11 0
BBX 11 29 0 0
BITMAP
0200
0600
0C00
0C00
1E00
1E00
1F00
1F00
0E00
0400
0000
0000
0000
0000
0000
0000
0000
0000
0000
0000
0000
0000
0000
0000
0000
0000
0000
0000
0000
ENDCHAR
STARTCHAR U+2019
ENCODING 8217
SWIDTH 246 0
DWIDTH 11 0
BBX 11 29 0 0
BITMAP
0400
0E00
1E00
1F00
0F00
0F00
0E00
0C00
0800
1000
0000
0000
0000
0000
0000
0000
0000
0000
0000
0000
0000
0000
0000
0000
0000
0000
0000
0000
0000
ENDCHAR
STARTCHAR U+201C
ENCODING 8220
SWIDTH 380 0
DWIDTH 17 0
BBX 17 29 0 0
BITMAP
020400
060C00
0C1800
0C3800
1E3800
1E3C00
1F3E00
1F3E00
0E1C00
040800
000000
000000
000000
000000
000000
000000
000000
000000
000000
000000
000000
000000
000000
000000
000000
000000
000000
000000
000000
ENDCHAR
STARTCHAR U+201D
ENCODING 8221
SWIDTH 380 0
DWIDTH 17 0
BBX 17 29 0 0
BITMAP
040800
0E1C00
1E3C00
1F3E00
0F1E00
0F1E00
0E1C00
0C1800
081000
102000
000000
000000
000000
000000
000000
000000
000000
000000
000000
000000
000000
000000
000000
000000
000000
000000
000000
000000
000000
ENDCHAR
STARTCHAR U+2022
ENCODING 8226
SWIDTH 402 0
DWIDTH 18 0
BBX 18 19 0 0
BITMAP
004000
00E000
01F000
03F800
07FC00
0FFE00
07FC00
03F800
01F000
00E000
004000
000000
000000
000000
000000
000000
000000
000000
000000
ENDCHAR
STARTCHAR U+2026
ENCODING 8230
SWIDTH 871 0
DWIDTH 39 0
BBX 39 6 0 0
BITMAP
0400100020
0E00380070
1F007C00F8
1F007C00F8
0E00380070
0400100020
ENDCHAR
STARTCHAR U+20AC
ENCODING 8364
SWIDTH 603 0
DWIDTH 27 0
BBX 27 29 0 0
BITMAP
0007F800
003FFE00
007FFF80
01FFFF80
01FC0780
03F00180
07C00000
07800000
0F800000
7FFFF000
7FFFF000
7FFFF000
1F000000
1F000000
1F000000
1F000000
7FFFE000
7FFFC000
7FFFC000
0F800000
0F800000
07C00000
07E00000
03F00180
01FC0780
00FFFF80
007FFF80
001FFE00
0007F800
ENDCHAR
ENDFONT
