STARTFONT 2.1
COMMENT Converted from Johnston100 W03 Regular.ttf at 17px with ttf2bdf.py (Pillow, 1-bit, no AA)
FONT -Misc-Johnston100-Medium-R-Normal--17-170-75-75-P-190-ISO10646-1
SIZE 17 75 75
FONTBOUNDINGBOX 19 21 -1 -5
STARTPROPERTIES 9
FOUNDRY "Misc"
FAMILY_NAME "Johnston100"
WEIGHT_NAME "Medium"
SLANT "R"
PIXEL_SIZE 17
RESOLUTION_X 75
RESOLUTION_Y 75
FONT_ASCENT 16
FONT_DESCENT 5
ENDPROPERTIES
CHARS 200
STARTCHAR space
ENCODING 32
SWIDTH 226 0
DWIDTH 4 0
BBX 4 21 0 -5
BITMAP
00
00
00
00
00
00
00
00
00
00
00
00
00
00
00
00
00
00
00
00
00
ENDCHAR
STARTCHAR !
ENCODING 33
SWIDTH 282 0
DWIDTH 5 0
BBX 5 11 0 0
BITMAP
20
20
20
20
20
20
20
20
20
20
20
ENDCHAR
STARTCHAR "
ENCODING 34
SWIDTH 395 0
DWIDTH 7 0
BBX 7 11 0 0
BITMAP
6C
6C
6C
44
00
00
00
00
00
00
00
ENDCHAR
STARTCHAR U+0023
ENCODING 35
SWIDTH 734 0
DWIDTH 13 0
BBX 13 11 0 0
BITMAP
0660
0440
0440
3FF0
0880
0880
0880
7FE0
1100
1100
3300
ENDCHAR
STARTCHAR $
ENCODING 36
SWIDTH 508 0
DWIDTH 9 0
BBX 9 15 0 -2
BITMAP
1800
3C00
7E00
6000
6000
3000
1C00
0600
0300
4300
6300
7E00
3C00
1800
0000
ENDCHAR
STARTCHAR %
ENCODING 37
SWIDTH 734 0
DWIDTH 13 0
BBX 13 11 0 0
BITMAP
38C0
4C80
4D80
3900
0300
0200
06E0
0530
0910
0930
10E0
ENDCHAR
STARTCHAR &
ENCODING 38
SWIDTH 678 0
DWIDTH 12 0
BBX 12 11 0 0
BITMAP
1E00
3F00
3300
3300
1E00
1C40
66C0
6380
6180
7FC0
3C60
ENDCHAR
STARTCHAR '
ENCODING 39
SWIDTH 226 0
DWIDTH 4 0
BBX 4 11 0 0
BITMAP
60
60
60
40
00
00
00
00
00
00
00
ENDCHAR
STARTCHAR (
ENCODING 40
SWIDTH 226 0
DWIDTH 4 0
BBX 4 14 0 -1
BITMAP
30
20
20
60
60
60
60
60
60
60
60
20
20
30
ENDCHAR
STARTCHAR )
ENCODING 41
SWIDTH 226 0
DWIDTH 4 0
BBX 4 14 0 -1
BITMAP
40
60
60
20
20
20
20
20
20
20
20
60
60
40
ENDCHAR
STARTCHAR *
ENCODING 42
SWIDTH 395 0
DWIDTH 7 0
BBX 7 11 0 0
BITMAP
10
54
38
38
54
10
00
00
00
00
00
ENDCHAR
STARTCHAR +
ENCODING 43
SWIDTH 508 0
DWIDTH 9 0
BBX 9 9 0 0
BITMAP
0800
0800
0800
7F00
0800
0800
0800
0000
0000
ENDCHAR
STARTCHAR ,
ENCODING 44
SWIDTH 226 0
DWIDTH 4 0
BBX 4 5 0 -2
BITMAP
60
60
20
40
00
ENDCHAR
STARTCHAR -
ENCODING 45
SWIDTH 395 0
DWIDTH 7 0
BBX 7 5 0 0
BITMAP
7C
7C
00
00
00
ENDCHAR
STARTCHAR .
ENCODING 46
SWIDTH 226 0
DWIDTH 4 0
BBX 4 2 0 0
BITMAP
60
20
ENDCHAR
STARTCHAR /
ENCODING 47
SWIDTH 282 0
DWIDTH 5 0
BBX 6 14 0 -1
BITMAP
08
08
18
10
10
30
30
20
20
60
40
40
C0
C0
ENDCHAR
STARTCHAR 0
ENCODING 48
SWIDTH 565 0
DWIDTH 10 0
BBX 10 11 0 0
BITMAP
1C00
3E00
6300
6300
6100
4100
6100
6300
6300
3E00
1C00
ENDCHAR
STARTCHAR 1
ENCODING 49
SWIDTH 282 0
DWIDTH 5 0
BBX 5 11 0 0
BITMAP
20
20
20
20
20
20
20
20
20
20
20
ENDCHAR
STARTCHAR 2
ENCODING 50
SWIDTH 452 0
DWIDTH 8 0
BBX 8 11 0 0
BITMAP
1C
3E
63
43
02
06
0C
08
10
3F
7F
ENDCHAR
STARTCHAR 3
ENCODING 51
SWIDTH 508 0
DWIDTH 9 0
BBX 9 11 0 0
BITMAP
7F00
7E00
0400
0C00
1E00
0300
0300
0300
4300
7E00
3C00
ENDCHAR
STARTCHAR 4
ENCODING 52
SWIDTH 565 0
DWIDTH 10 0
BBX 10 11 0 0
BITMAP
0000
0200
0600
0E00
1A00
3200
6200
FF80
0200
0200
0200
ENDCHAR
STARTCHAR 5
ENCODING 53
SWIDTH 508 0
DWIDTH 9 0
BBX 9 11 0 0
BITMAP
3F00
3F00
3000
3000
3C00
0300
0300
0300
4300
7E00
3C00
ENDCHAR
STARTCHAR 6
ENCODING 54
SWIDTH 508 0
DWIDTH 9 0
BBX 9 11 0 0
BITMAP
0C00
1800
3800
3000
6E00
7F00
6300
4100
6300
7F00
1C00
ENDCHAR
STARTCHAR 7
ENCODING 55
SWIDTH 452 0
DWIDTH 8 0
BBX 9 11 0 0
BITMAP
7F00
7F00
0200
0600
0400
0C00
0C00
1800
1800
3000
3000
ENDCHAR
STARTCHAR 8
ENCODING 56
SWIDTH 508 0
DWIDTH 9 0
BBX 9 11 0 0
BITMAP
1C00
3E00
6300
2300
1600
3C00
6300
6100
6300
7F00
3E00
ENDCHAR
STARTCHAR 9
ENCODING 57
SWIDTH 508 0
DWIDTH 9 0
BBX 9 11 0 0
BITMAP
1E00
3F00
6300
6100
6100
7F00
3F00
0200
0600
0C00
1800
ENDCHAR
STARTCHAR :
ENCODING 58
SWIDTH 282 0
DWIDTH 5 0
BBX 5 8 0 0
BITMAP
60
20
00
00
00
00
60
20
ENDCHAR
STARTCHAR ;
ENCODING 59
SWIDTH 282 0
DWIDTH 5 0
BBX 5 10 0 -2
BITMAP
60
20
00
00
00
00
30
30
10
20
ENDCHAR
STARTCHAR U+003C
ENCODING 60
SWIDTH 508 0
DWIDTH 9 0
BBX 9 11 0 0
BITMAP
0300
0F00
3C00
6000
3800
0E00
0700
0100
0000
0000
0000
ENDCHAR
STARTCHAR =
ENCODING 61
SWIDTH 508 0
DWIDTH 9 0
BBX 9 8 0 0
BITMAP
7F00
0000
0000
0000
7F00
0000
0000
0000
ENDCHAR
STARTCHAR U+003E
ENCODING 62
SWIDTH 508 0
DWIDTH 9 0
BBX 9 11 0 0
BITMAP
6000
7800
1E00
0300
0E00
3C00
7000
4000
0000
0000
0000
ENDCHAR
STARTCHAR ?
ENCODING 63
SWIDTH 452 0
DWIDTH 8 0
BBX 8 11 0 0
BITMAP
38
7C
46
06
0C
18
30
30
10
10
10
ENDCHAR
STARTCHAR @
ENCODING 64
SWIDTH 904 0
DWIDTH 16 0
BBX 16 14 0 -3
BITMAP
03F0
0C18
1004
31F2
2622
6422
4422
4C22
4426
667C
2380
3000
1820
07E0
ENDCHAR
STARTCHAR A
ENCODING 65
SWIDTH 621 0
DWIDTH 11 0
BBX 12 11 0 0
BITMAP
0600
0E00
0E00
1B00
1900
1180
3180
3FC0
7FC0
60C0
4060
ENDCHAR
STARTCHAR B
ENCODING 66
SWIDTH 565 0
DWIDTH 10 0
BBX 10 11 0 0
BITMAP
3E00
3F00
2300
2300
3E00
3F80
2180
2080
2180
3F80
3F00
ENDCHAR
STARTCHAR C
ENCODING 67
SWIDTH 678 0
DWIDTH 12 0
BBX 12 11 0 0
BITMAP
0F80
1FE0
3860
6000
6000
6000
6000
6000
3860
1FE0
0780
ENDCHAR
STARTCHAR D
ENCODING 68
SWIDTH 678 0
DWIDTH 12 0
BBX 12 11 0 0
BITMAP
3F00
3FC0
20E0
2060
2060
2020
2060
2060
20E0
3FC0
3F00
ENDCHAR
STARTCHAR E
ENCODING 69
SWIDTH 565 0
DWIDTH 10 0
BBX 10 11 0 0
BITMAP
3F80
3F80
2000
2000
3F00
3F00
2000
2000
2000
3F80
3F80
ENDCHAR
STARTCHAR F
ENCODING 70
SWIDTH 508 0
DWIDTH 9 0
BBX 9 11 0 0
BITMAP
3F80
3F80
2000
2000
3E00
3E00
2000
2000
2000
2000
2000
ENDCHAR
STARTCHAR G
ENCODING 71
SWIDTH 734 0
DWIDTH 13 0
BBX 13 11 0 0
BITMAP
0FC0
1FE0
3820
6000
61E0
61E0
6060
6060
3860
1FE0
0FC0
ENDCHAR
STARTCHAR H
ENCODING 72
SWIDTH 678 0
DWIDTH 12 0
BBX 12 11 0 0
BITMAP
2060
2060
2060
2060
3FE0
3FE0
2060
2060
2060
2060
2060
ENDCHAR
STARTCHAR I
ENCODING 73
SWIDTH 282 0
DWIDTH 5 0
BBX 5 11 0 0
BITMAP
20
20
20
20
20
20
20
20
20
20
20
ENDCHAR
STARTCHAR J
ENCODING 74
SWIDTH 452 0
DWIDTH 8 0
BBX 8 11 0 0
BITMAP
06
06
06
06
06
06
06
06
46
7C
38
ENDCHAR
STARTCHAR K
ENCODING 75
SWIDTH 621 0
DWIDTH 11 0
BBX 11 11 0 0
BITMAP
20C0
2380
2600
2C00
3800
3800
2C00
2600
2300
2180
20C0
ENDCHAR
STARTCHAR L
ENCODING 76
SWIDTH 508 0
DWIDTH 9 0
BBX 9 11 0 0
BITMAP
2000
2000
2000
2000
2000
2000
2000
2000
2000
3F80
3F80
ENDCHAR
STARTCHAR M
ENCODING 77
SWIDTH 847 0
DWIDTH 15 0
BBX 15 11 0 0
BITMAP
3018
3838
3C78
2CD8
27D8
2398
2118
2018
2018
2018
2018
ENDCHAR
STARTCHAR N
ENCODING 78
SWIDTH 734 0
DWIDTH 13 0
BBX 13 11 0 0
BITMAP
3030
3030
3830
2C30
2630
2330
23B0
21B0
20F0
2070
2030
ENDCHAR
STARTCHAR O
ENCODING 79
SWIDTH 791 0
DWIDTH 14 0
BBX 14 11 0 0
BITMAP
0FC0
1FE0
3870
6018
6018
6018
6018
6018
3870
1FE0
0FC0
ENDCHAR
STARTCHAR P
ENCODING 80
SWIDTH 565 0
DWIDTH 10 0
BBX 10 11 0 0
BITMAP
3F00
3F80
2180
2180
2180
3F80
3E00
2000
2000
2000
2000
ENDCHAR
STARTCHAR Q
ENCODING 81
SWIDTH 791 0
DWIDTH 14 0
BBX 14 11 0 0
BITMAP
0FC0
1FE0
3870
6018
6018
6018
6018
60F8
3870
1FF0
0FD0
ENDCHAR
STARTCHAR R
ENCODING 82
SWIDTH 565 0
DWIDTH 10 0
BBX 11 11 0 0
BITMAP
3E00
3F00
2300
2180
2300
3F00
3E00
2600
2300
2180
20C0
ENDCHAR
STARTCHAR S
ENCODING 83
SWIDTH 508 0
DWIDTH 9 0
BBX 9 11 0 0
BITMAP
3C00
7E00
6400
6000
3800
1E00
0700
0300
4300
7E00
3C00
ENDCHAR
STARTCHAR T
ENCODING 84
SWIDTH 565 0
DWIDTH 10 0
BBX 10 11 0 0
BITMAP
FF80
FF80
0C00
0C00
0C00
0C00
0C00
0C00
0C00
0C00
0C00
ENDCHAR
STARTCHAR U
ENCODING 85
SWIDTH 734 0
DWIDTH 13 0
BBX 13 11 0 0
BITMAP
6030
6030
6030
6030
6030
6030
6030
3060
38E0
1FC0
0F80
ENDCHAR
STARTCHAR V
ENCODING 86
SWIDTH 621 0
DWIDTH 11 0
BBX 11 11 0 0
BITMAP
4040
60C0
60C0
3180
3180
1100
1B00
1B00
0A00
0E00
0600
ENDCHAR
STARTCHAR W
ENCODING 87
SWIDTH 960 0
DWIDTH 17 0
BBX 17 11 0 0
BITMAP
618300
61C300
61C200
234600
336600
326400
122C00
1E3C00
1E3800
0C1800
0C1800
ENDCHAR
STARTCHAR X
ENCODING 88
SWIDTH 678 0
DWIDTH 12 0
BBX 12 11 0 0
BITMAP
60C0
30C0
3180
1B00
0E00
0E00
0B00
1980
3180
60C0
6060
ENDCHAR
STARTCHAR Y
ENCODING 89
SWIDTH 565 0
DWIDTH 10 0
BBX 10 11 0 0
BITMAP
60C0
6180
3300
1B00
1E00
0C00
0C00
0C00
0C00
0C00
0C00
ENDCHAR
STARTCHAR Z
ENCODING 90
SWIDTH 621 0
DWIDTH 11 0
BBX 11 11 0 0
BITMAP
7FC0
7F80
0100
0300
0600
0400
0800
1800
3000
3FC0
7FC0
ENDCHAR
STARTCHAR [
ENCODING 91
SWIDTH 339 0
DWIDTH 6 0
BBX 6 15 0 -2
BITMAP
78
60
60
60
60
60
60
60
60
60
60
60
60
60
78
ENDCHAR
STARTCHAR \
ENCODING 92
SWIDTH 282 0
DWIDTH 5 0
BBX 6 14 0 -1
BITMAP
C0
C0
40
60
60
20
20
30
30
10
10
18
08
08
ENDCHAR
STARTCHAR ]
ENCODING 93
SWIDTH 339 0
DWIDTH 6 0
BBX 6 15 0 -2
BITMAP
70
10
10
10
10
10
10
10
10
10
10
10
10
10
70
ENDCHAR
STARTCHAR ^
ENCODING 94
SWIDTH 565 0
DWIDTH 10 0
BBX 10 11 0 0
BITMAP
0C00
1E00
3200
2300
6180
0000
0000
0000
0000
0000
0000
ENDCHAR
STARTCHAR _
ENCODING 95
SWIDTH 508 0
DWIDTH 9 0
BBX 10 2 -1 -2
BITMAP
0000
FF80
ENDCHAR
STARTCHAR `
ENCODING 96
SWIDTH 452 0
DWIDTH 8 0
BBX 8 11 0 0
BITMAP
FF
C3
C3
C3
C3
C3
C3
C3
C3
C3
FF
ENDCHAR
STARTCHAR a
ENCODING 97
SWIDTH 508 0
DWIDTH 9 0
BBX 9 8 0 0
BITMAP
1C00
3E00
4200
1F00
6300
6700
7F00
3B00
ENDCHAR
STARTCHAR b
ENCODING 98
SWIDTH 565 0
DWIDTH 10 0
BBX 10 11 0 0
BITMAP
6000
6000
6000
6E00
7F80
7180
6080
6080
7180
7F80
6E00
ENDCHAR
STARTCHAR c
ENCODING 99
SWIDTH 508 0
DWIDTH 9 0
BBX 9 8 0 0
BITMAP
1E00
3F00
6100
6000
6000
6100
3F00
1E00
ENDCHAR
STARTCHAR d
ENCODING 100
SWIDTH 565 0
DWIDTH 10 0
BBX 10 11 0 0
BITMAP
0180
0180
0180
1F80
3F80
6180
6180
6180
6180
3F80
1F80
ENDCHAR
STARTCHAR e
ENCODING 101
SWIDTH 508 0
DWIDTH 9 0
BBX 9 8 0 0
BITMAP
1E00
3F00
6100
7F80
7F80
6100
3F00
1E00
ENDCHAR
STARTCHAR f
ENCODING 102
SWIDTH 395 0
DWIDTH 7 0
BBX 7 11 0 0
BITMAP
1C
3C
20
FC
FC
20
20
20
20
20
20
ENDCHAR
STARTCHAR g
ENCODING 103
SWIDTH 508 0
DWIDTH 9 0
BBX 9 11 0 -3
BITMAP
3F00
7F00
6200
6200
7E00
3C00
7000
3E00
C100
FF00
7E00
ENDCHAR
STARTCHAR h
ENCODING 104
SWIDTH 565 0
DWIDTH 10 0
BBX 10 11 0 0
BITMAP
6000
6000
6000
6E00
7F00
7180
6180
6180
6180
6180
6180
ENDCHAR
STARTCHAR i
ENCODING 105
SWIDTH 226 0
DWIDTH 4 0
BBX 4 12 0 0
BITMAP
20
60
00
60
60
60
60
60
60
60
60
00
ENDCHAR
STARTCHAR j
ENCODING 106
SWIDTH 226 0
DWIDTH 4 0
BBX 5 15 -1 -3
BITMAP
60
20
00
00
60
60
60
60
60
60
60
60
60
E0
C0
ENDCHAR
STARTCHAR k
ENCODING 107
SWIDTH 508 0
DWIDTH 9 0
BBX 9 11 0 0
BITMAP
6000
6000
6000
6300
6600
6C00
7800
7800
6C00
6600
6300
ENDCHAR
STARTCHAR l
ENCODING 108
SWIDTH 282 0
DWIDTH 5 0
BBX 6 11 0 0
BITMAP
60
60
60
60
60
60
60
60
60
78
38
ENDCHAR
STARTCHAR m
ENCODING 109
SWIDTH 904 0
DWIDTH 16 0
BBX 16 8 0 0
BITMAP
6E78
7FFC
718C
6186
6186
6186
6186
6186
ENDCHAR
STARTCHAR n
ENCODING 110
SWIDTH 565 0
DWIDTH 10 0
BBX 10 8 0 0
BITMAP
6E00
7F00
7180
6180
6180
6180
6180
6180
ENDCHAR
STARTCHAR o
ENCODING 111
SWIDTH 565 0
DWIDTH 10 0
BBX 10 8 0 0
BITMAP
1E00
3F80
6180
60C0
60C0
6180
3F80
1E00
ENDCHAR
STARTCHAR p
ENCODING 112
SWIDTH 565 0
DWIDTH 10 0
BBX 10 11 0 -3
BITMAP
6E00
7F80
7180
6080
6080
7180
7F80
6E00
6000
6000
6000
ENDCHAR
STARTCHAR q
ENCODING 113
SWIDTH 565 0
DWIDTH 10 0
BBX 10 11 0 -3
BITMAP
1F80
3F80
6180
6180
6180
6180
3F80
1F80
0180
0180
0180
ENDCHAR
STARTCHAR r
ENCODING 114
SWIDTH 395 0
DWIDTH 7 0
BBX 7 8 0 0
BITMAP
6E
7E
70
60
60
60
60
60
ENDCHAR
STARTCHAR s
ENCODING 115
SWIDTH 452 0
DWIDTH 8 0
BBX 8 8 0 0
BITMAP
3C
7E
62
60
3E
46
7E
3C
ENDCHAR
STARTCHAR t
ENCODING 116
SWIDTH 395 0
DWIDTH 7 0
BBX 7 10 0 0
BITMAP
20
20
FE
FE
20
20
20
20
3E
1E
ENDCHAR
STARTCHAR u
ENCODING 117
SWIDTH 565 0
DWIDTH 10 0
BBX 10 8 0 0
BITMAP
6180
6180
6180
6180
6180
6380
3F80
1D80
ENDCHAR
STARTCHAR v
ENCODING 118
SWIDTH 508 0
DWIDTH 9 0
BBX 9 8 0 0
BITMAP
C180
6100
6300
3200
3600
1400
1C00
0C00
ENDCHAR
STARTCHAR w
ENCODING 119
SWIDTH 847 0
DWIDTH 15 0
BBX 15 8 0 0
BITMAP
430C
638C
6388
2698
34D8
3C50
1C70
1870
ENDCHAR
STARTCHAR x
ENCODING 120
SWIDTH 508 0
DWIDTH 9 0
BBX 9 8 0 0
BITMAP
6300
3600
3C00
1800
1C00
3600
6200
C300
ENDCHAR
STARTCHAR y
ENCODING 121
SWIDTH 508 0
DWIDTH 9 0
BBX 9 11 0 -3
BITMAP
C180
6100
6300
3200
3600
1E00
1C00
0C00
1800
3800
3000
ENDCHAR
STARTCHAR z
ENCODING 122
SWIDTH 452 0
DWIDTH 8 0
BBX 8 8 0 0
BITMAP
7E
7E
0C
08
10
30
7E
7E
ENDCHAR
STARTCHAR {
ENCODING 123
SWIDTH 339 0
DWIDTH 6 0
BBX 6 15 0 -2
BITMAP
18
30
30
30
30
30
20
40
20
30
30
30
30
30
18
ENDCHAR
STARTCHAR |
ENCODING 124
SWIDTH 226 0
DWIDTH 4 0
BBX 4 17 0 -4
BITMAP
60
60
60
60
60
60
60
60
60
60
60
60
60
60
60
60
60
ENDCHAR
STARTCHAR }
ENCODING 125
SWIDTH 339 0
DWIDTH 6 0
BBX 6 15 0 -2
BITMAP
60
30
30
30
30
30
10
08
10
30
30
30
30
30
60
ENDCHAR
STARTCHAR ~
ENCODING 126
SWIDTH 508 0
DWIDTH 9 0
BBX 9 7 0 0
BITMAP
3100
7900
4F00
4600
0000
0000
0000
ENDCHAR
STARTCHAR U+00A0
ENCODING 160
SWIDTH 226 0
DWIDTH 4 0
BBX 4 21 0 -5
BITMAP
00
00
00
00
00
00
00
00
00
00
00
00
00
00
00
00
00
00
00
00
00
ENDCHAR
STARTCHAR U+00A1
ENCODING 161
SWIDTH 282 0
DWIDTH 5 0
BBX 5 12 0 -3
BITMAP
20
20
20
20
20
20
20
20
20
20
20
00
ENDCHAR
STARTCHAR U+00A2
ENCODING 162
SWIDTH 508 0
DWIDTH 9 0
BBX 9 9 0 -1
BITMAP
1E00
3F00
6100
6000
6000
6100
3F00
1E00
0C00
ENDCHAR
STARTCHAR U+00A3
ENCODING 163
SWIDTH 508 0
DWIDTH 9 0
BBX 9 11 0 0
BITMAP
0E00
1F00
1900
3000
3000
7E00
7C00
3000
2000
3F00
7F00
ENDCHAR
STARTCHAR U+00A4
ENCODING 164
SWIDTH 565 0
DWIDTH 10 0
BBX 10 9 0 0
BITMAP
2080
7F80
3F00
3180
2180
3180
3F00
7F80
2080
ENDCHAR
STARTCHAR U+00A5
ENCODING 165
SWIDTH 621 0
DWIDTH 11 0
BBX 11 11 0 0
BITMAP
60C0
6180
3180
1B00
7F80
0E00
7F80
0C00
0C00
0C00
0C00
ENDCHAR
STARTCHAR U+00A6
ENCODING 166
SWIDTH 226 0
DWIDTH 4 0
BBX 4 17 0 -4
BITMAP
60
60
60
60
60
60
60
00
00
00
60
60
60
60
60
60
60
ENDCHAR
STARTCHAR U+00A7
ENCODING 167
SWIDTH 452 0
DWIDTH 8 0
BBX 8 14 0 -3
BITMAP
3C
66
40
60
3C
7E
C3
C3
7E
1E
06
02
46
3C
ENDCHAR
STARTCHAR U+00A8
ENCODING 168
SWIDTH 452 0
DWIDTH 8 0
BBX 8 11 0 0
BITMAP
FF
C3
C3
C3
C3
C3
C3
C3
C3
C3
FF
ENDCHAR
STARTCHAR U+00A9
ENCODING 169
SWIDTH 791 0
DWIDTH 14 0
BBX 14 11 0 0
BITMAP
0F80
1860
2790
4890
5808
5808
4808
4790
2010
1860
0F80
ENDCHAR
STARTCHAR U+00AA
ENCODING 170
SWIDTH 282 0
DWIDTH 5 0
BBX 5 11 0 0
BITMAP
70
18
78
D8
78
00
00
00
00
00
00
ENDCHAR
STARTCHAR U+00AB
ENCODING 171
SWIDTH 565 0
DWIDTH 10 0
BBX 10 8 0 0
BITMAP
1980
3300
2200
4400
2200
3300
1980
0000
ENDCHAR
STARTCHAR U+00AC
ENCODING 172
SWIDTH 508 0
DWIDTH 9 0
BBX 9 8 0 0
BITMAP
7F00
0100
0100
0100
0000
0000
0000
0000
ENDCHAR
STARTCHAR U+00AD
ENCODING 173
SWIDTH 395 0
DWIDTH 7 0
BBX 7 5 0 0
BITMAP
7C
7C
00
00
00
ENDCHAR
STARTCHAR U+00AE
ENCODING 174
SWIDTH 791 0
DWIDTH 14 0
BBX 14 11 0 0
BITMAP
0F80
1060
2710
4490
4488
4708
4508
4590
24D0
1860
0F80
ENDCHAR
STARTCHAR U+00AF
ENCODING 175
SWIDTH 452 0
DWIDTH 8 0
BBX 8 11 0 0
BITMAP
FF
C3
C3
C3
C3
C3
C3
C3
C3
C3
FF
ENDCHAR
STARTCHAR U+00B0
ENCODING 176
SWIDTH 395 0
DWIDTH 7 0
BBX 7 11 0 0
BITMAP
38
4C
4C
38
00
00
00
00
00
00
00
ENDCHAR
STARTCHAR U+00B1
ENCODING 177
SWIDTH 508 0
DWIDTH 9 0
BBX 9 10 0 0
BITMAP
0800
0800
0800
7F00
0800
0800
0800
0000
0000
7F00
ENDCHAR
STARTCHAR U+00B2
ENCODING 178
SWIDTH 339 0
DWIDTH 6 0
BBX 6 11 0 0
BITMAP
70
58
18
10
30
20
78
00
00
00
00
ENDCHAR
STARTCHAR U+00B3
ENCODING 179
SWIDTH 339 0
DWIDTH 6 0
BBX 6 11 0 0
BITMAP
78
10
30
08
08
48
70
00
00
00
00
ENDCHAR
STARTCHAR U+00B4
ENCODING 180
SWIDTH 452 0
DWIDTH 8 0
BBX 8 11 0 0
BITMAP
FF
C3
C3
C3
C3
C3
C3
C3
C3
C3
FF
ENDCHAR
STARTCHAR U+00B5
ENCODING 181
SWIDTH 565 0
DWIDTH 10 0
BBX 10 11 0 -3
BITMAP
6180
6180
6180
6180
6180
7380
7F80
7D80
6000
6000
6000
ENDCHAR
STARTCHAR U+00B6
ENCODING 182
SWIDTH 508 0
DWIDTH 9 0
BBX 9 14 0 -3
BITMAP
3F80
7D00
7D00
7D00
7D00
3D00
0D00
0D00
0D00
0D00
0D00
0D00
0D00
0D00
ENDCHAR
STARTCHAR U+00B7
ENCODING 183
SWIDTH 226 0
DWIDTH 4 0
BBX 4 7 0 0
BITMAP
20
60
20
00
00
00
00
ENDCHAR
STARTCHAR U+00B8
ENCODING 184
SWIDTH 452 0
DWIDTH 8 0
BBX 8 11 0 0
BITMAP
FF
C3
C3
C3
C3
C3
C3
C3
C3
C3
FF
ENDCHAR
STARTCHAR U+00B9
ENCODING 185
SWIDTH 226 0
DWIDTH 4 0
BBX 4 11 0 0
BITMAP
20
60
60
60
60
60
60
00
00
00
00
ENDCHAR
STARTCHAR U+00BA
ENCODING 186
SWIDTH 395 0
DWIDTH 7 0
BBX 7 11 0 0
BITMAP
38
4C
44
4C
38
00
00
00
00
00
00
ENDCHAR
STARTCHAR U+00BB
ENCODING 187
SWIDTH 565 0
DWIDTH 10 0
BBX 10 8 0 0
BITMAP
6400
3200
1300
0980
1300
3200
6400
0000
ENDCHAR
STARTCHAR U+00BC
ENCODING 188
SWIDTH 791 0
DWIDTH 14 0
BBX 14 11 0 0
BITMAP
2080
6180
6100
6300
6208
6618
6438
0C38
0858
18F8
1018
ENDCHAR
STARTCHAR U+00BD
ENCODING 189
SWIDTH 791 0
DWIDTH 14 0
BBX 14 11 0 0
BITMAP
0000
0000
0000
0000
0000
0000
0000
0000
0000
0000
0000
ENDCHAR
STARTCHAR U+00BE
ENCODING 190
SWIDTH 847 0
DWIDTH 15 0
BBX 15 11 0 0
BITMAP
7820
1060
3040
08C0
0884
498C
711C
031C
022C
067C
040C
ENDCHAR
STARTCHAR U+00BF
ENCODING 191
SWIDTH 452 0
DWIDTH 8 0
BBX 8 11 0 -3
BITMAP
08
18
00
08
0C
18
30
60
60
7E
3C
ENDCHAR
STARTCHAR U+00C0
ENCODING 192
SWIDTH 621 0
DWIDTH 11 0
BBX 12 14 0 0
BITMAP
0C00
0200
0000
0600
0E00
0E00
1B00
1900
1180
3180
3FC0
7FC0
60C0
4060
ENDCHAR
STARTCHAR U+00C1
ENCODING 193
SWIDTH 621 0
DWIDTH 11 0
BBX 12 14 0 0
BITMAP
0300
0600
0000
0600
0E00
0E00
1B00
1900
1180
3180
3FC0
7FC0
60C0
4060
ENDCHAR
STARTCHAR U+00C2
ENCODING 194
SWIDTH 621 0
DWIDTH 11 0
BBX 12 14 0 0
BITMAP
0600
0900
0000
0600
0E00
0E00
1B00
1900
1180
3180
3FC0
7FC0
60C0
4060
ENDCHAR
STARTCHAR U+00C3
ENCODING 195
SWIDTH 621 0
DWIDTH 11 0
BBX 12 14 0 0
BITMAP
1D00
1700
0000
0600
0E00
0E00
1B00
1900
1180
3180
3FC0
7FC0
60C0
4060
ENDCHAR
STARTCHAR U+00C4
ENCODING 196
SWIDTH 621 0
DWIDTH 11 0
BBX 12 14 0 0
BITMAP
1900
1900
0000
0600
0E00
0E00
1B00
1900
1180
3180
3FC0
7FC0
60C0
4060
ENDCHAR
STARTCHAR U+00C5
ENCODING 197
SWIDTH 621 0
DWIDTH 11 0
BBX 12 15 0 0
BITMAP
0600
0A00
0600
0000
0600
0E00
0E00
1B00
1900
1180
3180
3FC0
7FC0
60C0
4060
ENDCHAR
STARTCHAR U+00C6
ENCODING 198
SWIDTH 904 0
DWIDTH 16 0
BBX 16 11 0 0
BITMAP
03FE
03FE
06C0
06C0
0CF8
18F8
1FC0
3FC0
30C0
60FE
E0FE
ENDCHAR
STARTCHAR U+00C7
ENCODING 199
SWIDTH 678 0
DWIDTH 12 0
BBX 12 14 0 -3
BITMAP
0F80
1FE0
3860
6000
6000
6000
6000
6000
3860
1FE0
0780
0300
0100
0700
ENDCHAR
STARTCHAR U+00C8
ENCODING 200
SWIDTH 565 0
DWIDTH 10 0
BBX 10 14 0 0
BITMAP
1800
0400
0000
3F80
3F80
2000
2000
3F00
3F00
2000
2000
2000
3F80
3F80
ENDCHAR
STARTCHAR U+00C9
ENCODING 201
SWIDTH 565 0
DWIDTH 10 0
BBX 10 14 0 0
BITMAP
0600
0C00
0000
3F80
3F80
2000
2000
3F00
3F00
2000
2000
2000
3F80
3F80
ENDCHAR
STARTCHAR U+00CA
ENCODING 202
SWIDTH 565 0
DWIDTH 10 0
BBX 10 14 0 0
BITMAP
0C00
1200
0000
3F80
3F80
2000
2000
3F00
3F00
2000
2000
2000
3F80
3F80
ENDCHAR
STARTCHAR U+00CB
ENCODING 203
SWIDTH 565 0
DWIDTH 10 0
BBX 10 14 0 0
BITMAP
3200
3200
0000
3F80
3F80
2000
2000
3F00
3F00
2000
2000
2000
3F80
3F80
ENDCHAR
STARTCHAR U+00CC
ENCODING 204
SWIDTH 282 0
DWIDTH 5 0
BBX 5 14 0 0
BITMAP
00
00
00
00
00
00
00
00
00
00
00
00
00
00
ENDCHAR
STARTCHAR U+00CD
ENCODING 205
SWIDTH 282 0
DWIDTH 5 0
BBX 5 14 0 0
BITMAP
30
60
00
20
20
20
20
20
20
20
20
20
20
20
ENDCHAR
STARTCHAR U+00CE
ENCODING 206
SWIDTH 282 0
DWIDTH 5 0
BBX 5 14 0 0
BITMAP
00
00
00
00
00
00
00
00
00
00
00
00
00
00
ENDCHAR
STARTCHAR U+00CF
ENCODING 207
SWIDTH 282 0
DWIDTH 5 0
BBX 7 14 -1 0
BITMAP
C8
C8
00
20
20
20
20
20
20
20
20
20
20
20
ENDCHAR
STARTCHAR U+00D0
ENCODING 208
SWIDTH 678 0
DWIDTH 12 0
BBX 12 11 0 0
BITMAP
3F00
3FC0
20E0
2060
2060
FC20
2060
2060
20E0
3FC0
3F00
ENDCHAR
STARTCHAR U+00D1
ENCODING 209
SWIDTH 734 0
DWIDTH 13 0
BBX 13 14 0 0
BITMAP
0E80
0B80
0000
3030
3030
3830
2C30
2630
2330
23B0
21B0
20F0
2070
2030
ENDCHAR
STARTCHAR U+00D2
ENCODING 210
SWIDTH 791 0
DWIDTH 14 0
BBX 14 14 0 0
BITMAP
0600
0100
0000
0FC0
1FE0
3870
6018
6018
6018
6018
6018
3870
1FE0
0FC0
ENDCHAR
STARTCHAR U+00D3
ENCODING 211
SWIDTH 791 0
DWIDTH 14 0
BBX 14 14 0 0
BITMAP
0180
0300
0000
0FC0
1FE0
3870
6018
6018
6018
6018
6018
3870
1FE0
0FC0
ENDCHAR
STARTCHAR U+00D4
ENCODING 212
SWIDTH 791 0
DWIDTH 14 0
BBX 14 14 0 0
BITMAP
0300
0480
0000
0FC0
1FE0
3870
6018
6018
6018
6018
6018
3870
1FE0
0FC0
ENDCHAR
STARTCHAR U+00D5
ENCODING 213
SWIDTH 791 0
DWIDTH 14 0
BBX 14 14 0 0
BITMAP
0E80
0B80
0000
0FC0
1FE0
3870
6018
6018
6018
6018
6018
3870
1FE0
0FC0
ENDCHAR
STARTCHAR U+00D6
ENCODING 214
SWIDTH 791 0
DWIDTH 14 0
BBX 14 14 0 0
BITMAP
0C80
0C80
0000
0FC0
1FE0
3870
6018
6018
6018
6018
6018
3870
1FE0
0FC0
ENDCHAR
STARTCHAR U+00D7
ENCODING 215
SWIDTH 508 0
DWIDTH 9 0
BBX 9 9 0 0
BITMAP
2200
3600
1C00
1C00
3600
2200
0000
0000
0000
ENDCHAR
STARTCHAR U+00D8
ENCODING 216
SWIDTH 791 0
DWIDTH 14 0
BBX 14 11 0 0
BITMAP
0FD0
1FF0
3870
6078
6198
6318
6618
7818
3870
3FE0
2FC0
ENDCHAR
STARTCHAR U+00D9
ENCODING 217
SWIDTH 734 0
DWIDTH 13 0
BBX 13 14 0 0
BITMAP
0C00
0200
0000
6030
6030
6030
6030
6030
6030
6030
3060
38E0
1FC0
0F80
ENDCHAR
STARTCHAR U+00DA
ENCODING 218
SWIDTH 734 0
DWIDTH 13 0
BBX 13 14 0 0
BITMAP
0300
0600
0000
6030
6030
6030
6030
6030
6030
6030
3060
38E0
1FC0
0F80
ENDCHAR
STARTCHAR U+00DB
ENCODING 219
SWIDTH 734 0
DWIDTH 13 0
BBX 13 14 0 0
BITMAP
0300
0480
0000
6030
6030
6030
6030
6030
6030
6030
3060
38E0
1FC0
0F80
ENDCHAR
STARTCHAR U+00DC
ENCODING 220
SWIDTH 734 0
DWIDTH 13 0
BBX 13 14 0 0
BITMAP
0C80
0C80
0000
6030
6030
6030
6030
6030
6030
6030
3060
38E0
1FC0
0F80
ENDCHAR
STARTCHAR U+00DD
ENCODING 221
SWIDTH 565 0
DWIDTH 10 0
BBX 10 14 0 0
BITMAP
0600
0C00
0000
60C0
6180
3300
1B00
1E00
0C00
0C00
0C00
0C00
0C00
0C00
ENDCHAR
STARTCHAR U+00DE
ENCODING 222
SWIDTH 565 0
DWIDTH 10 0
BBX 10 11 0 0
BITMAP
2000
2000
3F00
3F80
2180
2180
2180
3F80
3E00
2000
2000
ENDCHAR
STARTCHAR U+00DF
ENCODING 223
SWIDTH 508 0
DWIDTH 9 0
BBX 9 11 0 0
BITMAP
1E00
3F00
3300
6300
6E00
6F00
6100
6180
6180
6F00
6E00
ENDCHAR
STARTCHAR U+00E0
ENCODING 224
SWIDTH 508 0
DWIDTH 9 0
BBX 9 11 0 0
BITMAP
3000
0800
0000
1C00
3E00
4200
1F00
6300
6700
7F00
3B00
ENDCHAR
STARTCHAR U+00E1
ENCODING 225
SWIDTH 508 0
DWIDTH 9 0
BBX 9 11 0 0
BITMAP
0C00
1800
0000
1C00
3E00
4200
1F00
6300
6700
7F00
3B00
ENDCHAR
STARTCHAR U+00E2
ENCODING 226
SWIDTH 508 0
DWIDTH 9 0
BBX 9 11 0 0
BITMAP
1800
2400
0000
1C00
3E00
4200
1F00
6300
6700
7F00
3B00
ENDCHAR
STARTCHAR U+00E3
ENCODING 227
SWIDTH 508 0
DWIDTH 9 0
BBX 9 11 0 0
BITMAP
3A00
2E00
0000
1C00
3E00
4200
1F00
6300
6700
7F00
3B00
ENDCHAR
STARTCHAR U+00E4
ENCODING 228
SWIDTH 508 0
DWIDTH 9 0
BBX 9 11 0 0
BITMAP
3200
3200
0000
1C00
3E00
4200
1F00
6300
6700
7F00
3B00
ENDCHAR
STARTCHAR U+00E5
ENCODING 229
SWIDTH 508 0
DWIDTH 9 0
BBX 9 12 0 0
BITMAP
1800
2800
1800
0000
1C00
3E00
4200
1F00
6300
6700
7F00
3B00
ENDCHAR
STARTCHAR U+00E6
ENCODING 230
SWIDTH 791 0
DWIDTH 14 0
BBX 14 8 0 0
BITMAP
1CF0
3FF8
4318
1FF8
6300
6308
7FF8
3CF0
ENDCHAR
STARTCHAR U+00E7
ENCODING 231
SWIDTH 508 0
DWIDTH 9 0
BBX 9 11 0 -3
BITMAP
1E00
3F00
6100
6000
6000
6100
3F00
1E00
0E00
0200
1C00
ENDCHAR
STARTCHAR U+00E8
ENCODING 232
SWIDTH 508 0
DWIDTH 9 0
BBX 9 11 0 0
BITMAP
3000
0800
0000
1E00
3F00
6100
7F80
7F80
6100
3F00
1E00
ENDCHAR
STARTCHAR U+00E9
ENCODING 233
SWIDTH 508 0
DWIDTH 9 0
BBX 9 11 0 0
BITMAP
0600
0C00
0000
1E00
3F00
6100
7F80
7F80
6100
3F00
1E00
ENDCHAR
STARTCHAR U+00EA
ENCODING 234
SWIDTH 508 0
DWIDTH 9 0
BBX 9 11 0 0
BITMAP
0C00
1200
0000
1E00
3F00
6100
7F80
7F80
6100
3F00
1E00
ENDCHAR
STARTCHAR U+00EB
ENCODING 235
SWIDTH 508 0
DWIDTH 9 0
BBX 9 11 0 0
BITMAP
3200
3200
0000
1E00
3F00
6100
7F80
7F80
6100
3F00
1E00
ENDCHAR
STARTCHAR U+00EC
ENCODING 236
SWIDTH 226 0
DWIDTH 4 0
BBX 5 11 -1 0
BITMAP
C0
20
00
60
60
60
60
60
60
60
60
ENDCHAR
STARTCHAR U+00ED
ENCODING 237
SWIDTH 226 0
DWIDTH 4 0
BBX 5 11 0 0
BITMAP
30
60
00
60
60
60
60
60
60
60
60
ENDCHAR
STARTCHAR U+00EE
ENCODING 238
SWIDTH 226 0
DWIDTH 4 0
BBX 6 11 -1 0
BITMAP
60
90
00
60
60
60
60
60
60
60
60
ENDCHAR
STARTCHAR U+00EF
ENCODING 239
SWIDTH 226 0
DWIDTH 4 0
BBX 7 11 -1 0
BITMAP
C8
C8
00
60
60
60
60
60
60
60
60
ENDCHAR
STARTCHAR U+00F0
ENCODING 240
SWIDTH 508 0
DWIDTH 9 0
BBX 9 11 0 0
BITMAP
1E00
1C00
3600
1B00
3F00
6380
6180
6180
6300
3F00
1E00
ENDCHAR
STARTCHAR U+00F1
ENCODING 241
SWIDTH 565 0
DWIDTH 10 0
BBX 10 11 0 0
BITMAP
3A00
2E00
0000
6E00
7F00
7180
6180
6180
6180
6180
6180
ENDCHAR
STARTCHAR U+00F2
ENCODING 242
SWIDTH 565 0
DWIDTH 10 0
BBX 10 11 0 0
BITMAP
1800
0400
0000
1E00
3F80
6180
60C0
60C0
6180
3F80
1E00
ENDCHAR
STARTCHAR U+00F3
ENCODING 243
SWIDTH 565 0
DWIDTH 10 0
BBX 10 11 0 0
BITMAP
0600
0C00
0000
1E00
3F80
6180
60C0
60C0
6180
3F80
1E00
ENDCHAR
STARTCHAR U+00F4
ENCODING 244
SWIDTH 565 0
DWIDTH 10 0
BBX 10 11 0 0
BITMAP
0C00
1200
0000
1E00
3F80
6180
60C0
60C0
6180
3F80
1E00
ENDCHAR
STARTCHAR U+00F5
ENCODING 245
SWIDTH 565 0
DWIDTH 10 0
BBX 10 11 0 0
BITMAP
3A00
2E00
0000
1E00
3F80
6180
60C0
60C0
6180
3F80
1E00
ENDCHAR
STARTCHAR U+00F6
ENCODING 246
SWIDTH 565 0
DWIDTH 10 0
BBX 10 11 0 0
BITMAP
1900
1900
0000
1E00
3F80
6180
60C0
60C0
6180
3F80
1E00
ENDCHAR
STARTCHAR U+00F7
ENCODING 247
SWIDTH 508 0
DWIDTH 9 0
BBX 9 10 0 0
BITMAP
0400
0C00
0400
0000
7F00
0000
0400
0C00
0400
0000
ENDCHAR
STARTCHAR U+00F8
ENCODING 248
SWIDTH 565 0
DWIDTH 10 0
BBX 10 8 0 0
BITMAP
1E80
3F80
6380
66C0
68C0
7180
3F80
7E00
ENDCHAR
STARTCHAR U+00F9
ENCODING 249
SWIDTH 565 0
DWIDTH 10 0
BBX 10 11 0 0
BITMAP
1800
0400
0000
6180
6180
6180
6180
6180
6380
3F80
1D80
ENDCHAR
STARTCHAR U+00FA
ENCODING 250
SWIDTH 565 0
DWIDTH 10 0
BBX 10 11 0 0
BITMAP
0600
0C00
0000
6180
6180
6180
6180
6180
6380
3F80
1D80
ENDCHAR
STARTCHAR U+00FB
ENCODING 251
SWIDTH 565 0
DWIDTH 10 0
BBX 10 11 0 0
BITMAP
0C00
1200
0000
6180
6180
6180
6180
6180
6380
3F80
1D80
ENDCHAR
STARTCHAR U+00FC
ENCODING 252
SWIDTH 565 0
DWIDTH 10 0
BBX 10 11 0 0
BITMAP
3200
3200
0000
6180
6180
6180
6180
6180
6380
3F80
1D80
ENDCHAR
STARTCHAR U+00FD
ENCODING 253
SWIDTH 508 0
DWIDTH 9 0
BBX 9 14 0 -3
BITMAP
0C00
1800
0000
C180
6100
6300
3200
3600
1E00
1C00
0C00
1800
3800
3000
ENDCHAR
STARTCHAR U+00FE
ENCODING 254
SWIDTH 565 0
DWIDTH 10 0
BBX 10 14 0 -3
BITMAP
6000
6000
6000
6E00
7F80
7180
6080
6080
7180
7F80
6E00
6000
6000
6000
ENDCHAR
STARTCHAR U+00FF
ENCODING 255
SWIDTH 508 0
DWIDTH 9 0
BBX 9 14 0 -3
BITMAP
3200
3200
0000
C180
6100
6300
3200
3600
1E00
1C00
0C00
1800
3800
3000
ENDCHAR
STARTCHAR U+2013
ENCODING 8211
SWIDTH 508 0
DWIDTH 9 0
BBX 10 5 -1 0
BITMAP
FF80
0000
0000
0000
0000
ENDCHAR
STARTCHAR U+2014
ENCODING 8212
SWIDTH 960 0
DWIDTH 17 0
BBX 19 5 -1 0
BITMAP
FFFF80
000000
000000
000000
000000
ENDCHAR
STARTCHAR U+2018
ENCODING 8216
SWIDTH 226 0
DWIDTH 4 0
BBX 4 11 0 0
BITMAP
20
60
60
20
00
00
00
00
00
00
00
ENDCHAR
STARTCHAR U+2019
ENCODING 8217
SWIDTH 226 0
DWIDTH 4 0
BBX 4 11 0 0
BITMAP
20
60
20
40
00
00
00
00
00
00
00
ENDCHAR
STARTCHAR U+201C
ENCODING 8220
SWIDTH 395 0
DWIDTH 7 0
BBX 7 11 0 0
BITMAP
28
68
6C
28
00
00
00
00
00
00
00
ENDCHAR
STARTCHAR U+201D
ENCODING 8221
SWIDTH 395 0
DWIDTH 7 0
BBX 7 11 0 0
BITMAP
24
6C
24
48
00
00
00
00
00
00
00
ENDCHAR
STARTCHAR U+2022
ENCODING 8226
SWIDTH 395 0
DWIDTH 7 0
BBX 7 7 0 0
BITMAP
10
38
38
10
00
00
00
ENDCHAR
STARTCHAR U+2026
ENCODING 8230
SWIDTH 904 0
DWIDTH 16 0
BBX 16 2 0 0
BITMAP
618C
2084
ENDCHAR
STARTCHAR U+20AC
ENCODING 8364
SWIDTH 621 0
DWIDTH 11 0
BBX 11 11 0 0
BITMAP
0F80
1FC0
3040
FF00
6000
6000
FE00
3000
3840
1FC0
0F80
ENDCHAR
ENDFONT
