STARTFONT 2.1
COMMENT Converted from Johnston100 W03 Regular.ttf at 40px with ttf2bdf.py (Pillow, 1-bit, no AA)
FONT -Misc-Johnston100-Medium-R-Normal--40-400-75-75-P-420-ISO10646-1
SIZE 40 75 75
FONTBOUNDINGBOX 42 46 -2 -10
STARTPROPERTIES 9
FOUNDRY "Misc"
FAMILY_NAME "Johnston100"
WEIGHT_NAME "Medium"
SLANT "R"
PIXEL_SIZE 40
RESOLUTION_X 75
RESOLUTION_Y 75
FONT_ASCENT 36
FONT_DESCENT 10
ENDPROPERTIES
CHARS 200
STARTCHAR space
ENCODING 32
SWIDTH 240 0
DWIDTH 10 0
BBX 10 46 0 -10
BITMAP
0000
0000
0000
0000
0000
0000
0000
0000
0000
0000
0000
0000
0000
0000
0000
0000
0000
0000
0000
0000
0000
0000
0000
0000
0000
0000
0000
0000
0000
0000
0000
0000
0000
0000
0000
0000
0000
0000
0000
0000
0000
0000
0000
0000
0000
0000
ENDCHAR
STARTCHAR !
ENCODING 33
SWIDTH 288 0
DWIDTH 12 0
BBX 12 27 0 0
BITMAP
0F00
0F00
0F00
0F00
0F00
0F00
0F00
0F00
0F00
0F00
0F00
0F00
0F00
0F00
0E00
0E00
0E00
0E00
0E00
0600
0000
0000
0400
0E00
1F00
0E00
0400
ENDCHAR
STARTCHAR "
ENCODING 34
SWIDTH 384 0
DWIDTH 16 0
BBX 16 27 0 0
BITMAP
1C3C
1C3C
1C3C
1C3C
1C3C
1C3C
1C38
1C38
1C18
0C18
0000
0000
0000
0000
0000
0000
0000
0000
0000
0000
0000
0000
0000
0000
0000
0000
0000
ENDCHAR
STARTCHAR U+0023
ENCODING 35
SWIDTH 720 0
DWIDTH 30 0
BBX 30 27 0 0
BITMAP
00010080
000F0380
000E0380
000E0700
000E0700
001E0700
001C0F00
001C0E00
0FFFFFF8
0FFFFFF8
0FFFFFF0
00381C00
00701C00
00703800
00703800
00E03800
3FFFFFE0
3FFFFFC0
7FFFFFC0
01C0F000
01C0E000
03C0E000
0380E000
0381E000
0381C000
0781C000
04030000
ENDCHAR
STARTCHAR $
ENCODING 36
SWIDTH 480 0
DWIDTH 20 0
BBX 20 33 0 -3
BITMAP
00E000
00E000
00E000
07FC00
0FFE00
1FFF00
1F1F00
1E0600
3E0000
3E0000
1E0000
1F0000
1FC000
0FF000
07FC00
01FE00
007F80
001F80
0007C0
0003C0
0003E0
0003E0
1003E0
3803C0
7C07C0
3E0FC0
1FFF80
1FFF00
0FFE00
03F800
00E000
00E000
00E000
ENDCHAR
STARTCHAR %
ENCODING 37
SWIDTH 720 0
DWIDTH 30 0
BBX 30 27 0 0
BITMAP
07C00E00
0FF00E00
1FF81C00
3C783C00
383C3800
381C7800
383C7000
3C78F000
1FF8E000
0FF1E000
07C1C000
0003C000
00038000
00078000
00070000
000F0000
000E0F00
001E3FC0
001C7FE0
003C70E0
0038E070
0078E070
0070E070
00F070E0
00E07FE0
01C03FC0
01C01F80
ENDCHAR
STARTCHAR &
ENCODING 38
SWIDTH 648 0
DWIDTH 27 0
BBX 27 27 0 0
BITMAP
007E0000
01FF0000
03FF8000
07FFC000
07C7C000
0783E000
0781E000
0781E000
0783C000
07C7C000
03EF8000
01FE0000
00FC0000
03FC0780
07FE0F00
1F1F0F00
1E0F9E00
3C07DE00
3C03FC00
3C01FC00
3C00F800
3E01FC00
3F07FE00
1FFFFF00
0FFF9F00
07FF0F80
01FC07C0
ENDCHAR
STARTCHAR '
ENCODING 39
SWIDTH 216 0
DWIDTH 9 0
BBX 9 27 0 0
BITMAP
1C00
1C00
1C00
1C00
1C00
1C00
1C00
1C00
1C00
0C00
0000
0000
0000
0000
0000
0000
0000
0000
0000
0000
0000
0000
0000
0000
0000
0000
0000
ENDCHAR
STARTCHAR (
ENCODING 40
SWIDTH 264 0
DWIDTH 11 0
BBX 11 33 0 -3
BITMAP
0380
0780
0700
0F00
0F00
0E00
0E00
1E00
1E00
1C00
1C00
1C00
3C00
3C00
3C00
3C00
3C00
3C00
3C00
3C00
3C00
1C00
1C00
1C00
1E00
1E00
1E00
0E00
0F00
0F00
0700
0780
0380
ENDCHAR
STARTCHAR )
ENCODING 41
SWIDTH 264 0
DWIDTH 11 0
BBX 11 33 0 -3
BITMAP
7800
3800
3C00
1C00
1C00
1E00
1E00
0E00
0F00
0F00
0F00
0F00
0F00
0F00
0700
0700
0700
0700
0700
0F00
0F00
0F00
0F00
0F00
0E00
0E00
1E00
1E00
1C00
1C00
3C00
3800
7800
ENDCHAR
STARTCHAR *
ENCODING 42
SWIDTH 384 0
DWIDTH 16 0
BBX 16 27 0 0
BITMAP
01C0
01C0
1188
399C
3DBE
1FF8
07E0
03C0
1FF8
3DBE
399C
1188
01C0
03C0
0000
0000
0000
0000
0000
0000
0000
0000
0000
0000
0000
0000
0000
ENDCHAR
STARTCHAR +
ENCODING 43
SWIDTH 504 0
DWIDTH 21 0
BBX 21 21 0 0
BITMAP
007000
007000
007000
007000
007000
007000
1FFFE0
1FFFE0
1FFFE0
007000
007000
007000
007000
007000
007000
000000
000000
000000
000000
000000
000000
ENDCHAR
STARTCHAR ,
ENCODING 44
SWIDTH 240 0
DWIDTH 10 0
BBX 10 11 0 -5
BITMAP
0C00
1E00
3E00
1E00
0E00
0E00
0C00
0800
1000
0000
0000
ENDCHAR
STARTCHAR -
ENCODING 45
SWIDTH 360 0
DWIDTH 15 0
BBX 15 13 0 0
BITMAP
7FFC
7FFC
7FFC
7FFC
0000
0000
0000
0000
0000
0000
0000
0000
0000
ENDCHAR
STARTCHAR .
ENCODING 46
SWIDTH 240 0
DWIDTH 10 0
BBX 10 5 0 0
BITMAP
0C00
1E00
3F00
1E00
0C00
ENDCHAR
STARTCHAR /
ENCODING 47
SWIDTH 312 0
DWIDTH 13 0
BBX 13 33 0 -3
BITMAP
0078
0078
0070
00F0
00F0
00E0
00E0
01E0
01E0
01C0
03C0
03C0
0380
0380
0780
0780
0700
0F00
0F00
0E00
0E00
1E00
1E00
1C00
3C00
3C00
3800
3800
7800
7800
7000
F000
F000
ENDCHAR
STARTCHAR 0
ENCODING 48
SWIDTH 552 0
DWIDTH 23 0
BBX 23 27 0 0
BITMAP
007E00
01FF00
03FF80
07FFC0
07C3E0
0F81E0
0F01F0
1F00F0
1E00F0
1E00F0
1E00F0
1E0078
1E0078
1E0078
1E0078
1E0078
1E00F0
1E00F0
1E00F0
1F00F0
0F01F0
0F81E0
07C3E0
07FFC0
03FF80
01FF00
007C00
ENDCHAR
STARTCHAR 1
ENCODING 49
SWIDTH 288 0
DWIDTH 12 0
BBX 12 27 0 0
BITMAP
0100
0700
0F00
0F00
0F00
0F00
0F00
0F00
0F00
0F00
0F00
0F00
0F00
0F00
0F00
0F00
0F00
0F00
0F00
0F00
0F00
0F00
0F00
0F00
0F00
0F00
0F00
ENDCHAR
STARTCHAR 2
ENCODING 50
SWIDTH 480 0
DWIDTH 20 0
BBX 20 27 0 0
BITMAP
01F800
07FE00
0FFF00
1FFF80
1F0F80
1C07C0
1803C0
1003C0
0003C0
0003C0
000780
000780
000F00
001F00
001E00
003E00
007C00
007800
00F800
01F000
01E000
03E000
07C000
07FFC0
0FFFC0
1FFFC0
1FFFC0
ENDCHAR
STARTCHAR 3
ENCODING 51
SWIDTH 504 0
DWIDTH 21 0
BBX 21 27 0 0
BITMAP
3FFFE0
3FFFC0
3FFF80
3FFF80
000F00
001E00
001E00
003C00
007800
007800
00FE00
01FF00
000F80
0007C0
0003C0
0001E0
0001E0
0001E0
0001E0
0001E0
1003E0
3807C0
7E0FC0
3FFF80
1FFF00
0FFE00
03F800
ENDCHAR
STARTCHAR 4
ENCODING 52
SWIDTH 552 0
DWIDTH 23 0
BBX 23 27 0 0
BITMAP
000020
000060
0000E0
0001E0
0001E0
0003E0
0007E0
000FE0
001FE0
003DE0
0079E0
00F9E0
00F1E0
01E1E0
03C1E0
0781E0
0F01E0
1FFFFC
3FFFFC
7FFFFC
0001E0
0001E0
0001E0
0001E0
0001E0
0001E0
0001E0
ENDCHAR
STARTCHAR 5
ENCODING 53
SWIDTH 504 0
DWIDTH 21 0
BBX 21 27 0 0
BITMAP
0FFFC0
0FFFC0
0FFF80
0FFF80
0F0000
0F0000
0F0000
0F0000
0F0000
0FF000
1FFC00
1FFF00
181F00
000F80
0007C0
0003C0
0003C0
0003C0
0003C0
0003C0
2007C0
700780
FC1F80
7FFF00
3FFE00
1FFC00
07F000
ENDCHAR
STARTCHAR 6
ENCODING 54
SWIDTH 504 0
DWIDTH 21 0
BBX 21 27 0 0
BITMAP
003F00
007E00
00F800
01F000
03F000
03E000
07C000
0F8000
0F8000
1F0000
1E7C00
1FFF00
3FFF80
3FFFC0
3F07E0
3C03E0
3C01E0
3C01E0
3C01E0
3C01E0
3C01E0
1E03E0
1F07C0
0FFFC0
0FFF80
07FF00
01FC00
ENDCHAR
STARTCHAR 7
ENCODING 55
SWIDTH 480 0
DWIDTH 20 0
BBX 20 27 0 0
BITMAP
3FFFE0
3FFFC0
3FFFC0
3FFFC0
000780
000780
000F00
000F00
001E00
001E00
003C00
003C00
007C00
007800
00F800
00F000
01F000
01E000
01E000
03C000
03C000
07C000
078000
0F8000
0F0000
1F0000
1E0000
ENDCHAR
STARTCHAR 8
ENCODING 56
SWIDTH 504 0
DWIDTH 21 0
BBX 21 27 0 0
BITMAP
00FC00
03FE00
07FF80
0FFF80
0F87C0
1F03C0
1E03C0
1E03C0
0F03C0
0F8780
07CF80
03FF00
01FC00
07FF00
0F9F80
1F07C0
1E03E0
3C01E0
3C01E0
3C01E0
3C01E0
3E03E0
1F07E0
1FFFC0
0FFF80
07FF00
01FC00
ENDCHAR
STARTCHAR 9
ENCODING 57
SWIDTH 504 0
DWIDTH 21 0
BBX 21 27 0 0
BITMAP
01F800
07FE00
0FFF00
1FFF80
3E0F80
3C07C0
7803C0
7803C0
7803E0
7801E0
7801E0
7C03C0
3E07C0
3FFFC0
1FFFC0
0FFFC0
03F780
000F80
000F00
001F00
003E00
003E00
007C00
00F800
01F000
03E000
07C000
ENDCHAR
STARTCHAR :
ENCODING 58
SWIDTH 288 0
DWIDTH 12 0
BBX 12 20 0 0
BITMAP
0600
0F00
1F80
0F00
0600
0000
0000
0000
0000
0000
0000
0000
0000
0000
0000
0600
0F00
1F80
0F00
0600
ENDCHAR
STARTCHAR ;
ENCODING 59
SWIDTH 288 0
DWIDTH 12 0
BBX 12 24 0 -5
BITMAP
0600
0F00
1F80
0F00
0600
0000
0000
0000
0000
0000
0000
0000
0000
0000
0600
0F00
1F00
0F00
0700
0700
0600
0400
0800
0000
ENDCHAR
STARTCHAR U+003C
ENCODING 60
SWIDTH 504 0
DWIDTH 21 0
BBX 21 24 0 0
BITMAP
000060
0001E0
0007E0
001FE0
007F80
00FE00
03F800
0FE000
1F8000
1F0000
1F8000
0FE000
03F800
00FE00
007F80
001FE0
0007E0
0001E0
000060
000000
000000
000000
000000
000000
ENDCHAR
STARTCHAR =
ENCODING 61
SWIDTH 504 0
DWIDTH 21 0
BBX 21 19 0 0
BITMAP
1FFFE0
1FFFE0
1FFFE0
000000
000000
000000
000000
000000
1FFFE0
1FFFE0
1FFFE0
000000
000000
000000
000000
000000
000000
000000
000000
ENDCHAR
STARTCHAR U+003E
ENCODING 62
SWIDTH 504 0
DWIDTH 21 0
BBX 21 24 0 0
BITMAP
100000
1C0000
1F0000
1FC000
0FF000
03FC00
00FF00
003FC0
000FE0
0003E0
000FE0
003FC0
00FF00
03FC00
0FF000
1FC000
1F0000
1C0000
100000
000000
000000
000000
000000
000000
ENDCHAR
STARTCHAR ?
ENCODING 63
SWIDTH 432 0
DWIDTH 18 0
BBX 18 27 0 0
BITMAP
07E000
1FF800
3FFC00
7FFE00
7C3F00
380F00
100F00
000F00
000F00
001F00
003E00
00FC00
01F800
03F000
07C000
078000
078000
07E000
03C000
018000
000000
008000
01C000
03E000
03C000
01C000
008000
ENDCHAR
STARTCHAR @
ENCODING 64
SWIDTH 936 0
DWIDTH 39 0
BBX 39 34 0 -7
BITMAP
0000FF8000
0007FFF000
001FFFFC00
007F00FE00
00F8001F00
01F0000780
03C00003C0
07800001E0
07007F21E0
0F01FFE0E0
0E03FFE0F0
1E07C1E070
1C0F01E070
1C0E01E070
1C1E01E070
3C1E01C070
3C1C01C070
3C1C01C070
3C1C01C070
3C1C01C0F0
3C1C03C0E0
1C1E03C1E0
1C1E03C3C0
1E0F87FF80
1E0FFFFF00
0F03FC7E00
0F01F80000
0780000000
03C0000000
01F0006000
00FE01E000
007FFFE000
001FFFE000
0003FF0000
ENDCHAR
STARTCHAR A
ENCODING 65
SWIDTH 648 0
DWIDTH 27 0
BBX 27 27 0 0
BITMAP
001E0000
001F0000
001F0000
003F0000
003F8000
007F8000
007BC000
007BC000
00F3E000
00F1E000
01F1E000
01E0F000
01E0F000
03C0F800
03C07800
07C07800
07803C00
07FFFC00
0FFFFE00
0FFFFE00
1FFFFE00
1E001F00
1E000F00
3E000F80
3C000780
7C0007C0
780007C0
ENDCHAR
STARTCHAR B
ENCODING 66
SWIDTH 576 0
DWIDTH 24 0
BBX 24 27 0 0
BITMAP
0FFE00
0FFF80
0FFFC0
0FFFC0
0F07E0
0F01E0
0F01E0
0F01E0
0F01E0
0F01E0
0F07C0
0FFFC0
0FFFC0
0FFFF0
0FFFF8
0F00F8
0F007C
0F003C
0F003C
0F003C
0F003C
0F007C
0F00FC
0FFFF8
0FFFF0
0FFFE0
0FFF80
ENDCHAR
STARTCHAR C
ENCODING 67
SWIDTH 648 0
DWIDTH 27 0
BBX 27 27 0 0
BITMAP
0007F800
003FFF00
00FFFF80
01FFFF80
03F80780
07E00180
0F800000
0F000000
1F000000
1E000000
1E000000
3E000000
3C000000
3C000000
3E000000
3E000000
1E000000
1E000000
1F000000
0F800000
0FC00000
07E00080
03F80780
01FFFF80
00FFFF80
003FFE00
0007F800
ENDCHAR
STARTCHAR D
ENCODING 68
SWIDTH 696 0
DWIDTH 29 0
BBX 29 27 0 0
BITMAP
0FFF0000
0FFFE000
0FFFF800
0FFFFC00
0F00FE00
0F003F00
0F000F80
0F0007C0
0F0007C0
0F0003C0
0F0003E0
0F0003E0
0F0001E0
0F0001E0
0F0001E0
0F0003E0
0F0003C0
0F0003C0
0F0007C0
0F000780
0F000F80
0F003F00
0F00FF00
0FFFFC00
0FFFF800
0FFFE000
0FFF0000
ENDCHAR
STARTCHAR E
ENCODING 69
SWIDTH 552 0
DWIDTH 23 0
BBX 23 27 0 0
BITMAP
0FFFF8
0FFFF8
0FFFF8
0FFFF8
0F0000
0F0000
0F0000
0F0000
0F0000
0F0000
0FFFC0
0FFFC0
0FFFC0
0FFFC0
0F0000
0F0000
0F0000
0F0000
0F0000
0F0000
0F0000
0F0000
0F0000
0FFFF8
0FFFF8
0FFFF8
0FFFF8
ENDCHAR
STARTCHAR F
ENCODING 70
SWIDTH 504 0
DWIDTH 21 0
BBX 21 27 0 0
BITMAP
0FFFF0
0FFFF0
0FFFF0
0FFFF0
0F0000
0F0000
0F0000
0F0000
0F0000
0F0000
0F0000
0FFF80
0FFF80
0FFF80
0FFF80
0F0000
0F0000
0F0000
0F0000
0F0000
0F0000
0F0000
0F0000
0F0000
0F0000
0F0000
0F0000
ENDCHAR
STARTCHAR G
ENCODING 71
SWIDTH 696 0
DWIDTH 29 0
BBX 29 27 0 0
BITMAP
0007F800
003FFE00
00FFFF80
01FFFFC0
03F807C0
07E001C0
0FC00040
0F800000
1F000000
1E000000
1E000000
3E007FC0
3C007FC0
3C007FC0
3C007FC0
3E0003C0
1E0003C0
1E0003C0
1F0003C0
0F8003C0
0FC003C0
07E003C0
03F807C0
01FFFFC0
00FFFFC0
003FFE00
000FF000
ENDCHAR
STARTCHAR H
ENCODING 72
SWIDTH 696 0
DWIDTH 29 0
BBX 29 27 0 0
BITMAP
0F000780
0F000780
0F000780
0F000780
0F000780
0F000780
0F000780
0F000780
0F000780
0F000780
0FFFFF80
0FFFFF80
0FFFFF80
0FFFFF80
0F000780
0F000780
0F000780
0F000780
0F000780
0F000780
0F000780
0F000780
0F000780
0F000780
0F000780
0F000780
0F000780
ENDCHAR
STARTCHAR I
ENCODING 73
SWIDTH 288 0
DWIDTH 12 0
BBX 12 27 0 0
BITMAP
0F00
0F00
0F00
0F00
0F00
0F00
0F00
0F00
0F00
0F00
0F00
0F00
0F00
0F00
0F00
0F00
0F00
0F00
0F00
0F00
0F00
0F00
0F00
0F00
0F00
0F00
0F00
ENDCHAR
STARTCHAR J
ENCODING 74
SWIDTH 456 0
DWIDTH 19 0
BBX 19 27 0 0
BITMAP
000F00
000F00
000F00
000F00
000F00
000F00
000F00
000F00
000F00
000F00
000F00
000F00
000F00
000F00
000F00
000F00
000F00
000F00
000F00
001F00
181F00
781E00
7C3E00
3FFC00
3FFC00
1FF800
07E000
ENDCHAR
STARTCHAR K
ENCODING 75
SWIDTH 600 0
DWIDTH 25 0
BBX 25 27 0 0
BITMAP
0F003F00
0F007E00
0F00FC00
0F01F000
0F03E000
0F07C000
0F0F8000
0F1F0000
0F3E0000
0F7C0000
0FF80000
0FF00000
0FF00000
0FF80000
0FFC0000
0F7E0000
0F3F0000
0F1F0000
0F0F8000
0F07C000
0F03E000
0F01F000
0F00F800
0F007C00
0F007E00
0F003F00
0F001F80
ENDCHAR
STARTCHAR L
ENCODING 76
SWIDTH 528 0
DWIDTH 22 0
BBX 22 27 0 0
BITMAP
0F0000
0F0000
0F0000
0F0000
0F0000
0F0000
0F0000
0F0000
0F0000
0F0000
0F0000
0F0000
0F0000
0F0000
0F0000
0F0000
0F0000
0F0000
0F0000
0F0000
0F0000
0F0000
0F0000
0FFFF8
0FFFF8
0FFFF8
0FFFF8
ENDCHAR
STARTCHAR M
ENCODING 77
SWIDTH 840 0
DWIDTH 35 0
BBX 35 27 0 0
BITMAP
0F00003E00
0F80003E00
0FC0007E00
0FE000FE00
0FF001FE00
0FF003FE00
0FF807DE00
0F7C07DE00
0F3E0F9E00
0F1F1F1E00
0F1FBE1E00
0F0FFC1E00
0F07F81E00
0F03F81E00
0F01F01E00
0F00E01E00
0F00C01E00
0F00001E00
0F00001E00
0F00001E00
0F00001E00
0F00001E00
0F00001E00
0F00001E00
0F00001E00
0F00001E00
0F00001E00
ENDCHAR
STARTCHAR N
ENCODING 78
SWIDTH 744 0
DWIDTH 31 0
BBX 31 27 0 0
BITMAP
0F0001E0
0F8001E0
0F8001E0
0FC001E0
0FE001E0
0FF001E0
0FF801E0
0FF801E0
0F7C01E0
0F3E01E0
0F1F01E0
0F1F01E0
0F0F81E0
0F07C1E0
0F03E1E0
0F01F1E0
0F01F1E0
0F00F9E0
0F007DE0
0F003FE0
0F001FE0
0F001FE0
0F000FE0
0F0007E0
0F0003E0
0F0003E0
0F0001E0
ENDCHAR
STARTCHAR O
ENCODING 79
SWIDTH 792 0
DWIDTH 33 0
BBX 33 27 0 0
BITMAP
0007F00000
003FFE0000
00FFFF8000
01FFFFC000
03F80FE000
07E003F000
0FC001F800
0F0000F800
1F00007C00
1E00003C00
1E00003C00
3E00003C00
3C00003E00
3C00003E00
3C00003E00
3E00003C00
1E00003C00
1E00003C00
1F00007C00
0F8000F800
0F8001F800
07E003F000
03F80FE000
01FFFFC000
00FFFF8000
003FFE0000
000FF00000
ENDCHAR
STARTCHAR P
ENCODING 80
SWIDTH 576 0
DWIDTH 24 0
BBX 24 27 0 0
BITMAP
0FFF00
0FFFC0
0FFFF0
0FFFF0
0F01F8
0F00F8
0F007C
0F007C
0F003C
0F007C
0F0078
0F00F8
0F01F8
0FFFF0
0FFFE0
0FFFC0
0FFF00
0F0000
0F0000
0F0000
0F0000
0F0000
0F0000
0F0000
0F0000
0F0000
0F0000
ENDCHAR
STARTCHAR Q
ENCODING 81
SWIDTH 792 0
DWIDTH 33 0
BBX 33 28 0 -1
BITMAP
0007F00000
003FFE0000
00FFFF8000
01FFFFC000
03F80FE000
07E003F000
0FC001F800
0F0000F800
1F00007C00
1E00003C00
1E00003C00
3E00003C00
3C00003E00
3C00003E00
3C00003E00
3E00003C00
1E00003C00
1E00043C00
1F000E7C00
0F801FF800
0F800FF800
07E007F000
03F80FE000
01FFFFF000
00FFFFF800
003FFE7C00
000FF03800
0000001000
ENDCHAR
STARTCHAR R
ENCODING 82
SWIDTH 576 0
DWIDTH 24 0
BBX 25 27 0 0
BITMAP
0FFE0000
0FFF8000
0FFFC000
0FFFE000
0F03F000
0F01F000
0F00F000
0F00F000
0F00F000
0F01F000
0F03F000
0FFFE000
0FFFC000
0FFF8000
0FFE0000
0F1F0000
0F1F0000
0F0F8000
0F07C000
0F03E000
0F03E000
0F01F000
0F00F800
0F00FC00
0F007C00
0F003E00
0F001F00
ENDCHAR
STARTCHAR S
ENCODING 83
SWIDTH 480 0
DWIDTH 20 0
BBX 20 27 0 0
BITMAP
01F800
07FE00
0FFF00
1FFF00
1F0F00
3E0400
3E0000
3E0000
1F0000
1F8000
0FE000
07F800
03FE00
00FF00
003F80
000FC0
0007C0
0003C0
0003E0
1003E0
3803C0
7C07C0
3E0FC0
1FFF80
1FFF00
07FE00
03F800
ENDCHAR
STARTCHAR T
ENCODING 84
SWIDTH 552 0
DWIDTH 23 0
BBX 23 27 0 0
BITMAP
7FFFFC
7FFFFC
7FFFFC
7FFFFC
003C00
003C00
003C00
003C00
003C00
003C00
003C00
003C00
003C00
003C00
003C00
003C00
003C00
003C00
003C00
003C00
003C00
003C00
003C00
003C00
003C00
003C00
003C00
ENDCHAR
STARTCHAR U
ENCODING 85
SWIDTH 744 0
DWIDTH 31 0
BBX 31 27 0 0
BITMAP
1F0001E0
1F0001E0
1F0001E0
1F0001E0
1F0001E0
1F0001E0
1F0001E0
1F0001E0
1F0001E0
1F0001E0
1F0001E0
1F0001E0
1F0001E0
1F0001E0
1F0001E0
1F0001E0
0F0001E0
0F0001E0
0F0001E0
0F8003E0
07C007C0
07E00FC0
03F83F80
01FFFF00
00FFFE00
007FFC00
000FE000
ENDCHAR
STARTCHAR V
ENCODING 86
SWIDTH 624 0
DWIDTH 26 0
BBX 26 27 0 0
BITMAP
78000F80
7C000F00
3C000F00
3E001F00
1E001E00
1E001E00
1F003C00
0F003C00
0F003C00
0F807800
07807800
0780F800
03C0F000
03C0F000
03E1F000
01E1E000
01E1E000
00F3C000
00F3C000
00F3C000
007F8000
007F8000
007F8000
003F0000
003F0000
001E0000
001E0000
ENDCHAR
STARTCHAR W
ENCODING 87
SWIDTH 936 0
DWIDTH 39 0
BBX 39 27 0 0
BITMAP
3C0000007C
3C007C0078
3C007C0078
3E007E0078
1E007E00F0
1E00FE00F0
1F00FE00F0
0F00EF01F0
0F01EF01E0
0F01EF01E0
0781C781E0
0783C783C0
0783C783C0
07C3C3C3C0
03C383C3C0
03C783C780
03C781E780
01E701E780
01EF01EF00
01EF00FF00
00FE00FF00
00FE00FE00
00FE00FE00
00FE007E00
007C007E00
007C007C00
007C003C00
ENDCHAR
STARTCHAR X
ENCODING 88
SWIDTH 648 0
DWIDTH 27 0
BBX 27 27 0 0
BITMAP
7C000F80
3E001F00
1F001E00
0F803E00
0F807C00
07C0F800
03E0F000
01F1F000
00F3E000
00FBC000
007FC000
003F8000
001F0000
003F0000
003F8000
007FC000
00FBE000
01F1E000
01E1F000
03E0F800
07C07C00
0F803E00
0F003E00
1F001F00
3E000F80
7C0007C0
7C0003C0
ENDCHAR
STARTCHAR Y
ENCODING 89
SWIDTH 576 0
DWIDTH 24 0
BBX 24 27 0 0
BITMAP
7C001E
3C003C
3E007C
1F0078
0F00F8
0F81F0
07C1E0
03C3E0
03E7C0
01F780
00FF80
00FF00
007E00
003E00
003C00
003C00
003C00
003C00
003C00
003C00
003C00
003C00
003C00
003C00
003C00
003C00
003C00
ENDCHAR
STARTCHAR Z
ENCODING 90
SWIDTH 600 0
DWIDTH 25 0
BBX 25 27 0 0
BITMAP
3FFFFF00
3FFFFE00
3FFFFC00
3FFFFC00
0000F800
0000F000
0001F000
0003E000
0003C000
0007C000
000F8000
000F0000
001E0000
003E0000
003C0000
00780000
00F80000
00F00000
01E00000
03E00000
07C00000
07800000
0F800000
1FFFFF00
1FFFFF00
3FFFFF00
7FFFFF00
ENDCHAR
STARTCHAR [
ENCODING 91
SWIDTH 336 0
DWIDTH 14 0
BBX 14 36 0 -5
BITMAP
1FF0
1FF0
1FF0
1E00
1E00
1E00
1E00
1E00
1E00
1E00
1E00
1E00
1E00
1E00
1E00
1E00
1E00
1E00
1E00
1E00
1E00
1E00
1E00
1E00
1E00
1E00
1E00
1E00
1E00
1E00
1E00
1E00
1E00
1FF0
1FF0
1FF0
ENDCHAR
STARTCHAR \
ENCODING 92
SWIDTH 312 0
DWIDTH 13 0
BBX 13 33 0 -3
BITMAP
F000
F000
7000
7800
7800
3800
3800
3C00
3C00
1C00
1E00
1E00
0E00
0E00
0F00
0F00
0700
0780
0780
0380
0380
03C0
03C0
01C0
01E0
01E0
00E0
00E0
00F0
00F0
0070
0078
0078
ENDCHAR
STARTCHAR ]
ENCODING 93
SWIDTH 336 0
DWIDTH 14 0
BBX 14 36 0 -5
BITMAP
3FC0
3FC0
3FC0
01C0
01C0
01C0
01C0
01C0
01C0
01C0
01C0
01C0
01C0
01C0
01C0
01C0
01C0
01C0
01C0
01C0
01C0
01C0
01C0
01C0
01C0
01C0
01C0
01C0
01C0
01C0
01C0
01C0
01C0
3FC0
3FC0
3FC0
ENDCHAR
STARTCHAR ^
ENCODING 94
SWIDTH 552 0
DWIDTH 23 0
BBX 23 27 0 0
BITMAP
007C00
007C00
00FE00
01EF00
03C780
03C780
0783C0
0F01E0
0F01E0
1E00F0
3C0078
000000
000000
000000
000000
000000
000000
000000
000000
000000
000000
000000
000000
000000
000000
000000
000000
ENDCHAR
STARTCHAR _
ENCODING 95
SWIDTH 480 0
DWIDTH 20 0
BBX 22 5 -1 -5
BITMAP
000000
000000
000000
FFFFF0
FFFFF0
ENDCHAR
STARTCHAR `
ENCODING 96
SWIDTH 432 0
DWIDTH 18 0
BBX 19 27 0 0
BITMAP
FFFFC0
FFFFC0
FFFFC0
F001C0
F001C0
F001C0
F001C0
F001C0
F001C0
F001C0
F001C0
F001C0
F001C0
F001C0
F001C0
F001C0
F001C0
F001C0
F001C0
F001C0
F001C0
F001C0
F001C0
F001C0
FFFFC0
FFFFC0
FFFFC0
ENDCHAR
STARTCHAR a
ENCODING 97
SWIDTH 504 0
DWIDTH 21 0
BBX 21 20 0 0
BITMAP
03F800
0FFE00
0FFF00
0FFF80
1C0F80
1007C0
0003C0
007FC0
03FFC0
07FFC0
0FC3C0
1E03C0
3C03C0
3C03C0
3C07C0
3E1FC0
3FFFC0
1FFFC0
0FFBC0
07E3C0
ENDCHAR
STARTCHAR b
ENCODING 98
SWIDTH 576 0
DWIDTH 24 0
BBX 24 27 0 0
BITMAP
1E0000
1E0000
1E0000
1E0000
1E0000
1E0000
1E0000
1E7E00
1FFFC0
1FFFE0
1FFFF0
1F83F8
1E00F8
1E007C
1E003C
1E003C
1E003C
1E003C
1E003C
1E003C
1E007C
1E00F8
1F81F8
1FFFF0
1FFFE0
1FFFC0
1E7F00
ENDCHAR
STARTCHAR c
ENCODING 99
SWIDTH 480 0
DWIDTH 20 0
BBX 20 20 0 0
BITMAP
007E00
01FF80
07FFC0
0FFFC0
0FC1C0
1F0040
1E0000
3C0000
3C0000
3C0000
3C0000
3C0000
3C0000
3E0000
1F0040
0FC1C0
0FFFC0
07FFC0
01FF80
007E00
ENDCHAR
STARTCHAR d
ENCODING 100
SWIDTH 576 0
DWIDTH 24 0
BBX 24 27 0 0
BITMAP
000078
000078
000078
000078
000078
000078
000078
007E78
03FFF8
07FFF8
0FFFF8
1FC1F8
1F0078
3E0078
3C0078
3C0078
3C0078
3C0078
3C0078
3C0078
3E0078
1F0078
1FC1F8
0FFFF8
07FFF8
03FFF8
007E78
ENDCHAR
STARTCHAR e
ENCODING 101
SWIDTH 528 0
DWIDTH 22 0
BBX 22 20 0 0
BITMAP
00FE00
03FF00
07FFC0
0FFFC0
1F83E0
1E01E0
3E00F0
3C00F0
3FFFF0
3FFFF0
3FFFF0
3FFFF0
3C0000
3C0000
1E0030
1F80F0
0FFFF0
07FFF0
03FFC0
007F00
ENDCHAR
STARTCHAR f
ENCODING 102
SWIDTH 384 0
DWIDTH 16 0
BBX 16 27 0 0
BITMAP
00FE
03FE
07FE
07FE
0F80
0F00
0F00
7FFE
7FFE
7FFE
7FFE
0F00
0F00
0F00
0F00
0F00
0F00
0F00
0F00
0F00
0F00
0F00
0F00
0F00
0F00
0F00
0F00
ENDCHAR
STARTCHAR g
ENCODING 103
SWIDTH 504 0
DWIDTH 21 0
BBX 21 27 0 -7
BITMAP
01FFF0
07FFF0
1FFFF0
1FFFF0
3E0F80
3C0780
3C0380
3C03C0
3C0780
1E0F80
1FFF80
0FFF00
07FE00
0FF800
1E0000
1F8000
0FF800
07FF00
1FFFC0
3C0FE0
7801E0
7800F0
7C01F0
7FFFE0
3FFFE0
1FFF80
07FE00
ENDCHAR
STARTCHAR h
ENCODING 104
SWIDTH 576 0
DWIDTH 24 0
BBX 24 27 0 0
BITMAP
1E0000
1E0000
1E0000
1E0000
1E0000
1E0000
1E0000
1E3F00
1EFFC0
1FFFE0
1FFFF0
1FC1F0
1F00F8
1E0078
1E0078
1E0078
1E0078
1E0078
1E0078
1E0078
1E0078
1E0078
1E0078
1E0078
1E0078
1E0078
1E0078
ENDCHAR
STARTCHAR i
ENCODING 105
SWIDTH 240 0
DWIDTH 10 0
BBX 10 27 0 0
BITMAP
0C00
1E00
3F00
1E00
0C00
0000
1E00
1E00
1E00
1E00
1E00
1E00
1E00
1E00
1E00
1E00
1E00
1E00
1E00
1E00
1E00
1E00
1E00
1E00
1E00
1E00
0000
ENDCHAR
STARTCHAR j
ENCODING 106
SWIDTH 240 0
DWIDTH 10 0
BBX 11 34 -1 -7
BITMAP
0600
0F00
0F80
0700
0200
0000
0000
0F00
0F00
0F00
0F00
0F00
0F00
0F00
0F00
0F00
0F00
0F00
0F00
0F00
0F00
0F00
0F00
0F00
0F00
0F00
0F00
0F00
0F00
1F00
FE00
FE00
FC00
F800
ENDCHAR
STARTCHAR k
ENCODING 107
SWIDTH 504 0
DWIDTH 21 0
BBX 22 27 0 0
BITMAP
1E0000
1E0000
1E0000
1E0000
1E0000
1E0000
1E0000
1E01F0
1E07E0
1E0FC0
1E1F80
1E3F00
1E7C00
1EF800
1FF000
1FE000
1FE000
1FF000
1EF800
1E7C00
1E3E00
1E1F00
1E0F80
1E0FC0
1E07E0
1E03F0
1E01F8
ENDCHAR
STARTCHAR l
ENCODING 108
SWIDTH 312 0
DWIDTH 13 0
BBX 13 27 0 0
BITMAP
1E00
1E00
1E00
1E00
1E00
1E00
1E00
1E00
1E00
1E00
1E00
1E00
1E00
1E00
1E00
1E00
1E00
1E00
1E00
1E00
1E00
1E00
1F00
1FF0
0FF0
07F0
03F0
ENDCHAR
STARTCHAR m
ENCODING 109
SWIDTH 888 0
DWIDTH 37 0
BBX 37 20 0 0
BITMAP
1E3F01F800
1EFFCFFE00
1FFFFFFF00
1FFFFFFF80
1F83FE0F80
1F00F807C0
1E00F003C0
1E007803C0
1E007803C0
1E007803C0
1E007803C0
1E007803C0
1E007803C0
1E007803C0
1E007803C0
1E007803C0
1E007803C0
1E007803C0
1E007803C0
1E007803C0
ENDCHAR
STARTCHAR n
ENCODING 110
SWIDTH 576 0
DWIDTH 24 0
BBX 24 20 0 0
BITMAP
1E3F00
1EFFC0
1FFFE0
1FFFF0
1FC1F0
1F00F8
1E0078
1E0078
1E0078
1E0078
1E0078
1E0078
1E0078
1E0078
1E0078
1E0078
1E0078
1E0078
1E0078
1E0078
ENDCHAR
STARTCHAR o
ENCODING 111
SWIDTH 576 0
DWIDTH 24 0
BBX 24 20 0 0
BITMAP
007F00
01FFC0
07FFE0
0FFFF0
0FC1F8
1F00F8
1E007C
3C003C
3C003C
3C001C
3C001C
3C003C
3C003C
3E007C
1F00F8
1FC1F8
0FFFF0
07FFE0
01FFC0
007E00
ENDCHAR
STARTCHAR p
ENCODING 112
SWIDTH 576 0
DWIDTH 24 0
BBX 24 27 0 -7
BITMAP
1E7F00
1FFFC0
1FFFE0
1FFFF0
1F83F8
1E00F8
1E007C
1E003C
1E003C
1E003C
1E003C
1E003C
1E003C
1E007C
1E00F8
1F83F8
1FFFF0
1FFFE0
1FFFC0
1EFE00
1E0000
1E0000
1E0000
1E0000
1E0000
1E0000
1E0000
ENDCHAR
STARTCHAR q
ENCODING 113
SWIDTH 576 0
DWIDTH 24 0
BBX 24 27 0 -7
BITMAP
007E78
03FFF8
07FFF8
0FFFF8
1FC1F8
1F0078
3E0078
3C0078
3C0078
3C0078
3C0078
3C0078
3C0078
3E0078
1F0078
1FC1F8
0FFFF8
07FFF8
03FFF8
007F78
000078
000078
000078
000078
000078
000078
000078
ENDCHAR
STARTCHAR r
ENCODING 114
SWIDTH 384 0
DWIDTH 16 0
BBX 16 20 0 0
BITMAP
1E7E
1EFE
1FFE
1FFE
1F80
1F00
1E00
1E00
1E00
1E00
1E00
1E00
1E00
1E00
1E00
1E00
1E00
1E00
1E00
1E00
ENDCHAR
STARTCHAR s
ENCODING 115
SWIDTH 456 0
DWIDTH 19 0
BBX 19 20 0 0
BITMAP
03F800
0FFE00
1FFF00
1FFF00
3E0700
3C0100
3C0000
3E0000
1FE000
1FFC00
07FF00
01FF80
000F80
000780
200380
3C0780
3FFF80
3FFF00
1FFE00
03F800
ENDCHAR
STARTCHAR t
ENCODING 116
SWIDTH 408 0
DWIDTH 17 0
BBX 17 24 0 0
BITMAP
0F0000
0F0000
0F0000
0F0000
7FFE00
7FFE00
7FFE00
7FFE00
0F0000
0F0000
0F0000
0F0000
0F0000
0F0000
0F0000
0F0000
0F0000
0F0000
0F0000
0F8000
0FFE00
07FE00
03FE00
00FE00
ENDCHAR
STARTCHAR u
ENCODING 117
SWIDTH 576 0
DWIDTH 24 0
BBX 24 20 0 0
BITMAP
1E0078
1E0078
1E0078
1E0078
1E0078
1E0078
1E0078
1E0078
1E0078
1E0078
1E0078
1E0078
1E0078
1E0078
1F00F8
0F83F8
0FFFF8
07FFF8
03FF78
00FC78
ENDCHAR
STARTCHAR v
ENCODING 118
SWIDTH 528 0
DWIDTH 22 0
BBX 22 20 0 0
BITMAP
780078
7800F0
3C00F0
3C01F0
3E01E0
1E01E0
1E03C0
0F03C0
0F0780
078780
078780
078F00
03CF00
03CE00
01FE00
01FE00
00FC00
00FC00
00F800
007800
ENDCHAR
STARTCHAR w
ENCODING 119
SWIDTH 816 0
DWIDTH 34 0
BBX 34 20 0 0
BITMAP
7801E00780
3C01E00780
3C01F00780
3C03F00F00
1E03F80F00
1E07F80F00
1E07B81E00
0F073C1E00
0F0F3C1E00
0F0F1C3C00
078E1E3C00
079E0E3C00
079E0F7800
079C0F7800
03FC077800
03F807F000
03F807F000
01F803F000
01F003E000
01F003E000
ENDCHAR
STARTCHAR x
ENCODING 120
SWIDTH 504 0
DWIDTH 21 0
BBX 21 20 0 0
BITMAP
3C03E0
3E03C0
1F0780
0F0F80
079F00
07DE00
03FC00
01FC00
00F800
00F800
01F800
03FC00
03FE00
079F00
0F8F00
1F0780
1E07C0
3C03E0
7C01E0
7800F0
ENDCHAR
STARTCHAR y
ENCODING 121
SWIDTH 528 0
DWIDTH 22 0
BBX 22 27 0 -7
BITMAP
780078
7800F0
3C00F0
3C01F0
1E01E0
1E01E0
1E03C0
0F03C0
0F03C0
078780
078780
03CF00
03CF00
01CE00
01FE00
01FE00
00FC00
00FC00
007800
007800
007800
00F000
01F000
0FE000
0FE000
0FC000
0F0000
ENDCHAR
STARTCHAR z
ENCODING 122
SWIDTH 456 0
DWIDTH 19 0
BBX 19 20 0 0
BITMAP
3FFFC0
3FFF80
3FFF80
3FFF00
001E00
003E00
003C00
007800
00F800
00F000
01E000
03E000
03C000
078000
0F8000
0F0000
1FFF80
3FFF80
3FFF80
7FFF80
ENDCHAR
STARTCHAR {
ENCODING 123
SWIDTH 336 0
DWIDTH 14 0
BBX 14 36 0 -5
BITMAP
00F8
01F8
03F8
03C0
0380
0380
0380
0380
0380
0380
0380
0780
0780
0780
0F80
1F00
3E00
3C00
3E00
1F00
0F00
0780
0780
0780
0380
0380
0380
0380
0380
0380
0380
0380
03C0
03F8
01F8
00F8
ENDCHAR
STARTCHAR |
ENCODING 124
SWIDTH 216 0
DWIDTH 9 0
BBX 9 40 0 -10
BITMAP
1C00
1C00
1C00
1C00
1C00
1C00
1C00
1C00
1C00
1C00
1C00
1C00
1C00
1C00
1C00
1C00
1C00
1C00
1C00
1C00
1C00
1C00
1C00
1C00
1C00
1C00
1C00
1C00
1C00
1C00
1C00
1C00
1C00
1C00
1C00
1C00
1C00
1C00
1C00
1C00
ENDCHAR
STARTCHAR }
ENCODING 125
SWIDTH 336 0
DWIDTH 14 0
BBX 14 36 0 -5
BITMAP
3C00
3F00
3F00
0F80
0780
0780
0780
0780
0780
0780
0780
0780
0780
0380
03C0
03F0
01F0
0070
01F0
03F0
03C0
0380
0380
0780
0780
0780
0780
0780
0780
0780
0780
0780
0F80
3F00
3F00
3C00
ENDCHAR
STARTCHAR ~
ENCODING 126
SWIDTH 528 0
DWIDTH 22 0
BBX 22 17 0 0
BITMAP
0780C0
0FE0E0
0FF0E0
1FF9E0
1C7FC0
3C3FC0
381F80
180F00
000000
000000
000000
000000
000000
000000
000000
000000
000000
ENDCHAR
STARTCHAR U+00A0
ENCODING 160
SWIDTH 240 0
DWIDTH 10 0
BBX 10 46 0 -10
BITMAP
0000
0000
0000
0000
0000
0000
0000
0000
0000
0000
0000
0000
0000
0000
0000
0000
0000
0000
0000
0000
0000
0000
0000
0000
0000
0000
0000
0000
0000
0000
0000
0000
0000
0000
0000
0000
0000
0000
0000
0000
0000
0000
0000
0000
0000
0000
ENDCHAR
STARTCHAR U+00A1
ENCODING 161
SWIDTH 288 0
DWIDTH 12 0
BBX 12 27 0 -7
BITMAP
0400
0E00
1F00
0F00
0600
0000
0000
0E00
0E00
0E00
0E00
0E00
0E00
0E00
0F00
0F00
0F00
0F00
0F00
0F00
0F00
0F00
0F00
0F00
0F00
0F00
0F00
ENDCHAR
STARTCHAR U+00A2
ENCODING 162
SWIDTH 480 0
DWIDTH 20 0
BBX 20 25 0 -3
BITMAP
003C00
003C00
007E00
01FF80
07FFC0
0FFFC0
0FC1C0
1F0040
1E0000
3C0000
3C0000
3C0000
3C0000
3C0000
3C0000
3E0000
1F0040
0FC1C0
0FFFC0
07FFC0
01FF80
007F00
003C00
003C00
003C00
ENDCHAR
STARTCHAR U+00A3
ENCODING 163
SWIDTH 504 0
DWIDTH 21 0
BBX 21 27 0 0
BITMAP
001F00
007FC0
00FFE0
01FFE0
01F1C0
03E040
03C000
03C000
03C000
03C000
03C000
03C000
038000
1FFF00
1FFE00
1FFE00
1FFE00
078000
078000
078000
070000
0F0000
0F0000
1FFFF0
1FFFE0
3FFFE0
3FFFC0
ENDCHAR
STARTCHAR U+00A4
ENCODING 164
SWIDTH 576 0
DWIDTH 24 0
BBX 24 20 0 0
BITMAP
040010
1E0038
3F7EFC
1FFFF8
0FFFF0
07FFE0
07C3F0
0F80F0
0F00F0
0F00F0
0F00F0
0F00F0
0F80F0
07C3F0
07FFE0
0FFFF0
1FFFFC
3F7EFC
1E0038
040010
ENDCHAR
STARTCHAR U+00A5
ENCODING 165
SWIDTH 600 0
DWIDTH 25 0
BBX 25 27 0 0
BITMAP
7C001F00
3E003E00
1E003C00
1F007C00
0F80F800
0780F000
07C1F000
03E3E000
01E3C000
1FF7FC00
1FFFFC00
1FFFFC00
007F0000
003E0000
003E0000
003E0000
1FFFFC00
1FFFFC00
1FFFFC00
003E0000
003E0000
003E0000
003E0000
003E0000
003E0000
003E0000
003E0000
ENDCHAR
STARTCHAR U+00A6
ENCODING 166
SWIDTH 216 0
DWIDTH 9 0
BBX 9 40 0 -10
BITMAP
1C00
1C00
1C00
1C00
1C00
1C00
1C00
1C00
1C00
1C00
1C00
1C00
1C00
1C00
1C00
1C00
0000
0000
0000
0000
0000
0000
0000
0000
1C00
1C00
1C00
1C00
1C00
1C00
1C00
1C00
1C00
1C00
1C00
1C00
1C00
1C00
1C00
1C00
ENDCHAR
STARTCHAR U+00A7
ENCODING 167
SWIDTH 480 0
DWIDTH 20 0
BBX 20 34 0 -7
BITMAP
03F800
0FFE00
1FFF00
3E0F80
3C0780
3C0200
3C0000
3C0000
3E0000
1F8000
0FF000
07FC00
1FFF00
3FFF80
7C0F80
7807C0
7803C0
7803C0
7C03C0
3F0780
3FFF80
0FFF00
03FE00
00FF00
001F80
000780
0007C0
0003C0
1803C0
3C0780
3E0F80
1FFF00
0FFE00
03F800
ENDCHAR
STARTCHAR U+00A8
ENCODING 168
SWIDTH 432 0
DWIDTH 18 0
BBX 19 27 0 0
BITMAP
FFFFC0
FFFFC0
FFFFC0
F001C0
F001C0
F001C0
F001C0
F001C0
F001C0
F001C0
F001C0
F001C0
F001C0
F001C0
F001C0
F001C0
F001C0
F001C0
F001C0
F001C0
F001C0
F001C0
F001C0
F001C0
FFFFC0
FFFFC0
FFFFC0
ENDCHAR
STARTCHAR U+00A9
ENCODING 169
SWIDTH 768 0
DWIDTH 32 0
BBX 32 27 0 0
BITMAP
000FF000
003FFC00
00F00F00
01C00380
038001C0
0607F060
0E1FFC70
0C3C1C30
18780418
18F00018
18E0001C
30E0000C
30E0000C
30E0000C
30E0000C
30E0000C
18F0001C
18780418
183C1C18
0C1FFC30
0E07F070
07000060
038001C0
01C00380
00F80F00
003FFC00
000FF000
ENDCHAR
STARTCHAR U+00AA
ENCODING 170
SWIDTH 288 0
DWIDTH 12 0
BBX 12 27 0 0
BITMAP
3F80
3FC0
21E0
00E0
07E0
1FE0
3CE0
70E0
70E0
71E0
3FE0
1EE0
0000
0000
0000
0000
0000
0000
0000
0000
0000
0000
0000
0000
0000
0000
0000
ENDCHAR
STARTCHAR U+00AB
ENCODING 171
SWIDTH 552 0
DWIDTH 23 0
BBX 23 20 0 0
BITMAP
00F0F0
01E1E0
01C1C0
03C3C0
078780
0F0F00
1E1E00
1E1E00
3C3C00
3C3C00
1E1E00
0F0F00
078780
03C3C0
03C3C0
01E1E0
00F0F0
000000
000000
000000
ENDCHAR
STARTCHAR U+00AC
ENCODING 172
SWIDTH 504 0
DWIDTH 21 0
BBX 21 19 0 0
BITMAP
1FFFE0
1FFFE0
1FFFE0
0001E0
0001E0
0001E0
0001E0
0001E0
0001E0
0001E0
0001E0
000000
000000
000000
000000
000000
000000
000000
000000
ENDCHAR
STARTCHAR U+00AD
ENCODING 173
SWIDTH 360 0
DWIDTH 15 0
BBX 15 13 0 0
BITMAP
7FFC
7FFC
7FFC
7FFC
0000
0000
0000
0000
0000
0000
0000
0000
0000
ENDCHAR
STARTCHAR U+00AE
ENCODING 174
SWIDTH 768 0
DWIDTH 32 0
BBX 32 27 0 0
BITMAP
000FF000
003FFE00
00F00F00
01C00380
038001C0
06000060
0E1FE070
0C1FF030
181C7818
181C3C18
181C3C1C
301C380C
301C780C
301FF00C
301FE00C
301CE00C
181CF01C
181C7818
181C3C18
0C1C1C30
0E1C1E70
07000060
038001C0
01C00380
00F80F00
003FFE00
000FF000
ENDCHAR
STARTCHAR U+00AF
ENCODING 175
SWIDTH 432 0
DWIDTH 18 0
BBX 19 27 0 0
BITMAP
FFFFC0
FFFFC0
FFFFC0
F001C0
F001C0
F001C0
F001C0
F001C0
F001C0
F001C0
F001C0
F001C0
F001C0
F001C0
F001C0
F001C0
F001C0
F001C0
F001C0
F001C0
F001C0
F001C0
F001C0
F001C0
FFFFC0
FFFFC0
FFFFC0
ENDCHAR
STARTCHAR U+00B0
ENCODING 176
SWIDTH 384 0
DWIDTH 16 0
BBX 16 27 0 0
BITMAP
07C0
0FF0
1FF8
3C78
383C
381C
383C
3C78
1FF8
0FF0
07C0
0000
0000
0000
0000
0000
0000
0000
0000
0000
0000
0000
0000
0000
0000
0000
0000
ENDCHAR
STARTCHAR U+00B1
ENCODING 177
SWIDTH 504 0
DWIDTH 21 0
BBX 21 23 0 0
BITMAP
007000
007000
007000
007000
007000
007000
1FFFE0
1FFFE0
1FFFE0
007000
007000
007000
007000
007000
007000
000000
000000
000000
000000
000000
1FFFE0
1FFFE0
1FFFE0
ENDCHAR
STARTCHAR U+00B2
ENCODING 178
SWIDTH 312 0
DWIDTH 13 0
BBX 13 27 0 0
BITMAP
1F80
3FC0
3FE0
30E0
20F0
00E0
00E0
01E0
01C0
03C0
0380
0780
0F00
0E00
1FF0
1FF0
3FF0
0000
0000
0000
0000
0000
0000
0000
0000
0000
0000
ENDCHAR
STARTCHAR U+00B3
ENCODING 179
SWIDTH 312 0
DWIDTH 13 0
BBX 13 27 0 0
BITMAP
7FF0
7FE0
7FE0
01C0
0380
0380
07C0
0FE0
00F0
0070
0070
0070
2070
70F0
7FE0
3FC0
0F80
0000
0000
0000
0000
0000
0000
0000
0000
0000
0000
ENDCHAR
STARTCHAR U+00B4
ENCODING 180
SWIDTH 432 0
DWIDTH 18 0
BBX 19 27 0 0
BITMAP
FFFFC0
FFFFC0
FFFFC0
F001C0
F001C0
F001C0
F001C0
F001C0
F001C0
F001C0
F001C0
F001C0
F001C0
F001C0
F001C0
F001C0
F001C0
F001C0
F001C0
F001C0
F001C0
F001C0
F001C0
F001C0
FFFFC0
FFFFC0
FFFFC0
ENDCHAR
STARTCHAR U+00B5
ENCODING 181
SWIDTH 552 0
DWIDTH 23 0
BBX 23 27 0 -7
BITMAP
1E00F0
1E00F0
1E00F0
1E00F0
1E00F0
1E00F0
1E00F0
1E00F0
1E00F0
1E00F0
1E00F0
1E00F0
1E00F0
1F00F0
1F01F0
1F83F0
1FFFF0
1FFFF0
1FFFF0
1E7CF0
1E0000
1E0000
1E0000
1E0000
1E0000
1E0000
1E0000
ENDCHAR
STARTCHAR U+00B6
ENCODING 182
SWIDTH 528 0
DWIDTH 22 0
BBX 22 34 0 -7
BITMAP
01FFF8
07FFF8
1FF8E0
1FF8E0
3FF8E0
3FF8E0
3FF8E0
3FF8E0
3FF8E0
3FF8E0
1FF8E0
1FF8E0
0FF8E0
03F8E0
0038E0
0038E0
0038E0
0038E0
0038E0
0038E0
0038E0
0038E0
0038E0
0038E0
0038E0
0038E0
0038E0
0038E0
0038E0
0038E0
0038E0
0038E0
0038E0
0038E0
ENDCHAR
STARTCHAR U+00B7
ENCODING 183
SWIDTH 240 0
DWIDTH 10 0
BBX 10 16 0 0
BITMAP
0800
0C00
1E00
1E00
0C00
0C00
0000
0000
0000
0000
0000
0000
0000
0000
0000
0000
ENDCHAR
STARTCHAR U+00B8
ENCODING 184
SWIDTH 432 0
DWIDTH 18 0
BBX 19 27 0 0
BITMAP
FFFFC0
FFFFC0
FFFFC0
F001C0
F001C0
F001C0
F001C0
F001C0
F001C0
F001C0
F001C0
F001C0
F001C0
F001C0
F001C0
F001C0
F001C0
F001C0
F001C0
F001C0
F001C0
F001C0
F001C0
F001C0
FFFFC0
FFFFC0
FFFFC0
ENDCHAR
STARTCHAR U+00B9
ENCODING 185
SWIDTH 216 0
DWIDTH 9 0
BBX 9 27 0 0
BITMAP
0400
0C00
1C00
1C00
1C00
1C00
1C00
1C00
1C00
1C00
1C00
1C00
1C00
1C00
1C00
1C00
1C00
0000
0000
0000
0000
0000
0000
0000
0000
0000
0000
ENDCHAR
STARTCHAR U+00BA
ENCODING 186
SWIDTH 360 0
DWIDTH 15 0
BBX 15 27 0 0
BITMAP
07C0
1FF0
3C78
383C
701C
701C
701C
701C
383C
3C78
1FF0
07C0
0000
0000
0000
0000
0000
0000
0000
0000
0000
0000
0000
0000
0000
0000
0000
ENDCHAR
STARTCHAR U+00BB
ENCODING 187
SWIDTH 552 0
DWIDTH 23 0
BBX 23 20 0 0
BITMAP
3C1E00
1E1E00
0F0F00
0F0780
0783C0
03C1C0
01E1E0
00E0F0
00F078
00F0F0
01E1E0
03C1E0
0783C0
078780
0F0F00
1E1E00
3C1E00
000000
000000
000000
ENDCHAR
STARTCHAR U+00BC
ENCODING 188
SWIDTH 768 0
DWIDTH 32 0
BBX 32 28 0 -1
BITMAP
04000F00
0C000E00
1C001E00
1C001C00
1C003C00
1C003800
1C007800
1C007000
1C00F000
1C00E000
1C01E000
1C01C000
1C03C008
1C038018
1C078038
1C070078
1C0F00F8
000E01F8
001E01F8
001C03B8
00380738
00380E38
00701FFE
00703FFE
00E07FFE
00E00038
01C00038
00000038
ENDCHAR
STARTCHAR U+00BD
ENCODING 189
SWIDTH 816 0
DWIDTH 34 0
BBX 34 28 0 -1
BITMAP
04000F0000
0C000E0000
1C001E0000
1C001C0000
1C003C0000
1C00380000
1C00780000
1C00700000
1C00F00000
1C00E00000
1C01E00000
1C01C1F800
1C03C3FC00
1C0383FE00
1C07830E00
1C07060F00
1C0F000E00
000E000E00
001E001E00
001C001C00
0038003C00
0038003800
0070007800
007000F000
00E000E000
00E001FF00
01C001FF00
000003FF00
ENDCHAR
STARTCHAR U+00BE
ENCODING 190
SWIDTH 840 0
DWIDTH 35 0
BBX 35 28 0 -1
BITMAP
7FF001E000
7FE001C000
7FE003C000
01C0038000
0380078000
0380070000
07C00F0000
0FE00E0000
00F01E0000
00701C0000
00703C0000
0070380000
2070780100
70F0700300
7FE0F00700
3FC0E00F00
0F81E01F00
0001C03F00
0003C03F00
0003807700
000700E700
000701C700
000E03FFC0
000E07FFC0
001C0FFFC0
001C000700
0038000700
0000000700
ENDCHAR
STARTCHAR U+00BF
ENCODING 191
SWIDTH 432 0
DWIDTH 18 0
BBX 18 26 0 -7
BITMAP
002000
007000
00F000
00F800
007000
002000
000000
002000
007000
00F800
007800
007800
00F800
03F800
07E000
0FC000
1F0000
3E0000
3C0000
3C0000
3E0000
1F0300
1FFF00
0FFF80
07FF00
01FC00
ENDCHAR
STARTCHAR U+00C0
ENCODING 192
SWIDTH 648 0
DWIDTH 27 0
BBX 27 35 0 0
BITMAP
00780000
003C0000
003C0000
001E0000
000F0000
00070000
00000000
00000000
001E0000
001F0000
001F0000
003F0000
003F8000
007F8000
007BC000
007BC000
00F3E000
00F1E000
01F1E000
01E0F000
01E0F000
03C0F800
03C07800
07C07800
07803C00
07FFFC00
0FFFFE00
0FFFFE00
1FFFFE00
1E001F00
1E000F00
3E000F80
3C000780
7C0007C0
780007C0
ENDCHAR
STARTCHAR U+00C1
ENCODING 193
SWIDTH 648 0
DWIDTH 27 0
BBX 27 35 0 0
BITMAP
0003C000
00078000
00078000
000F0000
001E0000
001C0000
00000000
00000000
001E0000
001F0000
001F0000
003F0000
003F8000
007F8000
007BC000
007BC000
00F3E000
00F1E000
01F1E000
01E0F000
01E0F000
03C0F800
03C07800
07C07800
07803C00
07FFFC00
0FFFFE00
0FFFFE00
1FFFFE00
1E001F00
1E000F00
3E000F80
3C000780
7C0007C0
780007C0
ENDCHAR
STARTCHAR U+00C2
ENCODING 194
SWIDTH 648 0
DWIDTH 27 0
BBX 27 35 0 0
BITMAP
001F0000
001F8000
003FC000
0039C000
0070E000
00E07000
00000000
00000000
001E0000
001F0000
001F0000
003F0000
003F8000
007F8000
007BC000
007BC000
00F3E000
00F1E000
01F1E000
01E0F000
01E0F000
03C0F800
03C07800
07C07800
07803C00
07FFFC00
0FFFFE00
0FFFFE00
1FFFFE00
1E001F00
1E000F00
3E000F80
3C000780
7C0007C0
780007C0
ENDCHAR
STARTCHAR U+00C3
ENCODING 195
SWIDTH 648 0
DWIDTH 27 0
BBX 27 34 0 0
BITMAP
00780000
00FC7000
01FFE000
018FE000
0083C000
00000000
00000000
001E0000
001F0000
001F0000
003F0000
003F8000
007F8000
007BC000
007BC000
00F3E000
00F1E000
01F1E000
01E0F000
01E0F000
03C0F800
03C07800
07C07800
07803C00
07FFFC00
0FFFFE00
0FFFFE00
1FFFFE00
1E001F00
1E000F00
3E000F80
3C000780
7C0007C0
780007C0
ENDCHAR
STARTCHAR U+00C4
ENCODING 196
SWIDTH 648 0
DWIDTH 27 0
BBX 27 34 0 0
BITMAP
0040C000
00E1E000
01F3F000
00E1E000
0040C000
00000000
00000000
001E0000
001F0000
001F0000
003F0000
003F8000
007F8000
007BC000
007BC000
00F3E000
00F1E000
01F1E000
01E0F000
01E0F000
03C0F800
03C07800
07C07800
07803C00
07FFFC00
0FFFFE00
0FFFFE00
1FFFFE00
1E001F00
1E000F00
3E000F80
3C000780
7C0007C0
780007C0
ENDCHAR
STARTCHAR U+00C5
ENCODING 197
SWIDTH 648 0
DWIDTH 27 0
BBX 27 36 0 0
BITMAP
001E0000
003F0000
00218000
00618000
00218000
003F0000
001E0000
00000000
00000000
001E0000
001F0000
001F0000
003F0000
003F8000
007F8000
007BC000
007BC000
00F3E000
00F1E000
01F1E000
01E0F000
01E0F000
03C0F800
03C07800
07C07800
07803C00
07FFFC00
0FFFFE00
0FFFFE00
1FFFFE00
1E001F00
1E000F00
3E000F80
3C000780
7C0007C0
780007C0
ENDCHAR
STARTCHAR U+00C6
ENCODING 198
SWIDTH 888 0
DWIDTH 37 0
BBX 37 27 0 0
BITMAP
0000FFFFE0
0001FFFFE0
0003FFFFE0
0003FFFFE0
0007FE0000
0007BE0000
000FBE0000
000F3E0000
001E3E0000
003E3E0000
003C3FFF00
007C3FFF00
00783FFF00
00F83FFF00
00F03E0000
01FFFE0000
03FFFE0000
03FFFE0000
07FFFE0000
07803E0000
0F803E0000
0F003E0000
1F003E0000
3E003FFFE0
3E003FFFE0
7C003FFFE0
78003FFFE0
ENDCHAR
STARTCHAR U+00C7
ENCODING 199
SWIDTH 648 0
DWIDTH 27 0
BBX 27 35 0 -8
BITMAP
0007F800
003FFF00
00FFFF80
01FFFF80
03F80780
07E00180
0F800000
0F000000
1F000000
1E000000
1E000000
3E000000
3C000000
3C000000
3E000000
3E000000
1E000000
1E000000
1F000000
0F800000
0FC00000
07E00080
03F80780
01FFFF80
00FFFF80
003FFE00
0007F800
00030000
0007C000
0007E000
0000F000
0000F000
0000E000
001FC000
001F8000
ENDCHAR
STARTCHAR U+00C8
ENCODING 200
SWIDTH 552 0
DWIDTH 23 0
BBX 23 35 0 0
BITMAP
01E000
00F000
00F000
007800
003C00
001C00
000000
000000
0FFFF8
0FFFF8
0FFFF8
0FFFF8
0F0000
0F0000
0F0000
0F0000
0F0000
0F0000
0FFFC0
0FFFC0
0FFFC0
0FFFC0
0F0000
0F0000
0F0000
0F0000
0F0000
0F0000
0F0000
0F0000
0F0000
0FFFF8
0FFFF8
0FFFF8
0FFFF8
ENDCHAR
STARTCHAR U+00C9
ENCODING 201
SWIDTH 552 0
DWIDTH 23 0
BBX 23 35 0 0
BITMAP
000780
000F00
000F00
001E00
003C00
003800
000000
000000
0FFFF8
0FFFF8
0FFFF8
0FFFF8
0F0000
0F0000
0F0000
0F0000
0F0000
0F0000
0FFFC0
0FFFC0
0FFFC0
0FFFC0
0F0000
0F0000
0F0000
0F0000
0F0000
0F0000
0F0000
0F0000
0F0000
0FFFF8
0FFFF8
0FFFF8
0FFFF8
ENDCHAR
STARTCHAR U+00CA
ENCODING 202
SWIDTH 552 0
DWIDTH 23 0
BBX 23 35 0 0
BITMAP
007C00
007E00
00FF00
00E700
01C380
0381C0
000000
000000
0FFFF8
0FFFF8
0FFFF8
0FFFF8
0F0000
0F0000
0F0000
0F0000
0F0000
0F0000
0FFFC0
0FFFC0
0FFFC0
0FFFC0
0F0000
0F0000
0F0000
0F0000
0F0000
0F0000
0F0000
0F0000
0F0000
0FFFF8
0FFFF8
0FFFF8
0FFFF8
ENDCHAR
STARTCHAR U+00CB
ENCODING 203
SWIDTH 552 0
DWIDTH 23 0
BBX 23 34 0 0
BITMAP
008180
01C3C0
03E7E0
01C3C0
008180
000000
000000
0FFFF8
0FFFF8
0FFFF8
0FFFF8
0F0000
0F0000
0F0000
0F0000
0F0000
0F0000
0FFFC0
0FFFC0
0FFFC0
0FFFC0
0F0000
0F0000
0F0000
0F0000
0F0000
0F0000
0F0000
0F0000
0F0000
0FFFF8
0FFFF8
0FFFF8
0FFFF8
ENDCHAR
STARTCHAR U+00CC
ENCODING 204
SWIDTH 288 0
DWIDTH 12 0
BBX 12 35 0 0
BITMAP
7800
3C00
3C00
1E00
0F00
0700
0000
0000
0F00
0F00
0F00
0F00
0F00
0F00
0F00
0F00
0F00
0F00
0F00
0F00
0F00
0F00
0F00
0F00
0F00
0F00
0F00
0F00
0F00
0F00
0F00
0F00
0F00
0F00
0F00
ENDCHAR
STARTCHAR U+00CD
ENCODING 205
SWIDTH 288 0
DWIDTH 12 0
BBX 12 35 0 0
BITMAP
01E0
03C0
03C0
0780
0F00
0E00
0000
0000
0F00
0F00
0F00
0F00
0F00
0F00
0F00
0F00
0F00
0F00
0F00
0F00
0F00
0F00
0F00
0F00
0F00
0F00
0F00
0F00
0F00
0F00
0F00
0F00
0F00
0F00
0F00
ENDCHAR
STARTCHAR U+00CE
ENCODING 206
SWIDTH 288 0
DWIDTH 12 0
BBX 12 35 0 0
BITMAP
1F00
1F80
3FC0
39C0
70E0
E070
0000
0000
0F00
0F00
0F00
0F00
0F00
0F00
0F00
0F00
0F00
0F00
0F00
0F00
0F00
0F00
0F00
0F00
0F00
0F00
0F00
0F00
0F00
0F00
0F00
0F00
0F00
0F00
0F00
ENDCHAR
STARTCHAR U+00CF
ENCODING 207
SWIDTH 288 0
DWIDTH 12 0
BBX 14 34 -1 0
BITMAP
2060
70F0
F9F8
70F0
2060
0000
0000
0F00
0F00
0F00
0F00
0F00
0F00
0F00
0F00
0F00
0F00
0F00
0F00
0F00
0F00
0F00
0F00
0F00
0F00
0F00
0F00
0F00
0F00
0F00
0F00
0F00
0F00
0F00
ENDCHAR
STARTCHAR U+00D0
ENCODING 208
SWIDTH 696 0
DWIDTH 29 0
BBX 29 27 0 0
BITMAP
0FFF0000
0FFFE000
0FFFF800
0FFFFC00
0F00FE00
0F003F00
0F000F80
0F0007C0
0F0007C0
0F0003C0
0F0003E0
0F0003E0
7FFE01E0
7FFE01E0
7FFE01E0
0F0003E0
0F0003C0
0F0003C0
0F0007C0
0F000780
0F000F80
0F003F00
0F00FF00
0FFFFC00
0FFFF800
0FFFE000
0FFF0000
ENDCHAR
STARTCHAR U+00D1
ENCODING 209
SWIDTH 744 0
DWIDTH 31 0
BBX 31 34 0 0
BITMAP
001E0000
003F1C00
007FF800
0063F800
0020F000
00000000
00000000
0F0001E0
0F8001E0
0F8001E0
0FC001E0
0FE001E0
0FF001E0
0FF801E0
0FF801E0
0F7C01E0
0F3E01E0
0F1F01E0
0F1F01E0
0F0F81E0
0F07C1E0
0F03E1E0
0F01F1E0
0F01F1E0
0F00F9E0
0F007DE0
0F003FE0
0F001FE0
0F001FE0
0F000FE0
0F0007E0
0F0003E0
0F0003E0
0F0001E0
ENDCHAR
STARTCHAR U+00D2
ENCODING 210
SWIDTH 792 0
DWIDTH 33 0
BBX 33 35 0 0
BITMAP
000F000000
0007800000
0007800000
0003C00000
0001E00000
0000E00000
0000000000
0000000000
0007F00000
003FFE0000
00FFFF8000
01FFFFC000
03F80FE000
07E003F000
0FC001F800
0F0000F800
1F00007C00
1E00003C00
1E00003C00
3E00003C00
3C00003E00
3C00003E00
3C00003E00
3E00003C00
1E00003C00
1E00003C00
1F00007C00
0F8000F800
0F8001F800
07E003F000
03F80FE000
01FFFFC000
00FFFF8000
003FFE0000
000FF00000
ENDCHAR
STARTCHAR U+00D3
ENCODING 211
SWIDTH 792 0
DWIDTH 33 0
BBX 33 35 0 0
BITMAP
0000780000
0000F00000
0000F00000
0001E00000
0003C00000
0003800000
0000000000
0000000000
0007F00000
003FFE0000
00FFFF8000
01FFFFC000
03F80FE000
07E003F000
0FC001F800
0F0000F800
1F00007C00
1E00003C00
1E00003C00
3E00003C00
3C00003E00
3C00003E00
3C00003E00
3E00003C00
1E00003C00
1E00003C00
1F00007C00
0F8000F800
0F8001F800
07E003F000
03F80FE000
01FFFFC000
00FFFF8000
003FFE0000
000FF00000
ENDCHAR
STARTCHAR U+00D4
ENCODING 212
SWIDTH 792 0
DWIDTH 33 0
BBX 33 35 0 0
BITMAP
0007C00000
0007E00000
000FF00000
000E700000
001C380000
00381C0000
0000000000
0000000000
0007F00000
003FFE0000
00FFFF8000
01FFFFC000
03F80FE000
07E003F000
0FC001F800
0F0000F800
1F00007C00
1E00003C00
1E00003C00
3E00003C00
3C00003E00
3C00003E00
3C00003E00
3E00003C00
1E00003C00
1E00003C00
1F00007C00
0F8000F800
0F8001F800
07E003F000
03F80FE000
01FFFFC000
00FFFF8000
003FFE0000
000FF00000
ENDCHAR
STARTCHAR U+00D5
ENCODING 213
SWIDTH 792 0
DWIDTH 33 0
BBX 33 34 0 0
BITMAP
000F000000
001F8E0000
003FFC0000
0031FC0000
0010780000
0000000000
0000000000
0007F00000
003FFE0000
00FFFF8000
01FFFFC000
03F80FE000
07E003F000
0FC001F800
0F0000F800
1F00007C00
1E00003C00
1E00003C00
3E00003C00
3C00003E00
3C00003E00
3C00003E00
3E00003C00
1E00003C00
1E00003C00
1F00007C00
0F8000F800
0F8001F800
07E003F000
03F80FE000
01FFFFC000
00FFFF8000
003FFE0000
000FF00000
ENDCHAR
STARTCHAR U+00D6
ENCODING 214
SWIDTH 792 0
DWIDTH 33 0
BBX 33 34 0 0
BITMAP
0008180000
001C3C0000
003E7E0000
001C3C0000
0008180000
0000000000
0000000000
0007F00000
003FFE0000
00FFFF8000
01FFFFC000
03F80FE000
07E003F000
0FC001F800
0F0000F800
1F00007C00
1E00003C00
1E00003C00
3E00003C00
3C00003E00
3C00003E00
3C00003E00
3E00003C00
1E00003C00
1E00003C00
1F00007C00
0F8000F800
0F8001F800
07E003F000
03F80FE000
01FFFFC000
00FFFF8000
003FFE0000
000FF00000
ENDCHAR
STARTCHAR U+00D7
ENCODING 215
SWIDTH 504 0
DWIDTH 21 0
BBX 21 21 0 0
BITMAP
040180
0E03C0
1F87C0
07CF80
03FF00
01FE00
00FC00
00FC00
01FE00
03FF00
0FCF80
1F07C0
0E0380
040100
000000
000000
000000
000000
000000
000000
000000
ENDCHAR
STARTCHAR U+00D8
ENCODING 216
SWIDTH 792 0
DWIDTH 33 0
BBX 33 27 0 0
BITMAP
0007F00800
003FFE1C00
00FFFFB800
01FFFFF000
03F80FE000
07E003F000
0F8003F800
0F0007F800
1F000F7C00
1E001E3C00
1E00383C00
3E00703C00
3C00E03E00
3C03C03E00
3C07803E00
3E0F003C00
1E1E003C00
1E3C003C00
1F78007C00
0FF000F800
0FE001F800
07E003F000
07F80FE000
07FFFFC000
0EFFFF8000
1C3FFE0000
080FF00000
ENDCHAR
STARTCHAR U+00D9
ENCODING 217
SWIDTH 744 0
DWIDTH 31 0
BBX 31 35 0 0
BITMAP
001E0000
000F0000
000F0000
00078000
0003C000
0001C000
00000000
00000000
1F0001E0
1F0001E0
1F0001E0
1F0001E0
1F0001E0
1F0001E0
1F0001E0
1F0001E0
1F0001E0
1F0001E0
1F0001E0
1F0001E0
1F0001E0
1F0001E0
1F0001E0
1F0001E0
0F0001E0
0F0001E0
0F0001E0
0F8003E0
07C007C0
07E00FC0
03F83F80
01FFFF00
00FFFE00
007FFC00
000FE000
ENDCHAR
STARTCHAR U+00DA
ENCODING 218
SWIDTH 744 0
DWIDTH 31 0
BBX 31 35 0 0
BITMAP
0000F000
0001E000
0001E000
0003C000
00078000
00070000
00000000
00000000
1F0001E0
1F0001E0
1F0001E0
1F0001E0
1F0001E0
1F0001E0
1F0001E0
1F0001E0
1F0001E0
1F0001E0
1F0001E0
1F0001E0
1F0001E0
1F0001E0
1F0001E0
1F0001E0
0F0001E0
0F0001E0
0F0001E0
0F8003E0
07C007C0
07E00FC0
03F83F80
01FFFF00
00FFFE00
007FFC00
000FE000
ENDCHAR
STARTCHAR U+00DB
ENCODING 219
SWIDTH 744 0
DWIDTH 31 0
BBX 31 35 0 0
BITMAP
0007C000
0007E000
000FF000
000E7000
001C3800
00381C00
00000000
00000000
1F0001E0
1F0001E0
1F0001E0
1F0001E0
1F0001E0
1F0001E0
1F0001E0
1F0001E0
1F0001E0
1F0001E0
1F0001E0
1F0001E0
1F0001E0
1F0001E0
1F0001E0
1F0001E0
0F0001E0
0F0001E0
0F0001E0
0F8003E0
07C007C0
07E00FC0
03F83F80
01FFFF00
00FFFE00
007FFC00
000FE000
ENDCHAR
STARTCHAR U+00DC
ENCODING 220
SWIDTH 744 0
DWIDTH 31 0
BBX 31 34 0 0
BITMAP
00103000
00387800
007CFC00
00387800
00103000
00000000
00000000
1F0001E0
1F0001E0
1F0001E0
1F0001E0
1F0001E0
1F0001E0
1F0001E0
1F0001E0
1F0001E0
1F0001E0
1F0001E0
1F0001E0
1F0001E0
1F0001E0
1F0001E0
1F0001E0
0F0001E0
0F0001E0
0F0001E0
0F8003E0
07C007C0
07E00FC0
03F83F80
01FFFF00
00FFFE00
007FFC00
000FE000
ENDCHAR
STARTCHAR U+00DD
ENCODING 221
SWIDTH 576 0
DWIDTH 24 0
BBX 24 35 0 0
BITMAP
000780
000F00
000F00
001E00
003C00
003800
000000
000000
7C001E
3C003C
3E007C
1F0078
0F00F8
0F81F0
07C1E0
03C3E0
03E7C0
01F780
00FF80
00FF00
007E00
003E00
003C00
003C00
003C00
003C00
003C00
003C00
003C00
003C00
003C00
003C00
003C00
003C00
003C00
ENDCHAR
STARTCHAR U+00DE
ENCODING 222
SWIDTH 576 0
DWIDTH 24 0
BBX 24 27 0 0
BITMAP
0F0000
0F0000
0F0000
0F0000
0F0000
0FFF00
0FFFC0
0FFFF0
0FFFF0
0F01F8
0F00F8
0F007C
0F007C
0F003C
0F007C
0F0078
0F00F8
0F01F8
0FFFF0
0FFFE0
0FFFC0
0FFF00
0F0000
0F0000
0F0000
0F0000
0F0000
ENDCHAR
STARTCHAR U+00DF
ENCODING 223
SWIDTH 528 0
DWIDTH 22 0
BBX 22 27 0 0
BITMAP
00FE00
01FF80
07FFC0
07FFC0
0F83E0
0F01E0
1E01E0
1E01E0
1E01E0
1E03C0
1E3F80
1E3F00
1E3F80
1E3FC0
1E03E0
1E01F0
1E00F0
1E00F0
1E0070
1E0070
1E00F0
1E00F0
1E03F0
1E7FE0
1E7FE0
1E7F80
1E7E00
ENDCHAR
STARTCHAR U+00E0
ENCODING 224
SWIDTH 504 0
DWIDTH 21 0
BBX 21 29 0 0
BITMAP
078000
03C000
03C000
01E000
00F000
007000
000000
000000
000000
03F800
0FFE00
0FFF00
0FFF80
1C0F80
1007C0
0003C0
007FC0
03FFC0
07FFC0
0FC3C0
1E03C0
3C03C0
3C03C0
3C07C0
3E1FC0
3FFFC0
1FFFC0
0FFBC0
07E3C0
ENDCHAR
STARTCHAR U+00E1
ENCODING 225
SWIDTH 504 0
DWIDTH 21 0
BBX 21 29 0 0
BITMAP
001E00
003C00
003C00
007800
00F000
00E000
000000
000000
000000
03F800
0FFE00
0FFF00
0FFF80
1C0F80
1007C0
0003C0
007FC0
03FFC0
07FFC0
0FC3C0
1E03C0
3C03C0
3C03C0
3C07C0
3E1FC0
3FFFC0
1FFFC0
0FFBC0
07E3C0
ENDCHAR
STARTCHAR U+00E2
ENCODING 226
SWIDTH 504 0
DWIDTH 21 0
BBX 21 29 0 0
BITMAP
01F000
01F800
03FC00
039C00
070E00
0E0700
000000
000000
000000
03F800
0FFE00
0FFF00
0FFF80
1C0F80
1007C0
0003C0
007FC0
03FFC0
07FFC0
0FC3C0
1E03C0
3C03C0
3C03C0
3C07C0
3E1FC0
3FFFC0
1FFFC0
0FFBC0
07E3C0
ENDCHAR
STARTCHAR U+00E3
ENCODING 227
SWIDTH 504 0
DWIDTH 21 0
BBX 21 28 0 0
BITMAP
03C000
07E380
0FFF00
0C7F00
041E00
000000
000000
000000
03F800
0FFE00
0FFF00
0FFF80
1C0F80
1007C0
0003C0
007FC0
03FFC0
07FFC0
0FC3C0
1E03C0
3C03C0
3C03C0
3C07C0
3E1FC0
3FFFC0
1FFFC0
0FFBC0
07E3C0
ENDCHAR
STARTCHAR U+00E4
ENCODING 228
SWIDTH 504 0
DWIDTH 21 0
BBX 21 28 0 0
BITMAP
020600
070F00
0F9F80
070F00
020600
000000
000000
000000
03F800
0FFE00
0FFF00
0FFF80
1C0F80
1007C0
0003C0
007FC0
03FFC0
07FFC0
0FC3C0
1E03C0
3C03C0
3C03C0
3C07C0
3E1FC0
3FFFC0
1FFFC0
0FFBC0
07E3C0
ENDCHAR
STARTCHAR U+00E5
ENCODING 229
SWIDTH 504 0
DWIDTH 21 0
BBX 21 30 0 0
BITMAP
00F000
01F800
010C00
030C00
010C00
01F800
00F000
000000
000000
000000
03F800
0FFE00
0FFF00
0FFF80
1C0F80
1007C0
0003C0
007FC0
03FFC0
07FFC0
0FC3C0
1E03C0
3C03C0
3C03C0
3C07C0
3E1FC0
3FFFC0
1FFFC0
0FFBC0
07E3C0
ENDCHAR
STARTCHAR U+00E6
ENCODING 230
SWIDTH 792 0
DWIDTH 33 0
BBX 33 20 0 0
BITMAP
01F81FC000
0FFE7FF000
0FFFFFF800
0FFFFFFC00
1C0FF07C00
1007C01E00
0003C01E00
003FFFFE00
01FFFFFE00
07FFFFFE00
1F83C00000
1E03C00000
3C03C00000
3C03E00000
3C01F00200
3E0FF81E00
3FFFFFFE00
1FFF7FFE00
0FFC3FFC00
07F00FE000
ENDCHAR
STARTCHAR U+00E7
ENCODING 231
SWIDTH 480 0
DWIDTH 20 0
BBX 20 28 0 -8
BITMAP
007E00
01FF80
07FFC0
0FFFC0
0FC1C0
1F0040
1E0000
3C0000
3C0000
3C0000
3C0000
3C0000
3C0000
3E0000
1F0040
0FC1C0
0FFFC0
07FFC0
01FF80
007F00
001800
003E00
003F00
000780
000780
000700
00FE00
00FC00
ENDCHAR
STARTCHAR U+00E8
ENCODING 232
SWIDTH 528 0
DWIDTH 22 0
BBX 22 29 0 0
BITMAP
03C000
01E000
01E000
00F000
007800
003800
000000
000000
000000
00FE00
03FF00
07FFC0
0FFFC0
1F83E0
1E01E0
3E00F0
3C00F0
3FFFF0
3FFFF0
3FFFF0
3FFFF0
3C0000
3C0000
1E0030
1F80F0
0FFFF0
07FFF0
03FFC0
007F00
ENDCHAR
STARTCHAR U+00E9
ENCODING 233
SWIDTH 528 0
DWIDTH 22 0
BBX 22 29 0 0
BITMAP
000F00
001E00
001E00
003C00
007800
007000
000000
000000
000000
00FE00
03FF00
07FFC0
0FFFC0
1F83E0
1E01E0
3E00F0
3C00F0
3FFFF0
3FFFF0
3FFFF0
3FFFF0
3C0000
3C0000
1E0030
1F80F0
0FFFF0
07FFF0
03FFC0
007F00
ENDCHAR
STARTCHAR U+00EA
ENCODING 234
SWIDTH 528 0
DWIDTH 22 0
BBX 22 29 0 0
BITMAP
00F800
00FC00
01FE00
01CE00
038700
070380
000000
000000
000000
00FE00
03FF00
07FFC0
0FFFC0
1F83E0
1E01E0
3E00F0
3C00F0
3FFFF0
3FFFF0
3FFFF0
3FFFF0
3C0000
3C0000
1E0030
1F80F0
0FFFF0
07FFF0
03FFC0
007F00
ENDCHAR
STARTCHAR U+00EB
ENCODING 235
SWIDTH 528 0
DWIDTH 22 0
BBX 22 28 0 0
BITMAP
010300
038780
07CFC0
038780
010300
000000
000000
000000
00FE00
03FF00
07FFC0
0FFFC0
1F83E0
1E01E0
3E00F0
3C00F0
3FFFF0
3FFFF0
3FFFF0
3FFFF0
3C0000
3C0000
1E0030
1F80F0
0FFFF0
07FFF0
03FFC0
007F00
ENDCHAR
STARTCHAR U+00EC
ENCODING 236
SWIDTH 240 0
DWIDTH 10 0
BBX 11 29 -1 0
BITMAP
7800
3C00
3C00
1E00
0F00
0700
0000
0000
0000
0F00
0F00
0F00
0F00
0F00
0F00
0F00
0F00
0F00
0F00
0F00
0F00
0F00
0F00
0F00
0F00
0F00
0F00
0F00
0F00
ENDCHAR
STARTCHAR U+00ED
ENCODING 237
SWIDTH 240 0
DWIDTH 10 0
BBX 11 29 0 0
BITMAP
03C0
0780
0780
0F00
1E00
1C00
0000
0000
0000
1E00
1E00
1E00
1E00
1E00
1E00
1E00
1E00
1E00
1E00
1E00
1E00
1E00
1E00
1E00
1E00
1E00
1E00
1E00
1E00
ENDCHAR
STARTCHAR U+00EE
ENCODING 238
SWIDTH 240 0
DWIDTH 10 0
BBX 12 29 -1 0
BITMAP
1F00
1F80
3FC0
39C0
70E0
E070
0000
0000
0000
0F00
0F00
0F00
0F00
0F00
0F00
0F00
0F00
0F00
0F00
0F00
0F00
0F00
0F00
0F00
0F00
0F00
0F00
0F00
0F00
ENDCHAR
STARTCHAR U+00EF
ENCODING 239
SWIDTH 240 0
DWIDTH 10 0
BBX 14 28 -2 0
BITMAP
2060
70F0
F9F8
70F0
2060
0000
0000
0000
0F00
0F00
0F00
0F00
0F00
0F00
0F00
0F00
0F00
0F00
0F00
0F00
0F00
0F00
0F00
0F00
0F00
0F00
0F00
0F00
ENDCHAR
STARTCHAR U+00F0
ENCODING 240
SWIDTH 528 0
DWIDTH 22 0
BBX 22 27 0 0
BITMAP
00C100
03E780
03FF00
00FC00
01FE00
07FF00
0F8F80
060F80
0007C0
00F7E0
03FFE0
07FFE0
0FFFF0
1F87F0
1E01F0
3C00F0
3C00F0
3C00F0
3C00F0
3C00F0
3C00F0
3E01E0
1F87E0
0FFFC0
0FFF80
03FF00
01FC00
ENDCHAR
STARTCHAR U+00F1
ENCODING 241
SWIDTH 576 0
DWIDTH 24 0
BBX 24 28 0 0
BITMAP
00F000
01F8E0
03FFC0
031FC0
010780
000000
000000
000000
1E3F00
1EFFC0
1FFFE0
1FFFF0
1FC1F0
1F00F8
1E0078
1E0078
1E0078
1E0078
1E0078
1E0078
1E0078
1E0078
1E0078
1E0078
1E0078
1E0078
1E0078
1E0078
ENDCHAR
STARTCHAR U+00F2
ENCODING 242
SWIDTH 576 0
DWIDTH 24 0
BBX 24 29 0 0
BITMAP
01E000
00F000
00F000
007800
003C00
001C00
000000
000000
000000
007F00
01FFC0
07FFE0
0FFFF0
0FC1F8
1F00F8
1E007C
3C003C
3C003C
3C001C
3C001C
3C003C
3C003C
3E007C
1F00F8
1FC1F8
0FFFF0
07FFE0
01FFC0
007E00
ENDCHAR
STARTCHAR U+00F3
ENCODING 243
SWIDTH 576 0
DWIDTH 24 0
BBX 24 29 0 0
BITMAP
000780
000F00
000F00
001E00
003C00
003800
000000
000000
000000
007F00
01FFC0
07FFE0
0FFFF0
0FC1F8
1F00F8
1E007C
3C003C
3C003C
3C001C
3C001C
3C003C
3C003C
3E007C
1F00F8
1FC1F8
0FFFF0
07FFE0
01FFC0
007E00
ENDCHAR
STARTCHAR U+00F4
ENCODING 244
SWIDTH 576 0
DWIDTH 24 0
BBX 24 29 0 0
BITMAP
007C00
007E00
00FF00
00E700
01C380
0381C0
000000
000000
000000
007F00
01FFC0
07FFE0
0FFFF0
0FC1F8
1F00F8
1E007C
3C003C
3C003C
3C001C
3C001C
3C003C
3C003C
3E007C
1F00F8
1FC1F8
0FFFF0
07FFE0
01FFC0
007E00
ENDCHAR
STARTCHAR U+00F5
ENCODING 245
SWIDTH 576 0
DWIDTH 24 0
BBX 24 28 0 0
BITMAP
00F000
01F8E0
03FFC0
031FC0
010780
000000
000000
000000
007F00
01FFC0
07FFE0
0FFFF0
0FC1F8
1F00F8
1E007C
3C003C
3C003C
3C001C
3C001C
3C003C
3C003C
3E007C
1F00F8
1FC1F8
0FFFF0
07FFE0
01FFC0
007E00
ENDCHAR
STARTCHAR U+00F6
ENCODING 246
SWIDTH 576 0
DWIDTH 24 0
BBX 24 28 0 0
BITMAP
008180
01C3C0
03E7E0
01C3C0
008180
000000
000000
000000
007F00
01FFC0
07FFE0
0FFFF0
0FC1F8
1F00F8
1E007C
3C003C
3C003C
3C001C
3C001C
3C003C
3C003C
3E007C
1F00F8
1FC1F8
0FFFF0
07FFE0
01FFC0
007E00
ENDCHAR
STARTCHAR U+00F7
ENCODING 247
SWIDTH 504 0
DWIDTH 21 0
BBX 21 23 0 0
BITMAP
002000
003000
007800
007800
003000
003000
000000
000000
1FFFE0
1FFFE0
1FFFE0
000000
000000
000000
002000
003000
007800
007800
003000
003000
000000
000000
000000
ENDCHAR
STARTCHAR U+00F8
ENCODING 248
SWIDTH 576 0
DWIDTH 24 0
BBX 24 22 0 -1
BITMAP
000010
007F38
01FFF8
07FFF0
0FFFF0
0FC1F8
1F01F8
1E03FC
3C073C
3C0E3C
3C1C1C
3C381C
3C703C
3CF03C
3EE07C
1FC0F8
0FC1F8
0FFFF0
07FFE0
0FFFC0
1C7E00
080000
ENDCHAR
STARTCHAR U+00F9
ENCODING 249
SWIDTH 576 0
DWIDTH 24 0
BBX 24 29 0 0
BITMAP
01E000
00F000
00F000
007800
003C00
001C00
000000
000000
000000
1E0078
1E0078
1E0078
1E0078
1E0078
1E0078
1E0078
1E0078
1E0078
1E0078
1E0078
1E0078
1E0078
1E0078
1F00F8
0F83F8
0FFFF8
07FFF8
03FF78
00FC78
ENDCHAR
STARTCHAR U+00FA
ENCODING 250
SWIDTH 576 0
DWIDTH 24 0
BBX 24 29 0 0
BITMAP
000780
000F00
000F00
001E00
003C00
003800
000000
000000
000000
1E0078
1E0078
1E0078
1E0078
1E0078
1E0078
1E0078
1E0078
1E0078
1E0078
1E0078
1E0078
1E0078
1E0078
1F00F8
0F83F8
0FFFF8
07FFF8
03FF78
00FC78
ENDCHAR
STARTCHAR U+00FB
ENCODING 251
SWIDTH 576 0
DWIDTH 24 0
BBX 24 29 0 0
BITMAP
007C00
007E00
00FF00
00E700
01C380
0381C0
000000
000000
000000
1E0078
1E0078
1E0078
1E0078
1E0078
1E0078
1E0078
1E0078
1E0078
1E0078
1E0078
1E0078
1E0078
1E0078
1F00F8
0F83F8
0FFFF8
07FFF8
03FF78
00FC78
ENDCHAR
STARTCHAR U+00FC
ENCODING 252
SWIDTH 576 0
DWIDTH 24 0
BBX 24 28 0 0
BITMAP
008180
01C3C0
03E7E0
01C3C0
008180
000000
000000
000000
1E0078
1E0078
1E0078
1E0078
1E0078
1E0078
1E0078
1E0078
1E0078
1E0078
1E0078
1E0078
1E0078
1E0078
1F00F8
0F83F8
0FFFF8
07FFF8
03FF78
00FC78
ENDCHAR
STARTCHAR U+00FD
ENCODING 253
SWIDTH 528 0
DWIDTH 22 0
BBX 22 36 0 -7
BITMAP
001E00
003C00
003C00
007800
00F000
00E000
000000
000000
000000
780078
7800F0
3C00F0
3C01F0
1E01E0
1E01E0
1E03C0
0F03C0
0F03C0
078780
078780
03CF00
03CF00
01CE00
01FE00
01FE00
00FC00
00FC00
007800
007800
007800
00F000
01F000
0FE000
0FE000
0FC000
0F0000
ENDCHAR
STARTCHAR U+00FE
ENCODING 254
SWIDTH 576 0
DWIDTH 24 0
BBX 24 34 0 -7
BITMAP
1E0000
1E0000
1E0000
1E0000
1E0000
1E0000
1E0000
1E7F00
1FFFC0
1FFFE0
1FFFF0
1F83F8
1E00F8
1E007C
1E003C
1E003C
1E003C
1E003C
1E003C
1E003C
1E007C
1E00F8
1F83F8
1FFFF0
1FFFE0
1FFFC0
1EFE00
1E0000
1E0000
1E0000
1E0000
1E0000
1E0000
1E0000
ENDCHAR
STARTCHAR U+00FF
ENCODING 255
SWIDTH 528 0
DWIDTH 22 0
BBX 22 35 0 -7
BITMAP
010300
038780
07CFC0
038780
010300
000000
000000
000000
780078
7800F0
3C00F0
3C01F0
1E01E0
1E01E0
1E03C0
0F03C0
0F03C0
078780
078780
03CF00
03CF00
01CE00
01FE00
01FE00
00FC00
00FC00
007800
007800
007800
00F000
01F000
0FE000
0FE000
0FC000
0F0000
ENDCHAR
STARTCHAR U+2013
ENCODING 8211
SWIDTH 480 0
DWIDTH 20 0
BBX 22 13 -1 0
BITMAP
FFFFF0
FFFFF0
FFFFF0
000000
000000
000000
000000
000000
000000
000000
000000
000000
000000
ENDCHAR
STARTCHAR U+2014
ENCODING 8212
SWIDTH 960 0
DWIDTH 40 0
BBX 42 13 -1 0
BITMAP
FFFFFFFFFF00
FFFFFFFFFF00
FFFFFFFFFF00
000000000000
000000000000
000000000000
000000000000
000000000000
000000000000
000000000000
000000000000
000000000000
000000000000
ENDCHAR
STARTCHAR U+2018
ENCODING 8216
SWIDTH 240 0
DWIDTH 10 0
BBX 10 27 0 0
BITMAP
0200
0400
0C00
1C00
1C00
1E00
1F00
1E00
0C00
0000
0000
0000
0000
0000
0000
0000
0000
0000
0000
0000
0000
0000
0000
0000
0000
0000
0000
ENDCHAR
STARTCHAR U+2019
ENCODING 8217
SWIDTH 240 0
DWIDTH 10 0
BBX 10 27 0 0
BITMAP
0800
1C00
3E00
1E00
1E00
0E00
0E00
0C00
1800
1000
0000
0000
0000
0000
0000
0000
0000
0000
0000
0000
0000
0000
0000
0000
0000
0000
0000
ENDCHAR
STARTCHAR U+201C
ENCODING 8220
SWIDTH 384 0
DWIDTH 16 0
BBX 16 27 0 0
BITMAP
0208
0418
0C30
1C70
1C78
1E78
1F7C
1E38
0C30
0000
0000
0000
0000
0000
0000
0000
0000
0000
0000
0000
0000
0000
0000
0000
0000
0000
0000
ENDCHAR
STARTCHAR U+201D
ENCODING 8221
SWIDTH 384 0
DWIDTH 16 0
BBX 16 27 0 0
BITMAP
0820
1C70
3EF8
1E78
1E78
0E38
0E38
0C30
1860
1040
0000
0000
0000
0000
0000
0000
0000
0000
0000
0000
0000
0000
0000
0000
0000
0000
0000
ENDCHAR
STARTCHAR U+2022
ENCODING 8226
SWIDTH 408 0
DWIDTH 17 0
BBX 17 17 0 0
BITMAP
008000
01C000
03E000
07F000
0FF800
0FF800
07F000
03E000
01C000
008000
000000
000000
000000
000000
000000
000000
000000
ENDCHAR
STARTCHAR U+2026
ENCODING 8230
SWIDTH 888 0
DWIDTH 37 0
BBX 37 5 0 0
BITMAP
0C00600180
1E00F003C0
3F01F807E0
1E00F003C0
0C00600180
ENDCHAR
STARTCHAR U+20AC
ENCODING 8364
SWIDTH 600 0
DWIDTH 25 0
BBX 25 27 0 0
BITMAP
000FE000
003FFC00
00FFFE00
01FFFE00
03F81E00
07E00200
07C00000
0F800000
0F000000
7FFFE000
7FFFC000
7FFFC000
1E000000
1E000000
1E000000
7FFF8000
7FFF8000
7FFF8000
0F000000
0F800000
07C00000
07E00200
03F81E00
01FFFE00
00FFFE00
003FFC00
000FE000
ENDCHAR
ENDFONT
