STARTFONT 2.1
COMMENT Converted from Johnston100 W03 Regular.ttf at 34px with ttf2bdf.py (Pillow, 1-bit, no AA)
FONT -Misc-Johnston100-Medium-R-Normal--34-340-75-75-P-360-ISO10646-1
SIZE 34 75 75
FONTBOUNDINGBOX 36 40 -2 -9
STARTPROPERTIES 9
FOUNDRY "Misc"
FAMILY_NAME "Johnston100"
WEIGHT_NAME "Medium"
SLANT "R"
PIXEL_SIZE 34
RESOLUTION_X 75
RESOLUTION_Y 75
FONT_ASCENT 31
FONT_DESCENT 9
ENDPROPERTIES
CHARS 200
STARTCHAR space
ENCODING 32
SWIDTH 254 0
DWIDTH 9 0
BBX 9 40 0 -9
BITMAP
0000
0000
0000
0000
0000
0000
0000
0000
0000
0000
0000
0000
0000
0000
0000
0000
0000
0000
0000
0000
0000
0000
0000
0000
0000
0000
0000
0000
0000
0000
0000
0000
0000
0000
0000
0000
0000
0000
0000
0000
ENDCHAR
STARTCHAR !
ENCODING 33
SWIDTH 282 0
DWIDTH 10 0
BBX 10 23 0 0
BITMAP
1E00
1E00
1E00
1E00
1E00
1E00
1E00
1E00
1E00
1E00
1C00
1C00
0C00
0C00
0C00
0C00
0C00
0000
0000
0C00
1E00
1C00
0800
ENDCHAR
STARTCHAR "
ENCODING 34
SWIDTH 395 0
DWIDTH 14 0
BBX 14 23 0 0
BITMAP
3CF0
3CF0
3CF0
3CF0
3870
1860
1860
1860
1860
0000
0000
0000
0000
0000
0000
0000
0000
0000
0000
0000
0000
0000
0000
ENDCHAR
STARTCHAR U+0023
ENCODING 35
SWIDTH 734 0
DWIDTH 26 0
BBX 26 23 0 0
BITMAP
000C0800
00383800
00383800
00383800
00307000
00707000
0FFFFF80
0FFFFF00
1FFFFF00
00E0E000
00E0E000
00C0C000
01C1C000
01C1C000
3FFFFE00
7FFFFC00
7FFFFC00
03838000
03030000
07070000
07070000
06060000
0C0C0000
ENDCHAR
STARTCHAR $
ENCODING 36
SWIDTH 480 0
DWIDTH 17 0
BBX 17 28 0 -3
BITMAP
01C000
01C000
03E000
0FF800
1FFC00
3E3C00
3C1000
3C0000
3C0000
3E0000
1F8000
0FE000
07F000
01FC00
007E00
001E00
000F00
000F00
000F00
300F00
780E00
3C3E00
3FFC00
1FF800
07E000
01C000
01C000
000000
ENDCHAR
STARTCHAR %
ENCODING 37
SWIDTH 706 0
DWIDTH 25 0
BBX 25 23 0 0
BITMAP
0F807000
1FC0E000
3FE0E000
38E1C000
3071C000
30738000
38E38000
3FE70000
1FC70000
0F8E0000
000E0000
001C0000
001C0000
00387800
0039FC00
0073FE00
00738E00
00E30700
00E30700
01C38E00
01C3FE00
0381FC00
0380F800
ENDCHAR
STARTCHAR &
ENCODING 38
SWIDTH 649 0
DWIDTH 23 0
BBX 23 23 0 0
BITMAP
01F800
03FC00
07FE00
0F0F00
0E0F00
0E0F00
0F0F00
0F0E00
07BE00
03FC00
03F000
07F038
1FF878
1E3C70
3C3EF0
381FE0
380FE0
3807C0
3C07E0
3E1FE0
1FFEF0
0FFC78
03F03C
ENDCHAR
STARTCHAR '
ENCODING 39
SWIDTH 226 0
DWIDTH 8 0
BBX 8 23 0 0
BITMAP
3C
3C
3C
3C
38
18
18
18
18
00
00
00
00
00
00
00
00
00
00
00
00
00
00
ENDCHAR
STARTCHAR (
ENCODING 40
SWIDTH 254 0
DWIDTH 9 0
BBX 9 28 0 -3
BITMAP
0700
0E00
0E00
0E00
1C00
1C00
1C00
1C00
3800
3800
3800
3800
3800
3800
3800
3800
3800
3800
3800
3800
3C00
1C00
1C00
1C00
0E00
0E00
0E00
0700
ENDCHAR
STARTCHAR )
ENCODING 41
SWIDTH 254 0
DWIDTH 9 0
BBX 9 28 0 -3
BITMAP
7000
3800
3800
3800
1C00
1C00
1C00
1C00
0E00
0E00
0E00
0E00
0E00
0E00
0E00
0E00
0E00
0E00
0E00
0E00
1C00
1C00
1C00
1C00
3800
3800
3800
7000
ENDCHAR
STARTCHAR *
ENCODING 42
SWIDTH 395 0
DWIDTH 14 0
BBX 14 23 0 0
BITMAP
0300
0300
2310
7B70
1FE0
07C0
0F00
3BE0
7370
2310
0300
0300
0000
0000
0000
0000
0000
0000
0000
0000
0000
0000
0000
ENDCHAR
STARTCHAR +
ENCODING 43
SWIDTH 508 0
DWIDTH 18 0
BBX 18 18 0 0
BITMAP
00E000
00E000
00E000
00E000
00E000
3FFF00
3FFF00
3FFF00
00E000
00E000
00E000
00E000
00E000
000000
000000
000000
000000
000000
ENDCHAR
STARTCHAR ,
ENCODING 44
SWIDTH 226 0
DWIDTH 8 0
BBX 8 9 0 -4
BITMAP
00
18
3C
3C
1C
1C
18
10
00
ENDCHAR
STARTCHAR -
ENCODING 45
SWIDTH 367 0
DWIDTH 13 0
BBX 13 11 0 0
BITMAP
7FF0
7FF0
7FF0
0000
0000
0000
0000
0000
0000
0000
0000
ENDCHAR
STARTCHAR .
ENCODING 46
SWIDTH 226 0
DWIDTH 8 0
BBX 8 5 0 0
BITMAP
08
1C
3E
1C
08
ENDCHAR
STARTCHAR /
ENCODING 47
SWIDTH 311 0
DWIDTH 11 0
BBX 11 28 0 -3
BITMAP
00E0
00E0
01C0
01C0
01C0
0380
0380
0380
0380
0700
0700
0700
0E00
0E00
0E00
0E00
1C00
1C00
1C00
3800
3800
3800
3800
7000
7000
7000
E000
E000
ENDCHAR
STARTCHAR 0
ENCODING 48
SWIDTH 565 0
DWIDTH 20 0
BBX 20 23 0 0
BITMAP
00F800
03FC00
07FE00
0F0F00
0E0700
1E0780
1E0380
1C0380
1C03C0
1C03C0
1C03C0
1C03C0
1C03C0
1C03C0
1C0380
1C0380
1E0380
1E0780
0E0700
0F0F00
07FE00
03FC00
00F800
ENDCHAR
STARTCHAR 1
ENCODING 49
SWIDTH 282 0
DWIDTH 10 0
BBX 10 23 0 0
BITMAP
0200
0600
1E00
1E00
1E00
1E00
1E00
1E00
1E00
1E00
1E00
1E00
1E00
1E00
1E00
1E00
1E00
1E00
1E00
1E00
1E00
1E00
1E00
ENDCHAR
STARTCHAR 2
ENCODING 50
SWIDTH 480 0
DWIDTH 17 0
BBX 17 23 0 0
BITMAP
07E000
0FF800
1FFC00
1C3E00
101E00
200E00
000E00
000E00
001E00
001E00
003C00
003C00
007800
00F000
00F000
01E000
03C000
03C000
078000
0F0000
0FFF00
1FFF00
3FFF00
ENDCHAR
STARTCHAR 3
ENCODING 51
SWIDTH 508 0
DWIDTH 18 0
BBX 18 23 0 0
BITMAP
3FFF00
3FFE00
3FFC00
003C00
007800
007800
00F000
01E000
01E000
03F800
03FC00
003E00
000F00
000F00
000700
000700
000700
000F00
100F00
783E00
3FFC00
1FF800
07E000
ENDCHAR
STARTCHAR 4
ENCODING 52
SWIDTH 565 0
DWIDTH 20 0
BBX 20 23 0 0
BITMAP
000200
000200
000600
000E00
001E00
003E00
007E00
00FE00
01EE00
01CE00
038E00
070E00
0E0E00
1C0E00
3FFFC0
7FFFC0
FFFFC0
000E00
000E00
000E00
000E00
000E00
000E00
ENDCHAR
STARTCHAR 5
ENCODING 53
SWIDTH 508 0
DWIDTH 18 0
BBX 18 23 0 0
BITMAP
000000
000000
000000
000000
000000
000000
000000
000000
000000
000000
000000
000000
000000
000000
000000
000000
000000
000000
000000
000000
000000
000000
000000
ENDCHAR
STARTCHAR 6
ENCODING 54
SWIDTH 508 0
DWIDTH 18 0
BBX 18 23 0 0
BITMAP
00F800
01F000
01E000
03C000
078000
0F0000
0E0000
1C0000
1FF000
3FFC00
3FFE00
3C1F00
380F00
380700
380700
380700
380700
3C0700
3C0F00
1E1E00
1FFE00
0FF800
03F000
ENDCHAR
STARTCHAR 7
ENCODING 55
SWIDTH 480 0
DWIDTH 17 0
BBX 17 23 0 0
BITMAP
3FFF00
3FFE00
3FFE00
001C00
003C00
003C00
003800
007800
007000
00F000
00E000
01E000
01E000
03C000
03C000
078000
078000
070000
0F0000
0E0000
1E0000
1E0000
3C0000
ENDCHAR
STARTCHAR 8
ENCODING 56
SWIDTH 508 0
DWIDTH 18 0
BBX 18 23 0 0
BITMAP
03F000
07F800
0FFC00
1E1E00
1C0E00
1C0E00
1C0E00
1E1E00
0F3C00
0FF800
03F000
07FC00
1F3E00
1E1F00
3C0F00
380700
380700
380700
3C0F00
3E1F00
1FFE00
0FFC00
03F000
ENDCHAR
STARTCHAR 9
ENCODING 57
SWIDTH 508 0
DWIDTH 18 0
BBX 18 23 0 0
BITMAP
03F000
0FFC00
1FFE00
1E1E00
3C0F00
380700
380700
380780
380780
3C0780
3E0F00
1FFF00
0FFF00
03FF00
000E00
001E00
001C00
003C00
007800
00F000
01F000
03E000
07C000
ENDCHAR
STARTCHAR :
ENCODING 58
SWIDTH 282 0
DWIDTH 10 0
BBX 10 18 0 0
BITMAP
0400
0E00
1F00
0E00
0400
0000
0000
0000
0000
0000
0000
0000
0000
0400
0E00
1F00
0E00
0400
ENDCHAR
STARTCHAR ;
ENCODING 59
SWIDTH 282 0
DWIDTH 10 0
BBX 10 21 0 -4
BITMAP
0400
0E00
1F00
0E00
0400
0000
0000
0000
0000
0000
0000
0000
0000
0C00
1E00
1E00
0E00
0E00
0C00
0800
0000
ENDCHAR
STARTCHAR U+003C
ENCODING 60
SWIDTH 508 0
DWIDTH 18 0
BBX 18 20 0 0
BITMAP
000300
000700
001F00
007F00
01FC00
07F000
1FC000
3F0000
3F0000
1FC000
07F000
01FC00
007F00
001F00
000700
000300
000000
000000
000000
000000
ENDCHAR
STARTCHAR =
ENCODING 61
SWIDTH 508 0
DWIDTH 18 0
BBX 18 17 0 0
BITMAP
3FFF00
3FFF00
3FFF00
000000
000000
000000
000000
3FFF00
3FFF00
3FFF00
000000
000000
000000
000000
000000
000000
000000
ENDCHAR
STARTCHAR U+003E
ENCODING 62
SWIDTH 508 0
DWIDTH 18 0
BBX 18 20 0 0
BITMAP
300000
3C0000
3E0000
3F8000
0FE000
03F800
00FE00
001F00
001F00
00FE00
03F800
0FE000
3F8000
3E0000
3C0000
300000
000000
000000
000000
000000
ENDCHAR
STARTCHAR ?
ENCODING 63
SWIDTH 452 0
DWIDTH 16 0
BBX 16 23 0 0
BITMAP
0FC0
3FF0
7FF8
7878
203C
003C
003C
0078
00F8
03F0
07C0
0F80
0F00
0F00
0780
0700
0200
0000
0200
0700
0F80
0780
0300
ENDCHAR
STARTCHAR @
ENCODING 64
SWIDTH 932 0
DWIDTH 33 0
BBX 33 29 0 -6
BITMAP
0007F80000
003FFF0000
00FFFFC000
01F807E000
03E001F000
0780007800
0F03F23800
0E0FFE1C00
1E1FFE1C00
1C1E0E0C00
1C3C0E0E00
38380E0E00
38700C0E00
38701C0E00
38701C0E00
38701C0E00
38701C0C00
38701C1C00
38781C1C00
383C3C3800
1C3FFFF800
1E1FEFF000
0E07C7C000
0F00000000
07C0060000
03F01E0000
01FFFE0000
007FFC0000
000FE00000
ENDCHAR
STARTCHAR A
ENCODING 65
SWIDTH 649 0
DWIDTH 23 0
BBX 23 23 0 0
BITMAP
003800
007800
007C00
00FC00
00FE00
00EE00
01EE00
01CF00
03C700
038780
038380
078380
0703C0
0F01C0
0FFFE0
0FFFE0
1FFFF0
1C00F0
3C0070
3C0078
380038
78003C
78003C
ENDCHAR
STARTCHAR B
ENCODING 66
SWIDTH 593 0
DWIDTH 21 0
BBX 21 23 0 0
BITMAP
1FF800
1FFC00
1FFE00
1E1F00
1E0700
1E0700
1E0700
1E0700
1E0F00
1FFE00
1FFF00
1FFF80
1E07C0
1E01C0
1E01E0
1E01E0
1E01E0
1E01E0
1E01E0
1E07C0
1FFF80
1FFF00
1FFC00
ENDCHAR
STARTCHAR C
ENCODING 67
SWIDTH 649 0
DWIDTH 23 0
BBX 23 23 0 0
BITMAP
003FC0
00FFF0
03FFF8
07E038
0F8008
0F0000
1E0000
1C0000
3C0000
3C0000
380000
380000
3C0000
3C0000
3C0000
1C0000
1E0000
0F0000
0F8008
07E038
01FFF8
00FFF0
003F80
ENDCHAR
STARTCHAR D
ENCODING 68
SWIDTH 706 0
DWIDTH 25 0
BBX 25 23 0 0
BITMAP
1FFC0000
1FFF8000
1FFFC000
1E07F000
1E00F800
1E007800
1E003C00
1E003C00
1E001C00
1E001E00
1E001E00
1E001E00
1E001E00
1E001E00
1E001C00
1E003C00
1E003C00
1E007800
1E00F000
1E07F000
1FFFC000
1FFF8000
1FFC0000
ENDCHAR
STARTCHAR E
ENCODING 69
SWIDTH 565 0
DWIDTH 20 0
BBX 20 23 0 0
BITMAP
1FFFC0
1FFFC0
1FFFC0
1E0000
1E0000
1E0000
1E0000
1E0000
1E0000
1FFE00
1FFE00
1FFE00
1E0000
1E0000
1E0000
1E0000
1E0000
1E0000
1E0000
1E0000
1FFFC0
1FFFC0
1FFFC0
ENDCHAR
STARTCHAR F
ENCODING 70
SWIDTH 508 0
DWIDTH 18 0
BBX 18 23 0 0
BITMAP
1FFF80
1FFF80
1FFF80
1E0000
1E0000
1E0000
1E0000
1E0000
1E0000
1FFC00
1FFC00
1FFC00
1E0000
1E0000
1E0000
1E0000
1E0000
1E0000
1E0000
1E0000
1E0000
1E0000
1E0000
ENDCHAR
STARTCHAR G
ENCODING 71
SWIDTH 706 0
DWIDTH 25 0
BBX 25 23 0 0
BITMAP
001FC000
00FFF800
03FFFC00
07E07C00
0F800C00
0F000400
1E000000
1C000000
3C000000
3C000000
3C03FC00
3803FC00
3C03FC00
3C001C00
3C001C00
1C001C00
1E001C00
0F001C00
0F801C00
07E03C00
03FFFC00
00FFF800
003FC000
ENDCHAR
STARTCHAR H
ENCODING 72
SWIDTH 706 0
DWIDTH 25 0
BBX 25 23 0 0
BITMAP
1E003C00
1E003C00
1E003C00
1E003C00
1E003C00
1E003C00
1E003C00
1E003C00
1E003C00
1FFFFC00
1FFFFC00
1FFFFC00
1E003C00
1E003C00
1E003C00
1E003C00
1E003C00
1E003C00
1E003C00
1E003C00
1E003C00
1E003C00
1E003C00
ENDCHAR
STARTCHAR I
ENCODING 73
SWIDTH 282 0
DWIDTH 10 0
BBX 10 23 0 0
BITMAP
1E00
1E00
1E00
1E00
1E00
1E00
1E00
1E00
1E00
1E00
1E00
1E00
1E00
1E00
1E00
1E00
1E00
1E00
1E00
1E00
1E00
1E00
1E00
ENDCHAR
STARTCHAR J
ENCODING 74
SWIDTH 452 0
DWIDTH 16 0
BBX 16 23 0 0
BITMAP
0038
0038
0038
0038
0038
0038
0038
0038
0038
0038
0038
0038
0038
0038
0038
0038
0038
1038
7078
7878
3FF0
1FE0
0F80
ENDCHAR
STARTCHAR K
ENCODING 75
SWIDTH 593 0
DWIDTH 21 0
BBX 22 23 0 0
BITMAP
1E00F0
1E03E0
1E07C0
1E0F80
1E1F00
1E3E00
1E7C00
1EF800
1FE000
1FC000
1FC000
1FE000
1FF000
1EF800
1E7C00
1E3E00
1E1E00
1E0F00
1E0780
1E03C0
1E03E0
1E01F0
1E00F8
ENDCHAR
STARTCHAR L
ENCODING 76
SWIDTH 508 0
DWIDTH 18 0
BBX 18 23 0 0
BITMAP
1E0000
1E0000
1E0000
1E0000
1E0000
1E0000
1E0000
1E0000
1E0000
1E0000
1E0000
1E0000
1E0000
1E0000
1E0000
1E0000
1E0000
1E0000
1E0000
1E0000
1FFFC0
1FFFC0
1FFFC0
ENDCHAR
STARTCHAR M
ENCODING 77
SWIDTH 819 0
DWIDTH 29 0
BBX 29 23 0 0
BITMAP
1E0003C0
1F0007C0
1F8007C0
1FC00FC0
1FC01FC0
1FE03FC0
1EF07DC0
1E7879C0
1E7CF1C0
1E3FE1C0
1E1FC1C0
1E0FC1C0
1E0781C0
1E0701C0
1E0201C0
1E0001C0
1E0001C0
1E0001C0
1E0001C0
1E0001C0
1E0001C0
1E0001C0
1E0001C0
ENDCHAR
STARTCHAR N
ENCODING 78
SWIDTH 734 0
DWIDTH 26 0
BBX 26 23 0 0
BITMAP
1E000E00
1F000E00
1F000E00
1F800E00
1FC00E00
1FE00E00
1FE00E00
1EF00E00
1E780E00
1E3C0E00
1E3E0E00
1E1E0E00
1E0F0E00
1E078E00
1E07CE00
1E03CE00
1E01EE00
1E00FE00
1E007E00
1E007E00
1E003E00
1E001E00
1E000E00
ENDCHAR
STARTCHAR O
ENCODING 79
SWIDTH 791 0
DWIDTH 28 0
BBX 28 23 0 0
BITMAP
003FC000
00FFF000
03FFF800
07E07E00
0F801F00
0F000F00
1E000780
1C000380
3C0003C0
3C0003C0
3C0003C0
380003C0
3C0003C0
3C0003C0
3C0003C0
1C000380
1E000780
0F000F00
0F801F00
07E07E00
03FFF800
00FFF000
003F8000
ENDCHAR
STARTCHAR P
ENCODING 80
SWIDTH 565 0
DWIDTH 20 0
BBX 20 23 0 0
BITMAP
1FFC00
1FFF00
1FFF80
1E07C0
1E03C0
1E01C0
1E01C0
1E01C0
1E01C0
1E03C0
1E07C0
1FFF80
1FFF00
1FFC00
1E0000
1E0000
1E0000
1E0000
1E0000
1E0000
1E0000
1E0000
1E0000
ENDCHAR
STARTCHAR Q
ENCODING 81
SWIDTH 791 0
DWIDTH 28 0
BBX 28 23 0 0
BITMAP
003FC000
00FFF000
03FFF800
07E07E00
0F801F00
0F000F00
1E000780
1C000380
3C0003C0
3C0003C0
3C0003C0
380003C0
3C0003C0
3C0003C0
3C0003C0
1C002380
1E00F780
0F007F00
0F803E00
07E07F00
03FFFF80
00FFF780
003FC100
ENDCHAR
STARTCHAR R
ENCODING 82
SWIDTH 565 0
DWIDTH 20 0
BBX 21 23 0 0
BITMAP
1FF800
1FFE00
1FFF00
1E0F00
1E0780
1E0780
1E0380
1E0780
1E0780
1E0F00
1FFF00
1FFE00
1FF800
1E7800
1E3C00
1E1E00
1E1F00
1E0F00
1E0780
1E03C0
1E03E0
1E01E0
1E00F0
ENDCHAR
STARTCHAR S
ENCODING 83
SWIDTH 480 0
DWIDTH 17 0
BBX 17 23 0 0
BITMAP
07E000
0FF800
1FFC00
3C3C00
3C1000
3C0000
3C0000
3E0000
1F8000
0FE000
07F800
01FC00
007E00
001E00
000F00
000F00
000F00
100F00
780E00
7C3E00
3FFC00
1FF800
07E000
ENDCHAR
STARTCHAR T
ENCODING 84
SWIDTH 565 0
DWIDTH 20 0
BBX 20 23 0 0
BITMAP
7FFFE0
7FFFE0
7FFFE0
00F000
00F000
00F000
00F000
00F000
00F000
00F000
00F000
00F000
00F000
00F000
00F000
00F000
00F000
00F000
00F000
00F000
00F000
00F000
00F000
ENDCHAR
STARTCHAR U
ENCODING 85
SWIDTH 734 0
DWIDTH 26 0
BBX 26 23 0 0
BITMAP
1C000E00
1C000E00
1C000E00
1C000E00
1C000E00
1C000E00
1C000E00
1C000E00
1C000E00
1C000E00
1C000E00
1C000E00
1C000E00
1C000E00
1E000E00
1E001E00
0E001E00
0F003C00
07807C00
07E0F800
03FFF000
00FFE000
003F0000
ENDCHAR
STARTCHAR V
ENCODING 86
SWIDTH 621 0
DWIDTH 22 0
BBX 22 23 0 0
BITMAP
780078
780078
380070
3C00F0
3C00E0
1C00E0
1E01E0
0E01C0
0F03C0
0F03C0
070380
078780
078780
038700
03CF00
01CE00
01CE00
01FE00
00FC00
00FC00
007C00
007800
007800
ENDCHAR
STARTCHAR W
ENCODING 87
SWIDTH 932 0
DWIDTH 33 0
BBX 33 23 0 0
BITMAP
7801E00F00
3801E00F00
3C03E00E00
3C03F00E00
1C03F01E00
1C07F01C00
1E07701C00
1E07783C00
0E07383C00
0F0F383800
0F0E3C3800
070E3C7800
071E1C7000
079C1C7000
039C1EF000
039C0EF000
03F80EE000
03F80FE000
01F807E000
01F807C000
01F007C000
00F003C000
00F003C000
ENDCHAR
STARTCHAR X
ENCODING 88
SWIDTH 649 0
DWIDTH 23 0
BBX 23 23 0 0
BITMAP
780078
3C00F0
1E00F0
0F01E0
0F03C0
078780
03C780
01EF00
01FE00
00FC00
007C00
007C00
00FE00
01FE00
01EF00
03C780
0783C0
0F03E0
0F01E0
1E00F0
3C0078
7C007C
78003C
ENDCHAR
STARTCHAR Y
ENCODING 89
SWIDTH 565 0
DWIDTH 20 0
BBX 20 23 0 0
BITMAP
7800F0
7801E0
3C01C0
1E03C0
1E0780
0F0700
078F00
079E00
03DC00
01FC00
01F800
00F800
007000
007000
007000
007000
007000
007000
007000
007000
007000
007000
007000
ENDCHAR
STARTCHAR Z
ENCODING 90
SWIDTH 593 0
DWIDTH 21 0
BBX 21 23 0 0
BITMAP
3FFFF0
3FFFE0
3FFFE0
0003C0
000780
000780
000F00
001E00
001E00
003C00
007800
007800
00F000
01E000
01E000
03C000
078000
078000
0F0000
1E0000
1FFFF0
3FFFF0
7FFFF0
ENDCHAR
STARTCHAR [
ENCODING 91
SWIDTH 311 0
DWIDTH 11 0
BBX 11 30 0 -3
BITMAP
1FC0
1FC0
1C00
1C00
1C00
1C00
1C00
1C00
1C00
1C00
1C00
1C00
1C00
1C00
1C00
1C00
1C00
1C00
1C00
1C00
1C00
1C00
1C00
1C00
1C00
1C00
1C00
1C00
1FC0
1FC0
ENDCHAR
STARTCHAR \
ENCODING 92
SWIDTH 311 0
DWIDTH 11 0
BBX 11 28 0 -3
BITMAP
E000
E000
7000
7000
7000
3800
3800
3800
3800
1C00
1C00
1C00
0E00
0E00
0E00
0E00
0700
0700
0700
0380
0380
0380
0380
01C0
01C0
01C0
00E0
00E0
ENDCHAR
STARTCHAR ]
ENCODING 93
SWIDTH 311 0
DWIDTH 11 0
BBX 11 30 0 -3
BITMAP
7F80
7F80
0380
0380
0380
0380
0380
0380
0380
0380
0380
0380
0380
0380
0380
0380
0380
0380
0380
0380
0380
0380
0380
0380
0380
0380
0380
0380
7F80
7F80
ENDCHAR
STARTCHAR ^
ENCODING 94
SWIDTH 565 0
DWIDTH 20 0
BBX 20 23 0 0
BITMAP
00F000
01F800
03F800
039C00
071E00
0F0E00
1E0700
1C0780
3803C0
000000
000000
000000
000000
000000
000000
000000
000000
000000
000000
000000
000000
000000
000000
ENDCHAR
STARTCHAR _
ENCODING 95
SWIDTH 480 0
DWIDTH 17 0
BBX 19 5 -1 -5
BITMAP
000000
000000
000000
FFFF80
FFFF80
ENDCHAR
STARTCHAR `
ENCODING 96
SWIDTH 452 0
DWIDTH 16 0
BBX 16 23 0 0
BITMAP
FFFF
FFFF
FFFF
E007
E007
E007
E007
E007
E007
E007
E007
E007
E007
E007
E007
E007
E007
E007
E007
E007
FFFF
FFFF
FFFF
ENDCHAR
STARTCHAR a
ENCODING 97
SWIDTH 508 0
DWIDTH 18 0
BBX 18 17 0 0
BITMAP
07E000
1FF800
1FFC00
183E00
201E00
000E00
00FE00
07FE00
1F0E00
1C0E00
380E00
380E00
380E00
3C3E00
3FFE00
1FFE00
0FCE00
ENDCHAR
STARTCHAR b
ENCODING 98
SWIDTH 565 0
DWIDTH 20 0
BBX 20 23 0 0
BITMAP
1C0000
1C0000
1C0000
1C0000
1C0000
1C0000
1CF800
1FFE00
1FFF00
1E0F80
1C03C0
1C01C0
1C01E0
1C01E0
1C00E0
1C01E0
1C01E0
1C01C0
1C03C0
1E0780
1FFF80
1FFF00
1DFC00
ENDCHAR
STARTCHAR c
ENCODING 99
SWIDTH 480 0
DWIDTH 17 0
BBX 17 17 0 0
BITMAP
01FC00
07FF00
0FFF00
1F0700
1E0100
3C0000
380000
380000
380000
380000
380000
3C0000
1E0100
1F0700
0FFF00
07FF00
01FC00
ENDCHAR
STARTCHAR d
ENCODING 100
SWIDTH 565 0
DWIDTH 20 0
BBX 20 23 0 0
BITMAP
0001C0
0001C0
0001C0
0001C0
0001C0
0001C0
01F9C0
07FFC0
0FFFC0
1F07C0
1E01C0
3C01C0
3801C0
3801C0
3801C0
3801C0
3801C0
3C01C0
3E01C0
1F07C0
0FFFC0
07FFC0
01F9C0
ENDCHAR
STARTCHAR e
ENCODING 101
SWIDTH 536 0
DWIDTH 19 0
BBX 19 17 0 0
BITMAP
01F800
07FC00
0FFE00
1F0F00
1C0700
3C0780
380380
3FFF80
3FFF80
3FFF80
380000
380000
1C0080
1F0780
0FFF80
07FF00
01FC00
ENDCHAR
STARTCHAR f
ENCODING 102
SWIDTH 367 0
DWIDTH 13 0
BBX 13 23 0 0
BITMAP
01F8
07F8
0FF8
0E00
1E00
1E00
7FF8
7FF8
7FF8
1E00
1E00
1E00
1E00
1E00
1E00
1E00
1E00
1E00
1E00
1E00
1E00
1E00
1E00
ENDCHAR
STARTCHAR g
ENCODING 103
SWIDTH 508 0
DWIDTH 18 0
BBX 18 23 0 -6
BITMAP
07FF80
1FFF80
1FFF80
3C3C00
380E00
380E00
380E00
3C1E00
1FFC00
0FF800
1FE000
1C0000
1F0000
1FE000
0FFC00
3CFE00
780F00
700780
700780
780F00
7FFF00
3FFE00
0FF800
ENDCHAR
STARTCHAR h
ENCODING 104
SWIDTH 565 0
DWIDTH 20 0
BBX 20 23 0 0
BITMAP
1C0000
1C0000
1C0000
1C0000
1C0000
1C0000
1CFC00
1FFE00
1FFF00
1F0F80
1C0380
1C03C0
1C01C0
1C01C0
1C01C0
1C01C0
1C01C0
1C01C0
1C01C0
1C01C0
1C01C0
1C01C0
1C01C0
ENDCHAR
STARTCHAR i
ENCODING 105
SWIDTH 254 0
DWIDTH 9 0
BBX 9 23 0 0
BITMAP
0800
1C00
3C00
1800
0000
1C00
1C00
1C00
1C00
1C00
1C00
1C00
1C00
1C00
1C00
1C00
1C00
1C00
1C00
1C00
1C00
1C00
0000
ENDCHAR
STARTCHAR j
ENCODING 106
SWIDTH 254 0
DWIDTH 9 0
BBX 10 29 -1 -6
BITMAP
0400
0E00
1F00
0E00
0400
0000
0E00
0E00
0E00
0E00
0E00
0E00
0E00
0E00
0E00
0E00
0E00
0E00
0E00
0E00
0E00
0E00
0E00
0E00
0E00
1E00
FC00
FC00
F800
ENDCHAR
STARTCHAR k
ENCODING 107
SWIDTH 508 0
DWIDTH 18 0
BBX 18 23 0 0
BITMAP
1C0000
1C0000
1C0000
1C0000
1C0000
1C0000
1C0F80
1C1F00
1C3E00
1C7C00
1CF000
1DE000
1FC000
1F8000
1FC000
1FE000
1DF000
1CF800
1C7C00
1C3E00
1C1F00
1C0F80
1C0780
ENDCHAR
STARTCHAR l
ENCODING 108
SWIDTH 311 0
DWIDTH 11 0
BBX 11 23 0 0
BITMAP
1C00
1C00
1C00
1C00
1C00
1C00
1C00
1C00
1C00
1C00
1C00
1C00
1C00
1C00
1C00
1C00
1C00
1C00
1C00
1E00
1FC0
0FC0
07C0
ENDCHAR
STARTCHAR m
ENCODING 109
SWIDTH 904 0
DWIDTH 32 0
BBX 32 17 0 0
BITMAP
1DFC1F80
1FFE7FE0
1FFFFFF0
1E0FE0F0
1C07C078
1C038078
1C038038
1C03C038
1C03C038
1C03C038
1C03C038
1C03C038
1C03C038
1C03C038
1C03C038
1C03C038
1C03C038
ENDCHAR
STARTCHAR n
ENCODING 110
SWIDTH 565 0
DWIDTH 20 0
BBX 20 17 0 0
BITMAP
1DFC00
1FFE00
1FFF00
1F0F80
1C0380
1C03C0
1C01C0
1C01C0
1C01C0
1C01C0
1C01C0
1C01C0
1C01C0
1C01C0
1C01C0
1C01C0
1C01C0
ENDCHAR
STARTCHAR o
ENCODING 111
SWIDTH 593 0
DWIDTH 21 0
BBX 21 17 0 0
BITMAP
01F800
07FE00
0FFF80
1F07C0
1E03C0
3C01E0
3801E0
3800E0
3800E0
3800E0
3801E0
3C01E0
1E03C0
1F07C0
0FFF80
07FE00
01FC00
ENDCHAR
STARTCHAR p
ENCODING 112
SWIDTH 565 0
DWIDTH 20 0
BBX 20 23 0 -6
BITMAP
1DFC00
1FFE00
1FFF80
1E0F80
1C03C0
1C01C0
1C01E0
1C01E0
1C00E0
1C01E0
1C01E0
1C01C0
1C03C0
1E0F80
1FFF00
1FFE00
1DF800
1C0000
1C0000
1C0000
1C0000
1C0000
1C0000
ENDCHAR
STARTCHAR q
ENCODING 113
SWIDTH 565 0
DWIDTH 20 0
BBX 20 23 0 -6
BITMAP
01F9C0
07FFC0
0FFFC0
1F07C0
1E01C0
3C01C0
3801C0
3801C0
3801C0
3801C0
3801C0
3C01C0
1E01C0
1F07C0
0FFFC0
07FFC0
01F9C0
0001C0
0001C0
0001C0
0001C0
0001C0
0001C0
ENDCHAR
STARTCHAR r
ENCODING 114
SWIDTH 395 0
DWIDTH 14 0
BBX 14 17 0 0
BITMAP
1DF8
1FF8
1FF8
1E00
1C00
1C00
1C00
1C00
1C00
1C00
1C00
1C00
1C00
1C00
1C00
1C00
1C00
ENDCHAR
STARTCHAR s
ENCODING 115
SWIDTH 452 0
DWIDTH 16 0
BBX 16 17 0 0
BITMAP
07E0
0FF8
1FF8
3C18
3808
3800
3C00
3FC0
1FF8
07FC
007E
001E
200E
381E
3FFC
3FF8
0FE0
ENDCHAR
STARTCHAR t
ENCODING 116
SWIDTH 395 0
DWIDTH 14 0
BBX 14 21 0 0
BITMAP
1E00
1E00
1E00
1E00
7FF8
7FF8
7FF8
1E00
1E00
1E00
1E00
1E00
1E00
1E00
1E00
1E00
1E00
0F00
0FF8
07F8
03F8
ENDCHAR
STARTCHAR u
ENCODING 117
SWIDTH 565 0
DWIDTH 20 0
BBX 20 17 0 0
BITMAP
1C03C0
1C03C0
1C03C0
1C03C0
1C03C0
1C03C0
1C03C0
1C03C0
1C03C0
1C03C0
1C03C0
1C03C0
1E03C0
1F07C0
0FFFC0
07FFC0
01F9C0
ENDCHAR
STARTCHAR v
ENCODING 118
SWIDTH 508 0
DWIDTH 18 0
BBX 18 17 0 0
BITMAP
7003C0
780380
380780
3C0700
3C0700
1C0F00
1E0E00
0E1E00
0E1C00
071C00
073800
07B800
03F800
03F000
01F000
01E000
00E000
ENDCHAR
STARTCHAR w
ENCODING 119
SWIDTH 819 0
DWIDTH 29 0
BBX 29 17 0 0
BITMAP
78070070
780780F0
380F80F0
3C0F80E0
3C0FC0E0
1C1DC1E0
1E1DE1C0
1E3CE1C0
0E38E3C0
0E38F380
0F707380
07707780
07703F00
07E03F00
03E03F00
03E01E00
03C01E00
ENDCHAR
STARTCHAR x
ENCODING 120
SWIDTH 508 0
DWIDTH 18 0
BBX 18 17 0 0
BITMAP
780F00
3C1E00
1E1C00
0E3C00
0F7800
07F000
03E000
01E000
03E000
03F000
07F800
0F7800
1E3C00
1C1E00
3C0E00
780F00
700780
ENDCHAR
STARTCHAR y
ENCODING 121
SWIDTH 508 0
DWIDTH 18 0
BBX 18 23 0 -6
BITMAP
7003C0
780380
380780
380700
3C0700
1C0F00
1E0E00
0E1E00
0F1C00
071C00
073C00
07B800
03B800
03F000
01F000
01F000
00E000
01E000
01C000
03C000
1F8000
1F8000
1E0000
ENDCHAR
STARTCHAR z
ENCODING 122
SWIDTH 452 0
DWIDTH 16 0
BBX 16 17 0 0
BITMAP
3FFE
3FFC
3FFC
0078
0078
00F0
01E0
01E0
03C0
0780
0780
0F00
0F00
1E00
3FFE
3FFE
7FFE
ENDCHAR
STARTCHAR {
ENCODING 123
SWIDTH 339 0
DWIDTH 12 0
BBX 12 30 0 -4
BITMAP
01E0
03E0
0700
0700
0700
0700
0700
0700
0700
0700
0700
0F00
0E00
1E00
3C00
3800
3C00
1E00
0E00
0F00
0700
0700
0700
0700
0700
0700
0700
0700
07E0
01E0
ENDCHAR
STARTCHAR |
ENCODING 124
SWIDTH 226 0
DWIDTH 8 0
BBX 8 34 0 -9
BITMAP
38
38
38
38
38
38
38
38
38
38
38
38
38
38
38
38
38
38
38
38
38
38
38
38
38
38
38
38
38
38
38
38
38
38
ENDCHAR
STARTCHAR }
ENCODING 125
SWIDTH 339 0
DWIDTH 12 0
BBX 12 30 0 -4
BITMAP
7800
7E00
0E00
0E00
0700
0700
0700
0700
0700
0700
0700
0700
0700
07C0
03E0
01E0
03E0
07C0
0700
0700
0700
0700
0700
0700
0700
0700
0600
0E00
7E00
7800
ENDCHAR
STARTCHAR ~
ENCODING 126
SWIDTH 508 0
DWIDTH 18 0
BBX 18 14 0 0
BITMAP
0F0300
1FC300
1FE700
38FF00
387E00
103C00
000000
000000
000000
000000
000000
000000
000000
000000
ENDCHAR
STARTCHAR U+00A0
ENCODING 160
SWIDTH 254 0
DWIDTH 9 0
BBX 9 40 0 -9
BITMAP
0000
0000
0000
0000
0000
0000
0000
0000
0000
0000
0000
0000
0000
0000
0000
0000
0000
0000
0000
0000
0000
0000
0000
0000
0000
0000
0000
0000
0000
0000
0000
0000
0000
0000
0000
0000
0000
0000
0000
0000
ENDCHAR
STARTCHAR U+00A1
ENCODING 161
SWIDTH 282 0
DWIDTH 10 0
BBX 10 23 0 -6
BITMAP
0000
0C00
1E00
0C00
0000
0000
0C00
0C00
0C00
0C00
1C00
1C00
1C00
1C00
1E00
1E00
1E00
1E00
1E00
1E00
1E00
1E00
1E00
ENDCHAR
STARTCHAR U+00A2
ENCODING 162
SWIDTH 480 0
DWIDTH 17 0
BBX 17 21 0 -2
BITMAP
007000
007000
01FC00
07FF00
0FFF00
1F0700
1E0100
3C0000
380000
380000
380000
380000
380000
3C0000
1E0100
1F0700
0FFF00
07FF00
01FC00
007000
007000
ENDCHAR
STARTCHAR U+00A3
ENCODING 163
SWIDTH 508 0
DWIDTH 18 0
BBX 18 23 0 0
BITMAP
007C00
01FF00
01FF00
03C700
038200
078000
070000
070000
070000
070000
070000
1FF800
3FF800
3FF800
0F0000
0F0000
0E0000
0E0000
0E0000
1E0000
1FFF80
3FFF00
7FFF00
ENDCHAR
STARTCHAR U+00A4
ENCODING 164
SWIDTH 593 0
DWIDTH 21 0
BBX 21 17 0 0
BITMAP
080080
1C01C0
3FFBE0
1FFFC0
0FFF80
0F0F80
0E0780
1E0380
1E0380
1E0380
0E0780
0F0F80
0FFF80
1FFFC0
3FFBE0
1C01C0
080080
ENDCHAR
STARTCHAR U+00A5
ENCODING 165
SWIDTH 593 0
DWIDTH 21 0
BBX 21 23 0 0
BITMAP
7800F0
3C00E0
3C01E0
1E03C0
0E0380
0F0780
078700
038F00
1FCFE0
1FDFE0
1FFFE0
00F800
007800
1FFFE0
1FFFE0
1FFFE0
007000
007000
007000
007000
007000
007000
007000
ENDCHAR
STARTCHAR U+00A6
ENCODING 166
SWIDTH 226 0
DWIDTH 8 0
BBX 8 34 0 -9
BITMAP
38
38
38
38
38
38
38
38
38
38
38
38
38
00
00
00
00
00
00
00
00
38
38
38
38
38
38
38
38
38
38
38
38
38
ENDCHAR
STARTCHAR U+00A7
ENCODING 167
SWIDTH 480 0
DWIDTH 17 0
BBX 17 29 0 -6
BITMAP
07E000
1FF000
3FF800
3C3C00
381C00
380800
380000
3C0000
1F0000
1FE000
1FF800
3FFC00
783E00
701E00
700E00
780E00
7C1E00
3FBC00
0FF800
03F800
007C00
001E00
001E00
100E00
781E00
3C3E00
3FFC00
1FF800
07E000
ENDCHAR
STARTCHAR U+00A8
ENCODING 168
SWIDTH 452 0
DWIDTH 16 0
BBX 16 23 0 0
BITMAP
FFFF
FFFF
FFFF
E007
E007
E007
E007
E007
E007
E007
E007
E007
E007
E007
E007
E007
E007
E007
E007
E007
FFFF
FFFF
FFFF
ENDCHAR
STARTCHAR U+00A9
ENCODING 169
SWIDTH 762 0
DWIDTH 27 0
BBX 27 23 0 0
BITMAP
003F8000
00FFF000
03E07800
07001C00
0E000E00
0C1F8700
187FE300
10F06180
31E00180
31C00180
31800080
33800080
33800080
31C00180
31C00180
19E02180
18F0E300
0C7FE700
0E1F8E00
07001C00
03C07800
00FFF000
003F8000
ENDCHAR
STARTCHAR U+00AA
ENCODING 170
SWIDTH 311 0
DWIDTH 11 0
BBX 11 23 0 0
BITMAP
3F00
7F80
0380
0180
0F80
3F80
7180
6180
7F80
3F80
0000
0000
0000
0000
0000
0000
0000
0000
0000
0000
0000
0000
0000
ENDCHAR
STARTCHAR U+00AB
ENCODING 171
SWIDTH 536 0
DWIDTH 19 0
BBX 19 16 0 0
BITMAP
01C380
038700
078F00
0F1E00
0E1C00
1C3800
387000
387000
1C3800
1E3C00
0F1E00
070E00
038700
01C380
000000
000000
ENDCHAR
STARTCHAR U+00AC
ENCODING 172
SWIDTH 508 0
DWIDTH 18 0
BBX 18 16 0 0
BITMAP
3FFF00
3FFF00
3FFF00
000700
000700
000700
000700
000700
000700
000700
000000
000000
000000
000000
000000
000000
ENDCHAR
STARTCHAR U+00AD
ENCODING 173
SWIDTH 367 0
DWIDTH 13 0
BBX 13 11 0 0
BITMAP
7FF0
7FF0
7FF0
0000
0000
0000
0000
0000
0000
0000
0000
ENDCHAR
STARTCHAR U+00AE
ENCODING 174
SWIDTH 762 0
DWIDTH 27 0
BBX 27 23 0 0
BITMAP
003F8000
00FFF000
03C07800
07001C00
0E000E00
0C7F0700
187F8300
1071C180
3070C180
3070C180
3071C080
307F8080
307F0080
30778180
30738180
1871C180
1870E300
0C70F700
0E000E00
07001C00
03C07800
00FFF000
003F8000
ENDCHAR
STARTCHAR U+00AF
ENCODING 175
SWIDTH 452 0
DWIDTH 16 0
BBX 16 23 0 0
BITMAP
FFFF
FFFF
FFFF
E007
E007
E007
E007
E007
E007
E007
E007
E007
E007
E007
E007
E007
E007
E007
E007
E007
FFFF
FFFF
FFFF
ENDCHAR
STARTCHAR U+00B0
ENCODING 176
SWIDTH 367 0
DWIDTH 13 0
BBX 13 23 0 0
BITMAP
0F80
1FC0
3FE0
38E0
3070
3070
38E0
3FE0
1FC0
0F80
0000
0000
0000
0000
0000
0000
0000
0000
0000
0000
0000
0000
0000
ENDCHAR
STARTCHAR U+00B1
ENCODING 177
SWIDTH 508 0
DWIDTH 18 0
BBX 18 20 0 0
BITMAP
00E000
00E000
00E000
00E000
00E000
3FFF00
3FFF00
3FFF00
00E000
00E000
00E000
00E000
00E000
000000
000000
000000
000000
3FFF00
3FFF00
3FFF00
ENDCHAR
STARTCHAR U+00B2
ENCODING 178
SWIDTH 311 0
DWIDTH 11 0
BBX 11 23 0 0
BITMAP
1F00
3F80
7FC0
61C0
41C0
0180
0380
0300
0700
0E00
0C00
1FC0
3FC0
3FC0
0000
0000
0000
0000
0000
0000
0000
0000
0000
ENDCHAR
STARTCHAR U+00B3
ENCODING 179
SWIDTH 311 0
DWIDTH 11 0
BBX 11 23 0 0
BITMAP
7FC0
7F80
0380
0700
0700
0F00
01C0
01C0
00C0
00C0
21C0
71C0
7F80
1F00
0000
0000
0000
0000
0000
0000
0000
0000
0000
ENDCHAR
STARTCHAR U+00B4
ENCODING 180
SWIDTH 452 0
DWIDTH 16 0
BBX 16 23 0 0
BITMAP
FFFF
FFFF
FFFF
E007
E007
E007
E007
E007
E007
E007
E007
E007
E007
E007
E007
E007
E007
E007
E007
E007
FFFF
FFFF
FFFF
ENDCHAR
STARTCHAR U+00B5
ENCODING 181
SWIDTH 565 0
DWIDTH 20 0
BBX 20 23 0 -6
BITMAP
1C0380
1C0380
1C0380
1C0380
1C0380
1C0380
1C0380
1C0380
1C0380
1C0380
1C0380
1C0380
1E0380
1F0F80
1FFF80
1FFF80
1DF380
1C0000
1C0000
1C0000
1C0000
1C0000
1C0000
ENDCHAR
STARTCHAR U+00B6
ENCODING 182
SWIDTH 536 0
DWIDTH 19 0
BBX 19 29 0 -6
BITMAP
03FFC0
0FFFC0
1FE700
3FE700
3FE700
3FE700
3FE700
3FE700
3FE700
1FE700
0FE700
07E700
00E700
00E700
00E700
00E700
00E700
00E700
00E700
00E700
00E700
00E700
00E700
00E700
00E700
00E700
00E700
00E700
00E700
ENDCHAR
STARTCHAR U+00B7
ENCODING 183
SWIDTH 226 0
DWIDTH 8 0
BBX 8 14 0 0
BITMAP
08
1C
3E
1C
08
00
00
00
00
00
00
00
00
00
ENDCHAR
STARTCHAR U+00B8
ENCODING 184
SWIDTH 452 0
DWIDTH 16 0
BBX 16 23 0 0
BITMAP
FFFF
FFFF
FFFF
E007
E007
E007
E007
E007
E007
E007
E007
E007
E007
E007
E007
E007
E007
E007
E007
E007
FFFF
FFFF
FFFF
ENDCHAR
STARTCHAR U+00B9
ENCODING 185
SWIDTH 226 0
DWIDTH 8 0
BBX 8 23 0 0
BITMAP
08
18
18
18
18
18
18
18
18
18
18
18
18
18
00
00
00
00
00
00
00
00
00
ENDCHAR
STARTCHAR U+00BA
ENCODING 186
SWIDTH 367 0
DWIDTH 13 0
BBX 13 23 0 0
BITMAP
0F80
1FE0
38E0
7070
7070
7070
7070
38E0
1FC0
0F80
0000
0000
0000
0000
0000
0000
0000
0000
0000
0000
0000
0000
0000
ENDCHAR
STARTCHAR U+00BB
ENCODING 187
SWIDTH 536 0
DWIDTH 19 0
BBX 19 16 0 0
BITMAP
387000
1C3800
0E1C00
0F0E00
070F00
038700
01C380
01C380
038780
078F00
0F0E00
0E1C00
1C3800
387000
000000
000000
ENDCHAR
STARTCHAR U+00BC
ENCODING 188
SWIDTH 762 0
DWIDTH 27 0
BBX 27 23 0 0
BITMAP
08007000
18007000
1800E000
1800E000
1801C000
1801C000
18038000
18038000
18070000
18060100
180E0100
180C0300
181C0700
18180F00
00381F00
00303B00
00707300
0060E300
00E1FFC0
00C3FFC0
01C00300
01800300
03800300
ENDCHAR
STARTCHAR U+00BD
ENCODING 189
SWIDTH 791 0
DWIDTH 28 0
BBX 28 23 0 0
BITMAP
08007000
18007000
1800E000
1800E000
1801C000
1801C000
18038000
18038000
18070000
18060F80
180E1FC0
180C3FE0
181C30E0
181820E0
003800C0
003001C0
00700180
00600380
00E00700
00C00600
01C00FE0
01801FE0
03801FE0
ENDCHAR
STARTCHAR U+00BE
ENCODING 190
SWIDTH 847 0
DWIDTH 30 0
BBX 30 23 0 0
BITMAP
7FC01C00
7F801C00
03803800
07003800
07007000
0F007000
01C0E000
01C0E000
00C1C000
00C18020
21C38020
71C30060
7F8700E0
1F0601E0
000E03E0
000C0760
001C0E60
00181C60
00383FF8
00307FF8
00700060
00600060
00E00060
ENDCHAR
STARTCHAR U+00BF
ENCODING 191
SWIDTH 452 0
DWIDTH 16 0
BBX 16 23 0 -6
BITMAP
0080
01C0
03E0
01C0
0080
0000
0080
01C0
01E0
00E0
00E0
01E0
07C0
0F80
1E00
3C00
3800
3800
3C08
3E1E
1FFC
0FF8
07E0
ENDCHAR
STARTCHAR U+00C0
ENCODING 192
SWIDTH 649 0
DWIDTH 23 0
BBX 23 30 0 0
BITMAP
01E000
00F000
007000
003800
001C00
000000
000000
003800
007800
007C00
00FC00
00FE00
00EE00
01EE00
01CF00
03C700
038780
038380
078380
0703C0
0F01C0
0FFFE0
0FFFE0
1FFFF0
1C00F0
3C0070
3C0078
380038
78003C
78003C
ENDCHAR
STARTCHAR U+00C1
ENCODING 193
SWIDTH 649 0
DWIDTH 23 0
BBX 23 30 0 0
BITMAP
000F00
001E00
003C00
003800
007000
000000
000000
003800
007800
007C00
00FC00
00FE00
00EE00
01EE00
01CF00
03C700
038780
038380
078380
0703C0
0F01C0
0FFFE0
0FFFE0
1FFFF0
1C00F0
3C0070
3C0078
380038
78003C
78003C
ENDCHAR
STARTCHAR U+00C2
ENCODING 194
SWIDTH 649 0
DWIDTH 23 0
BBX 23 30 0 0
BITMAP
007800
00FC00
00CC00
01CE00
038700
000000
000000
003800
007800
007C00
00FC00
00FE00
00EE00
01EE00
01CF00
03C700
038780
038380
078380
0703C0
0F01C0
0FFFE0
0FFFE0
1FFFF0
1C00F0
3C0070
3C0078
380038
78003C
78003C
ENDCHAR
STARTCHAR U+00C3
ENCODING 195
SWIDTH 649 0
DWIDTH 23 0
BBX 23 29 0 0
BITMAP
01E100
03FB80
03BF00
010E00
000000
000000
003800
007800
007C00
00FC00
00FE00
00EE00
01EE00
01CF00
03C700
038780
038380
078380
0703C0
0F01C0
0FFFE0
0FFFE0
1FFFF0
1C00F0
3C0070
3C0078
380038
78003C
78003C
ENDCHAR
STARTCHAR U+00C4
ENCODING 196
SWIDTH 649 0
DWIDTH 23 0
BBX 23 30 0 0
BITMAP
010200
018700
03CF80
018700
010200
000000
000000
003800
007800
007C00
00FC00
00FE00
00EE00
01EE00
01CF00
03C700
038780
038380
078380
0703C0
0F01C0
0FFFE0
0FFFE0
1FFFF0
1C00F0
3C0070
3C0078
380038
78003C
78003C
ENDCHAR
STARTCHAR U+00C5
ENCODING 197
SWIDTH 649 0
DWIDTH 23 0
BBX 23 31 0 0
BITMAP
003C00
006E00
004600
004600
006E00
003C00
000000
000000
003800
007800
007C00
00FC00
00FE00
00EE00
01EE00
01CF00
03C700
038780
038380
078380
0703C0
0F01C0
0FFFE0
0FFFE0
1FFFF0
1C00F0
3C0070
3C0078
380038
78003C
78003C
ENDCHAR
STARTCHAR U+00C6
ENCODING 198
SWIDTH 875 0
DWIDTH 31 0
BBX 31 23 0 0
BITMAP
0007FFF8
0007FFF8
000FFFF8
000EE000
001EE000
003CE000
003CE000
0078E000
0070E000
00F0FFE0
01E0FFE0
01E0FFE0
03C0E000
03FFE000
07FFE000
07FFE000
0F00E000
1E00E000
1E00E000
3C00E000
3C00FFFC
7800FFFC
7800FFFC
ENDCHAR
STARTCHAR U+00C7
ENCODING 199
SWIDTH 649 0
DWIDTH 23 0
BBX 23 30 0 -7
BITMAP
003FC0
00FFF0
03FFF8
07E038
0F8008
0F0000
1E0000
1C0000
3C0000
3C0000
380000
380000
3C0000
3C0000
3C0000
1C0000
1E0000
0F0000
0F8008
07E038
03FFF8
00FFF0
003F80
000C00
001F00
001F00
000780
000700
007F00
007E00
ENDCHAR
STARTCHAR U+00C8
ENCODING 200
SWIDTH 565 0
DWIDTH 20 0
BBX 20 30 0 0
BITMAP
03C000
01E000
00E000
007000
003800
000000
000000
1FFFC0
1FFFC0
1FFFC0
1E0000
1E0000
1E0000
1E0000
1E0000
1E0000
1FFE00
1FFE00
1FFE00
1E0000
1E0000
1E0000
1E0000
1E0000
1E0000
1E0000
1E0000
1FFFC0
1FFFC0
1FFFC0
ENDCHAR
STARTCHAR U+00C9
ENCODING 201
SWIDTH 565 0
DWIDTH 20 0
BBX 20 30 0 0
BITMAP
001E00
003C00
007800
007000
00E000
000000
000000
1FFFC0
1FFFC0
1FFFC0
1E0000
1E0000
1E0000
1E0000
1E0000
1E0000
1FFE00
1FFE00
1FFE00
1E0000
1E0000
1E0000
1E0000
1E0000
1E0000
1E0000
1E0000
1FFFC0
1FFFC0
1FFFC0
ENDCHAR
STARTCHAR U+00CA
ENCODING 202
SWIDTH 565 0
DWIDTH 20 0
BBX 20 30 0 0
BITMAP
00F000
01F800
019800
039C00
070E00
000000
000000
1FFFC0
1FFFC0
1FFFC0
1E0000
1E0000
1E0000
1E0000
1E0000
1E0000
1FFE00
1FFE00
1FFE00
1E0000
1E0000
1E0000
1E0000
1E0000
1E0000
1E0000
1E0000
1FFFC0
1FFFC0
1FFFC0
ENDCHAR
STARTCHAR U+00CB
ENCODING 203
SWIDTH 565 0
DWIDTH 20 0
BBX 20 30 0 0
BITMAP
020400
030E00
079F00
030E00
020400
000000
000000
1FFFC0
1FFFC0
1FFFC0
1E0000
1E0000
1E0000
1E0000
1E0000
1E0000
1FFE00
1FFE00
1FFE00
1E0000
1E0000
1E0000
1E0000
1E0000
1E0000
1E0000
1E0000
1FFFC0
1FFFC0
1FFFC0
ENDCHAR
STARTCHAR U+00CC
ENCODING 204
SWIDTH 282 0
DWIDTH 10 0
BBX 10 30 0 0
BITMAP
7800
3C00
1C00
0E00
0700
0000
0000
1E00
1E00
1E00
1E00
1E00
1E00
1E00
1E00
1E00
1E00
1E00
1E00
1E00
1E00
1E00
1E00
1E00
1E00
1E00
1E00
1E00
1E00
1E00
ENDCHAR
STARTCHAR U+00CD
ENCODING 205
SWIDTH 282 0
DWIDTH 10 0
BBX 10 30 0 0
BITMAP
03C0
0780
0F00
0E00
1C00
0000
0000
1E00
1E00
1E00
1E00
1E00
1E00
1E00
1E00
1E00
1E00
1E00
1E00
1E00
1E00
1E00
1E00
1E00
1E00
1E00
1E00
1E00
1E00
1E00
ENDCHAR
STARTCHAR U+00CE
ENCODING 206
SWIDTH 282 0
DWIDTH 10 0
BBX 10 30 0 0
BITMAP
1E00
3F00
3300
7380
E1C0
0000
0000
1E00
1E00
1E00
1E00
1E00
1E00
1E00
1E00
1E00
1E00
1E00
1E00
1E00
1E00
1E00
1E00
1E00
1E00
1E00
1E00
1E00
1E00
1E00
ENDCHAR
STARTCHAR U+00CF
ENCODING 207
SWIDTH 282 0
DWIDTH 10 0
BBX 12 30 -1 0
BITMAP
4080
61C0
F3E0
61C0
4080
0000
0000
1E00
1E00
1E00
1E00
1E00
1E00
1E00
1E00
1E00
1E00
1E00
1E00
1E00
1E00
1E00
1E00
1E00
1E00
1E00
1E00
1E00
1E00
1E00
ENDCHAR
STARTCHAR U+00D0
ENCODING 208
SWIDTH 706 0
DWIDTH 25 0
BBX 25 23 0 0
BITMAP
1FFC0000
1FFF8000
1FFFC000
1E07F000
1E00F800
1E007800
1E003C00
1E003C00
1E001C00
1E001E00
7FF01E00
7FF01E00
7FF01E00
1E001E00
1E001C00
1E003C00
1E003C00
1E007800
1E00F000
1E07F000
1FFFC000
1FFF8000
1FFC0000
ENDCHAR
STARTCHAR U+00D1
ENCODING 209
SWIDTH 734 0
DWIDTH 26 0
BBX 26 29 0 0
BITMAP
00F08000
01FDC000
01DF8000
00870000
00000000
00000000
1E000E00
1F000E00
1F000E00
1F800E00
1FC00E00
1FE00E00
1FE00E00
1EF00E00
1E780E00
1E3C0E00
1E3E0E00
1E1E0E00
1E0F0E00
1E078E00
1E07CE00
1E03CE00
1E01EE00
1E00FE00
1E007E00
1E007E00
1E003E00
1E001E00
1E000E00
ENDCHAR
STARTCHAR U+00D2
ENCODING 210
SWIDTH 791 0
DWIDTH 28 0
BBX 28 30 0 0
BITMAP
003C0000
001E0000
000E0000
00070000
00038000
00000000
00000000
003FC000
00FFF000
03FFF800
07E07E00
0F801F00
0F000F00
1E000780
1C000380
3C0003C0
3C0003C0
3C0003C0
380003C0
3C0003C0
3C0003C0
3C0003C0
1C000380
1E000780
0F000F00
0F801F00
07E07E00
03FFF800
00FFF000
003F8000
ENDCHAR
STARTCHAR U+00D3
ENCODING 211
SWIDTH 791 0
DWIDTH 28 0
BBX 28 30 0 0
BITMAP
0001E000
0003C000
00078000
00070000
000E0000
00000000
00000000
003FC000
00FFF000
03FFF800
07E07E00
0F801F00
0F000F00
1E000780
1C000380
3C0003C0
3C0003C0
3C0003C0
380003C0
3C0003C0
3C0003C0
3C0003C0
1C000380
1E000780
0F000F00
0F801F00
07E07E00
03FFF800
00FFF000
003F8000
ENDCHAR
STARTCHAR U+00D4
ENCODING 212
SWIDTH 791 0
DWIDTH 28 0
BBX 28 30 0 0
BITMAP
000F0000
001F8000
00198000
0039C000
0070E000
00000000
00000000
003FC000
00FFF000
03FFF800
07E07E00
0F801F00
0F000F00
1E000780
1C000380
3C0003C0
3C0003C0
3C0003C0
380003C0
3C0003C0
3C0003C0
3C0003C0
1C000380
1E000780
0F000F00
0F801F00
07E07E00
03FFF800
00FFF000
003F8000
ENDCHAR
STARTCHAR U+00D5
ENCODING 213
SWIDTH 791 0
DWIDTH 28 0
BBX 28 29 0 0
BITMAP
00784000
00FEE000
00EFC000
00438000
00000000
00000000
003FC000
00FFF000
03FFF800
07E07E00
0F801F00
0F000F00
1E000780
1C000380
3C0003C0
3C0003C0
3C0003C0
380003C0
3C0003C0
3C0003C0
3C0003C0
1C000380
1E000780
0F000F00
0F801F00
07E07E00
03FFF800
00FFF000
003F8000
ENDCHAR
STARTCHAR U+00D6
ENCODING 214
SWIDTH 791 0
DWIDTH 28 0
BBX 28 30 0 0
BITMAP
00204000
0030E000
0079F000
0030E000
00204000
00000000
00000000
003FC000
00FFF000
03FFF800
07E07E00
0F801F00
0F000F00
1E000780
1C000380
3C0003C0
3C0003C0
3C0003C0
380003C0
3C0003C0
3C0003C0
3C0003C0
1C000380
1E000780
0F000F00
0F801F00
07E07E00
03FFF800
00FFF000
003F8000
ENDCHAR
STARTCHAR U+00D7
ENCODING 215
SWIDTH 508 0
DWIDTH 18 0
BBX 18 18 0 0
BITMAP
080400
1E0E00
1F1E00
0FBC00
07F800
01F000
01F000
07F800
0FBC00
1F1E00
1C0E00
080400
000000
000000
000000
000000
000000
000000
ENDCHAR
STARTCHAR U+00D8
ENCODING 216
SWIDTH 791 0
DWIDTH 28 0
BBX 28 23 0 0
BITMAP
003FC100
00FFF380
03FFFF00
07E07F00
0F801F00
0F003F00
1E007F80
1C00F380
3C01E3C0
3C03C3C0
3C0783C0
380F03C0
3C1E03C0
3C3C03C0
3C7803C0
1CF00380
1FE00780
0FC00F00
0F801F00
0FE07E00
1FFFF800
1CFFF000
083F8000
ENDCHAR
STARTCHAR U+00D9
ENCODING 217
SWIDTH 734 0
DWIDTH 26 0
BBX 26 30 0 0
BITMAP
00780000
003C0000
001C0000
000E0000
00070000
00000000
00000000
1C000E00
1C000E00
1C000E00
1C000E00
1C000E00
1C000E00
1C000E00
1C000E00
1C000E00
1C000E00
1C000E00
1C000E00
1C000E00
1C000E00
1E000E00
1E001E00
0E001E00
0F003C00
07807C00
07E0F800
03FFF000
00FFE000
003F0000
ENDCHAR
STARTCHAR U+00DA
ENCODING 218
SWIDTH 734 0
DWIDTH 26 0
BBX 26 30 0 0
BITMAP
0003C000
00078000
000F0000
000E0000
001C0000
00000000
00000000
1C000E00
1C000E00
1C000E00
1C000E00
1C000E00
1C000E00
1C000E00
1C000E00
1C000E00
1C000E00
1C000E00
1C000E00
1C000E00
1C000E00
1E000E00
1E001E00
0E001E00
0F003C00
07807C00
07E0F800
03FFF000
00FFE000
003F0000
ENDCHAR
STARTCHAR U+00DB
ENCODING 219
SWIDTH 734 0
DWIDTH 26 0
BBX 26 30 0 0
BITMAP
001E0000
003F0000
00330000
00738000
00E1C000
00000000
00000000
1C000E00
1C000E00
1C000E00
1C000E00
1C000E00
1C000E00
1C000E00
1C000E00
1C000E00
1C000E00
1C000E00
1C000E00
1C000E00
1C000E00
1E000E00
1E001E00
0E001E00
0F003C00
07807C00
07E0F800
03FFF000
00FFE000
003F0000
ENDCHAR
STARTCHAR U+00DC
ENCODING 220
SWIDTH 734 0
DWIDTH 26 0
BBX 26 30 0 0
BITMAP
00408000
0061C000
00F3E000
0061C000
00408000
00000000
00000000
1C000E00
1C000E00
1C000E00
1C000E00
1C000E00
1C000E00
1C000E00
1C000E00
1C000E00
1C000E00
1C000E00
1C000E00
1C000E00
1C000E00
1E000E00
1E001E00
0E001E00
0F003C00
07807C00
07E0F800
03FFF000
00FFE000
003F0000
ENDCHAR
STARTCHAR U+00DD
ENCODING 221
SWIDTH 565 0
DWIDTH 20 0
BBX 20 30 0 0
BITMAP
001E00
003C00
007800
007000
00E000
000000
000000
7800F0
7801E0
3C01C0
1E03C0
1E0780
0F0700
078F00
079E00
03DC00
01FC00
01F800
00F800
007000
007000
007000
007000
007000
007000
007000
007000
007000
007000
007000
ENDCHAR
STARTCHAR U+00DE
ENCODING 222
SWIDTH 565 0
DWIDTH 20 0
BBX 20 23 0 0
BITMAP
1E0000
1E0000
1E0000
1E0000
1FFC00
1FFF00
1FFF80
1E07C0
1E03C0
1E01C0
1E01C0
1E01C0
1E01C0
1E03C0
1E07C0
1FFF80
1FFF00
1FFC00
1E0000
1E0000
1E0000
1E0000
1E0000
ENDCHAR
STARTCHAR U+00DF
ENCODING 223
SWIDTH 536 0
DWIDTH 19 0
BBX 19 23 0 0
BITMAP
01F800
07FC00
0FFE00
0F0F00
1E0700
1C0700
1C0700
1C0700
1C0E00
1CFC00
1CF800
1CFE00
1C0F00
1C0780
1C0380
1C0380
1C0380
1C0380
1C0780
1C0F80
1CFF00
1CFE00
1CF800
ENDCHAR
STARTCHAR U+00E0
ENCODING 224
SWIDTH 508 0
DWIDTH 18 0
BBX 18 24 0 0
BITMAP
0F0000
078000
038000
01C000
00E000
000000
000000
07E000
1FF800
1FFC00
183E00
201E00
000E00
00FE00
07FE00
1F0E00
1C0E00
380E00
380E00
380E00
3C3E00
3FFE00
1FFE00
0FCE00
ENDCHAR
STARTCHAR U+00E1
ENCODING 225
SWIDTH 508 0
DWIDTH 18 0
BBX 18 24 0 0
BITMAP
007800
00F000
01E000
01C000
038000
000000
000000
07E000
1FF800
1FFC00
183E00
201E00
000E00
00FE00
07FE00
1F0E00
1C0E00
380E00
380E00
380E00
3C3E00
3FFE00
1FFE00
0FCE00
ENDCHAR
STARTCHAR U+00E2
ENCODING 226
SWIDTH 508 0
DWIDTH 18 0
BBX 18 24 0 0
BITMAP
01E000
03F000
033000
073800
0E1C00
000000
000000
07E000
1FF800
1FFC00
183E00
201E00
000E00
00FE00
07FE00
1F0E00
1C0E00
380E00
380E00
380E00
3C3E00
3FFE00
1FFE00
0FCE00
ENDCHAR
STARTCHAR U+00E3
ENCODING 227
SWIDTH 508 0
DWIDTH 18 0
BBX 18 23 0 0
BITMAP
0F0800
1FDC00
1DF800
087000
000000
000000
07E000
1FF800
1FFC00
183E00
201E00
000E00
00FE00
07FE00
1F0E00
1C0E00
380E00
380E00
380E00
3C3E00
3FFE00
1FFE00
0FCE00
ENDCHAR
STARTCHAR U+00E4
ENCODING 228
SWIDTH 508 0
DWIDTH 18 0
BBX 18 24 0 0
BITMAP
081000
0C3800
1E7C00
0C3800
081000
000000
000000
07E000
1FF800
1FFC00
183E00
201E00
000E00
00FE00
07FE00
1F0E00
1C0E00
380E00
380E00
380E00
3C3E00
3FFE00
1FFE00
0FCE00
ENDCHAR
STARTCHAR U+00E5
ENCODING 229
SWIDTH 508 0
DWIDTH 18 0
BBX 18 25 0 0
BITMAP
01E000
037000
023000
023000
037000
01E000
000000
000000
07E000
1FF800
1FFC00
183E00
201E00
000E00
00FE00
07FE00
1F0E00
1C0E00
380E00
380E00
380E00
3C3E00
3FFE00
1FFE00
0FCE00
ENDCHAR
STARTCHAR U+00E6
ENCODING 230
SWIDTH 791 0
DWIDTH 28 0
BBX 28 17 0 0
BITMAP
07E0FC00
1FF9FF00
1FFFFF80
183F87C0
201F01C0
000E01C0
00FFFFE0
07FFFFE0
1F0E0000
3C0E0000
380E0000
380F0000
380F8040
3C3FC1C0
3FFFFFC0
1FF1FF80
0FC07E00
ENDCHAR
STARTCHAR U+00E7
ENCODING 231
SWIDTH 480 0
DWIDTH 17 0
BBX 17 24 0 -7
BITMAP
01FC00
07FF00
0FFF00
1F0700
1E0100
3C0000
380000
380000
380000
380000
380000
3C0000
1E0100
1F0700
0FFF00
07FF00
01FC00
006000
007800
00FC00
001C00
001C00
01F800
01F000
ENDCHAR
STARTCHAR U+00E8
ENCODING 232
SWIDTH 536 0
DWIDTH 19 0
BBX 19 24 0 0
BITMAP
078000
03C000
01C000
00E000
007000
000000
000000
01F800
07FC00
0FFE00
1F0F00
1C0700
3C0780
380380
3FFF80
3FFF80
3FFF80
380000
380000
1C0080
1F0780
0FFF80
07FF00
01FC00
ENDCHAR
STARTCHAR U+00E9
ENCODING 233
SWIDTH 536 0
DWIDTH 19 0
BBX 19 24 0 0
BITMAP
003C00
007800
00F000
00E000
01C000
000000
000000
01F800
07FC00
0FFE00
1F0F00
1C0700
3C0780
380380
3FFF80
3FFF80
3FFF80
380000
380000
1C0080
1F0780
0FFF80
07FF00
01FC00
ENDCHAR
STARTCHAR U+00EA
ENCODING 234
SWIDTH 536 0
DWIDTH 19 0
BBX 19 24 0 0
BITMAP
01E000
03F000
033000
073800
0E1C00
000000
000000
01F800
07FC00
0FFE00
1F0F00
1C0700
3C0780
380380
3FFF80
3FFF80
3FFF80
380000
380000
1C0080
1F0780
0FFF80
07FF00
01FC00
ENDCHAR
STARTCHAR U+00EB
ENCODING 235
SWIDTH 536 0
DWIDTH 19 0
BBX 19 24 0 0
BITMAP
040800
061C00
0F3E00
061C00
040800
000000
000000
01F800
07FC00
0FFE00
1F0F00
1C0700
3C0780
380380
3FFF80
3FFF80
3FFF80
380000
380000
1C0080
1F0780
0FFF80
07FF00
01FC00
ENDCHAR
STARTCHAR U+00EC
ENCODING 236
SWIDTH 254 0
DWIDTH 9 0
BBX 10 24 -1 0
BITMAP
F000
7800
3800
1C00
0E00
0000
0000
1C00
1C00
1C00
1C00
1C00
1C00
1C00
1C00
1C00
1C00
1C00
1C00
1C00
1C00
1C00
1C00
1C00
ENDCHAR
STARTCHAR U+00ED
ENCODING 237
SWIDTH 254 0
DWIDTH 9 0
BBX 10 24 0 0
BITMAP
0000
0000
0000
0000
0000
0000
0000
0000
0000
0000
0000
0000
0000
0000
0000
0000
0000
0000
0000
0000
0000
0000
0000
0000
ENDCHAR
STARTCHAR U+00EE
ENCODING 238
SWIDTH 254 0
DWIDTH 9 0
BBX 11 24 -1 0
BITMAP
0000
0000
0000
0000
0000
0000
0000
0000
0000
0000
0000
0000
0000
0000
0000
0000
0000
0000
0000
0000
0000
0000
0000
0000
ENDCHAR
STARTCHAR U+00EF
ENCODING 239
SWIDTH 254 0
DWIDTH 9 0
BBX 13 24 -2 0
BITMAP
0000
0000
0000
0000
0000
0000
0000
0000
0000
0000
0000
0000
0000
0000
0000
0000
0000
0000
0000
0000
0000
0000
0000
0000
ENDCHAR
STARTCHAR U+00F0
ENCODING 240
SWIDTH 536 0
DWIDTH 19 0
BBX 19 23 0 0
BITMAP
030C00
07FE00
03FC00
01F000
07F800
0F3C00
041E00
03FE00
07FF00
0FFF00
1E0F80
3C0380
380380
380380
380380
380380
380380
380780
3C0F00
1E1F00
1FFE00
07FC00
03F000
ENDCHAR
STARTCHAR U+00F1
ENCODING 241
SWIDTH 565 0
DWIDTH 20 0
BBX 20 23 0 0
BITMAP
03C200
07F700
077E00
021C00
000000
000000
1DFC00
1FFE00
1FFF00
1F0F80
1C0380
1C03C0
1C01C0
1C01C0
1C01C0
1C01C0
1C01C0
1C01C0
1C01C0
1C01C0
1C01C0
1C01C0
1C01C0
ENDCHAR
STARTCHAR U+00F2
ENCODING 242
SWIDTH 593 0
DWIDTH 21 0
BBX 21 24 0 0
BITMAP
03C000
01E000
00E000
007000
003800
000000
000000
01F800
07FE00
0FFF80
1F07C0
1E03C0
3C01E0
3801E0
3800E0
3800E0
3800E0
3801E0
3C01E0
1E03C0
1F07C0
0FFF80
07FE00
01FC00
ENDCHAR
STARTCHAR U+00F3
ENCODING 243
SWIDTH 593 0
DWIDTH 21 0
BBX 21 24 0 0
BITMAP
001E00
003C00
007800
007000
00E000
000000
000000
01F800
07FE00
0FFF80
1F07C0
1E03C0
3C01E0
3801E0
3800E0
3800E0
3800E0
3801E0
3C01E0
1E03C0
1F07C0
0FFF80
07FE00
01FC00
ENDCHAR
STARTCHAR U+00F4
ENCODING 244
SWIDTH 593 0
DWIDTH 21 0
BBX 21 24 0 0
BITMAP
00F000
01F800
019800
039C00
070E00
000000
000000
01F800
07FE00
0FFF80
1F07C0
1E03C0
3C01E0
3801E0
3800E0
3800E0
3800E0
3801E0
3C01E0
1E03C0
1F07C0
0FFF80
07FE00
01FC00
ENDCHAR
STARTCHAR U+00F5
ENCODING 245
SWIDTH 593 0
DWIDTH 21 0
BBX 21 23 0 0
BITMAP
03C200
07F700
077E00
021C00
000000
000000
01F800
07FE00
0FFF80
1F07C0
1E03C0
3C01E0
3801E0
3800E0
3800E0
3800E0
3801E0
3C01E0
1E03C0
1F07C0
0FFF80
07FE00
01FC00
ENDCHAR
STARTCHAR U+00F6
ENCODING 246
SWIDTH 593 0
DWIDTH 21 0
BBX 21 24 0 0
BITMAP
020400
030E00
079F00
030E00
020400
000000
000000
01F800
07FE00
0FFF80
1F07C0
1E03C0
3C01E0
3801E0
3800E0
3800E0
3800E0
3801E0
3C01E0
1E03C0
1F07C0
0FFF80
07FE00
01FC00
ENDCHAR
STARTCHAR U+00F7
ENCODING 247
SWIDTH 508 0
DWIDTH 18 0
BBX 18 20 0 0
BITMAP
004000
00E000
01F000
00E000
004000
000000
000000
3FFF00
3FFF00
3FFF00
000000
000000
004000
00E000
01F000
00E000
004000
000000
000000
000000
ENDCHAR
STARTCHAR U+00F8
ENCODING 248
SWIDTH 593 0
DWIDTH 21 0
BBX 21 19 0 -1
BITMAP
000080
01F9C0
07FF80
0FFF80
1F07C0
1E0FC0
3C1DE0
3819E0
3830E0
3870E0
38E0E0
39C1E0
3D81E0
1F03C0
1F07C0
0FFF80
0FFE00
19FC00
080000
ENDCHAR
STARTCHAR U+00F9
ENCODING 249
SWIDTH 565 0
DWIDTH 20 0
BBX 20 24 0 0
BITMAP
03C000
01E000
00E000
007000
003800
000000
000000
1C03C0
1C03C0
1C03C0
1C03C0
1C03C0
1C03C0
1C03C0
1C03C0
1C03C0
1C03C0
1C03C0
1C03C0
1E03C0
1F07C0
0FFFC0
07FFC0
01F9C0
ENDCHAR
STARTCHAR U+00FA
ENCODING 250
SWIDTH 565 0
DWIDTH 20 0
BBX 20 24 0 0
BITMAP
001E00
003C00
007800
007000
00E000
000000
000000
1C03C0
1C03C0
1C03C0
1C03C0
1C03C0
1C03C0
1C03C0
1C03C0
1C03C0
1C03C0
1C03C0
1C03C0
1E03C0
1F07C0
0FFFC0
07FFC0
01F9C0
ENDCHAR
STARTCHAR U+00FB
ENCODING 251
SWIDTH 565 0
DWIDTH 20 0
BBX 20 24 0 0
BITMAP
00F000
01F800
019800
039C00
070E00
000000
000000
1C03C0
1C03C0
1C03C0
1C03C0
1C03C0
1C03C0
1C03C0
1C03C0
1C03C0
1C03C0
1C03C0
1C03C0
1E03C0
1F07C0
0FFFC0
07FFC0
01F9C0
ENDCHAR
STARTCHAR U+00FC
ENCODING 252
SWIDTH 565 0
DWIDTH 20 0
BBX 20 24 0 0
BITMAP
020400
030E00
079F00
030E00
020400
000000
000000
1C03C0
1C03C0
1C03C0
1C03C0
1C03C0
1C03C0
1C03C0
1C03C0
1C03C0
1C03C0
1C03C0
1C03C0
1E03C0
1F07C0
0FFFC0
07FFC0
01F9C0
ENDCHAR
STARTCHAR U+00FD
ENCODING 253
SWIDTH 508 0
DWIDTH 18 0
BBX 18 30 0 -6
BITMAP
003C00
007800
00F000
00E000
01C000
000000
000000
7003C0
780380
380780
380700
3C0700
1C0F00
1E0E00
0E1E00
0F1C00
071C00
073C00
07B800
03B800
03F000
01F000
01F000
00E000
01E000
01C000
03C000
1F8000
1F8000
1E0000
ENDCHAR
STARTCHAR U+00FE
ENCODING 254
SWIDTH 565 0
DWIDTH 20 0
BBX 20 29 0 -6
BITMAP
1C0000
1C0000
1C0000
1C0000
1C0000
1C0000
1DFC00
1FFE00
1FFF80
1E0F80
1C03C0
1C01C0
1C01E0
1C01E0
1C00E0
1C01E0
1C01E0
1C01C0
1C03C0
1E0F80
1FFF00
1FFE00
1DF800
1C0000
1C0000
1C0000
1C0000
1C0000
1C0000
ENDCHAR
STARTCHAR U+00FF
ENCODING 255
SWIDTH 508 0
DWIDTH 18 0
BBX 18 30 0 -6
BITMAP
040800
061C00
0F3E00
061C00
040800
000000
000000
7003C0
780380
380780
380700
3C0700
1C0F00
1E0E00
0E1E00
0F1C00
071C00
073C00
07B800
03B800
03F000
01F000
01F000
00E000
01E000
01C000
03C000
1F8000
1F8000
1E0000
ENDCHAR
STARTCHAR U+2013
ENCODING 8211
SWIDTH 480 0
DWIDTH 17 0
BBX 19 11 -1 0
BITMAP
FFFF80
FFFF80
FFFF80
000000
000000
000000
000000
000000
000000
000000
000000
ENDCHAR
STARTCHAR U+2014
ENCODING 8212
SWIDTH 960 0
DWIDTH 34 0
BBX 36 11 -1 0
BITMAP
FFFFFFFFC0
FFFFFFFFC0
FFFFFFFFC0
0000000000
0000000000
0000000000
0000000000
0000000000
0000000000
0000000000
0000000000
ENDCHAR
STARTCHAR U+2018
ENCODING 8216
SWIDTH 226 0
DWIDTH 8 0
BBX 8 23 0 0
BITMAP
04
08
18
38
3C
3E
1C
08
00
00
00
00
00
00
00
00
00
00
00
00
00
00
00
ENDCHAR
STARTCHAR U+2019
ENCODING 8217
SWIDTH 226 0
DWIDTH 8 0
BBX 8 23 0 0
BITMAP
08
1C
3C
1C
1C
18
10
20
00
00
00
00
00
00
00
00
00
00
00
00
00
00
00
ENDCHAR
STARTCHAR U+201C
ENCODING 8220
SWIDTH 395 0
DWIDTH 14 0
BBX 14 23 0 0
BITMAP
0420
0860
18C0
38E0
3CE0
3EF0
1CE0
0840
0000
0000
0000
0000
0000
0000
0000
0000
0000
0000
0000
0000
0000
0000
0000
ENDCHAR
STARTCHAR U+201D
ENCODING 8221
SWIDTH 395 0
DWIDTH 14 0
BBX 14 23 0 0
BITMAP
0840
1CE0
3DE0
1CE0
1CE0
18C0
1080
2100
0000
0000
0000
0000
0000
0000
0000
0000
0000
0000
0000
0000
0000
0000
0000
ENDCHAR
STARTCHAR U+2022
ENCODING 8226
SWIDTH 395 0
DWIDTH 14 0
BBX 14 15 0 0
BITMAP
0100
0380
07C0
0FE0
1FF0
0FE0
07C0
0380
0100
0000
0000
0000
0000
0000
0000
ENDCHAR
STARTCHAR U+2026
ENCODING 8230
SWIDTH 875 0
DWIDTH 31 0
BBX 31 5 0 0
BITMAP
08010010
1C038038
3E07C07C
1C038038
08010010
ENDCHAR
STARTCHAR U+20AC
ENCODING 8364
SWIDTH 593 0
DWIDTH 21 0
BBX 21 23 0 0
BITMAP
003F00
00FFC0
01FFE0
03E0E0
078020
0F0000
0E0000
1E0000
7FFF00
7FFF00
7FFE00
1C0000
1C0000
7FFE00
7FFE00
7FFC00
1E0000
0F0000
0F8020
07C0E0
03FFE0
00FFC0
003F00
ENDCHAR
ENDFONT
