STARTFONT 2.1
COMMENT Converted from Johnston100 W03 Regular.ttf at 24px with ttf2bdf.py (Pillow, 1-bit, no AA)
FONT -Misc-Johnston100-Medium-R-Normal--24-240-75-75-P-260-ISO10646-1
SIZE 24 75 75
FONTBOUNDINGBOX 26 28 -1 -6
STARTPROPERTIES 9
FOUNDRY "Misc"
FAMILY_NAME "Johnston100"
WEIGHT_NAME "Medium"
SLANT "R"
PIXEL_SIZE 24
RESOLUTION_X 75
RESOLUTION_Y 75
FONT_ASCENT 22
FONT_DESCENT 6
ENDPROPERTIES
CHARS 200
STARTCHAR space
ENCODING 32
SWIDTH 240 0
DWIDTH 6 0
BBX 6 28 0 -6
BITMAP
00
00
00
00
00
00
00
00
00
00
00
00
00
00
00
00
00
00
00
00
00
00
00
00
00
00
00
00
ENDCHAR
STARTCHAR !
ENCODING 33
SWIDTH 280 0
DWIDTH 7 0
BBX 7 16 0 0
BITMAP
38
38
38
38
38
38
38
38
30
10
10
10
00
10
38
10
ENDCHAR
STARTCHAR "
ENCODING 34
SWIDTH 400 0
DWIDTH 10 0
BBX 10 16 0 0
BITMAP
3300
3300
3300
3300
3300
2300
0000
0000
0000
0000
0000
0000
0000
0000
0000
0000
ENDCHAR
STARTCHAR U+0023
ENCODING 35
SWIDTH 720 0
DWIDTH 18 0
BBX 18 16 0 0
BITMAP
00C200
018600
018600
018C00
010C00
1FFF80
3FFF80
031800
061800
061800
7FFF00
7FFF00
0C3000
0C6000
186000
184000
ENDCHAR
STARTCHAR $
ENCODING 36
SWIDTH 480 0
DWIDTH 12 0
BBX 12 20 0 -2
BITMAP
0600
0600
1F80
3FC0
3080
7000
3000
3C00
1F00
0FC0
03C0
00E0
00E0
0060
60E0
70E0
3FC0
1F00
0600
0600
ENDCHAR
STARTCHAR %
ENCODING 37
SWIDTH 720 0
DWIDTH 18 0
BBX 18 16 0 0
BITMAP
1E0C00
3F1800
631800
633000
633000
3F6000
1C6000
00C000
00C000
019E00
01BF00
033380
033180
063380
063F00
0C1E00
ENDCHAR
STARTCHAR &
ENCODING 38
SWIDTH 640 0
DWIDTH 16 0
BBX 17 16 0 0
BITMAP
078000
0FC000
1CE000
186000
186000
1CE000
0FC000
0F0000
1F8E00
39CC00
70FC00
707800
703800
38FC00
3FDE00
0F8F00
ENDCHAR
STARTCHAR '
ENCODING 39
SWIDTH 240 0
DWIDTH 6 0
BBX 6 16 0 0
BITMAP
30
30
30
30
30
20
00
00
00
00
00
00
00
00
00
00
ENDCHAR
STARTCHAR (
ENCODING 40
SWIDTH 240 0
DWIDTH 6 0
BBX 6 20 0 -2
BITMAP
18
18
18
30
30
30
30
70
70
70
70
70
70
30
30
30
30
18
18
18
ENDCHAR
STARTCHAR )
ENCODING 41
SWIDTH 240 0
DWIDTH 6 0
BBX 6 20 0 -2
BITMAP
60
60
30
30
30
38
18
18
18
18
18
18
18
18
38
30
30
30
60
60
ENDCHAR
STARTCHAR *
ENCODING 42
SWIDTH 400 0
DWIDTH 10 0
BBX 10 16 0 0
BITMAP
0C00
4D00
7F80
3E00
1E00
7B80
4D00
0C00
0000
0000
0000
0000
0000
0000
0000
0000
ENDCHAR
STARTCHAR +
ENCODING 43
SWIDTH 520 0
DWIDTH 13 0
BBX 13 13 0 0
BITMAP
0600
0600
0600
0600
3FE0
3FE0
0600
0600
0600
0600
0000
0000
0000
ENDCHAR
STARTCHAR ,
ENCODING 44
SWIDTH 240 0
DWIDTH 6 0
BBX 6 7 0 -3
BITMAP
30
70
30
30
20
00
00
ENDCHAR
STARTCHAR -
ENCODING 45
SWIDTH 360 0
DWIDTH 9 0
BBX 9 8 0 0
BITMAP
7F00
7F00
0000
0000
0000
0000
0000
0000
ENDCHAR
STARTCHAR .
ENCODING 46
SWIDTH 240 0
DWIDTH 6 0
BBX 6 3 0 0
BITMAP
30
78
30
ENDCHAR
STARTCHAR /
ENCODING 47
SWIDTH 320 0
DWIDTH 8 0
BBX 8 20 0 -2
BITMAP
07
06
06
06
0C
0C
0C
1C
18
18
18
38
30
30
30
60
60
60
E0
C0
ENDCHAR
STARTCHAR 0
ENCODING 48
SWIDTH 560 0
DWIDTH 14 0
BBX 14 16 0 0
BITMAP
07C0
0FE0
1C70
1830
3830
3838
3838
3038
3038
3838
3838
3830
1830
1C70
0FE0
07C0
ENDCHAR
STARTCHAR 1
ENCODING 49
SWIDTH 280 0
DWIDTH 7 0
BBX 7 16 0 0
BITMAP
08
38
38
38
38
38
38
38
38
38
38
38
38
38
38
38
ENDCHAR
STARTCHAR 2
ENCODING 50
SWIDTH 480 0
DWIDTH 12 0
BBX 12 16 0 0
BITMAP
1F00
3FC0
31C0
20E0
00E0
00E0
00C0
01C0
0380
0380
0700
0E00
0E00
1C00
3FE0
3FE0
ENDCHAR
STARTCHAR 3
ENCODING 51
SWIDTH 480 0
DWIDTH 12 0
BBX 12 16 0 0
BITMAP
7FE0
7FC0
01C0
0380
0300
0700
0780
09C0
00E0
0060
0070
0060
2060
71E0
7FC0
1F00
ENDCHAR
STARTCHAR 4
ENCODING 52
SWIDTH 560 0
DWIDTH 14 0
BBX 14 16 0 0
BITMAP
0020
0060
00E0
01E0
01E0
03E0
06E0
0CE0
18E0
38E0
7FF8
FFF8
00E0
00E0
00E0
00E0
ENDCHAR
STARTCHAR 5
ENCODING 53
SWIDTH 480 0
DWIDTH 12 0
BBX 12 16 0 0
BITMAP
1FE0
1FE0
1800
1800
1800
1F00
1FC0
21E0
00E0
0060
0060
0060
4060
70E0
7FC0
1F00
ENDCHAR
STARTCHAR 6
ENCODING 54
SWIDTH 520 0
DWIDTH 13 0
BBX 13 16 0 0
BITMAP
0380
0700
0E00
1C00
1C00
3800
3F80
7FC0
78E0
7060
6070
7070
7060
38E0
1FC0
0F80
ENDCHAR
STARTCHAR 7
ENCODING 55
SWIDTH 480 0
DWIDTH 12 0
BBX 12 16 0 0
BITMAP
7FE0
7FC0
01C0
0180
0380
0380
0700
0700
0600
0E00
0C00
1C00
1800
3800
3800
7000
ENDCHAR
STARTCHAR 8
ENCODING 56
SWIDTH 520 0
DWIDTH 13 0
BBX 13 16 0 0
BITMAP
0F80
1FC0
38E0
30E0
30E0
38C0
1F80
0F80
1FC0
38E0
7070
7070
7060
38E0
3FC0
0F80
ENDCHAR
STARTCHAR 9
ENCODING 57
SWIDTH 520 0
DWIDTH 13 0
BBX 13 16 0 0
BITMAP
0F80
1FC0
38E0
7060
7070
7070
3870
3FF0
0FE0
00E0
00E0
01C0
03C0
0380
0700
0E00
ENDCHAR
STARTCHAR :
ENCODING 58
SWIDTH 280 0
DWIDTH 7 0
BBX 7 12 0 0
BITMAP
30
78
30
00
00
00
00
00
00
30
78
30
ENDCHAR
STARTCHAR ;
ENCODING 59
SWIDTH 280 0
DWIDTH 7 0
BBX 7 15 0 -3
BITMAP
30
78
30
00
00
00
00
00
00
18
38
18
18
10
00
ENDCHAR
STARTCHAR U+003C
ENCODING 60
SWIDTH 520 0
DWIDTH 13 0
BBX 13 15 0 0
BITMAP
0020
00E0
03C0
0F00
1E00
3800
3C00
1F00
07C0
01E0
0020
0000
0000
0000
0000
ENDCHAR
STARTCHAR =
ENCODING 61
SWIDTH 520 0
DWIDTH 13 0
BBX 13 12 0 0
BITMAP
3FE0
3FE0
0000
0000
0000
3FE0
3FE0
0000
0000
0000
0000
0000
ENDCHAR
STARTCHAR U+003E
ENCODING 62
SWIDTH 520 0
DWIDTH 13 0
BBX 13 15 0 0
BITMAP
2000
3800
1E00
0F80
03C0
00E0
01E0
07C0
1F00
3C00
2000
0000
0000
0000
0000
ENDCHAR
STARTCHAR ?
ENCODING 63
SWIDTH 440 0
DWIDTH 11 0
BBX 11 16 0 0
BITMAP
1E00
7F80
6380
41C0
01C0
0180
0780
0F00
1C00
1800
1C00
0800
0000
0800
1C00
0C00
ENDCHAR
STARTCHAR @
ENCODING 64
SWIDTH 920 0
DWIDTH 23 0
BBX 23 20 0 -4
BITMAP
007F00
03FFC0
0781E0
0E0070
1C3D38
18FF18
31C318
31830C
31830C
63830C
63030C
63871C
718618
31C738
30FFF0
1879E0
1C0000
0F0300
07FF00
00FC00
ENDCHAR
STARTCHAR A
ENCODING 65
SWIDTH 640 0
DWIDTH 16 0
BBX 16 16 0 0
BITMAP
0180
03C0
03C0
03C0
07E0
0660
0E70
0C30
1C38
1C38
1FF8
3FFC
300C
700E
700E
6007
ENDCHAR
STARTCHAR B
ENCODING 66
SWIDTH 560 0
DWIDTH 14 0
BBX 14 16 0 0
BITMAP
3F80
3FE0
38E0
3870
3870
3860
38E0
3FC0
3FF0
3838
3818
3818
3818
3838
3FF0
3FE0
ENDCHAR
STARTCHAR C
ENCODING 67
SWIDTH 640 0
DWIDTH 16 0
BBX 16 16 0 0
BITMAP
01F8
07FE
0E06
1C00
3800
3000
3000
7000
7000
7000
3000
3800
1C00
0E06
07FE
01F8
ENDCHAR
STARTCHAR D
ENCODING 68
SWIDTH 680 0
DWIDTH 17 0
BBX 17 16 0 0
BITMAP
3FE000
3FF800
383C00
380E00
380600
380700
380700
380300
380300
380700
380700
380600
380E00
383C00
3FF800
3FE000
ENDCHAR
STARTCHAR E
ENCODING 69
SWIDTH 560 0
DWIDTH 14 0
BBX 14 16 0 0
BITMAP
3FF0
3FF0
3800
3800
3800
3800
3FE0
3FE0
3800
3800
3800
3800
3800
3800
3FF8
3FF8
ENDCHAR
STARTCHAR F
ENCODING 70
SWIDTH 520 0
DWIDTH 13 0
BBX 13 16 0 0
BITMAP
3FF0
3FF0
3800
3800
3800
3800
3FC0
3FC0
3800
3800
3800
3800
3800
3800
3800
3800
ENDCHAR
STARTCHAR G
ENCODING 71
SWIDTH 720 0
DWIDTH 18 0
BBX 18 16 0 0
BITMAP
01FC00
07FF00
0E0700
1C0100
380000
300000
700000
703F00
703F00
700700
300700
380700
1C0700
0E0F00
07FE00
01F800
ENDCHAR
STARTCHAR H
ENCODING 72
SWIDTH 720 0
DWIDTH 18 0
BBX 18 16 0 0
BITMAP
380600
380600
380600
380600
380600
380600
3FFE00
3FFE00
380600
380600
380600
380600
380600
380600
380600
380600
ENDCHAR
STARTCHAR I
ENCODING 73
SWIDTH 280 0
DWIDTH 7 0
BBX 7 16 0 0
BITMAP
38
38
38
38
38
38
38
38
38
38
38
38
38
38
38
38
ENDCHAR
STARTCHAR J
ENCODING 74
SWIDTH 480 0
DWIDTH 12 0
BBX 12 16 0 0
BITMAP
0180
0180
0180
0180
0180
0180
0180
0180
0180
0180
0180
0180
2180
6380
7F00
1E00
ENDCHAR
STARTCHAR K
ENCODING 75
SWIDTH 600 0
DWIDTH 15 0
BBX 15 16 0 0
BITMAP
381C
3838
3870
38E0
3BC0
3F80
3E00
3E00
3F00
3B80
39C0
38E0
3870
3838
383C
381E
ENDCHAR
STARTCHAR L
ENCODING 76
SWIDTH 520 0
DWIDTH 13 0
BBX 13 16 0 0
BITMAP
3800
3800
3800
3800
3800
3800
3800
3800
3800
3800
3800
3800
3800
3800
3FF0
3FF0
ENDCHAR
STARTCHAR M
ENCODING 77
SWIDTH 840 0
DWIDTH 21 0
BBX 21 16 0 0
BITMAP
3800E0
3C01E0
3E03E0
3F07E0
3F8EE0
3B9EE0
39DCE0
38F8E0
3870E0
3820E0
3800E0
3800E0
3800E0
3800E0
3800E0
3800E0
ENDCHAR
STARTCHAR N
ENCODING 78
SWIDTH 760 0
DWIDTH 19 0
BBX 19 16 0 0
BITMAP
380300
3C0300
3E0300
3E0300
3F0300
3B8300
39C300
39C300
38E300
387300
383B00
381F00
381F00
380F00
380700
380300
ENDCHAR
STARTCHAR O
ENCODING 79
SWIDTH 800 0
DWIDTH 20 0
BBX 20 16 0 0
BITMAP
01F800
07FE00
0E0F00
1C0380
3801C0
3001C0
3000C0
7000C0
7000C0
7000C0
3001C0
3801C0
1C0380
0E0F00
07FE00
01F800
ENDCHAR
STARTCHAR P
ENCODING 80
SWIDTH 560 0
DWIDTH 14 0
BBX 14 16 0 0
BITMAP
3FC0
3FF0
3870
3838
3838
3838
3838
3870
3FF0
3FC0
3800
3800
3800
3800
3800
3800
ENDCHAR
STARTCHAR Q
ENCODING 81
SWIDTH 800 0
DWIDTH 20 0
BBX 20 16 0 0
BITMAP
01F800
07FE00
0E0F00
1C0380
3801C0
3001C0
3000C0
7000C0
7000C0
7000C0
3009C0
380D80
1C0F80
0E0F80
07FFC0
01F880
ENDCHAR
STARTCHAR R
ENCODING 82
SWIDTH 560 0
DWIDTH 14 0
BBX 15 16 0 0
BITMAP
3F80
3FE0
3870
3870
3830
3870
3870
3FE0
3FC0
39C0
39C0
38E0
3870
3838
3838
381C
ENDCHAR
STARTCHAR S
ENCODING 83
SWIDTH 480 0
DWIDTH 12 0
BBX 12 16 0 0
BITMAP
1F00
3FC0
3180
7000
7000
3C00
1F00
0F80
03C0
00E0
00E0
0060
20E0
70E0
3FC0
1F00
ENDCHAR
STARTCHAR T
ENCODING 84
SWIDTH 560 0
DWIDTH 14 0
BBX 14 16 0 0
BITMAP
7FF8
7FF8
0300
0300
0300
0300
0300
0300
0300
0300
0300
0300
0300
0300
0300
0300
ENDCHAR
STARTCHAR U
ENCODING 85
SWIDTH 760 0
DWIDTH 19 0
BBX 19 16 0 0
BITMAP
380300
380300
380300
380300
380300
380300
380300
380300
380300
380300
380300
180700
1C0700
0E1E00
07FC00
03F000
ENDCHAR
STARTCHAR V
ENCODING 86
SWIDTH 600 0
DWIDTH 15 0
BBX 15 16 0 0
BITMAP
600E
700C
701C
301C
3818
1838
1C30
1C30
0C70
0E60
0660
06E0
07C0
03C0
0380
0180
ENDCHAR
STARTCHAR W
ENCODING 87
SWIDTH 960 0
DWIDTH 24 0
BBX 24 16 0 0
BITMAP
70380C
703C0C
303C1C
303C1C
387C18
186E18
186638
1CE630
1CC730
0CC770
0EC370
0F8360
0783E0
0781E0
0781C0
0301C0
ENDCHAR
STARTCHAR X
ENCODING 88
SWIDTH 640 0
DWIDTH 16 0
BBX 17 16 0 0
BITMAP
700E00
381C00
183800
1C3800
0E7000
07E000
03C000
03C000
03C000
07E000
0E7000
0C3800
1C3800
381C00
700E00
700700
ENDCHAR
STARTCHAR Y
ENCODING 89
SWIDTH 560 0
DWIDTH 14 0
BBX 15 16 0 0
BITMAP
601C
7018
3838
1870
1C60
0CE0
0EC0
07C0
0380
0380
0380
0380
0380
0380
0380
0380
ENDCHAR
STARTCHAR Z
ENCODING 90
SWIDTH 600 0
DWIDTH 15 0
BBX 15 16 0 0
BITMAP
7FFC
7FF8
0038
0070
00E0
00E0
01C0
0380
0380
0700
0E00
0E00
1C00
3800
3FFC
7FFC
ENDCHAR
STARTCHAR [
ENCODING 91
SWIDTH 320 0
DWIDTH 8 0
BBX 8 22 0 -3
BITMAP
3E
3E
30
30
30
30
30
30
30
30
30
30
30
30
30
30
30
30
30
30
3E
3E
ENDCHAR
STARTCHAR \
ENCODING 92
SWIDTH 320 0
DWIDTH 8 0
BBX 8 20 0 -2
BITMAP
C0
E0
60
60
60
30
30
30
38
18
18
18
0C
0C
0C
0C
06
06
06
03
ENDCHAR
STARTCHAR ]
ENCODING 93
SWIDTH 320 0
DWIDTH 8 0
BBX 8 22 0 -3
BITMAP
7C
7C
0C
0C
0C
0C
0C
0C
0C
0C
0C
0C
0C
0C
0C
0C
0C
0C
0C
0C
7C
7C
ENDCHAR
STARTCHAR ^
ENCODING 94
SWIDTH 560 0
DWIDTH 14 0
BBX 14 16 0 0
BITMAP
0700
0780
0DC0
1CC0
1860
3870
3030
0000
0000
0000
0000
0000
0000
0000
0000
0000
ENDCHAR
STARTCHAR _
ENCODING 95
SWIDTH 480 0
DWIDTH 12 0
BBX 14 3 -1 -3
BITMAP
0000
0000
FFF0
ENDCHAR
STARTCHAR `
ENCODING 96
SWIDTH 440 0
DWIDTH 11 0
BBX 11 16 0 0
BITMAP
FFE0
FFE0
C060
C060
C060
C060
C060
C060
C060
C060
C060
C060
C060
C060
FFE0
FFE0
ENDCHAR
STARTCHAR a
ENCODING 97
SWIDTH 480 0
DWIDTH 12 0
BBX 12 12 0 0
BITMAP
3F00
3FC0
20C0
00E0
07E0
1FE0
38E0
70E0
70E0
71E0
3FE0
1EE0
ENDCHAR
STARTCHAR b
ENCODING 98
SWIDTH 560 0
DWIDTH 14 0
BBX 14 16 0 0
BITMAP
3000
3000
3000
3000
37C0
3FE0
3870
3038
3018
3018
3018
3018
3038
3870
3FE0
37C0
ENDCHAR
STARTCHAR c
ENCODING 99
SWIDTH 480 0
DWIDTH 12 0
BBX 12 12 0 0
BITMAP
07E0
1FE0
3C20
3000
7000
7000
7000
7000
3000
3C20
1FE0
07E0
ENDCHAR
STARTCHAR d
ENCODING 100
SWIDTH 560 0
DWIDTH 14 0
BBX 14 16 0 0
BITMAP
0038
0038
0038
0038
07B8
1FF8
3878
3038
7038
7038
7038
7038
3038
3878
1FF8
07B8
ENDCHAR
STARTCHAR e
ENCODING 101
SWIDTH 520 0
DWIDTH 13 0
BBX 13 12 0 0
BITMAP
0780
1FE0
38E0
3070
7030
7FF0
7FF0
7000
3000
3830
1FF0
07C0
ENDCHAR
STARTCHAR f
ENCODING 102
SWIDTH 360 0
DWIDTH 9 0
BBX 9 16 0 0
BITMAP
0F80
1F80
3800
3800
FF80
FF80
3800
3800
3800
3800
3800
3800
3800
3800
3800
3800
ENDCHAR
STARTCHAR g
ENCODING 103
SWIDTH 480 0
DWIDTH 12 0
BBX 12 16 0 -4
BITMAP
1FF0
3FF0
70C0
60C0
60C0
30C0
3FC0
3F00
3000
3E00
3FC0
61E0
6070
6070
7FE0
1F80
ENDCHAR
STARTCHAR h
ENCODING 104
SWIDTH 560 0
DWIDTH 14 0
BBX 14 16 0 0
BITMAP
3000
3000
3000
3000
37C0
3FE0
3870
3030
3038
3038
3038
3038
3038
3038
3038
3038
ENDCHAR
STARTCHAR i
ENCODING 105
SWIDTH 240 0
DWIDTH 6 0
BBX 6 16 0 0
BITMAP
00
30
30
00
30
30
30
30
30
30
30
30
30
30
30
30
ENDCHAR
STARTCHAR j
ENCODING 106
SWIDTH 240 0
DWIDTH 6 0
BBX 7 20 -1 -4
BITMAP
30
38
10
00
30
30
30
30
30
30
30
30
30
30
30
30
30
30
F0
E0
ENDCHAR
STARTCHAR k
ENCODING 107
SWIDTH 520 0
DWIDTH 13 0
BBX 13 16 0 0
BITMAP
3000
3000
3000
3000
3070
31E0
33C0
3700
3E00
3E00
3E00
3700
3380
31C0
30E0
3070
ENDCHAR
STARTCHAR l
ENCODING 108
SWIDTH 320 0
DWIDTH 8 0
BBX 8 16 0 0
BITMAP
30
30
30
30
30
30
30
30
30
30
30
30
30
30
3E
1E
ENDCHAR
STARTCHAR m
ENCODING 109
SWIDTH 880 0
DWIDTH 22 0
BBX 22 12 0 0
BITMAP
37C7C0
3FFFE0
387870
303030
303030
303038
303038
303038
303038
303038
303038
303038
ENDCHAR
STARTCHAR n
ENCODING 110
SWIDTH 560 0
DWIDTH 14 0
BBX 14 12 0 0
BITMAP
37C0
3FE0
3870
3030
3038
3038
3038
3038
3038
3038
3038
3038
ENDCHAR
STARTCHAR o
ENCODING 111
SWIDTH 600 0
DWIDTH 15 0
BBX 15 12 0 0
BITMAP
07C0
1FE0
3870
3038
7018
7018
7018
7018
3038
3870
1FE0
07C0
ENDCHAR
STARTCHAR p
ENCODING 112
SWIDTH 560 0
DWIDTH 14 0
BBX 14 16 0 -4
BITMAP
37C0
3FE0
3870
3038
3018
3018
3018
3018
3038
3870
3FE0
37C0
3000
3000
3000
3000
ENDCHAR
STARTCHAR q
ENCODING 113
SWIDTH 560 0
DWIDTH 14 0
BBX 14 16 0 -4
BITMAP
07B8
1FF8
3C78
3038
7038
7038
7038
7038
3038
3878
1FF8
07B8
0038
0038
0038
0038
ENDCHAR
STARTCHAR r
ENCODING 114
SWIDTH 400 0
DWIDTH 10 0
BBX 10 12 0 0
BITMAP
3780
3F80
3800
3000
3000
3000
3000
3000
3000
3000
3000
3000
ENDCHAR
STARTCHAR s
ENCODING 115
SWIDTH 480 0
DWIDTH 12 0
BBX 12 12 0 0
BITMAP
1F00
3FC0
70C0
7000
7800
3F80
0FC0
01C0
00C0
60C0
7FC0
7F00
ENDCHAR
STARTCHAR t
ENCODING 116
SWIDTH 400 0
DWIDTH 10 0
BBX 10 15 0 0
BITMAP
3800
3800
3800
FF80
FF80
3800
3800
3800
3800
3800
3800
3800
1800
1F80
0F80
ENDCHAR
STARTCHAR u
ENCODING 117
SWIDTH 560 0
DWIDTH 14 0
BBX 14 12 0 0
BITMAP
3038
3038
3038
3038
3038
3038
3038
3038
3038
3878
1FF8
0FB8
ENDCHAR
STARTCHAR v
ENCODING 118
SWIDTH 520 0
DWIDTH 13 0
BBX 13 12 0 0
BITMAP
6030
7070
7070
3060
38E0
18C0
18C0
0D80
0D80
0F80
0700
0700
ENDCHAR
STARTCHAR w
ENCODING 119
SWIDTH 840 0
DWIDTH 21 0
BBX 21 12 0 0
BITMAP
607070
707070
70F060
30F8E0
38D8E0
3998C0
198CC0
1D8DC0
1F0F80
0F0780
0F0780
0E0700
ENDCHAR
STARTCHAR x
ENCODING 120
SWIDTH 480 0
DWIDTH 12 0
BBX 13 12 0 0
BITMAP
70E0
38C0
19C0
1F80
0F00
0600
0F00
1F80
19C0
38C0
70E0
E070
ENDCHAR
STARTCHAR y
ENCODING 121
SWIDTH 520 0
DWIDTH 13 0
BBX 13 16 0 -4
BITMAP
6030
6030
7070
3060
38E0
18C0
1CC0
0D80
0D80
0F80
0700
0700
0600
0600
3C00
3800
ENDCHAR
STARTCHAR z
ENCODING 122
SWIDTH 440 0
DWIDTH 11 0
BBX 11 12 0 0
BITMAP
7FE0
7FC0
0380
0380
0700
0600
0E00
1C00
1C00
3800
7FC0
7FC0
ENDCHAR
STARTCHAR {
ENCODING 123
SWIDTH 360 0
DWIDTH 9 0
BBX 9 22 0 -3
BITMAP
0700
0F00
1C00
1800
1800
1800
1800
1800
1800
3800
7000
7000
3800
1800
1800
1800
1800
1800
1800
1C00
0F00
0700
ENDCHAR
STARTCHAR |
ENCODING 124
SWIDTH 240 0
DWIDTH 6 0
BBX 6 24 0 -6
BITMAP
30
30
30
30
30
30
30
30
30
30
30
30
30
30
30
30
30
30
30
30
30
30
30
30
ENDCHAR
STARTCHAR }
ENCODING 125
SWIDTH 360 0
DWIDTH 9 0
BBX 9 22 0 -3
BITMAP
7000
7800
1800
1800
1800
1800
1800
1800
1C00
0E00
0E00
0E00
0E00
1C00
1800
1800
1800
1800
1800
1800
7800
7000
ENDCHAR
STARTCHAR ~
ENCODING 126
SWIDTH 520 0
DWIDTH 13 0
BBX 13 10 0 0
BITMAP
1C30
3E60
33E0
61C0
0000
0000
0000
0000
0000
0000
ENDCHAR
STARTCHAR U+00A0
ENCODING 160
SWIDTH 240 0
DWIDTH 6 0
BBX 6 28 0 -6
BITMAP
00
00
00
00
00
00
00
00
00
00
00
00
00
00
00
00
00
00
00
00
00
00
00
00
00
00
00
00
ENDCHAR
STARTCHAR U+00A1
ENCODING 161
SWIDTH 280 0
DWIDTH 7 0
BBX 7 16 0 -4
BITMAP
10
38
10
00
10
10
10
30
38
38
38
38
38
38
38
38
ENDCHAR
STARTCHAR U+00A2
ENCODING 162
SWIDTH 480 0
DWIDTH 12 0
BBX 12 16 0 -2
BITMAP
0300
0300
07E0
1FE0
3C20
3000
7000
7000
7000
7000
3000
3C20
1FE0
07E0
0300
0300
ENDCHAR
STARTCHAR U+00A3
ENCODING 163
SWIDTH 520 0
DWIDTH 13 0
BBX 13 16 0 0
BITMAP
03E0
07E0
0E20
0C00
0C00
1C00
1C00
1C00
3F80
3F80
1800
1800
1800
3800
3FF0
7FE0
ENDCHAR
STARTCHAR U+00A4
ENCODING 164
SWIDTH 600 0
DWIDTH 15 0
BBX 15 12 0 0
BITMAP
3010
7FF8
3FF0
1C70
3830
3830
3830
1C70
1FF0
3FF8
7038
2010
ENDCHAR
STARTCHAR U+00A5
ENCODING 165
SWIDTH 600 0
DWIDTH 15 0
BBX 15 16 0 0
BITMAP
701C
3018
3838
1C70
0C60
3EF8
3FF8
0380
0380
3FF8
3FF8
0380
0380
0380
0380
0380
ENDCHAR
STARTCHAR U+00A6
ENCODING 166
SWIDTH 240 0
DWIDTH 6 0
BBX 6 24 0 -6
BITMAP
30
30
30
30
30
30
30
30
30
00
00
00
00
00
00
30
30
30
30
30
30
30
30
30
ENDCHAR
STARTCHAR U+00A7
ENCODING 167
SWIDTH 480 0
DWIDTH 12 0
BBX 12 20 0 -4
BITMAP
1F00
3F80
71C0
7080
7000
3800
3F00
3F80
71C0
60E0
60E0
78C0
3FC0
0F80
01C0
00E0
20E0
71C0
3FC0
1F00
ENDCHAR
STARTCHAR U+00A8
ENCODING 168
SWIDTH 440 0
DWIDTH 11 0
BBX 11 16 0 0
BITMAP
FFE0
FFE0
C060
C060
C060
C060
C060
C060
C060
C060
C060
C060
C060
C060
FFE0
FFE0
ENDCHAR
STARTCHAR U+00A9
ENCODING 169
SWIDTH 760 0
DWIDTH 19 0
BBX 19 16 0 0
BITMAP
01F800
060E00
080300
11F980
230880
2600C0
660040
660040
660040
660040
230880
21F880
100100
080300
060C00
01F800
ENDCHAR
STARTCHAR U+00AA
ENCODING 170
SWIDTH 280 0
DWIDTH 7 0
BBX 7 16 0 0
BITMAP
7C
4C
06
3E
66
4E
76
00
00
00
00
00
00
00
00
00
ENDCHAR
STARTCHAR U+00AB
ENCODING 171
SWIDTH 560 0
DWIDTH 14 0
BBX 14 12 0 0
BITMAP
0630
0C60
18C0
39C0
3180
7380
39C0
18C0
0C60
0630
0000
0000
ENDCHAR
STARTCHAR U+00AC
ENCODING 172
SWIDTH 520 0
DWIDTH 13 0
BBX 13 12 0 0
BITMAP
3FE0
3FE0
0060
0060
0060
0060
0060
0000
0000
0000
0000
0000
ENDCHAR
STARTCHAR U+00AD
ENCODING 173
SWIDTH 360 0
DWIDTH 9 0
BBX 9 8 0 0
BITMAP
7F00
7F00
0000
0000
0000
0000
0000
0000
ENDCHAR
STARTCHAR U+00AE
ENCODING 174
SWIDTH 760 0
DWIDTH 19 0
BBX 19 16 0 0
BITMAP
01F800
060E00
080300
13F180
231880
2318C0
631840
631840
63F040
633040
233080
231880
131D00
080300
060E00
01F000
ENDCHAR
STARTCHAR U+00AF
ENCODING 175
SWIDTH 440 0
DWIDTH 11 0
BBX 11 16 0 0
BITMAP
FFE0
FFE0
C060
C060
C060
C060
C060
C060
C060
C060
C060
C060
C060
C060
FFE0
FFE0
ENDCHAR
STARTCHAR U+00B0
ENCODING 176
SWIDTH 360 0
DWIDTH 9 0
BBX 9 16 0 0
BITMAP
1E00
3F00
6300
6300
6300
3F00
1C00
0000
0000
0000
0000
0000
0000
0000
0000
0000
ENDCHAR
STARTCHAR U+00B1
ENCODING 177
SWIDTH 520 0
DWIDTH 13 0
BBX 13 14 0 0
BITMAP
0600
0600
0600
0600
3FE0
3FE0
0600
0600
0600
0600
0000
0000
3FE0
3FE0
ENDCHAR
STARTCHAR U+00B2
ENCODING 178
SWIDTH 320 0
DWIDTH 8 0
BBX 8 16 0 0
BITMAP
3C
7E
46
06
04
0C
18
18
3E
7E
00
00
00
00
00
00
ENDCHAR
STARTCHAR U+00B3
ENCODING 179
SWIDTH 320 0
DWIDTH 8 0
BBX 8 16 0 0
BITMAP
7E
7C
0C
18
1E
06
06
46
7E
3C
00
00
00
00
00
00
ENDCHAR
STARTCHAR U+00B4
ENCODING 180
SWIDTH 440 0
DWIDTH 11 0
BBX 11 16 0 0
BITMAP
FFE0
FFE0
C060
C060
C060
C060
C060
C060
C060
C060
C060
C060
C060
C060
FFE0
FFE0
ENDCHAR
STARTCHAR U+00B5
ENCODING 181
SWIDTH 560 0
DWIDTH 14 0
BBX 14 16 0 -4
BITMAP
3030
3030
3030
3030
3030
3030
3030
3030
3830
3870
3FF0
37B0
3000
3000
3000
3000
ENDCHAR
STARTCHAR U+00B6
ENCODING 182
SWIDTH 520 0
DWIDTH 13 0
BBX 13 20 0 -4
BITMAP
1FF8
3F60
7F60
7F60
7F60
7F60
3F60
1F60
0360
0360
0360
0360
0360
0360
0360
0360
0360
0360
0360
0360
ENDCHAR
STARTCHAR U+00B7
ENCODING 183
SWIDTH 240 0
DWIDTH 6 0
BBX 6 10 0 0
BITMAP
20
30
30
20
00
00
00
00
00
00
ENDCHAR
STARTCHAR U+00B8
ENCODING 184
SWIDTH 440 0
DWIDTH 11 0
BBX 11 16 0 0
BITMAP
FFE0
FFE0
C060
C060
C060
C060
C060
C060
C060
C060
C060
C060
C060
C060
FFE0
FFE0
ENDCHAR
STARTCHAR U+00B9
ENCODING 185
SWIDTH 240 0
DWIDTH 6 0
BBX 6 16 0 0
BITMAP
10
30
30
30
30
30
30
30
30
30
00
00
00
00
00
00
ENDCHAR
STARTCHAR U+00BA
ENCODING 186
SWIDTH 360 0
DWIDTH 9 0
BBX 9 16 0 0
BITMAP
1E00
6300
6100
4180
6100
6300
1E00
0000
0000
0000
0000
0000
0000
0000
0000
0000
ENDCHAR
STARTCHAR U+00BB
ENCODING 187
SWIDTH 560 0
DWIDTH 14 0
BBX 14 12 0 0
BITMAP
7180
39C0
18C0
0C60
0630
0630
0C60
18E0
39C0
7180
0000
0000
ENDCHAR
STARTCHAR U+00BC
ENCODING 188
SWIDTH 760 0
DWIDTH 19 0
BBX 19 16 0 0
BITMAP
000000
000000
000000
000000
000000
000000
000000
000000
000000
000000
000000
000000
000000
000000
000000
000000
ENDCHAR
STARTCHAR U+00BD
ENCODING 189
SWIDTH 800 0
DWIDTH 20 0
BBX 20 16 0 0
BITMAP
100C00
300C00
301800
301800
303000
303000
3063C0
3067E0
30C460
30C060
018040
0180C0
030180
030180
0603E0
0607E0
ENDCHAR
STARTCHAR U+00BE
ENCODING 190
SWIDTH 840 0
DWIDTH 21 0
BBX 21 16 0 0
BITMAP
7E0600
7C0600
0C0C00
180C00
1E1800
061800
063000
463020
7E6060
3C60E0
00C1E0
00C360
018260
0187F0
030FF0
030060
ENDCHAR
STARTCHAR U+00BF
ENCODING 191
SWIDTH 440 0
DWIDTH 11 0
BBX 11 16 0 -4
BITMAP
0400
0600
0700
0200
0200
0700
0700
0700
0E00
3C00
3800
7000
7000
3080
3FC0
0F80
ENDCHAR
STARTCHAR U+00C0
ENCODING 192
SWIDTH 640 0
DWIDTH 16 0
BBX 16 20 0 0
BITMAP
0300
0180
00C0
0000
0180
03C0
03C0
03C0
07E0
0660
0E70
0C30
1C38
1C38
1FF8
3FFC
300C
700E
700E
6007
ENDCHAR
STARTCHAR U+00C1
ENCODING 193
SWIDTH 640 0
DWIDTH 16 0
BBX 16 20 0 0
BITMAP
00E0
01C0
0180
0000
0180
03C0
03C0
03C0
07E0
0660
0E70
0C30
1C38
1C38
1FF8
3FFC
300C
700E
700E
6007
ENDCHAR
STARTCHAR U+00C2
ENCODING 194
SWIDTH 640 0
DWIDTH 16 0
BBX 16 20 0 0
BITMAP
0380
06C0
0460
0000
0180
03C0
03C0
03C0
07E0
0660
0E70
0C30
1C38
1C38
1FF8
3FFC
300C
700E
700E
6007
ENDCHAR
STARTCHAR U+00C3
ENCODING 195
SWIDTH 640 0
DWIDTH 16 0
BBX 16 20 0 0
BITMAP
0E20
0FE0
09C0
0000
0180
03C0
03C0
03C0
07E0
0660
0E70
0C30
1C38
1C38
1FF8
3FFC
300C
700E
700E
6007
ENDCHAR
STARTCHAR U+00C4
ENCODING 196
SWIDTH 640 0
DWIDTH 16 0
BBX 16 20 0 0
BITMAP
0420
0F70
0620
0000
0180
03C0
03C0
03C0
07E0
0660
0E70
0C30
1C38
1C38
1FF8
3FFC
300C
700E
700E
6007
ENDCHAR
STARTCHAR U+00C5
ENCODING 197
SWIDTH 640 0
DWIDTH 16 0
BBX 16 21 0 0
BITMAP
01C0
0240
0240
0180
0000
0180
03C0
03C0
03C0
07E0
0660
0E70
0C30
1C38
1C38
1FF8
3FFC
300C
700E
700E
6007
ENDCHAR
STARTCHAR U+00C6
ENCODING 198
SWIDTH 880 0
DWIDTH 22 0
BBX 22 16 0 0
BITMAP
007FF8
007FF8
00FC00
01DC00
01DC00
039C00
031FE0
071FE0
061C00
0FFC00
1FFC00
181C00
381C00
301C00
701FF8
601FF8
ENDCHAR
STARTCHAR U+00C7
ENCODING 199
SWIDTH 640 0
DWIDTH 16 0
BBX 16 20 0 -4
BITMAP
01F8
07FE
0E06
1C00
3800
3000
3000
7000
7000
7000
3000
3800
1C00
0E06
07FE
01F8
00C0
00E0
0030
01E0
ENDCHAR
STARTCHAR U+00C8
ENCODING 200
SWIDTH 560 0
DWIDTH 14 0
BBX 14 20 0 0
BITMAP
0600
0300
0180
0000
3FF0
3FF0
3800
3800
3800
3800
3FE0
3FE0
3800
3800
3800
3800
3800
3800
3FF8
3FF8
ENDCHAR
STARTCHAR U+00C9
ENCODING 201
SWIDTH 560 0
DWIDTH 14 0
BBX 14 20 0 0
BITMAP
01C0
0380
0300
0000
3FF0
3FF0
3800
3800
3800
3800
3FE0
3FE0
3800
3800
3800
3800
3800
3800
3FF8
3FF8
ENDCHAR
STARTCHAR U+00CA
ENCODING 202
SWIDTH 560 0
DWIDTH 14 0
BBX 14 20 0 0
BITMAP
0700
0D80
08C0
0000
3FF0
3FF0
3800
3800
3800
3800
3FE0
3FE0
3800
3800
3800
3800
3800
3800
3FF8
3FF8
ENDCHAR
STARTCHAR U+00CB
ENCODING 203
SWIDTH 560 0
DWIDTH 14 0
BBX 14 20 0 0
BITMAP
0840
1EE0
0C40
0000
3FF0
3FF0
3800
3800
3800
3800
3FE0
3FE0
3800
3800
3800
3800
3800
3800
3FF8
3FF8
ENDCHAR
STARTCHAR U+00CC
ENCODING 204
SWIDTH 280 0
DWIDTH 7 0
BBX 7 20 0 0
BITMAP
60
30
18
00
38
38
38
38
38
38
38
38
38
38
38
38
38
38
38
38
ENDCHAR
STARTCHAR U+00CD
ENCODING 205
SWIDTH 280 0
DWIDTH 7 0
BBX 7 20 0 0
BITMAP
00
00
00
00
00
00
00
00
00
00
00
00
00
00
00
00
00
00
00
00
ENDCHAR
STARTCHAR U+00CE
ENCODING 206
SWIDTH 280 0
DWIDTH 7 0
BBX 8 20 0 0
BITMAP
38
6C
46
00
38
38
38
38
38
38
38
38
38
38
38
38
38
38
38
38
ENDCHAR
STARTCHAR U+00CF
ENCODING 207
SWIDTH 280 0
DWIDTH 7 0
BBX 9 20 -1 0
BITMAP
4200
F700
6200
0000
1C00
1C00
1C00
1C00
1C00
1C00
1C00
1C00
1C00
1C00
1C00
1C00
1C00
1C00
1C00
1C00
ENDCHAR
STARTCHAR U+00D0
ENCODING 208
SWIDTH 680 0
DWIDTH 17 0
BBX 17 16 0 0
BITMAP
3FE000
3FF800
383C00
380E00
380600
380700
380700
7F8300
7F8300
380700
380700
380600
380E00
383C00
3FF800
3FE000
ENDCHAR
STARTCHAR U+00D1
ENCODING 209
SWIDTH 760 0
DWIDTH 19 0
BBX 19 20 0 0
BITMAP
038800
03F800
027000
000000
380300
3C0300
3E0300
3E0300
3F0300
3B8300
39C300
39C300
38E300
387300
383B00
381F00
381F00
380F00
380700
380300
ENDCHAR
STARTCHAR U+00D2
ENCODING 210
SWIDTH 800 0
DWIDTH 20 0
BBX 20 20 0 0
BITMAP
018000
00C000
006000
000000
01F800
07FE00
0E0F00
1C0380
3801C0
3001C0
3000C0
7000C0
7000C0
7000C0
3001C0
3801C0
1C0380
0E0F00
07FE00
01F800
ENDCHAR
STARTCHAR U+00D3
ENCODING 211
SWIDTH 800 0
DWIDTH 20 0
BBX 20 20 0 0
BITMAP
003800
007000
006000
000000
01F800
07FE00
0E0F00
1C0380
3801C0
3001C0
3000C0
7000C0
7000C0
7000C0
3001C0
3801C0
1C0380
0E0F00
07FE00
01F800
ENDCHAR
STARTCHAR U+00D4
ENCODING 212
SWIDTH 800 0
DWIDTH 20 0
BBX 20 20 0 0
BITMAP
00E000
01B000
011800
000000
01F800
07FE00
0E0F00
1C0380
3801C0
3001C0
3000C0
7000C0
7000C0
7000C0
3001C0
3801C0
1C0380
0E0F00
07FE00
01F800
ENDCHAR
STARTCHAR U+00D5
ENCODING 213
SWIDTH 800 0
DWIDTH 20 0
BBX 20 20 0 0
BITMAP
038800
03F800
027000
000000
01F800
07FE00
0E0F00
1C0380
3801C0
3001C0
3000C0
7000C0
7000C0
7000C0
3001C0
3801C0
1C0380
0E0F00
07FE00
01F800
ENDCHAR
STARTCHAR U+00D6
ENCODING 214
SWIDTH 800 0
DWIDTH 20 0
BBX 20 20 0 0
BITMAP
010800
03DC00
018800
000000
01F800
07FE00
0E0F00
1C0380
3801C0
3001C0
3000C0
7000C0
7000C0
7000C0
3001C0
3801C0
1C0380
0E0F00
07FE00
01F800
ENDCHAR
STARTCHAR U+00D7
ENCODING 215
SWIDTH 520 0
DWIDTH 13 0
BBX 13 13 0 0
BITMAP
1040
38C0
1F80
0F00
0F80
1FC0
38E0
1040
0000
0000
0000
0000
0000
ENDCHAR
STARTCHAR U+00D8
ENCODING 216
SWIDTH 800 0
DWIDTH 20 0
BBX 20 16 0 0
BITMAP
01F880
07FFC0
0E0F80
1C0780
380DC0
3019C0
3030C0
7060C0
70C0C0
7180C0
3301C0
3E01C0
1C0380
1E0F00
37FE00
21F800
ENDCHAR
STARTCHAR U+00D9
ENCODING 217
SWIDTH 760 0
DWIDTH 19 0
BBX 19 20 0 0
BITMAP
018000
00C000
006000
000000
380300
380300
380300
380300
380300
380300
380300
380300
380300
380300
380300
180700
1C0700
0E1E00
07FC00
03F000
ENDCHAR
STARTCHAR U+00DA
ENCODING 218
SWIDTH 760 0
DWIDTH 19 0
BBX 19 20 0 0
BITMAP
007000
00E000
00C000
000000
380300
380300
380300
380300
380300
380300
380300
380300
380300
380300
380300
180700
1C0700
0E1E00
07FC00
03F000
ENDCHAR
STARTCHAR U+00DB
ENCODING 219
SWIDTH 760 0
DWIDTH 19 0
BBX 19 20 0 0
BITMAP
00E000
01B000
011800
000000
380300
380300
380300
380300
380300
380300
380300
380300
380300
380300
380300
180700
1C0700
0E1E00
07FC00
03F000
ENDCHAR
STARTCHAR U+00DC
ENCODING 220
SWIDTH 760 0
DWIDTH 19 0
BBX 19 20 0 0
BITMAP
021000
07B800
031000
000000
380300
380300
380300
380300
380300
380300
380300
380300
380300
380300
380300
180700
1C0700
0E1E00
07FC00
03F000
ENDCHAR
STARTCHAR U+00DD
ENCODING 221
SWIDTH 560 0
DWIDTH 14 0
BBX 15 20 0 0
BITMAP
01C0
0380
0300
0000
601C
7018
3838
1870
1C60
0CE0
0EC0
07C0
0380
0380
0380
0380
0380
0380
0380
0380
ENDCHAR
STARTCHAR U+00DE
ENCODING 222
SWIDTH 560 0
DWIDTH 14 0
BBX 14 16 0 0
BITMAP
3800
3800
3800
3FC0
3FF0
3870
3838
3838
3838
3838
3870
3FF0
3FC0
3800
3800
3800
ENDCHAR
STARTCHAR U+00DF
ENCODING 223
SWIDTH 520 0
DWIDTH 13 0
BBX 13 16 0 0
BITMAP
0780
1FE0
1860
3060
3060
30E0
33C0
33C0
3070
3030
3030
3030
3030
3070
33E0
33C0
ENDCHAR
STARTCHAR U+00E0
ENCODING 224
SWIDTH 480 0
DWIDTH 12 0
BBX 12 17 0 0
BITMAP
0C00
0600
0300
0000
0000
3F00
3FC0
20C0
00E0
07E0
1FE0
38E0
70E0
70E0
71E0
3FE0
1EE0
ENDCHAR
STARTCHAR U+00E1
ENCODING 225
SWIDTH 480 0
DWIDTH 12 0
BBX 12 17 0 0
BITMAP
0380
0700
0600
0000
0000
3F00
3FC0
20C0
00E0
07E0
1FE0
38E0
70E0
70E0
71E0
3FE0
1EE0
ENDCHAR
STARTCHAR U+00E2
ENCODING 226
SWIDTH 480 0
DWIDTH 12 0
BBX 12 17 0 0
BITMAP
0E00
1B00
1180
0000
0000
3F00
3FC0
20C0
00E0
07E0
1FE0
38E0
70E0
70E0
71E0
3FE0
1EE0
ENDCHAR
STARTCHAR U+00E3
ENCODING 227
SWIDTH 480 0
DWIDTH 12 0
BBX 12 17 0 0
BITMAP
1C40
1FC0
1380
0000
0000
3F00
3FC0
20C0
00E0
07E0
1FE0
38E0
70E0
70E0
71E0
3FE0
1EE0
ENDCHAR
STARTCHAR U+00E4
ENCODING 228
SWIDTH 480 0
DWIDTH 12 0
BBX 12 17 0 0
BITMAP
1080
3DC0
1880
0000
0000
3F00
3FC0
20C0
00E0
07E0
1FE0
38E0
70E0
70E0
71E0
3FE0
1EE0
ENDCHAR
STARTCHAR U+00E5
ENCODING 229
SWIDTH 480 0
DWIDTH 12 0
BBX 12 18 0 0
BITMAP
0700
0900
0900
0600
0000
0000
3F00
3FC0
20C0
00E0
07E0
1FE0
38E0
70E0
70E0
71E0
3FE0
1EE0
ENDCHAR
STARTCHAR U+00E6
ENCODING 230
SWIDTH 800 0
DWIDTH 20 0
BBX 20 12 0 0
BITMAP
3F0F00
3FBF80
21F1C0
00E0C0
00E0E0
07FFE0
3FFFE0
38E000
70E000
70F060
3FFFE0
1F1F80
ENDCHAR
STARTCHAR U+00E7
ENCODING 231
SWIDTH 480 0
DWIDTH 12 0
BBX 12 16 0 -4
BITMAP
07E0
1FE0
3C20
3000
7000
7000
7000
7000
3000
3C20
1FE0
07E0
0300
03C0
00C0
0780
ENDCHAR
STARTCHAR U+00E8
ENCODING 232
SWIDTH 520 0
DWIDTH 13 0
BBX 13 17 0 0
BITMAP
0C00
0600
0300
0000
0000
0780
1FE0
38E0
3070
7030
7FF0
7FF0
7000
3000
3830
1FF0
07C0
ENDCHAR
STARTCHAR U+00E9
ENCODING 233
SWIDTH 520 0
DWIDTH 13 0
BBX 13 17 0 0
BITMAP
01C0
0380
0300
0000
0000
0780
1FE0
38E0
3070
7030
7FF0
7FF0
7000
3000
3830
1FF0
07C0
ENDCHAR
STARTCHAR U+00EA
ENCODING 234
SWIDTH 520 0
DWIDTH 13 0
BBX 13 17 0 0
BITMAP
0700
0D80
08C0
0000
0000
0780
1FE0
38E0
3070
7030
7FF0
7FF0
7000
3000
3830
1FF0
07C0
ENDCHAR
STARTCHAR U+00EB
ENCODING 235
SWIDTH 520 0
DWIDTH 13 0
BBX 13 17 0 0
BITMAP
1080
3DC0
1880
0000
0000
0780
1FE0
38E0
3070
7030
7FF0
7FF0
7000
3000
3830
1FF0
07C0
ENDCHAR
STARTCHAR U+00EC
ENCODING 236
SWIDTH 240 0
DWIDTH 6 0
BBX 7 17 -1 0
BITMAP
00
00
00
00
00
00
00
00
00
00
00
00
00
00
00
00
00
ENDCHAR
STARTCHAR U+00ED
ENCODING 237
SWIDTH 240 0
DWIDTH 6 0
BBX 7 17 0 0
BITMAP
1C
38
30
00
00
30
30
30
30
30
30
30
30
30
30
30
30
ENDCHAR
STARTCHAR U+00EE
ENCODING 238
SWIDTH 240 0
DWIDTH 6 0
BBX 8 17 -1 0
BITMAP
38
6C
46
00
00
18
18
18
18
18
18
18
18
18
18
18
18
ENDCHAR
STARTCHAR U+00EF
ENCODING 239
SWIDTH 240 0
DWIDTH 6 0
BBX 9 17 -1 0
BITMAP
4200
F700
6200
0000
0000
1800
1800
1800
1800
1800
1800
1800
1800
1800
1800
1800
1800
ENDCHAR
STARTCHAR U+00F0
ENCODING 240
SWIDTH 520 0
DWIDTH 13 0
BBX 13 16 0 0
BITMAP
0C40
0F80
0780
0DC0
10E0
0FE0
1FF0
3870
3030
7030
6030
7030
7070
38E0
1FC0
0F80
ENDCHAR
STARTCHAR U+00F1
ENCODING 241
SWIDTH 560 0
DWIDTH 14 0
BBX 14 17 0 0
BITMAP
0E20
0FE0
09C0
0000
0000
37C0
3FE0
3870
3030
3038
3038
3038
3038
3038
3038
3038
3038
ENDCHAR
STARTCHAR U+00F2
ENCODING 242
SWIDTH 600 0
DWIDTH 15 0
BBX 15 17 0 0
BITMAP
0600
0300
0180
0000
0000
07C0
1FE0
3870
3038
7018
7018
7018
7018
3038
3870
1FE0
07C0
ENDCHAR
STARTCHAR U+00F3
ENCODING 243
SWIDTH 600 0
DWIDTH 15 0
BBX 15 17 0 0
BITMAP
01C0
0380
0300
0000
0000
07C0
1FE0
3870
3038
7018
7018
7018
7018
3038
3870
1FE0
07C0
ENDCHAR
STARTCHAR U+00F4
ENCODING 244
SWIDTH 600 0
DWIDTH 15 0
BBX 15 17 0 0
BITMAP
0380
06C0
0460
0000
0000
07C0
1FE0
3870
3038
7018
7018
7018
7018
3038
3870
1FE0
07C0
ENDCHAR
STARTCHAR U+00F5
ENCODING 245
SWIDTH 600 0
DWIDTH 15 0
BBX 15 17 0 0
BITMAP
0E20
0FE0
09C0
0000
0000
07C0
1FE0
3870
3038
7018
7018
7018
7018
3038
3870
1FE0
07C0
ENDCHAR
STARTCHAR U+00F6
ENCODING 246
SWIDTH 600 0
DWIDTH 15 0
BBX 15 17 0 0
BITMAP
0840
1EE0
0C40
0000
0000
07C0
1FE0
3870
3038
7018
7018
7018
7018
3038
3870
1FE0
07C0
ENDCHAR
STARTCHAR U+00F7
ENCODING 247
SWIDTH 520 0
DWIDTH 13 0
BBX 13 14 0 0
BITMAP
0200
0300
0300
0200
0000
3FE0
3FE0
0000
0200
0300
0300
0200
0000
0000
ENDCHAR
STARTCHAR U+00F8
ENCODING 248
SWIDTH 600 0
DWIDTH 15 0
BBX 15 14 0 -1
BITMAP
0010
07D0
1FF0
3870
30F8
7098
7198
7318
7618
3438
3C70
1FE0
37C0
2000
ENDCHAR
STARTCHAR U+00F9
ENCODING 249
SWIDTH 560 0
DWIDTH 14 0
BBX 14 17 0 0
BITMAP
0600
0300
0180
0000
0000
3038
3038
3038
3038
3038
3038
3038
3038
3038
3878
1FF8
0FB8
ENDCHAR
STARTCHAR U+00FA
ENCODING 250
SWIDTH 560 0
DWIDTH 14 0
BBX 14 17 0 0
BITMAP
01C0
0380
0300
0000
0000
3038
3038
3038
3038
3038
3038
3038
3038
3038
3878
1FF8
0FB8
ENDCHAR
STARTCHAR U+00FB
ENCODING 251
SWIDTH 560 0
DWIDTH 14 0
BBX 14 17 0 0
BITMAP
0700
0D80
08C0
0000
0000
3038
3038
3038
3038
3038
3038
3038
3038
3038
3878
1FF8
0FB8
ENDCHAR
STARTCHAR U+00FC
ENCODING 252
SWIDTH 560 0
DWIDTH 14 0
BBX 14 17 0 0
BITMAP
0840
1EE0
0C40
0000
0000
3038
3038
3038
3038
3038
3038
3038
3038
3038
3878
1FF8
0FB8
ENDCHAR
STARTCHAR U+00FD
ENCODING 253
SWIDTH 520 0
DWIDTH 13 0
BBX 13 21 0 -4
BITMAP
0380
0700
0600
0000
0000
6030
6030
7070
3060
38E0
18C0
1CC0
0D80
0D80
0F80
0700
0700
0600
0600
3C00
3800
ENDCHAR
STARTCHAR U+00FE
ENCODING 254
SWIDTH 560 0
DWIDTH 14 0
BBX 14 20 0 -4
BITMAP
3000
3000
3000
3000
37C0
3FE0
3870
3038
3018
3018
3018
3018
3038
3870
3FE0
37C0
3000
3000
3000
3000
ENDCHAR
STARTCHAR U+00FF
ENCODING 255
SWIDTH 520 0
DWIDTH 13 0
BBX 13 21 0 -4
BITMAP
1080
3DC0
1880
0000
0000
6030
6030
7070
3060
38E0
18C0
1CC0
0D80
0D80
0F80
0700
0700
0600
0600
3C00
3800
ENDCHAR
STARTCHAR U+2013
ENCODING 8211
SWIDTH 480 0
DWIDTH 12 0
BBX 14 8 -1 0
BITMAP
FFF0
FFF0
0000
0000
0000
0000
0000
0000
ENDCHAR
STARTCHAR U+2014
ENCODING 8212
SWIDTH 960 0
DWIDTH 24 0
BBX 26 8 -1 0
BITMAP
FFFFFF00
FFFFFF00
00000000
00000000
00000000
00000000
00000000
00000000
ENDCHAR
STARTCHAR U+2018
ENCODING 8216
SWIDTH 240 0
DWIDTH 6 0
BBX 6 16 0 0
BITMAP
10
30
30
30
30
00
00
00
00
00
00
00
00
00
00
00
ENDCHAR
STARTCHAR U+2019
ENCODING 8217
SWIDTH 240 0
DWIDTH 6 0
BBX 6 16 0 0
BITMAP
20
70
30
30
30
00
00
00
00
00
00
00
00
00
00
00
ENDCHAR
STARTCHAR U+201C
ENCODING 8220
SWIDTH 400 0
DWIDTH 10 0
BBX 10 16 0 0
BITMAP
1100
3200
3600
3700
3300
0000
0000
0000
0000
0000
0000
0000
0000
0000
0000
0000
ENDCHAR
STARTCHAR U+201D
ENCODING 8221
SWIDTH 400 0
DWIDTH 10 0
BBX 10 16 0 0
BITMAP
2200
7700
3300
3300
3300
0000
0000
0000
0000
0000
0000
0000
0000
0000
0000
0000
ENDCHAR
STARTCHAR U+2022
ENCODING 8226
SWIDTH 400 0
DWIDTH 10 0
BBX 10 10 0 0
BITMAP
0400
0E00
1F00
1F00
0E00
0400
0000
0000
0000
0000
ENDCHAR
STARTCHAR U+2026
ENCODING 8230
SWIDTH 880 0
DWIDTH 22 0
BBX 22 3 0 0
BITMAP
303030
787878
303030
ENDCHAR
STARTCHAR U+20AC
ENCODING 8364
SWIDTH 600 0
DWIDTH 15 0
BBX 15 16 0 0
BITMAP
01F0
07FC
0E0C
1C00
3800
7FE0
7FE0
3000
3000
7FC0
7FC0
3800
1C00
0E0C
07FC
01F0
ENDCHAR
ENDFONT
