STARTFONT 2.1
COMMENT Converted from Johnston100 W03 Regular.ttf at 41px with ttf2bdf.py (Pillow, 1-bit, no AA)
FONT -Misc-Johnston100-Medium-R-Normal--41-410-75-75-P-430-ISO10646-1
SIZE 41 75 75
FONTBOUNDINGBOX 43 48 -2 -11
STARTPROPERTIES 9
FOUNDRY "Misc"
FAMILY_NAME "Johnston100"
WEIGHT_NAME "Medium"
SLANT "R"
PIXEL_SIZE 41
RESOLUTION_X 75
RESOLUTION_Y 75
FONT_ASCENT 37
FONT_DESCENT 11
ENDPROPERTIES
CHARS 200
STARTCHAR space
ENCODING 32
SWIDTH 258 0
DWIDTH 11 0
BBX 11 48 0 -11
BITMAP
0000
0000
0000
0000
0000
0000
0000
0000
0000
0000
0000
0000
0000
0000
0000
0000
0000
0000
0000
0000
0000
0000
0000
0000
0000
0000
0000
0000
0000
0000
0000
0000
0000
0000
0000
0000
0000
0000
0000
0000
0000
0000
0000
0000
0000
0000
0000
0000
ENDCHAR
STARTCHAR !
ENCODING 33
SWIDTH 281 0
DWIDTH 12 0
BBX 12 28 0 0
BITMAP
0F00
0F00
0F00
0F00
0F00
0F00
0F00
0F00
0F00
0F00
0F00
0F00
0F00
0F00
0F00
0F00
0F00
0E00
0600
0600
0600
0000
0000
0600
0F00
1F00
0E00
0400
ENDCHAR
STARTCHAR "
ENCODING 34
SWIDTH 398 0
DWIDTH 17 0
BBX 17 28 0 0
BITMAP
1E3C00
1E3C00
1E3C00
1E3C00
1E3C00
1E3C00
1C1C00
1C1C00
0C1800
0C1800
000000
000000
000000
000000
000000
000000
000000
000000
000000
000000
000000
000000
000000
000000
000000
000000
000000
000000
ENDCHAR
STARTCHAR U+0023
ENCODING 35
SWIDTH 726 0
DWIDTH 31 0
BBX 31 28 0 0
BITMAP
00010040
000703C0
000F0380
000E0380
000E0780
000E0780
001E0700
001C0700
07FFFFFC
0FFFFFF8
0FFFFFF8
00381E00
00381C00
00781C00
00701C00
00703C00
00F03800
3FFFFFE0
3FFFFFE0
7FFFFFE0
01E07000
01C07000
01C0F000
03C0E000
0380E000
0381E000
0381C000
06010000
ENDCHAR
STARTCHAR $
ENCODING 36
SWIDTH 492 0
DWIDTH 21 0
BBX 21 33 0 -3
BITMAP
00F000
00F000
00F000
03FC00
0FFF00
1FFF80
1F0F00
1E0600
3E0000
3E0000
1E0000
1F8000
1FC000
0FF000
03FC00
01FF00
007F80
001FC0
0007C0
0003E0
0003E0
0001E0
1801E0
3803E0
7C03E0
3F0FC0
1FFFC0
1FFF80
07FE00
03FC00
00F000
00F000
00F000
ENDCHAR
STARTCHAR %
ENCODING 37
SWIDTH 726 0
DWIDTH 31 0
BBX 31 28 0 0
BITMAP
03C00700
0FF00E00
1FF80E00
1E381C00
3C3C1C00
381C3800
381C3800
3C3C7000
1E3CF000
1FF8E000
0FF1E000
03E1C000
0003C000
00038000
00078000
00070000
000F0F80
000E1FE0
001E3FE0
001C78F0
003C7070
00387078
00787078
00707070
00F078F0
00E03FE0
01E01FE0
01C00F80
ENDCHAR
STARTCHAR &
ENCODING 38
SWIDTH 656 0
DWIDTH 28 0
BBX 28 28 0 0
BITMAP
007E0000
01FF8000
03FFC000
03FFC000
07C3E000
0781E000
0781E000
0781E000
0781E000
07C3C000
03E7C000
01FF0000
00FE0000
01FC0000
07FE0780
0FDF0780
1F0F8F80
1E07CF00
3C07FE00
3C03FE00
3C01FC00
3C00F800
3E01FC00
1F07FE00
1FFFFF00
0FFFCF80
07FF07C0
01FC03E0
ENDCHAR
STARTCHAR '
ENCODING 39
SWIDTH 234 0
DWIDTH 10 0
BBX 10 28 0 0
BITMAP
1E00
1E00
1E00
1E00
1E00
1E00
1C00
1C00
0C00
0C00
0000
0000
0000
0000
0000
0000
0000
0000
0000
0000
0000
0000
0000
0000
0000
0000
0000
0000
ENDCHAR
STARTCHAR (
ENCODING 40
SWIDTH 258 0
DWIDTH 11 0
BBX 11 33 0 -3
BITMAP
0380
0780
0780
0700
0F00
0F00
0E00
1E00
1E00
1E00
1C00
1C00
1C00
3C00
3C00
3C00
3C00
3C00
3C00
3C00
1C00
1C00
1C00
1E00
1E00
1E00
0E00
0F00
0F00
0700
0780
0780
0380
ENDCHAR
STARTCHAR )
ENCODING 41
SWIDTH 258 0
DWIDTH 11 0
BBX 11 33 0 -3
BITMAP
7800
3800
3C00
1C00
1E00
1E00
0E00
0E00
0F00
0F00
0F00
0F00
0700
0700
0700
0700
0700
0700
0700
0700
0700
0F00
0F00
0F00
0F00
0E00
0E00
1E00
1E00
1C00
3C00
3800
7800
ENDCHAR
STARTCHAR *
ENCODING 42
SWIDTH 398 0
DWIDTH 17 0
BBX 17 28 0 0
BITMAP
01C000
01C000
11C400
39CC00
3D9E00
1FFC00
07F000
03E000
1FF800
3D9E00
39CC00
11C400
01C000
01C000
000000
000000
000000
000000
000000
000000
000000
000000
000000
000000
000000
000000
000000
000000
ENDCHAR
STARTCHAR +
ENCODING 43
SWIDTH 515 0
DWIDTH 22 0
BBX 22 22 0 0
BITMAP
007800
007800
007800
007800
007800
007800
1FFFE0
1FFFE0
1FFFE0
007800
007800
007800
007800
007800
007800
000000
000000
000000
000000
000000
000000
000000
ENDCHAR
STARTCHAR ,
ENCODING 44
SWIDTH 234 0
DWIDTH 10 0
BBX 10 11 0 -5
BITMAP
0000
0C00
1E00
3E00
1E00
0E00
0E00
0C00
0800
1000
0000
ENDCHAR
STARTCHAR -
ENCODING 45
SWIDTH 375 0
DWIDTH 16 0
BBX 16 13 0 0
BITMAP
7FFC
7FFC
7FFC
7FFC
0000
0000
0000
0000
0000
0000
0000
0000
0000
ENDCHAR
STARTCHAR .
ENCODING 46
SWIDTH 234 0
DWIDTH 10 0
BBX 10 6 0 0
BITMAP
0400
0E00
1F00
1E00
0E00
0400
ENDCHAR
STARTCHAR /
ENCODING 47
SWIDTH 304 0
DWIDTH 13 0
BBX 14 33 0 -3
BITMAP
0078
0078
0078
0070
00F0
00F0
00E0
01E0
01E0
01C0
01C0
03C0
03C0
0380
0780
0780
0700
0F00
0F00
0F00
0E00
1E00
1E00
1C00
3C00
3C00
3800
3800
7800
7800
7000
F000
F000
ENDCHAR
STARTCHAR 0
ENCODING 48
SWIDTH 562 0
DWIDTH 24 0
BBX 24 28 0 0
BITMAP
007E00
01FF80
03FFC0
07FFE0
07C3E0
0F81F0
0F00F0
0F00F0
1F00F8
1E0078
1E0078
1E0078
1E0078
1E0078
1E0078
1E0078
1E0078
1E0078
1E0078
1F00F8
0F00F0
0F00F0
0F81F0
07C3E0
07FFC0
03FFC0
01FF80
007E00
ENDCHAR
STARTCHAR 1
ENCODING 49
SWIDTH 281 0
DWIDTH 12 0
BBX 12 28 0 0
BITMAP
0100
0300
0F00
0F00
0F00
0F00
0F00
0F00
0F00
0F00
0F00
0F00
0F00
0F00
0F00
0F00
0F00
0F00
0F00
0F00
0F00
0F00
0F00
0F00
0F00
0F00
0F00
0F00
ENDCHAR
STARTCHAR 2
ENCODING 50
SWIDTH 468 0
DWIDTH 20 0
BBX 20 28 0 0
BITMAP
01F800
07FE00
0FFF00
1FFF80
1F0FC0
1C07C0
1803C0
1003C0
0003C0
0003C0
0003C0
0007C0
000780
000F80
001F00
001E00
003E00
007C00
007800
00F800
01F000
01E000
03E000
07C000
07FFE0
0FFFE0
1FFFE0
1FFFE0
ENDCHAR
STARTCHAR 3
ENCODING 51
SWIDTH 492 0
DWIDTH 21 0
BBX 21 28 0 0
BITMAP
3FFFE0
3FFFC0
3FFFC0
3FFF80
000F80
001F00
001E00
003E00
007C00
007800
00FC00
01FF00
01FF80
000FC0
0003E0
0001E0
0001E0
0001F0
0000F0
0001F0
0001E0
1001E0
3803E0
3E0FC0
3FFFC0
1FFF80
0FFE00
03F800
ENDCHAR
STARTCHAR 4
ENCODING 52
SWIDTH 562 0
DWIDTH 24 0
BBX 24 28 0 0
BITMAP
000000
000020
000060
0000E0
0001E0
0003E0
0007E0
0007E0
000FE0
001FE0
003DE0
0079E0
00F9E0
01F1E0
01E1E0
03C1E0
0781E0
0F01E0
1FFFFE
3FFFFE
7FFFFE
0001E0
0001E0
0001E0
0001E0
0001E0
0001E0
0001E0
ENDCHAR
STARTCHAR 5
ENCODING 53
SWIDTH 492 0
DWIDTH 21 0
BBX 21 28 0 0
BITMAP
07FFE0
0FFFC0
0FFFC0
0FFF80
0F0000
0F0000
0F0000
0F0000
0F0000
0FF800
0FFE00
1FFF00
181F80
000780
0007C0
0003C0
0003C0
0003E0
0001E0
0003C0
0003C0
2003C0
7007C0
FC1F80
7FFF00
3FFE00
1FFC00
07F000
ENDCHAR
STARTCHAR 6
ENCODING 54
SWIDTH 515 0
DWIDTH 22 0
BBX 22 28 0 0
BITMAP
003F00
007E00
00FC00
01F800
01F000
03E000
07C000
078000
0F8000
0F0000
1F7E00
1FFF80
1FFFC0
3FFFC0
3F07E0
3C01E0
3C01F0
3C00F0
3C00F0
3C00F0
3C00F0
3E01E0
1F03E0
1F87E0
0FFFC0
07FF80
03FF00
00FC00
ENDCHAR
STARTCHAR 7
ENCODING 55
SWIDTH 468 0
DWIDTH 20 0
BBX 20 28 0 0
BITMAP
3FFFE0
3FFFE0
3FFFC0
3FFFC0
0007C0
000780
000F80
000F00
000F00
001E00
001E00
003E00
003C00
007C00
007800
00F800
00F000
01F000
01E000
01E000
03E000
03C000
07C000
078000
0F8000
0F0000
1F0000
1E0000
ENDCHAR
STARTCHAR 8
ENCODING 56
SWIDTH 515 0
DWIDTH 22 0
BBX 22 28 0 0
BITMAP
00FC00
03FF00
07FF80
0FFFC0
0F87C0
0F03C0
0E01C0
0E01C0
0F03C0
0F03C0
07CF80
07FF00
01FE00
03FF00
07FF80
0F8FC0
1F03E0
1E01E0
3C01F0
3C00F0
3C00F0
3E01F0
3E01E0
1F87E0
1FFFC0
0FFFC0
03FF00
00FC00
ENDCHAR
STARTCHAR 9
ENCODING 57
SWIDTH 515 0
DWIDTH 22 0
BBX 22 28 0 0
BITMAP
01F800
07FE00
0FFF00
1FFF80
3F0FC0
3C07C0
7C03E0
7803E0
7801E0
7801E0
7801E0
7C01E0
7C01E0
3F07E0
3FFFE0
1FFFC0
0FFFC0
03F7C0
000780
000F80
001F00
001F00
003E00
007C00
00F800
01F800
03F000
07E000
ENDCHAR
STARTCHAR :
ENCODING 58
SWIDTH 281 0
DWIDTH 12 0
BBX 12 22 0 0
BITMAP
0200
0700
0F80
0F00
0700
0200
0000
0000
0000
0000
0000
0000
0000
0000
0000
0000
0200
0700
0F80
0F00
0700
0200
ENDCHAR
STARTCHAR ;
ENCODING 59
SWIDTH 281 0
DWIDTH 12 0
BBX 12 26 0 -5
BITMAP
0200
0700
0F80
0F00
0700
0200
0000
0000
0000
0000
0000
0000
0000
0000
0000
0000
0600
0F00
1F00
0F00
0700
0700
0600
0400
0800
0000
ENDCHAR
STARTCHAR U+003C
ENCODING 60
SWIDTH 515 0
DWIDTH 22 0
BBX 22 24 0 0
BITMAP
000020
0000E0
0003E0
000FE0
003FC0
00FF00
03FC00
0FF000
1FC000
1F0000
1FC000
0FF000
03FC00
00FF00
003FC0
000FE0
0003E0
0000E0
000020
000000
000000
000000
000000
000000
ENDCHAR
STARTCHAR =
ENCODING 61
SWIDTH 515 0
DWIDTH 22 0
BBX 22 19 0 0
BITMAP
1FFFE0
1FFFE0
1FFFE0
000000
000000
000000
000000
000000
1FFFE0
1FFFE0
1FFFE0
000000
000000
000000
000000
000000
000000
000000
000000
ENDCHAR
STARTCHAR U+003E
ENCODING 62
SWIDTH 515 0
DWIDTH 22 0
BBX 22 24 0 0
BITMAP
100000
1C0000
1F0000
1FC000
0FF000
03FC00
00FF00
003FC0
000FE0
0003E0
000FE0
003FC0
00FF00
03FC00
0FF000
1FC000
1F0000
1C0000
100000
000000
000000
000000
000000
000000
ENDCHAR
STARTCHAR ?
ENCODING 63
SWIDTH 445 0
DWIDTH 19 0
BBX 19 28 0 0
BITMAP
07F000
0FFC00
3FFE00
7FFE00
7C1F00
380F00
100F00
000F00
000F00
001F00
003F00
007E00
01FC00
03F000
07E000
078000
078000
07C000
03E000
01C000
008000
000000
008000
01C000
03E000
03E000
01C000
008000
ENDCHAR
STARTCHAR @
ENCODING 64
SWIDTH 937 0
DWIDTH 40 0
BBX 40 36 0 -8
BITMAP
0000FF8000
0007FFF000
001FFFFC00
003F807F00
00FC001F80
01F00007C0
03E00003C0
03C00001E0
07807F10F0
0701FFF0F0
0F03FFF070
0E07C1F078
1E0F80E078
1C0F00E038
1C0E00E038
1C1E00E038
3C1E00E038
3C1E01E038
3C1C01E038
3C1C01E038
3C1E01E078
3C1E01E070
1C1E01C0F0
1C0F01C0E0
1E0F83E1E0
1E07FFFFC0
0E03FFFF80
0F00FC7E00
0780000000
07C0000000
03E0000000
01F8002000
00FE01E000
003FFFE000
000FFFE000
0001FF8000
ENDCHAR
STARTCHAR A
ENCODING 65
SWIDTH 656 0
DWIDTH 28 0
BBX 28 28 0 0
BITMAP
000F0000
001F0000
001F0000
003F8000
003F8000
003FC000
007BC000
007BC000
00F9E000
00F1E000
00F0F000
01E0F000
01E0F000
01E07800
03C07800
03C03C00
07803C00
07FFFE00
07FFFE00
0FFFFE00
0FFFFF00
1F000F00
1E000F80
1E000780
3E000780
3C0007C0
7C0003C0
780003E0
ENDCHAR
STARTCHAR B
ENCODING 66
SWIDTH 585 0
DWIDTH 25 0
BBX 25 28 0 0
BITMAP
0FFE0000
0FFF8000
0FFFC000
0FFFE000
0F03E000
0F01F000
0F01F000
0F00F000
0F01F000
0F01E000
0F03E000
0FFFC000
0FFFC000
0FFFF000
0FFFF800
0F00FC00
0F007C00
0F003E00
0F003E00
0F003E00
0F003E00
0F003E00
0F007C00
0F00FC00
0FFFF800
0FFFF000
0FFFE000
0FFF8000
ENDCHAR
STARTCHAR C
ENCODING 67
SWIDTH 656 0
DWIDTH 28 0
BBX 28 28 0 0
BITMAP
0007F800
003FFE00
007FFF80
01FFFFC0
03FC07C0
07E001C0
07C00040
0F800000
1F000000
1F000000
1E000000
1E000000
3E000000
3E000000
3E000000
3E000000
1E000000
1E000000
1F000000
1F000000
0F800000
07C00000
07E000C0
03FC07C0
01FFFFC0
007FFFC0
003FFF00
0007F800
ENDCHAR
STARTCHAR D
ENCODING 68
SWIDTH 702 0
DWIDTH 30 0
BBX 30 28 0 0
BITMAP
0FFF8000
0FFFF000
0FFFF800
0FFFFE00
0F00FF00
0F003F80
0F000F80
0F0007C0
0F0003C0
0F0003E0
0F0001E0
0F0001E0
0F0001E0
0F0001E0
0F0001E0
0F0001E0
0F0001E0
0F0001E0
0F0003E0
0F0003C0
0F0007C0
0F000F80
0F003F80
0F00FF00
0FFFFE00
0FFFF800
0FFFE000
0FFF0000
ENDCHAR
STARTCHAR E
ENCODING 69
SWIDTH 562 0
DWIDTH 24 0
BBX 24 28 0 0
BITMAP
0FFFF8
0FFFF8
0FFFF8
0FFFF8
0F0000
0F0000
0F0000
0F0000
0F0000
0F0000
0F0000
0FFFC0
0FFFC0
0FFFC0
0FFFC0
0F0000
0F0000
0F0000
0F0000
0F0000
0F0000
0F0000
0F0000
0F0000
0FFFFC
0FFFFC
0FFFFC
0FFFFC
ENDCHAR
STARTCHAR F
ENCODING 70
SWIDTH 515 0
DWIDTH 22 0
BBX 22 28 0 0
BITMAP
0FFFF8
0FFFF8
0FFFF8
0FFFF8
0F0000
0F0000
0F0000
0F0000
0F0000
0F0000
0F0000
0FFF80
0FFF80
0FFF80
0FFF80
0F0000
0F0000
0F0000
0F0000
0F0000
0F0000
0F0000
0F0000
0F0000
0F0000
0F0000
0F0000
0F0000
ENDCHAR
STARTCHAR G
ENCODING 71
SWIDTH 702 0
DWIDTH 30 0
BBX 30 28 0 0
BITMAP
0007FC00
003FFF80
007FFFE0
01FFFFE0
03FC07E0
07F000E0
07C00060
0F800000
1F000000
1F000000
1E000000
1E000000
3E007FE0
3E007FE0
3E007FE0
3E007FE0
1E0001E0
1E0001E0
1F0001E0
1F0001E0
0F8001E0
0FC001E0
07E001E0
03FC07E0
01FFFFE0
00FFFFC0
003FFF00
0007F800
ENDCHAR
STARTCHAR H
ENCODING 72
SWIDTH 702 0
DWIDTH 30 0
BBX 30 28 0 0
BITMAP
0F0003C0
0F0003C0
0F0003C0
0F0003C0
0F0003C0
0F0003C0
0F0003C0
0F0003C0
0F0003C0
0F0003C0
0F0003C0
0FFFFFC0
0FFFFFC0
0FFFFFC0
0FFFFFC0
0F0003C0
0F0003C0
0F0003C0
0F0003C0
0F0003C0
0F0003C0
0F0003C0
0F0003C0
0F0003C0
0F0003C0
0F0003C0
0F0003C0
0F0003C0
ENDCHAR
STARTCHAR I
ENCODING 73
SWIDTH 281 0
DWIDTH 12 0
BBX 12 28 0 0
BITMAP
0F00
0F00
0F00
0F00
0F00
0F00
0F00
0F00
0F00
0F00
0F00
0F00
0F00
0F00
0F00
0F00
0F00
0F00
0F00
0F00
0F00
0F00
0F00
0F00
0F00
0F00
0F00
0F00
ENDCHAR
STARTCHAR J
ENCODING 74
SWIDTH 468 0
DWIDTH 20 0
BBX 20 28 0 0
BITMAP
000F00
000F00
000F00
000F00
000F00
000F00
000F00
000F00
000F00
000F00
000F00
000F00
000F00
000F00
000F00
000F00
000F00
000F00
000F00
000F00
000F00
180F00
381F00
7C3E00
3FFE00
3FFC00
1FF800
07E000
ENDCHAR
STARTCHAR K
ENCODING 75
SWIDTH 609 0
DWIDTH 26 0
BBX 26 28 0 0
BITMAP
0F001F00
0F003E00
0F007C00
0F00F800
0F03F000
0F07E000
0F0FC000
0F1F8000
0F3F0000
0F7E0000
0FFC0000
0FF80000
0FF00000
0FF80000
0FFC0000
0F7E0000
0F3E0000
0F1F0000
0F0F8000
0F0FC000
0F07E000
0F03F000
0F01F800
0F00FC00
0F007C00
0F003E00
0F001F00
0F000F80
ENDCHAR
STARTCHAR L
ENCODING 76
SWIDTH 515 0
DWIDTH 22 0
BBX 22 28 0 0
BITMAP
0F0000
0F0000
0F0000
0F0000
0F0000
0F0000
0F0000
0F0000
0F0000
0F0000
0F0000
0F0000
0F0000
0F0000
0F0000
0F0000
0F0000
0F0000
0F0000
0F0000
0F0000
0F0000
0F0000
0F0000
0FFFF8
0FFFF8
0FFFF8
0FFFF8
ENDCHAR
STARTCHAR M
ENCODING 77
SWIDTH 843 0
DWIDTH 36 0
BBX 36 28 0 0
BITMAP
0F00001F00
0F80003F00
0FC0007F00
0FE0007F00
0FF000FF00
0FF801FF00
0FF803FF00
0F7C07DF00
0F3E0FDF00
0F1F0F9F00
0F1F9F1F00
0F0FBE1F00
0F07FC1F00
0F03FC1F00
0F01F81F00
0F01F01F00
0F00E01F00
0F00401F00
0F00001F00
0F00001F00
0F00001F00
0F00001F00
0F00001F00
0F00001F00
0F00001F00
0F00001F00
0F00001F00
0F00001F00
ENDCHAR
STARTCHAR N
ENCODING 78
SWIDTH 749 0
DWIDTH 32 0
BBX 32 28 0 0
BITMAP
0F0000F0
0F8000F0
0FC000F0
0FC000F0
0FE000F0
0FF000F0
0FF800F0
0FF800F0
0F7C00F0
0F3E00F0
0F1F00F0
0F1F80F0
0F0F80F0
0F07C0F0
0F03E0F0
0F01F0F0
0F01F0F0
0F00F8F0
0F007CF0
0F003EF0
0F003EF0
0F001FF0
0F000FF0
0F0007F0
0F0007F0
0F0003F0
0F0001F0
0F0000F0
ENDCHAR
STARTCHAR O
ENCODING 79
SWIDTH 796 0
DWIDTH 34 0
BBX 34 28 0 0
BITMAP
0007F80000
003FFE0000
007FFF8000
01FFFFC000
03FC0FF000
07E003F000
07C000F800
0F80007C00
1F00003C00
1F00003E00
1E00003E00
1E00001E00
3E00001E00
3E00001E00
3E00001E00
3E00001E00
1E00001E00
1E00001E00
1F00003E00
1F00003C00
0F80007C00
07C000F800
07E003F000
03F80FE000
01FFFFC000
00FFFF8000
003FFE0000
0007F80000
ENDCHAR
STARTCHAR P
ENCODING 80
SWIDTH 562 0
DWIDTH 24 0
BBX 24 28 0 0
BITMAP
0FFF80
0FFFE0
0FFFF0
0FFFF8
0F01F8
0F007C
0F003C
0F003C
0F003C
0F003C
0F003C
0F007C
0F01F8
0FFFF8
0FFFF0
0FFFC0
0FFF00
0F0000
0F0000
0F0000
0F0000
0F0000
0F0000
0F0000
0F0000
0F0000
0F0000
0F0000
ENDCHAR
STARTCHAR Q
ENCODING 81
SWIDTH 796 0
DWIDTH 34 0
BBX 34 29 0 -1
BITMAP
0007F80000
003FFE0000
007FFF8000
01FFFFC000
03FC0FF000
07E003F000
07C000F800
0F80007C00
1F00003C00
1F00003E00
1E00003E00
1E00001E00
3E00001E00
3E00001E00
3E00001E00
3E00001E00
1E00001E00
1E00001E00
1F00023E00
1F00073C00
0F800FFC00
07C00FF800
07E003F000
03F80FF000
01FFFFF800
00FFFFFC00
003FFE3E00
0007F81C00
0000000800
ENDCHAR
STARTCHAR R
ENCODING 82
SWIDTH 585 0
DWIDTH 25 0
BBX 25 28 0 0
BITMAP
0FFE0000
0FFF8000
0FFFE000
0FFFE000
0F03F000
0F00F000
0F00F000
0F00F800
0F00F800
0F00F000
0F00F000
0F03F000
0FFFE000
0FFFE000
0FFF8000
0FFE0000
0F1F0000
0F0F8000
0F0FC000
0F07C000
0F03E000
0F01F000
0F01F800
0F00F800
0F007C00
0F003E00
0F003F00
0F001F00
ENDCHAR
STARTCHAR S
ENCODING 83
SWIDTH 492 0
DWIDTH 21 0
BBX 21 28 0 0
BITMAP
01F800
07FE00
0FFF00
1FFF80
1F0F00
1E0600
3E0000
3E0000
1F0000
1F8000
0FE000
0FF800
03FE00
01FF00
007F80
001FC0
0007C0
0003E0
0003E0
0001E0
0801E0
3803E0
7C03E0
3F0FC0
1FFF80
1FFF00
07FE00
01F800
ENDCHAR
STARTCHAR T
ENCODING 84
SWIDTH 562 0
DWIDTH 24 0
BBX 24 28 0 0
BITMAP
7FFFFE
7FFFFE
7FFFFE
7FFFFE
003C00
003C00
003C00
003C00
003C00
003C00
003C00
003C00
003C00
003C00
003C00
003C00
003C00
003C00
003C00
003C00
003C00
003C00
003C00
003C00
003C00
003C00
003C00
003C00
ENDCHAR
STARTCHAR U
ENCODING 85
SWIDTH 749 0
DWIDTH 32 0
BBX 32 28 0 0
BITMAP
0F0000F0
0F0000F0
0F0000F0
0F0000F0
0F0000F0
0F0000F0
0F0000F0
0F0000F0
0F0000F0
0F0000F0
0F0000F0
0F0000F0
0F0000F0
0F0000F0
0F0000F0
0F0000F0
0F0000F0
0F0000F0
0F0000F0
0F8001F0
0F8001E0
07C003E0
07E007C0
03F81F80
01FFFF80
00FFFE00
003FFC00
000FF000
ENDCHAR
STARTCHAR V
ENCODING 86
SWIDTH 609 0
DWIDTH 26 0
BBX 26 28 0 0
BITMAP
7C000780
7C000780
3C000F80
3E000F00
1E001F00
1E001F00
1F001E00
0F003E00
0F003C00
0F803C00
07807C00
07807800
03C07800
03C0F800
03E0F000
01E0F000
01E1E000
01F1E000
00F1E000
00F3C000
007BC000
007BC000
007F8000
003F8000
003F8000
003F0000
001F0000
001E0000
ENDCHAR
STARTCHAR W
ENCODING 87
SWIDTH 937 0
DWIDTH 40 0
BBX 40 28 0 0
BITMAP
3C0000003E
3C003C003C
3E003E003C
3E007E007C
1E007E0078
1E007F0078
1F00FF0078
0F00FF00F8
0F00F780F0
0F80E780F0
0781E780F0
0781E7C1E0
0781C3C1E0
07C3C3C1E0
03C3C3C3C0
03C3C1E3C0
03E781E3C0
01E781E3C0
01E780F780
01E700F780
00FF00F780
00FF007F00
00FE007F00
00FE007F00
007E007F00
007E003E00
007C003E00
003C003E00
ENDCHAR
STARTCHAR X
ENCODING 88
SWIDTH 656 0
DWIDTH 28 0
BBX 28 28 0 0
BITMAP
7C0007C0
3E000F80
1F001F00
0F803E00
0F803E00
07C07C00
03E0F800
01F0F000
00F9F000
00FBE000
007FC000
003F8000
001F8000
001F0000
003F8000
003FC000
007FE000
00FBE000
01F1F000
01F0F800
03E07C00
07C07C00
0F803E00
0F801F00
1F000F80
3E0007C0
7C0007C0
7C0003E0
ENDCHAR
STARTCHAR Y
ENCODING 89
SWIDTH 585 0
DWIDTH 25 0
BBX 25 28 0 0
BITMAP
7C001F00
3C003E00
3E003C00
1F007C00
1F007800
0F80F800
07C1F000
07C1E000
03E3E000
01E3C000
01F78000
00FF8000
007F0000
007F0000
003E0000
003E0000
003E0000
003E0000
003E0000
003E0000
003E0000
003E0000
003E0000
003E0000
003E0000
003E0000
003E0000
003E0000
ENDCHAR
STARTCHAR Z
ENCODING 90
SWIDTH 609 0
DWIDTH 26 0
BBX 26 28 0 0
BITMAP
3FFFFF00
3FFFFF00
3FFFFE00
3FFFFC00
00007C00
0000F800
0000F000
0001F000
0003E000
0003C000
0007C000
000F8000
000F0000
001F0000
003E0000
007C0000
00780000
00F80000
01F00000
01E00000
03E00000
07C00000
07800000
0F800000
1FFFFF80
1FFFFF80
3FFFFF80
7FFFFF80
ENDCHAR
STARTCHAR [
ENCODING 91
SWIDTH 328 0
DWIDTH 14 0
BBX 14 37 0 -5
BITMAP
1FF0
1FF0
1FF0
1E00
1E00
1E00
1E00
1E00
1E00
1E00
1E00
1E00
1E00
1E00
1E00
1E00
1E00
1E00
1E00
1E00
1E00
1E00
1E00
1E00
1E00
1E00
1E00
1E00
1E00
1E00
1E00
1E00
1E00
1E00
1FF0
1FF0
1FF0
ENDCHAR
STARTCHAR \
ENCODING 92
SWIDTH 304 0
DWIDTH 13 0
BBX 14 33 0 -3
BITMAP
F000
F000
7000
7800
7800
3800
3C00
3C00
3C00
1C00
1E00
1E00
0E00
0F00
0F00
0700
0700
0780
0780
0380
03C0
03C0
01C0
01C0
01E0
01E0
00E0
00F0
00F0
0070
0078
0078
0038
ENDCHAR
STARTCHAR ]
ENCODING 93
SWIDTH 328 0
DWIDTH 14 0
BBX 14 37 0 -5
BITMAP
3FE0
3FE0
3FE0
01E0
01E0
01E0
01E0
01E0
01E0
01E0
01E0
01E0
01E0
01E0
01E0
01E0
01E0
01E0
01E0
01E0
01E0
01E0
01E0
01E0
01E0
01E0
01E0
01E0
01E0
01E0
01E0
01E0
01E0
01E0
3FE0
3FE0
3FE0
ENDCHAR
STARTCHAR ^
ENCODING 94
SWIDTH 562 0
DWIDTH 24 0
BBX 24 28 0 0
BITMAP
003C00
007E00
00FF00
01EF00
01E780
03C3C0
0783C0
0781E0
0F00F0
1E00F8
3E0078
000000
000000
000000
000000
000000
000000
000000
000000
000000
000000
000000
000000
000000
000000
000000
000000
000000
ENDCHAR
STARTCHAR _
ENCODING 95
SWIDTH 492 0
DWIDTH 21 0
BBX 22 5 -1 -5
BITMAP
000000
000000
000000
FFFFF8
FFFFF8
ENDCHAR
STARTCHAR `
ENCODING 96
SWIDTH 445 0
DWIDTH 19 0
BBX 19 28 0 0
BITMAP
FFFFE0
FFFFE0
FFFFE0
FFFFE0
F001E0
F001E0
F001E0
F001E0
F001E0
F001E0
F001E0
F001E0
F001E0
F001E0
F001E0
F001E0
F001E0
F001E0
F001E0
F001E0
F001E0
F001E0
F001E0
F001E0
FFFFE0
FFFFE0
FFFFE0
FFFFE0
ENDCHAR
STARTCHAR a
ENCODING 97
SWIDTH 492 0
DWIDTH 21 0
BBX 21 20 0 0
BITMAP
01FC00
0FFE00
0FFF80
0FFF80
1E0FC0
1003C0
0003C0
003FC0
03FFC0
07FFC0
0FC3C0
1E03C0
3C03C0
3C03C0
3C07C0
3E1FC0
3FFFC0
1FFFC0
0FFBC0
07E3C0
ENDCHAR
STARTCHAR b
ENCODING 98
SWIDTH 585 0
DWIDTH 25 0
BBX 25 28 0 0
BITMAP
1E000000
1E000000
1E000000
1E000000
1E000000
1E000000
1E000000
1E000000
1E7F0000
1FFFC000
1FFFE000
1FFFF000
1F81F800
1E007C00
1E003C00
1E003C00
1E001E00
1E001E00
1E001E00
1E001E00
1E003C00
1E003C00
1E007C00
1F81F800
1FFFF800
1FFFF000
1FFFC000
1E7F0000
ENDCHAR
STARTCHAR c
ENCODING 99
SWIDTH 492 0
DWIDTH 21 0
BBX 21 20 0 0
BITMAP
007F00
01FFC0
07FFE0
0FFFE0
0FC0E0
1F0020
1E0000
3C0000
3C0000
3C0000
3C0000
3C0000
3E0000
1E0000
1F0020
0FC0E0
0FFFE0
07FFE0
01FFC0
007F00
ENDCHAR
STARTCHAR d
ENCODING 100
SWIDTH 585 0
DWIDTH 25 0
BBX 25 28 0 0
BITMAP
00007800
00007800
00007800
00007800
00007800
00007800
00007800
00007800
007F7800
01FFF800
07FFF800
0FFFF800
0FC0F800
1F007800
1E007800
3C007800
3C007800
3C007800
3C007800
3C007800
3C007800
3E007800
1F007800
1FC0F800
0FFFF800
07FFF800
01FFF800
007F3800
ENDCHAR
STARTCHAR e
ENCODING 101
SWIDTH 539 0
DWIDTH 23 0
BBX 23 20 0 0
BITMAP
007E00
03FF80
07FFC0
0FFFE0
1F83E0
1F00F0
1E00F0
3C00F0
3FFFF8
3FFFF8
3FFFF8
3FFFF8
3C0000
1E0000
1F0010
1F80F0
0FFFF0
07FFF0
01FFE0
007F00
ENDCHAR
STARTCHAR f
ENCODING 102
SWIDTH 375 0
DWIDTH 16 0
BBX 16 28 0 0
BITMAP
00FE
01FE
03FE
07FE
0F80
0F00
0F00
0F00
7FFE
7FFE
7FFE
7FFE
0F00
0F00
0F00
0F00
0F00
0F00
0F00
0F00
0F00
0F00
0F00
0F00
0F00
0F00
0F00
0F00
ENDCHAR
STARTCHAR g
ENCODING 103
SWIDTH 492 0
DWIDTH 21 0
BBX 21 28 0 -8
BITMAP
01FFF0
07FFF0
0FFFF0
1FFFF0
3F0F80
3C03C0
3C03C0
3C03C0
3C03C0
1E0FC0
1FFF80
0FFF80
07FE00
0FF800
1E0000
1F8000
0FF800
07FF00
0FFFC0
3E1FE0
7801F0
7800F0
7800F0
7C01F0
7FFFF0
3FFFE0
1FFFC0
03FE00
ENDCHAR
STARTCHAR h
ENCODING 104
SWIDTH 585 0
DWIDTH 25 0
BBX 25 28 0 0
BITMAP
1E000000
1E000000
1E000000
1E000000
1E000000
1E000000
1E000000
1E000000
1E3F0000
1EFFC000
1FFFE000
1FFFF000
1FC1F800
1F00F800
1E007800
1E007C00
1E003C00
1E003C00
1E003C00
1E003C00
1E003C00
1E003C00
1E003C00
1E003C00
1E003C00
1E003C00
1E003C00
1E003C00
ENDCHAR
STARTCHAR i
ENCODING 105
SWIDTH 258 0
DWIDTH 11 0
BBX 11 27 0 0
BITMAP
0400
0E00
1F00
1F00
0E00
0400
0000
1E00
1E00
1E00
1E00
1E00
1E00
1E00
1E00
1E00
1E00
1E00
1E00
1E00
1E00
1E00
1E00
1E00
1E00
1E00
1E00
ENDCHAR
STARTCHAR j
ENCODING 106
SWIDTH 258 0
DWIDTH 11 0
BBX 12 35 -1 -8
BITMAP
0200
0700
0F80
0F00
0700
0200
0000
0F00
0F00
0F00
0F00
0F00
0F00
0F00
0F00
0F00
0F00
0F00
0F00
0F00
0F00
0F00
0F00
0F00
0F00
0F00
0F00
0F00
0F00
0F00
1F00
FF00
FE00
FC00
F800
ENDCHAR
STARTCHAR k
ENCODING 107
SWIDTH 515 0
DWIDTH 22 0
BBX 22 28 0 0
BITMAP
1E0000
1E0000
1E0000
1E0000
1E0000
1E0000
1E0000
1E0000
1E01F8
1E03E0
1E07C0
1E0F80
1E1F00
1E7E00
1EFC00
1FF000
1FE000
1FF000
1FF000
1EF800
1E7C00
1E3E00
1E1F00
1E0F80
1E07C0
1E03E0
1E01F0
1E00F8
ENDCHAR
STARTCHAR l
ENCODING 108
SWIDTH 304 0
DWIDTH 13 0
BBX 13 28 0 0
BITMAP
1E00
1E00
1E00
1E00
1E00
1E00
1E00
1E00
1E00
1E00
1E00
1E00
1E00
1E00
1E00
1E00
1E00
1E00
1E00
1E00
1E00
1E00
1E00
1F00
1FF8
0FF8
07F8
03F8
ENDCHAR
STARTCHAR m
ENCODING 109
SWIDTH 890 0
DWIDTH 38 0
BBX 38 20 0 0
BITMAP
1E3F01FC00
1EFFC7FF00
1FFFFFFF80
1FFFFFFFC0
1FC1FE07C0
1F00F803E0
1E007801E0
1E007801E0
1E007801E0
1E007801E0
1E007801E0
1E007801E0
1E007801E0
1E007801E0
1E007801E0
1E007801E0
1E007801E0
1E007801E0
1E007801E0
1E007801E0
ENDCHAR
STARTCHAR n
ENCODING 110
SWIDTH 585 0
DWIDTH 25 0
BBX 25 20 0 0
BITMAP
1E3F0000
1EFFC000
1FFFE000
1FFFF000
1FC1F800
1F00F800
1E007800
1E007C00
1E003C00
1E003C00
1E003C00
1E003C00
1E003C00
1E003C00
1E003C00
1E003C00
1E003C00
1E003C00
1E003C00
1E003C00
ENDCHAR
STARTCHAR o
ENCODING 111
SWIDTH 585 0
DWIDTH 25 0
BBX 25 20 0 0
BITMAP
007F0000
01FFC000
07FFF000
0FFFF800
0FC1F800
1F007C00
1E003C00
3E003E00
3C001E00
3C001E00
3C001E00
3C001E00
3C003E00
1E003C00
1F007C00
0FC1F800
0FFFF800
07FFF000
01FFC000
007F0000
ENDCHAR
STARTCHAR p
ENCODING 112
SWIDTH 585 0
DWIDTH 25 0
BBX 25 28 0 -8
BITMAP
1E3F0000
1EFFC000
1FFFF000
1FFFF800
1FC1F800
1F007C00
1E003C00
1E003C00
1E001E00
1E001E00
1E001E00
1E001E00
1E003C00
1E003C00
1E007C00
1F81F800
1FFFF000
1FFFE000
1FFFC000
1E7F0000
1E000000
1E000000
1E000000
1E000000
1E000000
1E000000
1E000000
1E000000
ENDCHAR
STARTCHAR q
ENCODING 113
SWIDTH 585 0
DWIDTH 25 0
BBX 25 28 0 -8
BITMAP
007F3800
01FFF800
07FFF800
0FFFF800
1FC0F800
1F007800
1E007800
3C007800
3C007800
3C007800
3C007800
3C007800
3E007800
3E007800
1F007800
1FC0F800
0FFFF800
07FFF800
01FFF800
007F7800
00007800
00007800
00007800
00007800
00007800
00007800
00007800
00007800
ENDCHAR
STARTCHAR r
ENCODING 114
SWIDTH 375 0
DWIDTH 16 0
BBX 16 20 0 0
BITMAP
1E7F
1EFF
1FFF
1FFF
1FC0
1F00
1E00
1E00
1E00
1E00
1E00
1E00
1E00
1E00
1E00
1E00
1E00
1E00
1E00
1E00
ENDCHAR
STARTCHAR s
ENCODING 115
SWIDTH 468 0
DWIDTH 20 0
BBX 20 20 0 0
BITMAP
01F800
07FE00
1FFF00
1FFF00
3E0700
3C0100
3C0000
3E0000
1FE000
1FFE00
07FF00
01FF80
000FC0
0003C0
2003C0
3C07C0
3FFF80
3FFF80
1FFF00
03F800
ENDCHAR
STARTCHAR t
ENCODING 116
SWIDTH 398 0
DWIDTH 17 0
BBX 17 25 0 0
BITMAP
0F0000
0F0000
0F0000
0F0000
0F0000
7FFF00
7FFF00
7FFF00
7FFF00
0F0000
0F0000
0F0000
0F0000
0F0000
0F0000
0F0000
0F0000
0F0000
0F0000
0F0000
0F8000
07FF00
07FF00
03FF00
00FF00
ENDCHAR
STARTCHAR u
ENCODING 117
SWIDTH 585 0
DWIDTH 25 0
BBX 25 20 0 0
BITMAP
1E007800
1E007800
1E007800
1E007800
1E007800
1E007800
1E007800
1E007800
1E007800
1E007800
1E007800
1E007800
1E007800
1F007800
1F007800
0FC1F800
0FFFF800
07FFF800
03FFF800
00FE7800
ENDCHAR
STARTCHAR v
ENCODING 118
SWIDTH 515 0
DWIDTH 22 0
BBX 22 20 0 0
BITMAP
780078
7C0078
3C00F8
3C00F0
1E01F0
1E01E0
1F01E0
0F03C0
0F03C0
078780
078780
03C780
03CF00
03CF00
01FE00
01FE00
00FC00
00FC00
007C00
007800
ENDCHAR
STARTCHAR w
ENCODING 119
SWIDTH 820 0
DWIDTH 35 0
BBX 35 20 0 0
BITMAP
7C00F003C0
3C01F003C0
3C01F00780
3E01F80780
1E03F80780
1E03FC0F00
1F07BC0F00
0F07BC0F00
0F071E1E00
0F0F1E1E00
078F0E1E00
078E0F3C00
079E0F3C00
03DE07BC00
03FC07F800
03FC07F800
01F803F800
01F803F000
01F801F000
00F001F000
ENDCHAR
STARTCHAR x
ENCODING 120
SWIDTH 492 0
DWIDTH 21 0
BBX 21 20 0 0
BITMAP
3C01E0
3E03C0
1F07C0
0F0F80
078F00
07DE00
03FE00
01FC00
00F800
00F800
01FC00
03FC00
03DE00
079F00
0F8F80
0F0780
1E03C0
3E03E0
7C01F0
7800F8
ENDCHAR
STARTCHAR y
ENCODING 121
SWIDTH 515 0
DWIDTH 22 0
BBX 22 28 0 -8
BITMAP
780078
780078
3C00F8
3C00F0
1E00F0
1E01E0
1F01E0
0F03E0
0F03C0
0783C0
078780
03C780
03CF00
03CF00
01EF00
01FE00
00FE00
00FC00
007C00
007C00
007800
007800
00F000
01F000
0FE000
0FE000
0FC000
0F0000
ENDCHAR
STARTCHAR z
ENCODING 122
SWIDTH 445 0
DWIDTH 19 0
BBX 19 20 0 0
BITMAP
3FFFC0
3FFFC0
3FFF80
3FFF00
001F00
001E00
003C00
007C00
007800
00F000
01F000
01E000
03C000
07C000
078000
0F0000
1FFFC0
1FFFC0
3FFFC0
7FFFC0
ENDCHAR
STARTCHAR {
ENCODING 123
SWIDTH 351 0
DWIDTH 15 0
BBX 15 37 0 -5
BITMAP
0078
01F8
03F8
03C0
0380
0380
0380
0380
0380
0380
0380
0380
0380
0780
0780
0F80
1F00
3E00
3C00
3E00
1F00
0F80
0780
0780
0380
0380
0380
0380
0380
0380
0380
0380
0380
03C0
03F8
01F8
0078
ENDCHAR
STARTCHAR |
ENCODING 124
SWIDTH 211 0
DWIDTH 9 0
BBX 9 41 0 -10
BITMAP
1E00
1E00
1E00
1E00
1E00
1E00
1E00
1E00
1E00
1E00
1E00
1E00
1E00
1E00
1E00
1E00
1E00
1E00
1E00
1E00
1E00
1E00
1E00
1E00
1E00
1E00
1E00
1E00
1E00
1E00
1E00
1E00
1E00
1E00
1E00
1E00
1E00
1E00
1E00
1E00
1E00
ENDCHAR
STARTCHAR }
ENCODING 125
SWIDTH 351 0
DWIDTH 15 0
BBX 15 37 0 -5
BITMAP
3C00
3F00
3F80
0F80
0780
0380
0380
0380
0380
0380
0380
0380
0380
0380
03C0
03C0
01F0
00F8
0078
00F8
01F0
03C0
03C0
0380
0380
0380
0380
0380
0380
0380
0380
0380
0780
0780
3F80
3F00
3C00
ENDCHAR
STARTCHAR ~
ENCODING 126
SWIDTH 515 0
DWIDTH 22 0
BBX 22 17 0 0
BITMAP
038060
0FE070
0FF0F0
1FF8E0
1C7FE0
3C3FC0
381FC0
180780
000000
000000
000000
000000
000000
000000
000000
000000
000000
ENDCHAR
STARTCHAR U+00A0
ENCODING 160
SWIDTH 258 0
DWIDTH 11 0
BBX 11 48 0 -11
BITMAP
0000
0000
0000
0000
0000
0000
0000
0000
0000
0000
0000
0000
0000
0000
0000
0000
0000
0000
0000
0000
0000
0000
0000
0000
0000
0000
0000
0000
0000
0000
0000
0000
0000
0000
0000
0000
0000
0000
0000
0000
0000
0000
0000
0000
0000
0000
0000
0000
ENDCHAR
STARTCHAR U+00A1
ENCODING 161
SWIDTH 281 0
DWIDTH 12 0
BBX 12 29 0 -8
BITMAP
0600
0F00
1F00
0E00
0400
0000
0000
0600
0600
0E00
0E00
0E00
0F00
0F00
0F00
0F00
0F00
0F00
0F00
0F00
0F00
0F00
0F00
0F00
0F00
0F00
0F00
0F00
0000
ENDCHAR
STARTCHAR U+00A2
ENCODING 162
SWIDTH 492 0
DWIDTH 21 0
BBX 21 25 0 -3
BITMAP
003C00
003C00
007F00
01FFC0
07FFE0
0FFFE0
0FC0E0
1F0020
1E0000
3C0000
3C0000
3C0000
3C0000
3C0000
3E0000
1E0000
1F0020
0FC0E0
0FFFE0
07FFE0
01FFC0
007F00
003C00
003C00
003C00
ENDCHAR
STARTCHAR U+00A3
ENCODING 163
SWIDTH 515 0
DWIDTH 22 0
BBX 22 28 0 0
BITMAP
001F80
007FC0
00FFE0
01FFF0
01F0E0
01E040
03E000
03C000
03C000
03C000
03C000
03C000
03C000
1FFF00
1FFF00
1FFF00
1FFE00
078000
078000
078000
078000
078000
0F0000
0F0000
1FFFF0
1FFFF0
3FFFE0
3FFFE0
ENDCHAR
STARTCHAR U+00A4
ENCODING 164
SWIDTH 585 0
DWIDTH 25 0
BBX 25 21 0 0
BITMAP
04001000
0E003800
3F3E7C00
1FFFFC00
0FFFF800
07FFF000
07C1F000
0F80F000
0F00F800
0F007800
0F007800
0F007800
0F00F800
0F80F000
07C1F000
07FFF000
0FFFF800
1FFFFC00
3F7E7C00
0E003800
04001000
ENDCHAR
STARTCHAR U+00A5
ENCODING 165
SWIDTH 585 0
DWIDTH 25 0
BBX 25 28 0 0
BITMAP
7C000F00
3E001F00
1E003E00
1F003C00
0F807C00
0F80F800
07C0F000
03E1F000
03E1E000
01F3E000
1FF7FC00
1FFFFC00
1FFFFC00
003F0000
003E0000
001E0000
1FFFFC00
1FFFFC00
1FFFFC00
001E0000
001E0000
001E0000
001E0000
001E0000
001E0000
001E0000
001E0000
001E0000
ENDCHAR
STARTCHAR U+00A6
ENCODING 166
SWIDTH 211 0
DWIDTH 9 0
BBX 9 41 0 -10
BITMAP
1E00
1E00
1E00
1E00
1E00
1E00
1E00
1E00
1E00
1E00
1E00
1E00
1E00
1E00
1E00
1E00
0000
0000
0000
0000
0000
0000
0000
0000
0000
1E00
1E00
1E00
1E00
1E00
1E00
1E00
1E00
1E00
1E00
1E00
1E00
1E00
1E00
1E00
1E00
ENDCHAR
STARTCHAR U+00A7
ENCODING 167
SWIDTH 468 0
DWIDTH 20 0
BBX 20 36 0 -8
BITMAP
03F800
0FFE00
1FFF00
1F0F80
3C0780
3C0200
3C0000
3C0000
3E0000
1F0000
1FE000
0FF800
0FFE00
1FFF80
3E3F80
7C0FC0
7803C0
7803C0
7803C0
7C03C0
3F07C0
3FEF80
1FFF00
07FE00
01FF00
003F80
000FC0
0007C0
0003C0
0003C0
1803C0
3C0780
3E0F80
1FFF00
0FFE00
03F800
ENDCHAR
STARTCHAR U+00A8
ENCODING 168
SWIDTH 445 0
DWIDTH 19 0
BBX 19 28 0 0
BITMAP
FFFFE0
FFFFE0
FFFFE0
FFFFE0
F001E0
F001E0
F001E0
F001E0
F001E0
F001E0
F001E0
F001E0
F001E0
F001E0
F001E0
F001E0
F001E0
F001E0
F001E0
F001E0
F001E0
F001E0
F001E0
F001E0
FFFFE0
FFFFE0
FFFFE0
FFFFE0
ENDCHAR
STARTCHAR U+00A9
ENCODING 169
SWIDTH 773 0
DWIDTH 33 0
BBX 33 28 0 0
BITMAP
0007F00000
003FFE0000
00F80F8000
01E003C000
038000E000
0700007000
0E03F03000
0C0FFC1800
1C3FFE1C00
187E0E0C00
1878020C00
18F0000C00
30F0000E00
30E0000600
30E0000600
30E0000E00
18F0000C00
18F0000C00
1878020C00
1C7E0E1800
0C3FFE1800
0E0FFC3000
0703F07000
038000E000
01E003C000
00F80F8000
003FFE0000
0007F00000
ENDCHAR
STARTCHAR U+00AA
ENCODING 170
SWIDTH 304 0
DWIDTH 13 0
BBX 13 28 0 0
BITMAP
3F80
3FC0
20E0
00E0
07E0
1FE0
3CE0
70E0
70E0
71E0
3FE0
1EE0
0000
0000
0000
0000
0000
0000
0000
0000
0000
0000
0000
0000
0000
0000
0000
0000
ENDCHAR
STARTCHAR U+00AB
ENCODING 171
SWIDTH 539 0
DWIDTH 23 0
BBX 23 20 0 0
BITMAP
00F078
01E0F0
01E0F0
03C1E0
0783C0
0F0780
0F0780
1E0F00
3C1E00
1E0F00
1E0F00
0F0780
0783C0
03C1E0
01E0F0
01E0F0
00F078
000000
000000
000000
ENDCHAR
STARTCHAR U+00AC
ENCODING 172
SWIDTH 515 0
DWIDTH 22 0
BBX 22 20 0 0
BITMAP
1FFFE0
1FFFE0
1FFFE0
0000E0
0000E0
0000E0
0000E0
0000E0
0000E0
0000E0
0000E0
000000
000000
000000
000000
000000
000000
000000
000000
000000
ENDCHAR
STARTCHAR U+00AD
ENCODING 173
SWIDTH 375 0
DWIDTH 16 0
BBX 16 13 0 0
BITMAP
7FFC
7FFC
7FFC
7FFC
0000
0000
0000
0000
0000
0000
0000
0000
0000
ENDCHAR
STARTCHAR U+00AE
ENCODING 174
SWIDTH 773 0
DWIDTH 33 0
BBX 33 28 0 0
BITMAP
0007F00000
003FFE0000
00F80F8000
01C003C000
038000E000
0700007000
0E1FE03000
0C1FF81800
1C1C3C1C00
181C1C0C00
181C1C0C00
181C1C0C00
301C3C0E00
301FF80600
301FE00600
301CF00E00
181C700C00
181C780C00
181C3C0C00
1C1C1C1800
0C1C1E1800
0E1C0F3000
0700007000
038000E000
01E003C000
00F80F8000
003FFE0000
0007F00000
ENDCHAR
STARTCHAR U+00AF
ENCODING 175
SWIDTH 445 0
DWIDTH 19 0
BBX 19 28 0 0
BITMAP
FFFFE0
FFFFE0
FFFFE0
FFFFE0
F001E0
F001E0
F001E0
F001E0
F001E0
F001E0
F001E0
F001E0
F001E0
F001E0
F001E0
F001E0
F001E0
F001E0
F001E0
F001E0
F001E0
F001E0
F001E0
F001E0
FFFFE0
FFFFE0
FFFFE0
FFFFE0
ENDCHAR
STARTCHAR U+00B0
ENCODING 176
SWIDTH 375 0
DWIDTH 16 0
BBX 16 28 0 0
BITMAP
03C0
0FF0
1FF8
1E38
3C3C
381C
381C
3C3C
1E3C
1FF8
0FF0
03E0
0000
0000
0000
0000
0000
0000
0000
0000
0000
0000
0000
0000
0000
0000
0000
0000
ENDCHAR
STARTCHAR U+00B1
ENCODING 177
SWIDTH 515 0
DWIDTH 22 0
BBX 22 24 0 0
BITMAP
007800
007800
007800
007800
007800
007800
1FFFE0
1FFFE0
1FFFE0
007800
007800
007800
007800
007800
007800
000000
000000
000000
000000
000000
000000
1FFFE0
1FFFE0
1FFFE0
ENDCHAR
STARTCHAR U+00B2
ENCODING 178
SWIDTH 328 0
DWIDTH 14 0
BBX 14 28 0 0
BITMAP
1F80
3FC0
3FE0
30F0
20F0
00F0
00F0
00E0
01E0
01C0
03C0
0780
0780
0F00
0F00
1FF0
1FF0
3FF0
0000
0000
0000
0000
0000
0000
0000
0000
0000
0000
ENDCHAR
STARTCHAR U+00B3
ENCODING 179
SWIDTH 328 0
DWIDTH 14 0
BBX 14 28 0 0
BITMAP
7FF0
7FE0
7FE0
01C0
03C0
0380
0780
07E0
0FF0
00F0
0070
0070
0070
2070
70F0
7FE0
3FC0
0F80
0000
0000
0000
0000
0000
0000
0000
0000
0000
0000
ENDCHAR
STARTCHAR U+00B4
ENCODING 180
SWIDTH 445 0
DWIDTH 19 0
BBX 19 28 0 0
BITMAP
FFFFE0
FFFFE0
FFFFE0
FFFFE0
F001E0
F001E0
F001E0
F001E0
F001E0
F001E0
F001E0
F001E0
F001E0
F001E0
F001E0
F001E0
F001E0
F001E0
F001E0
F001E0
F001E0
F001E0
F001E0
F001E0
FFFFE0
FFFFE0
FFFFE0
FFFFE0
ENDCHAR
STARTCHAR U+00B5
ENCODING 181
SWIDTH 562 0
DWIDTH 24 0
BBX 24 28 0 -8
BITMAP
1E0078
1E0078
1E0078
1E0078
1E0078
1E0078
1E0078
1E0078
1E0078
1E0078
1E0078
1E0078
1E0078
1F0078
1F00F8
1FC3F8
1FFFF8
1FFFF8
1FFF78
1E7C78
1E0000
1E0000
1E0000
1E0000
1E0000
1E0000
1E0000
1E0000
ENDCHAR
STARTCHAR U+00B6
ENCODING 182
SWIDTH 539 0
DWIDTH 23 0
BBX 23 36 0 -8
BITMAP
01FFFC
07FFFC
0FF8E0
1FF8E0
3FF8E0
3FF8E0
3FF8E0
3FF8E0
3FF8E0
3FF8E0
3FF8E0
1FF8E0
0FF8E0
07F8E0
01F8E0
0038E0
0038E0
0038E0
0038E0
0038E0
0038E0
0038E0
0038E0
0038E0
0038E0
0038E0
0038E0
0038E0
0038E0
0038E0
0038E0
0038E0
0038E0
0038E0
0038E0
0038E0
ENDCHAR
STARTCHAR U+00B7
ENCODING 183
SWIDTH 234 0
DWIDTH 10 0
BBX 10 17 0 0
BITMAP
0400
0E00
1F00
1F00
0E00
0400
0000
0000
0000
0000
0000
0000
0000
0000
0000
0000
0000
ENDCHAR
STARTCHAR U+00B8
ENCODING 184
SWIDTH 445 0
DWIDTH 19 0
BBX 19 28 0 0
BITMAP
FFFFE0
FFFFE0
FFFFE0
FFFFE0
F001E0
F001E0
F001E0
F001E0
F001E0
F001E0
F001E0
F001E0
F001E0
F001E0
F001E0
F001E0
F001E0
F001E0
F001E0
F001E0
F001E0
F001E0
F001E0
F001E0
FFFFE0
FFFFE0
FFFFE0
FFFFE0
ENDCHAR
STARTCHAR U+00B9
ENCODING 185
SWIDTH 234 0
DWIDTH 10 0
BBX 10 28 0 0
BITMAP
0400
0C00
1C00
1C00
1C00
1C00
1C00
1C00
1C00
1C00
1C00
1C00
1C00
1C00
1C00
1C00
1C00
1C00
0000
0000
0000
0000
0000
0000
0000
0000
0000
0000
ENDCHAR
STARTCHAR U+00BA
ENCODING 186
SWIDTH 375 0
DWIDTH 16 0
BBX 16 28 0 0
BITMAP
07C0
0FF0
1FF8
3C3C
381C
701C
700E
701C
381C
3C3C
1FF8
0FF0
07E0
0000
0000
0000
0000
0000
0000
0000
0000
0000
0000
0000
0000
0000
0000
0000
ENDCHAR
STARTCHAR U+00BB
ENCODING 187
SWIDTH 539 0
DWIDTH 23 0
BBX 23 20 0 0
BITMAP
3C1E00
1E0F00
0F0780
078780
0783C0
03C1E0
01E0F0
00F0F0
007878
00F078
01E0F0
03C1E0
03C3C0
078780
0F0780
1E0F00
3C1E00
000000
000000
000000
ENDCHAR
STARTCHAR U+00BC
ENCODING 188
SWIDTH 773 0
DWIDTH 33 0
BBX 33 29 0 -1
BITMAP
0400070000
0C000F0000
1C000E0000
1C001E0000
1C001C0000
1C003C0000
1C00380000
1C00700000
1C00700000
1C00E00000
1C00E00000
1C01C00400
1C01C00C00
1C03800C00
1C03801C00
1C07003C00
1C07007C00
1C0E00FC00
000E01DC00
001C03DC00
001C079C00
0038071C00
00380E1C00
00701FFF00
00F03FFF00
00E07FFF00
01E0003C00
01C0003C00
0000003C00
ENDCHAR
STARTCHAR U+00BD
ENCODING 189
SWIDTH 796 0
DWIDTH 34 0
BBX 34 29 0 -1
BITMAP
0400070000
0C000F0000
1C000E0000
1C001E0000
1C001C0000
1C003C0000
1C00380000
1C00700000
1C00700000
1C00E00000
1C00E00000
1C01C0FC00
1C01C1FE00
1C0381FF00
1C03818780
1C07020780
1C07000780
1C0E000780
000E000700
001C000F00
001C000E00
0038001E00
0038003C00
0070003C00
00F0007800
00E0007800
01E000FF80
01C000FF80
000001FF80
ENDCHAR
STARTCHAR U+00BE
ENCODING 190
SWIDTH 843 0
DWIDTH 36 0
BBX 36 29 0 -1
BITMAP
7FF000E000
7FE001E000
7FE001C000
01C003C000
03C0038000
0380078000
0780070000
07E00E0000
0FF00E0000
00F01C0000
00701C0000
0070380080
0070380180
2070700180
70F0700380
7FE0E00780
3FC0E00F80
0F81C01F80
0001C03B80
0003807B80
000380F380
000700E380
000701C380
000E03FFE0
001E07FFE0
001C0FFFE0
003C000780
0038000780
0000000780
ENDCHAR
STARTCHAR U+00BF
ENCODING 191
SWIDTH 445 0
DWIDTH 19 0
BBX 19 28 0 -8
BITMAP
002000
007000
00F800
00F800
007000
002000
000000
002000
007000
00F800
007800
007C00
007C00
00F800
01F800
07F000
0FC000
1F8000
1F0000
3E0000
3C0000
3C0000
3E0100
1F0780
1FFFC0
0FFF80
07FF00
01FC00
ENDCHAR
STARTCHAR U+00C0
ENCODING 192
SWIDTH 656 0
DWIDTH 28 0
BBX 28 36 0 0
BITMAP
00F80000
007C0000
003C0000
001E0000
000F0000
00070000
00000000
00000000
000F0000
001F0000
001F0000
003F8000
003F8000
003FC000
007BC000
007BC000
00F9E000
00F1E000
00F0F000
01E0F000
01E0F000
01E07800
03C07800
03C03C00
07803C00
07FFFE00
07FFFE00
0FFFFE00
0FFFFF00
1F000F00
1E000F80
1E000780
3E000780
3C0007C0
7C0003C0
780003E0
ENDCHAR
STARTCHAR U+00C1
ENCODING 193
SWIDTH 656 0
DWIDTH 28 0
BBX 28 36 0 0
BITMAP
0001E000
0003C000
0007C000
00078000
000F0000
001E0000
00000000
00000000
000F0000
001F0000
001F0000
003F8000
003F8000
003FC000
007BC000
007BC000
00F9E000
00F1E000
00F0F000
01E0F000
01E0F000
01E07800
03C07800
03C03C00
07803C00
07FFFE00
07FFFE00
0FFFFE00
0FFFFF00
1F000F00
1E000F80
1E000780
3E000780
3C0007C0
7C0003C0
780003E0
ENDCHAR
STARTCHAR U+00C2
ENCODING 194
SWIDTH 656 0
DWIDTH 28 0
BBX 28 36 0 0
BITMAP
001F0000
001F8000
003FC000
0079C000
0070E000
00E06000
00000000
00000000
000F0000
001F0000
001F0000
003F8000
003F8000
003FC000
007BC000
007BC000
00F9E000
00F1E000
00F0F000
01E0F000
01E0F000
01E07800
03C07800
03C03C00
07803C00
07FFFE00
07FFFE00
0FFFFE00
0FFFFF00
1F000F00
1E000F80
1E000780
3E000780
3C0007C0
7C0003C0
780003E0
ENDCHAR
STARTCHAR U+00C3
ENCODING 195
SWIDTH 656 0
DWIDTH 28 0
BBX 28 35 0 0
BITMAP
00F00000
01FC7000
01FFE000
018FE000
0003C000
00000000
00000000
000F0000
001F0000
001F0000
003F8000
003F8000
003FC000
007BC000
007BC000
00F9E000
00F1E000
00F0F000
01E0F000
01E0F000
01E07800
03C07800
03C03C00
07803C00
07FFFE00
07FFFE00
0FFFFE00
0FFFFF00
1F000F00
1E000F80
1E000780
3E000780
3C0007C0
7C0003C0
780003E0
ENDCHAR
STARTCHAR U+00C4
ENCODING 196
SWIDTH 656 0
DWIDTH 28 0
BBX 28 36 0 0
BITMAP
00404000
00606000
00F0F000
00F0F000
00606000
00404000
00000000
00000000
000F0000
001F0000
001F0000
003F8000
003F8000
003FC000
007BC000
007BC000
00F9E000
00F1E000
00F0F000
01E0F000
01E0F000
01E07800
03C07800
03C03C00
07803C00
07FFFE00
07FFFE00
0FFFFE00
0FFFFF00
1F000F00
1E000F80
1E000780
3E000780
3C0007C0
7C0003C0
780003E0
ENDCHAR
STARTCHAR U+00C5
ENCODING 197
SWIDTH 656 0
DWIDTH 28 0
BBX 28 38 0 0
BITMAP
000F0000
001F8000
0039C000
0030C000
0030C000
00398000
001F8000
000F0000
00000000
00000000
000F0000
001F0000
001F0000
003F8000
003F8000
003FC000
007BC000
007BC000
00F9E000
00F1E000
00F0F000
01E0F000
01E0F000
01E07800
03C07800
03C03C00
07803C00
07FFFE00
07FFFE00
0FFFFE00
0FFFFF00
1F000F00
1E000F80
1E000780
3E000780
3C0007C0
7C0003C0
780003E0
ENDCHAR
STARTCHAR U+00C6
ENCODING 198
SWIDTH 890 0
DWIDTH 38 0
BBX 38 28 0 0
BITMAP
0000FFFFF0
0001FFFFF0
0001FFFFF0
0003FFFFF0
0003DE0000
0007DE0000
00079E0000
000F9E0000
001F1E0000
001E1E0000
003E1E0000
003C1FFF00
007C1FFF00
00781FFF00
00F81FFF00
01F01E0000
01FFFE0000
03FFFE0000
03FFFE0000
07FFFE0000
07C01E0000
0F801E0000
0F001E0000
1F001E0000
3E001FFFF0
3E001FFFF0
7C001FFFF0
7C001FFFF0
ENDCHAR
STARTCHAR U+00C7
ENCODING 199
SWIDTH 656 0
DWIDTH 28 0
BBX 28 37 0 -9
BITMAP
0007F800
003FFE00
007FFF80
01FFFFC0
03FC07C0
07E001C0
07C00040
0F800000
1F000000
1F000000
1E000000
1E000000
3E000000
3E000000
3E000000
3E000000
1E000000
1E000000
1F000000
1F000000
0F800000
07C00000
07E000C0
03FC07C0
01FFFFC0
007FFFC0
003FFF00
0007F800
00038000
0003C000
0007F000
0000F000
00007000
0000F000
001FE000
001FE000
001F8000
ENDCHAR
STARTCHAR U+00C8
ENCODING 200
SWIDTH 562 0
DWIDTH 24 0
BBX 24 36 0 0
BITMAP
01F000
00F800
007800
003C00
001E00
000E00
000000
000000
0FFFF8
0FFFF8
0FFFF8
0FFFF8
0F0000
0F0000
0F0000
0F0000
0F0000
0F0000
0F0000
0FFFC0
0FFFC0
0FFFC0
0FFFC0
0F0000
0F0000
0F0000
0F0000
0F0000
0F0000
0F0000
0F0000
0F0000
0FFFFC
0FFFFC
0FFFFC
0FFFFC
ENDCHAR
STARTCHAR U+00C9
ENCODING 201
SWIDTH 562 0
DWIDTH 24 0
BBX 24 36 0 0
BITMAP
000780
000F00
001F00
001E00
003C00
007800
000000
000000
0FFFF8
0FFFF8
0FFFF8
0FFFF8
0F0000
0F0000
0F0000
0F0000
0F0000
0F0000
0F0000
0FFFC0
0FFFC0
0FFFC0
0FFFC0
0F0000
0F0000
0F0000
0F0000
0F0000
0F0000
0F0000
0F0000
0F0000
0FFFFC
0FFFFC
0FFFFC
0FFFFC
ENDCHAR
STARTCHAR U+00CA
ENCODING 202
SWIDTH 562 0
DWIDTH 24 0
BBX 24 36 0 0
BITMAP
003E00
003F00
007F80
00F380
00E1C0
01C0C0
000000
000000
0FFFF8
0FFFF8
0FFFF8
0FFFF8
0F0000
0F0000
0F0000
0F0000
0F0000
0F0000
0F0000
0FFFC0
0FFFC0
0FFFC0
0FFFC0
0F0000
0F0000
0F0000
0F0000
0F0000
0F0000
0F0000
0F0000
0F0000
0FFFFC
0FFFFC
0FFFFC
0FFFFC
ENDCHAR
STARTCHAR U+00CB
ENCODING 203
SWIDTH 562 0
DWIDTH 24 0
BBX 24 36 0 0
BITMAP
010100
018180
03C3C0
03C3C0
018180
010100
000000
000000
0FFFF8
0FFFF8
0FFFF8
0FFFF8
0F0000
0F0000
0F0000
0F0000
0F0000
0F0000
0F0000
0FFFC0
0FFFC0
0FFFC0
0FFFC0
0F0000
0F0000
0F0000
0F0000
0F0000
0F0000
0F0000
0F0000
0F0000
0FFFFC
0FFFFC
0FFFFC
0FFFFC
ENDCHAR
STARTCHAR U+00CC
ENCODING 204
SWIDTH 281 0
DWIDTH 12 0
BBX 12 36 0 0
BITMAP
F800
7C00
3C00
1E00
0F00
0700
0000
0000
0F00
0F00
0F00
0F00
0F00
0F00
0F00
0F00
0F00
0F00
0F00
0F00
0F00
0F00
0F00
0F00
0F00
0F00
0F00
0F00
0F00
0F00
0F00
0F00
0F00
0F00
0F00
0F00
ENDCHAR
STARTCHAR U+00CD
ENCODING 205
SWIDTH 281 0
DWIDTH 12 0
BBX 12 36 0 0
BITMAP
01E0
03C0
07C0
0780
0F00
1E00
0000
0000
0F00
0F00
0F00
0F00
0F00
0F00
0F00
0F00
0F00
0F00
0F00
0F00
0F00
0F00
0F00
0F00
0F00
0F00
0F00
0F00
0F00
0F00
0F00
0F00
0F00
0F00
0F00
0F00
ENDCHAR
STARTCHAR U+00CE
ENCODING 206
SWIDTH 281 0
DWIDTH 12 0
BBX 12 36 0 0
BITMAP
0000
0000
0000
0000
0000
0000
0000
0000
0000
0000
0000
0000
0000
0000
0000
0000
0000
0000
0000
0000
0000
0000
0000
0000
0000
0000
0000
0000
0000
0000
0000
0000
0000
0000
0000
0000
ENDCHAR
STARTCHAR U+00CF
ENCODING 207
SWIDTH 281 0
DWIDTH 12 0
BBX 14 36 -1 0
BITMAP
2020
3030
7878
7878
3030
2020
0000
0000
0780
0780
0780
0780
0780
0780
0780
0780
0780
0780
0780
0780
0780
0780
0780
0780
0780
0780
0780
0780
0780
0780
0780
0780
0780
0780
0780
0780
ENDCHAR
STARTCHAR U+00D0
ENCODING 208
SWIDTH 702 0
DWIDTH 30 0
BBX 30 28 0 0
BITMAP
0FFF8000
0FFFF000
0FFFF800
0FFFFE00
0F00FF00
0F003F80
0F000F80
0F0007C0
0F0003C0
0F0003E0
0F0001E0
0F0001E0
7FFE01E0
7FFE01E0
7FFE01E0
0F0001E0
0F0001E0
0F0001E0
0F0003E0
0F0003C0
0F0007C0
0F000F80
0F003F80
0F00FF00
0FFFFE00
0FFFF800
0FFFE000
0FFF0000
ENDCHAR
STARTCHAR U+00D1
ENCODING 209
SWIDTH 749 0
DWIDTH 32 0
BBX 32 35 0 0
BITMAP
003C0000
007F1C00
007FF800
0063F800
0000F000
00000000
00000000
0F0000F0
0F8000F0
0FC000F0
0FC000F0
0FE000F0
0FF000F0
0FF800F0
0FF800F0
0F7C00F0
0F3E00F0
0F1F00F0
0F1F80F0
0F0F80F0
0F07C0F0
0F03E0F0
0F01F0F0
0F01F0F0
0F00F8F0
0F007CF0
0F003EF0
0F003EF0
0F001FF0
0F000FF0
0F0007F0
0F0007F0
0F0003F0
0F0001F0
0F0000F0
ENDCHAR
STARTCHAR U+00D2
ENCODING 210
SWIDTH 796 0
DWIDTH 34 0
BBX 34 36 0 0
BITMAP
001F000000
000F800000
0007800000
0003C00000
0001E00000
0000E00000
0000000000
0000000000
0007F80000
003FFE0000
007FFF8000
01FFFFC000
03FC0FF000
07E003F000
07C000F800
0F80007C00
1F00003C00
1F00003E00
1E00003E00
1E00001E00
3E00001E00
3E00001E00
3E00001E00
3E00001E00
1E00001E00
1E00001E00
1F00003E00
1F00003C00
0F80007C00
07C000F800
07E003F000
03F80FE000
01FFFFC000
00FFFF8000
003FFE0000
0007F80000
ENDCHAR
STARTCHAR U+00D3
ENCODING 211
SWIDTH 796 0
DWIDTH 34 0
BBX 34 36 0 0
BITMAP
00003C0000
0000780000
0000F80000
0000F00000
0001E00000
0003C00000
0000000000
0000000000
0007F80000
003FFE0000
007FFF8000
01FFFFC000
03FC0FF000
07E003F000
07C000F800
0F80007C00
1F00003C00
1F00003E00
1E00003E00
1E00001E00
3E00001E00
3E00001E00
3E00001E00
3E00001E00
1E00001E00
1E00001E00
1F00003E00
1F00003C00
0F80007C00
07C000F800
07E003F000
03F80FE000
01FFFFC000
00FFFF8000
003FFE0000
0007F80000
ENDCHAR
STARTCHAR U+00D4
ENCODING 212
SWIDTH 796 0
DWIDTH 34 0
BBX 34 36 0 0
BITMAP
0003E00000
0003F00000
0007F80000
000F380000
000E1C0000
001C0C0000
0000000000
0000000000
0007F80000
003FFE0000
007FFF8000
01FFFFC000
03FC0FF000
07E003F000
07C000F800
0F80007C00
1F00003C00
1F00003E00
1E00003E00
1E00001E00
3E00001E00
3E00001E00
3E00001E00
3E00001E00
1E00001E00
1E00001E00
1F00003E00
1F00003C00
0F80007C00
07C000F800
07E003F000
03F80FE000
01FFFFC000
00FFFF8000
003FFE0000
0007F80000
ENDCHAR
STARTCHAR U+00D5
ENCODING 213
SWIDTH 796 0
DWIDTH 34 0
BBX 34 35 0 0
BITMAP
001E000000
003F8E0000
003FFC0000
0031FC0000
0000780000
0000000000
0000000000
0007F80000
003FFE0000
007FFF8000
01FFFFC000
03FC0FF000
07E003F000
07C000F800
0F80007C00
1F00003C00
1F00003E00
1E00003E00
1E00001E00
3E00001E00
3E00001E00
3E00001E00
3E00001E00
1E00001E00
1E00001E00
1F00003E00
1F00003C00
0F80007C00
07C000F800
07E003F000
03F80FE000
01FFFFC000
00FFFF8000
003FFE0000
0007F80000
ENDCHAR
STARTCHAR U+00D6
ENCODING 214
SWIDTH 796 0
DWIDTH 34 0
BBX 34 36 0 0
BITMAP
0008080000
000C0C0000
001E1E0000
001E1E0000
000C0C0000
0008080000
0000000000
0000000000
0007F80000
003FFE0000
007FFF8000
01FFFFC000
03FC0FF000
07E003F000
07C000F800
0F80007C00
1F00003C00
1F00003E00
1E00003E00
1E00001E00
3E00001E00
3E00001E00
3E00001E00
3E00001E00
1E00001E00
1E00001E00
1F00003E00
1F00003C00
0F80007C00
07C000F800
07E003F000
03F80FE000
01FFFFC000
00FFFF8000
003FFE0000
0007F80000
ENDCHAR
STARTCHAR U+00D7
ENCODING 215
SWIDTH 515 0
DWIDTH 22 0
BBX 22 21 0 0
BITMAP
040080
0E01C0
1F03C0
0F87C0
07CF80
03FF00
01FE00
00FC00
00FC00
01FE00
03FF00
07CF80
0F87C0
1F03E0
0E01C0
040080
000000
000000
000000
000000
000000
ENDCHAR
STARTCHAR U+00D8
ENCODING 216
SWIDTH 796 0
DWIDTH 34 0
BBX 34 28 0 0
BITMAP
0007F80800
003FFE1C00
007FFFBC00
01FFFFF800
03FC0FF000
07E003F000
07C001F800
0F8003FC00
1F00073C00
1F000E3E00
1E003C3E00
1E00781E00
3E00F01E00
3E01E01E00
3E03C01E00
3E07801E00
1E0F001E00
1E1E001E00
1F3C003E00
1F78003C00
0FF0007C00
07E000F800
07E003F000
07F80FE000
07FFFFC000
0EFFFF8000
1C3FFE0000
0807F80000
ENDCHAR
STARTCHAR U+00D9
ENCODING 217
SWIDTH 749 0
DWIDTH 32 0
BBX 32 36 0 0
BITMAP
003E0000
001F0000
000F0000
00078000
0003C000
0001C000
00000000
00000000
0F0000F0
0F0000F0
0F0000F0
0F0000F0
0F0000F0
0F0000F0
0F0000F0
0F0000F0
0F0000F0
0F0000F0
0F0000F0
0F0000F0
0F0000F0
0F0000F0
0F0000F0
0F0000F0
0F0000F0
0F0000F0
0F0000F0
0F8001F0
0F8001E0
07C003E0
07E007C0
03F81F80
01FFFF80
00FFFE00
003FFC00
000FF000
ENDCHAR
STARTCHAR U+00DA
ENCODING 218
SWIDTH 749 0
DWIDTH 32 0
BBX 32 36 0 0
BITMAP
00007800
0000F000
0001F000
0001E000
0003C000
00078000
00000000
00000000
0F0000F0
0F0000F0
0F0000F0
0F0000F0
0F0000F0
0F0000F0
0F0000F0
0F0000F0
0F0000F0
0F0000F0
0F0000F0
0F0000F0
0F0000F0
0F0000F0
0F0000F0
0F0000F0
0F0000F0
0F0000F0
0F0000F0
0F8001F0
0F8001E0
07C003E0
07E007C0
03F81F80
01FFFF80
00FFFE00
003FFC00
000FF000
ENDCHAR
STARTCHAR U+00DB
ENCODING 219
SWIDTH 749 0
DWIDTH 32 0
BBX 32 36 0 0
BITMAP
0007C000
0007E000
000FF000
001E7000
001C3800
00381800
00000000
00000000
0F0000F0
0F0000F0
0F0000F0
0F0000F0
0F0000F0
0F0000F0
0F0000F0
0F0000F0
0F0000F0
0F0000F0
0F0000F0
0F0000F0
0F0000F0
0F0000F0
0F0000F0
0F0000F0
0F0000F0
0F0000F0
0F0000F0
0F8001F0
0F8001E0
07C003E0
07E007C0
03F81F80
01FFFF80
00FFFE00
003FFC00
000FF000
ENDCHAR
STARTCHAR U+00DC
ENCODING 220
SWIDTH 749 0
DWIDTH 32 0
BBX 32 36 0 0
BITMAP
00101000
00181800
003C3C00
003C3C00
00181800
00101000
00000000
00000000
0F0000F0
0F0000F0
0F0000F0
0F0000F0
0F0000F0
0F0000F0
0F0000F0
0F0000F0
0F0000F0
0F0000F0
0F0000F0
0F0000F0
0F0000F0
0F0000F0
0F0000F0
0F0000F0
0F0000F0
0F0000F0
0F0000F0
0F8001F0
0F8001E0
07C003E0
07E007C0
03F81F80
01FFFF80
00FFFE00
003FFC00
000FF000
ENDCHAR
STARTCHAR U+00DD
ENCODING 221
SWIDTH 585 0
DWIDTH 25 0
BBX 25 36 0 0
BITMAP
00078000
000F0000
001F0000
001E0000
003C0000
00780000
00000000
00000000
7C001F00
3C003E00
3E003C00
1F007C00
1F007800
0F80F800
07C1F000
07C1E000
03E3E000
01E3C000
01F78000
00FF8000
007F0000
007F0000
003E0000
003E0000
003E0000
003E0000
003E0000
003E0000
003E0000
003E0000
003E0000
003E0000
003E0000
003E0000
003E0000
003E0000
ENDCHAR
STARTCHAR U+00DE
ENCODING 222
SWIDTH 562 0
DWIDTH 24 0
BBX 24 28 0 0
BITMAP
0F0000
0F0000
0F0000
0F0000
0F0000
0FFF00
0FFFE0
0FFFF0
0FFFF8
0F01F8
0F007C
0F007C
0F003C
0F003C
0F003C
0F003C
0F007C
0F007C
0F01F8
0FFFF8
0FFFF0
0FFFC0
0FFF00
0F0000
0F0000
0F0000
0F0000
0F0000
ENDCHAR
STARTCHAR U+00DF
ENCODING 223
SWIDTH 539 0
DWIDTH 23 0
BBX 23 28 0 0
BITMAP
007E00
01FF80
03FFC0
07FFE0
0FC3E0
0F01E0
0F00E0
1E00E0
1E00E0
1E01E0
1E03E0
1E3FC0
1E3F00
1E3F80
1E3FE0
1E03F0
1E00F0
1E00F8
1E0078
1E0078
1E0078
1E0078
1E00F8
1E01F0
1E3FF0
1E3FE0
1E3FC0
1E3E00
ENDCHAR
STARTCHAR U+00E0
ENCODING 224
SWIDTH 492 0
DWIDTH 21 0
BBX 21 29 0 0
BITMAP
07C000
03E000
01E000
00F000
007800
003800
000000
000000
000000
01FC00
0FFE00
0FFF80
0FFF80
1E0FC0
1003C0
0003C0
003FC0
03FFC0
07FFC0
0FC3C0
1E03C0
3C03C0
3C03C0
3C07C0
3E1FC0
3FFFC0
1FFFC0
0FFBC0
07E3C0
ENDCHAR
STARTCHAR U+00E1
ENCODING 225
SWIDTH 492 0
DWIDTH 21 0
BBX 21 29 0 0
BITMAP
001E00
003C00
007C00
007800
00F000
01E000
000000
000000
000000
01FC00
0FFE00
0FFF80
0FFF80
1E0FC0
1003C0
0003C0
003FC0
03FFC0
07FFC0
0FC3C0
1E03C0
3C03C0
3C03C0
3C07C0
3E1FC0
3FFFC0
1FFFC0
0FFBC0
07E3C0
ENDCHAR
STARTCHAR U+00E2
ENCODING 226
SWIDTH 492 0
DWIDTH 21 0
BBX 21 29 0 0
BITMAP
00F800
00FC00
01FE00
03CE00
038700
070300
000000
000000
000000
01FC00
0FFE00
0FFF80
0FFF80
1E0FC0
1003C0
0003C0
003FC0
03FFC0
07FFC0
0FC3C0
1E03C0
3C03C0
3C03C0
3C07C0
3E1FC0
3FFFC0
1FFFC0
0FFBC0
07E3C0
ENDCHAR
STARTCHAR U+00E3
ENCODING 227
SWIDTH 492 0
DWIDTH 21 0
BBX 21 28 0 0
BITMAP
078000
0FE380
0FFF00
0C7F00
001E00
000000
000000
000000
01FC00
0FFE00
0FFF80
0FFF80
1E0FC0
1003C0
0003C0
003FC0
03FFC0
07FFC0
0FC3C0
1E03C0
3C03C0
3C03C0
3C07C0
3E1FC0
3FFFC0
1FFFC0
0FFBC0
07E3C0
ENDCHAR
STARTCHAR U+00E4
ENCODING 228
SWIDTH 492 0
DWIDTH 21 0
BBX 21 29 0 0
BITMAP
040400
060600
0F0F00
0F0F00
060600
040400
000000
000000
000000
01FC00
0FFE00
0FFF80
0FFF80
1E0FC0
1003C0
0003C0
003FC0
03FFC0
07FFC0
0FC3C0
1E03C0
3C03C0
3C03C0
3C07C0
3E1FC0
3FFFC0
1FFFC0
0FFBC0
07E3C0
ENDCHAR
STARTCHAR U+00E5
ENCODING 229
SWIDTH 492 0
DWIDTH 21 0
BBX 21 31 0 0
BITMAP
00F000
01F800
039C00
030C00
030C00
039800
01F800
00F000
000000
000000
000000
01FC00
0FFE00
0FFF80
0FFF80
1E0FC0
1003C0
0003C0
003FC0
03FFC0
07FFC0
0FC3C0
1E03C0
3C03C0
3C03C0
3C07C0
3E1FC0
3FFFC0
1FFFC0
0FFBC0
07E3C0
ENDCHAR
STARTCHAR U+00E6
ENCODING 230
SWIDTH 796 0
DWIDTH 34 0
BBX 34 20 0 0
BITMAP
01FC0FE000
0FFF3FF800
0FFFFFFC00
0FFFFFFE00
1E0FF03E00
1003E01F00
0003C00F00
003FFFFF00
01FFFFFF00
07FFFFFF00
1FC3C00000
1E03C00000
3C03E00000
3C01E00000
3C01F00300
3E07FC0F00
3FFFFFFF00
1FFF7FFF00
0FFE1FFC00
07F007F000
ENDCHAR
STARTCHAR U+00E7
ENCODING 231
SWIDTH 492 0
DWIDTH 21 0
BBX 21 29 0 -9
BITMAP
007F00
01FFC0
07FFE0
0FFFE0
0FC0E0
1F0020
1E0000
3C0000
3C0000
3C0000
3C0000
3C0000
3E0000
1E0000
1F0020
0FC0E0
0FFFE0
03FFE0
01FFC0
007F00
001C00
001E00
003F80
000780
000780
000780
00FF00
00FF00
00FC00
ENDCHAR
STARTCHAR U+00E8
ENCODING 232
SWIDTH 539 0
DWIDTH 23 0
BBX 23 29 0 0
BITMAP
03E000
01F000
00F000
007800
003C00
001C00
000000
000000
000000
007E00
03FF80
07FFC0
0FFFE0
1F83E0
1F00F0
1E00F0
3C00F0
3FFFF8
3FFFF8
3FFFF8
3FFFF8
3C0000
1E0000
1F0010
1F80F0
0FFFF0
07FFF0
01FFE0
007F00
ENDCHAR
STARTCHAR U+00E9
ENCODING 233
SWIDTH 539 0
DWIDTH 23 0
BBX 23 29 0 0
BITMAP
000F00
001E00
003E00
003C00
007800
00F000
000000
000000
000000
007E00
03FF80
07FFC0
0FFFE0
1F83E0
1F00F0
1E00F0
3C00F0
3FFFF8
3FFFF8
3FFFF8
3FFFF8
3C0000
1E0000
1F0010
1F80F0
0FFFF0
07FFF0
01FFE0
007F00
ENDCHAR
STARTCHAR U+00EA
ENCODING 234
SWIDTH 539 0
DWIDTH 23 0
BBX 23 29 0 0
BITMAP
00F800
00FC00
01FE00
03CE00
038700
070300
000000
000000
000000
007E00
03FF80
07FFC0
0FFFE0
1F83E0
1F00F0
1E00F0
3C00F0
3FFFF8
3FFFF8
3FFFF8
3FFFF8
3C0000
1E0000
1F0010
1F80F0
0FFFF0
07FFF0
01FFE0
007F00
ENDCHAR
STARTCHAR U+00EB
ENCODING 235
SWIDTH 539 0
DWIDTH 23 0
BBX 23 29 0 0
BITMAP
020200
030300
078780
078780
030300
020200
000000
000000
000000
007E00
03FF80
07FFC0
0FFFE0
1F83E0
1F00F0
1E00F0
3C00F0
3FFFF8
3FFFF8
3FFFF8
3FFFF8
3C0000
1E0000
1F0010
1F80F0
0FFFF0
07FFF0
01FFE0
007F00
ENDCHAR
STARTCHAR U+00EC
ENCODING 236
SWIDTH 258 0
DWIDTH 11 0
BBX 12 29 -1 0
BITMAP
0000
0000
0000
0000
0000
0000
0000
0000
0000
0000
0000
0000
0000
0000
0000
0000
0000
0000
0000
0000
0000
0000
0000
0000
0000
0000
0000
0000
0000
ENDCHAR
STARTCHAR U+00ED
ENCODING 237
SWIDTH 258 0
DWIDTH 11 0
BBX 11 29 0 0
BITMAP
03C0
0780
0F80
0F00
1E00
3C00
0000
0000
0000
1E00
1E00
1E00
1E00
1E00
1E00
1E00
1E00
1E00
1E00
1E00
1E00
1E00
1E00
1E00
1E00
1E00
1E00
1E00
1E00
ENDCHAR
STARTCHAR U+00EE
ENCODING 238
SWIDTH 258 0
DWIDTH 11 0
BBX 13 29 -1 0
BITMAP
1F00
1F80
3FC0
79C0
70E0
E060
0000
0000
0000
1E00
1E00
1E00
1E00
1E00
1E00
1E00
1E00
1E00
1E00
1E00
1E00
1E00
1E00
1E00
1E00
1E00
1E00
1E00
1E00
ENDCHAR
STARTCHAR U+00EF
ENCODING 239
SWIDTH 258 0
DWIDTH 11 0
BBX 15 29 -2 0
BITMAP
0000
0000
0000
0000
0000
0000
0000
0000
0000
0000
0000
0000
0000
0000
0000
0000
0000
0000
0000
0000
0000
0000
0000
0000
0000
0000
0000
0000
0000
ENDCHAR
STARTCHAR U+00F0
ENCODING 240
SWIDTH 539 0
DWIDTH 23 0
BBX 23 28 0 0
BITMAP
00C180
03E7C0
01FF80
00FE00
01FE00
03FF00
0F8F80
0207C0
0003C0
00FBE0
03FFE0
07FFF0
0FFFF0
1F83F0
1E00F8
3E0078
3C0078
3C0078
3C0078
3C0078
3C00F0
3E00F0
1F01F0
1F83E0
0FFFE0
07FFC0
03FF00
00FC00
ENDCHAR
STARTCHAR U+00F1
ENCODING 241
SWIDTH 585 0
DWIDTH 25 0
BBX 25 28 0 0
BITMAP
01E00000
03F8E000
03FFC000
031FC000
00078000
00000000
00000000
00000000
1E3F0000
1EFFC000
1FFFE000
1FFFF000
1FC1F800
1F00F800
1E007800
1E007C00
1E003C00
1E003C00
1E003C00
1E003C00
1E003C00
1E003C00
1E003C00
1E003C00
1E003C00
1E003C00
1E003C00
1E003C00
ENDCHAR
STARTCHAR U+00F2
ENCODING 242
SWIDTH 585 0
DWIDTH 25 0
BBX 25 29 0 0
BITMAP
01F00000
00F80000
00780000
003C0000
001E0000
000E0000
00000000
00000000
00000000
007F0000
01FFC000
07FFF000
0FFFF800
0FC1F800
1F007C00
1E003C00
3E003E00
3C001E00
3C001E00
3C001E00
3C001E00
3C003E00
1E003C00
1F007C00
0FC1F800
0FFFF800
07FFF000
01FFC000
007F0000
ENDCHAR
STARTCHAR U+00F3
ENCODING 243
SWIDTH 585 0
DWIDTH 25 0
BBX 25 29 0 0
BITMAP
00078000
000F0000
001F0000
001E0000
003C0000
00780000
00000000
00000000
00000000
007F0000
01FFC000
07FFF000
0FFFF800
0FC1F800
1F007C00
1E003C00
3E003E00
3C001E00
3C001E00
3C001E00
3C001E00
3C003E00
1E003C00
1F007C00
0FC1F800
0FFFF800
07FFF000
01FFC000
007F0000
ENDCHAR
STARTCHAR U+00F4
ENCODING 244
SWIDTH 585 0
DWIDTH 25 0
BBX 25 29 0 0
BITMAP
003E0000
003F0000
007F8000
00F38000
00E1C000
01C0C000
00000000
00000000
00000000
007F0000
01FFC000
07FFF000
0FFFF800
0FC1F800
1F007C00
1E003C00
3E003E00
3C001E00
3C001E00
3C001E00
3C001E00
3C003E00
1E003C00
1F007C00
0FC1F800
0FFFF800
07FFF000
01FFC000
007F0000
ENDCHAR
STARTCHAR U+00F5
ENCODING 245
SWIDTH 585 0
DWIDTH 25 0
BBX 25 28 0 0
BITMAP
01E00000
03F8E000
03FFC000
031FC000
00078000
00000000
00000000
00000000
007F0000
01FFC000
07FFF000
0FFFF800
0FC1F800
1F007C00
1E003C00
3E003E00
3C001E00
3C001E00
3C001E00
3C001E00
3C003E00
1E003C00
1F007C00
0FC1F800
0FFFF800
07FFF000
01FFC000
007F0000
ENDCHAR
STARTCHAR U+00F6
ENCODING 246
SWIDTH 585 0
DWIDTH 25 0
BBX 25 29 0 0
BITMAP
00808000
00C0C000
01E1E000
01E1E000
00C0C000
00808000
00000000
00000000
00000000
007F0000
01FFC000
07FFF000
0FFFF800
0FC1F800
1F007C00
1E003C00
3E003E00
3C001E00
3C001E00
3C001E00
3C001E00
3C003E00
1E003C00
1F007C00
0FC1F800
0FFFF800
07FFF000
01FFC000
007F0000
ENDCHAR
STARTCHAR U+00F7
ENCODING 247
SWIDTH 515 0
DWIDTH 22 0
BBX 22 24 0 0
BITMAP
001000
003800
007C00
007C00
003800
001000
000000
000000
000000
1FFFE0
1FFFE0
1FFFE0
000000
000000
001000
003800
007C00
007C00
003800
001000
000000
000000
000000
000000
ENDCHAR
STARTCHAR U+00F8
ENCODING 248
SWIDTH 585 0
DWIDTH 25 0
BBX 25 22 0 -1
BITMAP
00000800
007F1C00
01FFF800
07FFF000
0FFFF800
0FC1F800
1F01FC00
1E03BC00
3C073E00
3C0F1E00
3C1E1E00
3C3C1E00
3C381E00
3E701E00
1EE03C00
1FC07C00
0FC1F800
0FFFF800
07FFF000
0FFFC000
1C7F0000
08000000
ENDCHAR
STARTCHAR U+00F9
ENCODING 249
SWIDTH 585 0
DWIDTH 25 0
BBX 25 29 0 0
BITMAP
01F00000
00F80000
00780000
003C0000
001E0000
000E0000
00000000
00000000
00000000
1E007800
1E007800
1E007800
1E007800
1E007800
1E007800
1E007800
1E007800
1E007800
1E007800
1E007800
1E007800
1E007800
1F007800
1F007800
0FC1F800
0FFFF800
07FFF800
03FFF800
00FE7800
ENDCHAR
STARTCHAR U+00FA
ENCODING 250
SWIDTH 585 0
DWIDTH 25 0
BBX 25 29 0 0
BITMAP
00078000
000F0000
001F0000
001E0000
003C0000
00780000
00000000
00000000
00000000
1E007800
1E007800
1E007800
1E007800
1E007800
1E007800
1E007800
1E007800
1E007800
1E007800
1E007800
1E007800
1E007800
1F007800
1F007800
0FC1F800
0FFFF800
07FFF800
03FFF800
00FE7800
ENDCHAR
STARTCHAR U+00FB
ENCODING 251
SWIDTH 585 0
DWIDTH 25 0
BBX 25 29 0 0
BITMAP
003E0000
003F0000
007F8000
00F38000
00E1C000
01C0C000
00000000
00000000
00000000
1E007800
1E007800
1E007800
1E007800
1E007800
1E007800
1E007800
1E007800
1E007800
1E007800
1E007800
1E007800
1E007800
1F007800
1F007800
0FC1F800
0FFFF800
07FFF800
03FFF800
00FE7800
ENDCHAR
STARTCHAR U+00FC
ENCODING 252
SWIDTH 585 0
DWIDTH 25 0
BBX 25 29 0 0
BITMAP
01010000
01818000
03C3C000
03C3C000
01818000
01010000
00000000
00000000
00000000
1E007800
1E007800
1E007800
1E007800
1E007800
1E007800
1E007800
1E007800
1E007800
1E007800
1E007800
1E007800
1E007800
1F007800
1F007800
0FC1F800
0FFFF800
07FFF800
03FFF800
00FE7800
ENDCHAR
STARTCHAR U+00FD
ENCODING 253
SWIDTH 515 0
DWIDTH 22 0
BBX 22 37 0 -8
BITMAP
000F00
001E00
003E00
003C00
007800
00F000
000000
000000
000000
780078
780078
3C00F8
3C00F0
1E00F0
1E01E0
1F01E0
0F03E0
0F03C0
0783C0
078780
03C780
03CF00
03CF00
01EF00
01FE00
00FE00
00FC00
007C00
007C00
007800
007800
00F000
01F000
0FE000
0FE000
0FC000
0F0000
ENDCHAR
STARTCHAR U+00FE
ENCODING 254
SWIDTH 585 0
DWIDTH 25 0
BBX 25 36 0 -8
BITMAP
1E000000
1E000000
1E000000
1E000000
1E000000
1E000000
1E000000
1E000000
1E3F0000
1EFFC000
1FFFF000
1FFFF800
1FC1F800
1F007C00
1E003C00
1E003C00
1E001E00
1E001E00
1E001E00
1E001E00
1E003C00
1E003C00
1E007C00
1F81F800
1FFFF000
1FFFE000
1FFFC000
1E7F0000
1E000000
1E000000
1E000000
1E000000
1E000000
1E000000
1E000000
1E000000
ENDCHAR
STARTCHAR U+00FF
ENCODING 255
SWIDTH 515 0
DWIDTH 22 0
BBX 22 37 0 -8
BITMAP
020200
030300
078780
078780
030300
020200
000000
000000
000000
780078
780078
3C00F8
3C00F0
1E00F0
1E01E0
1F01E0
0F03E0
0F03C0
0783C0
078780
03C780
03CF00
03CF00
01EF00
01FE00
00FE00
00FC00
007C00
007C00
007800
007800
00F000
01F000
0FE000
0FE000
0FC000
0F0000
ENDCHAR
STARTCHAR U+2013
ENCODING 8211
SWIDTH 492 0
DWIDTH 21 0
BBX 22 13 -1 0
BITMAP
FFFFF8
FFFFF8
FFFFF8
FFFFF8
000000
000000
000000
000000
000000
000000
000000
000000
000000
ENDCHAR
STARTCHAR U+2014
ENCODING 8212
SWIDTH 960 0
DWIDTH 41 0
BBX 43 13 -1 0
BITMAP
FFFFFFFFFF80
FFFFFFFFFF80
FFFFFFFFFF80
FFFFFFFFFF80
000000000000
000000000000
000000000000
000000000000
000000000000
000000000000
000000000000
000000000000
000000000000
ENDCHAR
STARTCHAR U+2018
ENCODING 8216
SWIDTH 234 0
DWIDTH 10 0
BBX 10 28 0 0
BITMAP
0200
0600
0C00
1C00
1C00
1E00
1F00
1E00
0C00
0000
0000
0000
0000
0000
0000
0000
0000
0000
0000
0000
0000
0000
0000
0000
0000
0000
0000
0000
ENDCHAR
STARTCHAR U+2019
ENCODING 8217
SWIDTH 234 0
DWIDTH 10 0
BBX 10 28 0 0
BITMAP
0400
0E00
1E00
1E00
1E00
0E00
0E00
0C00
0800
1000
0000
0000
0000
0000
0000
0000
0000
0000
0000
0000
0000
0000
0000
0000
0000
0000
0000
0000
ENDCHAR
STARTCHAR U+201C
ENCODING 8220
SWIDTH 398 0
DWIDTH 17 0
BBX 17 28 0 0
BITMAP
020400
061800
0C3800
1C3800
1C7800
1E7C00
1F7E00
1E3C00
0C3800
001000
000000
000000
000000
000000
000000
000000
000000
000000
000000
000000
000000
000000
000000
000000
000000
000000
000000
000000
ENDCHAR
STARTCHAR U+201D
ENCODING 8221
SWIDTH 398 0
DWIDTH 17 0
BBX 17 28 0 0
BITMAP
041000
0E3800
1E7800
1E7800
1E7800
0E3800
0E3800
0C3000
082000
104000
000000
000000
000000
000000
000000
000000
000000
000000
000000
000000
000000
000000
000000
000000
000000
000000
000000
000000
ENDCHAR
STARTCHAR U+2022
ENCODING 8226
SWIDTH 398 0
DWIDTH 17 0
BBX 17 17 0 0
BITMAP
008000
01C000
03E000
07F000
0FF800
0FF800
07F000
03E000
01C000
008000
000000
000000
000000
000000
000000
000000
000000
ENDCHAR
STARTCHAR U+2026
ENCODING 8230
SWIDTH 890 0
DWIDTH 38 0
BBX 38 6 0 0
BITMAP
0400100080
0E003801C0
1F007C03E0
1E007803C0
0E003801C0
0400100080
ENDCHAR
STARTCHAR U+20AC
ENCODING 8364
SWIDTH 609 0
DWIDTH 26 0
BBX 26 28 0 0
BITMAP
000FF000
003FFC00
00FFFE00
01FFFE00
03F80E00
07E00200
07C00000
0F800000
0F000000
7FFFE000
7FFFE000
7FFFE000
1E000000
1E000000
1E000000
7FFFC000
7FFFC000
7FFF8000
0F000000
0F800000
07800000
07C00000
03E00200
01F80E00
01FFFE00
007FFE00
003FFC00
0007F000
ENDCHAR
ENDFONT
