STARTFONT 2.1
COMMENT Converted from Johnston100 W03 Regular.ttf at 16px with ttf2bdf.py (Pillow, 1-bit, no AA)
FONT -Misc-Johnston100-Medium-R-Normal--16-160-75-75-P-180-ISO10646-1
SIZE 16 75 75
FONTBOUNDINGBOX 18 19 -1 -4
STARTPROPERTIES 9
FOUNDRY "Misc"
FAMILY_NAME "Johnston100"
WEIGHT_NAME "Medium"
SLANT "R"
PIXEL_SIZE 16
RESOLUTION_X 75
RESOLUTION_Y 75
FONT_ASCENT 15
FONT_DESCENT 4
ENDPROPERTIES
CHARS 200
STARTCHAR space
ENCODING 32
SWIDTH 240 0
DWIDTH 4 0
BBX 4 19 0 -4
BITMAP
00
00
00
00
00
00
00
00
00
00
00
00
00
00
00
00
00
00
00
ENDCHAR
STARTCHAR !
ENCODING 33
SWIDTH 300 0
DWIDTH 5 0
BBX 5 11 0 0
BITMAP
60
60
60
60
20
20
20
20
00
20
20
ENDCHAR
STARTCHAR "
ENCODING 34
SWIDTH 420 0
DWIDTH 7 0
BBX 7 11 0 0
BITMAP
68
68
48
48
00
00
00
00
00
00
00
ENDCHAR
STARTCHAR U+0023
ENCODING 35
SWIDTH 720 0
DWIDTH 12 0
BBX 12 11 0 0
BITMAP
0440
04C0
0C80
3FE0
0880
0980
1900
7FC0
1300
3200
2200
ENDCHAR
STARTCHAR $
ENCODING 36
SWIDTH 480 0
DWIDTH 8 0
BBX 8 14 0 -2
BITMAP
18
3C
7E
60
60
38
1E
06
02
02
66
3C
18
00
ENDCHAR
STARTCHAR %
ENCODING 37
SWIDTH 720 0
DWIDTH 12 0
BBX 12 11 0 0
BITMAP
3880
4980
4900
3B00
0200
0600
05C0
0D20
0B20
1920
11C0
ENDCHAR
STARTCHAR &
ENCODING 38
SWIDTH 660 0
DWIDTH 11 0
BBX 11 11 0 0
BITMAP
1C00
3200
2200
3600
1C00
3CC0
6680
4380
6380
7F80
3CC0
ENDCHAR
STARTCHAR '
ENCODING 39
SWIDTH 240 0
DWIDTH 4 0
BBX 4 11 0 0
BITMAP
60
60
40
40
00
00
00
00
00
00
00
ENDCHAR
STARTCHAR (
ENCODING 40
SWIDTH 240 0
DWIDTH 4 0
BBX 4 13 0 -1
BITMAP
30
20
60
60
40
40
40
40
40
60
60
20
30
ENDCHAR
STARTCHAR )
ENCODING 41
SWIDTH 240 0
DWIDTH 4 0
BBX 4 13 0 -1
BITMAP
40
40
60
20
20
20
20
20
20
20
60
40
40
ENDCHAR
STARTCHAR *
ENCODING 42
SWIDTH 420 0
DWIDTH 7 0
BBX 7 11 0 0
BITMAP
10
54
38
30
5C
10
00
00
00
00
00
ENDCHAR
STARTCHAR +
ENCODING 43
SWIDTH 540 0
DWIDTH 9 0
BBX 9 8 0 0
BITMAP
0800
0800
7E00
0800
0800
0000
0000
0000
ENDCHAR
STARTCHAR ,
ENCODING 44
SWIDTH 240 0
DWIDTH 4 0
BBX 4 5 0 -2
BITMAP
60
60
20
00
00
ENDCHAR
STARTCHAR -
ENCODING 45
SWIDTH 360 0
DWIDTH 6 0
BBX 6 5 0 0
BITMAP
7C
00
00
00
00
ENDCHAR
STARTCHAR .
ENCODING 46
SWIDTH 240 0
DWIDTH 4 0
BBX 4 2 0 0
BITMAP
60
40
ENDCHAR
STARTCHAR /
ENCODING 47
SWIDTH 300 0
DWIDTH 5 0
BBX 6 13 0 -1
BITMAP
08
18
10
10
30
30
20
20
60
40
40
C0
C0
ENDCHAR
STARTCHAR 0
ENCODING 48
SWIDTH 540 0
DWIDTH 9 0
BBX 9 11 0 0
BITMAP
1C00
2600
6200
4300
4300
4300
4300
4300
6200
2600
1C00
ENDCHAR
STARTCHAR 1
ENCODING 49
SWIDTH 300 0
DWIDTH 5 0
BBX 5 11 0 0
BITMAP
20
60
60
60
60
60
60
60
60
60
60
ENDCHAR
STARTCHAR 2
ENCODING 50
SWIDTH 480 0
DWIDTH 8 0
BBX 8 11 0 0
BITMAP
3C
66
42
06
06
0E
0C
18
38
30
7E
ENDCHAR
STARTCHAR 3
ENCODING 51
SWIDTH 480 0
DWIDTH 8 0
BBX 8 11 0 0
BITMAP
7E
06
0C
18
1C
06
03
03
02
46
3C
ENDCHAR
STARTCHAR 4
ENCODING 52
SWIDTH 540 0
DWIDTH 9 0
BBX 9 11 0 0
BITMAP
0000
0200
0600
0E00
1E00
3600
6600
FF00
0600
0600
0600
ENDCHAR
STARTCHAR 5
ENCODING 53
SWIDTH 480 0
DWIDTH 8 0
BBX 8 11 0 0
BITMAP
3E
30
20
20
3C
06
03
03
02
46
3C
ENDCHAR
STARTCHAR 6
ENCODING 54
SWIDTH 540 0
DWIDTH 9 0
BBX 9 11 0 0
BITMAP
0C00
1000
2000
2000
7C00
4200
4300
4300
6300
6600
3C00
ENDCHAR
STARTCHAR 7
ENCODING 55
SWIDTH 480 0
DWIDTH 8 0
BBX 8 11 0 0
BITMAP
00
00
00
00
00
00
00
00
00
00
00
ENDCHAR
STARTCHAR 8
ENCODING 56
SWIDTH 480 0
DWIDTH 8 0
BBX 8 11 0 0
BITMAP
1C
26
62
66
3C
1E
67
63
43
62
3C
ENDCHAR
STARTCHAR 9
ENCODING 57
SWIDTH 540 0
DWIDTH 9 0
BBX 9 11 0 0
BITMAP
3C00
6600
4300
4300
6300
3F00
0600
0600
0400
0C00
1800
ENDCHAR
STARTCHAR :
ENCODING 58
SWIDTH 300 0
DWIDTH 5 0
BBX 5 8 0 0
BITMAP
60
40
00
00
00
00
60
40
ENDCHAR
STARTCHAR ;
ENCODING 59
SWIDTH 300 0
DWIDTH 5 0
BBX 5 10 0 -2
BITMAP
60
40
00
00
00
00
30
30
10
00
ENDCHAR
STARTCHAR U+003C
ENCODING 60
SWIDTH 540 0
DWIDTH 9 0
BBX 9 10 0 0
BITMAP
0200
0E00
3C00
6000
3800
1C00
0600
0200
0000
0000
ENDCHAR
STARTCHAR =
ENCODING 61
SWIDTH 540 0
DWIDTH 9 0
BBX 9 8 0 0
BITMAP
7E00
0000
0000
0000
7E00
0000
0000
0000
ENDCHAR
STARTCHAR U+003E
ENCODING 62
SWIDTH 540 0
DWIDTH 9 0
BBX 9 10 0 0
BITMAP
6000
7800
1E00
0200
0E00
3800
7000
4000
0000
0000
ENDCHAR
STARTCHAR ?
ENCODING 63
SWIDTH 420 0
DWIDTH 7 0
BBX 7 11 0 0
BITMAP
78
44
04
0C
18
30
30
10
00
10
10
ENDCHAR
STARTCHAR @
ENCODING 64
SWIDTH 900 0
DWIDTH 15 0
BBX 15 14 0 -3
BITMAP
07E0
0C18
100C
23E4
6664
4466
4C44
4C44
4C4C
64F8
2380
3000
1820
07C0
ENDCHAR
STARTCHAR A
ENCODING 65
SWIDTH 660 0
DWIDTH 11 0
BBX 11 11 0 0
BITMAP
0C00
0E00
0E00
1A00
1B00
3100
3180
3F80
6080
60C0
4040
ENDCHAR
STARTCHAR B
ENCODING 66
SWIDTH 600 0
DWIDTH 10 0
BBX 10 11 0 0
BITMAP
3C00
2200
2300
2300
2200
3E00
2100
2180
2180
2100
3E00
ENDCHAR
STARTCHAR C
ENCODING 67
SWIDTH 660 0
DWIDTH 11 0
BBX 11 11 0 0
BITMAP
0F80
1840
3000
6000
6000
6000
6000
6000
3000
1840
0F80
ENDCHAR
STARTCHAR D
ENCODING 68
SWIDTH 720 0
DWIDTH 12 0
BBX 12 11 0 0
BITMAP
3E00
2180
20C0
2040
2060
2060
2060
2040
20C0
2180
3E00
ENDCHAR
STARTCHAR E
ENCODING 69
SWIDTH 540 0
DWIDTH 9 0
BBX 9 11 0 0
BITMAP
3F00
2000
2000
2000
2000
3E00
2000
2000
2000
2000
3F80
ENDCHAR
STARTCHAR F
ENCODING 70
SWIDTH 480 0
DWIDTH 8 0
BBX 9 11 0 0
BITMAP
3F00
2000
2000
2000
3E00
2000
2000
2000
2000
2000
2000
ENDCHAR
STARTCHAR G
ENCODING 71
SWIDTH 720 0
DWIDTH 12 0
BBX 12 11 0 0
BITMAP
0FC0
1840
3000
6000
6000
61E0
6060
6060
3060
1860
0FE0
ENDCHAR
STARTCHAR H
ENCODING 72
SWIDTH 720 0
DWIDTH 12 0
BBX 12 11 0 0
BITMAP
2040
2040
2040
2040
3FC0
2040
2040
2040
2040
2040
2040
ENDCHAR
STARTCHAR I
ENCODING 73
SWIDTH 300 0
DWIDTH 5 0
BBX 5 11 0 0
BITMAP
20
20
20
20
20
20
20
20
20
20
20
ENDCHAR
STARTCHAR J
ENCODING 74
SWIDTH 480 0
DWIDTH 8 0
BBX 8 11 0 0
BITMAP
04
04
04
04
04
04
04
04
04
4C
78
ENDCHAR
STARTCHAR K
ENCODING 75
SWIDTH 600 0
DWIDTH 10 0
BBX 10 11 0 0
BITMAP
2180
2300
2600
2C00
3800
3800
2C00
2600
2300
2180
21C0
ENDCHAR
STARTCHAR L
ENCODING 76
SWIDTH 540 0
DWIDTH 9 0
BBX 9 11 0 0
BITMAP
2000
2000
2000
2000
2000
2000
2000
2000
2000
2000
3F00
ENDCHAR
STARTCHAR M
ENCODING 77
SWIDTH 840 0
DWIDTH 14 0
BBX 14 11 0 0
BITMAP
3030
3070
3870
2CD0
2790
2310
2210
2010
2010
2010
2010
ENDCHAR
STARTCHAR N
ENCODING 78
SWIDTH 720 0
DWIDTH 12 0
BBX 12 11 0 0
BITMAP
2060
3060
3860
2C60
2C60
2660
2360
21E0
20E0
20E0
2060
ENDCHAR
STARTCHAR O
ENCODING 79
SWIDTH 780 0
DWIDTH 13 0
BBX 13 11 0 0
BITMAP
0F80
1840
3020
6030
6030
6010
6030
6030
3020
1840
0F80
ENDCHAR
STARTCHAR P
ENCODING 80
SWIDTH 540 0
DWIDTH 9 0
BBX 9 11 0 0
BITMAP
3E00
2300
2180
2180
2300
3E00
2000
2000
2000
2000
2000
ENDCHAR
STARTCHAR Q
ENCODING 81
SWIDTH 780 0
DWIDTH 13 0
BBX 13 11 0 0
BITMAP
0F80
18C0
3020
6030
6030
6010
6010
60B0
30E0
1860
0FB0
ENDCHAR
STARTCHAR R
ENCODING 82
SWIDTH 600 0
DWIDTH 10 0
BBX 10 11 0 0
BITMAP
3E00
2300
2300
2300
2300
3E00
2C00
2600
2300
2180
2180
ENDCHAR
STARTCHAR S
ENCODING 83
SWIDTH 480 0
DWIDTH 8 0
BBX 8 11 0 0
BITMAP
3C
64
60
70
38
0E
06
02
42
66
3C
ENDCHAR
STARTCHAR T
ENCODING 84
SWIDTH 540 0
DWIDTH 9 0
BBX 9 11 0 0
BITMAP
FF80
0800
0800
0800
0800
0800
0800
0800
0800
0800
0800
ENDCHAR
STARTCHAR U
ENCODING 85
SWIDTH 720 0
DWIDTH 12 0
BBX 12 11 0 0
BITMAP
6060
6060
6060
6060
6060
6060
6060
2060
3040
10C0
0F00
ENDCHAR
STARTCHAR V
ENCODING 86
SWIDTH 600 0
DWIDTH 10 0
BBX 10 11 0 0
BITMAP
40C0
6080
6180
2180
3100
3300
1300
1A00
0E00
0C00
0C00
ENDCHAR
STARTCHAR W
ENCODING 87
SWIDTH 960 0
DWIDTH 16 0
BBX 16 11 0 0
BITMAP
4186
6186
6384
23CC
32CC
364C
3668
1478
1C38
1C30
0C30
ENDCHAR
STARTCHAR X
ENCODING 88
SWIDTH 660 0
DWIDTH 11 0
BBX 11 11 0 0
BITMAP
60C0
3180
3300
1B00
0E00
0E00
1E00
1B00
3180
60C0
40C0
ENDCHAR
STARTCHAR Y
ENCODING 89
SWIDTH 600 0
DWIDTH 10 0
BBX 10 11 0 0
BITMAP
4180
6100
2300
3200
1600
0C00
0C00
0C00
0C00
0C00
0C00
ENDCHAR
STARTCHAR Z
ENCODING 90
SWIDTH 600 0
DWIDTH 10 0
BBX 10 11 0 0
BITMAP
7F80
0380
0300
0600
0600
0C00
1800
1800
3000
7000
7FC0
ENDCHAR
STARTCHAR [
ENCODING 91
SWIDTH 300 0
DWIDTH 5 0
BBX 5 14 0 -1
BITMAP
78
60
60
60
60
60
60
60
60
60
60
60
60
78
ENDCHAR
STARTCHAR \
ENCODING 92
SWIDTH 300 0
DWIDTH 5 0
BBX 6 13 0 -1
BITMAP
C0
C0
40
40
60
20
20
30
30
10
10
18
08
ENDCHAR
STARTCHAR ]
ENCODING 93
SWIDTH 300 0
DWIDTH 5 0
BBX 5 14 0 -1
BITMAP
70
10
10
10
10
10
10
10
10
10
10
10
10
70
ENDCHAR
STARTCHAR ^
ENCODING 94
SWIDTH 540 0
DWIDTH 9 0
BBX 9 11 0 0
BITMAP
1C00
1600
3200
6300
0000
0000
0000
0000
0000
0000
0000
ENDCHAR
STARTCHAR _
ENCODING 95
SWIDTH 480 0
DWIDTH 8 0
BBX 10 2 -1 -2
BITMAP
0000
FF00
ENDCHAR
STARTCHAR `
ENCODING 96
SWIDTH 420 0
DWIDTH 7 0
BBX 8 11 0 0
BITMAP
FE
82
82
82
82
82
82
82
82
82
FE
ENDCHAR
STARTCHAR a
ENCODING 97
SWIDTH 480 0
DWIDTH 8 0
BBX 8 8 0 0
BITMAP
3C
46
02
1E
62
42
46
3A
ENDCHAR
STARTCHAR b
ENCODING 98
SWIDTH 600 0
DWIDTH 10 0
BBX 10 11 0 0
BITMAP
6000
6000
6000
6E00
7300
6180
6180
6180
6180
6300
7E00
ENDCHAR
STARTCHAR c
ENCODING 99
SWIDTH 480 0
DWIDTH 8 0
BBX 8 8 0 0
BITMAP
1E
22
60
40
40
60
32
1E
ENDCHAR
STARTCHAR d
ENCODING 100
SWIDTH 600 0
DWIDTH 10 0
BBX 10 11 0 0
BITMAP
0100
0100
0100
1D00
2300
6100
4100
4100
6100
2300
1D00
ENDCHAR
STARTCHAR e
ENCODING 101
SWIDTH 540 0
DWIDTH 9 0
BBX 9 8 0 0
BITMAP
1E00
2300
6300
7F00
4000
6000
2100
1F00
ENDCHAR
STARTCHAR f
ENCODING 102
SWIDTH 360 0
DWIDTH 6 0
BBX 6 11 0 0
BITMAP
1C
20
20
FC
20
20
20
20
20
20
20
ENDCHAR
STARTCHAR g
ENCODING 103
SWIDTH 480 0
DWIDTH 8 0
BBX 8 11 0 -3
BITMAP
3F
66
42
66
3C
60
3C
46
C3
C3
7E
ENDCHAR
STARTCHAR h
ENCODING 104
SWIDTH 600 0
DWIDTH 10 0
BBX 10 11 0 0
BITMAP
6000
6000
6000
6E00
7300
6100
6100
6100
6100
6100
6100
ENDCHAR
STARTCHAR i
ENCODING 105
SWIDTH 240 0
DWIDTH 4 0
BBX 4 11 0 0
BITMAP
60
00
60
60
60
60
60
60
60
60
00
ENDCHAR
STARTCHAR j
ENCODING 106
SWIDTH 240 0
DWIDTH 4 0
BBX 5 13 -1 -3
BITMAP
60
20
60
60
60
60
60
60
60
60
60
60
C0
ENDCHAR
STARTCHAR k
ENCODING 107
SWIDTH 540 0
DWIDTH 9 0
BBX 9 11 0 0
BITMAP
6000
6000
6000
6300
6E00
7800
7000
7800
6C00
6600
6300
ENDCHAR
STARTCHAR l
ENCODING 108
SWIDTH 300 0
DWIDTH 5 0
BBX 5 11 0 0
BITMAP
60
60
60
60
60
60
60
60
60
60
38
ENDCHAR
STARTCHAR m
ENCODING 109
SWIDTH 900 0
DWIDTH 15 0
BBX 15 8 0 0
BITMAP
6EF0
7388
610C
610C
610C
610C
610C
610C
ENDCHAR
STARTCHAR n
ENCODING 110
SWIDTH 600 0
DWIDTH 10 0
BBX 10 8 0 0
BITMAP
6E00
7300
6100
6100
6100
6100
6100
6100
ENDCHAR
STARTCHAR o
ENCODING 111
SWIDTH 600 0
DWIDTH 10 0
BBX 10 8 0 0
BITMAP
1E00
2300
6180
4180
4180
6180
2300
1E00
ENDCHAR
STARTCHAR p
ENCODING 112
SWIDTH 600 0
DWIDTH 10 0
BBX 10 11 0 -3
BITMAP
7E00
6300
6180
6180
6180
6180
6300
7E00
6000
6000
6000
ENDCHAR
STARTCHAR q
ENCODING 113
SWIDTH 600 0
DWIDTH 10 0
BBX 10 11 0 -3
BITMAP
1D00
2300
6100
4100
4100
6100
2300
1D00
0100
0100
0100
ENDCHAR
STARTCHAR r
ENCODING 114
SWIDTH 360 0
DWIDTH 6 0
BBX 7 8 0 0
BITMAP
7C
60
60
60
60
60
60
60
ENDCHAR
STARTCHAR s
ENCODING 115
SWIDTH 480 0
DWIDTH 8 0
BBX 8 8 0 0
BITMAP
3C
64
60
78
1E
06
46
7C
ENDCHAR
STARTCHAR t
ENCODING 116
SWIDTH 420 0
DWIDTH 7 0
BBX 7 10 0 0
BITMAP
20
20
FC
20
20
20
20
20
20
1C
ENDCHAR
STARTCHAR u
ENCODING 117
SWIDTH 600 0
DWIDTH 10 0
BBX 10 8 0 0
BITMAP
6100
6100
6100
6100
6100
6100
2300
1D00
ENDCHAR
STARTCHAR v
ENCODING 118
SWIDTH 540 0
DWIDTH 9 0
BBX 9 8 0 0
BITMAP
C100
6300
6200
2600
3600
1400
1C00
1800
ENDCHAR
STARTCHAR w
ENCODING 119
SWIDTH 840 0
DWIDTH 14 0
BBX 14 8 0 0
BITMAP
4308
6318
6798
2590
34B0
3CF0
1860
1860
ENDCHAR
STARTCHAR x
ENCODING 120
SWIDTH 480 0
DWIDTH 8 0
BBX 9 8 0 0
BITMAP
6600
2600
3C00
1800
1C00
3400
6600
C300
ENDCHAR
STARTCHAR y
ENCODING 121
SWIDTH 540 0
DWIDTH 9 0
BBX 9 11 0 -3
BITMAP
C100
4300
6200
2600
3600
3400
1C00
1800
0800
1800
3000
ENDCHAR
STARTCHAR z
ENCODING 122
SWIDTH 480 0
DWIDTH 8 0
BBX 8 8 0 0
BITMAP
7E
0C
0C
18
38
30
60
7E
ENDCHAR
STARTCHAR {
ENCODING 123
SWIDTH 360 0
DWIDTH 6 0
BBX 6 14 0 -2
BITMAP
18
30
30
30
30
20
40
20
30
30
30
30
30
18
ENDCHAR
STARTCHAR |
ENCODING 124
SWIDTH 240 0
DWIDTH 4 0
BBX 4 16 0 -4
BITMAP
60
60
60
60
60
60
60
60
60
60
60
60
60
60
60
60
ENDCHAR
STARTCHAR }
ENCODING 125
SWIDTH 360 0
DWIDTH 6 0
BBX 6 14 0 -2
BITMAP
60
30
30
30
30
30
18
10
30
30
30
30
20
60
ENDCHAR
STARTCHAR ~
ENCODING 126
SWIDTH 540 0
DWIDTH 9 0
BBX 9 7 0 0
BITMAP
3300
4E00
0000
0000
0000
0000
0000
ENDCHAR
STARTCHAR U+00A0
ENCODING 160
SWIDTH 240 0
DWIDTH 4 0
BBX 4 19 0 -4
BITMAP
00
00
00
00
00
00
00
00
00
00
00
00
00
00
00
00
00
00
00
ENDCHAR
STARTCHAR U+00A1
ENCODING 161
SWIDTH 300 0
DWIDTH 5 0
BBX 5 11 0 -3
BITMAP
20
20
00
20
20
20
20
60
60
60
60
ENDCHAR
STARTCHAR U+00A2
ENCODING 162
SWIDTH 480 0
DWIDTH 8 0
BBX 8 10 0 -1
BITMAP
0C
1E
22
60
40
40
60
32
1E
0C
ENDCHAR
STARTCHAR U+00A3
ENCODING 163
SWIDTH 540 0
DWIDTH 9 0
BBX 9 11 0 0
BITMAP
0E00
1200
3000
3000
3000
7C00
3000
3000
2000
6000
7F00
ENDCHAR
STARTCHAR U+00A4
ENCODING 164
SWIDTH 600 0
DWIDTH 10 0
BBX 10 8 0 0
BITMAP
6100
7F80
3300
2100
2100
3300
7F80
6100
ENDCHAR
STARTCHAR U+00A5
ENCODING 165
SWIDTH 600 0
DWIDTH 10 0
BBX 10 11 0 0
BITMAP
6180
6180
3300
1200
7F80
0C00
7F80
0C00
0C00
0C00
0C00
ENDCHAR
STARTCHAR U+00A6
ENCODING 166
SWIDTH 240 0
DWIDTH 4 0
BBX 4 16 0 -4
BITMAP
60
60
60
60
60
60
00
00
00
00
60
60
60
60
60
60
ENDCHAR
STARTCHAR U+00A7
ENCODING 167
SWIDTH 480 0
DWIDTH 8 0
BBX 8 14 0 -3
BITMAP
3C
64
40
60
38
6E
C6
C6
7E
1C
06
06
46
3C
ENDCHAR
STARTCHAR U+00A8
ENCODING 168
SWIDTH 420 0
DWIDTH 7 0
BBX 8 11 0 0
BITMAP
FE
82
82
82
82
82
82
82
82
82
FE
ENDCHAR
STARTCHAR U+00A9
ENCODING 169
SWIDTH 780 0
DWIDTH 13 0
BBX 13 11 0 0
BITMAP
0F80
1040
2720
5890
5010
5010
4810
4790
2020
1040
0F80
ENDCHAR
STARTCHAR U+00AA
ENCODING 170
SWIDTH 300 0
DWIDTH 5 0
BBX 5 11 0 0
BITMAP
70
10
70
D0
70
00
00
00
00
00
00
ENDCHAR
STARTCHAR U+00AB
ENCODING 171
SWIDTH 540 0
DWIDTH 9 0
BBX 9 8 0 0
BITMAP
1B00
3600
2400
4800
6C00
3600
1B00
0000
ENDCHAR
STARTCHAR U+00AC
ENCODING 172
SWIDTH 540 0
DWIDTH 9 0
BBX 9 8 0 0
BITMAP
7E00
0200
0200
0200
0000
0000
0000
0000
ENDCHAR
STARTCHAR U+00AD
ENCODING 173
SWIDTH 360 0
DWIDTH 6 0
BBX 6 5 0 0
BITMAP
7C
00
00
00
00
ENDCHAR
STARTCHAR U+00AE
ENCODING 174
SWIDTH 780 0
DWIDTH 13 0
BBX 13 11 0 0
BITMAP
0F80
1040
2F20
4D90
4D90
4F10
4F10
4D10
2CA0
1040
0F80
ENDCHAR
STARTCHAR U+00AF
ENCODING 175
SWIDTH 420 0
DWIDTH 7 0
BBX 8 11 0 0
BITMAP
FE
82
82
82
82
82
82
82
82
82
FE
ENDCHAR
STARTCHAR U+00B0
ENCODING 176
SWIDTH 360 0
DWIDTH 6 0
BBX 6 11 0 0
BITMAP
38
48
48
48
38
00
00
00
00
00
00
ENDCHAR
STARTCHAR U+00B1
ENCODING 177
SWIDTH 540 0
DWIDTH 9 0
BBX 9 9 0 0
BITMAP
0800
0800
7E00
0800
0800
0000
0000
0000
7E00
ENDCHAR
STARTCHAR U+00B2
ENCODING 178
SWIDTH 300 0
DWIDTH 5 0
BBX 5 11 0 0
BITMAP
70
58
18
10
30
20
78
00
00
00
00
ENDCHAR
STARTCHAR U+00B3
ENCODING 179
SWIDTH 300 0
DWIDTH 5 0
BBX 5 11 0 0
BITMAP
78
10
20
18
08
98
70
00
00
00
00
ENDCHAR
STARTCHAR U+00B4
ENCODING 180
SWIDTH 420 0
DWIDTH 7 0
BBX 8 11 0 0
BITMAP
FE
82
82
82
82
82
82
82
82
82
FE
ENDCHAR
STARTCHAR U+00B5
ENCODING 181
SWIDTH 540 0
DWIDTH 9 0
BBX 9 11 0 -3
BITMAP
6100
6100
6100
6100
6100
6100
6300
7D00
6000
6000
6000
ENDCHAR
STARTCHAR U+00B6
ENCODING 182
SWIDTH 540 0
DWIDTH 9 0
BBX 9 14 0 -3
BITMAP
3F00
7B00
7B00
7B00
7B00
3B00
0B00
0B00
0B00
0B00
0B00
0B00
0B00
0B00
ENDCHAR
STARTCHAR U+00B7
ENCODING 183
SWIDTH 240 0
DWIDTH 4 0
BBX 4 7 0 0
BITMAP
60
60
00
00
00
00
00
ENDCHAR
STARTCHAR U+00B8
ENCODING 184
SWIDTH 420 0
DWIDTH 7 0
BBX 8 11 0 0
BITMAP
FE
82
82
82
82
82
82
82
82
82
FE
ENDCHAR
STARTCHAR U+00B9
ENCODING 185
SWIDTH 240 0
DWIDTH 4 0
BBX 4 11 0 0
BITMAP
20
60
60
60
60
60
60
00
00
00
00
ENDCHAR
STARTCHAR U+00BA
ENCODING 186
SWIDTH 360 0
DWIDTH 6 0
BBX 6 11 0 0
BITMAP
38
48
CC
48
38
00
00
00
00
00
00
ENDCHAR
STARTCHAR U+00BB
ENCODING 187
SWIDTH 540 0
DWIDTH 9 0
BBX 9 8 0 0
BITMAP
6C00
2600
1300
1900
1300
2600
6C00
0000
ENDCHAR
STARTCHAR U+00BC
ENCODING 188
SWIDTH 780 0
DWIDTH 13 0
BBX 13 11 0 0
BITMAP
2080
6180
6100
6300
6200
6620
6460
0CE0
08A0
19F0
1020
ENDCHAR
STARTCHAR U+00BD
ENCODING 189
SWIDTH 780 0
DWIDTH 13 0
BBX 13 11 0 0
BITMAP
2080
6180
6100
6300
6270
6698
6418
0C10
0830
1820
1078
ENDCHAR
STARTCHAR U+00BE
ENCODING 190
SWIDTH 840 0
DWIDTH 14 0
BBX 14 11 0 0
BITMAP
7840
10C0
2080
1980
0900
9B10
7230
0670
0450
0CF8
0810
ENDCHAR
STARTCHAR U+00BF
ENCODING 191
SWIDTH 420 0
DWIDTH 7 0
BBX 8 11 0 -3
BITMAP
08
18
00
08
08
18
30
60
40
66
3C
ENDCHAR
STARTCHAR U+00C0
ENCODING 192
SWIDTH 660 0
DWIDTH 11 0
BBX 11 14 0 0
BITMAP
0800
0400
0000
0C00
0E00
0E00
1A00
1B00
3100
3180
3F80
6080
60C0
4040
ENDCHAR
STARTCHAR U+00C1
ENCODING 193
SWIDTH 660 0
DWIDTH 11 0
BBX 11 14 0 0
BITMAP
0600
0400
0000
0C00
0E00
0E00
1A00
1B00
3100
3180
3F80
6080
60C0
4040
ENDCHAR
STARTCHAR U+00C2
ENCODING 194
SWIDTH 660 0
DWIDTH 11 0
BBX 11 14 0 0
BITMAP
0C00
1200
0000
0C00
0E00
0E00
1A00
1B00
3100
3180
3F80
6080
60C0
4040
ENDCHAR
STARTCHAR U+00C3
ENCODING 195
SWIDTH 660 0
DWIDTH 11 0
BBX 11 14 0 0
BITMAP
1A00
0600
0000
0C00
0E00
0E00
1A00
1B00
3100
3180
3F80
6080
60C0
4040
ENDCHAR
STARTCHAR U+00C4
ENCODING 196
SWIDTH 660 0
DWIDTH 11 0
BBX 11 14 0 0
BITMAP
0900
0900
0000
0C00
0E00
0E00
1A00
1B00
3100
3180
3F80
6080
60C0
4040
ENDCHAR
STARTCHAR U+00C5
ENCODING 197
SWIDTH 660 0
DWIDTH 11 0
BBX 11 15 0 0
BITMAP
0C00
1200
0C00
0000
0C00
0E00
0E00
1A00
1B00
3100
3180
3F80
6080
60C0
4040
ENDCHAR
STARTCHAR U+00C6
ENCODING 198
SWIDTH 900 0
DWIDTH 15 0
BBX 15 11 0 0
BITMAP
03FC
0380
0780
0D80
0D80
19F8
1980
3F80
3180
6180
C1FC
ENDCHAR
STARTCHAR U+00C7
ENCODING 199
SWIDTH 660 0
DWIDTH 11 0
BBX 11 14 0 -3
BITMAP
0F80
1840
3000
6000
6000
6000
6000
6000
3000
1840
0F80
0400
0700
0E00
ENDCHAR
STARTCHAR U+00C8
ENCODING 200
SWIDTH 540 0
DWIDTH 9 0
BBX 9 14 0 0
BITMAP
0800
0400
0000
3F00
2000
2000
2000
2000
3E00
2000
2000
2000
2000
3F80
ENDCHAR
STARTCHAR U+00C9
ENCODING 201
SWIDTH 540 0
DWIDTH 9 0
BBX 9 14 0 0
BITMAP
0600
0400
0000
3F00
2000
2000
2000
2000
3E00
2000
2000
2000
2000
3F80
ENDCHAR
STARTCHAR U+00CA
ENCODING 202
SWIDTH 540 0
DWIDTH 9 0
BBX 9 14 0 0
BITMAP
0C00
1200
0000
3F00
2000
2000
2000
2000
3E00
2000
2000
2000
2000
3F80
ENDCHAR
STARTCHAR U+00CB
ENCODING 203
SWIDTH 540 0
DWIDTH 9 0
BBX 9 14 0 0
BITMAP
1200
1200
0000
3F00
2000
2000
2000
2000
3E00
2000
2000
2000
2000
3F80
ENDCHAR
STARTCHAR U+00CC
ENCODING 204
SWIDTH 300 0
DWIDTH 5 0
BBX 5 14 0 0
BITMAP
40
20
00
20
20
20
20
20
20
20
20
20
20
20
ENDCHAR
STARTCHAR U+00CD
ENCODING 205
SWIDTH 300 0
DWIDTH 5 0
BBX 5 14 0 0
BITMAP
30
20
00
20
20
20
20
20
20
20
20
20
20
20
ENDCHAR
STARTCHAR U+00CE
ENCODING 206
SWIDTH 300 0
DWIDTH 5 0
BBX 5 14 0 0
BITMAP
00
00
00
00
00
00
00
00
00
00
00
00
00
00
ENDCHAR
STARTCHAR U+00CF
ENCODING 207
SWIDTH 300 0
DWIDTH 5 0
BBX 6 14 -1 0
BITMAP
48
48
00
10
10
10
10
10
10
10
10
10
10
10
ENDCHAR
STARTCHAR U+00D0
ENCODING 208
SWIDTH 720 0
DWIDTH 12 0
BBX 12 11 0 0
BITMAP
3E00
2180
20C0
2040
2060
FC60
2060
2040
20C0
2180
3E00
ENDCHAR
STARTCHAR U+00D1
ENCODING 209
SWIDTH 720 0
DWIDTH 12 0
BBX 12 14 0 0
BITMAP
0D00
0300
0000
2060
3060
3860
2C60
2C60
2660
2360
21E0
20E0
20E0
2060
ENDCHAR
STARTCHAR U+00D2
ENCODING 210
SWIDTH 780 0
DWIDTH 13 0
BBX 13 14 0 0
BITMAP
0400
0200
0000
0F80
1840
3020
6030
6030
6010
6030
6030
3020
1840
0F80
ENDCHAR
STARTCHAR U+00D3
ENCODING 211
SWIDTH 780 0
DWIDTH 13 0
BBX 13 14 0 0
BITMAP
0300
0200
0000
0F80
1840
3020
6030
6030
6010
6030
6030
3020
1840
0F80
ENDCHAR
STARTCHAR U+00D4
ENCODING 212
SWIDTH 780 0
DWIDTH 13 0
BBX 13 14 0 0
BITMAP
0600
0900
0000
0F80
1840
3020
6030
6030
6010
6030
6030
3020
1840
0F80
ENDCHAR
STARTCHAR U+00D5
ENCODING 213
SWIDTH 780 0
DWIDTH 13 0
BBX 13 14 0 0
BITMAP
0D00
0300
0000
0F80
1840
3020
6030
6030
6010
6030
6030
3020
1840
0F80
ENDCHAR
STARTCHAR U+00D6
ENCODING 214
SWIDTH 780 0
DWIDTH 13 0
BBX 13 14 0 0
BITMAP
0480
0480
0000
0F80
1840
3020
6030
6030
6010
6030
6030
3020
1840
0F80
ENDCHAR
STARTCHAR U+00D7
ENCODING 215
SWIDTH 540 0
DWIDTH 9 0
BBX 9 8 0 0
BITMAP
2200
3600
1C00
1C00
3600
2200
0000
0000
ENDCHAR
STARTCHAR U+00D8
ENCODING 216
SWIDTH 780 0
DWIDTH 13 0
BBX 13 11 0 0
BITMAP
0F90
1860
30E0
60B0
6110
6210
6430
6C30
3820
38C0
4F80
ENDCHAR
STARTCHAR U+00D9
ENCODING 217
SWIDTH 720 0
DWIDTH 12 0
BBX 12 14 0 0
BITMAP
0400
0200
0000
6060
6060
6060
6060
6060
6060
6060
2060
3040
10C0
0F00
ENDCHAR
STARTCHAR U+00DA
ENCODING 218
SWIDTH 720 0
DWIDTH 12 0
BBX 12 14 0 0
BITMAP
0300
0200
0000
6060
6060
6060
6060
6060
6060
6060
2060
3040
10C0
0F00
ENDCHAR
STARTCHAR U+00DB
ENCODING 219
SWIDTH 720 0
DWIDTH 12 0
BBX 12 14 0 0
BITMAP
0600
0900
0000
6060
6060
6060
6060
6060
6060
6060
2060
3040
10C0
0F00
ENDCHAR
STARTCHAR U+00DC
ENCODING 220
SWIDTH 720 0
DWIDTH 12 0
BBX 12 14 0 0
BITMAP
0900
0900
0000
6060
6060
6060
6060
6060
6060
6060
2060
3040
10C0
0F00
ENDCHAR
STARTCHAR U+00DD
ENCODING 221
SWIDTH 600 0
DWIDTH 10 0
BBX 10 14 0 0
BITMAP
0600
0400
0000
4180
6100
2300
3200
1600
0C00
0C00
0C00
0C00
0C00
0C00
ENDCHAR
STARTCHAR U+00DE
ENCODING 222
SWIDTH 540 0
DWIDTH 9 0
BBX 9 11 0 0
BITMAP
2000
2000
3E00
2300
2180
2180
2300
3E00
2000
2000
2000
ENDCHAR
STARTCHAR U+00DF
ENCODING 223
SWIDTH 540 0
DWIDTH 9 0
BBX 9 11 0 0
BITMAP
1C00
2200
6300
6300
6200
6C00
6300
6100
6100
6300
6E00
ENDCHAR
STARTCHAR U+00E0
ENCODING 224
SWIDTH 480 0
DWIDTH 8 0
BBX 8 11 0 0
BITMAP
10
08
00
3C
46
02
1E
62
42
46
3A
ENDCHAR
STARTCHAR U+00E1
ENCODING 225
SWIDTH 480 0
DWIDTH 8 0
BBX 8 11 0 0
BITMAP
0C
08
00
3C
46
02
1E
62
42
46
3A
ENDCHAR
STARTCHAR U+00E2
ENCODING 226
SWIDTH 480 0
DWIDTH 8 0
BBX 8 11 0 0
BITMAP
18
24
00
3C
46
02
1E
62
42
46
3A
ENDCHAR
STARTCHAR U+00E3
ENCODING 227
SWIDTH 480 0
DWIDTH 8 0
BBX 8 11 0 0
BITMAP
34
0C
00
3C
46
02
1E
62
42
46
3A
ENDCHAR
STARTCHAR U+00E4
ENCODING 228
SWIDTH 480 0
DWIDTH 8 0
BBX 8 11 0 0
BITMAP
24
24
00
3C
46
02
1E
62
42
46
3A
ENDCHAR
STARTCHAR U+00E5
ENCODING 229
SWIDTH 480 0
DWIDTH 8 0
BBX 8 12 0 0
BITMAP
18
24
18
00
3C
46
02
1E
62
42
46
3A
ENDCHAR
STARTCHAR U+00E6
ENCODING 230
SWIDTH 780 0
DWIDTH 13 0
BBX 13 8 0 0
BITMAP
3DE0
4730
0610
1FF8
6600
4200
6710
3DE0
ENDCHAR
STARTCHAR U+00E7
ENCODING 231
SWIDTH 480 0
DWIDTH 8 0
BBX 8 11 0 -3
BITMAP
1E
22
60
40
40
60
32
1E
08
0E
1C
ENDCHAR
STARTCHAR U+00E8
ENCODING 232
SWIDTH 540 0
DWIDTH 9 0
BBX 9 11 0 0
BITMAP
1000
0800
0000
1E00
2300
6300
7F00
4000
6000
2100
1F00
ENDCHAR
STARTCHAR U+00E9
ENCODING 233
SWIDTH 540 0
DWIDTH 9 0
BBX 9 11 0 0
BITMAP
0C00
0800
0000
1E00
2300
6300
7F00
4000
6000
2100
1F00
ENDCHAR
STARTCHAR U+00EA
ENCODING 234
SWIDTH 540 0
DWIDTH 9 0
BBX 9 11 0 0
BITMAP
1800
2400
0000
1E00
2300
6300
7F00
4000
6000
2100
1F00
ENDCHAR
STARTCHAR U+00EB
ENCODING 235
SWIDTH 540 0
DWIDTH 9 0
BBX 9 11 0 0
BITMAP
1200
1200
0000
1E00
2300
6300
7F00
4000
6000
2100
1F00
ENDCHAR
STARTCHAR U+00EC
ENCODING 236
SWIDTH 240 0
DWIDTH 4 0
BBX 5 11 -1 0
BITMAP
00
00
00
00
00
00
00
00
00
00
00
ENDCHAR
STARTCHAR U+00ED
ENCODING 237
SWIDTH 240 0
DWIDTH 4 0
BBX 5 11 0 0
BITMAP
30
20
00
60
60
60
60
60
60
60
60
ENDCHAR
STARTCHAR U+00EE
ENCODING 238
SWIDTH 240 0
DWIDTH 4 0
BBX 6 11 -1 0
BITMAP
60
90
00
60
60
60
60
60
60
60
60
ENDCHAR
STARTCHAR U+00EF
ENCODING 239
SWIDTH 240 0
DWIDTH 4 0
BBX 6 11 -1 0
BITMAP
48
48
00
30
30
30
30
30
30
30
30
ENDCHAR
STARTCHAR U+00F0
ENCODING 240
SWIDTH 540 0
DWIDTH 9 0
BBX 9 11 0 0
BITMAP
1600
1C00
3600
0600
3F00
6300
4300
4100
4300
6200
3C00
ENDCHAR
STARTCHAR U+00F1
ENCODING 241
SWIDTH 600 0
DWIDTH 10 0
BBX 10 11 0 0
BITMAP
1A00
0600
0000
6E00
7300
6100
6100
6100
6100
6100
6100
ENDCHAR
STARTCHAR U+00F2
ENCODING 242
SWIDTH 600 0
DWIDTH 10 0
BBX 10 11 0 0
BITMAP
0800
0400
0000
1E00
2300
6180
4180
4180
6180
2300
1E00
ENDCHAR
STARTCHAR U+00F3
ENCODING 243
SWIDTH 600 0
DWIDTH 10 0
BBX 10 11 0 0
BITMAP
0600
0400
0000
1E00
2300
6180
4180
4180
6180
2300
1E00
ENDCHAR
STARTCHAR U+00F4
ENCODING 244
SWIDTH 600 0
DWIDTH 10 0
BBX 10 11 0 0
BITMAP
0C00
1200
0000
1E00
2300
6180
4180
4180
6180
2300
1E00
ENDCHAR
STARTCHAR U+00F5
ENCODING 245
SWIDTH 600 0
DWIDTH 10 0
BBX 10 11 0 0
BITMAP
1A00
0600
0000
1E00
2300
6180
4180
4180
6180
2300
1E00
ENDCHAR
STARTCHAR U+00F6
ENCODING 246
SWIDTH 600 0
DWIDTH 10 0
BBX 10 11 0 0
BITMAP
1200
1200
0000
1E00
2300
6180
4180
4180
6180
2300
1E00
ENDCHAR
STARTCHAR U+00F7
ENCODING 247
SWIDTH 540 0
DWIDTH 9 0
BBX 9 10 0 0
BITMAP
1800
1800
0000
0000
7E00
0000
1800
1800
0000
0000
ENDCHAR
STARTCHAR U+00F8
ENCODING 248
SWIDTH 600 0
DWIDTH 10 0
BBX 10 8 0 0
BITMAP
1F00
2300
6580
4580
4980
7180
3300
7E00
ENDCHAR
STARTCHAR U+00F9
ENCODING 249
SWIDTH 600 0
DWIDTH 10 0
BBX 10 11 0 0
BITMAP
0800
0400
0000
6100
6100
6100
6100
6100
6100
2300
1D00
ENDCHAR
STARTCHAR U+00FA
ENCODING 250
SWIDTH 600 0
DWIDTH 10 0
BBX 10 11 0 0
BITMAP
0C00
0800
0000
6100
6100
6100
6100
6100
6100
2300
1D00
ENDCHAR
STARTCHAR U+00FB
ENCODING 251
SWIDTH 600 0
DWIDTH 10 0
BBX 10 11 0 0
BITMAP
0C00
1200
0000
6100
6100
6100
6100
6100
6100
2300
1D00
ENDCHAR
STARTCHAR U+00FC
ENCODING 252
SWIDTH 600 0
DWIDTH 10 0
BBX 10 11 0 0
BITMAP
1200
1200
0000
6100
6100
6100
6100
6100
6100
2300
1D00
ENDCHAR
STARTCHAR U+00FD
ENCODING 253
SWIDTH 540 0
DWIDTH 9 0
BBX 9 14 0 -3
BITMAP
0C00
0800
0000
C100
4300
6200
2600
3600
3400
1C00
1800
0800
1800
3000
ENDCHAR
STARTCHAR U+00FE
ENCODING 254
SWIDTH 600 0
DWIDTH 10 0
BBX 10 14 0 -3
BITMAP
6000
6000
6000
6E00
7300
6180
6180
6180
6180
6300
7E00
6000
6000
6000
ENDCHAR
STARTCHAR U+00FF
ENCODING 255
SWIDTH 540 0
DWIDTH 9 0
BBX 9 14 0 -3
BITMAP
2400
2400
0000
C100
4300
6200
2600
3600
3400
1C00
1800
0800
1800
3000
ENDCHAR
STARTCHAR U+2013
ENCODING 8211
SWIDTH 480 0
DWIDTH 8 0
BBX 10 5 -1 0
BITMAP
FF00
0000
0000
0000
0000
ENDCHAR
STARTCHAR U+2014
ENCODING 8212
SWIDTH 960 0
DWIDTH 16 0
BBX 18 5 -1 0
BITMAP
FFFF00
000000
000000
000000
000000
ENDCHAR
STARTCHAR U+2018
ENCODING 8216
SWIDTH 240 0
DWIDTH 4 0
BBX 4 11 0 0
BITMAP
20
40
60
00
00
00
00
00
00
00
00
ENDCHAR
STARTCHAR U+2019
ENCODING 8217
SWIDTH 240 0
DWIDTH 4 0
BBX 4 11 0 0
BITMAP
40
60
20
40
00
00
00
00
00
00
00
ENDCHAR
STARTCHAR U+201C
ENCODING 8220
SWIDTH 420 0
DWIDTH 7 0
BBX 7 11 0 0
BITMAP
28
48
6C
08
00
00
00
00
00
00
00
ENDCHAR
STARTCHAR U+201D
ENCODING 8221
SWIDTH 420 0
DWIDTH 7 0
BBX 7 11 0 0
BITMAP
48
6C
24
48
00
00
00
00
00
00
00
ENDCHAR
STARTCHAR U+2022
ENCODING 8226
SWIDTH 420 0
DWIDTH 7 0
BBX 7 7 0 0
BITMAP
10
38
38
10
00
00
00
ENDCHAR
STARTCHAR U+2026
ENCODING 8230
SWIDTH 900 0
DWIDTH 15 0
BBX 15 2 0 0
BITMAP
630C
4208
ENDCHAR
STARTCHAR U+20AC
ENCODING 8364
SWIDTH 600 0
DWIDTH 10 0
BBX 10 11 0 0
BITMAP
0F00
1880
3000
2000
FE00
6000
FE00
2000
3000
1880
0F00
ENDCHAR
ENDFONT
