STARTFONT 2.1
COMMENT Converted from Johnston100 W03 Regular.ttf at 21px with ttf2bdf.py (Pillow, 1-bit, no AA)
FONT -Misc-Johnston100-Medium-R-Normal--21-210-75-75-P-230-ISO10646-1
SIZE 21 75 75
FONTBOUNDINGBOX 23 25 -1 -6
STARTPROPERTIES 9
FOUNDRY "Misc"
FAMILY_NAME "Johnston100"
WEIGHT_NAME "Medium"
SLANT "R"
PIXEL_SIZE 21
RESOLUTION_X 75
RESOLUTION_Y 75
FONT_ASCENT 19
FONT_DESCENT 6
ENDPROPERTIES
CHARS 200
STARTCHAR space
ENCODING 32
SWIDTH 229 0
DWIDTH 5 0
BBX 5 25 0 -6
BITMAP
00
00
00
00
00
00
00
00
00
00
00
00
00
00
00
00
00
00
00
00
00
00
00
00
00
ENDCHAR
STARTCHAR !
ENCODING 33
SWIDTH 274 0
DWIDTH 6 0
BBX 6 14 0 0
BITMAP
30
30
30
30
30
30
30
30
30
30
30
00
30
10
ENDCHAR
STARTCHAR "
ENCODING 34
SWIDTH 411 0
DWIDTH 9 0
BBX 9 14 0 0
BITMAP
6600
6600
6600
2600
2200
0000
0000
0000
0000
0000
0000
0000
0000
0000
ENDCHAR
STARTCHAR U+0023
ENCODING 35
SWIDTH 731 0
DWIDTH 16 0
BBX 16 14 0 0
BITMAP
0108
0318
0318
0210
3FFE
3FFE
0620
0C60
7FFC
7FFC
0840
18C0
18C0
1080
ENDCHAR
STARTCHAR $
ENCODING 36
SWIDTH 503 0
DWIDTH 11 0
BBX 11 18 0 -2
BITMAP
0C00
0C00
3F00
3300
6000
7000
3800
3E00
0F00
0380
01C0
00C0
61C0
6180
3F80
1E00
0C00
0000
ENDCHAR
STARTCHAR %
ENCODING 37
SWIDTH 731 0
DWIDTH 16 0
BBX 16 14 0 0
BITMAP
3C30
7E30
6660
6660
7EC0
3CC0
0180
0100
0338
027C
0646
0446
0C7C
0838
ENDCHAR
STARTCHAR &
ENCODING 38
SWIDTH 640 0
DWIDTH 14 0
BBX 15 14 0 0
BITMAP
0F00
1F80
19C0
38C0
19C0
1F80
0E00
3F18
73B0
61F0
60E0
71F0
3FB8
1F1C
ENDCHAR
STARTCHAR '
ENCODING 39
SWIDTH 229 0
DWIDTH 5 0
BBX 5 14 0 0
BITMAP
60
60
60
20
20
00
00
00
00
00
00
00
00
00
ENDCHAR
STARTCHAR (
ENCODING 40
SWIDTH 274 0
DWIDTH 6 0
BBX 6 17 0 -1
BITMAP
18
30
30
30
20
60
60
60
60
60
60
60
20
30
30
30
18
ENDCHAR
STARTCHAR )
ENCODING 41
SWIDTH 274 0
DWIDTH 6 0
BBX 6 17 0 -1
BITMAP
60
60
20
30
30
30
30
30
30
30
30
30
30
30
20
60
60
ENDCHAR
STARTCHAR *
ENCODING 42
SWIDTH 411 0
DWIDTH 9 0
BBX 9 14 0 0
BITMAP
1800
4B00
3E00
1C00
2C00
4B00
1800
0000
0000
0000
0000
0000
0000
0000
ENDCHAR
STARTCHAR +
ENCODING 43
SWIDTH 503 0
DWIDTH 11 0
BBX 11 11 0 0
BITMAP
0600
0600
0600
7FC0
7FC0
0600
0600
0600
0000
0000
0000
ENDCHAR
STARTCHAR ,
ENCODING 44
SWIDTH 229 0
DWIDTH 5 0
BBX 5 6 0 -3
BITMAP
20
70
30
20
20
00
ENDCHAR
STARTCHAR -
ENCODING 45
SWIDTH 366 0
DWIDTH 8 0
BBX 8 7 0 0
BITMAP
7E
7E
00
00
00
00
00
ENDCHAR
STARTCHAR .
ENCODING 46
SWIDTH 229 0
DWIDTH 5 0
BBX 5 3 0 0
BITMAP
20
70
20
ENDCHAR
STARTCHAR /
ENCODING 47
SWIDTH 320 0
DWIDTH 7 0
BBX 7 17 0 -1
BITMAP
06
0C
0C
0C
08
18
18
18
30
30
30
20
60
60
60
C0
C0
ENDCHAR
STARTCHAR 0
ENCODING 48
SWIDTH 549 0
DWIDTH 12 0
BBX 12 14 0 0
BITMAP
0780
1FC0
18C0
3860
3060
3060
3060
3060
3060
3060
3860
18C0
1FC0
0780
ENDCHAR
STARTCHAR 1
ENCODING 49
SWIDTH 274 0
DWIDTH 6 0
BBX 6 14 0 0
BITMAP
10
30
30
30
30
30
30
30
30
30
30
30
30
30
ENDCHAR
STARTCHAR 2
ENCODING 50
SWIDTH 457 0
DWIDTH 10 0
BBX 10 14 0 0
BITMAP
1E00
3F80
2180
4180
0180
0180
0380
0300
0600
0E00
0C00
1800
3FC0
3FC0
ENDCHAR
STARTCHAR 3
ENCODING 51
SWIDTH 503 0
DWIDTH 11 0
BBX 11 14 0 0
BITMAP
7FC0
7F80
0300
0700
0600
0F00
0F80
01C0
00C0
00C0
00C0
61C0
7F80
1E00
ENDCHAR
STARTCHAR 4
ENCODING 52
SWIDTH 549 0
DWIDTH 12 0
BBX 12 14 0 0
BITMAP
0000
0080
0180
0380
0780
0780
0D80
1980
3180
7FE0
FFE0
0180
0180
0180
ENDCHAR
STARTCHAR 5
ENCODING 53
SWIDTH 503 0
DWIDTH 11 0
BBX 11 14 0 0
BITMAP
1FC0
1FC0
1800
1800
3000
3F00
3F80
21C0
00C0
00C0
40C0
61C0
7F80
1E00
ENDCHAR
STARTCHAR 6
ENCODING 54
SWIDTH 503 0
DWIDTH 11 0
BBX 11 14 0 0
BITMAP
0700
0E00
1C00
1800
3800
3700
7F80
71C0
60C0
60C0
60C0
71C0
3F80
1F00
ENDCHAR
STARTCHAR 7
ENCODING 55
SWIDTH 457 0
DWIDTH 10 0
BBX 10 14 0 0
BITMAP
7F80
7F80
0300
0300
0600
0600
0E00
0C00
1C00
1800
1800
3000
3000
6000
ENDCHAR
STARTCHAR 8
ENCODING 56
SWIDTH 503 0
DWIDTH 11 0
BBX 11 14 0 0
BITMAP
0F00
3F80
3180
3180
3180
1F80
0F00
3B80
71C0
60C0
60C0
71C0
3F80
1F00
ENDCHAR
STARTCHAR 9
ENCODING 57
SWIDTH 503 0
DWIDTH 11 0
BBX 11 14 0 0
BITMAP
1F00
3F80
71C0
60C0
60C0
70C0
3FC0
1FC0
01C0
0180
0380
0700
0E00
1C00
ENDCHAR
STARTCHAR :
ENCODING 58
SWIDTH 274 0
DWIDTH 6 0
BBX 6 11 0 0
BITMAP
20
70
20
00
00
00
00
00
20
70
20
ENDCHAR
STARTCHAR ;
ENCODING 59
SWIDTH 274 0
DWIDTH 6 0
BBX 6 14 0 -3
BITMAP
20
70
20
00
00
00
00
00
10
38
18
10
10
00
ENDCHAR
STARTCHAR U+003C
ENCODING 60
SWIDTH 503 0
DWIDTH 11 0
BBX 11 13 0 0
BITMAP
00C0
03C0
0F00
3E00
7800
7800
1F00
07C0
00C0
0000
0000
0000
0000
ENDCHAR
STARTCHAR =
ENCODING 61
SWIDTH 503 0
DWIDTH 11 0
BBX 11 10 0 0
BITMAP
7FC0
7FC0
0000
0000
7FC0
7FC0
0000
0000
0000
0000
ENDCHAR
STARTCHAR U+003E
ENCODING 62
SWIDTH 503 0
DWIDTH 11 0
BBX 11 13 0 0
BITMAP
6000
7800
1E00
0780
03C0
03C0
1F80
7C00
6000
0000
0000
0000
0000
ENDCHAR
STARTCHAR ?
ENCODING 63
SWIDTH 457 0
DWIDTH 10 0
BBX 10 14 0 0
BITMAP
3E00
7F00
4300
0300
0300
0F00
1C00
1800
1800
0800
0000
0800
1C00
0800
ENDCHAR
STARTCHAR @
ENCODING 64
SWIDTH 914 0
DWIDTH 20 0
BBX 20 18 0 -4
BITMAP
01FC00
07FF00
0F0380
1C00C0
38FC60
31FC60
238C60
630C60
630C60
620C60
630CC0
631FC0
33F780
30E000
180000
1E0400
07FC00
01F800
ENDCHAR
STARTCHAR A
ENCODING 65
SWIDTH 640 0
DWIDTH 14 0
BBX 14 14 0 0
BITMAP
0300
0780
0780
0780
0CC0
0CC0
1CE0
1860
1860
3FF0
3FF0
7038
6018
601C
ENDCHAR
STARTCHAR B
ENCODING 66
SWIDTH 594 0
DWIDTH 13 0
BBX 13 14 0 0
BITMAP
3F00
3F80
31C0
30C0
30C0
31C0
3F80
3FE0
3060
3070
3070
3060
3FE0
3F80
ENDCHAR
STARTCHAR C
ENCODING 67
SWIDTH 640 0
DWIDTH 14 0
BBX 14 14 0 0
BITMAP
03F0
0FF8
1C08
3800
3000
7000
6000
6000
7000
3000
3800
1C08
0FF8
03F0
ENDCHAR
STARTCHAR D
ENCODING 68
SWIDTH 686 0
DWIDTH 15 0
BBX 15 14 0 0
BITMAP
3F80
3FE0
3070
3038
301C
300C
300C
300C
300C
301C
3038
3070
3FE0
3F80
ENDCHAR
STARTCHAR E
ENCODING 69
SWIDTH 549 0
DWIDTH 12 0
BBX 12 14 0 0
BITMAP
3FE0
3FE0
3000
3000
3000
3F80
3F80
3000
3000
3000
3000
3000
3FE0
3FE0
ENDCHAR
STARTCHAR F
ENCODING 70
SWIDTH 503 0
DWIDTH 11 0
BBX 11 14 0 0
BITMAP
3FE0
3FE0
3000
3000
3000
3000
3F80
3F80
3000
3000
3000
3000
3000
3000
ENDCHAR
STARTCHAR G
ENCODING 71
SWIDTH 686 0
DWIDTH 15 0
BBX 15 14 0 0
BITMAP
03E0
0FF8
1C1C
3804
3000
7000
607C
607C
700C
300C
380C
1C1C
0FF8
03E0
ENDCHAR
STARTCHAR H
ENCODING 72
SWIDTH 686 0
DWIDTH 15 0
BBX 15 14 0 0
BITMAP
3018
3018
3018
3018
3018
3FF8
3FF8
3018
3018
3018
3018
3018
3018
3018
ENDCHAR
STARTCHAR I
ENCODING 73
SWIDTH 274 0
DWIDTH 6 0
BBX 6 14 0 0
BITMAP
30
30
30
30
30
30
30
30
30
30
30
30
30
30
ENDCHAR
STARTCHAR J
ENCODING 74
SWIDTH 457 0
DWIDTH 10 0
BBX 10 14 0 0
BITMAP
0300
0300
0300
0300
0300
0300
0300
0300
0300
0300
4300
6300
7E00
3C00
ENDCHAR
STARTCHAR K
ENCODING 75
SWIDTH 594 0
DWIDTH 13 0
BBX 14 14 0 0
BITMAP
3070
30E0
31C0
3380
3700
3E00
3C00
3E00
3700
3380
31C0
30E0
3070
3038
ENDCHAR
STARTCHAR L
ENCODING 76
SWIDTH 503 0
DWIDTH 11 0
BBX 11 14 0 0
BITMAP
3000
3000
3000
3000
3000
3000
3000
3000
3000
3000
3000
3000
3FE0
3FE0
ENDCHAR
STARTCHAR M
ENCODING 77
SWIDTH 823 0
DWIDTH 18 0
BBX 18 14 0 0
BITMAP
380300
380700
3C0F00
3E1F00
373B00
33F300
31E300
30C300
304300
300300
300300
300300
300300
300300
ENDCHAR
STARTCHAR N
ENCODING 78
SWIDTH 731 0
DWIDTH 16 0
BBX 16 14 0 0
BITMAP
300C
380C
3C0C
3E0C
370C
330C
338C
31CC
30EC
306C
303C
303C
301C
300C
ENDCHAR
STARTCHAR O
ENCODING 79
SWIDTH 777 0
DWIDTH 17 0
BBX 17 14 0 0
BITMAP
03E000
0FF800
1C1C00
380E00
300700
700300
600300
600300
700300
300700
380E00
1C1C00
0FF800
03E000
ENDCHAR
STARTCHAR P
ENCODING 80
SWIDTH 549 0
DWIDTH 12 0
BBX 12 14 0 0
BITMAP
3F80
3FC0
30E0
3060
3060
3060
30E0
3FC0
3F80
3000
3000
3000
3000
3000
ENDCHAR
STARTCHAR Q
ENCODING 81
SWIDTH 777 0
DWIDTH 17 0
BBX 17 14 0 0
BITMAP
03E000
0FF800
1C1C00
380E00
300700
700300
600300
600300
700300
303700
381E00
1C1C00
0FFE00
03E200
ENDCHAR
STARTCHAR R
ENCODING 82
SWIDTH 594 0
DWIDTH 13 0
BBX 13 14 0 0
BITMAP
3F00
3FC0
30C0
30E0
30E0
30C0
3FC0
3F00
3300
3180
31C0
30E0
3060
3030
ENDCHAR
STARTCHAR S
ENCODING 83
SWIDTH 503 0
DWIDTH 11 0
BBX 11 14 0 0
BITMAP
1E00
3F00
7100
6000
7000
3C00
1F00
0780
01C0
00C0
41C0
6180
3F80
1E00
ENDCHAR
STARTCHAR T
ENCODING 84
SWIDTH 549 0
DWIDTH 12 0
BBX 12 14 0 0
BITMAP
7FF0
7FF0
0600
0600
0600
0600
0600
0600
0600
0600
0600
0600
0600
0600
ENDCHAR
STARTCHAR U
ENCODING 85
SWIDTH 731 0
DWIDTH 16 0
BBX 16 14 0 0
BITMAP
300C
300C
300C
300C
300C
300C
300C
300C
300C
300C
381C
1C38
0FF0
03E0
ENDCHAR
STARTCHAR V
ENCODING 86
SWIDTH 594 0
DWIDTH 13 0
BBX 14 14 0 0
BITMAP
6018
6038
7030
3030
3060
1860
18E0
1CC0
0CC0
0DC0
0F80
0780
0700
0300
ENDCHAR
STARTCHAR W
ENCODING 87
SWIDTH 960 0
DWIDTH 21 0
BBX 21 14 0 0
BITMAP
607070
607060
307060
30F060
30D8C0
38D8C0
1998C0
198CC0
198D80
0F0D80
0F0F80
0F0700
070700
060700
ENDCHAR
STARTCHAR X
ENCODING 88
SWIDTH 640 0
DWIDTH 14 0
BBX 15 14 0 0
BITMAP
6038
3030
3860
1CE0
0FC0
0780
0300
0780
0FC0
0CE0
1860
3830
7038
601C
ENDCHAR
STARTCHAR Y
ENCODING 89
SWIDTH 594 0
DWIDTH 13 0
BBX 13 14 0 0
BITMAP
6030
7060
30E0
18C0
1D80
0F80
0700
0600
0600
0600
0600
0600
0600
0600
ENDCHAR
STARTCHAR Z
ENCODING 90
SWIDTH 594 0
DWIDTH 13 0
BBX 13 14 0 0
BITMAP
7FF0
7FF0
00E0
00C0
01C0
0380
0300
0600
0E00
0C00
1800
3800
3FF8
7FF8
ENDCHAR
STARTCHAR [
ENCODING 91
SWIDTH 320 0
DWIDTH 7 0
BBX 7 20 0 -4
BITMAP
3C
3C
30
30
30
30
30
30
30
30
30
30
30
30
30
30
30
30
3C
3C
ENDCHAR
STARTCHAR \
ENCODING 92
SWIDTH 320 0
DWIDTH 7 0
BBX 7 17 0 -1
BITMAP
C0
C0
60
60
60
20
30
30
30
18
18
18
08
0C
0C
04
06
ENDCHAR
STARTCHAR ]
ENCODING 93
SWIDTH 320 0
DWIDTH 7 0
BBX 7 20 0 -3
BITMAP
78
78
18
18
18
18
18
18
18
18
18
18
18
18
18
18
18
18
78
78
ENDCHAR
STARTCHAR ^
ENCODING 94
SWIDTH 549 0
DWIDTH 12 0
BBX 12 14 0 0
BITMAP
0600
0F00
1980
1980
30C0
6060
0000
0000
0000
0000
0000
0000
0000
0000
ENDCHAR
STARTCHAR _
ENCODING 95
SWIDTH 503 0
DWIDTH 11 0
BBX 12 3 -1 -3
BITMAP
0000
0000
FFE0
ENDCHAR
STARTCHAR `
ENCODING 96
SWIDTH 457 0
DWIDTH 10 0
BBX 10 14 0 0
BITMAP
FFC0
FFC0
C0C0
C0C0
C0C0
C0C0
C0C0
C0C0
C0C0
C0C0
C0C0
C0C0
FFC0
FFC0
ENDCHAR
STARTCHAR a
ENCODING 97
SWIDTH 503 0
DWIDTH 11 0
BBX 11 10 0 0
BITMAP
3F00
3F80
2180
0F80
3F80
7180
6180
6380
7F80
3D80
ENDCHAR
STARTCHAR b
ENCODING 98
SWIDTH 594 0
DWIDTH 13 0
BBX 13 14 0 0
BITMAP
3000
3000
3000
3000
3780
3FC0
38E0
3060
3030
3030
3060
38E0
3FC0
3780
ENDCHAR
STARTCHAR c
ENCODING 99
SWIDTH 503 0
DWIDTH 11 0
BBX 11 10 0 0
BITMAP
0F80
1FC0
3840
6000
6000
6000
6000
3840
1FC0
0F80
ENDCHAR
STARTCHAR d
ENCODING 100
SWIDTH 594 0
DWIDTH 13 0
BBX 13 14 0 0
BITMAP
0060
0060
0060
0060
0F60
3FE0
38E0
6060
6060
6060
6060
38E0
3FE0
0F60
ENDCHAR
STARTCHAR e
ENCODING 101
SWIDTH 549 0
DWIDTH 12 0
BBX 12 10 0 0
BITMAP
0F00
3F80
30C0
60C0
7FE0
7FE0
6000
3040
3FC0
0F80
ENDCHAR
STARTCHAR f
ENCODING 102
SWIDTH 366 0
DWIDTH 8 0
BBX 8 14 0 0
BITMAP
0F
1F
30
30
FF
FF
30
30
30
30
30
30
30
30
ENDCHAR
STARTCHAR g
ENCODING 103
SWIDTH 503 0
DWIDTH 11 0
BBX 11 14 0 -4
BITMAP
1FC0
3FC0
6180
6180
6180
3F80
3E00
3000
3E00
7F80
40C0
E0C0
7FC0
3F80
ENDCHAR
STARTCHAR h
ENCODING 104
SWIDTH 594 0
DWIDTH 13 0
BBX 13 14 0 0
BITMAP
3000
3000
3000
3000
3780
3FC0
38E0
3060
3060
3060
3060
3060
3060
3060
ENDCHAR
STARTCHAR i
ENCODING 105
SWIDTH 229 0
DWIDTH 5 0
BBX 5 14 0 0
BITMAP
20
70
20
00
30
30
30
30
30
30
30
30
30
30
ENDCHAR
STARTCHAR j
ENCODING 106
SWIDTH 229 0
DWIDTH 5 0
BBX 6 18 -1 -4
BITMAP
20
70
20
00
30
30
30
30
30
30
30
30
30
30
30
70
E0
C0
ENDCHAR
STARTCHAR k
ENCODING 107
SWIDTH 503 0
DWIDTH 11 0
BBX 12 14 0 0
BITMAP
3000
3000
3000
3000
31C0
3380
3700
3E00
3C00
3E00
3700
3380
31C0
30E0
ENDCHAR
STARTCHAR l
ENCODING 108
SWIDTH 320 0
DWIDTH 7 0
BBX 7 14 0 0
BITMAP
30
30
30
30
30
30
30
30
30
30
30
30
3C
1C
ENDCHAR
STARTCHAR m
ENCODING 109
SWIDTH 914 0
DWIDTH 20 0
BBX 20 10 0 0
BITMAP
379F00
3FFF80
38E1C0
3060C0
3060C0
3060C0
3060C0
3060C0
3060C0
3060C0
ENDCHAR
STARTCHAR n
ENCODING 110
SWIDTH 594 0
DWIDTH 13 0
BBX 13 10 0 0
BITMAP
3780
3FC0
38E0
3060
3060
3060
3060
3060
3060
3060
ENDCHAR
STARTCHAR o
ENCODING 111
SWIDTH 594 0
DWIDTH 13 0
BBX 13 10 0 0
BITMAP
0F80
3FC0
38E0
6070
6030
6030
6070
38E0
3FC0
0F80
ENDCHAR
STARTCHAR p
ENCODING 112
SWIDTH 594 0
DWIDTH 13 0
BBX 13 14 0 -4
BITMAP
3780
3FC0
38E0
3060
3030
3030
3060
38E0
3FC0
3F80
3000
3000
3000
3000
ENDCHAR
STARTCHAR q
ENCODING 113
SWIDTH 594 0
DWIDTH 13 0
BBX 13 14 0 -4
BITMAP
0F60
3FE0
38E0
6060
6060
6060
6060
38E0
3FE0
0F60
0060
0060
0060
0060
ENDCHAR
STARTCHAR r
ENCODING 114
SWIDTH 366 0
DWIDTH 8 0
BBX 9 10 0 0
BITMAP
3F00
3F00
3800
3000
3000
3000
3000
3000
3000
3000
ENDCHAR
STARTCHAR s
ENCODING 115
SWIDTH 457 0
DWIDTH 10 0
BBX 10 10 0 0
BITMAP
1E00
3F00
6100
6000
7C00
1F00
0380
4180
7F80
3F00
ENDCHAR
STARTCHAR t
ENCODING 116
SWIDTH 411 0
DWIDTH 9 0
BBX 9 12 0 0
BITMAP
3000
3000
FF00
FF00
3000
3000
3000
3000
3000
3000
3F00
1F00
ENDCHAR
STARTCHAR u
ENCODING 117
SWIDTH 594 0
DWIDTH 13 0
BBX 13 10 0 0
BITMAP
3060
3060
3060
3060
3060
3060
3060
38E0
3FE0
0F60
ENDCHAR
STARTCHAR v
ENCODING 118
SWIDTH 503 0
DWIDTH 11 0
BBX 12 10 0 0
BITMAP
6060
60C0
70C0
31C0
3180
1980
1B00
0F00
0E00
0600
ENDCHAR
STARTCHAR w
ENCODING 119
SWIDTH 823 0
DWIDTH 18 0
BBX 18 10 0 0
BITMAP
60C180
60E180
71E180
31E300
333300
3B3300
1B1E00
1E1E00
1E1E00
0C0C00
ENDCHAR
STARTCHAR x
ENCODING 120
SWIDTH 503 0
DWIDTH 11 0
BBX 11 10 0 0
BITMAP
61C0
3180
1B00
1E00
0E00
0E00
1B00
3180
71C0
E0C0
ENDCHAR
STARTCHAR y
ENCODING 121
SWIDTH 503 0
DWIDTH 11 0
BBX 12 14 0 -4
BITMAP
6060
60C0
70C0
31C0
3180
1980
1B00
0F00
0E00
0600
0600
0C00
3C00
3800
ENDCHAR
STARTCHAR z
ENCODING 122
SWIDTH 457 0
DWIDTH 10 0
BBX 10 10 0 0
BITMAP
7F80
7F00
0300
0600
0C00
0C00
1800
3000
7F80
7F80
ENDCHAR
STARTCHAR {
ENCODING 123
SWIDTH 366 0
DWIDTH 8 0
BBX 8 18 0 -2
BITMAP
0E
18
18
18
18
18
18
30
70
70
30
18
18
18
18
18
18
0E
ENDCHAR
STARTCHAR |
ENCODING 124
SWIDTH 229 0
DWIDTH 5 0
BBX 5 21 0 -5
BITMAP
60
60
60
60
60
60
60
60
60
60
60
60
60
60
60
60
60
60
60
60
60
ENDCHAR
STARTCHAR }
ENCODING 125
SWIDTH 366 0
DWIDTH 8 0
BBX 8 18 0 -2
BITMAP
70
10
18
18
18
18
18
1C
0E
0E
1C
18
18
18
18
18
10
70
ENDCHAR
STARTCHAR ~
ENCODING 126
SWIDTH 503 0
DWIDTH 11 0
BBX 11 9 0 0
BITMAP
1840
3CC0
67C0
6380
0000
0000
0000
0000
0000
ENDCHAR
STARTCHAR U+00A0
ENCODING 160
SWIDTH 229 0
DWIDTH 5 0
BBX 5 25 0 -6
BITMAP
00
00
00
00
00
00
00
00
00
00
00
00
00
00
00
00
00
00
00
00
00
00
00
00
00
ENDCHAR
STARTCHAR U+00A1
ENCODING 161
SWIDTH 274 0
DWIDTH 6 0
BBX 6 15 0 -4
BITMAP
30
30
00
30
30
30
30
30
30
30
30
30
30
30
00
ENDCHAR
STARTCHAR U+00A2
ENCODING 162
SWIDTH 503 0
DWIDTH 11 0
BBX 11 12 0 -1
BITMAP
0600
0F80
1FC0
3840
6000
6000
6000
6000
3840
1FC0
0F80
0600
ENDCHAR
STARTCHAR U+00A3
ENCODING 163
SWIDTH 503 0
DWIDTH 11 0
BBX 11 14 0 0
BITMAP
0780
0FC0
0C80
1800
1800
1800
1800
3F00
7F00
1800
3800
3000
3FC0
7FC0
ENDCHAR
STARTCHAR U+00A4
ENCODING 164
SWIDTH 594 0
DWIDTH 13 0
BBX 13 11 0 0
BITMAP
2020
7F70
3FE0
38C0
30E0
3060
30E0
38C0
3FE0
7F70
2020
ENDCHAR
STARTCHAR U+00A5
ENCODING 165
SWIDTH 594 0
DWIDTH 13 0
BBX 13 14 0 0
BITMAP
6030
7070
3060
18C0
1CC0
3DF0
3FF0
0700
3FF0
3FF0
0700
0700
0700
0700
ENDCHAR
STARTCHAR U+00A6
ENCODING 166
SWIDTH 229 0
DWIDTH 5 0
BBX 5 21 0 -5
BITMAP
60
60
60
60
60
60
60
60
00
00
00
00
00
60
60
60
60
60
60
60
60
ENDCHAR
STARTCHAR U+00A7
ENCODING 167
SWIDTH 457 0
DWIDTH 10 0
BBX 10 18 0 -4
BITMAP
1E00
3F00
6380
6100
6000
3800
3F00
7780
6180
6180
7180
3F00
0700
0180
6180
7180
3F80
1E00
ENDCHAR
STARTCHAR U+00A8
ENCODING 168
SWIDTH 457 0
DWIDTH 10 0
BBX 10 14 0 0
BITMAP
FFC0
FFC0
C0C0
C0C0
C0C0
C0C0
C0C0
C0C0
C0C0
C0C0
C0C0
C0C0
FFC0
FFC0
ENDCHAR
STARTCHAR U+00A9
ENCODING 169
SWIDTH 777 0
DWIDTH 17 0
BBX 17 14 0 0
BITMAP
03E000
0C1800
100400
23E600
261200
4C0300
4C0100
4C0100
4C0300
261200
23F600
100400
0C1800
03E000
ENDCHAR
STARTCHAR U+00AA
ENCODING 170
SWIDTH 320 0
DWIDTH 7 0
BBX 7 14 0 0
BITMAP
78
4C
3C
4C
4C
7C
00
00
00
00
00
00
00
00
ENDCHAR
STARTCHAR U+00AB
ENCODING 171
SWIDTH 549 0
DWIDTH 12 0
BBX 12 10 0 0
BITMAP
0CC0
1980
1980
3300
6600
3300
3B80
1980
0CC0
0000
ENDCHAR
STARTCHAR U+00AC
ENCODING 172
SWIDTH 503 0
DWIDTH 11 0
BBX 11 10 0 0
BITMAP
7FC0
7FC0
00C0
00C0
00C0
00C0
0000
0000
0000
0000
ENDCHAR
STARTCHAR U+00AD
ENCODING 173
SWIDTH 366 0
DWIDTH 8 0
BBX 8 7 0 0
BITMAP
7E
7E
00
00
00
00
00
ENDCHAR
STARTCHAR U+00AE
ENCODING 174
SWIDTH 777 0
DWIDTH 17 0
BBX 17 14 0 0
BITMAP
03E000
0C1800
100400
23C200
226200
422300
426100
43C100
42C300
226200
223600
100400
0C1800
03E000
ENDCHAR
STARTCHAR U+00AF
ENCODING 175
SWIDTH 457 0
DWIDTH 10 0
BBX 10 14 0 0
BITMAP
FFC0
FFC0
C0C0
C0C0
C0C0
C0C0
C0C0
C0C0
C0C0
C0C0
C0C0
C0C0
FFC0
FFC0
ENDCHAR
STARTCHAR U+00B0
ENCODING 176
SWIDTH 366 0
DWIDTH 8 0
BBX 8 14 0 0
BITMAP
3C
7E
66
66
7E
3C
00
00
00
00
00
00
00
00
ENDCHAR
STARTCHAR U+00B1
ENCODING 177
SWIDTH 503 0
DWIDTH 11 0
BBX 11 12 0 0
BITMAP
0600
0600
0600
7FC0
7FC0
0600
0600
0600
0000
0000
7FC0
7FC0
ENDCHAR
STARTCHAR U+00B2
ENCODING 178
SWIDTH 320 0
DWIDTH 7 0
BBX 7 14 0 0
BITMAP
38
7C
4C
0C
18
10
3C
7C
00
00
00
00
00
00
ENDCHAR
STARTCHAR U+00B3
ENCODING 179
SWIDTH 320 0
DWIDTH 7 0
BBX 7 14 0 0
BITMAP
7C
18
18
3C
0C
04
4C
78
00
00
00
00
00
00
ENDCHAR
STARTCHAR U+00B4
ENCODING 180
SWIDTH 457 0
DWIDTH 10 0
BBX 10 14 0 0
BITMAP
FFC0
FFC0
C0C0
C0C0
C0C0
C0C0
C0C0
C0C0
C0C0
C0C0
C0C0
C0C0
FFC0
FFC0
ENDCHAR
STARTCHAR U+00B5
ENCODING 181
SWIDTH 549 0
DWIDTH 12 0
BBX 12 14 0 -4
BITMAP
3060
3060
3060
3060
3060
3060
3060
38E0
3FE0
3F60
3000
3000
3000
3000
ENDCHAR
STARTCHAR U+00B6
ENCODING 182
SWIDTH 549 0
DWIDTH 12 0
BBX 12 18 0 -4
BITMAP
1FE0
3EC0
7EC0
7EC0
7EC0
3EC0
1EC0
06C0
06C0
06C0
06C0
06C0
06C0
06C0
06C0
06C0
06C0
06C0
ENDCHAR
STARTCHAR U+00B7
ENCODING 183
SWIDTH 229 0
DWIDTH 5 0
BBX 5 9 0 0
BITMAP
20
70
20
00
00
00
00
00
00
ENDCHAR
STARTCHAR U+00B8
ENCODING 184
SWIDTH 457 0
DWIDTH 10 0
BBX 10 14 0 0
BITMAP
FFC0
FFC0
C0C0
C0C0
C0C0
C0C0
C0C0
C0C0
C0C0
C0C0
C0C0
C0C0
FFC0
FFC0
ENDCHAR
STARTCHAR U+00B9
ENCODING 185
SWIDTH 229 0
DWIDTH 5 0
BBX 5 14 0 0
BITMAP
20
20
20
20
20
20
20
20
00
00
00
00
00
00
ENDCHAR
STARTCHAR U+00BA
ENCODING 186
SWIDTH 366 0
DWIDTH 8 0
BBX 8 14 0 0
BITMAP
3C
66
42
42
66
3C
00
00
00
00
00
00
00
00
ENDCHAR
STARTCHAR U+00BB
ENCODING 187
SWIDTH 549 0
DWIDTH 12 0
BBX 12 10 0 0
BITMAP
6300
3180
1980
0CC0
0C60
0CC0
1980
3180
6300
0000
ENDCHAR
STARTCHAR U+00BC
ENCODING 188
SWIDTH 777 0
DWIDTH 17 0
BBX 17 14 0 0
BITMAP
201800
203000
202000
206000
204000
20C000
208200
218600
010E00
031E00
023600
067F00
040600
0C0600
ENDCHAR
STARTCHAR U+00BD
ENCODING 189
SWIDTH 823 0
DWIDTH 18 0
BBX 18 14 0 0
BITMAP
201800
203000
202000
206000
204000
20C000
208700
218F80
010980
030180
020300
060200
040780
0C0F80
ENDCHAR
STARTCHAR U+00BE
ENCODING 190
SWIDTH 823 0
DWIDTH 18 0
BBX 18 14 0 0
BITMAP
7C0C00
181800
181000
3C3000
0C2000
046000
4C4080
78C180
008380
018780
010D80
031FC0
020180
060180
ENDCHAR
STARTCHAR U+00BF
ENCODING 191
SWIDTH 457 0
DWIDTH 10 0
BBX 10 14 0 -4
BITMAP
0400
0E00
0400
0000
0400
0E00
0600
1C00
3800
7000
6000
7180
3F80
1E00
ENDCHAR
STARTCHAR U+00C0
ENCODING 192
SWIDTH 640 0
DWIDTH 14 0
BBX 14 18 0 0
BITMAP
0E00
0600
0300
0000
0300
0780
0780
0780
0CC0
0CC0
1CE0
1860
1860
3FF0
3FF0
7038
6018
601C
ENDCHAR
STARTCHAR U+00C1
ENCODING 193
SWIDTH 640 0
DWIDTH 14 0
BBX 14 18 0 0
BITMAP
00C0
0180
0300
0000
0300
0780
0780
0780
0CC0
0CC0
1CE0
1860
1860
3FF0
3FF0
7038
6018
601C
ENDCHAR
STARTCHAR U+00C2
ENCODING 194
SWIDTH 640 0
DWIDTH 14 0
BBX 14 18 0 0
BITMAP
0380
0680
0440
0000
0300
0780
0780
0780
0CC0
0CC0
1CE0
1860
1860
3FF0
3FF0
7038
6018
601C
ENDCHAR
STARTCHAR U+00C3
ENCODING 195
SWIDTH 640 0
DWIDTH 14 0
BBX 14 18 0 0
BITMAP
0E40
0FC0
09C0
0000
0300
0780
0780
0780
0CC0
0CC0
1CE0
1860
1860
3FF0
3FF0
7038
6018
601C
ENDCHAR
STARTCHAR U+00C4
ENCODING 196
SWIDTH 640 0
DWIDTH 14 0
BBX 14 18 0 0
BITMAP
0880
1CC0
0880
0000
0300
0780
0780
0780
0CC0
0CC0
1CE0
1860
1860
3FF0
3FF0
7038
6018
601C
ENDCHAR
STARTCHAR U+00C5
ENCODING 197
SWIDTH 640 0
DWIDTH 14 0
BBX 14 19 0 0
BITMAP
0380
0280
0280
0380
0000
0300
0780
0780
0780
0CC0
0CC0
1CE0
1860
1860
3FF0
3FF0
7038
6018
601C
ENDCHAR
STARTCHAR U+00C6
ENCODING 198
SWIDTH 869 0
DWIDTH 19 0
BBX 19 14 0 0
BITMAP
00FFC0
01FFC0
01B000
03B000
033000
073F80
063F80
0C3000
1FF000
1FF000
383000
303000
703FE0
E03FE0
ENDCHAR
STARTCHAR U+00C7
ENCODING 199
SWIDTH 640 0
DWIDTH 14 0
BBX 14 18 0 -4
BITMAP
03F0
0FF8
1C08
3800
3000
7000
6000
6000
7000
3000
3800
1C08
0FF8
03F0
0100
01C0
00C0
0380
ENDCHAR
STARTCHAR U+00C8
ENCODING 200
SWIDTH 549 0
DWIDTH 12 0
BBX 12 18 0 0
BITMAP
0E00
0600
0300
0000
3FE0
3FE0
3000
3000
3000
3F80
3F80
3000
3000
3000
3000
3000
3FE0
3FE0
ENDCHAR
STARTCHAR U+00C9
ENCODING 201
SWIDTH 549 0
DWIDTH 12 0
BBX 12 18 0 0
BITMAP
0180
0300
0600
0000
3FE0
3FE0
3000
3000
3000
3F80
3F80
3000
3000
3000
3000
3000
3FE0
3FE0
ENDCHAR
STARTCHAR U+00CA
ENCODING 202
SWIDTH 549 0
DWIDTH 12 0
BBX 12 18 0 0
BITMAP
0700
0D00
0880
0000
3FE0
3FE0
3000
3000
3000
3F80
3F80
3000
3000
3000
3000
3000
3FE0
3FE0
ENDCHAR
STARTCHAR U+00CB
ENCODING 203
SWIDTH 549 0
DWIDTH 12 0
BBX 12 18 0 0
BITMAP
1100
3980
1100
0000
3FE0
3FE0
3000
3000
3000
3F80
3F80
3000
3000
3000
3000
3000
3FE0
3FE0
ENDCHAR
STARTCHAR U+00CC
ENCODING 204
SWIDTH 274 0
DWIDTH 6 0
BBX 6 18 0 0
BITMAP
00
00
00
00
00
00
00
00
00
00
00
00
00
00
00
00
00
00
ENDCHAR
STARTCHAR U+00CD
ENCODING 205
SWIDTH 274 0
DWIDTH 6 0
BBX 6 18 0 0
BITMAP
00
00
00
00
00
00
00
00
00
00
00
00
00
00
00
00
00
00
ENDCHAR
STARTCHAR U+00CE
ENCODING 206
SWIDTH 274 0
DWIDTH 6 0
BBX 7 18 0 0
BITMAP
38
68
44
00
30
30
30
30
30
30
30
30
30
30
30
30
30
30
ENDCHAR
STARTCHAR U+00CF
ENCODING 207
SWIDTH 274 0
DWIDTH 6 0
BBX 8 18 -1 0
BITMAP
44
E6
44
00
18
18
18
18
18
18
18
18
18
18
18
18
18
18
ENDCHAR
STARTCHAR U+00D0
ENCODING 208
SWIDTH 686 0
DWIDTH 15 0
BBX 15 14 0 0
BITMAP
3F80
3FE0
3070
3038
301C
300C
7F0C
7F0C
300C
301C
3038
3070
3FE0
3F80
ENDCHAR
STARTCHAR U+00D1
ENCODING 209
SWIDTH 731 0
DWIDTH 16 0
BBX 16 18 0 0
BITMAP
0720
07E0
04E0
0000
300C
380C
3C0C
3E0C
370C
330C
338C
31CC
30EC
306C
303C
303C
301C
300C
ENDCHAR
STARTCHAR U+00D2
ENCODING 210
SWIDTH 777 0
DWIDTH 17 0
BBX 17 18 0 0
BITMAP
038000
018000
00C000
000000
03E000
0FF800
1C1C00
380E00
300700
700300
600300
600300
700300
300700
380E00
1C1C00
0FF800
03E000
ENDCHAR
STARTCHAR U+00D3
ENCODING 211
SWIDTH 777 0
DWIDTH 17 0
BBX 17 18 0 0
BITMAP
006000
00C000
018000
000000
03E000
0FF800
1C1C00
380E00
300700
700300
600300
600300
700300
300700
380E00
1C1C00
0FF800
03E000
ENDCHAR
STARTCHAR U+00D4
ENCODING 212
SWIDTH 777 0
DWIDTH 17 0
BBX 17 18 0 0
BITMAP
01C000
034000
022000
000000
03E000
0FF800
1C1C00
380E00
300700
700300
600300
600300
700300
300700
380E00
1C1C00
0FF800
03E000
ENDCHAR
STARTCHAR U+00D5
ENCODING 213
SWIDTH 777 0
DWIDTH 17 0
BBX 17 18 0 0
BITMAP
072000
07E000
04E000
000000
03E000
0FF800
1C1C00
380E00
300700
700300
600300
600300
700300
300700
380E00
1C1C00
0FF800
03E000
ENDCHAR
STARTCHAR U+00D6
ENCODING 214
SWIDTH 777 0
DWIDTH 17 0
BBX 17 18 0 0
BITMAP
022000
073000
022000
000000
03E000
0FF800
1C1C00
380E00
300700
700300
600300
600300
700300
300700
380E00
1C1C00
0FF800
03E000
ENDCHAR
STARTCHAR U+00D7
ENCODING 215
SWIDTH 503 0
DWIDTH 11 0
BBX 11 11 0 0
BITMAP
1080
3B80
1F00
0E00
1F00
3B80
3080
0000
0000
0000
0000
ENDCHAR
STARTCHAR U+00D8
ENCODING 216
SWIDTH 777 0
DWIDTH 17 0
BBX 17 14 0 0
BITMAP
03E200
0FFE00
1C1C00
381E00
303700
706300
60C300
618300
730300
360700
3C0E00
1C1C00
3FF800
23E000
ENDCHAR
STARTCHAR U+00D9
ENCODING 217
SWIDTH 731 0
DWIDTH 16 0
BBX 16 18 0 0
BITMAP
0700
0300
0180
0000
300C
300C
300C
300C
300C
300C
300C
300C
300C
300C
381C
1C38
0FF0
03E0
ENDCHAR
STARTCHAR U+00DA
ENCODING 218
SWIDTH 731 0
DWIDTH 16 0
BBX 16 18 0 0
BITMAP
0060
00C0
0180
0000
300C
300C
300C
300C
300C
300C
300C
300C
300C
300C
381C
1C38
0FF0
03E0
ENDCHAR
STARTCHAR U+00DB
ENCODING 219
SWIDTH 731 0
DWIDTH 16 0
BBX 16 18 0 0
BITMAP
01C0
0340
0220
0000
300C
300C
300C
300C
300C
300C
300C
300C
300C
300C
381C
1C38
0FF0
03E0
ENDCHAR
STARTCHAR U+00DC
ENCODING 220
SWIDTH 731 0
DWIDTH 16 0
BBX 16 18 0 0
BITMAP
0440
0E60
0440
0000
300C
300C
300C
300C
300C
300C
300C
300C
300C
300C
381C
1C38
0FF0
03E0
ENDCHAR
STARTCHAR U+00DD
ENCODING 221
SWIDTH 594 0
DWIDTH 13 0
BBX 13 18 0 0
BITMAP
0180
0300
0600
0000
6030
7060
30E0
18C0
1D80
0F80
0700
0600
0600
0600
0600
0600
0600
0600
ENDCHAR
STARTCHAR U+00DE
ENCODING 222
SWIDTH 549 0
DWIDTH 12 0
BBX 12 14 0 0
BITMAP
3000
3000
3000
3F80
3FE0
30E0
3060
3060
30E0
3FC0
3F80
3000
3000
3000
ENDCHAR
STARTCHAR U+00DF
ENCODING 223
SWIDTH 549 0
DWIDTH 12 0
BBX 12 14 0 0
BITMAP
0F00
1F80
38C0
30C0
30C0
3780
3780
30C0
3060
3060
3060
30C0
37C0
3780
ENDCHAR
STARTCHAR U+00E0
ENCODING 224
SWIDTH 503 0
DWIDTH 11 0
BBX 11 15 0 0
BITMAP
1C00
0C00
0600
0000
0000
3F00
3F80
2180
0F80
3F80
7180
6180
6380
7F80
3D80
ENDCHAR
STARTCHAR U+00E1
ENCODING 225
SWIDTH 503 0
DWIDTH 11 0
BBX 11 15 0 0
BITMAP
0300
0600
0C00
0000
0000
3F00
3F80
2180
0F80
3F80
7180
6180
6380
7F80
3D80
ENDCHAR
STARTCHAR U+00E2
ENCODING 226
SWIDTH 503 0
DWIDTH 11 0
BBX 11 15 0 0
BITMAP
0E00
1A00
1100
0000
0000
3F00
3F80
2180
0F80
3F80
7180
6180
6380
7F80
3D80
ENDCHAR
STARTCHAR U+00E3
ENCODING 227
SWIDTH 503 0
DWIDTH 11 0
BBX 11 15 0 0
BITMAP
3900
3F00
2700
0000
0000
3F00
3F80
2180
0F80
3F80
7180
6180
6380
7F80
3D80
ENDCHAR
STARTCHAR U+00E4
ENCODING 228
SWIDTH 503 0
DWIDTH 11 0
BBX 11 15 0 0
BITMAP
2200
7300
2200
0000
0000
3F00
3F80
2180
0F80
3F80
7180
6180
6380
7F80
3D80
ENDCHAR
STARTCHAR U+00E5
ENCODING 229
SWIDTH 503 0
DWIDTH 11 0
BBX 11 16 0 0
BITMAP
0E00
0A00
0A00
0E00
0000
0000
3F00
3F80
2180
0F80
3F80
7180
6180
6380
7F80
3D80
ENDCHAR
STARTCHAR U+00E6
ENCODING 230
SWIDTH 777 0
DWIDTH 17 0
BBX 17 10 0 0
BITMAP
3E3C00
3F7E00
21C300
018300
0FFF00
3FFF00
718000
60C100
7FFF00
3F7E00
ENDCHAR
STARTCHAR U+00E7
ENCODING 231
SWIDTH 503 0
DWIDTH 11 0
BBX 11 14 0 -4
BITMAP
0F80
1FC0
3840
6000
6000
6000
6000
3840
1FC0
0F80
0200
0700
0180
0F00
ENDCHAR
STARTCHAR U+00E8
ENCODING 232
SWIDTH 549 0
DWIDTH 12 0
BBX 12 15 0 0
BITMAP
1C00
0C00
0600
0000
0000
0F00
3F80
30C0
60C0
7FE0
7FE0
6000
3040
3FC0
0F80
ENDCHAR
STARTCHAR U+00E9
ENCODING 233
SWIDTH 549 0
DWIDTH 12 0
BBX 12 15 0 0
BITMAP
0300
0600
0C00
0000
0000
0F00
3F80
30C0
60C0
7FE0
7FE0
6000
3040
3FC0
0F80
ENDCHAR
STARTCHAR U+00EA
ENCODING 234
SWIDTH 549 0
DWIDTH 12 0
BBX 12 15 0 0
BITMAP
0E00
1A00
1100
0000
0000
0F00
3F80
30C0
60C0
7FE0
7FE0
6000
3040
3FC0
0F80
ENDCHAR
STARTCHAR U+00EB
ENCODING 235
SWIDTH 549 0
DWIDTH 12 0
BBX 12 15 0 0
BITMAP
1100
3980
1100
0000
0000
0F00
3F80
30C0
60C0
7FE0
7FE0
6000
3040
3FC0
0F80
ENDCHAR
STARTCHAR U+00EC
ENCODING 236
SWIDTH 229 0
DWIDTH 5 0
BBX 6 15 -1 0
BITMAP
E0
60
30
00
00
30
30
30
30
30
30
30
30
30
30
ENDCHAR
STARTCHAR U+00ED
ENCODING 237
SWIDTH 229 0
DWIDTH 5 0
BBX 6 15 0 0
BITMAP
18
30
60
00
00
30
30
30
30
30
30
30
30
30
30
ENDCHAR
STARTCHAR U+00EE
ENCODING 238
SWIDTH 229 0
DWIDTH 5 0
BBX 7 15 -1 0
BITMAP
38
68
44
00
00
18
18
18
18
18
18
18
18
18
18
ENDCHAR
STARTCHAR U+00EF
ENCODING 239
SWIDTH 229 0
DWIDTH 5 0
BBX 8 15 -1 0
BITMAP
44
E6
44
00
00
18
18
18
18
18
18
18
18
18
18
ENDCHAR
STARTCHAR U+00F0
ENCODING 240
SWIDTH 549 0
DWIDTH 12 0
BBX 12 14 0 0
BITMAP
0980
1F00
0F00
3380
0FC0
3FC0
30C0
60E0
6060
6060
60C0
31C0
3F80
1F00
ENDCHAR
STARTCHAR U+00F1
ENCODING 241
SWIDTH 594 0
DWIDTH 13 0
BBX 13 15 0 0
BITMAP
1C80
1F80
1380
0000
0000
3780
3FC0
38E0
3060
3060
3060
3060
3060
3060
3060
ENDCHAR
STARTCHAR U+00F2
ENCODING 242
SWIDTH 594 0
DWIDTH 13 0
BBX 13 15 0 0
BITMAP
0E00
0600
0300
0000
0000
0F80
3FC0
38E0
6070
6030
6030
6070
38E0
3FC0
0F80
ENDCHAR
STARTCHAR U+00F3
ENCODING 243
SWIDTH 594 0
DWIDTH 13 0
BBX 13 15 0 0
BITMAP
0180
0300
0600
0000
0000
0F80
3FC0
38E0
6070
6030
6030
6070
38E0
3FC0
0F80
ENDCHAR
STARTCHAR U+00F4
ENCODING 244
SWIDTH 594 0
DWIDTH 13 0
BBX 13 15 0 0
BITMAP
0700
0D00
0880
0000
0000
0F80
3FC0
38E0
6070
6030
6030
6070
38E0
3FC0
0F80
ENDCHAR
STARTCHAR U+00F5
ENCODING 245
SWIDTH 594 0
DWIDTH 13 0
BBX 13 15 0 0
BITMAP
1C80
1F80
1380
0000
0000
0F80
3FC0
38E0
6070
6030
6030
6070
38E0
3FC0
0F80
ENDCHAR
STARTCHAR U+00F6
ENCODING 246
SWIDTH 594 0
DWIDTH 13 0
BBX 13 15 0 0
BITMAP
0880
1CC0
0880
0000
0000
0F80
3FC0
38E0
6070
6030
6030
6070
38E0
3FC0
0F80
ENDCHAR
STARTCHAR U+00F7
ENCODING 247
SWIDTH 503 0
DWIDTH 11 0
BBX 11 13 0 0
BITMAP
0400
0E00
0400
0000
0000
7FC0
7FC0
0000
0400
0E00
0400
0000
0000
ENDCHAR
STARTCHAR U+00F8
ENCODING 248
SWIDTH 594 0
DWIDTH 13 0
BBX 13 11 0 -1
BITMAP
0FE0
3FC0
38E0
61F0
6330
6630
7C70
38E0
1FC0
2F80
2000
ENDCHAR
STARTCHAR U+00F9
ENCODING 249
SWIDTH 594 0
DWIDTH 13 0
BBX 13 15 0 0
BITMAP
0E00
0600
0300
0000
0000
3060
3060
3060
3060
3060
3060
3060
38E0
3FE0
0F60
ENDCHAR
STARTCHAR U+00FA
ENCODING 250
SWIDTH 594 0
DWIDTH 13 0
BBX 13 15 0 0
BITMAP
0180
0300
0600
0000
0000
3060
3060
3060
3060
3060
3060
3060
38E0
3FE0
0F60
ENDCHAR
STARTCHAR U+00FB
ENCODING 251
SWIDTH 594 0
DWIDTH 13 0
BBX 13 15 0 0
BITMAP
0700
0D00
0880
0000
0000
3060
3060
3060
3060
3060
3060
3060
38E0
3FE0
0F60
ENDCHAR
STARTCHAR U+00FC
ENCODING 252
SWIDTH 594 0
DWIDTH 13 0
BBX 13 15 0 0
BITMAP
1100
3980
1100
0000
0000
3060
3060
3060
3060
3060
3060
3060
38E0
3FE0
0F60
ENDCHAR
STARTCHAR U+00FD
ENCODING 253
SWIDTH 503 0
DWIDTH 11 0
BBX 12 19 0 -4
BITMAP
0300
0600
0C00
0000
0000
6060
60C0
70C0
31C0
3180
1980
1B00
0F00
0E00
0600
0600
0C00
3C00
3800
ENDCHAR
STARTCHAR U+00FE
ENCODING 254
SWIDTH 594 0
DWIDTH 13 0
BBX 13 18 0 -4
BITMAP
3000
3000
3000
3000
3780
3FC0
38E0
3060
3030
3030
3060
38E0
3FC0
3F80
3000
3000
3000
3000
ENDCHAR
STARTCHAR U+00FF
ENCODING 255
SWIDTH 503 0
DWIDTH 11 0
BBX 12 19 0 -4
BITMAP
1100
3980
1100
0000
0000
6060
60C0
70C0
31C0
3180
1980
1B00
0F00
0E00
0600
0600
0C00
3C00
3800
ENDCHAR
STARTCHAR U+2013
ENCODING 8211
SWIDTH 503 0
DWIDTH 11 0
BBX 12 7 -1 0
BITMAP
FFE0
FFE0
0000
0000
0000
0000
0000
ENDCHAR
STARTCHAR U+2014
ENCODING 8212
SWIDTH 960 0
DWIDTH 21 0
BBX 23 7 -1 0
BITMAP
FFFFF8
FFFFF8
000000
000000
000000
000000
000000
ENDCHAR
STARTCHAR U+2018
ENCODING 8216
SWIDTH 229 0
DWIDTH 5 0
BBX 5 14 0 0
BITMAP
20
20
60
30
20
00
00
00
00
00
00
00
00
00
ENDCHAR
STARTCHAR U+2019
ENCODING 8217
SWIDTH 229 0
DWIDTH 5 0
BBX 5 14 0 0
BITMAP
20
70
30
20
00
00
00
00
00
00
00
00
00
00
ENDCHAR
STARTCHAR U+201C
ENCODING 8220
SWIDTH 411 0
DWIDTH 9 0
BBX 9 14 0 0
BITMAP
2200
2400
6600
3600
2000
0000
0000
0000
0000
0000
0000
0000
0000
0000
ENDCHAR
STARTCHAR U+201D
ENCODING 8221
SWIDTH 411 0
DWIDTH 9 0
BBX 9 14 0 0
BITMAP
2400
7E00
3600
2400
0000
0000
0000
0000
0000
0000
0000
0000
0000
0000
ENDCHAR
STARTCHAR U+2022
ENCODING 8226
SWIDTH 411 0
DWIDTH 9 0
BBX 9 9 0 0
BITMAP
0800
1C00
3E00
1C00
0800
0000
0000
0000
0000
ENDCHAR
STARTCHAR U+2026
ENCODING 8230
SWIDTH 869 0
DWIDTH 19 0
BBX 19 3 0 0
BITMAP
204080
70E1C0
204080
ENDCHAR
STARTCHAR U+20AC
ENCODING 8364
SWIDTH 594 0
DWIDTH 13 0
BBX 13 14 0 0
BITMAP
03E0
0FF0
1C10
1800
3000
7FC0
7FC0
3000
7F80
7F80
3800
1C10
0FF0
07E0
ENDCHAR
ENDFONT
