STARTFONT 2.1
COMMENT Converted from Johnston100 W03 Regular.ttf at 19px with ttf2bdf.py (Pillow, 1-bit, no AA)
FONT -Misc-Johnston100-Medium-R-Normal--19-190-75-75-P-210-ISO10646-1
SIZE 19 75 75
FONTBOUNDINGBOX 21 22 -1 -5
STARTPROPERTIES 9
FOUNDRY "Misc"
FAMILY_NAME "Johnston100"
WEIGHT_NAME "Medium"
SLANT "R"
PIXEL_SIZE 19
RESOLUTION_X 75
RESOLUTION_Y 75
FONT_ASCENT 17
FONT_DESCENT 5
ENDPROPERTIES
CHARS 200
STARTCHAR space
ENCODING 32
SWIDTH 253 0
DWIDTH 5 0
BBX 5 22 0 -5
BITMAP
00
00
00
00
00
00
00
00
00
00
00
00
00
00
00
00
00
00
00
00
00
00
ENDCHAR
STARTCHAR !
ENCODING 33
SWIDTH 253 0
DWIDTH 5 0
BBX 5 13 0 0
BITMAP
30
30
30
30
30
30
30
20
20
20
00
30
20
ENDCHAR
STARTCHAR "
ENCODING 34
SWIDTH 404 0
DWIDTH 8 0
BBX 8 13 0 0
BITMAP
66
66
64
24
24
00
00
00
00
00
00
00
00
ENDCHAR
STARTCHAR U+0023
ENCODING 35
SWIDTH 707 0
DWIDTH 14 0
BBX 14 13 0 0
BITMAP
0310
0230
0620
0620
3FFC
3FFC
0C40
0CC0
7FF8
7FF0
1880
1180
1180
ENDCHAR
STARTCHAR $
ENCODING 36
SWIDTH 505 0
DWIDTH 10 0
BBX 10 16 0 -2
BITMAP
0800
1C00
3F00
6200
6000
7000
3C00
0F00
0300
0180
4180
6380
7F00
3E00
0800
0000
ENDCHAR
STARTCHAR %
ENCODING 37
SWIDTH 707 0
DWIDTH 14 0
BBX 14 13 0 0
BITMAP
3860
6440
46C0
6480
3980
0100
0300
0200
0670
0498
0C88
0898
1870
ENDCHAR
STARTCHAR &
ENCODING 38
SWIDTH 657 0
DWIDTH 13 0
BBX 13 13 0 0
BITMAP
0F00
1F80
3180
3180
1B00
1E00
1E30
3760
63E0
61C0
61C0
3FE0
1E30
ENDCHAR
STARTCHAR '
ENCODING 39
SWIDTH 202 0
DWIDTH 4 0
BBX 4 13 0 0
BITMAP
60
60
60
20
20
00
00
00
00
00
00
00
00
ENDCHAR
STARTCHAR (
ENCODING 40
SWIDTH 253 0
DWIDTH 5 0
BBX 5 15 0 -1
BITMAP
10
30
20
20
60
60
60
60
60
60
60
20
20
30
10
ENDCHAR
STARTCHAR )
ENCODING 41
SWIDTH 253 0
DWIDTH 5 0
BBX 5 15 0 -1
BITMAP
40
60
20
20
30
30
30
30
30
30
30
20
20
60
40
ENDCHAR
STARTCHAR *
ENCODING 42
SWIDTH 404 0
DWIDTH 8 0
BBX 8 13 0 0
BITMAP
18
52
34
18
38
56
18
00
00
00
00
00
00
ENDCHAR
STARTCHAR +
ENCODING 43
SWIDTH 505 0
DWIDTH 10 0
BBX 10 10 0 0
BITMAP
0C00
0C00
0C00
7F80
7F80
0C00
0C00
0C00
0000
0000
ENDCHAR
STARTCHAR ,
ENCODING 44
SWIDTH 253 0
DWIDTH 5 0
BBX 5 5 0 -2
BITMAP
00
60
20
20
00
ENDCHAR
STARTCHAR -
ENCODING 45
SWIDTH 354 0
DWIDTH 7 0
BBX 7 6 0 0
BITMAP
7E
7E
00
00
00
00
ENDCHAR
STARTCHAR .
ENCODING 46
SWIDTH 253 0
DWIDTH 5 0
BBX 5 3 0 0
BITMAP
20
60
20
ENDCHAR
STARTCHAR /
ENCODING 47
SWIDTH 303 0
DWIDTH 6 0
BBX 7 15 0 -1
BITMAP
0C
0C
08
18
18
10
10
30
30
20
60
60
40
C0
C0
ENDCHAR
STARTCHAR 0
ENCODING 48
SWIDTH 556 0
DWIDTH 11 0
BBX 11 13 0 0
BITMAP
1E00
3F00
3380
6180
6180
6180
6180
6180
6180
6180
3380
3F00
1E00
ENDCHAR
STARTCHAR 1
ENCODING 49
SWIDTH 303 0
DWIDTH 6 0
BBX 6 13 0 0
BITMAP
10
30
30
30
30
30
30
30
30
30
30
30
30
ENDCHAR
STARTCHAR 2
ENCODING 50
SWIDTH 455 0
DWIDTH 9 0
BBX 9 13 0 0
BITMAP
1E00
3F00
6300
4100
0100
0300
0600
0600
0C00
1C00
1800
3F80
7F80
ENDCHAR
STARTCHAR 3
ENCODING 51
SWIDTH 505 0
DWIDTH 10 0
BBX 10 13 0 0
BITMAP
7F80
7F00
0600
0600
0C00
1F00
0380
0180
0180
0180
4380
7F00
3E00
ENDCHAR
STARTCHAR 4
ENCODING 52
SWIDTH 556 0
DWIDTH 11 0
BBX 11 13 0 0
BITMAP
0000
0100
0300
0700
0700
0B00
1B00
3300
7FC0
FFC0
0300
0300
0300
ENDCHAR
STARTCHAR 5
ENCODING 53
SWIDTH 505 0
DWIDTH 10 0
BBX 10 13 0 0
BITMAP
1F80
3F80
3000
3000
3E00
3F00
0380
0180
0180
0180
4380
7F00
1E00
ENDCHAR
STARTCHAR 6
ENCODING 54
SWIDTH 505 0
DWIDTH 10 0
BBX 10 13 0 0
BITMAP
0600
0C00
1C00
3800
3000
7E00
7F80
7180
6180
6180
6180
3F00
1E00
ENDCHAR
STARTCHAR 7
ENCODING 55
SWIDTH 455 0
DWIDTH 9 0
BBX 10 13 0 0
BITMAP
3F80
3F80
0100
0300
0300
0600
0600
0C00
0C00
1800
1800
3000
3000
ENDCHAR
STARTCHAR 8
ENCODING 56
SWIDTH 505 0
DWIDTH 10 0
BBX 10 13 0 0
BITMAP
1E00
3F00
3300
2180
3300
1F00
3E00
7380
6180
6180
7180
3F00
1E00
ENDCHAR
STARTCHAR 9
ENCODING 57
SWIDTH 505 0
DWIDTH 10 0
BBX 10 13 0 0
BITMAP
1E00
3F00
7180
6180
6180
6180
3F80
1F80
0300
0300
0600
0E00
1C00
ENDCHAR
STARTCHAR :
ENCODING 58
SWIDTH 253 0
DWIDTH 5 0
BBX 5 10 0 0
BITMAP
20
60
20
00
00
00
00
20
60
20
ENDCHAR
STARTCHAR ;
ENCODING 59
SWIDTH 253 0
DWIDTH 5 0
BBX 5 12 0 -2
BITMAP
20
60
20
00
00
00
00
00
30
10
10
00
ENDCHAR
STARTCHAR U+003C
ENCODING 60
SWIDTH 505 0
DWIDTH 10 0
BBX 10 12 0 0
BITMAP
0080
0380
0E00
3C00
7000
3C00
0E00
0380
0080
0000
0000
0000
ENDCHAR
STARTCHAR =
ENCODING 61
SWIDTH 505 0
DWIDTH 10 0
BBX 10 9 0 0
BITMAP
7F80
7F80
0000
0000
7F80
7F80
0000
0000
0000
ENDCHAR
STARTCHAR U+003E
ENCODING 62
SWIDTH 505 0
DWIDTH 10 0
BBX 10 12 0 0
BITMAP
6000
7000
1C00
0700
0180
0700
1C00
7000
6000
0000
0000
0000
ENDCHAR
STARTCHAR ?
ENCODING 63
SWIDTH 455 0
DWIDTH 9 0
BBX 9 13 0 0
BITMAP
3C00
7E00
4700
0300
0600
1C00
3800
3800
1000
0000
1800
1800
1000
ENDCHAR
STARTCHAR @
ENCODING 64
SWIDTH 909 0
DWIDTH 18 0
BBX 18 17 0 -4
BITMAP
01F800
07FE00
0E0F00
180300
31F980
331980
621880
661880
661080
661180
661100
633E00
21C000
300000
180000
0C1800
03F800
ENDCHAR
STARTCHAR A
ENCODING 65
SWIDTH 657 0
DWIDTH 13 0
BBX 13 13 0 0
BITMAP
0600
0700
0700
0D80
0D80
1980
18C0
10C0
3FE0
3FE0
6060
6030
6030
ENDCHAR
STARTCHAR B
ENCODING 66
SWIDTH 556 0
DWIDTH 11 0
BBX 11 13 0 0
BITMAP
3F00
3F80
3180
3180
3180
3F00
3FC0
30C0
3060
3060
30C0
3FC0
3F80
ENDCHAR
STARTCHAR C
ENCODING 67
SWIDTH 657 0
DWIDTH 13 0
BBX 13 13 0 0
BITMAP
07E0
0FF0
3C10
3000
6000
6000
6000
6000
7000
3000
1C30
0FF0
07C0
ENDCHAR
STARTCHAR D
ENCODING 68
SWIDTH 707 0
DWIDTH 14 0
BBX 14 13 0 0
BITMAP
3F80
3FC0
30E0
3030
3030
3018
3018
3018
3030
3030
30E0
3FC0
3F80
ENDCHAR
STARTCHAR E
ENCODING 69
SWIDTH 556 0
DWIDTH 11 0
BBX 11 13 0 0
BITMAP
3FC0
3FC0
3000
3000
3000
3F00
3F00
3000
3000
3000
3000
3FC0
3FC0
ENDCHAR
STARTCHAR F
ENCODING 70
SWIDTH 505 0
DWIDTH 10 0
BBX 10 13 0 0
BITMAP
3FC0
3FC0
3000
3000
3000
3F00
3F00
3000
3000
3000
3000
3000
3000
ENDCHAR
STARTCHAR G
ENCODING 71
SWIDTH 707 0
DWIDTH 14 0
BBX 14 13 0 0
BITMAP
07E0
0FF0
3C10
3000
7000
60F8
60F8
6018
7018
3018
3C38
1FF0
07C0
ENDCHAR
STARTCHAR H
ENCODING 72
SWIDTH 707 0
DWIDTH 14 0
BBX 14 13 0 0
BITMAP
3030
3030
3030
3030
3030
3FF0
3FF0
3030
3030
3030
3030
3030
3030
ENDCHAR
STARTCHAR I
ENCODING 73
SWIDTH 303 0
DWIDTH 6 0
BBX 6 13 0 0
BITMAP
30
30
30
30
30
30
30
30
30
30
30
30
30
ENDCHAR
STARTCHAR J
ENCODING 74
SWIDTH 455 0
DWIDTH 9 0
BBX 9 13 0 0
BITMAP
0200
0200
0200
0200
0200
0200
0200
0200
0200
0600
4600
7E00
3C00
ENDCHAR
STARTCHAR K
ENCODING 75
SWIDTH 606 0
DWIDTH 12 0
BBX 12 13 0 0
BITMAP
30E0
31C0
3380
3700
3E00
3C00
3C00
3E00
3700
3380
31C0
30E0
3060
ENDCHAR
STARTCHAR L
ENCODING 76
SWIDTH 505 0
DWIDTH 10 0
BBX 10 13 0 0
BITMAP
3000
3000
3000
3000
3000
3000
3000
3000
3000
3000
3000
3FC0
3FC0
ENDCHAR
STARTCHAR M
ENCODING 77
SWIDTH 808 0
DWIDTH 16 0
BBX 16 13 0 0
BITMAP
300E
381E
3C1E
3E36
3666
33E6
31C6
3186
3006
3006
3006
3006
3006
ENDCHAR
STARTCHAR N
ENCODING 78
SWIDTH 758 0
DWIDTH 15 0
BBX 15 13 0 0
BITMAP
3018
3818
3818
3C18
3618
3718
3398
3198
30D8
3078
3078
3038
3018
ENDCHAR
STARTCHAR O
ENCODING 79
SWIDTH 808 0
DWIDTH 16 0
BBX 16 13 0 0
BITMAP
07C0
0FF0
1C38
301C
700C
600C
6006
600C
700C
301C
1C38
0FF0
07C0
ENDCHAR
STARTCHAR P
ENCODING 80
SWIDTH 556 0
DWIDTH 11 0
BBX 11 13 0 0
BITMAP
3F00
3FC0
30C0
30C0
30C0
30C0
3F80
3F00
3000
3000
3000
3000
3000
ENDCHAR
STARTCHAR Q
ENCODING 81
SWIDTH 808 0
DWIDTH 16 0
BBX 16 13 0 0
BITMAP
07C0
0FF0
1C38
301C
700C
600C
6006
600C
706C
303C
1C38
0FFC
07CC
ENDCHAR
STARTCHAR R
ENCODING 82
SWIDTH 556 0
DWIDTH 11 0
BBX 12 13 0 0
BITMAP
3F00
3F80
3180
30C0
3180
3F80
3F00
3700
3300
3180
31C0
30C0
3060
ENDCHAR
STARTCHAR S
ENCODING 83
SWIDTH 505 0
DWIDTH 10 0
BBX 10 13 0 0
BITMAP
1C00
3F00
6200
6000
7000
3C00
0F00
0300
0180
4180
6380
7F00
1E00
ENDCHAR
STARTCHAR T
ENCODING 84
SWIDTH 556 0
DWIDTH 11 0
BBX 11 13 0 0
BITMAP
FFE0
FFE0
0400
0400
0400
0400
0400
0400
0400
0400
0400
0400
0400
ENDCHAR
STARTCHAR U
ENCODING 85
SWIDTH 758 0
DWIDTH 15 0
BBX 15 13 0 0
BITMAP
3018
3018
3018
3018
3018
3018
3018
3018
3018
3038
1870
1FE0
07C0
ENDCHAR
STARTCHAR V
ENCODING 86
SWIDTH 606 0
DWIDTH 12 0
BBX 12 13 0 0
BITMAP
6030
6060
6060
3060
30C0
30C0
1880
1980
0D80
0F00
0F00
0700
0600
ENDCHAR
STARTCHAR W
ENCODING 87
SWIDTH 960 0
DWIDTH 19 0
BBX 19 13 0 0
BITMAP
60C0C0
60E080
60E180
31E180
31B180
31B300
193300
1B1B00
1B1A00
1A1E00
0E0E00
0E0E00
0E0C00
ENDCHAR
STARTCHAR X
ENCODING 88
SWIDTH 657 0
DWIDTH 13 0
BBX 13 13 0 0
BITMAP
6070
3060
38C0
1980
0F80
0700
0700
0F80
1D80
18C0
30E0
7070
6030
ENDCHAR
STARTCHAR Y
ENCODING 89
SWIDTH 556 0
DWIDTH 11 0
BBX 12 13 0 0
BITMAP
6060
60C0
31C0
3980
1B00
0F00
0E00
0600
0600
0600
0600
0600
0600
ENDCHAR
STARTCHAR Z
ENCODING 90
SWIDTH 606 0
DWIDTH 12 0
BBX 12 13 0 0
BITMAP
7FE0
7FC0
00C0
0180
0300
0300
0600
0C00
0C00
1800
3000
7FE0
7FE0
ENDCHAR
STARTCHAR [
ENCODING 91
SWIDTH 303 0
DWIDTH 6 0
BBX 6 17 0 -2
BITMAP
3C
20
20
20
20
20
20
20
20
20
20
20
20
20
20
20
3C
ENDCHAR
STARTCHAR \
ENCODING 92
SWIDTH 303 0
DWIDTH 6 0
BBX 7 15 0 -1
BITMAP
C0
C0
40
60
60
20
30
30
10
18
18
18
08
0C
0C
ENDCHAR
STARTCHAR ]
ENCODING 93
SWIDTH 303 0
DWIDTH 6 0
BBX 6 17 0 -2
BITMAP
78
18
18
18
18
18
18
18
18
18
18
18
18
18
18
18
78
ENDCHAR
STARTCHAR ^
ENCODING 94
SWIDTH 556 0
DWIDTH 11 0
BBX 11 13 0 0
BITMAP
0E00
1A00
1B00
3180
60C0
0000
0000
0000
0000
0000
0000
0000
0000
ENDCHAR
STARTCHAR _
ENCODING 95
SWIDTH 505 0
DWIDTH 10 0
BBX 11 2 -1 -2
BITMAP
0000
FFC0
ENDCHAR
STARTCHAR `
ENCODING 96
SWIDTH 455 0
DWIDTH 9 0
BBX 9 13 0 0
BITMAP
FF80
FF80
C180
C180
C180
C180
C180
C180
C180
C180
C180
FF80
FF80
ENDCHAR
STARTCHAR a
ENCODING 97
SWIDTH 505 0
DWIDTH 10 0
BBX 10 9 0 0
BITMAP
1E00
3F00
4300
1F00
3100
6100
6300
7F00
3D00
ENDCHAR
STARTCHAR b
ENCODING 98
SWIDTH 556 0
DWIDTH 11 0
BBX 11 13 0 0
BITMAP
2000
2000
2000
2000
2F00
3F80
30C0
20C0
2060
20C0
30C0
3F80
2F00
ENDCHAR
STARTCHAR c
ENCODING 99
SWIDTH 505 0
DWIDTH 10 0
BBX 10 9 0 0
BITMAP
0F00
3F80
7080
6000
6000
6000
7080
3F80
0F00
ENDCHAR
STARTCHAR d
ENCODING 100
SWIDTH 556 0
DWIDTH 11 0
BBX 11 13 0 0
BITMAP
00C0
00C0
00C0
00C0
1EC0
3FC0
71C0
60C0
60C0
60C0
71C0
3FC0
1EC0
ENDCHAR
STARTCHAR e
ENCODING 101
SWIDTH 505 0
DWIDTH 10 0
BBX 10 9 0 0
BITMAP
1F00
3F80
6180
7FC0
7FC0
6000
7080
3F80
1F00
ENDCHAR
STARTCHAR f
ENCODING 102
SWIDTH 354 0
DWIDTH 7 0
BBX 8 13 0 0
BITMAP
1E
3E
30
30
FE
FE
30
30
30
30
30
30
30
ENDCHAR
STARTCHAR g
ENCODING 103
SWIDTH 505 0
DWIDTH 10 0
BBX 10 13 0 -4
BITMAP
1F80
7F80
6300
6100
6300
3F00
3E00
3000
3E00
6380
C180
7F80
3F00
ENDCHAR
STARTCHAR h
ENCODING 104
SWIDTH 556 0
DWIDTH 11 0
BBX 11 13 0 0
BITMAP
2000
2000
2000
2000
2F00
3F80
31C0
20C0
20C0
20C0
20C0
20C0
20C0
ENDCHAR
STARTCHAR i
ENCODING 105
SWIDTH 253 0
DWIDTH 5 0
BBX 5 13 0 0
BITMAP
20
20
00
20
20
20
20
20
20
20
20
20
00
ENDCHAR
STARTCHAR j
ENCODING 106
SWIDTH 253 0
DWIDTH 5 0
BBX 6 16 -1 -4
BITMAP
20
70
20
20
20
20
20
20
20
20
20
20
20
60
E0
C0
ENDCHAR
STARTCHAR k
ENCODING 107
SWIDTH 505 0
DWIDTH 10 0
BBX 10 13 0 0
BITMAP
2000
2000
2000
2000
2180
2300
2E00
3C00
3C00
2E00
2700
2380
21C0
ENDCHAR
STARTCHAR l
ENCODING 108
SWIDTH 303 0
DWIDTH 6 0
BBX 6 13 0 0
BITMAP
60
60
60
60
60
60
60
60
60
60
60
3C
3C
ENDCHAR
STARTCHAR m
ENCODING 109
SWIDTH 909 0
DWIDTH 18 0
BBX 18 9 0 0
BITMAP
2F3E00
3FFF00
31C300
20C300
20C300
20C300
20C300
20C300
20C300
ENDCHAR
STARTCHAR n
ENCODING 110
SWIDTH 556 0
DWIDTH 11 0
BBX 11 9 0 0
BITMAP
2F00
3F80
31C0
20C0
20C0
20C0
20C0
20C0
20C0
ENDCHAR
STARTCHAR o
ENCODING 111
SWIDTH 606 0
DWIDTH 12 0
BBX 12 9 0 0
BITMAP
0F00
3F80
70C0
6060
6060
6060
70C0
3F80
1F00
ENDCHAR
STARTCHAR p
ENCODING 112
SWIDTH 556 0
DWIDTH 11 0
BBX 11 13 0 -4
BITMAP
2F00
3F80
31C0
20C0
2060
20C0
31C0
3F80
2F00
2000
2000
2000
2000
ENDCHAR
STARTCHAR q
ENCODING 113
SWIDTH 556 0
DWIDTH 11 0
BBX 11 13 0 -4
BITMAP
1EC0
3FC0
71C0
60C0
60C0
60C0
71C0
3FC0
1EC0
00C0
00C0
00C0
00C0
ENDCHAR
STARTCHAR r
ENCODING 114
SWIDTH 404 0
DWIDTH 8 0
BBX 8 9 0 0
BITMAP
2E
3E
30
20
20
20
20
20
20
ENDCHAR
STARTCHAR s
ENCODING 115
SWIDTH 455 0
DWIDTH 9 0
BBX 9 9 0 0
BITMAP
3C00
7F00
6100
6000
3E00
1F00
4300
7F00
3E00
ENDCHAR
STARTCHAR t
ENCODING 116
SWIDTH 404 0
DWIDTH 8 0
BBX 8 11 0 0
BITMAP
30
30
FE
FE
30
30
30
30
30
3E
1E
ENDCHAR
STARTCHAR u
ENCODING 117
SWIDTH 556 0
DWIDTH 11 0
BBX 11 9 0 0
BITMAP
60C0
60C0
60C0
60C0
60C0
60C0
31C0
3FC0
1EC0
ENDCHAR
STARTCHAR v
ENCODING 118
SWIDTH 505 0
DWIDTH 10 0
BBX 10 9 0 0
BITMAP
60C0
6180
6180
3100
3300
1B00
1E00
0E00
0C00
ENDCHAR
STARTCHAR w
ENCODING 119
SWIDTH 808 0
DWIDTH 16 0
BBX 16 9 0 0
BITMAP
6183
61C6
63C6
3346
326C
366C
1E3C
1C38
1C18
ENDCHAR
STARTCHAR x
ENCODING 120
SWIDTH 505 0
DWIDTH 10 0
BBX 10 9 0 0
BITMAP
6180
3300
1E00
1C00
0C00
1E00
3300
6380
E180
ENDCHAR
STARTCHAR y
ENCODING 121
SWIDTH 505 0
DWIDTH 10 0
BBX 10 13 0 -4
BITMAP
40C0
6180
6180
3180
3300
1B00
1E00
0E00
0E00
0C00
0C00
3800
3000
ENDCHAR
STARTCHAR z
ENCODING 122
SWIDTH 455 0
DWIDTH 9 0
BBX 9 9 0 0
BITMAP
7F00
7F00
0600
0C00
0800
1800
3000
7F00
7F00
ENDCHAR
STARTCHAR {
ENCODING 123
SWIDTH 354 0
DWIDTH 7 0
BBX 7 17 0 -2
BITMAP
1C
18
10
10
10
10
10
30
60
30
10
10
10
10
10
18
1C
ENDCHAR
STARTCHAR |
ENCODING 124
SWIDTH 202 0
DWIDTH 4 0
BBX 4 19 0 -5
BITMAP
60
60
60
60
60
60
60
60
60
60
60
60
60
60
60
60
60
60
60
ENDCHAR
STARTCHAR }
ENCODING 125
SWIDTH 354 0
DWIDTH 7 0
BBX 7 17 0 -2
BITMAP
60
30
10
10
10
10
10
18
0C
18
10
10
10
10
10
30
60
ENDCHAR
STARTCHAR ~
ENCODING 126
SWIDTH 505 0
DWIDTH 10 0
BBX 10 8 0 0
BITMAP
3880
3D80
6F80
4300
0000
0000
0000
0000
ENDCHAR
STARTCHAR U+00A0
ENCODING 160
SWIDTH 253 0
DWIDTH 5 0
BBX 5 22 0 -5
BITMAP
00
00
00
00
00
00
00
00
00
00
00
00
00
00
00
00
00
00
00
00
00
00
ENDCHAR
STARTCHAR U+00A1
ENCODING 161
SWIDTH 253 0
DWIDTH 5 0
BBX 5 14 0 -4
BITMAP
30
20
00
20
20
20
30
30
30
30
30
30
30
00
ENDCHAR
STARTCHAR U+00A2
ENCODING 162
SWIDTH 505 0
DWIDTH 10 0
BBX 10 11 0 -1
BITMAP
0600
1F00
3F80
7080
6000
6000
6000
7080
3F80
0F00
0600
ENDCHAR
STARTCHAR U+00A3
ENCODING 163
SWIDTH 505 0
DWIDTH 10 0
BBX 10 13 0 0
BITMAP
0700
0F80
1880
1800
1800
1800
7E00
7E00
3000
3000
3000
3F80
7F80
ENDCHAR
STARTCHAR U+00A4
ENCODING 164
SWIDTH 606 0
DWIDTH 12 0
BBX 12 10 0 0
BITMAP
2040
7FC0
3F80
3180
30C0
30C0
3180
3F80
7FC0
2040
ENDCHAR
STARTCHAR U+00A5
ENCODING 165
SWIDTH 606 0
DWIDTH 12 0
BBX 12 13 0 0
BITMAP
6060
30C0
39C0
1980
7FC0
0600
0600
7FC0
0600
0600
0600
0600
0600
ENDCHAR
STARTCHAR U+00A6
ENCODING 166
SWIDTH 202 0
DWIDTH 4 0
BBX 4 19 0 -5
BITMAP
60
60
60
60
60
60
60
00
00
00
00
60
60
60
60
60
60
60
60
ENDCHAR
STARTCHAR U+00A7
ENCODING 167
SWIDTH 455 0
DWIDTH 9 0
BBX 9 17 0 -4
BITMAP
3E00
7F00
6300
6000
6000
3C00
7F00
6300
C180
6300
3F00
0E00
0300
0300
6300
7F00
3E00
ENDCHAR
STARTCHAR U+00A8
ENCODING 168
SWIDTH 455 0
DWIDTH 9 0
BBX 9 13 0 0
BITMAP
FF80
FF80
C180
C180
C180
C180
C180
C180
C180
C180
C180
FF80
FF80
ENDCHAR
STARTCHAR U+00A9
ENCODING 169
SWIDTH 758 0
DWIDTH 15 0
BBX 15 13 0 0
BITMAP
07C0
1830
3018
27C8
4C44
4804
4804
4C04
47C4
2008
3018
1830
07C0
ENDCHAR
STARTCHAR U+00AA
ENCODING 170
SWIDTH 303 0
DWIDTH 6 0
BBX 6 13 0 0
BITMAP
78
08
38
48
48
78
00
00
00
00
00
00
00
ENDCHAR
STARTCHAR U+00AB
ENCODING 171
SWIDTH 556 0
DWIDTH 11 0
BBX 11 9 0 0
BITMAP
0880
1980
3300
6600
6600
3300
1980
0880
0000
ENDCHAR
STARTCHAR U+00AC
ENCODING 172
SWIDTH 505 0
DWIDTH 10 0
BBX 10 9 0 0
BITMAP
7F80
7F80
0180
0180
0180
0180
0000
0000
0000
ENDCHAR
STARTCHAR U+00AD
ENCODING 173
SWIDTH 354 0
DWIDTH 7 0
BBX 7 6 0 0
BITMAP
7E
7E
00
00
00
00
ENDCHAR
STARTCHAR U+00AE
ENCODING 174
SWIDTH 758 0
DWIDTH 15 0
BBX 15 13 0 0
BITMAP
07C0
1830
3008
2788
4644
4644
4784
4684
46C4
2668
3018
1830
07C0
ENDCHAR
STARTCHAR U+00AF
ENCODING 175
SWIDTH 455 0
DWIDTH 9 0
BBX 9 13 0 0
BITMAP
FF80
FF80
C180
C180
C180
C180
C180
C180
C180
C180
C180
FF80
FF80
ENDCHAR
STARTCHAR U+00B0
ENCODING 176
SWIDTH 354 0
DWIDTH 7 0
BBX 7 13 0 0
BITMAP
38
64
46
64
38
00
00
00
00
00
00
00
00
ENDCHAR
STARTCHAR U+00B1
ENCODING 177
SWIDTH 505 0
DWIDTH 10 0
BBX 10 12 0 -1
BITMAP
0C00
0C00
0C00
7F80
7F80
0C00
0C00
0C00
0000
0000
7F80
7F80
ENDCHAR
STARTCHAR U+00B2
ENCODING 178
SWIDTH 303 0
DWIDTH 6 0
BBX 6 13 0 0
BITMAP
78
48
08
18
18
30
30
7C
00
00
00
00
00
ENDCHAR
STARTCHAR U+00B3
ENCODING 179
SWIDTH 303 0
DWIDTH 6 0
BBX 6 13 0 0
BITMAP
78
18
10
38
0C
0C
48
78
00
00
00
00
00
ENDCHAR
STARTCHAR U+00B4
ENCODING 180
SWIDTH 455 0
DWIDTH 9 0
BBX 9 13 0 0
BITMAP
FF80
FF80
C180
C180
C180
C180
C180
C180
C180
C180
C180
FF80
FF80
ENDCHAR
STARTCHAR U+00B5
ENCODING 181
SWIDTH 556 0
DWIDTH 11 0
BBX 11 13 0 -4
BITMAP
20C0
20C0
20C0
20C0
20C0
20C0
31C0
3FC0
2EC0
2000
2000
2000
2000
ENDCHAR
STARTCHAR U+00B6
ENCODING 182
SWIDTH 505 0
DWIDTH 10 0
BBX 10 17 0 -4
BITMAP
1FC0
7D80
7D80
7D80
7D80
7D80
1D80
0580
0580
0580
0580
0580
0580
0580
0580
0580
0580
ENDCHAR
STARTCHAR U+00B7
ENCODING 183
SWIDTH 253 0
DWIDTH 5 0
BBX 5 8 0 0
BITMAP
20
70
20
00
00
00
00
00
ENDCHAR
STARTCHAR U+00B8
ENCODING 184
SWIDTH 455 0
DWIDTH 9 0
BBX 9 13 0 0
BITMAP
FF80
FF80
C180
C180
C180
C180
C180
C180
C180
C180
C180
FF80
FF80
ENDCHAR
STARTCHAR U+00B9
ENCODING 185
SWIDTH 202 0
DWIDTH 4 0
BBX 4 13 0 0
BITMAP
20
60
60
60
60
60
60
60
00
00
00
00
00
ENDCHAR
STARTCHAR U+00BA
ENCODING 186
SWIDTH 354 0
DWIDTH 7 0
BBX 7 13 0 0
BITMAP
38
64
46
46
64
38
00
00
00
00
00
00
00
ENDCHAR
STARTCHAR U+00BB
ENCODING 187
SWIDTH 556 0
DWIDTH 11 0
BBX 11 9 0 0
BITMAP
6600
3300
1980
0880
0CC0
1980
3300
6600
0000
ENDCHAR
STARTCHAR U+00BC
ENCODING 188
SWIDTH 758 0
DWIDTH 15 0
BBX 15 13 0 0
BITMAP
0000
0000
0000
0000
0000
0000
0000
0000
0000
0000
0000
0000
0000
ENDCHAR
STARTCHAR U+00BD
ENCODING 189
SWIDTH 808 0
DWIDTH 16 0
BBX 16 13 0 0
BITMAP
2060
6040
60C0
6080
6180
611E
6312
6202
0606
0406
0C0C
080C
181F
ENDCHAR
STARTCHAR U+00BE
ENCODING 190
SWIDTH 859 0
DWIDTH 17 0
BBX 17 13 0 0
BITMAP
783000
182000
106000
384000
0CC000
0C8200
498200
790600
030A00
021200
063F00
040200
0C0200
ENDCHAR
STARTCHAR U+00BF
ENCODING 191
SWIDTH 455 0
DWIDTH 9 0
BBX 9 13 0 -4
BITMAP
0800
1C00
0800
0800
0C00
0C00
1C00
3800
6000
6000
6300
3F00
1E00
ENDCHAR
STARTCHAR U+00C0
ENCODING 192
SWIDTH 657 0
DWIDTH 13 0
BBX 13 17 0 0
BITMAP
0C00
0400
0600
0000
0600
0700
0700
0D80
0D80
1980
18C0
10C0
3FE0
3FE0
6060
6030
6030
ENDCHAR
STARTCHAR U+00C1
ENCODING 193
SWIDTH 657 0
DWIDTH 13 0
BBX 13 17 0 0
BITMAP
0180
0300
0200
0000
0600
0700
0700
0D80
0D80
1980
18C0
10C0
3FE0
3FE0
6060
6030
6030
ENDCHAR
STARTCHAR U+00C2
ENCODING 194
SWIDTH 657 0
DWIDTH 13 0
BBX 13 17 0 0
BITMAP
0700
0580
0C80
0000
0600
0700
0700
0D80
0D80
1980
18C0
10C0
3FE0
3FE0
6060
6030
6030
ENDCHAR
STARTCHAR U+00C3
ENCODING 195
SWIDTH 657 0
DWIDTH 13 0
BBX 13 17 0 0
BITMAP
0C80
1F80
0380
0000
0600
0700
0700
0D80
0D80
1980
18C0
10C0
3FE0
3FE0
6060
6030
6030
ENDCHAR
STARTCHAR U+00C4
ENCODING 196
SWIDTH 657 0
DWIDTH 13 0
BBX 13 17 0 0
BITMAP
0880
1D80
0880
0000
0600
0700
0700
0D80
0D80
1980
18C0
10C0
3FE0
3FE0
6060
6030
6030
ENDCHAR
STARTCHAR U+00C5
ENCODING 197
SWIDTH 657 0
DWIDTH 13 0
BBX 13 17 0 0
BITMAP
0700
0500
0700
0000
0600
0700
0700
0D80
0D80
1980
18C0
10C0
3FE0
3FE0
6060
6030
6030
ENDCHAR
STARTCHAR U+00C6
ENCODING 198
SWIDTH 909 0
DWIDTH 18 0
BBX 18 13 0 0
BITMAP
01FF00
01FF00
036000
036000
066000
0C7E00
0C7E00
1FE000
1FE000
306000
306000
607F80
E07F80
ENDCHAR
STARTCHAR U+00C7
ENCODING 199
SWIDTH 657 0
DWIDTH 13 0
BBX 13 17 0 -4
BITMAP
07E0
0FF0
3C10
3000
6000
6000
6000
6000
7000
3000
1C30
0FF0
07C0
0300
0380
0080
0780
ENDCHAR
STARTCHAR U+00C8
ENCODING 200
SWIDTH 556 0
DWIDTH 11 0
BBX 11 17 0 0
BITMAP
0C00
0400
0600
0000
3FC0
3FC0
3000
3000
3000
3F00
3F00
3000
3000
3000
3000
3FC0
3FC0
ENDCHAR
STARTCHAR U+00C9
ENCODING 201
SWIDTH 556 0
DWIDTH 11 0
BBX 11 17 0 0
BITMAP
0300
0600
0400
0000
3FC0
3FC0
3000
3000
3000
3F00
3F00
3000
3000
3000
3000
3FC0
3FC0
ENDCHAR
STARTCHAR U+00CA
ENCODING 202
SWIDTH 556 0
DWIDTH 11 0
BBX 11 17 0 0
BITMAP
0E00
0B00
1900
0000
3FC0
3FC0
3000
3000
3000
3F00
3F00
3000
3000
3000
3000
3FC0
3FC0
ENDCHAR
STARTCHAR U+00CB
ENCODING 203
SWIDTH 556 0
DWIDTH 11 0
BBX 11 17 0 0
BITMAP
1100
3B00
1100
0000
3FC0
3FC0
3000
3000
3000
3F00
3F00
3000
3000
3000
3000
3FC0
3FC0
ENDCHAR
STARTCHAR U+00CC
ENCODING 204
SWIDTH 303 0
DWIDTH 6 0
BBX 6 17 0 0
BITMAP
60
20
30
00
30
30
30
30
30
30
30
30
30
30
30
30
30
ENDCHAR
STARTCHAR U+00CD
ENCODING 205
SWIDTH 303 0
DWIDTH 6 0
BBX 6 17 0 0
BITMAP
18
30
20
00
30
30
30
30
30
30
30
30
30
30
30
30
30
ENDCHAR
STARTCHAR U+00CE
ENCODING 206
SWIDTH 303 0
DWIDTH 6 0
BBX 6 17 0 0
BITMAP
00
00
00
00
00
00
00
00
00
00
00
00
00
00
00
00
00
ENDCHAR
STARTCHAR U+00CF
ENCODING 207
SWIDTH 303 0
DWIDTH 6 0
BBX 7 17 -1 0
BITMAP
44
EC
44
00
30
30
30
30
30
30
30
30
30
30
30
30
30
ENDCHAR
STARTCHAR U+00D0
ENCODING 208
SWIDTH 707 0
DWIDTH 14 0
BBX 14 13 0 0
BITMAP
3F80
3FC0
30E0
3030
3030
3018
7E18
3018
3030
3030
30E0
3FC0
3F80
ENDCHAR
STARTCHAR U+00D1
ENCODING 209
SWIDTH 758 0
DWIDTH 15 0
BBX 15 17 0 0
BITMAP
0640
0FC0
01C0
0000
3018
3818
3818
3C18
3618
3718
3398
3198
30D8
3078
3078
3038
3018
ENDCHAR
STARTCHAR U+00D2
ENCODING 210
SWIDTH 808 0
DWIDTH 16 0
BBX 16 17 0 0
BITMAP
0300
0100
0180
0000
07C0
0FF0
1C38
301C
700C
600C
6006
600C
700C
301C
1C38
0FF0
07C0
ENDCHAR
STARTCHAR U+00D3
ENCODING 211
SWIDTH 808 0
DWIDTH 16 0
BBX 16 17 0 0
BITMAP
00C0
0180
0100
0000
07C0
0FF0
1C38
301C
700C
600C
6006
600C
700C
301C
1C38
0FF0
07C0
ENDCHAR
STARTCHAR U+00D4
ENCODING 212
SWIDTH 808 0
DWIDTH 16 0
BBX 16 17 0 0
BITMAP
0380
02C0
0640
0000
07C0
0FF0
1C38
301C
700C
600C
6006
600C
700C
301C
1C38
0FF0
07C0
ENDCHAR
STARTCHAR U+00D5
ENCODING 213
SWIDTH 808 0
DWIDTH 16 0
BBX 16 17 0 0
BITMAP
0640
0FC0
01C0
0000
07C0
0FF0
1C38
301C
700C
600C
6006
600C
700C
301C
1C38
0FF0
07C0
ENDCHAR
STARTCHAR U+00D6
ENCODING 214
SWIDTH 808 0
DWIDTH 16 0
BBX 16 17 0 0
BITMAP
0220
0760
0220
0000
07C0
0FF0
1C38
301C
700C
600C
6006
600C
700C
301C
1C38
0FF0
07C0
ENDCHAR
STARTCHAR U+00D7
ENCODING 215
SWIDTH 505 0
DWIDTH 10 0
BBX 10 10 0 0
BITMAP
2100
3300
1E00
0C00
1E00
3300
2100
0000
0000
0000
ENDCHAR
STARTCHAR U+00D8
ENCODING 216
SWIDTH 808 0
DWIDTH 16 0
BBX 16 13 0 0
BITMAP
07C4
0FFC
1C38
303C
606C
60CC
6186
630C
760C
3C1C
1C38
3FF0
27C0
ENDCHAR
STARTCHAR U+00D9
ENCODING 217
SWIDTH 758 0
DWIDTH 15 0
BBX 15 17 0 0
BITMAP
0600
0200
0300
0000
3018
3018
3018
3018
3018
3018
3018
3018
3018
3038
1870
1FE0
07C0
ENDCHAR
STARTCHAR U+00DA
ENCODING 218
SWIDTH 758 0
DWIDTH 15 0
BBX 15 17 0 0
BITMAP
00C0
0180
0100
0000
3018
3018
3018
3018
3018
3018
3018
3018
3018
3038
1870
1FE0
07C0
ENDCHAR
STARTCHAR U+00DB
ENCODING 219
SWIDTH 758 0
DWIDTH 15 0
BBX 15 17 0 0
BITMAP
0380
02C0
0640
0000
3018
3018
3018
3018
3018
3018
3018
3018
3018
3038
1870
1FE0
07C0
ENDCHAR
STARTCHAR U+00DC
ENCODING 220
SWIDTH 758 0
DWIDTH 15 0
BBX 15 17 0 0
BITMAP
0440
0EC0
0440
0000
3018
3018
3018
3018
3018
3018
3018
3018
3018
3038
1870
1FE0
07C0
ENDCHAR
STARTCHAR U+00DD
ENCODING 221
SWIDTH 556 0
DWIDTH 11 0
BBX 12 17 0 0
BITMAP
0300
0600
0400
0000
6060
60C0
31C0
3980
1B00
0F00
0E00
0600
0600
0600
0600
0600
0600
ENDCHAR
STARTCHAR U+00DE
ENCODING 222
SWIDTH 556 0
DWIDTH 11 0
BBX 11 13 0 0
BITMAP
3000
3000
3000
3F00
3FC0
30C0
30C0
30C0
30C0
3F80
3F00
3000
3000
ENDCHAR
STARTCHAR U+00DF
ENCODING 223
SWIDTH 505 0
DWIDTH 10 0
BBX 10 13 0 0
BITMAP
1E00
3F80
3180
2180
2180
2700
2700
2180
20C0
20C0
21C0
2F80
2F00
ENDCHAR
STARTCHAR U+00E0
ENCODING 224
SWIDTH 505 0
DWIDTH 10 0
BBX 10 13 0 0
BITMAP
1800
0800
0C00
0000
1E00
3F00
4300
1F00
3100
6100
6300
7F00
3D00
ENDCHAR
STARTCHAR U+00E1
ENCODING 225
SWIDTH 505 0
DWIDTH 10 0
BBX 10 13 0 0
BITMAP
0600
0C00
0800
0000
1E00
3F00
4300
1F00
3100
6100
6300
7F00
3D00
ENDCHAR
STARTCHAR U+00E2
ENCODING 226
SWIDTH 505 0
DWIDTH 10 0
BBX 10 13 0 0
BITMAP
1C00
1600
3200
0000
1E00
3F00
4300
1F00
3100
6100
6300
7F00
3D00
ENDCHAR
STARTCHAR U+00E3
ENCODING 227
SWIDTH 505 0
DWIDTH 10 0
BBX 10 13 0 0
BITMAP
1900
3F00
0700
0000
1E00
3F00
4300
1F00
3100
6100
6300
7F00
3D00
ENDCHAR
STARTCHAR U+00E4
ENCODING 228
SWIDTH 505 0
DWIDTH 10 0
BBX 10 13 0 0
BITMAP
1100
3B00
1100
0000
1E00
3F00
4300
1F00
3100
6100
6300
7F00
3D00
ENDCHAR
STARTCHAR U+00E5
ENCODING 229
SWIDTH 505 0
DWIDTH 10 0
BBX 10 13 0 0
BITMAP
1C00
1400
1C00
0000
1E00
3F00
4300
1F00
3100
6100
6300
7F00
3D00
ENDCHAR
STARTCHAR U+00E6
ENCODING 230
SWIDTH 808 0
DWIDTH 16 0
BBX 16 9 0 0
BITMAP
1EF8
3FFC
4386
0FFE
3300
6180
63C6
7FFE
3C78
ENDCHAR
STARTCHAR U+00E7
ENCODING 231
SWIDTH 505 0
DWIDTH 10 0
BBX 10 13 0 -4
BITMAP
0F00
3F80
7080
6000
6000
6000
7080
3F80
0F00
0400
0700
0300
0E00
ENDCHAR
STARTCHAR U+00E8
ENCODING 232
SWIDTH 505 0
DWIDTH 10 0
BBX 10 13 0 0
BITMAP
1800
0800
0C00
0000
1F00
3F80
6180
7FC0
7FC0
6000
7080
3F80
1F00
ENDCHAR
STARTCHAR U+00E9
ENCODING 233
SWIDTH 505 0
DWIDTH 10 0
BBX 10 13 0 0
BITMAP
0600
0C00
0800
0000
1F00
3F80
6180
7FC0
7FC0
6000
7080
3F80
1F00
ENDCHAR
STARTCHAR U+00EA
ENCODING 234
SWIDTH 505 0
DWIDTH 10 0
BBX 10 13 0 0
BITMAP
0E00
0B00
1900
0000
1F00
3F80
6180
7FC0
7FC0
6000
7080
3F80
1F00
ENDCHAR
STARTCHAR U+00EB
ENCODING 235
SWIDTH 505 0
DWIDTH 10 0
BBX 10 13 0 0
BITMAP
1100
3B00
1100
0000
1F00
3F80
6180
7FC0
7FC0
6000
7080
3F80
1F00
ENDCHAR
STARTCHAR U+00EC
ENCODING 236
SWIDTH 253 0
DWIDTH 5 0
BBX 6 13 -1 0
BITMAP
60
20
30
00
10
10
10
10
10
10
10
10
10
ENDCHAR
STARTCHAR U+00ED
ENCODING 237
SWIDTH 253 0
DWIDTH 5 0
BBX 6 13 0 0
BITMAP
18
30
20
00
20
20
20
20
20
20
20
20
20
ENDCHAR
STARTCHAR U+00EE
ENCODING 238
SWIDTH 253 0
DWIDTH 5 0
BBX 7 13 -1 0
BITMAP
70
58
C8
00
20
20
20
20
20
20
20
20
20
ENDCHAR
STARTCHAR U+00EF
ENCODING 239
SWIDTH 253 0
DWIDTH 5 0
BBX 7 13 -1 0
BITMAP
44
EC
44
00
10
10
10
10
10
10
10
10
10
ENDCHAR
STARTCHAR U+00F0
ENCODING 240
SWIDTH 556 0
DWIDTH 11 0
BBX 11 13 0 0
BITMAP
1900
1E00
1E00
3300
1F80
3F80
71C0
60C0
60C0
60C0
7180
3F80
1E00
ENDCHAR
STARTCHAR U+00F1
ENCODING 241
SWIDTH 556 0
DWIDTH 11 0
BBX 11 13 0 0
BITMAP
1900
3F00
0700
0000
2F00
3F80
31C0
20C0
20C0
20C0
20C0
20C0
20C0
ENDCHAR
STARTCHAR U+00F2
ENCODING 242
SWIDTH 606 0
DWIDTH 12 0
BBX 12 13 0 0
BITMAP
0C00
0400
0600
0000
0F00
3F80
70C0
6060
6060
6060
70C0
3F80
1F00
ENDCHAR
STARTCHAR U+00F3
ENCODING 243
SWIDTH 606 0
DWIDTH 12 0
BBX 12 13 0 0
BITMAP
0300
0600
0400
0000
0F00
3F80
70C0
6060
6060
6060
70C0
3F80
1F00
ENDCHAR
STARTCHAR U+00F4
ENCODING 244
SWIDTH 606 0
DWIDTH 12 0
BBX 12 13 0 0
BITMAP
0E00
0B00
1900
0000
0F00
3F80
70C0
6060
6060
6060
70C0
3F80
1F00
ENDCHAR
STARTCHAR U+00F5
ENCODING 245
SWIDTH 606 0
DWIDTH 12 0
BBX 12 13 0 0
BITMAP
1900
3F00
0700
0000
0F00
3F80
70C0
6060
6060
6060
70C0
3F80
1F00
ENDCHAR
STARTCHAR U+00F6
ENCODING 246
SWIDTH 606 0
DWIDTH 12 0
BBX 12 13 0 0
BITMAP
0880
1D80
0880
0000
0F00
3F80
70C0
6060
6060
6060
70C0
3F80
1F00
ENDCHAR
STARTCHAR U+00F7
ENCODING 247
SWIDTH 505 0
DWIDTH 10 0
BBX 10 11 0 0
BITMAP
0400
0E00
0400
0000
7F80
7F80
0400
0E00
0400
0000
0000
ENDCHAR
STARTCHAR U+00F8
ENCODING 248
SWIDTH 606 0
DWIDTH 12 0
BBX 12 9 0 0
BITMAP
0F40
3F80
71C0
6360
6660
6C60
78C0
3F80
3F00
ENDCHAR
STARTCHAR U+00F9
ENCODING 249
SWIDTH 556 0
DWIDTH 11 0
BBX 11 13 0 0
BITMAP
0C00
0400
0600
0000
60C0
60C0
60C0
60C0
60C0
60C0
31C0
3FC0
1EC0
ENDCHAR
STARTCHAR U+00FA
ENCODING 250
SWIDTH 556 0
DWIDTH 11 0
BBX 11 13 0 0
BITMAP
0300
0600
0400
0000
60C0
60C0
60C0
60C0
60C0
60C0
31C0
3FC0
1EC0
ENDCHAR
STARTCHAR U+00FB
ENCODING 251
SWIDTH 556 0
DWIDTH 11 0
BBX 11 13 0 0
BITMAP
0E00
0B00
1900
0000
60C0
60C0
60C0
60C0
60C0
60C0
31C0
3FC0
1EC0
ENDCHAR
STARTCHAR U+00FC
ENCODING 252
SWIDTH 556 0
DWIDTH 11 0
BBX 11 13 0 0
BITMAP
1100
3B00
1100
0000
60C0
60C0
60C0
60C0
60C0
60C0
31C0
3FC0
1EC0
ENDCHAR
STARTCHAR U+00FD
ENCODING 253
SWIDTH 505 0
DWIDTH 10 0
BBX 10 17 0 -4
BITMAP
0600
0C00
0800
0000
40C0
6180
6180
3180
3300
1B00
1E00
0E00
0E00
0C00
0C00
3800
3000
ENDCHAR
STARTCHAR U+00FE
ENCODING 254
SWIDTH 556 0
DWIDTH 11 0
BBX 11 17 0 -4
BITMAP
2000
2000
2000
2000
2F00
3F80
31C0
20C0
2060
20C0
31C0
3F80
2F00
2000
2000
2000
2000
ENDCHAR
STARTCHAR U+00FF
ENCODING 255
SWIDTH 505 0
DWIDTH 10 0
BBX 10 17 0 -4
BITMAP
1100
3B00
1100
0000
40C0
6180
6180
3180
3300
1B00
1E00
0E00
0E00
0C00
0C00
3800
3000
ENDCHAR
STARTCHAR U+2013
ENCODING 8211
SWIDTH 505 0
DWIDTH 10 0
BBX 11 6 -1 0
BITMAP
FFC0
FFC0
0000
0000
0000
0000
ENDCHAR
STARTCHAR U+2014
ENCODING 8212
SWIDTH 960 0
DWIDTH 19 0
BBX 21 6 -1 0
BITMAP
FFFFE0
FFFFE0
000000
000000
000000
000000
ENDCHAR
STARTCHAR U+2018
ENCODING 8216
SWIDTH 253 0
DWIDTH 5 0
BBX 5 13 0 0
BITMAP
20
20
60
20
00
00
00
00
00
00
00
00
00
ENDCHAR
STARTCHAR U+2019
ENCODING 8217
SWIDTH 253 0
DWIDTH 5 0
BBX 5 13 0 0
BITMAP
20
60
20
20
40
00
00
00
00
00
00
00
00
ENDCHAR
STARTCHAR U+201C
ENCODING 8220
SWIDTH 404 0
DWIDTH 8 0
BBX 8 13 0 0
BITMAP
24
24
6C
24
00
00
00
00
00
00
00
00
00
ENDCHAR
STARTCHAR U+201D
ENCODING 8221
SWIDTH 404 0
DWIDTH 8 0
BBX 8 13 0 0
BITMAP
24
6C
24
24
48
00
00
00
00
00
00
00
00
ENDCHAR
STARTCHAR U+2022
ENCODING 8226
SWIDTH 404 0
DWIDTH 8 0
BBX 8 8 0 0
BITMAP
08
18
3C
18
08
00
00
00
ENDCHAR
STARTCHAR U+2026
ENCODING 8230
SWIDTH 859 0
DWIDTH 17 0
BBX 17 3 0 0
BITMAP
208100
618300
208100
ENDCHAR
STARTCHAR U+20AC
ENCODING 8364
SWIDTH 606 0
DWIDTH 12 0
BBX 12 13 0 0
BITMAP
07C0
1FE0
3820
3000
7F80
6000
6000
7F00
3000
3800
1C20
0FE0
07C0
ENDCHAR
ENDFONT
