STARTFONT 2.1
COMMENT Converted from Johnston100 W03 Regular.ttf at 49px with ttf2bdf.py (Pillow, 1-bit, no AA)
FONT -Misc-Johnston100-Medium-R-Normal--49-490-75-75-P-510-ISO10646-1
SIZE 49 75 75
FONTBOUNDINGBOX 51 57 -2 -13
STARTPROPERTIES 9
FOUNDRY "Misc"
FAMILY_NAME "Johnston100"
WEIGHT_NAME "Medium"
SLANT "R"
PIXEL_SIZE 49
RESOLUTION_X 75
RESOLUTION_Y 75
FONT_ASCENT 44
FONT_DESCENT 13
ENDPROPERTIES
CHARS 200
STARTCHAR space
ENCODING 32
SWIDTH 255 0
DWIDTH 13 0
BBX 13 57 0 -13
BITMAP
0000
0000
0000
0000
0000
0000
0000
0000
0000
0000
0000
0000
0000
0000
0000
0000
0000
0000
0000
0000
0000
0000
0000
0000
0000
0000
0000
0000
0000
0000
0000
0000
0000
0000
0000
0000
0000
0000
0000
0000
0000
0000
0000
0000
0000
0000
0000
0000
0000
0000
0000
0000
0000
0000
0000
0000
0000
ENDCHAR
STARTCHAR !
ENCODING 33
SWIDTH 274 0
DWIDTH 14 0
BBX 14 33 0 0
BITMAP
0FC0
0FC0
0FC0
0FC0
0FC0
0FC0
0FC0
0FC0
0FC0
0FC0
07C0
07C0
0780
0780
0780
0780
0780
0780
0780
0780
0780
0780
0780
0380
0380
0000
0000
0300
0780
0FC0
07C0
0380
0100
ENDCHAR
STARTCHAR "
ENCODING 34
SWIDTH 392 0
DWIDTH 20 0
BBX 20 33 0 0
BITMAP
1F0F80
1F0F80
1F0F80
1F0F80
1F0F80
1F0F80
1F0F80
0F0F80
0F0700
0E0700
0E0700
0E0700
060700
000000
000000
000000
000000
000000
000000
000000
000000
000000
000000
000000
000000
000000
000000
000000
000000
000000
000000
000000
000000
ENDCHAR
STARTCHAR U+0023
ENCODING 35
SWIDTH 725 0
DWIDTH 37 0
BBX 37 33 0 0
BITMAP
0000300200
0001E01E00
0001E03C00
0001E03C00
0003C03C00
0003C03C00
0003C07800
0007807800
0007807800
07FFFFFFF0
07FFFFFFE0
07FFFFFFE0
07FFFFFFE0
000F01E000
001E01E000
001E01E000
001E03C000
001E03C000
003C03C000
003C078000
3FFFFFFF80
3FFFFFFF00
3FFFFFFF00
3FFFFFFF00
00780F0000
00F00F0000
00F00E0000
00F01E0000
01E01E0000
01E01E0000
01E03C0000
01C03C0000
0300200000
ENDCHAR
STARTCHAR $
ENCODING 36
SWIDTH 490 0
DWIDTH 25 0
BBX 25 40 0 -4
BITMAP
003C0000
003C0000
003C0000
00FE0000
03FFC000
07FFE000
0FFFF000
0FE7F000
1F81E000
1F008000
1F000000
1F000000
1F800000
1FC00000
0FE00000
0FF80000
07FE0000
03FF8000
00FFE000
007FF000
000FF800
0007FC00
0001FC00
0000FC00
00007E00
00007E00
00003E00
08003E00
1C007C00
7E007C00
3F00FC00
3F83F800
1FFFF000
0FFFE000
07FFC000
00FF0000
003C0000
003C0000
003C0000
00000000
ENDCHAR
STARTCHAR %
ENCODING 37
SWIDTH 725 0
DWIDTH 37 0
BBX 37 33 0 0
BITMAP
01F0007800
07FC00F000
0FFE00F000
1FFF01E000
1F1F01E000
1E0783C000
3C0783C000
3C07878000
1E078F0000
1F1F0F0000
1FFF1E0000
0FFE1E0000
07FC3C0000
01F03C0000
0000780000
0000780000
0000F00000
0000F00000
0001E00000
0001E0FC00
0003C3FE00
0003C7FF00
000787FF80
00078F87C0
000F0F03C0
000F0F03C0
001E0F03C0
001E0F03C0
003C0F87C0
003C07FF80
007807FF00
007803FE00
00F000FC00
ENDCHAR
STARTCHAR &
ENCODING 38
SWIDTH 666 0
DWIDTH 34 0
BBX 34 33 0 0
BITMAP
001FC00000
007FF00000
00FFF80000
01FFFC0000
03F0FC0000
03E07E0000
03E03E0000
03C03E0000
03E03E0000
03E03E0000
03F07C0000
01F8FC0000
00FFF80000
00FFF00000
007FC00000
00FF800000
03FFC07C00
07FFE07C00
0FE7E07C00
0F83F0F800
1F01F8F800
1F00FDF000
3E007FF000
3E003FE000
3E001FC000
3F000FC000
1F803FE000
1FC0FFF000
0FFFFFF800
0FFFFDFC00
07FFF0FC00
01FFE07E00
007F003F00
ENDCHAR
STARTCHAR '
ENCODING 39
SWIDTH 216 0
DWIDTH 11 0
BBX 11 33 0 0
BITMAP
1F00
1F00
1F00
1F00
1F00
1F00
1F00
0F00
0F00
0E00
0E00
0E00
0600
0000
0000
0000
0000
0000
0000
0000
0000
0000
0000
0000
0000
0000
0000
0000
0000
0000
0000
0000
0000
ENDCHAR
STARTCHAR (
ENCODING 40
SWIDTH 255 0
DWIDTH 13 0
BBX 13 40 0 -4
BITMAP
01E0
01E0
03C0
03C0
07C0
0780
0780
0F80
0F80
0F00
0F00
0F00
1F00
1F00
1F00
1E00
1E00
1E00
1E00
1E00
1E00
1E00
1E00
1E00
1E00
1F00
1F00
1F00
0F00
0F00
0F00
0F80
0F80
0780
0780
07C0
03C0
03C0
01E0
01E0
ENDCHAR
STARTCHAR )
ENCODING 41
SWIDTH 255 0
DWIDTH 13 0
BBX 13 40 0 -4
BITMAP
3C00
3C00
3E00
1E00
1F00
0F00
0F00
0F80
0F80
0780
0780
0780
07C0
07C0
07C0
07C0
03C0
03C0
03C0
03C0
03C0
03C0
03C0
03C0
07C0
07C0
07C0
07C0
0780
0780
0780
0F80
0F00
0F00
0F00
1F00
1E00
3E00
3C00
3C00
ENDCHAR
STARTCHAR *
ENCODING 42
SWIDTH 392 0
DWIDTH 20 0
BBX 20 33 0 0
BITMAP
00F000
00F000
00F000
10F180
1C6380
3E67C0
1FEF80
03FE00
00F800
03FC00
1F6F00
3E67C0
1C6380
10F180
00F000
00F000
00F000
000000
000000
000000
000000
000000
000000
000000
000000
000000
000000
000000
000000
000000
000000
000000
000000
ENDCHAR
STARTCHAR +
ENCODING 43
SWIDTH 509 0
DWIDTH 26 0
BBX 26 26 0 0
BITMAP
001E0000
001E0000
001E0000
001E0000
001E0000
001E0000
001E0000
1FFFFE00
1FFFFE00
1FFFFE00
1FFFFE00
001E0000
001E0000
001E0000
001E0000
001E0000
001E0000
001E0000
00000000
00000000
00000000
00000000
00000000
00000000
00000000
00000000
ENDCHAR
STARTCHAR ,
ENCODING 44
SWIDTH 235 0
DWIDTH 12 0
BBX 12 13 0 -6
BITMAP
0000
0600
0F00
1F80
1F80
0F80
0780
0700
0700
0600
0C00
1800
0000
ENDCHAR
STARTCHAR -
ENCODING 45
SWIDTH 372 0
DWIDTH 19 0
BBX 19 15 0 0
BITMAP
3FFF80
3FFF80
3FFF80
3FFF80
000000
000000
000000
000000
000000
000000
000000
000000
000000
000000
000000
ENDCHAR
STARTCHAR .
ENCODING 46
SWIDTH 235 0
DWIDTH 12 0
BBX 12 7 0 0
BITMAP
0200
0700
1F80
1F80
0F80
0700
0200
ENDCHAR
STARTCHAR /
ENCODING 47
SWIDTH 313 0
DWIDTH 16 0
BBX 16 40 0 -4
BITMAP
001F
001E
001E
003E
003E
003C
003C
007C
0078
0078
00F8
00F8
00F0
00F0
01F0
01E0
01E0
03E0
03C0
03C0
03C0
07C0
0780
0780
0F80
0F00
0F00
0F00
1F00
1E00
1E00
3E00
3C00
3C00
3C00
7C00
7800
7800
F800
F000
ENDCHAR
STARTCHAR 0
ENCODING 48
SWIDTH 568 0
DWIDTH 29 0
BBX 29 33 0 0
BITMAP
001F8000
007FE000
00FFF800
01FFF800
03FFFC00
07F0FE00
07E03E00
07C03F00
0F801F00
0F801F00
0F801F00
0F800F80
1F000F80
1F000F80
1F000F80
1F000F80
1F000F80
1F000F80
1F000F80
1F000F80
1F000F80
0F800F80
0F801F00
0F801F00
0F801F00
07C03F00
07E03E00
07F0FE00
03FFFC00
01FFF800
00FFF000
007FE000
001F8000
ENDCHAR
STARTCHAR 1
ENCODING 49
SWIDTH 274 0
DWIDTH 14 0
BBX 14 33 0 0
BITMAP
0040
01C0
03C0
07C0
07C0
07C0
07C0
07C0
07C0
07C0
07C0
07C0
07C0
07C0
07C0
07C0
07C0
07C0
07C0
07C0
07C0
07C0
07C0
07C0
07C0
07C0
07C0
07C0
07C0
07C0
07C0
07C0
07C0
ENDCHAR
STARTCHAR 2
ENCODING 50
SWIDTH 470 0
DWIDTH 24 0
BBX 24 33 0 0
BITMAP
007F00
01FFC0
03FFE0
07FFF0
0FFFF8
0F83F8
0F00FC
0C00FC
08007C
10007C
00007C
00007C
0000F8
0000F8
0001F0
0001F0
0003E0
0007E0
0007C0
000F80
001F80
001F00
003E00
007E00
007C00
00F800
01F800
01F000
03FFFE
07FFFE
07FFFE
0FFFFE
1FFFFE
ENDCHAR
STARTCHAR 3
ENCODING 51
SWIDTH 490 0
DWIDTH 25 0
BBX 25 33 0 0
BITMAP
1FFFFE00
1FFFFC00
1FFFFC00
1FFFF800
1FFFF000
0001F000
0003E000
0007C000
0007C000
000F8000
000F0000
001F0000
003F8000
003FE000
007FF000
00FFF800
0083FC00
0000FE00
00007E00
00003E00
00003E00
00003E00
00001E00
00001E00
00003E00
00003E00
08007C00
1C00FC00
3F03F800
3FFFF000
0FFFE000
07FFC000
01FE0000
ENDCHAR
STARTCHAR 4
ENCODING 52
SWIDTH 549 0
DWIDTH 28 0
BBX 28 33 0 0
BITMAP
00000000
00000400
00000C00
00001C00
00001C00
00003C00
00007C00
0000FC00
0001FC00
0003FC00
0007FC00
0007BC00
000FBC00
001F3C00
003E3C00
007C3C00
00F83C00
01F03C00
01E03C00
03E03C00
07C03C00
0FFFFFE0
1FFFFFE0
3FFFFFE0
7FFFFFE0
00003C00
00003C00
00003C00
00003C00
00003C00
00003C00
00003C00
00003C00
ENDCHAR
STARTCHAR 5
ENCODING 53
SWIDTH 490 0
DWIDTH 25 0
BBX 25 33 0 0
BITMAP
03FFFE00
03FFFC00
07FFFC00
07FFF800
07FFF800
07C00000
07C00000
07C00000
07C00000
07C00000
07800000
07FE0000
0FFF8000
0FFFE000
0FFFF000
0C07F800
0001F800
0000FC00
00007C00
00007C00
00007C00
00003C00
00003C00
00007C00
00007C00
20007C00
3000F800
7C01F800
FF07F000
7FFFE000
1FFFC000
0FFF8000
01FE0000
ENDCHAR
STARTCHAR 6
ENCODING 54
SWIDTH 509 0
DWIDTH 26 0
BBX 26 33 0 0
BITMAP
0007F000
000FE000
001FC000
003F8000
003F0000
007E0000
00FC0000
01FC0000
01F80000
03F00000
03F00000
07E00000
07EFC000
0FDFF000
0FFFFC00
0FFFFE00
0FFFFE00
1FE07F00
1F803F00
1F001F00
1F000F80
1F000F80
1F000F80
1F000F80
0F800F00
0F801F00
0FC03F00
07F07E00
07FFFE00
03FFFC00
01FFF800
00FFF000
003F8000
ENDCHAR
STARTCHAR 7
ENCODING 55
SWIDTH 470 0
DWIDTH 24 0
BBX 24 33 0 0
BITMAP
1FFFFE
1FFFFE
1FFFFC
1FFFFC
1FFFFC
0000F8
0000F8
0001F0
0001F0
0003E0
0003E0
0007C0
0007C0
000FC0
000F80
000F80
001F00
001F00
003E00
003E00
007C00
007C00
00FC00
00F800
01F800
01F000
03F000
03E000
07E000
07C000
07C000
0FC000
0F8000
ENDCHAR
STARTCHAR 8
ENCODING 56
SWIDTH 509 0
DWIDTH 26 0
BBX 26 33 0 0
BITMAP
003F0000
00FFE000
03FFF000
03FFF800
07E1F800
07C07C00
0F807C00
0F807C00
0F807C00
0F807C00
07C0F800
07E1F800
03FBF000
01FFE000
00FFC000
00FFE000
03FFF000
07F3F800
0FC0FC00
0F807E00
1F003E00
1F003F00
1E001F00
3E001F00
1F001F00
1F003F00
1F807E00
1FC0FE00
0FFFFC00
07FFF800
03FFF000
01FFE000
007F0000
ENDCHAR
STARTCHAR 9
ENCODING 57
SWIDTH 509 0
DWIDTH 26 0
BBX 26 33 0 0
BITMAP
007F0000
01FFC000
07FFE000
0FFFF000
1FFFF800
1F83FC00
3F00FC00
3E007C00
3E007E00
7C003E00
7C003E00
7C003E00
7C003E00
3E003E00
3F003E00
3F80FE00
1FFFFC00
0FFFFC00
0FFFFC00
03FFFC00
00FEF800
0000F800
0001F000
0003F000
0003E000
0007E000
000FC000
001F8000
003F8000
007F0000
00FE0000
01FC0000
03F80000
ENDCHAR
STARTCHAR :
ENCODING 58
SWIDTH 274 0
DWIDTH 14 0
BBX 14 26 0 0
BITMAP
0100
0380
0FC0
0FC0
07C0
0380
0100
0000
0000
0000
0000
0000
0000
0000
0000
0000
0000
0000
0000
0100
0380
0FC0
0FC0
07C0
0380
0100
ENDCHAR
STARTCHAR ;
ENCODING 59
SWIDTH 274 0
DWIDTH 14 0
BBX 14 31 0 -6
BITMAP
0100
0380
0FC0
0FC0
07C0
0380
0100
0000
0000
0000
0000
0000
0000
0000
0000
0000
0000
0000
0000
0180
03C0
07E0
07E0
03E0
01E0
01C0
01C0
0180
0300
0600
0000
ENDCHAR
STARTCHAR U+003C
ENCODING 60
SWIDTH 509 0
DWIDTH 26 0
BBX 26 29 0 0
BITMAP
00000600
00000E00
00003E00
0000FE00
0003FE00
000FFC00
003FF000
00FFC000
03FF0000
0FFC0000
1FF00000
1FC00000
1FC00000
1FF80000
0FFE0000
03FF8000
007FE000
001FF800
0007FE00
0001FE00
00007E00
00001E00
00000600
00000000
00000000
00000000
00000000
00000000
00000000
ENDCHAR
STARTCHAR =
ENCODING 61
SWIDTH 509 0
DWIDTH 26 0
BBX 26 23 0 0
BITMAP
1FFFFE00
1FFFFE00
1FFFFE00
1FFFFE00
00000000
00000000
00000000
00000000
00000000
00000000
1FFFFE00
1FFFFE00
1FFFFE00
1FFFFE00
00000000
00000000
00000000
00000000
00000000
00000000
00000000
00000000
00000000
ENDCHAR
STARTCHAR U+003E
ENCODING 62
SWIDTH 509 0
DWIDTH 26 0
BBX 26 29 0 0
BITMAP
18000000
1E000000
1F800000
1FE00000
1FF00000
07FC0000
01FF0000
007FC000
003FF000
000FFC00
0003FE00
0000FE00
0000FE00
0003FE00
000FFC00
007FF000
01FFC000
07FF0000
1FF80000
1FE00000
1F800000
1E000000
18000000
00000000
00000000
00000000
00000000
00000000
00000000
ENDCHAR
STARTCHAR ?
ENCODING 63
SWIDTH 431 0
DWIDTH 22 0
BBX 22 33 0 0
BITMAP
01FC00
07FF00
1FFF80
3FFFC0
7FFFE0
7E07E0
3C03E0
1001F0
0001F0
0001F0
0003E0
0007E0
000FC0
003FC0
007F80
00FE00
01FC00
03F000
03E000
03E000
03F000
01F800
01F800
00F000
006000
000000
002000
00E000
01F000
03F800
01F800
007000
002000
ENDCHAR
STARTCHAR @
ENCODING 64
SWIDTH 921 0
DWIDTH 47 0
BBX 47 42 0 -9
BITMAP
00000FFC0000
0000FFFF8000
0003FFFFE000
000FFFFFF800
001FF007FC00
003F8000FF00
007E00003F00
00FC00000F80
01F0000007C0
03E007F083C0
03E01FFF83E0
07C07FFF81E0
0780FFFF81F0
0F80FC0F80F0
0F01F00780F0
0F03E00780F0
1F03E00F80F0
1E03C00F00F0
1E07C00F00F0
1E07C00F00F0
1E07800F00F0
1E07800F00F0
1E07800F00F0
1E07800F00F0
1E07801F01E0
1E07C01F01E0
1E03C01F03E0
1F03E01F0FC0
0F03F87FFF80
0F01FFFFFF00
0F80FFF7FE00
07807FE1F800
07C01F800000
03E000000000
03F000000000
01FC00008000
00FE00038000
007FC01F8000
001FFFFF8000
000FFFFF8000
0003FFFE0000
00003FF00000
ENDCHAR
STARTCHAR A
ENCODING 65
SWIDTH 647 0
DWIDTH 33 0
BBX 33 33 0 0
BITMAP
0003E00000
0003E00000
0007E00000
0007F00000
000FF00000
000FF80000
000FF80000
001F780000
001F7C0000
003E7C0000
003E3E0000
003C3E0000
007C1F0000
007C1F0000
00F81F0000
00F80F8000
00F00F8000
01F007C000
01F007C000
03E007C000
03FFFFE000
03FFFFE000
07FFFFF000
07FFFFF000
0F8000F800
0F8000F800
0F0000F800
1F00007C00
1F00007C00
3E00007E00
3E00003E00
3E00003E00
7C00003F00
ENDCHAR
STARTCHAR B
ENCODING 66
SWIDTH 588 0
DWIDTH 30 0
BBX 30 33 0 0
BITMAP
07FFC000
07FFF000
07FFF800
07FFFC00
07C0FE00
07C07E00
07C03F00
07C01F00
07C01F00
07C01F00
07C03E00
07C03E00
07C0FC00
07FFF800
07FFFC00
07FFFF00
07FFFF80
07C01FC0
07C00FC0
07C007E0
07C003E0
07C003E0
07C003E0
07C003E0
07C003E0
07C003E0
07C007E0
07C00FC0
07C01FC0
07FFFF80
07FFFF00
07FFFC00
07FFF000
ENDCHAR
STARTCHAR C
ENCODING 67
SWIDTH 647 0
DWIDTH 33 0
BBX 33 33 0 0
BITMAP
0000FF8000
0007FFF000
001FFFFC00
007FFFFE00
00FF807E00
01FC001E00
03F8000600
03E0000000
07C0000000
0FC0000000
0F80000000
0F80000000
1F00000000
1F00000000
1F00000000
1F00000000
1F00000000
1F00000000
1F00000000
1F00000000
1F80000000
0F80000000
0F80000000
0FC0000000
07E0000000
03F0000000
03F8000600
01FC001E00
00FF807E00
003FFFFE00
001FFFF800
0007FFF000
0000FF0000
ENDCHAR
STARTCHAR D
ENCODING 68
SWIDTH 705 0
DWIDTH 36 0
BBX 36 33 0 0
BITMAP
07FFE00000
07FFFE0000
07FFFF8000
07FFFFC000
07C03FF000
07C007F800
07C001FC00
07C000FC00
07C0007E00
07C0003E00
07C0003F00
07C0001F00
07C0001F00
07C0001F80
07C0000F80
07C0000F80
07C0000F80
07C0000F80
07C0000F80
07C0001F80
07C0001F00
07C0001F00
07C0003F00
07C0003E00
07C0007E00
07C000FC00
07C001FC00
07C007F800
07C01FF000
07FFFFE000
07FFFF8000
07FFFE0000
07FFE00000
ENDCHAR
STARTCHAR E
ENCODING 69
SWIDTH 549 0
DWIDTH 28 0
BBX 28 33 0 0
BITMAP
07FFFF80
07FFFF80
07FFFF80
07FFFF80
07C00000
07C00000
07C00000
07C00000
07C00000
07C00000
07C00000
07C00000
07C00000
07FFFC00
07FFFC00
07FFFC00
07FFFC00
07C00000
07C00000
07C00000
07C00000
07C00000
07C00000
07C00000
07C00000
07C00000
07C00000
07C00000
07C00000
07FFFFC0
07FFFFC0
07FFFFC0
07FFFFC0
ENDCHAR
STARTCHAR F
ENCODING 70
SWIDTH 509 0
DWIDTH 26 0
BBX 26 33 0 0
BITMAP
07FFFF80
07FFFF80
07FFFF80
07FFFF80
07C00000
07C00000
07C00000
07C00000
07C00000
07C00000
07C00000
07C00000
07C00000
07FFF800
07FFF800
07FFF800
07FFF800
07C00000
07C00000
07C00000
07C00000
07C00000
07C00000
07C00000
07C00000
07C00000
07C00000
07C00000
07C00000
07C00000
07C00000
07C00000
07C00000
ENDCHAR
STARTCHAR G
ENCODING 71
SWIDTH 705 0
DWIDTH 36 0
BBX 36 33 0 0
BITMAP
0000FF8000
0007FFF000
001FFFFE00
007FFFFF00
00FF807F00
01FC001F00
03F8000700
03F0000100
07E0000000
0FC0000000
0F80000000
0F80000000
1F00000000
1F00000000
1F000FFF00
1F000FFF00
1F000FFF00
1F000FFF00
1F00001F00
1F00001F00
1F80001F00
0F80001F00
0F80001F00
0FC0001F00
07E0001F00
07F0001F00
03F8001F00
01FC001F00
00FF807F00
007FFFFF00
001FFFFF00
0007FFFE00
0000FFC000
ENDCHAR
STARTCHAR H
ENCODING 72
SWIDTH 705 0
DWIDTH 36 0
BBX 36 33 0 0
BITMAP
07C0003E00
07C0003E00
07C0003E00
07C0003E00
07C0003E00
07C0003E00
07C0003E00
07C0003E00
07C0003E00
07C0003E00
07C0003E00
07C0003E00
07C0003E00
07FFFFFE00
07FFFFFE00
07FFFFFE00
07FFFFFE00
07C0003E00
07C0003E00
07C0003E00
07C0003E00
07C0003E00
07C0003E00
07C0003E00
07C0003E00
07C0003E00
07C0003E00
07C0003E00
07C0003E00
07C0003E00
07C0003E00
07C0003E00
07C0003E00
ENDCHAR
STARTCHAR I
ENCODING 73
SWIDTH 274 0
DWIDTH 14 0
BBX 14 33 0 0
BITMAP
07C0
07C0
07C0
07C0
07C0
07C0
07C0
07C0
07C0
07C0
07C0
07C0
07C0
07C0
07C0
07C0
07C0
07C0
07C0
07C0
07C0
07C0
07C0
07C0
07C0
07C0
07C0
07C0
07C0
07C0
07C0
07C0
07C0
ENDCHAR
STARTCHAR J
ENCODING 74
SWIDTH 470 0
DWIDTH 24 0
BBX 24 33 0 0
BITMAP
0003E0
0003E0
0003E0
0003E0
0003E0
0003E0
0003E0
0003E0
0003E0
0003E0
0003E0
0003E0
0003E0
0003E0
0003E0
0003E0
0003E0
0003E0
0003E0
0003E0
0003E0
0003E0
0003E0
0003E0
0003E0
0803E0
3C03E0
7E07C0
3F0FC0
3FFF80
1FFF00
0FFE00
03F800
ENDCHAR
STARTCHAR K
ENCODING 75
SWIDTH 607 0
DWIDTH 31 0
BBX 31 33 0 0
BITMAP
07C001F8
07C003F0
07C00FE0
07C01FC0
07C03F80
07C07F00
07C0FE00
07C1FC00
07C3F000
07C7E000
07CFC000
07DF8000
07FF0000
07FE0000
07FC0000
07FE0000
07FF0000
07FF8000
07DFC000
07CFC000
07C7E000
07C3F000
07C1F800
07C0FC00
07C0FE00
07C07F00
07C03F80
07C01FC0
07C00FE0
07C007E0
07C003F0
07C001F8
07C000FC
ENDCHAR
STARTCHAR L
ENCODING 76
SWIDTH 529 0
DWIDTH 27 0
BBX 27 33 0 0
BITMAP
07C00000
07C00000
07C00000
07C00000
07C00000
07C00000
07C00000
07C00000
07C00000
07C00000
07C00000
07C00000
07C00000
07C00000
07C00000
07C00000
07C00000
07C00000
07C00000
07C00000
07C00000
07C00000
07C00000
07C00000
07C00000
07C00000
07C00000
07C00000
07C00000
07FFFF80
07FFFF80
07FFFF80
07FFFF80
ENDCHAR
STARTCHAR M
ENCODING 77
SWIDTH 823 0
DWIDTH 42 0
BBX 42 33 0 0
BITMAP
07C00000FC00
07E00000FC00
07F00001FC00
07F80003FC00
07F80007FC00
07FC000FFC00
07FE001FFC00
07FF001FFC00
07FF803F7C00
07DFC07E7C00
07CFC0FC7C00
07C7E1F87C00
07C3F3F87C00
07C1FBF07C00
07C1FFE07C00
07C0FFC07C00
07C07F807C00
07C03F007C00
07C01F007C00
07C00E007C00
07C00C007C00
07C000007C00
07C000007C00
07C000007C00
07C000007C00
07C000007C00
07C000007C00
07C000007C00
07C000007C00
07C000007C00
07C000007C00
07C000007C00
07C000007C00
ENDCHAR
STARTCHAR N
ENCODING 78
SWIDTH 744 0
DWIDTH 38 0
BBX 38 33 0 0
BITMAP
07C0000F80
07C0000F80
07E0000F80
07F0000F80
07F8000F80
07FC000F80
07FC000F80
07FE000F80
07FF000F80
07DF800F80
07DF800F80
07CFC00F80
07C7E00F80
07C3F00F80
07C3F80F80
07C1F80F80
07C0FC0F80
07C07E0F80
07C03F0F80
07C03F0F80
07C01F8F80
07C00FCF80
07C007EF80
07C007FF80
07C003FF80
07C001FF80
07C000FF80
07C0007F80
07C0007F80
07C0003F80
07C0001F80
07C0000F80
07C0000780
ENDCHAR
STARTCHAR O
ENCODING 79
SWIDTH 784 0
DWIDTH 40 0
BBX 40 33 0 0
BITMAP
0000FF8000
0007FFE000
001FFFF800
007FFFFE00
00FF00FF00
01FC003F80
03F0000FC0
03E00007E0
07C00003E0
0FC00003F0
0F800001F0
0F800001F8
1F000000F8
1F000000F8
1F000000F8
1F000000F8
1F000000F8
1F000000F8
1F000000F8
1F000000F8
1F000000F8
0F800001F8
0F800001F0
0FC00003F0
07E00003E0
03E00007E0
03F8000FC0
01FC003F80
00FF80FF00
007FFFFE00
001FFFF800
0007FFF000
0000FF0000
ENDCHAR
STARTCHAR P
ENCODING 80
SWIDTH 568 0
DWIDTH 29 0
BBX 29 33 0 0
BITMAP
07FFF000
07FFFC00
07FFFE00
07FFFF00
07C03F80
07C00FC0
07C007C0
07C007C0
07C007C0
07C007E0
07C007E0
07C007C0
07C007C0
07C007C0
07C00FC0
07C03F80
07FFFF00
07FFFE00
07FFFC00
07FFE000
07C00000
07C00000
07C00000
07C00000
07C00000
07C00000
07C00000
07C00000
07C00000
07C00000
07C00000
07C00000
07C00000
ENDCHAR
STARTCHAR Q
ENCODING 81
SWIDTH 784 0
DWIDTH 40 0
BBX 40 34 0 -1
BITMAP
0000FF8000
0007FFE000
001FFFF800
007FFFFE00
00FF00FF00
01FC003F80
03F0000FC0
03E00007E0
07C00003E0
0FC00003F0
0F800001F0
0F800001F8
1F000000F8
1F000000F8
1F000000F8
1F000000F8
1F000000F8
1F000000F8
1F000000F8
1F000000F8
1F000000F8
0F800021F8
0F800071F0
0FC001FBF0
07E000FFE0
03E0007FE0
03F8007FC0
01FC003FC0
00FF80FFC0
007FFFFFE0
001FFFFBF0
0007FFF1F0
0000FF00E0
0000000040
ENDCHAR
STARTCHAR R
ENCODING 82
SWIDTH 588 0
DWIDTH 30 0
BBX 30 33 0 0
BITMAP
07FFC000
07FFF000
07FFFC00
07FFFE00
07C0FE00
07C03F00
07C01F00
07C01F00
07C00F80
07C00F80
07C01F80
07C01F00
07C03F00
07C07F00
07FFFE00
07FFFC00
07FFF800
07FFC000
07C7E000
07C3F000
07C3F800
07C1F800
07C0FC00
07C07E00
07C07E00
07C03F00
07C01F80
07C01FC0
07C00FC0
07C007E0
07C003F0
07C003F0
07C001F8
ENDCHAR
STARTCHAR S
ENCODING 83
SWIDTH 490 0
DWIDTH 25 0
BBX 25 33 0 0
BITMAP
00FE0000
03FF8000
07FFE000
0FFFF000
0FC3F000
1F81E000
1F008000
1F000000
1F000000
1F800000
1FC00000
0FF00000
0FFC0000
07FF0000
03FF8000
00FFE000
003FF000
000FF800
0003FC00
0001FC00
0000FC00
00007E00
00007E00
00003E00
08003E00
1C007C00
7E007C00
3F00FC00
3F83F800
1FFFF000
0FFFE000
03FFC000
00FE0000
ENDCHAR
STARTCHAR T
ENCODING 84
SWIDTH 549 0
DWIDTH 28 0
BBX 28 33 0 0
BITMAP
7FFFFFE0
7FFFFFE0
7FFFFFE0
7FFFFFE0
000F8000
000F8000
000F8000
000F8000
000F8000
000F8000
000F8000
000F8000
000F8000
000F8000
000F8000
000F8000
000F8000
000F8000
000F8000
000F8000
000F8000
000F8000
000F8000
000F8000
000F8000
000F8000
000F8000
000F8000
000F8000
000F8000
000F8000
000F8000
000F8000
ENDCHAR
STARTCHAR U
ENCODING 85
SWIDTH 744 0
DWIDTH 38 0
BBX 38 33 0 0
BITMAP
0F800007C0
0F800007C0
0F800007C0
0F800007C0
0F800007C0
0F800007C0
0F800007C0
0F800007C0
0F800007C0
0F800007C0
0F800007C0
0F800007C0
0F800007C0
0F800007C0
0F800007C0
0F800007C0
0F800007C0
0F800007C0
0F800007C0
0F800007C0
0F80000780
07C0000F80
07C0000F80
07C0000F80
07E0001F00
03E0003F00
01F0003E00
01FC00FE00
00FF03FC00
007FFFF800
003FFFF000
000FFFC000
0001FE0000
ENDCHAR
STARTCHAR V
ENCODING 86
SWIDTH 607 0
DWIDTH 31 0
BBX 31 33 0 0
BITMAP
7E00007C
3E00007C
3E0000FC
3F0000F8
1F0000F8
1F0001F0
1F8001F0
0F8001F0
0FC003E0
07C003E0
07C007E0
07E007C0
03E007C0
03E00F80
01F00F80
01F00F80
01F01F00
00F81F00
00F81F00
00FC3E00
007C3E00
007C3E00
003E7C00
003E7C00
003EF800
001FF800
001FF800
000FF000
000FF000
000FF000
0007E000
0007E000
0007C000
ENDCHAR
STARTCHAR W
ENCODING 87
SWIDTH 940 0
DWIDTH 48 0
BBX 48 33 0 0
BITMAP
3E000000007C
3E0007E0007C
1F0007E000F8
1F0007E000F8
1F0007F000F8
1F800FF000F8
0F800FF001F0
0F800FF801F0
0F801FF801F0
07C01FF803E0
07C01E7C03E0
07C03E7C03E0
07E03E7C03E0
03E03C3E07C0
03E03C3E07C0
03E07C3E07C0
01F07C1E0780
01F0781F0F80
01F0F81F0F80
00F8F80F0F80
00F8F00F9F00
00F9F00F9F00
00FDF00F9F00
007DE007DE00
007DE007FE00
007FE007FE00
003FC003FC00
003FC003FC00
003FC003FC00
001FC001FC00
001F8001F800
001F8001F800
001F8001F800
ENDCHAR
STARTCHAR X
ENCODING 88
SWIDTH 647 0
DWIDTH 33 0
BBX 33 33 0 0
BITMAP
3F00007E00
3F0000FC00
1F8001F800
0FC003F000
07E003F000
07E007E000
03F00FC000
01F80F8000
00FC1F8000
007E3F0000
007E7E0000
003F7C0000
001FFC0000
000FF80000
000FF00000
0007E00000
0007F00000
000FF80000
001FFC0000
003FFC0000
003E7E0000
007E3F0000
00FC1F8000
01F80F8000
01F80FC000
03F007E000
07E003F000
07C001F800
0FC001F800
1F8000FC00
3F00007E00
3E00003F00
7E00003F00
ENDCHAR
STARTCHAR Y
ENCODING 89
SWIDTH 568 0
DWIDTH 29 0
BBX 29 33 0 0
BITMAP
7E0001F0
3E0003F0
3F0003E0
1F8007E0
0F8007C0
0FC00F80
07C01F80
07E01F00
03F03E00
01F03E00
01F87C00
00F87C00
007CF800
007FF000
003FF000
001FE000
001FC000
000FC000
000F8000
000F8000
000F8000
000F8000
000F8000
000F8000
000F8000
000F8000
000F8000
000F8000
000F8000
000F8000
000F8000
000F8000
000F8000
ENDCHAR
STARTCHAR Z
ENCODING 90
SWIDTH 607 0
DWIDTH 31 0
BBX 31 33 0 0
BITMAP
3FFFFFF8
3FFFFFF0
3FFFFFF0
3FFFFFE0
00000FC0
00000FC0
00001F80
00003F00
00003F00
00007E00
0000FC00
0000FC00
0001F800
0003F000
0003F000
0007E000
000FC000
000FC000
001F8000
003F0000
003F0000
007E0000
00FC0000
00FC0000
01F80000
03F00000
03F00000
07E00000
0FC00000
0FFFFFF8
1FFFFFF8
3FFFFFF8
3FFFFFF8
ENDCHAR
STARTCHAR [
ENCODING 91
SWIDTH 333 0
DWIDTH 17 0
BBX 17 45 0 -7
BITMAP
0FFE00
0FFE00
0FFE00
0FFE00
0F0000
0F0000
0F0000
0F0000
0F0000
0F0000
0F0000
0F0000
0F0000
0F0000
0F0000
0F0000
0F0000
0F0000
0F0000
0F0000
0F0000
0F0000
0F0000
0F0000
0F0000
0F0000
0F0000
0F0000
0F0000
0F0000
0F0000
0F0000
0F0000
0F0000
0F0000
0F0000
0F0000
0F0000
0F0000
0F0000
0F0000
0FFE00
0FFE00
0FFE00
0FFE00
ENDCHAR
STARTCHAR \
ENCODING 92
SWIDTH 313 0
DWIDTH 16 0
BBX 16 40 0 -4
BITMAP
F800
F800
7800
7800
7C00
3C00
3C00
3E00
3E00
1E00
1E00
1F00
0F00
0F00
0F80
0F80
0780
0780
07C0
03C0
03C0
03E0
03E0
01E0
01E0
01F0
00F0
00F0
00F8
0078
0078
0078
007C
003C
003C
003E
001E
001E
001E
001F
ENDCHAR
STARTCHAR ]
ENCODING 93
SWIDTH 333 0
DWIDTH 17 0
BBX 17 45 0 -6
BITMAP
3FF800
3FF800
3FF800
3FF800
00F800
00F800
00F800
00F800
00F800
00F800
00F800
00F800
00F800
00F800
00F800
00F800
00F800
00F800
00F800
00F800
00F800
00F800
00F800
00F800
00F800
00F800
00F800
00F800
00F800
00F800
00F800
00F800
00F800
00F800
00F800
00F800
00F800
00F800
00F800
00F800
00F800
3FF800
3FF800
3FF800
3FF800
ENDCHAR
STARTCHAR ^
ENCODING 94
SWIDTH 549 0
DWIDTH 28 0
BBX 28 33 0 0
BITMAP
001F8000
001FC000
003FC000
007FE000
0079F000
00F8F000
01F0F800
03E07C00
03E03E00
07C03E00
0F801F00
0F000F80
1F000780
00000000
00000000
00000000
00000000
00000000
00000000
00000000
00000000
00000000
00000000
00000000
00000000
00000000
00000000
00000000
00000000
00000000
00000000
00000000
00000000
ENDCHAR
STARTCHAR _
ENCODING 95
SWIDTH 490 0
DWIDTH 25 0
BBX 26 6 -1 -6
BITMAP
00000000
00000000
00000000
00000000
FFFFFF80
FFFFFF80
ENDCHAR
STARTCHAR `
ENCODING 96
SWIDTH 431 0
DWIDTH 22 0
BBX 23 33 0 0
BITMAP
FFFFFC
FFFFFC
FFFFFC
FFFFFC
F0003C
F0003C
F0003C
F0003C
F0003C
F0003C
F0003C
F0003C
F0003C
F0003C
F0003C
F0003C
F0003C
F0003C
F0003C
F0003C
F0003C
F0003C
F0003C
F0003C
F0003C
F0003C
F0003C
F0003C
F0003C
FFFFFC
FFFFFC
FFFFFC
FFFFFC
ENDCHAR
STARTCHAR a
ENCODING 97
SWIDTH 490 0
DWIDTH 25 0
BBX 25 24 0 0
BITMAP
00FF0000
07FFC000
07FFE000
07FFF000
0F83F800
0C00F800
1000F800
00007C00
00007C00
000FFC00
00FFFC00
03FFFC00
07FFFC00
0FF07C00
1F807C00
1F007C00
1E007C00
3E007C00
3E00FC00
1F03FC00
1FFFFC00
0FFFFC00
07FF7C00
01F87C00
ENDCHAR
STARTCHAR b
ENCODING 98
SWIDTH 588 0
DWIDTH 30 0
BBX 30 33 0 0
BITMAP
0F800000
0F800000
0F800000
0F800000
0F800000
0F800000
0F800000
0F800000
0F800000
0F8FE000
0FBFF800
0FFFFE00
0FFFFF00
0FE07F80
0FC01F80
0F800FC0
0F8007C0
0F8003E0
0F8003E0
0F8003E0
0F8003E0
0F8003E0
0F8003E0
0F8003E0
0F8003E0
0F8007C0
0F800FC0
0FC01FC0
0FF07F80
0FFFFF00
0FFFFE00
0F7FF800
0F0FE000
ENDCHAR
STARTCHAR c
ENCODING 99
SWIDTH 490 0
DWIDTH 25 0
BBX 25 24 0 0
BITMAP
001FF000
007FFE00
01FFFE00
03FFFE00
07F81E00
0FC00600
0F800000
1F000000
1F000000
1E000000
3E000000
3E000000
3E000000
3E000000
1F000000
1F000000
1F000000
0F800000
0FE00600
07F81E00
03FFFE00
01FFFE00
007FFE00
001FF000
ENDCHAR
STARTCHAR d
ENCODING 100
SWIDTH 588 0
DWIDTH 30 0
BBX 30 33 0 0
BITMAP
000007C0
000007C0
000007C0
000007C0
000007C0
000007C0
000007C0
000007C0
000007C0
001FC7C0
00FFF7C0
01FFFFC0
03FFFFC0
07F03FC0
0FC00FC0
0F8007C0
1F0007C0
1F0007C0
1F0007C0
3E0007C0
3E0007C0
3E0007C0
3E0007C0
1E0007C0
1F0007C0
1F0007C0
1F8007C0
0FC00FC0
07F03FC0
03FFFFC0
01FFFFC0
00FFF7C0
001FC7C0
ENDCHAR
STARTCHAR e
ENCODING 101
SWIDTH 529 0
DWIDTH 27 0
BBX 27 24 0 0
BITMAP
001FC000
00FFF000
01FFF800
03FFFC00
07E0FE00
0FC03E00
0F801F00
1F001F00
1F000F00
1F000F00
3FFFFF80
3FFFFF80
3FFFFF80
3FFFFF80
1E000000
1F000000
1F000000
0F800100
0FC00700
07F01F00
03FFFF00
01FFFF00
00FFFE00
001FE000
ENDCHAR
STARTCHAR f
ENCODING 102
SWIDTH 372 0
DWIDTH 19 0
BBX 19 33 0 0
BITMAP
003FC0
00FFC0
01FFC0
03FFC0
03E000
07C000
07C000
078000
078000
7FFFC0
7FFFC0
7FFFC0
7FFFC0
078000
078000
078000
078000
078000
078000
078000
078000
078000
078000
078000
078000
078000
078000
078000
078000
078000
078000
078000
078000
ENDCHAR
STARTCHAR g
ENCODING 103
SWIDTH 490 0
DWIDTH 25 0
BBX 25 33 0 -9
BITMAP
00FFFF00
03FFFF00
07FFFF00
0FFFFF00
1F81F000
1F00F800
1E007800
3E007800
3E007800
1E007800
1F00F800
1F81F800
0FFFF000
07FFE000
03FFC000
07FF0000
0F000000
0F800000
0FF00000
07FF0000
03FFE000
0FFFF800
1F0FFC00
3E01FE00
7C003F00
78001F00
7C001F00
7C001F00
7F007F00
3FFFFE00
1FFFFC00
0FFFF000
01FFC000
ENDCHAR
STARTCHAR h
ENCODING 104
SWIDTH 568 0
DWIDTH 29 0
BBX 29 33 0 0
BITMAP
0F800000
0F800000
0F800000
0F800000
0F800000
0F800000
0F800000
0F800000
0F800000
0F8FE000
0FBFF800
0FFFFE00
0FFFFF00
0FF03F00
0FC01F80
0F800F80
0F8007C0
0F8007C0
0F8007C0
0F8007C0
0F8007C0
0F8007C0
0F8007C0
0F8007C0
0F8007C0
0F8007C0
0F8007C0
0F8007C0
0F8007C0
0F8007C0
0F8007C0
0F8007C0
0F8007C0
ENDCHAR
STARTCHAR i
ENCODING 105
SWIDTH 255 0
DWIDTH 13 0
BBX 13 33 0 0
BITMAP
0200
0700
0F80
1F80
0F00
0600
0200
0000
0F80
0F80
0F80
0F80
0F80
0F80
0F80
0F80
0F80
0F80
0F80
0F80
0F80
0F80
0F80
0F80
0F80
0F80
0F80
0F80
0F80
0F80
0F80
0F80
0000
ENDCHAR
STARTCHAR j
ENCODING 106
SWIDTH 255 0
DWIDTH 13 0
BBX 14 41 -1 -9
BITMAP
0100
0380
07C0
0FC0
07C0
0380
0100
0000
07C0
07C0
07C0
07C0
07C0
07C0
07C0
07C0
07C0
07C0
07C0
07C0
07C0
07C0
07C0
07C0
07C0
07C0
07C0
07C0
07C0
07C0
07C0
07C0
07C0
07C0
0780
0780
0F80
FF80
FF00
FE00
F800
ENDCHAR
STARTCHAR k
ENCODING 107
SWIDTH 509 0
DWIDTH 26 0
BBX 26 33 0 0
BITMAP
0F800000
0F800000
0F800000
0F800000
0F800000
0F800000
0F800000
0F800000
0F800000
0F803F80
0F807E00
0F80FC00
0F81F800
0F83F000
0F8FE000
0F9FC000
0FBF8000
0FFE0000
0FFC0000
0FF80000
0FFC0000
0FFE0000
0FFF0000
0FBF8000
0F9FC000
0F8FE000
0F87F000
0F83F800
0F81F800
0F80FC00
0F807E00
0F803F00
0F801F80
ENDCHAR
STARTCHAR l
ENCODING 108
SWIDTH 313 0
DWIDTH 16 0
BBX 16 33 0 0
BITMAP
0F00
0F00
0F00
0F00
0F00
0F00
0F00
0F00
0F00
0F00
0F00
0F00
0F00
0F00
0F00
0F00
0F00
0F00
0F00
0F00
0F00
0F00
0F00
0F00
0F00
0F00
0F00
0F80
0FC0
0FFE
07FE
03FE
00FE
ENDCHAR
STARTCHAR m
ENCODING 109
SWIDTH 901 0
DWIDTH 46 0
BBX 46 24 0 0
BITMAP
0F8FE00FF000
0FBFF87FFC00
0FFFFCFFFE00
0FFFFFFFFF00
0FF07FF03F80
0FC01FE01F80
0F800F800F80
0F800F8007C0
0F800F8007C0
0F800F8007C0
0F80078007C0
0F80078007C0
0F80078007C0
0F80078007C0
0F80078007C0
0F80078007C0
0F80078007C0
0F80078007C0
0F80078007C0
0F80078007C0
0F80078007C0
0F80078007C0
0F80078007C0
0F80078007C0
ENDCHAR
STARTCHAR n
ENCODING 110
SWIDTH 568 0
DWIDTH 29 0
BBX 29 24 0 0
BITMAP
0F8FE000
0FBFF800
0FFFFE00
0FFFFF00
0FF03F00
0FC01F80
0F800F80
0F8007C0
0F8007C0
0F8007C0
0F8007C0
0F8007C0
0F8007C0
0F8007C0
0F8007C0
0F8007C0
0F8007C0
0F8007C0
0F8007C0
0F8007C0
0F8007C0
0F8007C0
0F8007C0
0F8007C0
ENDCHAR
STARTCHAR o
ENCODING 111
SWIDTH 588 0
DWIDTH 30 0
BBX 30 24 0 0
BITMAP
001FE000
007FF800
01FFFE00
03FFFF00
07F03F80
0FC00FC0
0F8007C0
1F0007E0
1F0003E0
1E0003E0
3E0001E0
3E0001F0
3E0001F0
3E0001E0
1E0003E0
1F0003E0
1F0007E0
0F8007C0
0FC00FC0
07F03F80
03FFFF00
01FFFE00
007FF800
001FE000
ENDCHAR
STARTCHAR p
ENCODING 112
SWIDTH 588 0
DWIDTH 30 0
BBX 30 33 0 -9
BITMAP
0F0FE000
0F7FF800
0FFFFE00
0FFFFF00
0FE07F80
0FC01F80
0F800FC0
0F8007C0
0F8003E0
0F8003E0
0F8003E0
0F8003E0
0F8003E0
0F8003E0
0F8003E0
0F8003E0
0F8007C0
0F800FC0
0FC01F80
0FF07F80
0FFFFF00
0FFFFE00
0FFFF800
0F9FC000
0F800000
0F800000
0F800000
0F800000
0F800000
0F800000
0F800000
0F800000
0F800000
ENDCHAR
STARTCHAR q
ENCODING 113
SWIDTH 588 0
DWIDTH 30 0
BBX 30 33 0 -9
BITMAP
001FC7C0
00FFF7C0
01FFFFC0
03FFFFC0
07F03FC0
0FC00FC0
0F8007C0
1F0007C0
1F0007C0
1E0007C0
3E0007C0
3E0007C0
3E0007C0
3E0007C0
1E0007C0
1F0007C0
1F0007C0
0F8007C0
0FC00FC0
07F03FC0
03FFFFC0
01FFFFC0
00FFF7C0
001FC7C0
000007C0
000007C0
000007C0
000007C0
000007C0
000007C0
000007C0
000007C0
000007C0
ENDCHAR
STARTCHAR r
ENCODING 114
SWIDTH 392 0
DWIDTH 20 0
BBX 20 24 0 0
BITMAP
0F9FE0
0FFFE0
0FFFE0
0FFFE0
0FF000
0FC000
0F8000
0F8000
0F8000
0F8000
0F8000
0F8000
0F8000
0F8000
0F8000
0F8000
0F8000
0F8000
0F8000
0F8000
0F8000
0F8000
0F8000
0F8000
ENDCHAR
STARTCHAR s
ENCODING 115
SWIDTH 470 0
DWIDTH 24 0
BBX 24 24 0 0
BITMAP
00FF80
03FFE0
0FFFE0
0FFFE0
1F80E0
1F0020
1E0000
1F0000
1F8000
1FFC00
0FFF80
07FFE0
01FFF0
003FF8
0003F8
0000F8
0000F8
100078
1800F8
1F01F8
1FFFF0
1FFFE0
0FFFC0
01FF00
ENDCHAR
STARTCHAR t
ENCODING 116
SWIDTH 392 0
DWIDTH 20 0
BBX 20 29 0 0
BITMAP
078000
078000
078000
078000
078000
7FFFE0
7FFFE0
7FFFE0
7FFFE0
078000
078000
078000
078000
078000
078000
078000
078000
078000
078000
078000
078000
078000
07C000
07C000
07E000
03FFE0
01FFE0
00FFE0
003FE0
ENDCHAR
STARTCHAR u
ENCODING 117
SWIDTH 568 0
DWIDTH 29 0
BBX 29 24 0 0
BITMAP
0F0007C0
0F0007C0
0F0007C0
0F0007C0
0F0007C0
0F0007C0
0F0007C0
0F0007C0
0F0007C0
0F0007C0
0F0007C0
0F0007C0
0F0007C0
0F0007C0
0F0007C0
0F8007C0
0F8007C0
0F8007C0
07C00FC0
07F03FC0
03FFFFC0
01FFFFC0
00FFF7C0
003FC7C0
ENDCHAR
STARTCHAR v
ENCODING 118
SWIDTH 529 0
DWIDTH 27 0
BBX 27 24 0 0
BITMAP
7C000FC0
7E000F80
3E000F80
3E001F00
1F001F00
1F003E00
0F803E00
0F803E00
0F807C00
07C07C00
07C0F800
03E0F800
03E0F000
01E1F000
01F1F000
01F3E000
00FBE000
00FBC000
007FC000
007F8000
003F8000
003F8000
003F0000
001F0000
ENDCHAR
STARTCHAR w
ENCODING 119
SWIDTH 823 0
DWIDTH 42 0
BBX 42 24 0 0
BITMAP
7E001E000F80
3E003F001F00
3E003F001F00
3F003F801F00
1F007F803E00
1F007F803E00
1F807FC03E00
0F80FBC03C00
0F80F3C07C00
0FC1F3E07C00
07C1F1E07800
07C1E1F0F800
07C3E1F0F800
03E3C0F0F000
03E3C0F9F000
03E7C079F000
01F7807DE000
01FF807FE000
00FF003FE000
00FF003FC000
00FF003FC000
007E001FC000
007E001F8000
007E000F8000
ENDCHAR
STARTCHAR x
ENCODING 120
SWIDTH 490 0
DWIDTH 25 0
BBX 25 24 0 0
BITMAP
3E003E00
1F007C00
1F80F800
0FC1F800
07C1F000
03E3E000
03F7E000
01FFC000
00FF8000
007F0000
007F0000
007F0000
007F0000
00FF8000
01FFC000
01F7E000
03E3E000
07C1F000
0FC1F800
0F80FC00
1F007C00
3E003E00
7E003F00
7C001F80
ENDCHAR
STARTCHAR y
ENCODING 121
SWIDTH 529 0
DWIDTH 27 0
BBX 27 33 0 -9
BITMAP
7C000FC0
7C000F80
3E000F80
3E001F00
1F001F00
1F001F00
0F003E00
0F803E00
0F807C00
07C07C00
07C07800
03E0F800
03E0F800
01E1F000
01F1F000
01F1E000
00FBE000
00FBE000
007BC000
007FC000
003F8000
003F8000
003F0000
001F0000
001F0000
001E0000
003E0000
003C0000
007C0000
07F80000
07F80000
07E00000
07C00000
ENDCHAR
STARTCHAR z
ENCODING 122
SWIDTH 451 0
DWIDTH 23 0
BBX 23 24 0 0
BITMAP
1FFFFC
1FFFF8
1FFFF8
1FFFF0
0003E0
0007E0
000FC0
000F80
001F80
003F00
003F00
007E00
00FC00
00FC00
01F800
03F000
03F000
07E000
07C000
0FC000
1FFFF8
1FFFF8
3FFFF8
7FFFF8
ENDCHAR
STARTCHAR {
ENCODING 123
SWIDTH 353 0
DWIDTH 18 0
BBX 18 44 0 -6
BITMAP
001F00
007F00
00FF00
01F800
01E000
01E000
01E000
01E000
01E000
01E000
01E000
01E000
01E000
01E000
01E000
01E000
03E000
03E000
07C000
1FC000
3F8000
3F0000
3F0000
3F8000
1FC000
07C000
03E000
03E000
01E000
01E000
01E000
01E000
01E000
01E000
01E000
01E000
01E000
01E000
01E000
01E000
01F000
00FF00
007F00
001F00
ENDCHAR
STARTCHAR |
ENCODING 124
SWIDTH 216 0
DWIDTH 11 0
BBX 11 49 0 -12
BITMAP
1F00
1F00
1F00
1F00
1F00
1F00
1F00
1F00
1F00
1F00
1F00
1F00
1F00
1F00
1F00
1F00
1F00
1F00
1F00
1F00
1F00
1F00
1F00
1F00
1F00
1F00
1F00
1F00
1F00
1F00
1F00
1F00
1F00
1F00
1F00
1F00
1F00
1F00
1F00
1F00
1F00
1F00
1F00
1F00
1F00
1F00
1F00
1F00
1F00
ENDCHAR
STARTCHAR }
ENCODING 125
SWIDTH 353 0
DWIDTH 18 0
BBX 18 44 0 -6
BITMAP
3E0000
3F8000
3FC000
07C000
03E000
01E000
01E000
01E000
01E000
01E000
01E000
01E000
01E000
01E000
01E000
01E000
01E000
01F000
01F800
00FC00
007E00
003E00
003E00
007E00
00FC00
01F800
01F000
01E000
01E000
01E000
01E000
01E000
01E000
01E000
01E000
01E000
01E000
01E000
01E000
03E000
07C000
3FC000
3F8000
3E0000
ENDCHAR
STARTCHAR ~
ENCODING 126
SWIDTH 509 0
DWIDTH 26 0
BBX 26 21 0 0
BITMAP
01E00C00
07F80F00
0FFC0F00
0FFF1E00
1F1FFE00
1E0FFC00
1E07F800
0C01F000
00000000
00000000
00000000
00000000
00000000
00000000
00000000
00000000
00000000
00000000
00000000
00000000
00000000
ENDCHAR
STARTCHAR U+00A0
ENCODING 160
SWIDTH 255 0
DWIDTH 13 0
BBX 13 57 0 -13
BITMAP
0000
0000
0000
0000
0000
0000
0000
0000
0000
0000
0000
0000
0000
0000
0000
0000
0000
0000
0000
0000
0000
0000
0000
0000
0000
0000
0000
0000
0000
0000
0000
0000
0000
0000
0000
0000
0000
0000
0000
0000
0000
0000
0000
0000
0000
0000
0000
0000
0000
0000
0000
0000
0000
0000
0000
0000
0000
ENDCHAR
STARTCHAR U+00A1
ENCODING 161
SWIDTH 274 0
DWIDTH 14 0
BBX 14 34 0 -9
BITMAP
0300
0780
0FC0
0FC0
0780
0300
0000
0000
0380
0780
0780
0780
0780
0780
0780
0780
0780
0780
0780
0780
0780
07C0
0FC0
0FC0
0FC0
0FC0
0FC0
0FC0
0FC0
0FC0
0FC0
0FC0
0FC0
0000
ENDCHAR
STARTCHAR U+00A2
ENCODING 162
SWIDTH 490 0
DWIDTH 25 0
BBX 25 31 0 -3
BITMAP
000F8000
000F8000
000F8000
000F8000
001FF000
007FFE00
01FFFE00
03FFFE00
07F81E00
0FC00600
0F800000
1F000000
1F000000
1E000000
3E000000
3E000000
3E000000
3E000000
1F000000
1F000000
1F000000
0F800000
0FE00600
07F81E00
03FFFE00
01FFFE00
007FFE00
001FF000
000F8000
000F8000
000F8000
ENDCHAR
STARTCHAR U+00A3
ENCODING 163
SWIDTH 509 0
DWIDTH 26 0
BBX 26 33 0 0
BITMAP
0007F000
001FF800
003FFC00
007FFE00
007FFF00
00FE3E00
00F80C00
00F80400
01F00000
01F00000
01F00000
01F00000
01F00000
01F00000
01F00000
0FFFE000
0FFFE000
0FFFE000
1FFFE000
1FFFC000
03E00000
03E00000
03E00000
03E00000
03C00000
07C00000
07C00000
07800000
0FFFFF00
0FFFFF00
1FFFFE00
1FFFFE00
3FFFFE00
ENDCHAR
STARTCHAR U+00A4
ENCODING 164
SWIDTH 588 0
DWIDTH 30 0
BBX 30 25 0 0
BITMAP
02000100
07000380
1F8007C0
1FDFEFE0
1FFFFFC0
0FFFFF80
07FFFF00
03F07F00
03E01F00
07C01F00
07C00F80
07C00F80
07C00F80
07C00F80
07C00F80
07C01F00
03E01F00
03F07E00
07FFFF00
0FFFFF80
1FFFFFC0
1FDFCFE0
1F8007C0
07000380
02000100
ENDCHAR
STARTCHAR U+00A5
ENCODING 165
SWIDTH 588 0
DWIDTH 30 0
BBX 30 33 0 0
BITMAP
3E0001F8
3F0001F0
1F8003F0
0F8003E0
0FC007C0
07C00FC0
03E00F80
03F01F00
01F03F00
00F83E00
00FC7C00
0FFC7FE0
0FFEFFE0
0FFFFFE0
0FFFFFE0
000FE000
000FC000
0007C000
0007C000
0FFFFFE0
0FFFFFE0
0FFFFFE0
0FFFFFE0
0007C000
0007C000
0007C000
0007C000
0007C000
0007C000
0007C000
0007C000
0007C000
0007C000
ENDCHAR
STARTCHAR U+00A6
ENCODING 166
SWIDTH 216 0
DWIDTH 11 0
BBX 11 49 0 -12
BITMAP
1F00
1F00
1F00
1F00
1F00
1F00
1F00
1F00
1F00
1F00
1F00
1F00
1F00
1F00
1F00
1F00
1F00
1F00
1F00
0000
0000
0000
0000
0000
0000
0000
0000
0000
0000
0000
1F00
1F00
1F00
1F00
1F00
1F00
1F00
1F00
1F00
1F00
1F00
1F00
1F00
1F00
1F00
1F00
1F00
1F00
1F00
ENDCHAR
STARTCHAR U+00A7
ENCODING 167
SWIDTH 470 0
DWIDTH 24 0
BBX 24 42 0 -9
BITMAP
00FE00
03FF80
0FFFE0
0FFFF0
1F83F0
1F01F8
3E00F0
3E0040
3E0000
3F0000
1F0000
1FC000
0FF800
07FE00
03FFC0
0FFFE0
1FFFF0
3F07F8
3E01F8
7C00FC
7C007C
7C007C
7E007C
3F00FC
3FE1F8
1FFFF0
0FFFE0
03FFC0
007FE0
000FF0
0003F8
0000F8
0000F8
00007C
0C007C
1C00F8
3F00F8
3F83F8
1FFFF0
0FFFE0
03FF80
00FE00
ENDCHAR
STARTCHAR U+00A8
ENCODING 168
SWIDTH 431 0
DWIDTH 22 0
BBX 23 33 0 0
BITMAP
FFFFFC
FFFFFC
FFFFFC
FFFFFC
F0003C
F0003C
F0003C
F0003C
F0003C
F0003C
F0003C
F0003C
F0003C
F0003C
F0003C
F0003C
F0003C
F0003C
F0003C
F0003C
F0003C
F0003C
F0003C
F0003C
F0003C
F0003C
F0003C
F0003C
F0003C
FFFFFC
FFFFFC
FFFFFC
FFFFFC
ENDCHAR
STARTCHAR U+00A9
ENCODING 169
SWIDTH 764 0
DWIDTH 39 0
BBX 39 33 0 0
BITMAP
0001FF0000
0007FFE000
001F00F800
0078003C00
00E0000E00
01C0000700
0380000380
07007F01C0
0703FFC0E0
0E07FFE0E0
0C0FC0E060
0C1F002070
1C3E000030
183C000030
183C000030
187C000038
1878000038
1878000038
187C000030
1C3C000030
1C3C000030
0C3E000070
0C1F002060
0E0FC0E0E0
0707FFE0E0
0703FFE1C0
03807F8380
01C0000700
00F0000E00
0078003C00
001F00F800
000FFFE000
0001FF0000
ENDCHAR
STARTCHAR U+00AA
ENCODING 170
SWIDTH 294 0
DWIDTH 15 0
BBX 15 33 0 0
BITMAP
1FC0
3FF0
3FF8
2078
0038
03F8
0FF8
3E38
3838
7838
7838
7838
3FF8
3FF8
0FF8
0000
0000
0000
0000
0000
0000
0000
0000
0000
0000
0000
0000
0000
0000
0000
0000
0000
0000
ENDCHAR
STARTCHAR U+00AB
ENCODING 171
SWIDTH 549 0
DWIDTH 28 0
BBX 28 24 0 0
BITMAP
003E0F80
007C1F00
00F83E00
00F03C00
01F07C00
03E0F800
07C1F000
0781E000
0F83E000
1F07C000
3E0F8000
1F07C000
0F03C000
0F83E000
07C1F000
03E0F800
01F07C00
00F03C00
00F83E00
007C1F00
003E0F80
00000000
00000000
00000000
ENDCHAR
STARTCHAR U+00AC
ENCODING 172
SWIDTH 509 0
DWIDTH 26 0
BBX 26 24 0 0
BITMAP
1FFFFE00
1FFFFE00
1FFFFE00
1FFFFE00
00001E00
00001E00
00001E00
00001E00
00001E00
00001E00
00001E00
00001E00
00001E00
00001E00
00000000
00000000
00000000
00000000
00000000
00000000
00000000
00000000
00000000
00000000
ENDCHAR
STARTCHAR U+00AD
ENCODING 173
SWIDTH 372 0
DWIDTH 19 0
BBX 19 15 0 0
BITMAP
3FFF80
3FFF80
3FFF80
3FFF80
000000
000000
000000
000000
000000
000000
000000
000000
000000
000000
000000
ENDCHAR
STARTCHAR U+00AE
ENCODING 174
SWIDTH 764 0
DWIDTH 39 0
BBX 39 33 0 0
BITMAP
0001FF0000
0007FFE000
001F00F800
0078003C00
00E0000E00
01C0000700
0380000380
0707FE01C0
0707FF00E0
0E07FF80E0
0C0787C070
0C0783C070
1C0783C030
180783C030
180783C038
180787C038
1807FF8038
1807FF0038
1807FE0030
1C079F0030
1C078F0030
0C07878070
0C0787C060
0E0783C0E0
070781E0C0
070781F1C0
038780F380
01C0000700
00F0000E00
0078003C00
001F00F800
0007FFE000
0001FF0000
ENDCHAR
STARTCHAR U+00AF
ENCODING 175
SWIDTH 431 0
DWIDTH 22 0
BBX 23 33 0 0
BITMAP
FFFFFC
FFFFFC
FFFFFC
FFFFFC
F0003C
F0003C
F0003C
F0003C
F0003C
F0003C
F0003C
F0003C
F0003C
F0003C
F0003C
F0003C
F0003C
F0003C
F0003C
F0003C
F0003C
F0003C
F0003C
F0003C
F0003C
F0003C
F0003C
F0003C
F0003C
FFFFFC
FFFFFC
FFFFFC
FFFFFC
ENDCHAR
STARTCHAR U+00B0
ENCODING 176
SWIDTH 372 0
DWIDTH 19 0
BBX 19 33 0 0
BITMAP
01F000
07FC00
0FFE00
1FFF00
1F1F00
1E0780
3C0780
3C0780
1E0780
1F1F00
1FFF00
0FFE00
07FC00
01F000
000000
000000
000000
000000
000000
000000
000000
000000
000000
000000
000000
000000
000000
000000
000000
000000
000000
000000
000000
ENDCHAR
STARTCHAR U+00B1
ENCODING 177
SWIDTH 509 0
DWIDTH 26 0
BBX 26 28 0 0
BITMAP
001E0000
001E0000
001E0000
001E0000
001E0000
001E0000
001E0000
1FFFFE00
1FFFFE00
1FFFFE00
1FFFFE00
001E0000
001E0000
001E0000
001E0000
001E0000
001E0000
001E0000
00000000
00000000
00000000
00000000
00000000
00000000
1FFFFE00
1FFFFE00
1FFFFE00
1FFFFE00
ENDCHAR
STARTCHAR U+00B2
ENCODING 178
SWIDTH 313 0
DWIDTH 16 0
BBX 16 33 0 0
BITMAP
07E0
0FF0
1FF8
3FFC
387C
303C
203C
003C
0038
0078
00F0
00F0
01E0
03C0
03C0
0780
0FFE
0FFE
1FFE
3FFE
0000
0000
0000
0000
0000
0000
0000
0000
0000
0000
0000
0000
0000
ENDCHAR
STARTCHAR U+00B3
ENCODING 179
SWIDTH 313 0
DWIDTH 16 0
BBX 16 33 0 0
BITMAP
3FFC
3FFC
3FF8
0078
00F0
00F0
01E0
01E0
03F8
03FC
047C
003E
001E
001E
001E
001E
103C
387C
7FF8
3FF0
0FC0
0000
0000
0000
0000
0000
0000
0000
0000
0000
0000
0000
0000
ENDCHAR
STARTCHAR U+00B4
ENCODING 180
SWIDTH 431 0
DWIDTH 22 0
BBX 23 33 0 0
BITMAP
FFFFFC
FFFFFC
FFFFFC
FFFFFC
F0003C
F0003C
F0003C
F0003C
F0003C
F0003C
F0003C
F0003C
F0003C
F0003C
F0003C
F0003C
F0003C
F0003C
F0003C
F0003C
F0003C
F0003C
F0003C
F0003C
F0003C
F0003C
F0003C
F0003C
F0003C
FFFFFC
FFFFFC
FFFFFC
FFFFFC
ENDCHAR
STARTCHAR U+00B5
ENCODING 181
SWIDTH 568 0
DWIDTH 29 0
BBX 29 33 0 -9
BITMAP
0F800F80
0F800F80
0F800F80
0F800F80
0F800F80
0F800F80
0F800F80
0F800F80
0F800F80
0F800F80
0F800F80
0F800F80
0F800F80
0F800F80
0F800F80
0F800F80
0F800F80
0FC00F80
0FC01F80
0FF07F80
0FFFFF80
0FFFFF80
0FFFEF80
0FBF8F80
0F800000
0F800000
0F800000
0F800000
0F800000
0F800000
0F800000
0F800000
0F800000
ENDCHAR
STARTCHAR U+00B6
ENCODING 182
SWIDTH 529 0
DWIDTH 27 0
BBX 27 42 0 -9
BITMAP
007FFFC0
03FFFFC0
07FFFFC0
0FFF1E00
1FFF1E00
1FFF1E00
1FFF1E00
3FFF1E00
3FFF1E00
3FFF1E00
1FFF1E00
1FFF1E00
1FFF1E00
0FFF1E00
07FF1E00
03FF1E00
00FF1E00
000F1E00
000F1E00
000F1E00
000F1E00
000F1E00
000F1E00
000F1E00
000F1E00
000F1E00
000F1E00
000F1E00
000F1E00
000F1E00
000F1E00
000F1E00
000F1E00
000F1E00
000F1E00
000F1E00
000F1E00
000F1E00
000F1E00
000F1E00
000F1E00
000F1E00
ENDCHAR
STARTCHAR U+00B7
ENCODING 183
SWIDTH 235 0
DWIDTH 12 0
BBX 12 20 0 0
BITMAP
0200
0700
0F80
1FC0
1F80
0700
0200
0000
0000
0000
0000
0000
0000
0000
0000
0000
0000
0000
0000
0000
ENDCHAR
STARTCHAR U+00B8
ENCODING 184
SWIDTH 431 0
DWIDTH 22 0
BBX 23 33 0 0
BITMAP
FFFFFC
FFFFFC
FFFFFC
FFFFFC
F0003C
F0003C
F0003C
F0003C
F0003C
F0003C
F0003C
F0003C
F0003C
F0003C
F0003C
F0003C
F0003C
F0003C
F0003C
F0003C
F0003C
F0003C
F0003C
F0003C
F0003C
F0003C
F0003C
F0003C
F0003C
FFFFFC
FFFFFC
FFFFFC
FFFFFC
ENDCHAR
STARTCHAR U+00B9
ENCODING 185
SWIDTH 235 0
DWIDTH 12 0
BBX 12 33 0 0
BITMAP
0100
0300
0F00
0F00
0F00
0F00
0F00
0F00
0F00
0F00
0F00
0F00
0F00
0F00
0F00
0F00
0F00
0F00
0F00
0F00
0000
0000
0000
0000
0000
0000
0000
0000
0000
0000
0000
0000
0000
ENDCHAR
STARTCHAR U+00BA
ENCODING 186
SWIDTH 372 0
DWIDTH 19 0
BBX 19 33 0 0
BITMAP
03F000
07FC00
1FFE00
1E1F00
3C0780
380780
380380
780380
380380
380780
3C0780
1E1F00
1FFE00
07FC00
03F000
000000
000000
000000
000000
000000
000000
000000
000000
000000
000000
000000
000000
000000
000000
000000
000000
000000
000000
ENDCHAR
STARTCHAR U+00BB
ENCODING 187
SWIDTH 549 0
DWIDTH 28 0
BBX 28 24 0 0
BITMAP
1E07C000
1F03E000
0F83E000
07C1F000
03C0F800
03E07C00
01F03C00
00F83E00
00781F00
007C0F80
003E0780
003E0F80
007C1F00
00F81E00
01F03E00
01E07C00
03E0F800
07C1F000
0F81E000
1F03E000
1E07C000
00000000
00000000
00000000
ENDCHAR
STARTCHAR U+00BC
ENCODING 188
SWIDTH 764 0
DWIDTH 39 0
BBX 39 33 0 0
BITMAP
0100007800
0300007800
0F0000F000
0F0000F000
0F0001E000
0F0001E000
0F0003C000
0F0003C000
0F00078000
0F00078000
0F000F0000
0F000F0000
0F001E0000
0F001E0000
0F003C0020
0F00780060
0F007800E0
0F00F001E0
0F00F003E0
0F01E007E0
0001E00FE0
0003C01EE0
0003C03CE0
00078078E0
000780F0E0
000F01E0E0
000F03FFFC
001E07FFFC
001E0FFFFC
003C0001E0
003C0001E0
00780001E0
00780001E0
ENDCHAR
STARTCHAR U+00BD
ENCODING 189
SWIDTH 803 0
DWIDTH 41 0
BBX 41 33 0 0
BITMAP
010000780000
030000780000
0F0000F00000
0F0000F00000
0F0001E00000
0F0001E00000
0F0003C00000
0F0003C00000
0F0007800000
0F0007800000
0F000F000000
0F000F000000
0F001E000000
0F001E03F000
0F003C07F800
0F00780FFC00
0F00781FFE00
0F00F01C3E00
0F00F0181E00
0F01E0101E00
0001E0001E00
0003C0001C00
0003C0003C00
000780007800
000780007800
000F0000F000
000F0001E000
001E0001E000
001E0003C000
003C0007FF00
003C0007FF00
0078000FFF00
0078001FFF00
ENDCHAR
STARTCHAR U+00BE
ENCODING 190
SWIDTH 842 0
DWIDTH 43 0
BBX 43 33 0 0
BITMAP
3FFC000F0000
3FFC000F0000
3FF8001E0000
0078001E0000
00F0003C0000
00F0003C0000
01E000780000
01E000780000
03F800F00000
03FC00F00000
047C01E00000
003E01E00000
001E03C00000
001E03C00000
001E07800200
001E0F000600
103C0F000E00
387C1E001E00
7FF81E003E00
3FF03C007E00
0FC03C00FE00
00007801EE00
00007803CE00
0000F0078E00
0000F00F0E00
0001E01E0E00
0001E03FFFC0
0003C07FFFC0
0003C0FFFFC0
000780001E00
000780001E00
000F00001E00
000F00001E00
ENDCHAR
STARTCHAR U+00BF
ENCODING 191
SWIDTH 431 0
DWIDTH 22 0
BBX 22 33 0 -9
BITMAP
000800
001C00
003E00
007F00
003E00
001C00
000800
000000
000000
000800
001C00
003E00
003F00
001F00
001F00
001F00
007F00
01FE00
03FC00
07F000
0FE000
1F8000
1F0000
1F0000
1F0000
1F0000
1F0020
1FC1F0
0FFFF8
0FFFF8
07FFF0
03FFC0
007F00
ENDCHAR
STARTCHAR U+00C0
ENCODING 192
SWIDTH 647 0
DWIDTH 33 0
BBX 33 42 0 0
BITMAP
001F000000
001F800000
000F800000
0007C00000
0003E00000
0001E00000
0000F00000
0000000000
0000000000
0003E00000
0003E00000
0007E00000
0007F00000
000FF00000
000FF80000
000FF80000
001F780000
001F7C0000
003E7C0000
003E3E0000
003C3E0000
007C1F0000
007C1F0000
00F81F0000
00F80F8000
00F00F8000
01F007C000
01F007C000
03E007C000
03FFFFE000
03FFFFE000
07FFFFF000
07FFFFF000
0F8000F800
0F8000F800
0F0000F800
1F00007C00
1F00007C00
3E00007E00
3E00003E00
3E00003E00
7C00003F00
ENDCHAR
STARTCHAR U+00C1
ENCODING 193
SWIDTH 647 0
DWIDTH 33 0
BBX 33 42 0 0
BITMAP
00003E0000
00007C0000
0000F80000
0000F00000
0001E00000
0003C00000
0007C00000
0000000000
0000000000
0003E00000
0003E00000
0007E00000
0007F00000
000FF00000
000FF80000
000FF80000
001F780000
001F7C0000
003E7C0000
003E3E0000
003C3E0000
007C1F0000
007C1F0000
00F81F0000
00F80F8000
00F00F8000
01F007C000
01F007C000
03E007C000
03FFFFE000
03FFFFE000
07FFFFF000
07FFFFF000
0F8000F800
0F8000F800
0F0000F800
1F00007C00
1F00007C00
3E00007E00
3E00003E00
3E00003E00
7C00003F00
ENDCHAR
STARTCHAR U+00C2
ENCODING 194
SWIDTH 647 0
DWIDTH 33 0
BBX 33 42 0 0
BITMAP
0007E00000
0007F00000
000FF80000
001F780000
001E3C0000
003C1E0000
00380E0000
0000000000
0000000000
0003E00000
0003E00000
0007E00000
0007F00000
000FF00000
000FF80000
000FF80000
001F780000
001F7C0000
003E7C0000
003E3E0000
003C3E0000
007C1F0000
007C1F0000
00F81F0000
00F80F8000
00F00F8000
01F007C000
01F007C000
03E007C000
03FFFFE000
03FFFFE000
07FFFFF000
07FFFFF000
0F8000F800
0F8000F800
0F0000F800
1F00007C00
1F00007C00
3E00007E00
3E00003E00
3E00003E00
7C00003F00
ENDCHAR
STARTCHAR U+00C3
ENCODING 195
SWIDTH 647 0
DWIDTH 33 0
BBX 33 41 0 0
BITMAP
003C000000
007F0E0000
00FFFE0000
00FFFE0000
0063FC0000
0000F80000
0000000000
0000000000
0003E00000
0003E00000
0007E00000
0007F00000
000FF00000
000FF80000
000FF80000
001F780000
001F7C0000
003E7C0000
003E3E0000
003C3E0000
007C1F0000
007C1F0000
00F81F0000
00F80F8000
00F00F8000
01F007C000
01F007C000
03E007C000
03FFFFE000
03FFFFE000
07FFFFF000
07FFFFF000
0F8000F800
0F8000F800
0F0000F800
1F00007C00
1F00007C00
3E00007E00
3E00003E00
3E00003E00
7C00003F00
ENDCHAR
STARTCHAR U+00C4
ENCODING 196
SWIDTH 647 0
DWIDTH 33 0
BBX 33 42 0 0
BITMAP
0010040000
00380E0000
007C1F0000
00FE3F8000
007C1F0000
00380E0000
0010040000
0000000000
0000000000
0003E00000
0003E00000
0007E00000
0007F00000
000FF00000
000FF80000
000FF80000
001F780000
001F7C0000
003E7C0000
003E3E0000
003C3E0000
007C1F0000
007C1F0000
00F81F0000
00F80F8000
00F00F8000
01F007C000
01F007C000
03E007C000
03FFFFE000
03FFFFE000
07FFFFF000
07FFFFF000
0F8000F800
0F8000F800
0F0000F800
1F00007C00
1F00007C00
3E00007E00
3E00003E00
3E00003E00
7C00003F00
ENDCHAR
STARTCHAR U+00C5
ENCODING 197
SWIDTH 647 0
DWIDTH 33 0
BBX 33 44 0 0
BITMAP
0003C00000
0007E00000
000E700000
000C300000
000C380000
000C300000
000E700000
0007E00000
0003C00000
0000000000
0000000000
0003E00000
0003E00000
0007E00000
0007F00000
000FF00000
000FF80000
000FF80000
001F780000
001F7C0000
003E7C0000
003E3E0000
003C3E0000
007C1F0000
007C1F0000
00F81F0000
00F80F8000
00F00F8000
01F007C000
01F007C000
03E007C000
03FFFFE000
03FFFFE000
07FFFFF000
07FFFFF000
0F8000F800
0F8000F800
0F0000F800
1F00007C00
1F00007C00
3E00007E00
3E00003E00
3E00003E00
7C00003F00
ENDCHAR
STARTCHAR U+00C6
ENCODING 198
SWIDTH 882 0
DWIDTH 45 0
BBX 45 33 0 0
BITMAP
00001FFFFFC0
00001FFFFFC0
00003FFFFFC0
00007FFFFFC0
00007DF00000
0000FDF00000
0000F9F00000
0001F9F00000
0001F1F00000
0003E1F00000
0007E1F00000
0007C1F00000
000FC1F00000
000F81FFFE00
001F81FFFE00
001F01FFFE00
003F01FFFE00
007E01F00000
007E01F00000
00FFFFF00000
00FFFFF00000
01FFFFF00000
01FFFFF00000
03E001F00000
07E001F00000
07C001F00000
0FC001F00000
0F8001F00000
1F8001F00000
3F0001FFFFE0
3F0001FFFFE0
7E0001FFFFE0
7E0001FFFFE0
ENDCHAR
STARTCHAR U+00C7
ENCODING 199
SWIDTH 647 0
DWIDTH 33 0
BBX 33 43 0 -10
BITMAP
0000FF8000
0007FFF000
001FFFFC00
007FFFFE00
00FF807E00
01FC001E00
03F8000600
03E0000000
07C0000000
0FC0000000
0F80000000
0F80000000
1F00000000
1F00000000
1F00000000
1F00000000
1F00000000
1F00000000
1F00000000
1F00000000
1F80000000
0F80000000
0F80000000
0FC0000000
07E0000000
03F0000000
03F8000600
01FC001E00
00FF807E00
007FFFFE00
001FFFF800
0007FFF000
0000FF0000
0000700000
0000F00000
0000FC0000
0000FE0000
00001F0000
00000F0000
00001F0000
0003FE0000
0003FC0000
0003F00000
ENDCHAR
STARTCHAR U+00C8
ENCODING 200
SWIDTH 549 0
DWIDTH 28 0
BBX 28 42 0 0
BITMAP
007C0000
007E0000
003E0000
001F0000
000F8000
00078000
0003C000
00000000
00000000
07FFFF80
07FFFF80
07FFFF80
07FFFF80
07C00000
07C00000
07C00000
07C00000
07C00000
07C00000
07C00000
07C00000
07C00000
07FFFC00
07FFFC00
07FFFC00
07FFFC00
07C00000
07C00000
07C00000
07C00000
07C00000
07C00000
07C00000
07C00000
07C00000
07C00000
07C00000
07C00000
07FFFFC0
07FFFFC0
07FFFFC0
07FFFFC0
ENDCHAR
STARTCHAR U+00C9
ENCODING 201
SWIDTH 549 0
DWIDTH 28 0
BBX 28 42 0 0
BITMAP
0000F800
0001F000
0003E000
0003C000
00078000
000F0000
001F0000
00000000
00000000
07FFFF80
07FFFF80
07FFFF80
07FFFF80
07C00000
07C00000
07C00000
07C00000
07C00000
07C00000
07C00000
07C00000
07C00000
07FFFC00
07FFFC00
07FFFC00
07FFFC00
07C00000
07C00000
07C00000
07C00000
07C00000
07C00000
07C00000
07C00000
07C00000
07C00000
07C00000
07C00000
07FFFFC0
07FFFFC0
07FFFFC0
07FFFFC0
ENDCHAR
STARTCHAR U+00CA
ENCODING 202
SWIDTH 549 0
DWIDTH 28 0
BBX 28 42 0 0
BITMAP
001F8000
001FC000
003FE000
007DE000
0078F000
00F07800
00E03800
00000000
00000000
07FFFF80
07FFFF80
07FFFF80
07FFFF80
07C00000
07C00000
07C00000
07C00000
07C00000
07C00000
07C00000
07C00000
07C00000
07FFFC00
07FFFC00
07FFFC00
07FFFC00
07C00000
07C00000
07C00000
07C00000
07C00000
07C00000
07C00000
07C00000
07C00000
07C00000
07C00000
07C00000
07FFFFC0
07FFFFC0
07FFFFC0
07FFFFC0
ENDCHAR
STARTCHAR U+00CB
ENCODING 203
SWIDTH 549 0
DWIDTH 28 0
BBX 28 42 0 0
BITMAP
00401000
00E03800
01F07C00
03F8FE00
01F07C00
00E03800
00401000
00000000
00000000
07FFFF80
07FFFF80
07FFFF80
07FFFF80
07C00000
07C00000
07C00000
07C00000
07C00000
07C00000
07C00000
07C00000
07C00000
07FFFC00
07FFFC00
07FFFC00
07FFFC00
07C00000
07C00000
07C00000
07C00000
07C00000
07C00000
07C00000
07C00000
07C00000
07C00000
07C00000
07C00000
07FFFFC0
07FFFFC0
07FFFFC0
07FFFFC0
ENDCHAR
STARTCHAR U+00CC
ENCODING 204
SWIDTH 274 0
DWIDTH 14 0
BBX 14 42 0 0
BITMAP
7C00
7E00
3E00
1F00
0F80
0780
03C0
0000
0000
07C0
07C0
07C0
07C0
07C0
07C0
07C0
07C0
07C0
07C0
07C0
07C0
07C0
07C0
07C0
07C0
07C0
07C0
07C0
07C0
07C0
07C0
07C0
07C0
07C0
07C0
07C0
07C0
07C0
07C0
07C0
07C0
07C0
ENDCHAR
STARTCHAR U+00CD
ENCODING 205
SWIDTH 274 0
DWIDTH 14 0
BBX 14 42 0 0
BITMAP
00F8
01F0
03E0
03C0
0780
0F00
1F00
0000
0000
07C0
07C0
07C0
07C0
07C0
07C0
07C0
07C0
07C0
07C0
07C0
07C0
07C0
07C0
07C0
07C0
07C0
07C0
07C0
07C0
07C0
07C0
07C0
07C0
07C0
07C0
07C0
07C0
07C0
07C0
07C0
07C0
07C0
ENDCHAR
STARTCHAR U+00CE
ENCODING 206
SWIDTH 274 0
DWIDTH 14 0
BBX 15 42 0 0
BITMAP
0FC0
0FE0
1FF0
3EF0
3C78
783C
701C
0000
0000
07C0
07C0
07C0
07C0
07C0
07C0
07C0
07C0
07C0
07C0
07C0
07C0
07C0
07C0
07C0
07C0
07C0
07C0
07C0
07C0
07C0
07C0
07C0
07C0
07C0
07C0
07C0
07C0
07C0
07C0
07C0
07C0
07C0
ENDCHAR
STARTCHAR U+00CF
ENCODING 207
SWIDTH 274 0
DWIDTH 14 0
BBX 17 42 -1 0
BITMAP
100400
380E00
7C1F00
FE3F80
7C1F00
380E00
100400
000000
000000
03E000
03E000
03E000
03E000
03E000
03E000
03E000
03E000
03E000
03E000
03E000
03E000
03E000
03E000
03E000
03E000
03E000
03E000
03E000
03E000
03E000
03E000
03E000
03E000
03E000
03E000
03E000
03E000
03E000
03E000
03E000
03E000
03E000
ENDCHAR
STARTCHAR U+00D0
ENCODING 208
SWIDTH 705 0
DWIDTH 36 0
BBX 36 33 0 0
BITMAP
07FFE00000
07FFFE0000
07FFFF8000
07FFFFC000
07C03FF000
07C007F800
07C001FC00
07C000FC00
07C0007E00
07C0003E00
07C0003F00
07C0001F00
07C0001F00
07C0001F80
07C0000F80
7FFFC00F80
7FFFC00F80
7FFFC00F80
7FFFC00F80
07C0001F80
07C0001F00
07C0001F00
07C0003F00
07C0003E00
07C0007E00
07C000FC00
07C001FC00
07C007F800
07C01FF000
07FFFFE000
07FFFF8000
07FFFE0000
07FFE00000
ENDCHAR
STARTCHAR U+00D1
ENCODING 209
SWIDTH 744 0
DWIDTH 38 0
BBX 38 41 0 0
BITMAP
0007800000
000FE1C000
001FFFC000
001FFFC000
000C7F8000
00001F0000
0000000000
0000000000
07C0000F80
07C0000F80
07E0000F80
07F0000F80
07F8000F80
07FC000F80
07FC000F80
07FE000F80
07FF000F80
07DF800F80
07DF800F80
07CFC00F80
07C7E00F80
07C3F00F80
07C3F80F80
07C1F80F80
07C0FC0F80
07C07E0F80
07C03F0F80
07C03F0F80
07C01F8F80
07C00FCF80
07C007EF80
07C007FF80
07C003FF80
07C001FF80
07C000FF80
07C0007F80
07C0007F80
07C0003F80
07C0001F80
07C0000F80
07C0000780
ENDCHAR
STARTCHAR U+00D2
ENCODING 210
SWIDTH 784 0
DWIDTH 40 0
BBX 40 42 0 0
BITMAP
0003E00000
0003F00000
0001F00000
0000F80000
00007C0000
00003C0000
00001E0000
0000000000
0000000000
0000FF8000
0007FFE000
001FFFF800
007FFFFE00
00FF00FF00
01FC003F80
03F0000FC0
03E00007E0
07C00003E0
0FC00003F0
0F800001F0
0F800001F8
1F000000F8
1F000000F8
1F000000F8
1F000000F8
1F000000F8
1F000000F8
1F000000F8
1F000000F8
1F000000F8
0F800001F8
0F800001F0
0FC00003F0
07E00003E0
03E00007E0
03F8000FC0
01FC003F80
00FF80FF00
007FFFFE00
001FFFF800
0007FFF000
0000FF0000
ENDCHAR
STARTCHAR U+00D3
ENCODING 211
SWIDTH 784 0
DWIDTH 40 0
BBX 40 42 0 0
BITMAP
000007C000
00000F8000
00001F0000
00001E0000
00003C0000
0000780000
0000F80000
0000000000
0000000000
0000FF8000
0007FFE000
001FFFF800
007FFFFE00
00FF00FF00
01FC003F80
03F0000FC0
03E00007E0
07C00003E0
0FC00003F0
0F800001F0
0F800001F8
1F000000F8
1F000000F8
1F000000F8
1F000000F8
1F000000F8
1F000000F8
1F000000F8
1F000000F8
1F000000F8
0F800001F8
0F800001F0
0FC00003F0
07E00003E0
03E00007E0
03F8000FC0
01FC003F80
00FF80FF00
007FFFFE00
001FFFF800
0007FFF000
0000FF0000
ENDCHAR
STARTCHAR U+00D4
ENCODING 212
SWIDTH 784 0
DWIDTH 40 0
BBX 40 42 0 0
BITMAP
00007E0000
00007F0000
0000FF8000
0001F78000
0001E3C000
0003C1E000
000380E000
0000000000
0000000000
0000FF8000
0007FFE000
001FFFF800
007FFFFE00
00FF00FF00
01FC003F80
03F0000FC0
03E00007E0
07C00003E0
0FC00003F0
0F800001F0
0F800001F8
1F000000F8
1F000000F8
1F000000F8
1F000000F8
1F000000F8
1F000000F8
1F000000F8
1F000000F8
1F000000F8
0F800001F8
0F800001F0
0FC00003F0
07E00003E0
03E00007E0
03F8000FC0
01FC003F80
00FF80FF00
007FFFFE00
001FFFF800
0007FFF000
0000FF0000
ENDCHAR
STARTCHAR U+00D5
ENCODING 213
SWIDTH 784 0
DWIDTH 40 0
BBX 40 41 0 0
BITMAP
0003C00000
0007F0E000
000FFFE000
000FFFE000
00063FC000
00000F8000
0000000000
0000000000
0000FF8000
0007FFE000
001FFFF800
007FFFFE00
00FF00FF00
01FC003F80
03F0000FC0
03E00007E0
07C00003E0
0FC00003F0
0F800001F0
0F800001F8
1F000000F8
1F000000F8
1F000000F8
1F000000F8
1F000000F8
1F000000F8
1F000000F8
1F000000F8
1F000000F8
0F800001F8
0F800001F0
0FC00003F0
07E00003E0
03E00007E0
03F8000FC0
01FC003F80
00FF80FF00
007FFFFE00
001FFFF800
0007FFF000
0000FF0000
ENDCHAR
STARTCHAR U+00D6
ENCODING 214
SWIDTH 784 0
DWIDTH 40 0
BBX 40 42 0 0
BITMAP
0001004000
000380E000
0007C1F000
000FE3F800
0007C1F000
000380E000
0001004000
0000000000
0000000000
0000FF8000
0007FFE000
001FFFF800
007FFFFE00
00FF00FF00
01FC003F80
03F0000FC0
03E00007E0
07C00003E0
0FC00003F0
0F800001F0
0F800001F8
1F000000F8
1F000000F8
1F000000F8
1F000000F8
1F000000F8
1F000000F8
1F000000F8
1F000000F8
1F000000F8
0F800001F8
0F800001F0
0FC00003F0
07E00003E0
03E00007E0
03F8000FC0
01FC003F80
00FF80FF00
007FFFFE00
001FFFF800
0007FFF000
0000FF0000
ENDCHAR
STARTCHAR U+00D7
ENCODING 215
SWIDTH 509 0
DWIDTH 26 0
BBX 26 26 0 0
BITMAP
01001000
03803800
07C07C00
07E0FC00
03F1F800
01FBF000
00FFE000
007FC000
003F8000
003F8000
007FC000
00FFE000
01FBF000
07F1F800
0FC0FC00
0F807C00
07003800
02001000
00000000
00000000
00000000
00000000
00000000
00000000
00000000
00000000
ENDCHAR
STARTCHAR U+00D8
ENCODING 216
SWIDTH 784 0
DWIDTH 40 0
BBX 40 33 0 0
BITMAP
0000FF8020
0007FFE070
001FFFF8F0
007FFFFFE0
00FF00FFC0
01FC003F80
03F0000FC0
03E0001FE0
07C0003FE0
0FC0007BF0
0F8000F1F0
0F8001E1F8
1F0003C0F8
1F000780F8
1F000F00F8
1F001E00F8
1F003C00F8
1F007800F8
1F00F000F8
1F01E000F8
1F03C000F8
0F878001F8
0F8F0001F0
0FDF0003F0
07FE0003E0
03FC0007E0
03F8000FC0
01FC003F80
03FF00FF00
07FFFFFE00
0F1FFFF800
0E07FFF000
0400FF0000
ENDCHAR
STARTCHAR U+00D9
ENCODING 217
SWIDTH 744 0
DWIDTH 38 0
BBX 38 42 0 0
BITMAP
0007C00000
0007E00000
0003E00000
0001F00000
0000F80000
0000780000
00003C0000
0000000000
0000000000
0F800007C0
0F800007C0
0F800007C0
0F800007C0
0F800007C0
0F800007C0
0F800007C0
0F800007C0
0F800007C0
0F800007C0
0F800007C0
0F800007C0
0F800007C0
0F800007C0
0F800007C0
0F800007C0
0F800007C0
0F800007C0
0F800007C0
0F800007C0
0F80000780
07C0000F80
07C0000F80
07C0000F80
07E0001F00
03E0003F00
01F0003E00
01FC00FE00
00FF03FC00
007FFFF800
003FFFF000
000FFFC000
0001FE0000
ENDCHAR
STARTCHAR U+00DA
ENCODING 218
SWIDTH 744 0
DWIDTH 38 0
BBX 38 42 0 0
BITMAP
00000F8000
00001F0000
00003E0000
00003C0000
0000780000
0000F00000
0001F00000
0000000000
0000000000
0F800007C0
0F800007C0
0F800007C0
0F800007C0
0F800007C0
0F800007C0
0F800007C0
0F800007C0
0F800007C0
0F800007C0
0F800007C0
0F800007C0
0F800007C0
0F800007C0
0F800007C0
0F800007C0
0F800007C0
0F800007C0
0F800007C0
0F800007C0
0F80000780
07C0000F80
07C0000F80
07C0000F80
07E0001F00
03E0003F00
01F0003E00
01FC00FE00
00FF03FC00
007FFFF800
003FFFF000
000FFFC000
0001FE0000
ENDCHAR
STARTCHAR U+00DB
ENCODING 219
SWIDTH 744 0
DWIDTH 38 0
BBX 38 42 0 0
BITMAP
0000FC0000
0000FE0000
0001FF0000
0003EF0000
0003C78000
000783C000
000701C000
0000000000
0000000000
0F800007C0
0F800007C0
0F800007C0
0F800007C0
0F800007C0
0F800007C0
0F800007C0
0F800007C0
0F800007C0
0F800007C0
0F800007C0
0F800007C0
0F800007C0
0F800007C0
0F800007C0
0F800007C0
0F800007C0
0F800007C0
0F800007C0
0F800007C0
0F80000780
07C0000F80
07C0000F80
07C0000F80
07E0001F00
03E0003F00
01F0003E00
01FC00FE00
00FF03FC00
007FFFF800
003FFFF000
000FFFC000
0001FE0000
ENDCHAR
STARTCHAR U+00DC
ENCODING 220
SWIDTH 744 0
DWIDTH 38 0
BBX 38 42 0 0
BITMAP
0002008000
000701C000
000F83E000
001FC7F000
000F83E000
000701C000
0002008000
0000000000
0000000000
0F800007C0
0F800007C0
0F800007C0
0F800007C0
0F800007C0
0F800007C0
0F800007C0
0F800007C0
0F800007C0
0F800007C0
0F800007C0
0F800007C0
0F800007C0
0F800007C0
0F800007C0
0F800007C0
0F800007C0
0F800007C0
0F800007C0
0F800007C0
0F80000780
07C0000F80
07C0000F80
07C0000F80
07E0001F00
03E0003F00
01F0003E00
01FC00FE00
00FF03FC00
007FFFF800
003FFFF000
000FFFC000
0001FE0000
ENDCHAR
STARTCHAR U+00DD
ENCODING 221
SWIDTH 568 0
DWIDTH 29 0
BBX 29 42 0 0
BITMAP
0000F800
0001F000
0003E000
0003C000
00078000
000F0000
001F0000
00000000
00000000
7E0001F0
3E0003F0
3F0003E0
1F8007E0
0F8007C0
0FC00F80
07C01F80
07E01F00
03F03E00
01F03E00
01F87C00
00F87C00
007CF800
007FF000
003FF000
001FE000
001FC000
000FC000
000F8000
000F8000
000F8000
000F8000
000F8000
000F8000
000F8000
000F8000
000F8000
000F8000
000F8000
000F8000
000F8000
000F8000
000F8000
ENDCHAR
STARTCHAR U+00DE
ENCODING 222
SWIDTH 568 0
DWIDTH 29 0
BBX 29 33 0 0
BITMAP
07C00000
07C00000
07C00000
07C00000
07C00000
07C00000
07FFF000
07FFFC00
07FFFE00
07FFFF00
07C03F80
07C00FC0
07C007C0
07C007C0
07C007C0
07C007E0
07C007E0
07C007C0
07C007C0
07C007C0
07C00FC0
07C03F80
07FFFF00
07FFFE00
07FFFC00
07FFE000
07C00000
07C00000
07C00000
07C00000
07C00000
07C00000
07C00000
ENDCHAR
STARTCHAR U+00DF
ENCODING 223
SWIDTH 529 0
DWIDTH 27 0
BBX 27 33 0 0
BITMAP
001FC000
00FFF000
01FFF800
03FFFC00
03F07C00
07C03E00
07801E00
0F801E00
0F801E00
0F801E00
0F803E00
0F803C00
0F80FC00
0F8FF800
0F8FE000
0F8FF000
0F8FFC00
0F80FE00
0F803F00
0F801F00
0F800F80
0F800F80
0F800F80
0F800F80
0F800F80
0F800F80
0F800F80
0F801F00
0F807F00
0F9FFE00
0F9FFC00
0F9FF800
0F9FC000
ENDCHAR
STARTCHAR U+00E0
ENCODING 224
SWIDTH 490 0
DWIDTH 25 0
BBX 25 35 0 0
BITMAP
01F00000
01F80000
00F80000
007C0000
003E0000
001E0000
000F0000
00000000
00000000
00000000
00000000
00FF0000
07FFC000
07FFE000
07FFF000
0F83F800
0C00F800
1000F800
00007C00
00007C00
000FFC00
00FFFC00
03FFFC00
07FFFC00
0FF07C00
1F807C00
1F007C00
1E007C00
3E007C00
3E00FC00
1F03FC00
1FFFFC00
0FFFFC00
07FF7C00
01F87C00
ENDCHAR
STARTCHAR U+00E1
ENCODING 225
SWIDTH 490 0
DWIDTH 25 0
BBX 25 35 0 0
BITMAP
0003E000
0007C000
000F8000
000F0000
001E0000
003C0000
007C0000
00000000
00000000
00000000
00000000
00FF0000
07FFC000
07FFE000
07FFF000
0F83F800
0C00F800
1000F800
00007C00
00007C00
000FFC00
00FFFC00
03FFFC00
07FFFC00
0FF07C00
1F807C00
1F007C00
1E007C00
3E007C00
3E00FC00
1F03FC00
1FFFFC00
0FFFFC00
07FF7C00
01F87C00
ENDCHAR
STARTCHAR U+00E2
ENCODING 226
SWIDTH 490 0
DWIDTH 25 0
BBX 25 35 0 0
BITMAP
007E0000
007F0000
00FF8000
01F78000
01E3C000
03C1E000
0380E000
00000000
00000000
00000000
00000000
00FF0000
07FFC000
07FFE000
07FFF000
0F83F800
0C00F800
1000F800
00007C00
00007C00
000FFC00
00FFFC00
03FFFC00
07FFFC00
0FF07C00
1F807C00
1F007C00
1E007C00
3E007C00
3E00FC00
1F03FC00
1FFFFC00
0FFFFC00
07FF7C00
01F87C00
ENDCHAR
STARTCHAR U+00E3
ENCODING 227
SWIDTH 490 0
DWIDTH 25 0
BBX 25 34 0 0
BITMAP
01E00000
03F87000
07FFF000
07FFF000
031FE000
0007C000
00000000
00000000
00000000
00000000
00FF0000
07FFC000
07FFE000
07FFF000
0F83F800
0C00F800
1000F800
00007C00
00007C00
000FFC00
00FFFC00
03FFFC00
07FFFC00
0FF07C00
1F807C00
1F007C00
1E007C00
3E007C00
3E00FC00
1F03FC00
1FFFFC00
0FFFFC00
07FF7C00
01F87C00
ENDCHAR
STARTCHAR U+00E4
ENCODING 228
SWIDTH 490 0
DWIDTH 25 0
BBX 25 35 0 0
BITMAP
01004000
0380E000
07C1F000
0FE3F800
07C1F000
0380E000
01004000
00000000
00000000
00000000
00000000
00FF0000
07FFC000
07FFE000
07FFF000
0F83F800
0C00F800
1000F800
00007C00
00007C00
000FFC00
00FFFC00
03FFFC00
07FFFC00
0FF07C00
1F807C00
1F007C00
1E007C00
3E007C00
3E00FC00
1F03FC00
1FFFFC00
0FFFFC00
07FF7C00
01F87C00
ENDCHAR
STARTCHAR U+00E5
ENCODING 229
SWIDTH 490 0
DWIDTH 25 0
BBX 25 37 0 0
BITMAP
003C0000
007E0000
00E70000
00C30000
00C38000
00C30000
00E70000
007E0000
003C0000
00000000
00000000
00000000
00000000
00FF0000
07FFC000
07FFE000
07FFF000
0F83F800
0C00F800
1000F800
00007C00
00007C00
000FFC00
00FFFC00
03FFFC00
07FFFC00
0FF07C00
1F807C00
1F007C00
1E007C00
3E007C00
3E00FC00
1F03FC00
1FFFFC00
0FFFFC00
07FF7C00
01F87C00
ENDCHAR
STARTCHAR U+00E6
ENCODING 230
SWIDTH 803 0
DWIDTH 41 0
BBX 41 24 0 0
BITMAP
00FF00FE0000
07FFC3FFC000
07FFE7FFE000
0FFFFFFFF000
0F03FF83F000
0C00FE00F800
1800FE007800
00007C007C00
00007C007C00
0007FFFFFC00
007FFFFFFC00
03FFFFFFFC00
07FFFFFFFC00
0FF07C000000
1F807C000000
1F007C000000
1E007E000000
3E003E000400
1F007F001C00
1F83FFC07C00
1FFFFFFFFC00
0FFFE7FFF800
07FFC3FFE000
01FE007F8000
ENDCHAR
STARTCHAR U+00E7
ENCODING 231
SWIDTH 490 0
DWIDTH 25 0
BBX 25 34 0 -10
BITMAP
001FF000
007FFE00
01FFFE00
03FFFE00
07F81E00
0FC00600
0F800000
1F000000
1F000000
1E000000
3E000000
3E000000
3E000000
3E000000
1F000000
1F000000
1F000000
0F800000
0FE00600
07F81E00
03FFFE00
01FFFE00
007FFE00
000FF000
00070000
00070000
000FC000
000FF000
0000F000
0000F000
0000F000
003FF000
003FE000
003F8000
ENDCHAR
STARTCHAR U+00E8
ENCODING 232
SWIDTH 529 0
DWIDTH 27 0
BBX 27 35 0 0
BITMAP
00F80000
00FC0000
007C0000
003E0000
001F0000
000F0000
00078000
00000000
00000000
00000000
00000000
001FC000
00FFF000
01FFF800
03FFFC00
07E0FE00
0FC03E00
0F801F00
1F001F00
1F000F00
1F000F00
3FFFFF80
3FFFFF80
3FFFFF80
3FFFFF80
1E000000
1F000000
1F000000
0F800100
0FC00700
07F01F00
03FFFF00
01FFFF00
00FFFE00
001FE000
ENDCHAR
STARTCHAR U+00E9
ENCODING 233
SWIDTH 529 0
DWIDTH 27 0
BBX 27 35 0 0
BITMAP
0001F000
0003E000
0007C000
00078000
000F0000
001E0000
003E0000
00000000
00000000
00000000
00000000
001FC000
00FFF000
01FFF800
03FFFC00
07E0FE00
0FC03E00
0F801F00
1F001F00
1F000F00
1F000F00
3FFFFF80
3FFFFF80
3FFFFF80
3FFFFF80
1E000000
1F000000
1F000000
0F800100
0FC00700
07F01F00
03FFFF00
01FFFF00
00FFFE00
001FE000
ENDCHAR
STARTCHAR U+00EA
ENCODING 234
SWIDTH 529 0
DWIDTH 27 0
BBX 27 35 0 0
BITMAP
003F0000
003F8000
007FC000
00FBC000
00F1E000
01E0F000
01C07000
00000000
00000000
00000000
00000000
001FC000
00FFF000
01FFF800
03FFFC00
07E0FE00
0FC03E00
0F801F00
1F001F00
1F000F00
1F000F00
3FFFFF80
3FFFFF80
3FFFFF80
3FFFFF80
1E000000
1F000000
1F000000
0F800100
0FC00700
07F01F00
03FFFF00
01FFFF00
00FFFE00
001FE000
ENDCHAR
STARTCHAR U+00EB
ENCODING 235
SWIDTH 529 0
DWIDTH 27 0
BBX 27 35 0 0
BITMAP
00802000
01C07000
03E0F800
07F1FC00
03E0F800
01C07000
00802000
00000000
00000000
00000000
00000000
001FC000
00FFF000
01FFF800
03FFFC00
07E0FE00
0FC03E00
0F801F00
1F001F00
1F000F00
1F000F00
3FFFFF80
3FFFFF80
3FFFFF80
3FFFFF80
1E000000
1F000000
1F000000
0F800100
0FC00700
07F01F00
03FFFF00
01FFFF00
00FFFE00
001FE000
ENDCHAR
STARTCHAR U+00EC
ENCODING 236
SWIDTH 255 0
DWIDTH 13 0
BBX 14 35 -1 0
BITMAP
0000
0000
0000
0000
0000
0000
0000
0000
0000
0000
0000
0000
0000
0000
0000
0000
0000
0000
0000
0000
0000
0000
0000
0000
0000
0000
0000
0000
0000
0000
0000
0000
0000
0000
0000
ENDCHAR
STARTCHAR U+00ED
ENCODING 237
SWIDTH 255 0
DWIDTH 13 0
BBX 14 35 0 0
BITMAP
00F8
01F0
03E0
03C0
0780
0F00
1F00
0000
0000
0000
0000
0F80
0F80
0F80
0F80
0F80
0F80
0F80
0F80
0F80
0F80
0F80
0F80
0F80
0F80
0F80
0F80
0F80
0F80
0F80
0F80
0F80
0F80
0F80
0F80
ENDCHAR
STARTCHAR U+00EE
ENCODING 238
SWIDTH 255 0
DWIDTH 13 0
BBX 15 35 -1 0
BITMAP
0FC0
0FE0
1FF0
3EF0
3C78
783C
701C
0000
0000
0000
0000
07C0
07C0
07C0
07C0
07C0
07C0
07C0
07C0
07C0
07C0
07C0
07C0
07C0
07C0
07C0
07C0
07C0
07C0
07C0
07C0
07C0
07C0
07C0
07C0
ENDCHAR
STARTCHAR U+00EF
ENCODING 239
SWIDTH 255 0
DWIDTH 13 0
BBX 17 35 -2 0
BITMAP
100400
380E00
7C1F00
FE3F80
7C1F00
380E00
100400
000000
000000
000000
000000
03E000
03E000
03E000
03E000
03E000
03E000
03E000
03E000
03E000
03E000
03E000
03E000
03E000
03E000
03E000
03E000
03E000
03E000
03E000
03E000
03E000
03E000
03E000
03E000
ENDCHAR
STARTCHAR U+00F0
ENCODING 240
SWIDTH 529 0
DWIDTH 27 0
BBX 27 33 0 0
BITMAP
00303000
00F8F000
01FFF800
007FF000
003FC000
00FFC000
03FFE000
07F3F000
03C1F800
0100F800
0000FC00
003F7C00
00FFFE00
03FFFE00
07FFFF00
0FE07F00
0F801F00
1F000F80
1F000F80
1E000F80
3E000F80
3E000F80
3E000F80
3E000F80
1F000F00
1F001F00
1F003F00
0F807E00
0FE0FE00
07FFFC00
03FFF800
01FFE000
007F8000
ENDCHAR
STARTCHAR U+00F1
ENCODING 241
SWIDTH 568 0
DWIDTH 29 0
BBX 29 34 0 0
BITMAP
00780000
00FE1C00
01FFFC00
01FFFC00
00C7F800
0001F000
00000000
00000000
00000000
00000000
0F8FE000
0FBFF800
0FFFFE00
0FFFFF00
0FF03F00
0FC01F80
0F800F80
0F8007C0
0F8007C0
0F8007C0
0F8007C0
0F8007C0
0F8007C0
0F8007C0
0F8007C0
0F8007C0
0F8007C0
0F8007C0
0F8007C0
0F8007C0
0F8007C0
0F8007C0
0F8007C0
0F8007C0
ENDCHAR
STARTCHAR U+00F2
ENCODING 242
SWIDTH 588 0
DWIDTH 30 0
BBX 30 35 0 0
BITMAP
007C0000
007E0000
003E0000
001F0000
000F8000
00078000
0003C000
00000000
00000000
00000000
00000000
001FE000
007FF800
01FFFE00
03FFFF00
07F03F80
0FC00FC0
0F8007C0
1F0007E0
1F0003E0
1E0003E0
3E0001E0
3E0001F0
3E0001F0
3E0001E0
1E0003E0
1F0003E0
1F0007E0
0F8007C0
0FC00FC0
07F03F80
03FFFF00
01FFFE00
007FF800
001FE000
ENDCHAR
STARTCHAR U+00F3
ENCODING 243
SWIDTH 588 0
DWIDTH 30 0
BBX 30 35 0 0
BITMAP
0000F800
0001F000
0003E000
0003C000
00078000
000F0000
001F0000
00000000
00000000
00000000
00000000
001FE000
007FF800
01FFFE00
03FFFF00
07F03F80
0FC00FC0
0F8007C0
1F0007E0
1F0003E0
1E0003E0
3E0001E0
3E0001F0
3E0001F0
3E0001E0
1E0003E0
1F0003E0
1F0007E0
0F8007C0
0FC00FC0
07F03F80
03FFFF00
01FFFE00
007FF800
001FE000
ENDCHAR
STARTCHAR U+00F4
ENCODING 244
SWIDTH 588 0
DWIDTH 30 0
BBX 30 35 0 0
BITMAP
000FC000
000FE000
001FF000
003EF000
003C7800
00783C00
00701C00
00000000
00000000
00000000
00000000
001FE000
007FF800
01FFFE00
03FFFF00
07F03F80
0FC00FC0
0F8007C0
1F0007E0
1F0003E0
1E0003E0
3E0001E0
3E0001F0
3E0001F0
3E0001E0
1E0003E0
1F0003E0
1F0007E0
0F8007C0
0FC00FC0
07F03F80
03FFFF00
01FFFE00
007FF800
001FE000
ENDCHAR
STARTCHAR U+00F5
ENCODING 245
SWIDTH 588 0
DWIDTH 30 0
BBX 30 34 0 0
BITMAP
00780000
00FE1C00
01FFFC00
01FFFC00
00C7F800
0001F000
00000000
00000000
00000000
00000000
001FE000
007FF800
01FFFE00
03FFFF00
07F03F80
0FC00FC0
0F8007C0
1F0007E0
1F0003E0
1E0003E0
3E0001E0
3E0001F0
3E0001F0
3E0001E0
1E0003E0
1F0003E0
1F0007E0
0F8007C0
0FC00FC0
07F03F80
03FFFF00
01FFFE00
007FF800
001FE000
ENDCHAR
STARTCHAR U+00F6
ENCODING 246
SWIDTH 588 0
DWIDTH 30 0
BBX 30 35 0 0
BITMAP
00200800
00701C00
00F83E00
01FC7F00
00F83E00
00701C00
00200800
00000000
00000000
00000000
00000000
001FE000
007FF800
01FFFE00
03FFFF00
07F03F80
0FC00FC0
0F8007C0
1F0007E0
1F0003E0
1E0003E0
3E0001E0
3E0001F0
3E0001F0
3E0001E0
1E0003E0
1F0003E0
1F0007E0
0F8007C0
0FC00FC0
07F03F80
03FFFF00
01FFFE00
007FF800
001FE000
ENDCHAR
STARTCHAR U+00F7
ENCODING 247
SWIDTH 509 0
DWIDTH 26 0
BBX 26 29 0 0
BITMAP
00040000
000E0000
001F0000
003F8000
003F0000
000E0000
00040000
00000000
00000000
00000000
00000000
1FFFFE00
1FFFFE00
1FFFFE00
1FFFFE00
00000000
00000000
00000000
00040000
000E0000
001F0000
003F8000
003F0000
000E0000
00040000
00000000
00000000
00000000
00000000
ENDCHAR
STARTCHAR U+00F8
ENCODING 248
SWIDTH 588 0
DWIDTH 30 0
BBX 30 26 0 -1
BITMAP
00000100
001FE1C0
007FFB80
01FFFF80
03FFFF00
07F03F80
0FC03FC0
0F807FC0
1F0077E0
1F00F3E0
1E01E3E0
3E03C1E0
3E0381F0
3E0701F0
3E0F01E0
1E1E03E0
1F3C03E0
1F3807E0
0FF007C0
0FF00FC0
07F03F80
03FFFF00
07FFFE00
0F7FF800
0E1FE000
04000000
ENDCHAR
STARTCHAR U+00F9
ENCODING 249
SWIDTH 568 0
DWIDTH 29 0
BBX 29 35 0 0
BITMAP
007C0000
007E0000
003E0000
001F0000
000F8000
00078000
0003C000
00000000
00000000
00000000
00000000
0F0007C0
0F0007C0
0F0007C0
0F0007C0
0F0007C0
0F0007C0
0F0007C0
0F0007C0
0F0007C0
0F0007C0
0F0007C0
0F0007C0
0F0007C0
0F0007C0
0F0007C0
0F8007C0
0F8007C0
0F8007C0
07C00FC0
07F03FC0
03FFFFC0
01FFFFC0
00FFF7C0
003FC7C0
ENDCHAR
STARTCHAR U+00FA
ENCODING 250
SWIDTH 568 0
DWIDTH 29 0
BBX 29 35 0 0
BITMAP
0000F800
0001F000
0003E000
0003C000
00078000
000F0000
001F0000
00000000
00000000
00000000
00000000
0F0007C0
0F0007C0
0F0007C0
0F0007C0
0F0007C0
0F0007C0
0F0007C0
0F0007C0
0F0007C0
0F0007C0
0F0007C0
0F0007C0
0F0007C0
0F0007C0
0F0007C0
0F8007C0
0F8007C0
0F8007C0
07C00FC0
07F03FC0
03FFFFC0
01FFFFC0
00FFF7C0
003FC7C0
ENDCHAR
STARTCHAR U+00FB
ENCODING 251
SWIDTH 568 0
DWIDTH 29 0
BBX 29 35 0 0
BITMAP
001F8000
001FC000
003FE000
007DE000
0078F000
00F07800
00E03800
00000000
00000000
00000000
00000000
0F0007C0
0F0007C0
0F0007C0
0F0007C0
0F0007C0
0F0007C0
0F0007C0
0F0007C0
0F0007C0
0F0007C0
0F0007C0
0F0007C0
0F0007C0
0F0007C0
0F0007C0
0F8007C0
0F8007C0
0F8007C0
07C00FC0
07F03FC0
03FFFFC0
01FFFFC0
00FFF7C0
003FC7C0
ENDCHAR
STARTCHAR U+00FC
ENCODING 252
SWIDTH 568 0
DWIDTH 29 0
BBX 29 35 0 0
BITMAP
00401000
00E03800
01F07C00
03F8FE00
01F07C00
00E03800
00401000
00000000
00000000
00000000
00000000
0F0007C0
0F0007C0
0F0007C0
0F0007C0
0F0007C0
0F0007C0
0F0007C0
0F0007C0
0F0007C0
0F0007C0
0F0007C0
0F0007C0
0F0007C0
0F0007C0
0F0007C0
0F8007C0
0F8007C0
0F8007C0
07C00FC0
07F03FC0
03FFFFC0
01FFFFC0
00FFF7C0
003FC7C0
ENDCHAR
STARTCHAR U+00FD
ENCODING 253
SWIDTH 529 0
DWIDTH 27 0
BBX 27 44 0 -9
BITMAP
0003E000
0007C000
000F8000
000F0000
001E0000
003C0000
007C0000
00000000
00000000
00000000
00000000
7C000FC0
7C000F80
3E000F80
3E001F00
1F001F00
1F001F00
0F003E00
0F803E00
0F807C00
07C07C00
07C07800
03E0F800
03E0F800
01E1F000
01F1F000
01F1E000
00FBE000
00FBE000
007BC000
007FC000
003F8000
003F8000
003F0000
001F0000
001F0000
001E0000
003E0000
003C0000
007C0000
07F80000
07F80000
07E00000
07C00000
ENDCHAR
STARTCHAR U+00FE
ENCODING 254
SWIDTH 588 0
DWIDTH 30 0
BBX 30 42 0 -9
BITMAP
0F800000
0F800000
0F800000
0F800000
0F800000
0F800000
0F800000
0F800000
0F800000
0F8FE000
0FBFF800
0FFFFE00
0FFFFF00
0FE07F80
0FC01F80
0F800FC0
0F8007C0
0F8003E0
0F8003E0
0F8003E0
0F8003E0
0F8003E0
0F8003E0
0F8003E0
0F8003E0
0F8007C0
0F800FC0
0FC01F80
0FF07F80
0FFFFF00
0FFFFE00
0FFFF800
0F9FC000
0F800000
0F800000
0F800000
0F800000
0F800000
0F800000
0F800000
0F800000
0F800000
ENDCHAR
STARTCHAR U+00FF
ENCODING 255
SWIDTH 529 0
DWIDTH 27 0
BBX 27 44 0 -9
BITMAP
00802000
01C07000
03E0F800
07F1FC00
03E0F800
01C07000
00802000
00000000
00000000
00000000
00000000
7C000FC0
7C000F80
3E000F80
3E001F00
1F001F00
1F001F00
0F003E00
0F803E00
0F807C00
07C07C00
07C07800
03E0F800
03E0F800
01E1F000
01F1F000
01F1E000
00FBE000
00FBE000
007BC000
007FC000
003F8000
003F8000
003F0000
001F0000
001F0000
001E0000
003E0000
003C0000
007C0000
07F80000
07F80000
07E00000
07C00000
ENDCHAR
STARTCHAR U+2013
ENCODING 8211
SWIDTH 490 0
DWIDTH 25 0
BBX 26 15 -1 0
BITMAP
FFFFFF80
FFFFFF80
FFFFFF80
FFFFFF80
00000000
00000000
00000000
00000000
00000000
00000000
00000000
00000000
00000000
00000000
00000000
ENDCHAR
STARTCHAR U+2014
ENCODING 8212
SWIDTH 960 0
DWIDTH 49 0
BBX 51 15 -1 0
BITMAP
FFFFFFFFFFFF80
FFFFFFFFFFFF80
FFFFFFFFFFFF80
FFFFFFFFFFFF80
00000000000000
00000000000000
00000000000000
00000000000000
00000000000000
00000000000000
00000000000000
00000000000000
00000000000000
00000000000000
00000000000000
ENDCHAR
STARTCHAR U+2018
ENCODING 8216
SWIDTH 235 0
DWIDTH 12 0
BBX 12 33 0 0
BITMAP
0080
0300
0600
0E00
0E00
1F00
1F00
1F80
0F80
0F00
0600
0000
0000
0000
0000
0000
0000
0000
0000
0000
0000
0000
0000
0000
0000
0000
0000
0000
0000
0000
0000
0000
0000
ENDCHAR
STARTCHAR U+2019
ENCODING 8217
SWIDTH 235 0
DWIDTH 12 0
BBX 12 33 0 0
BITMAP
0200
0700
0F00
1F80
1F80
0F80
0780
0700
0700
0600
0C00
1000
0000
0000
0000
0000
0000
0000
0000
0000
0000
0000
0000
0000
0000
0000
0000
0000
0000
0000
0000
0000
0000
ENDCHAR
STARTCHAR U+201C
ENCODING 8220
SWIDTH 392 0
DWIDTH 20 0
BBX 20 33 0 0
BITMAP
008100
030300
060600
0E0E00
0E1E00
1F1E00
1F1F00
1F9F80
0F9F80
0F0F00
060600
000000
000000
000000
000000
000000
000000
000000
000000
000000
000000
000000
000000
000000
000000
000000
000000
000000
000000
000000
000000
000000
000000
ENDCHAR
STARTCHAR U+201D
ENCODING 8221
SWIDTH 392 0
DWIDTH 20 0
BBX 20 33 0 0
BITMAP
020200
070700
0F0F00
1F9F80
1F9F80
0F8F80
078780
070700
070700
060600
0C0C00
101000
000000
000000
000000
000000
000000
000000
000000
000000
000000
000000
000000
000000
000000
000000
000000
000000
000000
000000
000000
000000
000000
ENDCHAR
STARTCHAR U+2022
ENCODING 8226
SWIDTH 411 0
DWIDTH 21 0
BBX 21 21 0 0
BITMAP
002000
007000
00F800
01FC00
03FE00
07FF00
07FF00
03FE00
01FC00
00F800
007000
002000
000000
000000
000000
000000
000000
000000
000000
000000
000000
ENDCHAR
STARTCHAR U+2026
ENCODING 8230
SWIDTH 882 0
DWIDTH 45 0
BBX 45 7 0 0
BITMAP
020002000100
070007000380
1F801F800FC0
1F801F800FC0
0F800F8007C0
070007000380
020002000100
ENDCHAR
STARTCHAR U+20AC
ENCODING 8364
SWIDTH 607 0
DWIDTH 31 0
BBX 31 33 0 0
BITMAP
0001FF00
000FFFE0
001FFFF0
007FFFF0
00FF00F0
01FC0030
01F80000
03F00000
07E00000
07C00000
07C00000
3FFFFE00
7FFFFE00
7FFFFC00
7FFFFC00
0F800000
0F800000
0F800000
3FFFF800
7FFFF800
7FFFF800
7FFFF800
07C00000
07C00000
07E00000
03F00000
01F80000
01FC0030
00FF00F0
007FFFF0
001FFFF0
000FFFE0
0001FF00
ENDCHAR
ENDFONT
