STARTFONT 2.1
COMMENT Converted from Johnston100 W03 Regular.ttf at 36px with ttf2bdf.py (Pillow, 1-bit, no AA)
FONT -Misc-Johnston100-Medium-R-Normal--36-360-75-75-P-380-ISO10646-1
SIZE 36 75 75
FONTBOUNDINGBOX 38 41 -2 -9
STARTPROPERTIES 9
FOUNDRY "Misc"
FAMILY_NAME "Johnston100"
WEIGHT_NAME "Medium"
SLANT "R"
PIXEL_SIZE 36
RESOLUTION_X 75
RESOLUTION_Y 75
FONT_ASCENT 32
FONT_DESCENT 9
ENDPROPERTIES
CHARS 200
STARTCHAR space
ENCODING 32
SWIDTH 240 0
DWIDTH 9 0
BBX 9 41 0 -9
BITMAP
0000
0000
0000
0000
0000
0000
0000
0000
0000
0000
0000
0000
0000
0000
0000
0000
0000
0000
0000
0000
0000
0000
0000
0000
0000
0000
0000
0000
0000
0000
0000
0000
0000
0000
0000
0000
0000
0000
0000
0000
0000
ENDCHAR
STARTCHAR !
ENCODING 33
SWIDTH 267 0
DWIDTH 10 0
BBX 10 24 0 0
BITMAP
1E00
1E00
1E00
1E00
1E00
1E00
1E00
1E00
1E00
1E00
1E00
0E00
0E00
0E00
0E00
0E00
0C00
0C00
0000
0000
0C00
1E00
0E00
0400
ENDCHAR
STARTCHAR "
ENCODING 34
SWIDTH 400 0
DWIDTH 15 0
BBX 15 24 0 0
BITMAP
1C70
1C70
1C70
1C70
1C70
1C70
1870
1830
1830
0000
0000
0000
0000
0000
0000
0000
0000
0000
0000
0000
0000
0000
0000
0000
ENDCHAR
STARTCHAR U+0023
ENCODING 35
SWIDTH 720 0
DWIDTH 27 0
BBX 27 24 0 0
BITMAP
00040600
001C0C00
001C1C00
00181C00
00381C00
00383800
00383800
0FFFFFC0
0FFFFFC0
1FFFFFC0
00607000
00E07000
00E0E000
00E0E000
01C0E000
3FFFFF00
7FFFFF00
7FFFFE00
0381C000
03838000
03838000
07038000
07070000
04060000
ENDCHAR
STARTCHAR $
ENCODING 36
SWIDTH 480 0
DWIDTH 18 0
BBX 18 30 0 -3
BITMAP
01C000
01C000
01E000
07F800
1FFC00
1FFE00
3C1C00
3C0000
3C0000
3C0000
3F0000
1FC000
0FE000
07F800
01FE00
007E00
001F00
000F00
000780
000780
000780
300700
780F00
3E1F00
3FFE00
0FFC00
07F000
01C000
01C000
000000
ENDCHAR
STARTCHAR %
ENCODING 37
SWIDTH 720 0
DWIDTH 27 0
BBX 27 24 0 0
BITMAP
07803800
1FE07000
3FF07000
3870E000
3870E000
3871C000
3871C000
3FF38000
1FE38000
07870000
00070000
000E0000
000E0000
001C0000
001C7C00
0038FF00
0039FF00
0071C780
00718380
00E18380
00E1C780
01C1FF00
01C0FF00
03807C00
ENDCHAR
STARTCHAR &
ENCODING 38
SWIDTH 667 0
DWIDTH 25 0
BBX 25 24 0 0
BITMAP
00F80000
03FE0000
07FF0000
078F0000
0F078000
0F078000
0F078000
0F870000
079F0000
03FE0000
01FC0000
03F00000
0FF81C00
1FFC3C00
3E3E3800
3C1F7800
380FF000
3807F000
3803E000
3C03F000
3E0FF800
1FFF7C00
0FFE3E00
03F01F00
ENDCHAR
STARTCHAR '
ENCODING 39
SWIDTH 213 0
DWIDTH 8 0
BBX 8 24 0 0
BITMAP
1C
1C
1C
1C
1C
1C
18
18
18
00
00
00
00
00
00
00
00
00
00
00
00
00
00
00
ENDCHAR
STARTCHAR (
ENCODING 40
SWIDTH 267 0
DWIDTH 10 0
BBX 10 29 0 -2
BITMAP
0700
0700
0E00
0E00
0E00
1C00
1C00
1C00
1C00
3C00
3C00
3800
3800
3800
3800
3800
3800
3800
3C00
3C00
1C00
1C00
1C00
1C00
1E00
0E00
0E00
0700
0700
ENDCHAR
STARTCHAR )
ENCODING 41
SWIDTH 267 0
DWIDTH 10 0
BBX 10 29 0 -2
BITMAP
7000
3800
3800
3C00
1C00
1C00
1E00
0E00
0E00
0E00
0E00
0E00
0E00
0E00
0E00
0E00
0E00
0E00
0E00
0E00
0E00
0E00
1E00
1C00
1C00
3C00
3800
3800
7000
ENDCHAR
STARTCHAR *
ENCODING 42
SWIDTH 400 0
DWIDTH 15 0
BBX 15 24 0 0
BITMAP
0380
0380
2310
3338
7F78
1FE0
0380
1FE0
7B38
3310
0380
0380
0000
0000
0000
0000
0000
0000
0000
0000
0000
0000
0000
0000
ENDCHAR
STARTCHAR +
ENCODING 43
SWIDTH 507 0
DWIDTH 19 0
BBX 19 19 0 0
BITMAP
00E000
00E000
00E000
00E000
00E000
3FFF80
3FFF80
3FFF80
00E000
00E000
00E000
00E000
00E000
000000
000000
000000
000000
000000
000000
ENDCHAR
STARTCHAR ,
ENCODING 44
SWIDTH 240 0
DWIDTH 9 0
BBX 9 9 0 -4
BITMAP
0800
1C00
3C00
3E00
1C00
0C00
0800
1000
2000
ENDCHAR
STARTCHAR -
ENCODING 45
SWIDTH 373 0
DWIDTH 14 0
BBX 14 11 0 0
BITMAP
7FF0
7FF0
7FF0
0000
0000
0000
0000
0000
0000
0000
0000
ENDCHAR
STARTCHAR .
ENCODING 46
SWIDTH 240 0
DWIDTH 9 0
BBX 9 5 0 0
BITMAP
0800
1C00
3E00
1C00
0800
ENDCHAR
STARTCHAR /
ENCODING 47
SWIDTH 320 0
DWIDTH 12 0
BBX 12 29 0 -2
BITMAP
00E0
00E0
00E0
01E0
01C0
01C0
01C0
0380
0380
0380
0780
0700
0700
0F00
0E00
0E00
0E00
1E00
1C00
1C00
3C00
3800
3800
3800
7000
7000
7000
F000
E000
ENDCHAR
STARTCHAR 0
ENCODING 48
SWIDTH 560 0
DWIDTH 21 0
BBX 21 24 0 0
BITMAP
00F800
03FE00
07FF00
078F80
0F0780
0E03C0
1E03C0
1E01C0
1C01C0
1C01E0
1C01E0
1C01E0
1C01E0
1C01E0
1C01E0
1C01C0
1E01C0
1E03C0
0E03C0
0F0780
078F80
07FF00
03FE00
00F800
ENDCHAR
STARTCHAR 1
ENCODING 49
SWIDTH 293 0
DWIDTH 11 0
BBX 11 24 0 0
BITMAP
0200
0600
0E00
0E00
0E00
0E00
0E00
0E00
0E00
0E00
0E00
0E00
0E00
0E00
0E00
0E00
0E00
0E00
0E00
0E00
0E00
0E00
0E00
0E00
ENDCHAR
STARTCHAR 2
ENCODING 50
SWIDTH 480 0
DWIDTH 18 0
BBX 18 24 0 0
BITMAP
03F000
0FFC00
1FFE00
1E1E00
180F00
100F00
200F00
000F00
000F00
000F00
001E00
003E00
003C00
007C00
00F800
00F000
01F000
03E000
03C000
07C000
0F8000
0FFF80
1FFF80
3FFF80
ENDCHAR
STARTCHAR 3
ENCODING 51
SWIDTH 507 0
DWIDTH 19 0
BBX 19 24 0 0
BITMAP
3FFF80
3FFF00
3FFE00
001E00
003C00
007800
007800
00F000
00F000
01F800
03FE00
001F00
000F00
000780
000780
000380
000380
000780
000780
100F00
3C1F00
7FFE00
3FFC00
07F000
ENDCHAR
STARTCHAR 4
ENCODING 52
SWIDTH 560 0
DWIDTH 21 0
BBX 21 24 0 0
BITMAP
000100
000300
000300
000700
000F00
001F00
003F00
007F00
00FF00
01EF00
01CF00
038F00
070F00
0E0F00
1E0F00
3FFFE0
7FFFE0
FFFFE0
000F00
000F00
000F00
000F00
000F00
000F00
ENDCHAR
STARTCHAR 5
ENCODING 53
SWIDTH 507 0
DWIDTH 19 0
BBX 19 24 0 0
BITMAP
000000
000000
000000
000000
000000
000000
000000
000000
000000
000000
000000
000000
000000
000000
000000
000000
000000
000000
000000
000000
000000
000000
000000
000000
ENDCHAR
STARTCHAR 6
ENCODING 54
SWIDTH 507 0
DWIDTH 19 0
BBX 19 24 0 0
BITMAP
007C00
00F800
01F000
03E000
07C000
078000
0F0000
0E0000
1E0000
1FF800
3FFE00
3FFF00
3E0F80
380780
380380
380380
380380
380380
3C0780
3C0780
1F0F00
0FFE00
07FC00
03F800
ENDCHAR
STARTCHAR 7
ENCODING 55
SWIDTH 480 0
DWIDTH 18 0
BBX 18 24 0 0
BITMAP
3FFF80
3FFF00
3FFF00
000E00
001E00
001E00
003C00
003C00
007800
007800
00F000
00F000
01E000
01E000
01E000
03C000
03C000
078000
078000
0F0000
0F0000
1E0000
1E0000
3C0000
ENDCHAR
STARTCHAR 8
ENCODING 56
SWIDTH 507 0
DWIDTH 19 0
BBX 19 24 0 0
BITMAP
01F000
07FC00
0FFE00
0F1F00
1E0F00
1C0700
1E0700
1E0F00
0F1E00
0FFC00
07F800
03FC00
0FFE00
1F1F00
1E0F80
3C0780
3C0380
380380
3C0380
3C0780
1E0F00
1FFF00
07FE00
03F800
ENDCHAR
STARTCHAR 9
ENCODING 57
SWIDTH 507 0
DWIDTH 19 0
BBX 19 24 0 0
BITMAP
01F800
07FC00
0FFF00
1F0F00
3C0780
3C0780
380380
3803C0
3803C0
3C03C0
3C0380
1E0F80
1FFF80
0FFF80
03FF00
000F00
000F00
001E00
003C00
003C00
007800
00F000
03E000
07C000
ENDCHAR
STARTCHAR :
ENCODING 58
SWIDTH 267 0
DWIDTH 10 0
BBX 10 19 0 0
BITMAP
0400
0E00
1F00
0E00
0400
0000
0000
0000
0000
0000
0000
0000
0000
0000
0400
0E00
1F00
0E00
0400
ENDCHAR
STARTCHAR ;
ENCODING 59
SWIDTH 267 0
DWIDTH 10 0
BBX 10 22 0 -4
BITMAP
0400
0E00
1F00
0E00
0400
0000
0000
0000
0000
0000
0000
0000
0000
0400
0E00
1E00
1F00
0E00
0600
0400
0800
1000
ENDCHAR
STARTCHAR U+003C
ENCODING 60
SWIDTH 507 0
DWIDTH 19 0
BBX 19 22 0 0
BITMAP
000180
000780
001F80
007F80
01FE00
07F800
1FE000
3F8000
3E0000
3F8000
1FE000
07F800
01FE00
007F80
001F80
000780
000180
000000
000000
000000
000000
000000
ENDCHAR
STARTCHAR =
ENCODING 61
SWIDTH 507 0
DWIDTH 19 0
BBX 19 18 0 0
BITMAP
3FFF80
3FFF80
3FFF80
000000
000000
000000
000000
000000
3FFF80
3FFF80
3FFF80
000000
000000
000000
000000
000000
000000
000000
ENDCHAR
STARTCHAR U+003E
ENCODING 62
SWIDTH 507 0
DWIDTH 19 0
BBX 19 22 0 0
BITMAP
300000
3C0000
3F0000
3FC000
0FF000
03FC00
00FF00
003F80
000F80
003F80
00FF00
03FC00
0FF000
3FC000
3F0000
3C0000
300000
000000
000000
000000
000000
000000
ENDCHAR
STARTCHAR ?
ENCODING 63
SWIDTH 427 0
DWIDTH 16 0
BBX 16 24 0 0
BITMAP
0FE0
1FF0
7FF8
787C
201C
001C
001C
003C
007C
01F8
03F0
07C0
0780
0F00
0F00
0780
0380
0100
0000
0100
0380
07C0
0380
0100
ENDCHAR
STARTCHAR @
ENCODING 64
SWIDTH 933 0
DWIDTH 35 0
BBX 35 31 0 -7
BITMAP
0003FE0000
001FFF8000
007FFFE000
00FC03F000
01F0007800
03C0003C00
0780001E00
0F01F90E00
0E07FF0700
1E0FFF0700
1C1F070700
1C1C070380
383C070380
3838070380
3838070380
38380F0380
38380E0700
38380E0700
38380E0700
383C0E0E00
3C3E1F1E00
1C1FFFFC00
1E0FF7F800
0E03E1E000
0F00000000
0780000000
03E0010000
01F80F0000
00FFFF0000
003FFE0000
000FF00000
ENDCHAR
STARTCHAR A
ENCODING 65
SWIDTH 640 0
DWIDTH 24 0
BBX 24 24 0 0
BITMAP
003C00
003C00
007E00
007E00
007E00
00FF00
00E700
01E780
01E780
01C380
03C3C0
03C1C0
0781E0
0781E0
0700F0
0FFFF0
0FFFF0
1FFFF8
1E0078
1C003C
3C003C
3C001E
78001E
78001E
ENDCHAR
STARTCHAR B
ENCODING 66
SWIDTH 587 0
DWIDTH 22 0
BBX 22 24 0 0
BITMAP
1FF800
1FFE00
1FFF00
1E0F80
1E0780
1E0380
1E0380
1E0380
1E0780
1E0F00
1FFE00
1FFF80
1FFFC0
1E03E0
1E01F0
1E00F0
1E00F0
1E00F0
1E00F0
1E01F0
1E03E0
1FFFC0
1FFF80
1FFE00
ENDCHAR
STARTCHAR C
ENCODING 67
SWIDTH 667 0
DWIDTH 25 0
BBX 25 24 0 0
BITMAP
001FE000
007FF800
01FFFE00
03F01E00
07C00600
0F000000
1F000000
1E000000
1C000000
3C000000
3C000000
3C000000
3C000000
3C000000
3C000000
1C000000
1E000000
1F000000
0F800000
07C00600
03F01E00
01FFFE00
007FF800
001FE000
ENDCHAR
STARTCHAR D
ENCODING 68
SWIDTH 693 0
DWIDTH 26 0
BBX 26 24 0 0
BITMAP
1FFE0000
1FFFC000
1FFFE000
1E03F800
1E00FC00
1E003C00
1E001E00
1E001E00
1E000F00
1E000F00
1E000F00
1E000F00
1E000F00
1E000F00
1E000F00
1E000F00
1E001E00
1E001E00
1E003C00
1E00FC00
1E03F800
1FFFE000
1FFFC000
1FFE0000
ENDCHAR
STARTCHAR E
ENCODING 69
SWIDTH 560 0
DWIDTH 21 0
BBX 21 24 0 0
BITMAP
1FFFE0
1FFFE0
1FFFE0
1E0000
1E0000
1E0000
1E0000
1E0000
1E0000
1E0000
1FFF00
1FFF00
1FFF00
1E0000
1E0000
1E0000
1E0000
1E0000
1E0000
1E0000
1E0000
1FFFE0
1FFFE0
1FFFE0
ENDCHAR
STARTCHAR F
ENCODING 70
SWIDTH 507 0
DWIDTH 19 0
BBX 19 24 0 0
BITMAP
1FFFC0
1FFFC0
1FFFC0
1E0000
1E0000
1E0000
1E0000
1E0000
1E0000
1FFE00
1FFE00
1FFE00
1E0000
1E0000
1E0000
1E0000
1E0000
1E0000
1E0000
1E0000
1E0000
1E0000
1E0000
1E0000
ENDCHAR
STARTCHAR G
ENCODING 71
SWIDTH 720 0
DWIDTH 27 0
BBX 27 24 0 0
BITMAP
001FE000
007FFC00
01FFFE00
03F01E00
07C00600
0F800200
1F000000
1E000000
1C000000
3C000000
3C01FF00
3C01FF00
3C01FF00
3C000F00
3C000F00
1C000F00
1E000F00
1F000F00
0F800F00
07C00F00
03F01F00
01FFFF00
00FFFE00
001FE000
ENDCHAR
STARTCHAR H
ENCODING 72
SWIDTH 693 0
DWIDTH 26 0
BBX 26 24 0 0
BITMAP
1E001E00
1E001E00
1E001E00
1E001E00
1E001E00
1E001E00
1E001E00
1E001E00
1E001E00
1FFFFE00
1FFFFE00
1FFFFE00
1E001E00
1E001E00
1E001E00
1E001E00
1E001E00
1E001E00
1E001E00
1E001E00
1E001E00
1E001E00
1E001E00
1E001E00
ENDCHAR
STARTCHAR I
ENCODING 73
SWIDTH 293 0
DWIDTH 11 0
BBX 11 24 0 0
BITMAP
1E00
1E00
1E00
1E00
1E00
1E00
1E00
1E00
1E00
1E00
1E00
1E00
1E00
1E00
1E00
1E00
1E00
1E00
1E00
1E00
1E00
1E00
1E00
1E00
ENDCHAR
STARTCHAR J
ENCODING 74
SWIDTH 453 0
DWIDTH 17 0
BBX 17 24 0 0
BITMAP
003C00
003C00
003C00
003C00
003C00
003C00
003C00
003C00
003C00
003C00
003C00
003C00
003C00
003C00
003C00
003C00
003C00
003C00
103C00
783C00
787800
3FF800
1FF000
0FC000
ENDCHAR
STARTCHAR K
ENCODING 75
SWIDTH 613 0
DWIDTH 23 0
BBX 23 24 0 0
BITMAP
1E00F8
1E01F0
1E03E0
1E07C0
1E0F80
1E1F00
1E3E00
1E7C00
1EF800
1FE000
1FC000
1FE000
1FF000
1EF800
1E7C00
1E3E00
1E1F00
1E0F80
1E0780
1E03C0
1E01E0
1E01F0
1E00F8
1E007C
ENDCHAR
STARTCHAR L
ENCODING 76
SWIDTH 533 0
DWIDTH 20 0
BBX 20 24 0 0
BITMAP
1E0000
1E0000
1E0000
1E0000
1E0000
1E0000
1E0000
1E0000
1E0000
1E0000
1E0000
1E0000
1E0000
1E0000
1E0000
1E0000
1E0000
1E0000
1E0000
1E0000
1E0000
1FFFE0
1FFFE0
1FFFE0
ENDCHAR
STARTCHAR M
ENCODING 77
SWIDTH 827 0
DWIDTH 31 0
BBX 31 24 0 0
BITMAP
1F0000F0
1F0001F0
1F8003F0
1FC007F0
1FE00FF0
1FF01FF0
1EF81EF0
1E783CF0
1E3C7CF0
1E3EF8F0
1E1FF0F0
1E0FE0F0
1E07C0F0
1E0380F0
1E0100F0
1E0100F0
1E0000F0
1E0000F0
1E0000F0
1E0000F0
1E0000F0
1E0000F0
1E0000F0
1E0000F0
ENDCHAR
STARTCHAR N
ENCODING 78
SWIDTH 747 0
DWIDTH 28 0
BBX 28 24 0 0
BITMAP
1E000780
1F000780
1F800780
1FC00780
1FC00780
1FE00780
1FF00780
1EF80780
1E780780
1E3C0780
1E1E0780
1E1F0780
1E0F8780
1E078780
1E03C780
1E01E780
1E01F780
1E00FF80
1E007F80
1E003F80
1E003F80
1E001F80
1E000F80
1E000780
ENDCHAR
STARTCHAR O
ENCODING 79
SWIDTH 800 0
DWIDTH 30 0
BBX 30 24 0 0
BITMAP
001FE000
007FF800
01FFFE00
03F03F00
07C00F80
0F0007C0
1F0003C0
1E0001E0
1C0001E0
3C0001E0
3C0000E0
3C0000F0
3C0000F0
3C0000E0
3C0001E0
1C0001E0
1E0001E0
1F0003C0
0F0007C0
07C00F80
03F03F00
01FFFE00
007FF800
001FC000
ENDCHAR
STARTCHAR P
ENCODING 80
SWIDTH 560 0
DWIDTH 21 0
BBX 21 24 0 0
BITMAP
1FFE00
1FFF80
1FFFC0
1E07E0
1E01E0
1E01E0
1E00F0
1E00E0
1E00E0
1E01E0
1E03E0
1FFFC0
1FFF80
1FFE00
1E0000
1E0000
1E0000
1E0000
1E0000
1E0000
1E0000
1E0000
1E0000
1E0000
ENDCHAR
STARTCHAR Q
ENCODING 81
SWIDTH 800 0
DWIDTH 30 0
BBX 30 24 0 0
BITMAP
001FE000
007FF800
01FFFE00
03F03F00
07C00F80
0F0007C0
1F0003C0
1E0001E0
1C0001E0
3C0001E0
3C0000E0
3C0000F0
3C0000F0
3C0000E0
3C0001E0
1C0011E0
1E0039E0
1F007FC0
0F003F80
07C01F80
03F03FC0
01FFFFE0
007FF9C0
001FE080
ENDCHAR
STARTCHAR R
ENCODING 82
SWIDTH 587 0
DWIDTH 22 0
BBX 22 24 0 0
BITMAP
1FFC00
1FFF00
1FFF80
1E0F80
1E03C0
1E03C0
1E03C0
1E03C0
1E03C0
1E0780
1FFF80
1FFF00
1FFC00
1E3C00
1E3E00
1E1F00
1E0F00
1E0F80
1E07C0
1E03C0
1E01E0
1E01F0
1E00F8
1E0078
ENDCHAR
STARTCHAR S
ENCODING 83
SWIDTH 480 0
DWIDTH 18 0
BBX 18 24 0 0
BITMAP
03F000
0FFC00
1FFE00
1E1C00
3C0800
3C0000
3C0000
3E0000
1F8000
1FE000
07F800
03FC00
00FE00
003F00
000F00
000F80
000780
100780
380700
780F00
3E1F00
1FFE00
0FFC00
03F000
ENDCHAR
STARTCHAR T
ENCODING 84
SWIDTH 560 0
DWIDTH 21 0
BBX 21 24 0 0
BITMAP
7FFFF0
7FFFF0
7FFFF0
007000
007000
007000
007000
007000
007000
007000
007000
007000
007000
007000
007000
007000
007000
007000
007000
007000
007000
007000
007000
007000
ENDCHAR
STARTCHAR U
ENCODING 85
SWIDTH 747 0
DWIDTH 28 0
BBX 28 24 0 0
BITMAP
1E000780
1E000780
1E000780
1E000780
1E000780
1E000780
1E000780
1E000780
1E000780
1E000780
1E000780
1E000780
1E000780
1E000780
1E000780
1E000780
0E000700
0F000F00
0F001E00
07803E00
03E07C00
01FFF800
00FFF000
003F8000
ENDCHAR
STARTCHAR V
ENCODING 86
SWIDTH 613 0
DWIDTH 23 0
BBX 23 24 0 0
BITMAP
78003C
78003C
3C0038
3C0078
3C0078
1E0070
1E00F0
0E00F0
0F01E0
0F01E0
0781C0
0783C0
0383C0
03C380
03C780
01C780
01E700
00EF00
00FE00
00FE00
007E00
007C00
007C00
003C00
ENDCHAR
STARTCHAR W
ENCODING 87
SWIDTH 933 0
DWIDTH 35 0
BBX 35 24 0 0
BITMAP
7800F003C0
3C01F003C0
3C01F00780
3C01F80780
1C01F80780
1E03F80700
1E03BC0F00
0E03BC0F00
0F07BC0E00
0F079C0E00
0F071E1E00
078F1E1E00
078F0E1C00
078E0F3C00
038E0F3C00
03DE073800
03DC07B800
01DC07F800
01FC03F800
01FC03F000
01F803F000
00F803F000
00F801E000
00F001E000
ENDCHAR
STARTCHAR X
ENCODING 88
SWIDTH 640 0
DWIDTH 24 0
BBX 25 24 0 0
BITMAP
7C003C00
3C007C00
1E007800
0F00F000
0F81E000
07C3E000
03C3C000
01E78000
00FF0000
00FF0000
007E0000
003C0000
007E0000
00FF0000
01FF8000
01E78000
03C3C000
0781E000
0F81F000
0F00F800
1E007800
3E003C00
7C001E00
78001F00
ENDCHAR
STARTCHAR Y
ENCODING 89
SWIDTH 587 0
DWIDTH 22 0
BBX 22 24 0 0
BITMAP
780078
3C00F0
3C00F0
1E01E0
1E03C0
0F03C0
078780
078700
03CF00
01FE00
01FC00
00FC00
007800
007800
007800
007800
007800
007800
007800
007800
007800
007800
007800
007800
ENDCHAR
STARTCHAR Z
ENCODING 90
SWIDTH 613 0
DWIDTH 23 0
BBX 23 24 0 0
BITMAP
3FFFF8
3FFFF8
3FFFF0
0001E0
0003E0
0007C0
000780
000F80
001F00
001E00
003E00
007C00
007800
00F000
01F000
01E000
03C000
07C000
078000
0F0000
1F0000
1FFFFC
3FFFFC
7FFFFC
ENDCHAR
STARTCHAR [
ENCODING 91
SWIDTH 320 0
DWIDTH 12 0
BBX 12 33 0 -5
BITMAP
1FE0
1FE0
1FE0
1C00
1C00
1C00
1C00
1C00
1C00
1C00
1C00
1C00
1C00
1C00
1C00
1C00
1C00
1C00
1C00
1C00
1C00
1C00
1C00
1C00
1C00
1C00
1C00
1C00
1C00
1C00
1FE0
1FE0
1FE0
ENDCHAR
STARTCHAR \
ENCODING 92
SWIDTH 320 0
DWIDTH 12 0
BBX 12 29 0 -2
BITMAP
E000
F000
7000
7000
7800
3800
3800
3800
3C00
1C00
1C00
1E00
0E00
0E00
0E00
0700
0700
0700
0780
0380
0380
0380
01C0
01C0
01C0
01E0
00E0
00E0
00E0
ENDCHAR
STARTCHAR ]
ENCODING 93
SWIDTH 320 0
DWIDTH 12 0
BBX 12 33 0 -5
BITMAP
7F80
7F80
7F80
0380
0380
0380
0380
0380
0380
0380
0380
0380
0380
0380
0380
0380
0380
0380
0380
0380
0380
0380
0380
0380
0380
0380
0380
0380
0380
0380
7F80
7F80
7F80
ENDCHAR
STARTCHAR ^
ENCODING 94
SWIDTH 560 0
DWIDTH 21 0
BBX 21 24 0 0
BITMAP
00F000
00F800
01FC00
03DE00
038E00
070F00
0F0780
0E0380
1C03C0
3C01E0
000000
000000
000000
000000
000000
000000
000000
000000
000000
000000
000000
000000
000000
000000
ENDCHAR
STARTCHAR _
ENCODING 95
SWIDTH 480 0
DWIDTH 18 0
BBX 20 5 -1 -5
BITMAP
000000
000000
000000
FFFFC0
FFFFC0
ENDCHAR
STARTCHAR `
ENCODING 96
SWIDTH 427 0
DWIDTH 16 0
BBX 17 24 0 0
BITMAP
FFFF00
FFFF00
FFFF00
E00700
E00700
E00700
E00700
E00700
E00700
E00700
E00700
E00700
E00700
E00700
E00700
E00700
E00700
E00700
E00700
E00700
E00700
FFFF00
FFFF00
FFFF00
ENDCHAR
STARTCHAR a
ENCODING 97
SWIDTH 507 0
DWIDTH 19 0
BBX 19 18 0 0
BITMAP
07F000
0FFC00
1FFE00
1C1E00
100F00
000F00
00FF00
07FF00
0FFF00
1F8700
3E0700
3C0700
380700
380F00
3C3F00
3FFF00
1FF700
07C700
ENDCHAR
STARTCHAR b
ENCODING 98
SWIDTH 587 0
DWIDTH 22 0
BBX 22 24 0 0
BITMAP
1C0000
1C0000
1C0000
1C0000
1C0000
1C0000
1CFC00
1FFF00
1FFF80
1F07C0
1C01E0
1C01E0
1C00F0
1C00F0
1C00F0
1C00F0
1C00F0
1C00F0
1C01E0
1C01E0
1F07C0
1FFFC0
1FFF00
1CFC00
ENDCHAR
STARTCHAR c
ENCODING 99
SWIDTH 480 0
DWIDTH 18 0
BBX 18 18 0 0
BITMAP
00FE00
03FF80
07FF80
0F8380
1E0080
3C0000
3C0000
380000
380000
380000
380000
3C0000
3C0000
1E0080
0F8380
07FF80
03FF80
00FE00
ENDCHAR
STARTCHAR d
ENCODING 100
SWIDTH 587 0
DWIDTH 22 0
BBX 22 24 0 0
BITMAP
0001E0
0001E0
0001E0
0001E0
0001E0
0001E0
00FDE0
03FFE0
0FFFE0
1F83E0
1E01E0
3C01E0
3C01E0
3801E0
3801E0
3801E0
3801E0
3C01E0
3C01E0
1E01E0
1F83E0
0FFFE0
07FFE0
01FCE0
ENDCHAR
STARTCHAR e
ENCODING 101
SWIDTH 533 0
DWIDTH 20 0
BBX 20 18 0 0
BITMAP
01F800
07FE00
0FFF00
1F0F80
1E0380
3C03C0
3C03C0
3FFFC0
3FFFC0
3FFFC0
380000
3C0000
3C0000
1E0040
1F83C0
0FFFC0
03FFC0
00FF00
ENDCHAR
STARTCHAR f
ENCODING 102
SWIDTH 373 0
DWIDTH 14 0
BBX 14 24 0 0
BITMAP
01F8
07F8
0FF8
0F00
0E00
1E00
7FF8
7FF8
7FF8
1E00
1E00
1E00
1E00
1E00
1E00
1E00
1E00
1E00
1E00
1E00
1E00
1E00
1E00
1E00
ENDCHAR
STARTCHAR g
ENCODING 103
SWIDTH 507 0
DWIDTH 19 0
BBX 19 25 0 -7
BITMAP
03FFC0
0FFFC0
1FFFC0
3E1E00
380F00
380F00
380F00
380F00
3E1E00
1FFE00
0FFC00
0FF000
1C0000
1E0000
1FE000
0FFC00
1FFF00
381F80
700780
7003C0
7003C0
7C0780
3FFF80
1FFF00
07F800
ENDCHAR
STARTCHAR h
ENCODING 104
SWIDTH 587 0
DWIDTH 22 0
BBX 22 24 0 0
BITMAP
1C0000
1C0000
1C0000
1C0000
1C0000
1C0000
1CFE00
1FFF00
1FFF80
1F07C0
1C03C0
1C01E0
1C01E0
1C01E0
1C00E0
1C00E0
1C00E0
1C00E0
1C00E0
1C00E0
1C00E0
1C00E0
1C00E0
1C00E0
ENDCHAR
STARTCHAR i
ENCODING 105
SWIDTH 240 0
DWIDTH 9 0
BBX 9 24 0 0
BITMAP
0000
0C00
1E00
1E00
0C00
0000
1C00
1C00
1C00
1C00
1C00
1C00
1C00
1C00
1C00
1C00
1C00
1C00
1C00
1C00
1C00
1C00
1C00
1C00
ENDCHAR
STARTCHAR j
ENCODING 106
SWIDTH 240 0
DWIDTH 9 0
BBX 10 30 -1 -7
BITMAP
0400
0E00
1F00
0E00
0400
0E00
0E00
0E00
0E00
0E00
0E00
0E00
0E00
0E00
0E00
0E00
0E00
0E00
0E00
0E00
0E00
0E00
0E00
0E00
0E00
0E00
1E00
FE00
FC00
F800
ENDCHAR
STARTCHAR k
ENCODING 107
SWIDTH 507 0
DWIDTH 19 0
BBX 19 24 0 0
BITMAP
1C0000
1C0000
1C0000
1C0000
1C0000
1C0000
1C07C0
1C0F80
1C1F00
1C3E00
1C7800
1DF000
1FE000
1FC000
1FC000
1FE000
1DF000
1CF800
1C7C00
1C3E00
1C1F00
1C0F80
1C07C0
1C03C0
ENDCHAR
STARTCHAR l
ENCODING 108
SWIDTH 320 0
DWIDTH 12 0
BBX 12 24 0 0
BITMAP
1C00
1C00
1C00
1C00
1C00
1C00
1C00
1C00
1C00
1C00
1C00
1C00
1C00
1C00
1C00
1C00
1C00
1C00
1C00
1C00
1E00
1FE0
0FE0
07E0
ENDCHAR
STARTCHAR m
ENCODING 109
SWIDTH 880 0
DWIDTH 33 0
BBX 33 18 0 0
BITMAP
1CFC0FE000
1FFF3FF000
1FFFFFF800
1F07F87C00
1C03E03C00
1C01C01E00
1C01C01E00
1C01E01E00
1C01E01E00
1C01E01E00
1C01E01E00
1C01E01E00
1C01E01E00
1C01E01E00
1C01E01E00
1C01E01E00
1C01E01E00
1C01E01E00
ENDCHAR
STARTCHAR n
ENCODING 110
SWIDTH 587 0
DWIDTH 22 0
BBX 22 18 0 0
BITMAP
1CFE00
1FFF00
1FFF80
1F07C0
1C03C0
1C01E0
1C01E0
1C01E0
1C00E0
1C00E0
1C00E0
1C00E0
1C00E0
1C00E0
1C00E0
1C00E0
1C00E0
1C00E0
ENDCHAR
STARTCHAR o
ENCODING 111
SWIDTH 587 0
DWIDTH 22 0
BBX 22 18 0 0
BITMAP
00FC00
03FF00
0FFF80
0F87C0
1E01E0
3C00F0
3C00F0
380070
380070
380070
380070
3C00F0
3C00F0
1E01E0
0F87C0
0FFFC0
03FF00
00FC00
ENDCHAR
STARTCHAR p
ENCODING 112
SWIDTH 587 0
DWIDTH 22 0
BBX 22 25 0 -7
BITMAP
1CFC00
1FFF00
1FFF80
1F07C0
1C01E0
1C01E0
1C00F0
1C00F0
1C00F0
1C00F0
1C00F0
1C00F0
1C01E0
1C01E0
1F07C0
1FFF80
1FFF00
1CFC00
1C0000
1C0000
1C0000
1C0000
1C0000
1C0000
1C0000
ENDCHAR
STARTCHAR q
ENCODING 113
SWIDTH 587 0
DWIDTH 22 0
BBX 22 25 0 -7
BITMAP
00FCE0
03FFE0
0FFFE0
1F83E0
1E01E0
3C01E0
3C01E0
3801E0
3801E0
3801E0
3801E0
3C01E0
3C01E0
1E01E0
1F83E0
0FFFE0
03FFE0
00FDE0
0001E0
0001E0
0001E0
0001E0
0001E0
0001E0
0001E0
ENDCHAR
STARTCHAR r
ENCODING 114
SWIDTH 373 0
DWIDTH 14 0
BBX 14 18 0 0
BITMAP
1CFC
1DFC
1FFC
1F00
1E00
1C00
1C00
1C00
1C00
1C00
1C00
1C00
1C00
1C00
1C00
1C00
1C00
1C00
ENDCHAR
STARTCHAR s
ENCODING 115
SWIDTH 453 0
DWIDTH 17 0
BBX 17 18 0 0
BITMAP
03F000
0FFC00
1FFC00
3C1C00
380400
380000
3C0000
3FC000
1FF800
0FFC00
00FE00
001F00
000F00
200F00
381E00
3FFE00
3FFC00
0FF000
ENDCHAR
STARTCHAR t
ENCODING 116
SWIDTH 400 0
DWIDTH 15 0
BBX 15 22 0 0
BITMAP
1E00
1E00
1E00
1E00
7FFC
7FFC
7FFC
1E00
1E00
1E00
1E00
1E00
1E00
1E00
1E00
1E00
1E00
0E00
0F00
0FFC
07FC
01FC
ENDCHAR
STARTCHAR u
ENCODING 117
SWIDTH 587 0
DWIDTH 22 0
BBX 22 18 0 0
BITMAP
1C01E0
1C01E0
1C01E0
1C01E0
1C01E0
1C01E0
1C01E0
1C01E0
1C01E0
1C01E0
1C01E0
1C01E0
1E01E0
1E01E0
0F03E0
0FFFE0
07FFE0
01FDE0
ENDCHAR
STARTCHAR v
ENCODING 118
SWIDTH 507 0
DWIDTH 19 0
BBX 19 18 0 0
BITMAP
7801E0
7801C0
3803C0
3C0380
3C0780
1E0780
1E0700
0E0F00
0F0E00
071E00
079E00
079C00
03BC00
03F800
01F800
01F000
00F000
00F000
ENDCHAR
STARTCHAR w
ENCODING 119
SWIDTH 827 0
DWIDTH 31 0
BBX 31 18 0 0
BITMAP
7803803C
7807C03C
3C07C038
3C07C078
3C0FE078
1C0EE070
1E0EE0F0
1E1C70F0
0E1C70E0
0F3C79E0
0F3839E0
073839C0
07F83FC0
07F01FC0
03F01F80
03E01F80
03E00F80
01E00F00
ENDCHAR
STARTCHAR x
ENCODING 120
SWIDTH 507 0
DWIDTH 19 0
BBX 19 18 0 0
BITMAP
780780
3C0F00
1E1E00
0F1E00
0F3C00
07F800
03F000
01F000
01E000
03F000
03F800
07BC00
0F3C00
1E1E00
1E0F00
3C0F80
780780
7803C0
ENDCHAR
STARTCHAR y
ENCODING 121
SWIDTH 507 0
DWIDTH 19 0
BBX 19 25 0 -7
BITMAP
7001E0
7801C0
3803C0
3C03C0
3C0380
1C0780
1E0700
0E0F00
0F0F00
0F0E00
071E00
079C00
039C00
03FC00
01F800
01F800
01F000
00F000
00F000
00E000
01E000
03C000
0FC000
0F8000
0E0000
ENDCHAR
STARTCHAR z
ENCODING 122
SWIDTH 453 0
DWIDTH 17 0
BBX 17 18 0 0
BITMAP
3FFF00
3FFE00
3FFE00
003C00
007C00
007800
00F000
01F000
01E000
03C000
07C000
078000
0F8000
0F0000
1E0000
3FFF00
3FFF00
7FFF00
ENDCHAR
STARTCHAR {
ENCODING 123
SWIDTH 347 0
DWIDTH 13 0
BBX 13 32 0 -4
BITMAP
01F0
03F0
0780
0700
0700
0700
0700
0700
0700
0700
0700
0700
0700
0F00
1E00
3C00
3800
3E00
1E00
0F00
0700
0700
0700
0700
0700
0700
0700
0700
0700
0780
03F0
01F0
ENDCHAR
STARTCHAR |
ENCODING 124
SWIDTH 213 0
DWIDTH 8 0
BBX 8 36 0 -9
BITMAP
1C
1C
1C
1C
1C
1C
1C
1C
1C
1C
1C
1C
1C
1C
1C
1C
1C
1C
1C
1C
1C
1C
1C
1C
1C
1C
1C
1C
1C
1C
1C
1C
1C
1C
1C
1C
ENDCHAR
STARTCHAR }
ENCODING 125
SWIDTH 347 0
DWIDTH 13 0
BBX 13 32 0 -4
BITMAP
7C00
7E00
0F00
0700
0700
0700
0700
0700
0700
0700
0700
0700
0700
0780
03C0
01E0
00E0
03E0
03C0
0780
0700
0700
0700
0700
0700
0700
0700
0700
0700
0F00
7E00
7C00
ENDCHAR
STARTCHAR ~
ENCODING 126
SWIDTH 507 0
DWIDTH 19 0
BBX 19 15 0 0
BITMAP
078180
0FC380
1FE380
38FF00
387F00
181E00
000000
000000
000000
000000
000000
000000
000000
000000
000000
ENDCHAR
STARTCHAR U+00A0
ENCODING 160
SWIDTH 240 0
DWIDTH 9 0
BBX 9 41 0 -9
BITMAP
0000
0000
0000
0000
0000
0000
0000
0000
0000
0000
0000
0000
0000
0000
0000
0000
0000
0000
0000
0000
0000
0000
0000
0000
0000
0000
0000
0000
0000
0000
0000
0000
0000
0000
0000
0000
0000
0000
0000
0000
0000
ENDCHAR
STARTCHAR U+00A1
ENCODING 161
SWIDTH 267 0
DWIDTH 10 0
BBX 10 25 0 -7
BITMAP
0000
0C00
1E00
0E00
0400
0000
0000
0C00
0C00
0C00
0E00
0E00
0E00
0E00
1E00
1E00
1E00
1E00
1E00
1E00
1E00
1E00
1E00
1E00
1E00
ENDCHAR
STARTCHAR U+00A2
ENCODING 162
SWIDTH 480 0
DWIDTH 18 0
BBX 18 22 0 -2
BITMAP
007000
007000
00FE00
03FF80
0FFF80
0F8380
1E0080
3C0000
3C0000
380000
380000
380000
380000
3C0000
3C0000
1E0080
0F8380
07FF80
03FF80
00FE00
007000
007000
ENDCHAR
STARTCHAR U+00A3
ENCODING 163
SWIDTH 507 0
DWIDTH 19 0
BBX 19 24 0 0
BITMAP
007E00
00FF80
01FF80
03E380
03C100
038000
078000
078000
078000
078000
078000
078000
1FFC00
1FFC00
3FFC00
070000
0F0000
0F0000
0F0000
0E0000
1E0000
1FFFC0
3FFF80
7FFF80
ENDCHAR
STARTCHAR U+00A4
ENCODING 164
SWIDTH 587 0
DWIDTH 22 0
BBX 22 18 0 0
BITMAP
080040
1C00E0
3EFDF0
1FFFE0
0FFFC0
0F8780
0F03C0
0E01C0
0E01C0
0E01C0
0E01C0
0F03C0
0F8780
0FFFC0
1FFFE0
3EFDF0
1C00E0
080040
ENDCHAR
STARTCHAR U+00A5
ENCODING 165
SWIDTH 587 0
DWIDTH 22 0
BBX 22 24 0 0
BITMAP
780078
3C0070
1E00F0
1E01E0
0F01C0
0703C0
078380
03C700
1FCFF0
1FEFF0
1FFFF0
007C00
007C00
007800
1FFFF0
1FFFF0
1FFFF0
007800
007800
007800
007800
007800
007800
007800
ENDCHAR
STARTCHAR U+00A6
ENCODING 166
SWIDTH 213 0
DWIDTH 8 0
BBX 8 36 0 -9
BITMAP
1C
1C
1C
1C
1C
1C
1C
1C
1C
1C
1C
1C
1C
1C
00
00
00
00
00
00
00
00
1C
1C
1C
1C
1C
1C
1C
1C
1C
1C
1C
1C
1C
1C
ENDCHAR
STARTCHAR U+00A7
ENCODING 167
SWIDTH 480 0
DWIDTH 18 0
BBX 18 31 0 -7
BITMAP
07E000
0FF800
1FFC00
3E3E00
3C0E00
380800
380000
3C0000
3E0000
1FC000
0FF000
1FFC00
3F7E00
781F00
700F00
700F00
780F00
7E0F00
3F9E00
1FFC00
07FC00
00FE00
003E00
000F00
000F00
100F00
780F00
3E1E00
1FFC00
0FF800
07E000
ENDCHAR
STARTCHAR U+00A8
ENCODING 168
SWIDTH 427 0
DWIDTH 16 0
BBX 17 24 0 0
BITMAP
FFFF00
FFFF00
FFFF00
E00700
E00700
E00700
E00700
E00700
E00700
E00700
E00700
E00700
E00700
E00700
E00700
E00700
E00700
E00700
E00700
E00700
E00700
FFFF00
FFFF00
FFFF00
ENDCHAR
STARTCHAR U+00A9
ENCODING 169
SWIDTH 773 0
DWIDTH 29 0
BBX 29 24 0 0
BITMAP
001FC000
00FFF800
01E03C00
03800E00
06000700
0C0FC180
1C3FF1C0
187870C0
10E010C0
31C00060
31C00060
31C00060
31C00060
31C00060
31E00060
10E010C0
187870C0
1C3FF1C0
0C0FC180
06000700
03800E00
01E03C00
00FFF800
001FC000
ENDCHAR
STARTCHAR U+00AA
ENCODING 170
SWIDTH 293 0
DWIDTH 11 0
BBX 11 24 0 0
BITMAP
3F00
3F80
61C0
01C0
0FC0
3FC0
79C0
71C0
71C0
7FC0
3FC0
0000
0000
0000
0000
0000
0000
0000
0000
0000
0000
0000
0000
0000
ENDCHAR
STARTCHAR U+00AB
ENCODING 171
SWIDTH 533 0
DWIDTH 20 0
BBX 20 17 0 0
BITMAP
01E1E0
03C3C0
038380
070700
0F0F00
1E1E00
3C3C00
383800
3C3C00
1E1E00
0E0E00
070700
038380
03C3C0
01E1E0
000000
000000
ENDCHAR
STARTCHAR U+00AC
ENCODING 172
SWIDTH 507 0
DWIDTH 19 0
BBX 19 17 0 0
BITMAP
3FFF80
3FFF80
3FFF80
000380
000380
000380
000380
000380
000380
000380
000000
000000
000000
000000
000000
000000
000000
ENDCHAR
STARTCHAR U+00AD
ENCODING 173
SWIDTH 373 0
DWIDTH 14 0
BBX 14 11 0 0
BITMAP
7FF0
7FF0
7FF0
0000
0000
0000
0000
0000
0000
0000
0000
ENDCHAR
STARTCHAR U+00AE
ENCODING 174
SWIDTH 773 0
DWIDTH 29 0
BBX 29 24 0 0
BITMAP
001FC000
00FFF800
01E03C00
03800E00
06000300
0C3F8180
183FE1C0
1838E0C0
1038E0C0
3038E060
3038E060
303FC060
303F8060
303B8060
3039C060
1039E0C0
1838E0C0
1C3871C0
0C387980
06000700
03800E00
01E03C00
00FFF000
001FC000
ENDCHAR
STARTCHAR U+00AF
ENCODING 175
SWIDTH 427 0
DWIDTH 16 0
BBX 17 24 0 0
BITMAP
FFFF00
FFFF00
FFFF00
E00700
E00700
E00700
E00700
E00700
E00700
E00700
E00700
E00700
E00700
E00700
E00700
E00700
E00700
E00700
E00700
E00700
E00700
FFFF00
FFFF00
FFFF00
ENDCHAR
STARTCHAR U+00B0
ENCODING 176
SWIDTH 373 0
DWIDTH 14 0
BBX 14 24 0 0
BITMAP
0780
1FE0
3FF0
3870
3870
3870
3870
3FF0
1FE0
0780
0000
0000
0000
0000
0000
0000
0000
0000
0000
0000
0000
0000
0000
0000
ENDCHAR
STARTCHAR U+00B1
ENCODING 177
SWIDTH 507 0
DWIDTH 19 0
BBX 19 21 0 0
BITMAP
00E000
00E000
00E000
00E000
00E000
3FFF80
3FFF80
3FFF80
00E000
00E000
00E000
00E000
00E000
000000
000000
000000
000000
3FFF80
3FFF80
3FFF80
000000
ENDCHAR
STARTCHAR U+00B2
ENCODING 178
SWIDTH 320 0
DWIDTH 12 0
BBX 12 24 0 0
BITMAP
0F00
3F80
3FC0
31C0
21C0
01C0
01C0
0380
0380
0700
0E00
0E00
1FE0
3FE0
3FE0
0000
0000
0000
0000
0000
0000
0000
0000
0000
ENDCHAR
STARTCHAR U+00B3
ENCODING 179
SWIDTH 320 0
DWIDTH 12 0
BBX 12 24 0 0
BITMAP
7FE0
7FC0
0380
0380
0700
0F00
01C0
00C0
00E0
00E0
20E0
71E0
7FC0
3F80
1F00
0000
0000
0000
0000
0000
0000
0000
0000
0000
ENDCHAR
STARTCHAR U+00B4
ENCODING 180
SWIDTH 427 0
DWIDTH 16 0
BBX 17 24 0 0
BITMAP
FFFF00
FFFF00
FFFF00
E00700
E00700
E00700
E00700
E00700
E00700
E00700
E00700
E00700
E00700
E00700
E00700
E00700
E00700
E00700
E00700
E00700
E00700
FFFF00
FFFF00
FFFF00
ENDCHAR
STARTCHAR U+00B5
ENCODING 181
SWIDTH 560 0
DWIDTH 21 0
BBX 21 25 0 -7
BITMAP
1C01C0
1C01C0
1C01C0
1C01C0
1C01C0
1C01C0
1C01C0
1C01C0
1C01C0
1C01C0
1C01C0
1C01C0
1E01C0
1E01C0
1F07C0
1FFFC0
1FFFC0
1DF9C0
1C0000
1C0000
1C0000
1C0000
1C0000
1C0000
1C0000
ENDCHAR
STARTCHAR U+00B6
ENCODING 182
SWIDTH 533 0
DWIDTH 20 0
BBX 20 31 0 -7
BITMAP
03FFE0
0FFFE0
1FF380
3FF380
3FF380
3FF380
3FF380
3FF380
3FF380
3FF380
1FF380
0FF380
03F380
007380
007380
007380
007380
007380
007380
007380
007380
007380
007380
007380
007380
007380
007380
007380
007380
007380
007380
ENDCHAR
STARTCHAR U+00B7
ENCODING 183
SWIDTH 240 0
DWIDTH 9 0
BBX 9 15 0 0
BITMAP
0800
1C00
3E00
1C00
0800
0000
0000
0000
0000
0000
0000
0000
0000
0000
0000
ENDCHAR
STARTCHAR U+00B8
ENCODING 184
SWIDTH 427 0
DWIDTH 16 0
BBX 17 24 0 0
BITMAP
FFFF00
FFFF00
FFFF00
E00700
E00700
E00700
E00700
E00700
E00700
E00700
E00700
E00700
E00700
E00700
E00700
E00700
E00700
E00700
E00700
E00700
E00700
FFFF00
FFFF00
FFFF00
ENDCHAR
STARTCHAR U+00B9
ENCODING 185
SWIDTH 213 0
DWIDTH 8 0
BBX 8 24 0 0
BITMAP
04
0C
1C
1C
1C
1C
1C
1C
1C
1C
1C
1C
1C
1C
1C
00
00
00
00
00
00
00
00
00
ENDCHAR
STARTCHAR U+00BA
ENCODING 186
SWIDTH 373 0
DWIDTH 14 0
BBX 14 24 0 0
BITMAP
0FC0
1FE0
3870
7038
7038
7038
7030
3870
1FE0
0F80
0000
0000
0000
0000
0000
0000
0000
0000
0000
0000
0000
0000
0000
0000
ENDCHAR
STARTCHAR U+00BB
ENCODING 187
SWIDTH 533 0
DWIDTH 20 0
BBX 20 17 0 0
BITMAP
3C3800
1C3C00
0E1E00
0F0F00
078700
038380
01C3C0
00E1E0
01C1C0
03C380
078700
0F0F00
0E1E00
1C3C00
3C3800
000000
000000
ENDCHAR
STARTCHAR U+00BC
ENCODING 188
SWIDTH 773 0
DWIDTH 29 0
BBX 29 24 0 0
BITMAP
04001C00
0C003800
1C003800
1C007000
1C007000
1C00E000
1C00E000
1C01C000
1C018000
1C038000
1C030040
1C0700C0
1C0E01C0
1C0E03C0
1C1C07C0
001C0FC0
00381DC0
003839C0
007071C0
0070FFF0
00E1FFF0
00E001C0
01C001C0
01C001C0
ENDCHAR
STARTCHAR U+00BD
ENCODING 189
SWIDTH 800 0
DWIDTH 30 0
BBX 30 24 0 0
BITMAP
04001C00
0C003800
1C003800
1C007000
1C007000
1C00E000
1C00E000
1C01C000
1C018000
1C0383C0
1C030FE0
1C070FF0
1C0E0C70
1C0E1070
1C1C0070
001C0070
003800E0
003800E0
007001C0
00700380
00E00380
00E007F8
01C00FF8
01C00FF8
ENDCHAR
STARTCHAR U+00BE
ENCODING 190
SWIDTH 827 0
DWIDTH 31 0
BBX 31 24 0 0
BITMAP
7FE00700
7FC00E00
03800E00
03801C00
07001C00
0F003800
01C03800
00C07000
00E06000
00E0E000
20E0C008
71E1C018
7FC38038
3F838078
1F0700F8
000701F8
000E03B8
000E0738
001C0E38
001C1FFE
00383FFE
00380038
00700038
00700038
ENDCHAR
STARTCHAR U+00BF
ENCODING 191
SWIDTH 427 0
DWIDTH 16 0
BBX 16 25 0 -7
BITMAP
0040
00E0
01F0
01E0
00C0
0000
0040
00E0
01E0
00F0
00F0
00F0
01F0
03E0
0FC0
1F00
3E00
3C00
3C00
3C04
3C0E
1E1E
1FFC
0FF8
03F0
ENDCHAR
STARTCHAR U+00C0
ENCODING 192
SWIDTH 640 0
DWIDTH 24 0
BBX 24 31 0 0
BITMAP
00F000
007000
003800
001C00
000E00
000000
000000
003C00
003C00
007E00
007E00
007E00
00FF00
00E700
01E780
01E780
01C380
03C3C0
03C1C0
0781E0
0781E0
0700F0
0FFFF0
0FFFF0
1FFFF8
1E0078
1C003C
3C003C
3C001E
78001E
78001E
ENDCHAR
STARTCHAR U+00C1
ENCODING 193
SWIDTH 640 0
DWIDTH 24 0
BBX 24 31 0 0
BITMAP
000F00
000F00
001E00
003C00
003800
000000
000000
003C00
003C00
007E00
007E00
007E00
00FF00
00E700
01E780
01E780
01C380
03C3C0
03C1C0
0781E0
0781E0
0700F0
0FFFF0
0FFFF0
1FFFF8
1E0078
1C003C
3C003C
3C001E
78001E
78001E
ENDCHAR
STARTCHAR U+00C2
ENCODING 194
SWIDTH 640 0
DWIDTH 24 0
BBX 24 31 0 0
BITMAP
007C00
007E00
00EE00
01C700
018380
000000
000000
003C00
003C00
007E00
007E00
007E00
00FF00
00E700
01E780
01E780
01C380
03C3C0
03C1C0
0781E0
0781E0
0700F0
0FFFF0
0FFFF0
1FFFF8
1E0078
1C003C
3C003C
3C001E
78001E
78001E
ENDCHAR
STARTCHAR U+00C3
ENCODING 195
SWIDTH 640 0
DWIDTH 24 0
BBX 24 31 0 0
BITMAP
00E000
01F9C0
03FFC0
019F80
000F00
000000
000000
003C00
003C00
007E00
007E00
007E00
00FF00
00E700
01E780
01E780
01C380
03C3C0
03C1C0
0781E0
0781E0
0700F0
0FFFF0
0FFFF0
1FFFF8
1E0078
1C003C
3C003C
3C001E
78001E
78001E
ENDCHAR
STARTCHAR U+00C4
ENCODING 196
SWIDTH 640 0
DWIDTH 24 0
BBX 24 31 0 0
BITMAP
008100
01C380
03E7C0
01C380
008100
000000
000000
003C00
003C00
007E00
007E00
007E00
00FF00
00E700
01E780
01E780
01C380
03C3C0
03C1C0
0781E0
0781E0
0700F0
0FFFF0
0FFFF0
1FFFF8
1E0078
1C003C
3C003C
3C001E
78001E
78001E
ENDCHAR
STARTCHAR U+00C5
ENCODING 197
SWIDTH 640 0
DWIDTH 24 0
BBX 24 33 0 0
BITMAP
001C00
003E00
006300
006300
006300
003E00
001C00
000000
000000
003C00
003C00
007E00
007E00
007E00
00FF00
00E700
01E780
01E780
01C380
03C3C0
03C1C0
0781E0
0781E0
0700F0
0FFFF0
0FFFF0
1FFFF8
1E0078
1C003C
3C003C
3C001E
78001E
78001E
ENDCHAR
STARTCHAR U+00C6
ENCODING 198
SWIDTH 880 0
DWIDTH 33 0
BBX 33 24 0 0
BITMAP
0003FFFE00
0007FFFE00
0007FFFE00
000F700000
000F700000
001E700000
001E700000
003C700000
007C700000
0078700000
00F07FF000
00F07FF000
01E07FF000
03E0700000
03FFF00000
07FFF00000
07FFF00000
0F00700000
0F00700000
1E00700000
3E00700000
3C007FFF00
7C007FFF00
78007FFF00
ENDCHAR
STARTCHAR U+00C7
ENCODING 199
SWIDTH 667 0
DWIDTH 25 0
BBX 25 31 0 -7
BITMAP
001FE000
007FF800
01FFFE00
03F01E00
07C00600
0F000000
1F000000
1E000000
1C000000
3C000000
3C000000
3C000000
3C000000
3C000000
3C000000
1C000000
1E000000
1F000000
0F800000
07C00600
03F01E00
01FFFE00
007FF800
001FE000
000E0000
000F0000
000F8000
0003C000
00038000
003F8000
003E0000
ENDCHAR
STARTCHAR U+00C8
ENCODING 200
SWIDTH 560 0
DWIDTH 21 0
BBX 21 31 0 0
BITMAP
01E000
00E000
007000
003800
001C00
000000
000000
1FFFE0
1FFFE0
1FFFE0
1E0000
1E0000
1E0000
1E0000
1E0000
1E0000
1E0000
1FFF00
1FFF00
1FFF00
1E0000
1E0000
1E0000
1E0000
1E0000
1E0000
1E0000
1E0000
1FFFE0
1FFFE0
1FFFE0
ENDCHAR
STARTCHAR U+00C9
ENCODING 201
SWIDTH 560 0
DWIDTH 21 0
BBX 21 31 0 0
BITMAP
001E00
001E00
003C00
007800
007000
000000
000000
1FFFE0
1FFFE0
1FFFE0
1E0000
1E0000
1E0000
1E0000
1E0000
1E0000
1E0000
1FFF00
1FFF00
1FFF00
1E0000
1E0000
1E0000
1E0000
1E0000
1E0000
1E0000
1E0000
1FFFE0
1FFFE0
1FFFE0
ENDCHAR
STARTCHAR U+00CA
ENCODING 202
SWIDTH 560 0
DWIDTH 21 0
BBX 21 31 0 0
BITMAP
00F800
00FC00
01DC00
038E00
030700
000000
000000
1FFFE0
1FFFE0
1FFFE0
1E0000
1E0000
1E0000
1E0000
1E0000
1E0000
1E0000
1FFF00
1FFF00
1FFF00
1E0000
1E0000
1E0000
1E0000
1E0000
1E0000
1E0000
1E0000
1FFFE0
1FFFE0
1FFFE0
ENDCHAR
STARTCHAR U+00CB
ENCODING 203
SWIDTH 560 0
DWIDTH 21 0
BBX 21 31 0 0
BITMAP
010200
038700
07CF80
038700
010200
000000
000000
1FFFE0
1FFFE0
1FFFE0
1E0000
1E0000
1E0000
1E0000
1E0000
1E0000
1E0000
1FFF00
1FFF00
1FFF00
1E0000
1E0000
1E0000
1E0000
1E0000
1E0000
1E0000
1E0000
1FFFE0
1FFFE0
1FFFE0
ENDCHAR
STARTCHAR U+00CC
ENCODING 204
SWIDTH 293 0
DWIDTH 11 0
BBX 11 31 0 0
BITMAP
7800
3800
1C00
0E00
0700
0000
0000
1E00
1E00
1E00
1E00
1E00
1E00
1E00
1E00
1E00
1E00
1E00
1E00
1E00
1E00
1E00
1E00
1E00
1E00
1E00
1E00
1E00
1E00
1E00
1E00
ENDCHAR
STARTCHAR U+00CD
ENCODING 205
SWIDTH 293 0
DWIDTH 11 0
BBX 11 31 0 0
BITMAP
0780
0780
0F00
1E00
1C00
0000
0000
1E00
1E00
1E00
1E00
1E00
1E00
1E00
1E00
1E00
1E00
1E00
1E00
1E00
1E00
1E00
1E00
1E00
1E00
1E00
1E00
1E00
1E00
1E00
1E00
ENDCHAR
STARTCHAR U+00CE
ENCODING 206
SWIDTH 293 0
DWIDTH 11 0
BBX 11 31 0 0
BITMAP
1F00
1F80
3B80
71C0
60E0
0000
0000
1E00
1E00
1E00
1E00
1E00
1E00
1E00
1E00
1E00
1E00
1E00
1E00
1E00
1E00
1E00
1E00
1E00
1E00
1E00
1E00
1E00
1E00
1E00
1E00
ENDCHAR
STARTCHAR U+00CF
ENCODING 207
SWIDTH 293 0
DWIDTH 11 0
BBX 13 31 -1 0
BITMAP
2040
70E0
F9F0
70E0
2040
0000
0000
0F00
0F00
0F00
0F00
0F00
0F00
0F00
0F00
0F00
0F00
0F00
0F00
0F00
0F00
0F00
0F00
0F00
0F00
0F00
0F00
0F00
0F00
0F00
0F00
ENDCHAR
STARTCHAR U+00D0
ENCODING 208
SWIDTH 693 0
DWIDTH 26 0
BBX 26 24 0 0
BITMAP
1FFE0000
1FFFC000
1FFFE000
1E03F800
1E00FC00
1E003C00
1E001E00
1E001E00
1E000F00
1E000F00
1E000F00
7FF80F00
7FF80F00
7FF80F00
1E000F00
1E000F00
1E001E00
1E001E00
1E003C00
1E00FC00
1E03F800
1FFFE000
1FFFC000
1FFE0000
ENDCHAR
STARTCHAR U+00D1
ENCODING 209
SWIDTH 747 0
DWIDTH 28 0
BBX 28 31 0 0
BITMAP
00700000
00FCE000
01FFE000
00CFC000
00078000
00000000
00000000
1E000780
1F000780
1F800780
1FC00780
1FC00780
1FE00780
1FF00780
1EF80780
1E780780
1E3C0780
1E1E0780
1E1F0780
1E0F8780
1E078780
1E03C780
1E01E780
1E01F780
1E00FF80
1E007F80
1E003F80
1E003F80
1E001F80
1E000F80
1E000780
ENDCHAR
STARTCHAR U+00D2
ENCODING 210
SWIDTH 800 0
DWIDTH 30 0
BBX 30 31 0 0
BITMAP
001E0000
000E0000
00070000
00038000
0001C000
00000000
00000000
001FE000
007FF800
01FFFE00
03F03F00
07C00F80
0F0007C0
1F0003C0
1E0001E0
1C0001E0
3C0001E0
3C0000E0
3C0000F0
3C0000F0
3C0000E0
3C0001E0
1C0001E0
1E0001E0
1F0003C0
0F0007C0
07C00F80
03F03F00
01FFFE00
007FF800
001FC000
ENDCHAR
STARTCHAR U+00D3
ENCODING 211
SWIDTH 800 0
DWIDTH 30 0
BBX 30 31 0 0
BITMAP
0001E000
0001E000
0003C000
00078000
00070000
00000000
00000000
001FE000
007FF800
01FFFE00
03F03F00
07C00F80
0F0007C0
1F0003C0
1E0001E0
1C0001E0
3C0001E0
3C0000E0
3C0000F0
3C0000F0
3C0000E0
3C0001E0
1C0001E0
1E0001E0
1F0003C0
0F0007C0
07C00F80
03F03F00
01FFFE00
007FF800
001FC000
ENDCHAR
STARTCHAR U+00D4
ENCODING 212
SWIDTH 800 0
DWIDTH 30 0
BBX 30 31 0 0
BITMAP
000F8000
000FC000
001DC000
0038E000
00307000
00000000
00000000
001FE000
007FF800
01FFFE00
03F03F00
07C00F80
0F0007C0
1F0003C0
1E0001E0
1C0001E0
3C0001E0
3C0000E0
3C0000F0
3C0000F0
3C0000E0
3C0001E0
1C0001E0
1E0001E0
1F0003C0
0F0007C0
07C00F80
03F03F00
01FFFE00
007FF800
001FC000
ENDCHAR
STARTCHAR U+00D5
ENCODING 213
SWIDTH 800 0
DWIDTH 30 0
BBX 30 31 0 0
BITMAP
00380000
007E7000
00FFF000
0067E000
0003C000
00000000
00000000
001FE000
007FF800
01FFFE00
03F03F00
07C00F80
0F0007C0
1F0003C0
1E0001E0
1C0001E0
3C0001E0
3C0000E0
3C0000F0
3C0000F0
3C0000E0
3C0001E0
1C0001E0
1E0001E0
1F0003C0
0F0007C0
07C00F80
03F03F00
01FFFE00
007FF800
001FC000
ENDCHAR
STARTCHAR U+00D6
ENCODING 214
SWIDTH 800 0
DWIDTH 30 0
BBX 30 31 0 0
BITMAP
00102000
00387000
007CF800
00387000
00102000
00000000
00000000
001FE000
007FF800
01FFFE00
03F03F00
07C00F80
0F0007C0
1F0003C0
1E0001E0
1C0001E0
3C0001E0
3C0000E0
3C0000F0
3C0000F0
3C0000E0
3C0001E0
1C0001E0
1E0001E0
1F0003C0
0F0007C0
07C00F80
03F03F00
01FFFE00
007FF800
001FC000
ENDCHAR
STARTCHAR U+00D7
ENCODING 215
SWIDTH 507 0
DWIDTH 19 0
BBX 19 19 0 0
BITMAP
040200
0E0700
1F0F00
0FBE00
07FC00
03F800
01F000
03F800
07FC00
0FBE00
1F0F00
0E0700
040200
000000
000000
000000
000000
000000
000000
ENDCHAR
STARTCHAR U+00D8
ENCODING 216
SWIDTH 800 0
DWIDTH 30 0
BBX 30 24 0 0
BITMAP
001FE040
007FF8E0
01FFFFC0
03F03F80
07C00F80
0F000FC0
1F001FC0
1E0039E0
1C0071E0
3C00E1E0
3C01C0E0
3C0380F0
3C0700F0
3C0E00E0
3C1C01E0
1C3801E0
1E7001E0
1FE003C0
0FC007C0
07C00F80
0FF03F00
1FFFFE00
1C7FF800
081FC000
ENDCHAR
STARTCHAR U+00D9
ENCODING 217
SWIDTH 747 0
DWIDTH 28 0
BBX 28 31 0 0
BITMAP
003C0000
001C0000
000E0000
00070000
00038000
00000000
00000000
1E000780
1E000780
1E000780
1E000780
1E000780
1E000780
1E000780
1E000780
1E000780
1E000780
1E000780
1E000780
1E000780
1E000780
1E000780
1E000780
0E000700
0F000F00
0F001E00
07803E00
03E07C00
01FFF800
00FFF000
003F8000
ENDCHAR
STARTCHAR U+00DA
ENCODING 218
SWIDTH 747 0
DWIDTH 28 0
BBX 28 31 0 0
BITMAP
0003C000
0003C000
00078000
000F0000
000E0000
00000000
00000000
1E000780
1E000780
1E000780
1E000780
1E000780
1E000780
1E000780
1E000780
1E000780
1E000780
1E000780
1E000780
1E000780
1E000780
1E000780
1E000780
0E000700
0F000F00
0F001E00
07803E00
03E07C00
01FFF800
00FFF000
003F8000
ENDCHAR
STARTCHAR U+00DB
ENCODING 219
SWIDTH 747 0
DWIDTH 28 0
BBX 28 31 0 0
BITMAP
001F0000
001F8000
003B8000
0071C000
0060E000
00000000
00000000
1E000780
1E000780
1E000780
1E000780
1E000780
1E000780
1E000780
1E000780
1E000780
1E000780
1E000780
1E000780
1E000780
1E000780
1E000780
1E000780
0E000700
0F000F00
0F001E00
07803E00
03E07C00
01FFF800
00FFF000
003F8000
ENDCHAR
STARTCHAR U+00DC
ENCODING 220
SWIDTH 747 0
DWIDTH 28 0
BBX 28 31 0 0
BITMAP
00204000
0070E000
00F9F000
0070E000
00204000
00000000
00000000
1E000780
1E000780
1E000780
1E000780
1E000780
1E000780
1E000780
1E000780
1E000780
1E000780
1E000780
1E000780
1E000780
1E000780
1E000780
1E000780
0E000700
0F000F00
0F001E00
07803E00
03E07C00
01FFF800
00FFF000
003F8000
ENDCHAR
STARTCHAR U+00DD
ENCODING 221
SWIDTH 587 0
DWIDTH 22 0
BBX 22 31 0 0
BITMAP
001E00
001E00
003C00
007800
007000
000000
000000
780078
3C00F0
3C00F0
1E01E0
1E03C0
0F03C0
078780
078700
03CF00
01FE00
01FC00
00FC00
007800
007800
007800
007800
007800
007800
007800
007800
007800
007800
007800
007800
ENDCHAR
STARTCHAR U+00DE
ENCODING 222
SWIDTH 560 0
DWIDTH 21 0
BBX 21 24 0 0
BITMAP
1E0000
1E0000
1E0000
1E0000
1E0000
1FFE00
1FFF80
1FFFC0
1E07E0
1E01E0
1E01E0
1E00F0
1E00E0
1E00E0
1E01E0
1E03E0
1FFFC0
1FFF80
1FFE00
1E0000
1E0000
1E0000
1E0000
1E0000
ENDCHAR
STARTCHAR U+00DF
ENCODING 223
SWIDTH 533 0
DWIDTH 20 0
BBX 20 24 0 0
BITMAP
01F800
03FE00
07FF00
0F0F00
1E0780
1E0380
1C0380
1C0380
1C0780
1C0F00
1C7E00
1C7C00
1C7F00
1C0F80
1C03C0
1C01C0
1C01C0
1C01C0
1C01C0
1C03C0
1C07C0
1CFF80
1CFF00
1CFC00
ENDCHAR
STARTCHAR U+00E0
ENCODING 224
SWIDTH 507 0
DWIDTH 19 0
BBX 19 26 0 0
BITMAP
078000
038000
01C000
00E000
007000
000000
000000
000000
07F000
0FFC00
1FFE00
1C1E00
100F00
000F00
00FF00
07FF00
0FFF00
1F8700
3E0700
3C0700
380700
380F00
3C3F00
3FFF00
1FF700
07C700
ENDCHAR
STARTCHAR U+00E1
ENCODING 225
SWIDTH 507 0
DWIDTH 19 0
BBX 19 26 0 0
BITMAP
007800
007800
00F000
01E000
01C000
000000
000000
000000
07F000
0FFC00
1FFE00
1C1E00
100F00
000F00
00FF00
07FF00
0FFF00
1F8700
3E0700
3C0700
380700
380F00
3C3F00
3FFF00
1FF700
07C700
ENDCHAR
STARTCHAR U+00E2
ENCODING 226
SWIDTH 507 0
DWIDTH 19 0
BBX 19 26 0 0
BITMAP
03E000
03F000
077000
0E3800
0C1C00
000000
000000
000000
07F000
0FFC00
1FFE00
1C1E00
100F00
000F00
00FF00
07FF00
0FFF00
1F8700
3E0700
3C0700
380700
380F00
3C3F00
3FFF00
1FF700
07C700
ENDCHAR
STARTCHAR U+00E3
ENCODING 227
SWIDTH 507 0
DWIDTH 19 0
BBX 19 26 0 0
BITMAP
070000
0FCE00
1FFE00
0CFC00
007800
000000
000000
000000
07F000
0FFC00
1FFE00
1C1E00
100F00
000F00
00FF00
07FF00
0FFF00
1F8700
3E0700
3C0700
380700
380F00
3C3F00
3FFF00
1FF700
07C700
ENDCHAR
STARTCHAR U+00E4
ENCODING 228
SWIDTH 507 0
DWIDTH 19 0
BBX 19 26 0 0
BITMAP
040800
0E1C00
1F3E00
0E1C00
040800
000000
000000
000000
07F000
0FFC00
1FFE00
1C1E00
100F00
000F00
00FF00
07FF00
0FFF00
1F8700
3E0700
3C0700
380700
380F00
3C3F00
3FFF00
1FF700
07C700
ENDCHAR
STARTCHAR U+00E5
ENCODING 229
SWIDTH 507 0
DWIDTH 19 0
BBX 19 28 0 0
BITMAP
00E000
01F000
031800
031800
031800
01F000
00E000
000000
000000
000000
07F000
0FFC00
1FFE00
1C1E00
100F00
000F00
00FF00
07FF00
0FFF00
1F8700
3E0700
3C0700
380700
380F00
3C3F00
3FFF00
1FF700
07C700
ENDCHAR
STARTCHAR U+00E6
ENCODING 230
SWIDTH 800 0
DWIDTH 30 0
BBX 30 18 0 0
BITMAP
07F03E00
0FF8FF80
1FFDFFC0
1C1FC3E0
100F80E0
000F00F0
000F0070
007FFFF0
07FFFFF0
0FFFFFF0
1F0F0000
3C0F0000
38078000
38078010
3C1FE0F0
3FFFFFF0
1FFCFFE0
07E03F00
ENDCHAR
STARTCHAR U+00E7
ENCODING 231
SWIDTH 480 0
DWIDTH 18 0
BBX 18 25 0 -7
BITMAP
00FE00
03FF80
07FF80
0F8380
1E0080
3C0000
3C0000
380000
380000
380000
380000
3C0000
3C0000
1E0080
0F8380
07FF80
03FF80
00FE00
003000
007C00
007E00
000E00
000E00
01FC00
01F800
ENDCHAR
STARTCHAR U+00E8
ENCODING 232
SWIDTH 533 0
DWIDTH 20 0
BBX 20 26 0 0
BITMAP
03C000
01C000
00E000
007000
003800
000000
000000
000000
01F800
07FE00
0FFF00
1F0F80
1E0380
3C03C0
3C03C0
3FFFC0
3FFFC0
3FFFC0
380000
3C0000
3C0000
1E0040
1F83C0
0FFFC0
03FFC0
00FF00
ENDCHAR
STARTCHAR U+00E9
ENCODING 233
SWIDTH 533 0
DWIDTH 20 0
BBX 20 26 0 0
BITMAP
003C00
003C00
007800
00F000
00E000
000000
000000
000000
01F800
07FE00
0FFF00
1F0F80
1E0380
3C03C0
3C03C0
3FFFC0
3FFFC0
3FFFC0
380000
3C0000
3C0000
1E0040
1F83C0
0FFFC0
03FFC0
00FF00
ENDCHAR
STARTCHAR U+00EA
ENCODING 234
SWIDTH 533 0
DWIDTH 20 0
BBX 20 26 0 0
BITMAP
01F000
01F800
03B800
071C00
060E00
000000
000000
000000
01F800
07FE00
0FFF00
1F0F80
1E0380
3C03C0
3C03C0
3FFFC0
3FFFC0
3FFFC0
380000
3C0000
3C0000
1E0040
1F83C0
0FFFC0
03FFC0
00FF00
ENDCHAR
STARTCHAR U+00EB
ENCODING 235
SWIDTH 533 0
DWIDTH 20 0
BBX 20 26 0 0
BITMAP
020400
070E00
0F9F00
070E00
020400
000000
000000
000000
01F800
07FE00
0FFF00
1F0F80
1E0380
3C03C0
3C03C0
3FFFC0
3FFFC0
3FFFC0
380000
3C0000
3C0000
1E0040
1F83C0
0FFFC0
03FFC0
00FF00
ENDCHAR
STARTCHAR U+00EC
ENCODING 236
SWIDTH 240 0
DWIDTH 9 0
BBX 10 26 -1 0
BITMAP
7800
3800
1C00
0E00
0700
0000
0000
0000
0E00
0E00
0E00
0E00
0E00
0E00
0E00
0E00
0E00
0E00
0E00
0E00
0E00
0E00
0E00
0E00
0E00
0E00
ENDCHAR
STARTCHAR U+00ED
ENCODING 237
SWIDTH 240 0
DWIDTH 9 0
BBX 10 26 0 0
BITMAP
0780
0780
0F00
1E00
1C00
0000
0000
0000
1C00
1C00
1C00
1C00
1C00
1C00
1C00
1C00
1C00
1C00
1C00
1C00
1C00
1C00
1C00
1C00
1C00
1C00
ENDCHAR
STARTCHAR U+00EE
ENCODING 238
SWIDTH 240 0
DWIDTH 9 0
BBX 11 26 -1 0
BITMAP
1F00
1F80
3B80
71C0
60E0
0000
0000
0000
0E00
0E00
0E00
0E00
0E00
0E00
0E00
0E00
0E00
0E00
0E00
0E00
0E00
0E00
0E00
0E00
0E00
0E00
ENDCHAR
STARTCHAR U+00EF
ENCODING 239
SWIDTH 240 0
DWIDTH 9 0
BBX 13 26 -2 0
BITMAP
2040
70E0
F9F0
70E0
2040
0000
0000
0000
0E00
0E00
0E00
0E00
0E00
0E00
0E00
0E00
0E00
0E00
0E00
0E00
0E00
0E00
0E00
0E00
0E00
0E00
ENDCHAR
STARTCHAR U+00F0
ENCODING 240
SWIDTH 533 0
DWIDTH 20 0
BBX 20 24 0 0
BITMAP
018600
07DF00
03FC00
01F800
07FC00
0F3E00
041E00
000F00
01FF80
07FF80
0FFFC0
1F0FC0
1C03C0
3C01C0
3801C0
3801C0
3801C0
3801C0
3C03C0
3C0780
1F0F80
0FFF00
07FE00
01F800
ENDCHAR
STARTCHAR U+00F1
ENCODING 241
SWIDTH 587 0
DWIDTH 22 0
BBX 22 26 0 0
BITMAP
01C000
03F380
07FF80
033F00
001E00
000000
000000
000000
1CFE00
1FFF00
1FFF80
1F07C0
1C03C0
1C01E0
1C01E0
1C01E0
1C00E0
1C00E0
1C00E0
1C00E0
1C00E0
1C00E0
1C00E0
1C00E0
1C00E0
1C00E0
ENDCHAR
STARTCHAR U+00F2
ENCODING 242
SWIDTH 587 0
DWIDTH 22 0
BBX 22 26 0 0
BITMAP
01E000
00E000
007000
003800
001C00
000000
000000
000000
00FC00
03FF00
0FFF80
0F87C0
1E01E0
3C00F0
3C00F0
380070
380070
380070
380070
3C00F0
3C00F0
1E01E0
0F87C0
0FFFC0
03FF00
00FC00
ENDCHAR
STARTCHAR U+00F3
ENCODING 243
SWIDTH 587 0
DWIDTH 22 0
BBX 22 26 0 0
BITMAP
001E00
001E00
003C00
007800
007000
000000
000000
000000
00FC00
03FF00
0FFF80
0F87C0
1E01E0
3C00F0
3C00F0
380070
380070
380070
380070
3C00F0
3C00F0
1E01E0
0F87C0
0FFFC0
03FF00
00FC00
ENDCHAR
STARTCHAR U+00F4
ENCODING 244
SWIDTH 587 0
DWIDTH 22 0
BBX 22 26 0 0
BITMAP
00F800
00FC00
01DC00
038E00
030700
000000
000000
000000
00FC00
03FF00
0FFF80
0F87C0
1E01E0
3C00F0
3C00F0
380070
380070
380070
380070
3C00F0
3C00F0
1E01E0
0F87C0
0FFFC0
03FF00
00FC00
ENDCHAR
STARTCHAR U+00F5
ENCODING 245
SWIDTH 587 0
DWIDTH 22 0
BBX 22 26 0 0
BITMAP
01C000
03F380
07FF80
033F00
001E00
000000
000000
000000
00FC00
03FF00
0FFF80
0F87C0
1E01E0
3C00F0
3C00F0
380070
380070
380070
380070
3C00F0
3C00F0
1E01E0
0F87C0
0FFFC0
03FF00
00FC00
ENDCHAR
STARTCHAR U+00F6
ENCODING 246
SWIDTH 587 0
DWIDTH 22 0
BBX 22 26 0 0
BITMAP
010200
038700
07CF80
038700
010200
000000
000000
000000
00FC00
03FF00
0FFF80
0F87C0
1E01E0
3C00F0
3C00F0
380070
380070
380070
380070
3C00F0
3C00F0
1E01E0
0F87C0
0FFFC0
03FF00
00FC00
ENDCHAR
STARTCHAR U+00F7
ENCODING 247
SWIDTH 507 0
DWIDTH 19 0
BBX 19 21 0 0
BITMAP
004000
00E000
01F000
00E000
004000
000000
000000
3FFF80
3FFF80
3FFF80
000000
000000
004000
00E000
01F000
00E000
004000
000000
000000
000000
000000
ENDCHAR
STARTCHAR U+00F8
ENCODING 248
SWIDTH 587 0
DWIDTH 22 0
BBX 22 20 0 -1
BITMAP
000040
00FCE0
03FFC0
0FFFC0
0F87C0
1E07E0
3C0EF0
3C0CF0
381C70
383870
387070
386070
3CC0F0
3DC0F0
1F81E0
0F87C0
0FFFC0
0FFF00
1CFC00
080000
ENDCHAR
STARTCHAR U+00F9
ENCODING 249
SWIDTH 587 0
DWIDTH 22 0
BBX 22 26 0 0
BITMAP
01E000
00E000
007000
003800
001C00
000000
000000
000000
1C01E0
1C01E0
1C01E0
1C01E0
1C01E0
1C01E0
1C01E0
1C01E0
1C01E0
1C01E0
1C01E0
1C01E0
1E01E0
1E01E0
0F03E0
0FFFE0
07FFE0
01FDE0
ENDCHAR
STARTCHAR U+00FA
ENCODING 250
SWIDTH 587 0
DWIDTH 22 0
BBX 22 26 0 0
BITMAP
001E00
001E00
003C00
007800
007000
000000
000000
000000
1C01E0
1C01E0
1C01E0
1C01E0
1C01E0
1C01E0
1C01E0
1C01E0
1C01E0
1C01E0
1C01E0
1C01E0
1E01E0
1E01E0
0F03E0
0FFFE0
07FFE0
01FDE0
ENDCHAR
STARTCHAR U+00FB
ENCODING 251
SWIDTH 587 0
DWIDTH 22 0
BBX 22 26 0 0
BITMAP
00F800
00FC00
01DC00
038E00
030700
000000
000000
000000
1C01E0
1C01E0
1C01E0
1C01E0
1C01E0
1C01E0
1C01E0
1C01E0
1C01E0
1C01E0
1C01E0
1C01E0
1E01E0
1E01E0
0F03E0
0FFFE0
07FFE0
01FDE0
ENDCHAR
STARTCHAR U+00FC
ENCODING 252
SWIDTH 587 0
DWIDTH 22 0
BBX 22 26 0 0
BITMAP
010200
038700
07CF80
038700
010200
000000
000000
000000
1C01E0
1C01E0
1C01E0
1C01E0
1C01E0
1C01E0
1C01E0
1C01E0
1C01E0
1C01E0
1C01E0
1C01E0
1E01E0
1E01E0
0F03E0
0FFFE0
07FFE0
01FDE0
ENDCHAR
STARTCHAR U+00FD
ENCODING 253
SWIDTH 507 0
DWIDTH 19 0
BBX 19 33 0 -7
BITMAP
003C00
003C00
007800
00F000
00E000
000000
000000
000000
7001E0
7801C0
3803C0
3C03C0
3C0380
1C0780
1E0700
0E0F00
0F0F00
0F0E00
071E00
079C00
039C00
03FC00
01F800
01F800
01F000
00F000
00F000
00E000
01E000
03C000
0FC000
0F8000
0E0000
ENDCHAR
STARTCHAR U+00FE
ENCODING 254
SWIDTH 587 0
DWIDTH 22 0
BBX 22 31 0 -7
BITMAP
1C0000
1C0000
1C0000
1C0000
1C0000
1C0000
1CFC00
1FFF00
1FFF80
1F07C0
1C01E0
1C01E0
1C00F0
1C00F0
1C00F0
1C00F0
1C00F0
1C00F0
1C01E0
1C01E0
1F07C0
1FFF80
1FFF00
1CFC00
1C0000
1C0000
1C0000
1C0000
1C0000
1C0000
1C0000
ENDCHAR
STARTCHAR U+00FF
ENCODING 255
SWIDTH 507 0
DWIDTH 19 0
BBX 19 33 0 -7
BITMAP
020400
070E00
0F9F00
070E00
020400
000000
000000
000000
7001E0
7801C0
3803C0
3C03C0
3C0380
1C0780
1E0700
0E0F00
0F0F00
0F0E00
071E00
079C00
039C00
03FC00
01F800
01F800
01F000
00F000
00F000
00E000
01E000
03C000
0FC000
0F8000
0E0000
ENDCHAR
STARTCHAR U+2013
ENCODING 8211
SWIDTH 480 0
DWIDTH 18 0
BBX 20 11 -1 0
BITMAP
FFFFC0
FFFFC0
FFFFC0
000000
000000
000000
000000
000000
000000
000000
000000
ENDCHAR
STARTCHAR U+2014
ENCODING 8212
SWIDTH 960 0
DWIDTH 36 0
BBX 38 11 -1 0
BITMAP
FFFFFFFFF0
FFFFFFFFF0
FFFFFFFFF0
0000000000
0000000000
0000000000
0000000000
0000000000
0000000000
0000000000
0000000000
ENDCHAR
STARTCHAR U+2018
ENCODING 8216
SWIDTH 240 0
DWIDTH 9 0
BBX 9 24 0 0
BITMAP
0400
0C00
1800
1800
3C00
3E00
1C00
0800
0000
0000
0000
0000
0000
0000
0000
0000
0000
0000
0000
0000
0000
0000
0000
0000
ENDCHAR
STARTCHAR U+2019
ENCODING 8217
SWIDTH 240 0
DWIDTH 9 0
BBX 9 24 0 0
BITMAP
0800
1C00
3C00
1E00
1C00
0C00
0800
1800
2000
0000
0000
0000
0000
0000
0000
0000
0000
0000
0000
0000
0000
0000
0000
0000
ENDCHAR
STARTCHAR U+201C
ENCODING 8220
SWIDTH 400 0
DWIDTH 15 0
BBX 15 24 0 0
BITMAP
0410
0C20
1860
18E0
3CF0
3EF8
1CF0
0860
0000
0000
0000
0000
0000
0000
0000
0000
0000
0000
0000
0000
0000
0000
0000
0000
ENDCHAR
STARTCHAR U+201D
ENCODING 8221
SWIDTH 400 0
DWIDTH 15 0
BBX 15 24 0 0
BITMAP
0820
1C70
3CF0
1E78
1C70
0C30
0820
1860
2080
0000
0000
0000
0000
0000
0000
0000
0000
0000
0000
0000
0000
0000
0000
0000
ENDCHAR
STARTCHAR U+2022
ENCODING 8226
SWIDTH 400 0
DWIDTH 15 0
BBX 15 15 0 0
BITMAP
0100
0380
07C0
0FE0
1FF0
0FE0
07C0
0380
0100
0000
0000
0000
0000
0000
0000
ENDCHAR
STARTCHAR U+2026
ENCODING 8230
SWIDTH 880 0
DWIDTH 33 0
BBX 33 5 0 0
BITMAP
0800800800
1C01C01C00
3E03E03E00
1C01C01C00
0800800800
ENDCHAR
STARTCHAR U+20AC
ENCODING 8364
SWIDTH 613 0
DWIDTH 23 0
BBX 23 24 0 0
BITMAP
001F80
00FFE0
01FFF8
03F078
07C018
0F8000
0F0000
1E0000
7FFF80
7FFF80
7FFF00
1C0000
1C0000
7FFF00
7FFE00
7FFE00
1E0000
0F0000
0F8000
07C018
03E078
01FFF8
00FFE0
001F80
ENDCHAR
ENDFONT
