STARTFONT 2.1
COMMENT Converted from Johnston100 W03 Regular.ttf at 23px with ttf2bdf.py (Pillow, 1-bit, no AA)
FONT -Misc-Johnston100-Medium-R-Normal--23-230-75-75-P-250-ISO10646-1
SIZE 23 75 75
FONTBOUNDINGBOX 25 27 -1 -6
STARTPROPERTIES 9
FOUNDRY "Misc"
FAMILY_NAME "Johnston100"
WEIGHT_NAME "Medium"
SLANT "R"
PIXEL_SIZE 23
RESOLUTION_X 75
RESOLUTION_Y 75
FONT_ASCENT 21
FONT_DESCENT 6
ENDPROPERTIES
CHARS 200
STARTCHAR space
ENCODING 32
SWIDTH 250 0
DWIDTH 6 0
BBX 6 27 0 -6
BITMAP
00
00
00
00
00
00
00
00
00
00
00
00
00
00
00
00
00
00
00
00
00
00
00
00
00
00
00
ENDCHAR
STARTCHAR !
ENCODING 33
SWIDTH 292 0
DWIDTH 7 0
BBX 7 15 0 0
BITMAP
38
38
38
38
38
30
30
30
30
30
10
10
10
38
10
ENDCHAR
STARTCHAR "
ENCODING 34
SWIDTH 376 0
DWIDTH 9 0
BBX 9 15 0 0
BITMAP
3300
3300
3300
3300
2300
2200
0000
0000
0000
0000
0000
0000
0000
0000
0000
ENDCHAR
STARTCHAR U+0023
ENCODING 35
SWIDTH 710 0
DWIDTH 17 0
BBX 17 15 0 0
BITMAP
008400
018C00
010C00
030C00
1FFF80
3FFF00
061800
063000
063000
7FFE00
7FFE00
0C6000
086000
186000
18C000
ENDCHAR
STARTCHAR $
ENCODING 36
SWIDTH 501 0
DWIDTH 12 0
BBX 12 19 0 -2
BITMAP
0E00
0E00
1F80
3F80
7000
7000
3800
3E00
1F00
07C0
01C0
00E0
00E0
60E0
71C0
3F80
1F00
0E00
0E00
ENDCHAR
STARTCHAR %
ENCODING 37
SWIDTH 710 0
DWIDTH 17 0
BBX 17 15 0 0
BITMAP
1C1800
3E1800
633000
633000
636000
3E6000
1CC000
00C000
019C00
013E00
036300
026300
066300
043E00
0C1C00
ENDCHAR
STARTCHAR &
ENCODING 38
SWIDTH 668 0
DWIDTH 16 0
BBX 16 15 0 0
BITMAP
0780
1FC0
18E0
18E0
18E0
1DC0
0F80
1F0C
3B9C
71D8
60F8
6070
70F8
3FDC
1F0E
ENDCHAR
STARTCHAR '
ENCODING 39
SWIDTH 209 0
DWIDTH 5 0
BBX 5 15 0 0
BITMAP
30
30
30
30
20
20
00
00
00
00
00
00
00
00
00
ENDCHAR
STARTCHAR (
ENCODING 40
SWIDTH 250 0
DWIDTH 6 0
BBX 6 19 0 -2
BITMAP
18
18
30
30
30
30
30
60
60
60
60
60
70
30
30
30
30
18
18
ENDCHAR
STARTCHAR )
ENCODING 41
SWIDTH 250 0
DWIDTH 6 0
BBX 6 19 0 -2
BITMAP
60
60
30
30
30
30
38
18
18
18
18
18
38
30
30
30
30
60
60
ENDCHAR
STARTCHAR *
ENCODING 42
SWIDTH 376 0
DWIDTH 9 0
BBX 9 15 0 0
BITMAP
0C00
4900
7F00
1C00
7F00
6900
0C00
0000
0000
0000
0000
0000
0000
0000
0000
ENDCHAR
STARTCHAR +
ENCODING 43
SWIDTH 501 0
DWIDTH 12 0
BBX 12 12 0 0
BITMAP
0600
0600
0600
3FE0
3FE0
0600
0600
0600
0000
0000
0000
0000
ENDCHAR
STARTCHAR ,
ENCODING 44
SWIDTH 250 0
DWIDTH 6 0
BBX 6 7 0 -3
BITMAP
20
70
30
30
20
00
00
ENDCHAR
STARTCHAR -
ENCODING 45
SWIDTH 376 0
DWIDTH 9 0
BBX 9 7 0 0
BITMAP
7F00
7F00
0000
0000
0000
0000
0000
ENDCHAR
STARTCHAR .
ENCODING 46
SWIDTH 250 0
DWIDTH 6 0
BBX 6 3 0 0
BITMAP
20
70
30
ENDCHAR
STARTCHAR /
ENCODING 47
SWIDTH 292 0
DWIDTH 7 0
BBX 8 19 0 -2
BITMAP
06
06
06
0C
0C
0C
0C
18
18
18
30
30
30
30
60
60
60
C0
C0
ENDCHAR
STARTCHAR 0
ENCODING 48
SWIDTH 543 0
DWIDTH 13 0
BBX 13 15 0 0
BITMAP
0780
0FE0
1C60
1870
3830
3030
3030
3030
3030
3030
3830
1870
1C60
0FE0
0780
ENDCHAR
STARTCHAR 1
ENCODING 49
SWIDTH 292 0
DWIDTH 7 0
BBX 7 15 0 0
BITMAP
10
30
30
30
30
30
30
30
30
30
30
30
30
30
30
ENDCHAR
STARTCHAR 2
ENCODING 50
SWIDTH 459 0
DWIDTH 11 0
BBX 11 15 0 0
BITMAP
1F00
3F80
31C0
60C0
00C0
00C0
01C0
0380
0380
0700
0E00
0C00
1C00
3FE0
3FE0
ENDCHAR
STARTCHAR 3
ENCODING 51
SWIDTH 501 0
DWIDTH 12 0
BBX 12 15 0 0
BITMAP
7FE0
7FC0
0180
0380
0700
0600
0F80
01C0
00E0
0060
0060
40E0
71C0
7FC0
1F00
ENDCHAR
STARTCHAR 4
ENCODING 52
SWIDTH 543 0
DWIDTH 13 0
BBX 13 15 0 0
BITMAP
0000
0040
00C0
01C0
03C0
06C0
0CC0
18C0
30C0
7FF0
FFF0
00C0
00C0
00C0
00C0
ENDCHAR
STARTCHAR 5
ENCODING 53
SWIDTH 501 0
DWIDTH 12 0
BBX 12 15 0 0
BITMAP
1FE0
1FC0
1800
1800
1800
1F00
1FC0
21C0
00E0
0060
0060
40E0
71C0
7F80
1F00
ENDCHAR
STARTCHAR 6
ENCODING 54
SWIDTH 501 0
DWIDTH 12 0
BBX 12 15 0 0
BITMAP
0380
0700
0E00
1C00
3800
3780
3FC0
70E0
6060
6060
6060
7060
38C0
3FC0
0F00
ENDCHAR
STARTCHAR 7
ENCODING 55
SWIDTH 459 0
DWIDTH 11 0
BBX 11 15 0 0
BITMAP
7FC0
7FC0
0180
0380
0300
0300
0700
0600
0E00
0C00
1C00
1800
3800
3000
7000
ENDCHAR
STARTCHAR 8
ENCODING 56
SWIDTH 501 0
DWIDTH 12 0
BBX 12 15 0 0
BITMAP
0F00
1FC0
38C0
30C0
30C0
1DC0
1F80
1F80
39C0
70E0
6060
7060
30E0
3FC0
0F80
ENDCHAR
STARTCHAR 9
ENCODING 57
SWIDTH 501 0
DWIDTH 12 0
BBX 12 15 0 0
BITMAP
0F80
3FC0
30E0
7060
6060
7060
3060
3FE0
1FE0
00C0
01C0
0380
0380
0700
0E00
ENDCHAR
STARTCHAR :
ENCODING 58
SWIDTH 292 0
DWIDTH 7 0
BBX 7 12 0 0
BITMAP
20
70
30
00
00
00
00
00
00
20
70
30
ENDCHAR
STARTCHAR ;
ENCODING 59
SWIDTH 292 0
DWIDTH 7 0
BBX 7 14 0 -3
BITMAP
20
70
30
00
00
00
00
00
10
38
18
18
10
00
ENDCHAR
STARTCHAR U+003C
ENCODING 60
SWIDTH 501 0
DWIDTH 12 0
BBX 12 14 0 0
BITMAP
0060
01E0
0780
1E00
3800
3800
1E00
0780
01E0
0060
0000
0000
0000
0000
ENDCHAR
STARTCHAR =
ENCODING 61
SWIDTH 501 0
DWIDTH 12 0
BBX 12 11 0 0
BITMAP
3FE0
3FE0
0000
0000
3FE0
3FE0
0000
0000
0000
0000
0000
ENDCHAR
STARTCHAR U+003E
ENCODING 62
SWIDTH 501 0
DWIDTH 12 0
BBX 12 14 0 0
BITMAP
2000
3800
1F00
07C0
01E0
01E0
07C0
1F00
3800
2000
0000
0000
0000
0000
ENDCHAR
STARTCHAR ?
ENCODING 63
SWIDTH 417 0
DWIDTH 10 0
BBX 10 15 0 0
BITMAP
3E00
7F00
6380
4180
0180
0380
0700
1E00
1800
1C00
0800
0000
0800
1C00
0800
ENDCHAR
STARTCHAR @
ENCODING 64
SWIDTH 918 0
DWIDTH 22 0
BBX 22 19 0 -4
BITMAP
00FE00
03FF80
0701C0
0C0060
187F30
30FE30
31C618
318618
630618
630618
630618
630630
318E30
31FFE0
38F3C0
1C0000
0F0200
07FE00
01FC00
ENDCHAR
STARTCHAR A
ENCODING 65
SWIDTH 668 0
DWIDTH 16 0
BBX 16 15 0 0
BITMAP
0380
0380
03C0
06C0
06E0
0E60
0C60
0C30
1830
1FF8
3FF8
301C
700C
600C
600E
ENDCHAR
STARTCHAR B
ENCODING 66
SWIDTH 584 0
DWIDTH 14 0
BBX 14 15 0 0
BITMAP
3F80
3FC0
38E0
3860
3860
38E0
3FC0
3FE0
3870
3838
3838
3838
3870
3FF0
3FC0
ENDCHAR
STARTCHAR C
ENCODING 67
SWIDTH 668 0
DWIDTH 16 0
BBX 16 15 0 0
BITMAP
01F8
07FC
1E04
1800
3800
3000
7000
7000
7000
3000
3800
1800
1E04
07FC
01F8
ENDCHAR
STARTCHAR D
ENCODING 68
SWIDTH 710 0
DWIDTH 17 0
BBX 17 15 0 0
BITMAP
3FC000
3FF000
383800
381C00
380E00
380600
380600
380600
380600
380600
380E00
381C00
383800
3FF000
3FC000
ENDCHAR
STARTCHAR E
ENCODING 69
SWIDTH 543 0
DWIDTH 13 0
BBX 13 15 0 0
BITMAP
3FF0
3FF0
3800
3800
3800
3800
3FC0
3FC0
3800
3800
3800
3800
3800
3FF0
3FF0
ENDCHAR
STARTCHAR F
ENCODING 70
SWIDTH 501 0
DWIDTH 12 0
BBX 12 15 0 0
BITMAP
3FF0
3FF0
3800
3800
3800
3800
3FC0
3FC0
3800
3800
3800
3800
3800
3800
3800
ENDCHAR
STARTCHAR G
ENCODING 71
SWIDTH 710 0
DWIDTH 17 0
BBX 17 15 0 0
BITMAP
01F800
07FE00
1E0E00
180200
380000
300000
703E00
703E00
700600
300600
380600
180600
1E0E00
0FFC00
03F000
ENDCHAR
STARTCHAR H
ENCODING 72
SWIDTH 710 0
DWIDTH 17 0
BBX 17 15 0 0
BITMAP
380E00
380E00
380E00
380E00
380E00
380E00
3FFE00
3FFE00
380E00
380E00
380E00
380E00
380E00
380E00
380E00
ENDCHAR
STARTCHAR I
ENCODING 73
SWIDTH 292 0
DWIDTH 7 0
BBX 7 15 0 0
BITMAP
38
38
38
38
38
38
38
38
38
38
38
38
38
38
38
ENDCHAR
STARTCHAR J
ENCODING 74
SWIDTH 459 0
DWIDTH 11 0
BBX 11 15 0 0
BITMAP
0180
0180
0180
0180
0180
0180
0180
0180
0180
0180
0180
2180
6380
7F00
3E00
ENDCHAR
STARTCHAR K
ENCODING 75
SWIDTH 584 0
DWIDTH 14 0
BBX 15 15 0 0
BITMAP
3838
3870
38E0
39C0
3B80
3F00
3E00
3E00
3F00
3B80
39C0
38E0
3870
3838
381C
ENDCHAR
STARTCHAR L
ENCODING 76
SWIDTH 501 0
DWIDTH 12 0
BBX 12 15 0 0
BITMAP
3800
3800
3800
3800
3800
3800
3800
3800
3800
3800
3800
3800
3800
3FF0
3FF0
ENDCHAR
STARTCHAR M
ENCODING 77
SWIDTH 835 0
DWIDTH 20 0
BBX 20 15 0 0
BITMAP
3801C0
3C03C0
3E07C0
3F0FC0
3F0DC0
3B9DC0
39F9C0
38F1C0
3861C0
3801C0
3801C0
3801C0
3801C0
3801C0
3801C0
ENDCHAR
STARTCHAR N
ENCODING 78
SWIDTH 751 0
DWIDTH 18 0
BBX 18 15 0 0
BITMAP
380700
3C0700
3C0700
3E0700
3F0700
3B8700
39C700
38C700
38E700
387700
383F00
381F00
380F00
380F00
380700
ENDCHAR
STARTCHAR O
ENCODING 79
SWIDTH 793 0
DWIDTH 19 0
BBX 19 15 0 0
BITMAP
01F000
07FC00
1E0F00
180300
380380
300180
7001C0
7001C0
7001C0
300180
380380
180300
1E0F00
07FC00
01F000
ENDCHAR
STARTCHAR P
ENCODING 80
SWIDTH 584 0
DWIDTH 14 0
BBX 14 15 0 0
BITMAP
3FC0
3FE0
3870
3830
3830
3830
3870
3FE0
3FC0
3800
3800
3800
3800
3800
3800
ENDCHAR
STARTCHAR Q
ENCODING 81
SWIDTH 793 0
DWIDTH 19 0
BBX 19 15 0 0
BITMAP
01F000
07FC00
1E0F00
180300
380380
300180
7001C0
7001C0
7001C0
300180
380B80
181F00
1E0F00
07FF80
01F900
ENDCHAR
STARTCHAR R
ENCODING 82
SWIDTH 584 0
DWIDTH 14 0
BBX 14 15 0 0
BITMAP
3F80
3FE0
38E0
3870
3870
38E0
3FE0
3F80
3B80
39C0
38E0
38E0
3870
3838
3818
ENDCHAR
STARTCHAR S
ENCODING 83
SWIDTH 501 0
DWIDTH 12 0
BBX 12 15 0 0
BITMAP
1F00
3F80
3100
7000
7000
3C00
1F00
0780
01C0
00E0
00E0
20E0
71C0
3F80
1F00
ENDCHAR
STARTCHAR T
ENCODING 84
SWIDTH 543 0
DWIDTH 13 0
BBX 13 15 0 0
BITMAP
7FF8
7FF8
0700
0700
0700
0700
0700
0700
0700
0700
0700
0700
0700
0700
0700
ENDCHAR
STARTCHAR U
ENCODING 85
SWIDTH 751 0
DWIDTH 18 0
BBX 18 15 0 0
BITMAP
300700
300700
300700
300700
300700
300700
300700
300700
300700
300700
380600
180E00
1E1C00
0FF800
03F000
ENDCHAR
STARTCHAR V
ENCODING 86
SWIDTH 626 0
DWIDTH 15 0
BBX 15 15 0 0
BITMAP
600C
701C
7018
3018
3838
1830
1870
1C60
0C60
0EE0
06C0
06C0
07C0
0380
0380
ENDCHAR
STARTCHAR W
ENCODING 87
SWIDTH 960 0
DWIDTH 23 0
BBX 23 15 0 0
BITMAP
60381C
703818
307818
307C38
386C30
18EC30
18CE70
1CCE60
1CC660
0D8660
0D87E0
0F83C0
0783C0
0703C0
070180
ENDCHAR
STARTCHAR X
ENCODING 88
SWIDTH 668 0
DWIDTH 16 0
BBX 16 15 0 0
BITMAP
701C
3818
1838
1C70
0E60
07C0
03C0
0380
07C0
0EE0
0C70
1C38
3818
701C
600E
ENDCHAR
STARTCHAR Y
ENCODING 89
SWIDTH 584 0
DWIDTH 14 0
BBX 14 15 0 0
BITMAP
6018
7038
3870
1860
1CE0
0FC0
0780
0780
0300
0300
0300
0300
0300
0300
0300
ENDCHAR
STARTCHAR Z
ENCODING 90
SWIDTH 584 0
DWIDTH 14 0
BBX 14 15 0 0
BITMAP
7FF8
7FF8
0070
0060
00E0
01C0
0180
0380
0700
0E00
0C00
1C00
3800
3FFC
7FFC
ENDCHAR
STARTCHAR [
ENCODING 91
SWIDTH 334 0
DWIDTH 8 0
BBX 8 21 0 -3
BITMAP
3E
3E
30
30
30
30
30
30
30
30
30
30
30
30
30
30
30
30
30
3E
3E
ENDCHAR
STARTCHAR \
ENCODING 92
SWIDTH 292 0
DWIDTH 7 0
BBX 8 19 0 -2
BITMAP
C0
C0
60
60
60
30
30
30
30
18
18
18
0C
0C
0C
0C
06
06
06
ENDCHAR
STARTCHAR ]
ENCODING 93
SWIDTH 334 0
DWIDTH 8 0
BBX 8 21 0 -3
BITMAP
7C
7C
0C
0C
0C
0C
0C
0C
0C
0C
0C
0C
0C
0C
0C
0C
0C
0C
0C
7C
7C
ENDCHAR
STARTCHAR ^
ENCODING 94
SWIDTH 543 0
DWIDTH 13 0
BBX 13 15 0 0
BITMAP
0700
0F80
0DC0
18C0
3860
3070
0000
0000
0000
0000
0000
0000
0000
0000
0000
ENDCHAR
STARTCHAR _
ENCODING 95
SWIDTH 501 0
DWIDTH 12 0
BBX 13 3 -1 -3
BITMAP
0000
0000
FFF0
ENDCHAR
STARTCHAR `
ENCODING 96
SWIDTH 417 0
DWIDTH 10 0
BBX 11 15 0 0
BITMAP
FFC0
FFC0
C0C0
C0C0
C0C0
C0C0
C0C0
C0C0
C0C0
C0C0
C0C0
C0C0
C0C0
FFC0
FFC0
ENDCHAR
STARTCHAR a
ENCODING 97
SWIDTH 501 0
DWIDTH 12 0
BBX 12 11 0 0
BITMAP
3F00
3F80
21C0
00C0
0FC0
3FC0
38C0
60C0
71C0
3FC0
1EC0
ENDCHAR
STARTCHAR b
ENCODING 98
SWIDTH 584 0
DWIDTH 14 0
BBX 14 15 0 0
BITMAP
3000
3000
3000
3000
3780
3FE0
3870
3030
3038
3018
3038
3030
3870
3FE0
37C0
ENDCHAR
STARTCHAR c
ENCODING 99
SWIDTH 501 0
DWIDTH 12 0
BBX 12 11 0 0
BITMAP
0780
1FE0
3860
7000
6000
6000
6000
7000
3860
1FE0
0780
ENDCHAR
STARTCHAR d
ENCODING 100
SWIDTH 584 0
DWIDTH 14 0
BBX 14 15 0 0
BITMAP
0030
0030
0030
0030
0FB0
1FF0
3870
7030
6030
6030
6030
7030
3870
1FF0
0FB0
ENDCHAR
STARTCHAR e
ENCODING 101
SWIDTH 543 0
DWIDTH 13 0
BBX 13 11 0 0
BITMAP
0F80
1FC0
38E0
7060
7FF0
7FF0
6000
7000
3820
1FE0
0FC0
ENDCHAR
STARTCHAR f
ENCODING 102
SWIDTH 376 0
DWIDTH 9 0
BBX 9 15 0 0
BITMAP
0F80
1F80
3800
3000
FF80
FF80
3000
3000
3000
3000
3000
3000
3000
3000
3000
ENDCHAR
STARTCHAR g
ENCODING 103
SWIDTH 501 0
DWIDTH 12 0
BBX 12 15 0 -4
BITMAP
1FE0
3FE0
71C0
60C0
71C0
3FC0
3F00
3000
3E00
3FC0
61E0
6060
6060
7FE0
3F80
ENDCHAR
STARTCHAR h
ENCODING 104
SWIDTH 584 0
DWIDTH 14 0
BBX 14 15 0 0
BITMAP
3000
3000
3000
3000
37C0
3FE0
3870
3030
3030
3030
3030
3030
3030
3030
3030
ENDCHAR
STARTCHAR i
ENCODING 105
SWIDTH 250 0
DWIDTH 6 0
BBX 6 16 0 0
BITMAP
30
78
30
00
30
30
30
30
30
30
30
30
30
30
30
00
ENDCHAR
STARTCHAR j
ENCODING 106
SWIDTH 250 0
DWIDTH 6 0
BBX 7 19 -1 -4
BITMAP
20
70
20
00
30
30
30
30
30
30
30
30
30
30
30
30
30
F0
E0
ENDCHAR
STARTCHAR k
ENCODING 107
SWIDTH 501 0
DWIDTH 12 0
BBX 13 15 0 0
BITMAP
3000
3000
3000
3000
30E0
31C0
3380
3700
3E00
3E00
3700
3380
31C0
30E0
3070
ENDCHAR
STARTCHAR l
ENCODING 108
SWIDTH 292 0
DWIDTH 7 0
BBX 8 15 0 0
BITMAP
30
30
30
30
30
30
30
30
30
30
30
30
30
3E
1E
ENDCHAR
STARTCHAR m
ENCODING 109
SWIDTH 877 0
DWIDTH 21 0
BBX 21 11 0 0
BITMAP
37CF80
3FFFE0
3878E0
307070
303070
303070
303070
303070
303070
303070
303070
ENDCHAR
STARTCHAR n
ENCODING 110
SWIDTH 584 0
DWIDTH 14 0
BBX 14 11 0 0
BITMAP
37C0
3FE0
3870
3030
3030
3030
3030
3030
3030
3030
3030
ENDCHAR
STARTCHAR o
ENCODING 111
SWIDTH 584 0
DWIDTH 14 0
BBX 14 11 0 0
BITMAP
0FC0
1FE0
3870
7038
6018
6018
6018
7038
3870
1FE0
0FC0
ENDCHAR
STARTCHAR p
ENCODING 112
SWIDTH 584 0
DWIDTH 14 0
BBX 14 15 0 -4
BITMAP
37C0
3FE0
3870
3030
3038
3018
3038
3030
3870
3FE0
3780
3000
3000
3000
3000
ENDCHAR
STARTCHAR q
ENCODING 113
SWIDTH 584 0
DWIDTH 14 0
BBX 14 15 0 -4
BITMAP
0FB0
1FF0
3870
7030
6030
6030
6030
7030
3870
1FF0
0FB0
0030
0030
0030
0030
ENDCHAR
STARTCHAR r
ENCODING 114
SWIDTH 376 0
DWIDTH 9 0
BBX 9 11 0 0
BITMAP
3780
3F80
3800
3000
3000
3000
3000
3000
3000
3000
3000
ENDCHAR
STARTCHAR s
ENCODING 115
SWIDTH 459 0
DWIDTH 11 0
BBX 11 11 0 0
BITMAP
1F00
3F80
7080
7000
7C00
3F80
07C0
00C0
60C0
7F80
1F00
ENDCHAR
STARTCHAR t
ENCODING 116
SWIDTH 417 0
DWIDTH 10 0
BBX 10 14 0 0
BITMAP
3000
3000
3000
FF80
FF80
3000
3000
3000
3000
3000
3000
3800
1F80
0F80
ENDCHAR
STARTCHAR u
ENCODING 117
SWIDTH 584 0
DWIDTH 14 0
BBX 14 11 0 0
BITMAP
3030
3030
3030
3030
3030
3030
3030
3030
3870
1FF0
0FB0
ENDCHAR
STARTCHAR v
ENCODING 118
SWIDTH 501 0
DWIDTH 12 0
BBX 13 11 0 0
BITMAP
6070
6060
7060
30E0
38C0
19C0
1D80
0D80
0F00
0700
0600
ENDCHAR
STARTCHAR w
ENCODING 119
SWIDTH 835 0
DWIDTH 20 0
BBX 20 11 0 0
BITMAP
606060
70E0E0
70F0C0
30F0C0
39B9C0
399980
1B9980
1F0F80
0F0F00
0E0F00
0E0700
ENDCHAR
STARTCHAR x
ENCODING 120
SWIDTH 501 0
DWIDTH 12 0
BBX 12 11 0 0
BITMAP
70E0
31C0
1980
1F00
0F00
0E00
0F00
1980
31C0
70E0
E060
ENDCHAR
STARTCHAR y
ENCODING 121
SWIDTH 501 0
DWIDTH 12 0
BBX 13 15 0 -4
BITMAP
6030
6060
7060
30E0
38C0
19C0
1D80
0D80
0F00
0700
0700
0600
0E00
3C00
3800
ENDCHAR
STARTCHAR z
ENCODING 122
SWIDTH 459 0
DWIDTH 11 0
BBX 11 11 0 0
BITMAP
7FC0
7F80
0380
0300
0600
0E00
0C00
1800
3800
7FC0
7FC0
ENDCHAR
STARTCHAR {
ENCODING 123
SWIDTH 334 0
DWIDTH 8 0
BBX 8 20 0 -2
BITMAP
0E
1C
18
18
18
18
18
18
38
70
70
38
18
18
18
18
18
18
1C
0E
ENDCHAR
STARTCHAR |
ENCODING 124
SWIDTH 209 0
DWIDTH 5 0
BBX 5 23 0 -6
BITMAP
30
30
30
30
30
30
30
30
30
30
30
30
30
30
30
30
30
30
30
30
30
30
30
ENDCHAR
STARTCHAR }
ENCODING 125
SWIDTH 334 0
DWIDTH 8 0
BBX 8 20 0 -2
BITMAP
70
18
18
18
18
18
18
18
0C
0E
0E
0C
18
18
18
18
18
18
18
70
ENDCHAR
STARTCHAR ~
ENCODING 126
SWIDTH 501 0
DWIDTH 12 0
BBX 12 10 0 0
BITMAP
1C60
3E60
67C0
61C0
0000
0000
0000
0000
0000
0000
ENDCHAR
STARTCHAR U+00A0
ENCODING 160
SWIDTH 250 0
DWIDTH 6 0
BBX 6 27 0 -6
BITMAP
00
00
00
00
00
00
00
00
00
00
00
00
00
00
00
00
00
00
00
00
00
00
00
00
00
00
00
ENDCHAR
STARTCHAR U+00A1
ENCODING 161
SWIDTH 292 0
DWIDTH 7 0
BBX 7 16 0 -4
BITMAP
30
30
00
10
10
30
30
30
30
30
38
38
38
38
38
00
ENDCHAR
STARTCHAR U+00A2
ENCODING 162
SWIDTH 501 0
DWIDTH 12 0
BBX 12 13 0 -1
BITMAP
0300
0F80
1FE0
3860
7000
6000
6000
6000
7000
3860
1FE0
07C0
0300
ENDCHAR
STARTCHAR U+00A3
ENCODING 163
SWIDTH 501 0
DWIDTH 12 0
BBX 12 15 0 0
BITMAP
03C0
0FE0
0C40
0C00
1C00
1C00
1800
3F80
3F80
1800
1800
1800
3000
3FE0
7FE0
ENDCHAR
STARTCHAR U+00A4
ENCODING 164
SWIDTH 584 0
DWIDTH 14 0
BBX 14 11 0 0
BITMAP
3030
7FF8
3FF0
1860
3870
3870
3870
1860
3FF0
7FF8
3030
ENDCHAR
STARTCHAR U+00A5
ENCODING 165
SWIDTH 584 0
DWIDTH 14 0
BBX 14 15 0 0
BITMAP
7018
3038
3830
1860
0CE0
3EF8
3FF8
0380
0300
3FF8
3FF8
0300
0300
0300
0300
ENDCHAR
STARTCHAR U+00A6
ENCODING 166
SWIDTH 209 0
DWIDTH 5 0
BBX 5 23 0 -6
BITMAP
30
30
30
30
30
30
30
30
30
00
00
00
00
00
30
30
30
30
30
30
30
30
30
ENDCHAR
STARTCHAR U+00A7
ENCODING 167
SWIDTH 459 0
DWIDTH 11 0
BBX 11 19 0 -4
BITMAP
1F00
3F80
71C0
6080
7000
3800
1F00
7F80
61C0
60C0
70C0
3DC0
1F00
03C0
00C0
20C0
71C0
3F80
1F00
ENDCHAR
STARTCHAR U+00A8
ENCODING 168
SWIDTH 417 0
DWIDTH 10 0
BBX 11 15 0 0
BITMAP
FFC0
FFC0
C0C0
C0C0
C0C0
C0C0
C0C0
C0C0
C0C0
C0C0
C0C0
C0C0
C0C0
FFC0
FFC0
ENDCHAR
STARTCHAR U+00A9
ENCODING 169
SWIDTH 751 0
DWIDTH 18 0
BBX 18 15 0 0
BITMAP
03F000
0E0C00
180200
11F900
230980
260080
6C0080
4C0080
6C0080
260080
230980
11F900
180200
0E0C00
03F000
ENDCHAR
STARTCHAR U+00AA
ENCODING 170
SWIDTH 292 0
DWIDTH 7 0
BBX 7 15 0 0
BITMAP
78
4C
3C
64
4C
74
00
00
00
00
00
00
00
00
00
ENDCHAR
STARTCHAR U+00AB
ENCODING 171
SWIDTH 543 0
DWIDTH 13 0
BBX 13 12 0 0
BITMAP
0E70
0C60
18C0
3180
7380
7380
3180
18C0
0C60
0E70
0000
0000
ENDCHAR
STARTCHAR U+00AC
ENCODING 172
SWIDTH 501 0
DWIDTH 12 0
BBX 12 11 0 0
BITMAP
3FE0
3FE0
0060
0060
0060
0060
0060
0000
0000
0000
0000
ENDCHAR
STARTCHAR U+00AD
ENCODING 173
SWIDTH 376 0
DWIDTH 9 0
BBX 9 7 0 0
BITMAP
7F00
7F00
0000
0000
0000
0000
0000
ENDCHAR
STARTCHAR U+00AE
ENCODING 174
SWIDTH 751 0
DWIDTH 18 0
BBX 18 15 0 0
BITMAP
03F000
0E0C00
180200
13E100
233180
231080
633080
43E080
636080
233080
233180
131900
180200
0E0C00
03F000
ENDCHAR
STARTCHAR U+00AF
ENCODING 175
SWIDTH 417 0
DWIDTH 10 0
BBX 11 15 0 0
BITMAP
FFC0
FFC0
C0C0
C0C0
C0C0
C0C0
C0C0
C0C0
C0C0
C0C0
C0C0
C0C0
C0C0
FFC0
FFC0
ENDCHAR
STARTCHAR U+00B0
ENCODING 176
SWIDTH 376 0
DWIDTH 9 0
BBX 9 15 0 0
BITMAP
1C00
3E00
6300
6300
3E00
1C00
0000
0000
0000
0000
0000
0000
0000
0000
0000
ENDCHAR
STARTCHAR U+00B1
ENCODING 177
SWIDTH 501 0
DWIDTH 12 0
BBX 12 13 0 0
BITMAP
0600
0600
0600
3FE0
3FE0
0600
0600
0600
0000
0000
0000
3FE0
3FE0
ENDCHAR
STARTCHAR U+00B2
ENCODING 178
SWIDTH 334 0
DWIDTH 8 0
BBX 8 15 0 0
BITMAP
3C
7C
46
04
0C
18
10
3E
7E
00
00
00
00
00
00
ENDCHAR
STARTCHAR U+00B3
ENCODING 179
SWIDTH 334 0
DWIDTH 8 0
BBX 8 15 0 0
BITMAP
7E
7C
08
1C
06
06
46
7E
38
00
00
00
00
00
00
ENDCHAR
STARTCHAR U+00B4
ENCODING 180
SWIDTH 417 0
DWIDTH 10 0
BBX 11 15 0 0
BITMAP
FFC0
FFC0
C0C0
C0C0
C0C0
C0C0
C0C0
C0C0
C0C0
C0C0
C0C0
C0C0
C0C0
FFC0
FFC0
ENDCHAR
STARTCHAR U+00B5
ENCODING 181
SWIDTH 543 0
DWIDTH 13 0
BBX 13 15 0 -4
BITMAP
3070
3070
3070
3070
3070
3070
3070
3070
38F0
3FF0
3F70
3000
3000
3000
3000
ENDCHAR
STARTCHAR U+00B6
ENCODING 182
SWIDTH 543 0
DWIDTH 13 0
BBX 13 19 0 -4
BITMAP
1FF0
3E60
7E60
7E60
7E60
7E60
3E60
1E60
0260
0260
0260
0260
0260
0260
0260
0260
0260
0260
0260
ENDCHAR
STARTCHAR U+00B7
ENCODING 183
SWIDTH 250 0
DWIDTH 6 0
BBX 6 9 0 0
BITMAP
20
78
20
00
00
00
00
00
00
ENDCHAR
STARTCHAR U+00B8
ENCODING 184
SWIDTH 417 0
DWIDTH 10 0
BBX 11 15 0 0
BITMAP
FFC0
FFC0
C0C0
C0C0
C0C0
C0C0
C0C0
C0C0
C0C0
C0C0
C0C0
C0C0
C0C0
FFC0
FFC0
ENDCHAR
STARTCHAR U+00B9
ENCODING 185
SWIDTH 209 0
DWIDTH 5 0
BBX 5 15 0 0
BITMAP
10
30
30
30
30
30
30
30
30
00
00
00
00
00
00
ENDCHAR
STARTCHAR U+00BA
ENCODING 186
SWIDTH 376 0
DWIDTH 9 0
BBX 9 15 0 0
BITMAP
3E00
6300
4300
4300
6300
3E00
0000
0000
0000
0000
0000
0000
0000
0000
0000
ENDCHAR
STARTCHAR U+00BB
ENCODING 187
SWIDTH 543 0
DWIDTH 13 0
BBX 13 12 0 0
BITMAP
7380
3180
18C0
0C60
0E70
0670
0C60
18C0
3180
7380
0000
0000
ENDCHAR
STARTCHAR U+00BC
ENCODING 188
SWIDTH 751 0
DWIDTH 18 0
BBX 18 15 0 0
BITMAP
101800
301800
303000
302000
306000
304000
30C080
318180
318380
030780
030D80
061980
063FC0
0C0180
0C0180
ENDCHAR
STARTCHAR U+00BD
ENCODING 189
SWIDTH 793 0
DWIDTH 19 0
BBX 19 15 0 0
BITMAP
101800
301800
303000
302000
306000
304000
30C3C0
3187C0
318460
030040
0300C0
060180
060100
0C03E0
0C07E0
ENDCHAR
STARTCHAR U+00BE
ENCODING 190
SWIDTH 835 0
DWIDTH 20 0
BBX 20 15 0 0
BITMAP
7E0600
7C0600
080C00
1C0800
061800
061000
463020
7E6060
3860E0
00C1E0
00C360
018660
018FF0
030060
030060
ENDCHAR
STARTCHAR U+00BF
ENCODING 191
SWIDTH 417 0
DWIDTH 10 0
BBX 11 15 0 -4
BITMAP
0400
0E00
0400
0000
0400
0E00
0700
0E00
1E00
3800
7000
7000
7080
3FC0
1F80
ENDCHAR
STARTCHAR U+00C0
ENCODING 192
SWIDTH 668 0
DWIDTH 16 0
BBX 16 19 0 0
BITMAP
0600
0300
0180
0000
0380
0380
03C0
06C0
06E0
0E60
0C60
0C30
1830
1FF8
3FF8
301C
700C
600C
600E
ENDCHAR
STARTCHAR U+00C1
ENCODING 193
SWIDTH 668 0
DWIDTH 16 0
BBX 16 19 0 0
BITMAP
00E0
00C0
0180
0000
0380
0380
03C0
06C0
06E0
0E60
0C60
0C30
1830
1FF8
3FF8
301C
700C
600C
600E
ENDCHAR
STARTCHAR U+00C2
ENCODING 194
SWIDTH 668 0
DWIDTH 16 0
BBX 16 19 0 0
BITMAP
03C0
03C0
0660
0000
0380
0380
03C0
06C0
06E0
0E60
0C60
0C30
1830
1FF8
3FF8
301C
700C
600C
600E
ENDCHAR
STARTCHAR U+00C3
ENCODING 195
SWIDTH 668 0
DWIDTH 16 0
BBX 16 19 0 0
BITMAP
0720
0FE0
01C0
0000
0380
0380
03C0
06C0
06E0
0E60
0C60
0C30
1830
1FF8
3FF8
301C
700C
600C
600E
ENDCHAR
STARTCHAR U+00C4
ENCODING 196
SWIDTH 668 0
DWIDTH 16 0
BBX 16 19 0 0
BITMAP
0440
0EE0
0440
0000
0380
0380
03C0
06C0
06E0
0E60
0C60
0C30
1830
1FF8
3FF8
301C
700C
600C
600E
ENDCHAR
STARTCHAR U+00C5
ENCODING 197
SWIDTH 668 0
DWIDTH 16 0
BBX 16 20 0 0
BITMAP
01C0
0240
0240
01C0
0000
0380
0380
03C0
06C0
06E0
0E60
0C60
0C30
1830
1FF8
3FF8
301C
700C
600C
600E
ENDCHAR
STARTCHAR U+00C6
ENCODING 198
SWIDTH 877 0
DWIDTH 21 0
BBX 21 15 0 0
BITMAP
007FF0
00FFF0
00D800
01D800
039800
039800
071FC0
071FC0
0E1800
0FF800
1FF800
381800
381800
701FF0
601FF0
ENDCHAR
STARTCHAR U+00C7
ENCODING 199
SWIDTH 668 0
DWIDTH 16 0
BBX 16 19 0 -4
BITMAP
01F8
07FC
1E04
1800
3800
3000
7000
7000
7000
3000
3800
1800
1E04
07FC
01F8
0080
01E0
0060
03C0
ENDCHAR
STARTCHAR U+00C8
ENCODING 200
SWIDTH 543 0
DWIDTH 13 0
BBX 13 19 0 0
BITMAP
0C00
0600
0300
0000
3FF0
3FF0
3800
3800
3800
3800
3FC0
3FC0
3800
3800
3800
3800
3800
3FF0
3FF0
ENDCHAR
STARTCHAR U+00C9
ENCODING 201
SWIDTH 543 0
DWIDTH 13 0
BBX 13 19 0 0
BITMAP
01C0
0180
0300
0000
3FF0
3FF0
3800
3800
3800
3800
3FC0
3FC0
3800
3800
3800
3800
3800
3FF0
3FF0
ENDCHAR
STARTCHAR U+00CA
ENCODING 202
SWIDTH 543 0
DWIDTH 13 0
BBX 13 19 0 0
BITMAP
0780
0780
0CC0
0000
3FF0
3FF0
3800
3800
3800
3800
3FC0
3FC0
3800
3800
3800
3800
3800
3FF0
3FF0
ENDCHAR
STARTCHAR U+00CB
ENCODING 203
SWIDTH 543 0
DWIDTH 13 0
BBX 13 19 0 0
BITMAP
0880
1DC0
0880
0000
3FF0
3FF0
3800
3800
3800
3800
3FC0
3FC0
3800
3800
3800
3800
3800
3FF0
3FF0
ENDCHAR
STARTCHAR U+00CC
ENCODING 204
SWIDTH 292 0
DWIDTH 7 0
BBX 7 19 0 0
BITMAP
60
30
18
00
38
38
38
38
38
38
38
38
38
38
38
38
38
38
38
ENDCHAR
STARTCHAR U+00CD
ENCODING 205
SWIDTH 292 0
DWIDTH 7 0
BBX 7 19 0 0
BITMAP
1C
18
30
00
38
38
38
38
38
38
38
38
38
38
38
38
38
38
38
ENDCHAR
STARTCHAR U+00CE
ENCODING 206
SWIDTH 292 0
DWIDTH 7 0
BBX 7 19 0 0
BITMAP
00
00
00
00
00
00
00
00
00
00
00
00
00
00
00
00
00
00
00
ENDCHAR
STARTCHAR U+00CF
ENCODING 207
SWIDTH 292 0
DWIDTH 7 0
BBX 9 19 -1 0
BITMAP
4400
EE00
4400
0000
3800
3800
3800
3800
3800
3800
3800
3800
3800
3800
3800
3800
3800
3800
3800
ENDCHAR
STARTCHAR U+00D0
ENCODING 208
SWIDTH 710 0
DWIDTH 17 0
BBX 17 15 0 0
BITMAP
3FC000
3FF000
383800
381C00
380E00
380600
380600
7F0600
7F0600
380600
380E00
381C00
383800
3FF000
3FC000
ENDCHAR
STARTCHAR U+00D1
ENCODING 209
SWIDTH 751 0
DWIDTH 18 0
BBX 18 19 0 0
BITMAP
039000
07F000
00E000
000000
380700
3C0700
3C0700
3E0700
3F0700
3B8700
39C700
38C700
38E700
387700
383F00
381F00
380F00
380F00
380700
ENDCHAR
STARTCHAR U+00D2
ENCODING 210
SWIDTH 793 0
DWIDTH 19 0
BBX 19 19 0 0
BITMAP
018000
00C000
006000
000000
01F000
07FC00
1E0F00
180300
380380
300180
7001C0
7001C0
7001C0
300180
380380
180300
1E0F00
07FC00
01F000
ENDCHAR
STARTCHAR U+00D3
ENCODING 211
SWIDTH 793 0
DWIDTH 19 0
BBX 19 19 0 0
BITMAP
007000
006000
00C000
000000
01F000
07FC00
1E0F00
180300
380380
300180
7001C0
7001C0
7001C0
300180
380380
180300
1E0F00
07FC00
01F000
ENDCHAR
STARTCHAR U+00D4
ENCODING 212
SWIDTH 793 0
DWIDTH 19 0
BBX 19 19 0 0
BITMAP
00F000
00F000
019800
000000
01F000
07FC00
1E0F00
180300
380380
300180
7001C0
7001C0
7001C0
300180
380380
180300
1E0F00
07FC00
01F000
ENDCHAR
STARTCHAR U+00D5
ENCODING 213
SWIDTH 793 0
DWIDTH 19 0
BBX 19 19 0 0
BITMAP
01C800
03F800
007000
000000
01F000
07FC00
1E0F00
180300
380380
300180
7001C0
7001C0
7001C0
300180
380380
180300
1E0F00
07FC00
01F000
ENDCHAR
STARTCHAR U+00D6
ENCODING 214
SWIDTH 793 0
DWIDTH 19 0
BBX 19 19 0 0
BITMAP
011000
03B800
011000
000000
01F000
07FC00
1E0F00
180300
380380
300180
7001C0
7001C0
7001C0
300180
380380
180300
1E0F00
07FC00
01F000
ENDCHAR
STARTCHAR U+00D7
ENCODING 215
SWIDTH 501 0
DWIDTH 12 0
BBX 12 12 0 0
BITMAP
1040
39C0
1F80
0F00
0F00
1F80
39C0
10C0
0000
0000
0000
0000
ENDCHAR
STARTCHAR U+00D8
ENCODING 216
SWIDTH 793 0
DWIDTH 19 0
BBX 19 15 0 0
BITMAP
01F080
07FD80
1E0F00
180700
380F80
303980
7071C0
70E1C0
7181C0
330180
3E0380
1C0300
1E0F00
3FFC00
23F000
ENDCHAR
STARTCHAR U+00D9
ENCODING 217
SWIDTH 751 0
DWIDTH 18 0
BBX 18 19 0 0
BITMAP
030000
018000
00C000
000000
300700
300700
300700
300700
300700
300700
300700
300700
300700
300700
380600
180E00
1E1C00
0FF800
03F000
ENDCHAR
STARTCHAR U+00DA
ENCODING 218
SWIDTH 751 0
DWIDTH 18 0
BBX 18 19 0 0
BITMAP
007000
006000
00C000
000000
300700
300700
300700
300700
300700
300700
300700
300700
300700
300700
380600
180E00
1E1C00
0FF800
03F000
ENDCHAR
STARTCHAR U+00DB
ENCODING 219
SWIDTH 751 0
DWIDTH 18 0
BBX 18 19 0 0
BITMAP
01E000
01E000
033000
000000
300700
300700
300700
300700
300700
300700
300700
300700
300700
300700
380600
180E00
1E1C00
0FF800
03F000
ENDCHAR
STARTCHAR U+00DC
ENCODING 220
SWIDTH 751 0
DWIDTH 18 0
BBX 18 19 0 0
BITMAP
022000
077000
022000
000000
300700
300700
300700
300700
300700
300700
300700
300700
300700
300700
380600
180E00
1E1C00
0FF800
03F000
ENDCHAR
STARTCHAR U+00DD
ENCODING 221
SWIDTH 584 0
DWIDTH 14 0
BBX 14 19 0 0
BITMAP
01C0
0180
0300
0000
6018
7038
3870
1860
1CE0
0FC0
0780
0780
0300
0300
0300
0300
0300
0300
0300
ENDCHAR
STARTCHAR U+00DE
ENCODING 222
SWIDTH 584 0
DWIDTH 14 0
BBX 14 15 0 0
BITMAP
3800
3800
3800
3FC0
3FE0
3870
3830
3830
3830
3870
3FE0
3FC0
3800
3800
3800
ENDCHAR
STARTCHAR U+00DF
ENCODING 223
SWIDTH 543 0
DWIDTH 13 0
BBX 13 15 0 0
BITMAP
0F80
1FC0
38E0
3060
3060
30C0
3380
33C0
30E0
3070
3030
3070
3060
37E0
3780
ENDCHAR
STARTCHAR U+00E0
ENCODING 224
SWIDTH 501 0
DWIDTH 12 0
BBX 12 16 0 0
BITMAP
1800
0C00
0600
0000
0000
3F00
3F80
21C0
00C0
0FC0
3FC0
38C0
60C0
71C0
3FC0
1EC0
ENDCHAR
STARTCHAR U+00E1
ENCODING 225
SWIDTH 501 0
DWIDTH 12 0
BBX 12 16 0 0
BITMAP
0380
0300
0600
0000
0000
3F00
3F80
21C0
00C0
0FC0
3FC0
38C0
60C0
71C0
3FC0
1EC0
ENDCHAR
STARTCHAR U+00E2
ENCODING 226
SWIDTH 501 0
DWIDTH 12 0
BBX 12 16 0 0
BITMAP
0F00
0F00
1980
0000
0000
3F00
3F80
21C0
00C0
0FC0
3FC0
38C0
60C0
71C0
3FC0
1EC0
ENDCHAR
STARTCHAR U+00E3
ENCODING 227
SWIDTH 501 0
DWIDTH 12 0
BBX 12 16 0 0
BITMAP
1C80
3F80
0700
0000
0000
3F00
3F80
21C0
00C0
0FC0
3FC0
38C0
60C0
71C0
3FC0
1EC0
ENDCHAR
STARTCHAR U+00E4
ENCODING 228
SWIDTH 501 0
DWIDTH 12 0
BBX 12 16 0 0
BITMAP
1100
3B80
1100
0000
0000
3F00
3F80
21C0
00C0
0FC0
3FC0
38C0
60C0
71C0
3FC0
1EC0
ENDCHAR
STARTCHAR U+00E5
ENCODING 229
SWIDTH 501 0
DWIDTH 12 0
BBX 12 17 0 0
BITMAP
0700
0900
0900
0700
0000
0000
3F00
3F80
21C0
00C0
0FC0
3FC0
38C0
60C0
71C0
3FC0
1EC0
ENDCHAR
STARTCHAR U+00E6
ENCODING 230
SWIDTH 793 0
DWIDTH 19 0
BBX 19 11 0 0
BITMAP
3F1E00
3FFF80
21E180
00C0C0
07FFC0
3FFFC0
78C000
60E000
70F0C0
3FFFC0
1F1F00
ENDCHAR
STARTCHAR U+00E7
ENCODING 231
SWIDTH 501 0
DWIDTH 12 0
BBX 12 15 0 -4
BITMAP
0780
1FE0
3860
7000
6000
6000
6000
7000
3860
1FE0
0780
0300
0380
00C0
0780
ENDCHAR
STARTCHAR U+00E8
ENCODING 232
SWIDTH 543 0
DWIDTH 13 0
BBX 13 16 0 0
BITMAP
0C00
0600
0300
0000
0000
0F80
1FC0
38E0
7060
7FF0
7FF0
6000
7000
3820
1FE0
0FC0
ENDCHAR
STARTCHAR U+00E9
ENCODING 233
SWIDTH 543 0
DWIDTH 13 0
BBX 13 16 0 0
BITMAP
0380
0300
0600
0000
0000
0F80
1FC0
38E0
7060
7FF0
7FF0
6000
7000
3820
1FE0
0FC0
ENDCHAR
STARTCHAR U+00EA
ENCODING 234
SWIDTH 543 0
DWIDTH 13 0
BBX 13 16 0 0
BITMAP
0F00
0F00
1980
0000
0000
0F80
1FC0
38E0
7060
7FF0
7FF0
6000
7000
3820
1FE0
0FC0
ENDCHAR
STARTCHAR U+00EB
ENCODING 235
SWIDTH 543 0
DWIDTH 13 0
BBX 13 16 0 0
BITMAP
0880
1DC0
0880
0000
0000
0F80
1FC0
38E0
7060
7FF0
7FF0
6000
7000
3820
1FE0
0FC0
ENDCHAR
STARTCHAR U+00EC
ENCODING 236
SWIDTH 250 0
DWIDTH 6 0
BBX 7 16 -1 0
BITMAP
60
30
18
00
00
18
18
18
18
18
18
18
18
18
18
18
ENDCHAR
STARTCHAR U+00ED
ENCODING 237
SWIDTH 250 0
DWIDTH 6 0
BBX 7 16 0 0
BITMAP
1C
18
30
00
00
30
30
30
30
30
30
30
30
30
30
30
ENDCHAR
STARTCHAR U+00EE
ENCODING 238
SWIDTH 250 0
DWIDTH 6 0
BBX 8 16 -1 0
BITMAP
78
78
CC
00
00
30
30
30
30
30
30
30
30
30
30
30
ENDCHAR
STARTCHAR U+00EF
ENCODING 239
SWIDTH 250 0
DWIDTH 6 0
BBX 8 16 -1 0
BITMAP
00
00
00
00
00
00
00
00
00
00
00
00
00
00
00
00
ENDCHAR
STARTCHAR U+00F0
ENCODING 240
SWIDTH 543 0
DWIDTH 13 0
BBX 13 15 0 0
BITMAP
0CC0
0F80
0780
0DC0
10C0
0FE0
1FE0
38F0
7070
6070
6070
7060
38E0
3FC0
0F80
ENDCHAR
STARTCHAR U+00F1
ENCODING 241
SWIDTH 584 0
DWIDTH 14 0
BBX 14 16 0 0
BITMAP
0E40
1FC0
0380
0000
0000
37C0
3FE0
3870
3030
3030
3030
3030
3030
3030
3030
3030
ENDCHAR
STARTCHAR U+00F2
ENCODING 242
SWIDTH 584 0
DWIDTH 14 0
BBX 14 16 0 0
BITMAP
0C00
0600
0300
0000
0000
0FC0
1FE0
3870
7038
6018
6018
6018
7038
3870
1FE0
0FC0
ENDCHAR
STARTCHAR U+00F3
ENCODING 243
SWIDTH 584 0
DWIDTH 14 0
BBX 14 16 0 0
BITMAP
01C0
0180
0300
0000
0000
0FC0
1FE0
3870
7038
6018
6018
6018
7038
3870
1FE0
0FC0
ENDCHAR
STARTCHAR U+00F4
ENCODING 244
SWIDTH 584 0
DWIDTH 14 0
BBX 14 16 0 0
BITMAP
0780
0780
0CC0
0000
0000
0FC0
1FE0
3870
7038
6018
6018
6018
7038
3870
1FE0
0FC0
ENDCHAR
STARTCHAR U+00F5
ENCODING 245
SWIDTH 584 0
DWIDTH 14 0
BBX 14 16 0 0
BITMAP
0E40
1FC0
0380
0000
0000
0FC0
1FE0
3870
7038
6018
6018
6018
7038
3870
1FE0
0FC0
ENDCHAR
STARTCHAR U+00F6
ENCODING 246
SWIDTH 584 0
DWIDTH 14 0
BBX 14 16 0 0
BITMAP
0440
0EE0
0440
0000
0000
0FC0
1FE0
3870
7038
6018
6018
6018
7038
3870
1FE0
0FC0
ENDCHAR
STARTCHAR U+00F7
ENCODING 247
SWIDTH 501 0
DWIDTH 12 0
BBX 12 13 0 0
BITMAP
0400
0F00
0400
0000
3FE0
3FE0
0000
0000
0400
0F00
0400
0000
0000
ENDCHAR
STARTCHAR U+00F8
ENCODING 248
SWIDTH 584 0
DWIDTH 14 0
BBX 14 13 0 -1
BITMAP
0010
0FF0
1FE0
3870
70F8
6198
6318
6618
7C38
3870
1FE0
3FC0
2000
ENDCHAR
STARTCHAR U+00F9
ENCODING 249
SWIDTH 584 0
DWIDTH 14 0
BBX 14 16 0 0
BITMAP
0C00
0600
0300
0000
0000
3030
3030
3030
3030
3030
3030
3030
3030
3870
1FF0
0FB0
ENDCHAR
STARTCHAR U+00FA
ENCODING 250
SWIDTH 584 0
DWIDTH 14 0
BBX 14 16 0 0
BITMAP
01C0
0180
0300
0000
0000
3030
3030
3030
3030
3030
3030
3030
3030
3870
1FF0
0FB0
ENDCHAR
STARTCHAR U+00FB
ENCODING 251
SWIDTH 584 0
DWIDTH 14 0
BBX 14 16 0 0
BITMAP
0780
0780
0CC0
0000
0000
3030
3030
3030
3030
3030
3030
3030
3030
3870
1FF0
0FB0
ENDCHAR
STARTCHAR U+00FC
ENCODING 252
SWIDTH 584 0
DWIDTH 14 0
BBX 14 16 0 0
BITMAP
0880
1DC0
0880
0000
0000
3030
3030
3030
3030
3030
3030
3030
3030
3870
1FF0
0FB0
ENDCHAR
STARTCHAR U+00FD
ENCODING 253
SWIDTH 501 0
DWIDTH 12 0
BBX 13 20 0 -4
BITMAP
0380
0300
0600
0000
0000
6030
6060
7060
30E0
38C0
19C0
1D80
0D80
0F00
0700
0700
0600
0E00
3C00
3800
ENDCHAR
STARTCHAR U+00FE
ENCODING 254
SWIDTH 584 0
DWIDTH 14 0
BBX 14 19 0 -4
BITMAP
3000
3000
3000
3000
37C0
3FE0
3870
3030
3038
3018
3038
3030
3870
3FE0
3780
3000
3000
3000
3000
ENDCHAR
STARTCHAR U+00FF
ENCODING 255
SWIDTH 501 0
DWIDTH 12 0
BBX 13 20 0 -4
BITMAP
0880
1DC0
0880
0000
0000
6030
6060
7060
30E0
38C0
19C0
1D80
0D80
0F00
0700
0700
0600
0E00
3C00
3800
ENDCHAR
STARTCHAR U+2013
ENCODING 8211
SWIDTH 501 0
DWIDTH 12 0
BBX 13 7 -1 0
BITMAP
FFF0
FFF0
0000
0000
0000
0000
0000
ENDCHAR
STARTCHAR U+2014
ENCODING 8212
SWIDTH 960 0
DWIDTH 23 0
BBX 25 7 -1 0
BITMAP
FFFFFE00
FFFFFE00
00000000
00000000
00000000
00000000
00000000
ENDCHAR
STARTCHAR U+2018
ENCODING 8216
SWIDTH 250 0
DWIDTH 6 0
BBX 6 15 0 0
BITMAP
10
20
30
30
30
00
00
00
00
00
00
00
00
00
00
ENDCHAR
STARTCHAR U+2019
ENCODING 8217
SWIDTH 250 0
DWIDTH 6 0
BBX 6 15 0 0
BITMAP
20
70
30
30
20
00
00
00
00
00
00
00
00
00
00
ENDCHAR
STARTCHAR U+201C
ENCODING 8220
SWIDTH 376 0
DWIDTH 9 0
BBX 9 15 0 0
BITMAP
1200
2200
3600
3700
3200
0000
0000
0000
0000
0000
0000
0000
0000
0000
0000
ENDCHAR
STARTCHAR U+201D
ENCODING 8221
SWIDTH 376 0
DWIDTH 9 0
BBX 9 15 0 0
BITMAP
2200
7700
3300
3300
2200
0000
0000
0000
0000
0000
0000
0000
0000
0000
0000
ENDCHAR
STARTCHAR U+2022
ENCODING 8226
SWIDTH 417 0
DWIDTH 10 0
BBX 10 10 0 0
BITMAP
0800
1C00
3E00
3E00
1C00
0800
0000
0000
0000
0000
ENDCHAR
STARTCHAR U+2026
ENCODING 8230
SWIDTH 877 0
DWIDTH 21 0
BBX 21 3 0 0
BITMAP
202040
7070E0
303060
ENDCHAR
STARTCHAR U+20AC
ENCODING 8364
SWIDTH 584 0
DWIDTH 14 0
BBX 14 15 0 0
BITMAP
03F0
07F8
0E08
1800
3800
7FE0
7FC0
3000
7FC0
7FC0
3800
1800
1E08
07F8
03F0
ENDCHAR
ENDFONT
