STARTFONT 2.1
COMMENT Converted from Johnston100 W03 Regular.ttf at 33px with ttf2bdf.py (Pillow, 1-bit, no AA)
FONT -Misc-Johnston100-Medium-R-Normal--33-330-75-75-P-350-ISO10646-1
SIZE 33 75 75
FONTBOUNDINGBOX 35 39 -2 -9
STARTPROPERTIES 9
FOUNDRY "Misc"
FAMILY_NAME "Johnston100"
WEIGHT_NAME "Medium"
SLANT "R"
PIXEL_SIZE 33
RESOLUTION_X 75
RESOLUTION_Y 75
FONT_ASCENT 30
FONT_DESCENT 9
ENDPROPERTIES
CHARS 200
STARTCHAR space
ENCODING 32
SWIDTH 262 0
DWIDTH 9 0
BBX 9 39 0 -9
BITMAP
0000
0000
0000
0000
0000
0000
0000
0000
0000
0000
0000
0000
0000
0000
0000
0000
0000
0000
0000
0000
0000
0000
0000
0000
0000
0000
0000
0000
0000
0000
0000
0000
0000
0000
0000
0000
0000
0000
0000
ENDCHAR
STARTCHAR !
ENCODING 33
SWIDTH 291 0
DWIDTH 10 0
BBX 10 22 0 0
BITMAP
1E00
1E00
1E00
1E00
1E00
1E00
1C00
1C00
1C00
1C00
1C00
1C00
1C00
0C00
0C00
0C00
0C00
0000
0C00
1E00
1C00
0800
ENDCHAR
STARTCHAR "
ENCODING 34
SWIDTH 407 0
DWIDTH 14 0
BBX 14 22 0 0
BITMAP
38E0
38E0
38E0
38E0
38E0
1860
1860
1860
0000
0000
0000
0000
0000
0000
0000
0000
0000
0000
0000
0000
0000
0000
ENDCHAR
STARTCHAR U+0023
ENCODING 35
SWIDTH 727 0
DWIDTH 25 0
BBX 25 22 0 0
BITMAP
00081800
00383800
00383000
00307000
00707000
00706000
0FFFFF00
1FFFFF00
1FFFFE00
00E0C000
01C1C000
01C1C000
01818000
3FFFFC00
7FFFFC00
7FFFF800
03070000
07070000
07070000
07060000
060E0000
0C080000
ENDCHAR
STARTCHAR $
ENCODING 36
SWIDTH 495 0
DWIDTH 17 0
BBX 17 27 0 -3
BITMAP
038000
038000
07E000
0FF000
1FF800
3C3800
380000
380000
3C0000
3E0000
1F8000
0FE000
03F800
00FC00
003E00
001E00
000E00
000E00
300E00
781E00
7C3E00
3FFC00
1FF800
07E000
038000
038000
000000
ENDCHAR
STARTCHAR %
ENCODING 37
SWIDTH 727 0
DWIDTH 25 0
BBX 25 22 0 0
BITMAP
0F80E000
1FC0E000
3FE1C000
38E1C000
30638000
30638000
38E70000
3FE70000
1FCE0000
0F8E0000
001C0000
00180000
0038F000
0031FC00
0073FC00
00638E00
00E70E00
00C70E00
01C38E00
0183FC00
0381FC00
0300F000
ENDCHAR
STARTCHAR &
ENCODING 38
SWIDTH 669 0
DWIDTH 23 0
BBX 23 22 0 0
BITMAP
01F000
07FC00
07FE00
0F1E00
0E0E00
0E0E00
0E0E00
0F1E00
07FC00
03F800
07E000
0FF070
1E7870
3C3CF0
381FE0
380FC0
3807C0
3807C0
3C1FE0
1FFFF0
0FFCF8
07F07C
ENDCHAR
STARTCHAR '
ENCODING 39
SWIDTH 233 0
DWIDTH 8 0
BBX 8 22 0 0
BITMAP
38
38
38
38
38
18
18
18
00
00
00
00
00
00
00
00
00
00
00
00
00
00
ENDCHAR
STARTCHAR (
ENCODING 40
SWIDTH 262 0
DWIDTH 9 0
BBX 9 27 0 -3
BITMAP
0700
0E00
0E00
1C00
1C00
1C00
1C00
3800
3800
3800
3800
3800
3800
3800
3800
3800
3800
3800
3800
3800
1C00
1C00
1C00
1C00
0E00
0E00
0700
ENDCHAR
STARTCHAR )
ENCODING 41
SWIDTH 262 0
DWIDTH 9 0
BBX 9 27 0 -3
BITMAP
7000
3000
3800
3800
1C00
1C00
1C00
1C00
1C00
0E00
0E00
0E00
0E00
0E00
0E00
0E00
0E00
0E00
1C00
1C00
1C00
1C00
1C00
3800
3800
3000
7000
ENDCHAR
STARTCHAR *
ENCODING 42
SWIDTH 378 0
DWIDTH 13 0
BBX 13 22 0 0
BITMAP
0700
0300
2320
7B70
1FE0
0780
1FC0
7B70
2320
0300
0700
0000
0000
0000
0000
0000
0000
0000
0000
0000
0000
0000
ENDCHAR
STARTCHAR +
ENCODING 43
SWIDTH 524 0
DWIDTH 18 0
BBX 18 17 0 0
BITMAP
01C000
01C000
01C000
01C000
01C000
3FFE00
3FFE00
3FFE00
01C000
01C000
01C000
01C000
01C000
000000
000000
000000
000000
ENDCHAR
STARTCHAR ,
ENCODING 44
SWIDTH 233 0
DWIDTH 8 0
BBX 8 9 0 -4
BITMAP
18
3C
3C
1C
1C
18
10
00
00
ENDCHAR
STARTCHAR -
ENCODING 45
SWIDTH 378 0
DWIDTH 13 0
BBX 13 10 0 0
BITMAP
7FE0
7FE0
7FE0
0000
0000
0000
0000
0000
0000
0000
ENDCHAR
STARTCHAR .
ENCODING 46
SWIDTH 233 0
DWIDTH 8 0
BBX 8 4 0 0
BITMAP
18
3C
1C
08
ENDCHAR
STARTCHAR /
ENCODING 47
SWIDTH 320 0
DWIDTH 11 0
BBX 11 27 0 -3
BITMAP
00E0
01C0
01C0
01C0
0380
0380
0380
0380
0700
0700
0700
0E00
0E00
0E00
0C00
1C00
1C00
1C00
3800
3800
3800
3000
7000
7000
7000
E000
E000
ENDCHAR
STARTCHAR 0
ENCODING 48
SWIDTH 553 0
DWIDTH 19 0
BBX 19 22 0 0
BITMAP
01F000
03F800
07FC00
0F1E00
0E0E00
1E0F00
1C0700
1C0700
1C0700
1C0700
3C0780
3C0780
1C0700
1C0700
1C0700
1C0700
1E0F00
0E0E00
0F1E00
07FC00
03F800
01F000
ENDCHAR
STARTCHAR 1
ENCODING 49
SWIDTH 291 0
DWIDTH 10 0
BBX 10 22 0 0
BITMAP
0400
0C00
1C00
1C00
1C00
1C00
1C00
1C00
1C00
1C00
1C00
1C00
1C00
1C00
1C00
1C00
1C00
1C00
1C00
1C00
1C00
1C00
ENDCHAR
STARTCHAR 2
ENCODING 50
SWIDTH 465 0
DWIDTH 16 0
BBX 16 22 0 0
BITMAP
07E0
0FF8
1FFC
1C3C
101E
201E
001E
001E
001C
003C
0038
0078
00F0
00F0
01E0
03C0
03C0
0780
0F00
0FFE
1FFE
3FFE
ENDCHAR
STARTCHAR 3
ENCODING 51
SWIDTH 495 0
DWIDTH 17 0
BBX 17 22 0 0
BITMAP
3FFE00
3FFE00
3FFC00
003800
007800
00F000
00E000
01E000
01F000
03F800
043C00
001E00
000F00
000F00
000F00
000F00
000F00
301E00
783E00
3FFC00
1FF800
07E000
ENDCHAR
STARTCHAR 4
ENCODING 52
SWIDTH 553 0
DWIDTH 19 0
BBX 19 22 0 0
BITMAP
000000
000400
000C00
001C00
001C00
003C00
007C00
00FC00
01DC00
03DC00
039C00
071C00
0E1C00
1C1C00
3FFF80
7FFF80
FFFF80
001C00
001C00
001C00
001C00
001C00
ENDCHAR
STARTCHAR 5
ENCODING 53
SWIDTH 495 0
DWIDTH 17 0
BBX 17 22 0 0
BITMAP
0FFF00
0FFE00
0FFE00
0E0000
0E0000
0E0000
0E0000
0FE000
0FF800
0FFC00
183E00
001E00
000F00
000F00
000F00
000F00
000E00
201E00
783E00
3FFC00
1FF800
07E000
ENDCHAR
STARTCHAR 6
ENCODING 54
SWIDTH 524 0
DWIDTH 18 0
BBX 18 22 0 0
BITMAP
00F800
01F000
03E000
07C000
078000
0F0000
1E0000
1E0000
1DF000
3FFC00
3FFE00
3C1E00
380F00
780700
780700
380700
380F00
3C0E00
1E1E00
1FFC00
0FF800
03E000
ENDCHAR
STARTCHAR 7
ENCODING 55
SWIDTH 465 0
DWIDTH 16 0
BBX 16 22 0 0
BITMAP
3FFE
3FFE
3FFC
001C
003C
0038
0078
0070
00F0
00E0
01E0
01C0
03C0
0380
0780
0780
0F00
0F00
0E00
1E00
1C00
3C00
ENDCHAR
STARTCHAR 8
ENCODING 56
SWIDTH 495 0
DWIDTH 17 0
BBX 17 22 0 0
BITMAP
03E000
07F000
0FF800
1E3C00
1C1C00
1C1C00
1C1C00
1E3C00
0FF800
07F000
07F000
0FF800
1E3C00
3C1E00
380E00
380E00
380E00
3C1E00
3E3E00
1FFC00
0FF800
03E000
ENDCHAR
STARTCHAR 9
ENCODING 57
SWIDTH 524 0
DWIDTH 18 0
BBX 18 22 0 0
BITMAP
03F000
0FF800
1FFC00
1E1E00
3C0F00
380F00
380700
380700
380700
3C0700
3E1F00
1FFF00
0FFE00
07DE00
001E00
003C00
003C00
007800
00F000
01E000
03C000
078000
ENDCHAR
STARTCHAR :
ENCODING 58
SWIDTH 291 0
DWIDTH 10 0
BBX 10 17 0 0
BITMAP
0C00
1E00
0E00
0400
0000
0000
0000
0000
0000
0000
0000
0000
0000
0C00
1E00
0E00
0400
ENDCHAR
STARTCHAR ;
ENCODING 59
SWIDTH 291 0
DWIDTH 10 0
BBX 10 20 0 -4
BITMAP
0C00
1E00
0E00
0400
0000
0000
0000
0000
0000
0000
0000
0000
0C00
1E00
1E00
0E00
0E00
0C00
0800
0000
ENDCHAR
STARTCHAR U+003C
ENCODING 60
SWIDTH 524 0
DWIDTH 18 0
BBX 18 20 0 0
BITMAP
000200
000E00
003E00
007C00
01F000
07E000
1F8000
3E0000
3E0000
1F8000
07F000
01FC00
003E00
000E00
000200
000000
000000
000000
000000
000000
ENDCHAR
STARTCHAR =
ENCODING 61
SWIDTH 524 0
DWIDTH 18 0
BBX 18 15 0 0
BITMAP
3FFE00
3FFE00
3FFE00
000000
000000
000000
3FFE00
3FFE00
3FFE00
000000
000000
000000
000000
000000
000000
ENDCHAR
STARTCHAR U+003E
ENCODING 62
SWIDTH 524 0
DWIDTH 18 0
BBX 18 20 0 0
BITMAP
300000
380000
3E0000
0F8000
07E000
01F800
007E00
001E00
003E00
00FC00
03F000
0FC000
3F0000
3C0000
300000
000000
000000
000000
000000
000000
ENDCHAR
STARTCHAR ?
ENCODING 63
SWIDTH 436 0
DWIDTH 15 0
BBX 15 22 0 0
BITMAP
0FC0
3FE0
7FF0
7878
2038
0038
0038
0078
01F0
03E0
07C0
0F00
0E00
0F00
0700
0200
0000
0200
0780
0F80
0700
0200
ENDCHAR
STARTCHAR @
ENCODING 64
SWIDTH 931 0
DWIDTH 32 0
BBX 32 28 0 -6
BITMAP
0007F800
003FFE00
00FFFF80
01F80FC0
03C001E0
078000F0
0F03F478
0E0FFC38
1C1C3C38
1C381C1C
38781C1C
38701C1C
38701C1C
38701C1C
38701C1C
3870181C
38703838
38703838
383C7C78
1C1FFFF0
1C0FCFE0
1E000780
0F000000
07800400
03F01C00
01FFFC00
007FF800
001FE000
ENDCHAR
STARTCHAR A
ENCODING 65
SWIDTH 640 0
DWIDTH 22 0
BBX 22 22 0 0
BITMAP
007800
007800
007800
00FC00
00FC00
01FE00
01CE00
03CF00
03CF00
038700
078780
070380
0F03C0
0F03C0
0FFFC0
1FFFE0
1FFFE0
3C00F0
3C00F0
780078
780078
700038
ENDCHAR
STARTCHAR B
ENCODING 66
SWIDTH 582 0
DWIDTH 20 0
BBX 20 22 0 0
BITMAP
1FF000
1FFC00
1FFE00
1E1F00
1E0F00
1E0F00
1E0700
1E0F00
1E1E00
1FFC00
1FFE00
1FFF80
1E07C0
1E03C0
1E01C0
1E01C0
1E01C0
1E03C0
1E07C0
1FFF80
1FFF00
1FFC00
ENDCHAR
STARTCHAR C
ENCODING 67
SWIDTH 669 0
DWIDTH 23 0
BBX 23 22 0 0
BITMAP
003F80
00FFF0
03FFF8
07E078
0F8018
1E0000
1E0000
3C0000
3C0000
380000
380000
380000
380000
3C0000
3C0000
1E0000
1E0000
0F8018
07E078
03FFF8
00FFF0
003F80
ENDCHAR
STARTCHAR D
ENCODING 68
SWIDTH 698 0
DWIDTH 24 0
BBX 24 22 0 0
BITMAP
1FFC00
1FFF00
1FFFC0
1E07E0
1E01F0
1E0078
1E0078
1E003C
1E003C
1E001C
1E001C
1E001C
1E001C
1E003C
1E003C
1E0078
1E0078
1E01F0
1E07E0
1FFFC0
1FFF00
1FFC00
ENDCHAR
STARTCHAR E
ENCODING 69
SWIDTH 553 0
DWIDTH 19 0
BBX 19 22 0 0
BITMAP
1FFF80
1FFF80
1FFF80
1E0000
1E0000
1E0000
1E0000
1E0000
1E0000
1FFE00
1FFE00
1FFE00
1E0000
1E0000
1E0000
1E0000
1E0000
1E0000
1E0000
1FFFC0
1FFFC0
1FFFC0
ENDCHAR
STARTCHAR F
ENCODING 70
SWIDTH 495 0
DWIDTH 17 0
BBX 17 22 0 0
BITMAP
1FFF80
1FFF80
1FFF80
1E0000
1E0000
1E0000
1E0000
1E0000
1E0000
1FFC00
1FFC00
1FFC00
1E0000
1E0000
1E0000
1E0000
1E0000
1E0000
1E0000
1E0000
1E0000
1E0000
ENDCHAR
STARTCHAR G
ENCODING 71
SWIDTH 698 0
DWIDTH 24 0
BBX 24 22 0 0
BITMAP
003FC0
00FFF0
03FFF8
07E078
0F8018
1F0008
1E0000
3C0000
3C0000
3803FC
3803FC
3803FC
38003C
3C003C
3C003C
1E003C
1F003C
0F803C
07E07C
03FFFC
00FFF8
003FC0
ENDCHAR
STARTCHAR H
ENCODING 72
SWIDTH 698 0
DWIDTH 24 0
BBX 24 22 0 0
BITMAP
1E0078
1E0078
1E0078
1E0078
1E0078
1E0078
1E0078
1E0078
1FFFF8
1FFFF8
1FFFF8
1E0078
1E0078
1E0078
1E0078
1E0078
1E0078
1E0078
1E0078
1E0078
1E0078
1E0078
ENDCHAR
STARTCHAR I
ENCODING 73
SWIDTH 291 0
DWIDTH 10 0
BBX 10 22 0 0
BITMAP
1E00
1E00
1E00
1E00
1E00
1E00
1E00
1E00
1E00
1E00
1E00
1E00
1E00
1E00
1E00
1E00
1E00
1E00
1E00
1E00
1E00
1E00
ENDCHAR
STARTCHAR J
ENCODING 74
SWIDTH 465 0
DWIDTH 16 0
BBX 16 22 0 0
BITMAP
0038
0038
0038
0038
0038
0038
0038
0038
0038
0038
0038
0038
0038
0038
0038
0038
0078
7078
78F0
7FF0
3FE0
0F80
ENDCHAR
STARTCHAR K
ENCODING 75
SWIDTH 611 0
DWIDTH 21 0
BBX 21 22 0 0
BITMAP
1E01E0
1E03C0
1E0780
1E0F00
1E1E00
1E3C00
1E7800
1FF000
1FE000
1FC000
1FC000
1FE000
1EF000
1E7800
1E7C00
1E3E00
1E1F00
1E0F80
1E0780
1E03C0
1E01E0
1E00F0
ENDCHAR
STARTCHAR L
ENCODING 76
SWIDTH 524 0
DWIDTH 18 0
BBX 18 22 0 0
BITMAP
1E0000
1E0000
1E0000
1E0000
1E0000
1E0000
1E0000
1E0000
1E0000
1E0000
1E0000
1E0000
1E0000
1E0000
1E0000
1E0000
1E0000
1E0000
1E0000
1FFF80
1FFF80
1FFF80
ENDCHAR
STARTCHAR M
ENCODING 77
SWIDTH 844 0
DWIDTH 29 0
BBX 29 22 0 0
BITMAP
1E0003C0
1F0007C0
1F800FC0
1F800FC0
1FC01FC0
1FE03FC0
1FF07FC0
1EF8FBC0
1E7DF3C0
1E3FE3C0
1E1FC3C0
1E0F83C0
1E0703C0
1E0203C0
1E0003C0
1E0003C0
1E0003C0
1E0003C0
1E0003C0
1E0003C0
1E0003C0
1E0003C0
ENDCHAR
STARTCHAR N
ENCODING 78
SWIDTH 756 0
DWIDTH 26 0
BBX 26 22 0 0
BITMAP
1E001E00
1E001E00
1F001E00
1F801E00
1FC01E00
1FE01E00
1FE01E00
1EF01E00
1E781E00
1E3C1E00
1E3E1E00
1E1E1E00
1E0F1E00
1E079E00
1E03DE00
1E03DE00
1E01FE00
1E00FE00
1E007E00
1E007E00
1E003E00
1E001E00
ENDCHAR
STARTCHAR O
ENCODING 79
SWIDTH 785 0
DWIDTH 27 0
BBX 27 22 0 0
BITMAP
003F8000
00FFE000
03FFF800
07E0FC00
0F803E00
1E000F00
1E000F00
3C000780
3C000780
38000380
38000380
38000380
38000380
3C000780
3C000780
1E000F00
1E000F00
0F803E00
07E0FC00
03FFF800
00FFE000
003F8000
ENDCHAR
STARTCHAR P
ENCODING 80
SWIDTH 553 0
DWIDTH 19 0
BBX 19 22 0 0
BITMAP
1FFC00
1FFF00
1FFF80
1E0780
1E03C0
1E03C0
1E03C0
1E03C0
1E03C0
1E0780
1FFF00
1FFE00
1FFC00
1E0000
1E0000
1E0000
1E0000
1E0000
1E0000
1E0000
1E0000
1E0000
ENDCHAR
STARTCHAR Q
ENCODING 81
SWIDTH 785 0
DWIDTH 27 0
BBX 27 22 0 0
BITMAP
003F8000
00FFE000
03FFF800
07E07C00
0F801E00
1E000F00
1E000F00
3C000780
3C000780
38000380
38000380
38000380
38000380
3C000780
3C004780
1E00FF00
1E00FF00
0F807E00
07E07E00
03FFFF00
00FFFF00
003F8200
ENDCHAR
STARTCHAR R
ENCODING 82
SWIDTH 582 0
DWIDTH 20 0
BBX 20 22 0 0
BITMAP
1FF800
1FFC00
1FFE00
1E0F00
1E0700
1E0780
1E0780
1E0700
1E0F00
1FFF00
1FFE00
1FF800
1E7800
1E3C00
1E3C00
1E1E00
1E0F00
1E0F80
1E0780
1E03C0
1E01E0
1E01F0
ENDCHAR
STARTCHAR S
ENCODING 83
SWIDTH 495 0
DWIDTH 17 0
BBX 17 22 0 0
BITMAP
07E000
0FF000
1FF800
3C7C00
383C00
381C00
3C0000
3E0000
1F8000
0FE000
03F800
00FC00
003E00
001E00
000E00
000E00
700E00
781E00
7C3E00
3FFC00
1FF800
07E000
ENDCHAR
STARTCHAR T
ENCODING 84
SWIDTH 553 0
DWIDTH 19 0
BBX 19 22 0 0
BITMAP
7FFFC0
7FFFC0
7FFFC0
00E000
00E000
00E000
00E000
00E000
00E000
00E000
00E000
00E000
00E000
00E000
00E000
00E000
00E000
00E000
00E000
00E000
00E000
00E000
ENDCHAR
STARTCHAR U
ENCODING 85
SWIDTH 756 0
DWIDTH 26 0
BBX 26 22 0 0
BITMAP
1C000E00
1C000E00
1C000E00
1C000E00
1C000E00
1C000E00
1C000E00
1C000E00
1C000E00
1C000E00
1C000E00
1C000E00
1C000E00
1C000E00
1E001E00
1E001E00
0F003C00
0F807C00
07C0F800
03FFF000
01FFE000
007F8000
ENDCHAR
STARTCHAR V
ENCODING 86
SWIDTH 611 0
DWIDTH 21 0
BBX 21 22 0 0
BITMAP
7800F0
7800F0
3800E0
3C01E0
3C01E0
1C01C0
1E03C0
0E0380
0E0380
0F0780
070700
078F00
038E00
038E00
03DE00
01DC00
01DC00
01FC00
00F800
00F800
007000
007000
ENDCHAR
STARTCHAR W
ENCODING 87
SWIDTH 931 0
DWIDTH 32 0
BBX 32 22 0 0
BITMAP
7803C01E
7803C01E
3803C01C
3C07E03C
3C07E03C
3C07E03C
1E07E078
1E0FF078
1E0E7078
0E0E7070
0F1E78F0
0F1C38F0
071C38E0
079C39E0
07B81DE0
07B81DE0
03F00FC0
03F00FC0
03F00FC0
01E00780
01E00780
01E00780
ENDCHAR
STARTCHAR X
ENCODING 88
SWIDTH 640 0
DWIDTH 22 0
BBX 23 22 0 0
BITMAP
78003C
3C0078
1E00F0
0F01E0
0F01E0
0783C0
03C780
01FF00
01FF00
00FE00
007C00
007C00
00FE00
01FF00
01FF00
03C780
0783C0
0F01E0
0F01E0
1E00F0
3C0078
78003C
ENDCHAR
STARTCHAR Y
ENCODING 89
SWIDTH 582 0
DWIDTH 20 0
BBX 20 22 0 0
BITMAP
7801E0
7801E0
3C03C0
1E0780
1E0780
0F0F00
070E00
079E00
03FC00
01F800
01F800
00F000
00F000
00F000
00F000
00F000
00F000
00F000
00F000
00F000
00F000
00F000
ENDCHAR
STARTCHAR Z
ENCODING 90
SWIDTH 611 0
DWIDTH 21 0
BBX 21 22 0 0
BITMAP
3FFFE0
3FFFE0
3FFFC0
000380
000780
000F00
001E00
001E00
003C00
007800
007800
00F000
01E000
01E000
03C000
078000
070000
0F0000
1E0000
1FFFF0
3FFFF0
7FFFF0
ENDCHAR
STARTCHAR [
ENCODING 91
SWIDTH 320 0
DWIDTH 11 0
BBX 11 30 0 -4
BITMAP
1FC0
1FC0
1C00
1C00
1C00
1C00
1C00
1C00
1C00
1C00
1C00
1C00
1C00
1C00
1C00
1C00
1C00
1C00
1C00
1C00
1C00
1C00
1C00
1C00
1C00
1C00
1C00
1C00
1FC0
1FC0
ENDCHAR
STARTCHAR \
ENCODING 92
SWIDTH 320 0
DWIDTH 11 0
BBX 11 27 0 -3
BITMAP
E000
E000
7000
7000
7000
3800
3800
3800
3800
1C00
1C00
1C00
0E00
0E00
0E00
0E00
0700
0700
0700
0380
0380
0380
0380
01C0
01C0
01C0
00E0
ENDCHAR
STARTCHAR ]
ENCODING 93
SWIDTH 320 0
DWIDTH 11 0
BBX 11 30 0 -4
BITMAP
7F80
7F80
0380
0380
0380
0380
0380
0380
0380
0380
0380
0380
0380
0380
0380
0380
0380
0380
0380
0380
0380
0380
0380
0380
0380
0380
0380
0380
7F80
7F80
ENDCHAR
STARTCHAR ^
ENCODING 94
SWIDTH 553 0
DWIDTH 19 0
BBX 19 22 0 0
BITMAP
00E000
01F000
03B800
07BC00
071C00
0E0E00
1E0F00
1C0700
380380
000000
000000
000000
000000
000000
000000
000000
000000
000000
000000
000000
000000
000000
ENDCHAR
STARTCHAR _
ENCODING 95
SWIDTH 495 0
DWIDTH 17 0
BBX 18 4 -1 -4
BITMAP
000000
000000
FFFF80
FFFF80
ENDCHAR
STARTCHAR `
ENCODING 96
SWIDTH 436 0
DWIDTH 15 0
BBX 16 22 0 0
BITMAP
FFFE
FFFE
FFFE
E00E
E00E
E00E
E00E
E00E
E00E
E00E
E00E
E00E
E00E
E00E
E00E
E00E
E00E
E00E
E00E
FFFE
FFFE
FFFE
ENDCHAR
STARTCHAR a
ENCODING 97
SWIDTH 495 0
DWIDTH 17 0
BBX 17 16 0 0
BITMAP
07E000
1FF800
1FFC00
183C00
201C00
001E00
01FE00
07FE00
1F0E00
3C0E00
380E00
380E00
383E00
3FFE00
1FFE00
0FCE00
ENDCHAR
STARTCHAR b
ENCODING 98
SWIDTH 582 0
DWIDTH 20 0
BBX 20 22 0 0
BITMAP
1C0000
1C0000
1C0000
1C0000
1C0000
1C0000
1DF800
1FFE00
1FFF00
1E0F80
1C03C0
1C03C0
1C01C0
1C01C0
1C01C0
1C01C0
1C03C0
1C03C0
1E0F80
1FFF00
1FFE00
1DF800
ENDCHAR
STARTCHAR c
ENCODING 99
SWIDTH 495 0
DWIDTH 17 0
BBX 17 16 0 0
BITMAP
01F800
07FE00
0FFE00
1F0600
3C0200
380000
380000
380000
380000
380000
380000
3C0200
1F0600
0FFE00
07FE00
01F800
ENDCHAR
STARTCHAR d
ENCODING 100
SWIDTH 582 0
DWIDTH 20 0
BBX 20 22 0 0
BITMAP
000380
000380
000380
000380
000380
000380
01FB80
07FF80
0FFF80
1F0780
3C0380
380380
380380
380380
380380
380380
380380
3C0380
1F0780
0FFF80
07FF80
01FB80
ENDCHAR
STARTCHAR e
ENCODING 101
SWIDTH 524 0
DWIDTH 18 0
BBX 18 16 0 0
BITMAP
01F000
07FC00
0FFE00
1E0F00
3C0700
380700
3FFF80
3FFF80
3FFF80
380000
380000
3C0180
1F0780
0FFF00
07FE00
01F800
ENDCHAR
STARTCHAR f
ENCODING 102
SWIDTH 378 0
DWIDTH 13 0
BBX 13 22 0 0
BITMAP
03F0
07F0
0FF0
1E00
1C00
1C00
7FF0
7FF0
7FF0
1C00
1C00
1C00
1C00
1C00
1C00
1C00
1C00
1C00
1C00
1C00
1C00
1C00
ENDCHAR
STARTCHAR g
ENCODING 103
SWIDTH 495 0
DWIDTH 17 0
BBX 17 22 0 -6
BITMAP
07FF00
1FFF00
3FFF00
3C3C00
381C00
381C00
381C00
3C3C00
1FFC00
0FF800
1FE000
1C0000
1F0000
0FF000
1FFC00
387E00
700F00
700700
780F00
7FFF00
3FFE00
0FF000
ENDCHAR
STARTCHAR h
ENCODING 104
SWIDTH 582 0
DWIDTH 20 0
BBX 20 22 0 0
BITMAP
1C0000
1C0000
1C0000
1C0000
1C0000
1C0000
1DF800
1FFE00
1FFF00
1E0F80
1C0780
1C0380
1C0380
1C0380
1C0380
1C0380
1C0380
1C0380
1C0380
1C0380
1C0380
1C0380
ENDCHAR
STARTCHAR i
ENCODING 105
SWIDTH 233 0
DWIDTH 8 0
BBX 8 22 0 0
BITMAP
08
1C
3E
1C
08
00
1C
1C
1C
1C
1C
1C
1C
1C
1C
1C
1C
1C
1C
1C
1C
1C
ENDCHAR
STARTCHAR j
ENCODING 106
SWIDTH 233 0
DWIDTH 8 0
BBX 9 28 -1 -6
BITMAP
0400
0E00
1F00
0E00
0400
0000
0E00
0E00
0E00
0E00
0E00
0E00
0E00
0E00
0E00
0E00
0E00
0E00
0E00
0E00
0E00
0E00
0E00
0E00
1E00
FC00
FC00
F000
ENDCHAR
STARTCHAR k
ENCODING 107
SWIDTH 524 0
DWIDTH 18 0
BBX 18 22 0 0
BITMAP
1C0000
1C0000
1C0000
1C0000
1C0000
1C0000
1C0F00
1C1E00
1C3C00
1C7800
1DF000
1FE000
1F8000
1F8000
1FC000
1DE000
1CF000
1C7800
1C3C00
1C1E00
1C0F00
1C0780
ENDCHAR
STARTCHAR l
ENCODING 108
SWIDTH 320 0
DWIDTH 11 0
BBX 11 22 0 0
BITMAP
3C00
3C00
3C00
3C00
3C00
3C00
3C00
3C00
3C00
3C00
3C00
3C00
3C00
3C00
3C00
3C00
3C00
3C00
3E00
1FC0
0FC0
07C0
ENDCHAR
STARTCHAR m
ENCODING 109
SWIDTH 902 0
DWIDTH 31 0
BBX 31 16 0 0
BITMAP
1DF83F00
1FFEFFC0
1FFFFFE0
1F0FE1F0
1E07C0F0
1C038070
1C038070
1C038070
1C038070
1C038070
1C038070
1C038070
1C038070
1C038070
1C038070
1C038070
ENDCHAR
STARTCHAR n
ENCODING 110
SWIDTH 582 0
DWIDTH 20 0
BBX 20 16 0 0
BITMAP
1DF800
1FFE00
1FFF00
1F0F80
1E0780
1C0380
1C0380
1C0380
1C0380
1C0380
1C0380
1C0380
1C0380
1C0380
1C0380
1C0380
ENDCHAR
STARTCHAR o
ENCODING 111
SWIDTH 582 0
DWIDTH 20 0
BBX 20 16 0 0
BITMAP
01F800
07FE00
0FFF00
1F0F80
3C03C0
3801C0
3801C0
3801C0
3801C0
3801C0
3801C0
3C03C0
1F0F80
0FFF00
07FE00
01F800
ENDCHAR
STARTCHAR p
ENCODING 112
SWIDTH 582 0
DWIDTH 20 0
BBX 20 22 0 -6
BITMAP
1DF800
1FFE00
1FFF00
1E0F80
1C03C0
1C03C0
1C01C0
1C01C0
1C01C0
1C01C0
1C03C0
1C03C0
1E0F80
1FFF00
1FFE00
1DF800
1C0000
1C0000
1C0000
1C0000
1C0000
1C0000
ENDCHAR
STARTCHAR q
ENCODING 113
SWIDTH 582 0
DWIDTH 20 0
BBX 20 22 0 -6
BITMAP
01FB80
07FF80
0FFF80
1F0780
3C0380
380380
380380
380380
380380
380380
380380
3C0380
1F0780
0FFF80
07FF80
01FB80
000380
000380
000380
000380
000380
000380
ENDCHAR
STARTCHAR r
ENCODING 114
SWIDTH 378 0
DWIDTH 13 0
BBX 13 16 0 0
BITMAP
1DF8
1FF8
1FF8
1E00
1C00
1C00
1C00
1C00
1C00
1C00
1C00
1C00
1C00
1C00
1C00
1C00
ENDCHAR
STARTCHAR s
ENCODING 115
SWIDTH 465 0
DWIDTH 16 0
BBX 16 16 0 0
BITMAP
07C0
1FF0
3FF8
3C18
3808
3800
3E00
3FE0
1FF8
03FC
003C
201C
381C
3FFC
3FF8
0FE0
ENDCHAR
STARTCHAR t
ENCODING 116
SWIDTH 407 0
DWIDTH 14 0
BBX 14 20 0 0
BITMAP
1C00
1C00
1C00
1C00
7FF8
7FF8
7FF8
1C00
1C00
1C00
1C00
1C00
1C00
1C00
1C00
1E00
1F00
0FF8
07F8
03F8
ENDCHAR
STARTCHAR u
ENCODING 117
SWIDTH 582 0
DWIDTH 20 0
BBX 20 16 0 0
BITMAP
380380
380380
380380
380380
380380
380380
380380
380380
380380
380380
380380
3C0780
1E0F80
0FFF80
07FF80
03FB80
ENDCHAR
STARTCHAR v
ENCODING 118
SWIDTH 524 0
DWIDTH 18 0
BBX 18 16 0 0
BITMAP
700380
780780
380700
380700
3C0F00
1C0E00
1E1E00
0E1C00
0E1C00
073800
073800
03F000
03F000
03F000
01E000
01E000
ENDCHAR
STARTCHAR w
ENCODING 119
SWIDTH 815 0
DWIDTH 28 0
BBX 28 16 0 0
BITMAP
780601E0
780F01E0
380F01C0
3C1F83C0
3C1F83C0
1C1F8380
1C39C380
1E39C780
0E39C700
0E70E700
0F70EF00
07E07E00
07E07E00
07E07E00
03C03C00
03C03C00
ENDCHAR
STARTCHAR x
ENCODING 120
SWIDTH 495 0
DWIDTH 17 0
BBX 17 16 0 0
BITMAP
780F00
3C1E00
1E3C00
0E3800
0F7800
07F000
03E000
01C000
01C000
03E000
07F000
0F7800
0E3800
1E3C00
3C1E00
780F00
ENDCHAR
STARTCHAR y
ENCODING 121
SWIDTH 524 0
DWIDTH 18 0
BBX 18 22 0 -6
BITMAP
700380
780780
380700
380700
3C0E00
1C0E00
1E1E00
0E1C00
0E1C00
073800
073800
03F800
03F000
03F000
01E000
01E000
01C000
01C000
03C000
1F8000
1F0000
1E0000
ENDCHAR
STARTCHAR z
ENCODING 122
SWIDTH 465 0
DWIDTH 16 0
BBX 16 16 0 0
BITMAP
3FFE
3FFC
3FF8
0078
00F0
00E0
01E0
03C0
0380
0780
0F00
0E00
1E00
3FFC
3FFC
7FFC
ENDCHAR
STARTCHAR {
ENCODING 123
SWIDTH 349 0
DWIDTH 12 0
BBX 12 29 0 -3
BITMAP
01E0
07E0
0700
0700
0600
0600
0600
0600
0600
0600
0E00
0E00
1E00
3C00
3800
3C00
1E00
0E00
0E00
0600
0600
0600
0600
0600
0600
0700
0700
07E0
01E0
ENDCHAR
STARTCHAR |
ENCODING 124
SWIDTH 233 0
DWIDTH 8 0
BBX 8 33 0 -8
BITMAP
38
38
38
38
38
38
38
38
38
38
38
38
38
38
38
38
38
38
38
38
38
38
38
38
38
38
38
38
38
38
38
38
38
ENDCHAR
STARTCHAR }
ENCODING 125
SWIDTH 349 0
DWIDTH 12 0
BBX 12 29 0 -3
BITMAP
7800
7E00
0E00
0E00
0E00
0E00
0E00
0E00
0E00
0E00
0700
0700
0780
03C0
01C0
03C0
0780
0700
0700
0E00
0E00
0E00
0E00
0E00
0E00
0E00
0E00
7E00
7800
ENDCHAR
STARTCHAR ~
ENCODING 126
SWIDTH 524 0
DWIDTH 18 0
BBX 18 14 0 0
BITMAP
0F0200
1F8700
1FE700
39FE00
387C00
303800
000000
000000
000000
000000
000000
000000
000000
000000
ENDCHAR
STARTCHAR U+00A0
ENCODING 160
SWIDTH 262 0
DWIDTH 9 0
BBX 9 39 0 -9
BITMAP
0000
0000
0000
0000
0000
0000
0000
0000
0000
0000
0000
0000
0000
0000
0000
0000
0000
0000
0000
0000
0000
0000
0000
0000
0000
0000
0000
0000
0000
0000
0000
0000
0000
0000
0000
0000
0000
0000
0000
ENDCHAR
STARTCHAR U+00A1
ENCODING 161
SWIDTH 291 0
DWIDTH 10 0
BBX 10 23 0 -6
BITMAP
0C00
1E00
1C00
0800
0000
0C00
0C00
0C00
1C00
1C00
1C00
1C00
1C00
1C00
1C00
1C00
1C00
1E00
1E00
1E00
1E00
1E00
0000
ENDCHAR
STARTCHAR U+00A2
ENCODING 162
SWIDTH 495 0
DWIDTH 17 0
BBX 17 20 0 -2
BITMAP
00E000
00E000
01FC00
07FE00
0FFE00
1F0600
3C0200
380000
380000
380000
380000
380000
380000
3C0000
1F0200
0FFE00
07FE00
01FC00
00E000
00E000
ENDCHAR
STARTCHAR U+00A3
ENCODING 163
SWIDTH 524 0
DWIDTH 18 0
BBX 18 22 0 0
BITMAP
00FC00
01FE00
03FF00
038600
078200
070000
070000
070000
070000
070000
1FF800
3FF800
3FF000
0E0000
0E0000
0E0000
0E0000
1E0000
1C0000
1FFF00
3FFF00
7FFE00
ENDCHAR
STARTCHAR U+00A4
ENCODING 164
SWIDTH 582 0
DWIDTH 20 0
BBX 20 17 0 0
BITMAP
080100
1C0380
3FFFC0
1FFF80
0FFF00
0F0F00
0E0700
1E0780
1C0380
1E0780
1E0700
0F0F00
0FFF00
1FFF80
3FFFC0
1C0380
080100
ENDCHAR
STARTCHAR U+00A5
ENCODING 165
SWIDTH 611 0
DWIDTH 21 0
BBX 21 22 0 0
BITMAP
7800E0
3C01E0
3C01C0
1E03C0
0E0380
0F0700
070F00
038E00
1F9FC0
1FDFC0
1FFFC0
00F800
00F000
1FFFC0
1FFFC0
1FFFC0
007000
007000
007000
007000
007000
007000
ENDCHAR
STARTCHAR U+00A6
ENCODING 166
SWIDTH 233 0
DWIDTH 8 0
BBX 8 33 0 -8
BITMAP
38
38
38
38
38
38
38
38
38
38
38
38
38
00
00
00
00
00
00
00
38
38
38
38
38
38
38
38
38
38
38
38
38
ENDCHAR
STARTCHAR U+00A7
ENCODING 167
SWIDTH 465 0
DWIDTH 16 0
BBX 16 28 0 -6
BITMAP
07C0
1FF0
3FF8
3C7C
381C
3810
3800
3C00
1F80
0FE0
1FF8
3EFC
783C
701E
701E
781E
3F3C
1FF8
07F0
00F8
003C
001C
101E
781C
3C3C
3FFC
1FF8
07E0
ENDCHAR
STARTCHAR U+00A8
ENCODING 168
SWIDTH 436 0
DWIDTH 15 0
BBX 16 22 0 0
BITMAP
FFFE
FFFE
FFFE
E00E
E00E
E00E
E00E
E00E
E00E
E00E
E00E
E00E
E00E
E00E
E00E
E00E
E00E
E00E
E00E
FFFE
FFFE
FFFE
ENDCHAR
STARTCHAR U+00A9
ENCODING 169
SWIDTH 785 0
DWIDTH 27 0
BBX 27 22 0 0
BITMAP
003F8000
01FFE000
03C0F800
07001C00
0E1F8C00
187FC600
18E04300
31C00300
31800100
33800180
33800180
33800180
31C00180
31C00100
30F04300
187FC300
1C1F8600
0C000C00
07001C00
03C0F800
01FFE000
003F8000
ENDCHAR
STARTCHAR U+00AA
ENCODING 170
SWIDTH 291 0
DWIDTH 10 0
BBX 10 22 0 0
BITMAP
3E00
7F00
0380
0180
1F80
3F80
7180
6180
7F80
3F80
0000
0000
0000
0000
0000
0000
0000
0000
0000
0000
0000
0000
ENDCHAR
STARTCHAR U+00AB
ENCODING 171
SWIDTH 553 0
DWIDTH 19 0
BBX 19 16 0 0
BITMAP
01C380
038700
070E00
0F1E00
1E3C00
1C3800
387000
387000
1C3800
1E3C00
0E1C00
070E00
038700
01C380
000000
000000
ENDCHAR
STARTCHAR U+00AC
ENCODING 172
SWIDTH 524 0
DWIDTH 18 0
BBX 18 16 0 0
BITMAP
3FFE00
3FFE00
3FFE00
000600
000600
000600
000600
000600
000600
000600
000000
000000
000000
000000
000000
000000
ENDCHAR
STARTCHAR U+00AD
ENCODING 173
SWIDTH 378 0
DWIDTH 13 0
BBX 13 10 0 0
BITMAP
7FE0
7FE0
7FE0
0000
0000
0000
0000
0000
0000
0000
ENDCHAR
STARTCHAR U+00AE
ENCODING 174
SWIDTH 785 0
DWIDTH 27 0
BBX 27 22 0 0
BITMAP
003F8000
01FFE000
03C0F800
07001C00
0C000E00
1C7F0600
187F8300
3071C300
3071C100
3071C180
307F8180
307E0180
30770180
30738100
30738300
1871C300
1C70E600
0E000C00
07001C00
03C0F000
01FFE000
003F8000
ENDCHAR
STARTCHAR U+00AF
ENCODING 175
SWIDTH 436 0
DWIDTH 15 0
BBX 16 22 0 0
BITMAP
FFFE
FFFE
FFFE
E00E
E00E
E00E
E00E
E00E
E00E
E00E
E00E
E00E
E00E
E00E
E00E
E00E
E00E
E00E
E00E
FFFE
FFFE
FFFE
ENDCHAR
STARTCHAR U+00B0
ENCODING 176
SWIDTH 378 0
DWIDTH 13 0
BBX 13 22 0 0
BITMAP
0F80
1FC0
3FE0
38E0
3060
3060
38E0
3FE0
1FC0
0F80
0000
0000
0000
0000
0000
0000
0000
0000
0000
0000
0000
0000
ENDCHAR
STARTCHAR U+00B1
ENCODING 177
SWIDTH 524 0
DWIDTH 18 0
BBX 18 20 0 -1
BITMAP
01C000
01C000
01C000
01C000
01C000
3FFE00
3FFE00
3FFE00
01C000
01C000
01C000
01C000
01C000
000000
000000
000000
000000
3FFE00
3FFE00
3FFE00
ENDCHAR
STARTCHAR U+00B2
ENCODING 178
SWIDTH 320 0
DWIDTH 11 0
BBX 11 22 0 0
BITMAP
1E00
3F80
7F80
6380
4180
0180
0380
0300
0700
0E00
0E00
1C00
3FC0
3FC0
0000
0000
0000
0000
0000
0000
0000
0000
ENDCHAR
STARTCHAR U+00B3
ENCODING 179
SWIDTH 320 0
DWIDTH 11 0
BBX 11 22 0 0
BITMAP
7FC0
7F80
0300
0700
0600
0F00
1380
01C0
01C0
01C0
21C0
7180
7F80
1E00
0000
0000
0000
0000
0000
0000
0000
0000
ENDCHAR
STARTCHAR U+00B4
ENCODING 180
SWIDTH 436 0
DWIDTH 15 0
BBX 16 22 0 0
BITMAP
FFFE
FFFE
FFFE
E00E
E00E
E00E
E00E
E00E
E00E
E00E
E00E
E00E
E00E
E00E
E00E
E00E
E00E
E00E
E00E
FFFE
FFFE
FFFE
ENDCHAR
STARTCHAR U+00B5
ENCODING 181
SWIDTH 553 0
DWIDTH 19 0
BBX 19 22 0 -6
BITMAP
1C0780
1C0780
1C0780
1C0780
1C0780
1C0780
1C0780
1C0780
1C0780
1C0780
1C0780
1E0780
1F0F80
1FFF80
1FFF80
1DF780
1C0000
1C0000
1C0000
1C0000
1C0000
1C0000
ENDCHAR
STARTCHAR U+00B6
ENCODING 182
SWIDTH 524 0
DWIDTH 18 0
BBX 18 28 0 -6
BITMAP
07FF80
0FFF80
1FE600
3FE600
3FE600
3FE600
3FE600
3FE600
3FE600
1FE600
1FE600
07E600
00E600
00E600
00E600
00E600
00E600
00E600
00E600
00E600
00E600
00E600
00E600
00E600
00E600
00E600
00E600
00E600
ENDCHAR
STARTCHAR U+00B7
ENCODING 183
SWIDTH 233 0
DWIDTH 8 0
BBX 8 13 0 0
BITMAP
08
1C
3E
1C
08
00
00
00
00
00
00
00
00
ENDCHAR
STARTCHAR U+00B8
ENCODING 184
SWIDTH 436 0
DWIDTH 15 0
BBX 16 22 0 0
BITMAP
FFFE
FFFE
FFFE
E00E
E00E
E00E
E00E
E00E
E00E
E00E
E00E
E00E
E00E
E00E
E00E
E00E
E00E
E00E
E00E
FFFE
FFFE
FFFE
ENDCHAR
STARTCHAR U+00B9
ENCODING 185
SWIDTH 233 0
DWIDTH 8 0
BBX 8 22 0 0
BITMAP
08
18
18
18
18
18
18
18
18
18
18
18
18
18
00
00
00
00
00
00
00
00
ENDCHAR
STARTCHAR U+00BA
ENCODING 186
SWIDTH 378 0
DWIDTH 13 0
BBX 13 22 0 0
BITMAP
0F80
3FC0
38E0
7060
6070
6070
7060
38E0
3FC0
0F80
0000
0000
0000
0000
0000
0000
0000
0000
0000
0000
0000
0000
ENDCHAR
STARTCHAR U+00BB
ENCODING 187
SWIDTH 553 0
DWIDTH 19 0
BBX 19 16 0 0
BITMAP
387000
1C3800
1E3C00
0E1C00
070E00
038700
01C380
01C380
038700
070E00
0F1E00
1E3C00
1C3800
387000
000000
000000
ENDCHAR
STARTCHAR U+00BC
ENCODING 188
SWIDTH 785 0
DWIDTH 27 0
BBX 27 23 0 -1
BITMAP
08007000
18006000
1800E000
1800C000
1801C000
18018000
18038000
18070000
18070000
180E0000
180E0100
181C0300
181C0700
18380F00
00381F00
00703B00
00707300
00E0E300
00C1FFC0
01C3FFC0
01800700
03800700
00000700
ENDCHAR
STARTCHAR U+00BD
ENCODING 189
SWIDTH 815 0
DWIDTH 28 0
BBX 28 23 0 -1
BITMAP
08007000
18006000
1800E000
1800C000
1801C000
18018000
18038000
18070000
18070000
180E0F00
180E1FC0
181C3FC0
181C31C0
183820C0
003800C0
007001C0
00700180
00E00380
00C00700
01C00700
01800E00
03801FE0
00001FE0
ENDCHAR
STARTCHAR U+00BE
ENCODING 190
SWIDTH 844 0
DWIDTH 29 0
BBX 29 23 0 -1
BITMAP
7FC01C00
7F801800
03003800
07003000
06007000
0F006000
1380E000
01C1C000
01C1C000
01C38000
21C38040
718700C0
7F8701C0
1E0E03C0
000E07C0
001C0EC0
001C1CC0
003838C0
00307FF0
0070FFF0
006001C0
00E001C0
000001C0
ENDCHAR
STARTCHAR U+00BF
ENCODING 191
SWIDTH 436 0
DWIDTH 15 0
BBX 15 23 0 -6
BITMAP
0080
01C0
03E0
01C0
0080
0000
0080
01C0
01E0
00E0
00E0
03E0
07C0
1F00
1E00
3C00
3800
3800
3808
3C3C
1FFC
0FF8
07E0
ENDCHAR
STARTCHAR U+00C0
ENCODING 192
SWIDTH 640 0
DWIDTH 22 0
BBX 22 29 0 0
BITMAP
01E000
00F000
007000
003800
001C00
000000
000000
007800
007800
007800
00FC00
00FC00
01FE00
01CE00
03CF00
03CF00
038700
078780
070380
0F03C0
0F03C0
0FFFC0
1FFFE0
1FFFE0
3C00F0
3C00F0
380078
780078
700038
ENDCHAR
STARTCHAR U+00C1
ENCODING 193
SWIDTH 640 0
DWIDTH 22 0
BBX 22 29 0 0
BITMAP
000F00
001E00
001C00
003800
007000
000000
000000
007800
007800
007800
00FC00
00FC00
01FE00
01CE00
03CF00
03CF00
038700
078780
070380
0F03C0
0F03C0
0FFFC0
1FFFE0
1FFFE0
3C00F0
3C00F0
380078
780078
700038
ENDCHAR
STARTCHAR U+00C2
ENCODING 194
SWIDTH 640 0
DWIDTH 22 0
BBX 22 29 0 0
BITMAP
007800
00FC00
00EE00
01C600
018700
000000
000000
007800
007800
007800
00FC00
00FC00
01FE00
01CE00
03CF00
03CF00
038700
078780
070380
0F03C0
0F03C0
0FFFC0
1FFFE0
1FFFE0
3C00F0
3C00F0
380078
780078
700038
ENDCHAR
STARTCHAR U+00C3
ENCODING 195
SWIDTH 640 0
DWIDTH 22 0
BBX 22 28 0 0
BITMAP
01C200
03F700
077F00
001C00
000000
000000
007800
007800
007800
00FC00
00FC00
01FE00
01CE00
03CF00
03CF00
038700
078780
070380
0F03C0
0F03C0
0FFFC0
1FFFE0
1FFFE0
3C00F0
3C00F0
380078
780078
700038
ENDCHAR
STARTCHAR U+00C4
ENCODING 196
SWIDTH 640 0
DWIDTH 22 0
BBX 22 29 0 0
BITMAP
008200
01C700
03EF80
01C700
008200
000000
000000
007800
007800
007800
00FC00
00FC00
01FE00
01CE00
03CF00
03CF00
038700
078780
070380
0F03C0
0F03C0
0FFFC0
1FFFE0
1FFFE0
3C00F0
3C00F0
380078
780078
700038
ENDCHAR
STARTCHAR U+00C5
ENCODING 197
SWIDTH 640 0
DWIDTH 22 0
BBX 22 30 0 0
BITMAP
007800
00FC00
008C00
008C00
00DC00
007800
000000
000000
007800
007800
007800
00FC00
00FC00
01FE00
01CE00
03CF00
03CF00
038700
078780
070380
0F03C0
0F03C0
0FFFC0
1FFFE0
1FFFE0
3C00F0
3C00F0
380078
780078
700038
ENDCHAR
STARTCHAR U+00C6
ENCODING 198
SWIDTH 902 0
DWIDTH 31 0
BBX 31 22 0 0
BITMAP
0007FFF8
000FFFF8
000FFFF8
001FE000
001DE000
003DE000
0079E000
0079E000
00F1E000
00F1FFC0
01E1FFC0
03C1FFC0
03C1E000
07FFE000
07FFE000
0FFFE000
0F01E000
1E01E000
3C01E000
3C01FFF8
7801FFF8
7801FFF8
ENDCHAR
STARTCHAR U+00C7
ENCODING 199
SWIDTH 669 0
DWIDTH 23 0
BBX 23 29 0 -7
BITMAP
003F80
00FFF0
03FFF8
07E078
0F8018
1E0000
1E0000
3C0000
3C0000
380000
380000
380000
380000
3C0000
3C0000
1E0000
1E0000
0F8018
07E078
03FFF8
00FFE0
003F80
001800
001E00
001F00
000700
000700
007E00
007C00
ENDCHAR
STARTCHAR U+00C8
ENCODING 200
SWIDTH 553 0
DWIDTH 19 0
BBX 19 29 0 0
BITMAP
078000
03C000
01C000
00E000
007000
000000
000000
1FFF80
1FFF80
1FFF80
1E0000
1E0000
1E0000
1E0000
1E0000
1E0000
1FFE00
1FFE00
1FFE00
1E0000
1E0000
1E0000
1E0000
1E0000
1E0000
1E0000
1FFFC0
1FFFC0
1FFFC0
ENDCHAR
STARTCHAR U+00C9
ENCODING 201
SWIDTH 553 0
DWIDTH 19 0
BBX 19 29 0 0
BITMAP
003C00
007800
007000
00E000
01C000
000000
000000
1FFF80
1FFF80
1FFF80
1E0000
1E0000
1E0000
1E0000
1E0000
1E0000
1FFE00
1FFE00
1FFE00
1E0000
1E0000
1E0000
1E0000
1E0000
1E0000
1E0000
1FFFC0
1FFFC0
1FFFC0
ENDCHAR
STARTCHAR U+00CA
ENCODING 202
SWIDTH 553 0
DWIDTH 19 0
BBX 19 29 0 0
BITMAP
00F000
01F800
01DC00
038C00
030E00
000000
000000
1FFF80
1FFF80
1FFF80
1E0000
1E0000
1E0000
1E0000
1E0000
1E0000
1FFE00
1FFE00
1FFE00
1E0000
1E0000
1E0000
1E0000
1E0000
1E0000
1E0000
1FFFC0
1FFFC0
1FFFC0
ENDCHAR
STARTCHAR U+00CB
ENCODING 203
SWIDTH 553 0
DWIDTH 19 0
BBX 19 29 0 0
BITMAP
020800
071C00
0FBE00
071C00
020800
000000
000000
1FFF80
1FFF80
1FFF80
1E0000
1E0000
1E0000
1E0000
1E0000
1E0000
1FFE00
1FFE00
1FFE00
1E0000
1E0000
1E0000
1E0000
1E0000
1E0000
1E0000
1FFFC0
1FFFC0
1FFFC0
ENDCHAR
STARTCHAR U+00CC
ENCODING 204
SWIDTH 291 0
DWIDTH 10 0
BBX 10 29 0 0
BITMAP
0000
0000
0000
0000
0000
0000
0000
0000
0000
0000
0000
0000
0000
0000
0000
0000
0000
0000
0000
0000
0000
0000
0000
0000
0000
0000
0000
0000
0000
ENDCHAR
STARTCHAR U+00CD
ENCODING 205
SWIDTH 291 0
DWIDTH 10 0
BBX 10 29 0 0
BITMAP
0780
0F00
0E00
1C00
3800
0000
0000
1E00
1E00
1E00
1E00
1E00
1E00
1E00
1E00
1E00
1E00
1E00
1E00
1E00
1E00
1E00
1E00
1E00
1E00
1E00
1E00
1E00
1E00
ENDCHAR
STARTCHAR U+00CE
ENCODING 206
SWIDTH 291 0
DWIDTH 10 0
BBX 10 29 0 0
BITMAP
0000
0000
0000
0000
0000
0000
0000
0000
0000
0000
0000
0000
0000
0000
0000
0000
0000
0000
0000
0000
0000
0000
0000
0000
0000
0000
0000
0000
0000
ENDCHAR
STARTCHAR U+00CF
ENCODING 207
SWIDTH 291 0
DWIDTH 10 0
BBX 12 29 -1 0
BITMAP
2080
71C0
FBE0
71C0
2080
0000
0000
0F00
0F00
0F00
0F00
0F00
0F00
0F00
0F00
0F00
0F00
0F00
0F00
0F00
0F00
0F00
0F00
0F00
0F00
0F00
0F00
0F00
0F00
ENDCHAR
STARTCHAR U+00D0
ENCODING 208
SWIDTH 698 0
DWIDTH 24 0
BBX 24 22 0 0
BITMAP
1FFC00
1FFF00
1FFFC0
1E07E0
1E01F0
1E0078
1E0078
1E003C
1E003C
1E001C
7FF01C
7FF01C
7FF01C
1E003C
1E003C
1E0078
1E0078
1E01F0
1E07E0
1FFFC0
1FFF00
1FFC00
ENDCHAR
STARTCHAR U+00D1
ENCODING 209
SWIDTH 756 0
DWIDTH 26 0
BBX 26 28 0 0
BITMAP
00708000
00FDC000
01DFC000
00070000
00000000
00000000
1E001E00
1E001E00
1F001E00
1F801E00
1FC01E00
1FE01E00
1FE01E00
1EF01E00
1E781E00
1E3C1E00
1E3E1E00
1E1E1E00
1E0F1E00
1E079E00
1E03DE00
1E03DE00
1E01FE00
1E00FE00
1E007E00
1E007E00
1E003E00
1E001E00
ENDCHAR
STARTCHAR U+00D2
ENCODING 210
SWIDTH 785 0
DWIDTH 27 0
BBX 27 29 0 0
BITMAP
00780000
003C0000
001C0000
000E0000
00070000
00000000
00000000
003F8000
00FFE000
03FFF800
07E0FC00
0F801E00
1E000F00
1E000F00
3C000780
3C000780
38000380
38000380
38000380
38000380
3C000780
3C000780
1E000F00
1E000F00
0F801E00
07E07C00
03FFF800
00FFF000
003F8000
ENDCHAR
STARTCHAR U+00D3
ENCODING 211
SWIDTH 785 0
DWIDTH 27 0
BBX 27 29 0 0
BITMAP
0003C000
00078000
00070000
000E0000
001C0000
00000000
00000000
003F8000
00FFE000
03FFF800
07E0FC00
0F801E00
1E000F00
1E000F00
3C000780
3C000780
38000380
38000380
38000380
38000380
3C000780
3C000780
1E000F00
1E000F00
0F801E00
07E07C00
03FFF800
00FFF000
003F8000
ENDCHAR
STARTCHAR U+00D4
ENCODING 212
SWIDTH 785 0
DWIDTH 27 0
BBX 27 29 0 0
BITMAP
001E0000
003F0000
003B8000
00718000
0061C000
00000000
00000000
003F8000
00FFE000
03FFF800
07E0FC00
0F801E00
1E000F00
1E000F00
3C000780
3C000780
38000380
38000380
38000380
38000380
3C000780
3C000780
1E000F00
1E000F00
0F801E00
07E07C00
03FFF800
00FFF000
003F8000
ENDCHAR
STARTCHAR U+00D5
ENCODING 213
SWIDTH 785 0
DWIDTH 27 0
BBX 27 28 0 0
BITMAP
00708000
00FDC000
01DFC000
00070000
00000000
00000000
003F8000
00FFE000
03FFF800
07E0FC00
0F801E00
1E000F00
1E000F00
3C000780
3C000780
38000380
38000380
38000380
38000380
3C000780
3C000780
1E000F00
1E000F00
0F801E00
07E07C00
03FFF800
00FFF000
003F8000
ENDCHAR
STARTCHAR U+00D6
ENCODING 214
SWIDTH 785 0
DWIDTH 27 0
BBX 27 29 0 0
BITMAP
00208000
0071C000
00FBE000
0071C000
00208000
00000000
00000000
003F8000
00FFE000
03FFF800
07E0FC00
0F801E00
1E000F00
1E000F00
3C000780
3C000780
38000380
38000380
38000380
38000380
3C000780
3C000780
1E000F00
1E000F00
0F801E00
07E07C00
03FFF800
00FFF000
003F8000
ENDCHAR
STARTCHAR U+00D7
ENCODING 215
SWIDTH 524 0
DWIDTH 18 0
BBX 18 17 0 0
BITMAP
080400
1C1E00
1E3C00
0F7800
07F000
03E000
03E000
07F000
0F7800
1E3C00
1C1E00
080C00
000000
000000
000000
000000
000000
ENDCHAR
STARTCHAR U+00D8
ENCODING 216
SWIDTH 785 0
DWIDTH 27 0
BBX 27 22 0 0
BITMAP
003F8100
00FFF380
03FFFF00
07C07E00
0F801E00
1E003F00
1E007F00
3C00E780
3C01C780
38038380
380F0380
381E0380
383C0380
3C780780
3CE00780
1FC00700
1F800F00
0F801E00
0FE07C00
1FFFF800
38FFF000
103F8000
ENDCHAR
STARTCHAR U+00D9
ENCODING 217
SWIDTH 756 0
DWIDTH 26 0
BBX 26 29 0 0
BITMAP
00F00000
00780000
00380000
001C0000
000E0000
00000000
00000000
1C001E00
1C001E00
1C001E00
1C001E00
1C001E00
1C001E00
1C001E00
1C001E00
1C001E00
1C001E00
1C001E00
1C001E00
1C001E00
1C001E00
1E001C00
1E001C00
0F003C00
0F807800
07C1F000
03FFF000
01FFC000
007F0000
ENDCHAR
STARTCHAR U+00DA
ENCODING 218
SWIDTH 756 0
DWIDTH 26 0
BBX 26 29 0 0
BITMAP
00078000
000F0000
000E0000
001C0000
00380000
00000000
00000000
1C001E00
1C001E00
1C001E00
1C001E00
1C001E00
1C001E00
1C001E00
1C001E00
1C001E00
1C001E00
1C001E00
1C001E00
1C001E00
1C001E00
1E001C00
1E001C00
0F003C00
0F807800
07C1F000
03FFF000
01FFC000
007F0000
ENDCHAR
STARTCHAR U+00DB
ENCODING 219
SWIDTH 756 0
DWIDTH 26 0
BBX 26 29 0 0
BITMAP
001E0000
003F0000
003B8000
00718000
0061C000
00000000
00000000
1C001E00
1C001E00
1C001E00
1C001E00
1C001E00
1C001E00
1C001E00
1C001E00
1C001E00
1C001E00
1C001E00
1C001E00
1C001E00
1C001E00
1E001C00
1E001C00
0F003C00
0F807800
07C1F000
03FFF000
01FFC000
007F0000
ENDCHAR
STARTCHAR U+00DC
ENCODING 220
SWIDTH 756 0
DWIDTH 26 0
BBX 26 29 0 0
BITMAP
00410000
00E38000
01F7C000
00E38000
00410000
00000000
00000000
1C001E00
1C001E00
1C001E00
1C001E00
1C001E00
1C001E00
1C001E00
1C001E00
1C001E00
1C001E00
1C001E00
1C001E00
1C001E00
1C001E00
1E001C00
1E001C00
0F003C00
0F807800
07C1F000
03FFF000
01FFC000
007F0000
ENDCHAR
STARTCHAR U+00DD
ENCODING 221
SWIDTH 582 0
DWIDTH 20 0
BBX 20 29 0 0
BITMAP
001E00
003C00
003800
007000
00E000
000000
000000
7801E0
7801C0
3C03C0
1E0380
1E0780
0F0F00
070E00
079E00
03FC00
01F800
01F800
00F000
00F000
00F000
00F000
00F000
00F000
00F000
00F000
00F000
00F000
00F000
ENDCHAR
STARTCHAR U+00DE
ENCODING 222
SWIDTH 553 0
DWIDTH 19 0
BBX 19 22 0 0
BITMAP
1E0000
1E0000
1E0000
1E0000
1FFC00
1FFE00
1FFF00
1E0F80
1E03C0
1E03C0
1E03C0
1E03C0
1E03C0
1E0380
1E0F80
1FFF00
1FFE00
1FF800
1E0000
1E0000
1E0000
1E0000
ENDCHAR
STARTCHAR U+00DF
ENCODING 223
SWIDTH 524 0
DWIDTH 18 0
BBX 18 22 0 0
BITMAP
01F000
07FC00
0FFE00
1E1E00
1C0F00
1C0700
1C0700
1C0E00
1C1E00
1CFC00
1CF800
1CFE00
1C0F00
1C0700
1C0780
1C0380
1C0380
1C0780
1C0F00
1CFF00
1CFE00
1CF800
ENDCHAR
STARTCHAR U+00E0
ENCODING 224
SWIDTH 495 0
DWIDTH 17 0
BBX 17 23 0 0
BITMAP
0F0000
078000
038000
01C000
00E000
000000
000000
07E000
1FF800
1FFC00
183C00
201C00
001E00
01FE00
07FE00
1F0E00
3C0E00
380E00
380E00
383E00
3FFE00
1FFE00
0FCE00
ENDCHAR
STARTCHAR U+00E1
ENCODING 225
SWIDTH 495 0
DWIDTH 17 0
BBX 17 23 0 0
BITMAP
007800
00F000
00E000
01C000
038000
000000
000000
07E000
1FF800
1FFC00
183C00
201C00
001E00
01FE00
07FE00
1F0E00
3C0E00
380E00
380E00
383E00
3FFE00
1FFE00
0FCE00
ENDCHAR
STARTCHAR U+00E2
ENCODING 226
SWIDTH 495 0
DWIDTH 17 0
BBX 17 23 0 0
BITMAP
03C000
07E000
077000
0E3000
0C3800
000000
000000
07E000
1FF800
1FFC00
183C00
201C00
001E00
01FE00
07FE00
1F0E00
3C0E00
380E00
380E00
383E00
3FFE00
1FFE00
0FCE00
ENDCHAR
STARTCHAR U+00E3
ENCODING 227
SWIDTH 495 0
DWIDTH 17 0
BBX 17 22 0 0
BITMAP
070800
0FDC00
1DFC00
007000
000000
000000
07E000
1FF800
1FFC00
183C00
201C00
001E00
01FE00
07FE00
1F0E00
3C0E00
380E00
380E00
383E00
3FFE00
1FFE00
0FCE00
ENDCHAR
STARTCHAR U+00E4
ENCODING 228
SWIDTH 495 0
DWIDTH 17 0
BBX 17 23 0 0
BITMAP
041000
0E3800
1F7C00
0E3800
041000
000000
000000
07E000
1FF800
1FFC00
183C00
201C00
001E00
01FE00
07FE00
1F0E00
3C0E00
380E00
380E00
383E00
3FFE00
1FFE00
0FCE00
ENDCHAR
STARTCHAR U+00E5
ENCODING 229
SWIDTH 495 0
DWIDTH 17 0
BBX 17 24 0 0
BITMAP
03C000
07E000
046000
046000
06E000
03C000
000000
000000
07E000
1FF800
1FFC00
183C00
201C00
001E00
01FE00
07FE00
1F0E00
3C0E00
380E00
380E00
383E00
3FFE00
1FFE00
0FCE00
ENDCHAR
STARTCHAR U+00E6
ENCODING 230
SWIDTH 785 0
DWIDTH 27 0
BBX 27 16 0 0
BITMAP
07E0FC00
1FFBFE00
1FFFFF00
183F0780
201E0380
001E03C0
00FFFFC0
07FFFFC0
1E1E0000
3C1E0000
380E0000
380F00C0
3C3F83C0
3FFFFFC0
1FF1FF00
0FC0FC00
ENDCHAR
STARTCHAR U+00E7
ENCODING 231
SWIDTH 495 0
DWIDTH 17 0
BBX 17 23 0 -7
BITMAP
01F800
07FE00
0FFE00
1F0600
3C0200
380000
380000
380000
380000
380000
380000
3C0000
1F0200
0FFE00
07FE00
01F800
006000
00F800
00FC00
001C00
001C00
01F800
01F000
ENDCHAR
STARTCHAR U+00E8
ENCODING 232
SWIDTH 524 0
DWIDTH 18 0
BBX 18 23 0 0
BITMAP
078000
03C000
01C000
00E000
007000
000000
000000
01F000
07FC00
0FFE00
1E0F00
3C0700
380700
3FFF80
3FFF80
3FFF80
380000
380000
3C0100
1F0700
0FFF00
07FE00
01F800
ENDCHAR
STARTCHAR U+00E9
ENCODING 233
SWIDTH 524 0
DWIDTH 18 0
BBX 18 23 0 0
BITMAP
003C00
007800
007000
00E000
01C000
000000
000000
01F000
07FC00
0FFE00
1E0F00
3C0700
380700
3FFF80
3FFF80
3FFF80
380000
380000
3C0100
1F0700
0FFF00
07FE00
01F800
ENDCHAR
STARTCHAR U+00EA
ENCODING 234
SWIDTH 524 0
DWIDTH 18 0
BBX 18 23 0 0
BITMAP
01E000
03F000
03B800
071800
061C00
000000
000000
01F000
07FC00
0FFE00
1E0F00
3C0700
380700
3FFF80
3FFF80
3FFF80
380000
380000
3C0100
1F0700
0FFF00
07FE00
01F800
ENDCHAR
STARTCHAR U+00EB
ENCODING 235
SWIDTH 524 0
DWIDTH 18 0
BBX 18 23 0 0
BITMAP
020800
071C00
0FBE00
071C00
020800
000000
000000
01F000
07FC00
0FFE00
1E0F00
3C0700
380700
3FFF80
3FFF80
3FFF80
380000
380000
3C0100
1F0700
0FFF00
07FE00
01F800
ENDCHAR
STARTCHAR U+00EC
ENCODING 236
SWIDTH 233 0
DWIDTH 8 0
BBX 9 23 -1 0
BITMAP
F000
7800
3800
1C00
0E00
0000
0000
1C00
1C00
1C00
1C00
1C00
1C00
1C00
1C00
1C00
1C00
1C00
1C00
1C00
1C00
1C00
1C00
ENDCHAR
STARTCHAR U+00ED
ENCODING 237
SWIDTH 233 0
DWIDTH 8 0
BBX 9 23 0 0
BITMAP
0000
0000
0000
0000
0000
0000
0000
0000
0000
0000
0000
0000
0000
0000
0000
0000
0000
0000
0000
0000
0000
0000
0000
ENDCHAR
STARTCHAR U+00EE
ENCODING 238
SWIDTH 233 0
DWIDTH 8 0
BBX 11 23 -1 0
BITMAP
1E00
3F00
3B80
7180
61C0
0000
0000
0E00
0E00
0E00
0E00
0E00
0E00
0E00
0E00
0E00
0E00
0E00
0E00
0E00
0E00
0E00
0E00
ENDCHAR
STARTCHAR U+00EF
ENCODING 239
SWIDTH 233 0
DWIDTH 8 0
BBX 12 23 -2 0
BITMAP
2080
71C0
FBE0
71C0
2080
0000
0000
0E00
0E00
0E00
0E00
0E00
0E00
0E00
0E00
0E00
0E00
0E00
0E00
0E00
0E00
0E00
0E00
ENDCHAR
STARTCHAR U+00F0
ENCODING 240
SWIDTH 524 0
DWIDTH 18 0
BBX 18 22 0 0
BITMAP
030800
0FBC00
03F800
03F000
07F800
0F3C00
041C00
03FE00
0FFF00
1FFF00
1E0F00
3C0780
380780
380380
380380
380780
380700
3C0F00
1E1F00
1FFE00
0FFC00
03F000
ENDCHAR
STARTCHAR U+00F1
ENCODING 241
SWIDTH 582 0
DWIDTH 20 0
BBX 20 22 0 0
BITMAP
038400
07EE00
0EFE00
003800
000000
000000
1DF800
1FFE00
1FFF00
1E0F80
1C0780
1C0380
1C0380
1C0380
1C0380
1C0380
1C0380
1C0380
1C0380
1C0380
1C0380
1C0380
ENDCHAR
STARTCHAR U+00F2
ENCODING 242
SWIDTH 582 0
DWIDTH 20 0
BBX 20 23 0 0
BITMAP
03C000
01E000
00E000
007000
003800
000000
000000
01F800
07FE00
0FFF00
1F0F80
3C03C0
3801C0
3801C0
3801E0
3801E0
3801C0
3801C0
3C03C0
1F0F80
0FFF00
07FE00
01F800
ENDCHAR
STARTCHAR U+00F3
ENCODING 243
SWIDTH 582 0
DWIDTH 20 0
BBX 20 23 0 0
BITMAP
001E00
003C00
003800
007000
00E000
000000
000000
01F800
07FE00
0FFF00
1F0F80
3C03C0
3801C0
3801C0
3801E0
3801E0
3801C0
3801C0
3C03C0
1F0F80
0FFF00
07FE00
01F800
ENDCHAR
STARTCHAR U+00F4
ENCODING 244
SWIDTH 582 0
DWIDTH 20 0
BBX 20 23 0 0
BITMAP
00F000
01F800
01DC00
038C00
030E00
000000
000000
01F800
07FE00
0FFF00
1F0F80
3C03C0
3801C0
3801C0
3801E0
3801E0
3801C0
3801C0
3C03C0
1F0F80
0FFF00
07FE00
01F800
ENDCHAR
STARTCHAR U+00F5
ENCODING 245
SWIDTH 582 0
DWIDTH 20 0
BBX 20 22 0 0
BITMAP
038400
07EE00
0EFE00
003800
000000
000000
01F800
07FE00
0FFF00
1F0F80
3C03C0
3801C0
3801C0
3801E0
3801E0
3801C0
3801C0
3C03C0
1F0F80
0FFF00
07FE00
01F800
ENDCHAR
STARTCHAR U+00F6
ENCODING 246
SWIDTH 582 0
DWIDTH 20 0
BBX 20 23 0 0
BITMAP
010400
038E00
07DF00
038E00
010400
000000
000000
01F800
07FE00
0FFF00
1F0F80
3C03C0
3801C0
3801C0
3801E0
3801E0
3801C0
3801C0
3C03C0
1F0F80
0FFF00
07FE00
01F800
ENDCHAR
STARTCHAR U+00F7
ENCODING 247
SWIDTH 524 0
DWIDTH 18 0
BBX 18 19 0 0
BITMAP
004000
00E000
01F000
00E000
004000
000000
000000
3FFE00
3FFE00
3FFE00
000000
000000
004000
00E000
01F000
00E000
004000
000000
000000
ENDCHAR
STARTCHAR U+00F8
ENCODING 248
SWIDTH 582 0
DWIDTH 20 0
BBX 20 18 0 -1
BITMAP
000080
01F980
07FF80
0FFF00
1F0F80
3C0FC0
381DC0
3839C0
3871E0
38E1E0
38C1C0
3981C0
3F03C0
1F0F80
0FFF00
0FFE00
19F800
100000
ENDCHAR
STARTCHAR U+00F9
ENCODING 249
SWIDTH 582 0
DWIDTH 20 0
BBX 20 23 0 0
BITMAP
078000
03C000
01C000
00E000
007000
000000
000000
3C0380
3C0380
3C0380
3C0380
3C0380
3C0380
3C0380
3C0380
3C0380
3C0380
1C0380
1C0380
1F0780
0FFF80
07FF80
03FB80
ENDCHAR
STARTCHAR U+00FA
ENCODING 250
SWIDTH 582 0
DWIDTH 20 0
BBX 20 23 0 0
BITMAP
003C00
007800
007000
00E000
01C000
000000
000000
3C0380
3C0380
3C0380
3C0380
3C0380
3C0380
3C0380
3C0380
3C0380
3C0380
1C0380
1C0380
1F0780
0FFF80
07FF80
03FB80
ENDCHAR
STARTCHAR U+00FB
ENCODING 251
SWIDTH 582 0
DWIDTH 20 0
BBX 20 23 0 0
BITMAP
00F000
01F800
01DC00
038C00
030E00
000000
000000
3C0380
3C0380
3C0380
3C0380
3C0380
3C0380
3C0380
3C0380
3C0380
3C0380
1C0380
1C0380
1F0780
0FFF80
07FF80
03FB80
ENDCHAR
STARTCHAR U+00FC
ENCODING 252
SWIDTH 582 0
DWIDTH 20 0
BBX 20 23 0 0
BITMAP
020800
071C00
0FBE00
071C00
020800
000000
000000
3C0380
3C0380
3C0380
3C0380
3C0380
3C0380
3C0380
3C0380
3C0380
3C0380
1C0380
1C0380
1F0780
0FFF80
07FF80
03FB80
ENDCHAR
STARTCHAR U+00FD
ENCODING 253
SWIDTH 524 0
DWIDTH 18 0
BBX 18 29 0 -6
BITMAP
007800
00F000
00E000
01C000
038000
000000
000000
700380
780780
380700
380700
3C0E00
1C0E00
1E1E00
0E1C00
0E1C00
073800
073800
03F800
03F000
03F000
01E000
01E000
01C000
01C000
03C000
1F8000
1F0000
1E0000
ENDCHAR
STARTCHAR U+00FE
ENCODING 254
SWIDTH 582 0
DWIDTH 20 0
BBX 20 28 0 -6
BITMAP
1C0000
1C0000
1C0000
1C0000
1C0000
1C0000
1DF800
1FFE00
1FFF00
1E0F80
1C03C0
1C03C0
1C01C0
1C01C0
1C01C0
1C01C0
1C03C0
1C03C0
1E0F80
1FFF00
1FFE00
1DF800
1C0000
1C0000
1C0000
1C0000
1C0000
1C0000
ENDCHAR
STARTCHAR U+00FF
ENCODING 255
SWIDTH 524 0
DWIDTH 18 0
BBX 18 29 0 -6
BITMAP
041000
0E3800
1F7C00
0E3800
041000
000000
000000
700380
780780
380700
380700
3C0E00
1C0E00
1E1E00
0E1C00
0E1C00
073800
073800
03F800
03F000
03F000
01E000
01E000
01C000
01C000
03C000
1F8000
1F0000
1E0000
ENDCHAR
STARTCHAR U+2013
ENCODING 8211
SWIDTH 495 0
DWIDTH 17 0
BBX 18 10 -1 0
BITMAP
FFFF80
FFFF80
FFFF80
000000
000000
000000
000000
000000
000000
000000
ENDCHAR
STARTCHAR U+2014
ENCODING 8212
SWIDTH 960 0
DWIDTH 33 0
BBX 35 10 -1 0
BITMAP
FFFFFFFF80
FFFFFFFF80
FFFFFFFF80
0000000000
0000000000
0000000000
0000000000
0000000000
0000000000
0000000000
ENDCHAR
STARTCHAR U+2018
ENCODING 8216
SWIDTH 233 0
DWIDTH 8 0
BBX 8 22 0 0
BITMAP
04
08
18
38
3C
3C
18
00
00
00
00
00
00
00
00
00
00
00
00
00
00
00
ENDCHAR
STARTCHAR U+2019
ENCODING 8217
SWIDTH 233 0
DWIDTH 8 0
BBX 8 22 0 0
BITMAP
08
18
3C
1C
1C
18
10
20
00
00
00
00
00
00
00
00
00
00
00
00
00
00
ENDCHAR
STARTCHAR U+201C
ENCODING 8220
SWIDTH 378 0
DWIDTH 13 0
BBX 13 22 0 0
BITMAP
0420
0840
18C0
38C0
3DE0
3CE0
18C0
0000
0000
0000
0000
0000
0000
0000
0000
0000
0000
0000
0000
0000
0000
0000
ENDCHAR
STARTCHAR U+201D
ENCODING 8221
SWIDTH 378 0
DWIDTH 13 0
BBX 13 22 0 0
BITMAP
0840
18C0
3DE0
1CE0
1CE0
18C0
1080
2100
0000
0000
0000
0000
0000
0000
0000
0000
0000
0000
0000
0000
0000
0000
ENDCHAR
STARTCHAR U+2022
ENCODING 8226
SWIDTH 407 0
DWIDTH 14 0
BBX 14 14 0 0
BITMAP
0300
0780
0FC0
1FE0
1FE0
0FC0
0780
0300
0000
0000
0000
0000
0000
0000
ENDCHAR
STARTCHAR U+2026
ENCODING 8230
SWIDTH 873 0
DWIDTH 30 0
BBX 30 4 0 0
BITMAP
18030060
3C0780F0
1C038070
08010020
ENDCHAR
STARTCHAR U+20AC
ENCODING 8364
SWIDTH 611 0
DWIDTH 21 0
BBX 21 22 0 0
BITMAP
003F00
01FFC0
03FFE0
07C0E0
0F0020
0E0000
1E0000
7FFE00
7FFE00
7FFE00
3C0000
3C0000
7FFC00
7FFC00
7FFC00
1E0000
0E0000
0F0020
07C0E0
03FFE0
01FFC0
003F00
ENDCHAR
ENDFONT
