STARTFONT 2.1
COMMENT Converted from Johnston100 W03 Regular.ttf at 11px with ttf2bdf.py (Pillow, 1-bit, no AA)
FONT -Misc-Johnston100-Medium-R-Normal--11-110-75-75-P-130-ISO10646-1
SIZE 11 75 75
FONTBOUNDINGBOX 13 13 -1 -3
STARTPROPERTIES 9
FOUNDRY "Misc"
FAMILY_NAME "Johnston100"
WEIGHT_NAME "Medium"
SLANT "R"
PIXEL_SIZE 11
RESOLUTION_X 75
RESOLUTION_Y 75
FONT_ASCENT 10
FONT_DESCENT 3
ENDPROPERTIES
CHARS 200
STARTCHAR space
ENCODING 32
SWIDTH 262 0
DWIDTH 3 0
BBX 3 13 0 -3
BITMAP
00
00
00
00
00
00
00
00
00
00
00
00
00
ENDCHAR
STARTCHAR !
ENCODING 33
SWIDTH 262 0
DWIDTH 3 0
BBX 3 7 0 0
BITMAP
40
40
40
40
40
40
40
ENDCHAR
STARTCHAR "
ENCODING 34
SWIDTH 436 0
DWIDTH 5 0
BBX 5 7 0 0
BITMAP
50
50
50
00
00
00
00
ENDCHAR
STARTCHAR U+0023
ENCODING 35
SWIDTH 698 0
DWIDTH 8 0
BBX 9 7 0 0
BITMAP
1200
1200
7F00
2400
FE00
2800
4800
ENDCHAR
STARTCHAR $
ENCODING 36
SWIDTH 524 0
DWIDTH 6 0
BBX 6 9 0 -1
BITMAP
20
70
40
60
18
08
C8
70
20
ENDCHAR
STARTCHAR %
ENCODING 37
SWIDTH 698 0
DWIDTH 8 0
BBX 8 7 0 0
BITMAP
64
54
68
08
16
29
26
ENDCHAR
STARTCHAR &
ENCODING 38
SWIDTH 698 0
DWIDTH 8 0
BBX 8 7 0 0
BITMAP
38
48
28
32
5C
4C
7E
ENDCHAR
STARTCHAR '
ENCODING 39
SWIDTH 262 0
DWIDTH 3 0
BBX 3 7 0 0
BITMAP
40
40
40
00
00
00
00
ENDCHAR
STARTCHAR (
ENCODING 40
SWIDTH 262 0
DWIDTH 3 0
BBX 3 9 0 -1
BITMAP
40
40
40
40
40
40
40
40
40
ENDCHAR
STARTCHAR )
ENCODING 41
SWIDTH 262 0
DWIDTH 3 0
BBX 3 9 0 -1
BITMAP
80
40
40
40
40
40
40
40
80
ENDCHAR
STARTCHAR *
ENCODING 42
SWIDTH 349 0
DWIDTH 4 0
BBX 5 7 0 0
BITMAP
20
70
50
20
00
00
00
ENDCHAR
STARTCHAR +
ENCODING 43
SWIDTH 524 0
DWIDTH 6 0
BBX 6 6 0 0
BITMAP
20
20
78
20
20
00
ENDCHAR
STARTCHAR ,
ENCODING 44
SWIDTH 262 0
DWIDTH 3 0
BBX 3 4 0 -2
BITMAP
40
40
00
00
ENDCHAR
STARTCHAR -
ENCODING 45
SWIDTH 349 0
DWIDTH 4 0
BBX 4 3 0 0
BITMAP
F0
00
00
ENDCHAR
STARTCHAR .
ENCODING 46
SWIDTH 262 0
DWIDTH 3 0
BBX 3 1 0 0
BITMAP
40
ENDCHAR
STARTCHAR /
ENCODING 47
SWIDTH 349 0
DWIDTH 4 0
BBX 4 9 0 -1
BITMAP
20
20
20
20
40
40
40
80
80
ENDCHAR
STARTCHAR 0
ENCODING 48
SWIDTH 524 0
DWIDTH 6 0
BBX 6 7 0 0
BITMAP
30
48
48
C8
48
48
30
ENDCHAR
STARTCHAR 1
ENCODING 49
SWIDTH 262 0
DWIDTH 3 0
BBX 3 7 0 0
BITMAP
40
40
40
40
40
40
40
ENDCHAR
STARTCHAR 2
ENCODING 50
SWIDTH 436 0
DWIDTH 5 0
BBX 5 7 0 0
BITMAP
00
00
00
00
00
00
00
ENDCHAR
STARTCHAR 3
ENCODING 51
SWIDTH 524 0
DWIDTH 6 0
BBX 6 7 0 0
BITMAP
78
10
30
08
08
88
70
ENDCHAR
STARTCHAR 4
ENCODING 52
SWIDTH 524 0
DWIDTH 6 0
BBX 6 7 0 0
BITMAP
08
18
28
48
FC
08
08
ENDCHAR
STARTCHAR 5
ENCODING 53
SWIDTH 524 0
DWIDTH 6 0
BBX 6 7 0 0
BITMAP
78
40
70
08
08
88
70
ENDCHAR
STARTCHAR 6
ENCODING 54
SWIDTH 524 0
DWIDTH 6 0
BBX 6 7 0 0
BITMAP
30
20
40
78
C8
48
78
ENDCHAR
STARTCHAR 7
ENCODING 55
SWIDTH 436 0
DWIDTH 5 0
BBX 6 7 0 0
BITMAP
78
08
10
10
20
20
40
ENDCHAR
STARTCHAR 8
ENCODING 56
SWIDTH 524 0
DWIDTH 6 0
BBX 6 7 0 0
BITMAP
70
48
58
70
48
48
78
ENDCHAR
STARTCHAR 9
ENCODING 57
SWIDTH 524 0
DWIDTH 6 0
BBX 6 7 0 0
BITMAP
78
48
48
78
08
10
30
ENDCHAR
STARTCHAR :
ENCODING 58
SWIDTH 262 0
DWIDTH 3 0
BBX 3 5 0 0
BITMAP
40
00
00
00
40
ENDCHAR
STARTCHAR ;
ENCODING 59
SWIDTH 262 0
DWIDTH 3 0
BBX 3 7 0 -2
BITMAP
40
00
00
00
40
40
00
ENDCHAR
STARTCHAR U+003C
ENCODING 60
SWIDTH 524 0
DWIDTH 6 0
BBX 6 7 0 0
BITMAP
08
30
40
30
08
00
00
ENDCHAR
STARTCHAR =
ENCODING 61
SWIDTH 524 0
DWIDTH 6 0
BBX 6 5 0 0
BITMAP
78
00
78
00
00
ENDCHAR
STARTCHAR U+003E
ENCODING 62
SWIDTH 524 0
DWIDTH 6 0
BBX 6 7 0 0
BITMAP
40
30
08
30
40
00
00
ENDCHAR
STARTCHAR ?
ENCODING 63
SWIDTH 436 0
DWIDTH 5 0
BBX 5 7 0 0
BITMAP
70
90
10
60
20
20
20
ENDCHAR
STARTCHAR @
ENCODING 64
SWIDTH 960 0
DWIDTH 11 0
BBX 11 9 0 -2
BITMAP
1F00
2080
4E40
5240
5240
5240
4F80
2200
1E00
ENDCHAR
STARTCHAR A
ENCODING 65
SWIDTH 611 0
DWIDTH 7 0
BBX 8 7 0 0
BITMAP
10
18
28
24
7C
46
C2
ENDCHAR
STARTCHAR B
ENCODING 66
SWIDTH 611 0
DWIDTH 7 0
BBX 7 7 0 0
BITMAP
78
48
48
78
44
44
78
ENDCHAR
STARTCHAR C
ENCODING 67
SWIDTH 698 0
DWIDTH 8 0
BBX 8 7 0 0
BITMAP
1C
62
40
40
40
62
1C
ENDCHAR
STARTCHAR D
ENCODING 68
SWIDTH 698 0
DWIDTH 8 0
BBX 8 7 0 0
BITMAP
7C
46
42
42
42
46
78
ENDCHAR
STARTCHAR E
ENCODING 69
SWIDTH 524 0
DWIDTH 6 0
BBX 6 7 0 0
BITMAP
7C
40
40
78
40
40
7C
ENDCHAR
STARTCHAR F
ENCODING 70
SWIDTH 524 0
DWIDTH 6 0
BBX 6 7 0 0
BITMAP
7C
40
40
78
40
40
40
ENDCHAR
STARTCHAR G
ENCODING 71
SWIDTH 698 0
DWIDTH 8 0
BBX 8 7 0 0
BITMAP
1C
62
40
46
42
62
3E
ENDCHAR
STARTCHAR H
ENCODING 72
SWIDTH 698 0
DWIDTH 8 0
BBX 8 7 0 0
BITMAP
42
42
42
7E
42
42
42
ENDCHAR
STARTCHAR I
ENCODING 73
SWIDTH 262 0
DWIDTH 3 0
BBX 3 7 0 0
BITMAP
40
40
40
40
40
40
40
ENDCHAR
STARTCHAR J
ENCODING 74
SWIDTH 436 0
DWIDTH 5 0
BBX 5 7 0 0
BITMAP
10
10
10
10
10
90
70
ENDCHAR
STARTCHAR K
ENCODING 75
SWIDTH 611 0
DWIDTH 7 0
BBX 7 7 0 0
BITMAP
44
48
70
70
50
48
44
ENDCHAR
STARTCHAR L
ENCODING 76
SWIDTH 524 0
DWIDTH 6 0
BBX 6 7 0 0
BITMAP
40
40
40
40
40
40
7C
ENDCHAR
STARTCHAR M
ENCODING 77
SWIDTH 873 0
DWIDTH 10 0
BBX 10 7 0 0
BITMAP
6100
6300
5700
4D00
4100
4100
4100
ENDCHAR
STARTCHAR N
ENCODING 78
SWIDTH 785 0
DWIDTH 9 0
BBX 9 7 0 0
BITMAP
4300
6300
5300
4B00
4F00
4700
4300
ENDCHAR
STARTCHAR O
ENCODING 79
SWIDTH 785 0
DWIDTH 9 0
BBX 9 7 0 0
BITMAP
1E00
6300
4100
4100
4100
6300
1E00
ENDCHAR
STARTCHAR P
ENCODING 80
SWIDTH 524 0
DWIDTH 6 0
BBX 6 7 0 0
BITMAP
78
44
44
78
40
40
40
ENDCHAR
STARTCHAR Q
ENCODING 81
SWIDTH 785 0
DWIDTH 9 0
BBX 9 7 0 0
BITMAP
1E00
6300
4100
4100
4500
6300
1F00
ENDCHAR
STARTCHAR R
ENCODING 82
SWIDTH 611 0
DWIDTH 7 0
BBX 7 7 0 0
BITMAP
78
48
48
78
58
48
44
ENDCHAR
STARTCHAR S
ENCODING 83
SWIDTH 524 0
DWIDTH 6 0
BBX 6 7 0 0
BITMAP
70
50
60
30
08
C8
70
ENDCHAR
STARTCHAR T
ENCODING 84
SWIDTH 524 0
DWIDTH 6 0
BBX 7 7 0 0
BITMAP
FC
10
10
10
10
10
10
ENDCHAR
STARTCHAR U
ENCODING 85
SWIDTH 785 0
DWIDTH 9 0
BBX 9 7 0 0
BITMAP
4300
4300
4300
4300
4300
6200
3C00
ENDCHAR
STARTCHAR V
ENCODING 86
SWIDTH 611 0
DWIDTH 7 0
BBX 7 7 0 0
BITMAP
C6
44
44
28
28
38
10
ENDCHAR
STARTCHAR W
ENCODING 87
SWIDTH 960 0
DWIDTH 11 0
BBX 11 7 0 0
BITMAP
4440
4C40
4AC0
6A80
3A80
3180
3100
ENDCHAR
STARTCHAR X
ENCODING 88
SWIDTH 611 0
DWIDTH 7 0
BBX 8 7 0 0
BITMAP
46
24
38
10
28
64
C2
ENDCHAR
STARTCHAR Y
ENCODING 89
SWIDTH 611 0
DWIDTH 7 0
BBX 7 7 0 0
BITMAP
C4
4C
28
30
10
10
10
ENDCHAR
STARTCHAR Z
ENCODING 90
SWIDTH 611 0
DWIDTH 7 0
BBX 7 7 0 0
BITMAP
7C
0C
08
10
20
60
7E
ENDCHAR
STARTCHAR [
ENCODING 91
SWIDTH 349 0
DWIDTH 4 0
BBX 4 10 0 -1
BITMAP
60
40
40
40
40
40
40
40
40
60
ENDCHAR
STARTCHAR \
ENCODING 92
SWIDTH 349 0
DWIDTH 4 0
BBX 4 9 0 -1
BITMAP
80
80
40
40
40
20
20
20
20
ENDCHAR
STARTCHAR ]
ENCODING 93
SWIDTH 349 0
DWIDTH 4 0
BBX 4 10 0 -1
BITMAP
E0
20
20
20
20
20
20
20
20
E0
ENDCHAR
STARTCHAR ^
ENCODING 94
SWIDTH 524 0
DWIDTH 6 0
BBX 6 7 0 0
BITMAP
30
28
48
00
00
00
00
ENDCHAR
STARTCHAR _
ENCODING 95
SWIDTH 524 0
DWIDTH 6 0
BBX 7 2 -1 -2
BITMAP
00
FC
ENDCHAR
STARTCHAR `
ENCODING 96
SWIDTH 436 0
DWIDTH 5 0
BBX 6 7 0 0
BITMAP
F8
88
88
88
88
88
F8
ENDCHAR
STARTCHAR a
ENCODING 97
SWIDTH 524 0
DWIDTH 6 0
BBX 6 5 0 0
BITMAP
70
08
78
48
78
ENDCHAR
STARTCHAR b
ENCODING 98
SWIDTH 611 0
DWIDTH 7 0
BBX 7 7 0 0
BITMAP
40
40
78
44
44
44
78
ENDCHAR
STARTCHAR c
ENCODING 99
SWIDTH 524 0
DWIDTH 6 0
BBX 6 5 0 0
BITMAP
30
48
40
40
38
ENDCHAR
STARTCHAR d
ENCODING 100
SWIDTH 611 0
DWIDTH 7 0
BBX 7 7 0 0
BITMAP
04
04
3C
44
44
44
3C
ENDCHAR
STARTCHAR e
ENCODING 101
SWIDTH 524 0
DWIDTH 6 0
BBX 6 5 0 0
BITMAP
38
48
7C
48
38
ENDCHAR
STARTCHAR f
ENCODING 102
SWIDTH 349 0
DWIDTH 4 0
BBX 5 7 0 0
BITMAP
30
40
F0
40
40
40
40
ENDCHAR
STARTCHAR g
ENCODING 103
SWIDTH 524 0
DWIDTH 6 0
BBX 6 7 0 -2
BITMAP
78
48
48
70
60
98
78
ENDCHAR
STARTCHAR h
ENCODING 104
SWIDTH 611 0
DWIDTH 7 0
BBX 7 7 0 0
BITMAP
40
40
78
44
44
44
44
ENDCHAR
STARTCHAR i
ENCODING 105
SWIDTH 262 0
DWIDTH 3 0
BBX 3 8 0 0
BITMAP
40
00
40
40
40
40
40
00
ENDCHAR
STARTCHAR j
ENCODING 106
SWIDTH 262 0
DWIDTH 3 0
BBX 4 9 -1 -2
BITMAP
40
00
40
40
40
40
40
40
C0
ENDCHAR
STARTCHAR k
ENCODING 107
SWIDTH 524 0
DWIDTH 6 0
BBX 6 7 0 0
BITMAP
40
40
48
70
60
50
48
ENDCHAR
STARTCHAR l
ENCODING 108
SWIDTH 349 0
DWIDTH 4 0
BBX 4 7 0 0
BITMAP
40
40
40
40
40
40
60
ENDCHAR
STARTCHAR m
ENCODING 109
SWIDTH 873 0
DWIDTH 10 0
BBX 10 5 0 0
BITMAP
7F80
4C80
4480
4480
4480
ENDCHAR
STARTCHAR n
ENCODING 110
SWIDTH 611 0
DWIDTH 7 0
BBX 7 5 0 0
BITMAP
78
44
44
44
44
ENDCHAR
STARTCHAR o
ENCODING 111
SWIDTH 611 0
DWIDTH 7 0
BBX 7 5 0 0
BITMAP
38
44
44
44
38
ENDCHAR
STARTCHAR p
ENCODING 112
SWIDTH 611 0
DWIDTH 7 0
BBX 7 7 0 -2
BITMAP
78
44
44
44
78
40
40
ENDCHAR
STARTCHAR q
ENCODING 113
SWIDTH 611 0
DWIDTH 7 0
BBX 7 7 0 -2
BITMAP
3C
44
44
44
3C
04
04
ENDCHAR
STARTCHAR r
ENCODING 114
SWIDTH 349 0
DWIDTH 4 0
BBX 5 5 0 0
BITMAP
70
40
40
40
40
ENDCHAR
STARTCHAR s
ENCODING 115
SWIDTH 436 0
DWIDTH 5 0
BBX 5 5 0 0
BITMAP
70
50
40
78
70
ENDCHAR
STARTCHAR t
ENCODING 116
SWIDTH 436 0
DWIDTH 5 0
BBX 5 6 0 0
BITMAP
40
F0
40
40
40
30
ENDCHAR
STARTCHAR u
ENCODING 117
SWIDTH 611 0
DWIDTH 7 0
BBX 7 5 0 0
BITMAP
44
44
44
44
3C
ENDCHAR
STARTCHAR v
ENCODING 118
SWIDTH 524 0
DWIDTH 6 0
BBX 6 5 0 0
BITMAP
CC
48
48
30
30
ENDCHAR
STARTCHAR w
ENCODING 119
SWIDTH 785 0
DWIDTH 9 0
BBX 10 5 0 0
BITMAP
C880
4C80
5500
3300
2300
ENDCHAR
STARTCHAR x
ENCODING 120
SWIDTH 524 0
DWIDTH 6 0
BBX 6 5 0 0
BITMAP
48
30
30
50
C8
ENDCHAR
STARTCHAR y
ENCODING 121
SWIDTH 524 0
DWIDTH 6 0
BBX 6 7 0 -2
BITMAP
CC
48
48
30
30
20
60
ENDCHAR
STARTCHAR z
ENCODING 122
SWIDTH 436 0
DWIDTH 5 0
BBX 5 5 0 0
BITMAP
78
10
20
40
78
ENDCHAR
STARTCHAR {
ENCODING 123
SWIDTH 349 0
DWIDTH 4 0
BBX 4 10 0 -1
BITMAP
30
40
40
40
40
40
40
40
20
30
ENDCHAR
STARTCHAR |
ENCODING 124
SWIDTH 262 0
DWIDTH 3 0
BBX 3 11 0 -3
BITMAP
40
40
40
40
40
40
40
40
40
40
40
ENDCHAR
STARTCHAR }
ENCODING 125
SWIDTH 349 0
DWIDTH 4 0
BBX 4 10 0 -1
BITMAP
C0
40
40
20
20
20
40
40
40
C0
ENDCHAR
STARTCHAR ~
ENCODING 126
SWIDTH 524 0
DWIDTH 6 0
BBX 6 5 0 0
BITMAP
68
58
00
00
00
ENDCHAR
STARTCHAR U+00A0
ENCODING 160
SWIDTH 262 0
DWIDTH 3 0
BBX 3 13 0 -3
BITMAP
00
00
00
00
00
00
00
00
00
00
00
00
00
ENDCHAR
STARTCHAR U+00A1
ENCODING 161
SWIDTH 262 0
DWIDTH 3 0
BBX 3 8 0 -2
BITMAP
40
40
40
40
40
40
40
00
ENDCHAR
STARTCHAR U+00A2
ENCODING 162
SWIDTH 524 0
DWIDTH 6 0
BBX 6 7 0 -1
BITMAP
10
38
40
40
40
38
10
ENDCHAR
STARTCHAR U+00A3
ENCODING 163
SWIDTH 524 0
DWIDTH 6 0
BBX 6 7 0 0
BITMAP
38
28
20
70
40
40
78
ENDCHAR
STARTCHAR U+00A4
ENCODING 164
SWIDTH 611 0
DWIDTH 7 0
BBX 7 6 0 0
BITMAP
44
7C
4C
4C
7C
44
ENDCHAR
STARTCHAR U+00A5
ENCODING 165
SWIDTH 611 0
DWIDTH 7 0
BBX 7 7 0 0
BITMAP
44
48
6C
10
7C
10
10
ENDCHAR
STARTCHAR U+00A6
ENCODING 166
SWIDTH 262 0
DWIDTH 3 0
BBX 3 11 0 -3
BITMAP
40
40
40
40
00
00
00
40
40
40
40
ENDCHAR
STARTCHAR U+00A7
ENCODING 167
SWIDTH 436 0
DWIDTH 5 0
BBX 5 9 0 -2
BITMAP
70
48
40
70
88
78
18
C8
70
ENDCHAR
STARTCHAR U+00A8
ENCODING 168
SWIDTH 436 0
DWIDTH 5 0
BBX 6 7 0 0
BITMAP
F8
88
88
88
88
88
F8
ENDCHAR
STARTCHAR U+00A9
ENCODING 169
SWIDTH 785 0
DWIDTH 9 0
BBX 9 7 0 0
BITMAP
3C00
5F00
6100
6100
5D00
4300
3C00
ENDCHAR
STARTCHAR U+00AA
ENCODING 170
SWIDTH 262 0
DWIDTH 3 0
BBX 3 7 0 0
BITMAP
60
60
E0
00
00
00
00
ENDCHAR
STARTCHAR U+00AB
ENCODING 171
SWIDTH 524 0
DWIDTH 6 0
BBX 6 6 0 0
BITMAP
28
50
50
50
28
00
ENDCHAR
STARTCHAR U+00AC
ENCODING 172
SWIDTH 524 0
DWIDTH 6 0
BBX 6 5 0 0
BITMAP
78
08
08
00
00
ENDCHAR
STARTCHAR U+00AD
ENCODING 173
SWIDTH 349 0
DWIDTH 4 0
BBX 4 3 0 0
BITMAP
F0
00
00
ENDCHAR
STARTCHAR U+00AE
ENCODING 174
SWIDTH 785 0
DWIDTH 9 0
BBX 9 7 0 0
BITMAP
3C00
5F00
5500
5D00
5500
4300
3C00
ENDCHAR
STARTCHAR U+00AF
ENCODING 175
SWIDTH 436 0
DWIDTH 5 0
BBX 6 7 0 0
BITMAP
F8
88
88
88
88
88
F8
ENDCHAR
STARTCHAR U+00B0
ENCODING 176
SWIDTH 349 0
DWIDTH 4 0
BBX 4 7 0 0
BITMAP
60
50
60
00
00
00
00
ENDCHAR
STARTCHAR U+00B1
ENCODING 177
SWIDTH 524 0
DWIDTH 6 0
BBX 6 7 0 0
BITMAP
20
20
78
20
20
00
78
ENDCHAR
STARTCHAR U+00B2
ENCODING 178
SWIDTH 349 0
DWIDTH 4 0
BBX 4 7 0 0
BITMAP
60
A0
40
60
00
00
00
ENDCHAR
STARTCHAR U+00B3
ENCODING 179
SWIDTH 349 0
DWIDTH 4 0
BBX 4 7 0 0
BITMAP
E0
20
A0
60
00
00
00
ENDCHAR
STARTCHAR U+00B4
ENCODING 180
SWIDTH 436 0
DWIDTH 5 0
BBX 6 7 0 0
BITMAP
F8
88
88
88
88
88
F8
ENDCHAR
STARTCHAR U+00B5
ENCODING 181
SWIDTH 524 0
DWIDTH 6 0
BBX 6 7 0 -2
BITMAP
4C
4C
4C
4C
7C
40
40
ENDCHAR
STARTCHAR U+00B6
ENCODING 182
SWIDTH 524 0
DWIDTH 6 0
BBX 6 9 0 -2
BITMAP
7C
78
78
78
18
18
18
18
18
ENDCHAR
STARTCHAR U+00B7
ENCODING 183
SWIDTH 262 0
DWIDTH 3 0
BBX 3 4 0 0
BITMAP
40
40
00
00
ENDCHAR
STARTCHAR U+00B8
ENCODING 184
SWIDTH 436 0
DWIDTH 5 0
BBX 6 7 0 0
BITMAP
F8
88
88
88
88
88
F8
ENDCHAR
STARTCHAR U+00B9
ENCODING 185
SWIDTH 262 0
DWIDTH 3 0
BBX 3 7 0 0
BITMAP
40
40
40
40
00
00
00
ENDCHAR
STARTCHAR U+00BA
ENCODING 186
SWIDTH 349 0
DWIDTH 4 0
BBX 4 7 0 0
BITMAP
60
90
60
00
00
00
00
ENDCHAR
STARTCHAR U+00BB
ENCODING 187
SWIDTH 524 0
DWIDTH 6 0
BBX 6 6 0 0
BITMAP
50
28
24
28
50
00
ENDCHAR
STARTCHAR U+00BC
ENCODING 188
SWIDTH 785 0
DWIDTH 9 0
BBX 9 7 0 0
BITMAP
4200
4400
4400
4900
0B00
1500
2700
ENDCHAR
STARTCHAR U+00BD
ENCODING 189
SWIDTH 785 0
DWIDTH 9 0
BBX 9 7 0 0
BITMAP
0000
0000
0000
0000
0000
0000
0000
ENDCHAR
STARTCHAR U+00BE
ENCODING 190
SWIDTH 873 0
DWIDTH 10 0
BBX 10 7 0 0
BITMAP
E200
2400
A400
6880
0980
1280
2380
ENDCHAR
STARTCHAR U+00BF
ENCODING 191
SWIDTH 436 0
DWIDTH 5 0
BBX 5 8 0 -2
BITMAP
20
20
20
10
60
40
48
70
ENDCHAR
STARTCHAR U+00C0
ENCODING 192
SWIDTH 611 0
DWIDTH 7 0
BBX 8 10 0 0
BITMAP
10
10
00
10
18
28
24
7C
46
C2
ENDCHAR
STARTCHAR U+00C1
ENCODING 193
SWIDTH 611 0
DWIDTH 7 0
BBX 8 10 0 0
BITMAP
08
08
00
10
18
28
24
7C
46
C2
ENDCHAR
STARTCHAR U+00C2
ENCODING 194
SWIDTH 611 0
DWIDTH 7 0
BBX 8 10 0 0
BITMAP
18
18
00
10
18
28
24
7C
46
C2
ENDCHAR
STARTCHAR U+00C3
ENCODING 195
SWIDTH 611 0
DWIDTH 7 0
BBX 8 10 0 0
BITMAP
34
28
00
10
18
28
24
7C
46
C2
ENDCHAR
STARTCHAR U+00C4
ENCODING 196
SWIDTH 611 0
DWIDTH 7 0
BBX 8 10 0 0
BITMAP
28
28
00
10
18
28
24
7C
46
C2
ENDCHAR
STARTCHAR U+00C5
ENCODING 197
SWIDTH 611 0
DWIDTH 7 0
BBX 8 10 0 0
BITMAP
38
28
10
10
18
28
24
7C
46
C2
ENDCHAR
STARTCHAR U+00C6
ENCODING 198
SWIDTH 873 0
DWIDTH 10 0
BBX 10 7 0 0
BITMAP
0FC0
1C00
1400
3780
3C00
4400
C7C0
ENDCHAR
STARTCHAR U+00C7
ENCODING 199
SWIDTH 698 0
DWIDTH 8 0
BBX 8 10 0 -3
BITMAP
1C
62
40
40
40
62
1C
10
08
18
ENDCHAR
STARTCHAR U+00C8
ENCODING 200
SWIDTH 524 0
DWIDTH 6 0
BBX 6 10 0 0
BITMAP
20
20
00
7C
40
40
78
40
40
7C
ENDCHAR
STARTCHAR U+00C9
ENCODING 201
SWIDTH 524 0
DWIDTH 6 0
BBX 6 10 0 0
BITMAP
10
10
00
7C
40
40
78
40
40
7C
ENDCHAR
STARTCHAR U+00CA
ENCODING 202
SWIDTH 524 0
DWIDTH 6 0
BBX 6 10 0 0
BITMAP
30
30
00
7C
40
40
78
40
40
7C
ENDCHAR
STARTCHAR U+00CB
ENCODING 203
SWIDTH 524 0
DWIDTH 6 0
BBX 6 10 0 0
BITMAP
50
50
00
7C
40
40
78
40
40
7C
ENDCHAR
STARTCHAR U+00CC
ENCODING 204
SWIDTH 262 0
DWIDTH 3 0
BBX 3 10 0 0
BITMAP
40
40
00
40
40
40
40
40
40
40
ENDCHAR
STARTCHAR U+00CD
ENCODING 205
SWIDTH 262 0
DWIDTH 3 0
BBX 4 10 0 0
BITMAP
00
00
00
00
00
00
00
00
00
00
ENDCHAR
STARTCHAR U+00CE
ENCODING 206
SWIDTH 262 0
DWIDTH 3 0
BBX 4 10 0 0
BITMAP
60
60
00
40
40
40
40
40
40
40
ENDCHAR
STARTCHAR U+00CF
ENCODING 207
SWIDTH 262 0
DWIDTH 3 0
BBX 5 10 -1 0
BITMAP
00
00
00
00
00
00
00
00
00
00
ENDCHAR
STARTCHAR U+00D0
ENCODING 208
SWIDTH 698 0
DWIDTH 8 0
BBX 8 7 0 0
BITMAP
7C
46
42
F2
42
46
78
ENDCHAR
STARTCHAR U+00D1
ENCODING 209
SWIDTH 785 0
DWIDTH 9 0
BBX 9 10 0 0
BITMAP
3400
2800
0000
4300
6300
5300
4B00
4F00
4700
4300
ENDCHAR
STARTCHAR U+00D2
ENCODING 210
SWIDTH 785 0
DWIDTH 9 0
BBX 9 10 0 0
BITMAP
0800
0800
0000
1E00
6300
4100
4100
4100
6300
1E00
ENDCHAR
STARTCHAR U+00D3
ENCODING 211
SWIDTH 785 0
DWIDTH 9 0
BBX 9 10 0 0
BITMAP
0800
0800
0000
1E00
6300
4100
4100
4100
6300
1E00
ENDCHAR
STARTCHAR U+00D4
ENCODING 212
SWIDTH 785 0
DWIDTH 9 0
BBX 9 10 0 0
BITMAP
1800
1800
0000
1E00
6300
4100
4100
4100
6300
1E00
ENDCHAR
STARTCHAR U+00D5
ENCODING 213
SWIDTH 785 0
DWIDTH 9 0
BBX 9 10 0 0
BITMAP
3400
2800
0000
1E00
6300
4100
4100
4100
6300
1E00
ENDCHAR
STARTCHAR U+00D6
ENCODING 214
SWIDTH 785 0
DWIDTH 9 0
BBX 9 10 0 0
BITMAP
1400
1400
0000
1E00
6300
4100
4100
4100
6300
1E00
ENDCHAR
STARTCHAR U+00D7
ENCODING 215
SWIDTH 524 0
DWIDTH 6 0
BBX 6 6 0 0
BITMAP
48
30
30
48
00
00
ENDCHAR
STARTCHAR U+00D8
ENCODING 216
SWIDTH 785 0
DWIDTH 9 0
BBX 9 7 0 0
BITMAP
1F00
6300
4500
4900
5100
6300
7E00
ENDCHAR
STARTCHAR U+00D9
ENCODING 217
SWIDTH 785 0
DWIDTH 9 0
BBX 9 10 0 0
BITMAP
1000
1000
0000
4300
4300
4300
4300
4300
6200
3C00
ENDCHAR
STARTCHAR U+00DA
ENCODING 218
SWIDTH 785 0
DWIDTH 9 0
BBX 9 10 0 0
BITMAP
0800
0800
0000
4300
4300
4300
4300
4300
6200
3C00
ENDCHAR
STARTCHAR U+00DB
ENCODING 219
SWIDTH 785 0
DWIDTH 9 0
BBX 9 10 0 0
BITMAP
1800
1800
0000
4300
4300
4300
4300
4300
6200
3C00
ENDCHAR
STARTCHAR U+00DC
ENCODING 220
SWIDTH 785 0
DWIDTH 9 0
BBX 9 10 0 0
BITMAP
2800
2800
0000
4300
4300
4300
4300
4300
6200
3C00
ENDCHAR
STARTCHAR U+00DD
ENCODING 221
SWIDTH 611 0
DWIDTH 7 0
BBX 7 10 0 0
BITMAP
10
10
00
C4
4C
28
30
10
10
10
ENDCHAR
STARTCHAR U+00DE
ENCODING 222
SWIDTH 524 0
DWIDTH 6 0
BBX 6 7 0 0
BITMAP
40
78
44
44
44
78
40
ENDCHAR
STARTCHAR U+00DF
ENCODING 223
SWIDTH 524 0
DWIDTH 6 0
BBX 6 7 0 0
BITMAP
38
48
48
50
4C
4C
58
ENDCHAR
STARTCHAR U+00E0
ENCODING 224
SWIDTH 524 0
DWIDTH 6 0
BBX 6 8 0 0
BITMAP
20
20
00
70
08
78
48
78
ENDCHAR
STARTCHAR U+00E1
ENCODING 225
SWIDTH 524 0
DWIDTH 6 0
BBX 6 8 0 0
BITMAP
10
10
00
70
08
78
48
78
ENDCHAR
STARTCHAR U+00E2
ENCODING 226
SWIDTH 524 0
DWIDTH 6 0
BBX 6 8 0 0
BITMAP
30
30
00
70
08
78
48
78
ENDCHAR
STARTCHAR U+00E3
ENCODING 227
SWIDTH 524 0
DWIDTH 6 0
BBX 6 8 0 0
BITMAP
68
50
00
70
08
78
48
78
ENDCHAR
STARTCHAR U+00E4
ENCODING 228
SWIDTH 524 0
DWIDTH 6 0
BBX 6 8 0 0
BITMAP
50
50
00
70
08
78
48
78
ENDCHAR
STARTCHAR U+00E5
ENCODING 229
SWIDTH 524 0
DWIDTH 6 0
BBX 6 8 0 0
BITMAP
70
50
20
70
08
78
48
78
ENDCHAR
STARTCHAR U+00E6
ENCODING 230
SWIDTH 785 0
DWIDTH 9 0
BBX 9 5 0 0
BITMAP
7700
0900
7F80
4880
7F00
ENDCHAR
STARTCHAR U+00E7
ENCODING 231
SWIDTH 524 0
DWIDTH 6 0
BBX 6 8 0 -3
BITMAP
30
48
40
40
38
10
18
30
ENDCHAR
STARTCHAR U+00E8
ENCODING 232
SWIDTH 524 0
DWIDTH 6 0
BBX 6 8 0 0
BITMAP
20
20
00
38
48
7C
48
38
ENDCHAR
STARTCHAR U+00E9
ENCODING 233
SWIDTH 524 0
DWIDTH 6 0
BBX 6 8 0 0
BITMAP
10
10
00
38
48
7C
48
38
ENDCHAR
STARTCHAR U+00EA
ENCODING 234
SWIDTH 524 0
DWIDTH 6 0
BBX 6 8 0 0
BITMAP
30
30
00
38
48
7C
48
38
ENDCHAR
STARTCHAR U+00EB
ENCODING 235
SWIDTH 524 0
DWIDTH 6 0
BBX 6 8 0 0
BITMAP
50
50
00
38
48
7C
48
38
ENDCHAR
STARTCHAR U+00EC
ENCODING 236
SWIDTH 262 0
DWIDTH 3 0
BBX 4 8 -1 0
BITMAP
00
00
00
00
00
00
00
00
ENDCHAR
STARTCHAR U+00ED
ENCODING 237
SWIDTH 262 0
DWIDTH 3 0
BBX 3 8 0 0
BITMAP
40
40
00
40
40
40
40
40
ENDCHAR
STARTCHAR U+00EE
ENCODING 238
SWIDTH 262 0
DWIDTH 3 0
BBX 5 8 -1 0
BITMAP
00
00
00
00
00
00
00
00
ENDCHAR
STARTCHAR U+00EF
ENCODING 239
SWIDTH 262 0
DWIDTH 3 0
BBX 5 8 -1 0
BITMAP
00
00
00
00
00
00
00
00
ENDCHAR
STARTCHAR U+00F0
ENCODING 240
SWIDTH 524 0
DWIDTH 6 0
BBX 6 7 0 0
BITMAP
78
70
38
48
4C
48
78
ENDCHAR
STARTCHAR U+00F1
ENCODING 241
SWIDTH 611 0
DWIDTH 7 0
BBX 7 8 0 0
BITMAP
68
50
00
78
44
44
44
44
ENDCHAR
STARTCHAR U+00F2
ENCODING 242
SWIDTH 611 0
DWIDTH 7 0
BBX 7 8 0 0
BITMAP
10
10
00
38
44
44
44
38
ENDCHAR
STARTCHAR U+00F3
ENCODING 243
SWIDTH 611 0
DWIDTH 7 0
BBX 7 8 0 0
BITMAP
10
10
00
38
44
44
44
38
ENDCHAR
STARTCHAR U+00F4
ENCODING 244
SWIDTH 611 0
DWIDTH 7 0
BBX 7 8 0 0
BITMAP
30
30
00
38
44
44
44
38
ENDCHAR
STARTCHAR U+00F5
ENCODING 245
SWIDTH 611 0
DWIDTH 7 0
BBX 7 8 0 0
BITMAP
68
50
00
38
44
44
44
38
ENDCHAR
STARTCHAR U+00F6
ENCODING 246
SWIDTH 611 0
DWIDTH 7 0
BBX 7 8 0 0
BITMAP
28
28
00
38
44
44
44
38
ENDCHAR
STARTCHAR U+00F7
ENCODING 247
SWIDTH 524 0
DWIDTH 6 0
BBX 6 6 0 0
BITMAP
10
10
78
00
10
10
ENDCHAR
STARTCHAR U+00F8
ENCODING 248
SWIDTH 611 0
DWIDTH 7 0
BBX 7 5 0 0
BITMAP
3C
4C
54
64
78
ENDCHAR
STARTCHAR U+00F9
ENCODING 249
SWIDTH 611 0
DWIDTH 7 0
BBX 7 8 0 0
BITMAP
20
20
00
44
44
44
44
3C
ENDCHAR
STARTCHAR U+00FA
ENCODING 250
SWIDTH 611 0
DWIDTH 7 0
BBX 7 8 0 0
BITMAP
10
10
00
44
44
44
44
3C
ENDCHAR
STARTCHAR U+00FB
ENCODING 251
SWIDTH 611 0
DWIDTH 7 0
BBX 7 8 0 0
BITMAP
30
30
00
44
44
44
44
3C
ENDCHAR
STARTCHAR U+00FC
ENCODING 252
SWIDTH 611 0
DWIDTH 7 0
BBX 7 8 0 0
BITMAP
50
50
00
44
44
44
44
3C
ENDCHAR
STARTCHAR U+00FD
ENCODING 253
SWIDTH 524 0
DWIDTH 6 0
BBX 6 10 0 -2
BITMAP
10
10
00
CC
48
48
30
30
20
60
ENDCHAR
STARTCHAR U+00FE
ENCODING 254
SWIDTH 611 0
DWIDTH 7 0
BBX 7 9 0 -2
BITMAP
40
40
78
44
44
44
78
40
40
ENDCHAR
STARTCHAR U+00FF
ENCODING 255
SWIDTH 524 0
DWIDTH 6 0
BBX 6 10 0 -2
BITMAP
50
50
00
CC
48
48
30
30
20
60
ENDCHAR
STARTCHAR U+2013
ENCODING 8211
SWIDTH 524 0
DWIDTH 6 0
BBX 7 3 -1 0
BITMAP
FC
00
00
ENDCHAR
STARTCHAR U+2014
ENCODING 8212
SWIDTH 960 0
DWIDTH 11 0
BBX 13 3 -1 0
BITMAP
FFE0
0000
0000
ENDCHAR
STARTCHAR U+2018
ENCODING 8216
SWIDTH 262 0
DWIDTH 3 0
BBX 3 7 0 0
BITMAP
40
40
00
00
00
00
00
ENDCHAR
STARTCHAR U+2019
ENCODING 8217
SWIDTH 262 0
DWIDTH 3 0
BBX 3 7 0 0
BITMAP
40
40
00
00
00
00
00
ENDCHAR
STARTCHAR U+201C
ENCODING 8220
SWIDTH 349 0
DWIDTH 4 0
BBX 4 7 0 0
BITMAP
40
70
00
00
00
00
00
ENDCHAR
STARTCHAR U+201D
ENCODING 8221
SWIDTH 349 0
DWIDTH 4 0
BBX 4 7 0 0
BITMAP
50
50
00
00
00
00
00
ENDCHAR
STARTCHAR U+2022
ENCODING 8226
SWIDTH 436 0
DWIDTH 5 0
BBX 5 5 0 0
BITMAP
20
70
20
00
00
ENDCHAR
STARTCHAR U+2026
ENCODING 8230
SWIDTH 873 0
DWIDTH 10 0
BBX 10 1 0 0
BITMAP
4480
ENDCHAR
STARTCHAR U+20AC
ENCODING 8364
SWIDTH 611 0
DWIDTH 7 0
BBX 7 7 0 0
BITMAP
3C
64
F8
40
F8
60
3C
ENDCHAR
ENDFONT
