STARTFONT 2.1
COMMENT Converted from Johnston100 W03 Regular.ttf at 46px with ttf2bdf.py (Pillow, 1-bit, no AA)
FONT -Misc-Johnston100-Medium-R-Normal--46-460-75-75-P-480-ISO10646-1
SIZE 46 75 75
FONTBOUNDINGBOX 48 53 -2 -12
STARTPROPERTIES 9
FOUNDRY "Misc"
FAMILY_NAME "Johnston100"
WEIGHT_NAME "Medium"
SLANT "R"
PIXEL_SIZE 46
RESOLUTION_X 75
RESOLUTION_Y 75
FONT_ASCENT 41
FONT_DESCENT 12
ENDPROPERTIES
CHARS 200
STARTCHAR space
ENCODING 32
SWIDTH 250 0
DWIDTH 12 0
BBX 12 53 0 -12
BITMAP
0000
0000
0000
0000
0000
0000
0000
0000
0000
0000
0000
0000
0000
0000
0000
0000
0000
0000
0000
0000
0000
0000
0000
0000
0000
0000
0000
0000
0000
0000
0000
0000
0000
0000
0000
0000
0000
0000
0000
0000
0000
0000
0000
0000
0000
0000
0000
0000
0000
0000
0000
0000
0000
ENDCHAR
STARTCHAR !
ENCODING 33
SWIDTH 271 0
DWIDTH 13 0
BBX 13 31 0 0
BITMAP
0F80
0F80
0F80
0F80
0F80
0F80
0F80
0F80
0F80
0F80
0F80
0F80
0F80
0F80
0780
0780
0780
0700
0700
0700
0700
0700
0700
0700
0000
0200
0700
0F80
0F80
0700
0200
ENDCHAR
STARTCHAR "
ENCODING 34
SWIDTH 397 0
DWIDTH 19 0
BBX 19 31 0 0
BITMAP
1E1F00
1E1F00
1E1F00
1E1F00
1E1F00
1E1F00
1E0F00
0E0E00
0E0E00
0E0E00
0E0E00
0C0600
000000
000000
000000
000000
000000
000000
000000
000000
000000
000000
000000
000000
000000
000000
000000
000000
000000
000000
000000
ENDCHAR
STARTCHAR U+0023
ENCODING 35
SWIDTH 730 0
DWIDTH 35 0
BBX 35 31 0 0
BITMAP
0000400800
0003C07800
0003C07800
0003C07000
000780F000
000780F000
000780E000
000701E000
000F01E000
07FFFFFF80
07FFFFFF80
07FFFFFF80
0FFFFFFF80
001E038000
001C078000
003C078000
003C078000
0038070000
00780F0000
3FFFFFFE00
3FFFFFFC00
3FFFFFFC00
7FFFFFFC00
00F01E0000
00E01C0000
01E03C0000
01E03C0000
01E0380000
01C0780000
03C0780000
0200400000
ENDCHAR
STARTCHAR $
ENCODING 36
SWIDTH 480 0
DWIDTH 23 0
BBX 23 38 0 -4
BITMAP
007800
007800
007800
01FE00
03FF80
07FFC0
0FFFE0
1F87C0
1F0180
1F0000
1F0000
1F0000
1F8000
1FC000
0FF000
07FC00
03FF00
01FFC0
007FE0
001FF0
0007F0
0001F8
0000F8
0000F8
0000F8
000078
1800F8
3C00F8
3E01F8
3F83F0
1FFFE0
0FFFC0
07FF80
01FE00
007800
007800
007800
000000
ENDCHAR
STARTCHAR %
ENCODING 37
SWIDTH 710 0
DWIDTH 34 0
BBX 34 31 0 0
BITMAP
03F001E000
07F801C000
0FFC03C000
1FFE038000
1E1E078000
3C0F070000
3C0F0F0000
3C0F1E0000
1E1E1E0000
1FFE3C0000
0FFC3C0000
07F8780000
03F0780000
0000F00000
0000F00000
0001E00000
0001E00000
0003C00000
0003C1F000
000787FC00
00078FFE00
000F1FFE00
000F1E1F00
001E1C0F00
001C1C0F00
003C1C0F00
00381E1F00
00781FFE00
00700FFE00
00F007FC00
00E001F000
ENDCHAR
STARTCHAR &
ENCODING 38
SWIDTH 647 0
DWIDTH 31 0
BBX 31 31 0 0
BITMAP
003F8000
00FFE000
01FFF000
03FFF000
03E1F800
07C0F800
07C07800
07C07800
07C07800
03E0F800
03F1F800
01F3F000
00FFE000
00FFC000
00FF0000
03FF00F8
07FF80F0
0FEFC1F0
1F87E1E0
1F03F3E0
3E01FFC0
3E00FFC0
3E007F80
3E003F00
3E003F80
1F007FC0
1F81FFE0
0FFFFFF0
07FFE3F0
03FFC1F8
00FE00FC
ENDCHAR
STARTCHAR '
ENCODING 39
SWIDTH 230 0
DWIDTH 11 0
BBX 11 31 0 0
BITMAP
1E00
1E00
1E00
1E00
1E00
1E00
1E00
0E00
0E00
0E00
0E00
0C00
0000
0000
0000
0000
0000
0000
0000
0000
0000
0000
0000
0000
0000
0000
0000
0000
0000
0000
0000
ENDCHAR
STARTCHAR (
ENCODING 40
SWIDTH 250 0
DWIDTH 12 0
BBX 12 37 0 -3
BITMAP
01E0
03C0
03C0
0780
0780
0780
0F00
0F00
0F00
0F00
1E00
1E00
1E00
1E00
1E00
1E00
1E00
1E00
1E00
1E00
1E00
1E00
1E00
1E00
1E00
1E00
1E00
1F00
0F00
0F00
0F00
0780
0780
0780
03C0
03C0
01E0
ENDCHAR
STARTCHAR )
ENCODING 41
SWIDTH 250 0
DWIDTH 12 0
BBX 12 37 0 -3
BITMAP
3C00
3C00
3C00
1E00
1E00
1F00
0F00
0F00
0F00
0F80
0780
0780
0780
0780
0780
0780
0780
0780
0780
0780
0780
0780
0780
0780
0780
0780
0780
0F80
0F00
0F00
0F00
1F00
1E00
1E00
3C00
3C00
3C00
ENDCHAR
STARTCHAR *
ENCODING 42
SWIDTH 397 0
DWIDTH 19 0
BBX 19 31 0 0
BITMAP
01E000
00E000
00E000
10E300
38E700
3EEF80
1FDF00
07FC00
01F000
07F800
1FDE00
3CEF80
38E700
10E100
00E000
01E000
000000
000000
000000
000000
000000
000000
000000
000000
000000
000000
000000
000000
000000
000000
000000
ENDCHAR
STARTCHAR +
ENCODING 43
SWIDTH 522 0
DWIDTH 25 0
BBX 25 24 0 0
BITMAP
003C0000
003C0000
003C0000
003C0000
003C0000
003C0000
003C0000
1FFFFC00
1FFFFC00
1FFFFC00
1FFFFC00
003C0000
003C0000
003C0000
003C0000
003C0000
003C0000
003C0000
00000000
00000000
00000000
00000000
00000000
00000000
ENDCHAR
STARTCHAR ,
ENCODING 44
SWIDTH 230 0
DWIDTH 11 0
BBX 11 12 0 -5
BITMAP
0400
0E00
1F00
1F00
0F00
0F00
0700
0600
0C00
0800
1000
0000
ENDCHAR
STARTCHAR -
ENCODING 45
SWIDTH 376 0
DWIDTH 18 0
BBX 18 15 0 0
BITMAP
3FFF00
3FFF00
3FFF00
3FFF00
000000
000000
000000
000000
000000
000000
000000
000000
000000
000000
000000
ENDCHAR
STARTCHAR .
ENCODING 46
SWIDTH 230 0
DWIDTH 11 0
BBX 11 6 0 0
BITMAP
0400
0F00
1F80
1F00
0E00
0400
ENDCHAR
STARTCHAR /
ENCODING 47
SWIDTH 313 0
DWIDTH 15 0
BBX 15 37 0 -3
BITMAP
001E
003C
003C
003C
007C
0078
0078
0078
00F0
00F0
00F0
01E0
01E0
01E0
01E0
03C0
03C0
03C0
0780
0780
0780
0F80
0F00
0F00
0F00
1E00
1E00
1E00
3E00
3C00
3C00
3C00
7800
7800
7800
F000
F000
ENDCHAR
STARTCHAR 0
ENCODING 48
SWIDTH 563 0
DWIDTH 27 0
BBX 27 31 0 0
BITMAP
003F0000
00FFC000
01FFE000
03FFF000
03E1F800
07C07C00
07807C00
0F803C00
0F803E00
0F003E00
1F001E00
1F001E00
1F001E00
1F001F00
1F001F00
1F001F00
1F001F00
1F001F00
1F001E00
1F001E00
1F001E00
0F003E00
0F803E00
0F803C00
07807C00
07C07C00
03E1F800
03FFF000
01FFE000
00FFC000
003F0000
ENDCHAR
STARTCHAR 1
ENCODING 49
SWIDTH 292 0
DWIDTH 14 0
BBX 14 31 0 0
BITMAP
0080
0380
0780
0F80
0F80
0F80
0F80
0F80
0F80
0F80
0F80
0F80
0F80
0F80
0F80
0F80
0F80
0F80
0F80
0F80
0F80
0F80
0F80
0F80
0F80
0F80
0F80
0F80
0F80
0F80
0F80
ENDCHAR
STARTCHAR 2
ENCODING 50
SWIDTH 480 0
DWIDTH 23 0
BBX 23 31 0 0
BITMAP
00FE00
03FF80
07FFC0
0FFFE0
0F83F0
0E01F0
0C00F0
0800F8
1000F8
0000F8
0000F0
0001F0
0001F0
0003E0
0003E0
0007C0
000FC0
000F80
001F80
003F00
003E00
007E00
00FC00
00F800
01F800
03F000
03E000
07FFF8
0FFFF8
0FFFF8
1FFFF8
ENDCHAR
STARTCHAR 3
ENCODING 51
SWIDTH 501 0
DWIDTH 24 0
BBX 24 31 0 0
BITMAP
3FFFF8
3FFFF8
3FFFF0
3FFFF0
0003E0
0007C0
000FC0
000F80
001F00
001F00
003E00
007E00
007FC0
00FFE0
01FFF0
0007F8
0001F8
0000FC
00007C
00007C
00007C
00007C
00007C
00007C
0800F8
1C01F8
3F03F0
3FFFE0
1FFFC0
07FF80
01FC00
ENDCHAR
STARTCHAR 4
ENCODING 52
SWIDTH 563 0
DWIDTH 27 0
BBX 27 31 0 0
BITMAP
00000000
00000800
00001800
00003800
00007800
00007800
0000F800
0001F800
0003F800
0007F800
000FF800
001F7800
001E7800
003C7800
00787800
00F87800
01F07800
03E07800
03C07800
07807800
0FFFFF80
1FFFFF80
3FFFFF80
7FFFFF80
00007800
00007800
00007800
00007800
00007800
00007800
00007800
ENDCHAR
STARTCHAR 5
ENCODING 53
SWIDTH 501 0
DWIDTH 24 0
BBX 24 31 0 0
BITMAP
07FFF8
07FFF8
07FFF0
07FFF0
078000
078000
078000
078000
0F8000
0F8000
0F8000
0FFC00
0FFF00
0FFFC0
0FFFE0
0C0FE0
0003F0
0001F0
0000F8
0000F8
0000F8
0000F8
0000F8
0000F8
2001F0
7803F0
FE07E0
7FFFC0
3FFF80
0FFF00
03FC00
ENDCHAR
STARTCHAR 6
ENCODING 54
SWIDTH 522 0
DWIDTH 25 0
BBX 25 31 0 0
BITMAP
0007E000
000FC000
001F0000
003E0000
007C0000
00F80000
01F00000
01F00000
03E00000
03C00000
07C00000
07FF8000
0FFFE000
0FFFF800
0FFFF800
1FC0FC00
1F007E00
1F003E00
1F003E00
1F001E00
1F001E00
1F001E00
1F001E00
1F003E00
0F803E00
0FC07C00
07E0FC00
07FFF800
03FFF000
00FFE000
003F8000
ENDCHAR
STARTCHAR 7
ENCODING 55
SWIDTH 480 0
DWIDTH 23 0
BBX 23 31 0 0
BITMAP
1FFFFC
1FFFF8
1FFFF8
1FFFF8
0001F0
0001F0
0003E0
0003E0
0007C0
0007C0
000F80
000F80
000F00
001F00
001F00
003E00
003E00
007C00
007C00
00F800
00F800
01F000
01F000
01F000
03E000
03E000
07C000
07C000
0F8000
0F8000
1F0000
ENDCHAR
STARTCHAR 8
ENCODING 56
SWIDTH 501 0
DWIDTH 24 0
BBX 24 31 0 0
BITMAP
007F00
01FFC0
03FFE0
07FFF0
07C3F0
0F80F0
0F00F8
0F00F8
0F00F8
0F80F0
0FC1F0
07E3E0
03FFC0
01FF80
00FF80
03FFE0
07FFF0
0FC3F8
1F80F8
1F007C
1E007C
3E003C
3E003C
3E003C
1E007C
1F00FC
1FC1F8
0FFFF0
07FFE0
03FFC0
007E00
ENDCHAR
STARTCHAR 9
ENCODING 57
SWIDTH 522 0
DWIDTH 25 0
BBX 25 31 0 0
BITMAP
00FE0000
03FF8000
07FFC000
0FFFE000
1F83F000
3E01F000
3E00F800
3C00F800
7C007800
7C007800
7C007800
7C007800
3C007800
3E007800
3F81F800
1FFFF800
0FFFF800
07FFF000
01FFF000
0001F000
0003E000
0003E000
0007C000
000FC000
000F8000
001F0000
003F0000
007E0000
00FC0000
01F80000
07F00000
ENDCHAR
STARTCHAR :
ENCODING 58
SWIDTH 271 0
DWIDTH 13 0
BBX 13 23 0 0
BITMAP
0200
0780
0FC0
0F80
0700
0200
0000
0000
0000
0000
0000
0000
0000
0000
0000
0000
0000
0200
0780
0FC0
0F80
0700
0200
ENDCHAR
STARTCHAR ;
ENCODING 59
SWIDTH 271 0
DWIDTH 13 0
BBX 13 28 0 -5
BITMAP
0200
0780
0FC0
0F80
0700
0200
0000
0000
0000
0000
0000
0000
0000
0000
0000
0000
0000
0100
0380
07C0
07C0
03C0
03C0
01C0
0180
0300
0200
0400
ENDCHAR
STARTCHAR U+003C
ENCODING 60
SWIDTH 522 0
DWIDTH 25 0
BBX 25 27 0 0
BITMAP
00000C00
00003C00
0000FC00
0003FC00
000FFC00
003FF000
00FFC000
03FE0000
0FF80000
1FE00000
1F800000
1FE00000
0FF00000
03FC0000
00FF0000
007FC000
001FF000
0007FC00
0001FC00
00007C00
00003C00
00000C00
00000000
00000000
00000000
00000000
00000000
ENDCHAR
STARTCHAR =
ENCODING 61
SWIDTH 522 0
DWIDTH 25 0
BBX 25 22 0 0
BITMAP
1FFFFC00
1FFFFC00
1FFFFC00
1FFFFC00
00000000
00000000
00000000
00000000
00000000
00000000
1FFFFC00
1FFFFC00
1FFFFC00
1FFFFC00
00000000
00000000
00000000
00000000
00000000
00000000
00000000
00000000
ENDCHAR
STARTCHAR U+003E
ENCODING 62
SWIDTH 522 0
DWIDTH 25 0
BBX 25 27 0 0
BITMAP
18000000
1E000000
1F800000
1FE00000
1FF80000
07FE0000
01FF8000
007FE000
001FF800
0003FC00
0000FC00
0003FC00
000FF800
003FE000
00FF8000
03FE0000
07F80000
1FF00000
1FC00000
1F000000
1C000000
10000000
00000000
00000000
00000000
00000000
00000000
ENDCHAR
STARTCHAR ?
ENCODING 63
SWIDTH 438 0
DWIDTH 21 0
BBX 21 31 0 0
BITMAP
03F800
0FFE00
3FFF00
7FFF80
7E0FC0
3807C0
1003C0
0003C0
0003C0
0007C0
000FC0
001F80
007F00
00FE00
01FC00
03F000
03E000
03C000
03E000
03F000
01F000
00E000
004000
000000
004000
00E000
01F000
03F000
01E000
00E000
004000
ENDCHAR
STARTCHAR @
ENCODING 64
SWIDTH 918 0
DWIDTH 44 0
BBX 44 40 0 -9
BITMAP
00003FF00000
0001FFFE0000
0007FFFF8000
001FFFFFE000
003FE00FF000
007F0001F800
00FC0000FC00
01F000003E00
03E000001F00
03C00FE20F00
07C07FFE0F00
0780FFFE0780
0F01F07E0780
0F03E01E0780
0F03C01E03C0
1E07801E03C0
1E07801E03C0
1E07803C03C0
1E0F003C03C0
1C0F003C03C0
1C0F003C0380
1C0F003C0380
1C0F003C0780
1E0F803C0780
1E07803C0F00
1E07C03C0F00
1E03E0FC3E00
1F01FFFFFE00
0F00FFFFFC00
0F803F9FF800
07800007E000
07C000000000
03E000000000
01F800000000
01FC00060000
00FF803E0000
003FFFFE0000
001FFFFE0000
0007FFF80000
00007FC00000
ENDCHAR
STARTCHAR A
ENCODING 65
SWIDTH 647 0
DWIDTH 31 0
BBX 31 31 0 0
BITMAP
00078000
0007C000
000FC000
000FE000
001FE000
001FF000
001FF000
003EF000
003CF800
007C7800
007C7C00
00787C00
00F83C00
00F83E00
01F01E00
01F01F00
01E01F00
03E00F00
03E00F80
07FFFF80
07FFFFC0
07FFFFC0
0FFFFFE0
0F8003E0
0F0001E0
1F0001F0
1F0001F0
3E0000F8
3E0000F8
3C0000F8
7C00007C
ENDCHAR
STARTCHAR B
ENCODING 66
SWIDTH 584 0
DWIDTH 28 0
BBX 28 31 0 0
BITMAP
0FFF0000
0FFFE000
0FFFF000
0FFFF800
0F81F800
0F80FC00
0F807C00
0F807C00
0F807C00
0F807C00
0F807C00
0F80F800
0F81F800
0FFFF000
0FFFF000
0FFFFC00
0FFFFE00
0F803F00
0F801F80
0F800F80
0F800780
0F8007C0
0F8007C0
0F800780
0F800F80
0F801F80
0F803F00
0FFFFF00
0FFFFE00
0FFFF800
0FFFE000
ENDCHAR
STARTCHAR C
ENCODING 67
SWIDTH 647 0
DWIDTH 31 0
BBX 31 31 0 0
BITMAP
0001FE00
000FFFC0
003FFFF0
007FFFF8
01FE01F8
03F80038
03E00008
07C00000
0FC00000
0F800000
1F000000
1F000000
1F000000
1F000000
1E000000
1E000000
1E000000
1F000000
1F000000
1F000000
1F800000
0F800000
0FC00000
07E00000
03F00008
03F80038
01FF01F8
007FFFF8
003FFFF0
000FFFC0
0001FE00
ENDCHAR
STARTCHAR D
ENCODING 68
SWIDTH 689 0
DWIDTH 33 0
BBX 33 31 0 0
BITMAP
0FFFC00000
0FFFFC0000
0FFFFF0000
0FFFFF8000
0F807FC000
0F800FE000
0F8003F000
0F8001F800
0F8000F800
0F8000FC00
0F80007C00
0F80007C00
0F80003E00
0F80003E00
0F80003E00
0F80003E00
0F80003E00
0F80003E00
0F80003E00
0F80007C00
0F80007C00
0F8000FC00
0F8000F800
0F8001F800
0F8003F000
0F800FE000
0F803FC000
0FFFFF8000
0FFFFF0000
0FFFF80000
0FFFC00000
ENDCHAR
STARTCHAR E
ENCODING 69
SWIDTH 563 0
DWIDTH 27 0
BBX 27 31 0 0
BITMAP
0FFFFF00
0FFFFF00
0FFFFF00
0FFFFF00
0F800000
0F800000
0F800000
0F800000
0F800000
0F800000
0F800000
0F800000
0FFFF000
0FFFF000
0FFFF000
0FFFF000
0F800000
0F800000
0F800000
0F800000
0F800000
0F800000
0F800000
0F800000
0F800000
0F800000
0F800000
0FFFFF80
0FFFFF80
0FFFFF80
0FFFFF80
ENDCHAR
STARTCHAR F
ENCODING 70
SWIDTH 501 0
DWIDTH 24 0
BBX 24 31 0 0
BITMAP
0FFFFE
0FFFFE
0FFFFE
0FFFFE
0F8000
0F8000
0F8000
0F8000
0F8000
0F8000
0F8000
0F8000
0FFFF0
0FFFF0
0FFFF0
0FFFF0
0F8000
0F8000
0F8000
0F8000
0F8000
0F8000
0F8000
0F8000
0F8000
0F8000
0F8000
0F8000
0F8000
0F8000
0F8000
ENDCHAR
STARTCHAR G
ENCODING 71
SWIDTH 710 0
DWIDTH 34 0
BBX 34 31 0 0
BITMAP
0001FF8000
000FFFF000
003FFFFC00
007FFFFC00
01FF00FC00
03F8003C00
03F0000400
07E0000000
0FC0000000
0F80000000
1F00000000
1F00000000
1F00000000
1F001FFC00
1E001FFC00
1E001FFC00
1E001FFC00
1F00003C00
1F00003C00
1F00003C00
1F80003C00
0F80003C00
0FC0003C00
07E0003C00
07F0003C00
03F8003C00
01FF00FC00
00FFFFFC00
003FFFFC00
000FFFF800
0001FF8000
ENDCHAR
STARTCHAR H
ENCODING 72
SWIDTH 710 0
DWIDTH 34 0
BBX 34 31 0 0
BITMAP
0F80007800
0F80007800
0F80007800
0F80007800
0F80007800
0F80007800
0F80007800
0F80007800
0F80007800
0F80007800
0F80007800
0F80007800
0FFFFFF800
0FFFFFF800
0FFFFFF800
0FFFFFF800
0F80007800
0F80007800
0F80007800
0F80007800
0F80007800
0F80007800
0F80007800
0F80007800
0F80007800
0F80007800
0F80007800
0F80007800
0F80007800
0F80007800
0F80007800
ENDCHAR
STARTCHAR I
ENCODING 73
SWIDTH 271 0
DWIDTH 13 0
BBX 13 31 0 0
BITMAP
0F80
0F80
0F80
0F80
0F80
0F80
0F80
0F80
0F80
0F80
0F80
0F80
0F80
0F80
0F80
0F80
0F80
0F80
0F80
0F80
0F80
0F80
0F80
0F80
0F80
0F80
0F80
0F80
0F80
0F80
0F80
ENDCHAR
STARTCHAR J
ENCODING 74
SWIDTH 459 0
DWIDTH 22 0
BBX 22 31 0 0
BITMAP
0007C0
0007C0
0007C0
0007C0
0007C0
0007C0
0007C0
0007C0
0007C0
0007C0
0007C0
0007C0
0007C0
0007C0
0007C0
0007C0
0007C0
0007C0
0007C0
0007C0
0007C0
0007C0
0007C0
0007C0
0807C0
3C0F80
7E1F80
3FFF00
1FFF00
0FFC00
03F000
ENDCHAR
STARTCHAR K
ENCODING 75
SWIDTH 605 0
DWIDTH 29 0
BBX 29 31 0 0
BITMAP
0F8007E0
0F800FC0
0F801F80
0F803F00
0F807E00
0F80FC00
0F81F800
0F83F000
0F87E000
0F9FC000
0FBF8000
0FFE0000
0FFC0000
0FF80000
0FFC0000
0FFE0000
0FBF0000
0FBF8000
0F9F8000
0F8FC000
0F87E000
0F83F000
0F81F800
0F80FC00
0F807E00
0F803F00
0F801F80
0F801FC0
0F800FC0
0F8007E0
0F8003F0
ENDCHAR
STARTCHAR L
ENCODING 76
SWIDTH 522 0
DWIDTH 25 0
BBX 25 31 0 0
BITMAP
0F800000
0F800000
0F800000
0F800000
0F800000
0F800000
0F800000
0F800000
0F800000
0F800000
0F800000
0F800000
0F800000
0F800000
0F800000
0F800000
0F800000
0F800000
0F800000
0F800000
0F800000
0F800000
0F800000
0F800000
0F800000
0F800000
0F800000
0FFFFF00
0FFFFF00
0FFFFF00
0FFFFF00
ENDCHAR
STARTCHAR M
ENCODING 77
SWIDTH 835 0
DWIDTH 40 0
BBX 40 31 0 0
BITMAP
0F800003E0
0FC00003E0
0FE00007E0
0FF0000FE0
0FF8001FE0
0FFC003FE0
0FFC007FE0
0FFE007DE0
0FBF00FDE0
0F9F81F9E0
0F8FC3F1E0
0F87E7E1E0
0F83EFC1E0
0F83FF81E0
0F81FF81E0
0F80FF01E0
0F807E01E0
0F803C01E0
0F803801E0
0F801001E0
0F800001E0
0F800001E0
0F800001E0
0F800001E0
0F800001E0
0F800001E0
0F800001E0
0F800001E0
0F800001E0
0F800001E0
0F800001E0
ENDCHAR
STARTCHAR N
ENCODING 78
SWIDTH 751 0
DWIDTH 36 0
BBX 36 31 0 0
BITMAP
0F80001E00
0FC0001E00
0FE0001E00
0FE0001E00
0FF0001E00
0FF8001E00
0FFC001E00
0FFC001E00
0FBE001E00
0FBF001E00
0F9F801E00
0F8FC01E00
0F87C01E00
0F87E01E00
0F83F01E00
0F81F81E00
0F80F81E00
0F807C1E00
0F807E1E00
0F803F1E00
0F801F9E00
0F800F9E00
0F800FDE00
0F8007FE00
0F8003FE00
0F8001FE00
0F8000FE00
0F8000FE00
0F80007E00
0F80003E00
0F80001E00
ENDCHAR
STARTCHAR O
ENCODING 79
SWIDTH 793 0
DWIDTH 38 0
BBX 38 31 0 0
BITMAP
0001FE0000
000FFFC000
003FFFF000
007FFFF800
01FE03FC00
03F8007E00
03E0003F00
07C0001F80
0FC0000F80
0F800007C0
1F000007C0
1F000003E0
1F000003E0
1F000003E0
1E000003E0
1E000003E0
1E000003E0
1F000003E0
1F000003E0
1F000003E0
1F000007C0
0F800007C0
0FC0000F80
07C0001F80
03F0003F00
03F8007E00
01FE03FC00
007FFFF800
003FFFF000
000FFFC000
0001FE0000
ENDCHAR
STARTCHAR P
ENCODING 80
SWIDTH 563 0
DWIDTH 27 0
BBX 27 31 0 0
BITMAP
0FFFC000
0FFFF800
0FFFFC00
0FFFFE00
0F807F00
0F801F00
0F801F80
0F800F80
0F800F80
0F800F80
0F800F80
0F800F80
0F801F80
0F801F00
0F807F00
0FFFFE00
0FFFFC00
0FFFF000
0FFFC000
0F800000
0F800000
0F800000
0F800000
0F800000
0F800000
0F800000
0F800000
0F800000
0F800000
0F800000
0F800000
ENDCHAR
STARTCHAR Q
ENCODING 81
SWIDTH 793 0
DWIDTH 38 0
BBX 38 32 0 -1
BITMAP
0001FE0000
000FFFC000
003FFFF000
007FFFF800
01FE03FC00
03F8007E00
03E0003F00
07C0001F80
0FC0000F80
0F800007C0
1F000007C0
1F000003E0
1F000003E0
1F000003E0
1E000003E0
1E000003E0
1E000003E0
1F000003E0
1F000003E0
1F000003E0
1F000087C0
0F8001E7C0
0FC003FF80
07C003FF80
03F001FF00
03F800FE00
01FE03FF00
007FFFFF80
003FFFFFC0
000FFFC7C0
0001FE0380
0000000100
ENDCHAR
STARTCHAR R
ENCODING 82
SWIDTH 584 0
DWIDTH 28 0
BBX 28 31 0 0
BITMAP
0FFF8000
0FFFE000
0FFFF800
0FFFFC00
0F81FC00
0F807E00
0F803E00
0F803E00
0F803E00
0F803E00
0F803E00
0F807E00
0F80FC00
0FFFFC00
0FFFF800
0FFFE000
0FFF8000
0F8FC000
0F87E000
0F83E000
0F83F000
0F81F800
0F80FC00
0F80FC00
0F807E00
0F803F00
0F801F00
0F801F80
0F800FC0
0F8007E0
0F8003E0
ENDCHAR
STARTCHAR S
ENCODING 83
SWIDTH 480 0
DWIDTH 23 0
BBX 23 31 0 0
BITMAP
00FE00
03FF80
07FFC0
0FFFE0
1F83C0
1F0100
1F0000
1F0000
1F0000
1F8000
1FC000
0FF000
07FC00
03FF00
01FFC0
007FE0
001FF0
0007F0
0001F8
0000F8
0000F8
0000F8
080078
1C00F8
7C00F8
3E01F0
3F83F0
1FFFE0
0FFFC0
03FF80
00FC00
ENDCHAR
STARTCHAR T
ENCODING 84
SWIDTH 563 0
DWIDTH 27 0
BBX 27 31 0 0
BITMAP
7FFFFF80
7FFFFF80
7FFFFF80
7FFFFF80
001F0000
001F0000
001F0000
001F0000
001F0000
001F0000
001F0000
001F0000
001F0000
001F0000
001F0000
001F0000
001F0000
001F0000
001F0000
001F0000
001F0000
001F0000
001F0000
001F0000
001F0000
001F0000
001F0000
001F0000
001F0000
001F0000
001F0000
ENDCHAR
STARTCHAR U
ENCODING 85
SWIDTH 751 0
DWIDTH 36 0
BBX 36 31 0 0
BITMAP
0F80001F00
0F80001F00
0F80001F00
0F80001F00
0F80001F00
0F80001F00
0F80001F00
0F80001F00
0F80001F00
0F80001F00
0F80001F00
0F80001F00
0F80001F00
0F80001F00
0F80001F00
0F80001F00
0F80001F00
0F80001F00
0F80001F00
0F80001E00
0F80003E00
0780003E00
07C0003E00
07E0007C00
03E000FC00
01F801F800
01FE07F000
00FFFFE000
003FFFC000
001FFF0000
0003FC0000
ENDCHAR
STARTCHAR V
ENCODING 86
SWIDTH 626 0
DWIDTH 30 0
BBX 30 31 0 0
BITMAP
7C0001F0
7E0001F0
3E0001F0
3E0003E0
1F0003E0
1F0003E0
1F0007C0
0F8007C0
0F800780
07800F80
07C00F80
07C00F00
03E01F00
03E01F00
03E01E00
01F03E00
01F03E00
00F07C00
00F87C00
00F87800
0078F800
007CF800
003CF000
003FF000
003FF000
001FE000
001FE000
001FC000
000FC000
000FC000
00078000
ENDCHAR
STARTCHAR W
ENCODING 87
SWIDTH 939 0
DWIDTH 45 0
BBX 45 31 0 0
BITMAP
3E00000003E0
3E000F8003E0
3E000F8003E0
1F001FC003C0
1F001FC007C0
1F001FC007C0
0F001FE00780
0F803FE00F80
0F803DE00F80
0F803DF00F80
07C07DF00F00
07C078F01F00
07C078F81F00
03C0F8F81E00
03E0F0781E00
03E0F07C3E00
01E0F07C3E00
01F1F03C3C00
01F1E03C7C00
01F1E03E7C00
00FBE03E7800
00FBC01E7800
00FBC01FF800
007FC01FF800
007F800FF000
007F800FF000
003F800FF000
003F8007E000
003F0007E000
003F0007E000
001F0003C000
ENDCHAR
STARTCHAR X
ENCODING 88
SWIDTH 647 0
DWIDTH 31 0
BBX 31 31 0 0
BITMAP
3E0001F8
3F0003F0
1F8003E0
0F8007C0
07C00FC0
07E00F80
03F01F00
01F83F00
00F87E00
00FC7C00
007EF800
003FF800
001FF000
000FE000
000FC000
000FE000
001FF000
003FF000
003EF800
007CFC00
00FC7E00
01F83E00
01F01F00
03E01F80
07E00FC0
0FC007E0
0F8003E0
1F8003F0
3F0001F8
3E0000FC
7C00007C
ENDCHAR
STARTCHAR Y
ENCODING 89
SWIDTH 584 0
DWIDTH 28 0
BBX 28 31 0 0
BITMAP
7C0007E0
3E0007C0
3F000F80
1F000F80
0F801F00
0F801F00
07C03E00
07E07C00
03E07C00
01F0F800
01F0F000
00F9F000
007FE000
007FE000
003FC000
003F8000
001F8000
000F0000
000F0000
000F0000
000F0000
000F0000
000F0000
000F0000
000F0000
000F0000
000F0000
000F0000
000F0000
000F0000
000F0000
ENDCHAR
STARTCHAR Z
ENCODING 90
SWIDTH 605 0
DWIDTH 29 0
BBX 29 31 0 0
BITMAP
3FFFFFE0
3FFFFFE0
3FFFFFC0
3FFFFF80
00001F80
00003F00
00003E00
00007E00
0000FC00
0000F800
0001F800
0003F000
0003E000
0007E000
000FC000
000F8000
001F8000
003F0000
003E0000
007E0000
00FC0000
00F80000
01F00000
03F00000
03E00000
07C00000
0FC00000
0FFFFFF0
1FFFFFF0
3FFFFFF0
7FFFFFF0
ENDCHAR
STARTCHAR [
ENCODING 91
SWIDTH 334 0
DWIDTH 16 0
BBX 16 41 0 -5
BITMAP
0FFC
0FFC
0FFC
0F00
0F00
0F00
0F00
0F00
0F00
0F00
0F00
0F00
0F00
0F00
0F00
0F00
0F00
0F00
0F00
0F00
0F00
0F00
0F00
0F00
0F00
0F00
0F00
0F00
0F00
0F00
0F00
0F00
0F00
0F00
0F00
0F00
0F00
0F00
0FFC
0FFC
0FFC
ENDCHAR
STARTCHAR \
ENCODING 92
SWIDTH 313 0
DWIDTH 15 0
BBX 15 37 0 -3
BITMAP
F000
F800
7800
7800
7800
3C00
3C00
3C00
3E00
1E00
1E00
1E00
0F00
0F00
0F00
0780
0780
0780
0780
03C0
03C0
03C0
01E0
01E0
01E0
01F0
00F0
00F0
00F0
0078
0078
0078
003C
003C
003C
003C
001E
ENDCHAR
STARTCHAR ]
ENCODING 93
SWIDTH 334 0
DWIDTH 16 0
BBX 16 41 0 -5
BITMAP
3FF0
3FF0
3FF0
00F0
00F0
00F0
00F0
00F0
00F0
00F0
00F0
00F0
00F0
00F0
00F0
00F0
00F0
00F0
00F0
00F0
00F0
00F0
00F0
00F0
00F0
00F0
00F0
00F0
00F0
00F0
00F0
00F0
00F0
00F0
00F0
00F0
00F0
00F0
3FF0
3FF0
3FF0
ENDCHAR
STARTCHAR ^
ENCODING 94
SWIDTH 563 0
DWIDTH 27 0
BBX 27 31 0 0
BITMAP
001F0000
003F0000
007F8000
007FC000
00FBE000
01F1E000
01E1F000
03E0F800
07C07800
07807C00
0F803E00
1F001E00
1E001F00
00000000
00000000
00000000
00000000
00000000
00000000
00000000
00000000
00000000
00000000
00000000
00000000
00000000
00000000
00000000
00000000
00000000
00000000
ENDCHAR
STARTCHAR _
ENCODING 95
SWIDTH 480 0
DWIDTH 23 0
BBX 25 5 -1 -5
BITMAP
00000000
00000000
00000000
FFFFFE00
FFFFFE00
ENDCHAR
STARTCHAR `
ENCODING 96
SWIDTH 438 0
DWIDTH 21 0
BBX 21 31 0 0
BITMAP
FFFFF8
FFFFF8
FFFFF8
FFFFF8
F00078
F00078
F00078
F00078
F00078
F00078
F00078
F00078
F00078
F00078
F00078
F00078
F00078
F00078
F00078
F00078
F00078
F00078
F00078
F00078
F00078
F00078
F00078
FFFFF8
FFFFF8
FFFFF8
FFFFF8
ENDCHAR
STARTCHAR a
ENCODING 97
SWIDTH 501 0
DWIDTH 24 0
BBX 24 23 0 0
BITMAP
00FE00
07FF80
07FFC0
0FFFE0
0F03F0
0C01F0
1000F0
0000F0
001FF0
00FFF0
03FFF0
07F0F0
0F80F0
1F00F0
1E00F0
3E00F0
3E00F0
3E01F0
1F07F0
1FFFF0
0FFFF0
07FEF0
03F8F0
ENDCHAR
STARTCHAR b
ENCODING 98
SWIDTH 584 0
DWIDTH 28 0
BBX 28 31 0 0
BITMAP
0F000000
0F000000
0F000000
0F000000
0F000000
0F000000
0F000000
0F000000
0F1FC000
0F7FF000
0FFFF800
0FFFFC00
0FE0FE00
0F803F00
0F001F00
0F000F80
0F000F80
0F000780
0F000780
0F000780
0F000780
0F000780
0F000F80
0F000F80
0F001F80
0F803F00
0FE0FF00
0FFFFE00
0FFFFC00
0F7FF000
0F1FC000
ENDCHAR
STARTCHAR c
ENCODING 99
SWIDTH 480 0
DWIDTH 23 0
BBX 23 23 0 0
BITMAP
001FE0
00FFF8
01FFF8
07FFF8
07F038
0FC008
1F8000
1F0000
1E0000
3E0000
3E0000
3E0000
3E0000
3E0000
1E0000
1F0000
1F8000
0FC008
07F038
07FFF8
01FFF8
00FFF8
001FE0
ENDCHAR
STARTCHAR d
ENCODING 100
SWIDTH 584 0
DWIDTH 28 0
BBX 28 31 0 0
BITMAP
00000F00
00000F00
00000F00
00000F00
00000F00
00000F00
00000F00
00000F00
003F8F00
00FFEF00
03FFFF00
07FFFF00
0FF07F00
0FC01F00
1F000F00
1F000F00
1E000F00
3E000F00
3E000F00
3E000F00
3E000F00
3E000F00
1E000F00
1F000F00
1F000F00
0FC01F00
0FE07F00
07FFFF00
03FFFF00
00FFEF00
003F8F00
ENDCHAR
STARTCHAR e
ENCODING 101
SWIDTH 522 0
DWIDTH 25 0
BBX 25 23 0 0
BITMAP
003F8000
00FFE000
03FFF000
07FFF800
0FC0F800
0F807C00
1F003C00
1E003E00
1E001E00
3FFFFE00
3FFFFE00
3FFFFE00
3FFFFE00
3E000000
1E000000
1F000000
1F000000
0F800600
0FE03E00
07FFFE00
03FFFE00
00FFFE00
003FF000
ENDCHAR
STARTCHAR f
ENCODING 102
SWIDTH 376 0
DWIDTH 18 0
BBX 18 31 0 0
BITMAP
007F80
01FF80
03FF80
07FF80
07C000
078000
0F8000
0F8000
7FFF80
7FFF80
7FFF80
7FFF80
0F8000
0F8000
0F8000
0F8000
0F8000
0F8000
0F8000
0F8000
0F8000
0F8000
0F8000
0F8000
0F8000
0F8000
0F8000
0F8000
0F8000
0F8000
0F8000
ENDCHAR
STARTCHAR g
ENCODING 103
SWIDTH 501 0
DWIDTH 24 0
BBX 24 32 0 -9
BITMAP
00FFFE
03FFFE
0FFFFE
1FFFFE
1F83E0
1E01F0
3E00F0
3C00F0
3C00F0
3E00F0
1E01F0
1F83E0
0FFFE0
07FFC0
07FF80
0FFE00
0F0000
0F8000
0FF000
07FF00
07FFC0
1FFFF0
3E07F8
3C00FC
78003C
78003C
7C003C
7E00FC
3FFFFC
3FFFF8
0FFFE0
03FF80
ENDCHAR
STARTCHAR h
ENCODING 104
SWIDTH 584 0
DWIDTH 28 0
BBX 28 31 0 0
BITMAP
0F000000
0F000000
0F000000
0F000000
0F000000
0F000000
0F000000
0F000000
0F1FC000
0F7FF000
0FFFF800
0FFFFC00
0FE07E00
0F803E00
0F001F00
0F001F00
0F000F00
0F000F00
0F000F00
0F000F00
0F000F00
0F000F00
0F000F00
0F000F00
0F000F00
0F000F00
0F000F00
0F000F00
0F000F00
0F000F00
0F000F00
ENDCHAR
STARTCHAR i
ENCODING 105
SWIDTH 250 0
DWIDTH 12 0
BBX 12 31 0 0
BITMAP
0600
0F00
1F80
1F80
0F00
0600
0000
0F00
0F00
0F00
0F00
0F00
0F00
0F00
0F00
0F00
0F00
0F00
0F00
0F00
0F00
0F00
0F00
0F00
0F00
0F00
0F00
0F00
0F00
0F00
0000
ENDCHAR
STARTCHAR j
ENCODING 106
SWIDTH 250 0
DWIDTH 12 0
BBX 13 39 -1 -9
BITMAP
0200
0700
0F80
0FC0
0780
0200
0000
0780
0780
0780
0780
0780
0780
0780
0780
0780
0780
0780
0780
0780
0780
0780
0780
0780
0780
0780
0780
0780
0780
0780
0780
0780
0780
0F80
0F80
FF00
FF00
FE00
F800
ENDCHAR
STARTCHAR k
ENCODING 107
SWIDTH 501 0
DWIDTH 24 0
BBX 25 31 0 0
BITMAP
0F000000
0F000000
0F000000
0F000000
0F000000
0F000000
0F000000
0F000000
0F007E00
0F00FC00
0F01F800
0F03F000
0F0FE000
0F1F8000
0F3F0000
0F7E0000
0FFC0000
0FF80000
0FF80000
0FF80000
0FFC0000
0F7E0000
0F3F0000
0F1F8000
0F0FC000
0F07E000
0F03F000
0F01F800
0F00FC00
0F007E00
0F003F00
ENDCHAR
STARTCHAR l
ENCODING 108
SWIDTH 313 0
DWIDTH 15 0
BBX 15 31 0 0
BITMAP
1F00
1F00
1F00
1F00
1F00
1F00
1F00
1F00
1F00
1F00
1F00
1F00
1F00
1F00
1F00
1F00
1F00
1F00
1F00
1F00
1F00
1F00
1F00
1F00
1F00
0F00
0F80
0FFC
07FC
03FC
01FC
ENDCHAR
STARTCHAR m
ENCODING 109
SWIDTH 897 0
DWIDTH 43 0
BBX 43 23 0 0
BITMAP
0F1FC03F8000
0F7FF0FFF000
0FFFFBFFF800
0FFFFFFFFC00
0FE0FFE0FC00
0F803F807E00
0F003E003E00
0F001E003E00
0F001F001E00
0F001F001E00
0F001F001E00
0F001F001E00
0F001F001E00
0F001F001E00
0F001F001E00
0F001F001E00
0F001F001E00
0F001F001E00
0F001F001E00
0F001F001E00
0F001F001E00
0F001F001E00
0F001F001E00
ENDCHAR
STARTCHAR n
ENCODING 110
SWIDTH 584 0
DWIDTH 28 0
BBX 28 23 0 0
BITMAP
0F1FC000
0F7FF000
0FFFF800
0FFFFC00
0FE07E00
0F803E00
0F001F00
0F001F00
0F000F00
0F000F00
0F000F00
0F000F00
0F000F00
0F000F00
0F000F00
0F000F00
0F000F00
0F000F00
0F000F00
0F000F00
0F000F00
0F000F00
0F000F00
ENDCHAR
STARTCHAR o
ENCODING 111
SWIDTH 584 0
DWIDTH 28 0
BBX 28 23 0 0
BITMAP
003FC000
00FFF000
01FFFC00
07FFFE00
07E07F00
0F801F00
1F000F80
1F000F80
1E000780
3E0007C0
3E0007C0
3E0007C0
3E0007C0
3E0007C0
1E000780
1F000F80
1F000F80
0FC01F00
0FE07F00
07FFFE00
03FFF800
00FFF000
003FC000
ENDCHAR
STARTCHAR p
ENCODING 112
SWIDTH 584 0
DWIDTH 28 0
BBX 28 32 0 -9
BITMAP
0F1FC000
0F7FF000
0FFFF800
0FFFFE00
0FE0FE00
0F803F00
0F001F00
0F000F80
0F000F80
0F000780
0F000780
0F000780
0F000780
0F000780
0F000F80
0F000F80
0F001F00
0F803F00
0FE0FE00
0FFFFC00
0FFFF800
0F7FF000
0F1FC000
0F000000
0F000000
0F000000
0F000000
0F000000
0F000000
0F000000
0F000000
0F000000
ENDCHAR
STARTCHAR q
ENCODING 113
SWIDTH 584 0
DWIDTH 28 0
BBX 28 32 0 -9
BITMAP
003F8F00
00FFEF00
03FFFF00
07FFFF00
0FE07F00
0FC01F00
1F000F00
1F000F00
1E000F00
3E000F00
3E000F00
3E000F00
3E000F00
3E000F00
1E000F00
1F000F00
1F000F00
0FC01F00
0FE07F00
07FFFF00
03FFFF00
00FFEF00
003F8F00
00000F00
00000F00
00000F00
00000F00
00000F00
00000F00
00000F00
00000F00
00000F00
ENDCHAR
STARTCHAR r
ENCODING 114
SWIDTH 376 0
DWIDTH 18 0
BBX 18 23 0 0
BITMAP
0F1FC0
0F7FC0
0FFFC0
0FFFC0
0FE000
0F8000
0F0000
0F0000
0F0000
0F0000
0F0000
0F0000
0F0000
0F0000
0F0000
0F0000
0F0000
0F0000
0F0000
0F0000
0F0000
0F0000
0F0000
ENDCHAR
STARTCHAR s
ENCODING 115
SWIDTH 459 0
DWIDTH 22 0
BBX 22 23 0 0
BITMAP
00FF00
07FFC0
0FFFC0
1FFFC0
1F01C0
1E0040
3E0000
1E0000
1F8000
1FFC00
0FFF80
07FFC0
00FFE0
000FF0
0001F0
0001F0
2000F0
3801F0
3E03F0
3FFFE0
3FFFC0
0FFF80
01FE00
ENDCHAR
STARTCHAR t
ENCODING 116
SWIDTH 397 0
DWIDTH 19 0
BBX 19 28 0 0
BITMAP
0F8000
0F8000
0F8000
0F8000
0F8000
7FFFC0
7FFFC0
7FFFC0
7FFFC0
0F8000
0F8000
0F8000
0F8000
0F8000
0F8000
0F8000
0F8000
0F8000
0F8000
0F8000
0F8000
078000
078000
07E000
07FFC0
03FFC0
01FFC0
007FC0
ENDCHAR
STARTCHAR u
ENCODING 117
SWIDTH 584 0
DWIDTH 28 0
BBX 28 23 0 0
BITMAP
1F000F00
1F000F00
1F000F00
1F000F00
1F000F00
1F000F00
1F000F00
1F000F00
1F000F00
1F000F00
1F000F00
1F000F00
1F000F00
1F000F00
1F000F00
0F000F00
0F800F00
0FC01F00
07E07F00
07FFFF00
03FFFF00
01FFEF00
007F8F00
ENDCHAR
STARTCHAR v
ENCODING 118
SWIDTH 522 0
DWIDTH 25 0
BBX 25 23 0 0
BITMAP
7C001F00
7C001F00
3E003E00
3E003E00
1E003C00
1F007C00
1F007800
0F80F800
0F80F800
0780F000
07C1F000
03C1E000
03E3E000
03E3E000
01E3C000
01F7C000
00F78000
00F78000
007F0000
007F0000
007F0000
003E0000
003E0000
ENDCHAR
STARTCHAR w
ENCODING 119
SWIDTH 835 0
DWIDTH 40 0
BBX 40 23 0 0
BITMAP
7C003C003C
3E007C007C
3E007E007C
3E007E0078
1E00FE00F8
1F00FF00F8
1F01FF00F0
0F01EF81F0
0F81E781F0
0F83E781E0
0783C7C3E0
07C3C3C3E0
07C783C3C0
03C781E3C0
03E781E7C0
03EF01F780
01EF00F780
01FF00FF80
01FE00FF00
00FE007F00
00FC007F00
00FC007E00
007C003E00
ENDCHAR
STARTCHAR x
ENCODING 120
SWIDTH 501 0
DWIDTH 24 0
BBX 24 23 0 0
BITMAP
3E00FC
1F00F8
1F01F0
0F83E0
07C3E0
07E7C0
03EF80
01FF00
00FF00
00FE00
007C00
007E00
00FF00
01FF00
03EF80
03E7C0
07C7E0
0F83E0
1F81F0
1F00F8
3E00FC
7C007C
7C003E
ENDCHAR
STARTCHAR y
ENCODING 121
SWIDTH 522 0
DWIDTH 25 0
BBX 25 32 0 -9
BITMAP
7C001F00
7C001F00
3C003E00
3E003E00
1E003C00
1F007C00
1F007C00
0F007800
0F80F800
0780F000
07C1F000
07C1F000
03C1E000
03E3E000
01E3C000
01F3C000
00F7C000
00F78000
00FF8000
007F0000
007F0000
003F0000
003E0000
003E0000
003C0000
003C0000
007C0000
00F80000
07F80000
07F00000
07E00000
07800000
ENDCHAR
STARTCHAR z
ENCODING 122
SWIDTH 459 0
DWIDTH 22 0
BBX 22 23 0 0
BITMAP
3FFFF8
3FFFF0
3FFFE0
3FFFE0
0007C0
000F80
001F80
001F00
003F00
003E00
007C00
00FC00
00F800
01F000
03F000
03E000
07C000
0FC000
0F8000
1FFFF0
1FFFF0
3FFFF0
7FFFF0
ENDCHAR
STARTCHAR {
ENCODING 123
SWIDTH 355 0
DWIDTH 17 0
BBX 17 41 0 -5
BITMAP
003E00
00FE00
01FE00
01F000
01E000
03C000
03C000
03C000
03C000
03C000
03C000
03C000
03C000
03C000
03C000
03C000
03C000
07C000
1F8000
3F8000
3E0000
3E0000
3F8000
1F8000
07C000
03C000
03C000
03C000
03C000
03C000
03C000
03C000
03C000
03C000
03C000
03C000
03E000
01F000
01FE00
00FE00
003E00
ENDCHAR
STARTCHAR |
ENCODING 124
SWIDTH 230 0
DWIDTH 11 0
BBX 11 46 0 -12
BITMAP
1E00
1E00
1E00
1E00
1E00
1E00
1E00
1E00
1E00
1E00
1E00
1E00
1E00
1E00
1E00
1E00
1E00
1E00
1E00
1E00
1E00
1E00
1E00
1E00
1E00
1E00
1E00
1E00
1E00
1E00
1E00
1E00
1E00
1E00
1E00
1E00
1E00
1E00
1E00
1E00
1E00
1E00
1E00
1E00
1E00
1E00
ENDCHAR
STARTCHAR }
ENCODING 125
SWIDTH 355 0
DWIDTH 17 0
BBX 17 41 0 -5
BITMAP
3E0000
3F8000
3F8000
07C000
03C000
03C000
03C000
03C000
03C000
03C000
03C000
03C000
03C000
03C000
03C000
03E000
01E000
01F000
01F800
00FC00
007C00
007C00
00FC00
01F800
01F000
01E000
03C000
03C000
03C000
03C000
03C000
03C000
03C000
03C000
03C000
03C000
03C000
07C000
3F8000
3F8000
3E0000
ENDCHAR
STARTCHAR ~
ENCODING 126
SWIDTH 522 0
DWIDTH 25 0
BBX 25 19 0 0
BITMAP
03E01800
07F01C00
0FFC3C00
0FFE3C00
1E3FF800
1E1FF800
3C07F000
0C03C000
00000000
00000000
00000000
00000000
00000000
00000000
00000000
00000000
00000000
00000000
00000000
ENDCHAR
STARTCHAR U+00A0
ENCODING 160
SWIDTH 250 0
DWIDTH 12 0
BBX 12 53 0 -12
BITMAP
0000
0000
0000
0000
0000
0000
0000
0000
0000
0000
0000
0000
0000
0000
0000
0000
0000
0000
0000
0000
0000
0000
0000
0000
0000
0000
0000
0000
0000
0000
0000
0000
0000
0000
0000
0000
0000
0000
0000
0000
0000
0000
0000
0000
0000
0000
0000
0000
0000
0000
0000
0000
0000
ENDCHAR
STARTCHAR U+00A1
ENCODING 161
SWIDTH 271 0
DWIDTH 13 0
BBX 13 32 0 -9
BITMAP
0200
0700
0F80
0F80
0700
0200
0000
0000
0700
0700
0700
0700
0700
0700
0700
0780
0780
0780
0F80
0F80
0F80
0F80
0F80
0F80
0F80
0F80
0F80
0F80
0F80
0F80
0F80
0F80
ENDCHAR
STARTCHAR U+00A2
ENCODING 162
SWIDTH 480 0
DWIDTH 23 0
BBX 23 29 0 -3
BITMAP
000F00
000F00
000F00
003FE0
00FFF8
01FFF8
07FFF8
07F038
0FC008
1F8000
1F0000
1E0000
3E0000
3E0000
3E0000
3E0000
3E0000
1E0000
1F0000
1F8000
0FC008
07F038
07FFF8
01FFF8
00FFF8
001FE0
000F00
000F00
000F00
ENDCHAR
STARTCHAR U+00A3
ENCODING 163
SWIDTH 522 0
DWIDTH 25 0
BBX 25 31 0 0
BITMAP
000FE000
001FF800
007FFC00
007FFC00
00FC3800
00F81000
01F00000
01F00000
01E00000
01E00000
01E00000
01E00000
03E00000
03E00000
03E00000
0FFFC000
1FFFC000
1FFF8000
1FFF8000
03C00000
03C00000
03C00000
07C00000
07C00000
07C00000
07800000
0F800000
0FFFFE00
1FFFFC00
3FFFFC00
3FFFF800
ENDCHAR
STARTCHAR U+00A4
ENCODING 164
SWIDTH 584 0
DWIDTH 28 0
BBX 28 24 0 0
BITMAP
04000200
0E000700
1F000F80
1F9F9F80
1FFFFF00
0FFFFF00
07FFFE00
03F0FC00
07C03E00
07C03E00
07801E00
07801E00
07801E00
07801E00
07C03E00
07C03E00
03F0FC00
07FFFE00
0FFFFF00
1FFFFF00
1FBF9F80
1F000F80
0E000700
04000200
ENDCHAR
STARTCHAR U+00A5
ENCODING 165
SWIDTH 605 0
DWIDTH 29 0
BBX 29 31 0 0
BITMAP
7E0003E0
3E0007E0
1F0007C0
1F800F80
0F800F80
07C01F00
07C03E00
03E03E00
01F07C00
01F07C00
00F8F800
0FF9FF80
0FFDFF80
0FFFFF80
0FFFFF80
001FC000
000F8000
000F8000
0FFFFF80
0FFFFF80
0FFFFF80
0FFFFF80
000F8000
000F8000
000F8000
000F8000
000F8000
000F8000
000F8000
000F8000
000F8000
ENDCHAR
STARTCHAR U+00A6
ENCODING 166
SWIDTH 230 0
DWIDTH 11 0
BBX 11 46 0 -12
BITMAP
1E00
1E00
1E00
1E00
1E00
1E00
1E00
1E00
1E00
1E00
1E00
1E00
1E00
1E00
1E00
1E00
1E00
1E00
0000
0000
0000
0000
0000
0000
0000
0000
0000
0000
1E00
1E00
1E00
1E00
1E00
1E00
1E00
1E00
1E00
1E00
1E00
1E00
1E00
1E00
1E00
1E00
1E00
1E00
ENDCHAR
STARTCHAR U+00A7
ENCODING 167
SWIDTH 480 0
DWIDTH 23 0
BBX 23 40 0 -9
BITMAP
01FC00
07FF00
0FFF80
1FFFC0
1F87E0
3E03E0
3E01E0
3E0080
3E0000
3E0000
1F0000
1FE000
0FF800
07FF00
0FFFC0
1FFFE0
3F0FF0
3E03F0
7C01F0
7C00F8
7C00F8
7C00F8
3F01F0
3FE3F0
1FFFE0
07FFC0
01FF80
003FC0
000FE0
0003F0
0001F0
0000F0
0800F0
3C01F0
3E01F0
3F87E0
1FFFE0
0FFFC0
07FF00
00FC00
ENDCHAR
STARTCHAR U+00A8
ENCODING 168
SWIDTH 438 0
DWIDTH 21 0
BBX 21 31 0 0
BITMAP
FFFFF8
FFFFF8
FFFFF8
FFFFF8
F00078
F00078
F00078
F00078
F00078
F00078
F00078
F00078
F00078
F00078
F00078
F00078
F00078
F00078
F00078
F00078
F00078
F00078
F00078
F00078
F00078
F00078
F00078
FFFFF8
FFFFF8
FFFFF8
FFFFF8
ENDCHAR
STARTCHAR U+00A9
ENCODING 169
SWIDTH 772 0
DWIDTH 37 0
BBX 37 31 0 0
BITMAP
0003FE0000
000FFF8000
003E03E000
00F0007800
01E0003C00
0380000E00
0300FC0600
0607FF0700
0E0FFF8380
0C1F838180
1C3E0081C0
183C0001C0
18780000C0
18780000C0
18780000C0
18780000C0
18780000C0
18780000C0
18780000C0
183C0001C0
1C3E0081C0
0C1F838180
0E0FFF8380
0707FF0700
0700FC0600
0380000E00
01E0003C00
00F0007800
003E03E000
000FFF8000
0003FE0000
ENDCHAR
STARTCHAR U+00AA
ENCODING 170
SWIDTH 292 0
DWIDTH 14 0
BBX 14 31 0 0
BITMAP
3FC0
3FE0
3FF0
0070
0070
03F0
1FF0
3C70
7870
7870
7870
7FF0
3FF0
1F70
0000
0000
0000
0000
0000
0000
0000
0000
0000
0000
0000
0000
0000
0000
0000
0000
0000
ENDCHAR
STARTCHAR U+00AB
ENCODING 171
SWIDTH 543 0
DWIDTH 26 0
BBX 26 22 0 0
BITMAP
007C1F00
00781E00
00F03C00
01E07800
03E0F800
07C1F000
0781E000
0F03C000
1E078000
3E0F8000
1E078000
0F03C000
0F83E000
07C1F000
03E0F800
01E07800
00F03C00
00F83E00
007C1F00
00000000
00000000
00000000
ENDCHAR
STARTCHAR U+00AC
ENCODING 172
SWIDTH 522 0
DWIDTH 25 0
BBX 25 22 0 0
BITMAP
1FFFFC00
1FFFFC00
1FFFFC00
1FFFFC00
00003C00
00003C00
00003C00
00003C00
00003C00
00003C00
00003C00
00003C00
00003C00
00000000
00000000
00000000
00000000
00000000
00000000
00000000
00000000
00000000
ENDCHAR
STARTCHAR U+00AD
ENCODING 173
SWIDTH 376 0
DWIDTH 18 0
BBX 18 15 0 0
BITMAP
3FFF00
3FFF00
3FFF00
3FFF00
000000
000000
000000
000000
000000
000000
000000
000000
000000
000000
000000
ENDCHAR
STARTCHAR U+00AE
ENCODING 174
SWIDTH 772 0
DWIDTH 37 0
BBX 37 31 0 0
BITMAP
0003FE0000
000FFF8000
003E03E000
00F0007800
01C0003C00
0380000E00
0300000600
060FF80700
0E0FFE0380
0C0FFF0180
1C0F0F81C0
180F0781C0
180F0780C0
180F0780C0
180F0F00C0
180FFF00C0
180FFE00C0
180FFC00C0
180F3C00C0
180F1E01C0
1C0F1F01C0
0C0F0F0180
0E0F078380
070F03C700
030F03E600
0380000E00
01E0003C00
00F0007800
003E03E000
000FFF8000
0003FC0000
ENDCHAR
STARTCHAR U+00AF
ENCODING 175
SWIDTH 438 0
DWIDTH 21 0
BBX 21 31 0 0
BITMAP
FFFFF8
FFFFF8
FFFFF8
FFFFF8
F00078
F00078
F00078
F00078
F00078
F00078
F00078
F00078
F00078
F00078
F00078
F00078
F00078
F00078
F00078
F00078
F00078
F00078
F00078
F00078
F00078
F00078
F00078
FFFFF8
FFFFF8
FFFFF8
FFFFF8
ENDCHAR
STARTCHAR U+00B0
ENCODING 176
SWIDTH 376 0
DWIDTH 18 0
BBX 18 31 0 0
BITMAP
03F000
07F800
0FFC00
1FFE00
1E1E00
3C0F00
3C0F00
3C0F00
3C0F00
1E1E00
1FFE00
0FFC00
07F800
03F000
000000
000000
000000
000000
000000
000000
000000
000000
000000
000000
000000
000000
000000
000000
000000
000000
000000
ENDCHAR
STARTCHAR U+00B1
ENCODING 177
SWIDTH 522 0
DWIDTH 25 0
BBX 25 26 0 0
BITMAP
003C0000
003C0000
003C0000
003C0000
003C0000
003C0000
003C0000
1FFFFC00
1FFFFC00
1FFFFC00
1FFFFC00
003C0000
003C0000
003C0000
003C0000
003C0000
003C0000
003C0000
00000000
00000000
00000000
00000000
1FFFFC00
1FFFFC00
1FFFFC00
1FFFFC00
ENDCHAR
STARTCHAR U+00B2
ENCODING 178
SWIDTH 313 0
DWIDTH 15 0
BBX 15 31 0 0
BITMAP
0FC0
1FE0
3FF0
3FF8
3878
2078
0038
0078
0078
00F0
01E0
01E0
03C0
03C0
0780
0F00
0FFC
1FFC
3FFC
0000
0000
0000
0000
0000
0000
0000
0000
0000
0000
0000
0000
ENDCHAR
STARTCHAR U+00B3
ENCODING 179
SWIDTH 313 0
DWIDTH 15 0
BBX 15 31 0 0
BITMAP
3FFC
3FF8
3FF0
00F0
01E0
01E0
03C0
03E0
07F0
07F8
007C
003C
003C
003C
003C
103C
7878
3FF8
1FE0
0FC0
0000
0000
0000
0000
0000
0000
0000
0000
0000
0000
0000
ENDCHAR
STARTCHAR U+00B4
ENCODING 180
SWIDTH 438 0
DWIDTH 21 0
BBX 21 31 0 0
BITMAP
FFFFF8
FFFFF8
FFFFF8
FFFFF8
F00078
F00078
F00078
F00078
F00078
F00078
F00078
F00078
F00078
F00078
F00078
F00078
F00078
F00078
F00078
F00078
F00078
F00078
F00078
F00078
F00078
F00078
F00078
FFFFF8
FFFFF8
FFFFF8
FFFFF8
ENDCHAR
STARTCHAR U+00B5
ENCODING 181
SWIDTH 563 0
DWIDTH 27 0
BBX 27 32 0 -9
BITMAP
0F001E00
0F001E00
0F001E00
0F001E00
0F001E00
0F001E00
0F001E00
0F001E00
0F001E00
0F001E00
0F001E00
0F001E00
0F001E00
0F001E00
0F001E00
0F801E00
0F801E00
0FC03E00
0FE0FE00
0FFFFE00
0FFFFE00
0FFFDE00
0F3F1E00
0F000000
0F000000
0F000000
0F000000
0F000000
0F000000
0F000000
0F000000
0F000000
ENDCHAR
STARTCHAR U+00B6
ENCODING 182
SWIDTH 522 0
DWIDTH 25 0
BBX 25 40 0 -9
BITMAP
00FFFF00
03FFFF00
0FFFFF00
0FFE3C00
1FFE3C00
1FFE3C00
3FFE3C00
3FFE3C00
3FFE3C00
3FFE3C00
3FFE3C00
1FFE3C00
1FFE3C00
0FFE3C00
0FFE3C00
03FE3C00
01FE3C00
001E3C00
001E3C00
001E3C00
001E3C00
001E3C00
001E3C00
001E3C00
001E3C00
001E3C00
001E3C00
001E3C00
001E3C00
001E3C00
001E3C00
001E3C00
001E3C00
001E3C00
001E3C00
001E3C00
001E3C00
001E3C00
001E3C00
001E3C00
ENDCHAR
STARTCHAR U+00B7
ENCODING 183
SWIDTH 230 0
DWIDTH 11 0
BBX 11 19 0 0
BITMAP
0400
0E00
1F00
3F80
1F00
0E00
0400
0000
0000
0000
0000
0000
0000
0000
0000
0000
0000
0000
0000
ENDCHAR
STARTCHAR U+00B8
ENCODING 184
SWIDTH 438 0
DWIDTH 21 0
BBX 21 31 0 0
BITMAP
FFFFF8
FFFFF8
FFFFF8
FFFFF8
F00078
F00078
F00078
F00078
F00078
F00078
F00078
F00078
F00078
F00078
F00078
F00078
F00078
F00078
F00078
F00078
F00078
F00078
F00078
F00078
F00078
F00078
F00078
FFFFF8
FFFFF8
FFFFF8
FFFFF8
ENDCHAR
STARTCHAR U+00B9
ENCODING 185
SWIDTH 230 0
DWIDTH 11 0
BBX 11 31 0 0
BITMAP
0200
0600
0E00
0E00
0E00
0E00
0E00
0E00
0E00
0E00
0E00
0E00
0E00
0E00
0E00
0E00
0E00
0E00
0E00
0000
0000
0000
0000
0000
0000
0000
0000
0000
0000
0000
0000
ENDCHAR
STARTCHAR U+00BA
ENCODING 186
SWIDTH 376 0
DWIDTH 18 0
BBX 18 31 0 0
BITMAP
03F000
0FFC00
1FFE00
3E1E00
3C0F00
380700
780700
780700
380700
3C0F00
3E1E00
1FFE00
0FF800
03F000
000000
000000
000000
000000
000000
000000
000000
000000
000000
000000
000000
000000
000000
000000
000000
000000
000000
ENDCHAR
STARTCHAR U+00BB
ENCODING 187
SWIDTH 543 0
DWIDTH 26 0
BBX 26 22 0 0
BITMAP
3E0F8000
1F07C000
0F83C000
0781E000
03C1F000
03E0F800
01F07800
00F83C00
00781E00
003C1F00
007C1E00
00F83C00
01F07C00
01E0F800
03C0F000
0781E000
0F83C000
1F07C000
3E0F8000
00000000
00000000
00000000
ENDCHAR
STARTCHAR U+00BC
ENCODING 188
SWIDTH 772 0
DWIDTH 37 0
BBX 37 31 0 0
BITMAP
020000E000
060001E000
0E0001C000
0E0003C000
0E00038000
0E00078000
0E00070000
0E000F0000
0E000E0000
0E001E0000
0E001C0000
0E003C0000
0E00780000
0E00780080
0E00F00180
0E00F00380
0E01E00780
0E01E00F80
0E03C01F80
0003C01F80
0007803B80
0007807380
000F00F380
000F01E380
001E03C380
001E07FFE0
003C0FFFE0
003C1FFFE0
0078000380
0070000380
00F0000380
ENDCHAR
STARTCHAR U+00BD
ENCODING 189
SWIDTH 814 0
DWIDTH 39 0
BBX 39 31 0 0
BITMAP
020000E000
060001E000
0E0001C000
0E0003C000
0E00038000
0E00078000
0E00070000
0E000F0000
0E000E0000
0E001E0000
0E001C0000
0E003C0000
0E00781F80
0E00783FC0
0E00F07FE0
0E00F07FF0
0E01E070F0
0E01E040F0
0E03C00070
0003C000F0
00078000F0
00078001E0
000F0003C0
000F0003C0
001E000780
001E000780
003C000F00
003C001E00
0078001FF8
0070003FF8
00F0007FF8
ENDCHAR
STARTCHAR U+00BE
ENCODING 190
SWIDTH 835 0
DWIDTH 40 0
BBX 40 31 0 0
BITMAP
3FFC001C00
3FF8003C00
3FF0003800
00F0007800
01E0007000
01E000F000
03C000E000
03E001E000
07F001C000
07F803C000
007C038000
003C078000
003C0F0000
003C0F0010
003C1E0030
103C1E0070
78783C00F0
3FF83C01F0
1FE07803F0
0FC07803F0
0000F00770
0000F00E70
0001E01E70
0001E03C70
0003C07870
0003C0FFFC
000781FFFC
000783FFFC
000F000070
000E000070
001E000070
ENDCHAR
STARTCHAR U+00BF
ENCODING 191
SWIDTH 438 0
DWIDTH 21 0
BBX 21 32 0 -9
BITMAP
001000
003800
007C00
00FE00
007C00
003800
001000
000000
001000
003800
007C00
007E00
003E00
001E00
001E00
003E00
00FE00
01FC00
07F000
0FE000
1FC000
1F0000
1E0000
1E0000
1E0000
1E0040
1F00E0
1F83F0
0FFFE0
07FFC0
03FF80
00FE00
ENDCHAR
STARTCHAR U+00C0
ENCODING 192
SWIDTH 647 0
DWIDTH 31 0
BBX 31 40 0 0
BITMAP
007C0000
003E0000
001F0000
000F0000
00078000
0003C000
0003C000
00000000
00000000
00078000
0007C000
000FC000
000FE000
001FE000
001FF000
001FF000
003EF000
003CF800
007C7800
007C7C00
00787C00
00F83C00
00F83E00
01F01E00
01F01F00
01E01F00
03E00F00
03E00F80
07FFFF80
07FFFFC0
07FFFFC0
0FFFFFE0
0F8003E0
0F0001E0
1F0001F0
1F0001F0
3E0000F8
3E0000F8
3C0000F8
7C00007C
ENDCHAR
STARTCHAR U+00C1
ENCODING 193
SWIDTH 647 0
DWIDTH 31 0
BBX 31 40 0 0
BITMAP
0000F800
0001F000
0001E000
0003E000
0007C000
00078000
000F0000
00000000
00000000
00078000
0007C000
000FC000
000FE000
001FE000
001FF000
001FF000
003EF000
003CF800
007C7800
007C7C00
00787C00
00F83C00
00F83E00
01F01E00
01F01F00
01E01F00
03E00F00
03E00F80
07FFFF80
07FFFFC0
07FFFFC0
0FFFFFE0
0F8003E0
0F0001E0
1F0001F0
1F0001F0
3E0000F8
3E0000F8
3C0000F8
7C00007C
ENDCHAR
STARTCHAR U+00C2
ENCODING 194
SWIDTH 647 0
DWIDTH 31 0
BBX 31 40 0 0
BITMAP
0007E000
000FE000
000FF000
001E7800
001C7800
00383C00
00781C00
00000000
00000000
00078000
0007C000
000FC000
000FE000
001FE000
001FF000
001FF000
003EF000
003CF800
007C7800
007C7C00
00787C00
00F83C00
00F83E00
01F01E00
01F01F00
01E01F00
03E00F00
03E00F80
07FFFF80
07FFFFC0
07FFFFC0
0FFFFFE0
0F8003E0
0F0001E0
1F0001F0
1F0001F0
3E0000F8
3E0000F8
3C0000F8
7C00007C
ENDCHAR
STARTCHAR U+00C3
ENCODING 195
SWIDTH 647 0
DWIDTH 31 0
BBX 31 39 0 0
BITMAP
003C0800
007F0C00
00FFFC00
00FFFC00
0043F800
0000F000
00000000
00000000
00078000
0007C000
000FC000
000FE000
001FE000
001FF000
001FF000
003EF000
003CF800
007C7800
007C7C00
00787C00
00F83C00
00F83E00
01F01E00
01F01F00
01E01F00
03E00F00
03E00F80
07FFFF80
07FFFFC0
07FFFFC0
0FFFFFE0
0F8003E0
0F0001E0
1F0001F0
1F0001F0
3E0000F8
3E0000F8
3C0000F8
7C00007C
ENDCHAR
STARTCHAR U+00C4
ENCODING 196
SWIDTH 647 0
DWIDTH 31 0
BBX 31 39 0 0
BITMAP
00100800
00381C00
007C3E00
007C3E00
00381C00
00100800
00000000
00000000
00078000
0007C000
000FC000
000FE000
001FE000
001FF000
001FF000
003EF000
003CF800
007C7800
007C7C00
00787C00
00F83C00
00F83E00
01F01E00
01F01F00
01E01F00
03E00F00
03E00F80
07FFFF80
07FFFFC0
07FFFFC0
0FFFFFE0
0F8003E0
0F0001E0
1F0001F0
1F0001F0
3E0000F8
3E0000F8
3C0000F8
7C00007C
ENDCHAR
STARTCHAR U+00C5
ENCODING 197
SWIDTH 647 0
DWIDTH 31 0
BBX 31 41 0 0
BITMAP
00078000
000FE000
001C6000
00183000
00183000
001C6000
000FE000
0007C000
00000000
00000000
00078000
0007C000
000FC000
000FE000
001FE000
001FF000
001FF000
003EF000
003CF800
007C7800
007C7C00
00787C00
00F83C00
00F83E00
01F01E00
01F01F00
01E01F00
03E00F00
03E00F80
07FFFF80
07FFFFC0
07FFFFC0
0FFFFFE0
0F8003E0
0F0001E0
1F0001F0
1F0001F0
3E0000F8
3E0000F8
3C0000F8
7C00007C
ENDCHAR
STARTCHAR U+00C6
ENCODING 198
SWIDTH 897 0
DWIDTH 43 0
BBX 43 31 0 0
BITMAP
00003FFFFF00
00007FFFFF00
00007FFFFF00
0000FFFFFF00
0000FFC00000
0001F7C00000
0001F7C00000
0003E7C00000
0007E7C00000
0007C7C00000
000F87C00000
000F87C00000
001F07FFF000
001F07FFF000
003E07FFF000
007E07FFF000
007C07C00000
00FC07C00000
00FFFFC00000
01FFFFC00000
03FFFFC00000
03FFFFC00000
07E007C00000
07C007C00000
0FC007C00000
0F8007C00000
1F0007C00000
3F0007FFFF80
3E0007FFFF80
7E0007FFFF80
7C0007FFFF80
ENDCHAR
STARTCHAR U+00C7
ENCODING 199
SWIDTH 647 0
DWIDTH 31 0
BBX 31 41 0 -10
BITMAP
0001FE00
000FFFC0
003FFFF0
007FFFF8
01FE01F8
03F80038
03E00008
07C00000
0FC00000
0F800000
1F000000
1F000000
1F000000
1F000000
1E000000
1E000000
1E000000
1F000000
1F000000
1F000000
1F800000
0F800000
0FC00000
07E00000
03F00008
03F80038
01FF01F8
007FFFF8
003FFFF0
000FFFC0
0001FE00
0000E000
0001C000
0001F800
0001FC00
00003C00
00001E00
00003C00
0007FC00
0007F800
0007E000
ENDCHAR
STARTCHAR U+00C8
ENCODING 200
SWIDTH 563 0
DWIDTH 27 0
BBX 27 40 0 0
BITMAP
00F80000
007C0000
003E0000
001E0000
000F0000
00078000
00078000
00000000
00000000
0FFFFF00
0FFFFF00
0FFFFF00
0FFFFF00
0F800000
0F800000
0F800000
0F800000
0F800000
0F800000
0F800000
0F800000
0FFFF000
0FFFF000
0FFFF000
0FFFF000
0F800000
0F800000
0F800000
0F800000
0F800000
0F800000
0F800000
0F800000
0F800000
0F800000
0F800000
0FFFFF80
0FFFFF80
0FFFFF80
0FFFFF80
ENDCHAR
STARTCHAR U+00C9
ENCODING 201
SWIDTH 563 0
DWIDTH 27 0
BBX 27 40 0 0
BITMAP
0001F000
0003E000
0003C000
0007C000
000F8000
000F0000
001E0000
00000000
00000000
0FFFFF00
0FFFFF00
0FFFFF00
0FFFFF00
0F800000
0F800000
0F800000
0F800000
0F800000
0F800000
0F800000
0F800000
0FFFF000
0FFFF000
0FFFF000
0FFFF000
0F800000
0F800000
0F800000
0F800000
0F800000
0F800000
0F800000
0F800000
0F800000
0F800000
0F800000
0FFFFF80
0FFFFF80
0FFFFF80
0FFFFF80
ENDCHAR
STARTCHAR U+00CA
ENCODING 202
SWIDTH 563 0
DWIDTH 27 0
BBX 27 40 0 0
BITMAP
001F8000
003F8000
003FC000
0079E000
0071E000
00E0F000
01E07000
00000000
00000000
0FFFFF00
0FFFFF00
0FFFFF00
0FFFFF00
0F800000
0F800000
0F800000
0F800000
0F800000
0F800000
0F800000
0F800000
0FFFF000
0FFFF000
0FFFF000
0FFFF000
0F800000
0F800000
0F800000
0F800000
0F800000
0F800000
0F800000
0F800000
0F800000
0F800000
0F800000
0FFFFF80
0FFFFF80
0FFFFF80
0FFFFF80
ENDCHAR
STARTCHAR U+00CB
ENCODING 203
SWIDTH 563 0
DWIDTH 27 0
BBX 27 39 0 0
BITMAP
00402000
00E07000
01F0F800
01F0F800
00E07000
00402000
00000000
00000000
0FFFFF00
0FFFFF00
0FFFFF00
0FFFFF00
0F800000
0F800000
0F800000
0F800000
0F800000
0F800000
0F800000
0F800000
0FFFF000
0FFFF000
0FFFF000
0FFFF000
0F800000
0F800000
0F800000
0F800000
0F800000
0F800000
0F800000
0F800000
0F800000
0F800000
0F800000
0FFFFF80
0FFFFF80
0FFFFF80
0FFFFF80
ENDCHAR
STARTCHAR U+00CC
ENCODING 204
SWIDTH 271 0
DWIDTH 13 0
BBX 13 40 0 0
BITMAP
7C00
3E00
1F00
0F00
0780
03C0
03C0
0000
0000
0F80
0F80
0F80
0F80
0F80
0F80
0F80
0F80
0F80
0F80
0F80
0F80
0F80
0F80
0F80
0F80
0F80
0F80
0F80
0F80
0F80
0F80
0F80
0F80
0F80
0F80
0F80
0F80
0F80
0F80
0F80
ENDCHAR
STARTCHAR U+00CD
ENCODING 205
SWIDTH 271 0
DWIDTH 13 0
BBX 14 40 0 0
BITMAP
0000
0000
0000
0000
0000
0000
0000
0000
0000
0000
0000
0000
0000
0000
0000
0000
0000
0000
0000
0000
0000
0000
0000
0000
0000
0000
0000
0000
0000
0000
0000
0000
0000
0000
0000
0000
0000
0000
0000
0000
ENDCHAR
STARTCHAR U+00CE
ENCODING 206
SWIDTH 271 0
DWIDTH 13 0
BBX 14 40 0 0
BITMAP
0FC0
1FC0
1FE0
3CF0
38F0
7078
F038
0000
0000
0F80
0F80
0F80
0F80
0F80
0F80
0F80
0F80
0F80
0F80
0F80
0F80
0F80
0F80
0F80
0F80
0F80
0F80
0F80
0F80
0F80
0F80
0F80
0F80
0F80
0F80
0F80
0F80
0F80
0F80
0F80
ENDCHAR
STARTCHAR U+00CF
ENCODING 207
SWIDTH 271 0
DWIDTH 13 0
BBX 16 39 -1 0
BITMAP
1008
381C
7C3E
7C3E
381C
1008
0000
0000
07C0
07C0
07C0
07C0
07C0
07C0
07C0
07C0
07C0
07C0
07C0
07C0
07C0
07C0
07C0
07C0
07C0
07C0
07C0
07C0
07C0
07C0
07C0
07C0
07C0
07C0
07C0
07C0
07C0
07C0
07C0
ENDCHAR
STARTCHAR U+00D0
ENCODING 208
SWIDTH 689 0
DWIDTH 33 0
BBX 33 31 0 0
BITMAP
0FFFC00000
0FFFFC0000
0FFFFF0000
0FFFFF8000
0F807FC000
0F800FE000
0F8003F000
0F8001F800
0F8000F800
0F8000FC00
0F80007C00
0F80007C00
0F80003E00
0F80003E00
7FFF803E00
7FFF803E00
7FFF803E00
7FFF803E00
0F80003E00
0F80007C00
0F80007C00
0F8000FC00
0F8000F800
0F8001F800
0F8003F000
0F800FE000
0F803FC000
0FFFFF8000
0FFFFF0000
0FFFF80000
0FFFC00000
ENDCHAR
STARTCHAR U+00D1
ENCODING 209
SWIDTH 751 0
DWIDTH 36 0
BBX 36 39 0 0
BITMAP
000F020000
001FC30000
003FFF0000
003FFF0000
0010FE0000
00003C0000
0000000000
0000000000
0F80001E00
0FC0001E00
0FE0001E00
0FE0001E00
0FF0001E00
0FF8001E00
0FFC001E00
0FFC001E00
0FBE001E00
0FBF001E00
0F9F801E00
0F8FC01E00
0F87C01E00
0F87E01E00
0F83F01E00
0F81F81E00
0F80F81E00
0F807C1E00
0F807E1E00
0F803F1E00
0F801F9E00
0F800F9E00
0F800FDE00
0F8007FE00
0F8003FE00
0F8001FE00
0F8000FE00
0F8000FE00
0F80007E00
0F80003E00
0F80001E00
ENDCHAR
STARTCHAR U+00D2
ENCODING 210
SWIDTH 793 0
DWIDTH 38 0
BBX 38 40 0 0
BITMAP
0007C00000
0003E00000
0001F00000
0000F00000
0000780000
00003C0000
00003C0000
0000000000
0000000000
0001FE0000
000FFFC000
003FFFF000
007FFFF800
01FE03FC00
03F8007E00
03E0003F00
07C0001F80
0FC0000F80
0F800007C0
1F000007C0
1F000003E0
1F000003E0
1F000003E0
1E000003E0
1E000003E0
1E000003E0
1F000003E0
1F000003E0
1F000003E0
1F000007C0
0F800007C0
0FC0000F80
07C0001F80
03F0003F00
03F8007E00
01FE03FC00
007FFFF800
003FFFF000
000FFFC000
0001FE0000
ENDCHAR
STARTCHAR U+00D3
ENCODING 211
SWIDTH 793 0
DWIDTH 38 0
BBX 38 40 0 0
BITMAP
00000F8000
00001F0000
00001E0000
00003E0000
00007C0000
0000780000
0000F00000
0000000000
0000000000
0001FE0000
000FFFC000
003FFFF000
007FFFF800
01FE03FC00
03F8007E00
03E0003F00
07C0001F80
0FC0000F80
0F800007C0
1F000007C0
1F000003E0
1F000003E0
1F000003E0
1E000003E0
1E000003E0
1E000003E0
1F000003E0
1F000003E0
1F000003E0
1F000007C0
0F800007C0
0FC0000F80
07C0001F80
03F0003F00
03F8007E00
01FE03FC00
007FFFF800
003FFFF000
000FFFC000
0001FE0000
ENDCHAR
STARTCHAR U+00D4
ENCODING 212
SWIDTH 793 0
DWIDTH 38 0
BBX 38 40 0 0
BITMAP
0000FC0000
0001FC0000
0001FE0000
0003CF0000
00038F0000
0007078000
000F038000
0000000000
0000000000
0001FE0000
000FFFC000
003FFFF000
007FFFF800
01FE03FC00
03F8007E00
03E0003F00
07C0001F80
0FC0000F80
0F800007C0
1F000007C0
1F000003E0
1F000003E0
1F000003E0
1E000003E0
1E000003E0
1E000003E0
1F000003E0
1F000003E0
1F000003E0
1F000007C0
0F800007C0
0FC0000F80
07C0001F80
03F0003F00
03F8007E00
01FE03FC00
007FFFF800
003FFFF000
000FFFC000
0001FE0000
ENDCHAR
STARTCHAR U+00D5
ENCODING 213
SWIDTH 793 0
DWIDTH 38 0
BBX 38 39 0 0
BITMAP
0007810000
000FE18000
001FFF8000
001FFF8000
00087F0000
00001E0000
0000000000
0000000000
0001FE0000
000FFFC000
003FFFF000
007FFFF800
01FE03FC00
03F8007E00
03E0003F00
07C0001F80
0FC0000F80
0F800007C0
1F000007C0
1F000003E0
1F000003E0
1F000003E0
1E000003E0
1E000003E0
1E000003E0
1F000003E0
1F000003E0
1F000003E0
1F000007C0
0F800007C0
0FC0000F80
07C0001F80
03F0003F00
03F8007E00
01FE03FC00
007FFFF800
003FFFF000
000FFFC000
0001FE0000
ENDCHAR
STARTCHAR U+00D6
ENCODING 214
SWIDTH 793 0
DWIDTH 38 0
BBX 38 39 0 0
BITMAP
0002010000
0007038000
000F87C000
000F87C000
0007038000
0002010000
0000000000
0000000000
0001FE0000
000FFFC000
003FFFF000
007FFFF800
01FE03FC00
03F8007E00
03E0003F00
07C0001F80
0FC0000F80
0F800007C0
1F000007C0
1F000003E0
1F000003E0
1F000003E0
1E000003E0
1E000003E0
1E000003E0
1F000003E0
1F000003E0
1F000003E0
1F000007C0
0F800007C0
0FC0000F80
07C0001F80
03F0003F00
03F8007E00
01FE03FC00
007FFFF800
003FFFF000
000FFFC000
0001FE0000
ENDCHAR
STARTCHAR U+00D7
ENCODING 215
SWIDTH 522 0
DWIDTH 25 0
BBX 25 24 0 0
BITMAP
02002000
07007000
0F80F800
07C1F000
03E3E000
01F7C000
00FF8000
007F0000
007E0000
00FF0000
01FF8000
03F7C000
07E3E000
0FC1F000
0F80F800
07007000
02002000
00000000
00000000
00000000
00000000
00000000
00000000
00000000
ENDCHAR
STARTCHAR U+00D8
ENCODING 216
SWIDTH 793 0
DWIDTH 38 0
BBX 38 31 0 0
BITMAP
0001FE0080
000FFFC1C0
003FFFF3C0
007FFFFF80
01FE03FF00
03F8007E00
03E0003F00
07C0007F80
0FC000FF80
0F8001E7C0
1F0003C7C0
1F000783E0
1F000F03E0
1F001E03E0
1E003C03E0
1E007803E0
1E00F003E0
1F01E003E0
1F03C003E0
1F078003E0
1F0F0007C0
0F9E0007C0
0FFC000F80
07F8001F80
03F0003F00
03F8007E00
03FE03FC00
07FFFFF800
0F3FFFF000
0E0FFFC000
0401FE0000
ENDCHAR
STARTCHAR U+00D9
ENCODING 217
SWIDTH 751 0
DWIDTH 36 0
BBX 36 40 0 0
BITMAP
000F800000
0007C00000
0003E00000
0001E00000
0000F00000
0000780000
0000780000
0000000000
0000000000
0F80001F00
0F80001F00
0F80001F00
0F80001F00
0F80001F00
0F80001F00
0F80001F00
0F80001F00
0F80001F00
0F80001F00
0F80001F00
0F80001F00
0F80001F00
0F80001F00
0F80001F00
0F80001F00
0F80001F00
0F80001F00
0F80001F00
0F80001E00
0F80003E00
0780003E00
07C0003E00
07E0007C00
03E000FC00
01F801F800
01FE07F000
00FFFFE000
003FFFC000
001FFF0000
0003FC0000
ENDCHAR
STARTCHAR U+00DA
ENCODING 218
SWIDTH 751 0
DWIDTH 36 0
BBX 36 40 0 0
BITMAP
00003E0000
00007C0000
0000780000
0000F80000
0001F00000
0001E00000
0003C00000
0000000000
0000000000
0F80001F00
0F80001F00
0F80001F00
0F80001F00
0F80001F00
0F80001F00
0F80001F00
0F80001F00
0F80001F00
0F80001F00
0F80001F00
0F80001F00
0F80001F00
0F80001F00
0F80001F00
0F80001F00
0F80001F00
0F80001F00
0F80001F00
0F80001E00
0F80003E00
0780003E00
07C0003E00
07E0007C00
03E000FC00
01F801F800
01FE07F000
00FFFFE000
003FFFC000
001FFF0000
0003FC0000
ENDCHAR
STARTCHAR U+00DB
ENCODING 219
SWIDTH 751 0
DWIDTH 36 0
BBX 36 40 0 0
BITMAP
0001F80000
0003F80000
0003FC0000
00079E0000
00071E0000
000E0F0000
001E070000
0000000000
0000000000
0F80001F00
0F80001F00
0F80001F00
0F80001F00
0F80001F00
0F80001F00
0F80001F00
0F80001F00
0F80001F00
0F80001F00
0F80001F00
0F80001F00
0F80001F00
0F80001F00
0F80001F00
0F80001F00
0F80001F00
0F80001F00
0F80001F00
0F80001E00
0F80003E00
0780003E00
07C0003E00
07E0007C00
03E000FC00
01F801F800
01FE07F000
00FFFFE000
003FFFC000
001FFF0000
0003FC0000
ENDCHAR
STARTCHAR U+00DC
ENCODING 220
SWIDTH 751 0
DWIDTH 36 0
BBX 36 39 0 0
BITMAP
0004020000
000E070000
001F0F8000
001F0F8000
000E070000
0004020000
0000000000
0000000000
0F80001F00
0F80001F00
0F80001F00
0F80001F00
0F80001F00
0F80001F00
0F80001F00
0F80001F00
0F80001F00
0F80001F00
0F80001F00
0F80001F00
0F80001F00
0F80001F00
0F80001F00
0F80001F00
0F80001F00
0F80001F00
0F80001F00
0F80001E00
0F80003E00
0780003E00
07C0003E00
07E0007C00
03E000FC00
01F801F800
01FE07F000
00FFFFE000
003FFFC000
001FFF0000
0003FC0000
ENDCHAR
STARTCHAR U+00DD
ENCODING 221
SWIDTH 584 0
DWIDTH 28 0
BBX 28 40 0 0
BITMAP
0001F000
0003E000
0003C000
0007C000
000F8000
000F0000
001E0000
00000000
00000000
7C0007E0
3E0007C0
3F000F80
1F000F80
0F801F00
0F801F00
07C03E00
07E07C00
03E07C00
01F0F800
01F0F000
00F9F000
007FE000
007FE000
003FC000
003F8000
001F8000
000F0000
000F0000
000F0000
000F0000
000F0000
000F0000
000F0000
000F0000
000F0000
000F0000
000F0000
000F0000
000F0000
000F0000
ENDCHAR
STARTCHAR U+00DE
ENCODING 222
SWIDTH 563 0
DWIDTH 27 0
BBX 27 31 0 0
BITMAP
0F800000
0F800000
0F800000
0F800000
0F800000
0F800000
0FFFC000
0FFFF800
0FFFFC00
0FFFFE00
0F807F00
0F801F00
0F801F80
0F800F80
0F800F80
0F800F80
0F800F80
0F800F80
0F801F80
0F801F00
0F807F00
0FFFFE00
0FFFFC00
0FFFF000
0FFFC000
0F800000
0F800000
0F800000
0F800000
0F800000
0F800000
ENDCHAR
STARTCHAR U+00DF
ENCODING 223
SWIDTH 522 0
DWIDTH 25 0
BBX 25 31 0 0
BITMAP
003F8000
00FFE000
01FFF000
03FFF800
07E0F800
07807C00
0F807C00
0F003C00
0F003C00
0F007C00
0F007800
0F01F800
0F1FF000
0F1FC000
0F1FE000
0F1FF800
0F01FC00
0F007E00
0F003E00
0F001E00
0F001E00
0F001F00
0F001F00
0F001E00
0F003E00
0F003E00
0F00FC00
0F1FFC00
0F1FF800
0F1FE000
0F1F8000
ENDCHAR
STARTCHAR U+00E0
ENCODING 224
SWIDTH 501 0
DWIDTH 24 0
BBX 24 33 0 0
BITMAP
03E000
01F000
00F800
007800
003C00
001E00
001E00
000000
000000
000000
00FE00
07FF80
07FFC0
0FFFE0
0F03F0
0C01F0
1000F0
0000F0
001FF0
00FFF0
03FFF0
07F0F0
0F80F0
1F00F0
1E00F0
3E00F0
3E00F0
3E01F0
1F07F0
1FFFF0
0FFFF0
07FEF0
03F8F0
ENDCHAR
STARTCHAR U+00E1
ENCODING 225
SWIDTH 501 0
DWIDTH 24 0
BBX 24 33 0 0
BITMAP
000F80
001F00
001E00
003E00
007C00
007800
00F000
000000
000000
000000
00FE00
07FF80
07FFC0
0FFFE0
0F03F0
0C01F0
1000F0
0000F0
001FF0
00FFF0
03FFF0
07F0F0
0F80F0
1F00F0
1E00F0
3E00F0
3E00F0
3E01F0
1F07F0
1FFFF0
0FFFF0
07FEF0
03F8F0
ENDCHAR
STARTCHAR U+00E2
ENCODING 226
SWIDTH 501 0
DWIDTH 24 0
BBX 24 33 0 0
BITMAP
007E00
00FE00
00FF00
01E780
01C780
0383C0
0781C0
000000
000000
000000
00FE00
07FF80
07FFC0
0FFFE0
0F03F0
0C01F0
1000F0
0000F0
001FF0
00FFF0
03FFF0
07F0F0
0F80F0
1F00F0
1E00F0
3E00F0
3E00F0
3E01F0
1F07F0
1FFFF0
0FFFF0
07FEF0
03F8F0
ENDCHAR
STARTCHAR U+00E3
ENCODING 227
SWIDTH 501 0
DWIDTH 24 0
BBX 24 32 0 0
BITMAP
01E040
03F860
07FFE0
07FFE0
021FC0
000780
000000
000000
000000
00FE00
07FF80
07FFC0
0FFFE0
0F03F0
0C01F0
1000F0
0000F0
001FF0
00FFF0
03FFF0
07F0F0
0F80F0
1F00F0
1E00F0
3E00F0
3E00F0
3E01F0
1F07F0
1FFFF0
0FFFF0
07FEF0
03F8F0
ENDCHAR
STARTCHAR U+00E4
ENCODING 228
SWIDTH 501 0
DWIDTH 24 0
BBX 24 32 0 0
BITMAP
010080
0381C0
07C3E0
07C3E0
0381C0
010080
000000
000000
000000
00FE00
07FF80
07FFC0
0FFFE0
0F03F0
0C01F0
1000F0
0000F0
001FF0
00FFF0
03FFF0
07F0F0
0F80F0
1F00F0
1E00F0
3E00F0
3E00F0
3E01F0
1F07F0
1FFFF0
0FFFF0
07FEF0
03F8F0
ENDCHAR
STARTCHAR U+00E5
ENCODING 229
SWIDTH 501 0
DWIDTH 24 0
BBX 24 34 0 0
BITMAP
007800
00FE00
01C600
018300
018300
01C600
00FE00
007C00
000000
000000
000000
00FE00
07FF80
07FFC0
0FFFE0
0F03F0
0C01F0
1000F0
0000F0
001FF0
00FFF0
03FFF0
07F0F0
0F80F0
1F00F0
1E00F0
3E00F0
3E00F0
3E01F0
1F07F0
1FFFF0
0FFFF0
07FEF0
03F8F0
ENDCHAR
STARTCHAR U+00E6
ENCODING 230
SWIDTH 793 0
DWIDTH 38 0
BBX 38 23 0 0
BITMAP
00FE01FC00
07FF87FF00
0FFFCFFF80
0FFFFFFFC0
0F07FE0FC0
0C01FC03E0
1001F801E0
0000F801F0
0000F001F0
000FFFFFF0
00FFFFFFF0
03FFFFFFF0
0FE0F00000
1F80F00000
1E00F80000
3E00F80000
3E007C0030
3E00FE0070
3F03FF01F0
1FFFFFFFF0
1FFFCFFFC0
0FFF07FF80
03FC01FE00
ENDCHAR
STARTCHAR U+00E7
ENCODING 231
SWIDTH 480 0
DWIDTH 23 0
BBX 23 33 0 -10
BITMAP
001FE0
00FFF8
01FFF8
07FFF8
07F038
0FC008
1F8000
1F0000
1E0000
3E0000
3E0000
3E0000
3E0000
3E0000
1E0000
1F0000
1F8000
0FC008
07F038
07FFF8
01FFF8
00FFF8
001FE0
000E00
000E00
000F80
001FE0
0001E0
0001E0
0001E0
007FC0
007FC0
007F00
ENDCHAR
STARTCHAR U+00E8
ENCODING 232
SWIDTH 522 0
DWIDTH 25 0
BBX 25 33 0 0
BITMAP
01F00000
00F80000
007C0000
003C0000
001E0000
000F0000
000F0000
00000000
00000000
00000000
003F8000
00FFE000
03FFF000
07FFF800
0FC0F800
0F807C00
1F003C00
1E003E00
1E001E00
3FFFFE00
3FFFFE00
3FFFFE00
3FFFFE00
3E000000
1E000000
1F000000
1F000000
0F800600
0FE03E00
07FFFE00
03FFFE00
00FFFE00
003FF000
ENDCHAR
STARTCHAR U+00E9
ENCODING 233
SWIDTH 522 0
DWIDTH 25 0
BBX 25 33 0 0
BITMAP
0007C000
000F8000
000F0000
001F0000
003E0000
003C0000
00780000
00000000
00000000
00000000
003F8000
00FFE000
03FFF000
07FFF800
0FC0F800
0F807C00
1F003C00
1E003E00
1E001E00
3FFFFE00
3FFFFE00
3FFFFE00
3FFFFE00
3E000000
1E000000
1F000000
1F000000
0F800600
0FE03E00
07FFFE00
03FFFE00
00FFFE00
003FF000
ENDCHAR
STARTCHAR U+00EA
ENCODING 234
SWIDTH 522 0
DWIDTH 25 0
BBX 25 33 0 0
BITMAP
003F0000
007F0000
007F8000
00F3C000
00E3C000
01C1E000
03C0E000
00000000
00000000
00000000
003F8000
00FFE000
03FFF000
07FFF800
0FC0F800
0F807C00
1F003C00
1E003E00
1E001E00
3FFFFE00
3FFFFE00
3FFFFE00
3FFFFE00
3E000000
1E000000
1F000000
1F000000
0F800600
0FE03E00
07FFFE00
03FFFE00
00FFFE00
003FF000
ENDCHAR
STARTCHAR U+00EB
ENCODING 235
SWIDTH 522 0
DWIDTH 25 0
BBX 25 32 0 0
BITMAP
00804000
01C0E000
03E1F000
03E1F000
01C0E000
00804000
00000000
00000000
00000000
003F8000
00FFE000
03FFF000
07FFF800
0FC0F800
0F807C00
1F003C00
1E003E00
1E001E00
3FFFFE00
3FFFFE00
3FFFFE00
3FFFFE00
3E000000
1E000000
1F000000
1F000000
0F800600
0FE03E00
07FFFE00
03FFFE00
00FFFE00
003FF000
ENDCHAR
STARTCHAR U+00EC
ENCODING 236
SWIDTH 250 0
DWIDTH 12 0
BBX 13 33 -1 0
BITMAP
F800
7C00
3E00
1E00
0F00
0780
0780
0000
0000
0000
0F00
0F00
0F00
0F00
0F00
0F00
0F00
0F00
0F00
0F00
0F00
0F00
0F00
0F00
0F00
0F00
0F00
0F00
0F00
0F00
0F00
0F00
0F00
ENDCHAR
STARTCHAR U+00ED
ENCODING 237
SWIDTH 250 0
DWIDTH 12 0
BBX 13 33 0 0
BITMAP
01F0
03E0
03C0
07C0
0F80
0F00
1E00
0000
0000
0000
0F00
0F00
0F00
0F00
0F00
0F00
0F00
0F00
0F00
0F00
0F00
0F00
0F00
0F00
0F00
0F00
0F00
0F00
0F00
0F00
0F00
0F00
0F00
ENDCHAR
STARTCHAR U+00EE
ENCODING 238
SWIDTH 250 0
DWIDTH 12 0
BBX 14 33 -1 0
BITMAP
0FC0
1FC0
1FE0
3CF0
38F0
7078
F038
0000
0000
0000
0780
0780
0780
0780
0780
0780
0780
0780
0780
0780
0780
0780
0780
0780
0780
0780
0780
0780
0780
0780
0780
0780
0780
ENDCHAR
STARTCHAR U+00EF
ENCODING 239
SWIDTH 250 0
DWIDTH 12 0
BBX 16 32 -2 0
BITMAP
1008
381C
7C3E
7C3E
381C
1008
0000
0000
0000
03C0
03C0
03C0
03C0
03C0
03C0
03C0
03C0
03C0
03C0
03C0
03C0
03C0
03C0
03C0
03C0
03C0
03C0
03C0
03C0
03C0
03C0
03C0
ENDCHAR
STARTCHAR U+00F0
ENCODING 240
SWIDTH 543 0
DWIDTH 26 0
BBX 26 31 0 0
BITMAP
00604000
01FBE000
01FFF000
007FE000
00FF0000
03FF8000
07FFC000
03C7E000
0103F000
0001F000
007EF800
01FFF800
03FFFC00
07FFFC00
0FC0FE00
1F807E00
1F001E00
1E001E00
3E001E00
3E001E00
3E001E00
3E001E00
3E003E00
1E003E00
1F007C00
1F807C00
0FC1F800
0FFFF800
07FFF000
01FFC000
007F0000
ENDCHAR
STARTCHAR U+00F1
ENCODING 241
SWIDTH 584 0
DWIDTH 28 0
BBX 28 32 0 0
BITMAP
00781000
00FE1800
01FFF800
01FFF800
0087F000
0001E000
00000000
00000000
00000000
0F1FC000
0F7FF000
0FFFF800
0FFFFC00
0FE07E00
0F803E00
0F001F00
0F001F00
0F000F00
0F000F00
0F000F00
0F000F00
0F000F00
0F000F00
0F000F00
0F000F00
0F000F00
0F000F00
0F000F00
0F000F00
0F000F00
0F000F00
0F000F00
ENDCHAR
STARTCHAR U+00F2
ENCODING 242
SWIDTH 584 0
DWIDTH 28 0
BBX 28 33 0 0
BITMAP
00F80000
007C0000
003E0000
001E0000
000F0000
00078000
00078000
00000000
00000000
00000000
003FC000
00FFF000
01FFFC00
07FFFE00
07E07F00
0F801F00
1F000F80
1F000F80
1E000780
3E0007C0
3E0007C0
3E0007C0
3E0007C0
3E0007C0
1E000780
1F000F80
1F000F80
0FC01F00
0FE07F00
07FFFE00
03FFF800
00FFF000
003FC000
ENDCHAR
STARTCHAR U+00F3
ENCODING 243
SWIDTH 584 0
DWIDTH 28 0
BBX 28 33 0 0
BITMAP
0001F000
0003E000
0003C000
0007C000
000F8000
000F0000
001E0000
00000000
00000000
00000000
003FC000
00FFF000
01FFFC00
07FFFE00
07E07F00
0F801F00
1F000F80
1F000F80
1E000780
3E0007C0
3E0007C0
3E0007C0
3E0007C0
3E0007C0
1E000780
1F000F80
1F000F80
0FC01F00
0FE07F00
07FFFE00
03FFF800
00FFF000
003FC000
ENDCHAR
STARTCHAR U+00F4
ENCODING 244
SWIDTH 584 0
DWIDTH 28 0
BBX 28 33 0 0
BITMAP
001F8000
003F8000
003FC000
0079E000
0071E000
00E0F000
01E07000
00000000
00000000
00000000
003FC000
00FFF000
01FFFC00
07FFFE00
07E07F00
0F801F00
1F000F80
1F000F80
1E000780
3E0007C0
3E0007C0
3E0007C0
3E0007C0
3E0007C0
1E000780
1F000F80
1F000F80
0FC01F00
0FE07F00
07FFFE00
03FFF800
00FFF000
003FC000
ENDCHAR
STARTCHAR U+00F5
ENCODING 245
SWIDTH 584 0
DWIDTH 28 0
BBX 28 32 0 0
BITMAP
00781000
00FE1800
01FFF800
01FFF800
0087F000
0001E000
00000000
00000000
00000000
003FC000
00FFF000
01FFFC00
07FFFE00
07E07F00
0F801F00
1F000F80
1F000F80
1E000780
3E0007C0
3E0007C0
3E0007C0
3E0007C0
3E0007C0
1E000780
1F000F80
1F000F80
0FC01F00
0FE07F00
07FFFE00
03FFF800
00FFF000
003FC000
ENDCHAR
STARTCHAR U+00F6
ENCODING 246
SWIDTH 584 0
DWIDTH 28 0
BBX 28 32 0 0
BITMAP
00402000
00E07000
01F0F800
01F0F800
00E07000
00402000
00000000
00000000
00000000
003FC000
00FFF000
01FFFC00
07FFFE00
07E07F00
0F801F00
1F000F80
1F000F80
1E000780
3E0007C0
3E0007C0
3E0007C0
3E0007C0
3E0007C0
1E000780
1F000F80
1F000F80
0FC01F00
0FE07F00
07FFFE00
03FFF800
00FFF000
003FC000
ENDCHAR
STARTCHAR U+00F7
ENCODING 247
SWIDTH 522 0
DWIDTH 25 0
BBX 25 27 0 0
BITMAP
00080000
001C0000
003E0000
007F0000
003E0000
001C0000
00080000
00000000
00000000
00000000
1FFFFC00
1FFFFC00
1FFFFC00
1FFFFC00
00000000
00000000
00080000
001C0000
003E0000
007F0000
003E0000
001C0000
00080000
00000000
00000000
00000000
00000000
ENDCHAR
STARTCHAR U+00F8
ENCODING 248
SWIDTH 584 0
DWIDTH 28 0
BBX 28 25 0 -1
BITMAP
00000200
003FC700
00FFFF00
01FFFE00
07FFFE00
07E07F00
0F807F00
1F00FF80
1F01EF80
1E01C780
3E0387C0
3E0787C0
3E0F07C0
3E0E07C0
3E1C07C0
1E380780
1F780F80
1FF00F80
0FE01F00
07E07F00
07FFFE00
07FFF800
0FFFF000
0E3FC000
04000000
ENDCHAR
STARTCHAR U+00F9
ENCODING 249
SWIDTH 584 0
DWIDTH 28 0
BBX 28 33 0 0
BITMAP
00F80000
007C0000
003E0000
001E0000
000F0000
00078000
00078000
00000000
00000000
00000000
1F000F00
1F000F00
1F000F00
1F000F00
1F000F00
1F000F00
1F000F00
1F000F00
1F000F00
1F000F00
1F000F00
1F000F00
1F000F00
1F000F00
1F000F00
0F000F00
0F800F00
0FC01F00
07E07F00
07FFFF00
03FFFF00
01FFEF00
007F8F00
ENDCHAR
STARTCHAR U+00FA
ENCODING 250
SWIDTH 584 0
DWIDTH 28 0
BBX 28 33 0 0
BITMAP
0001F000
0003E000
0003C000
0007C000
000F8000
000F0000
001E0000
00000000
00000000
00000000
1F000F00
1F000F00
1F000F00
1F000F00
1F000F00
1F000F00
1F000F00
1F000F00
1F000F00
1F000F00
1F000F00
1F000F00
1F000F00
1F000F00
1F000F00
0F000F00
0F800F00
0FC01F00
07E07F00
07FFFF00
03FFFF00
01FFEF00
007F8F00
ENDCHAR
STARTCHAR U+00FB
ENCODING 251
SWIDTH 584 0
DWIDTH 28 0
BBX 28 33 0 0
BITMAP
001F8000
003F8000
003FC000
0079E000
0071E000
00E0F000
01E07000
00000000
00000000
00000000
1F000F00
1F000F00
1F000F00
1F000F00
1F000F00
1F000F00
1F000F00
1F000F00
1F000F00
1F000F00
1F000F00
1F000F00
1F000F00
1F000F00
1F000F00
0F000F00
0F800F00
0FC01F00
07E07F00
07FFFF00
03FFFF00
01FFEF00
007F8F00
ENDCHAR
STARTCHAR U+00FC
ENCODING 252
SWIDTH 584 0
DWIDTH 28 0
BBX 28 32 0 0
BITMAP
00402000
00E07000
01F0F800
01F0F800
00E07000
00402000
00000000
00000000
00000000
1F000F00
1F000F00
1F000F00
1F000F00
1F000F00
1F000F00
1F000F00
1F000F00
1F000F00
1F000F00
1F000F00
1F000F00
1F000F00
1F000F00
1F000F00
0F000F00
0F800F00
0FC01F00
07E07F00
07FFFF00
03FFFF00
01FFEF00
007F8F00
ENDCHAR
STARTCHAR U+00FD
ENCODING 253
SWIDTH 522 0
DWIDTH 25 0
BBX 25 42 0 -9
BITMAP
0007C000
000F8000
000F0000
001F0000
003E0000
003C0000
00780000
00000000
00000000
00000000
7C001F00
7C001F00
3C003E00
3E003E00
1E003C00
1F007C00
1F007C00
0F007800
0F80F800
0780F000
07C1F000
07C1F000
03C1E000
03E3E000
01E3C000
01F3C000
00F7C000
00F78000
00FF8000
007F0000
007F0000
003F0000
003E0000
003E0000
003C0000
003C0000
007C0000
00F80000
07F80000
07F00000
07E00000
07800000
ENDCHAR
STARTCHAR U+00FE
ENCODING 254
SWIDTH 584 0
DWIDTH 28 0
BBX 28 40 0 -9
BITMAP
0F000000
0F000000
0F000000
0F000000
0F000000
0F000000
0F000000
0F000000
0F1FC000
0F7FF000
0FFFF800
0FFFFE00
0FE0FE00
0F803F00
0F001F00
0F000F80
0F000F80
0F000780
0F000780
0F000780
0F000780
0F000780
0F000F80
0F000F80
0F001F00
0F803F00
0FE0FE00
0FFFFC00
0FFFF800
0F7FF000
0F1FC000
0F000000
0F000000
0F000000
0F000000
0F000000
0F000000
0F000000
0F000000
0F000000
ENDCHAR
STARTCHAR U+00FF
ENCODING 255
SWIDTH 522 0
DWIDTH 25 0
BBX 25 41 0 -9
BITMAP
01008000
0381C000
07C3E000
07C3E000
0381C000
01008000
00000000
00000000
00000000
7C001F00
7C001F00
3C003E00
3E003E00
1E003C00
1F007C00
1F007C00
0F007800
0F80F800
0780F000
07C1F000
07C1F000
03C1E000
03E3E000
01E3C000
01F3C000
00F7C000
00F78000
00FF8000
007F0000
007F0000
003F0000
003E0000
003E0000
003C0000
003C0000
007C0000
00F80000
07F80000
07F00000
07E00000
07800000
ENDCHAR
STARTCHAR U+2013
ENCODING 8211
SWIDTH 480 0
DWIDTH 23 0
BBX 25 14 -1 0
BITMAP
FFFFFE00
FFFFFE00
FFFFFE00
FFFFFE00
00000000
00000000
00000000
00000000
00000000
00000000
00000000
00000000
00000000
00000000
ENDCHAR
STARTCHAR U+2014
ENCODING 8212
SWIDTH 960 0
DWIDTH 46 0
BBX 48 14 -1 0
BITMAP
FFFFFFFFFFFC
FFFFFFFFFFFC
FFFFFFFFFFFC
FFFFFFFFFFFC
000000000000
000000000000
000000000000
000000000000
000000000000
000000000000
000000000000
000000000000
000000000000
000000000000
ENDCHAR
STARTCHAR U+2018
ENCODING 8216
SWIDTH 230 0
DWIDTH 11 0
BBX 11 31 0 0
BITMAP
0100
0200
0600
0E00
1E00
1E00
1F00
1F80
0F00
0600
0000
0000
0000
0000
0000
0000
0000
0000
0000
0000
0000
0000
0000
0000
0000
0000
0000
0000
0000
0000
0000
ENDCHAR
STARTCHAR U+2019
ENCODING 8217
SWIDTH 230 0
DWIDTH 11 0
BBX 11 31 0 0
BITMAP
0400
0E00
1F00
3F00
1F00
0F00
0700
0600
0E00
0800
1000
0000
0000
0000
0000
0000
0000
0000
0000
0000
0000
0000
0000
0000
0000
0000
0000
0000
0000
0000
0000
ENDCHAR
STARTCHAR U+201C
ENCODING 8220
SWIDTH 397 0
DWIDTH 19 0
BBX 19 31 0 0
BITMAP
010200
020600
060C00
0E1C00
1E1C00
1E3E00
1F3F00
1FBF00
0F1E00
060C00
000000
000000
000000
000000
000000
000000
000000
000000
000000
000000
000000
000000
000000
000000
000000
000000
000000
000000
000000
000000
000000
ENDCHAR
STARTCHAR U+201D
ENCODING 8221
SWIDTH 397 0
DWIDTH 19 0
BBX 19 31 0 0
BITMAP
040800
0E1C00
1F3E00
3F7E00
1F3E00
0F1E00
070E00
060C00
0E1C00
081000
102000
000000
000000
000000
000000
000000
000000
000000
000000
000000
000000
000000
000000
000000
000000
000000
000000
000000
000000
000000
000000
ENDCHAR
STARTCHAR U+2022
ENCODING 8226
SWIDTH 417 0
DWIDTH 20 0
BBX 20 20 0 0
BITMAP
004000
00E000
01F000
03F800
07FC00
0FFE00
0FFE00
07FC00
03F800
01F000
00E000
004000
000000
000000
000000
000000
000000
000000
000000
000000
ENDCHAR
STARTCHAR U+2026
ENCODING 8230
SWIDTH 877 0
DWIDTH 42 0
BBX 42 6 0 0
BITMAP
040008000800
0F001E001E00
1F803F003F00
1F003E003E00
0E001C001C00
040008000800
ENDCHAR
STARTCHAR U+20AC
ENCODING 8364
SWIDTH 605 0
DWIDTH 29 0
BBX 29 31 0 0
BITMAP
0003FC00
001FFF80
003FFFC0
00FFFFC0
01FE03C0
01F80040
03E00000
07E00000
07C00000
0F800000
3FFFF800
7FFFF800
7FFFF800
7FFFF800
1F000000
1F000000
1F000000
3FFFF000
7FFFF000
7FFFF000
7FFFE000
0F800000
07C00000
07E00000
03E00000
03F80040
01FE03C0
00FFFFC0
003FFFC0
001FFF80
0003FC00
ENDCHAR
ENDFONT
