STARTFONT 2.1
COMMENT Converted from Johnston100 W03 Regular.ttf at 35px with ttf2bdf.py (Pillow, 1-bit, no AA)
FONT -Misc-Johnston100-Medium-R-Normal--35-350-75-75-P-370-ISO10646-1
SIZE 35 75 75
FONTBOUNDINGBOX 37 40 -2 -9
STARTPROPERTIES 9
FOUNDRY "Misc"
FAMILY_NAME "Johnston100"
WEIGHT_NAME "Medium"
SLANT "R"
PIXEL_SIZE 35
RESOLUTION_X 75
RESOLUTION_Y 75
FONT_ASCENT 31
FONT_DESCENT 9
ENDPROPERTIES
CHARS 200
STARTCHAR space
ENCODING 32
SWIDTH 247 0
DWIDTH 9 0
BBX 9 40 0 -9
BITMAP
0000
0000
0000
0000
0000
0000
0000
0000
0000
0000
0000
0000
0000
0000
0000
0000
0000
0000
0000
0000
0000
0000
0000
0000
0000
0000
0000
0000
0000
0000
0000
0000
0000
0000
0000
0000
0000
0000
0000
0000
ENDCHAR
STARTCHAR !
ENCODING 33
SWIDTH 274 0
DWIDTH 10 0
BBX 10 24 0 0
BITMAP
1E00
1E00
1E00
1E00
1E00
1E00
1E00
1E00
1E00
1E00
1E00
0E00
0E00
0C00
0C00
0C00
0C00
0C00
0000
0000
0C00
1E00
0E00
0400
ENDCHAR
STARTCHAR "
ENCODING 34
SWIDTH 384 0
DWIDTH 14 0
BBX 14 24 0 0
BITMAP
3C70
3C70
3C70
3C70
3C70
1870
1870
1860
1820
0000
0000
0000
0000
0000
0000
0000
0000
0000
0000
0000
0000
0000
0000
0000
ENDCHAR
STARTCHAR U+0023
ENCODING 35
SWIDTH 741 0
DWIDTH 27 0
BBX 27 24 0 0
BITMAP
00040400
001C1C00
00181C00
00383800
00383800
00383800
00703000
0FFFFF80
0FFFFF80
1FFFFF80
00E06000
00E0E000
00E0E000
01C0E000
01C1C000
3FFFFE00
7FFFFE00
7FFFFE00
03838000
03838000
07030000
07070000
07070000
04040000
ENDCHAR
STARTCHAR $
ENCODING 36
SWIDTH 494 0
DWIDTH 18 0
BBX 18 29 0 -3
BITMAP
01C000
01C000
03E000
0FF800
1FFC00
1E7C00
3C1800
3C0000
3C0000
3E0000
1F0000
1FC000
0FF000
03FC00
00FE00
003E00
001F00
000F00
000F00
000700
300F00
780F00
3C1E00
3FFE00
1FF800
07F000
01C000
01C000
000000
ENDCHAR
STARTCHAR %
ENCODING 37
SWIDTH 713 0
DWIDTH 26 0
BBX 26 24 0 0
BITMAP
07803000
1FE07000
3FE06000
38F0E000
3871C000
3871C000
38F38000
3FE38000
1FE70000
07870000
000E0000
000E0000
001C0000
001C0000
00387C00
0038FE00
0071FF00
0073C700
00E38300
00E38300
01C3C700
01C1FF00
0380FE00
03807800
ENDCHAR
STARTCHAR &
ENCODING 38
SWIDTH 658 0
DWIDTH 24 0
BBX 24 24 0 0
BITMAP
00F800
03FE00
07FE00
0F8F00
0F0700
0F0700
0F0700
0F0F00
079E00
03FE00
01F800
07F000
0FF83C
1F7C38
3E3E78
3C1F70
380FF0
3807E0
3803C0
3C07E0
3E1FF0
1FFF78
0FFC7C
03F03E
ENDCHAR
STARTCHAR '
ENCODING 39
SWIDTH 219 0
DWIDTH 8 0
BBX 8 24 0 0
BITMAP
3C
3C
3C
3C
3C
18
18
18
18
00
00
00
00
00
00
00
00
00
00
00
00
00
00
00
ENDCHAR
STARTCHAR (
ENCODING 40
SWIDTH 247 0
DWIDTH 9 0
BBX 9 28 0 -2
BITMAP
0700
0F00
0E00
0E00
1E00
1C00
1C00
1C00
3C00
3800
3800
3800
3800
3800
3800
3800
3800
3800
3800
3C00
1C00
1C00
1C00
1C00
0E00
0E00
0F00
0700
ENDCHAR
STARTCHAR )
ENCODING 41
SWIDTH 247 0
DWIDTH 9 0
BBX 9 28 0 -2
BITMAP
7000
3800
3800
3C00
1C00
1C00
1C00
1E00
0E00
0E00
0E00
0E00
0E00
0E00
0E00
0E00
0E00
0E00
0E00
0E00
1E00
1C00
1C00
1C00
3C00
3800
3800
7000
ENDCHAR
STARTCHAR *
ENCODING 42
SWIDTH 384 0
DWIDTH 14 0
BBX 14 24 0 0
BITMAP
0380
0300
2310
7B38
1F70
0FE0
07C0
0F80
3B60
7338
2310
0300
0380
0000
0000
0000
0000
0000
0000
0000
0000
0000
0000
0000
ENDCHAR
STARTCHAR +
ENCODING 43
SWIDTH 521 0
DWIDTH 19 0
BBX 19 18 0 0
BITMAP
00E000
00E000
00E000
00E000
00E000
3FFF00
3FFF00
3FFF00
00E000
00E000
00E000
00E000
00E000
000000
000000
000000
000000
000000
ENDCHAR
STARTCHAR ,
ENCODING 44
SWIDTH 247 0
DWIDTH 9 0
BBX 9 9 0 -4
BITMAP
0800
1C00
3C00
3C00
1C00
0C00
1800
1000
2000
ENDCHAR
STARTCHAR -
ENCODING 45
SWIDTH 357 0
DWIDTH 13 0
BBX 13 11 0 0
BITMAP
7FF0
7FF0
7FF0
0000
0000
0000
0000
0000
0000
0000
0000
ENDCHAR
STARTCHAR .
ENCODING 46
SWIDTH 247 0
DWIDTH 9 0
BBX 9 5 0 0
BITMAP
0800
1C00
3E00
1C00
0800
ENDCHAR
STARTCHAR /
ENCODING 47
SWIDTH 302 0
DWIDTH 11 0
BBX 12 28 0 -2
BITMAP
00E0
00E0
01E0
01C0
01C0
01C0
0380
0380
0380
0780
0700
0700
0700
0E00
0E00
0E00
1C00
1C00
1C00
3C00
3800
3800
3800
7000
7000
7000
F000
E000
ENDCHAR
STARTCHAR 0
ENCODING 48
SWIDTH 549 0
DWIDTH 20 0
BBX 20 24 0 0
BITMAP
00F800
03FE00
07FF00
078F00
0F0780
0E0380
1E03C0
1C03C0
1C03C0
1C01C0
1C01C0
1C01C0
1C01C0
1C01C0
1C01C0
1C03C0
1C03C0
1E03C0
0E0380
0F0780
0F8F00
07FF00
03FE00
00F800
ENDCHAR
STARTCHAR 1
ENCODING 49
SWIDTH 274 0
DWIDTH 10 0
BBX 10 24 0 0
BITMAP
0200
0600
0E00
0E00
0E00
0E00
0E00
0E00
0E00
0E00
0E00
0E00
0E00
0E00
0E00
0E00
0E00
0E00
0E00
0E00
0E00
0E00
0E00
0E00
ENDCHAR
STARTCHAR 2
ENCODING 50
SWIDTH 466 0
DWIDTH 17 0
BBX 17 24 0 0
BITMAP
03F000
0FF800
1FFC00
1C1E00
180E00
100F00
200F00
000F00
000E00
001E00
001E00
003C00
007C00
007800
00F800
00F000
01E000
03E000
03C000
078000
0F8000
0FFF00
1FFF00
3FFF00
ENDCHAR
STARTCHAR 3
ENCODING 51
SWIDTH 494 0
DWIDTH 18 0
BBX 18 24 0 0
BITMAP
3FFF00
3FFF00
3FFE00
003C00
003C00
007800
007000
00F000
01E000
01F800
03FC00
003E00
000F00
000700
000780
000780
000780
000780
000700
100F00
781E00
3FFE00
1FF800
07F000
ENDCHAR
STARTCHAR 4
ENCODING 52
SWIDTH 549 0
DWIDTH 20 0
BBX 20 24 0 0
BITMAP
000000
000200
000600
000E00
001E00
001E00
003E00
007E00
00FE00
01EE00
03CE00
038E00
070E00
0E0E00
1C0E00
3FFFE0
7FFFE0
FFFFE0
000E00
000E00
000E00
000E00
000E00
000E00
ENDCHAR
STARTCHAR 5
ENCODING 53
SWIDTH 494 0
DWIDTH 18 0
BBX 18 24 0 0
BITMAP
000000
000000
000000
000000
000000
000000
000000
000000
000000
000000
000000
000000
000000
000000
000000
000000
000000
000000
000000
000000
000000
000000
000000
000000
ENDCHAR
STARTCHAR 6
ENCODING 54
SWIDTH 521 0
DWIDTH 19 0
BBX 19 24 0 0
BITMAP
007C00
00F000
01E000
03C000
078000
078000
0F0000
1E0000
1E0000
1FF800
3FFC00
3FFE00
3E1F00
380780
380780
380780
380380
380780
3C0780
3C0F00
1E1F00
0FFE00
07FC00
03F000
ENDCHAR
STARTCHAR 7
ENCODING 55
SWIDTH 466 0
DWIDTH 17 0
BBX 17 24 0 0
BITMAP
3FFF00
3FFF00
3FFE00
001E00
001E00
003C00
003C00
007800
007800
007000
00F000
00F000
01E000
01E000
03C000
03C000
078000
078000
070000
0F0000
0F0000
1E0000
1E0000
3C0000
ENDCHAR
STARTCHAR 8
ENCODING 56
SWIDTH 494 0
DWIDTH 18 0
BBX 18 24 0 0
BITMAP
01F000
07FC00
0FFE00
0E1E00
1E0F00
1C0F00
1C0F00
1E0E00
0F1E00
0FFC00
07F800
03FC00
0FFE00
1F1F00
1C0F00
3C0780
380780
380780
380780
3C0700
1E0F00
1FFE00
0FFC00
03F000
ENDCHAR
STARTCHAR 9
ENCODING 57
SWIDTH 521 0
DWIDTH 19 0
BBX 19 24 0 0
BITMAP
01F000
07FC00
0FFE00
1E1F00
3C0F00
3C0780
380780
380380
380380
380380
3C0780
1E0F80
1FFF80
0FFF00
03FF00
000F00
000E00
001E00
003C00
007800
00F800
01F000
03E000
07C000
ENDCHAR
STARTCHAR :
ENCODING 58
SWIDTH 274 0
DWIDTH 10 0
BBX 10 18 0 0
BITMAP
0400
0E00
1F00
0E00
0400
0000
0000
0000
0000
0000
0000
0000
0000
0400
0E00
1F00
0E00
0400
ENDCHAR
STARTCHAR ;
ENCODING 59
SWIDTH 274 0
DWIDTH 10 0
BBX 10 22 0 -4
BITMAP
0400
0E00
1F00
0E00
0400
0000
0000
0000
0000
0000
0000
0000
0000
0400
0E00
1E00
1E00
0E00
0600
0C00
0800
1000
ENDCHAR
STARTCHAR U+003C
ENCODING 60
SWIDTH 521 0
DWIDTH 19 0
BBX 19 21 0 0
BITMAP
000100
000700
001F00
007F00
01FE00
07F800
1FE000
3F8000
3E0000
3F8000
1FE000
07F800
01FE00
007F00
001F00
000700
000100
000000
000000
000000
000000
ENDCHAR
STARTCHAR =
ENCODING 61
SWIDTH 521 0
DWIDTH 19 0
BBX 19 17 0 0
BITMAP
3FFF00
3FFF00
3FFF00
000000
000000
000000
000000
000000
3FFF00
3FFF00
3FFF00
000000
000000
000000
000000
000000
000000
ENDCHAR
STARTCHAR U+003E
ENCODING 62
SWIDTH 521 0
DWIDTH 19 0
BBX 19 21 0 0
BITMAP
300000
3C0000
3F0000
3FC000
0FF000
03FC00
00FE00
003F00
000F00
003F00
00FE00
03F800
0FF000
3FC000
3F0000
3C0000
300000
000000
000000
000000
000000
ENDCHAR
STARTCHAR ?
ENCODING 63
SWIDTH 439 0
DWIDTH 16 0
BBX 16 24 0 0
BITMAP
0FC0
3FF0
7FF8
787C
203C
001C
003C
003C
0078
01F0
03E0
07C0
0F00
0F00
0F00
0780
0380
0100
0000
0100
0380
07C0
0380
0100
ENDCHAR
STARTCHAR @
ENCODING 64
SWIDTH 933 0
DWIDTH 34 0
BBX 34 31 0 -7
BITMAP
0007FC0000
001FFF8000
007FFFC000
00FC07F000
03E000F800
03C0007800
0780003C00
0F01F91E00
0E07FF0E00
1C0FFF0E00
1C1E0E0600
1C3C0E0700
38380E0700
38380E0700
38780E0700
38700E0700
38700E0600
38700E0E00
38780E0E00
38380E1E00
383C3E3C00
1C1FFFF800
1C0FF7F000
1E07C3E000
0F00000000
0780000000
07C0020000
03F80E0000
00FFFE0000
007FFC0000
000FF00000
ENDCHAR
STARTCHAR A
ENCODING 65
SWIDTH 658 0
DWIDTH 24 0
BBX 24 24 0 0
BITMAP
003800
003C00
007C00
007E00
00FE00
00EE00
00EF00
01E700
01C780
03C780
03C380
0383C0
0781C0
0701E0
0F01E0
0FFFE0
0FFFF0
1FFFF0
1C0078
3C0078
3C0038
38003C
78003C
78001E
ENDCHAR
STARTCHAR B
ENCODING 66
SWIDTH 576 0
DWIDTH 21 0
BBX 21 24 0 0
BITMAP
1FF800
1FFE00
1FFF00
1E0F00
1E0780
1E0780
1E0780
1E0780
1E0700
1E0F00
1FFE00
1FFF00
1FFFC0
1E03C0
1E01E0
1E00E0
1E00E0
1E00E0
1E00E0
1E01E0
1E03E0
1FFFC0
1FFF80
1FFE00
ENDCHAR
STARTCHAR C
ENCODING 67
SWIDTH 658 0
DWIDTH 24 0
BBX 24 24 0 0
BITMAP
001FC0
00FFF8
01FFFC
03E03C
078004
0F0000
1E0000
1E0000
3C0000
3C0000
3C0000
3C0000
3C0000
3C0000
3C0000
1C0000
1E0000
1E0000
0F0000
078004
03F03C
01FFFC
00FFF8
001FC0
ENDCHAR
STARTCHAR D
ENCODING 68
SWIDTH 686 0
DWIDTH 25 0
BBX 25 24 0 0
BITMAP
1FFC0000
1FFF8000
1FFFE000
1E03F000
1E00F800
1E007C00
1E003C00
1E001E00
1E001E00
1E000E00
1E000E00
1E000E00
1E000E00
1E000E00
1E000E00
1E001E00
1E001E00
1E003C00
1E007C00
1E00F800
1E03F000
1FFFE000
1FFF8000
1FFC0000
ENDCHAR
STARTCHAR E
ENCODING 69
SWIDTH 549 0
DWIDTH 20 0
BBX 20 24 0 0
BITMAP
1FFFC0
1FFFC0
1FFFC0
1E0000
1E0000
1E0000
1E0000
1E0000
1E0000
1E0000
1FFF00
1FFF00
1FFF00
1E0000
1E0000
1E0000
1E0000
1E0000
1E0000
1E0000
1E0000
1FFFE0
1FFFE0
1FFFE0
ENDCHAR
STARTCHAR F
ENCODING 70
SWIDTH 521 0
DWIDTH 19 0
BBX 19 24 0 0
BITMAP
1FFFC0
1FFFC0
1FFFC0
1E0000
1E0000
1E0000
1E0000
1E0000
1E0000
1FFE00
1FFE00
1FFE00
1E0000
1E0000
1E0000
1E0000
1E0000
1E0000
1E0000
1E0000
1E0000
1E0000
1E0000
1E0000
ENDCHAR
STARTCHAR G
ENCODING 71
SWIDTH 713 0
DWIDTH 26 0
BBX 26 24 0 0
BITMAP
001FE000
00FFF800
01FFFE00
03E03E00
07C00E00
0F000200
1E000000
1E000000
3C000000
3C000000
3C03FE00
3C03FE00
3C03FE00
3C000E00
3C000E00
3C000E00
1E000E00
1E000E00
0F000E00
07800E00
03E03E00
01FFFE00
00FFFC00
001FE000
ENDCHAR
STARTCHAR H
ENCODING 72
SWIDTH 713 0
DWIDTH 26 0
BBX 26 24 0 0
BITMAP
1E001C00
1E001C00
1E001C00
1E001C00
1E001C00
1E001C00
1E001C00
1E001C00
1E001C00
1FFFFC00
1FFFFC00
1FFFFC00
1E001C00
1E001C00
1E001C00
1E001C00
1E001C00
1E001C00
1E001C00
1E001C00
1E001C00
1E001C00
1E001C00
1E001C00
ENDCHAR
STARTCHAR I
ENCODING 73
SWIDTH 274 0
DWIDTH 10 0
BBX 10 24 0 0
BITMAP
1E00
1E00
1E00
1E00
1E00
1E00
1E00
1E00
1E00
1E00
1E00
1E00
1E00
1E00
1E00
1E00
1E00
1E00
1E00
1E00
1E00
1E00
1E00
1E00
ENDCHAR
STARTCHAR J
ENCODING 74
SWIDTH 466 0
DWIDTH 17 0
BBX 17 24 0 0
BITMAP
003C00
003C00
003C00
003C00
003C00
003C00
003C00
003C00
003C00
003C00
003C00
003C00
003C00
003C00
003C00
003C00
003C00
003C00
103C00
703800
787800
3FF000
1FE000
0FC000
ENDCHAR
STARTCHAR K
ENCODING 75
SWIDTH 603 0
DWIDTH 22 0
BBX 22 24 0 0
BITMAP
1E00F8
1E01F0
1E03E0
1E0780
1E0F00
1E1E00
1E7C00
1EF800
1FF000
1FE000
1FC000
1FE000
1FF000
1EF800
1E7800
1E3C00
1E3E00
1E1F00
1E0F80
1E07C0
1E03E0
1E01F0
1E00F8
1E0078
ENDCHAR
STARTCHAR L
ENCODING 76
SWIDTH 521 0
DWIDTH 19 0
BBX 19 24 0 0
BITMAP
1E0000
1E0000
1E0000
1E0000
1E0000
1E0000
1E0000
1E0000
1E0000
1E0000
1E0000
1E0000
1E0000
1E0000
1E0000
1E0000
1E0000
1E0000
1E0000
1E0000
1E0000
1FFFC0
1FFFC0
1FFFC0
ENDCHAR
STARTCHAR M
ENCODING 77
SWIDTH 823 0
DWIDTH 30 0
BBX 30 24 0 0
BITMAP
1E0001E0
1F0003E0
1F8007E0
1FC007E0
1FE00FE0
1FE01FE0
1EF03FE0
1E787DE0
1E7CF9E0
1E3EF1E0
1E1FE1E0
1E0FC1E0
1E07C1E0
1E0781E0
1E0301E0
1E0001E0
1E0001E0
1E0001E0
1E0001E0
1E0001E0
1E0001E0
1E0001E0
1E0001E0
1E0001E0
ENDCHAR
STARTCHAR N
ENCODING 78
SWIDTH 741 0
DWIDTH 27 0
BBX 27 24 0 0
BITMAP
1E000F00
1F000F00
1F000F00
1F800F00
1FC00F00
1FE00F00
1FF00F00
1EF00F00
1E780F00
1E3C0F00
1E3E0F00
1E1E0F00
1E0F0F00
1E078F00
1E07CF00
1E03CF00
1E01EF00
1E00FF00
1E00FF00
1E007F00
1E003F00
1E001F00
1E001F00
1E000F00
ENDCHAR
STARTCHAR O
ENCODING 79
SWIDTH 795 0
DWIDTH 29 0
BBX 29 24 0 0
BITMAP
001FC000
00FFF000
01FFFC00
03E07E00
07801F00
0F000780
1E000780
1E0003C0
3C0003C0
3C0001E0
3C0001E0
3C0001E0
3C0001E0
3C0001E0
3C0001E0
3C0001C0
1E0003C0
1E000780
0F000780
07801F00
03E07E00
01FFFC00
00FFF000
001FC000
ENDCHAR
STARTCHAR P
ENCODING 80
SWIDTH 576 0
DWIDTH 21 0
BBX 21 24 0 0
BITMAP
1FFC00
1FFF00
1FFF80
1E07C0
1E03E0
1E01E0
1E01E0
1E01E0
1E01E0
1E03E0
1E07C0
1FFF80
1FFF00
1FFC00
1E0000
1E0000
1E0000
1E0000
1E0000
1E0000
1E0000
1E0000
1E0000
1E0000
ENDCHAR
STARTCHAR Q
ENCODING 81
SWIDTH 795 0
DWIDTH 29 0
BBX 29 24 0 0
BITMAP
001FC000
00FFF000
01FFFC00
03E07E00
07801F00
0F000780
1E000780
1E0003C0
3C0003C0
3C0001E0
3C0001E0
3C0001E0
3C0001E0
3C0001E0
3C0001C0
3C0021C0
1E0073C0
1E007F80
0F003F80
07803F00
03E07F80
01FFFFC0
00FFF3C0
001FC180
ENDCHAR
STARTCHAR R
ENCODING 82
SWIDTH 576 0
DWIDTH 21 0
BBX 22 24 0 0
BITMAP
1FF800
1FFE00
1FFF00
1E0F80
1E0780
1E0380
1E03C0
1E0380
1E0780
1E0F80
1FFF00
1FFE00
1FFC00
1E7C00
1E3C00
1E1E00
1E1F00
1E0F80
1E0780
1E03C0
1E03E0
1E01E0
1E00F0
1E00F8
ENDCHAR
STARTCHAR S
ENCODING 83
SWIDTH 494 0
DWIDTH 18 0
BBX 18 24 0 0
BITMAP
03E000
0FF800
1FFC00
1E3C00
3C1800
3C0000
3C0000
3E0000
1F8000
1FC000
07F000
03FC00
00FE00
003E00
001F00
000F00
000700
100700
700F00
780F00
3C1E00
1FFC00
0FF800
07E000
ENDCHAR
STARTCHAR T
ENCODING 84
SWIDTH 549 0
DWIDTH 20 0
BBX 20 24 0 0
BITMAP
7FFFE0
7FFFE0
7FFFE0
00F000
00F000
00F000
00F000
00F000
00F000
00F000
00F000
00F000
00F000
00F000
00F000
00F000
00F000
00F000
00F000
00F000
00F000
00F000
00F000
00F000
ENDCHAR
STARTCHAR U
ENCODING 85
SWIDTH 741 0
DWIDTH 27 0
BBX 27 24 0 0
BITMAP
1E000F00
1E000F00
1E000F00
1E000F00
1E000F00
1E000F00
1E000F00
1E000F00
1E000F00
1E000F00
1E000F00
1E000F00
1E000F00
1E000F00
1E000F00
1E000F00
1E000F00
0F000E00
0F001E00
07803C00
03E0F800
01FFF000
00FFE000
003F8000
ENDCHAR
STARTCHAR V
ENCODING 86
SWIDTH 603 0
DWIDTH 22 0
BBX 22 24 0 0
BITMAP
78003C
780078
380078
3C0078
3C00F0
1E00F0
1E00E0
0E01E0
0F01E0
0F01C0
0703C0
0783C0
078380
038780
03C700
01C700
01CF00
01EE00
00EE00
00FE00
00FC00
007C00
007C00
003800
ENDCHAR
STARTCHAR W
ENCODING 87
SWIDTH 933 0
DWIDTH 34 0
BBX 34 24 0 0
BITMAP
7801E00780
3801E00780
3C01F00700
3C03F00F00
1C03F00F00
1E03F80E00
1E03F80E00
1E07B81E00
0E073C1E00
0F073C1C00
0F0F1C3C00
070F1C3C00
078E1E3800
078E1E3800
039E0E7800
039C0F7800
03DC0F7000
03FC077000
01F807F000
01F807E000
01F803E000
00F803E000
00F003E000
00F003C000
ENDCHAR
STARTCHAR X
ENCODING 88
SWIDTH 658 0
DWIDTH 24 0
BBX 24 24 0 0
BITMAP
7C003C
3C0078
1E00F0
0F01F0
0F81E0
0783C0
03C780
01EF80
01FF00
00FE00
007C00
007C00
007E00
00FE00
01EF00
03E780
03C7C0
0783C0
0F81E0
0F00F0
1E00F8
3C007C
7C003C
78001E
ENDCHAR
STARTCHAR Y
ENCODING 89
SWIDTH 576 0
DWIDTH 21 0
BBX 21 24 0 0
BITMAP
7800F0
7C00F0
3C01E0
1E01C0
1E03C0
0F0780
070780
078F00
03CE00
03DE00
01FC00
00F800
00F800
007000
007000
007000
007000
007000
007000
007000
007000
007000
007000
007000
ENDCHAR
STARTCHAR Z
ENCODING 90
SWIDTH 603 0
DWIDTH 22 0
BBX 22 24 0 0
BITMAP
3FFFF8
3FFFF0
3FFFE0
0003E0
0003C0
000780
000F80
000F00
001E00
003E00
003C00
007800
00F800
00F000
01E000
03E000
03C000
078000
0F8000
0F0000
1F0000
1FFFF8
3FFFF8
7FFFF8
ENDCHAR
STARTCHAR [
ENCODING 91
SWIDTH 329 0
DWIDTH 12 0
BBX 12 32 0 -5
BITMAP
1FC0
1FC0
1FC0
1C00
1C00
1C00
1C00
1C00
1C00
1C00
1C00
1C00
1C00
1C00
1C00
1C00
1C00
1C00
1C00
1C00
1C00
1C00
1C00
1C00
1C00
1C00
1C00
1C00
1C00
1FC0
1FC0
1FC0
ENDCHAR
STARTCHAR \
ENCODING 92
SWIDTH 302 0
DWIDTH 11 0
BBX 12 28 0 -2
BITMAP
E000
F000
7000
7000
7000
3800
3800
3800
1C00
1C00
1C00
1C00
0E00
0E00
0E00
0700
0700
0700
0780
0380
0380
0380
01C0
01C0
01C0
00E0
00E0
00E0
ENDCHAR
STARTCHAR ]
ENCODING 93
SWIDTH 329 0
DWIDTH 12 0
BBX 12 32 0 -4
BITMAP
7F80
7F80
7F80
0380
0380
0380
0380
0380
0380
0380
0380
0380
0380
0380
0380
0380
0380
0380
0380
0380
0380
0380
0380
0380
0380
0380
0380
0380
0380
7F80
7F80
7F80
ENDCHAR
STARTCHAR ^
ENCODING 94
SWIDTH 549 0
DWIDTH 20 0
BBX 20 24 0 0
BITMAP
00F000
01F800
01F800
039C00
079E00
070E00
0F0700
1E0780
1C0380
3C01C0
000000
000000
000000
000000
000000
000000
000000
000000
000000
000000
000000
000000
000000
000000
ENDCHAR
STARTCHAR _
ENCODING 95
SWIDTH 494 0
DWIDTH 18 0
BBX 19 5 -1 -5
BITMAP
000000
000000
000000
FFFFC0
FFFFC0
ENDCHAR
STARTCHAR `
ENCODING 96
SWIDTH 439 0
DWIDTH 16 0
BBX 16 24 0 0
BITMAP
FFFF
FFFF
FFFF
E007
E007
E007
E007
E007
E007
E007
E007
E007
E007
E007
E007
E007
E007
E007
E007
E007
E007
FFFF
FFFF
FFFF
ENDCHAR
STARTCHAR a
ENCODING 97
SWIDTH 494 0
DWIDTH 18 0
BBX 18 17 0 0
BITMAP
07F000
1FF800
1FFC00
1C1E00
200E00
000E00
00FF00
07FF00
0FFF00
1F0F00
3C0F00
380F00
380F00
3C1F00
3FFF00
1FFF00
0FCF00
ENDCHAR
STARTCHAR b
ENCODING 98
SWIDTH 576 0
DWIDTH 21 0
BBX 21 24 0 0
BITMAP
1C0000
1C0000
1C0000
1C0000
1C0000
1C0000
1C0000
1CFC00
1FFF00
1FFF80
1F07C0
1C03C0
1C01E0
1C00E0
1C00E0
1C00E0
1C00E0
1C00E0
1C01E0
1C03E0
1F07C0
1FFF80
1FFF00
1DFC00
ENDCHAR
STARTCHAR c
ENCODING 99
SWIDTH 494 0
DWIDTH 18 0
BBX 18 17 0 0
BITMAP
00FC00
03FF00
0FFF00
1F8700
1E0100
3C0000
380000
380000
380000
380000
380000
3C0000
1E0100
1F8300
0FFF00
03FF00
00FC00
ENDCHAR
STARTCHAR d
ENCODING 100
SWIDTH 576 0
DWIDTH 21 0
BBX 21 24 0 0
BITMAP
0001C0
0001C0
0001C0
0001C0
0001C0
0001C0
0001C0
01F9C0
07FFC0
0FFFC0
1F07C0
1E01C0
3C01C0
3801C0
3801C0
3801C0
3801C0
3801C0
3C01C0
1E01C0
1F07C0
0FFFC0
07FFC0
01FDC0
ENDCHAR
STARTCHAR e
ENCODING 101
SWIDTH 521 0
DWIDTH 19 0
BBX 19 17 0 0
BITMAP
01F800
07FE00
0FFF00
1F0F00
1C0780
3C0380
380380
3FFFC0
3FFFC0
3FFFC0
380000
3C0000
1C0080
1F0380
0FFF80
07FF80
01FE00
ENDCHAR
STARTCHAR f
ENCODING 102
SWIDTH 384 0
DWIDTH 14 0
BBX 14 24 0 0
BITMAP
01F8
07F8
0FF8
0F00
0E00
1E00
1E00
7FF8
7FF8
7FF8
1E00
1E00
1E00
1E00
1E00
1E00
1E00
1E00
1E00
1E00
1E00
1E00
1E00
1E00
ENDCHAR
STARTCHAR g
ENCODING 103
SWIDTH 494 0
DWIDTH 18 0
BBX 18 24 0 -7
BITMAP
03FF80
0FFF80
1FFF80
3C1E00
380E00
380E00
380E00
380E00
3C1E00
1FFC00
0FF800
1FE000
1C0000
1F0000
0FF000
0FFC00
3CFF00
780F80
700380
700380
780780
7FFF00
3FFE00
0FF800
ENDCHAR
STARTCHAR h
ENCODING 104
SWIDTH 576 0
DWIDTH 21 0
BBX 21 24 0 0
BITMAP
1C0000
1C0000
1C0000
1C0000
1C0000
1C0000
1C0000
1CFC00
1FFF00
1FFF80
1F07C0
1C03C0
1C01C0
1C01C0
1C01C0
1C01C0
1C01C0
1C01C0
1C01C0
1C01C0
1C01C0
1C01C0
1C01C0
1C01C0
ENDCHAR
STARTCHAR i
ENCODING 105
SWIDTH 247 0
DWIDTH 9 0
BBX 9 23 0 0
BITMAP
0800
1C00
3E00
1C00
0800
0000
1C00
1C00
1C00
1C00
1C00
1C00
1C00
1C00
1C00
1C00
1C00
1C00
1C00
1C00
1C00
1C00
1C00
ENDCHAR
STARTCHAR j
ENCODING 106
SWIDTH 247 0
DWIDTH 9 0
BBX 10 29 -1 -7
BITMAP
0400
0E00
1F00
0E00
0400
0E00
0E00
0E00
0E00
0E00
0E00
0E00
0E00
0E00
0E00
0E00
0E00
0E00
0E00
0E00
0E00
0E00
0E00
0E00
0E00
1E00
FC00
FC00
F000
ENDCHAR
STARTCHAR k
ENCODING 107
SWIDTH 521 0
DWIDTH 19 0
BBX 19 24 0 0
BITMAP
1C0000
1C0000
1C0000
1C0000
1C0000
1C0000
1C0000
1C0780
1C0F00
1C3E00
1C7C00
1CF800
1DF000
1FC000
1F8000
1FC000
1DE000
1CF000
1C7800
1C3C00
1C1E00
1C1F00
1C0F80
1C07C0
ENDCHAR
STARTCHAR l
ENCODING 108
SWIDTH 302 0
DWIDTH 11 0
BBX 11 24 0 0
BITMAP
1C00
1C00
1C00
1C00
1C00
1C00
1C00
1C00
1C00
1C00
1C00
1C00
1C00
1C00
1C00
1C00
1C00
1C00
1C00
1C00
1E00
1FE0
0FE0
07E0
ENDCHAR
STARTCHAR m
ENCODING 109
SWIDTH 905 0
DWIDTH 33 0
BBX 33 17 0 0
BITMAP
1CFC1FC000
1FFF7FF000
1FFFFFF000
1F07F07800
1C03C03800
1C03C03C00
1C01C03C00
1C01C01C00
1C01C01C00
1C01C01C00
1C01C01C00
1C01C01C00
1C01C01C00
1C01C01C00
1C01C01C00
1C01C01C00
1C01C01C00
ENDCHAR
STARTCHAR n
ENCODING 110
SWIDTH 576 0
DWIDTH 21 0
BBX 21 17 0 0
BITMAP
1CFC00
1FFF00
1FFF80
1F07C0
1C03C0
1C01C0
1C01C0
1C01C0
1C01C0
1C01C0
1C01C0
1C01C0
1C01C0
1C01C0
1C01C0
1C01C0
1C01C0
ENDCHAR
STARTCHAR o
ENCODING 111
SWIDTH 576 0
DWIDTH 21 0
BBX 21 17 0 0
BITMAP
00FC00
07FF00
0FFF80
1F07C0
1E01E0
3C01E0
3800E0
3800F0
3800F0
3800F0
3800E0
3C01E0
1E01E0
1F07C0
0FFF80
07FF00
01FC00
ENDCHAR
STARTCHAR p
ENCODING 112
SWIDTH 576 0
DWIDTH 21 0
BBX 21 24 0 -7
BITMAP
1CFC00
1FFF00
1FFF80
1F07C0
1C03C0
1C01E0
1C00E0
1C00E0
1C00E0
1C00E0
1C00E0
1C01E0
1C03C0
1F07C0
1FFF80
1FFF00
1DFC00
1C0000
1C0000
1C0000
1C0000
1C0000
1C0000
1C0000
ENDCHAR
STARTCHAR q
ENCODING 113
SWIDTH 576 0
DWIDTH 21 0
BBX 21 24 0 -7
BITMAP
01FDC0
07FFC0
0FFFC0
1F03C0
1E01C0
3C01C0
3801C0
3801C0
3801C0
3801C0
3801C0
3C01C0
1E01C0
1F03C0
0FFFC0
07FFC0
01F9C0
0001C0
0001C0
0001C0
0001C0
0001C0
0001C0
0001C0
ENDCHAR
STARTCHAR r
ENCODING 114
SWIDTH 384 0
DWIDTH 14 0
BBX 14 17 0 0
BITMAP
1DF8
1FF8
1FF8
1F00
1C00
1C00
1C00
1C00
1C00
1C00
1C00
1C00
1C00
1C00
1C00
1C00
1C00
ENDCHAR
STARTCHAR s
ENCODING 115
SWIDTH 466 0
DWIDTH 17 0
BBX 17 17 0 0
BITMAP
07F000
0FFC00
1FFC00
3C1C00
380400
380000
3C0000
3FC000
1FF800
07FC00
007E00
001E00
200E00
381E00
3FFE00
3FFC00
0FF000
ENDCHAR
STARTCHAR t
ENCODING 116
SWIDTH 411 0
DWIDTH 15 0
BBX 15 21 0 0
BITMAP
1E00
1E00
1E00
1E00
7FF8
7FF8
7FF8
1E00
1E00
1E00
1E00
1E00
1E00
1E00
1E00
1E00
1E00
0F00
0FF8
07F8
03F8
ENDCHAR
STARTCHAR u
ENCODING 117
SWIDTH 576 0
DWIDTH 21 0
BBX 21 17 0 0
BITMAP
1C01C0
1C01C0
1C01C0
1C01C0
1C01C0
1C01C0
1C01C0
1C01C0
1C01C0
1C01C0
1C01C0
1C01C0
1E01C0
1F07C0
0FFFC0
07FFC0
01F9C0
ENDCHAR
STARTCHAR v
ENCODING 118
SWIDTH 521 0
DWIDTH 19 0
BBX 19 17 0 0
BITMAP
7003C0
7803C0
380380
3C0780
3C0700
1E0F00
1E0F00
0E0E00
0F1E00
071C00
07BC00
03B800
03B800
03F800
01F000
01F000
00E000
ENDCHAR
STARTCHAR w
ENCODING 119
SWIDTH 823 0
DWIDTH 30 0
BBX 30 17 0 0
BITMAP
78078038
78078078
3807C070
3C0FC070
3C0FC0F0
1C1FE0E0
1E1CE0E0
1E1CE1E0
0E3C71C0
0F3871C0
0F387BC0
07703B80
07F03B80
07F03F80
03E01F00
03E01F00
01C00F00
ENDCHAR
STARTCHAR x
ENCODING 120
SWIDTH 494 0
DWIDTH 18 0
BBX 18 17 0 0
BITMAP
780F00
3C0F00
1E1E00
0F3C00
073800
07F800
03F000
01E000
03E000
03F000
07F800
0F3C00
0E1C00
1E1E00
3C0F00
780780
700380
ENDCHAR
STARTCHAR y
ENCODING 121
SWIDTH 521 0
DWIDTH 19 0
BBX 19 24 0 -7
BITMAP
7001C0
7803C0
380380
3C0780
3C0780
1C0700
1E0F00
0E0E00
0F0E00
071E00
071C00
07BC00
03B800
03F800
01F800
01F000
00F000
00E000
00E000
01C000
03C000
1F8000
1F8000
1E0000
ENDCHAR
STARTCHAR z
ENCODING 122
SWIDTH 466 0
DWIDTH 17 0
BBX 17 17 0 0
BITMAP
3FFF00
3FFE00
3FFC00
003C00
007800
00F000
00F000
01E000
03C000
03C000
078000
0F0000
0F0000
1E0000
3FFE00
3FFE00
7FFE00
ENDCHAR
STARTCHAR {
ENCODING 123
SWIDTH 357 0
DWIDTH 13 0
BBX 13 31 0 -4
BITMAP
01E0
03E0
0780
0700
0700
0700
0700
0700
0700
0700
0700
0700
0F00
1E00
3C00
3800
3C00
1E00
0F00
0700
0700
0700
0700
0700
0700
0700
0700
0700
0780
03E0
01E0
ENDCHAR
STARTCHAR |
ENCODING 124
SWIDTH 219 0
DWIDTH 8 0
BBX 8 35 0 -9
BITMAP
3C
3C
3C
3C
3C
3C
3C
3C
3C
3C
3C
3C
3C
3C
3C
3C
3C
3C
3C
3C
3C
3C
3C
3C
3C
3C
3C
3C
3C
3C
3C
3C
3C
3C
3C
ENDCHAR
STARTCHAR }
ENCODING 125
SWIDTH 357 0
DWIDTH 13 0
BBX 13 31 0 -4
BITMAP
7C00
7E00
0E00
0700
0700
0700
0700
0700
0700
0700
0700
0700
0780
07C0
03E0
00E0
03E0
03C0
0780
0700
0700
0700
0700
0700
0700
0700
0700
0700
0E00
7E00
7C00
ENDCHAR
STARTCHAR ~
ENCODING 126
SWIDTH 521 0
DWIDTH 19 0
BBX 19 15 0 0
BITMAP
070300
1FC380
1FE380
38FF00
387E00
101C00
000000
000000
000000
000000
000000
000000
000000
000000
000000
ENDCHAR
STARTCHAR U+00A0
ENCODING 160
SWIDTH 247 0
DWIDTH 9 0
BBX 9 40 0 -9
BITMAP
0000
0000
0000
0000
0000
0000
0000
0000
0000
0000
0000
0000
0000
0000
0000
0000
0000
0000
0000
0000
0000
0000
0000
0000
0000
0000
0000
0000
0000
0000
0000
0000
0000
0000
0000
0000
0000
0000
0000
0000
ENDCHAR
STARTCHAR U+00A1
ENCODING 161
SWIDTH 274 0
DWIDTH 10 0
BBX 10 25 0 -7
BITMAP
0C00
1E00
1E00
0C00
0000
0000
0C00
0C00
0C00
0C00
0C00
0C00
1E00
1E00
1E00
1E00
1E00
1E00
1E00
1E00
1E00
1E00
1E00
1E00
0000
ENDCHAR
STARTCHAR U+00A2
ENCODING 162
SWIDTH 494 0
DWIDTH 18 0
BBX 18 21 0 -2
BITMAP
007000
007000
01FC00
07FF00
0FFF00
1F8700
1E0100
3C0000
380000
380000
380000
380000
380000
3C0000
1E0100
1F8300
0FFF00
03FF00
00FC00
007000
007000
ENDCHAR
STARTCHAR U+00A3
ENCODING 163
SWIDTH 521 0
DWIDTH 19 0
BBX 19 24 0 0
BITMAP
007E00
00FF00
01FF80
03C300
038100
038000
078000
078000
070000
070000
070000
070000
1FFC00
1FF800
3FF800
0F0000
0F0000
0F0000
0E0000
0E0000
1E0000
1FFF80
3FFF80
7FFF00
ENDCHAR
STARTCHAR U+00A4
ENCODING 164
SWIDTH 576 0
DWIDTH 21 0
BBX 21 18 0 0
BITMAP
080080
1C01C0
3EFBE0
1FFFC0
0FFF80
0F8780
0F0380
0E03C0
1E03C0
1E03C0
0E03C0
0F0380
0F8780
0FFF80
1FFFC0
3EFBE0
1C01C0
080080
ENDCHAR
STARTCHAR U+00A5
ENCODING 165
SWIDTH 603 0
DWIDTH 22 0
BBX 22 24 0 0
BITMAP
780078
3C00F0
1C01E0
1E01E0
0F03C0
070380
078780
038700
1FCFE0
1FFFE0
1FFFE0
00FC00
007800
007800
1FFFE0
1FFFE0
1FFFE0
007800
007800
007800
007800
007800
007800
007800
ENDCHAR
STARTCHAR U+00A6
ENCODING 166
SWIDTH 219 0
DWIDTH 8 0
BBX 8 35 0 -9
BITMAP
3C
3C
3C
3C
3C
3C
3C
3C
3C
3C
3C
3C
3C
3C
00
00
00
00
00
00
00
3C
3C
3C
3C
3C
3C
3C
3C
3C
3C
3C
3C
3C
3C
ENDCHAR
STARTCHAR U+00A7
ENCODING 167
SWIDTH 466 0
DWIDTH 17 0
BBX 17 31 0 -7
BITMAP
07E000
0FF800
1FFC00
3C3C00
381E00
380800
380000
3C0000
3E0000
1FC000
0FF000
1FFC00
3E7E00
781E00
700F00
700F00
780F00
7C0E00
3FBE00
1FFC00
07F800
00FC00
003E00
001E00
000E00
100E00
781E00
3C3E00
1FFC00
0FF800
07E000
ENDCHAR
STARTCHAR U+00A8
ENCODING 168
SWIDTH 439 0
DWIDTH 16 0
BBX 16 24 0 0
BITMAP
FFFF
FFFF
FFFF
E007
E007
E007
E007
E007
E007
E007
E007
E007
E007
E007
E007
E007
E007
E007
E007
E007
E007
FFFF
FFFF
FFFF
ENDCHAR
STARTCHAR U+00A9
ENCODING 169
SWIDTH 768 0
DWIDTH 28 0
BBX 28 24 0 0
BITMAP
001FC000
00FFF000
01E07C00
07801E00
06000700
0C1F8300
183FC180
18F06180
30E020C0
31C000C0
31C000C0
31C000C0
31C000C0
31C000C0
31C000C0
30E020C0
18F06180
183FE180
0C1FC300
06000700
07800E00
01E07800
00FFF000
003FC000
ENDCHAR
STARTCHAR U+00AA
ENCODING 170
SWIDTH 302 0
DWIDTH 11 0
BBX 11 24 0 0
BITMAP
3F00
3F80
6180
0180
0F80
3F80
7980
7180
7180
7F80
3F80
0000
0000
0000
0000
0000
0000
0000
0000
0000
0000
0000
0000
0000
ENDCHAR
STARTCHAR U+00AB
ENCODING 171
SWIDTH 549 0
DWIDTH 20 0
BBX 20 17 0 0
BITMAP
01C380
03C780
078F00
070E00
0E1C00
1E3C00
3C7800
387000
3C7800
1C3800
0E1C00
070E00
078F00
03C780
01C380
000000
000000
ENDCHAR
STARTCHAR U+00AC
ENCODING 172
SWIDTH 521 0
DWIDTH 19 0
BBX 19 17 0 0
BITMAP
3FFF00
3FFF00
3FFF00
000700
000700
000700
000700
000700
000700
000700
000000
000000
000000
000000
000000
000000
000000
ENDCHAR
STARTCHAR U+00AD
ENCODING 173
SWIDTH 357 0
DWIDTH 13 0
BBX 13 11 0 0
BITMAP
7FF0
7FF0
7FF0
0000
0000
0000
0000
0000
0000
0000
0000
ENDCHAR
STARTCHAR U+00AE
ENCODING 174
SWIDTH 768 0
DWIDTH 28 0
BBX 28 24 0 0
BITMAP
001FC000
00FFF000
01E07C00
07800E00
06000700
0C7F8300
187FC180
1871E180
3070E0C0
3070E0C0
3071E0C0
307FC0C0
307F00C0
307380C0
3073C0C0
3071C0C0
1870E180
1870F180
0C707300
06000600
07800E00
01E07C00
00FFF000
003FC000
ENDCHAR
STARTCHAR U+00AF
ENCODING 175
SWIDTH 439 0
DWIDTH 16 0
BBX 16 24 0 0
BITMAP
FFFF
FFFF
FFFF
E007
E007
E007
E007
E007
E007
E007
E007
E007
E007
E007
E007
E007
E007
E007
E007
E007
E007
FFFF
FFFF
FFFF
ENDCHAR
STARTCHAR U+00B0
ENCODING 176
SWIDTH 384 0
DWIDTH 14 0
BBX 14 24 0 0
BITMAP
0780
1FC0
1FE0
38F0
3870
3070
3870
38F0
1FE0
1FC0
0780
0000
0000
0000
0000
0000
0000
0000
0000
0000
0000
0000
0000
0000
ENDCHAR
STARTCHAR U+00B1
ENCODING 177
SWIDTH 521 0
DWIDTH 19 0
BBX 19 20 0 0
BITMAP
00E000
00E000
00E000
00E000
00E000
3FFF00
3FFF00
3FFF00
00E000
00E000
00E000
00E000
00E000
000000
000000
000000
000000
3FFF00
3FFF00
3FFF00
ENDCHAR
STARTCHAR U+00B2
ENCODING 178
SWIDTH 329 0
DWIDTH 12 0
BBX 12 24 0 0
BITMAP
1F00
3F80
7FC0
71C0
41C0
01C0
0180
0380
0300
0700
0E00
0C00
1FC0
3FC0
3FC0
0000
0000
0000
0000
0000
0000
0000
0000
0000
ENDCHAR
STARTCHAR U+00B3
ENCODING 179
SWIDTH 329 0
DWIDTH 12 0
BBX 12 24 0 0
BITMAP
7FC0
7FC0
0380
0780
0700
0F00
0F80
01C0
00C0
00E0
00E0
20C0
71C0
7F80
1F00
0000
0000
0000
0000
0000
0000
0000
0000
0000
ENDCHAR
STARTCHAR U+00B4
ENCODING 180
SWIDTH 439 0
DWIDTH 16 0
BBX 16 24 0 0
BITMAP
FFFF
FFFF
FFFF
E007
E007
E007
E007
E007
E007
E007
E007
E007
E007
E007
E007
E007
E007
E007
E007
E007
E007
FFFF
FFFF
FFFF
ENDCHAR
STARTCHAR U+00B5
ENCODING 181
SWIDTH 549 0
DWIDTH 20 0
BBX 20 24 0 -7
BITMAP
1C03C0
1C03C0
1C03C0
1C03C0
1C03C0
1C03C0
1C03C0
1C03C0
1C03C0
1C03C0
1C03C0
1E03C0
1E03C0
1F07C0
1FFFC0
1FFFC0
1DFBC0
1C0000
1C0000
1C0000
1C0000
1C0000
1C0000
1C0000
ENDCHAR
STARTCHAR U+00B6
ENCODING 182
SWIDTH 521 0
DWIDTH 19 0
BBX 19 31 0 -7
BITMAP
03FFC0
0FFFC0
1FE300
3FE300
3FE300
3FE300
3FE300
3FE300
3FE300
3FE300
1FE300
0FE300
07E300
006300
006300
006300
006300
006300
006300
006300
006300
006300
006300
006300
006300
006300
006300
006300
006300
006300
006300
ENDCHAR
STARTCHAR U+00B7
ENCODING 183
SWIDTH 247 0
DWIDTH 9 0
BBX 9 14 0 0
BITMAP
0800
1C00
3E00
1C00
0800
0000
0000
0000
0000
0000
0000
0000
0000
0000
ENDCHAR
STARTCHAR U+00B8
ENCODING 184
SWIDTH 439 0
DWIDTH 16 0
BBX 16 24 0 0
BITMAP
FFFF
FFFF
FFFF
E007
E007
E007
E007
E007
E007
E007
E007
E007
E007
E007
E007
E007
E007
E007
E007
E007
E007
FFFF
FFFF
FFFF
ENDCHAR
STARTCHAR U+00B9
ENCODING 185
SWIDTH 219 0
DWIDTH 8 0
BBX 8 24 0 0
BITMAP
04
1C
1C
1C
1C
1C
1C
1C
1C
1C
1C
1C
1C
1C
1C
00
00
00
00
00
00
00
00
00
ENDCHAR
STARTCHAR U+00BA
ENCODING 186
SWIDTH 357 0
DWIDTH 13 0
BBX 13 24 0 0
BITMAP
0F80
1FE0
38F0
7070
7030
7030
7030
7070
38F0
1FE0
0F80
0000
0000
0000
0000
0000
0000
0000
0000
0000
0000
0000
0000
0000
ENDCHAR
STARTCHAR U+00BB
ENCODING 187
SWIDTH 549 0
DWIDTH 20 0
BBX 20 17 0 0
BITMAP
387800
1C3C00
1E1C00
0F0E00
070F00
038780
01C380
01E1C0
01C3C0
038780
078700
0F0E00
0E1C00
1C3C00
387800
000000
000000
ENDCHAR
STARTCHAR U+00BC
ENCODING 188
SWIDTH 768 0
DWIDTH 28 0
BBX 28 24 0 0
BITMAP
04003000
1C007000
1C006000
1C00E000
1C00C000
1C01C000
1C038000
1C038000
1C070000
1C070040
1C0E00C0
1C0E01C0
1C1C03C0
1C1C03C0
1C3807C0
00380FC0
00701DC0
007039C0
00E071C0
00E0FFE0
01C1FFE0
01C001C0
038001C0
038001C0
ENDCHAR
STARTCHAR U+00BD
ENCODING 189
SWIDTH 795 0
DWIDTH 29 0
BBX 29 24 0 0
BITMAP
04003000
1C007000
1C006000
1C00E000
1C00C000
1C01C000
1C038000
1C038000
1C070000
1C0707C0
1C0E0FE0
1C0E1FF0
1C1C1C70
1C1C1070
1C380070
00380060
007000E0
007000C0
00E001C0
00E00380
01C00300
01C007F0
03800FF0
03800FF0
ENDCHAR
STARTCHAR U+00BE
ENCODING 190
SWIDTH 850 0
DWIDTH 31 0
BBX 31 24 0 0
BITMAP
7FC00600
7FC00E00
03800C00
07801C00
07001800
0F003800
0F807000
01C07000
00C0E000
00E0E010
00E1C030
20C1C070
71C380F0
7F8380F0
1F0701F0
000703F0
000E0770
000E0E70
001C1C70
001C3FF8
00387FF8
00380070
00700070
00700070
ENDCHAR
STARTCHAR U+00BF
ENCODING 191
SWIDTH 439 0
DWIDTH 16 0
BBX 16 25 0 -7
BITMAP
0080
01C0
03E0
01C0
0080
0000
0080
01C0
01E0
00F0
00F0
00F0
01E0
07E0
0F80
1F00
3E00
3C00
3800
3804
3C0E
3E1E
1FFC
0FF8
03E0
ENDCHAR
STARTCHAR U+00C0
ENCODING 192
SWIDTH 658 0
DWIDTH 24 0
BBX 24 31 0 0
BITMAP
00F000
007800
003800
001C00
000E00
000000
000000
003800
003C00
007C00
007E00
00FE00
00EE00
00EF00
01E700
01C780
03C780
03C380
0383C0
0781C0
0701E0
0F01E0
0FFFE0
0FFFF0
1FFFF0
1C0078
3C0078
3C0038
38003C
78003C
78001E
ENDCHAR
STARTCHAR U+00C1
ENCODING 193
SWIDTH 658 0
DWIDTH 24 0
BBX 24 31 0 0
BITMAP
000780
000F00
001E00
001C00
003800
000000
000000
003800
003C00
007C00
007E00
00FE00
00EE00
00EF00
01E700
01C780
03C780
03C380
0383C0
0781C0
0701E0
0F01E0
0FFFE0
0FFFF0
1FFFF0
1C0078
3C0078
3C0038
38003C
78003C
78001E
ENDCHAR
STARTCHAR U+00C2
ENCODING 194
SWIDTH 658 0
DWIDTH 24 0
BBX 24 31 0 0
BITMAP
003C00
007E00
00EE00
00C700
018380
000000
000000
003800
003C00
007C00
007E00
00FE00
00EE00
00EF00
01E700
01C780
03C780
03C380
0383C0
0781C0
0701E0
0F01E0
0FFFE0
0FFFF0
1FFFF0
1C0078
3C0078
3C0038
38003C
78003C
78001E
ENDCHAR
STARTCHAR U+00C3
ENCODING 195
SWIDTH 658 0
DWIDTH 24 0
BBX 24 31 0 0
BITMAP
01E100
03F180
03FF80
033F00
000E00
000000
000000
003800
003C00
007C00
007E00
00FE00
00EE00
00EF00
01E700
01C780
03C780
03C380
0383C0
0781C0
0701E0
0F01E0
0FFFE0
0FFFF0
1FFFF0
1C0078
3C0078
3C0038
38003C
78003C
78001E
ENDCHAR
STARTCHAR U+00C4
ENCODING 196
SWIDTH 658 0
DWIDTH 24 0
BBX 24 31 0 0
BITMAP
008100
01C380
03E7C0
01C380
008100
000000
000000
003800
003C00
007C00
007E00
00FE00
00EE00
00EF00
01E700
01C780
03C780
03C380
0383C0
0781C0
0701E0
0F01E0
0FFFE0
0FFFF0
1FFFF0
1C0078
3C0078
3C0038
38003C
78003C
78001E
ENDCHAR
STARTCHAR U+00C5
ENCODING 197
SWIDTH 658 0
DWIDTH 24 0
BBX 24 32 0 0
BITMAP
003C00
006E00
004600
004600
006C00
003C00
000000
000000
003800
003C00
007C00
007E00
00FE00
00EE00
00EF00
01E700
01C780
03C780
03C380
0383C0
0781C0
0701E0
0F01E0
0FFFE0
0FFFF0
1FFFF0
1C0078
3C0078
3C0038
38003C
78003C
78001E
ENDCHAR
STARTCHAR U+00C6
ENCODING 198
SWIDTH 878 0
DWIDTH 32 0
BBX 32 24 0 0
BITMAP
0003FFFC
0007FFFC
0007FFFC
000FF000
001EF000
001EF000
003CF000
003CF000
0078F000
0078F000
00F0FFF0
01F0FFF0
01E0FFF0
03C0F000
03FFF000
07FFF000
07FFF000
0F00F000
1F00F000
1E00F000
3C00F000
3C00FFFE
7800FFFE
7800FFFE
ENDCHAR
STARTCHAR U+00C7
ENCODING 199
SWIDTH 658 0
DWIDTH 24 0
BBX 24 31 0 -7
BITMAP
001FC0
00FFF8
01FFFC
03E03C
078004
0F0000
1E0000
1E0000
3C0000
3C0000
3C0000
3C0000
3C0000
3C0000
3C0000
3C0000
1E0000
1E0000
0F0000
078004
03F03C
01FFFC
00FFF8
001FC0
000C00
000F00
001F80
000380
000380
003F00
003E00
ENDCHAR
STARTCHAR U+00C8
ENCODING 200
SWIDTH 549 0
DWIDTH 20 0
BBX 20 31 0 0
BITMAP
03C000
01E000
00E000
007000
003800
000000
000000
1FFFC0
1FFFC0
1FFFC0
1E0000
1E0000
1E0000
1E0000
1E0000
1E0000
1E0000
1FFF00
1FFF00
1FFF00
1E0000
1E0000
1E0000
1E0000
1E0000
1E0000
1E0000
1E0000
1FFFE0
1FFFE0
1FFFE0
ENDCHAR
STARTCHAR U+00C9
ENCODING 201
SWIDTH 549 0
DWIDTH 20 0
BBX 20 31 0 0
BITMAP
001E00
003C00
007800
007000
00E000
000000
000000
1FFFC0
1FFFC0
1FFFC0
1E0000
1E0000
1E0000
1E0000
1E0000
1E0000
1E0000
1FFF00
1FFF00
1FFF00
1E0000
1E0000
1E0000
1E0000
1E0000
1E0000
1E0000
1E0000
1FFFE0
1FFFE0
1FFFE0
ENDCHAR
STARTCHAR U+00CA
ENCODING 202
SWIDTH 549 0
DWIDTH 20 0
BBX 20 31 0 0
BITMAP
007800
00FC00
01DC00
018E00
030700
000000
000000
1FFFC0
1FFFC0
1FFFC0
1E0000
1E0000
1E0000
1E0000
1E0000
1E0000
1E0000
1FFF00
1FFF00
1FFF00
1E0000
1E0000
1E0000
1E0000
1E0000
1E0000
1E0000
1E0000
1FFFE0
1FFFE0
1FFFE0
ENDCHAR
STARTCHAR U+00CB
ENCODING 203
SWIDTH 549 0
DWIDTH 20 0
BBX 20 31 0 0
BITMAP
020400
070E00
0F9F00
070E00
020400
000000
000000
1FFFC0
1FFFC0
1FFFC0
1E0000
1E0000
1E0000
1E0000
1E0000
1E0000
1E0000
1FFF00
1FFF00
1FFF00
1E0000
1E0000
1E0000
1E0000
1E0000
1E0000
1E0000
1E0000
1FFFE0
1FFFE0
1FFFE0
ENDCHAR
STARTCHAR U+00CC
ENCODING 204
SWIDTH 274 0
DWIDTH 10 0
BBX 10 31 0 0
BITMAP
7800
3C00
1C00
0E00
0700
0000
0000
1E00
1E00
1E00
1E00
1E00
1E00
1E00
1E00
1E00
1E00
1E00
1E00
1E00
1E00
1E00
1E00
1E00
1E00
1E00
1E00
1E00
1E00
1E00
1E00
ENDCHAR
STARTCHAR U+00CD
ENCODING 205
SWIDTH 274 0
DWIDTH 10 0
BBX 10 31 0 0
BITMAP
03C0
0780
0F00
0E00
1C00
0000
0000
1E00
1E00
1E00
1E00
1E00
1E00
1E00
1E00
1E00
1E00
1E00
1E00
1E00
1E00
1E00
1E00
1E00
1E00
1E00
1E00
1E00
1E00
1E00
1E00
ENDCHAR
STARTCHAR U+00CE
ENCODING 206
SWIDTH 274 0
DWIDTH 10 0
BBX 11 31 0 0
BITMAP
1E00
3F00
7700
6380
C1C0
0000
0000
1E00
1E00
1E00
1E00
1E00
1E00
1E00
1E00
1E00
1E00
1E00
1E00
1E00
1E00
1E00
1E00
1E00
1E00
1E00
1E00
1E00
1E00
1E00
1E00
ENDCHAR
STARTCHAR U+00CF
ENCODING 207
SWIDTH 274 0
DWIDTH 10 0
BBX 12 31 -1 0
BITMAP
2040
70E0
F9F0
70E0
2040
0000
0000
0F00
0F00
0F00
0F00
0F00
0F00
0F00
0F00
0F00
0F00
0F00
0F00
0F00
0F00
0F00
0F00
0F00
0F00
0F00
0F00
0F00
0F00
0F00
0F00
ENDCHAR
STARTCHAR U+00D0
ENCODING 208
SWIDTH 686 0
DWIDTH 25 0
BBX 25 24 0 0
BITMAP
1FFC0000
1FFF8000
1FFFE000
1E03F000
1E00F800
1E007C00
1E003C00
1E001E00
1E001E00
1E000E00
1E000E00
7FF80E00
7FF80E00
7FF80E00
1E000E00
1E001E00
1E001E00
1E003C00
1E007C00
1E00F800
1E03F000
1FFFE000
1FFF8000
1FFC0000
ENDCHAR
STARTCHAR U+00D1
ENCODING 209
SWIDTH 741 0
DWIDTH 27 0
BBX 27 31 0 0
BITMAP
00784000
00FC6000
00FFE000
00CFC000
00038000
00000000
00000000
1E000F00
1F000F00
1F000F00
1F800F00
1FC00F00
1FE00F00
1FF00F00
1EF00F00
1E780F00
1E3C0F00
1E3E0F00
1E1E0F00
1E0F0F00
1E078F00
1E07CF00
1E03CF00
1E01EF00
1E00FF00
1E00FF00
1E007F00
1E003F00
1E001F00
1E001F00
1E000F00
ENDCHAR
STARTCHAR U+00D2
ENCODING 210
SWIDTH 795 0
DWIDTH 29 0
BBX 29 31 0 0
BITMAP
003C0000
001E0000
000E0000
00070000
00038000
00000000
00000000
001FC000
00FFF000
01FFFC00
03E07E00
07801F00
0F000780
1E000780
1E0003C0
3C0003C0
3C0001E0
3C0001E0
3C0001E0
3C0001E0
3C0001E0
3C0001E0
3C0001C0
1E0003C0
1E000780
0F000780
07801F00
03E07E00
01FFFC00
00FFF000
001FC000
ENDCHAR
STARTCHAR U+00D3
ENCODING 211
SWIDTH 795 0
DWIDTH 29 0
BBX 29 31 0 0
BITMAP
0001E000
0003C000
00078000
00070000
000E0000
00000000
00000000
001FC000
00FFF000
01FFFC00
03E07E00
07801F00
0F000780
1E000780
1E0003C0
3C0003C0
3C0001E0
3C0001E0
3C0001E0
3C0001E0
3C0001E0
3C0001E0
3C0001C0
1E0003C0
1E000780
0F000780
07801F00
03E07E00
01FFFC00
00FFF000
001FC000
ENDCHAR
STARTCHAR U+00D4
ENCODING 212
SWIDTH 795 0
DWIDTH 29 0
BBX 29 31 0 0
BITMAP
00078000
000FC000
001DC000
0018E000
00307000
00000000
00000000
001FC000
00FFF000
01FFFC00
03E07E00
07801F00
0F000780
1E000780
1E0003C0
3C0003C0
3C0001E0
3C0001E0
3C0001E0
3C0001E0
3C0001E0
3C0001E0
3C0001C0
1E0003C0
1E000780
0F000780
07801F00
03E07E00
01FFFC00
00FFF000
001FC000
ENDCHAR
STARTCHAR U+00D5
ENCODING 213
SWIDTH 795 0
DWIDTH 29 0
BBX 29 31 0 0
BITMAP
003C2000
007E3000
007FF000
0067E000
0001C000
00000000
00000000
001FC000
00FFF000
01FFFC00
03E07E00
07801F00
0F000780
1E000780
1E0003C0
3C0003C0
3C0001E0
3C0001E0
3C0001E0
3C0001E0
3C0001E0
3C0001E0
3C0001C0
1E0003C0
1E000780
0F000780
07801F00
03E07E00
01FFFC00
00FFF000
001FC000
ENDCHAR
STARTCHAR U+00D6
ENCODING 214
SWIDTH 795 0
DWIDTH 29 0
BBX 29 31 0 0
BITMAP
00204000
0070E000
00F9F000
0070E000
00204000
00000000
00000000
001FC000
00FFF000
01FFFC00
03E07E00
07801F00
0F000780
1E000780
1E0003C0
3C0003C0
3C0001E0
3C0001E0
3C0001E0
3C0001E0
3C0001E0
3C0001E0
3C0001C0
1E0003C0
1E000780
0F000780
07801F00
03E07E00
01FFFC00
00FFF000
001FC000
ENDCHAR
STARTCHAR U+00D7
ENCODING 215
SWIDTH 521 0
DWIDTH 19 0
BBX 19 18 0 0
BITMAP
040400
0E0F00
1F1E00
0FBC00
07F800
03F000
01F000
03F800
07FC00
0F3E00
1E1F00
1C0E00
080400
000000
000000
000000
000000
000000
ENDCHAR
STARTCHAR U+00D8
ENCODING 216
SWIDTH 795 0
DWIDTH 29 0
BBX 29 24 0 0
BITMAP
001FC080
00FFF1C0
01FFFF80
03E07F00
07801F00
0F001F80
1E003F80
1E0073C0
3C00E1C0
3C01C1E0
3C0381E0
3C0701E0
3C0E01E0
3C1C01E0
3C3C01E0
1C7801C0
1EF003C0
1FE00780
0FC00780
07801F00
0FE07E00
1FFFFC00
1CFFF000
081FC000
ENDCHAR
STARTCHAR U+00D9
ENCODING 217
SWIDTH 741 0
DWIDTH 27 0
BBX 27 31 0 0
BITMAP
00780000
003C0000
001C0000
000E0000
00070000
00000000
00000000
1E000F00
1E000F00
1E000F00
1E000F00
1E000F00
1E000F00
1E000F00
1E000F00
1E000F00
1E000F00
1E000F00
1E000F00
1E000F00
1E000F00
1E000F00
1E000F00
1E000F00
0F000E00
0F001E00
07803C00
03E0F800
01FFF000
00FFE000
003F8000
ENDCHAR
STARTCHAR U+00DA
ENCODING 218
SWIDTH 741 0
DWIDTH 27 0
BBX 27 31 0 0
BITMAP
0003C000
00078000
000F0000
000E0000
001C0000
00000000
00000000
1E000F00
1E000F00
1E000F00
1E000F00
1E000F00
1E000F00
1E000F00
1E000F00
1E000F00
1E000F00
1E000F00
1E000F00
1E000F00
1E000F00
1E000F00
1E000F00
1E000F00
0F000E00
0F001E00
07803C00
03E0F800
01FFF000
00FFE000
003F8000
ENDCHAR
STARTCHAR U+00DB
ENCODING 219
SWIDTH 741 0
DWIDTH 27 0
BBX 27 31 0 0
BITMAP
000F0000
001F8000
003B8000
0031C000
0060E000
00000000
00000000
1E000F00
1E000F00
1E000F00
1E000F00
1E000F00
1E000F00
1E000F00
1E000F00
1E000F00
1E000F00
1E000F00
1E000F00
1E000F00
1E000F00
1E000F00
1E000F00
1E000F00
0F000E00
0F001E00
07803C00
03E0F800
01FFF000
00FFE000
003F8000
ENDCHAR
STARTCHAR U+00DC
ENCODING 220
SWIDTH 741 0
DWIDTH 27 0
BBX 27 31 0 0
BITMAP
00408000
00E1C000
01F3E000
00E1C000
00408000
00000000
00000000
1E000F00
1E000F00
1E000F00
1E000F00
1E000F00
1E000F00
1E000F00
1E000F00
1E000F00
1E000F00
1E000F00
1E000F00
1E000F00
1E000F00
1E000F00
1E000F00
1E000F00
0F000E00
0F001E00
07803C00
03E0F800
01FFF000
00FFE000
003F8000
ENDCHAR
STARTCHAR U+00DD
ENCODING 221
SWIDTH 576 0
DWIDTH 21 0
BBX 21 31 0 0
BITMAP
001E00
003C00
007800
007000
00E000
000000
000000
7800F0
7C00F0
3C01E0
1E01C0
1E03C0
0F0780
070780
078F00
03CE00
03DE00
01FC00
00F800
00F800
007000
007000
007000
007000
007000
007000
007000
007000
007000
007000
007000
ENDCHAR
STARTCHAR U+00DE
ENCODING 222
SWIDTH 576 0
DWIDTH 21 0
BBX 21 24 0 0
BITMAP
1E0000
1E0000
1E0000
1E0000
1E0000
1FFC00
1FFF00
1FFF80
1E07C0
1E03E0
1E01E0
1E01E0
1E01E0
1E01E0
1E03E0
1E07C0
1FFF80
1FFF00
1FFC00
1E0000
1E0000
1E0000
1E0000
1E0000
ENDCHAR
STARTCHAR U+00DF
ENCODING 223
SWIDTH 521 0
DWIDTH 19 0
BBX 19 24 0 0
BITMAP
01F800
07FE00
0FFE00
0F0F00
1E0700
1C0780
1C0780
1C0700
1C0700
1C0F00
1C7E00
1C7C00
1C7F00
1C0F80
1C0380
1C03C0
1C03C0
1C01C0
1C03C0
1C03C0
1C0780
1CFF80
1CFF00
1CF800
ENDCHAR
STARTCHAR U+00E0
ENCODING 224
SWIDTH 494 0
DWIDTH 18 0
BBX 18 25 0 0
BITMAP
078000
03C000
01C000
00E000
007000
000000
000000
000000
07F000
1FF800
1FFC00
1C1E00
200E00
000E00
00FF00
07FF00
0FFF00
1F0F00
3C0F00
380F00
380F00
3C1F00
3FFF00
1FFF00
0FCF00
ENDCHAR
STARTCHAR U+00E1
ENCODING 225
SWIDTH 494 0
DWIDTH 18 0
BBX 18 25 0 0
BITMAP
003C00
007800
00F000
00E000
01C000
000000
000000
000000
07F000
1FF800
1FFC00
1C1E00
200E00
000E00
00FF00
07FF00
0FFF00
1F0F00
3C0F00
380F00
380F00
3C1F00
3FFF00
1FFF00
0FCF00
ENDCHAR
STARTCHAR U+00E2
ENCODING 226
SWIDTH 494 0
DWIDTH 18 0
BBX 18 25 0 0
BITMAP
01E000
03F000
077000
063800
0C1C00
000000
000000
000000
07F000
1FF800
1FFC00
1C1E00
200E00
000E00
00FF00
07FF00
0FFF00
1F0F00
3C0F00
380F00
380F00
3C1F00
3FFF00
1FFF00
0FCF00
ENDCHAR
STARTCHAR U+00E3
ENCODING 227
SWIDTH 494 0
DWIDTH 18 0
BBX 18 25 0 0
BITMAP
078400
0FC600
0FFE00
0CFC00
003800
000000
000000
000000
07F000
1FF800
1FFC00
1C1E00
200E00
000E00
00FF00
07FF00
0FFF00
1F0F00
3C0F00
380F00
380F00
3C1F00
3FFF00
1FFF00
0FCF00
ENDCHAR
STARTCHAR U+00E4
ENCODING 228
SWIDTH 494 0
DWIDTH 18 0
BBX 18 25 0 0
BITMAP
040800
0E1C00
1F3E00
0E1C00
040800
000000
000000
000000
07F000
1FF800
1FFC00
1C1E00
200E00
000E00
00FF00
07FF00
0FFF00
1F0F00
3C0F00
380F00
380F00
3C1F00
3FFF00
1FFF00
0FCF00
ENDCHAR
STARTCHAR U+00E5
ENCODING 229
SWIDTH 494 0
DWIDTH 18 0
BBX 18 26 0 0
BITMAP
01E000
037000
023000
023000
036000
01E000
000000
000000
000000
07F000
1FF800
1FFC00
1C1E00
200E00
000E00
00FF00
07FF00
0FFF00
1F0F00
3C0F00
380F00
380F00
3C1F00
3FFF00
1FFF00
0FCF00
ENDCHAR
STARTCHAR U+00E6
ENCODING 230
SWIDTH 795 0
DWIDTH 29 0
BBX 29 17 0 0
BITMAP
07F07E00
1FFDFF80
1FFFFFC0
1C1FC3C0
300F01E0
000F00E0
00FFFFE0
07FFFFE0
1FFFFFE0
3F0E0000
3C0F0000
380F0000
38078020
3C1FC0E0
3FFFFFE0
1FF9FFC0
07E07F00
ENDCHAR
STARTCHAR U+00E7
ENCODING 231
SWIDTH 494 0
DWIDTH 18 0
BBX 18 24 0 -7
BITMAP
00FC00
03FF00
0FFF00
1F8700
1E0100
3C0000
380000
380000
380000
380000
380000
3C0000
1E0100
1F8300
0FFF00
03FF00
00FC00
007000
007800
007C00
001E00
001C00
01FC00
01F000
ENDCHAR
STARTCHAR U+00E8
ENCODING 232
SWIDTH 521 0
DWIDTH 19 0
BBX 19 25 0 0
BITMAP
078000
03C000
01C000
00E000
007000
000000
000000
000000
01F800
07FE00
0FFF00
1F0F00
1C0780
3C0380
380380
3FFFC0
3FFFC0
3FFFC0
380000
3C0000
1C0080
1F0380
0FFF80
07FF80
01FE00
ENDCHAR
STARTCHAR U+00E9
ENCODING 233
SWIDTH 521 0
DWIDTH 19 0
BBX 19 25 0 0
BITMAP
003C00
007800
00F000
00E000
01C000
000000
000000
000000
01F800
07FE00
0FFF00
1F0F00
1C0780
3C0380
380380
3FFFC0
3FFFC0
3FFFC0
380000
3C0000
1C0080
1F0380
0FFF80
07FF80
01FE00
ENDCHAR
STARTCHAR U+00EA
ENCODING 234
SWIDTH 521 0
DWIDTH 19 0
BBX 19 25 0 0
BITMAP
00F000
01F800
03B800
031C00
060E00
000000
000000
000000
01F800
07FE00
0FFF00
1F0F00
1C0780
3C0380
380380
3FFFC0
3FFFC0
3FFFC0
380000
3C0000
1C0080
1F0380
0FFF80
07FF80
01FE00
ENDCHAR
STARTCHAR U+00EB
ENCODING 235
SWIDTH 521 0
DWIDTH 19 0
BBX 19 25 0 0
BITMAP
040800
0E1C00
1F3E00
0E1C00
040800
000000
000000
000000
01F800
07FE00
0FFF00
1F0F00
1C0780
3C0380
380380
3FFFC0
3FFFC0
3FFFC0
380000
3C0000
1C0080
1F0380
0FFF80
07FF80
01FE00
ENDCHAR
STARTCHAR U+00EC
ENCODING 236
SWIDTH 247 0
DWIDTH 9 0
BBX 10 25 -1 0
BITMAP
7800
3C00
1C00
0E00
0700
0000
0000
0000
0E00
0E00
0E00
0E00
0E00
0E00
0E00
0E00
0E00
0E00
0E00
0E00
0E00
0E00
0E00
0E00
0E00
ENDCHAR
STARTCHAR U+00ED
ENCODING 237
SWIDTH 247 0
DWIDTH 9 0
BBX 10 25 0 0
BITMAP
0000
0000
0000
0000
0000
0000
0000
0000
0000
0000
0000
0000
0000
0000
0000
0000
0000
0000
0000
0000
0000
0000
0000
0000
0000
ENDCHAR
STARTCHAR U+00EE
ENCODING 238
SWIDTH 247 0
DWIDTH 9 0
BBX 11 25 -1 0
BITMAP
1E00
3F00
7700
6380
C1C0
0000
0000
0000
1C00
1C00
1C00
1C00
1C00
1C00
1C00
1C00
1C00
1C00
1C00
1C00
1C00
1C00
1C00
1C00
1C00
ENDCHAR
STARTCHAR U+00EF
ENCODING 239
SWIDTH 247 0
DWIDTH 9 0
BBX 13 25 -2 0
BITMAP
0000
0000
0000
0000
0000
0000
0000
0000
0000
0000
0000
0000
0000
0000
0000
0000
0000
0000
0000
0000
0000
0000
0000
0000
0000
ENDCHAR
STARTCHAR U+00F0
ENCODING 240
SWIDTH 549 0
DWIDTH 20 0
BBX 20 24 0 0
BITMAP
010400
07DE00
03FC00
01F800
07FC00
0F3C00
041E00
001F00
01EF00
07FF80
0FFF80
1E0F80
3C07C0
3C03C0
3803C0
3803C0
3803C0
3803C0
3C0380
3C0780
1F0F00
0FFE00
07FC00
03F000
ENDCHAR
STARTCHAR U+00F1
ENCODING 241
SWIDTH 576 0
DWIDTH 21 0
BBX 21 25 0 0
BITMAP
03C200
07E300
07FF00
067E00
001C00
000000
000000
000000
1CFC00
1FFF00
1FFF80
1F07C0
1C03C0
1C01C0
1C01C0
1C01C0
1C01C0
1C01C0
1C01C0
1C01C0
1C01C0
1C01C0
1C01C0
1C01C0
1C01C0
ENDCHAR
STARTCHAR U+00F2
ENCODING 242
SWIDTH 576 0
DWIDTH 21 0
BBX 21 25 0 0
BITMAP
03C000
01E000
00E000
007000
003800
000000
000000
000000
00FC00
07FF00
0FFF80
1F07C0
1E01E0
3C01E0
3800E0
3800F0
3800F0
3800F0
3800E0
3C01E0
1E01E0
1F07C0
0FFF80
07FF00
01FC00
ENDCHAR
STARTCHAR U+00F3
ENCODING 243
SWIDTH 576 0
DWIDTH 21 0
BBX 21 25 0 0
BITMAP
000F00
001E00
003C00
003800
007000
000000
000000
000000
00FC00
07FF00
0FFF80
1F07C0
1E01E0
3C01E0
3800E0
3800F0
3800F0
3800F0
3800E0
3C01E0
1E01E0
1F07C0
0FFF80
07FF00
01FC00
ENDCHAR
STARTCHAR U+00F4
ENCODING 244
SWIDTH 576 0
DWIDTH 21 0
BBX 21 25 0 0
BITMAP
007800
00FC00
01DC00
018E00
030700
000000
000000
000000
00FC00
07FF00
0FFF80
1F07C0
1E01E0
3C01E0
3800E0
3800F0
3800F0
3800F0
3800E0
3C01E0
1E01E0
1F07C0
0FFF80
07FF00
01FC00
ENDCHAR
STARTCHAR U+00F5
ENCODING 245
SWIDTH 576 0
DWIDTH 21 0
BBX 21 25 0 0
BITMAP
03C200
07E300
07FF00
067E00
001C00
000000
000000
000000
00FC00
07FF00
0FFF80
1F07C0
1E01E0
3C01E0
3800E0
3800F0
3800F0
3800F0
3800E0
3C01E0
1E01E0
1F07C0
0FFF80
07FF00
01FC00
ENDCHAR
STARTCHAR U+00F6
ENCODING 246
SWIDTH 576 0
DWIDTH 21 0
BBX 21 25 0 0
BITMAP
010200
038700
07CF80
038700
010200
000000
000000
000000
00FC00
07FF00
0FFF80
1F07C0
1E01E0
3C01E0
3800E0
3800F0
3800F0
3800F0
3800E0
3C01E0
1E01E0
1F07C0
0FFF80
07FF00
01FC00
ENDCHAR
STARTCHAR U+00F7
ENCODING 247
SWIDTH 521 0
DWIDTH 19 0
BBX 19 20 0 0
BITMAP
004000
00E000
01F000
00E000
004000
000000
000000
3FFF00
3FFF00
3FFF00
000000
000000
004000
00E000
01F000
00E000
004000
000000
000000
000000
ENDCHAR
STARTCHAR U+00F8
ENCODING 248
SWIDTH 576 0
DWIDTH 21 0
BBX 21 19 0 -1
BITMAP
000040
00FCC0
07FFC0
0FFF80
1F07C0
1E07E0
3C0FE0
381CE0
3838F0
3870F0
3860F0
38C0E0
3DC1E0
1F81E0
1F07C0
0FFF80
0FFF00
19FC00
080000
ENDCHAR
STARTCHAR U+00F9
ENCODING 249
SWIDTH 576 0
DWIDTH 21 0
BBX 21 25 0 0
BITMAP
03C000
01E000
00E000
007000
003800
000000
000000
000000
1C01C0
1C01C0
1C01C0
1C01C0
1C01C0
1C01C0
1C01C0
1C01C0
1C01C0
1C01C0
1C01C0
1C01C0
1E01C0
1F07C0
0FFFC0
07FFC0
01F9C0
ENDCHAR
STARTCHAR U+00FA
ENCODING 250
SWIDTH 576 0
DWIDTH 21 0
BBX 21 25 0 0
BITMAP
001E00
003C00
007800
007000
00E000
000000
000000
000000
1C01C0
1C01C0
1C01C0
1C01C0
1C01C0
1C01C0
1C01C0
1C01C0
1C01C0
1C01C0
1C01C0
1C01C0
1E01C0
1F07C0
0FFFC0
07FFC0
01F9C0
ENDCHAR
STARTCHAR U+00FB
ENCODING 251
SWIDTH 576 0
DWIDTH 21 0
BBX 21 25 0 0
BITMAP
007800
00FC00
01DC00
018E00
030700
000000
000000
000000
1C01C0
1C01C0
1C01C0
1C01C0
1C01C0
1C01C0
1C01C0
1C01C0
1C01C0
1C01C0
1C01C0
1C01C0
1E01C0
1F07C0
0FFFC0
07FFC0
01F9C0
ENDCHAR
STARTCHAR U+00FC
ENCODING 252
SWIDTH 576 0
DWIDTH 21 0
BBX 21 25 0 0
BITMAP
020400
070E00
0F9F00
070E00
020400
000000
000000
000000
1C01C0
1C01C0
1C01C0
1C01C0
1C01C0
1C01C0
1C01C0
1C01C0
1C01C0
1C01C0
1C01C0
1C01C0
1E01C0
1F07C0
0FFFC0
07FFC0
01F9C0
ENDCHAR
STARTCHAR U+00FD
ENCODING 253
SWIDTH 521 0
DWIDTH 19 0
BBX 19 32 0 -7
BITMAP
003C00
007800
00F000
00E000
01C000
000000
000000
000000
7001C0
7803C0
380380
3C0780
3C0780
1C0700
1E0F00
0E0E00
0F0E00
071E00
071C00
07BC00
03B800
03F800
01F800
01F000
00F000
00E000
00E000
01C000
03C000
1F8000
1F8000
1E0000
ENDCHAR
STARTCHAR U+00FE
ENCODING 254
SWIDTH 576 0
DWIDTH 21 0
BBX 21 31 0 -7
BITMAP
1C0000
1C0000
1C0000
1C0000
1C0000
1C0000
1C0000
1CFC00
1FFF00
1FFF80
1F07C0
1C03C0
1C01E0
1C00E0
1C00E0
1C00E0
1C00E0
1C00E0
1C01E0
1C03C0
1F07C0
1FFF80
1FFF00
1DFC00
1C0000
1C0000
1C0000
1C0000
1C0000
1C0000
1C0000
ENDCHAR
STARTCHAR U+00FF
ENCODING 255
SWIDTH 521 0
DWIDTH 19 0
BBX 19 32 0 -7
BITMAP
040800
0E1C00
1F3E00
0E1C00
040800
000000
000000
000000
7001C0
7803C0
380380
3C0780
3C0780
1C0700
1E0F00
0E0E00
0F0E00
071E00
071C00
07BC00
03B800
03F800
01F800
01F000
00F000
00E000
00E000
01C000
03C000
1F8000
1F8000
1E0000
ENDCHAR
STARTCHAR U+2013
ENCODING 8211
SWIDTH 494 0
DWIDTH 18 0
BBX 19 11 -1 0
BITMAP
FFFFC0
FFFFC0
FFFFC0
000000
000000
000000
000000
000000
000000
000000
000000
ENDCHAR
STARTCHAR U+2014
ENCODING 8212
SWIDTH 960 0
DWIDTH 35 0
BBX 37 11 -1 0
BITMAP
FFFFFFFFE0
FFFFFFFFE0
FFFFFFFFE0
0000000000
0000000000
0000000000
0000000000
0000000000
0000000000
0000000000
0000000000
ENDCHAR
STARTCHAR U+2018
ENCODING 8216
SWIDTH 247 0
DWIDTH 9 0
BBX 9 24 0 0
BITMAP
0400
0800
1800
1800
3C00
3E00
1C00
0800
0000
0000
0000
0000
0000
0000
0000
0000
0000
0000
0000
0000
0000
0000
0000
0000
ENDCHAR
STARTCHAR U+2019
ENCODING 8217
SWIDTH 247 0
DWIDTH 9 0
BBX 9 24 0 0
BITMAP
0800
1C00
3C00
1C00
1C00
0C00
1800
2000
0000
0000
0000
0000
0000
0000
0000
0000
0000
0000
0000
0000
0000
0000
0000
0000
ENDCHAR
STARTCHAR U+201C
ENCODING 8220
SWIDTH 384 0
DWIDTH 14 0
BBX 14 24 0 0
BITMAP
0410
0860
1860
18E0
3CE0
3EF0
1CE0
0840
0000
0000
0000
0000
0000
0000
0000
0000
0000
0000
0000
0000
0000
0000
0000
0000
ENDCHAR
STARTCHAR U+201D
ENCODING 8221
SWIDTH 384 0
DWIDTH 14 0
BBX 14 24 0 0
BITMAP
0820
1C70
3CF0
1C70
1C70
0C30
1860
2080
0000
0000
0000
0000
0000
0000
0000
0000
0000
0000
0000
0000
0000
0000
0000
0000
ENDCHAR
STARTCHAR U+2022
ENCODING 8226
SWIDTH 411 0
DWIDTH 15 0
BBX 15 15 0 0
BITMAP
0100
0380
07C0
0FE0
1FF0
0FE0
07C0
0380
0100
0000
0000
0000
0000
0000
0000
ENDCHAR
STARTCHAR U+2026
ENCODING 8230
SWIDTH 878 0
DWIDTH 32 0
BBX 32 5 0 0
BITMAP
08008010
1C01C038
3E03E07C
1C01C038
08008010
ENDCHAR
STARTCHAR U+20AC
ENCODING 8364
SWIDTH 603 0
DWIDTH 22 0
BBX 22 24 0 0
BITMAP
003F80
00FFE0
01FFF0
03E070
078010
0F0000
0F0000
1E0000
7FFF00
7FFF00
7FFF00
1C0000
1C0000
7FFE00
7FFE00
7FFE00
1E0000
0F0000
0F0000
078010
03E070
01FFF0
00FFE0
003F80
ENDCHAR
ENDFONT
