STARTFONT 2.1
COMMENT Converted from Johnston100 W03 Regular.ttf at 31px with ttf2bdf.py (Pillow, 1-bit, no AA)
FONT -Misc-Johnston100-Medium-R-Normal--31-310-75-75-P-330-ISO10646-1
SIZE 31 75 75
FONTBOUNDINGBOX 33 36 -2 -8
STARTPROPERTIES 9
FOUNDRY "Misc"
FAMILY_NAME "Johnston100"
WEIGHT_NAME "Medium"
SLANT "R"
PIXEL_SIZE 31
RESOLUTION_X 75
RESOLUTION_Y 75
FONT_ASCENT 28
FONT_DESCENT 8
ENDPROPERTIES
CHARS 200
STARTCHAR space
ENCODING 32
SWIDTH 248 0
DWIDTH 8 0
BBX 8 36 0 -8
BITMAP
00
00
00
00
00
00
00
00
00
00
00
00
00
00
00
00
00
00
00
00
00
00
00
00
00
00
00
00
00
00
00
00
00
00
00
00
ENDCHAR
STARTCHAR !
ENCODING 33
SWIDTH 279 0
DWIDTH 9 0
BBX 9 21 0 0
BITMAP
1C00
1C00
1C00
1C00
1C00
1C00
1C00
1C00
1C00
1C00
1C00
1C00
1C00
1C00
1C00
0800
0000
0800
1C00
1C00
0800
ENDCHAR
STARTCHAR "
ENCODING 34
SWIDTH 403 0
DWIDTH 13 0
BBX 13 21 0 0
BITMAP
38E0
38E0
38E0
38E0
38C0
38C0
18C0
10C0
0000
0000
0000
0000
0000
0000
0000
0000
0000
0000
0000
0000
0000
ENDCHAR
STARTCHAR U+0023
ENCODING 35
SWIDTH 743 0
DWIDTH 24 0
BBX 24 21 0 0
BITMAP
001030
003060
0070E0
0060E0
0060C0
00E0C0
1FFFFC
1FFFFC
01C180
01C380
018380
018300
038300
7FFFF0
7FFFF0
070600
070E00
060E00
060C00
0E0C00
081800
ENDCHAR
STARTCHAR $
ENCODING 36
SWIDTH 495 0
DWIDTH 16 0
BBX 16 26 0 -3
BITMAP
0380
0380
07C0
1FF0
3FF8
3830
3800
3800
3C00
1F00
1FC0
07E0
01F8
0078
003C
001C
001C
301C
701C
7C3C
3FF8
1FF0
0FC0
0380
0380
0000
ENDCHAR
STARTCHAR %
ENCODING 37
SWIDTH 712 0
DWIDTH 23 0
BBX 23 21 0 0
BITMAP
0F01C0
1F81C0
39C380
30E300
30E700
30C600
39CE00
1F8C00
0F1C00
001800
003800
003000
0071E0
0063F0
00E738
00C618
01C61C
018618
038738
0303F0
0701E0
ENDCHAR
STARTCHAR &
ENCODING 38
SWIDTH 650 0
DWIDTH 21 0
BBX 21 21 0 0
BITMAP
01F000
07F800
0FFC00
0E1C00
0E1C00
0E1C00
0E1C00
0F3C00
07F800
03E000
0FE0E0
1FF0E0
3C79C0
383DC0
381F80
780F80
380F80
3C3FC0
3FFFC0
1FF9E0
07E0F0
ENDCHAR
STARTCHAR '
ENCODING 39
SWIDTH 217 0
DWIDTH 7 0
BBX 7 21 0 0
BITMAP
38
38
38
38
38
38
18
10
00
00
00
00
00
00
00
00
00
00
00
00
00
ENDCHAR
STARTCHAR (
ENCODING 40
SWIDTH 248 0
DWIDTH 8 0
BBX 8 25 0 -2
BITMAP
0E
0E
1C
1C
1C
18
38
38
38
38
38
38
38
38
38
38
38
38
38
18
1C
1C
1C
0E
0E
ENDCHAR
STARTCHAR )
ENCODING 41
SWIDTH 248 0
DWIDTH 8 0
BBX 8 25 0 -2
BITMAP
70
30
38
38
18
1C
1C
1C
1C
1C
1C
0C
0C
0C
1C
1C
1C
1C
1C
1C
18
38
38
30
70
ENDCHAR
STARTCHAR *
ENCODING 42
SWIDTH 403 0
DWIDTH 13 0
BBX 13 21 0 0
BITMAP
0700
0600
2620
76E0
1FC0
0700
1FC0
76E0
2620
0600
0700
0000
0000
0000
0000
0000
0000
0000
0000
0000
0000
ENDCHAR
STARTCHAR +
ENCODING 43
SWIDTH 526 0
DWIDTH 17 0
BBX 17 17 0 0
BITMAP
01C000
01C000
01C000
01C000
01C000
3FFE00
3FFE00
3FFE00
01C000
01C000
01C000
01C000
01C000
000000
000000
000000
000000
ENDCHAR
STARTCHAR ,
ENCODING 44
SWIDTH 248 0
DWIDTH 8 0
BBX 8 9 0 -4
BITMAP
18
38
3C
1C
18
10
20
00
00
ENDCHAR
STARTCHAR -
ENCODING 45
SWIDTH 372 0
DWIDTH 12 0
BBX 12 10 0 0
BITMAP
7FE0
7FE0
7FE0
0000
0000
0000
0000
0000
0000
0000
ENDCHAR
STARTCHAR .
ENCODING 46
SWIDTH 248 0
DWIDTH 8 0
BBX 8 4 0 0
BITMAP
18
3C
38
10
ENDCHAR
STARTCHAR /
ENCODING 47
SWIDTH 310 0
DWIDTH 10 0
BBX 11 25 0 -2
BITMAP
01C0
01C0
0180
0380
0380
0300
0700
0700
0700
0E00
0E00
0E00
0C00
1C00
1C00
1800
3800
3800
3800
3000
7000
7000
6000
E000
E000
ENDCHAR
STARTCHAR 0
ENCODING 48
SWIDTH 557 0
DWIDTH 18 0
BBX 18 21 0 0
BITMAP
01F000
07F800
0FFC00
0F1E00
1E0E00
1C0F00
1C0700
1C0700
3C0700
3C0700
3C0700
3C0700
3C0700
1C0700
1C0700
1C0F00
1E0E00
0F1E00
0FFC00
07F800
01F000
ENDCHAR
STARTCHAR 1
ENCODING 49
SWIDTH 279 0
DWIDTH 9 0
BBX 9 21 0 0
BITMAP
0400
0C00
1C00
1C00
1C00
1C00
1C00
1C00
1C00
1C00
1C00
1C00
1C00
1C00
1C00
1C00
1C00
1C00
1C00
1C00
1C00
ENDCHAR
STARTCHAR 2
ENCODING 50
SWIDTH 465 0
DWIDTH 15 0
BBX 15 21 0 0
BITMAP
07C0
0FF0
1FF8
3878
303C
201C
001C
003C
0038
0078
0070
00F0
01E0
01C0
03C0
0780
0700
0F00
1FFC
1FFC
3FFC
ENDCHAR
STARTCHAR 3
ENCODING 51
SWIDTH 495 0
DWIDTH 16 0
BBX 16 21 0 0
BITMAP
3FFC
3FFC
3FF8
0070
00F0
00E0
01E0
03C0
03F0
07F8
007C
001C
001E
000E
000E
001E
201C
783C
3FF8
1FF0
0FC0
ENDCHAR
STARTCHAR 4
ENCODING 52
SWIDTH 557 0
DWIDTH 18 0
BBX 18 21 0 0
BITMAP
000400
000C00
001C00
003C00
007C00
007C00
00FC00
01DC00
039C00
071C00
0E1C00
1E1C00
3C1C00
7FFF00
FFFF00
001C00
001C00
001C00
001C00
001C00
001C00
ENDCHAR
STARTCHAR 5
ENCODING 53
SWIDTH 495 0
DWIDTH 16 0
BBX 16 21 0 0
BITMAP
0FFE
0FFC
0FFC
0E00
0E00
0E00
0E00
0FE0
1FF0
1FF8
107C
001C
001E
000E
000E
001E
201C
783C
3FF8
1FF0
07C0
ENDCHAR
STARTCHAR 6
ENCODING 54
SWIDTH 526 0
DWIDTH 17 0
BBX 17 21 0 0
BITMAP
00F000
01E000
03C000
078000
0F0000
0F0000
1E0000
1C0000
3DE000
3FF800
3FFC00
3C3C00
781E00
700E00
780E00
380E00
381E00
3C3C00
1FFC00
0FF800
07E000
ENDCHAR
STARTCHAR 7
ENCODING 55
SWIDTH 465 0
DWIDTH 15 0
BBX 15 21 0 0
BITMAP
7FFC
7FFC
7FF8
0038
0078
0070
00F0
00E0
01E0
01C0
01C0
0380
0380
0780
0700
0F00
0E00
1E00
1C00
3C00
3800
ENDCHAR
STARTCHAR 8
ENCODING 56
SWIDTH 495 0
DWIDTH 16 0
BBX 16 21 0 0
BITMAP
03E0
0FF0
1FF8
1E3C
1C1C
1C1C
1C1C
1E38
0FF0
07E0
0FF0
1E7C
3C1C
380E
380E
380E
381E
3C3E
1FFC
0FF8
07E0
ENDCHAR
STARTCHAR 9
ENCODING 57
SWIDTH 526 0
DWIDTH 17 0
BBX 17 21 0 0
BITMAP
03E000
0FF800
1FFC00
3C3C00
381E00
380E00
380E00
380E00
380E00
380E00
3C1E00
1FFE00
0FFC00
07DC00
003800
007800
007000
00F000
01E000
03C000
078000
ENDCHAR
STARTCHAR :
ENCODING 58
SWIDTH 279 0
DWIDTH 9 0
BBX 9 16 0 0
BITMAP
0C00
1E00
1C00
0800
0000
0000
0000
0000
0000
0000
0000
0000
0C00
1E00
1C00
0800
ENDCHAR
STARTCHAR ;
ENCODING 59
SWIDTH 279 0
DWIDTH 9 0
BBX 9 19 0 -4
BITMAP
0C00
1E00
1C00
0800
0000
0000
0000
0000
0000
0000
0000
0C00
1C00
1E00
0E00
0C00
0800
1000
0000
ENDCHAR
STARTCHAR U+003C
ENCODING 60
SWIDTH 526 0
DWIDTH 17 0
BBX 17 19 0 0
BITMAP
000600
001E00
007E00
01F800
07E000
1F8000
3E0000
3E0000
1F8000
07E000
01F800
007E00
001E00
000600
000000
000000
000000
000000
000000
ENDCHAR
STARTCHAR =
ENCODING 61
SWIDTH 526 0
DWIDTH 17 0
BBX 17 15 0 0
BITMAP
3FFE00
3FFE00
3FFE00
000000
000000
000000
3FFE00
3FFE00
3FFE00
000000
000000
000000
000000
000000
000000
ENDCHAR
STARTCHAR U+003E
ENCODING 62
SWIDTH 526 0
DWIDTH 17 0
BBX 17 19 0 0
BITMAP
300000
3C0000
3F0000
0FC000
03F000
00FC00
003E00
003E00
00FC00
03F000
0FC000
3F0000
3C0000
300000
000000
000000
000000
000000
000000
ENDCHAR
STARTCHAR ?
ENCODING 63
SWIDTH 434 0
DWIDTH 14 0
BBX 14 21 0 0
BITMAP
0F80
3FE0
7FF0
70F0
2070
0070
0070
00F0
03E0
07C0
0F00
0E00
0F00
0700
0200
0000
0200
0700
0F00
0600
0200
ENDCHAR
STARTCHAR @
ENCODING 64
SWIDTH 929 0
DWIDTH 30 0
BBX 30 27 0 -6
BITMAP
000FF000
007FFC00
01F01F00
03C00780
070001C0
0E0000C0
0E07C8E0
1C1FF860
183C7870
38703870
38703870
38603830
30E03030
30E03070
30E03070
30E07070
30E07060
387070E0
3878F1C0
183FFF80
1C0F9F00
0E000000
0F000000
07800800
03E03800
00FFF800
001FE000
ENDCHAR
STARTCHAR A
ENCODING 65
SWIDTH 650 0
DWIDTH 21 0
BBX 21 21 0 0
BITMAP
007000
00F000
00F800
00F800
01F800
01DC00
03DC00
038E00
038E00
070F00
070700
0F0700
0E0380
0FFF80
1FFFC0
1FFFC0
3C01C0
3801E0
3800E0
7800F0
700070
ENDCHAR
STARTCHAR B
ENCODING 66
SWIDTH 588 0
DWIDTH 19 0
BBX 19 21 0 0
BITMAP
1FF000
1FF800
1FFC00
1C1E00
1C0E00
1C0E00
1C0E00
1C1C00
1FF800
1FFE00
1FFF00
1C0F00
1C0780
1C0380
1C0380
1C0380
1C0780
1C0F80
1FFF00
1FFE00
1FF800
ENDCHAR
STARTCHAR C
ENCODING 67
SWIDTH 650 0
DWIDTH 21 0
BBX 21 21 0 0
BITMAP
007F00
01FFC0
03FFE0
07C0E0
0F0020
1E0000
1C0000
3C0000
380000
380000
380000
380000
380000
3C0000
1C0000
1E0000
0F0020
07C0E0
03FFE0
01FFC0
007F00
ENDCHAR
STARTCHAR D
ENCODING 68
SWIDTH 712 0
DWIDTH 23 0
BBX 23 21 0 0
BITMAP
1FF800
1FFF00
1FFF80
1C0FC0
1C03E0
1C00F0
1C00F0
1C0070
1C0078
1C0078
1C0038
1C0078
1C0078
1C0070
1C00F0
1C00F0
1C03E0
1C0FC0
1FFF80
1FFF00
1FF800
ENDCHAR
STARTCHAR E
ENCODING 69
SWIDTH 557 0
DWIDTH 18 0
BBX 18 21 0 0
BITMAP
1FFF00
1FFF00
1FFF00
1C0000
1C0000
1C0000
1C0000
1C0000
1FFC00
1FFC00
1FFC00
1C0000
1C0000
1C0000
1C0000
1C0000
1C0000
1C0000
1FFF80
1FFF80
1FFF80
ENDCHAR
STARTCHAR F
ENCODING 70
SWIDTH 495 0
DWIDTH 16 0
BBX 16 21 0 0
BITMAP
1FFF
1FFF
1FFF
1C00
1C00
1C00
1C00
1C00
1FF8
1FF8
1FF8
1C00
1C00
1C00
1C00
1C00
1C00
1C00
1C00
1C00
1C00
ENDCHAR
STARTCHAR G
ENCODING 71
SWIDTH 712 0
DWIDTH 23 0
BBX 23 21 0 0
BITMAP
007F80
01FFE0
03FFF0
07C0F0
0F0010
1E0000
1C0000
3C0000
380000
3807F0
3807F0
3807F0
380070
3C0070
1C0070
1E0070
0F0070
0FC0F0
07FFF0
01FFE0
007F80
ENDCHAR
STARTCHAR H
ENCODING 72
SWIDTH 712 0
DWIDTH 23 0
BBX 23 21 0 0
BITMAP
1C0070
1C0070
1C0070
1C0070
1C0070
1C0070
1C0070
1C0070
1FFFF0
1FFFF0
1FFFF0
1C0070
1C0070
1C0070
1C0070
1C0070
1C0070
1C0070
1C0070
1C0070
1C0070
ENDCHAR
STARTCHAR I
ENCODING 73
SWIDTH 279 0
DWIDTH 9 0
BBX 9 21 0 0
BITMAP
1C00
1C00
1C00
1C00
1C00
1C00
1C00
1C00
1C00
1C00
1C00
1C00
1C00
1C00
1C00
1C00
1C00
1C00
1C00
1C00
1C00
ENDCHAR
STARTCHAR J
ENCODING 74
SWIDTH 465 0
DWIDTH 15 0
BBX 15 21 0 0
BITMAP
0070
0070
0070
0070
0070
0070
0070
0070
0070
0070
0070
0070
0070
0070
0070
0070
3070
70F0
7FE0
3FC0
0F80
ENDCHAR
STARTCHAR K
ENCODING 75
SWIDTH 619 0
DWIDTH 20 0
BBX 20 21 0 0
BITMAP
1C03C0
1C0780
1C0F00
1C1E00
1C3C00
1C7800
1CF000
1DE000
1FC000
1F8000
1FC000
1DE000
1CF000
1CF800
1C7C00
1C3C00
1C1E00
1C0F00
1C0780
1C03C0
1C01E0
ENDCHAR
STARTCHAR L
ENCODING 76
SWIDTH 526 0
DWIDTH 17 0
BBX 17 21 0 0
BITMAP
1C0000
1C0000
1C0000
1C0000
1C0000
1C0000
1C0000
1C0000
1C0000
1C0000
1C0000
1C0000
1C0000
1C0000
1C0000
1C0000
1C0000
1C0000
1FFF00
1FFF00
1FFF00
ENDCHAR
STARTCHAR M
ENCODING 77
SWIDTH 836 0
DWIDTH 27 0
BBX 27 21 0 0
BITMAP
1E000F00
1E001F00
1F001F00
1F803F00
1FC07F00
1DE0F700
1CE1E700
1CF1C700
1C7BC700
1C3F8700
1C1F0700
1C0E0700
1C0C0700
1C040700
1C000700
1C000700
1C000700
1C000700
1C000700
1C000700
1C000700
ENDCHAR
STARTCHAR N
ENCODING 78
SWIDTH 743 0
DWIDTH 24 0
BBX 24 21 0 0
BITMAP
1C0038
1E0038
1F0038
1F8038
1F8038
1FC038
1DE038
1CF038
1C7038
1C7838
1C3C38
1C1E38
1C0F38
1C0F38
1C07B8
1C03F8
1C01F8
1C00F8
1C00F8
1C0078
1C0038
ENDCHAR
STARTCHAR O
ENCODING 79
SWIDTH 774 0
DWIDTH 25 0
BBX 25 21 0 0
BITMAP
007F0000
01FFC000
03FFF000
07C0F800
0F003C00
1E001C00
1C001E00
3C000E00
38000F00
38000F00
38000F00
38000F00
38000F00
3C000E00
1C001E00
1E001C00
0F003C00
07C0F800
03FFF000
01FFC000
007F0000
ENDCHAR
STARTCHAR P
ENCODING 80
SWIDTH 557 0
DWIDTH 18 0
BBX 18 21 0 0
BITMAP
1FF800
1FFE00
1FFF00
1C0F00
1C0780
1C0780
1C0380
1C0780
1C0780
1C0F00
1FFE00
1FFE00
1FF800
1C0000
1C0000
1C0000
1C0000
1C0000
1C0000
1C0000
1C0000
ENDCHAR
STARTCHAR Q
ENCODING 81
SWIDTH 774 0
DWIDTH 25 0
BBX 25 21 0 0
BITMAP
007F0000
01FFC000
03FFF000
07C0F800
0F003C00
1E001C00
1C001E00
3C000E00
38000F00
38000F00
38000F00
38000F00
38000F00
3C008E00
1C01DE00
1E01FC00
0F00FC00
07C0F800
03FFFC00
01FFFE00
007F0400
ENDCHAR
STARTCHAR R
ENCODING 82
SWIDTH 588 0
DWIDTH 19 0
BBX 19 21 0 0
BITMAP
1FF000
1FFC00
1FFE00
1C1E00
1C0E00
1C0F00
1C0F00
1C0E00
1C1E00
1FFE00
1FFC00
1FF000
1CF000
1C7800
1C3C00
1C1E00
1C1E00
1C0F00
1C0780
1C03C0
1C03C0
ENDCHAR
STARTCHAR S
ENCODING 83
SWIDTH 495 0
DWIDTH 16 0
BBX 16 21 0 0
BITMAP
07C0
1FE0
1FF0
3C78
3820
3800
3C00
3E00
1F80
0FE0
03F8
00F8
003C
001C
001C
301C
701C
783C
3FF8
1FF0
07C0
ENDCHAR
STARTCHAR T
ENCODING 84
SWIDTH 557 0
DWIDTH 18 0
BBX 18 21 0 0
BITMAP
7FFF80
7FFF80
7FFF80
01E000
01E000
01E000
01E000
01E000
01E000
01E000
01E000
01E000
01E000
01E000
01E000
01E000
01E000
01E000
01E000
01E000
01E000
ENDCHAR
STARTCHAR U
ENCODING 85
SWIDTH 743 0
DWIDTH 24 0
BBX 24 21 0 0
BITMAP
1C0038
1C0038
1C0038
1C0038
1C0038
1C0038
1C0038
1C0038
1C0038
1C0038
1C0038
1C0038
1C0038
1C0038
1C0038
1E0078
0F00F0
0781E0
07FFC0
01FF80
007E00
ENDCHAR
STARTCHAR V
ENCODING 86
SWIDTH 619 0
DWIDTH 20 0
BBX 20 21 0 0
BITMAP
7000E0
7801E0
3801C0
3801C0
3C03C0
1C0380
1C0380
1E0780
0E0700
0E0700
070E00
070E00
078E00
039C00
039C00
01FC00
01F800
01F800
00F000
00F000
00F000
ENDCHAR
STARTCHAR W
ENCODING 87
SWIDTH 929 0
DWIDTH 30 0
BBX 30 21 0 0
BITMAP
78078038
38078038
3807C078
3807C070
3C0FC070
1C0FC0F0
1C0EE0E0
1E1EE0E0
0E1CE0E0
0E1C71C0
0E1C71C0
073871C0
073879C0
07383B80
07F03B80
03F03B80
03F01F00
03F01F00
01E01F00
01E00F00
01E00E00
ENDCHAR
STARTCHAR X
ENCODING 88
SWIDTH 650 0
DWIDTH 21 0
BBX 21 21 0 0
BITMAP
7801E0
3C01E0
1C03C0
1E0780
0F0700
078F00
03DE00
01FC00
01F800
00F800
00F800
01F800
01FC00
03DE00
078F00
0F0780
0E0380
1E03C0
3C01E0
7800F0
700070
ENDCHAR
STARTCHAR Y
ENCODING 89
SWIDTH 588 0
DWIDTH 19 0
BBX 19 21 0 0
BITMAP
7003C0
780380
3C0780
1C0F00
1E0E00
0F1E00
071C00
07B800
03F800
01F000
01E000
00E000
00E000
00E000
00E000
00E000
00E000
00E000
00E000
00E000
00E000
ENDCHAR
STARTCHAR Z
ENCODING 90
SWIDTH 588 0
DWIDTH 19 0
BBX 19 21 0 0
BITMAP
3FFFC0
3FFFC0
3FFF80
000700
000F00
001E00
001C00
003C00
007800
007000
00E000
01E000
01C000
038000
078000
070000
0E0000
1E0000
3FFFE0
3FFFE0
7FFFE0
ENDCHAR
STARTCHAR [
ENCODING 91
SWIDTH 310 0
DWIDTH 10 0
BBX 10 28 0 -4
BITMAP
3F80
3F80
3800
3800
3800
3800
3800
3800
3800
3800
3800
3800
3800
3800
3800
3800
3800
3800
3800
3800
3800
3800
3800
3800
3800
3800
3F80
3F80
ENDCHAR
STARTCHAR \
ENCODING 92
SWIDTH 310 0
DWIDTH 10 0
BBX 11 25 0 -2
BITMAP
E000
E000
6000
7000
7000
3000
3800
3800
3800
1C00
1C00
1C00
0C00
0E00
0E00
0600
0700
0700
0700
0300
0380
0380
0180
01C0
01C0
ENDCHAR
STARTCHAR ]
ENCODING 93
SWIDTH 310 0
DWIDTH 10 0
BBX 10 28 0 -4
BITMAP
7F00
7F00
0700
0700
0700
0700
0700
0700
0700
0700
0700
0700
0700
0700
0700
0700
0700
0700
0700
0700
0700
0700
0700
0700
0700
0700
7F00
7F00
ENDCHAR
STARTCHAR ^
ENCODING 94
SWIDTH 557 0
DWIDTH 18 0
BBX 18 21 0 0
BITMAP
01E000
03E000
03F000
073800
0F3800
0E1C00
1C0E00
1C0E00
380700
000000
000000
000000
000000
000000
000000
000000
000000
000000
000000
000000
000000
ENDCHAR
STARTCHAR _
ENCODING 95
SWIDTH 495 0
DWIDTH 16 0
BBX 17 4 -1 -4
BITMAP
000000
000000
FFFF00
FFFF00
ENDCHAR
STARTCHAR `
ENCODING 96
SWIDTH 434 0
DWIDTH 14 0
BBX 15 21 0 0
BITMAP
FFFC
FFFC
FFFC
E01C
E01C
E01C
E01C
E01C
E01C
E01C
E01C
E01C
E01C
E01C
E01C
E01C
E01C
E01C
FFFC
FFFC
FFFC
ENDCHAR
STARTCHAR a
ENCODING 97
SWIDTH 495 0
DWIDTH 16 0
BBX 16 15 0 0
BITMAP
07E0
1FF0
1FF8
1838
201C
01FC
0FFC
1E1C
381C
381C
381C
387C
3FFC
1FFC
0F9C
ENDCHAR
STARTCHAR b
ENCODING 98
SWIDTH 588 0
DWIDTH 19 0
BBX 19 21 0 0
BITMAP
380000
380000
380000
380000
380000
380000
39F000
3FFC00
3FFE00
3E1F00
380780
380380
380380
380380
380380
380380
380780
3E0F00
3FFE00
3FFC00
39F800
ENDCHAR
STARTCHAR c
ENCODING 99
SWIDTH 495 0
DWIDTH 16 0
BBX 16 15 0 0
BITMAP
01F0
07F8
1FFC
1E0C
3C04
3800
3800
7800
3800
3800
3C00
1E04
1FFC
07FC
01F8
ENDCHAR
STARTCHAR d
ENCODING 100
SWIDTH 588 0
DWIDTH 19 0
BBX 19 21 0 0
BITMAP
000700
000700
000700
000700
000700
000700
03F700
0FFF00
1FFF00
1E0F00
3C0700
380700
380700
780700
380700
380700
3C0700
1E0F00
1FFF00
0FFF00
03F700
ENDCHAR
STARTCHAR e
ENCODING 101
SWIDTH 526 0
DWIDTH 17 0
BBX 17 15 0 0
BITMAP
03F000
0FF800
1FFC00
1E1E00
380E00
380E00
3FFF00
7FFF00
3FFF00
380000
380200
1E0E00
1FFE00
0FFC00
03F000
ENDCHAR
STARTCHAR f
ENCODING 102
SWIDTH 372 0
DWIDTH 12 0
BBX 12 21 0 0
BITMAP
03E0
0FE0
0FE0
1E00
1C00
1C00
7FE0
7FE0
7FE0
1C00
1C00
1C00
1C00
1C00
1C00
1C00
1C00
1C00
1C00
1C00
1C00
ENDCHAR
STARTCHAR g
ENCODING 103
SWIDTH 495 0
DWIDTH 16 0
BBX 16 21 0 -6
BITMAP
07FE
1FFE
3FFE
3838
3818
301C
381C
3C38
1FF8
1FF0
1FC0
1800
1F00
0FF0
3FFC
703E
600E
700E
7FFE
3FFC
0FF0
ENDCHAR
STARTCHAR h
ENCODING 104
SWIDTH 588 0
DWIDTH 19 0
BBX 19 21 0 0
BITMAP
380000
380000
380000
380000
380000
380000
39F800
3FFC00
3FFE00
3E0F00
380700
380700
380700
380700
380700
380700
380700
380700
380700
380700
380700
ENDCHAR
STARTCHAR i
ENCODING 105
SWIDTH 248 0
DWIDTH 8 0
BBX 8 21 0 0
BITMAP
18
3C
18
00
00
38
38
38
38
38
38
38
38
38
38
38
38
38
38
38
00
ENDCHAR
STARTCHAR j
ENCODING 106
SWIDTH 248 0
DWIDTH 8 0
BBX 9 26 -1 -6
BITMAP
0800
1C00
1E00
0C00
0000
0C00
0C00
0C00
0C00
0C00
0C00
0C00
0C00
0C00
0C00
0C00
0C00
0C00
0C00
0C00
1C00
1C00
1C00
FC00
F800
F000
ENDCHAR
STARTCHAR k
ENCODING 107
SWIDTH 495 0
DWIDTH 16 0
BBX 17 21 0 0
BITMAP
380000
380000
380000
380000
380000
380000
381E00
383C00
387800
38F000
39E000
3BC000
3F0000
3F8000
3BC000
39E000
38F000
387800
383C00
381E00
380F00
ENDCHAR
STARTCHAR l
ENCODING 108
SWIDTH 310 0
DWIDTH 10 0
BBX 10 21 0 0
BITMAP
3800
3800
3800
3800
3800
3800
3800
3800
3800
3800
3800
3800
3800
3800
3800
3800
3800
3C00
1F80
1F80
0F80
ENDCHAR
STARTCHAR m
ENCODING 109
SWIDTH 898 0
DWIDTH 29 0
BBX 29 15 0 0
BITMAP
39F87E00
3FFDFF80
3FFFFF80
3E1F83C0
380F01C0
380701C0
380700E0
380700E0
380700E0
380700E0
380700E0
380700E0
380700E0
380700E0
380700E0
ENDCHAR
STARTCHAR n
ENCODING 110
SWIDTH 588 0
DWIDTH 19 0
BBX 19 15 0 0
BITMAP
39F800
3FFC00
3FFE00
3E0F00
380700
380700
380700
380700
380700
380700
380700
380700
380700
380700
380700
ENDCHAR
STARTCHAR o
ENCODING 111
SWIDTH 588 0
DWIDTH 19 0
BBX 19 15 0 0
BITMAP
03F000
07FC00
1FFE00
1E0F00
3C0780
380380
380380
780380
380380
380380
3C0780
1E0F00
1FFE00
07FC00
03F800
ENDCHAR
STARTCHAR p
ENCODING 112
SWIDTH 588 0
DWIDTH 19 0
BBX 19 21 0 -6
BITMAP
39F000
3FFC00
3FFE00
3E1F00
380780
380380
380380
380380
380380
380380
380780
3E1F00
3FFE00
3FFC00
39F000
380000
380000
380000
380000
380000
380000
ENDCHAR
STARTCHAR q
ENCODING 113
SWIDTH 588 0
DWIDTH 19 0
BBX 19 21 0 -6
BITMAP
03F700
0FFF00
1FFF00
1E0F00
3C0700
380700
380700
780700
380700
380700
3C0700
1E0F00
1FFF00
0FFF00
03F700
000700
000700
000700
000700
000700
000700
ENDCHAR
STARTCHAR r
ENCODING 114
SWIDTH 372 0
DWIDTH 12 0
BBX 12 15 0 0
BITMAP
39F0
3FF0
3FF0
3E00
3800
3800
3800
3800
3800
3800
3800
3800
3800
3800
3800
ENDCHAR
STARTCHAR s
ENCODING 115
SWIDTH 465 0
DWIDTH 15 0
BBX 15 15 0 0
BITMAP
07E0
1FF0
3FF0
3810
3800
3C00
3FC0
1FF0
03F8
0038
2038
3838
3FF8
1FF0
0FE0
ENDCHAR
STARTCHAR t
ENCODING 116
SWIDTH 403 0
DWIDTH 13 0
BBX 13 18 0 0
BITMAP
1C00
1C00
1C00
7FF0
7FF0
7FF0
1C00
1C00
1C00
1C00
1C00
1C00
1C00
1C00
1E00
0FF0
0FF0
03F0
ENDCHAR
STARTCHAR u
ENCODING 117
SWIDTH 588 0
DWIDTH 19 0
BBX 19 15 0 0
BITMAP
380700
380700
380700
380700
380700
380700
380700
380700
380700
380700
1C0700
1E0F00
1FFF00
0FFF00
03F700
ENDCHAR
STARTCHAR v
ENCODING 118
SWIDTH 526 0
DWIDTH 17 0
BBX 17 15 0 0
BITMAP
700700
700F00
380E00
380E00
3C1C00
1C1C00
1C3C00
0E3800
0E3800
077000
077000
07E000
03E000
03C000
01C000
ENDCHAR
STARTCHAR w
ENCODING 119
SWIDTH 836 0
DWIDTH 27 0
BBX 27 15 0 0
BITMAP
700E01C0
781E0380
381F0380
381F0380
3C3B0700
1C3B8700
1C338700
1E71CE00
0E71CE00
0EE1CE00
0FE0FC00
07C0FC00
07C07C00
07C07800
03807800
ENDCHAR
STARTCHAR x
ENCODING 120
SWIDTH 495 0
DWIDTH 16 0
BBX 16 15 0 0
BITMAP
781C
3C3C
1C38
0E70
0FE0
07E0
03C0
03C0
07E0
0FF0
0E70
1C38
383C
781E
700E
ENDCHAR
STARTCHAR y
ENCODING 121
SWIDTH 526 0
DWIDTH 17 0
BBX 17 21 0 -6
BITMAP
700700
700F00
380E00
380E00
3C1C00
1C1C00
1C1C00
0E3800
0E3800
077000
077000
077000
03E000
03E000
01C000
01C000
01C000
038000
1F8000
1F0000
1C0000
ENDCHAR
STARTCHAR z
ENCODING 122
SWIDTH 465 0
DWIDTH 15 0
BBX 15 15 0 0
BITMAP
3FFC
3FF8
3FF0
00F0
00E0
01C0
03C0
0380
0700
0F00
0E00
1C00
3FF8
3FF8
7FF8
ENDCHAR
STARTCHAR {
ENCODING 123
SWIDTH 341 0
DWIDTH 11 0
BBX 11 28 0 -4
BITMAP
03C0
07C0
0700
0E00
0E00
0E00
0E00
0E00
0E00
0E00
0E00
0E00
3C00
3800
3800
3C00
0E00
0E00
0E00
0E00
0E00
0E00
0E00
0E00
0E00
0700
07C0
03C0
ENDCHAR
STARTCHAR |
ENCODING 124
SWIDTH 217 0
DWIDTH 7 0
BBX 7 31 0 -8
BITMAP
38
38
38
38
38
38
38
38
38
38
38
38
38
38
38
38
38
38
38
38
38
38
38
38
38
38
38
38
38
38
38
ENDCHAR
STARTCHAR }
ENCODING 125
SWIDTH 341 0
DWIDTH 11 0
BBX 11 28 0 -4
BITMAP
7800
7C00
0E00
0E00
0E00
0E00
0E00
0E00
0E00
0E00
0E00
0700
0780
03C0
03C0
0780
0700
0E00
0E00
0E00
0E00
0E00
0E00
0E00
0E00
0E00
7C00
7800
ENDCHAR
STARTCHAR ~
ENCODING 126
SWIDTH 526 0
DWIDTH 17 0
BBX 17 13 0 0
BITMAP
0E0600
1F8E00
1FCE00
39FC00
30FC00
307800
000000
000000
000000
000000
000000
000000
000000
ENDCHAR
STARTCHAR U+00A0
ENCODING 160
SWIDTH 248 0
DWIDTH 8 0
BBX 8 36 0 -8
BITMAP
00
00
00
00
00
00
00
00
00
00
00
00
00
00
00
00
00
00
00
00
00
00
00
00
00
00
00
00
00
00
00
00
00
00
00
00
ENDCHAR
STARTCHAR U+00A1
ENCODING 161
SWIDTH 279 0
DWIDTH 9 0
BBX 9 22 0 -6
BITMAP
0800
1C00
1C00
0800
0000
1800
1800
1C00
1C00
1C00
1C00
1C00
1C00
1C00
1C00
1C00
1C00
1C00
1C00
1C00
1C00
0000
ENDCHAR
STARTCHAR U+00A2
ENCODING 162
SWIDTH 495 0
DWIDTH 16 0
BBX 16 19 0 -2
BITMAP
00E0
00E0
03F8
07FC
1FFC
1E04
3C00
3800
3800
7800
3800
3800
3C00
1E04
1FFC
07FC
01F8
00E0
00E0
ENDCHAR
STARTCHAR U+00A3
ENCODING 163
SWIDTH 526 0
DWIDTH 17 0
BBX 17 21 0 0
BITMAP
00F800
01FC00
03FE00
078C00
070400
070000
070000
0E0000
0E0000
0E0000
3FF000
3FF000
3FF000
0E0000
0E0000
0E0000
1C0000
1C0000
1FFE00
3FFE00
7FFC00
ENDCHAR
STARTCHAR U+00A4
ENCODING 164
SWIDTH 588 0
DWIDTH 19 0
BBX 19 16 0 0
BITMAP
100200
380780
3DF780
1FFF00
0FFE00
0E1E00
1C0F00
1C0700
1C0700
1C0F00
0E1E00
0FFE00
1FFF00
3DF780
380780
100200
ENDCHAR
STARTCHAR U+00A5
ENCODING 165
SWIDTH 588 0
DWIDTH 19 0
BBX 19 21 0 0
BITMAP
7801C0
380380
3C0780
1E0700
0E0F00
0F1E00
079C00
3FBF80
3FFF80
01F000
00F000
00E000
3FFF80
3FFF80
00E000
00E000
00E000
00E000
00E000
00E000
00E000
ENDCHAR
STARTCHAR U+00A6
ENCODING 166
SWIDTH 217 0
DWIDTH 7 0
BBX 7 31 0 -8
BITMAP
38
38
38
38
38
38
38
38
38
38
38
38
00
00
00
00
00
00
00
38
38
38
38
38
38
38
38
38
38
38
38
ENDCHAR
STARTCHAR U+00A7
ENCODING 167
SWIDTH 465 0
DWIDTH 15 0
BBX 15 27 0 -6
BITMAP
0FC0
1FF0
3C78
3830
7800
7800
3C00
3F00
0FE0
3FF0
7CF8
703C
701C
701C
781C
3E38
1FF0
07F0
01F8
0038
003C
301C
703C
3C78
3FF8
1FF0
07C0
ENDCHAR
STARTCHAR U+00A8
ENCODING 168
SWIDTH 434 0
DWIDTH 14 0
BBX 15 21 0 0
BITMAP
FFFC
FFFC
FFFC
E01C
E01C
E01C
E01C
E01C
E01C
E01C
E01C
E01C
E01C
E01C
E01C
E01C
E01C
E01C
FFFC
FFFC
FFFC
ENDCHAR
STARTCHAR U+00A9
ENCODING 169
SWIDTH 774 0
DWIDTH 25 0
BBX 25 21 0 0
BITMAP
007F0000
01FFC000
0780E000
0E003800
0C3F1800
18FF8C00
11E08400
33800600
33800600
23800200
23800200
23800200
33800600
31E08600
10FF8400
183F0C00
0C001800
0E003000
0780E000
01FFC000
007F0000
ENDCHAR
STARTCHAR U+00AA
ENCODING 170
SWIDTH 310 0
DWIDTH 10 0
BBX 10 21 0 0
BITMAP
3E00
7F00
0300
0300
1F00
3F00
7300
6300
7F00
3F00
0000
0000
0000
0000
0000
0000
0000
0000
0000
0000
0000
ENDCHAR
STARTCHAR U+00AB
ENCODING 171
SWIDTH 557 0
DWIDTH 18 0
BBX 18 15 0 0
BITMAP
038700
070E00
070E00
0E1C00
1C3800
387000
78F000
387000
1C3800
0E1C00
070E00
070E00
038700
000000
000000
ENDCHAR
STARTCHAR U+00AC
ENCODING 172
SWIDTH 526 0
DWIDTH 17 0
BBX 17 15 0 0
BITMAP
3FFE00
3FFE00
3FFE00
000E00
000E00
000E00
000E00
000E00
000E00
000000
000000
000000
000000
000000
000000
ENDCHAR
STARTCHAR U+00AD
ENCODING 173
SWIDTH 372 0
DWIDTH 12 0
BBX 12 10 0 0
BITMAP
7FE0
7FE0
7FE0
0000
0000
0000
0000
0000
0000
0000
ENDCHAR
STARTCHAR U+00AE
ENCODING 174
SWIDTH 774 0
DWIDTH 25 0
BBX 25 21 0 0
BITMAP
007F0000
01FFC000
0780E000
0E003800
0CFE1800
18FF0C00
10E30400
30E38600
20E38600
20E30200
20FF0200
20FE0200
30EE0600
30E70600
10E38400
18E1CC00
0C001800
0E003800
0780E000
01FFC000
007F0000
ENDCHAR
STARTCHAR U+00AF
ENCODING 175
SWIDTH 434 0
DWIDTH 14 0
BBX 15 21 0 0
BITMAP
FFFC
FFFC
FFFC
E01C
E01C
E01C
E01C
E01C
E01C
E01C
E01C
E01C
E01C
E01C
E01C
E01C
E01C
E01C
FFFC
FFFC
FFFC
ENDCHAR
STARTCHAR U+00B0
ENCODING 176
SWIDTH 372 0
DWIDTH 12 0
BBX 12 21 0 0
BITMAP
0F00
1F80
39C0
30E0
30E0
30C0
39C0
1F80
0F00
0000
0000
0000
0000
0000
0000
0000
0000
0000
0000
0000
0000
ENDCHAR
STARTCHAR U+00B1
ENCODING 177
SWIDTH 526 0
DWIDTH 17 0
BBX 17 19 0 0
BITMAP
01C000
01C000
01C000
01C000
01C000
3FFE00
3FFE00
3FFE00
01C000
01C000
01C000
01C000
01C000
000000
000000
000000
3FFE00
3FFE00
3FFE00
ENDCHAR
STARTCHAR U+00B2
ENCODING 178
SWIDTH 310 0
DWIDTH 10 0
BBX 10 21 0 0
BITMAP
3E00
7F00
6380
4380
0380
0380
0700
0700
0E00
1C00
1C00
3F80
3F80
0000
0000
0000
0000
0000
0000
0000
0000
ENDCHAR
STARTCHAR U+00B3
ENCODING 179
SWIDTH 310 0
DWIDTH 10 0
BBX 10 21 0 0
BITMAP
7F80
7F00
0700
0600
0E00
0F00
0380
0180
0180
0180
2380
7F00
3E00
0000
0000
0000
0000
0000
0000
0000
0000
ENDCHAR
STARTCHAR U+00B4
ENCODING 180
SWIDTH 434 0
DWIDTH 14 0
BBX 15 21 0 0
BITMAP
FFFC
FFFC
FFFC
E01C
E01C
E01C
E01C
E01C
E01C
E01C
E01C
E01C
E01C
E01C
E01C
E01C
E01C
E01C
FFFC
FFFC
FFFC
ENDCHAR
STARTCHAR U+00B5
ENCODING 181
SWIDTH 557 0
DWIDTH 18 0
BBX 18 21 0 -6
BITMAP
380700
380700
380700
380700
380700
380700
380700
380700
380700
3C0700
3C0700
3E1F00
3FFF00
3FFF00
3BE700
380000
380000
380000
380000
380000
380000
ENDCHAR
STARTCHAR U+00B6
ENCODING 182
SWIDTH 526 0
DWIDTH 17 0
BBX 17 27 0 -6
BITMAP
07FF00
1FFF00
3FCE00
3FCE00
3FCE00
7FCE00
3FCE00
3FCE00
3FCE00
1FCE00
07CE00
00CE00
00CE00
00CE00
00CE00
00CE00
00CE00
00CE00
00CE00
00CE00
00CE00
00CE00
00CE00
00CE00
00CE00
00CE00
00CE00
ENDCHAR
STARTCHAR U+00B7
ENCODING 183
SWIDTH 248 0
DWIDTH 8 0
BBX 8 13 0 0
BITMAP
10
38
3C
38
10
00
00
00
00
00
00
00
00
ENDCHAR
STARTCHAR U+00B8
ENCODING 184
SWIDTH 434 0
DWIDTH 14 0
BBX 15 21 0 0
BITMAP
FFFC
FFFC
FFFC
E01C
E01C
E01C
E01C
E01C
E01C
E01C
E01C
E01C
E01C
E01C
E01C
E01C
E01C
E01C
FFFC
FFFC
FFFC
ENDCHAR
STARTCHAR U+00B9
ENCODING 185
SWIDTH 217 0
DWIDTH 7 0
BBX 7 21 0 0
BITMAP
08
18
38
38
38
38
38
38
38
38
38
38
38
00
00
00
00
00
00
00
00
ENDCHAR
STARTCHAR U+00BA
ENCODING 186
SWIDTH 372 0
DWIDTH 12 0
BBX 12 21 0 0
BITMAP
0F00
3FC0
70C0
60E0
6060
60E0
70E0
3FC0
0F00
0000
0000
0000
0000
0000
0000
0000
0000
0000
0000
0000
0000
ENDCHAR
STARTCHAR U+00BB
ENCODING 187
SWIDTH 557 0
DWIDTH 18 0
BBX 18 15 0 0
BITMAP
38E000
1C7000
1C3800
0E1C00
071E00
038E00
03C700
038E00
070E00
0E1C00
1C3800
1C7000
38E000
000000
000000
ENDCHAR
STARTCHAR U+00BC
ENCODING 188
SWIDTH 774 0
DWIDTH 25 0
BBX 25 21 0 0
BITMAP
0800C000
1801C000
38018000
38038000
38030000
38070000
38060000
380E0000
380C0000
381C0400
38180C00
38381C00
38303C00
00707C00
00606C00
00E0CC00
00C18C00
01C3FF00
0187FF00
03800C00
07000C00
ENDCHAR
STARTCHAR U+00BD
ENCODING 189
SWIDTH 805 0
DWIDTH 26 0
BBX 26 21 0 0
BITMAP
0800C000
1801C000
38018000
38038000
38030000
38070000
38060000
380E0000
380C3E00
381C7F00
38186380
38384380
38300380
00700380
00600700
00E00700
00C00E00
01C01C00
01801C00
03803F80
07003F80
ENDCHAR
STARTCHAR U+00BE
ENCODING 190
SWIDTH 836 0
DWIDTH 27 0
BBX 27 21 0 0
BITMAP
7F803000
7F007000
07006000
0600E000
0E00C000
0F01C000
03818000
01838000
01830000
01870100
23860300
7F0E0700
3E0C0F00
001C1F00
00181B00
00383300
00306300
0070FFC0
0061FFC0
00E00300
01C00300
ENDCHAR
STARTCHAR U+00BF
ENCODING 191
SWIDTH 434 0
DWIDTH 14 0
BBX 14 22 0 -6
BITMAP
0100
0380
03C0
0180
0100
0000
0100
0380
03C0
01C0
01C0
07C0
0F80
1E00
3C00
3800
3800
3810
3C38
1FF8
1FF0
07C0
ENDCHAR
STARTCHAR U+00C0
ENCODING 192
SWIDTH 650 0
DWIDTH 21 0
BBX 21 27 0 0
BITMAP
01C000
00E000
007000
003800
000000
000000
007000
00F000
00F800
00F800
01F800
01DC00
03DC00
038E00
038E00
070F00
070700
0F0700
0E0380
0FFF80
1FFFC0
1FFFC0
3C01C0
3801E0
3800E0
7800F0
700070
ENDCHAR
STARTCHAR U+00C1
ENCODING 193
SWIDTH 650 0
DWIDTH 21 0
BBX 21 27 0 0
BITMAP
001E00
003C00
003800
007000
000000
000000
007000
00F000
00F800
00F800
01F800
01DC00
03DC00
038E00
038E00
070F00
070700
0F0700
0E0380
0FFF80
1FFFC0
1FFFC0
3C01C0
3801E0
3800E0
7800F0
700070
ENDCHAR
STARTCHAR U+00C2
ENCODING 194
SWIDTH 650 0
DWIDTH 21 0
BBX 21 27 0 0
BITMAP
007800
00F800
01CC00
038600
000000
000000
007000
00F000
00F800
00F800
01F800
01DC00
03DC00
038E00
038E00
070F00
070700
0F0700
0E0380
0FFF80
1FFFC0
1FFFC0
3C01C0
3801E0
3800E0
7800F0
700070
ENDCHAR
STARTCHAR U+00C3
ENCODING 195
SWIDTH 650 0
DWIDTH 21 0
BBX 21 27 0 0
BITMAP
03C400
07FE00
07FE00
023C00
000000
000000
007000
00F000
00F800
00F800
01F800
01DC00
03DC00
038E00
038E00
070F00
070700
0F0700
0E0380
0FFF80
1FFFC0
1FFFC0
3C01C0
3801E0
3800E0
7800F0
700070
ENDCHAR
STARTCHAR U+00C4
ENCODING 196
SWIDTH 650 0
DWIDTH 21 0
BBX 21 27 0 0
BITMAP
010400
038F00
03CF00
010400
000000
000000
007000
00F000
00F800
00F800
01F800
01DC00
03DC00
038E00
038E00
070F00
070700
0F0700
0E0380
0FFF80
1FFFC0
1FFFC0
3C01C0
3801E0
3800E0
7800F0
700070
ENDCHAR
STARTCHAR U+00C5
ENCODING 197
SWIDTH 650 0
DWIDTH 21 0
BBX 21 29 0 0
BITMAP
007000
00D800
018800
018800
00D800
007000
000000
000000
007000
00F000
00F800
00F800
01F800
01DC00
03DC00
038E00
038E00
070F00
070700
0F0700
0E0380
0FFF80
1FFFC0
1FFFC0
3C01C0
3801E0
3800E0
7800F0
700070
ENDCHAR
STARTCHAR U+00C6
ENCODING 198
SWIDTH 898 0
DWIDTH 29 0
BBX 29 21 0 0
BITMAP
000FFFE0
001FFFE0
001FFFE0
003F8000
003B8000
007B8000
00738000
00F38000
01E3FF80
01C3FF80
03C3FF80
03838000
07FF8000
07FF8000
0FFF8000
1E038000
1E038000
3C038000
3803FFE0
7803FFE0
7003FFE0
ENDCHAR
STARTCHAR U+00C7
ENCODING 199
SWIDTH 650 0
DWIDTH 21 0
BBX 21 27 0 -6
BITMAP
007F00
01FFC0
03FFE0
07C0E0
0F0020
1E0000
1C0000
3C0000
380000
380000
380000
380000
380000
3C0000
1C0000
1E0000
0F0020
07C0E0
03FFE0
01FFC0
007F00
001800
003C00
003E00
000E00
007E00
007800
ENDCHAR
STARTCHAR U+00C8
ENCODING 200
SWIDTH 557 0
DWIDTH 18 0
BBX 18 27 0 0
BITMAP
038000
01C000
00E000
007000
000000
000000
1FFF00
1FFF00
1FFF00
1C0000
1C0000
1C0000
1C0000
1C0000
1FFC00
1FFC00
1FFC00
1C0000
1C0000
1C0000
1C0000
1C0000
1C0000
1C0000
1FFF80
1FFF80
1FFF80
ENDCHAR
STARTCHAR U+00C9
ENCODING 201
SWIDTH 557 0
DWIDTH 18 0
BBX 18 27 0 0
BITMAP
003C00
007800
007000
00E000
000000
000000
1FFF00
1FFF00
1FFF00
1C0000
1C0000
1C0000
1C0000
1C0000
1FFC00
1FFC00
1FFC00
1C0000
1C0000
1C0000
1C0000
1C0000
1C0000
1C0000
1FFF80
1FFF80
1FFF80
ENDCHAR
STARTCHAR U+00CA
ENCODING 202
SWIDTH 557 0
DWIDTH 18 0
BBX 18 27 0 0
BITMAP
00F000
01F000
039800
070C00
000000
000000
1FFF00
1FFF00
1FFF00
1C0000
1C0000
1C0000
1C0000
1C0000
1FFC00
1FFC00
1FFC00
1C0000
1C0000
1C0000
1C0000
1C0000
1C0000
1C0000
1FFF80
1FFF80
1FFF80
ENDCHAR
STARTCHAR U+00CB
ENCODING 203
SWIDTH 557 0
DWIDTH 18 0
BBX 18 27 0 0
BITMAP
041000
0E3C00
0F3C00
041000
000000
000000
1FFF00
1FFF00
1FFF00
1C0000
1C0000
1C0000
1C0000
1C0000
1FFC00
1FFC00
1FFC00
1C0000
1C0000
1C0000
1C0000
1C0000
1C0000
1C0000
1FFF80
1FFF80
1FFF80
ENDCHAR
STARTCHAR U+00CC
ENCODING 204
SWIDTH 279 0
DWIDTH 9 0
BBX 9 27 0 0
BITMAP
7000
3800
1C00
0E00
0000
0000
1C00
1C00
1C00
1C00
1C00
1C00
1C00
1C00
1C00
1C00
1C00
1C00
1C00
1C00
1C00
1C00
1C00
1C00
1C00
1C00
1C00
ENDCHAR
STARTCHAR U+00CD
ENCODING 205
SWIDTH 279 0
DWIDTH 9 0
BBX 9 27 0 0
BITMAP
0000
0000
0000
0000
0000
0000
0000
0000
0000
0000
0000
0000
0000
0000
0000
0000
0000
0000
0000
0000
0000
0000
0000
0000
0000
0000
0000
ENDCHAR
STARTCHAR U+00CE
ENCODING 206
SWIDTH 279 0
DWIDTH 9 0
BBX 10 27 0 0
BITMAP
1E00
3E00
7300
E180
0000
0000
1C00
1C00
1C00
1C00
1C00
1C00
1C00
1C00
1C00
1C00
1C00
1C00
1C00
1C00
1C00
1C00
1C00
1C00
1C00
1C00
1C00
ENDCHAR
STARTCHAR U+00CF
ENCODING 207
SWIDTH 279 0
DWIDTH 9 0
BBX 11 27 -1 0
BITMAP
0000
0000
0000
0000
0000
0000
0000
0000
0000
0000
0000
0000
0000
0000
0000
0000
0000
0000
0000
0000
0000
0000
0000
0000
0000
0000
0000
ENDCHAR
STARTCHAR U+00D0
ENCODING 208
SWIDTH 712 0
DWIDTH 23 0
BBX 23 21 0 0
BITMAP
1FF800
1FFF00
1FFF80
1C0FC0
1C03E0
1C00F0
1C00F0
1C0070
1C0078
7FE078
7FE038
1C0078
1C0078
1C0070
1C00F0
1C00F0
1C03E0
1C0FC0
1FFF80
1FFF00
1FF800
ENDCHAR
STARTCHAR U+00D1
ENCODING 209
SWIDTH 743 0
DWIDTH 24 0
BBX 24 27 0 0
BITMAP
00F100
01FF80
01FF80
008F00
000000
000000
1C0038
1E0038
1F0038
1F8038
1F8038
1FC038
1DE038
1CF038
1C7038
1C7838
1C3C38
1C1E38
1C0F38
1C0F38
1C07B8
1C03F8
1C01F8
1C00F8
1C00F8
1C0078
1C0038
ENDCHAR
STARTCHAR U+00D2
ENCODING 210
SWIDTH 774 0
DWIDTH 25 0
BBX 25 27 0 0
BITMAP
00700000
00380000
001C0000
000E0000
00000000
00000000
007F0000
01FFC000
03FFF000
07C0F800
0F003C00
1E001C00
1C001E00
3C000E00
38000F00
38000F00
38000F00
38000F00
38000F00
3C000E00
1C001E00
1E001C00
0F003C00
07C0F800
03FFF000
01FFC000
007F0000
ENDCHAR
STARTCHAR U+00D3
ENCODING 211
SWIDTH 774 0
DWIDTH 25 0
BBX 25 27 0 0
BITMAP
00078000
000F0000
000E0000
001C0000
00000000
00000000
007F0000
01FFC000
03FFF000
07C0F800
0F003C00
1E001C00
1C001E00
3C000E00
38000F00
38000F00
38000F00
38000F00
38000F00
3C000E00
1C001E00
1E001C00
0F003C00
07C0F800
03FFF000
01FFC000
007F0000
ENDCHAR
STARTCHAR U+00D4
ENCODING 212
SWIDTH 774 0
DWIDTH 25 0
BBX 25 27 0 0
BITMAP
001E0000
003E0000
00730000
00E18000
00000000
00000000
007F0000
01FFC000
03FFF000
07C0F800
0F003C00
1E001C00
1C001E00
3C000E00
38000F00
38000F00
38000F00
38000F00
38000F00
3C000E00
1C001E00
1E001C00
0F003C00
07C0F800
03FFF000
01FFC000
007F0000
ENDCHAR
STARTCHAR U+00D5
ENCODING 213
SWIDTH 774 0
DWIDTH 25 0
BBX 25 27 0 0
BITMAP
00F10000
01FF8000
01FF8000
008F0000
00000000
00000000
007F0000
01FFC000
03FFF000
07C0F800
0F003C00
1E001C00
1C001E00
3C000E00
38000F00
38000F00
38000F00
38000F00
38000F00
3C000E00
1C001E00
1E001C00
0F003C00
07C0F800
03FFF000
01FFC000
007F0000
ENDCHAR
STARTCHAR U+00D6
ENCODING 214
SWIDTH 774 0
DWIDTH 25 0
BBX 25 27 0 0
BITMAP
00410000
00E3C000
00F3C000
00410000
00000000
00000000
007F0000
01FFC000
03FFF000
07C0F800
0F003C00
1E001C00
1C001E00
3C000E00
38000F00
38000F00
38000F00
38000F00
38000F00
3C000E00
1C001E00
1E001C00
0F003C00
07C0F800
03FFF000
01FFC000
007F0000
ENDCHAR
STARTCHAR U+00D7
ENCODING 215
SWIDTH 526 0
DWIDTH 17 0
BBX 17 16 0 0
BITMAP
080800
1C1C00
1E3800
0F7800
07F000
03E000
03E000
07F000
0F7800
1E3800
1C1C00
080800
000000
000000
000000
000000
ENDCHAR
STARTCHAR U+00D8
ENCODING 216
SWIDTH 774 0
DWIDTH 25 0
BBX 25 21 0 0
BITMAP
007F0400
01FFCE00
03FFFC00
07C0F800
0F007C00
1E00FC00
1C01DE00
3C038E00
38070F00
380E0F00
381C0F00
38380F00
38700F00
3CE00E00
1DC01E00
1F801C00
0F003C00
0FC0F800
1FFFF000
39FFC000
107F0000
ENDCHAR
STARTCHAR U+00D9
ENCODING 217
SWIDTH 743 0
DWIDTH 24 0
BBX 24 27 0 0
BITMAP
00E000
007000
003800
001C00
000000
000000
1C0038
1C0038
1C0038
1C0038
1C0038
1C0038
1C0038
1C0038
1C0038
1C0038
1C0038
1C0038
1C0038
1C0038
1C0038
1E0078
0F00F0
0781E0
07FFC0
01FF80
007E00
ENDCHAR
STARTCHAR U+00DA
ENCODING 218
SWIDTH 743 0
DWIDTH 24 0
BBX 24 27 0 0
BITMAP
000F00
001E00
001C00
003800
000000
000000
1C0038
1C0038
1C0038
1C0038
1C0038
1C0038
1C0038
1C0038
1C0038
1C0038
1C0038
1C0038
1C0038
1C0038
1C0038
1E0078
0F00F0
0781E0
07FFC0
01FF80
007E00
ENDCHAR
STARTCHAR U+00DB
ENCODING 219
SWIDTH 743 0
DWIDTH 24 0
BBX 24 27 0 0
BITMAP
003C00
007C00
00E600
01C300
000000
000000
1C0038
1C0038
1C0038
1C0038
1C0038
1C0038
1C0038
1C0038
1C0038
1C0038
1C0038
1C0038
1C0038
1C0038
1C0038
1E0078
0F00F0
0781E0
07FFC0
01FF80
007E00
ENDCHAR
STARTCHAR U+00DC
ENCODING 220
SWIDTH 743 0
DWIDTH 24 0
BBX 24 27 0 0
BITMAP
008200
01C780
01E780
008200
000000
000000
1C0038
1C0038
1C0038
1C0038
1C0038
1C0038
1C0038
1C0038
1C0038
1C0038
1C0038
1C0038
1C0038
1C0038
1C0038
1E0078
0F00F0
0781E0
07FFC0
01FF80
007E00
ENDCHAR
STARTCHAR U+00DD
ENCODING 221
SWIDTH 588 0
DWIDTH 19 0
BBX 19 27 0 0
BITMAP
003C00
007800
007000
00E000
000000
000000
7003C0
780380
3C0780
1C0F00
1E0E00
0F1E00
071C00
07B800
03F800
01F000
01E000
00E000
00E000
00E000
00E000
00E000
00E000
00E000
00E000
00E000
00E000
ENDCHAR
STARTCHAR U+00DE
ENCODING 222
SWIDTH 557 0
DWIDTH 18 0
BBX 18 21 0 0
BITMAP
1C0000
1C0000
1C0000
1C0000
1FF800
1FFE00
1FFF00
1C0F00
1C0780
1C0780
1C0380
1C0780
1C0780
1C0F00
1FFE00
1FFE00
1FF800
1C0000
1C0000
1C0000
1C0000
ENDCHAR
STARTCHAR U+00DF
ENCODING 223
SWIDTH 526 0
DWIDTH 17 0
BBX 17 21 0 0
BITMAP
03F000
07F800
0FFC00
1E1C00
1C0E00
1C0E00
180E00
381C00
38F800
38F000
38FC00
381E00
380E00
380700
380700
380700
380F00
381E00
39FE00
39FC00
39F000
ENDCHAR
STARTCHAR U+00E0
ENCODING 224
SWIDTH 495 0
DWIDTH 16 0
BBX 16 21 0 0
BITMAP
0E00
0700
0380
01C0
0000
0000
07E0
1FF0
1FF8
1838
201C
01FC
0FFC
1E1C
381C
381C
381C
387C
3FFC
1FFC
0F9C
ENDCHAR
STARTCHAR U+00E1
ENCODING 225
SWIDTH 495 0
DWIDTH 16 0
BBX 16 21 0 0
BITMAP
00F0
01E0
01C0
0380
0000
0000
07E0
1FF0
1FF8
1838
201C
01FC
0FFC
1E1C
381C
381C
381C
387C
3FFC
1FFC
0F9C
ENDCHAR
STARTCHAR U+00E2
ENCODING 226
SWIDTH 495 0
DWIDTH 16 0
BBX 16 21 0 0
BITMAP
03C0
07C0
0E60
1C30
0000
0000
07E0
1FF0
1FF8
1838
201C
01FC
0FFC
1E1C
381C
381C
381C
387C
3FFC
1FFC
0F9C
ENDCHAR
STARTCHAR U+00E3
ENCODING 227
SWIDTH 495 0
DWIDTH 16 0
BBX 16 21 0 0
BITMAP
0F10
1FF8
1FF8
08F0
0000
0000
07E0
1FF0
1FF8
1838
201C
01FC
0FFC
1E1C
381C
381C
381C
387C
3FFC
1FFC
0F9C
ENDCHAR
STARTCHAR U+00E4
ENCODING 228
SWIDTH 495 0
DWIDTH 16 0
BBX 16 21 0 0
BITMAP
0820
1C78
1E78
0820
0000
0000
07E0
1FF0
1FF8
1838
201C
01FC
0FFC
1E1C
381C
381C
381C
387C
3FFC
1FFC
0F9C
ENDCHAR
STARTCHAR U+00E5
ENCODING 229
SWIDTH 495 0
DWIDTH 16 0
BBX 16 23 0 0
BITMAP
01C0
0360
0620
0620
0360
01C0
0000
0000
07E0
1FF0
1FF8
1838
201C
01FC
0FFC
1E1C
381C
381C
381C
387C
3FFC
1FFC
0F9C
ENDCHAR
STARTCHAR U+00E6
ENCODING 230
SWIDTH 805 0
DWIDTH 26 0
BBX 26 15 0 0
BITMAP
07C1F000
1FF3FC00
1FFFFE00
187E0E00
203C0700
003C0700
01FFFF00
0FFFFF00
3E1C0000
381C0000
381E0100
383F0700
3FFFFF00
3FF7FE00
0FC1F800
ENDCHAR
STARTCHAR U+00E7
ENCODING 231
SWIDTH 495 0
DWIDTH 16 0
BBX 16 21 0 -6
BITMAP
01F0
07F8
1FFC
1E0C
3C04
3800
3800
7800
3800
3800
3C00
1E04
1FFC
07FC
01F8
00C0
00F0
00F8
0038
03F0
03E0
ENDCHAR
STARTCHAR U+00E8
ENCODING 232
SWIDTH 526 0
DWIDTH 17 0
BBX 17 21 0 0
BITMAP
070000
038000
01C000
00E000
000000
000000
03F000
0FF800
1FFC00
1E1E00
380E00
380E00
3FFF00
7FFF00
3FFF00
380000
380200
1E0E00
1FFE00
0FFC00
03F000
ENDCHAR
STARTCHAR U+00E9
ENCODING 233
SWIDTH 526 0
DWIDTH 17 0
BBX 17 21 0 0
BITMAP
007800
00F000
00E000
01C000
000000
000000
03F000
0FF800
1FFC00
1E1E00
380E00
380E00
3FFF00
7FFF00
3FFF00
380000
380200
1E0E00
1FFE00
0FFC00
03F000
ENDCHAR
STARTCHAR U+00EA
ENCODING 234
SWIDTH 526 0
DWIDTH 17 0
BBX 17 21 0 0
BITMAP
01E000
03E000
073000
0E1800
000000
000000
03F000
0FF800
1FFC00
1E1E00
380E00
380E00
3FFF00
7FFF00
3FFF00
380000
380200
1E0E00
1FFE00
0FFC00
03F000
ENDCHAR
STARTCHAR U+00EB
ENCODING 235
SWIDTH 526 0
DWIDTH 17 0
BBX 17 21 0 0
BITMAP
041000
0E3C00
0F3C00
041000
000000
000000
03F000
0FF800
1FFC00
1E1E00
380E00
380E00
3FFF00
7FFF00
3FFF00
380000
380200
1E0E00
1FFE00
0FFC00
03F000
ENDCHAR
STARTCHAR U+00EC
ENCODING 236
SWIDTH 248 0
DWIDTH 8 0
BBX 9 21 -1 0
BITMAP
7000
3800
1C00
0E00
0000
0000
1C00
1C00
1C00
1C00
1C00
1C00
1C00
1C00
1C00
1C00
1C00
1C00
1C00
1C00
1C00
ENDCHAR
STARTCHAR U+00ED
ENCODING 237
SWIDTH 248 0
DWIDTH 8 0
BBX 9 21 0 0
BITMAP
0F00
1E00
1C00
3800
0000
0000
3800
3800
3800
3800
3800
3800
3800
3800
3800
3800
3800
3800
3800
3800
3800
ENDCHAR
STARTCHAR U+00EE
ENCODING 238
SWIDTH 248 0
DWIDTH 8 0
BBX 10 21 -1 0
BITMAP
1E00
3E00
7300
E180
0000
0000
1C00
1C00
1C00
1C00
1C00
1C00
1C00
1C00
1C00
1C00
1C00
1C00
1C00
1C00
1C00
ENDCHAR
STARTCHAR U+00EF
ENCODING 239
SWIDTH 248 0
DWIDTH 8 0
BBX 12 21 -2 0
BITMAP
4100
E3C0
F3C0
4100
0000
0000
1C00
1C00
1C00
1C00
1C00
1C00
1C00
1C00
1C00
1C00
1C00
1C00
1C00
1C00
1C00
ENDCHAR
STARTCHAR U+00F0
ENCODING 240
SWIDTH 526 0
DWIDTH 17 0
BBX 17 21 0 0
BITMAP
031800
0FF800
03F000
07E000
1F7000
0C7800
003C00
03DC00
0FFE00
1FFE00
3C1E00
380F00
380700
780700
780700
380E00
380E00
3C1E00
1FFC00
0FF800
07E000
ENDCHAR
STARTCHAR U+00F1
ENCODING 241
SWIDTH 588 0
DWIDTH 19 0
BBX 19 21 0 0
BITMAP
078800
0FFC00
0FFC00
047800
000000
000000
39F800
3FFC00
3FFE00
3E0F00
380700
380700
380700
380700
380700
380700
380700
380700
380700
380700
380700
ENDCHAR
STARTCHAR U+00F2
ENCODING 242
SWIDTH 588 0
DWIDTH 19 0
BBX 19 21 0 0
BITMAP
038000
01C000
00E000
007000
000000
000000
03F000
07FC00
1FFE00
1E0F00
3C0780
380380
380380
780380
380380
380380
3C0780
1E0F00
1FFE00
07FC00
03F800
ENDCHAR
STARTCHAR U+00F3
ENCODING 243
SWIDTH 588 0
DWIDTH 19 0
BBX 19 21 0 0
BITMAP
003C00
007800
007000
00E000
000000
000000
03F000
07FC00
1FFE00
1E0F00
3C0780
380380
380380
780380
380380
380380
3C0780
1E0F00
1FFE00
07FC00
03F800
ENDCHAR
STARTCHAR U+00F4
ENCODING 244
SWIDTH 588 0
DWIDTH 19 0
BBX 19 21 0 0
BITMAP
00F000
01F000
039800
070C00
000000
000000
03F000
07FC00
1FFE00
1E0F00
3C0780
380380
380380
780380
380380
380380
3C0780
1E0F00
1FFE00
07FC00
03F800
ENDCHAR
STARTCHAR U+00F5
ENCODING 245
SWIDTH 588 0
DWIDTH 19 0
BBX 19 21 0 0
BITMAP
078800
0FFC00
0FFC00
047800
000000
000000
03F000
07FC00
1FFE00
1E0F00
3C0780
380380
380380
780380
380380
380380
3C0780
1E0F00
1FFE00
07FC00
03F800
ENDCHAR
STARTCHAR U+00F6
ENCODING 246
SWIDTH 588 0
DWIDTH 19 0
BBX 19 21 0 0
BITMAP
020800
071E00
079E00
020800
000000
000000
03F000
07FC00
1FFE00
1E0F00
3C0780
380380
380380
780380
380380
380380
3C0780
1E0F00
1FFE00
07FC00
03F800
ENDCHAR
STARTCHAR U+00F7
ENCODING 247
SWIDTH 526 0
DWIDTH 17 0
BBX 17 18 0 0
BITMAP
008000
01C000
01E000
01C000
008000
000000
3FFE00
3FFE00
3FFE00
000000
008000
01C000
01E000
01C000
008000
000000
000000
000000
ENDCHAR
STARTCHAR U+00F8
ENCODING 248
SWIDTH 588 0
DWIDTH 19 0
BBX 19 17 0 -1
BITMAP
000100
03F300
07FF00
1FFE00
1E0F00
3C1F80
383B80
387380
78E380
39C380
3B8380
3F0780
1E0F00
1FFE00
1FFC00
1BF800
100000
ENDCHAR
STARTCHAR U+00F9
ENCODING 249
SWIDTH 588 0
DWIDTH 19 0
BBX 19 21 0 0
BITMAP
038000
01C000
00E000
007000
000000
000000
380700
380700
380700
380700
380700
380700
380700
380700
380700
380700
1C0700
1E0F00
1FFF00
0FFF00
03F700
ENDCHAR
STARTCHAR U+00FA
ENCODING 250
SWIDTH 588 0
DWIDTH 19 0
BBX 19 21 0 0
BITMAP
003C00
007800
007000
00E000
000000
000000
380700
380700
380700
380700
380700
380700
380700
380700
380700
380700
1C0700
1E0F00
1FFF00
0FFF00
03F700
ENDCHAR
STARTCHAR U+00FB
ENCODING 251
SWIDTH 588 0
DWIDTH 19 0
BBX 19 21 0 0
BITMAP
00F000
01F000
039800
070C00
000000
000000
380700
380700
380700
380700
380700
380700
380700
380700
380700
380700
1C0700
1E0F00
1FFF00
0FFF00
03F700
ENDCHAR
STARTCHAR U+00FC
ENCODING 252
SWIDTH 588 0
DWIDTH 19 0
BBX 19 21 0 0
BITMAP
041000
0E3C00
0F3C00
041000
000000
000000
380700
380700
380700
380700
380700
380700
380700
380700
380700
380700
1C0700
1E0F00
1FFF00
0FFF00
03F700
ENDCHAR
STARTCHAR U+00FD
ENCODING 253
SWIDTH 526 0
DWIDTH 17 0
BBX 17 27 0 -6
BITMAP
007800
00F000
00E000
01C000
000000
000000
700700
700F00
380E00
380E00
3C1C00
1C1C00
1C1C00
0E3800
0E3800
077000
077000
077000
03E000
03E000
01C000
01C000
01C000
038000
1F8000
1F0000
1C0000
ENDCHAR
STARTCHAR U+00FE
ENCODING 254
SWIDTH 588 0
DWIDTH 19 0
BBX 19 27 0 -6
BITMAP
380000
380000
380000
380000
380000
380000
39F000
3FFC00
3FFE00
3E1F00
380780
380380
380380
380380
380380
380380
380780
3E1F00
3FFE00
3FFC00
39F000
380000
380000
380000
380000
380000
380000
ENDCHAR
STARTCHAR U+00FF
ENCODING 255
SWIDTH 526 0
DWIDTH 17 0
BBX 17 27 0 -6
BITMAP
082000
1C7800
1E7800
082000
000000
000000
700700
700F00
380E00
380E00
3C1C00
1C1C00
1C1C00
0E3800
0E3800
077000
077000
077000
03E000
03E000
01C000
01C000
01C000
038000
1F8000
1F0000
1C0000
ENDCHAR
STARTCHAR U+2013
ENCODING 8211
SWIDTH 495 0
DWIDTH 16 0
BBX 17 10 -1 0
BITMAP
FFFF00
FFFF00
FFFF00
000000
000000
000000
000000
000000
000000
000000
ENDCHAR
STARTCHAR U+2014
ENCODING 8212
SWIDTH 960 0
DWIDTH 31 0
BBX 33 10 -1 0
BITMAP
FFFFFFFE00
FFFFFFFE00
FFFFFFFE00
0000000000
0000000000
0000000000
0000000000
0000000000
0000000000
0000000000
ENDCHAR
STARTCHAR U+2018
ENCODING 8216
SWIDTH 248 0
DWIDTH 8 0
BBX 8 21 0 0
BITMAP
08
18
18
38
3C
3C
18
00
00
00
00
00
00
00
00
00
00
00
00
00
00
ENDCHAR
STARTCHAR U+2019
ENCODING 8217
SWIDTH 248 0
DWIDTH 8 0
BBX 8 21 0 0
BITMAP
10
38
3C
1C
18
10
20
00
00
00
00
00
00
00
00
00
00
00
00
00
00
ENDCHAR
STARTCHAR U+201C
ENCODING 8220
SWIDTH 403 0
DWIDTH 13 0
BBX 13 21 0 0
BITMAP
0840
18C0
1980
39C0
3DE0
3DC0
1880
0000
0000
0000
0000
0000
0000
0000
0000
0000
0000
0000
0000
0000
0000
ENDCHAR
STARTCHAR U+201D
ENCODING 8221
SWIDTH 403 0
DWIDTH 13 0
BBX 13 21 0 0
BITMAP
1080
39C0
3DE0
1CE0
18C0
1080
2100
0000
0000
0000
0000
0000
0000
0000
0000
0000
0000
0000
0000
0000
0000
ENDCHAR
STARTCHAR U+2022
ENCODING 8226
SWIDTH 403 0
DWIDTH 13 0
BBX 13 14 0 0
BITMAP
0200
0700
0F80
1FC0
1FC0
0F80
0700
0200
0000
0000
0000
0000
0000
0000
ENDCHAR
STARTCHAR U+2026
ENCODING 8230
SWIDTH 867 0
DWIDTH 28 0
BBX 28 4 0 0
BITMAP
180600C0
3C0F01E0
380E01C0
10040080
ENDCHAR
STARTCHAR U+20AC
ENCODING 8364
SWIDTH 619 0
DWIDTH 20 0
BBX 20 21 0 0
BITMAP
007E00
01FF80
03FFC0
07C1C0
0F0040
1E0000
1C0000
7FFC00
7FFC00
3C0000
3C0000
7FF800
7FF800
1C0000
1E0000
0E0000
0F0000
07C0C0
03FFC0
01FFC0
007F00
ENDCHAR
ENDFONT
