STARTFONT 2.1
COMMENT Converted from Johnston100 W03 Regular.ttf at 25px with ttf2bdf.py (Pillow, 1-bit, no AA)
FONT -Misc-Johnston100-Medium-R-Normal--25-250-75-75-P-270-ISO10646-1
SIZE 25 75 75
FONTBOUNDINGBOX 27 30 -1 -7
STARTPROPERTIES 9
FOUNDRY "Misc"
FAMILY_NAME "Johnston100"
WEIGHT_NAME "Medium"
SLANT "R"
PIXEL_SIZE 25
RESOLUTION_X 75
RESOLUTION_Y 75
FONT_ASCENT 23
FONT_DESCENT 7
ENDPROPERTIES
CHARS 200
STARTCHAR space
ENCODING 32
SWIDTH 269 0
DWIDTH 7 0
BBX 7 30 0 -7
BITMAP
00
00
00
00
00
00
00
00
00
00
00
00
00
00
00
00
00
00
00
00
00
00
00
00
00
00
00
00
00
00
ENDCHAR
STARTCHAR !
ENCODING 33
SWIDTH 269 0
DWIDTH 7 0
BBX 7 17 0 0
BITMAP
38
38
38
38
38
38
38
38
18
18
18
10
10
00
10
38
10
ENDCHAR
STARTCHAR "
ENCODING 34
SWIDTH 384 0
DWIDTH 10 0
BBX 10 17 0 0
BITMAP
3380
3380
3380
3300
3100
3100
0000
0000
0000
0000
0000
0000
0000
0000
0000
0000
0000
ENDCHAR
STARTCHAR U+0023
ENCODING 35
SWIDTH 730 0
DWIDTH 19 0
BBX 19 17 0 0
BITMAP
004300
00C600
018600
018600
018600
1FFFC0
3FFFC0
030C00
031800
061800
7FFF80
7FFF00
0C3000
0C3000
0C3000
0C6000
184000
ENDCHAR
STARTCHAR $
ENCODING 36
SWIDTH 499 0
DWIDTH 13 0
BBX 13 21 0 -2
BITMAP
0600
0600
1F80
3FC0
30C0
3000
3000
3C00
3E00
1F80
07C0
01E0
00E0
0070
0070
6060
70E0
3FC0
1F80
0600
0600
ENDCHAR
STARTCHAR %
ENCODING 37
SWIDTH 730 0
DWIDTH 19 0
BBX 19 17 0 0
BITMAP
1E0C00
3F0C00
731800
619800
733000
3F3000
1E6000
006000
00C000
00C000
018F00
019F80
033180
033180
063180
061F80
0C0F00
ENDCHAR
STARTCHAR &
ENCODING 38
SWIDTH 653 0
DWIDTH 17 0
BBX 17 17 0 0
BITMAP
07C000
0FE000
1C6000
187000
1C7000
1CE000
0FE000
07C000
1F8600
3FC600
39EE00
70FC00
707800
703800
38FC00
3FEE00
0F8700
ENDCHAR
STARTCHAR '
ENCODING 39
SWIDTH 230 0
DWIDTH 6 0
BBX 6 17 0 0
BITMAP
30
30
30
30
30
30
00
00
00
00
00
00
00
00
00
00
00
ENDCHAR
STARTCHAR (
ENCODING 40
SWIDTH 269 0
DWIDTH 7 0
BBX 7 20 0 -2
BITMAP
1C
18
18
38
30
30
30
30
70
70
70
70
30
30
30
30
38
18
18
1C
ENDCHAR
STARTCHAR )
ENCODING 41
SWIDTH 269 0
DWIDTH 7 0
BBX 7 20 0 -2
BITMAP
60
70
30
30
38
38
18
18
18
18
18
18
18
18
38
38
30
30
70
60
ENDCHAR
STARTCHAR *
ENCODING 42
SWIDTH 384 0
DWIDTH 10 0
BBX 10 17 0 0
BITMAP
0C00
4C80
7D80
3F00
0E00
3F00
6D80
4C80
0C00
0000
0000
0000
0000
0000
0000
0000
0000
ENDCHAR
STARTCHAR +
ENCODING 43
SWIDTH 499 0
DWIDTH 13 0
BBX 13 13 0 0
BITMAP
0300
0300
0300
0300
3FF0
3FF0
0300
0300
0300
0300
0000
0000
0000
ENDCHAR
STARTCHAR ,
ENCODING 44
SWIDTH 230 0
DWIDTH 6 0
BBX 6 7 0 -3
BITMAP
30
70
30
10
20
00
00
ENDCHAR
STARTCHAR -
ENCODING 45
SWIDTH 384 0
DWIDTH 10 0
BBX 10 8 0 0
BITMAP
7F80
7F80
0000
0000
0000
0000
0000
0000
ENDCHAR
STARTCHAR .
ENCODING 46
SWIDTH 230 0
DWIDTH 6 0
BBX 6 3 0 0
BITMAP
30
38
10
ENDCHAR
STARTCHAR /
ENCODING 47
SWIDTH 307 0
DWIDTH 8 0
BBX 9 20 0 -2
BITMAP
0300
0700
0600
0600
0600
0C00
0C00
0C00
1C00
1800
1800
3800
3000
3000
3000
7000
6000
6000
E000
C000
ENDCHAR
STARTCHAR 0
ENCODING 48
SWIDTH 576 0
DWIDTH 15 0
BBX 15 17 0 0
BITMAP
03C0
0FE0
1C70
1C30
1838
3818
3818
3818
3818
3818
3818
3818
1838
1C30
1C70
0FE0
03C0
ENDCHAR
STARTCHAR 1
ENCODING 49
SWIDTH 269 0
DWIDTH 7 0
BBX 7 17 0 0
BITMAP
08
18
38
38
38
38
38
38
38
38
38
38
38
38
38
38
38
ENDCHAR
STARTCHAR 2
ENCODING 50
SWIDTH 461 0
DWIDTH 12 0
BBX 12 17 0 0
BITMAP
0F80
1FC0
30E0
20E0
6060
0060
00E0
00E0
01C0
0380
0380
0700
0F00
0E00
1C00
3FF0
3FF0
ENDCHAR
STARTCHAR 3
ENCODING 51
SWIDTH 499 0
DWIDTH 13 0
BBX 13 17 0 0
BITMAP
7FF0
7FE0
01C0
01C0
0380
0700
0780
0FC0
00E0
0070
0070
0070
0070
2070
70E0
3FC0
1F00
ENDCHAR
STARTCHAR 4
ENCODING 52
SWIDTH 538 0
DWIDTH 14 0
BBX 14 17 0 0
BITMAP
0000
0020
0060
00E0
01E0
03E0
0760
0660
0C60
1C60
3860
7FF8
FFF8
0060
0060
0060
0060
ENDCHAR
STARTCHAR 5
ENCODING 53
SWIDTH 499 0
DWIDTH 13 0
BBX 13 17 0 0
BITMAP
1FF0
1FE0
1C00
1C00
1800
1800
1F80
1FC0
20E0
0070
0070
0070
0070
2070
70E0
3FC0
1F80
ENDCHAR
STARTCHAR 6
ENCODING 54
SWIDTH 499 0
DWIDTH 13 0
BBX 13 17 0 0
BITMAP
0380
0700
0E00
0C00
1800
3800
3F80
3FE0
78E0
7070
7030
7030
7030
3070
38E0
1FC0
0F80
ENDCHAR
STARTCHAR 7
ENCODING 55
SWIDTH 461 0
DWIDTH 12 0
BBX 12 17 0 0
BITMAP
7FE0
7FE0
00C0
01C0
01C0
0380
0380
0700
0700
0600
0E00
0C00
1C00
1C00
3800
3800
7000
ENDCHAR
STARTCHAR 8
ENCODING 56
SWIDTH 499 0
DWIDTH 13 0
BBX 13 17 0 0
BITMAP
0F80
1FC0
18E0
3860
3860
38E0
1FC0
0F80
0FC0
3DE0
3870
7070
7030
7070
38E0
1FE0
0F80
ENDCHAR
STARTCHAR 9
ENCODING 57
SWIDTH 499 0
DWIDTH 13 0
BBX 13 17 0 0
BITMAP
0F80
1FE0
38E0
3070
7030
7030
7030
7030
3870
1FF0
0FE0
00E0
00C0
01C0
0380
0700
0E00
ENDCHAR
STARTCHAR :
ENCODING 58
SWIDTH 269 0
DWIDTH 7 0
BBX 7 12 0 0
BITMAP
18
1C
08
00
00
00
00
00
00
18
1C
08
ENDCHAR
STARTCHAR ;
ENCODING 59
SWIDTH 269 0
DWIDTH 7 0
BBX 7 15 0 -3
BITMAP
18
1C
08
00
00
00
00
00
00
18
38
18
08
10
00
ENDCHAR
STARTCHAR U+003C
ENCODING 60
SWIDTH 499 0
DWIDTH 13 0
BBX 13 15 0 0
BITMAP
0030
00F0
03F0
07C0
1F00
3C00
3C00
1F00
07C0
03F0
00F0
0030
0000
0000
0000
ENDCHAR
STARTCHAR =
ENCODING 61
SWIDTH 499 0
DWIDTH 13 0
BBX 13 12 0 0
BITMAP
3FF0
3FF0
0000
0000
0000
0000
3FF0
3FF0
0000
0000
0000
0000
ENDCHAR
STARTCHAR U+003E
ENCODING 62
SWIDTH 499 0
DWIDTH 13 0
BBX 13 15 0 0
BITMAP
2000
3800
3E00
1F80
07E0
00F0
00F0
07E0
1F80
3E00
3800
2000
0000
0000
0000
ENDCHAR
STARTCHAR ?
ENCODING 63
SWIDTH 422 0
DWIDTH 11 0
BBX 11 17 0 0
BITMAP
1F00
7F80
71C0
41C0
01C0
01C0
0380
0F00
1C00
1C00
1E00
0C00
0000
0400
0E00
0C00
0400
ENDCHAR
STARTCHAR @
ENCODING 64
SWIDTH 922 0
DWIDTH 24 0
BBX 24 22 0 -5
BITMAP
007F00
01FFC0
07C0F0
0E0038
0C0018
183E8C
387F8C
30E18C
31C186
318386
718306
61830E
71830C
31830C
31C718
30FFF8
3879E0
1C0000
0E0000
078180
03FF80
00FE00
ENDCHAR
STARTCHAR A
ENCODING 65
SWIDTH 653 0
DWIDTH 17 0
BBX 17 17 0 0
BITMAP
01C000
01C000
03C000
03E000
076000
077000
067000
0E3000
0E3800
1C1800
1C1C00
1FFC00
3FFE00
380E00
700600
700700
600700
ENDCHAR
STARTCHAR B
ENCODING 66
SWIDTH 576 0
DWIDTH 15 0
BBX 15 17 0 0
BITMAP
3FC0
3FE0
3870
3870
3870
3870
3870
3FE0
3FF0
3838
381C
381C
381C
381C
3838
3FF0
3FE0
ENDCHAR
STARTCHAR C
ENCODING 67
SWIDTH 653 0
DWIDTH 17 0
BBX 17 17 0 0
BITMAP
01F800
07FE00
0F0700
1C0100
380000
380000
300000
700000
700000
700000
300000
380000
380000
1C0100
0F0700
07FE00
01F800
ENDCHAR
STARTCHAR D
ENCODING 68
SWIDTH 691 0
DWIDTH 18 0
BBX 18 17 0 0
BITMAP
3FE000
3FF800
383C00
380E00
380700
380300
380380
380380
380380
380380
380380
380300
380700
380E00
383C00
3FF800
3FE000
ENDCHAR
STARTCHAR E
ENCODING 69
SWIDTH 538 0
DWIDTH 14 0
BBX 14 17 0 0
BITMAP
3FF8
3FF8
3800
3800
3800
3800
3800
3FE0
3FE0
3800
3800
3800
3800
3800
3800
3FF8
3FF8
ENDCHAR
STARTCHAR F
ENCODING 70
SWIDTH 499 0
DWIDTH 13 0
BBX 13 17 0 0
BITMAP
3FF8
3FF8
3800
3800
3800
3800
3800
3FE0
3FE0
3800
3800
3800
3800
3800
3800
3800
3800
ENDCHAR
STARTCHAR G
ENCODING 71
SWIDTH 691 0
DWIDTH 18 0
BBX 18 17 0 0
BITMAP
01FC00
07FF00
0F0700
1C0100
380000
380000
300000
703F80
703F80
700380
300380
380380
380380
1C0380
0F0780
07FF00
01F800
ENDCHAR
STARTCHAR H
ENCODING 72
SWIDTH 691 0
DWIDTH 18 0
BBX 18 17 0 0
BITMAP
380700
380700
380700
380700
380700
380700
380700
3FFF00
3FFF00
380700
380700
380700
380700
380700
380700
380700
380700
ENDCHAR
STARTCHAR I
ENCODING 73
SWIDTH 269 0
DWIDTH 7 0
BBX 7 17 0 0
BITMAP
38
38
38
38
38
38
38
38
38
38
38
38
38
38
38
38
38
ENDCHAR
STARTCHAR J
ENCODING 74
SWIDTH 461 0
DWIDTH 12 0
BBX 12 17 0 0
BITMAP
01C0
01C0
01C0
01C0
01C0
01C0
01C0
01C0
01C0
01C0
01C0
01C0
01C0
21C0
7380
7F80
1E00
ENDCHAR
STARTCHAR K
ENCODING 75
SWIDTH 614 0
DWIDTH 16 0
BBX 16 17 0 0
BITMAP
381E
383C
3870
38E0
39C0
3B80
3F00
3E00
3F00
3B80
3BC0
39E0
38F0
3870
3838
381C
380E
ENDCHAR
STARTCHAR L
ENCODING 76
SWIDTH 538 0
DWIDTH 14 0
BBX 14 17 0 0
BITMAP
3800
3800
3800
3800
3800
3800
3800
3800
3800
3800
3800
3800
3800
3800
3800
3FF8
3FF8
ENDCHAR
STARTCHAR M
ENCODING 77
SWIDTH 845 0
DWIDTH 22 0
BBX 22 17 0 0
BITMAP
3800E0
3C01E0
3E01E0
3F03E0
3F8760
3B8E60
39DE60
38FC60
387860
383060
382060
380060
380060
380060
380060
380060
380060
ENDCHAR
STARTCHAR N
ENCODING 78
SWIDTH 730 0
DWIDTH 19 0
BBX 19 17 0 0
BITMAP
380180
3C0180
3E0180
3E0180
3F0180
3B8180
39C180
39C180
38E180
387180
383980
383D80
381D80
380F80
380780
380380
380380
ENDCHAR
STARTCHAR O
ENCODING 79
SWIDTH 806 0
DWIDTH 21 0
BBX 21 17 0 0
BITMAP
01F800
07FE00
0F0780
1C0380
3801C0
3800E0
3000E0
7000E0
700060
7000E0
3000E0
3800E0
3801C0
1C0380
0F0780
07FE00
01F800
ENDCHAR
STARTCHAR P
ENCODING 80
SWIDTH 576 0
DWIDTH 15 0
BBX 15 17 0 0
BITMAP
3FE0
3FF0
3838
3818
381C
381C
3818
3838
3FF0
3FC0
3800
3800
3800
3800
3800
3800
3800
ENDCHAR
STARTCHAR Q
ENCODING 81
SWIDTH 806 0
DWIDTH 21 0
BBX 21 17 0 0
BITMAP
01F800
07FE00
0F0780
1C0380
3801C0
3800E0
3000E0
7000E0
700060
7000E0
3000E0
3804E0
380FC0
1C0780
0F07C0
07FFE0
01F8C0
ENDCHAR
STARTCHAR R
ENCODING 82
SWIDTH 576 0
DWIDTH 15 0
BBX 16 17 0 0
BITMAP
3FC0
3FE0
3870
3830
3838
3830
3870
3FF0
3FC0
39C0
39E0
38E0
3870
3878
3838
381C
380E
ENDCHAR
STARTCHAR S
ENCODING 83
SWIDTH 499 0
DWIDTH 13 0
BBX 13 17 0 0
BITMAP
0F80
3FC0
3880
3000
7000
3800
3E00
1F80
07C0
01E0
00E0
0070
2070
6060
70E0
3FC0
0F00
ENDCHAR
STARTCHAR T
ENCODING 84
SWIDTH 538 0
DWIDTH 14 0
BBX 14 17 0 0
BITMAP
7FFC
7FFC
0380
0380
0380
0380
0380
0380
0380
0380
0380
0380
0380
0380
0380
0380
0380
ENDCHAR
STARTCHAR U
ENCODING 85
SWIDTH 730 0
DWIDTH 19 0
BBX 19 17 0 0
BITMAP
380180
380180
380180
380180
380180
380180
380180
380180
380180
380180
380180
380380
180380
1C0700
0E0E00
07FC00
01F000
ENDCHAR
STARTCHAR V
ENCODING 86
SWIDTH 614 0
DWIDTH 16 0
BBX 16 17 0 0
BITMAP
6006
700E
700E
380C
381C
181C
1C18
1C38
0C30
0E30
0E70
0660
07E0
03E0
03C0
03C0
0180
ENDCHAR
STARTCHAR W
ENCODING 87
SWIDTH 922 0
DWIDTH 24 0
BBX 24 17 0 0
BITMAP
701C06
701C06
303C0E
383E0E
383E0C
18761C
18771C
1C6718
1C6318
0CE338
0EC3B8
0EC3B0
07C1B0
0781F0
0781E0
0780E0
0380E0
ENDCHAR
STARTCHAR X
ENCODING 88
SWIDTH 653 0
DWIDTH 17 0
BBX 17 17 0 0
BITMAP
700E00
380E00
1C1C00
1C3800
0E3800
077000
03E000
03C000
03C000
03E000
077000
0E7800
0E3800
1C1C00
380E00
700700
700700
ENDCHAR
STARTCHAR Y
ENCODING 89
SWIDTH 576 0
DWIDTH 15 0
BBX 15 17 0 0
BITMAP
700C
701C
3838
1830
1C70
0E60
06E0
07C0
0380
0380
0380
0380
0380
0380
0380
0380
0380
ENDCHAR
STARTCHAR Z
ENCODING 90
SWIDTH 614 0
DWIDTH 16 0
BBX 16 17 0 0
BITMAP
7FFE
7FFC
0038
0038
0070
00E0
00E0
01C0
0380
0380
0700
0E00
0E00
1C00
3800
3FFE
7FFE
ENDCHAR
STARTCHAR [
ENCODING 91
SWIDTH 307 0
DWIDTH 8 0
BBX 8 23 0 -3
BITMAP
3E
3E
30
30
30
30
30
30
30
30
30
30
30
30
30
30
30
30
30
30
30
3E
3E
ENDCHAR
STARTCHAR \
ENCODING 92
SWIDTH 307 0
DWIDTH 8 0
BBX 9 20 0 -2
BITMAP
C000
E000
6000
6000
7000
3000
3000
3000
1800
1800
1800
1C00
0C00
0C00
0C00
0600
0600
0600
0700
0300
ENDCHAR
STARTCHAR ]
ENCODING 93
SWIDTH 307 0
DWIDTH 8 0
BBX 8 23 0 -3
BITMAP
7C
7C
0C
0C
0C
0C
0C
0C
0C
0C
0C
0C
0C
0C
0C
0C
0C
0C
0C
0C
0C
7C
7C
ENDCHAR
STARTCHAR ^
ENCODING 94
SWIDTH 538 0
DWIDTH 14 0
BBX 14 17 0 0
BITMAP
0380
0780
0EC0
0CE0
1860
3830
3038
0000
0000
0000
0000
0000
0000
0000
0000
0000
0000
ENDCHAR
STARTCHAR _
ENCODING 95
SWIDTH 499 0
DWIDTH 13 0
BBX 14 3 -1 -3
BITMAP
0000
0000
FFF8
ENDCHAR
STARTCHAR `
ENCODING 96
SWIDTH 422 0
DWIDTH 11 0
BBX 12 17 0 0
BITMAP
FFE0
FFE0
C060
C060
C060
C060
C060
C060
C060
C060
C060
C060
C060
C060
C060
FFE0
FFE0
ENDCHAR
STARTCHAR a
ENCODING 97
SWIDTH 499 0
DWIDTH 13 0
BBX 13 12 0 0
BITMAP
3F80
3FC0
20E0
0060
07E0
1FE0
3860
7060
7060
70E0
3FE0
1E60
ENDCHAR
STARTCHAR b
ENCODING 98
SWIDTH 576 0
DWIDTH 15 0
BBX 15 17 0 0
BITMAP
3000
3000
3000
3000
3000
33C0
3FF0
3878
3018
301C
301C
301C
301C
3018
3878
3FF0
37C0
ENDCHAR
STARTCHAR c
ENCODING 99
SWIDTH 499 0
DWIDTH 13 0
BBX 13 12 0 0
BITMAP
07F0
1FF0
3C30
3800
7000
7000
7000
7000
3800
3C30
1FF0
07F0
ENDCHAR
STARTCHAR d
ENCODING 100
SWIDTH 576 0
DWIDTH 15 0
BBX 15 17 0 0
BITMAP
0018
0018
0018
0018
0018
07D8
1FF8
3C38
3818
7018
7018
7018
7018
3018
3C38
1FF8
07D8
ENDCHAR
STARTCHAR e
ENCODING 101
SWIDTH 538 0
DWIDTH 14 0
BBX 14 12 0 0
BITMAP
07C0
1FE0
3870
3030
7030
7FF8
7FF8
7000
3000
3810
1FF0
07F0
ENDCHAR
STARTCHAR f
ENCODING 102
SWIDTH 384 0
DWIDTH 10 0
BBX 10 17 0 0
BITMAP
0780
1F80
1C00
1800
3800
FF80
FF80
3800
3800
3800
3800
3800
3800
3800
3800
3800
3800
ENDCHAR
STARTCHAR g
ENCODING 103
SWIDTH 499 0
DWIDTH 13 0
BBX 13 17 0 -5
BITMAP
0FF0
3FF0
70E0
7060
7060
30E0
3FC0
1F80
3000
3E00
1FC0
73E0
6070
6030
7070
7FE0
1FC0
ENDCHAR
STARTCHAR h
ENCODING 104
SWIDTH 576 0
DWIDTH 15 0
BBX 15 17 0 0
BITMAP
3000
3000
3000
3000
3000
33E0
3FF0
3C78
3038
3018
3018
3018
3018
3018
3018
3018
3018
ENDCHAR
STARTCHAR i
ENCODING 105
SWIDTH 230 0
DWIDTH 6 0
BBX 6 17 0 0
BITMAP
30
38
10
00
30
30
30
30
30
30
30
30
30
30
30
30
00
ENDCHAR
STARTCHAR j
ENCODING 106
SWIDTH 230 0
DWIDTH 6 0
BBX 7 21 -1 -5
BITMAP
10
38
10
00
30
30
30
30
30
30
30
30
30
30
30
30
30
30
30
F0
E0
ENDCHAR
STARTCHAR k
ENCODING 107
SWIDTH 499 0
DWIDTH 13 0
BBX 14 17 0 0
BITMAP
3000
3000
3000
3000
3000
3070
30E0
31C0
3380
3F00
3E00
3700
3380
31C0
30E0
30F0
3078
ENDCHAR
STARTCHAR l
ENCODING 108
SWIDTH 307 0
DWIDTH 8 0
BBX 8 17 0 0
BITMAP
30
30
30
30
30
30
30
30
30
30
30
30
30
30
38
3F
1F
ENDCHAR
STARTCHAR m
ENCODING 109
SWIDTH 883 0
DWIDTH 23 0
BBX 23 12 0 0
BITMAP
37C7E0
3FFFF0
387C38
303818
303818
303818
303818
303818
303818
303818
303818
303818
ENDCHAR
STARTCHAR n
ENCODING 110
SWIDTH 576 0
DWIDTH 15 0
BBX 15 12 0 0
BITMAP
33E0
3FF0
3C78
3038
3018
3018
3018
3018
3018
3018
3018
3018
ENDCHAR
STARTCHAR o
ENCODING 111
SWIDTH 576 0
DWIDTH 15 0
BBX 15 12 0 0
BITMAP
07C0
1FF0
3C38
301C
701C
700C
700C
701C
3018
3C38
1FF0
07C0
ENDCHAR
STARTCHAR p
ENCODING 112
SWIDTH 576 0
DWIDTH 15 0
BBX 15 17 0 -5
BITMAP
37C0
3FF0
3878
3018
301C
301C
301C
301C
3018
3878
3FF0
37C0
3000
3000
3000
3000
3000
ENDCHAR
STARTCHAR q
ENCODING 113
SWIDTH 576 0
DWIDTH 15 0
BBX 15 17 0 -5
BITMAP
07D8
1FF8
3C38
3018
7018
7018
7018
7018
3018
3C38
1FF8
07D8
0018
0018
0018
0018
0018
ENDCHAR
STARTCHAR r
ENCODING 114
SWIDTH 384 0
DWIDTH 10 0
BBX 10 12 0 0
BITMAP
37C0
3FC0
3800
3000
3000
3000
3000
3000
3000
3000
3000
3000
ENDCHAR
STARTCHAR s
ENCODING 115
SWIDTH 461 0
DWIDTH 12 0
BBX 12 12 0 0
BITMAP
1FC0
3FC0
7040
7000
7800
3F80
0FC0
00E0
00E0
60E0
7FC0
7F80
ENDCHAR
STARTCHAR t
ENCODING 116
SWIDTH 384 0
DWIDTH 10 0
BBX 10 15 0 0
BITMAP
3800
3800
3800
FFC0
FFC0
3800
3800
3800
3800
3800
3800
3800
1800
1FC0
0FC0
ENDCHAR
STARTCHAR u
ENCODING 117
SWIDTH 576 0
DWIDTH 15 0
BBX 15 12 0 0
BITMAP
3018
3018
3018
3018
3018
3018
3018
3018
3818
3C38
1FF8
0F98
ENDCHAR
STARTCHAR v
ENCODING 118
SWIDTH 538 0
DWIDTH 14 0
BBX 14 12 0 0
BITMAP
6038
7038
7070
3070
3860
18E0
1CC0
0DC0
0F80
0780
0780
0700
ENDCHAR
STARTCHAR w
ENCODING 119
SWIDTH 806 0
DWIDTH 21 0
BBX 21 12 0 0
BITMAP
607038
707030
307870
30F870
38DC60
18CC60
19CCE0
1D8EC0
0F86C0
0F07C0
0F0380
070380
ENDCHAR
STARTCHAR x
ENCODING 120
SWIDTH 499 0
DWIDTH 13 0
BBX 13 12 0 0
BITMAP
7070
38E0
19C0
1D80
0F00
0700
0F80
0D80
19C0
38E0
7070
E030
ENDCHAR
STARTCHAR y
ENCODING 121
SWIDTH 538 0
DWIDTH 14 0
BBX 14 17 0 -5
BITMAP
6038
7038
7030
3070
3860
18E0
1CE0
0CC0
0DC0
0F80
0780
0700
0300
0700
0600
3E00
3800
ENDCHAR
STARTCHAR z
ENCODING 122
SWIDTH 461 0
DWIDTH 12 0
BBX 12 12 0 0
BITMAP
7FE0
7FC0
01C0
0380
0700
0700
0E00
1C00
1C00
3800
3FE0
7FE0
ENDCHAR
STARTCHAR {
ENCODING 123
SWIDTH 346 0
DWIDTH 9 0
BBX 9 23 0 -4
BITMAP
0700
0F00
0C00
1C00
1C00
1C00
1C00
1C00
1800
3800
7000
7000
3800
1800
1C00
1C00
1C00
1C00
1C00
1C00
0C00
0F00
0700
ENDCHAR
STARTCHAR |
ENCODING 124
SWIDTH 230 0
DWIDTH 6 0
BBX 6 25 0 -6
BITMAP
30
30
30
30
30
30
30
30
30
30
30
30
30
30
30
30
30
30
30
30
30
30
30
30
30
ENDCHAR
STARTCHAR }
ENCODING 125
SWIDTH 346 0
DWIDTH 9 0
BBX 9 23 0 -4
BITMAP
7000
7800
1800
1C00
1C00
1C00
1C00
1C00
1C00
0E00
0700
0700
0E00
0C00
1C00
1C00
1C00
1C00
1C00
1C00
1800
7800
7000
ENDCHAR
STARTCHAR ~
ENCODING 126
SWIDTH 538 0
DWIDTH 14 0
BBX 14 11 0 0
BITMAP
1C30
3F30
33E0
61E0
0000
0000
0000
0000
0000
0000
0000
ENDCHAR
STARTCHAR U+00A0
ENCODING 160
SWIDTH 269 0
DWIDTH 7 0
BBX 7 30 0 -7
BITMAP
00
00
00
00
00
00
00
00
00
00
00
00
00
00
00
00
00
00
00
00
00
00
00
00
00
00
00
00
00
00
ENDCHAR
STARTCHAR U+00A1
ENCODING 161
SWIDTH 269 0
DWIDTH 7 0
BBX 7 18 0 -5
BITMAP
10
38
10
00
10
10
18
18
38
38
38
38
38
38
38
38
38
00
ENDCHAR
STARTCHAR U+00A2
ENCODING 162
SWIDTH 499 0
DWIDTH 13 0
BBX 13 16 0 -2
BITMAP
0380
0380
07F0
1FF0
3C30
3800
7000
7000
7000
7000
3800
3C30
1FF0
07F0
0380
0380
ENDCHAR
STARTCHAR U+00A3
ENCODING 163
SWIDTH 499 0
DWIDTH 13 0
BBX 13 17 0 0
BITMAP
03E0
07F0
0E20
0C00
0C00
0C00
0C00
1C00
3FC0
3F80
1C00
1C00
1800
1800
3800
3FF0
7FF0
ENDCHAR
STARTCHAR U+00A4
ENCODING 164
SWIDTH 576 0
DWIDTH 15 0
BBX 15 13 0 0
BITMAP
1008
301C
3FF8
1FF0
1C70
1838
3838
1838
1C70
1FF0
3FF8
301C
1008
ENDCHAR
STARTCHAR U+00A5
ENCODING 165
SWIDTH 614 0
DWIDTH 16 0
BBX 16 17 0 0
BITMAP
700E
301C
3818
1C38
1C70
0E60
3EFC
3FFC
03C0
0180
3FFC
3FFC
0180
0180
0180
0180
0180
ENDCHAR
STARTCHAR U+00A6
ENCODING 166
SWIDTH 230 0
DWIDTH 6 0
BBX 6 25 0 -6
BITMAP
30
30
30
30
30
30
30
30
30
30
00
00
00
00
00
30
30
30
30
30
30
30
30
30
30
ENDCHAR
STARTCHAR U+00A7
ENCODING 167
SWIDTH 461 0
DWIDTH 12 0
BBX 12 22 0 -5
BITMAP
1F00
3FC0
71C0
70C0
7000
7000
3C00
1F80
3FC0
71E0
6060
6060
78E0
3FC0
1F80
03C0
00E0
00E0
20E0
70E0
3FC0
1F00
ENDCHAR
STARTCHAR U+00A8
ENCODING 168
SWIDTH 422 0
DWIDTH 11 0
BBX 12 17 0 0
BITMAP
FFE0
FFE0
C060
C060
C060
C060
C060
C060
C060
C060
C060
C060
C060
C060
C060
FFE0
FFE0
ENDCHAR
STARTCHAR U+00A9
ENCODING 169
SWIDTH 768 0
DWIDTH 20 0
BBX 20 17 0 0
BITMAP
01F800
060600
0C0300
10F880
33FCC0
238440
260040
660060
660060
660060
270040
238440
33FCC0
18F880
0C0300
060600
01F800
ENDCHAR
STARTCHAR U+00AA
ENCODING 170
SWIDTH 307 0
DWIDTH 8 0
BBX 8 17 0 0
BITMAP
7C
7E
06
3E
66
66
7E
00
00
00
00
00
00
00
00
00
00
ENDCHAR
STARTCHAR U+00AB
ENCODING 171
SWIDTH 538 0
DWIDTH 14 0
BBX 14 12 0 0
BITMAP
0630
0E70
1CE0
39C0
3180
7380
39C0
1CE0
0C60
0630
0000
0000
ENDCHAR
STARTCHAR U+00AC
ENCODING 172
SWIDTH 499 0
DWIDTH 13 0
BBX 13 12 0 0
BITMAP
3FF0
3FF0
0030
0030
0030
0030
0030
0000
0000
0000
0000
0000
ENDCHAR
STARTCHAR U+00AD
ENCODING 173
SWIDTH 384 0
DWIDTH 10 0
BBX 10 8 0 0
BITMAP
7F80
7F80
0000
0000
0000
0000
0000
0000
ENDCHAR
STARTCHAR U+00AE
ENCODING 174
SWIDTH 768 0
DWIDTH 20 0
BBX 20 17 0 0
BITMAP
01F800
060600
0C0100
100080
31F0C0
21F840
219C40
619860
61F060
61B060
219840
219C40
318CC0
180080
0C0300
060600
01F800
ENDCHAR
STARTCHAR U+00AF
ENCODING 175
SWIDTH 422 0
DWIDTH 11 0
BBX 12 17 0 0
BITMAP
FFE0
FFE0
C060
C060
C060
C060
C060
C060
C060
C060
C060
C060
C060
C060
C060
FFE0
FFE0
ENDCHAR
STARTCHAR U+00B0
ENCODING 176
SWIDTH 384 0
DWIDTH 10 0
BBX 10 17 0 0
BITMAP
1E00
3F00
7300
6180
7300
3F00
1E00
0000
0000
0000
0000
0000
0000
0000
0000
0000
0000
ENDCHAR
STARTCHAR U+00B1
ENCODING 177
SWIDTH 499 0
DWIDTH 13 0
BBX 13 14 0 0
BITMAP
0300
0300
0300
0300
3FF0
3FF0
0300
0300
0300
0300
0000
0000
3FF0
3FF0
ENDCHAR
STARTCHAR U+00B2
ENCODING 178
SWIDTH 307 0
DWIDTH 8 0
BBX 8 17 0 0
BITMAP
3C
7E
46
06
06
0C
18
18
3E
7E
00
00
00
00
00
00
00
ENDCHAR
STARTCHAR U+00B3
ENCODING 179
SWIDTH 307 0
DWIDTH 8 0
BBX 8 17 0 0
BITMAP
7E
7E
0C
18
1E
06
03
46
7E
3C
00
00
00
00
00
00
00
ENDCHAR
STARTCHAR U+00B4
ENCODING 180
SWIDTH 422 0
DWIDTH 11 0
BBX 12 17 0 0
BITMAP
FFE0
FFE0
C060
C060
C060
C060
C060
C060
C060
C060
C060
C060
C060
C060
C060
FFE0
FFE0
ENDCHAR
STARTCHAR U+00B5
ENCODING 181
SWIDTH 576 0
DWIDTH 15 0
BBX 15 17 0 -5
BITMAP
3038
3038
3038
3038
3038
3038
3038
3038
3838
3C78
3FF8
37B8
3000
3000
3000
3000
3000
ENDCHAR
STARTCHAR U+00B6
ENCODING 182
SWIDTH 538 0
DWIDTH 14 0
BBX 14 22 0 -5
BITMAP
0FF8
3FF8
3F30
7F30
7F30
7F30
3F30
3F30
0F30
0330
0330
0330
0330
0330
0330
0330
0330
0330
0330
0330
0330
0330
ENDCHAR
STARTCHAR U+00B7
ENCODING 183
SWIDTH 230 0
DWIDTH 6 0
BBX 6 10 0 0
BITMAP
10
30
38
10
00
00
00
00
00
00
ENDCHAR
STARTCHAR U+00B8
ENCODING 184
SWIDTH 422 0
DWIDTH 11 0
BBX 12 17 0 0
BITMAP
FFE0
FFE0
C060
C060
C060
C060
C060
C060
C060
C060
C060
C060
C060
C060
C060
FFE0
FFE0
ENDCHAR
STARTCHAR U+00B9
ENCODING 185
SWIDTH 230 0
DWIDTH 6 0
BBX 6 17 0 0
BITMAP
10
30
30
30
30
30
30
30
30
30
00
00
00
00
00
00
00
ENDCHAR
STARTCHAR U+00BA
ENCODING 186
SWIDTH 384 0
DWIDTH 10 0
BBX 10 17 0 0
BITMAP
1E00
3F00
6380
6180
6180
6380
3F00
1E00
0000
0000
0000
0000
0000
0000
0000
0000
0000
ENDCHAR
STARTCHAR U+00BB
ENCODING 187
SWIDTH 538 0
DWIDTH 14 0
BBX 14 12 0 0
BITMAP
3180
38C0
1CE0
0C70
0638
0638
0E70
1C60
38C0
3180
0000
0000
ENDCHAR
STARTCHAR U+00BC
ENCODING 188
SWIDTH 768 0
DWIDTH 20 0
BBX 20 17 0 0
BITMAP
100600
300C00
300C00
301800
301800
303000
303000
306000
30E040
30C0C0
01C1C0
0183C0
0382C0
0304C0
060FE0
061FE0
0C00C0
ENDCHAR
STARTCHAR U+00BD
ENCODING 189
SWIDTH 806 0
DWIDTH 21 0
BBX 21 17 0 0
BITMAP
100600
300C00
300C00
301800
301800
303000
303000
3061E0
30E3F0
30C230
01C030
018030
038060
0300C0
0600C0
0601F0
0C03F0
ENDCHAR
STARTCHAR U+00BE
ENCODING 190
SWIDTH 845 0
DWIDTH 22 0
BBX 22 17 0 0
BITMAP
7E0180
7E0300
0C0300
180600
1E0600
060C00
030C00
461800
7E3810
3C3030
007070
0060F0
00E0B0
00C130
0183F8
0187F8
030030
ENDCHAR
STARTCHAR U+00BF
ENCODING 191
SWIDTH 422 0
DWIDTH 11 0
BBX 11 17 0 -5
BITMAP
0200
0700
0700
0200
0200
0700
0300
0300
0700
1E00
3C00
3800
7000
7040
38E0
3FC0
0F80
ENDCHAR
STARTCHAR U+00C0
ENCODING 192
SWIDTH 653 0
DWIDTH 17 0
BBX 17 22 0 0
BITMAP
070000
038000
018000
00C000
000000
01C000
01C000
03C000
03E000
076000
077000
067000
0E3000
0E3800
1C1800
1C1C00
1FFC00
3FFE00
380E00
700600
700700
600700
ENDCHAR
STARTCHAR U+00C1
ENCODING 193
SWIDTH 653 0
DWIDTH 17 0
BBX 17 22 0 0
BITMAP
007000
00E000
00C000
018000
000000
01C000
01C000
03C000
03E000
076000
077000
067000
0E3000
0E3800
1C1800
1C1C00
1FFC00
3FFE00
380E00
700600
700700
600700
ENDCHAR
STARTCHAR U+00C2
ENCODING 194
SWIDTH 653 0
DWIDTH 17 0
BBX 17 22 0 0
BITMAP
01C000
03E000
036000
063000
000000
01C000
01C000
03C000
03E000
076000
077000
067000
0E3000
0E3800
1C1800
1C1C00
1FFC00
3FFE00
380E00
700600
700700
600700
ENDCHAR
STARTCHAR U+00C3
ENCODING 195
SWIDTH 653 0
DWIDTH 17 0
BBX 17 21 0 0
BITMAP
071000
0FF000
00E000
000000
01C000
01C000
03C000
03E000
076000
077000
067000
0E3000
0E3800
1C1800
1C1C00
1FFC00
3FFE00
380E00
700600
700700
600700
ENDCHAR
STARTCHAR U+00C4
ENCODING 196
SWIDTH 653 0
DWIDTH 17 0
BBX 17 21 0 0
BITMAP
042000
0E7000
042000
000000
01C000
01C000
03C000
03E000
076000
077000
067000
0E3000
0E3800
1C1800
1C1C00
1FFC00
3FFE00
380E00
700600
700700
600700
ENDCHAR
STARTCHAR U+00C5
ENCODING 197
SWIDTH 653 0
DWIDTH 17 0
BBX 17 23 0 0
BITMAP
018000
024000
024000
024000
018000
000000
01C000
01C000
03C000
03E000
076000
077000
067000
0E3000
0E3800
1C1800
1C1C00
1FFC00
3FFE00
380E00
700600
700700
600700
ENDCHAR
STARTCHAR U+00C6
ENCODING 198
SWIDTH 883 0
DWIDTH 23 0
BBX 23 17 0 0
BITMAP
003FFC
007FFC
006C00
00EC00
01CC00
01CC00
038C00
038FF0
070FF0
070C00
0FFC00
1FFC00
1C0C00
380C00
380C00
700FFC
700FFC
ENDCHAR
STARTCHAR U+00C7
ENCODING 199
SWIDTH 653 0
DWIDTH 17 0
BBX 17 23 0 -6
BITMAP
01F800
07FE00
0F0700
1C0100
380000
380000
300000
700000
700000
700000
300000
380000
380000
1C0100
0F0700
07FE00
01F800
00C000
00F000
003000
003000
01F000
01E000
ENDCHAR
STARTCHAR U+00C8
ENCODING 200
SWIDTH 538 0
DWIDTH 14 0
BBX 14 22 0 0
BITMAP
0E00
0700
0300
0180
0000
3FF8
3FF8
3800
3800
3800
3800
3800
3FE0
3FE0
3800
3800
3800
3800
3800
3800
3FF8
3FF8
ENDCHAR
STARTCHAR U+00C9
ENCODING 201
SWIDTH 538 0
DWIDTH 14 0
BBX 14 22 0 0
BITMAP
00E0
01C0
0180
0300
0000
3FF8
3FF8
3800
3800
3800
3800
3800
3FE0
3FE0
3800
3800
3800
3800
3800
3800
3FF8
3FF8
ENDCHAR
STARTCHAR U+00CA
ENCODING 202
SWIDTH 538 0
DWIDTH 14 0
BBX 14 22 0 0
BITMAP
0380
07C0
06C0
0C60
0000
3FF8
3FF8
3800
3800
3800
3800
3800
3FE0
3FE0
3800
3800
3800
3800
3800
3800
3FF8
3FF8
ENDCHAR
STARTCHAR U+00CB
ENCODING 203
SWIDTH 538 0
DWIDTH 14 0
BBX 14 21 0 0
BITMAP
0840
1CE0
0840
0000
3FF8
3FF8
3800
3800
3800
3800
3800
3FE0
3FE0
3800
3800
3800
3800
3800
3800
3FF8
3FF8
ENDCHAR
STARTCHAR U+00CC
ENCODING 204
SWIDTH 269 0
DWIDTH 7 0
BBX 7 22 0 0
BITMAP
00
00
00
00
00
00
00
00
00
00
00
00
00
00
00
00
00
00
00
00
00
00
ENDCHAR
STARTCHAR U+00CD
ENCODING 205
SWIDTH 269 0
DWIDTH 7 0
BBX 8 22 0 0
BITMAP
0E
1C
18
30
00
38
38
38
38
38
38
38
38
38
38
38
38
38
38
38
38
38
ENDCHAR
STARTCHAR U+00CE
ENCODING 206
SWIDTH 269 0
DWIDTH 7 0
BBX 8 22 0 0
BITMAP
00
00
00
00
00
00
00
00
00
00
00
00
00
00
00
00
00
00
00
00
00
00
ENDCHAR
STARTCHAR U+00CF
ENCODING 207
SWIDTH 269 0
DWIDTH 7 0
BBX 9 21 -1 0
BITMAP
0000
0000
0000
0000
0000
0000
0000
0000
0000
0000
0000
0000
0000
0000
0000
0000
0000
0000
0000
0000
0000
ENDCHAR
STARTCHAR U+00D0
ENCODING 208
SWIDTH 691 0
DWIDTH 18 0
BBX 18 17 0 0
BITMAP
3FE000
3FF800
383C00
380E00
380700
380300
380380
380380
7F8380
7F8380
380380
380300
380700
380E00
383C00
3FF800
3FE000
ENDCHAR
STARTCHAR U+00D1
ENCODING 209
SWIDTH 730 0
DWIDTH 19 0
BBX 19 21 0 0
BITMAP
038800
07F800
007000
000000
380180
3C0180
3E0180
3E0180
3F0180
3B8180
39C180
39C180
38E180
387180
383980
383D80
381D80
380F80
380780
380380
380380
ENDCHAR
STARTCHAR U+00D2
ENCODING 210
SWIDTH 806 0
DWIDTH 21 0
BBX 21 22 0 0
BITMAP
01C000
00E000
006000
003000
000000
01F800
07FE00
0F0780
1C0380
3801C0
3800E0
3000E0
7000E0
700060
7000E0
3000E0
3800E0
3801C0
1C0380
0F0780
07FE00
01F800
ENDCHAR
STARTCHAR U+00D3
ENCODING 211
SWIDTH 806 0
DWIDTH 21 0
BBX 21 22 0 0
BITMAP
003800
007000
006000
00C000
000000
01F800
07FE00
0F0780
1C0380
3801C0
3800E0
3000E0
7000E0
700060
7000E0
3000E0
3800E0
3801C0
1C0380
0F0780
07FE00
01F800
ENDCHAR
STARTCHAR U+00D4
ENCODING 212
SWIDTH 806 0
DWIDTH 21 0
BBX 21 22 0 0
BITMAP
007000
00F800
00D800
018C00
000000
01F800
07FE00
0F0780
1C0380
3801C0
3800E0
3000E0
7000E0
700060
7000E0
3000E0
3800E0
3801C0
1C0380
0F0780
07FE00
01F800
ENDCHAR
STARTCHAR U+00D5
ENCODING 213
SWIDTH 806 0
DWIDTH 21 0
BBX 21 21 0 0
BITMAP
01C400
03FC00
003800
000000
01F800
07FE00
0F0780
1C0380
3801C0
3800E0
3000E0
7000E0
700060
7000E0
3000E0
3800E0
3801C0
1C0380
0F0780
07FE00
01F800
ENDCHAR
STARTCHAR U+00D6
ENCODING 214
SWIDTH 806 0
DWIDTH 21 0
BBX 21 21 0 0
BITMAP
010800
039C00
010800
000000
01F800
07FE00
0F0780
1C0380
3801C0
3800E0
3000E0
7000E0
700060
7000E0
3000E0
3800E0
3801C0
1C0380
0F0780
07FE00
01F800
ENDCHAR
STARTCHAR U+00D7
ENCODING 215
SWIDTH 499 0
DWIDTH 13 0
BBX 13 13 0 0
BITMAP
1040
3860
1CE0
0FC0
0780
0780
0FC0
1CC0
3860
1040
0000
0000
0000
ENDCHAR
STARTCHAR U+00D8
ENCODING 216
SWIDTH 806 0
DWIDTH 21 0
BBX 21 17 0 0
BITMAP
01F840
07FEC0
0F0780
1C0380
3807C0
380CE0
3018E0
7030E0
706060
70C0E0
3180E0
3B80E0
3F01C0
1E0380
1F0780
37FE00
11F800
ENDCHAR
STARTCHAR U+00D9
ENCODING 217
SWIDTH 730 0
DWIDTH 19 0
BBX 19 22 0 0
BITMAP
038000
01C000
00C000
006000
000000
380180
380180
380180
380180
380180
380180
380180
380180
380180
380180
380180
380380
180380
1C0700
0E0E00
07FC00
01F000
ENDCHAR
STARTCHAR U+00DA
ENCODING 218
SWIDTH 730 0
DWIDTH 19 0
BBX 19 22 0 0
BITMAP
003800
007000
006000
00C000
000000
380180
380180
380180
380180
380180
380180
380180
380180
380180
380180
380180
380380
180380
1C0700
0E0E00
07FC00
01F000
ENDCHAR
STARTCHAR U+00DB
ENCODING 219
SWIDTH 730 0
DWIDTH 19 0
BBX 19 22 0 0
BITMAP
00E000
01F000
01B000
031800
000000
380180
380180
380180
380180
380180
380180
380180
380180
380180
380180
380180
380380
180380
1C0700
0E0E00
07FC00
01F000
ENDCHAR
STARTCHAR U+00DC
ENCODING 220
SWIDTH 730 0
DWIDTH 19 0
BBX 19 21 0 0
BITMAP
010800
039C00
010800
000000
380180
380180
380180
380180
380180
380180
380180
380180
380180
380180
380180
380380
180380
1C0700
0E0E00
07FC00
01F000
ENDCHAR
STARTCHAR U+00DD
ENCODING 221
SWIDTH 576 0
DWIDTH 15 0
BBX 15 22 0 0
BITMAP
00E0
01C0
0180
0300
0000
700C
701C
3838
1830
1C70
0E60
06E0
07C0
0380
0380
0380
0380
0380
0380
0380
0380
0380
ENDCHAR
STARTCHAR U+00DE
ENCODING 222
SWIDTH 576 0
DWIDTH 15 0
BBX 15 17 0 0
BITMAP
3800
3800
3800
3FE0
3FF0
3838
3818
381C
381C
3818
3838
3FF0
3FC0
3800
3800
3800
3800
ENDCHAR
STARTCHAR U+00DF
ENCODING 223
SWIDTH 538 0
DWIDTH 14 0
BBX 14 17 0 0
BITMAP
07C0
1FE0
1C60
3870
3030
3070
3060
33C0
33E0
3070
3038
3038
3038
3038
3070
33F0
33C0
ENDCHAR
STARTCHAR U+00E0
ENCODING 224
SWIDTH 499 0
DWIDTH 13 0
BBX 13 18 0 0
BITMAP
1C00
0E00
0600
0300
0000
0000
3F80
3FC0
20E0
0060
07E0
1FE0
3860
7060
7060
70E0
3FE0
1E60
ENDCHAR
STARTCHAR U+00E1
ENCODING 225
SWIDTH 499 0
DWIDTH 13 0
BBX 13 18 0 0
BITMAP
01C0
0380
0300
0600
0000
0000
3F80
3FC0
20E0
0060
07E0
1FE0
3860
7060
7060
70E0
3FE0
1E60
ENDCHAR
STARTCHAR U+00E2
ENCODING 226
SWIDTH 499 0
DWIDTH 13 0
BBX 13 18 0 0
BITMAP
0700
0F80
0D80
18C0
0000
0000
3F80
3FC0
20E0
0060
07E0
1FE0
3860
7060
7060
70E0
3FE0
1E60
ENDCHAR
STARTCHAR U+00E3
ENCODING 227
SWIDTH 499 0
DWIDTH 13 0
BBX 13 17 0 0
BITMAP
1C40
3FC0
0380
0000
0000
3F80
3FC0
20E0
0060
07E0
1FE0
3860
7060
7060
70E0
3FE0
1E60
ENDCHAR
STARTCHAR U+00E4
ENCODING 228
SWIDTH 499 0
DWIDTH 13 0
BBX 13 17 0 0
BITMAP
1080
39C0
1080
0000
0000
3F80
3FC0
20E0
0060
07E0
1FE0
3860
7060
7060
70E0
3FE0
1E60
ENDCHAR
STARTCHAR U+00E5
ENCODING 229
SWIDTH 499 0
DWIDTH 13 0
BBX 13 19 0 0
BITMAP
0600
0900
0900
0900
0600
0000
0000
3F80
3FC0
20E0
0060
07E0
1FE0
3860
7060
7060
70E0
3FE0
1E60
ENDCHAR
STARTCHAR U+00E6
ENCODING 230
SWIDTH 806 0
DWIDTH 21 0
BBX 21 12 0 0
BITMAP
3F0F80
3FDFC0
20F0E0
00F060
00E060
07FFF0
1FFFF0
386000
707000
70F820
3FFFE0
1F8FC0
ENDCHAR
STARTCHAR U+00E7
ENCODING 231
SWIDTH 499 0
DWIDTH 13 0
BBX 13 18 0 -6
BITMAP
07F0
1FF0
3C30
3800
7000
7000
7000
7000
3800
3C30
1FF0
07F0
0100
03C0
00C0
00C0
07C0
0780
ENDCHAR
STARTCHAR U+00E8
ENCODING 232
SWIDTH 538 0
DWIDTH 14 0
BBX 14 18 0 0
BITMAP
0E00
0700
0300
0180
0000
0000
07C0
1FE0
3870
3030
7030
7FF8
7FF8
7000
3000
3810
1FF0
07F0
ENDCHAR
STARTCHAR U+00E9
ENCODING 233
SWIDTH 538 0
DWIDTH 14 0
BBX 14 18 0 0
BITMAP
01C0
0380
0300
0600
0000
0000
07C0
1FE0
3870
3030
7030
7FF8
7FF8
7000
3000
3810
1FF0
07F0
ENDCHAR
STARTCHAR U+00EA
ENCODING 234
SWIDTH 538 0
DWIDTH 14 0
BBX 14 18 0 0
BITMAP
0700
0F80
0D80
18C0
0000
0000
07C0
1FE0
3870
3030
7030
7FF8
7FF8
7000
3000
3810
1FF0
07F0
ENDCHAR
STARTCHAR U+00EB
ENCODING 235
SWIDTH 538 0
DWIDTH 14 0
BBX 14 17 0 0
BITMAP
0840
1CE0
0840
0000
0000
07C0
1FE0
3870
3030
7030
7FF8
7FF8
7000
3000
3810
1FF0
07F0
ENDCHAR
STARTCHAR U+00EC
ENCODING 236
SWIDTH 230 0
DWIDTH 6 0
BBX 7 18 -1 0
BITMAP
E0
70
30
18
00
00
30
30
30
30
30
30
30
30
30
30
30
30
ENDCHAR
STARTCHAR U+00ED
ENCODING 237
SWIDTH 230 0
DWIDTH 6 0
BBX 7 18 0 0
BITMAP
1C
38
30
60
00
00
30
30
30
30
30
30
30
30
30
30
30
30
ENDCHAR
STARTCHAR U+00EE
ENCODING 238
SWIDTH 230 0
DWIDTH 6 0
BBX 8 18 -1 0
BITMAP
00
00
00
00
00
00
00
00
00
00
00
00
00
00
00
00
00
00
ENDCHAR
STARTCHAR U+00EF
ENCODING 239
SWIDTH 230 0
DWIDTH 6 0
BBX 9 17 -1 0
BITMAP
0000
0000
0000
0000
0000
0000
0000
0000
0000
0000
0000
0000
0000
0000
0000
0000
0000
ENDCHAR
STARTCHAR U+00F0
ENCODING 240
SWIDTH 538 0
DWIDTH 14 0
BBX 14 17 0 0
BITMAP
0C60
0FC0
0780
0DC0
18E0
00E0
0FF0
1FF0
3878
3038
7038
7038
7030
7030
3870
1FE0
0F80
ENDCHAR
STARTCHAR U+00F1
ENCODING 241
SWIDTH 576 0
DWIDTH 15 0
BBX 15 17 0 0
BITMAP
0E20
1FE0
01C0
0000
0000
33E0
3FF0
3C78
3038
3018
3018
3018
3018
3018
3018
3018
3018
ENDCHAR
STARTCHAR U+00F2
ENCODING 242
SWIDTH 576 0
DWIDTH 15 0
BBX 15 18 0 0
BITMAP
0E00
0700
0300
0180
0000
0000
07C0
1FF0
3C38
301C
701C
700C
700C
701C
3018
3C38
1FF0
07C0
ENDCHAR
STARTCHAR U+00F3
ENCODING 243
SWIDTH 576 0
DWIDTH 15 0
BBX 15 18 0 0
BITMAP
00E0
01C0
0180
0300
0000
0000
07C0
1FF0
3C38
301C
701C
700C
700C
701C
3018
3C38
1FF0
07C0
ENDCHAR
STARTCHAR U+00F4
ENCODING 244
SWIDTH 576 0
DWIDTH 15 0
BBX 15 18 0 0
BITMAP
0380
07C0
06C0
0C60
0000
0000
07C0
1FF0
3C38
301C
701C
700C
700C
701C
3018
3C38
1FF0
07C0
ENDCHAR
STARTCHAR U+00F5
ENCODING 245
SWIDTH 576 0
DWIDTH 15 0
BBX 15 17 0 0
BITMAP
0E20
1FE0
01C0
0000
0000
07C0
1FF0
3C38
301C
701C
700C
700C
701C
3018
3C38
1FF0
07C0
ENDCHAR
STARTCHAR U+00F6
ENCODING 246
SWIDTH 576 0
DWIDTH 15 0
BBX 15 17 0 0
BITMAP
0420
0E70
0420
0000
0000
07C0
1FF0
3C38
301C
701C
700C
700C
701C
3018
3C38
1FF0
07C0
ENDCHAR
STARTCHAR U+00F7
ENCODING 247
SWIDTH 499 0
DWIDTH 13 0
BBX 13 14 0 0
BITMAP
0100
0300
0380
0100
0000
3FF0
3FF0
0000
0100
0300
0380
0100
0000
0000
ENDCHAR
STARTCHAR U+00F8
ENCODING 248
SWIDTH 576 0
DWIDTH 15 0
BBX 15 14 0 -1
BITMAP
0008
07D8
1FF0
3C38
3078
70DC
718C
730C
761C
3618
3C38
1FF0
37C0
2000
ENDCHAR
STARTCHAR U+00F9
ENCODING 249
SWIDTH 576 0
DWIDTH 15 0
BBX 15 18 0 0
BITMAP
0E00
0700
0300
0180
0000
0000
3018
3018
3018
3018
3018
3018
3018
3018
3818
3C38
1FF8
0F98
ENDCHAR
STARTCHAR U+00FA
ENCODING 250
SWIDTH 576 0
DWIDTH 15 0
BBX 15 18 0 0
BITMAP
00E0
01C0
0180
0300
0000
0000
3018
3018
3018
3018
3018
3018
3018
3018
3818
3C38
1FF8
0F98
ENDCHAR
STARTCHAR U+00FB
ENCODING 251
SWIDTH 576 0
DWIDTH 15 0
BBX 15 18 0 0
BITMAP
0380
07C0
06C0
0C60
0000
0000
3018
3018
3018
3018
3018
3018
3018
3018
3818
3C38
1FF8
0F98
ENDCHAR
STARTCHAR U+00FC
ENCODING 252
SWIDTH 576 0
DWIDTH 15 0
BBX 15 17 0 0
BITMAP
0840
1CE0
0840
0000
0000
3018
3018
3018
3018
3018
3018
3018
3018
3818
3C38
1FF8
0F98
ENDCHAR
STARTCHAR U+00FD
ENCODING 253
SWIDTH 538 0
DWIDTH 14 0
BBX 14 23 0 -5
BITMAP
01C0
0380
0300
0600
0000
0000
6038
7038
7030
3070
3860
18E0
1CE0
0CC0
0DC0
0F80
0780
0700
0300
0700
0600
3E00
3800
ENDCHAR
STARTCHAR U+00FE
ENCODING 254
SWIDTH 576 0
DWIDTH 15 0
BBX 15 22 0 -5
BITMAP
3000
3000
3000
3000
3000
37C0
3FF0
3878
3018
301C
301C
301C
301C
3018
3878
3FF0
37C0
3000
3000
3000
3000
3000
ENDCHAR
STARTCHAR U+00FF
ENCODING 255
SWIDTH 538 0
DWIDTH 14 0
BBX 14 22 0 -5
BITMAP
0840
1CE0
0840
0000
0000
6038
7038
7030
3070
3860
18E0
1CE0
0CC0
0DC0
0F80
0780
0700
0300
0700
0600
3E00
3800
ENDCHAR
STARTCHAR U+2013
ENCODING 8211
SWIDTH 499 0
DWIDTH 13 0
BBX 14 8 -1 0
BITMAP
FFF8
FFF8
0000
0000
0000
0000
0000
0000
ENDCHAR
STARTCHAR U+2014
ENCODING 8212
SWIDTH 960 0
DWIDTH 25 0
BBX 27 8 -1 0
BITMAP
FFFFFF80
FFFFFF80
00000000
00000000
00000000
00000000
00000000
00000000
ENDCHAR
STARTCHAR U+2018
ENCODING 8216
SWIDTH 230 0
DWIDTH 6 0
BBX 6 17 0 0
BITMAP
10
30
30
38
30
00
00
00
00
00
00
00
00
00
00
00
00
ENDCHAR
STARTCHAR U+2019
ENCODING 8217
SWIDTH 230 0
DWIDTH 6 0
BBX 6 17 0 0
BITMAP
10
30
38
30
30
20
00
00
00
00
00
00
00
00
00
00
00
ENDCHAR
STARTCHAR U+201C
ENCODING 8220
SWIDTH 384 0
DWIDTH 10 0
BBX 10 17 0 0
BITMAP
1100
3300
3300
3B00
3300
0000
0000
0000
0000
0000
0000
0000
0000
0000
0000
0000
0000
ENDCHAR
STARTCHAR U+201D
ENCODING 8221
SWIDTH 384 0
DWIDTH 10 0
BBX 10 17 0 0
BITMAP
1100
3300
3B80
3300
3300
2200
0000
0000
0000
0000
0000
0000
0000
0000
0000
0000
0000
ENDCHAR
STARTCHAR U+2022
ENCODING 8226
SWIDTH 422 0
DWIDTH 11 0
BBX 11 10 0 0
BITMAP
0400
0E00
1F00
1F00
0E00
0400
0000
0000
0000
0000
ENDCHAR
STARTCHAR U+2026
ENCODING 8230
SWIDTH 883 0
DWIDTH 23 0
BBX 23 3 0 0
BITMAP
303018
38381C
101008
ENDCHAR
STARTCHAR U+20AC
ENCODING 8364
SWIDTH 614 0
DWIDTH 16 0
BBX 16 17 0 0
BITMAP
01F8
07FC
0F04
1C00
1C00
3800
7FF0
7FE0
3000
3000
7FE0
7FE0
3800
1C00
0E04
07FC
01F8
ENDCHAR
ENDFONT
