STARTFONT 2.1
COMMENT Converted from Johnston100 W03 Regular.ttf at 47px with ttf2bdf.py (Pillow, 1-bit, no AA)
FONT -Misc-Johnston100-Medium-R-Normal--47-470-75-75-P-490-ISO10646-1
SIZE 47 75 75
FONTBOUNDINGBOX 49 54 -2 -12
STARTPROPERTIES 9
FOUNDRY "Misc"
FAMILY_NAME "Johnston100"
WEIGHT_NAME "Medium"
SLANT "R"
PIXEL_SIZE 47
RESOLUTION_X 75
RESOLUTION_Y 75
FONT_ASCENT 42
FONT_DESCENT 12
ENDPROPERTIES
CHARS 200
STARTCHAR space
ENCODING 32
SWIDTH 245 0
DWIDTH 12 0
BBX 12 54 0 -12
BITMAP
0000
0000
0000
0000
0000
0000
0000
0000
0000
0000
0000
0000
0000
0000
0000
0000
0000
0000
0000
0000
0000
0000
0000
0000
0000
0000
0000
0000
0000
0000
0000
0000
0000
0000
0000
0000
0000
0000
0000
0000
0000
0000
0000
0000
0000
0000
0000
0000
0000
0000
0000
0000
0000
0000
ENDCHAR
STARTCHAR !
ENCODING 33
SWIDTH 286 0
DWIDTH 14 0
BBX 14 32 0 0
BITMAP
0F80
0F80
0F80
0F80
0F80
0F80
0F80
0F80
0F80
0F80
0F80
0F80
0F80
0780
0780
0780
0780
0780
0780
0780
0700
0700
0700
0700
0000
0000
0200
0700
0F80
0F80
0700
0200
ENDCHAR
STARTCHAR "
ENCODING 34
SWIDTH 388 0
DWIDTH 19 0
BBX 19 32 0 0
BITMAP
1F0F00
1F0F00
1F0F00
1F0F00
1F0F00
1F0F00
1E0F00
0E0F00
0E0F00
0E0E00
0E0600
0E0600
000000
000000
000000
000000
000000
000000
000000
000000
000000
000000
000000
000000
000000
000000
000000
000000
000000
000000
000000
000000
ENDCHAR
STARTCHAR U+0023
ENCODING 35
SWIDTH 735 0
DWIDTH 36 0
BBX 36 32 0 0
BITMAP
0000600C00
0001C03800
0003C07800
0003C07800
0003C07800
000380F000
000780F000
000780F000
000700E000
07FFFFFFC0
07FFFFFFC0
07FFFFFFC0
0FFFFFFF80
001E03C000
001E03C000
001C038000
003C078000
003C078000
0038070000
3FFFFFFE00
3FFFFFFE00
3FFFFFFE00
3FFFFFFC00
00F01E0000
00F01E0000
00E01C0000
01E03C0000
01E03C0000
01E03C0000
01C0380000
03C0780000
0200400000
ENDCHAR
STARTCHAR $
ENCODING 36
SWIDTH 490 0
DWIDTH 24 0
BBX 24 39 0 -4
BITMAP
007800
007800
007800
00FE00
03FF80
07FFC0
0FFFE0
1FC7E0
1F01C0
1F0000
1F0000
1F0000
1F8000
1FC000
0FF000
0FFC00
07FF00
01FF80
00FFE0
003FF0
000FF0
0003F8
0001F8
0000FC
00007C
00007C
00007C
1C007C
3C00F8
3E01F8
3F83F0
1FFFF0
0FFFE0
07FF80
01FE00
007800
007800
007800
000000
ENDCHAR
STARTCHAR %
ENCODING 37
SWIDTH 715 0
DWIDTH 35 0
BBX 35 32 0 0
BITMAP
01F000E000
07F801E000
0FFC01C000
1FFE03C000
1E1F038000
3C0F078000
3C0F070000
3C0F0F0000
3C0F0E0000
1E1F1E0000
1FFE1C0000
0FFC3C0000
07FC780000
01F0780000
0000F00000
0000F00000
0001E00000
0001E00000
0003C1F000
0003C3FC00
000787FE00
00078FFF00
000F1F0F00
000F1E0780
001E1E0780
001E1E0780
003C1E0780
003C1F0F00
00780FFF00
007807FE00
00F003FC00
00F001F000
ENDCHAR
STARTCHAR &
ENCODING 38
SWIDTH 654 0
DWIDTH 32 0
BBX 32 32 0 0
BITMAP
001F8000
007FE000
01FFF000
01FFF800
03F0F800
03E07C00
07C07C00
07C07C00
07C07C00
03E07C00
03F0F800
01F1F800
00FFF000
00FFE000
007F8000
01FF0000
03FF80F8
07FFC0F8
0FC7E0F0
1F83F1F0
1F01FBE0
3E00FFE0
3E00FFC0
3E007F80
3E003F80
3E003F80
1F007FC0
1FC1FFE0
0FFFFBF0
07FFF1F8
03FFC0FC
00FE007E
ENDCHAR
STARTCHAR '
ENCODING 39
SWIDTH 225 0
DWIDTH 11 0
BBX 11 32 0 0
BITMAP
1F00
1F00
1F00
1F00
1F00
1F00
1E00
0E00
0E00
0E00
0E00
0E00
0000
0000
0000
0000
0000
0000
0000
0000
0000
0000
0000
0000
0000
0000
0000
0000
0000
0000
0000
0000
ENDCHAR
STARTCHAR (
ENCODING 40
SWIDTH 245 0
DWIDTH 12 0
BBX 12 38 0 -3
BITMAP
01E0
03C0
03C0
07C0
0780
0780
0F80
0F00
0F00
0F00
1F00
1E00
1E00
1E00
1E00
1E00
1E00
1E00
1E00
1E00
1E00
1E00
1E00
1E00
1E00
1E00
1E00
1F00
0F00
0F00
0F00
0F80
0780
0780
07C0
03C0
03C0
01E0
ENDCHAR
STARTCHAR )
ENCODING 41
SWIDTH 245 0
DWIDTH 12 0
BBX 12 38 0 -3
BITMAP
3C00
3C00
3E00
1E00
1E00
1F00
0F00
0F00
0F80
0780
0780
0780
0780
0780
0780
07C0
07C0
07C0
07C0
07C0
07C0
07C0
07C0
0780
0780
0780
0780
0780
0780
0F80
0F00
0F00
1F00
1E00
1E00
3E00
3C00
3C00
ENDCHAR
STARTCHAR *
ENCODING 42
SWIDTH 388 0
DWIDTH 19 0
BBX 19 32 0 0
BITMAP
00F000
00E000
00E000
10E100
1CE380
3EEF80
1FFF00
07FC00
01F000
07F800
1FFF00
3EEF80
18E380
10E100
00E000
00E000
00E000
000000
000000
000000
000000
000000
000000
000000
000000
000000
000000
000000
000000
000000
000000
000000
ENDCHAR
STARTCHAR +
ENCODING 43
SWIDTH 511 0
DWIDTH 25 0
BBX 25 25 0 0
BITMAP
001E0000
001E0000
001E0000
001E0000
001E0000
001E0000
001E0000
1FFFFC00
1FFFFC00
1FFFFC00
1FFFFC00
001E0000
001E0000
001E0000
001E0000
001E0000
001E0000
001E0000
00000000
00000000
00000000
00000000
00000000
00000000
00000000
ENDCHAR
STARTCHAR ,
ENCODING 44
SWIDTH 245 0
DWIDTH 12 0
BBX 12 12 0 -5
BITMAP
0600
0F00
1F00
1F00
0F80
0F00
0700
0600
0E00
0800
1000
0000
ENDCHAR
STARTCHAR -
ENCODING 45
SWIDTH 368 0
DWIDTH 18 0
BBX 18 15 0 0
BITMAP
3FFF00
3FFF00
3FFF00
3FFF00
000000
000000
000000
000000
000000
000000
000000
000000
000000
000000
000000
ENDCHAR
STARTCHAR .
ENCODING 46
SWIDTH 245 0
DWIDTH 12 0
BBX 12 6 0 0
BITMAP
0600
0F00
3F80
1F80
0E00
0400
ENDCHAR
STARTCHAR /
ENCODING 47
SWIDTH 306 0
DWIDTH 15 0
BBX 16 38 0 -3
BITMAP
001E
001E
003C
003C
003C
007C
0078
0078
0078
00F0
00F0
00F0
01F0
01E0
01E0
03E0
03C0
03C0
03C0
07C0
0780
0780
0F80
0F00
0F00
0F00
1E00
1E00
1E00
3E00
3C00
3C00
3C00
7800
7800
7800
F800
F000
ENDCHAR
STARTCHAR 0
ENCODING 48
SWIDTH 551 0
DWIDTH 27 0
BBX 27 32 0 0
BITMAP
001F8000
007FE000
01FFF000
03FFF800
03F0F800
07C07C00
07C03C00
0F803E00
0F803E00
0F001E00
0F001F00
1F001F00
1F001F00
1F001F00
1F001F00
1F001F00
1F001F00
1F001F00
1F001F00
1F001F00
1F001F00
0F001F00
0F001E00
0F803E00
0F803E00
07C03C00
07C07C00
03F0F800
03FFF800
01FFF000
007FE000
001F8000
ENDCHAR
STARTCHAR 1
ENCODING 49
SWIDTH 286 0
DWIDTH 14 0
BBX 14 32 0 0
BITMAP
0080
0180
0780
0F80
0F80
0F80
0F80
0F80
0F80
0F80
0F80
0F80
0F80
0F80
0F80
0F80
0F80
0F80
0F80
0F80
0F80
0F80
0F80
0F80
0F80
0F80
0F80
0F80
0F80
0F80
0F80
0F80
ENDCHAR
STARTCHAR 2
ENCODING 50
SWIDTH 470 0
DWIDTH 23 0
BBX 23 32 0 0
BITMAP
00FE00
03FF80
07FFC0
0FFFE0
0F83F0
0E01F0
0C00F8
0800F8
1000F8
0000F8
0000F8
0000F8
0001F0
0001F0
0003F0
0007E0
0007E0
000FC0
001F80
001F80
003F00
003E00
007E00
00FC00
00F800
01F800
03F000
03F000
07FFFC
0FFFFC
0FFFFC
1FFFFC
ENDCHAR
STARTCHAR 3
ENCODING 51
SWIDTH 490 0
DWIDTH 24 0
BBX 24 32 0 0
BITMAP
3FFFFC
3FFFF8
3FFFF8
3FFFF0
0003E0
0007E0
0007C0
000F80
000F80
001F00
003F00
003E00
007F80
007FE0
00FFF0
0103F8
0001F8
0000FC
00007C
00007C
00003C
00003E
00003C
00003C
00007C
0800FC
1C00F8
3F03F8
3FFFF0
1FFFE0
07FF80
01FE00
ENDCHAR
STARTCHAR 4
ENCODING 52
SWIDTH 551 0
DWIDTH 27 0
BBX 27 32 0 0
BITMAP
00000400
00000C00
00001C00
00001C00
00003C00
00007C00
0000FC00
0001FC00
0003FC00
0007FC00
0007FC00
000F7C00
001E7C00
003E7C00
007C7C00
00F87C00
01F07C00
01E07C00
03C07C00
07807C00
0FFFFFC0
1FFFFFC0
3FFFFFC0
7FFFFFC0
00007C00
00007C00
00007C00
00007C00
00007C00
00007C00
00007C00
00007C00
ENDCHAR
STARTCHAR 5
ENCODING 53
SWIDTH 490 0
DWIDTH 24 0
BBX 24 32 0 0
BITMAP
07FFFC
07FFF8
07FFF8
07FFF0
07C000
078000
078000
078000
078000
078000
0F8000
0FFC00
0FFF80
0FFFC0
0FFFE0
080FF0
0003F0
0001F8
0000F8
000078
000078
000078
000078
000078
2000F8
3000F8
7801F0
FE07E0
7FFFE0
3FFFC0
0FFF00
03FC00
ENDCHAR
STARTCHAR 6
ENCODING 54
SWIDTH 511 0
DWIDTH 25 0
BBX 25 32 0 0
BITMAP
0007F000
000FC000
001F8000
003F0000
007E0000
00FC0000
00F80000
01F00000
03F00000
03E00000
07C00000
07C00000
07FFC000
0FFFF000
0FFFF800
0FFFFC00
1FC0FE00
1F003E00
1F003E00
1F001F00
1F001F00
1F001F00
1F001F00
1F001F00
0F801E00
0F803E00
0FC07E00
07E0FC00
03FFF800
01FFF000
00FFE000
003F8000
ENDCHAR
STARTCHAR 7
ENCODING 55
SWIDTH 470 0
DWIDTH 23 0
BBX 23 32 0 0
BITMAP
1FFFFC
1FFFFC
1FFFF8
1FFFF8
0001F8
0001F0
0001F0
0003E0
0003E0
0007C0
0007C0
000F80
000F80
001F80
001F00
001F00
003E00
003E00
007C00
007C00
00FC00
00F800
01F800
01F000
01F000
03E000
03E000
07C000
07C000
0FC000
0F8000
1F8000
ENDCHAR
STARTCHAR 8
ENCODING 56
SWIDTH 511 0
DWIDTH 25 0
BBX 25 32 0 0
BITMAP
003F0000
01FFC000
03FFE000
07FFF000
07C1F000
0F80F800
0F807800
0F007800
0F807800
0F80F800
0FC1F800
07E3F000
03FFE000
03FFC000
00FF8000
01FFE000
03FFF000
07E7F800
0FC1FC00
1F80FC00
1F007C00
1E003E00
3E003E00
3E003E00
3E003E00
1F007C00
1F007C00
0FC1F800
0FFFF800
07FFF000
01FFC000
007F0000
ENDCHAR
STARTCHAR 9
ENCODING 57
SWIDTH 511 0
DWIDTH 25 0
BBX 25 32 0 0
BITMAP
00FE0000
03FF8000
07FFC000
0FFFE000
1F83F000
3F01F800
3E00F800
3C00F800
7C007C00
7C007C00
7C007C00
7C007C00
7C007C00
3E007C00
3F007C00
1F81FC00
1FFFF800
0FFFF800
07FFF800
01FFF000
0001F000
0001F000
0003E000
0003E000
0007C000
000F8000
001F8000
003F0000
007E0000
00FC0000
01F80000
03F00000
ENDCHAR
STARTCHAR :
ENCODING 58
SWIDTH 286 0
DWIDTH 14 0
BBX 14 24 0 0
BITMAP
0300
0780
1FC0
0FC0
0700
0200
0000
0000
0000
0000
0000
0000
0000
0000
0000
0000
0000
0000
0300
0780
1FC0
0FC0
0700
0200
ENDCHAR
STARTCHAR ;
ENCODING 59
SWIDTH 286 0
DWIDTH 14 0
BBX 14 28 0 -5
BITMAP
0300
0780
1FC0
0FC0
0700
0200
0000
0000
0000
0000
0000
0000
0000
0000
0000
0000
0000
0180
03C0
07C0
07C0
03E0
03C0
01C0
0180
0380
0200
0400
ENDCHAR
STARTCHAR U+003C
ENCODING 60
SWIDTH 511 0
DWIDTH 25 0
BBX 25 28 0 0
BITMAP
00000C00
00003C00
0000FC00
0003FC00
000FFC00
003FF000
00FFC000
03FF0000
0FF80000
1FE00000
1F800000
1FE00000
0FF80000
03FE0000
00FF8000
003FE000
001FF800
0007FC00
0001FC00
00007C00
00001C00
00000400
00000000
00000000
00000000
00000000
00000000
00000000
ENDCHAR
STARTCHAR =
ENCODING 61
SWIDTH 511 0
DWIDTH 25 0
BBX 25 23 0 0
BITMAP
1FFFFC00
1FFFFC00
1FFFFC00
1FFFFC00
00000000
00000000
00000000
00000000
00000000
00000000
1FFFFC00
1FFFFC00
1FFFFC00
1FFFFC00
00000000
00000000
00000000
00000000
00000000
00000000
00000000
00000000
00000000
ENDCHAR
STARTCHAR U+003E
ENCODING 62
SWIDTH 511 0
DWIDTH 25 0
BBX 25 28 0 0
BITMAP
18000000
1E000000
1F800000
1FE00000
1FF80000
07FE0000
01FF8000
007FE000
000FF800
0003FC00
0000FC00
0003FC00
000FF800
003FE000
007F8000
01FF0000
07FC0000
1FF00000
1FC00000
1F000000
1C000000
18000000
00000000
00000000
00000000
00000000
00000000
00000000
ENDCHAR
STARTCHAR ?
ENCODING 63
SWIDTH 429 0
DWIDTH 21 0
BBX 21 32 0 0
BITMAP
03F800
0FFE00
1FFF80
7FFFC0
7E0FC0
3807C0
1003E0
0003E0
0003E0
0003E0
0007C0
001FC0
003F80
007F00
01FE00
03F800
03E000
03E000
03C000
03E000
03F000
01F000
00E000
004000
000000
004000
00F000
01F800
03F000
01F000
00E000
004000
ENDCHAR
STARTCHAR @
ENCODING 64
SWIDTH 919 0
DWIDTH 45 0
BBX 45 41 0 -9
BITMAP
00001FF80000
0001FFFF0000
0007FFFFC000
000FFFFFF000
003FE00FF800
007F0001FC00
00FC00007E00
01F800003F00
01F000000F00
03E00FE10F80
07C03FFF0780
0780FFFF03C0
0F80FFFF03C0
0F01F80F03C0
0F03E01E01C0
1E03C01E01E0
1E07C01E01E0
1E07801E01E0
1E07801E01E0
1E07801E01E0
1E0F801E01C0
1E0F801E03C0
1E0F803C03C0
1E07803C03C0
1E07803C0780
1E07803C0F80
1E07C03E1F00
1E03F0FFFF00
0F03FFFFFE00
0F01FFEFF800
0F80FFC3E000
07C03F000000
07E000000000
03F000000000
01F800020000
00FE00060000
007FC03E0000
003FFFFE0000
000FFFFC0000
0003FFF00000
00007FC00000
ENDCHAR
STARTCHAR A
ENCODING 65
SWIDTH 654 0
DWIDTH 32 0
BBX 32 32 0 0
BITMAP
0007C000
0007C000
0007E000
000FE000
000FE000
001FF000
001FF000
001EF800
003EF800
003E7C00
007C7C00
007C3C00
00783E00
00F83E00
00F81F00
01F01F00
01F01F00
01F00F80
03E00F80
03E007C0
07FFFFC0
07FFFFC0
07FFFFE0
0FFFFFE0
0F8001F0
1F0001F0
1F0001F0
1F0000F8
3E0000F8
3E00007C
3E00007C
7C00007E
ENDCHAR
STARTCHAR B
ENCODING 66
SWIDTH 572 0
DWIDTH 28 0
BBX 28 32 0 0
BITMAP
0FFF8000
0FFFE000
0FFFF000
0FFFF800
0F81FC00
0F807C00
0F807E00
0F803E00
0F803E00
0F803E00
0F807C00
0F807C00
0F81F800
0FFFF000
0FFFF800
0FFFFE00
0FFFFF00
0F803F80
0F800F80
0F800FC0
0F8007C0
0F8007C0
0F8007C0
0F8007C0
0F8007C0
0F800FC0
0F800F80
0F803F80
0FFFFF00
0FFFFE00
0FFFFC00
0FFFE000
ENDCHAR
STARTCHAR C
ENCODING 67
SWIDTH 654 0
DWIDTH 32 0
BBX 32 32 0 0
BITMAP
0001FF00
000FFFE0
003FFFF0
007FFFF8
00FF00F8
01F80038
03F00008
07E00000
07C00000
0F800000
0F800000
1F000000
1F000000
1F000000
1F000000
1F000000
1F000000
1F000000
1F000000
1F000000
1F000000
0F800000
0F800000
07C00000
07E00000
03F00008
01FC0038
00FF00F8
007FFFF8
003FFFF0
000FFFC0
0001FE00
ENDCHAR
STARTCHAR D
ENCODING 68
SWIDTH 694 0
DWIDTH 34 0
BBX 34 32 0 0
BITMAP
0FFFE00000
0FFFFC0000
0FFFFF0000
0FFFFFC000
0F803FE000
0F800FF000
0F8003F800
0F8001F800
0F8000FC00
0F80007C00
0F80007E00
0F80003E00
0F80003E00
0F80003E00
0F80001E00
0F80001E00
0F80001E00
0F80001E00
0F80003E00
0F80003E00
0F80003E00
0F80007E00
0F80007C00
0F8000FC00
0F8001F800
0F8003F000
0F8007F000
0F803FE000
0FFFFF8000
0FFFFF0000
0FFFFC0000
0FFFC00000
ENDCHAR
STARTCHAR E
ENCODING 69
SWIDTH 551 0
DWIDTH 27 0
BBX 27 32 0 0
BITMAP
0FFFFF00
0FFFFF00
0FFFFF00
0FFFFF00
0F800000
0F800000
0F800000
0F800000
0F800000
0F800000
0F800000
0F800000
0F800000
0FFFF800
0FFFF800
0FFFF800
0FFFF800
0F800000
0F800000
0F800000
0F800000
0F800000
0F800000
0F800000
0F800000
0F800000
0F800000
0F800000
0FFFFF80
0FFFFF80
0FFFFF80
0FFFFF80
ENDCHAR
STARTCHAR F
ENCODING 70
SWIDTH 511 0
DWIDTH 25 0
BBX 25 32 0 0
BITMAP
0FFFFF00
0FFFFF00
0FFFFF00
0FFFFF00
0F800000
0F800000
0F800000
0F800000
0F800000
0F800000
0F800000
0F800000
0F800000
0FFFF000
0FFFF000
0FFFF000
0FFFF000
0F800000
0F800000
0F800000
0F800000
0F800000
0F800000
0F800000
0F800000
0F800000
0F800000
0F800000
0F800000
0F800000
0F800000
0F800000
ENDCHAR
STARTCHAR G
ENCODING 71
SWIDTH 715 0
DWIDTH 35 0
BBX 35 32 0 0
BITMAP
0001FF0000
000FFFE000
003FFFF800
007FFFFE00
00FF00FE00
01FC003E00
03F0000E00
07E0000600
07C0000000
0F80000000
0F80000000
1F00000000
1F00000000
1F00000000
1F001FFE00
1F001FFE00
1F001FFE00
1F001FFE00
1F00003E00
1F00003E00
1F00003E00
0F80003E00
0F80003E00
0FC0003E00
07E0003E00
03F0003E00
01FC003E00
00FF00FE00
007FFFFE00
003FFFFE00
000FFFF800
0001FF8000
ENDCHAR
STARTCHAR H
ENCODING 72
SWIDTH 694 0
DWIDTH 34 0
BBX 34 32 0 0
BITMAP
0F80007C00
0F80007C00
0F80007C00
0F80007C00
0F80007C00
0F80007C00
0F80007C00
0F80007C00
0F80007C00
0F80007C00
0F80007C00
0F80007C00
0FFFFFFC00
0FFFFFFC00
0FFFFFFC00
0FFFFFFC00
0F80007C00
0F80007C00
0F80007C00
0F80007C00
0F80007C00
0F80007C00
0F80007C00
0F80007C00
0F80007C00
0F80007C00
0F80007C00
0F80007C00
0F80007C00
0F80007C00
0F80007C00
0F80007C00
ENDCHAR
STARTCHAR I
ENCODING 73
SWIDTH 286 0
DWIDTH 14 0
BBX 14 32 0 0
BITMAP
0F80
0F80
0F80
0F80
0F80
0F80
0F80
0F80
0F80
0F80
0F80
0F80
0F80
0F80
0F80
0F80
0F80
0F80
0F80
0F80
0F80
0F80
0F80
0F80
0F80
0F80
0F80
0F80
0F80
0F80
0F80
0F80
ENDCHAR
STARTCHAR J
ENCODING 74
SWIDTH 470 0
DWIDTH 23 0
BBX 23 32 0 0
BITMAP
0003C0
0003C0
0003C0
0003C0
0003C0
0003C0
0003C0
0003C0
0003C0
0003C0
0003C0
0003C0
0003C0
0003C0
0003C0
0003C0
0003C0
0003C0
0003C0
0003C0
0003C0
0003C0
0003C0
0003C0
0807C0
3C07C0
7C07C0
3E1F80
3FFF80
1FFF00
0FFE00
03F800
ENDCHAR
STARTCHAR K
ENCODING 75
SWIDTH 613 0
DWIDTH 30 0
BBX 30 32 0 0
BITMAP
0F8003F0
0F8007E0
0F800FC0
0F803F80
0F807F00
0F80FE00
0F81FC00
0F83F000
0F87E000
0F8FC000
0F9F8000
0FBF0000
0FFE0000
0FFC0000
0FFC0000
0FFE0000
0FFF0000
0FBF0000
0F9F8000
0F8FC000
0F87E000
0F83F000
0F81F800
0F81FC00
0F80FE00
0F807F00
0F803F00
0F801F80
0F800FC0
0F8007E0
0F8003F0
0F8001F8
ENDCHAR
STARTCHAR L
ENCODING 76
SWIDTH 531 0
DWIDTH 26 0
BBX 26 32 0 0
BITMAP
0F800000
0F800000
0F800000
0F800000
0F800000
0F800000
0F800000
0F800000
0F800000
0F800000
0F800000
0F800000
0F800000
0F800000
0F800000
0F800000
0F800000
0F800000
0F800000
0F800000
0F800000
0F800000
0F800000
0F800000
0F800000
0F800000
0F800000
0F800000
0FFFFF00
0FFFFF00
0FFFFF00
0FFFFF00
ENDCHAR
STARTCHAR M
ENCODING 77
SWIDTH 837 0
DWIDTH 41 0
BBX 41 32 0 0
BITMAP
0FC00001F000
0FE00003F000
0FE00007F000
0FF00007F000
0FF8000FF000
0FFC001FF000
0FFE003FF000
0FFE007FF000
0FBF00FDF000
0F9F80FDF000
0F8FC1F9F000
0F87E3F1F000
0F83F7E1F000
0F83FFC1F000
0F81FFC1F000
0F80FF81F000
0F807F01F000
0F803E01F000
0F803C01F000
0F801801F000
0F800801F000
0F800001F000
0F800001F000
0F800001F000
0F800001F000
0F800001F000
0F800001F000
0F800001F000
0F800001F000
0F800001F000
0F800001F000
0F800001F000
ENDCHAR
STARTCHAR N
ENCODING 78
SWIDTH 756 0
DWIDTH 37 0
BBX 37 32 0 0
BITMAP
0F80001F00
0FC0001F00
0FE0001F00
0FF0001F00
0FF0001F00
0FF8001F00
0FFC001F00
0FFE001F00
0FBE001F00
0FBF001F00
0F9F801F00
0F8FC01F00
0F87C01F00
0F87E01F00
0F83F01F00
0F81F81F00
0F80FC1F00
0F807C1F00
0F807E1F00
0F803F1F00
0F801F9F00
0F800F9F00
0F800FDF00
0F8007FF00
0F8003FF00
0F8001FF00
0F8001FF00
0F8000FF00
0F80007F00
0F80003F00
0F80001F00
0F80001F00
ENDCHAR
STARTCHAR O
ENCODING 79
SWIDTH 797 0
DWIDTH 39 0
BBX 39 32 0 0
BITMAP
0001FF0000
000FFFC000
003FFFF000
007FFFFC00
00FF01FE00
01F8007F00
03F0001F80
07E0000F80
07C00007C0
0F800007E0
0F800003E0
1F000003E0
1F000001F0
1F000001F0
1F000001F0
1F000001F0
1F000001F0
1F000001F0
1F000001F0
1F000001F0
1F000003E0
0F800003E0
0F800007E0
07C00007C0
07E0000F80
03F0001F80
01F8007F00
00FF01FE00
007FFFFC00
003FFFF000
000FFFC000
0001FE0000
ENDCHAR
STARTCHAR P
ENCODING 80
SWIDTH 572 0
DWIDTH 28 0
BBX 28 32 0 0
BITMAP
0FFFE000
0FFFF800
0FFFFE00
0FFFFF00
0F807F00
0F801F80
0F800F80
0F800F80
0F800F80
0F800780
0F800780
0F800F80
0F800F80
0F801F80
0F807F00
0FFFFE00
0FFFFC00
0FFFF800
0FFFC000
0F800000
0F800000
0F800000
0F800000
0F800000
0F800000
0F800000
0F800000
0F800000
0F800000
0F800000
0F800000
0F800000
ENDCHAR
STARTCHAR Q
ENCODING 81
SWIDTH 797 0
DWIDTH 39 0
BBX 39 33 0 -1
BITMAP
0001FF0000
000FFFC000
003FFFF000
007FFFFC00
00FF01FE00
01F8007F00
03F0001F80
07E0000F80
07C00007C0
0F800007E0
0F800003E0
1F000003E0
1F000001F0
1F000001F0
1F000001F0
1F000001F0
1F000001F0
1F000001F0
1F000001F0
1F000001F0
1F000003E0
0F800043E0
0F8000E7E0
07C001F7C0
07E001FF80
03F000FF80
01F8007F00
00FF01FF80
007FFFFFC0
003FFFF7E0
000FFFC3E0
0001FE01C0
0000000080
ENDCHAR
STARTCHAR R
ENCODING 82
SWIDTH 572 0
DWIDTH 28 0
BBX 29 32 0 0
BITMAP
0FFF8000
0FFFF000
0FFFF800
0FFFFC00
0F80FE00
0F803E00
0F803E00
0F801F00
0F801F00
0F801F00
0F803E00
0F803E00
0F80FE00
0FFFFC00
0FFFF800
0FFFF000
0FFFC000
0F8FC000
0F87E000
0F83F000
0F83F000
0F81F800
0F80FC00
0F807C00
0F807E00
0F803F00
0F801F80
0F801F80
0F800FC0
0F8007E0
0F8007E0
0F8003F0
ENDCHAR
STARTCHAR S
ENCODING 83
SWIDTH 490 0
DWIDTH 24 0
BBX 24 32 0 0
BITMAP
00FE00
03FF80
07FFE0
0FFFE0
1F83C0
1F0180
1F0000
1F0000
1F0000
1F8000
1FC000
0FF000
07FC00
07FF00
01FF80
007FE0
001FF0
0007F0
0003F8
0001F8
0000FC
00007C
00007C
08007C
1C007C
7C00F8
3E01F8
3F83F0
1FFFF0
0FFFC0
03FF80
00FE00
ENDCHAR
STARTCHAR T
ENCODING 84
SWIDTH 551 0
DWIDTH 27 0
BBX 27 32 0 0
BITMAP
7FFFFFC0
7FFFFFC0
7FFFFFC0
7FFFFFC0
001F0000
001F0000
001F0000
001F0000
001F0000
001F0000
001F0000
001F0000
001F0000
001F0000
001F0000
001F0000
001F0000
001F0000
001F0000
001F0000
001F0000
001F0000
001F0000
001F0000
001F0000
001F0000
001F0000
001F0000
001F0000
001F0000
001F0000
001F0000
ENDCHAR
STARTCHAR U
ENCODING 85
SWIDTH 735 0
DWIDTH 36 0
BBX 36 32 0 0
BITMAP
0F80001F00
0F80001F00
0F80001F00
0F80001F00
0F80001F00
0F80001F00
0F80001F00
0F80001F00
0F80001F00
0F80001F00
0F80001F00
0F80001F00
0F80001F00
0F80001F00
0F80001F00
0F80001F00
0F80001F00
0F80001F00
0F80001F00
0F80001F00
0F80001F00
0780001F00
07C0001F00
07C0003E00
03E0007E00
03F0007C00
01F801FC00
00FE07F800
007FFFF000
003FFFE000
000FFF8000
0003FC0000
ENDCHAR
STARTCHAR V
ENCODING 86
SWIDTH 613 0
DWIDTH 30 0
BBX 30 32 0 0
BITMAP
7C0000F8
3E0000F8
3E0001F0
3E0001F0
1F0001F0
1F0003E0
1F0003E0
0F8003C0
0F8007C0
07C007C0
07C00F80
07C00F80
03E00F80
03E01F00
03E01F00
01F01F00
01F03E00
00F03E00
00F83C00
00F87C00
007C7C00
007C7800
007CF800
003EF800
003EF000
001FF000
001FF000
001FE000
000FE000
000FC000
0007C000
0007C000
ENDCHAR
STARTCHAR W
ENCODING 87
SWIDTH 940 0
DWIDTH 46 0
BBX 46 32 0 0
BITMAP
3E00000001F0
3E0007C001F0
3E000FC001F0
1F000FC003E0
1F000FE003E0
1F001FE003E0
0F801FE003C0
0F801FF007C0
0F803FF007C0
0F803EF007C0
07C03CF00780
07C03CF80F80
07C07CF80F80
03E078780F00
03E0787C1F00
03E0F87C1F00
01E0F03C1F00
01F0F03E1E00
01F1F03E3E00
01F1F01E3E00
00F9E01F3C00
00F9E01F3C00
00FBE01F7C00
007BC00F7C00
007FC00FF800
007FC00FF800
003F8007F800
003F8007F000
003F8007F000
003F8003F000
001F0003F000
001F0003E000
ENDCHAR
STARTCHAR X
ENCODING 88
SWIDTH 654 0
DWIDTH 32 0
BBX 32 32 0 0
BITMAP
3E0000F8
3F0001F8
1F8003F0
0FC007E0
07C007C0
07E00FC0
03F01F80
01F81F00
00F83E00
00FC7E00
007EFC00
003FF800
001FF800
000FF000
000FE000
0007E000
000FF000
001FF000
003FF800
003EFC00
007C7E00
00FC3E00
01F83F00
01F01F80
03F00FC0
07E007C0
0FC003E0
0F8003F0
1F8001F8
3F0000FC
3E00007C
7C00007E
ENDCHAR
STARTCHAR Y
ENCODING 89
SWIDTH 572 0
DWIDTH 28 0
BBX 28 32 0 0
BITMAP
7E0003E0
3E0007E0
3F0007C0
1F000F80
0F800F80
0FC01F00
07C03E00
03E03E00
03E07C00
01F07C00
01F8F800
00F9F000
007DF000
007FE000
003FC000
001FC000
001F8000
000F8000
000F8000
000F8000
000F8000
000F8000
000F8000
000F8000
000F8000
000F8000
000F8000
000F8000
000F8000
000F8000
000F8000
000F8000
ENDCHAR
STARTCHAR Z
ENCODING 90
SWIDTH 592 0
DWIDTH 29 0
BBX 29 32 0 0
BITMAP
3FFFFFF0
3FFFFFE0
3FFFFFE0
3FFFFFC0
00001F80
00001F80
00003F00
00007E00
00007E00
0000FC00
0001F800
0001F800
0003F000
0007E000
0007E000
000FC000
001F8000
001F8000
003F0000
007E0000
007E0000
00FC0000
01F80000
01F80000
03F00000
07E00000
07E00000
0FC00000
1FFFFFF0
1FFFFFF0
3FFFFFF0
7FFFFFF0
ENDCHAR
STARTCHAR [
ENCODING 91
SWIDTH 327 0
DWIDTH 16 0
BBX 16 42 0 -5
BITMAP
0FFC
0FFC
0FFC
0F00
0F00
0F00
0F00
0F00
0F00
0F00
0F00
0F00
0F00
0F00
0F00
0F00
0F00
0F00
0F00
0F00
0F00
0F00
0F00
0F00
0F00
0F00
0F00
0F00
0F00
0F00
0F00
0F00
0F00
0F00
0F00
0F00
0F00
0F00
0F00
0FFC
0FFC
0FFC
ENDCHAR
STARTCHAR \
ENCODING 92
SWIDTH 306 0
DWIDTH 15 0
BBX 16 38 0 -3
BITMAP
F000
F800
7800
7800
7800
3C00
3C00
3C00
3E00
1E00
1E00
1F00
0F00
0F00
0F00
0780
0780
0780
07C0
03C0
03C0
03C0
01E0
01E0
01E0
01F0
00F0
00F0
00F0
0078
0078
0078
007C
003C
003C
003C
001E
001E
ENDCHAR
STARTCHAR ]
ENCODING 93
SWIDTH 327 0
DWIDTH 16 0
BBX 16 42 0 -5
BITMAP
3FF0
3FF0
3FF0
00F0
00F0
00F0
00F0
00F0
00F0
00F0
00F0
00F0
00F0
00F0
00F0
00F0
00F0
00F0
00F0
00F0
00F0
00F0
00F0
00F0
00F0
00F0
00F0
00F0
00F0
00F0
00F0
00F0
00F0
00F0
00F0
00F0
00F0
00F0
00F0
3FF0
3FF0
3FF0
ENDCHAR
STARTCHAR ^
ENCODING 94
SWIDTH 551 0
DWIDTH 27 0
BBX 27 32 0 0
BITMAP
001F0000
003F8000
003FC000
007BC000
00FBE000
00F1F000
01E0F000
03E0F800
07C07C00
07803C00
0F803E00
1F001F00
1E000F00
00000000
00000000
00000000
00000000
00000000
00000000
00000000
00000000
00000000
00000000
00000000
00000000
00000000
00000000
00000000
00000000
00000000
00000000
00000000
ENDCHAR
STARTCHAR _
ENCODING 95
SWIDTH 490 0
DWIDTH 24 0
BBX 25 6 -1 -6
BITMAP
00000000
00000000
00000000
00000000
FFFFFF00
FFFFFF00
ENDCHAR
STARTCHAR `
ENCODING 96
SWIDTH 429 0
DWIDTH 21 0
BBX 22 32 0 0
BITMAP
FFFFF8
FFFFF8
FFFFF8
FFFFF8
F00078
F00078
F00078
F00078
F00078
F00078
F00078
F00078
F00078
F00078
F00078
F00078
F00078
F00078
F00078
F00078
F00078
F00078
F00078
F00078
F00078
F00078
F00078
F00078
FFFFF8
FFFFF8
FFFFF8
FFFFF8
ENDCHAR
STARTCHAR a
ENCODING 97
SWIDTH 490 0
DWIDTH 24 0
BBX 24 23 0 0
BITMAP
00FE00
07FF80
07FFE0
0FFFE0
0F03F0
0C01F0
1000F8
0000F8
000FF8
00FFF8
03FFF8
07F0F8
0F80F8
1F00F8
1E00F8
3E00F8
3E00F8
3E01F8
1F07F8
1FFFF8
0FFFF8
07FEF8
03F8F8
ENDCHAR
STARTCHAR b
ENCODING 98
SWIDTH 572 0
DWIDTH 28 0
BBX 28 32 0 0
BITMAP
0F000000
0F000000
0F000000
0F000000
0F000000
0F000000
0F000000
0F000000
0F000000
0F1FC000
0F7FF000
0FFFFC00
0FFFFE00
0FE07F00
0F801F00
0F000F80
0F000F80
0F0007C0
0F0007C0
0F0007C0
0F0007C0
0F0007C0
0F0007C0
0F0007C0
0F000F80
0F000F80
0F801F80
0FE07F00
0FFFFE00
0FFFFC00
0F7FF800
0F1FC000
ENDCHAR
STARTCHAR c
ENCODING 99
SWIDTH 490 0
DWIDTH 24 0
BBX 24 23 0 0
BITMAP
001FE0
00FFFC
01FFFC
03FFFC
07F03C
0FC00C
1F8000
1F0000
1E0000
3E0000
3E0000
3E0000
3E0000
3E0000
1E0000
1F0000
1F8000
0FC00C
07F03C
03FFFC
01FFFC
00FFFC
001FE0
ENDCHAR
STARTCHAR d
ENCODING 100
SWIDTH 572 0
DWIDTH 28 0
BBX 28 32 0 0
BITMAP
00000F80
00000F80
00000F80
00000F80
00000F80
00000F80
00000F80
00000F80
00000F80
003F8F80
00FFEF80
03FFFF80
07FFFF80
0FF07F80
0FC01F80
1F800F80
1F000F80
1E000F80
3E000F80
3E000F80
3E000F80
3E000F80
3E000F80
1E000F80
1F000F80
1F800F80
0FC01F80
0FF07F80
07FFFF80
03FFFF80
00FFEF80
003F8F80
ENDCHAR
STARTCHAR e
ENCODING 101
SWIDTH 531 0
DWIDTH 26 0
BBX 26 23 0 0
BITMAP
003F8000
00FFE000
03FFF000
07FFF800
0FE0FC00
0F807C00
1F003E00
1F001E00
1E001E00
3FFFFF00
3FFFFF00
3FFFFF00
3FFFFF00
3E000000
1E000000
1F000000
1F000000
0F800200
0FE01E00
07FFFE00
03FFFE00
00FFFE00
003FF000
ENDCHAR
STARTCHAR f
ENCODING 102
SWIDTH 368 0
DWIDTH 18 0
BBX 18 32 0 0
BITMAP
003F80
00FF80
01FF80
03FF80
07E000
07C000
078000
078000
078000
7FFF80
7FFF80
7FFF80
7FFF80
078000
078000
078000
078000
078000
078000
078000
078000
078000
078000
078000
078000
078000
078000
078000
078000
078000
078000
078000
ENDCHAR
STARTCHAR g
ENCODING 103
SWIDTH 490 0
DWIDTH 24 0
BBX 24 32 0 -9
BITMAP
00FFFE
03FFFE
0FFFFE
0FFFFE
1F83F0
1E01F0
3E00F0
3E00F8
3E00F8
1E00F0
1E01F0
1F83F0
0FFFE0
07FFC0
07FF80
0FFE00
0F0000
0F8000
0FF000
07FF00
07FFE0
0FFFF8
3E07FC
3C00FC
78003E
78001E
7C003E
7F007E
3FFFFC
3FFFF8
0FFFF0
01FF80
ENDCHAR
STARTCHAR h
ENCODING 104
SWIDTH 572 0
DWIDTH 28 0
BBX 28 32 0 0
BITMAP
0F000000
0F000000
0F000000
0F000000
0F000000
0F000000
0F000000
0F000000
0F000000
0F1FE000
0F7FF800
0FFFFC00
0FFFFE00
0FE07E00
0F803F00
0F001F00
0F000F80
0F000F80
0F000F80
0F000F80
0F000F80
0F000F80
0F000F80
0F000F80
0F000F80
0F000F80
0F000F80
0F000F80
0F000F80
0F000F80
0F000F80
0F000F80
ENDCHAR
STARTCHAR i
ENCODING 105
SWIDTH 245 0
DWIDTH 12 0
BBX 12 31 0 0
BITMAP
0000
0600
0F00
1F80
0F00
0600
0000
0000
0F00
0F00
0F00
0F00
0F00
0F00
0F00
0F00
0F00
0F00
0F00
0F00
0F00
0F00
0F00
0F00
0F00
0F00
0F00
0F00
0F00
0F00
0F00
ENDCHAR
STARTCHAR j
ENCODING 106
SWIDTH 245 0
DWIDTH 12 0
BBX 13 39 -1 -9
BITMAP
0300
0780
0FC0
07C0
0380
0100
0000
0780
0780
0780
0780
0780
0780
0780
0780
0780
0780
0780
0780
0780
0780
0780
0780
0780
0780
0780
0780
0780
0780
0780
0780
0780
0780
0F80
0F80
FF00
FF00
FE00
F800
ENDCHAR
STARTCHAR k
ENCODING 107
SWIDTH 511 0
DWIDTH 25 0
BBX 25 32 0 0
BITMAP
0F000000
0F000000
0F000000
0F000000
0F000000
0F000000
0F000000
0F000000
0F000000
0F007F00
0F00FC00
0F01F800
0F03F000
0F07E000
0F0FC000
0F1F8000
0F7F0000
0FFC0000
0FF80000
0FF80000
0FFC0000
0F7E0000
0F3F0000
0F1F8000
0F1FC000
0F0FE000
0F07E000
0F03F000
0F01F800
0F00FC00
0F007E00
0F003F00
ENDCHAR
STARTCHAR l
ENCODING 108
SWIDTH 306 0
DWIDTH 15 0
BBX 15 32 0 0
BITMAP
1F00
1F00
1F00
1F00
1F00
1F00
1F00
1F00
1F00
1F00
1F00
1F00
1F00
1F00
1F00
1F00
1F00
1F00
1F00
1F00
1F00
1F00
1F00
1F00
1F00
0F00
0F00
0F80
0FFC
07FC
03FC
01FC
ENDCHAR
STARTCHAR m
ENCODING 109
SWIDTH 899 0
DWIDTH 44 0
BBX 44 23 0 0
BITMAP
0F1FC01FC000
0F7FF0FFF000
0FFFFDFFFC00
0FFFFFFFFC00
0FE07FE07E00
0F803F803E00
0F001F001F00
0F001F001F00
0F000F001F00
0F000F000F00
0F000F000F00
0F000F000F00
0F000F000F00
0F000F000F00
0F000F000F00
0F000F000F00
0F000F000F00
0F000F000F00
0F000F000F00
0F000F000F00
0F000F000F00
0F000F000F00
0F000F000F00
ENDCHAR
STARTCHAR n
ENCODING 110
SWIDTH 572 0
DWIDTH 28 0
BBX 28 23 0 0
BITMAP
0F1FE000
0F7FF800
0FFFFC00
0FFFFE00
0FE07E00
0F803F00
0F001F00
0F000F80
0F000F80
0F000F80
0F000F80
0F000F80
0F000F80
0F000F80
0F000F80
0F000F80
0F000F80
0F000F80
0F000F80
0F000F80
0F000F80
0F000F80
0F000F80
ENDCHAR
STARTCHAR o
ENCODING 111
SWIDTH 592 0
DWIDTH 29 0
BBX 29 23 0 0
BITMAP
001FC000
00FFF000
01FFFC00
03FFFE00
07F07F00
0FC01F80
1F800F80
1F0007C0
1E0007C0
3E0003C0
3E0003C0
3E0003C0
3E0003C0
3E0003C0
1E0007C0
1F0007C0
1F800F80
0FC01F80
07F07F00
07FFFE00
01FFFC00
00FFF000
001FC000
ENDCHAR
STARTCHAR p
ENCODING 112
SWIDTH 572 0
DWIDTH 28 0
BBX 28 32 0 -9
BITMAP
0F1FC000
0F7FF000
0FFFFC00
0FFFFE00
0FE07F00
0F803F80
0F000F80
0F000F80
0F0007C0
0F0007C0
0F0007C0
0F0007C0
0F0007C0
0F0007C0
0F0007C0
0F000F80
0F000F80
0F803F00
0FE07F00
0FFFFE00
0FFFFC00
0F7FF000
0F1FC000
0F000000
0F000000
0F000000
0F000000
0F000000
0F000000
0F000000
0F000000
0F000000
ENDCHAR
STARTCHAR q
ENCODING 113
SWIDTH 572 0
DWIDTH 28 0
BBX 28 32 0 -9
BITMAP
003F8F80
00FFEF80
03FFFF80
07FFFF80
0FF07F80
0FC01F80
1F800F80
1F000F80
1E000F80
3E000F80
3E000F80
3E000F80
3E000F80
3E000F80
1E000F80
1F000F80
1F800F80
0FC01F80
0FF07F80
07FFFF80
03FFFF80
00FFEF80
003F8F80
00000F80
00000F80
00000F80
00000F80
00000F80
00000F80
00000F80
00000F80
00000F80
ENDCHAR
STARTCHAR r
ENCODING 114
SWIDTH 388 0
DWIDTH 19 0
BBX 19 23 0 0
BITMAP
0F1FC0
0F7FC0
0FFFC0
0FFFC0
0FE000
0F8000
0F0000
0F0000
0F0000
0F0000
0F0000
0F0000
0F0000
0F0000
0F0000
0F0000
0F0000
0F0000
0F0000
0F0000
0F0000
0F0000
0F0000
ENDCHAR
STARTCHAR s
ENCODING 115
SWIDTH 470 0
DWIDTH 23 0
BBX 23 23 0 0
BITMAP
00FF00
07FFE0
0FFFE0
1FFFE0
1F01E0
1E0060
1E0000
1F0000
1FC000
1FFC00
0FFF80
07FFC0
00FFE0
000FF0
0001F0
0000F0
2000F0
3800F0
3F03F0
3FFFF0
3FFFE0
0FFF80
01FE00
ENDCHAR
STARTCHAR t
ENCODING 116
SWIDTH 409 0
DWIDTH 20 0
BBX 20 28 0 0
BITMAP
078000
078000
078000
078000
078000
7FFFC0
7FFFC0
7FFFC0
7FFFC0
078000
078000
078000
078000
078000
078000
078000
078000
078000
078000
078000
078000
078000
07C000
07E000
03FFC0
03FFC0
01FFC0
007FC0
ENDCHAR
STARTCHAR u
ENCODING 117
SWIDTH 572 0
DWIDTH 28 0
BBX 28 23 0 0
BITMAP
1F000F00
1F000F00
1F000F00
1F000F00
1F000F00
1F000F00
1F000F00
1F000F00
1F000F00
1F000F00
1F000F00
1F000F00
1F000F00
1F000F00
0F000F00
0F000F00
0F800F00
0FC01F00
07E07F00
07FFFF00
03FFFF00
00FFEF00
003F8F00
ENDCHAR
STARTCHAR v
ENCODING 118
SWIDTH 511 0
DWIDTH 25 0
BBX 25 23 0 0
BITMAP
7C000F80
7C001F00
3E001F00
3E003E00
1F003E00
1F003C00
0F007C00
0F807C00
0F80F800
07C0F800
07C0F000
03C1F000
03E1E000
01E3E000
01F3E000
01F3C000
00F7C000
00FF8000
007F8000
007F0000
003F0000
003F0000
003E0000
ENDCHAR
STARTCHAR w
ENCODING 119
SWIDTH 817 0
DWIDTH 40 0
BBX 40 23 0 0
BITMAP
7C003C003E
3E003E003E
3E007E003C
3E007F007C
1F007F007C
1F00FF0078
1F00FF80F8
0F81F780F8
0F81E7C0F0
0F81E3C1F0
07C3E3C1F0
07C3C3E1E0
07C3C1E3E0
03E781E3E0
03E781F3C0
03EF80F7C0
01FF00FFC0
01FF007F80
01FF007F80
00FE007F80
00FE003F00
00FC003F00
007C003F00
ENDCHAR
STARTCHAR x
ENCODING 120
SWIDTH 490 0
DWIDTH 24 0
BBX 24 23 0 0
BITMAP
3E007C
1F00F8
1F81F8
0F81F0
07C3E0
03E7C0
03F7C0
01FF80
00FF00
007E00
007E00
007E00
00FF00
01FF80
01FFC0
03E7C0
07C3E0
0F81F0
0F81F8
1F00F8
3E007C
7E003E
7C003F
ENDCHAR
STARTCHAR y
ENCODING 121
SWIDTH 511 0
DWIDTH 25 0
BBX 25 32 0 -9
BITMAP
7C000F80
7C001F00
3E001F00
3E003E00
1E003E00
1F003C00
1F007C00
0F807C00
0F807800
0780F800
07C0F000
03C1F000
03E1F000
03E1E000
01E3E000
01F3C000
00F3C000
00FFC000
007F8000
007F8000
007F0000
003F0000
003F0000
001E0000
003E0000
003C0000
007C0000
00F80000
07F80000
07F00000
07E00000
07800000
ENDCHAR
STARTCHAR z
ENCODING 122
SWIDTH 449 0
DWIDTH 22 0
BBX 22 23 0 0
BITMAP
3FFFF8
3FFFF0
3FFFF0
3FFFE0
0007C0
000FC0
000F80
001F00
003F00
003E00
007E00
00FC00
00F800
01F800
03F000
03E000
07E000
07C000
0F8000
1FFFF0
1FFFF0
3FFFF0
7FFFF0
ENDCHAR
STARTCHAR {
ENCODING 123
SWIDTH 347 0
DWIDTH 17 0
BBX 17 42 0 -5
BITMAP
003E00
00FE00
01FE00
01F000
01E000
01E000
03E000
03E000
03E000
03E000
03E000
03E000
03E000
03E000
03E000
03C000
03C000
07C000
1F8000
3F8000
3F0000
3F0000
3F8000
1F8000
07C000
03C000
03C000
03E000
03E000
03E000
03E000
03E000
03E000
03E000
03E000
03E000
01E000
01E000
01F000
01FE00
00FE00
003E00
ENDCHAR
STARTCHAR |
ENCODING 124
SWIDTH 225 0
DWIDTH 11 0
BBX 11 47 0 -12
BITMAP
1F00
1F00
1F00
1F00
1F00
1F00
1F00
1F00
1F00
1F00
1F00
1F00
1F00
1F00
1F00
1F00
1F00
1F00
1F00
1F00
1F00
1F00
1F00
1F00
1F00
1F00
1F00
1F00
1F00
1F00
1F00
1F00
1F00
1F00
1F00
1F00
1F00
1F00
1F00
1F00
1F00
1F00
1F00
1F00
1F00
1F00
1F00
ENDCHAR
STARTCHAR }
ENCODING 125
SWIDTH 347 0
DWIDTH 17 0
BBX 17 42 0 -5
BITMAP
3E0000
3F8000
3FC000
07C000
03C000
03C000
03C000
03C000
03C000
03C000
03C000
03C000
03C000
03C000
03E000
01E000
01E000
01F000
01FC00
00FE00
007E00
007E00
00FE00
01FC00
01F000
01E000
01E000
03E000
03C000
03C000
03C000
03C000
03C000
03C000
03C000
03C000
03C000
03C000
07C000
3FC000
3F8000
3E0000
ENDCHAR
STARTCHAR ~
ENCODING 126
SWIDTH 511 0
DWIDTH 25 0
BBX 25 20 0 0
BITMAP
03E01800
07F01E00
0FFC1E00
0FFE3C00
1E3FFC00
1E0FF800
3C07F000
0C01E000
00000000
00000000
00000000
00000000
00000000
00000000
00000000
00000000
00000000
00000000
00000000
00000000
ENDCHAR
STARTCHAR U+00A0
ENCODING 160
SWIDTH 245 0
DWIDTH 12 0
BBX 12 54 0 -12
BITMAP
0000
0000
0000
0000
0000
0000
0000
0000
0000
0000
0000
0000
0000
0000
0000
0000
0000
0000
0000
0000
0000
0000
0000
0000
0000
0000
0000
0000
0000
0000
0000
0000
0000
0000
0000
0000
0000
0000
0000
0000
0000
0000
0000
0000
0000
0000
0000
0000
0000
0000
0000
0000
0000
0000
ENDCHAR
STARTCHAR U+00A1
ENCODING 161
SWIDTH 286 0
DWIDTH 14 0
BBX 14 33 0 -9
BITMAP
0200
0700
0F80
0F80
0700
0200
0000
0000
0700
0700
0700
0700
0700
0780
0780
0780
0780
0780
0780
0F80
0F80
0F80
0F80
0F80
0F80
0F80
0F80
0F80
0F80
0F80
0F80
0F80
0000
ENDCHAR
STARTCHAR U+00A2
ENCODING 162
SWIDTH 490 0
DWIDTH 24 0
BBX 24 29 0 -3
BITMAP
000F00
000F00
000F00
001FE0
00FFFC
01FFFC
03FFFC
07F03C
0FC00C
1F8000
1F0000
1E0000
3E0000
3E0000
3E0000
3E0000
3E0000
1E0000
1F0000
1F8000
0FC00C
07F03C
03FFFC
01FFFC
00FFFC
001FF0
000F00
000F00
000F00
ENDCHAR
STARTCHAR U+00A3
ENCODING 163
SWIDTH 511 0
DWIDTH 25 0
BBX 25 32 0 0
BITMAP
0007F000
001FFC00
003FFE00
007FFC00
00FC3800
00F80800
00F00000
01F00000
01F00000
01E00000
01E00000
01E00000
01E00000
01E00000
03E00000
0FFFC000
0FFFC000
1FFFC000
1FFFC000
03E00000
03E00000
03C00000
03C00000
07C00000
07C00000
07C00000
07800000
0F800000
0FFFFE00
1FFFFE00
3FFFFC00
3FFFFC00
ENDCHAR
STARTCHAR U+00A4
ENCODING 164
SWIDTH 572 0
DWIDTH 28 0
BBX 28 24 0 0
BITMAP
04000200
0E000700
1F000F80
1F9FDFC0
1FFFFF80
0FFFFF00
07FFFE00
03F07E00
07C03E00
07C01F00
07801F00
07801F00
07801F00
07801F00
07C01F00
07C03E00
03F07E00
07FFFE00
0FFFFF00
1FFFFF80
1F9FDFC0
1F000F80
0E000700
04000200
ENDCHAR
STARTCHAR U+00A5
ENCODING 165
SWIDTH 592 0
DWIDTH 29 0
BBX 29 32 0 0
BITMAP
7E0003F0
3F0003E0
1F0007C0
1F8007C0
0F800F80
07C01F80
07E01F00
03E03E00
01F03E00
01F87C00
00F8F800
0FFCFFC0
0FFDFFC0
0FFFFFC0
0FFFFFC0
001FC000
000FC000
000F8000
0FFFFFC0
0FFFFFC0
0FFFFFC0
0FFFFFC0
000F8000
000F8000
000F8000
000F8000
000F8000
000F8000
000F8000
000F8000
000F8000
000F8000
ENDCHAR
STARTCHAR U+00A6
ENCODING 166
SWIDTH 225 0
DWIDTH 11 0
BBX 11 47 0 -12
BITMAP
1F00
1F00
1F00
1F00
1F00
1F00
1F00
1F00
1F00
1F00
1F00
1F00
1F00
1F00
1F00
1F00
1F00
1F00
1F00
0000
0000
0000
0000
0000
0000
0000
0000
0000
1F00
1F00
1F00
1F00
1F00
1F00
1F00
1F00
1F00
1F00
1F00
1F00
1F00
1F00
1F00
1F00
1F00
1F00
1F00
ENDCHAR
STARTCHAR U+00A7
ENCODING 167
SWIDTH 470 0
DWIDTH 23 0
BBX 23 41 0 -9
BITMAP
00FC00
07FF00
0FFFC0
1FFFE0
1F87E0
3E01F0
3E00E0
3E0080
3E0000
3E0000
1F0000
1FC000
0FF800
07FE00
07FF80
1FFFE0
3F9FF0
3E07F0
7C01F8
7C00F8
7C00F8
7C00F8
3E00F8
3F81F8
1FF3F0
0FFFE0
03FFC0
00FFC0
001FE0
0007F0
0001F0
0000F8
0000F8
0800F8
3C00F8
3E01F0
3F83F0
1FFFE0
0FFFC0
03FF80
00FC00
ENDCHAR
STARTCHAR U+00A8
ENCODING 168
SWIDTH 429 0
DWIDTH 21 0
BBX 22 32 0 0
BITMAP
FFFFF8
FFFFF8
FFFFF8
FFFFF8
F00078
F00078
F00078
F00078
F00078
F00078
F00078
F00078
F00078
F00078
F00078
F00078
F00078
F00078
F00078
F00078
F00078
F00078
F00078
F00078
F00078
F00078
F00078
F00078
FFFFF8
FFFFF8
FFFFF8
FFFFF8
ENDCHAR
STARTCHAR U+00A9
ENCODING 169
SWIDTH 776 0
DWIDTH 38 0
BBX 38 32 0 0
BITMAP
0001FE0000
000FFFC000
003E01F000
0078007800
00E0001C00
01C0000E00
0380FE0700
0703FF8380
060FFFC180
0E1F81C1C0
0C1E0040C0
1C3C0000C0
183C0000E0
1878000060
1878000060
1878000060
1878000060
1878000060
1878000060
183C0000E0
1C3C0000C0
0C1E0040C0
0E1F81C1C0
0E0FFFC180
0703FF8380
0380FE0700
01C0000E00
01E0001C00
0078007800
003E01F000
000FFFC000
0001FE0000
ENDCHAR
STARTCHAR U+00AA
ENCODING 170
SWIDTH 306 0
DWIDTH 15 0
BBX 15 32 0 0
BITMAP
1FC0
3FE0
3FF0
0070
0078
03F8
0FF8
3E78
3878
7878
7878
7878
3FF8
3FF8
1F78
0000
0000
0000
0000
0000
0000
0000
0000
0000
0000
0000
0000
0000
0000
0000
0000
0000
ENDCHAR
STARTCHAR U+00AB
ENCODING 171
SWIDTH 551 0
DWIDTH 27 0
BBX 27 23 0 0
BITMAP
003C0F00
00781E00
00F83E00
01F07C00
03E0F800
03C0F000
07C1F000
0F83E000
1F07C000
1E078000
3E0F8000
1F07C000
0F83E000
0781E000
03C0F000
03E0F800
01F07C00
00F83E00
00781E00
003C0F00
00000000
00000000
00000000
ENDCHAR
STARTCHAR U+00AC
ENCODING 172
SWIDTH 511 0
DWIDTH 25 0
BBX 25 23 0 0
BITMAP
1FFFFC00
1FFFFC00
1FFFFC00
1FFFFC00
00003C00
00003C00
00003C00
00003C00
00003C00
00003C00
00003C00
00003C00
00003C00
00003C00
00000000
00000000
00000000
00000000
00000000
00000000
00000000
00000000
00000000
ENDCHAR
STARTCHAR U+00AD
ENCODING 173
SWIDTH 368 0
DWIDTH 18 0
BBX 18 15 0 0
BITMAP
3FFF00
3FFF00
3FFF00
3FFF00
000000
000000
000000
000000
000000
000000
000000
000000
000000
000000
000000
ENDCHAR
STARTCHAR U+00AE
ENCODING 174
SWIDTH 776 0
DWIDTH 38 0
BBX 38 32 0 0
BITMAP
0001FE0000
000FFFC000
003E01F000
0078007800
00E0001C00
01C0000E00
0380000700
0707FC0380
0E07FF0180
0C07FF81C0
0C078F80C0
1C078780C0
18078380E0
1807878060
18078F8060
1807FF0060
1807FE0060
1807FC0060
1807BE0060
18079E00E0
1C078F00C0
0C078F80C0
0E078781C0
060783C180
070783E380
038781E700
01C0000E00
00E0001C00
0078007800
003E01F000
000FFFC000
0001FE0000
ENDCHAR
STARTCHAR U+00AF
ENCODING 175
SWIDTH 429 0
DWIDTH 21 0
BBX 22 32 0 0
BITMAP
FFFFF8
FFFFF8
FFFFF8
FFFFF8
F00078
F00078
F00078
F00078
F00078
F00078
F00078
F00078
F00078
F00078
F00078
F00078
F00078
F00078
F00078
F00078
F00078
F00078
F00078
F00078
F00078
F00078
F00078
F00078
FFFFF8
FFFFF8
FFFFF8
FFFFF8
ENDCHAR
STARTCHAR U+00B0
ENCODING 176
SWIDTH 368 0
DWIDTH 18 0
BBX 18 32 0 0
BITMAP
01F000
07F800
0FFC00
1FFE00
1E1F00
3C0F00
3C0F00
3C0F00
3C0F00
1E1F00
1FFE00
0FFC00
07FC00
01F000
000000
000000
000000
000000
000000
000000
000000
000000
000000
000000
000000
000000
000000
000000
000000
000000
000000
000000
ENDCHAR
STARTCHAR U+00B1
ENCODING 177
SWIDTH 511 0
DWIDTH 25 0
BBX 25 27 0 0
BITMAP
001E0000
001E0000
001E0000
001E0000
001E0000
001E0000
001E0000
1FFFFC00
1FFFFC00
1FFFFC00
1FFFFC00
001E0000
001E0000
001E0000
001E0000
001E0000
001E0000
001E0000
00000000
00000000
00000000
00000000
00000000
1FFFFC00
1FFFFC00
1FFFFC00
1FFFFC00
ENDCHAR
STARTCHAR U+00B2
ENCODING 178
SWIDTH 327 0
DWIDTH 16 0
BBX 16 32 0 0
BITMAP
07C0
1FF0
3FF8
3FF8
3878
203C
0038
0038
0078
0070
00F0
01E0
01C0
03C0
0780
0780
0FFC
0FFC
1FFC
3FFC
0000
0000
0000
0000
0000
0000
0000
0000
0000
0000
0000
0000
ENDCHAR
STARTCHAR U+00B3
ENCODING 179
SWIDTH 327 0
DWIDTH 16 0
BBX 16 32 0 0
BITMAP
3FFC
3FF8
3FF8
00F0
00F0
01E0
01E0
03C0
03F0
07F8
007C
003C
003C
001C
001C
003C
103C
3878
7FF8
3FF0
0FC0
0000
0000
0000
0000
0000
0000
0000
0000
0000
0000
0000
ENDCHAR
STARTCHAR U+00B4
ENCODING 180
SWIDTH 429 0
DWIDTH 21 0
BBX 22 32 0 0
BITMAP
FFFFF8
FFFFF8
FFFFF8
FFFFF8
F00078
F00078
F00078
F00078
F00078
F00078
F00078
F00078
F00078
F00078
F00078
F00078
F00078
F00078
F00078
F00078
F00078
F00078
F00078
F00078
F00078
F00078
F00078
F00078
FFFFF8
FFFFF8
FFFFF8
FFFFF8
ENDCHAR
STARTCHAR U+00B5
ENCODING 181
SWIDTH 551 0
DWIDTH 27 0
BBX 27 32 0 -9
BITMAP
0F001F00
0F001F00
0F001F00
0F001F00
0F001F00
0F001F00
0F001F00
0F001F00
0F001F00
0F001F00
0F001F00
0F001F00
0F001F00
0F001F00
0F001F00
0F801F00
0F801F00
0FC03F00
0FE0FF00
0FFFFF00
0FFFFF00
0FFFDF00
0F3F1F00
0F000000
0F000000
0F000000
0F000000
0F000000
0F000000
0F000000
0F000000
0F000000
ENDCHAR
STARTCHAR U+00B6
ENCODING 182
SWIDTH 531 0
DWIDTH 26 0
BBX 26 41 0 -9
BITMAP
00FFFF80
03FFFF80
07FFFF80
0FFE1C00
1FFE1C00
1FFE1C00
3FFE1C00
3FFE1C00
3FFE1C00
3FFE1C00
3FFE1C00
1FFE1C00
1FFE1C00
0FFE1C00
07FE1C00
03FE1C00
00FE1C00
000E1C00
000E1C00
000E1C00
000E1C00
000E1C00
000E1C00
000E1C00
000E1C00
000E1C00
000E1C00
000E1C00
000E1C00
000E1C00
000E1C00
000E1C00
000E1C00
000E1C00
000E1C00
000E1C00
000E1C00
000E1C00
000E1C00
000E1C00
000E1C00
ENDCHAR
STARTCHAR U+00B7
ENCODING 183
SWIDTH 245 0
DWIDTH 12 0
BBX 12 19 0 0
BITMAP
0400
0E00
1F00
3F80
1F00
0E00
0400
0000
0000
0000
0000
0000
0000
0000
0000
0000
0000
0000
0000
ENDCHAR
STARTCHAR U+00B8
ENCODING 184
SWIDTH 429 0
DWIDTH 21 0
BBX 22 32 0 0
BITMAP
FFFFF8
FFFFF8
FFFFF8
FFFFF8
F00078
F00078
F00078
F00078
F00078
F00078
F00078
F00078
F00078
F00078
F00078
F00078
F00078
F00078
F00078
F00078
F00078
F00078
F00078
F00078
F00078
F00078
F00078
F00078
FFFFF8
FFFFF8
FFFFF8
FFFFF8
ENDCHAR
STARTCHAR U+00B9
ENCODING 185
SWIDTH 225 0
DWIDTH 11 0
BBX 11 32 0 0
BITMAP
0200
0600
0E00
0E00
0E00
0E00
0E00
0E00
0E00
0E00
0E00
0E00
0E00
0E00
0E00
0E00
0E00
0E00
0E00
0E00
0000
0000
0000
0000
0000
0000
0000
0000
0000
0000
0000
0000
ENDCHAR
STARTCHAR U+00BA
ENCODING 186
SWIDTH 368 0
DWIDTH 18 0
BBX 18 32 0 0
BITMAP
03F000
0FFC00
1FFE00
1E1F00
3C0F00
380700
780780
780780
780780
380700
3C0F00
1E1F00
1FFE00
0FFC00
03F000
000000
000000
000000
000000
000000
000000
000000
000000
000000
000000
000000
000000
000000
000000
000000
000000
000000
ENDCHAR
STARTCHAR U+00BB
ENCODING 187
SWIDTH 551 0
DWIDTH 27 0
BBX 27 23 0 0
BITMAP
3E0F8000
1F07C000
0F83E000
0781E000
03C0F000
03E0F800
01F07C00
00F03C00
00781E00
007C1F00
003C0F00
00781E00
00F83E00
01F07C00
03E0F800
03C0F000
07C1E000
0F83E000
1F07C000
3E0F8000
00000000
00000000
00000000
ENDCHAR
STARTCHAR U+00BC
ENCODING 188
SWIDTH 776 0
DWIDTH 38 0
BBX 38 32 0 0
BITMAP
020000F000
060001E000
0E0001E000
0E0003C000
0E0003C000
0E00078000
0E00078000
0E000F0000
0E000F0000
0E001E0000
0E001E0000
0E003C0000
0E003C0020
0E00780060
0E007800E0
0E00F001E0
0E00F001E0
0E01E003E0
0E01E007E0
0E03C00FE0
0003801FE0
0007803DE0
00070079E0
000F00F1E0
000E01E1E0
001E03FFF8
001C07FFF8
003C0FFFF8
00380001E0
00780001E0
00700001E0
00F00001E0
ENDCHAR
STARTCHAR U+00BD
ENCODING 189
SWIDTH 797 0
DWIDTH 39 0
BBX 39 32 0 0
BITMAP
020000F000
060001E000
0E0001E000
0E0003C000
0E0003C000
0E00078000
0E00078000
0E000F0000
0E000F0000
0E001E0000
0E001E0000
0E003C0000
0E003C07C0
0E00781FF0
0E00783FF8
0E00F03FF8
0E00F03878
0E01E0203C
0E01E00038
0E03C00038
0003800078
0007800070
00070000F0
000F0001E0
000E0001C0
001E0003C0
001C000780
003C000780
0038000FFC
0078000FFC
0070001FFC
00F0003FFC
ENDCHAR
STARTCHAR U+00BE
ENCODING 190
SWIDTH 837 0
DWIDTH 41 0
BBX 41 32 0 0
BITMAP
3FFC001E0000
3FF8003C0000
3FF8003C0000
00F000780000
00F000780000
01E000F00000
01E000F00000
03C001E00000
03F001E00000
07F803C00000
007C03C00000
003C07800000
003C07800400
001C0F000C00
001C0F001C00
003C1E003C00
103C1E003C00
38783C007C00
7FF83C00FC00
3FF07801FC00
0FC07003FC00
0000F007BC00
0000E00F3C00
0001E01E3C00
0001C03C3C00
0003C07FFF00
000380FFFF00
000781FFFF00
000700003C00
000F00003C00
000E00003C00
001E00003C00
ENDCHAR
STARTCHAR U+00BF
ENCODING 191
SWIDTH 429 0
DWIDTH 21 0
BBX 21 32 0 -9
BITMAP
001000
003800
007C00
00FE00
007C00
003800
001000
000000
001000
003C00
007C00
007E00
003F00
001F00
001F00
003E00
00FE00
01FC00
07F800
0FE000
0FC000
1F8000
1F0000
1E0000
1E0000
1E0040
1F00E0
1F83F0
0FFFF0
07FFE0
03FF80
00FE00
ENDCHAR
STARTCHAR U+00C0
ENCODING 192
SWIDTH 654 0
DWIDTH 32 0
BBX 32 41 0 0
BITMAP
003E0000
001F0000
000F8000
00078000
0003C000
0003E000
0001E000
00000000
00000000
0007C000
0007C000
0007E000
000FE000
000FE000
001FF000
001FF000
001EF800
003EF800
003E7C00
007C7C00
007C3C00
00783E00
00F83E00
00F81F00
01F01F00
01F01F00
01F00F80
03E00F80
03E007C0
07FFFFC0
07FFFFC0
07FFFFE0
0FFFFFE0
0F8001F0
1F0001F0
1F0001F0
1F0000F8
3E0000F8
3E00007C
3E00007C
7C00007E
ENDCHAR
STARTCHAR U+00C1
ENCODING 193
SWIDTH 654 0
DWIDTH 32 0
BBX 32 41 0 0
BITMAP
00007C00
0000F800
0000F000
0001F000
0003E000
0003C000
00078000
00000000
00000000
0007C000
0007C000
0007E000
000FE000
000FE000
001FF000
001FF000
001EF800
003EF800
003E7C00
007C7C00
007C3C00
00783E00
00F83E00
00F81F00
01F01F00
01F01F00
01F00F80
03E00F80
03E007C0
07FFFFC0
07FFFFC0
07FFFFE0
0FFFFFE0
0F8001F0
1F0001F0
1F0001F0
1F0000F8
3E0000F8
3E00007C
3E00007C
7C00007E
ENDCHAR
STARTCHAR U+00C2
ENCODING 194
SWIDTH 654 0
DWIDTH 32 0
BBX 32 41 0 0
BITMAP
0007E000
000FE000
000FF000
001EF000
003C7800
00383C00
00701C00
00000000
00000000
0007C000
0007C000
0007E000
000FE000
000FE000
001FF000
001FF000
001EF800
003EF800
003E7C00
007C7C00
007C3C00
00783E00
00F83E00
00F81F00
01F01F00
01F01F00
01F00F80
03E00F80
03E007C0
07FFFFC0
07FFFFC0
07FFFFE0
0FFFFFE0
0F8001F0
1F0001F0
1F0001F0
1F0000F8
3E0000F8
3E00007C
3E00007C
7C00007E
ENDCHAR
STARTCHAR U+00C3
ENCODING 195
SWIDTH 654 0
DWIDTH 32 0
BBX 32 40 0 0
BITMAP
003C0800
00FF0C00
00FFFC00
01FFFC00
00C3F800
0040F000
00000000
00000000
0007C000
0007C000
0007E000
000FE000
000FE000
001FF000
001FF000
001EF800
003EF800
003E7C00
007C7C00
007C3C00
00783E00
00F83E00
00F81F00
01F01F00
01F01F00
01F00F80
03E00F80
03E007C0
07FFFFC0
07FFFFC0
07FFFFE0
0FFFFFE0
0F8001F0
1F0001F0
1F0001F0
1F0000F8
3E0000F8
3E00007C
3E00007C
7C00007E
ENDCHAR
STARTCHAR U+00C4
ENCODING 196
SWIDTH 654 0
DWIDTH 32 0
BBX 32 40 0 0
BITMAP
00100800
00381C00
00FC3E00
007C3E00
00381C00
00100800
00000000
00000000
0007C000
0007C000
0007E000
000FE000
000FE000
001FF000
001FF000
001EF800
003EF800
003E7C00
007C7C00
007C3C00
00783E00
00F83E00
00F81F00
01F01F00
01F01F00
01F00F80
03E00F80
03E007C0
07FFFFC0
07FFFFC0
07FFFFE0
0FFFFFE0
0F8001F0
1F0001F0
1F0001F0
1F0000F8
3E0000F8
3E00007C
3E00007C
7C00007E
ENDCHAR
STARTCHAR U+00C5
ENCODING 197
SWIDTH 654 0
DWIDTH 32 0
BBX 32 43 0 0
BITMAP
0003C000
0007E000
000E3000
000C3000
000C1800
000C3000
000E7000
0007E000
0003C000
00000000
00000000
0007C000
0007C000
0007E000
000FE000
000FE000
001FF000
001FF000
001EF800
003EF800
003E7C00
007C7C00
007C3C00
00783E00
00F83E00
00F81F00
01F01F00
01F01F00
01F00F80
03E00F80
03E007C0
07FFFFC0
07FFFFC0
07FFFFE0
0FFFFFE0
0F8001F0
1F0001F0
1F0001F0
1F0000F8
3E0000F8
3E00007C
3E00007C
7C00007E
ENDCHAR
STARTCHAR U+00C6
ENCODING 198
SWIDTH 878 0
DWIDTH 43 0
BBX 43 32 0 0
BITMAP
00003FFFFF80
00003FFFFF80
00007FFFFF80
00007FFFFF80
0000FBE00000
0000FBE00000
0001F3E00000
0003F3E00000
0003E3E00000
0007C3E00000
0007C3E00000
000F83E00000
000F83E00000
001F03FFF800
003F03FFF800
003E03FFF800
007E03FFF800
007C03E00000
00FFFFE00000
00FFFFE00000
01FFFFE00000
03FFFFE00000
03E003E00000
07C003E00000
07C003E00000
0F8003E00000
0F8003E00000
1F0003E00000
3F0003FFFF80
3E0003FFFF80
7E0003FFFF80
7C0003FFFF80
ENDCHAR
STARTCHAR U+00C7
ENCODING 199
SWIDTH 654 0
DWIDTH 32 0
BBX 32 42 0 -10
BITMAP
0001FF00
000FFFE0
003FFFF0
007FFFF8
00FF00F8
01F80038
03F00008
07E00000
07C00000
0F800000
0F800000
1F000000
1F000000
1F000000
1F000000
1F000000
1F000000
1F000000
1F000000
1F000000
1F000000
0F800000
0F800000
07C00000
07E00000
03F00008
01FC0038
00FF00F8
007FFFF8
003FFFF0
000FFFC0
0001FE00
0000E000
0000E000
0001F800
0001FC00
00003E00
00001E00
00003E00
0007FC00
0007F800
0007E000
ENDCHAR
STARTCHAR U+00C8
ENCODING 200
SWIDTH 551 0
DWIDTH 27 0
BBX 27 41 0 0
BITMAP
00F80000
007C0000
003E0000
001E0000
000F0000
000F8000
00078000
00000000
00000000
0FFFFF00
0FFFFF00
0FFFFF00
0FFFFF00
0F800000
0F800000
0F800000
0F800000
0F800000
0F800000
0F800000
0F800000
0F800000
0FFFF800
0FFFF800
0FFFF800
0FFFF800
0F800000
0F800000
0F800000
0F800000
0F800000
0F800000
0F800000
0F800000
0F800000
0F800000
0F800000
0FFFFF80
0FFFFF80
0FFFFF80
0FFFFF80
ENDCHAR
STARTCHAR U+00C9
ENCODING 201
SWIDTH 551 0
DWIDTH 27 0
BBX 27 41 0 0
BITMAP
0001F000
0003E000
0003C000
0007C000
000F8000
000F0000
001E0000
00000000
00000000
0FFFFF00
0FFFFF00
0FFFFF00
0FFFFF00
0F800000
0F800000
0F800000
0F800000
0F800000
0F800000
0F800000
0F800000
0F800000
0FFFF800
0FFFF800
0FFFF800
0FFFF800
0F800000
0F800000
0F800000
0F800000
0F800000
0F800000
0F800000
0F800000
0F800000
0F800000
0F800000
0FFFFF80
0FFFFF80
0FFFFF80
0FFFFF80
ENDCHAR
STARTCHAR U+00CA
ENCODING 202
SWIDTH 551 0
DWIDTH 27 0
BBX 27 41 0 0
BITMAP
001F8000
003F8000
003FC000
007BC000
00F1E000
00E0F000
01C07000
00000000
00000000
0FFFFF00
0FFFFF00
0FFFFF00
0FFFFF00
0F800000
0F800000
0F800000
0F800000
0F800000
0F800000
0F800000
0F800000
0F800000
0FFFF800
0FFFF800
0FFFF800
0FFFF800
0F800000
0F800000
0F800000
0F800000
0F800000
0F800000
0F800000
0F800000
0F800000
0F800000
0F800000
0FFFFF80
0FFFFF80
0FFFFF80
0FFFFF80
ENDCHAR
STARTCHAR U+00CB
ENCODING 203
SWIDTH 551 0
DWIDTH 27 0
BBX 27 40 0 0
BITMAP
00402000
00E07000
03F0F800
01F0F800
00E07000
00402000
00000000
00000000
0FFFFF00
0FFFFF00
0FFFFF00
0FFFFF00
0F800000
0F800000
0F800000
0F800000
0F800000
0F800000
0F800000
0F800000
0F800000
0FFFF800
0FFFF800
0FFFF800
0FFFF800
0F800000
0F800000
0F800000
0F800000
0F800000
0F800000
0F800000
0F800000
0F800000
0F800000
0F800000
0FFFFF80
0FFFFF80
0FFFFF80
0FFFFF80
ENDCHAR
STARTCHAR U+00CC
ENCODING 204
SWIDTH 286 0
DWIDTH 14 0
BBX 14 41 0 0
BITMAP
7C00
3E00
1F00
0F00
0780
07C0
03C0
0000
0000
0F80
0F80
0F80
0F80
0F80
0F80
0F80
0F80
0F80
0F80
0F80
0F80
0F80
0F80
0F80
0F80
0F80
0F80
0F80
0F80
0F80
0F80
0F80
0F80
0F80
0F80
0F80
0F80
0F80
0F80
0F80
0F80
ENDCHAR
STARTCHAR U+00CD
ENCODING 205
SWIDTH 286 0
DWIDTH 14 0
BBX 14 41 0 0
BITMAP
00F8
01F0
01E0
03E0
07C0
0780
0F00
0000
0000
0F80
0F80
0F80
0F80
0F80
0F80
0F80
0F80
0F80
0F80
0F80
0F80
0F80
0F80
0F80
0F80
0F80
0F80
0F80
0F80
0F80
0F80
0F80
0F80
0F80
0F80
0F80
0F80
0F80
0F80
0F80
0F80
ENDCHAR
STARTCHAR U+00CE
ENCODING 206
SWIDTH 286 0
DWIDTH 14 0
BBX 14 41 0 0
BITMAP
0000
0000
0000
0000
0000
0000
0000
0000
0000
0000
0000
0000
0000
0000
0000
0000
0000
0000
0000
0000
0000
0000
0000
0000
0000
0000
0000
0000
0000
0000
0000
0000
0000
0000
0000
0000
0000
0000
0000
0000
0000
ENDCHAR
STARTCHAR U+00CF
ENCODING 207
SWIDTH 286 0
DWIDTH 14 0
BBX 16 40 -1 0
BITMAP
0000
0000
0000
0000
0000
0000
0000
0000
0000
0000
0000
0000
0000
0000
0000
0000
0000
0000
0000
0000
0000
0000
0000
0000
0000
0000
0000
0000
0000
0000
0000
0000
0000
0000
0000
0000
0000
0000
0000
0000
ENDCHAR
STARTCHAR U+00D0
ENCODING 208
SWIDTH 694 0
DWIDTH 34 0
BBX 34 32 0 0
BITMAP
0FFFE00000
0FFFFC0000
0FFFFF0000
0FFFFFC000
0F803FE000
0F800FF000
0F8003F800
0F8001F800
0F8000FC00
0F80007C00
0F80007E00
0F80003E00
0F80003E00
0F80003E00
7FFF801E00
7FFF801E00
7FFF801E00
7FFF801E00
0F80003E00
0F80003E00
0F80003E00
0F80007E00
0F80007C00
0F8000FC00
0F8001F800
0F8003F000
0F8007F000
0F803FE000
0FFFFF8000
0FFFFF0000
0FFFFC0000
0FFFC00000
ENDCHAR
STARTCHAR U+00D1
ENCODING 209
SWIDTH 756 0
DWIDTH 37 0
BBX 37 40 0 0
BITMAP
0007810000
001FE18000
001FFF8000
003FFF8000
00187F0000
00081E0000
0000000000
0000000000
0F80001F00
0FC0001F00
0FE0001F00
0FF0001F00
0FF0001F00
0FF8001F00
0FFC001F00
0FFE001F00
0FBE001F00
0FBF001F00
0F9F801F00
0F8FC01F00
0F87C01F00
0F87E01F00
0F83F01F00
0F81F81F00
0F80FC1F00
0F807C1F00
0F807E1F00
0F803F1F00
0F801F9F00
0F800F9F00
0F800FDF00
0F8007FF00
0F8003FF00
0F8001FF00
0F8001FF00
0F8000FF00
0F80007F00
0F80003F00
0F80001F00
0F80001F00
ENDCHAR
STARTCHAR U+00D2
ENCODING 210
SWIDTH 797 0
DWIDTH 39 0
BBX 39 41 0 0
BITMAP
0007C00000
0003E00000
0001F00000
0000F00000
0000780000
00007C0000
00003C0000
0000000000
0000000000
0001FF0000
000FFFC000
003FFFF000
007FFFFC00
00FF01FE00
01F8007F00
03F0001F80
07E0000F80
07C00007C0
0F800007E0
0F800003E0
1F000003E0
1F000001F0
1F000001F0
1F000001F0
1F000001F0
1F000001F0
1F000001F0
1F000001F0
1F000001F0
1F000003E0
0F800003E0
0F800007E0
07C00007C0
07E0000F80
03F0001F80
01F8007F00
00FF01FE00
007FFFFC00
003FFFF000
000FFFC000
0001FE0000
ENDCHAR
STARTCHAR U+00D3
ENCODING 211
SWIDTH 797 0
DWIDTH 39 0
BBX 39 41 0 0
BITMAP
00000F8000
00001F0000
00001E0000
00003E0000
00007C0000
0000780000
0000F00000
0000000000
0000000000
0001FF0000
000FFFC000
003FFFF000
007FFFFC00
00FF01FE00
01F8007F00
03F0001F80
07E0000F80
07C00007C0
0F800007E0
0F800003E0
1F000003E0
1F000001F0
1F000001F0
1F000001F0
1F000001F0
1F000001F0
1F000001F0
1F000001F0
1F000001F0
1F000003E0
0F800003E0
0F800007E0
07C00007C0
07E0000F80
03F0001F80
01F8007F00
00FF01FE00
007FFFFC00
003FFFF000
000FFFC000
0001FE0000
ENDCHAR
STARTCHAR U+00D4
ENCODING 212
SWIDTH 797 0
DWIDTH 39 0
BBX 39 41 0 0
BITMAP
00007E0000
0000FE0000
0000FF0000
0001EF0000
0003C78000
000383C000
000701C000
0000000000
0000000000
0001FF0000
000FFFC000
003FFFF000
007FFFFC00
00FF01FE00
01F8007F00
03F0001F80
07E0000F80
07C00007C0
0F800007E0
0F800003E0
1F000003E0
1F000001F0
1F000001F0
1F000001F0
1F000001F0
1F000001F0
1F000001F0
1F000001F0
1F000001F0
1F000003E0
0F800003E0
0F800007E0
07C00007C0
07E0000F80
03F0001F80
01F8007F00
00FF01FE00
007FFFFC00
003FFFF000
000FFFC000
0001FE0000
ENDCHAR
STARTCHAR U+00D5
ENCODING 213
SWIDTH 797 0
DWIDTH 39 0
BBX 39 40 0 0
BITMAP
0003C08000
000FF0C000
000FFFC000
001FFFC000
000C3F8000
00040F0000
0000000000
0000000000
0001FF0000
000FFFC000
003FFFF000
007FFFFC00
00FF01FE00
01F8007F00
03F0001F80
07E0000F80
07C00007C0
0F800007E0
0F800003E0
1F000003E0
1F000001F0
1F000001F0
1F000001F0
1F000001F0
1F000001F0
1F000001F0
1F000001F0
1F000001F0
1F000003E0
0F800003E0
0F800007E0
07C00007C0
07E0000F80
03F0001F80
01F8007F00
00FF01FE00
007FFFFC00
003FFFF000
000FFFC000
0001FE0000
ENDCHAR
STARTCHAR U+00D6
ENCODING 214
SWIDTH 797 0
DWIDTH 39 0
BBX 39 40 0 0
BITMAP
0001008000
000381C000
000FC3E000
0007C3E000
000381C000
0001008000
0000000000
0000000000
0001FF0000
000FFFC000
003FFFF000
007FFFFC00
00FF01FE00
01F8007F00
03F0001F80
07E0000F80
07C00007C0
0F800007E0
0F800003E0
1F000003E0
1F000001F0
1F000001F0
1F000001F0
1F000001F0
1F000001F0
1F000001F0
1F000001F0
1F000001F0
1F000003E0
0F800003E0
0F800007E0
07C00007C0
07E0000F80
03F0001F80
01F8007F00
00FF01FE00
007FFFFC00
003FFFF000
000FFFC000
0001FE0000
ENDCHAR
STARTCHAR U+00D7
ENCODING 215
SWIDTH 511 0
DWIDTH 25 0
BBX 25 25 0 0
BITMAP
02002000
07007000
0F80F800
07C1F800
03E3F000
01F7E000
01FFC000
00FF8000
007F0000
007F0000
00FF8000
01FFC000
03F7E000
07E3F000
0FC1F800
0F80F800
07007000
02002000
00000000
00000000
00000000
00000000
00000000
00000000
00000000
ENDCHAR
STARTCHAR U+00D8
ENCODING 216
SWIDTH 797 0
DWIDTH 39 0
BBX 39 32 0 0
BITMAP
0001FF0080
000FFFC0C0
003FFFF1E0
007FFFFFC0
00FF01FF80
01F8007F00
03F0003F80
07E0007F80
07C000FFC0
0F8001F7E0
0F8003E3E0
1F0003C3E0
1F000781F0
1F000F01F0
1F001E01F0
1F003C01F0
1F007801F0
1F00F001F0
1F01E001F0
1F03C001F0
1F078003E0
0F8F0003E0
0F9E0007E0
07FC0007C0
07F8000F80
03F0001F80
01F8007F00
03FF01FE00
07FFFFFC00
0F3FFFF000
0E0FFFC000
0401FE0000
ENDCHAR
STARTCHAR U+00D9
ENCODING 217
SWIDTH 735 0
DWIDTH 36 0
BBX 36 41 0 0
BITMAP
000F800000
0007C00000
0003E00000
0001E00000
0000F00000
0000F80000
0000780000
0000000000
0000000000
0F80001F00
0F80001F00
0F80001F00
0F80001F00
0F80001F00
0F80001F00
0F80001F00
0F80001F00
0F80001F00
0F80001F00
0F80001F00
0F80001F00
0F80001F00
0F80001F00
0F80001F00
0F80001F00
0F80001F00
0F80001F00
0F80001F00
0F80001F00
0F80001F00
0780001F00
07C0001F00
07C0003E00
03E0007E00
03F0007C00
01F801FC00
00FE07F800
007FFFF000
003FFFE000
000FFF8000
0003FC0000
ENDCHAR
STARTCHAR U+00DA
ENCODING 218
SWIDTH 735 0
DWIDTH 36 0
BBX 36 41 0 0
BITMAP
00001F0000
00003E0000
00003C0000
00007C0000
0000F80000
0000F00000
0001E00000
0000000000
0000000000
0F80001F00
0F80001F00
0F80001F00
0F80001F00
0F80001F00
0F80001F00
0F80001F00
0F80001F00
0F80001F00
0F80001F00
0F80001F00
0F80001F00
0F80001F00
0F80001F00
0F80001F00
0F80001F00
0F80001F00
0F80001F00
0F80001F00
0F80001F00
0F80001F00
0780001F00
07C0001F00
07C0003E00
03E0007E00
03F0007C00
01F801FC00
00FE07F800
007FFFF000
003FFFE000
000FFF8000
0003FC0000
ENDCHAR
STARTCHAR U+00DB
ENCODING 219
SWIDTH 735 0
DWIDTH 36 0
BBX 36 41 0 0
BITMAP
0001F80000
0003F80000
0003FC0000
0007BC0000
000F1E0000
000E0F0000
001C070000
0000000000
0000000000
0F80001F00
0F80001F00
0F80001F00
0F80001F00
0F80001F00
0F80001F00
0F80001F00
0F80001F00
0F80001F00
0F80001F00
0F80001F00
0F80001F00
0F80001F00
0F80001F00
0F80001F00
0F80001F00
0F80001F00
0F80001F00
0F80001F00
0F80001F00
0F80001F00
0780001F00
07C0001F00
07C0003E00
03E0007E00
03F0007C00
01F801FC00
00FE07F800
007FFFF000
003FFFE000
000FFF8000
0003FC0000
ENDCHAR
STARTCHAR U+00DC
ENCODING 220
SWIDTH 735 0
DWIDTH 36 0
BBX 36 40 0 0
BITMAP
0004020000
000E070000
003F0F8000
001F0F8000
000E070000
0004020000
0000000000
0000000000
0F80001F00
0F80001F00
0F80001F00
0F80001F00
0F80001F00
0F80001F00
0F80001F00
0F80001F00
0F80001F00
0F80001F00
0F80001F00
0F80001F00
0F80001F00
0F80001F00
0F80001F00
0F80001F00
0F80001F00
0F80001F00
0F80001F00
0F80001F00
0F80001F00
0780001F00
07C0001F00
07C0003E00
03E0007E00
03F0007C00
01F801FC00
00FE07F800
007FFFF000
003FFFE000
000FFF8000
0003FC0000
ENDCHAR
STARTCHAR U+00DD
ENCODING 221
SWIDTH 572 0
DWIDTH 28 0
BBX 28 41 0 0
BITMAP
0001F000
0003E000
0003C000
0007C000
000F8000
000F0000
001E0000
00000000
00000000
7E0003E0
3E0007E0
3F0007C0
1F000F80
0F800F80
0FC01F00
07C03E00
03E03E00
03E07C00
01F07C00
01F8F800
00F9F000
007DF000
007FE000
003FC000
001FC000
001F8000
000F8000
000F8000
000F8000
000F8000
000F8000
000F8000
000F8000
000F8000
000F8000
000F8000
000F8000
000F8000
000F8000
000F8000
000F8000
ENDCHAR
STARTCHAR U+00DE
ENCODING 222
SWIDTH 572 0
DWIDTH 28 0
BBX 28 32 0 0
BITMAP
0F800000
0F800000
0F800000
0F800000
0F800000
0F800000
0FFFE000
0FFFF800
0FFFFE00
0FFFFF00
0F807F00
0F801F80
0F800F80
0F800F80
0F800F80
0F800780
0F800780
0F800F80
0F800F80
0F801F80
0F807F00
0FFFFE00
0FFFFC00
0FFFF800
0FFFC000
0F800000
0F800000
0F800000
0F800000
0F800000
0F800000
0F800000
ENDCHAR
STARTCHAR U+00DF
ENCODING 223
SWIDTH 531 0
DWIDTH 26 0
BBX 26 32 0 0
BITMAP
003F8000
00FFE000
01FFF000
03FFF800
07E0F800
07C07C00
0F803C00
0F803C00
0F003C00
0F003C00
0F003C00
0F007C00
0F01F800
0F0FF000
0F0FC000
0F0FF000
0F0FF800
0F00FC00
0F003E00
0F001E00
0F001F00
0F001F00
0F001F00
0F001F00
0F001F00
0F001F00
0F003E00
0F00FE00
0F1FFC00
0F1FF800
0F1FF000
0F1F8000
ENDCHAR
STARTCHAR U+00E0
ENCODING 224
SWIDTH 490 0
DWIDTH 24 0
BBX 24 33 0 0
BITMAP
03E000
01F000
00F800
007800
003C00
003E00
001E00
000000
000000
000000
00FE00
07FF80
07FFE0
0FFFE0
0F03F0
0C01F0
1000F8
0000F8
000FF8
00FFF8
03FFF8
07F0F8
0F80F8
1F00F8
1E00F8
3E00F8
3E00F8
3E01F8
1F07F8
1FFFF8
0FFFF8
07FEF8
03F8F8
ENDCHAR
STARTCHAR U+00E1
ENCODING 225
SWIDTH 490 0
DWIDTH 24 0
BBX 24 33 0 0
BITMAP
0007C0
000F80
000F00
001F00
003E00
003C00
007800
000000
000000
000000
00FE00
07FF80
07FFE0
0FFFE0
0F03F0
0C01F0
1000F8
0000F8
000FF8
00FFF8
03FFF8
07F0F8
0F80F8
1F00F8
1E00F8
3E00F8
3E00F8
3E01F8
1F07F8
1FFFF8
0FFFF8
07FEF8
03F8F8
ENDCHAR
STARTCHAR U+00E2
ENCODING 226
SWIDTH 490 0
DWIDTH 24 0
BBX 24 33 0 0
BITMAP
007E00
00FE00
00FF00
01EF00
03C780
0383C0
0701C0
000000
000000
000000
00FE00
07FF80
07FFE0
0FFFE0
0F03F0
0C01F0
1000F8
0000F8
000FF8
00FFF8
03FFF8
07F0F8
0F80F8
1F00F8
1E00F8
3E00F8
3E00F8
3E01F8
1F07F8
1FFFF8
0FFFF8
07FEF8
03F8F8
ENDCHAR
STARTCHAR U+00E3
ENCODING 227
SWIDTH 490 0
DWIDTH 24 0
BBX 24 32 0 0
BITMAP
01E040
07F860
07FFE0
0FFFE0
061FC0
020780
000000
000000
000000
00FE00
07FF80
07FFE0
0FFFE0
0F03F0
0C01F0
1000F8
0000F8
000FF8
00FFF8
03FFF8
07F0F8
0F80F8
1F00F8
1E00F8
3E00F8
3E00F8
3E01F8
1F07F8
1FFFF8
0FFFF8
07FEF8
03F8F8
ENDCHAR
STARTCHAR U+00E4
ENCODING 228
SWIDTH 490 0
DWIDTH 24 0
BBX 24 32 0 0
BITMAP
010080
0381C0
0FC3E0
07C3E0
0381C0
010080
000000
000000
000000
00FE00
07FF80
07FFE0
0FFFE0
0F03F0
0C01F0
1000F8
0000F8
000FF8
00FFF8
03FFF8
07F0F8
0F80F8
1F00F8
1E00F8
3E00F8
3E00F8
3E01F8
1F07F8
1FFFF8
0FFFF8
07FEF8
03F8F8
ENDCHAR
STARTCHAR U+00E5
ENCODING 229
SWIDTH 490 0
DWIDTH 24 0
BBX 24 35 0 0
BITMAP
003C00
007E00
00E300
00C300
00C180
00C300
00E700
007E00
003C00
000000
000000
000000
00FE00
07FF80
07FFE0
0FFFE0
0F03F0
0C01F0
1000F8
0000F8
000FF8
00FFF8
03FFF8
07F0F8
0F80F8
1F00F8
1E00F8
3E00F8
3E00F8
3E01F8
1F07F8
1FFFF8
0FFFF8
07FEF8
03F8F8
ENDCHAR
STARTCHAR U+00E6
ENCODING 230
SWIDTH 797 0
DWIDTH 39 0
BBX 39 23 0 0
BITMAP
00FE01FC00
07FF87FF00
07FFCFFFC0
0FFFFFFFE0
0F03FF07E0
0C01FE01F0
1000FC01F0
0000F800F0
0000F800F8
000FFFFFF8
00FFFFFFF8
03FFFFFFF8
0FE0F80000
1F80F80000
1F00F80000
3E007C0000
3E007C0010
3E00FE0030
1F03FF81F0
1FFFFFFFF0
0FFFCFFFE0
07FF83FFC0
03FC00FE00
ENDCHAR
STARTCHAR U+00E7
ENCODING 231
SWIDTH 490 0
DWIDTH 24 0
BBX 24 33 0 -10
BITMAP
001FE0
00FFFC
01FFFC
03FFFC
07F03C
0FC00C
1F8000
1F0000
1E0000
3E0000
3E0000
3E0000
3E0000
3E0000
1E0000
1F0000
1F8000
0FC00C
07F03C
03FFFC
01FFFC
00FFFC
001FE0
000700
000E00
000FC0
000FE0
0001E0
0001F0
0001E0
007FE0
007FC0
007F00
ENDCHAR
STARTCHAR U+00E8
ENCODING 232
SWIDTH 531 0
DWIDTH 26 0
BBX 26 33 0 0
BITMAP
01F00000
00F80000
007C0000
003C0000
001E0000
001F0000
000F0000
00000000
00000000
00000000
003F8000
00FFE000
03FFF000
07FFF800
0FE0FC00
0F807C00
1F003E00
1F001E00
1E001E00
3FFFFF00
3FFFFF00
3FFFFF00
3FFFFF00
3E000000
1E000000
1F000000
1F000000
0F800200
0FE01E00
07FFFE00
03FFFE00
00FFFE00
003FF000
ENDCHAR
STARTCHAR U+00E9
ENCODING 233
SWIDTH 531 0
DWIDTH 26 0
BBX 26 33 0 0
BITMAP
0003E000
0007C000
00078000
000F8000
001F0000
001E0000
003C0000
00000000
00000000
00000000
003F8000
00FFE000
03FFF000
07FFF800
0FE0FC00
0F807C00
1F003E00
1F001E00
1E001E00
3FFFFF00
3FFFFF00
3FFFFF00
3FFFFF00
3E000000
1E000000
1F000000
1F000000
0F800200
0FE01E00
07FFFE00
03FFFE00
00FFFE00
003FF000
ENDCHAR
STARTCHAR U+00EA
ENCODING 234
SWIDTH 531 0
DWIDTH 26 0
BBX 26 33 0 0
BITMAP
003F0000
007F0000
007F8000
00F78000
01E3C000
01C1E000
0380E000
00000000
00000000
00000000
003F8000
00FFE000
03FFF000
07FFF800
0FE0FC00
0F807C00
1F003E00
1F001E00
1E001E00
3FFFFF00
3FFFFF00
3FFFFF00
3FFFFF00
3E000000
1E000000
1F000000
1F000000
0F800200
0FE01E00
07FFFE00
03FFFE00
00FFFE00
003FF000
ENDCHAR
STARTCHAR U+00EB
ENCODING 235
SWIDTH 531 0
DWIDTH 26 0
BBX 26 32 0 0
BITMAP
00804000
01C0E000
07E1F000
03E1F000
01C0E000
00804000
00000000
00000000
00000000
003F8000
00FFE000
03FFF000
07FFF800
0FE0FC00
0F807C00
1F003E00
1F001E00
1E001E00
3FFFFF00
3FFFFF00
3FFFFF00
3FFFFF00
3E000000
1E000000
1F000000
1F000000
0F800200
0FE01E00
07FFFE00
03FFFE00
00FFFE00
003FF000
ENDCHAR
STARTCHAR U+00EC
ENCODING 236
SWIDTH 245 0
DWIDTH 12 0
BBX 13 33 -1 0
BITMAP
F800
7C00
3E00
1E00
0F00
0F80
0780
0000
0000
0000
0F00
0F00
0F00
0F00
0F00
0F00
0F00
0F00
0F00
0F00
0F00
0F00
0F00
0F00
0F00
0F00
0F00
0F00
0F00
0F00
0F00
0F00
0F00
ENDCHAR
STARTCHAR U+00ED
ENCODING 237
SWIDTH 245 0
DWIDTH 12 0
BBX 13 33 0 0
BITMAP
01F0
03E0
03C0
07C0
0F80
0F00
1E00
0000
0000
0000
0F00
0F00
0F00
0F00
0F00
0F00
0F00
0F00
0F00
0F00
0F00
0F00
0F00
0F00
0F00
0F00
0F00
0F00
0F00
0F00
0F00
0F00
0F00
ENDCHAR
STARTCHAR U+00EE
ENCODING 238
SWIDTH 245 0
DWIDTH 12 0
BBX 14 33 -1 0
BITMAP
0000
0000
0000
0000
0000
0000
0000
0000
0000
0000
0000
0000
0000
0000
0000
0000
0000
0000
0000
0000
0000
0000
0000
0000
0000
0000
0000
0000
0000
0000
0000
0000
0000
ENDCHAR
STARTCHAR U+00EF
ENCODING 239
SWIDTH 245 0
DWIDTH 12 0
BBX 16 32 -2 0
BITMAP
0000
0000
0000
0000
0000
0000
0000
0000
0000
0000
0000
0000
0000
0000
0000
0000
0000
0000
0000
0000
0000
0000
0000
0000
0000
0000
0000
0000
0000
0000
0000
0000
ENDCHAR
STARTCHAR U+00F0
ENCODING 240
SWIDTH 531 0
DWIDTH 26 0
BBX 26 32 0 0
BITMAP
00606000
01F8F000
01FFF000
00FFE000
003F8000
00FF8000
03FFC000
07F7E000
03C3F000
0101F000
007EF800
01FFFC00
03FFFC00
07FFFE00
0FC0FE00
0F803E00
1F001F00
1E001F00
1E001F00
3E001F00
3E001F00
3E001F00
3E001F00
3E001F00
1F003E00
1F003E00
1F807C00
0FC1FC00
07FFF800
03FFF000
01FFE000
007F0000
ENDCHAR
STARTCHAR U+00F1
ENCODING 241
SWIDTH 572 0
DWIDTH 28 0
BBX 28 32 0 0
BITMAP
00781000
01FE1800
01FFF800
03FFF800
0187F000
0081E000
00000000
00000000
00000000
0F1FE000
0F7FF800
0FFFFC00
0FFFFE00
0FE07E00
0F803F00
0F001F00
0F000F80
0F000F80
0F000F80
0F000F80
0F000F80
0F000F80
0F000F80
0F000F80
0F000F80
0F000F80
0F000F80
0F000F80
0F000F80
0F000F80
0F000F80
0F000F80
ENDCHAR
STARTCHAR U+00F2
ENCODING 242
SWIDTH 592 0
DWIDTH 29 0
BBX 29 33 0 0
BITMAP
00F80000
007C0000
003E0000
001E0000
000F0000
000F8000
00078000
00000000
00000000
00000000
001FC000
00FFF000
01FFFC00
03FFFE00
07F07F00
0FC01F80
1F800F80
1F0007C0
1E0007C0
3E0003C0
3E0003C0
3E0003C0
3E0003C0
3E0003C0
1E0007C0
1F0007C0
1F800F80
0FC01F80
07F07F00
07FFFE00
01FFFC00
00FFF000
001FC000
ENDCHAR
STARTCHAR U+00F3
ENCODING 243
SWIDTH 592 0
DWIDTH 29 0
BBX 29 33 0 0
BITMAP
0001F000
0003E000
0003C000
0007C000
000F8000
000F0000
001E0000
00000000
00000000
00000000
001FC000
00FFF000
01FFFC00
03FFFE00
07F07F00
0FC01F80
1F800F80
1F0007C0
1E0007C0
3E0003C0
3E0003C0
3E0003C0
3E0003C0
3E0003C0
1E0007C0
1F0007C0
1F800F80
0FC01F80
07F07F00
07FFFE00
01FFFC00
00FFF000
001FC000
ENDCHAR
STARTCHAR U+00F4
ENCODING 244
SWIDTH 592 0
DWIDTH 29 0
BBX 29 33 0 0
BITMAP
000FC000
001FC000
001FE000
003DE000
0078F000
00707800
00E03800
00000000
00000000
00000000
001FC000
00FFF000
01FFFC00
03FFFE00
07F07F00
0FC01F80
1F800F80
1F0007C0
1E0007C0
3E0003C0
3E0003C0
3E0003C0
3E0003C0
3E0003C0
1E0007C0
1F0007C0
1F800F80
0FC01F80
07F07F00
07FFFE00
01FFFC00
00FFF000
001FC000
ENDCHAR
STARTCHAR U+00F5
ENCODING 245
SWIDTH 592 0
DWIDTH 29 0
BBX 29 32 0 0
BITMAP
00781000
01FE1800
01FFF800
03FFF800
0187F000
0081E000
00000000
00000000
00000000
001FC000
00FFF000
01FFFC00
03FFFE00
07F07F00
0FC01F80
1F800F80
1F0007C0
1E0007C0
3E0003C0
3E0003C0
3E0003C0
3E0003C0
3E0003C0
1E0007C0
1F0007C0
1F800F80
0FC01F80
07F07F00
07FFFE00
01FFFC00
00FFF000
001FC000
ENDCHAR
STARTCHAR U+00F6
ENCODING 246
SWIDTH 592 0
DWIDTH 29 0
BBX 29 32 0 0
BITMAP
00201000
00703800
01F87C00
00F87C00
00703800
00201000
00000000
00000000
00000000
001FC000
00FFF000
01FFFC00
03FFFE00
07F07F00
0FC01F80
1F800F80
1F0007C0
1E0007C0
3E0003C0
3E0003C0
3E0003C0
3E0003C0
3E0003C0
1E0007C0
1F0007C0
1F800F80
0FC01F80
07F07F00
07FFFE00
01FFFC00
00FFF000
001FC000
ENDCHAR
STARTCHAR U+00F7
ENCODING 247
SWIDTH 511 0
DWIDTH 25 0
BBX 25 27 0 0
BITMAP
00080000
001C0000
003E0000
007F0000
003E0000
001C0000
00080000
00000000
00000000
1FFFFC00
1FFFFC00
1FFFFC00
1FFFFC00
00000000
00000000
00000000
00080000
001C0000
003E0000
007F0000
003E0000
001C0000
00080000
00000000
00000000
00000000
00000000
ENDCHAR
STARTCHAR U+00F8
ENCODING 248
SWIDTH 592 0
DWIDTH 29 0
BBX 29 25 0 -1
BITMAP
00000300
001FC380
00FFFF00
01FFFF00
03FFFE00
07F07F00
0FC07F80
1F807F80
1F00E7C0
1E01E7C0
3E03C3C0
3E0783C0
3E0703C0
3E0E03C0
3E1E03C0
1E3C07C0
1F7807C0
1FF00F80
0FE01F80
07F07F00
03FFFE00
07FFFC00
0FFFF000
0E1FC000
04000000
ENDCHAR
STARTCHAR U+00F9
ENCODING 249
SWIDTH 572 0
DWIDTH 28 0
BBX 28 33 0 0
BITMAP
00F80000
007C0000
003E0000
001E0000
000F0000
000F8000
00078000
00000000
00000000
00000000
1F000F00
1F000F00
1F000F00
1F000F00
1F000F00
1F000F00
1F000F00
1F000F00
1F000F00
1F000F00
1F000F00
1F000F00
1F000F00
1F000F00
0F000F00
0F000F00
0F800F00
0FC01F00
07E07F00
07FFFF00
03FFFF00
00FFEF00
003F8F00
ENDCHAR
STARTCHAR U+00FA
ENCODING 250
SWIDTH 572 0
DWIDTH 28 0
BBX 28 33 0 0
BITMAP
0001F000
0003E000
0003C000
0007C000
000F8000
000F0000
001E0000
00000000
00000000
00000000
1F000F00
1F000F00
1F000F00
1F000F00
1F000F00
1F000F00
1F000F00
1F000F00
1F000F00
1F000F00
1F000F00
1F000F00
1F000F00
1F000F00
0F000F00
0F000F00
0F800F00
0FC01F00
07E07F00
07FFFF00
03FFFF00
00FFEF00
003F8F00
ENDCHAR
STARTCHAR U+00FB
ENCODING 251
SWIDTH 572 0
DWIDTH 28 0
BBX 28 33 0 0
BITMAP
001F8000
003F8000
003FC000
007BC000
00F1E000
00E0F000
01C07000
00000000
00000000
00000000
1F000F00
1F000F00
1F000F00
1F000F00
1F000F00
1F000F00
1F000F00
1F000F00
1F000F00
1F000F00
1F000F00
1F000F00
1F000F00
1F000F00
0F000F00
0F000F00
0F800F00
0FC01F00
07E07F00
07FFFF00
03FFFF00
00FFEF00
003F8F00
ENDCHAR
STARTCHAR U+00FC
ENCODING 252
SWIDTH 572 0
DWIDTH 28 0
BBX 28 32 0 0
BITMAP
00402000
00E07000
03F0F800
01F0F800
00E07000
00402000
00000000
00000000
00000000
1F000F00
1F000F00
1F000F00
1F000F00
1F000F00
1F000F00
1F000F00
1F000F00
1F000F00
1F000F00
1F000F00
1F000F00
1F000F00
1F000F00
0F000F00
0F000F00
0F800F00
0FC01F00
07E07F00
07FFFF00
03FFFF00
00FFEF00
003F8F00
ENDCHAR
STARTCHAR U+00FD
ENCODING 253
SWIDTH 511 0
DWIDTH 25 0
BBX 25 42 0 -9
BITMAP
0003E000
0007C000
00078000
000F8000
001F0000
001E0000
003C0000
00000000
00000000
00000000
7C000F80
7C001F00
3E001F00
3E003E00
1E003E00
1F003C00
1F007C00
0F807C00
0F807800
0780F800
07C0F000
03C1F000
03E1F000
03E1E000
01E3E000
01F3C000
00F3C000
00FFC000
007F8000
007F8000
007F0000
003F0000
003F0000
001E0000
003E0000
003C0000
007C0000
00F80000
07F80000
07F00000
07E00000
07800000
ENDCHAR
STARTCHAR U+00FE
ENCODING 254
SWIDTH 572 0
DWIDTH 28 0
BBX 28 41 0 -9
BITMAP
0F000000
0F000000
0F000000
0F000000
0F000000
0F000000
0F000000
0F000000
0F000000
0F1FC000
0F7FF000
0FFFFC00
0FFFFE00
0FE07F00
0F803F80
0F000F80
0F000F80
0F0007C0
0F0007C0
0F0007C0
0F0007C0
0F0007C0
0F0007C0
0F0007C0
0F000F80
0F000F80
0F803F00
0FE07F00
0FFFFE00
0FFFFC00
0F7FF000
0F1FC000
0F000000
0F000000
0F000000
0F000000
0F000000
0F000000
0F000000
0F000000
0F000000
ENDCHAR
STARTCHAR U+00FF
ENCODING 255
SWIDTH 511 0
DWIDTH 25 0
BBX 25 41 0 -9
BITMAP
00804000
01C0E000
07E1F000
03E1F000
01C0E000
00804000
00000000
00000000
00000000
7C000F80
7C001F00
3E001F00
3E003E00
1E003E00
1F003C00
1F007C00
0F807C00
0F807800
0780F800
07C0F000
03C1F000
03E1F000
03E1E000
01E3E000
01F3C000
00F3C000
00FFC000
007F8000
007F8000
007F0000
003F0000
003F0000
001E0000
003E0000
003C0000
007C0000
00F80000
07F80000
07F00000
07E00000
07800000
ENDCHAR
STARTCHAR U+2013
ENCODING 8211
SWIDTH 490 0
DWIDTH 24 0
BBX 25 15 -1 0
BITMAP
FFFFFF00
FFFFFF00
FFFFFF00
FFFFFF00
00000000
00000000
00000000
00000000
00000000
00000000
00000000
00000000
00000000
00000000
00000000
ENDCHAR
STARTCHAR U+2014
ENCODING 8212
SWIDTH 960 0
DWIDTH 47 0
BBX 49 15 -1 0
BITMAP
FFFFFFFFFFFE00
FFFFFFFFFFFE00
FFFFFFFFFFFE00
FFFFFFFFFFFE00
00000000000000
00000000000000
00000000000000
00000000000000
00000000000000
00000000000000
00000000000000
00000000000000
00000000000000
00000000000000
00000000000000
ENDCHAR
STARTCHAR U+2018
ENCODING 8216
SWIDTH 245 0
DWIDTH 12 0
BBX 12 32 0 0
BITMAP
0100
0300
0600
0E00
0E00
1F00
1F00
1F80
0F00
0E00
0400
0000
0000
0000
0000
0000
0000
0000
0000
0000
0000
0000
0000
0000
0000
0000
0000
0000
0000
0000
0000
0000
ENDCHAR
STARTCHAR U+2019
ENCODING 8217
SWIDTH 245 0
DWIDTH 12 0
BBX 12 32 0 0
BITMAP
0400
0E00
1F00
3F00
1F80
0F00
0700
0700
0600
0C00
1000
0000
0000
0000
0000
0000
0000
0000
0000
0000
0000
0000
0000
0000
0000
0000
0000
0000
0000
0000
0000
0000
ENDCHAR
STARTCHAR U+201C
ENCODING 8220
SWIDTH 388 0
DWIDTH 19 0
BBX 19 32 0 0
BITMAP
010100
030600
060C00
0E1C00
0E1C00
1F1E00
1F1F00
1F9F80
0F1F00
0E0E00
040400
000000
000000
000000
000000
000000
000000
000000
000000
000000
000000
000000
000000
000000
000000
000000
000000
000000
000000
000000
000000
000000
ENDCHAR
STARTCHAR U+201D
ENCODING 8221
SWIDTH 388 0
DWIDTH 19 0
BBX 19 32 0 0
BITMAP
040800
0E1C00
1F3E00
3F7E00
1FBF00
0F1E00
070E00
070E00
060C00
0C1800
102000
000000
000000
000000
000000
000000
000000
000000
000000
000000
000000
000000
000000
000000
000000
000000
000000
000000
000000
000000
000000
000000
ENDCHAR
STARTCHAR U+2022
ENCODING 8226
SWIDTH 409 0
DWIDTH 20 0
BBX 20 20 0 0
BITMAP
004000
00E000
01F000
03F800
07FC00
0FFE00
0FFE00
07FC00
03F800
01F000
00E000
004000
000000
000000
000000
000000
000000
000000
000000
000000
ENDCHAR
STARTCHAR U+2026
ENCODING 8230
SWIDTH 878 0
DWIDTH 43 0
BBX 43 6 0 0
BITMAP
060006000C00
0F000F001E00
3F803F807F00
1F801F803F00
0E000E001C00
040004000800
ENDCHAR
STARTCHAR U+20AC
ENCODING 8364
SWIDTH 613 0
DWIDTH 30 0
BBX 30 32 0 0
BITMAP
0001FE00
000FFF80
003FFFE0
007FFFE0
00FE01E0
01F80060
03F00000
03E00000
07C00000
07C00000
0F800000
3FFFFC00
7FFFFC00
7FFFFC00
7FFFF800
0F000000
1F000000
0F000000
3FFFF000
7FFFF000
7FFFF000
7FFFF000
0FC00000
07C00000
07E00000
03F00000
01F80060
00FE01E0
007FFFE0
003FFFE0
000FFF80
0003FC00
ENDCHAR
ENDFONT
