STARTFONT 2.1
COMMENT Converted from Johnston100 W03 Regular.ttf at 48px with ttf2bdf.py (Pillow, 1-bit, no AA)
FONT -Misc-Johnston100-Medium-R-Normal--48-480-75-75-P-500-ISO10646-1
SIZE 48 75 75
FONTBOUNDINGBOX 50 55 -2 -12
STARTPROPERTIES 9
FOUNDRY "Misc"
FAMILY_NAME "Johnston100"
WEIGHT_NAME "Medium"
SLANT "R"
PIXEL_SIZE 48
RESOLUTION_X 75
RESOLUTION_Y 75
FONT_ASCENT 43
FONT_DESCENT 12
ENDPROPERTIES
CHARS 200
STARTCHAR space
ENCODING 32
SWIDTH 240 0
DWIDTH 12 0
BBX 12 55 0 -12
BITMAP
0000
0000
0000
0000
0000
0000
0000
0000
0000
0000
0000
0000
0000
0000
0000
0000
0000
0000
0000
0000
0000
0000
0000
0000
0000
0000
0000
0000
0000
0000
0000
0000
0000
0000
0000
0000
0000
0000
0000
0000
0000
0000
0000
0000
0000
0000
0000
0000
0000
0000
0000
0000
0000
0000
0000
ENDCHAR
STARTCHAR !
ENCODING 33
SWIDTH 280 0
DWIDTH 14 0
BBX 14 33 0 0
BITMAP
0FC0
0FC0
0FC0
0FC0
0FC0
0FC0
0F80
0F80
0F80
0F80
0F80
0780
0780
0780
0780
0780
0780
0780
0780
0780
0780
0780
0780
0700
0300
0000
0000
0300
0780
0FC0
0F80
0700
0200
ENDCHAR
STARTCHAR "
ENCODING 34
SWIDTH 400 0
DWIDTH 20 0
BBX 20 33 0 0
BITMAP
1F0F00
1F0F00
1F0F00
1F0F00
1F0F00
1F0F00
0F0F00
0E0F00
0E0700
0E0700
0E0700
0E0600
000000
000000
000000
000000
000000
000000
000000
000000
000000
000000
000000
000000
000000
000000
000000
000000
000000
000000
000000
000000
000000
ENDCHAR
STARTCHAR U+0023
ENCODING 35
SWIDTH 720 0
DWIDTH 36 0
BBX 36 33 0 0
BITMAP
0000200400
0001E03C00
0001E03C00
0003C03C00
0003C07800
0003C07800
0007807800
000780F000
000780F000
07FFFFFFE0
07FFFFFFE0
07FFFFFFC0
07FFFFFFC0
000E01E000
001E03C000
001E03C000
001E03C000
003C038000
003C078000
003C078000
3FFFFFFF00
3FFFFFFF00
3FFFFFFE00
3FFFFFFE00
00F00F0000
00F01E0000
00F01E0000
00E01E0000
01E01C0000
01E03C0000
01E03C0000
03C0380000
0300600000
ENDCHAR
STARTCHAR $
ENCODING 36
SWIDTH 480 0
DWIDTH 24 0
BBX 24 40 0 -4
BITMAP
007C00
007C00
007C00
00FE00
03FF80
07FFC0
0FFFE0
0FEFF0
1F81C0
1F0080
1F0000
1F0000
1F8000
1FC000
0FE000
0FF800
07FE00
03FF80
00FFC0
007FF0
001FF0
0007F8
0001FC
0000FC
00007C
00007C
00007C
00007C
1C007C
3E007C
3F00F8
3F83F8
1FFFF0
0FFFE0
07FFC0
01FF00
007C00
007C00
007C00
000000
ENDCHAR
STARTCHAR %
ENCODING 37
SWIDTH 720 0
DWIDTH 36 0
BBX 36 33 0 0
BITMAP
01F000F000
07FC00F000
0FFE01E000
1FFF01E000
1F1F03C000
1E0F03C000
3C07078000
3C07070000
1E0F0F0000
1F1F0E0000
1FFF1E0000
0FFE1C0000
07FC3C0000
01F0380000
0000780000
0000700000
0000F00000
0000E00000
0001E00000
0001C0F800
0003C3FE00
000387FF00
00078FFF00
00070F8F80
000F0F0780
000E1E0380
001E1E0380
003C0F0780
003C0F8F80
00780FFF00
007807FF00
00F003FE00
00F000F800
ENDCHAR
STARTCHAR &
ENCODING 38
SWIDTH 660 0
DWIDTH 33 0
BBX 33 33 0 0
BITMAP
001F800000
007FE00000
00FFF80000
01FFF80000
03F0FC0000
03E07C0000
03C07C0000
07C03C0000
03C07C0000
03E07C0000
03F0FC0000
01F1F80000
01FBF00000
00FFE00000
007FC00000
00FF000000
03FF807C00
07FFC07800
0FE7E0F800
1F83F0F800
1F01F9F000
1E00FDE000
3E007FE000
3E007FC000
3E003FC000
3F001F8000
1F003FC000
1FC1FFE000
1FFFFFF000
0FFFF9F800
07FFF0FC00
03FFC07E00
007F007F00
ENDCHAR
STARTCHAR '
ENCODING 39
SWIDTH 220 0
DWIDTH 11 0
BBX 11 33 0 0
BITMAP
1F00
1F00
1F00
1F00
1F00
1F00
0F00
0E00
0E00
0E00
0E00
0E00
0000
0000
0000
0000
0000
0000
0000
0000
0000
0000
0000
0000
0000
0000
0000
0000
0000
0000
0000
0000
0000
ENDCHAR
STARTCHAR (
ENCODING 40
SWIDTH 260 0
DWIDTH 13 0
BBX 13 39 0 -4
BITMAP
01E0
03E0
03C0
03C0
0780
0780
0780
0F80
0F00
0F00
0F00
1F00
1F00
1E00
1E00
1E00
1E00
1E00
1E00
1E00
1E00
1E00
1E00
1E00
1E00
1E00
1F00
1F00
0F00
0F00
0F00
0F80
0780
0780
0780
03C0
03C0
03E0
01E0
ENDCHAR
STARTCHAR )
ENCODING 41
SWIDTH 260 0
DWIDTH 13 0
BBX 13 39 0 -4
BITMAP
3C00
3C00
3E00
1E00
1E00
1F00
0F00
0F00
0F80
0780
0780
0780
0780
07C0
07C0
07C0
07C0
07C0
07C0
07C0
07C0
07C0
07C0
07C0
07C0
07C0
0780
0780
0780
0780
0F80
0F00
0F00
0F00
1E00
1E00
3E00
3C00
3C00
ENDCHAR
STARTCHAR *
ENCODING 42
SWIDTH 380 0
DWIDTH 19 0
BBX 19 33 0 0
BITMAP
00F000
00F000
00E000
10E100
1CE380
3EE7C0
1F6F80
07FE00
01FC00
03F000
077C00
1E6F00
3CE7C0
18E380
10E100
00E000
00F000
00F000
000000
000000
000000
000000
000000
000000
000000
000000
000000
000000
000000
000000
000000
000000
000000
ENDCHAR
STARTCHAR +
ENCODING 43
SWIDTH 520 0
DWIDTH 26 0
BBX 26 25 0 0
BITMAP
001E0000
001E0000
001E0000
001E0000
001E0000
001E0000
001E0000
1FFFFC00
1FFFFC00
1FFFFC00
1FFFFC00
001E0000
001E0000
001E0000
001E0000
001E0000
001E0000
001E0000
00000000
00000000
00000000
00000000
00000000
00000000
00000000
ENDCHAR
STARTCHAR ,
ENCODING 44
SWIDTH 240 0
DWIDTH 12 0
BBX 12 13 0 -6
BITMAP
0600
0F00
1F00
1F80
0F80
0F80
0700
0700
0600
0C00
1000
0000
0000
ENDCHAR
STARTCHAR -
ENCODING 45
SWIDTH 360 0
DWIDTH 18 0
BBX 18 15 0 0
BITMAP
3FFF80
3FFF80
3FFF80
3FFF80
000000
000000
000000
000000
000000
000000
000000
000000
000000
000000
000000
ENDCHAR
STARTCHAR .
ENCODING 46
SWIDTH 240 0
DWIDTH 12 0
BBX 12 6 0 0
BITMAP
0400
0E00
3F00
1F80
0F00
0600
ENDCHAR
STARTCHAR /
ENCODING 47
SWIDTH 320 0
DWIDTH 16 0
BBX 16 39 0 -4
BITMAP
001E
001E
003E
003C
003C
003C
007C
0078
0078
00F8
00F0
00F0
00F0
01F0
01E0
01E0
03E0
03C0
03C0
03C0
07C0
0780
0780
0F80
0F00
0F00
0F00
1F00
1E00
1E00
3E00
3C00
3C00
3C00
7800
7800
7800
F800
F000
ENDCHAR
STARTCHAR 0
ENCODING 48
SWIDTH 560 0
DWIDTH 28 0
BBX 28 33 0 0
BITMAP
001F8000
007FE000
00FFF000
01FFF800
03F0FC00
07E07C00
07C03E00
07803E00
0F801F00
0F801F00
0F001F00
0F001F00
1F000F00
1F000F00
1F000F80
1F000F80
1F000F80
1F000F80
1F000F00
1F000F00
1F000F00
1F001F00
0F001F00
0F801F00
0F801F00
07803E00
07C03E00
07E07C00
03F0FC00
01FFF800
00FFF000
007FE000
001F8000
ENDCHAR
STARTCHAR 1
ENCODING 49
SWIDTH 280 0
DWIDTH 14 0
BBX 14 33 0 0
BITMAP
0080
0180
0380
0780
0780
0780
0780
0780
0780
0780
0780
0780
0780
0780
0780
0780
0780
0780
0780
0780
0780
0780
0780
0780
0780
0780
0780
0780
0780
0780
0780
0780
0780
ENDCHAR
STARTCHAR 2
ENCODING 50
SWIDTH 480 0
DWIDTH 24 0
BBX 24 33 0 0
BITMAP
00FE00
03FF80
07FFE0
0FFFF0
0F83F0
0E01F8
0C00F8
0800F8
100078
000078
0000F8
0000F8
0000F8
0001F8
0001F0
0003F0
0007E0
0007E0
000FC0
001F80
001F80
003F00
003F00
007E00
00FC00
00FC00
01F800
03F000
03F000
07FFFC
0FFFFC
0FFFFC
1FFFFC
ENDCHAR
STARTCHAR 3
ENCODING 51
SWIDTH 500 0
DWIDTH 25 0
BBX 25 33 0 0
BITMAP
3FFFFC00
3FFFFC00
3FFFF800
3FFFF800
0003F000
0003E000
0007E000
0007C000
000F8000
001F8000
001F0000
003F0000
003F8000
007FE000
00FFF000
00FFF800
0003FC00
0000FC00
00007C00
00007E00
00003E00
00003E00
00003E00
00003E00
00003E00
00007C00
08007C00
1C00FC00
3F03F800
3FFFF000
1FFFE000
07FF8000
01FE0000
ENDCHAR
STARTCHAR 4
ENCODING 52
SWIDTH 560 0
DWIDTH 28 0
BBX 28 33 0 0
BITMAP
00000000
00000400
00000C00
00001C00
00003C00
00007C00
00007C00
0000FC00
0001FC00
0003FC00
0007FC00
000FFC00
000F7C00
001E7C00
003E7C00
007C7C00
00F87C00
01F07C00
03E07C00
03C07C00
07C07C00
0FFFFFC0
1FFFFFC0
3FFFFFC0
7FFFFFC0
00007C00
00007C00
00007C00
00007C00
00007C00
00007C00
00007C00
00007C00
ENDCHAR
STARTCHAR 5
ENCODING 53
SWIDTH 500 0
DWIDTH 25 0
BBX 25 33 0 0
BITMAP
03FFFC00
07FFFC00
07FFF800
07FFF800
07C00000
07C00000
07C00000
07800000
07800000
07800000
07800000
0FFE0000
0FFF8000
0FFFC000
0FFFE000
0C07F000
0001F800
0000F800
0000F800
00007C00
00007C00
00007C00
00007C00
00007C00
00007C00
2000F800
3000F800
7C01F000
FF07F000
7FFFE000
3FFFC000
0FFF0000
01FC0000
ENDCHAR
STARTCHAR 6
ENCODING 54
SWIDTH 520 0
DWIDTH 26 0
BBX 26 33 0 0
BITMAP
0007F000
000FE000
001F8000
003F0000
007E0000
007C0000
00F80000
01F80000
01F00000
03E00000
03C00000
07C00000
07FFC000
0FFFF000
0FFFF800
0FFFFC00
0FC0FE00
1F003E00
1F001F00
1F001F00
1F001F00
1F000F00
1F000F00
1F001F00
1F001F00
0F801F00
0F803E00
07C03E00
07F0FC00
03FFFC00
01FFF800
00FFE000
003F8000
ENDCHAR
STARTCHAR 7
ENCODING 55
SWIDTH 480 0
DWIDTH 24 0
BBX 24 33 0 0
BITMAP
1FFFFE
1FFFFC
1FFFFC
1FFFFC
0000F8
0001F8
0001F0
0001F0
0003E0
0003E0
0007C0
0007C0
000FC0
000F80
001F80
001F00
001F00
003E00
003E00
007E00
007C00
00FC00
00F800
01F800
01F000
01F000
03E000
03E000
07E000
07C000
0FC000
0F8000
0F8000
ENDCHAR
STARTCHAR 8
ENCODING 56
SWIDTH 500 0
DWIDTH 25 0
BBX 25 33 0 0
BITMAP
003F0000
00FFC000
03FFE000
03FFF000
07E1F800
0780F800
0F807800
0F807C00
0F807800
0F807800
0FC0F800
07E1F800
07FFF000
03FFE000
01FF8000
00FFC000
01FFF000
03FFF800
07E3FC00
0F80FC00
1F007E00
1F003E00
1E003E00
3E003E00
3E003E00
1E003E00
1F003E00
1F807C00
0FC1FC00
0FFFF800
07FFF000
01FFC000
007F0000
ENDCHAR
STARTCHAR 9
ENCODING 57
SWIDTH 520 0
DWIDTH 26 0
BBX 26 33 0 0
BITMAP
007E0000
03FFC000
07FFE000
0FFFF000
1F83F000
1F01F800
3E00F800
3E007C00
3C007C00
7C007C00
7C003C00
7C003C00
3C003C00
3E003C00
3F003C00
1F81FC00
1FFFFC00
0FFFFC00
07FFF800
00FFF800
0000F800
0001F000
0001F000
0003E000
0007E000
0007C000
000FC000
001F8000
003F0000
007E0000
00FC0000
01F80000
03F00000
ENDCHAR
STARTCHAR :
ENCODING 58
SWIDTH 280 0
DWIDTH 14 0
BBX 14 24 0 0
BITMAP
0200
0700
1F80
0FC0
0780
0300
0000
0000
0000
0000
0000
0000
0000
0000
0000
0000
0000
0000
0200
0700
1F80
0FC0
0780
0300
ENDCHAR
STARTCHAR ;
ENCODING 59
SWIDTH 280 0
DWIDTH 14 0
BBX 14 29 0 -6
BITMAP
0200
0700
1F80
0FC0
0780
0300
0000
0000
0000
0000
0000
0000
0000
0000
0000
0000
0000
0180
03C0
07C0
07E0
03E0
03E0
01C0
01C0
0180
0300
0400
0000
ENDCHAR
STARTCHAR U+003C
ENCODING 60
SWIDTH 520 0
DWIDTH 26 0
BBX 26 28 0 0
BITMAP
00000400
00001C00
00007C00
0001FC00
0007FC00
001FF800
00FFC000
03FF0000
0FFC0000
1FE00000
1F800000
1FE00000
0FF80000
03FE0000
00FF8000
003FE000
000FF800
0003FC00
0001FC00
00007C00
00001C00
00000400
00000000
00000000
00000000
00000000
00000000
00000000
ENDCHAR
STARTCHAR =
ENCODING 61
SWIDTH 520 0
DWIDTH 26 0
BBX 26 23 0 0
BITMAP
1FFFFC00
1FFFFC00
1FFFFC00
1FFFFC00
00000000
00000000
00000000
00000000
00000000
00000000
1FFFFC00
1FFFFC00
1FFFFC00
1FFFFC00
00000000
00000000
00000000
00000000
00000000
00000000
00000000
00000000
00000000
ENDCHAR
STARTCHAR U+003E
ENCODING 62
SWIDTH 520 0
DWIDTH 26 0
BBX 26 28 0 0
BITMAP
18000000
1E000000
1F800000
1FE00000
1FF80000
07FE0000
01FF8000
003FE000
000FF800
0003FC00
00007C00
0001FC00
0007FC00
001FF000
007FC000
01FF0000
07FC0000
1FF00000
1FC00000
1F000000
1E000000
18000000
00000000
00000000
00000000
00000000
00000000
00000000
ENDCHAR
STARTCHAR ?
ENCODING 63
SWIDTH 440 0
DWIDTH 22 0
BBX 22 33 0 0
BITMAP
03F800
0FFF00
1FFF80
3FFFC0
7E0FC0
3C03E0
1003E0
0003E0
0003E0
0003E0
0007E0
000FC0
001FC0
007F80
00FE00
01FC00
03F000
03E000
03E000
03E000
03E000
01F000
01F000
00E000
004000
000000
004000
00E000
01F000
03F800
01F800
00E000
004000
ENDCHAR
STARTCHAR @
ENCODING 64
SWIDTH 920 0
DWIDTH 46 0
BBX 46 42 0 -9
BITMAP
00001FF80000
0000FFFF8000
0003FFFFE000
000FFFFFF000
001FF007FC00
003F8000FE00
007E00003F00
00F800001F00
01F000000F80
03E007F087C0
03C03FFF83C0
07C07FFF03C0
0780FFFF01E0
0F01FC1F01E0
0F01F00F01E0
0F03E00F01E0
1E03C00F00E0
1E07C00F00F0
1E07800F00F0
1E07801F00E0
1E07801E01E0
1E07801E01E0
1E07801E01E0
1E07801E01E0
1E07801E03C0
1E07801E03C0
1E07C01E07C0
1E03E03F0F80
1F03F07FFF00
0F01FFFFFE00
0F80FFE7FC00
07807FC3F000
07C01F000000
03E000000000
03F000000000
01F800010000
00FE00070000
007FC03F0000
003FFFFF0000
000FFFFE0000
0003FFF80000
00007FC00000
ENDCHAR
STARTCHAR A
ENCODING 65
SWIDTH 640 0
DWIDTH 32 0
BBX 32 33 0 0
BITMAP
0003C000
0007E000
0007E000
000FE000
000FF000
000FF000
001FF800
001FF800
001E7800
003E7C00
003E7C00
007C3E00
007C3E00
00781E00
00F81F00
00F81F00
01F00F80
01F00F80
01E007C0
03E007C0
03FFFFC0
07FFFFE0
07FFFFE0
07FFFFF0
0F8001F0
0F8001F0
1F0000F8
1F0000F8
1F00007C
3E00007C
3E00007C
3E00003E
7C00003E
ENDCHAR
STARTCHAR B
ENCODING 66
SWIDTH 580 0
DWIDTH 29 0
BBX 29 33 0 0
BITMAP
07FF8000
07FFF000
07FFF800
07FFFC00
0780FC00
07807E00
07803E00
07803E00
07803E00
07803E00
07803E00
07807C00
0780FC00
07FFF800
07FFF800
07FFFE00
07FFFF00
07803F80
07800FC0
078007C0
078007C0
078007E0
078003E0
078003E0
078007E0
078007C0
078007C0
07800FC0
07803F80
07FFFF00
07FFFE00
07FFFC00
07FFE000
ENDCHAR
STARTCHAR C
ENCODING 67
SWIDTH 660 0
DWIDTH 33 0
BBX 33 33 0 0
BITMAP
0000FF0000
0007FFE000
001FFFF800
007FFFFC00
00FF00FC00
01FC001C00
03F0000400
07E0000000
07C0000000
0FC0000000
0F80000000
1F80000000
1F00000000
1F00000000
1F00000000
1F00000000
1F00000000
1F00000000
1F00000000
1F00000000
1F00000000
1F80000000
0F80000000
0FC0000000
07C0000000
03E0000000
03F0000400
01FC001C00
00FF00FC00
007FFFFC00
001FFFF800
0007FFE000
0000FF0000
ENDCHAR
STARTCHAR D
ENCODING 68
SWIDTH 700 0
DWIDTH 35 0
BBX 35 33 0 0
BITMAP
07FFE00000
07FFFC0000
07FFFF0000
07FFFFC000
07803FE000
078007F000
078003F800
078000FC00
0780007C00
0780007E00
0780003E00
0780003F00
0780001F00
0780001F00
0780001F00
0780001F00
0780001F00
0780001F00
0780001F00
0780001F00
0780001F00
0780003E00
0780003E00
0780007E00
0780007C00
078000FC00
078003F800
078007F000
07803FE000
07FFFFC000
07FFFF0000
07FFFC0000
07FFE00000
ENDCHAR
STARTCHAR E
ENCODING 69
SWIDTH 560 0
DWIDTH 28 0
BBX 28 33 0 0
BITMAP
07FFFF80
07FFFF80
07FFFF80
07FFFF80
07800000
07800000
07800000
07800000
07800000
07800000
07800000
07800000
07800000
07FFF800
07FFF800
07FFF800
07FFF800
07800000
07800000
07800000
07800000
07800000
07800000
07800000
07800000
07800000
07800000
07800000
07800000
07FFFFC0
07FFFFC0
07FFFFC0
07FFFFC0
ENDCHAR
STARTCHAR F
ENCODING 70
SWIDTH 500 0
DWIDTH 25 0
BBX 25 33 0 0
BITMAP
07FFFF00
07FFFF00
07FFFF00
07FFFF00
07800000
07800000
07800000
07800000
07800000
07800000
07800000
07800000
07800000
07FFF000
07FFF000
07FFF000
07FFF000
07800000
07800000
07800000
07800000
07800000
07800000
07800000
07800000
07800000
07800000
07800000
07800000
07800000
07800000
07800000
07800000
ENDCHAR
STARTCHAR G
ENCODING 71
SWIDTH 700 0
DWIDTH 35 0
BBX 35 33 0 0
BITMAP
0000FF8000
0007FFF000
001FFFFC00
007FFFFE00
00FF80FE00
01FC001E00
03F8000600
07E0000200
07C0000000
0FC0000000
0F80000000
1F80000000
1F00000000
1F00000000
1F000FFF00
1F000FFF00
1F000FFF00
1F000FFF00
1F00001F00
1F00001F00
1F00001F00
1F80001F00
0F80001F00
0FC0001F00
07C0001F00
07E0001F00
03F0001F00
01FC001F00
00FF007F00
007FFFFF00
003FFFFF00
000FFFFC00
0001FFC000
ENDCHAR
STARTCHAR H
ENCODING 72
SWIDTH 700 0
DWIDTH 35 0
BBX 35 33 0 0
BITMAP
0780003E00
0780003E00
0780003E00
0780003E00
0780003E00
0780003E00
0780003E00
0780003E00
0780003E00
0780003E00
0780003E00
0780003E00
0780003E00
07FFFFFE00
07FFFFFE00
07FFFFFE00
07FFFFFE00
0780003E00
0780003E00
0780003E00
0780003E00
0780003E00
0780003E00
0780003E00
0780003E00
0780003E00
0780003E00
0780003E00
0780003E00
0780003E00
0780003E00
0780003E00
0780003E00
ENDCHAR
STARTCHAR I
ENCODING 73
SWIDTH 280 0
DWIDTH 14 0
BBX 14 33 0 0
BITMAP
0780
0780
0780
0780
0780
0780
0780
0780
0780
0780
0780
0780
0780
0780
0780
0780
0780
0780
0780
0780
0780
0780
0780
0780
0780
0780
0780
0780
0780
0780
0780
0780
0780
ENDCHAR
STARTCHAR J
ENCODING 74
SWIDTH 460 0
DWIDTH 23 0
BBX 23 33 0 0
BITMAP
0003E0
0003E0
0003E0
0003E0
0003E0
0003E0
0003E0
0003E0
0003E0
0003E0
0003E0
0003E0
0003E0
0003E0
0003E0
0003E0
0003E0
0003E0
0003E0
0003E0
0003E0
0003E0
0003E0
0003E0
0003E0
0803E0
3C07C0
7C07C0
3F0F80
3FFF80
1FFF00
0FFE00
03F800
ENDCHAR
STARTCHAR K
ENCODING 75
SWIDTH 600 0
DWIDTH 30 0
BBX 30 33 0 0
BITMAP
078003F8
078007F0
07800FC0
07801F80
07803F00
07807E00
0780FC00
0781F800
0787F000
078FE000
079FC000
07BF8000
07FF0000
07FE0000
07FC0000
07FE0000
07FE0000
07BF0000
079F8000
079FC000
078FE000
0787F000
0783F800
0781FC00
0780FC00
07807E00
07803F00
07801F80
07800FC0
07800FE0
078007F0
078003F8
078001FC
ENDCHAR
STARTCHAR L
ENCODING 76
SWIDTH 520 0
DWIDTH 26 0
BBX 26 33 0 0
BITMAP
07800000
07800000
07800000
07800000
07800000
07800000
07800000
07800000
07800000
07800000
07800000
07800000
07800000
07800000
07800000
07800000
07800000
07800000
07800000
07800000
07800000
07800000
07800000
07800000
07800000
07800000
07800000
07800000
07800000
07FFFF80
07FFFF80
07FFFF80
07FFFF80
ENDCHAR
STARTCHAR M
ENCODING 77
SWIDTH 840 0
DWIDTH 42 0
BBX 42 33 0 0
BITMAP
07C00000F800
07E00001F800
07E00003F800
07F00007F800
07F8000FF800
07FC000FF800
07FE001FF800
07FF003FF800
07BF007EF800
079F80FCF800
078FC0FCF800
0787E1F8F800
0787F3F0F800
0783F7E0F800
0781FFC0F800
0780FFC0F800
07807F80F800
07803F00F800
07803E00F800
07801C00F800
07800C00F800
07800000F800
07800000F800
07800000F800
07800000F800
07800000F800
07800000F800
07800000F800
07800000F800
07800000F800
07800000F800
07800000F800
07800000F800
ENDCHAR
STARTCHAR N
ENCODING 78
SWIDTH 740 0
DWIDTH 37 0
BBX 37 33 0 0
BITMAP
0780000F80
07C0000F80
07E0000F80
07F0000F80
07F0000F80
07F8000F80
07FC000F80
07FE000F80
07BE000F80
07BF000F80
079F800F80
078FC00F80
0787E00F80
0787E00F80
0783F00F80
0781F80F80
0780FC0F80
0780FC0F80
07807E0F80
07803F0F80
07801F8F80
07801F8F80
07800FCF80
078007EF80
078003FF80
078001FF80
078001FF80
078000FF80
0780007F80
0780003F80
0780003F80
0780001F80
0780000F80
ENDCHAR
STARTCHAR O
ENCODING 79
SWIDTH 780 0
DWIDTH 39 0
BBX 39 33 0 0
BITMAP
0001FF0000
0007FFE000
001FFFF800
007FFFFC00
00FF01FE00
01FC003F00
03F0001F80
07E0000FC0
07C00007E0
0FC00003E0
0F800003F0
1F800001F0
1F000001F0
1F000001F0
1F000000F8
1F000000F8
1F000000F8
1F000000F8
1F000000F8
1F000001F0
1F000001F0
1F800001F0
0F800003F0
0FC00003E0
07C00007E0
07E0000FC0
03F0001F80
01FC003F00
00FF01FE00
007FFFFC00
001FFFF800
0007FFE000
0001FF0000
ENDCHAR
STARTCHAR P
ENCODING 80
SWIDTH 560 0
DWIDTH 28 0
BBX 28 33 0 0
BITMAP
07FFE000
07FFFC00
07FFFE00
07FFFF00
07807F80
07801F80
07800FC0
078007C0
078007C0
078007C0
078007C0
078007C0
078007C0
07800F80
07801F80
07807F00
07FFFF00
07FFFE00
07FFF800
07FFE000
07800000
07800000
07800000
07800000
07800000
07800000
07800000
07800000
07800000
07800000
07800000
07800000
07800000
ENDCHAR
STARTCHAR Q
ENCODING 81
SWIDTH 780 0
DWIDTH 39 0
BBX 39 34 0 -1
BITMAP
0001FF0000
0007FFE000
001FFFF800
007FFFFC00
00FF01FE00
01FC003F00
03F0001F80
07E0000FC0
07C00007E0
0FC00003E0
0F800003F0
1F800001F0
1F000001F0
1F000001F0
1F000000F8
1F000000F8
1F000000F8
1F000000F8
1F000000F8
1F000001F0
1F000001F0
1F800041F0
0F8000E3F0
0FC001F3E0
07C001FFE0
07E000FFC0
03F0007F80
01FC003F80
00FF01FFC0
007FFFFFE0
001FFFFFE0
0007FFE3F0
0001FF01E0
0000000080
ENDCHAR
STARTCHAR R
ENCODING 82
SWIDTH 580 0
DWIDTH 29 0
BBX 29 33 0 0
BITMAP
07FF8000
07FFF000
07FFF800
07FFFC00
0780FE00
07803E00
07801F00
07801F00
07801F00
07801F00
07801F00
07801F00
07803E00
0780FE00
07FFFC00
07FFFC00
07FFF000
07FFC000
0787E000
0787E000
0783F000
0781F800
0781FC00
0780FC00
07807E00
07803F00
07803F00
07801F80
07800FC0
07800FC0
078007E0
078003F0
078003F8
ENDCHAR
STARTCHAR S
ENCODING 83
SWIDTH 480 0
DWIDTH 24 0
BBX 24 33 0 0
BITMAP
00FE00
03FF80
07FFC0
0FFFE0
0F83F0
1F01C0
1F0080
1F0000
1F0000
1F8000
1FC000
0FE000
0FF800
07FE00
03FF80
00FFE0
003FF0
000FF8
0003F8
0001FC
0000FC
00007C
00007C
00007C
08007C
1C007C
7E007C
3F00F8
3F83F8
1FFFF0
0FFFE0
03FF80
00FE00
ENDCHAR
STARTCHAR T
ENCODING 84
SWIDTH 560 0
DWIDTH 28 0
BBX 28 33 0 0
BITMAP
7FFFFFE0
7FFFFFE0
7FFFFFE0
7FFFFFE0
001F0000
001F0000
001F0000
001F0000
001F0000
001F0000
001F0000
001F0000
001F0000
001F0000
001F0000
001F0000
001F0000
001F0000
001F0000
001F0000
001F0000
001F0000
001F0000
001F0000
001F0000
001F0000
001F0000
001F0000
001F0000
001F0000
001F0000
001F0000
001F0000
ENDCHAR
STARTCHAR U
ENCODING 85
SWIDTH 740 0
DWIDTH 37 0
BBX 37 33 0 0
BITMAP
0F80000F80
0F80000F80
0F80000F80
0F80000F80
0F80000F80
0F80000F80
0F80000F80
0F80000F80
0F80000F80
0F80000F80
0F80000F80
0F80000F80
0F80000F80
0F80000F80
0F80000F80
0F80000F80
0F80000F80
0F80000F80
0F80000F80
0F80000F80
0F80000F80
0F80000F80
07C0001F00
07C0001F00
07E0001F00
03E0003E00
03F0007E00
01F800FC00
00FE03F800
007FFFF000
003FFFE000
000FFF8000
0001FE0000
ENDCHAR
STARTCHAR V
ENCODING 86
SWIDTH 620 0
DWIDTH 31 0
BBX 31 33 0 0
BITMAP
7C0000FC
3E0000F8
3E0000F8
3F0001F8
1F0001F0
1F0001F0
1F8003F0
0F8003E0
0F8003E0
07C007C0
07C007C0
07C007C0
03E00F80
03E00F80
03E00F80
01F01F00
01F01F00
00F81F00
00F83E00
00F83E00
007C3C00
007C7C00
007C7C00
003E7800
003EF800
001EF800
001FF000
001FF000
000FF000
000FE000
000FE000
0007C000
0007C000
ENDCHAR
STARTCHAR W
ENCODING 87
SWIDTH 940 0
DWIDTH 47 0
BBX 47 33 0 0
BITMAP
3E00000000F8
3E0007C000F8
3F0007E000F8
1F000FE001F0
1F000FE001F0
1F000FE001F0
0F801FF003E0
0F801FF003E0
0F801EF003E0
07C01EF803E0
07C03EF807C0
07C03E7807C0
07C03C7C07C0
03E07C7C0780
03E07C7C0F80
03E0783C0F80
01F0783E0F80
01F0F83E1F00
01F0F01E1F00
01F0F01F1F00
00F9F01F1E00
00F9F00F3E00
00F9E00FBE00
007DE00FBE00
007FE00FBC00
007FC007FC00
007FC007FC00
003FC007F800
003FC003F800
003F8003F800
001F8003F800
001F8001F000
001F0001F000
ENDCHAR
STARTCHAR X
ENCODING 88
SWIDTH 660 0
DWIDTH 33 0
BBX 33 33 0 0
BITMAP
3E0000FC00
3F0001F800
1F8001F800
0FC003F000
07E007E000
07E007C000
03F00FC000
01F81F8000
00FC3F0000
00FC3E0000
007E7E0000
003FFC0000
001FF80000
001FF80000
000FF00000
0007E00000
000FF00000
000FF00000
001FF80000
003FFC0000
003E7E0000
007E7E0000
00FC3F0000
01F81F8000
01F00FC000
03F007C000
07E007E000
0FC003F000
0FC001F800
1F8000F800
3F0000FC00
3E00007E00
7E00003F00
ENDCHAR
STARTCHAR Y
ENCODING 89
SWIDTH 580 0
DWIDTH 29 0
BBX 29 33 0 0
BITMAP
7E0003F0
3E0003E0
3F0007E0
1F0007C0
0F800F80
0FC00F80
07C01F00
07E03F00
03E03E00
01F07C00
01F07C00
00F8F800
007CF800
007DF000
003FE000
003FE000
001FC000
000F8000
000F8000
000F8000
000F8000
000F8000
000F8000
000F8000
000F8000
000F8000
000F8000
000F8000
000F8000
000F8000
000F8000
000F8000
000F8000
ENDCHAR
STARTCHAR Z
ENCODING 90
SWIDTH 600 0
DWIDTH 30 0
BBX 30 33 0 0
BITMAP
3FFFFFF8
3FFFFFF0
3FFFFFE0
3FFFFFE0
00000FC0
00001F80
00001F80
00003F00
00007E00
00007E00
0000FC00
0001F800
0001F800
0003F000
0007E000
0007E000
000FC000
001F8000
001F8000
003F0000
007E0000
007E0000
00FC0000
01F80000
01F80000
03F00000
07E00000
07E00000
0FC00000
1FFFFFF8
1FFFFFF8
3FFFFFF8
3FFFFFF8
ENDCHAR
STARTCHAR [
ENCODING 91
SWIDTH 320 0
DWIDTH 16 0
BBX 16 44 0 -6
BITMAP
0FFC
0FFC
0FFC
0F00
0F00
0F00
0F00
0F00
0F00
0F00
0F00
0F00
0F00
0F00
0F00
0F00
0F00
0F00
0F00
0F00
0F00
0F00
0F00
0F00
0F00
0F00
0F00
0F00
0F00
0F00
0F00
0F00
0F00
0F00
0F00
0F00
0F00
0F00
0F00
0F00
0FFC
0FFC
0FFC
0FFC
ENDCHAR
STARTCHAR \
ENCODING 92
SWIDTH 320 0
DWIDTH 16 0
BBX 16 39 0 -4
BITMAP
F000
F800
7800
7800
7C00
3C00
3C00
3C00
3E00
1E00
1E00
1F00
0F00
0F00
0F00
0F80
0780
0780
07C0
03C0
03C0
03C0
01E0
01E0
01E0
01F0
00F0
00F0
00F0
0078
0078
0078
007C
003C
003C
003C
001E
001E
001E
ENDCHAR
STARTCHAR ]
ENCODING 93
SWIDTH 320 0
DWIDTH 16 0
BBX 16 43 0 -5
BITMAP
3FF0
3FF0
3FF0
3FF0
00F0
00F0
00F0
00F0
00F0
00F0
00F0
00F0
00F0
00F0
00F0
00F0
00F0
00F0
00F0
00F0
00F0
00F0
00F0
00F0
00F0
00F0
00F0
00F0
00F0
00F0
00F0
00F0
00F0
00F0
00F0
00F0
00F0
00F0
00F0
00F0
3FF0
3FF0
3FF0
ENDCHAR
STARTCHAR ^
ENCODING 94
SWIDTH 560 0
DWIDTH 28 0
BBX 28 33 0 0
BITMAP
001F0000
003F8000
003FC000
007FE000
00F9E000
00F1F000
01F0F800
03E07800
03C07C00
07C03E00
0F801F00
1F001F00
1F000F80
00000000
00000000
00000000
00000000
00000000
00000000
00000000
00000000
00000000
00000000
00000000
00000000
00000000
00000000
00000000
00000000
00000000
00000000
00000000
00000000
ENDCHAR
STARTCHAR _
ENCODING 95
SWIDTH 480 0
DWIDTH 24 0
BBX 26 6 -1 -6
BITMAP
00000000
00000000
00000000
00000000
FFFFFF00
FFFFFF00
ENDCHAR
STARTCHAR `
ENCODING 96
SWIDTH 440 0
DWIDTH 22 0
BBX 22 33 0 0
BITMAP
FFFFFC
FFFFFC
FFFFFC
FFFFFC
F0003C
F0003C
F0003C
F0003C
F0003C
F0003C
F0003C
F0003C
F0003C
F0003C
F0003C
F0003C
F0003C
F0003C
F0003C
F0003C
F0003C
F0003C
F0003C
F0003C
F0003C
F0003C
F0003C
F0003C
F0003C
FFFFFC
FFFFFC
FFFFFC
FFFFFC
ENDCHAR
STARTCHAR a
ENCODING 97
SWIDTH 500 0
DWIDTH 25 0
BBX 25 24 0 0
BITMAP
00FF0000
07FFC000
07FFE000
0FFFF000
0F03F000
0C01F800
1000F800
0000F800
00007800
000FF800
00FFF800
03FFF800
07F07800
0FC07800
1F007800
1E007800
3E007800
3E007800
3E00F800
1F07F800
1FFFF800
0FFFF800
07FE7800
01F87800
ENDCHAR
STARTCHAR b
ENCODING 98
SWIDTH 580 0
DWIDTH 29 0
BBX 29 33 0 0
BITMAP
0F000000
0F000000
0F000000
0F000000
0F000000
0F000000
0F000000
0F000000
0F000000
0F0FC000
0F3FF800
0FFFFC00
0FFFFE00
0FE07F00
0F801F80
0F000F80
0F0007C0
0F0007C0
0F0003C0
0F0003E0
0F0003E0
0F0003E0
0F0003E0
0F0003C0
0F0007C0
0F0007C0
0F000F80
0F801F80
0FE07F00
0FFFFE00
0FFFFC00
0F7FF800
0F1FC000
ENDCHAR
STARTCHAR c
ENCODING 99
SWIDTH 480 0
DWIDTH 24 0
BBX 24 24 0 0
BITMAP
001FE0
007FFC
01FFFC
03FFFC
07F03C
0FC004
0F8000
1F0000
1F0000
1E0000
3E0000
3E0000
3E0000
3E0000
3E0000
1F0000
1F0000
0F8000
0FC004
07F01C
03FFFC
01FFFC
007FFC
001FF0
ENDCHAR
STARTCHAR d
ENCODING 100
SWIDTH 580 0
DWIDTH 29 0
BBX 29 33 0 0
BITMAP
00000F80
00000F80
00000F80
00000F80
00000F80
00000F80
00000F80
00000F80
00000F80
001F8F80
00FFFF80
01FFFF80
03FFFF80
07F03F80
0FC01F80
1F800F80
1F000F80
1F000F80
1E000F80
3E000F80
3E000F80
3E000F80
3E000F80
3E000F80
1F000F80
1F000F80
1F800F80
0FC00F80
07F03F80
03FFFF80
01FFFF80
00FFF780
001FC780
ENDCHAR
STARTCHAR e
ENCODING 101
SWIDTH 520 0
DWIDTH 26 0
BBX 26 24 0 0
BITMAP
003F8000
00FFE000
01FFF800
03FFFC00
07E0FC00
0FC03E00
1F803E00
1F001F00
1F001F00
1E001F00
3FFFFF00
3FFFFF00
3FFFFF00
3FFFFF00
3E000000
1E000000
1F000000
1F800100
0FC00700
07F03F00
03FFFF00
01FFFF00
00FFFC00
001FE000
ENDCHAR
STARTCHAR f
ENCODING 102
SWIDTH 380 0
DWIDTH 19 0
BBX 19 33 0 0
BITMAP
003FC0
00FFC0
01FFC0
03FFC0
07E000
07C000
078000
078000
078000
7FFFC0
7FFFC0
7FFFC0
7FFFC0
078000
078000
078000
078000
078000
078000
078000
078000
078000
078000
078000
078000
078000
078000
078000
078000
078000
078000
078000
078000
ENDCHAR
STARTCHAR g
ENCODING 103
SWIDTH 500 0
DWIDTH 25 0
BBX 25 33 0 -9
BITMAP
00FFFF00
03FFFF00
07FFFF00
0FFFFF00
1F83F000
1F00F800
3E00F800
3E007800
3E007800
1E00F800
1F00F800
1F83F000
0FFFF000
07FFE000
07FF8000
07FE0000
0F000000
0F800000
0FF00000
07FF0000
03FFE000
0FFFF800
1F0FFC00
3E01FE00
7C003E00
78001E00
78001E00
7C001E00
7F007E00
3FFFFE00
1FFFFC00
0FFFF000
01FF8000
ENDCHAR
STARTCHAR h
ENCODING 104
SWIDTH 580 0
DWIDTH 29 0
BBX 29 33 0 0
BITMAP
0F000000
0F000000
0F000000
0F000000
0F000000
0F000000
0F000000
0F000000
0F000000
0F0FE000
0F7FF800
0FFFFC00
0FFFFE00
0FF07F00
0F801F00
0F000F80
0F000F80
0F000F80
0F000780
0F000780
0F000780
0F000780
0F000780
0F000780
0F000780
0F000780
0F000780
0F000780
0F000780
0F000780
0F000780
0F000780
0F000780
ENDCHAR
STARTCHAR i
ENCODING 105
SWIDTH 240 0
DWIDTH 12 0
BBX 12 32 0 0
BITMAP
0600
0F00
1F80
1F80
0F00
0600
0000
0F00
0F00
0F00
0F00
0F00
0F00
0F00
0F00
0F00
0F00
0F00
0F00
0F00
0F00
0F00
0F00
0F00
0F00
0F00
0F00
0F00
0F00
0F00
0F00
0000
ENDCHAR
STARTCHAR j
ENCODING 106
SWIDTH 240 0
DWIDTH 12 0
BBX 13 40 -1 -9
BITMAP
0100
0380
07C0
0FC0
0780
0300
0100
0780
0780
0780
0780
0780
0780
0780
0780
0780
0780
0780
0780
0780
0780
0780
0780
0780
0780
0780
0780
0780
0780
0780
0780
0780
0780
0780
0F80
0F80
FF00
FF00
FE00
F800
ENDCHAR
STARTCHAR k
ENCODING 107
SWIDTH 500 0
DWIDTH 25 0
BBX 26 33 0 0
BITMAP
0F000000
0F000000
0F000000
0F000000
0F000000
0F000000
0F000000
0F000000
0F000000
0F003F00
0F007E00
0F01FC00
0F03F800
0F07F000
0F0FC000
0F1F8000
0F3F0000
0F7E0000
0FFC0000
0FF80000
0FFC0000
0FFE0000
0F7E0000
0F3F0000
0F1F8000
0F0FC000
0F07E000
0F03F000
0F01F800
0F00FC00
0F007E00
0F003F00
0F003F80
ENDCHAR
STARTCHAR l
ENCODING 108
SWIDTH 300 0
DWIDTH 15 0
BBX 15 33 0 0
BITMAP
0F00
0F00
0F00
0F00
0F00
0F00
0F00
0F00
0F00
0F00
0F00
0F00
0F00
0F00
0F00
0F00
0F00
0F00
0F00
0F00
0F00
0F00
0F00
0F00
0F00
0F00
0F00
0F80
0F80
0FFE
07FE
03FE
00FE
ENDCHAR
STARTCHAR m
ENCODING 109
SWIDTH 900 0
DWIDTH 45 0
BBX 45 24 0 0
BITMAP
0F0FC01FE000
0F7FF87FF800
0FFFFDFFFC00
0FFFFFFFFE00
0FE07FF07F00
0F803FC01F00
0F001F801F80
0F000F000F80
0F000F800F80
0F000F800F80
0F000F800F80
0F000F800F80
0F000F800F80
0F000F800F80
0F000F800F80
0F000F800F80
0F000F800F80
0F000F800F80
0F000F800F80
0F000F800F80
0F000F800F80
0F000F800F80
0F000F800F80
0F000F800F80
ENDCHAR
STARTCHAR n
ENCODING 110
SWIDTH 580 0
DWIDTH 29 0
BBX 29 24 0 0
BITMAP
0F0FE000
0F7FF800
0FFFFC00
0FFFFE00
0FF07F00
0F801F00
0F000F80
0F000F80
0F000F80
0F000780
0F000780
0F000780
0F000780
0F000780
0F000780
0F000780
0F000780
0F000780
0F000780
0F000780
0F000780
0F000780
0F000780
0F000780
ENDCHAR
STARTCHAR o
ENCODING 111
SWIDTH 580 0
DWIDTH 29 0
BBX 29 24 0 0
BITMAP
001FC000
00FFF800
01FFFC00
03FFFF00
07F07F00
0FC01F80
0F800FC0
1F0007C0
1F0003C0
1E0003E0
3E0003E0
3E0003E0
3E0003E0
3E0003E0
1E0003E0
1F0003C0
1F0007C0
0F800FC0
0FC01F80
07F07F00
03FFFE00
01FFFC00
00FFF800
001FC000
ENDCHAR
STARTCHAR p
ENCODING 112
SWIDTH 580 0
DWIDTH 29 0
BBX 29 33 0 -9
BITMAP
0F1FC000
0F7FF800
0FFFFC00
0FFFFE00
0FE07F00
0F801F80
0F000F80
0F0007C0
0F0007C0
0F0003C0
0F0003E0
0F0003E0
0F0003E0
0F0003C0
0F0003C0
0F0007C0
0F0007C0
0F000F80
0F801F80
0FE07F00
0FFFFE00
0FFFFC00
0F7FF800
0F1FC000
0F000000
0F000000
0F000000
0F000000
0F000000
0F000000
0F000000
0F000000
0F000000
ENDCHAR
STARTCHAR q
ENCODING 113
SWIDTH 580 0
DWIDTH 29 0
BBX 29 33 0 -9
BITMAP
001FC780
00FFF780
01FFFF80
03FFFF80
07F03F80
0FC00F80
1F800F80
1F000F80
1F000F80
1E000F80
3E000F80
3E000F80
3E000F80
3E000F80
3E000F80
1F000F80
1F000F80
1F800F80
0FC00F80
07F03F80
03FFFF80
01FFFF80
00FFFF80
001FCF80
00000F80
00000F80
00000F80
00000F80
00000F80
00000F80
00000F80
00000F80
00000F80
ENDCHAR
STARTCHAR r
ENCODING 114
SWIDTH 380 0
DWIDTH 19 0
BBX 19 24 0 0
BITMAP
0F1FC0
0F7FC0
0FFFC0
0FFFC0
0FE000
0F8000
0F0000
0F0000
0F0000
0F0000
0F0000
0F0000
0F0000
0F0000
0F0000
0F0000
0F0000
0F0000
0F0000
0F0000
0F0000
0F0000
0F0000
0F0000
ENDCHAR
STARTCHAR s
ENCODING 115
SWIDTH 460 0
DWIDTH 23 0
BBX 23 24 0 0
BITMAP
00FF00
03FFE0
0FFFE0
0FFFE0
1F81E0
1E0020
1E0000
1F0000
1F8000
1FF800
0FFF80
07FFC0
01FFE0
001FF0
0003F8
0000F8
0000F8
3000F8
3800F8
3F01F0
3FFFF0
3FFFE0
0FFFC0
01FE00
ENDCHAR
STARTCHAR t
ENCODING 116
SWIDTH 400 0
DWIDTH 20 0
BBX 20 29 0 0
BITMAP
078000
078000
078000
078000
078000
7FFFC0
7FFFC0
7FFFC0
7FFFC0
078000
078000
078000
078000
078000
078000
078000
078000
078000
078000
078000
078000
078000
078000
07C000
07E000
03FFC0
01FFC0
00FFC0
007FC0
ENDCHAR
STARTCHAR u
ENCODING 117
SWIDTH 580 0
DWIDTH 29 0
BBX 29 24 0 0
BITMAP
0F000F80
0F000F80
0F000F80
0F000F80
0F000F80
0F000F80
0F000F80
0F000F80
0F000F80
0F000F80
0F000F80
0F000F80
0F000F80
0F000F80
0F000F80
0F000F80
0F800F80
0F800F80
0FC01F80
07F07F80
03FFFF80
03FFFF80
00FFEF80
003F8F80
ENDCHAR
STARTCHAR v
ENCODING 118
SWIDTH 520 0
DWIDTH 26 0
BBX 26 24 0 0
BITMAP
7C000F80
7C000F80
3E001F00
3E001F00
1F003E00
1F003E00
1F003E00
0F807C00
0F807C00
07C0F800
07C0F800
03C0F000
03E1F000
03E1F000
01F1E000
01F3E000
00F3C000
00FFC000
007F8000
007F8000
007F8000
003F0000
003F0000
001E0000
ENDCHAR
STARTCHAR w
ENCODING 119
SWIDTH 820 0
DWIDTH 41 0
BBX 41 24 0 0
BITMAP
7E003E001F00
3E003E001F00
3E003F003E00
3E007F003E00
1F007F003E00
1F007F807C00
1F00FF807C00
0F80F7C07C00
0F80F7C07800
0F81F3C0F800
07C1E3E0F800
07C3E1E0F000
07C3C1E1F000
03E3C1F1F000
03E7C0F1E000
03E780FBE000
01E780FBE000
01FF807BC000
01FF007FC000
00FF003FC000
00FE003F8000
00FE003F8000
007E001F8000
007C001F0000
ENDCHAR
STARTCHAR x
ENCODING 120
SWIDTH 500 0
DWIDTH 25 0
BBX 25 24 0 0
BITMAP
3E007C00
1F00FC00
1F80F800
0F81F000
07C3F000
03E3E000
03F7C000
01FF8000
00FF8000
007F0000
007E0000
007E0000
007F0000
00FF8000
01FF8000
03F7C000
03E3E000
07C3F000
0FC1F000
1F80F800
1F007C00
3E007E00
7E003E00
7C001F00
ENDCHAR
STARTCHAR y
ENCODING 121
SWIDTH 520 0
DWIDTH 26 0
BBX 26 33 0 -9
BITMAP
7C000F80
7C000F80
3E001F00
3E001F00
1F001E00
1F003E00
1F003E00
0F807C00
0F807C00
07C07800
07C0F800
03C0F800
03E0F000
03E1F000
01E1E000
01F3E000
00F3E000
00FBC000
00FFC000
007F8000
007F8000
003F8000
003F0000
001F0000
001E0000
001E0000
003E0000
003C0000
00FC0000
07F80000
07F00000
07E00000
07800000
ENDCHAR
STARTCHAR z
ENCODING 122
SWIDTH 460 0
DWIDTH 23 0
BBX 23 24 0 0
BITMAP
3FFFF8
3FFFF8
3FFFF0
3FFFF0
0007E0
0007C0
000FC0
001F80
001F00
003F00
003E00
007E00
00FC00
00F800
01F800
03F000
03E000
07E000
0FC000
0FC000
1FFFF8
1FFFF8
3FFFF8
7FFFF8
ENDCHAR
STARTCHAR {
ENCODING 123
SWIDTH 340 0
DWIDTH 17 0
BBX 17 43 0 -6
BITMAP
003E00
00FE00
00FE00
01F000
01E000
01E000
01E000
01E000
01E000
01E000
01E000
01E000
01E000
01E000
01E000
01E000
03E000
03C000
07C000
1FC000
3F8000
3F0000
3F0000
3F8000
1FC000
07C000
03C000
03E000
01E000
01E000
01E000
01E000
01E000
01E000
01E000
01E000
01E000
01E000
01E000
01F000
01FE00
00FE00
003E00
ENDCHAR
STARTCHAR |
ENCODING 124
SWIDTH 220 0
DWIDTH 11 0
BBX 11 48 0 -12
BITMAP
1F00
1F00
1F00
1F00
1F00
1F00
1F00
1F00
1F00
1F00
1F00
1F00
1F00
1F00
1F00
1F00
1F00
1F00
1F00
1F00
1F00
1F00
1F00
1F00
1F00
1F00
1F00
1F00
1F00
1F00
1F00
1F00
1F00
1F00
1F00
1F00
1F00
1F00
1F00
1F00
1F00
1F00
1F00
1F00
1F00
1F00
1F00
1F00
ENDCHAR
STARTCHAR }
ENCODING 125
SWIDTH 340 0
DWIDTH 17 0
BBX 17 43 0 -6
BITMAP
3E0000
3F8000
3FC000
07C000
03C000
03E000
01E000
01E000
01E000
01E000
01E000
01E000
01E000
01E000
01E000
01E000
01E000
01F000
01F800
00FC00
007E00
003E00
003E00
00FE00
00FC00
01F000
01E000
01E000
01E000
01E000
01E000
01E000
01E000
01E000
01E000
01E000
01E000
03E000
03C000
07C000
3FC000
3F8000
3E0000
ENDCHAR
STARTCHAR ~
ENCODING 126
SWIDTH 520 0
DWIDTH 26 0
BBX 26 20 0 0
BITMAP
01E00C00
07F81E00
0FFC1E00
0FFF3E00
1E3FFC00
1E0FF800
1C07F800
0C01E000
00000000
00000000
00000000
00000000
00000000
00000000
00000000
00000000
00000000
00000000
00000000
00000000
ENDCHAR
STARTCHAR U+00A0
ENCODING 160
SWIDTH 240 0
DWIDTH 12 0
BBX 12 55 0 -12
BITMAP
0000
0000
0000
0000
0000
0000
0000
0000
0000
0000
0000
0000
0000
0000
0000
0000
0000
0000
0000
0000
0000
0000
0000
0000
0000
0000
0000
0000
0000
0000
0000
0000
0000
0000
0000
0000
0000
0000
0000
0000
0000
0000
0000
0000
0000
0000
0000
0000
0000
0000
0000
0000
0000
0000
0000
ENDCHAR
STARTCHAR U+00A1
ENCODING 161
SWIDTH 280 0
DWIDTH 14 0
BBX 14 33 0 -9
BITMAP
0000
0300
0780
0FC0
0780
0300
0000
0000
0700
0700
0700
0780
0780
0780
0780
0780
0780
0780
0780
0780
0780
0F80
0F80
0F80
0F80
0F80
0F80
0F80
0F80
0F80
0F80
0F80
0F80
ENDCHAR
STARTCHAR U+00A2
ENCODING 162
SWIDTH 480 0
DWIDTH 24 0
BBX 24 30 0 -3
BITMAP
000F80
000F80
000F80
001FF0
00FFFC
01FFFC
03FFFC
07F03C
0FC004
0F8000
1F0000
1F0000
1E0000
3E0000
3E0000
3E0000
3E0000
3E0000
1F0000
1F0000
0F8000
0FC004
07F01C
03FFFC
01FFFC
007FFC
001FF0
000F80
000F80
000F80
ENDCHAR
STARTCHAR U+00A3
ENCODING 163
SWIDTH 520 0
DWIDTH 26 0
BBX 26 33 0 0
BITMAP
0007F000
001FF800
003FFE00
007FFE00
007C3C00
00F81C00
00F80800
00F00000
01F00000
01F00000
01F00000
01F00000
01F00000
01E00000
01E00000
01E00000
0FFFE000
0FFFC000
1FFFC000
1FFFC000
03E00000
03E00000
03E00000
03E00000
03C00000
07C00000
07C00000
07C00000
0F800000
0FFFFF00
1FFFFE00
1FFFFE00
3FFFFC00
ENDCHAR
STARTCHAR U+00A4
ENCODING 164
SWIDTH 580 0
DWIDTH 29 0
BBX 29 25 0 0
BITMAP
02000100
0F000380
1F0007C0
1F9FCFE0
1FFFFFC0
0FFFFF80
07FFFF00
03F07E00
03E03F00
07C01F00
07C01F00
07800F00
07800F00
07800F00
07C01F00
07C01F00
07E03F00
03F07E00
07FFFF00
0FFFFF80
1FFFFFC0
1F9FCFE0
1F0007C0
0F000380
02000100
ENDCHAR
STARTCHAR U+00A5
ENCODING 165
SWIDTH 600 0
DWIDTH 30 0
BBX 30 33 0 0
BITMAP
3E0001F0
3F0003F0
1F0003E0
0F8007C0
0FC00FC0
07C00F80
03E01F00
03F01F00
01F03E00
01F87C00
00F87C00
0FFCFFC0
0FFEFFC0
0FFFFFC0
0FFFFFC0
001FE000
000FC000
00078000
00078000
0FFFFFC0
0FFFFFC0
0FFFFFC0
0FFFFFC0
00078000
00078000
00078000
00078000
00078000
00078000
00078000
00078000
00078000
00078000
ENDCHAR
STARTCHAR U+00A6
ENCODING 166
SWIDTH 220 0
DWIDTH 11 0
BBX 11 48 0 -12
BITMAP
1F00
1F00
1F00
1F00
1F00
1F00
1F00
1F00
1F00
1F00
1F00
1F00
1F00
1F00
1F00
1F00
1F00
1F00
1F00
0000
0000
0000
0000
0000
0000
0000
0000
0000
0000
1F00
1F00
1F00
1F00
1F00
1F00
1F00
1F00
1F00
1F00
1F00
1F00
1F00
1F00
1F00
1F00
1F00
1F00
1F00
ENDCHAR
STARTCHAR U+00A7
ENCODING 167
SWIDTH 480 0
DWIDTH 24 0
BBX 24 42 0 -9
BITMAP
00FE00
03FF80
0FFFC0
0FFFE0
1F83F0
1F01F0
3E00F0
3E00C0
3E0000
3E0000
1F0000
1FC000
0FF000
07FE00
03FF80
0FFFE0
1FFFF0
3F07F8
3E01F8
7C00F8
7C0078
7C007C
7E0078
3F00F8
3FE1F8
1FFFF0
0FFFE0
03FFC0
007FE0
000FF0
0003F0
0001F8
0000F8
0000F8
0C00F8
3C00F8
3E01F8
3F83F0
1FFFE0
0FFFC0
03FF80
00FE00
ENDCHAR
STARTCHAR U+00A8
ENCODING 168
SWIDTH 440 0
DWIDTH 22 0
BBX 22 33 0 0
BITMAP
FFFFFC
FFFFFC
FFFFFC
FFFFFC
F0003C
F0003C
F0003C
F0003C
F0003C
F0003C
F0003C
F0003C
F0003C
F0003C
F0003C
F0003C
F0003C
F0003C
F0003C
F0003C
F0003C
F0003C
F0003C
F0003C
F0003C
F0003C
F0003C
F0003C
F0003C
FFFFFC
FFFFFC
FFFFFC
FFFFFC
ENDCHAR
STARTCHAR U+00A9
ENCODING 169
SWIDTH 780 0
DWIDTH 39 0
BBX 39 33 0 0
BITMAP
0001FE0000
000FFFC000
003E01F000
0078003C00
00E0001E00
01C0000700
0380000380
0700FE0380
0603FF81C0
0E07FFC0C0
0C0F81C0E0
1C1F004060
1C3E000060
183C000070
1878000070
1878000070
1878000070
1878000070
1878000070
187C000070
1C3C000060
1C3E000060
0C1F0040E0
0E0F81C0C0
0607FFC1C0
0703FFC380
0380FF0300
01C0000F00
00E0001E00
0078003C00
003F01F000
000FFFC000
0001FE0000
ENDCHAR
STARTCHAR U+00AA
ENCODING 170
SWIDTH 300 0
DWIDTH 15 0
BBX 15 33 0 0
BITMAP
1FC0
3FF0
3FF0
0078
0038
03F8
0FF8
3E38
3838
7838
7838
7838
3FF8
3FF8
0FF8
0000
0000
0000
0000
0000
0000
0000
0000
0000
0000
0000
0000
0000
0000
0000
0000
0000
0000
ENDCHAR
STARTCHAR U+00AB
ENCODING 171
SWIDTH 540 0
DWIDTH 27 0
BBX 27 23 0 0
BITMAP
003C0F00
007C1F00
00F83E00
01F07C00
01E07800
03E0F800
07C1F000
0F83E000
1F07C000
1E078000
3E0F8000
1F07C000
0F83E000
07C1F000
03C0F000
03E0F800
01F07C00
00F83E00
007C1F00
003C0F00
00000000
00000000
00000000
ENDCHAR
STARTCHAR U+00AC
ENCODING 172
SWIDTH 520 0
DWIDTH 26 0
BBX 26 23 0 0
BITMAP
1FFFFC00
1FFFFC00
1FFFFC00
1FFFFC00
00003C00
00003C00
00003C00
00003C00
00003C00
00003C00
00003C00
00003C00
00003C00
00003C00
00000000
00000000
00000000
00000000
00000000
00000000
00000000
00000000
00000000
ENDCHAR
STARTCHAR U+00AD
ENCODING 173
SWIDTH 360 0
DWIDTH 18 0
BBX 18 15 0 0
BITMAP
3FFF80
3FFF80
3FFF80
3FFF80
000000
000000
000000
000000
000000
000000
000000
000000
000000
000000
000000
ENDCHAR
STARTCHAR U+00AE
ENCODING 174
SWIDTH 780 0
DWIDTH 39 0
BBX 39 33 0 0
BITMAP
0001FF0000
000FFFC000
003E01F000
0078003C00
00E0001E00
01C0000700
0380000380
0707FC0380
0607FF01C0
0E07FF80C0
0C078780E0
1C0783C060
1C0783C060
180783C070
180783C070
1807878070
1807FF8070
1807FF0070
1807FC0070
18079E0070
1C079F0060
1C078F0060
0C078780E0
0E0787C0C0
060783C1C0
070781E380
038781F300
01C0000F00
00E0001E00
0078003800
003F01F000
000FFFC000
0001FF0000
ENDCHAR
STARTCHAR U+00AF
ENCODING 175
SWIDTH 440 0
DWIDTH 22 0
BBX 22 33 0 0
BITMAP
FFFFFC
FFFFFC
FFFFFC
FFFFFC
F0003C
F0003C
F0003C
F0003C
F0003C
F0003C
F0003C
F0003C
F0003C
F0003C
F0003C
F0003C
F0003C
F0003C
F0003C
F0003C
F0003C
F0003C
F0003C
F0003C
F0003C
F0003C
F0003C
F0003C
F0003C
FFFFFC
FFFFFC
FFFFFC
FFFFFC
ENDCHAR
STARTCHAR U+00B0
ENCODING 176
SWIDTH 380 0
DWIDTH 19 0
BBX 19 33 0 0
BITMAP
01F000
07FC00
0FFE00
1FFE00
1F1F00
1E0F00
3C0700
3C0700
3C0700
1E0F00
1F1F00
1FFE00
0FFE00
07FC00
01F000
000000
000000
000000
000000
000000
000000
000000
000000
000000
000000
000000
000000
000000
000000
000000
000000
000000
000000
ENDCHAR
STARTCHAR U+00B1
ENCODING 177
SWIDTH 520 0
DWIDTH 26 0
BBX 26 27 0 0
BITMAP
001E0000
001E0000
001E0000
001E0000
001E0000
001E0000
001E0000
1FFFFC00
1FFFFC00
1FFFFC00
1FFFFC00
001E0000
001E0000
001E0000
001E0000
001E0000
001E0000
001E0000
00000000
00000000
00000000
00000000
00000000
1FFFFC00
1FFFFC00
1FFFFC00
1FFFFC00
ENDCHAR
STARTCHAR U+00B2
ENCODING 178
SWIDTH 320 0
DWIDTH 16 0
BBX 16 33 0 0
BITMAP
07C0
0FF0
1FF8
3FF8
387C
303C
203C
0038
0078
0078
00F0
01E0
01E0
03C0
0380
0780
0FFC
0FFC
1FFC
3FFC
0000
0000
0000
0000
0000
0000
0000
0000
0000
0000
0000
0000
0000
ENDCHAR
STARTCHAR U+00B3
ENCODING 179
SWIDTH 320 0
DWIDTH 16 0
BBX 16 33 0 0
BITMAP
3FFC
3FFC
3FF8
00F0
00F0
01E0
01E0
03C0
03F0
07F8
007C
003C
001E
001E
001E
001C
103C
387C
7FF8
3FF0
0FC0
0000
0000
0000
0000
0000
0000
0000
0000
0000
0000
0000
0000
ENDCHAR
STARTCHAR U+00B4
ENCODING 180
SWIDTH 440 0
DWIDTH 22 0
BBX 22 33 0 0
BITMAP
FFFFFC
FFFFFC
FFFFFC
FFFFFC
F0003C
F0003C
F0003C
F0003C
F0003C
F0003C
F0003C
F0003C
F0003C
F0003C
F0003C
F0003C
F0003C
F0003C
F0003C
F0003C
F0003C
F0003C
F0003C
F0003C
F0003C
F0003C
F0003C
F0003C
F0003C
FFFFFC
FFFFFC
FFFFFC
FFFFFC
ENDCHAR
STARTCHAR U+00B5
ENCODING 181
SWIDTH 560 0
DWIDTH 28 0
BBX 28 33 0 -9
BITMAP
0F000F00
0F000F00
0F000F00
0F000F00
0F000F00
0F000F00
0F000F00
0F000F00
0F000F00
0F000F00
0F000F00
0F000F00
0F000F00
0F000F00
0F800F00
0F800F00
0F800F00
0F800F00
0FC01F00
0FF07F00
0FFFFF00
0FFFFF00
0FFFEF00
0F3F8F00
0F000000
0F000000
0F000000
0F000000
0F000000
0F000000
0F000000
0F000000
0F000000
ENDCHAR
STARTCHAR U+00B6
ENCODING 182
SWIDTH 520 0
DWIDTH 26 0
BBX 26 42 0 -9
BITMAP
007FFF80
03FFFF80
07FFFF80
0FFF1E00
1FFF1E00
1FFF1E00
3FFF1E00
3FFF1E00
3FFF1E00
3FFF1E00
3FFF1E00
1FFF1E00
1FFF1E00
0FFF1E00
07FF1E00
03FF1E00
00FF1E00
000F1E00
000F1E00
000F1E00
000F1E00
000F1E00
000F1E00
000F1E00
000F1E00
000F1E00
000F1E00
000F1E00
000F1E00
000F1E00
000F1E00
000F1E00
000F1E00
000F1E00
000F1E00
000F1E00
000F1E00
000F1E00
000F1E00
000F1E00
000F1E00
000F1E00
ENDCHAR
STARTCHAR U+00B7
ENCODING 183
SWIDTH 240 0
DWIDTH 12 0
BBX 12 20 0 0
BITMAP
0600
0F00
1F00
3F80
1F80
0F00
0600
0000
0000
0000
0000
0000
0000
0000
0000
0000
0000
0000
0000
0000
ENDCHAR
STARTCHAR U+00B8
ENCODING 184
SWIDTH 440 0
DWIDTH 22 0
BBX 22 33 0 0
BITMAP
FFFFFC
FFFFFC
FFFFFC
FFFFFC
F0003C
F0003C
F0003C
F0003C
F0003C
F0003C
F0003C
F0003C
F0003C
F0003C
F0003C
F0003C
F0003C
F0003C
F0003C
F0003C
F0003C
F0003C
F0003C
F0003C
F0003C
F0003C
F0003C
F0003C
F0003C
FFFFFC
FFFFFC
FFFFFC
FFFFFC
ENDCHAR
STARTCHAR U+00B9
ENCODING 185
SWIDTH 220 0
DWIDTH 11 0
BBX 11 33 0 0
BITMAP
0100
0700
0F00
0F00
0F00
0F00
0F00
0F00
0F00
0F00
0F00
0F00
0F00
0F00
0F00
0F00
0F00
0F00
0F00
0F00
0000
0000
0000
0000
0000
0000
0000
0000
0000
0000
0000
0000
0000
ENDCHAR
STARTCHAR U+00BA
ENCODING 186
SWIDTH 360 0
DWIDTH 18 0
BBX 18 33 0 0
BITMAP
03F000
0FFC00
1FFE00
1E1F00
3C0F00
380780
780780
780780
780780
380780
3C0F00
1E1F00
1FFE00
0FFC00
03F000
000000
000000
000000
000000
000000
000000
000000
000000
000000
000000
000000
000000
000000
000000
000000
000000
000000
000000
ENDCHAR
STARTCHAR U+00BB
ENCODING 187
SWIDTH 540 0
DWIDTH 27 0
BBX 27 23 0 0
BITMAP
1E078000
1F03C000
0F83E000
07C1F000
03C0F800
03E07800
01F07C00
00F83E00
007C1F00
003C0F80
003E0F80
007C1F00
00F83E00
01F03C00
01E07C00
03E0F800
07C1F000
0F83E000
1F03C000
1E078000
00000000
00000000
00000000
ENDCHAR
STARTCHAR U+00BC
ENCODING 188
SWIDTH 780 0
DWIDTH 39 0
BBX 39 33 0 0
BITMAP
010000F000
070000E000
0F0001E000
0F0001C000
0F0003C000
0F00038000
0F00078000
0F00070000
0F000F0000
0F000E0000
0F001E0000
0F003C0000
0F003C0000
0F00780000
0F00780020
0F00F00060
0F00F000E0
0F01E001E0
0F01E003E0
0F03C007E0
0003C00FE0
0007801FE0
0007803DE0
000F0079E0
000F00F1E0
001E01E1E0
001E03FFF8
003C07FFF8
003C0FFFF8
00780001E0
00780001E0
00F00001E0
00F00001E0
ENDCHAR
STARTCHAR U+00BD
ENCODING 189
SWIDTH 800 0
DWIDTH 40 0
BBX 40 33 0 0
BITMAP
010000F000
070000E000
0F0001E000
0F0001C000
0F0003C000
0F00038000
0F00078000
0F00070000
0F000F0000
0F000E0000
0F001E0000
0F003C0000
0F003C0000
0F007807C0
0F00780FF0
0F00F01FF8
0F00F03FF8
0F01E0387C
0F01E0303C
0F03C0203C
0003C00038
0007800078
0007800078
000F0000F0
000F0001E0
001E0001E0
001E0003C0
003C000380
003C000780
0078000FFC
0078000FFC
00F0001FFC
00F0003FFC
ENDCHAR
STARTCHAR U+00BE
ENCODING 190
SWIDTH 840 0
DWIDTH 42 0
BBX 42 33 0 0
BITMAP
3FFC000F0000
3FFC000E0000
3FF8001E0000
00F0001C0000
00F0003C0000
01E000380000
01E000780000
03C000700000
03F000F00000
07F800E00000
007C01E00000
003C03C00000
001E03C00000
001E07800000
001E07800400
001C0F000C00
103C0F001C00
387C1E003C00
7FF81E007C00
3FF03C00FC00
0FC03C01FC00
00007803FC00
00007807BC00
0000F00F3C00
0000F01E3C00
0001E03C3C00
0001E07FFF00
0003C0FFFF00
0003C1FFFF00
000780003C00
000780003C00
000F00003C00
000F00003C00
ENDCHAR
STARTCHAR U+00BF
ENCODING 191
SWIDTH 440 0
DWIDTH 22 0
BBX 22 33 0 -9
BITMAP
000800
001C00
003E00
007F00
003E00
001C00
000800
000000
000800
001C00
003E00
007E00
003F00
001F00
001F00
001F00
007F00
00FE00
03FC00
07F000
0FE000
1FC000
1F0000
1F0000
1E0000
1E0000
1F0020
1F00F0
1FC1F8
0FFFF0
07FFE0
03FFC0
00FE00
ENDCHAR
STARTCHAR U+00C0
ENCODING 192
SWIDTH 640 0
DWIDTH 32 0
BBX 32 42 0 0
BITMAP
003E0000
001F0000
000F0000
000F8000
0007C000
0003E000
0001E000
00000000
00000000
0003C000
0007E000
0007E000
000FE000
000FF000
000FF000
001FF800
001FF800
001E7800
003E7C00
003E7C00
007C3E00
007C3E00
00781E00
00F81F00
00F81F00
01F00F80
01F00F80
01E007C0
03E007C0
03FFFFC0
07FFFFE0
07FFFFE0
07FFFFF0
0F8001F0
0F8001F0
1F0000F8
1F0000F8
1F00007C
3E00007C
3E00007C
3E00003E
7C00003E
ENDCHAR
STARTCHAR U+00C1
ENCODING 193
SWIDTH 640 0
DWIDTH 32 0
BBX 32 42 0 0
BITMAP
00007C00
0000F800
0001F000
0001E000
0003C000
0007C000
00078000
00000000
00000000
0003C000
0007E000
0007E000
000FE000
000FF000
000FF000
001FF800
001FF800
001E7800
003E7C00
003E7C00
007C3E00
007C3E00
00781E00
00F81F00
00F81F00
01F00F80
01F00F80
01E007C0
03E007C0
03FFFFC0
07FFFFE0
07FFFFE0
07FFFFF0
0F8001F0
0F8001F0
1F0000F8
1F0000F8
1F00007C
3E00007C
3E00007C
3E00003E
7C00003E
ENDCHAR
STARTCHAR U+00C2
ENCODING 194
SWIDTH 640 0
DWIDTH 32 0
BBX 32 42 0 0
BITMAP
0003E000
0007F000
000FF800
000F7800
001E3C00
003C1E00
00380E00
00000000
00000000
0003C000
0007E000
0007E000
000FE000
000FF000
000FF000
001FF800
001FF800
001E7800
003E7C00
003E7C00
007C3E00
007C3E00
00781E00
00F81F00
00F81F00
01F00F80
01F00F80
01E007C0
03E007C0
03FFFFC0
07FFFFE0
07FFFFE0
07FFFFF0
0F8001F0
0F8001F0
1F0000F8
1F0000F8
1F00007C
3E00007C
3E00007C
3E00003E
7C00003E
ENDCHAR
STARTCHAR U+00C3
ENCODING 195
SWIDTH 640 0
DWIDTH 32 0
BBX 32 41 0 0
BITMAP
003E0400
007F8E00
00FFFE00
00FFFE00
0061FC00
0000F800
00000000
00000000
0003C000
0007E000
0007E000
000FE000
000FF000
000FF000
001FF800
001FF800
001E7800
003E7C00
003E7C00
007C3E00
007C3E00
00781E00
00F81F00
00F81F00
01F00F80
01F00F80
01E007C0
03E007C0
03FFFFC0
07FFFFE0
07FFFFE0
07FFFFF0
0F8001F0
0F8001F0
1F0000F8
1F0000F8
1F00007C
3E00007C
3E00007C
3E00003E
7C00003E
ENDCHAR
STARTCHAR U+00C4
ENCODING 196
SWIDTH 640 0
DWIDTH 32 0
BBX 32 42 0 0
BITMAP
00100400
00380E00
003C1F00
007E3F80
003C1F00
00380E00
00100400
00000000
00000000
0003C000
0007E000
0007E000
000FE000
000FF000
000FF000
001FF800
001FF800
001E7800
003E7C00
003E7C00
007C3E00
007C3E00
00781E00
00F81F00
00F81F00
01F00F80
01F00F80
01E007C0
03E007C0
03FFFFC0
07FFFFE0
07FFFFE0
07FFFFF0
0F8001F0
0F8001F0
1F0000F8
1F0000F8
1F00007C
3E00007C
3E00007C
3E00003E
7C00003E
ENDCHAR
STARTCHAR U+00C5
ENCODING 197
SWIDTH 640 0
DWIDTH 32 0
BBX 32 44 0 0
BITMAP
0003C000
0007E000
000E7000
000C3000
000C3800
000C3000
000E7000
0007E000
0003C000
00000000
00000000
0003C000
0007E000
0007E000
000FE000
000FF000
000FF000
001FF800
001FF800
001E7800
003E7C00
003E7C00
007C3E00
007C3E00
00781E00
00F81F00
00F81F00
01F00F80
01F00F80
01E007C0
03E007C0
03FFFFC0
07FFFFE0
07FFFFE0
07FFFFF0
0F8001F0
0F8001F0
1F0000F8
1F0000F8
1F00007C
3E00007C
3E00007C
3E00003E
7C00003E
ENDCHAR
STARTCHAR U+00C6
ENCODING 198
SWIDTH 880 0
DWIDTH 44 0
BBX 44 33 0 0
BITMAP
00001FFFFFC0
00003FFFFFC0
00003FFFFFC0
00007FFFFFC0
00007FE00000
0000FBE00000
0001FBE00000
0001F3E00000
0003F3E00000
0003E3E00000
0007E3E00000
0007C3E00000
000F83E00000
001F83FFFC00
001F03FFFC00
003F03FFFC00
003E03FFFC00
007E03E00000
007C03E00000
00FFFFE00000
00FFFFE00000
01FFFFE00000
03FFFFE00000
03E003E00000
07E003E00000
07C003E00000
0FC003E00000
0F8003E00000
1F8003E00000
3F0003FFFFC0
3F0003FFFFC0
7E0003FFFFC0
7C0003FFFFC0
ENDCHAR
STARTCHAR U+00C7
ENCODING 199
SWIDTH 660 0
DWIDTH 33 0
BBX 33 43 0 -10
BITMAP
0000FF0000
0007FFE000
001FFFF800
007FFFFC00
00FF00FC00
01FC001C00
03F0000400
07E0000000
07C0000000
0FC0000000
0F80000000
1F80000000
1F00000000
1F00000000
1F00000000
1F00000000
1F00000000
1F00000000
1F00000000
1F00000000
1F00000000
1F80000000
0F80000000
0FC0000000
07C0000000
07E0000000
03F0000400
01FC001C00
00FF00FC00
007FFFFC00
001FFFF800
0007FFE000
0000FF0000
0000E00000
0000E00000
0000FC0000
0001FE0000
00001E0000
00001E0000
00001E0000
0007FE0000
0007FC0000
0007F00000
ENDCHAR
STARTCHAR U+00C8
ENCODING 200
SWIDTH 560 0
DWIDTH 28 0
BBX 28 42 0 0
BITMAP
007C0000
003E0000
001E0000
001F0000
000F8000
0007C000
0003C000
00000000
00000000
07FFFF80
07FFFF80
07FFFF80
07FFFF80
07800000
07800000
07800000
07800000
07800000
07800000
07800000
07800000
07800000
07FFF800
07FFF800
07FFF800
07FFF800
07800000
07800000
07800000
07800000
07800000
07800000
07800000
07800000
07800000
07800000
07800000
07800000
07FFFFC0
07FFFFC0
07FFFFC0
07FFFFC0
ENDCHAR
STARTCHAR U+00C9
ENCODING 201
SWIDTH 560 0
DWIDTH 28 0
BBX 28 42 0 0
BITMAP
0000F800
0001F000
0003E000
0003C000
00078000
000F8000
000F0000
00000000
00000000
07FFFF80
07FFFF80
07FFFF80
07FFFF80
07800000
07800000
07800000
07800000
07800000
07800000
07800000
07800000
07800000
07FFF800
07FFF800
07FFF800
07FFF800
07800000
07800000
07800000
07800000
07800000
07800000
07800000
07800000
07800000
07800000
07800000
07800000
07FFFFC0
07FFFFC0
07FFFFC0
07FFFFC0
ENDCHAR
STARTCHAR U+00CA
ENCODING 202
SWIDTH 560 0
DWIDTH 28 0
BBX 28 42 0 0
BITMAP
000F8000
001FC000
003FE000
003DE000
0078F000
00F07800
00E03800
00000000
00000000
07FFFF80
07FFFF80
07FFFF80
07FFFF80
07800000
07800000
07800000
07800000
07800000
07800000
07800000
07800000
07800000
07FFF800
07FFF800
07FFF800
07FFF800
07800000
07800000
07800000
07800000
07800000
07800000
07800000
07800000
07800000
07800000
07800000
07800000
07FFFFC0
07FFFFC0
07FFFFC0
07FFFFC0
ENDCHAR
STARTCHAR U+00CB
ENCODING 203
SWIDTH 560 0
DWIDTH 28 0
BBX 28 42 0 0
BITMAP
00401000
00E03800
00F07C00
01F8FE00
00F07C00
00E03800
00401000
00000000
00000000
07FFFF80
07FFFF80
07FFFF80
07FFFF80
07800000
07800000
07800000
07800000
07800000
07800000
07800000
07800000
07800000
07FFF800
07FFF800
07FFF800
07FFF800
07800000
07800000
07800000
07800000
07800000
07800000
07800000
07800000
07800000
07800000
07800000
07800000
07FFFFC0
07FFFFC0
07FFFFC0
07FFFFC0
ENDCHAR
STARTCHAR U+00CC
ENCODING 204
SWIDTH 280 0
DWIDTH 14 0
BBX 14 42 0 0
BITMAP
7C00
3E00
1E00
1F00
0F80
07C0
03C0
0000
0000
0780
0780
0780
0780
0780
0780
0780
0780
0780
0780
0780
0780
0780
0780
0780
0780
0780
0780
0780
0780
0780
0780
0780
0780
0780
0780
0780
0780
0780
0780
0780
0780
0780
ENDCHAR
STARTCHAR U+00CD
ENCODING 205
SWIDTH 280 0
DWIDTH 14 0
BBX 14 42 0 0
BITMAP
00F8
01F0
03E0
03C0
0780
0F80
0F00
0000
0000
0780
0780
0780
0780
0780
0780
0780
0780
0780
0780
0780
0780
0780
0780
0780
0780
0780
0780
0780
0780
0780
0780
0780
0780
0780
0780
0780
0780
0780
0780
0780
0780
0780
ENDCHAR
STARTCHAR U+00CE
ENCODING 206
SWIDTH 280 0
DWIDTH 14 0
BBX 15 42 0 0
BITMAP
0F80
1FC0
3FE0
3DE0
78F0
F078
E038
0000
0000
0780
0780
0780
0780
0780
0780
0780
0780
0780
0780
0780
0780
0780
0780
0780
0780
0780
0780
0780
0780
0780
0780
0780
0780
0780
0780
0780
0780
0780
0780
0780
0780
0780
ENDCHAR
STARTCHAR U+00CF
ENCODING 207
SWIDTH 280 0
DWIDTH 14 0
BBX 16 42 -1 0
BITMAP
0000
0000
0000
0000
0000
0000
0000
0000
0000
0000
0000
0000
0000
0000
0000
0000
0000
0000
0000
0000
0000
0000
0000
0000
0000
0000
0000
0000
0000
0000
0000
0000
0000
0000
0000
0000
0000
0000
0000
0000
0000
0000
ENDCHAR
STARTCHAR U+00D0
ENCODING 208
SWIDTH 700 0
DWIDTH 35 0
BBX 35 33 0 0
BITMAP
07FFE00000
07FFFC0000
07FFFF0000
07FFFFC000
07803FE000
078007F000
078003F800
078000FC00
0780007C00
0780007E00
0780003E00
0780003F00
0780001F00
0780001F00
0780001F00
7FFFC01F00
7FFFC01F00
7FFFC01F00
7FFFC01F00
0780001F00
0780001F00
0780003E00
0780003E00
0780007E00
0780007C00
078000FC00
078003F800
078007F000
07803FE000
07FFFFC000
07FFFF0000
07FFFC0000
07FFE00000
ENDCHAR
STARTCHAR U+00D1
ENCODING 209
SWIDTH 740 0
DWIDTH 37 0
BBX 37 41 0 0
BITMAP
000F810000
001FE38000
003FFF8000
003FFF8000
00187F0000
00003E0000
0000000000
0000000000
0780000F80
07C0000F80
07E0000F80
07F0000F80
07F0000F80
07F8000F80
07FC000F80
07FE000F80
07BE000F80
07BF000F80
079F800F80
078FC00F80
0787E00F80
0787E00F80
0783F00F80
0781F80F80
0780FC0F80
0780FC0F80
07807E0F80
07803F0F80
07801F8F80
07801F8F80
07800FCF80
078007EF80
078003FF80
078001FF80
078001FF80
078000FF80
0780007F80
0780003F80
0780003F80
0780001F80
0780000F80
ENDCHAR
STARTCHAR U+00D2
ENCODING 210
SWIDTH 780 0
DWIDTH 39 0
BBX 39 42 0 0
BITMAP
0003E00000
0001F00000
0000F00000
0000F80000
00007C0000
00003E0000
00001E0000
0000000000
0000000000
0001FF0000
0007FFE000
001FFFF800
007FFFFC00
00FF01FE00
01FC003F00
03F0001F80
07E0000FC0
07C00007E0
0FC00003E0
0F800003F0
1F800001F0
1F000001F0
1F000001F0
1F000000F8
1F000000F8
1F000000F8
1F000000F8
1F000000F8
1F000001F0
1F000001F0
1F800001F0
0F800003F0
0FC00003E0
07C00007E0
07E0000FC0
03F0001F80
01FC003F00
00FF01FE00
007FFFFC00
001FFFF800
0007FFE000
0001FF0000
ENDCHAR
STARTCHAR U+00D3
ENCODING 211
SWIDTH 780 0
DWIDTH 39 0
BBX 39 42 0 0
BITMAP
000007C000
00000F8000
00001F0000
00001E0000
00003C0000
00007C0000
0000780000
0000000000
0000000000
0001FF0000
0007FFE000
001FFFF800
007FFFFC00
00FF01FE00
01FC003F00
03F0001F80
07E0000FC0
07C00007E0
0FC00003E0
0F800003F0
1F800001F0
1F000001F0
1F000001F0
1F000000F8
1F000000F8
1F000000F8
1F000000F8
1F000000F8
1F000001F0
1F000001F0
1F800001F0
0F800003F0
0FC00003E0
07C00007E0
07E0000FC0
03F0001F80
01FC003F00
00FF01FE00
007FFFFC00
001FFFF800
0007FFE000
0001FF0000
ENDCHAR
STARTCHAR U+00D4
ENCODING 212
SWIDTH 780 0
DWIDTH 39 0
BBX 39 42 0 0
BITMAP
00007C0000
0000FE0000
0001FF0000
0001EF0000
0003C78000
000783C000
000701C000
0000000000
0000000000
0001FF0000
0007FFE000
001FFFF800
007FFFFC00
00FF01FE00
01FC003F00
03F0001F80
07E0000FC0
07C00007E0
0FC00003E0
0F800003F0
1F800001F0
1F000001F0
1F000001F0
1F000000F8
1F000000F8
1F000000F8
1F000000F8
1F000000F8
1F000001F0
1F000001F0
1F800001F0
0F800003F0
0FC00003E0
07C00007E0
07E0000FC0
03F0001F80
01FC003F00
00FF01FE00
007FFFFC00
001FFFF800
0007FFE000
0001FF0000
ENDCHAR
STARTCHAR U+00D5
ENCODING 213
SWIDTH 780 0
DWIDTH 39 0
BBX 39 41 0 0
BITMAP
0007C08000
000FF1C000
001FFFC000
001FFFC000
000C3F8000
00001F0000
0000000000
0000000000
0001FF0000
0007FFE000
001FFFF800
007FFFFC00
00FF01FE00
01FC003F00
03F0001F80
07E0000FC0
07C00007E0
0FC00003E0
0F800003F0
1F800001F0
1F000001F0
1F000001F0
1F000000F8
1F000000F8
1F000000F8
1F000000F8
1F000000F8
1F000001F0
1F000001F0
1F800001F0
0F800003F0
0FC00003E0
07C00007E0
07E0000FC0
03F0001F80
01FC003F00
00FF01FE00
007FFFFC00
001FFFF800
0007FFE000
0001FF0000
ENDCHAR
STARTCHAR U+00D6
ENCODING 214
SWIDTH 780 0
DWIDTH 39 0
BBX 39 42 0 0
BITMAP
0002008000
000701C000
000783E000
000FC7F000
000783E000
000701C000
0002008000
0000000000
0000000000
0001FF0000
0007FFE000
001FFFF800
007FFFFC00
00FF01FE00
01FC003F00
03F0001F80
07E0000FC0
07C00007E0
0FC00003E0
0F800003F0
1F800001F0
1F000001F0
1F000001F0
1F000000F8
1F000000F8
1F000000F8
1F000000F8
1F000000F8
1F000001F0
1F000001F0
1F800001F0
0F800003F0
0FC00003E0
07C00007E0
07E0000FC0
03F0001F80
01FC003F00
00FF01FE00
007FFFFC00
001FFFF800
0007FFE000
0001FF0000
ENDCHAR
STARTCHAR U+00D7
ENCODING 215
SWIDTH 520 0
DWIDTH 26 0
BBX 26 25 0 0
BITMAP
02003000
07007800
0F80FC00
07C1F800
03E3F000
01F7E000
00FFC000
007F8000
003F0000
007F0000
00FF8000
01FFC000
03F3E000
07E1F000
0FC1F800
0F80F800
07007000
02002000
00000000
00000000
00000000
00000000
00000000
00000000
00000000
ENDCHAR
STARTCHAR U+00D8
ENCODING 216
SWIDTH 780 0
DWIDTH 39 0
BBX 39 33 0 0
BITMAP
0001FF0040
0007FFE0E0
001FFFF9F0
007FFFFFE0
00FF01FFC0
01FC003F80
03F0001F80
07E0003FC0
07C0007FE0
0FC000FBE0
0F8001F3F0
1F8003E1F0
1F0007C1F0
1F000F81F0
1F001F00F8
1F003E00F8
1F003C00F8
1F007800F8
1F00F000F8
1F01E001F0
1F03C001F0
1F878001F0
0F8F0003F0
0FDE0003E0
07FC0007E0
07F8000FC0
03F0001F80
01FC003F00
03FF01FE00
07FFFFFC00
0F1FFFF800
0E07FFE000
0400FF0000
ENDCHAR
STARTCHAR U+00D9
ENCODING 217
SWIDTH 740 0
DWIDTH 37 0
BBX 37 42 0 0
BITMAP
0007C00000
0003E00000
0001E00000
0001F00000
0000F80000
00007C0000
00003C0000
0000000000
0000000000
0F80000F80
0F80000F80
0F80000F80
0F80000F80
0F80000F80
0F80000F80
0F80000F80
0F80000F80
0F80000F80
0F80000F80
0F80000F80
0F80000F80
0F80000F80
0F80000F80
0F80000F80
0F80000F80
0F80000F80
0F80000F80
0F80000F80
0F80000F80
0F80000F80
0F80000F80
07C0001F00
07C0001F00
07E0001F00
03E0003E00
03F0007E00
01F800FC00
00FE03F800
007FFFF000
003FFFE000
000FFF8000
0001FE0000
ENDCHAR
STARTCHAR U+00DA
ENCODING 218
SWIDTH 740 0
DWIDTH 37 0
BBX 37 42 0 0
BITMAP
00000F8000
00001F0000
00003E0000
00003C0000
0000780000
0000F80000
0000F00000
0000000000
0000000000
0F80000F80
0F80000F80
0F80000F80
0F80000F80
0F80000F80
0F80000F80
0F80000F80
0F80000F80
0F80000F80
0F80000F80
0F80000F80
0F80000F80
0F80000F80
0F80000F80
0F80000F80
0F80000F80
0F80000F80
0F80000F80
0F80000F80
0F80000F80
0F80000F80
0F80000F80
07C0001F00
07C0001F00
07E0001F00
03E0003E00
03F0007E00
01F800FC00
00FE03F800
007FFFF000
003FFFE000
000FFF8000
0001FE0000
ENDCHAR
STARTCHAR U+00DB
ENCODING 219
SWIDTH 740 0
DWIDTH 37 0
BBX 37 42 0 0
BITMAP
0000F80000
0001FC0000
0003FE0000
0003DE0000
00078F0000
000F078000
000E038000
0000000000
0000000000
0F80000F80
0F80000F80
0F80000F80
0F80000F80
0F80000F80
0F80000F80
0F80000F80
0F80000F80
0F80000F80
0F80000F80
0F80000F80
0F80000F80
0F80000F80
0F80000F80
0F80000F80
0F80000F80
0F80000F80
0F80000F80
0F80000F80
0F80000F80
0F80000F80
0F80000F80
07C0001F00
07C0001F00
07E0001F00
03E0003E00
03F0007E00
01F800FC00
00FE03F800
007FFFF000
003FFFE000
000FFF8000
0001FE0000
ENDCHAR
STARTCHAR U+00DC
ENCODING 220
SWIDTH 740 0
DWIDTH 37 0
BBX 37 42 0 0
BITMAP
0004010000
000E038000
000F07C000
001F8FE000
000F07C000
000E038000
0004010000
0000000000
0000000000
0F80000F80
0F80000F80
0F80000F80
0F80000F80
0F80000F80
0F80000F80
0F80000F80
0F80000F80
0F80000F80
0F80000F80
0F80000F80
0F80000F80
0F80000F80
0F80000F80
0F80000F80
0F80000F80
0F80000F80
0F80000F80
0F80000F80
0F80000F80
0F80000F80
0F80000F80
07C0001F00
07C0001F00
07E0001F00
03E0003E00
03F0007E00
01F800FC00
00FE03F800
007FFFF000
003FFFE000
000FFF8000
0001FE0000
ENDCHAR
STARTCHAR U+00DD
ENCODING 221
SWIDTH 580 0
DWIDTH 29 0
BBX 29 42 0 0
BITMAP
0000F800
0001F000
0003E000
0003C000
00078000
000F8000
000F0000
00000000
00000000
7E0003F0
3E0003E0
3F0007E0
1F0007C0
0F800F80
0FC00F80
07C01F00
07E03F00
03E03E00
01F07C00
01F07C00
00F8F800
007CF800
007DF000
003FE000
003FE000
001FC000
000F8000
000F8000
000F8000
000F8000
000F8000
000F8000
000F8000
000F8000
000F8000
000F8000
000F8000
000F8000
000F8000
000F8000
000F8000
000F8000
ENDCHAR
STARTCHAR U+00DE
ENCODING 222
SWIDTH 560 0
DWIDTH 28 0
BBX 28 33 0 0
BITMAP
07800000
07800000
07800000
07800000
07800000
07800000
07FFE000
07FFFC00
07FFFE00
07FFFF00
07807F80
07801F80
07800FC0
078007C0
078007C0
078007C0
078007C0
078007C0
078007C0
07800F80
07801F80
07807F00
07FFFF00
07FFFE00
07FFF800
07FFE000
07800000
07800000
07800000
07800000
07800000
07800000
07800000
ENDCHAR
STARTCHAR U+00DF
ENCODING 223
SWIDTH 520 0
DWIDTH 26 0
BBX 26 33 0 0
BITMAP
003F8000
00FFE000
01FFF800
03FFF800
07E0FC00
07C03C00
07803E00
0F803E00
0F803E00
0F003E00
0F003C00
0F007C00
0F00F800
0F0FF000
0F0FC000
0F0FF000
0F0FFC00
0F00FE00
0F003E00
0F001F00
0F001F00
0F000F00
0F000F80
0F000F80
0F000F80
0F000F00
0F001F00
0F003F00
0F007E00
0F1FFE00
0F1FFC00
0F1FF000
0F1FC000
ENDCHAR
STARTCHAR U+00E0
ENCODING 224
SWIDTH 500 0
DWIDTH 25 0
BBX 25 35 0 0
BITMAP
03E00000
01F00000
00F00000
00F80000
007C0000
003E0000
001E0000
00000000
00000000
00000000
00000000
00FF0000
07FFC000
07FFE000
0FFFF000
0F03F000
0C01F800
1000F800
0000F800
00007800
000FF800
00FFF800
03FFF800
07F07800
0FC07800
1F007800
1E007800
3E007800
3E007800
3E00F800
1F07F800
1FFFF800
0FFFF800
07FE7800
01F87800
ENDCHAR
STARTCHAR U+00E1
ENCODING 225
SWIDTH 500 0
DWIDTH 25 0
BBX 25 35 0 0
BITMAP
0007C000
000F8000
001F0000
001E0000
003C0000
007C0000
00780000
00000000
00000000
00000000
00000000
00FF0000
07FFC000
07FFE000
0FFFF000
0F03F000
0C01F800
1000F800
0000F800
00007800
000FF800
00FFF800
03FFF800
07F07800
0FC07800
1F007800
1E007800
3E007800
3E007800
3E00F800
1F07F800
1FFFF800
0FFFF800
07FE7800
01F87800
ENDCHAR
STARTCHAR U+00E2
ENCODING 226
SWIDTH 500 0
DWIDTH 25 0
BBX 25 35 0 0
BITMAP
003E0000
007F0000
00FF8000
00F78000
01E3C000
03C1E000
0380E000
00000000
00000000
00000000
00000000
00FF0000
07FFC000
07FFE000
0FFFF000
0F03F000
0C01F800
1000F800
0000F800
00007800
000FF800
00FFF800
03FFF800
07F07800
0FC07800
1F007800
1E007800
3E007800
3E007800
3E00F800
1F07F800
1FFFF800
0FFFF800
07FE7800
01F87800
ENDCHAR
STARTCHAR U+00E3
ENCODING 227
SWIDTH 500 0
DWIDTH 25 0
BBX 25 34 0 0
BITMAP
03E04000
07F8E000
0FFFE000
0FFFE000
061FC000
000F8000
00000000
00000000
00000000
00000000
00FF0000
07FFC000
07FFE000
0FFFF000
0F03F000
0C01F800
1000F800
0000F800
00007800
000FF800
00FFF800
03FFF800
07F07800
0FC07800
1F007800
1E007800
3E007800
3E007800
3E00F800
1F07F800
1FFFF800
0FFFF800
07FE7800
01F87800
ENDCHAR
STARTCHAR U+00E4
ENCODING 228
SWIDTH 500 0
DWIDTH 25 0
BBX 25 35 0 0
BITMAP
01004000
0380E000
03C1F000
07E3F800
03C1F000
0380E000
01004000
00000000
00000000
00000000
00000000
00FF0000
07FFC000
07FFE000
0FFFF000
0F03F000
0C01F800
1000F800
0000F800
00007800
000FF800
00FFF800
03FFF800
07F07800
0FC07800
1F007800
1E007800
3E007800
3E007800
3E00F800
1F07F800
1FFFF800
0FFFF800
07FE7800
01F87800
ENDCHAR
STARTCHAR U+00E5
ENCODING 229
SWIDTH 500 0
DWIDTH 25 0
BBX 25 37 0 0
BITMAP
003C0000
007E0000
00E70000
00C30000
00C38000
00C30000
00E70000
007E0000
003C0000
00000000
00000000
00000000
00000000
00FF0000
07FFC000
07FFE000
0FFFF000
0F03F000
0C01F800
1000F800
0000F800
00007800
000FF800
00FFF800
03FFF800
07F07800
0FC07800
1F007800
1E007800
3E007800
3E007800
3E00F800
1F07F800
1FFFF800
0FFFF800
07FE7800
01F87800
ENDCHAR
STARTCHAR U+00E6
ENCODING 230
SWIDTH 800 0
DWIDTH 40 0
BBX 40 24 0 0
BITMAP
00FE00FE00
07FFC3FF80
07FFE7FFC0
0FFFEFFFE0
0F03FF83F0
0C01FE01F0
1000FC00F8
0000FC00F8
0000F80078
0007FFFFF8
007FFFFFFC
03FFFFFFFC
07F0F80000
0F80F80000
1F00780000
1E007C0000
3E007C0000
3E007E0008
3E00FF0038
1F83FFC0F8
1FFFFFFFF8
0FFFC7FFF0
07FF03FFC0
01FC007F00
ENDCHAR
STARTCHAR U+00E7
ENCODING 231
SWIDTH 480 0
DWIDTH 24 0
BBX 24 34 0 -10
BITMAP
001FE0
007FFC
01FFFC
03FFFC
07F03C
0FC004
0F8000
1F0000
1F0000
1E0000
3E0000
3E0000
3E0000
3E0000
1E0000
1F0000
1F0000
0F8000
0FC004
07F01C
03FFFC
01FFFC
007FFC
001FF0
000700
000700
000FC0
000FE0
0001F0
0000F0
0001F0
003FE0
003FC0
003F80
ENDCHAR
STARTCHAR U+00E8
ENCODING 232
SWIDTH 520 0
DWIDTH 26 0
BBX 26 35 0 0
BITMAP
01F00000
00F80000
00780000
007C0000
003E0000
001F0000
000F0000
00000000
00000000
00000000
00000000
003F8000
00FFE000
01FFF800
03FFFC00
07E0FC00
0FC03E00
1F803E00
1F001F00
1F001F00
1E001F00
3FFFFF00
3FFFFF00
3FFFFF00
3FFFFF00
3E000000
1E000000
1F000000
1F800100
0FC00700
07F03F00
03FFFF00
01FFFF00
00FFFC00
001FE000
ENDCHAR
STARTCHAR U+00E9
ENCODING 233
SWIDTH 520 0
DWIDTH 26 0
BBX 26 35 0 0
BITMAP
0003E000
0007C000
000F8000
000F0000
001E0000
003E0000
003C0000
00000000
00000000
00000000
00000000
003F8000
00FFE000
01FFF800
03FFFC00
07E0FC00
0FC03E00
1F803E00
1F001F00
1F001F00
1E001F00
3FFFFF00
3FFFFF00
3FFFFF00
3FFFFF00
3E000000
1E000000
1F000000
1F800100
0FC00700
07F03F00
03FFFF00
01FFFF00
00FFFC00
001FE000
ENDCHAR
STARTCHAR U+00EA
ENCODING 234
SWIDTH 520 0
DWIDTH 26 0
BBX 26 35 0 0
BITMAP
001F0000
003F8000
007FC000
007BC000
00F1E000
01E0F000
01C07000
00000000
00000000
00000000
00000000
003F8000
00FFE000
01FFF800
03FFFC00
07E0FC00
0FC03E00
1F803E00
1F001F00
1F001F00
1E001F00
3FFFFF00
3FFFFF00
3FFFFF00
3FFFFF00
3E000000
1E000000
1F000000
1F800100
0FC00700
07F03F00
03FFFF00
01FFFF00
00FFFC00
001FE000
ENDCHAR
STARTCHAR U+00EB
ENCODING 235
SWIDTH 520 0
DWIDTH 26 0
BBX 26 35 0 0
BITMAP
00802000
01C07000
01E0F800
03F1FC00
01E0F800
01C07000
00802000
00000000
00000000
00000000
00000000
003F8000
00FFE000
01FFF800
03FFFC00
07E0FC00
0FC03E00
1F803E00
1F001F00
1F001F00
1E001F00
3FFFFF00
3FFFFF00
3FFFFF00
3FFFFF00
3E000000
1E000000
1F000000
1F800100
0FC00700
07F03F00
03FFFF00
01FFFF00
00FFFC00
001FE000
ENDCHAR
STARTCHAR U+00EC
ENCODING 236
SWIDTH 240 0
DWIDTH 12 0
BBX 13 35 -1 0
BITMAP
7C00
3E00
1E00
1F00
0F80
07C0
03C0
0000
0000
0000
0000
0780
0780
0780
0780
0780
0780
0780
0780
0780
0780
0780
0780
0780
0780
0780
0780
0780
0780
0780
0780
0780
0780
0780
0780
ENDCHAR
STARTCHAR U+00ED
ENCODING 237
SWIDTH 240 0
DWIDTH 12 0
BBX 13 35 0 0
BITMAP
01F0
03E0
07C0
0780
0F00
1F00
1E00
0000
0000
0000
0000
0F00
0F00
0F00
0F00
0F00
0F00
0F00
0F00
0F00
0F00
0F00
0F00
0F00
0F00
0F00
0F00
0F00
0F00
0F00
0F00
0F00
0F00
0F00
0F00
ENDCHAR
STARTCHAR U+00EE
ENCODING 238
SWIDTH 240 0
DWIDTH 12 0
BBX 15 35 -1 0
BITMAP
0F80
1FC0
3FE0
3DE0
78F0
F078
E038
0000
0000
0000
0000
0F00
0F00
0F00
0F00
0F00
0F00
0F00
0F00
0F00
0F00
0F00
0F00
0F00
0F00
0F00
0F00
0F00
0F00
0F00
0F00
0F00
0F00
0F00
0F00
ENDCHAR
STARTCHAR U+00EF
ENCODING 239
SWIDTH 240 0
DWIDTH 12 0
BBX 17 35 -2 0
BITMAP
200800
701C00
783E00
FC7F00
783E00
701C00
200800
000000
000000
000000
000000
078000
078000
078000
078000
078000
078000
078000
078000
078000
078000
078000
078000
078000
078000
078000
078000
078000
078000
078000
078000
078000
078000
078000
078000
ENDCHAR
STARTCHAR U+00F0
ENCODING 240
SWIDTH 540 0
DWIDTH 27 0
BBX 27 33 0 0
BITMAP
00602000
00F8F000
01FFF800
007FF000
003FC000
00FFC000
03FFE000
07F3E000
03C3F000
0101F800
0000F800
003E7C00
00FFFE00
03FFFE00
07FFFE00
0FE0FF00
0F803F00
1F001F00
1F000F00
1E000F00
3E000F00
3E000F00
3E000F00
3E001F00
3E001F00
1F001F00
1F003E00
0F807E00
0FE0FC00
07FFF800
03FFF000
01FFE000
007F8000
ENDCHAR
STARTCHAR U+00F1
ENCODING 241
SWIDTH 580 0
DWIDTH 29 0
BBX 29 34 0 0
BITMAP
007C0800
00FF1C00
01FFFC00
01FFFC00
00C3F800
0001F000
00000000
00000000
00000000
00000000
0F0FE000
0F7FF800
0FFFFC00
0FFFFE00
0FF07F00
0F801F00
0F000F80
0F000F80
0F000F80
0F000780
0F000780
0F000780
0F000780
0F000780
0F000780
0F000780
0F000780
0F000780
0F000780
0F000780
0F000780
0F000780
0F000780
0F000780
ENDCHAR
STARTCHAR U+00F2
ENCODING 242
SWIDTH 580 0
DWIDTH 29 0
BBX 29 35 0 0
BITMAP
007C0000
003E0000
001E0000
001F0000
000F8000
0007C000
0003C000
00000000
00000000
00000000
00000000
001FC000
00FFF800
01FFFC00
03FFFF00
07F07F00
0FC01F80
0F800FC0
1F0007C0
1F0003C0
1E0003E0
3E0003E0
3E0003E0
3E0003E0
3E0003E0
1E0003E0
1F0003C0
1F0007C0
0F800FC0
0FC01F80
07F07F00
03FFFE00
01FFFC00
00FFF800
001FC000
ENDCHAR
STARTCHAR U+00F3
ENCODING 243
SWIDTH 580 0
DWIDTH 29 0
BBX 29 35 0 0
BITMAP
0000F800
0001F000
0003E000
0003C000
00078000
000F8000
000F0000
00000000
00000000
00000000
00000000
001FC000
00FFF800
01FFFC00
03FFFF00
07F07F00
0FC01F80
0F800FC0
1F0007C0
1F0003C0
1E0003E0
3E0003E0
3E0003E0
3E0003E0
3E0003E0
1E0003E0
1F0003C0
1F0007C0
0F800FC0
0FC01F80
07F07F00
03FFFE00
01FFFC00
00FFF800
001FC000
ENDCHAR
STARTCHAR U+00F4
ENCODING 244
SWIDTH 580 0
DWIDTH 29 0
BBX 29 35 0 0
BITMAP
000F8000
001FC000
003FE000
003DE000
0078F000
00F07800
00E03800
00000000
00000000
00000000
00000000
001FC000
00FFF800
01FFFC00
03FFFF00
07F07F00
0FC01F80
0F800FC0
1F0007C0
1F0003C0
1E0003E0
3E0003E0
3E0003E0
3E0003E0
3E0003E0
1E0003E0
1F0003C0
1F0007C0
0F800FC0
0FC01F80
07F07F00
03FFFE00
01FFFC00
00FFF800
001FC000
ENDCHAR
STARTCHAR U+00F5
ENCODING 245
SWIDTH 580 0
DWIDTH 29 0
BBX 29 34 0 0
BITMAP
007C0800
00FF1C00
01FFFC00
01FFFC00
00C3F800
0001F000
00000000
00000000
00000000
00000000
001FC000
00FFF800
01FFFC00
03FFFF00
07F07F00
0FC01F80
0F800FC0
1F0007C0
1F0003C0
1E0003E0
3E0003E0
3E0003E0
3E0003E0
3E0003E0
1E0003E0
1F0003C0
1F0007C0
0F800FC0
0FC01F80
07F07F00
03FFFE00
01FFFC00
00FFF800
001FC000
ENDCHAR
STARTCHAR U+00F6
ENCODING 246
SWIDTH 580 0
DWIDTH 29 0
BBX 29 35 0 0
BITMAP
00401000
00E03800
00F07C00
01F8FE00
00F07C00
00E03800
00401000
00000000
00000000
00000000
00000000
001FC000
00FFF800
01FFFC00
03FFFF00
07F07F00
0FC01F80
0F800FC0
1F0007C0
1F0003C0
1E0003E0
3E0003E0
3E0003E0
3E0003E0
3E0003E0
1E0003E0
1F0003C0
1F0007C0
0F800FC0
0FC01F80
07F07F00
03FFFE00
01FFFC00
00FFF800
001FC000
ENDCHAR
STARTCHAR U+00F7
ENCODING 247
SWIDTH 520 0
DWIDTH 26 0
BBX 26 29 0 0
BITMAP
000C0000
001E0000
003E0000
007F0000
003F0000
001E0000
000C0000
00000000
00000000
00000000
00000000
1FFFFC00
1FFFFC00
1FFFFC00
1FFFFC00
00000000
00000000
000C0000
001E0000
003E0000
007F0000
003F0000
001E0000
000C0000
00000000
00000000
00000000
00000000
00000000
ENDCHAR
STARTCHAR U+00F8
ENCODING 248
SWIDTH 580 0
DWIDTH 29 0
BBX 29 26 0 -1
BITMAP
00000100
001FC380
00FFFF80
01FFFF00
03FFFF00
07F07F00
0FC03F80
0F807FC0
1F00F7C0
1F00E3C0
1E01C3E0
3E03C3E0
3E0783E0
3E0F03E0
3E0E03E0
1E1E03E0
1F3C03C0
1F7807C0
0FF00FC0
0FE01F80
07F07F00
03FFFE00
07FFFC00
0FFFF800
0E1FC000
04000000
ENDCHAR
STARTCHAR U+00F9
ENCODING 249
SWIDTH 580 0
DWIDTH 29 0
BBX 29 35 0 0
BITMAP
007C0000
003E0000
001E0000
001F0000
000F8000
0007C000
0003C000
00000000
00000000
00000000
00000000
0F000F80
0F000F80
0F000F80
0F000F80
0F000F80
0F000F80
0F000F80
0F000F80
0F000F80
0F000F80
0F000F80
0F000F80
0F000F80
0F000F80
0F000F80
0F000F80
0F800F80
0F800F80
0FC01F80
07F07F80
03FFFF80
03FFFF80
00FFEF80
003F8F80
ENDCHAR
STARTCHAR U+00FA
ENCODING 250
SWIDTH 580 0
DWIDTH 29 0
BBX 29 35 0 0
BITMAP
0001F000
0003E000
0007C000
00078000
000F0000
001F0000
001E0000
00000000
00000000
00000000
00000000
0F000F80
0F000F80
0F000F80
0F000F80
0F000F80
0F000F80
0F000F80
0F000F80
0F000F80
0F000F80
0F000F80
0F000F80
0F000F80
0F000F80
0F000F80
0F000F80
0F800F80
0F800F80
0FC01F80
07F07F80
03FFFF80
03FFFF80
00FFEF80
003F8F80
ENDCHAR
STARTCHAR U+00FB
ENCODING 251
SWIDTH 580 0
DWIDTH 29 0
BBX 29 35 0 0
BITMAP
000F8000
001FC000
003FE000
003DE000
0078F000
00F07800
00E03800
00000000
00000000
00000000
00000000
0F000F80
0F000F80
0F000F80
0F000F80
0F000F80
0F000F80
0F000F80
0F000F80
0F000F80
0F000F80
0F000F80
0F000F80
0F000F80
0F000F80
0F000F80
0F000F80
0F800F80
0F800F80
0FC01F80
07F07F80
03FFFF80
03FFFF80
00FFEF80
003F8F80
ENDCHAR
STARTCHAR U+00FC
ENCODING 252
SWIDTH 580 0
DWIDTH 29 0
BBX 29 35 0 0
BITMAP
00401000
00E03800
00F07C00
01F8FE00
00F07C00
00E03800
00401000
00000000
00000000
00000000
00000000
0F000F80
0F000F80
0F000F80
0F000F80
0F000F80
0F000F80
0F000F80
0F000F80
0F000F80
0F000F80
0F000F80
0F000F80
0F000F80
0F000F80
0F000F80
0F000F80
0F800F80
0F800F80
0FC01F80
07F07F80
03FFFF80
03FFFF80
00FFEF80
003F8F80
ENDCHAR
STARTCHAR U+00FD
ENCODING 253
SWIDTH 520 0
DWIDTH 26 0
BBX 26 44 0 -9
BITMAP
0003E000
0007C000
000F8000
000F0000
001E0000
003E0000
003C0000
00000000
00000000
00000000
00000000
7C000F80
7C000F80
3E001F00
3E001F00
1F001E00
1F003E00
1F003E00
0F807C00
0F807C00
07C07800
07C0F800
03C0F800
03E0F000
03E1F000
01E1E000
01F3E000
00F3E000
00FBC000
00FFC000
007F8000
007F8000
003F8000
003F0000
001F0000
001E0000
001E0000
003E0000
003C0000
00FC0000
07F80000
07F00000
07E00000
07800000
ENDCHAR
STARTCHAR U+00FE
ENCODING 254
SWIDTH 580 0
DWIDTH 29 0
BBX 29 42 0 -9
BITMAP
0F000000
0F000000
0F000000
0F000000
0F000000
0F000000
0F000000
0F000000
0F000000
0F0FC000
0F7FF800
0FFFFC00
0FFFFE00
0FE07F00
0F801F80
0F000F80
0F0007C0
0F0007C0
0F0003C0
0F0003E0
0F0003E0
0F0003E0
0F0003C0
0F0003C0
0F0007C0
0F0007C0
0F000F80
0F801F80
0FE07F00
0FFFFE00
0FFFFC00
0F7FF800
0F1FC000
0F000000
0F000000
0F000000
0F000000
0F000000
0F000000
0F000000
0F000000
0F000000
ENDCHAR
STARTCHAR U+00FF
ENCODING 255
SWIDTH 520 0
DWIDTH 26 0
BBX 26 44 0 -9
BITMAP
01004000
0380E000
03C1F000
07E3F800
03C1F000
0380E000
01004000
00000000
00000000
00000000
00000000
7C000F80
7C000F80
3E001F00
3E001F00
1F001E00
1F003E00
1F003E00
0F807C00
0F807C00
07C07800
07C0F800
03C0F800
03E0F000
03E1F000
01E1E000
01F3E000
00F3E000
00FBC000
00FFC000
007F8000
007F8000
003F8000
003F0000
001F0000
001E0000
001E0000
003E0000
003C0000
00FC0000
07F80000
07F00000
07E00000
07800000
ENDCHAR
STARTCHAR U+2013
ENCODING 8211
SWIDTH 480 0
DWIDTH 24 0
BBX 26 15 -1 0
BITMAP
FFFFFF00
FFFFFF00
FFFFFF00
FFFFFF00
00000000
00000000
00000000
00000000
00000000
00000000
00000000
00000000
00000000
00000000
00000000
ENDCHAR
STARTCHAR U+2014
ENCODING 8212
SWIDTH 960 0
DWIDTH 48 0
BBX 50 15 -1 0
BITMAP
FFFFFFFFFFFF00
FFFFFFFFFFFF00
FFFFFFFFFFFF00
FFFFFFFFFFFF00
00000000000000
00000000000000
00000000000000
00000000000000
00000000000000
00000000000000
00000000000000
00000000000000
00000000000000
00000000000000
00000000000000
ENDCHAR
STARTCHAR U+2018
ENCODING 8216
SWIDTH 240 0
DWIDTH 12 0
BBX 12 33 0 0
BITMAP
0100
0300
0600
0E00
0E00
1F00
1F00
1F80
0F80
0F00
0600
0000
0000
0000
0000
0000
0000
0000
0000
0000
0000
0000
0000
0000
0000
0000
0000
0000
0000
0000
0000
0000
0000
ENDCHAR
STARTCHAR U+2019
ENCODING 8217
SWIDTH 240 0
DWIDTH 12 0
BBX 12 33 0 0
BITMAP
0600
0F00
1F00
3F80
1F80
0F80
0700
0700
0600
0C00
1000
0000
0000
0000
0000
0000
0000
0000
0000
0000
0000
0000
0000
0000
0000
0000
0000
0000
0000
0000
0000
0000
0000
ENDCHAR
STARTCHAR U+201C
ENCODING 8220
SWIDTH 380 0
DWIDTH 19 0
BBX 19 33 0 0
BITMAP
010100
030600
060E00
0E0E00
0E1E00
1F1E00
1F1F00
1F9F80
0F9F00
0F0E00
060400
000000
000000
000000
000000
000000
000000
000000
000000
000000
000000
000000
000000
000000
000000
000000
000000
000000
000000
000000
000000
000000
000000
ENDCHAR
STARTCHAR U+201D
ENCODING 8221
SWIDTH 380 0
DWIDTH 19 0
BBX 19 33 0 0
BITMAP
060600
0F0F00
1F1F00
3FBF80
1F9F80
0F8F80
070700
070700
060600
0C0C00
101000
000000
000000
000000
000000
000000
000000
000000
000000
000000
000000
000000
000000
000000
000000
000000
000000
000000
000000
000000
000000
000000
000000
ENDCHAR
STARTCHAR U+2022
ENCODING 8226
SWIDTH 400 0
DWIDTH 20 0
BBX 20 21 0 0
BITMAP
002000
007000
00F800
01FC00
03FE00
07FF00
07FF00
03FE00
01FC00
00F800
007000
002000
000000
000000
000000
000000
000000
000000
000000
000000
000000
ENDCHAR
STARTCHAR U+2026
ENCODING 8230
SWIDTH 880 0
DWIDTH 44 0
BBX 44 6 0 0
BITMAP
040004000400
0E000E000E00
3F003F003F00
1F801F801F80
0F000F000F00
060006000600
ENDCHAR
STARTCHAR U+20AC
ENCODING 8364
SWIDTH 600 0
DWIDTH 30 0
BBX 30 33 0 0
BITMAP
0001FE00
000FFFC0
001FFFE0
007FFFE0
00FF01E0
01FC0020
01F00000
03E00000
07E00000
07C00000
07C00000
3FFFFC00
7FFFFC00
7FFFFC00
7FFFFC00
0F800000
0F800000
0F800000
3FFFF800
7FFFF800
7FFFF000
7FFFF000
0FC00000
07C00000
07E00000
03E00000
03F00000
01FC0020
00FF01E0
007FFFE0
003FFFE0
000FFFC0
0001FE00
ENDCHAR
ENDFONT
